{
  "header": {
    "PPQ": 43,
    "bpm": 120,
    "name": ""
  },
  "tempo": [
    {
      "absoluteTime": 0,
      "seconds": 0,
      "bpm": 120
    }
  ],
  "timeSignature": [],
  "startTime": 0,
  "duration": 178.2441860464841,
  "tracks": [
    {
      "startTime": 0,
      "duration": 178.2441860464841,
      "length": 18255,
      "notes": [
        {
          "name": "G#2",
          "midi": 44,
          "time": 0,
          "velocity": 0.33070866141732286,
          "duration": 0.13953488372093023
        },
        {
          "name": "G#3",
          "midi": 56,
          "time": 0.023255813953488372,
          "velocity": 0.41732283464566927,
          "duration": 0.3372093023255814
        },
        {
          "name": "D#4",
          "midi": 63,
          "time": 0.023255813953488372,
          "velocity": 0.2755905511811024,
          "duration": 0.046511627906976744
        },
        {
          "name": "A4",
          "midi": 69,
          "time": 0.03488372093023256,
          "velocity": 0.33070866141732286,
          "duration": 0.023255813953488372
        },
        {
          "name": "G4",
          "midi": 67,
          "time": 0.046511627906976744,
          "velocity": 0.3543307086614173,
          "duration": 0.023255813953488372
        },
        {
          "name": "G#4",
          "midi": 68,
          "time": 0.06976744186046512,
          "velocity": 0.6141732283464567,
          "duration": 0.5697674418604651
        },
        {
          "name": "D#4",
          "midi": 63,
          "time": 0.08139534883720931,
          "velocity": 0.16535433070866143,
          "duration": 0.0697674418604651
        },
        {
          "name": "G#2",
          "midi": 44,
          "time": 0.1511627906976744,
          "velocity": 0.3700787401574803,
          "duration": 0.558139534883721
        },
        {
          "name": "C5",
          "midi": 72,
          "time": 0.1627906976744186,
          "velocity": 0.12598425196850394,
          "duration": 0.0697674418604651
        },
        {
          "name": "D#4",
          "midi": 63,
          "time": 0.2209302325581395,
          "velocity": 0.1968503937007874,
          "duration": 0.08139534883720931
        },
        {
          "name": "D#4",
          "midi": 63,
          "time": 0.3255813953488372,
          "velocity": 0.3543307086614173,
          "duration": 0.372093023255814
        },
        {
          "name": "G#3",
          "midi": 56,
          "time": 0.37209302325581395,
          "velocity": 0.41732283464566927,
          "duration": 0.17441860465116277
        },
        {
          "name": "C5",
          "midi": 72,
          "time": 0.41860465116279066,
          "velocity": 0.2755905511811024,
          "duration": 0.09302325581395354
        },
        {
          "name": "G#3",
          "midi": 56,
          "time": 0.5697674418604651,
          "velocity": 0.3858267716535433,
          "duration": 0.17441860465116288
        },
        {
          "name": "C5",
          "midi": 72,
          "time": 0.6162790697674418,
          "velocity": 0.1889763779527559,
          "duration": 0.06976744186046513
        },
        {
          "name": "G#4",
          "midi": 68,
          "time": 0.6511627906976745,
          "velocity": 0.5590551181102362,
          "duration": 0.6279069767441863
        },
        {
          "name": "D#4",
          "midi": 63,
          "time": 0.7093023255813954,
          "velocity": 0.2992125984251969,
          "duration": 0.09302325581395354
        },
        {
          "name": "C5",
          "midi": 72,
          "time": 0.7325581395348838,
          "velocity": 0.14173228346456693,
          "duration": 0.09302325581395354
        },
        {
          "name": "G#2",
          "midi": 44,
          "time": 0.7558139534883722,
          "velocity": 0.3228346456692913,
          "duration": 0.5581395348837211
        },
        {
          "name": "G#3",
          "midi": 56,
          "time": 0.7674418604651164,
          "velocity": 0.3937007874015748,
          "duration": 0.2674418604651162
        },
        {
          "name": "D#4",
          "midi": 63,
          "time": 0.8255813953488373,
          "velocity": 0.16535433070866143,
          "duration": 0.03488372093023251
        },
        {
          "name": "F4",
          "midi": 65,
          "time": 0.8837209302325583,
          "velocity": 0.6771653543307087,
          "duration": 0.13953488372093015
        },
        {
          "name": "C5",
          "midi": 72,
          "time": 0.8837209302325583,
          "velocity": 0.2755905511811024,
          "duration": 0.16279069767441856
        },
        {
          "name": "D#5",
          "midi": 75,
          "time": 0.9883720930232559,
          "velocity": 0.2992125984251969,
          "duration": 0.3604651162790701
        },
        {
          "name": "D#4",
          "midi": 63,
          "time": 1.0116279069767442,
          "velocity": 0.7480314960629921,
          "duration": 0.4186046511627912
        },
        {
          "name": "F4",
          "midi": 65,
          "time": 1.0348837209302326,
          "velocity": 0.6141732283464567,
          "duration": 0.011627906976744207
        },
        {
          "name": "A#5",
          "midi": 82,
          "time": 1.0465116279069768,
          "velocity": 0.14173228346456693,
          "duration": 0.058139534883721034
        },
        {
          "name": "F4",
          "midi": 65,
          "time": 1.0930232558139537,
          "velocity": 0.5590551181102362,
          "duration": 0.011627906976744207
        },
        {
          "name": "C5",
          "midi": 72,
          "time": 1.116279069767442,
          "velocity": 0.29133858267716534,
          "duration": 0.1976744186046513
        },
        {
          "name": "F5",
          "midi": 77,
          "time": 1.2674418604651165,
          "velocity": 0.07086614173228346,
          "duration": 0.06976744186046524
        },
        {
          "name": "G#4",
          "midi": 68,
          "time": 1.290697674418605,
          "velocity": 0.3464566929133858,
          "duration": 0.09302325581395365
        },
        {
          "name": "A#3",
          "midi": 58,
          "time": 1.3255813953488376,
          "velocity": 0.3937007874015748,
          "duration": 0.09302325581395365
        },
        {
          "name": "C5",
          "midi": 72,
          "time": 1.3372093023255818,
          "velocity": 0.2283464566929134,
          "duration": 0.04651162790697683
        },
        {
          "name": "A2",
          "midi": 45,
          "time": 1.348837209302326,
          "velocity": 0.1968503937007874,
          "duration": 0.03488372093023262
        },
        {
          "name": "C#5",
          "midi": 73,
          "time": 1.3837209302325586,
          "velocity": 0.3228346456692913,
          "duration": 0.19767441860465151
        },
        {
          "name": "A2",
          "midi": 45,
          "time": 1.4186046511627912,
          "velocity": 0.30708661417322836,
          "duration": 0.03488372093023262
        },
        {
          "name": "G#4",
          "midi": 68,
          "time": 1.4186046511627912,
          "velocity": 0.25196850393700787,
          "duration": 0.09302325581395365
        },
        {
          "name": "C#4",
          "midi": 61,
          "time": 1.4302325581395354,
          "velocity": 0.5748031496062992,
          "duration": 0.20930232558139572
        },
        {
          "name": "A#2",
          "midi": 46,
          "time": 1.4534883720930238,
          "velocity": 0.28346456692913385,
          "duration": 0.04651162790697683
        },
        {
          "name": "A2",
          "midi": 45,
          "time": 1.5000000000000007,
          "velocity": 0.2992125984251969,
          "duration": 0.023255813953488413
        },
        {
          "name": "F4",
          "midi": 65,
          "time": 1.5000000000000007,
          "velocity": 0.4094488188976378,
          "duration": 0.10465116279069786
        },
        {
          "name": "A#4",
          "midi": 70,
          "time": 1.5000000000000007,
          "velocity": 0.29133858267716534,
          "duration": 0.22093023255813993
        },
        {
          "name": "A2",
          "midi": 45,
          "time": 1.5581395348837217,
          "velocity": 0.2992125984251969,
          "duration": 0.03488372093023262
        },
        {
          "name": "A2",
          "midi": 45,
          "time": 1.6162790697674427,
          "velocity": 0.33070866141732286,
          "duration": 0.03488372093023262
        },
        {
          "name": "G#3",
          "midi": 56,
          "time": 1.627906976744187,
          "velocity": 0.29133858267716534,
          "duration": 0.03488372093023262
        },
        {
          "name": "C5",
          "midi": 72,
          "time": 1.627906976744187,
          "velocity": 0.2755905511811024,
          "duration": 0.03488372093023262
        },
        {
          "name": "F5",
          "midi": 77,
          "time": 1.627906976744187,
          "velocity": 0.13385826771653545,
          "duration": 0.03488372093023262
        },
        {
          "name": "D4",
          "midi": 62,
          "time": 1.6395348837209311,
          "velocity": 0.5354330708661418,
          "duration": 0.023255813953488413
        },
        {
          "name": "A#2",
          "midi": 46,
          "time": 1.6511627906976754,
          "velocity": 0.2755905511811024,
          "duration": 0.023255813953488413
        },
        {
          "name": "C#4",
          "midi": 61,
          "time": 1.6627906976744196,
          "velocity": 0.6299212598425197,
          "duration": 0.1627906976744189
        },
        {
          "name": "G#5",
          "midi": 80,
          "time": 1.6627906976744196,
          "velocity": 0.23622047244094488,
          "duration": 0.10465116279069786
        },
        {
          "name": "D#5",
          "midi": 75,
          "time": 1.6744186046511638,
          "velocity": 0.11023622047244094,
          "duration": 0.058139534883721034
        },
        {
          "name": "A2",
          "midi": 45,
          "time": 1.6976744186046522,
          "velocity": 0.3543307086614173,
          "duration": 0.04651162790697683
        },
        {
          "name": "G#4",
          "midi": 68,
          "time": 1.7209302325581406,
          "velocity": 0.11023622047244094,
          "duration": 0.03488372093023262
        },
        {
          "name": "A#4",
          "midi": 70,
          "time": 1.7558139534883732,
          "velocity": 0.2283464566929134,
          "duration": 0.09302325581395365
        },
        {
          "name": "A#2",
          "midi": 46,
          "time": 1.7674418604651174,
          "velocity": 0.33858267716535434,
          "duration": 0.1860465116279073
        },
        {
          "name": "G#5",
          "midi": 80,
          "time": 1.80232558139535,
          "velocity": 0.1732283464566929,
          "duration": 0.06976744186046524
        },
        {
          "name": "C#4",
          "midi": 61,
          "time": 1.8372093023255827,
          "velocity": 0.5669291338582677,
          "duration": 0.08139534883720945
        },
        {
          "name": "A#4",
          "midi": 70,
          "time": 1.860465116279071,
          "velocity": 0.2755905511811024,
          "duration": 0.08139534883720945
        },
        {
          "name": "D#4",
          "midi": 63,
          "time": 1.906976744186048,
          "velocity": 0.2283464566929134,
          "duration": 0.04651162790697683
        },
        {
          "name": "A#3",
          "midi": 58,
          "time": 1.9418604651162805,
          "velocity": 0.3543307086614173,
          "duration": 0.09302325581395343
        },
        {
          "name": "F4",
          "midi": 65,
          "time": 1.9418604651162805,
          "velocity": 0.28346456692913385,
          "duration": 0.08139534883720922
        },
        {
          "name": "D5",
          "midi": 74,
          "time": 1.9767441860465131,
          "velocity": 0.2204724409448819,
          "duration": 0.046511627906976605
        },
        {
          "name": "A2",
          "midi": 45,
          "time": 2.0000000000000013,
          "velocity": 0.2047244094488189,
          "duration": 0.03488372093023262
        },
        {
          "name": "C#5",
          "midi": 73,
          "time": 2.0116279069767455,
          "velocity": 0.3779527559055118,
          "duration": 0.3139534883720936
        },
        {
          "name": "A#2",
          "midi": 46,
          "time": 2.034883720930234,
          "velocity": 0.33858267716535434,
          "duration": 0.337209302325582
        },
        {
          "name": "F4",
          "midi": 65,
          "time": 2.034883720930234,
          "velocity": 0.3937007874015748,
          "duration": 0.19767441860465151
        },
        {
          "name": "C#4",
          "midi": 61,
          "time": 2.046511627906978,
          "velocity": 0.3937007874015748,
          "duration": 0.12790697674418627
        },
        {
          "name": "A#4",
          "midi": 70,
          "time": 2.1279069767441876,
          "velocity": 0.5118110236220472,
          "duration": 0.20930232558139572
        },
        {
          "name": "G#5",
          "midi": 80,
          "time": 2.1279069767441876,
          "velocity": 0.14960629921259844,
          "duration": 0.11627906976744207
        },
        {
          "name": "A#3",
          "midi": 58,
          "time": 2.151162790697676,
          "velocity": 0.33858267716535434,
          "duration": 0.023255813953488413
        },
        {
          "name": "A#3",
          "midi": 58,
          "time": 2.197674418604653,
          "velocity": 0.5196850393700787,
          "duration": 0.03488372093023262
        },
        {
          "name": "C#4",
          "midi": 61,
          "time": 2.209302325581397,
          "velocity": 0.5354330708661418,
          "duration": 0.03488372093023262
        },
        {
          "name": "A#3",
          "midi": 58,
          "time": 2.2441860465116297,
          "velocity": 0.7086614173228346,
          "duration": 0.08139534883720945
        },
        {
          "name": "F4",
          "midi": 65,
          "time": 2.267441860465118,
          "velocity": 0.2440944881889764,
          "duration": 0.023255813953488413
        },
        {
          "name": "G#4",
          "midi": 68,
          "time": 2.3023255813953507,
          "velocity": 0.3464566929133858,
          "duration": 0.04651162790697683
        },
        {
          "name": "D#5",
          "midi": 75,
          "time": 2.3023255813953507,
          "velocity": 0.3464566929133858,
          "duration": 0.25581395348837255
        },
        {
          "name": "A3",
          "midi": 57,
          "time": 2.325581395348839,
          "velocity": 0.6771653543307087,
          "duration": 0.011627906976744207
        },
        {
          "name": "F4",
          "midi": 65,
          "time": 2.325581395348839,
          "velocity": 0.36220472440944884,
          "duration": 0.12790697674418627
        },
        {
          "name": "G#3",
          "midi": 56,
          "time": 2.3372093023255833,
          "velocity": 0.5433070866141733,
          "duration": 0.011627906976744207
        },
        {
          "name": "A#3",
          "midi": 58,
          "time": 2.3372093023255833,
          "velocity": 0.5748031496062992,
          "duration": 0.011627906976744207
        },
        {
          "name": "F#3",
          "midi": 54,
          "time": 2.3488372093023275,
          "velocity": 0.6141732283464567,
          "duration": 0.011627906976744207
        },
        {
          "name": "A#4",
          "midi": 70,
          "time": 2.3488372093023275,
          "velocity": 0.3464566929133858,
          "duration": 0.06976744186046524
        },
        {
          "name": "C#5",
          "midi": 73,
          "time": 2.3488372093023275,
          "velocity": 0.29133858267716534,
          "duration": 0.1511627906976747
        },
        {
          "name": "A3",
          "midi": 57,
          "time": 2.3604651162790717,
          "velocity": 0.6614173228346457,
          "duration": 0.011627906976744207
        },
        {
          "name": "G#4",
          "midi": 68,
          "time": 2.3604651162790717,
          "velocity": 0.4645669291338583,
          "duration": 0.1744186046511631
        },
        {
          "name": "A2",
          "midi": 45,
          "time": 2.372093023255816,
          "velocity": 0.2047244094488189,
          "duration": 0.058139534883721034
        },
        {
          "name": "G#3",
          "midi": 56,
          "time": 2.372093023255816,
          "velocity": 0.5669291338582677,
          "duration": 0.011627906976744207
        },
        {
          "name": "G3",
          "midi": 55,
          "time": 2.38372093023256,
          "velocity": 0.5196850393700787,
          "duration": 0.011627906976744207
        },
        {
          "name": "G#3",
          "midi": 56,
          "time": 2.3953488372093044,
          "velocity": 0.6062992125984252,
          "duration": 0.20930232558139572
        },
        {
          "name": "A#2",
          "midi": 46,
          "time": 2.430232558139537,
          "velocity": 0.29133858267716534,
          "duration": 0.09302325581395365
        },
        {
          "name": "A#4",
          "midi": 70,
          "time": 2.4534883720930254,
          "velocity": 0.29133858267716534,
          "duration": 0.04651162790697683
        },
        {
          "name": "F4",
          "midi": 65,
          "time": 2.476744186046514,
          "velocity": 0.44881889763779526,
          "duration": 0.11627906976744207
        },
        {
          "name": "A#4",
          "midi": 70,
          "time": 2.5232558139534906,
          "velocity": 0.3543307086614173,
          "duration": 0.10465116279069786
        },
        {
          "name": "C#5",
          "midi": 73,
          "time": 2.5232558139534906,
          "velocity": 0.29133858267716534,
          "duration": 0.04651162790697683
        },
        {
          "name": "A#2",
          "midi": 46,
          "time": 2.534883720930235,
          "velocity": 0.2677165354330709,
          "duration": 0.08139534883720945
        },
        {
          "name": "C#5",
          "midi": 73,
          "time": 2.593023255813956,
          "velocity": 0.33858267716535434,
          "duration": 0.03488372093023262
        },
        {
          "name": "F4",
          "midi": 65,
          "time": 2.6046511627907,
          "velocity": 0.3464566929133858,
          "duration": 0.1511627906976747
        },
        {
          "name": "G#4",
          "midi": 68,
          "time": 2.6046511627907,
          "velocity": 0.7165354330708661,
          "duration": 0.5930232558139545
        },
        {
          "name": "F2",
          "midi": 41,
          "time": 2.6279069767441885,
          "velocity": 0.41732283464566927,
          "duration": 0.40697674418604723
        },
        {
          "name": "F3",
          "midi": 53,
          "time": 2.6279069767441885,
          "velocity": 0.4251968503937008,
          "duration": 0.12790697674418627
        },
        {
          "name": "C#4",
          "midi": 61,
          "time": 2.6279069767441885,
          "velocity": 0.3779527559055118,
          "duration": 0.10465116279069786
        },
        {
          "name": "F4",
          "midi": 65,
          "time": 2.767441860465119,
          "velocity": 0.33070866141732286,
          "duration": 0.023255813953488413
        },
        {
          "name": "C#4",
          "midi": 61,
          "time": 2.7906976744186074,
          "velocity": 0.3228346456692913,
          "duration": 0.10465116279069786
        },
        {
          "name": "C5",
          "midi": 72,
          "time": 2.837209302325584,
          "velocity": 0.25196850393700787,
          "duration": 0.04651162790697683
        },
        {
          "name": "C4",
          "midi": 60,
          "time": 2.8953488372093052,
          "velocity": 0.2677165354330709,
          "duration": 0.03488372093023262
        },
        {
          "name": "D#6",
          "midi": 87,
          "time": 2.9186046511627937,
          "velocity": 0.14960629921259844,
          "duration": 0.1627906976744189
        },
        {
          "name": "C#4",
          "midi": 61,
          "time": 2.930232558139538,
          "velocity": 0.4094488188976378,
          "duration": 0.12790697674418627
        },
        {
          "name": "F2",
          "midi": 41,
          "time": 3.04651162790698,
          "velocity": 0.31496062992125984,
          "duration": 0.1860465116279073
        },
        {
          "name": "F3",
          "midi": 53,
          "time": 3.058139534883724,
          "velocity": 0.4330708661417323,
          "duration": 0.5581395348837219
        },
        {
          "name": "C#4",
          "midi": 61,
          "time": 3.0697674418604683,
          "velocity": 0.44881889763779526,
          "duration": 0.1860465116279073
        },
        {
          "name": "C5",
          "midi": 72,
          "time": 3.0930232558139568,
          "velocity": 0.13385826771653545,
          "duration": 0.03488372093023262
        },
        {
          "name": "F5",
          "midi": 77,
          "time": 3.1395348837209336,
          "velocity": 0.10236220472440945,
          "duration": 0.1627906976744189
        },
        {
          "name": "G#4",
          "midi": 68,
          "time": 3.209302325581399,
          "velocity": 0.3937007874015748,
          "duration": 0.04651162790697683
        },
        {
          "name": "E2",
          "midi": 40,
          "time": 3.2558139534883757,
          "velocity": 0.13385826771653545,
          "duration": 0.04651162790697683
        },
        {
          "name": "C4",
          "midi": 60,
          "time": 3.2558139534883757,
          "velocity": 0.23622047244094488,
          "duration": 0.023255813953488413
        },
        {
          "name": "A4",
          "midi": 69,
          "time": 3.2558139534883757,
          "velocity": 0.3779527559055118,
          "duration": 0.058139534883721034
        },
        {
          "name": "C#4",
          "midi": 61,
          "time": 3.279069767441864,
          "velocity": 0.44881889763779526,
          "duration": 0.20930232558139572
        },
        {
          "name": "G#5",
          "midi": 80,
          "time": 3.279069767441864,
          "velocity": 0.2047244094488189,
          "duration": 0.13953488372093048
        },
        {
          "name": "G#4",
          "midi": 68,
          "time": 3.3139534883720967,
          "velocity": 0.7007874015748031,
          "duration": 0.3720930232558146
        },
        {
          "name": "F2",
          "midi": 41,
          "time": 3.337209302325585,
          "velocity": 0.2283464566929134,
          "duration": 0.27906976744186096
        },
        {
          "name": "D#6",
          "midi": 87,
          "time": 3.4186046511627945,
          "velocity": 0.14173228346456693,
          "duration": 0.12790697674418627
        },
        {
          "name": "G4",
          "midi": 67,
          "time": 3.500000000000004,
          "velocity": 0.5118110236220472,
          "duration": 0.011627906976744207
        },
        {
          "name": "C#5",
          "midi": 73,
          "time": 3.500000000000004,
          "velocity": 0.2125984251968504,
          "duration": 0.058139534883721034
        },
        {
          "name": "F4",
          "midi": 65,
          "time": 3.511627906976748,
          "velocity": 0.6299212598425197,
          "duration": 0.19767441860465151
        },
        {
          "name": "C#4",
          "midi": 61,
          "time": 3.5232558139534924,
          "velocity": 0.28346456692913385,
          "duration": 0.04651162790697683
        },
        {
          "name": "C6",
          "midi": 84,
          "time": 3.5232558139534924,
          "velocity": 0.23622047244094488,
          "duration": 0.1511627906976747
        },
        {
          "name": "C5",
          "midi": 72,
          "time": 3.546511627906981,
          "velocity": 0.4881889763779528,
          "duration": 0.11627906976744207
        },
        {
          "name": "D#5",
          "midi": 75,
          "time": 3.604651162790702,
          "velocity": 0.33858267716535434,
          "duration": 0.09302325581395365
        },
        {
          "name": "A#5",
          "midi": 82,
          "time": 3.616279069767446,
          "velocity": 0.31496062992125984,
          "duration": 0.3255813953488378
        },
        {
          "name": "D#4",
          "midi": 63,
          "time": 3.6395348837209345,
          "velocity": 0.5196850393700787,
          "duration": 0.023255813953488413
        },
        {
          "name": "F2",
          "midi": 41,
          "time": 3.674418604651167,
          "velocity": 0.4094488188976378,
          "duration": 0.25581395348837255
        },
        {
          "name": "C5",
          "midi": 72,
          "time": 3.674418604651167,
          "velocity": 0.2125984251968504,
          "duration": 0.10465116279069786
        },
        {
          "name": "D#4",
          "midi": 63,
          "time": 3.6976744186046555,
          "velocity": 0.48031496062992124,
          "duration": 0.09302325581395365
        },
        {
          "name": "D#5",
          "midi": 75,
          "time": 3.7093023255813997,
          "velocity": 0.5275590551181102,
          "duration": 0.26744186046511675
        },
        {
          "name": "A4",
          "midi": 69,
          "time": 3.732558139534888,
          "velocity": 0.23622047244094488,
          "duration": 0.023255813953488413
        },
        {
          "name": "G#4",
          "midi": 68,
          "time": 3.7558139534883765,
          "velocity": 0.4015748031496063,
          "duration": 0.1511627906976747
        },
        {
          "name": "D#4",
          "midi": 63,
          "time": 3.8023255813953534,
          "velocity": 0.4015748031496063,
          "duration": 0.023255813953488413
        },
        {
          "name": "C#5",
          "midi": 73,
          "time": 3.8023255813953534,
          "velocity": 0.2440944881889764,
          "duration": 0.1511627906976747
        },
        {
          "name": "D#4",
          "midi": 63,
          "time": 3.837209302325586,
          "velocity": 0.5275590551181102,
          "duration": 0.11627906976744207
        },
        {
          "name": "F5",
          "midi": 77,
          "time": 3.8604651162790744,
          "velocity": 0.15748031496062992,
          "duration": 0.08139534883720945
        },
        {
          "name": "C4",
          "midi": 60,
          "time": 3.895348837209307,
          "velocity": 0.2440944881889764,
          "duration": 0.023255813953488413
        },
        {
          "name": "F#4",
          "midi": 66,
          "time": 3.9069767441860512,
          "velocity": 0.3543307086614173,
          "duration": 0.06976744186046524
        },
        {
          "name": "G#2",
          "midi": 44,
          "time": 3.9302325581395396,
          "velocity": 0.3228346456692913,
          "duration": 0.023255813953488413
        },
        {
          "name": "F#3",
          "midi": 54,
          "time": 3.9302325581395396,
          "velocity": 0.3858267716535433,
          "duration": 0.12790697674418583
        },
        {
          "name": "G#5",
          "midi": 80,
          "time": 3.941860465116284,
          "velocity": 0.2755905511811024,
          "duration": 0.4651162790697678
        },
        {
          "name": "F#2",
          "midi": 42,
          "time": 3.953488372093028,
          "velocity": 0.4251968503937008,
          "duration": 0.22093023255813948
        },
        {
          "name": "C#4",
          "midi": 61,
          "time": 3.953488372093028,
          "velocity": 0.6299212598425197,
          "duration": 0.18604651162790686
        },
        {
          "name": "A#4",
          "midi": 70,
          "time": 3.9651162790697723,
          "velocity": 0.33070866141732286,
          "duration": 0.18604651162790686
        },
        {
          "name": "D#5",
          "midi": 75,
          "time": 4.046511627906981,
          "velocity": 0.16535433070866143,
          "duration": 0.13953488372093048
        },
        {
          "name": "F3",
          "midi": 53,
          "time": 4.0581395348837255,
          "velocity": 0.30708661417322836,
          "duration": 0.04651162790697683
        },
        {
          "name": "G#4",
          "midi": 68,
          "time": 4.06976744186047,
          "velocity": 0.2204724409448819,
          "duration": 0.06976744186046524
        },
        {
          "name": "F#5",
          "midi": 78,
          "time": 4.104651162790702,
          "velocity": 0.08661417322834646,
          "duration": 0.06976744186046524
        },
        {
          "name": "D4",
          "midi": 62,
          "time": 4.139534883720935,
          "velocity": 0.41732283464566927,
          "duration": 0.03488372093023262
        },
        {
          "name": "G2",
          "midi": 43,
          "time": 4.1744186046511675,
          "velocity": 0.25984251968503935,
          "duration": 0.023255813953488413
        },
        {
          "name": "C#4",
          "midi": 61,
          "time": 4.1744186046511675,
          "velocity": 0.5511811023622047,
          "duration": 0.29069767441860517
        },
        {
          "name": "F#2",
          "midi": 42,
          "time": 4.197674418604656,
          "velocity": 0.3464566929133858,
          "duration": 0.023255813953488413
        },
        {
          "name": "A#4",
          "midi": 70,
          "time": 4.197674418604656,
          "velocity": 0.25196850393700787,
          "duration": 0.11627906976744207
        },
        {
          "name": "F4",
          "midi": 65,
          "time": 4.2093023255814,
          "velocity": 0.30708661417322836,
          "duration": 0.023255813953488413
        },
        {
          "name": "F2",
          "midi": 41,
          "time": 4.220930232558144,
          "velocity": 0.3858267716535433,
          "duration": 0.023255813953488413
        },
        {
          "name": "F#4",
          "midi": 66,
          "time": 4.232558139534889,
          "velocity": 0.44881889763779526,
          "duration": 0.09302325581395365
        },
        {
          "name": "F#2",
          "midi": 42,
          "time": 4.244186046511633,
          "velocity": 0.41732283464566927,
          "duration": 0.3023255813953494
        },
        {
          "name": "A#4",
          "midi": 70,
          "time": 4.325581395348842,
          "velocity": 0.30708661417322836,
          "duration": 0.13953488372093048
        },
        {
          "name": "F#5",
          "midi": 78,
          "time": 4.325581395348842,
          "velocity": 0.1732283464566929,
          "duration": 0.058139534883721034
        },
        {
          "name": "F4",
          "midi": 65,
          "time": 4.337209302325586,
          "velocity": 0.2204724409448819,
          "duration": 0.03488372093023262
        },
        {
          "name": "F3",
          "midi": 53,
          "time": 4.348837209302331,
          "velocity": 0.25196850393700787,
          "duration": 0.023255813953488413
        },
        {
          "name": "D#5",
          "midi": 75,
          "time": 4.360465116279075,
          "velocity": 0.15748031496062992,
          "duration": 0.19767441860465151
        },
        {
          "name": "F#4",
          "midi": 66,
          "time": 4.372093023255819,
          "velocity": 0.4251968503937008,
          "duration": 0.5000000000000009
        },
        {
          "name": "G#5",
          "midi": 80,
          "time": 4.43023255813954,
          "velocity": 0.23622047244094488,
          "duration": 0.1860465116279073
        },
        {
          "name": "D4",
          "midi": 62,
          "time": 4.465116279069773,
          "velocity": 0.3700787401574803,
          "duration": 0.023255813953488413
        },
        {
          "name": "C#4",
          "midi": 61,
          "time": 4.488372093023261,
          "velocity": 0.3858267716535433,
          "duration": 0.11627906976744207
        },
        {
          "name": "A#4",
          "midi": 70,
          "time": 4.488372093023261,
          "velocity": 0.4645669291338583,
          "duration": 0.3604651162790704
        },
        {
          "name": "F#3",
          "midi": 54,
          "time": 4.546511627906982,
          "velocity": 0.25984251968503935,
          "duration": 0.058139534883721034
        },
        {
          "name": "F#2",
          "midi": 42,
          "time": 4.558139534883726,
          "velocity": 0.31496062992125984,
          "duration": 0.26744186046511675
        },
        {
          "name": "E5",
          "midi": 76,
          "time": 4.581395348837215,
          "velocity": 0.15748031496062992,
          "duration": 0.03488372093023262
        },
        {
          "name": "C#4",
          "midi": 61,
          "time": 4.616279069767447,
          "velocity": 0.44881889763779526,
          "duration": 0.1860465116279073
        },
        {
          "name": "G#5",
          "midi": 80,
          "time": 4.639534883720936,
          "velocity": 0.4094488188976378,
          "duration": 0.45348837209302406
        },
        {
          "name": "F#3",
          "midi": 54,
          "time": 4.686046511627913,
          "velocity": 0.36220472440944884,
          "duration": 0.11627906976744207
        },
        {
          "name": "B3",
          "midi": 59,
          "time": 4.802325581395355,
          "velocity": 0.5354330708661418,
          "duration": 0.011627906976744207
        },
        {
          "name": "F5",
          "midi": 77,
          "time": 4.802325581395355,
          "velocity": 0.44881889763779526,
          "duration": 0.24418604651162834
        },
        {
          "name": "A#3",
          "midi": 58,
          "time": 4.813953488372099,
          "velocity": 0.7716535433070866,
          "duration": 0.13953488372093048
        },
        {
          "name": "C#5",
          "midi": 73,
          "time": 4.813953488372099,
          "velocity": 0.33070866141732286,
          "duration": 0.03488372093023262
        },
        {
          "name": "F2",
          "midi": 41,
          "time": 4.825581395348843,
          "velocity": 0.2204724409448819,
          "duration": 0.03488372093023262
        },
        {
          "name": "A4",
          "midi": 69,
          "time": 4.8488372093023315,
          "velocity": 0.3858267716535433,
          "duration": 0.03488372093023262
        },
        {
          "name": "C#5",
          "midi": 73,
          "time": 4.860465116279076,
          "velocity": 0.23622047244094488,
          "duration": 0.08139534883720945
        },
        {
          "name": "F#4",
          "midi": 66,
          "time": 4.883720930232564,
          "velocity": 0.2125984251968504,
          "duration": 0.03488372093023262
        },
        {
          "name": "D#5",
          "midi": 75,
          "time": 4.906976744186053,
          "velocity": 0.5039370078740157,
          "duration": 0.23255813953488413
        },
        {
          "name": "G#4",
          "midi": 68,
          "time": 4.918604651162797,
          "velocity": 0.4251968503937008,
          "duration": 0.27906976744186096
        },
        {
          "name": "C6",
          "midi": 84,
          "time": 4.930232558139541,
          "velocity": 0.14173228346456693,
          "duration": 0.06976744186046524
        },
        {
          "name": "G#3",
          "midi": 56,
          "time": 4.941860465116285,
          "velocity": 0.5433070866141733,
          "duration": 0.011627906976744207
        },
        {
          "name": "A3",
          "midi": 57,
          "time": 4.953488372093029,
          "velocity": 0.7165354330708661,
          "duration": 0.023255813953488413
        },
        {
          "name": "F#4",
          "midi": 66,
          "time": 4.953488372093029,
          "velocity": 0.23622047244094488,
          "duration": 0.023255813953488413
        },
        {
          "name": "G#3",
          "midi": 56,
          "time": 4.976744186046518,
          "velocity": 0.5669291338582677,
          "duration": 0.011627906976744207
        },
        {
          "name": "A#3",
          "midi": 58,
          "time": 4.976744186046518,
          "velocity": 0.5354330708661418,
          "duration": 0.011627906976744207
        },
        {
          "name": "C#5",
          "midi": 73,
          "time": 4.976744186046518,
          "velocity": 0.28346456692913385,
          "duration": 0.19767441860465151
        },
        {
          "name": "A#5",
          "midi": 82,
          "time": 4.976744186046518,
          "velocity": 0.1889763779527559,
          "duration": 0.22093023255813993
        },
        {
          "name": "G3",
          "midi": 55,
          "time": 4.988372093023262,
          "velocity": 0.6062992125984252,
          "duration": 0.011627906976744207
        },
        {
          "name": "F2",
          "midi": 41,
          "time": 5.000000000000006,
          "velocity": 0.14960629921259844,
          "duration": 0.03488372093023262
        },
        {
          "name": "A3",
          "midi": 57,
          "time": 5.000000000000006,
          "velocity": 0.6377952755905512,
          "duration": 0.011627906976744207
        },
        {
          "name": "G#3",
          "midi": 56,
          "time": 5.01162790697675,
          "velocity": 0.5590551181102362,
          "duration": 0.011627906976744207
        },
        {
          "name": "F#4",
          "midi": 66,
          "time": 5.01162790697675,
          "velocity": 0.36220472440944884,
          "duration": 0.1627906976744189
        },
        {
          "name": "A#4",
          "midi": 70,
          "time": 5.01162790697675,
          "velocity": 0.33070866141732286,
          "duration": 0.06976744186046524
        },
        {
          "name": "G3",
          "midi": 55,
          "time": 5.023255813953495,
          "velocity": 0.5354330708661418,
          "duration": 0.011627906976744207
        },
        {
          "name": "C6",
          "midi": 84,
          "time": 5.023255813953495,
          "velocity": 0.14173228346456693,
          "duration": 0.058139534883721034
        },
        {
          "name": "F#2",
          "midi": 42,
          "time": 5.034883720930239,
          "velocity": 0.3543307086614173,
          "duration": 0.19767441860465151
        },
        {
          "name": "G#3",
          "midi": 56,
          "time": 5.034883720930239,
          "velocity": 0.5905511811023622,
          "duration": 0.011627906976744207
        },
        {
          "name": "A3",
          "midi": 57,
          "time": 5.046511627906983,
          "velocity": 0.5826771653543307,
          "duration": 0.011627906976744207
        },
        {
          "name": "G#3",
          "midi": 56,
          "time": 5.058139534883727,
          "velocity": 0.5669291338582677,
          "duration": 0.03488372093023262
        },
        {
          "name": "F5",
          "midi": 77,
          "time": 5.0697674418604715,
          "velocity": 0.09448818897637795,
          "duration": 0.03488372093023262
        },
        {
          "name": "A3",
          "midi": 57,
          "time": 5.09302325581396,
          "velocity": 0.5984251968503937,
          "duration": 0.011627906976744207
        },
        {
          "name": "G#3",
          "midi": 56,
          "time": 5.104651162790704,
          "velocity": 0.5984251968503937,
          "duration": 0.11627906976744207
        },
        {
          "name": "A#4",
          "midi": 70,
          "time": 5.116279069767448,
          "velocity": 0.31496062992125984,
          "duration": 0.03488372093023262
        },
        {
          "name": "A#4",
          "midi": 70,
          "time": 5.162790697674425,
          "velocity": 0.33858267716535434,
          "duration": 0.06976744186046524
        },
        {
          "name": "F#4",
          "midi": 66,
          "time": 5.1860465116279135,
          "velocity": 0.3228346456692913,
          "duration": 0.058139534883721034
        },
        {
          "name": "C#5",
          "midi": 73,
          "time": 5.197674418604658,
          "velocity": 0.10236220472440945,
          "duration": 0.06976744186046524
        },
        {
          "name": "F5",
          "midi": 77,
          "time": 5.209302325581402,
          "velocity": 0.12598425196850394,
          "duration": 0.04651162790697683
        },
        {
          "name": "A3",
          "midi": 57,
          "time": 5.220930232558146,
          "velocity": 0.4251968503937008,
          "duration": 0.023255813953488413
        },
        {
          "name": "F4",
          "midi": 65,
          "time": 5.244186046511635,
          "velocity": 0.3543307086614173,
          "duration": 0.023255813953488413
        },
        {
          "name": "G#4",
          "midi": 68,
          "time": 5.244186046511635,
          "velocity": 0.33070866141732286,
          "duration": 0.058139534883721034
        },
        {
          "name": "C#6",
          "midi": 85,
          "time": 5.244186046511635,
          "velocity": 0.2204724409448819,
          "duration": 0.10465116279069786
        },
        {
          "name": "F#3",
          "midi": 54,
          "time": 5.255813953488379,
          "velocity": 0.29133858267716534,
          "duration": 0.04651162790697683
        },
        {
          "name": "C4",
          "midi": 60,
          "time": 5.255813953488379,
          "velocity": 0.29133858267716534,
          "duration": 0.023255813953488413
        },
        {
          "name": "F6",
          "midi": 89,
          "time": 5.279069767441867,
          "velocity": 0.07086614173228346,
          "duration": 0.03488372093023262
        },
        {
          "name": "F2",
          "midi": 41,
          "time": 5.290697674418611,
          "velocity": 0.2992125984251969,
          "duration": 0.1627906976744189
        },
        {
          "name": "A#4",
          "midi": 70,
          "time": 5.290697674418611,
          "velocity": 0.2047244094488189,
          "duration": 0.058139534883721034
        },
        {
          "name": "C#4",
          "midi": 61,
          "time": 5.302325581395356,
          "velocity": 0.6771653543307087,
          "duration": 0.5000000000000009
        },
        {
          "name": "F#4",
          "midi": 66,
          "time": 5.302325581395356,
          "velocity": 0.4015748031496063,
          "duration": 0.058139534883721034
        },
        {
          "name": "F5",
          "midi": 77,
          "time": 5.3139534883721,
          "velocity": 0.09448818897637795,
          "duration": 0.09302325581395365
        },
        {
          "name": "F#3",
          "midi": 54,
          "time": 5.325581395348844,
          "velocity": 0.36220472440944884,
          "duration": 0.03488372093023262
        },
        {
          "name": "G#4",
          "midi": 68,
          "time": 5.348837209302332,
          "velocity": 0.3228346456692913,
          "duration": 0.1627906976744189
        },
        {
          "name": "F3",
          "midi": 53,
          "time": 5.360465116279077,
          "velocity": 0.3858267716535433,
          "duration": 0.06976744186046524
        },
        {
          "name": "E2",
          "midi": 40,
          "time": 5.45348837209303,
          "velocity": 0.2047244094488189,
          "duration": 0.03488372093023262
        },
        {
          "name": "F3",
          "midi": 53,
          "time": 5.45348837209303,
          "velocity": 0.36220472440944884,
          "duration": 0.04651162790697683
        },
        {
          "name": "F2",
          "midi": 41,
          "time": 5.488372093023263,
          "velocity": 0.23622047244094488,
          "duration": 0.12790697674418627
        },
        {
          "name": "A#5",
          "midi": 82,
          "time": 5.488372093023263,
          "velocity": 0.11811023622047244,
          "duration": 0.03488372093023262
        },
        {
          "name": "F#4",
          "midi": 66,
          "time": 5.500000000000007,
          "velocity": 0.3464566929133858,
          "duration": 0.03488372093023262
        },
        {
          "name": "G#5",
          "midi": 80,
          "time": 5.511627906976751,
          "velocity": 0.4251968503937008,
          "duration": 0.3488372093023262
        },
        {
          "name": "F3",
          "midi": 53,
          "time": 5.53488372093024,
          "velocity": 0.25984251968503935,
          "duration": 0.08139534883720945
        },
        {
          "name": "G4",
          "midi": 67,
          "time": 5.53488372093024,
          "velocity": 0.2440944881889764,
          "duration": 0.023255813953488413
        },
        {
          "name": "C#6",
          "midi": 85,
          "time": 5.558139534883728,
          "velocity": 0.4409448818897638,
          "duration": 0.23255813953488413
        },
        {
          "name": "G#4",
          "midi": 68,
          "time": 5.569767441860472,
          "velocity": 0.3464566929133858,
          "duration": 0.03488372093023262
        },
        {
          "name": "D5",
          "midi": 74,
          "time": 5.569767441860472,
          "velocity": 0.25984251968503935,
          "duration": 0.023255813953488413
        },
        {
          "name": "F5",
          "midi": 77,
          "time": 5.569767441860472,
          "velocity": 0.2047244094488189,
          "duration": 0.03488372093023262
        },
        {
          "name": "F6",
          "midi": 89,
          "time": 5.569767441860472,
          "velocity": 0.2204724409448819,
          "duration": 0.1744186046511631
        },
        {
          "name": "A#4",
          "midi": 70,
          "time": 5.5813953488372166,
          "velocity": 0.16535433070866143,
          "duration": 0.04651162790697683
        },
        {
          "name": "D#5",
          "midi": 75,
          "time": 5.593023255813961,
          "velocity": 0.2204724409448819,
          "duration": 0.13953488372093048
        },
        {
          "name": "F4",
          "midi": 65,
          "time": 5.627906976744193,
          "velocity": 0.4251968503937008,
          "duration": 0.06976744186046524
        },
        {
          "name": "G#4",
          "midi": 68,
          "time": 5.627906976744193,
          "velocity": 0.36220472440944884,
          "duration": 0.11627906976744207
        },
        {
          "name": "F3",
          "midi": 53,
          "time": 5.651162790697682,
          "velocity": 0.2283464566929134,
          "duration": 0.04651162790697683
        },
        {
          "name": "F2",
          "midi": 41,
          "time": 5.67441860465117,
          "velocity": 0.3858267716535433,
          "duration": 0.337209302325582
        },
        {
          "name": "E3",
          "midi": 52,
          "time": 5.697674418604659,
          "velocity": 0.2283464566929134,
          "duration": 0.023255813953488413
        },
        {
          "name": "F4",
          "midi": 65,
          "time": 5.720930232558147,
          "velocity": 0.4015748031496063,
          "duration": 0.19767441860465151
        },
        {
          "name": "C6",
          "midi": 84,
          "time": 5.7441860465116354,
          "velocity": 0.14960629921259844,
          "duration": 0.04651162790697683
        },
        {
          "name": "G#4",
          "midi": 68,
          "time": 5.75581395348838,
          "velocity": 0.2755905511811024,
          "duration": 0.06976744186046524
        },
        {
          "name": "C#4",
          "midi": 61,
          "time": 5.813953488372101,
          "velocity": 0.5275590551181102,
          "duration": 0.22093023255813993
        },
        {
          "name": "F3",
          "midi": 53,
          "time": 5.825581395348845,
          "velocity": 0.3937007874015748,
          "duration": 0.1744186046511631
        },
        {
          "name": "G#4",
          "midi": 68,
          "time": 5.89534883720931,
          "velocity": 0.2677165354330709,
          "duration": 0.1744186046511631
        },
        {
          "name": "G#5",
          "midi": 80,
          "time": 5.89534883720931,
          "velocity": 0.30708661417322836,
          "duration": 0.24418604651162834
        },
        {
          "name": "C5",
          "midi": 72,
          "time": 5.9186046511627985,
          "velocity": 0.15748031496062992,
          "duration": 0.03488372093023262
        },
        {
          "name": "F6",
          "midi": 89,
          "time": 5.97674418604652,
          "velocity": 0.10236220472440945,
          "duration": 0.03488372093023262
        },
        {
          "name": "F3",
          "midi": 53,
          "time": 6.023255813953496,
          "velocity": 0.3464566929133858,
          "duration": 0.08139534883720945
        },
        {
          "name": "F2",
          "midi": 41,
          "time": 6.046511627906985,
          "velocity": 0.36220472440944884,
          "duration": 0.43023255813953565
        },
        {
          "name": "C#4",
          "midi": 61,
          "time": 6.046511627906985,
          "velocity": 0.41732283464566927,
          "duration": 0.058139534883721034
        },
        {
          "name": "F#4",
          "midi": 66,
          "time": 6.093023255813962,
          "velocity": 0.2992125984251969,
          "duration": 0.023255813953488413
        },
        {
          "name": "A#4",
          "midi": 70,
          "time": 6.093023255813962,
          "velocity": 0.31496062992125984,
          "duration": 0.023255813953488413
        },
        {
          "name": "F5",
          "midi": 77,
          "time": 6.093023255813962,
          "velocity": 0.33858267716535434,
          "duration": 0.27906976744186096
        },
        {
          "name": "A#5",
          "midi": 82,
          "time": 6.104651162790706,
          "velocity": 0.3543307086614173,
          "duration": 0.10465116279069786
        },
        {
          "name": "F3",
          "midi": 53,
          "time": 6.11627906976745,
          "velocity": 0.4015748031496063,
          "duration": 0.10465116279069786
        },
        {
          "name": "C4",
          "midi": 60,
          "time": 6.11627906976745,
          "velocity": 0.5354330708661418,
          "duration": 0.011627906976744207
        },
        {
          "name": "C#5",
          "midi": 73,
          "time": 6.11627906976745,
          "velocity": 0.2755905511811024,
          "duration": 0.10465116279069786
        },
        {
          "name": "D6",
          "midi": 86,
          "time": 6.11627906976745,
          "velocity": 0.23622047244094488,
          "duration": 0.1511627906976747
        },
        {
          "name": "C#4",
          "midi": 61,
          "time": 6.127906976744194,
          "velocity": 0.49606299212598426,
          "duration": 0.03488372093023262
        },
        {
          "name": "G#4",
          "midi": 68,
          "time": 6.127906976744194,
          "velocity": 0.28346456692913385,
          "duration": 0.058139534883721034
        },
        {
          "name": "A#4",
          "midi": 70,
          "time": 6.127906976744194,
          "velocity": 0.36220472440944884,
          "duration": 0.10465116279069786
        },
        {
          "name": "A#3",
          "midi": 58,
          "time": 6.151162790697683,
          "velocity": 0.6850393700787402,
          "duration": 0.11627906976744207
        },
        {
          "name": "G#5",
          "midi": 80,
          "time": 6.151162790697683,
          "velocity": 0.4251968503937008,
          "duration": 0.674418604651164
        },
        {
          "name": "F4",
          "midi": 65,
          "time": 6.209302325581404,
          "velocity": 0.4251968503937008,
          "duration": 0.3255813953488378
        },
        {
          "name": "B5",
          "midi": 83,
          "time": 6.209302325581404,
          "velocity": 0.29133858267716534,
          "duration": 0.023255813953488413
        },
        {
          "name": "C6",
          "midi": 84,
          "time": 6.209302325581404,
          "velocity": 0.29133858267716534,
          "duration": 0.09302325581395365
        },
        {
          "name": "G#4",
          "midi": 68,
          "time": 6.220930232558148,
          "velocity": 0.3228346456692913,
          "duration": 0.023255813953488413
        },
        {
          "name": "D#6",
          "midi": 87,
          "time": 6.220930232558148,
          "velocity": 0.10236220472440945,
          "duration": 0.03488372093023262
        },
        {
          "name": "A4",
          "midi": 69,
          "time": 6.232558139534892,
          "velocity": 0.3700787401574803,
          "duration": 0.023255813953488413
        },
        {
          "name": "D#5",
          "midi": 75,
          "time": 6.232558139534892,
          "velocity": 0.4645669291338583,
          "duration": 0.3023255813953494
        },
        {
          "name": "F#6",
          "midi": 90,
          "time": 6.232558139534892,
          "velocity": 0.14960629921259844,
          "duration": 0.08139534883720945
        },
        {
          "name": "C5",
          "midi": 72,
          "time": 6.244186046511636,
          "velocity": 0.09448818897637795,
          "duration": 0.04651162790697683
        },
        {
          "name": "B5",
          "midi": 83,
          "time": 6.244186046511636,
          "velocity": 0.1732283464566929,
          "duration": 0.04651162790697683
        },
        {
          "name": "G#4",
          "midi": 68,
          "time": 6.2558139534883805,
          "velocity": 0.4566929133858268,
          "duration": 0.3255813953488378
        },
        {
          "name": "C#6",
          "midi": 85,
          "time": 6.2558139534883805,
          "velocity": 0.18110236220472442,
          "duration": 0.09302325581395365
        },
        {
          "name": "A3",
          "midi": 57,
          "time": 6.279069767441869,
          "velocity": 0.4566929133858268,
          "duration": 0.023255813953488413
        },
        {
          "name": "C#5",
          "midi": 73,
          "time": 6.279069767441869,
          "velocity": 0.2677165354330709,
          "duration": 0.24418604651162834
        },
        {
          "name": "A3",
          "midi": 57,
          "time": 6.313953488372102,
          "velocity": 0.5118110236220472,
          "duration": 0.023255813953488413
        },
        {
          "name": "C#4",
          "midi": 61,
          "time": 6.325581395348846,
          "velocity": 0.3858267716535433,
          "duration": 0.058139534883721034
        },
        {
          "name": "C6",
          "midi": 84,
          "time": 6.325581395348846,
          "velocity": 0.14960629921259844,
          "duration": 0.04651162790697683
        },
        {
          "name": "G#3",
          "midi": 56,
          "time": 6.33720930232559,
          "velocity": 0.6692913385826772,
          "duration": 0.19767441860465151
        },
        {
          "name": "B5",
          "midi": 83,
          "time": 6.33720930232559,
          "velocity": 0.09448818897637795,
          "duration": 0.03488372093023262
        },
        {
          "name": "C#4",
          "midi": 61,
          "time": 6.395348837209311,
          "velocity": 0.25984251968503935,
          "duration": 0.04651162790697683
        },
        {
          "name": "A#5",
          "midi": 82,
          "time": 6.418604651162799,
          "velocity": 0.1968503937007874,
          "duration": 0.04651162790697683
        },
        {
          "name": "C6",
          "midi": 84,
          "time": 6.441860465116288,
          "velocity": 0.14960629921259844,
          "duration": 0.08139534883720945
        },
        {
          "name": "C#4",
          "midi": 61,
          "time": 6.488372093023265,
          "velocity": 0.30708661417322836,
          "duration": 0.04651162790697683
        },
        {
          "name": "F2",
          "midi": 41,
          "time": 6.5348837209302415,
          "velocity": 0.3779527559055118,
          "duration": 0.03488372093023262
        },
        {
          "name": "C4",
          "midi": 60,
          "time": 6.5348837209302415,
          "velocity": 0.3543307086614173,
          "duration": 0.03488372093023262
        },
        {
          "name": "C#5",
          "midi": 73,
          "time": 6.5348837209302415,
          "velocity": 0.23622047244094488,
          "duration": 0.06976744186046524
        },
        {
          "name": "F#5",
          "midi": 78,
          "time": 6.5348837209302415,
          "velocity": 0.2204724409448819,
          "duration": 0.11627906976744207
        },
        {
          "name": "F4",
          "midi": 65,
          "time": 6.55813953488373,
          "velocity": 0.2677165354330709,
          "duration": 0.023255813953488413
        },
        {
          "name": "A#4",
          "midi": 70,
          "time": 6.55813953488373,
          "velocity": 0.3543307086614173,
          "duration": 0.1860465116279073
        },
        {
          "name": "F#2",
          "midi": 42,
          "time": 6.569767441860474,
          "velocity": 0.4251968503937008,
          "duration": 0.953488372093025
        },
        {
          "name": "C#4",
          "midi": 61,
          "time": 6.569767441860474,
          "velocity": 0.5118110236220472,
          "duration": 0.19767441860465151
        },
        {
          "name": "G#4",
          "midi": 68,
          "time": 6.5930232558139625,
          "velocity": 0.16535433070866143,
          "duration": 0.03488372093023262
        },
        {
          "name": "F6",
          "midi": 89,
          "time": 6.604651162790707,
          "velocity": 0.13385826771653545,
          "duration": 0.058139534883721034
        },
        {
          "name": "F3",
          "midi": 53,
          "time": 6.616279069767451,
          "velocity": 0.36220472440944884,
          "duration": 0.03488372093023262
        },
        {
          "name": "F#4",
          "midi": 66,
          "time": 6.616279069767451,
          "velocity": 0.30708661417322836,
          "duration": 0.08139534883720945
        },
        {
          "name": "C#5",
          "midi": 73,
          "time": 6.616279069767451,
          "velocity": 0.5433070866141733,
          "duration": 0.8023255813953503
        },
        {
          "name": "G3",
          "midi": 55,
          "time": 6.662790697674428,
          "velocity": 0.28346456692913385,
          "duration": 0.023255813953488413
        },
        {
          "name": "D#5",
          "midi": 75,
          "time": 6.662790697674428,
          "velocity": 0.12598425196850394,
          "duration": 0.06976744186046524
        },
        {
          "name": "F3",
          "midi": 53,
          "time": 6.686046511627916,
          "velocity": 0.3543307086614173,
          "duration": 0.023255813953488413
        },
        {
          "name": "G#4",
          "midi": 68,
          "time": 6.686046511627916,
          "velocity": 0.2755905511811024,
          "duration": 0.03488372093023262
        },
        {
          "name": "F6",
          "midi": 89,
          "time": 6.686046511627916,
          "velocity": 0.14960629921259844,
          "duration": 0.06976744186046524
        },
        {
          "name": "F#3",
          "midi": 54,
          "time": 6.709302325581405,
          "velocity": 0.47244094488188976,
          "duration": 0.1860465116279073
        },
        {
          "name": "A#4",
          "midi": 70,
          "time": 6.755813953488381,
          "velocity": 0.33070866141732286,
          "duration": 0.3720930232558146
        },
        {
          "name": "C4",
          "midi": 60,
          "time": 6.767441860465126,
          "velocity": 0.23622047244094488,
          "duration": 0.023255813953488413
        },
        {
          "name": "C#4",
          "midi": 61,
          "time": 6.790697674418614,
          "velocity": 0.41732283464566927,
          "duration": 0.06976744186046524
        },
        {
          "name": "F5",
          "midi": 77,
          "time": 6.8139534883721025,
          "velocity": 0.13385826771653545,
          "duration": 0.03488372093023262
        },
        {
          "name": "D#5",
          "midi": 75,
          "time": 6.825581395348847,
          "velocity": 0.2204724409448819,
          "duration": 0.058139534883721034
        },
        {
          "name": "D4",
          "midi": 62,
          "time": 6.860465116279079,
          "velocity": 0.41732283464566927,
          "duration": 0.023255813953488413
        },
        {
          "name": "G#5",
          "midi": 80,
          "time": 6.860465116279079,
          "velocity": 0.41732283464566927,
          "duration": 0.3255813953488378
        },
        {
          "name": "G5",
          "midi": 79,
          "time": 6.8720930232558235,
          "velocity": 0.11811023622047244,
          "duration": 0.03488372093023262
        },
        {
          "name": "C4",
          "midi": 60,
          "time": 6.883720930232568,
          "velocity": 0.4645669291338583,
          "duration": 0.023255813953488413
        },
        {
          "name": "D6",
          "midi": 86,
          "time": 6.883720930232568,
          "velocity": 0.12598425196850394,
          "duration": 0.058139534883721034
        },
        {
          "name": "F6",
          "midi": 89,
          "time": 6.895348837209312,
          "velocity": 0.2047244094488189,
          "duration": 0.1627906976744189
        },
        {
          "name": "F#3",
          "midi": 54,
          "time": 6.906976744186056,
          "velocity": 0.4645669291338583,
          "duration": 0.11627906976744207
        },
        {
          "name": "C#4",
          "midi": 61,
          "time": 6.906976744186056,
          "velocity": 0.6377952755905512,
          "duration": 0.20930232558139572
        },
        {
          "name": "C6",
          "midi": 84,
          "time": 6.9186046511628,
          "velocity": 0.2047244094488189,
          "duration": 0.058139534883721034
        },
        {
          "name": "D#5",
          "midi": 75,
          "time": 7.023255813953498,
          "velocity": 0.1732283464566929,
          "duration": 0.04651162790697683
        },
        {
          "name": "C4",
          "midi": 60,
          "time": 7.116279069767452,
          "velocity": 0.2755905511811024,
          "duration": 0.03488372093023262
        },
        {
          "name": "A#4",
          "midi": 70,
          "time": 7.13953488372094,
          "velocity": 0.4015748031496063,
          "duration": 0.26744186046511675
        },
        {
          "name": "C#4",
          "midi": 61,
          "time": 7.1511627906976845,
          "velocity": 0.3858267716535433,
          "duration": 0.13953488372093048
        },
        {
          "name": "G#5",
          "midi": 80,
          "time": 7.2093023255814055,
          "velocity": 0.30708661417322836,
          "duration": 0.24418604651162834
        },
        {
          "name": "A#5",
          "midi": 82,
          "time": 7.2674418604651265,
          "velocity": 0.4330708661417323,
          "duration": 0.27906976744186096
        },
        {
          "name": "F6",
          "midi": 89,
          "time": 7.2674418604651265,
          "velocity": 0.11811023622047244,
          "duration": 0.09302325581395365
        },
        {
          "name": "C#4",
          "midi": 61,
          "time": 7.302325581395359,
          "velocity": 0.5433070866141733,
          "duration": 0.12790697674418627
        },
        {
          "name": "D#5",
          "midi": 75,
          "time": 7.395348837209313,
          "velocity": 0.3779527559055118,
          "duration": 0.1744186046511631
        },
        {
          "name": "G4",
          "midi": 67,
          "time": 7.406976744186057,
          "velocity": 0.3464566929133858,
          "duration": 0.023255813953488413
        },
        {
          "name": "F5",
          "midi": 77,
          "time": 7.406976744186057,
          "velocity": 0.1732283464566929,
          "duration": 0.058139534883721034
        },
        {
          "name": "D#4",
          "midi": 63,
          "time": 7.430232558139545,
          "velocity": 0.5905511811023622,
          "duration": 0.11627906976744207
        },
        {
          "name": "A#4",
          "midi": 70,
          "time": 7.430232558139545,
          "velocity": 0.31496062992125984,
          "duration": 0.09302325581395365
        },
        {
          "name": "C#5",
          "midi": 73,
          "time": 7.430232558139545,
          "velocity": 0.3543307086614173,
          "duration": 0.10465116279069786
        },
        {
          "name": "G6",
          "midi": 91,
          "time": 7.430232558139545,
          "velocity": 0.18110236220472442,
          "duration": 0.06976744186046524
        },
        {
          "name": "F#4",
          "midi": 66,
          "time": 7.44186046511629,
          "velocity": 0.4566929133858268,
          "duration": 0.04651162790697683
        },
        {
          "name": "G#5",
          "midi": 80,
          "time": 7.476744186046522,
          "velocity": 0.25196850393700787,
          "duration": 0.06976744186046524
        },
        {
          "name": "F5",
          "midi": 77,
          "time": 7.511627906976755,
          "velocity": 0.5826771653543307,
          "duration": 0.9883720930232238
        },
        {
          "name": "C6",
          "midi": 84,
          "time": 7.511627906976755,
          "velocity": 0.3464566929133858,
          "duration": 0.058139534883721034
        },
        {
          "name": "E6",
          "midi": 88,
          "time": 7.511627906976755,
          "velocity": 0.2125984251968504,
          "duration": 0.03488372093023262
        },
        {
          "name": "A4",
          "midi": 69,
          "time": 7.523255813953499,
          "velocity": 0.3937007874015748,
          "duration": 0.023255813953488413
        },
        {
          "name": "B4",
          "midi": 71,
          "time": 7.523255813953499,
          "velocity": 0.2440944881889764,
          "duration": 0.023255813953488413
        },
        {
          "name": "F#6",
          "midi": 90,
          "time": 7.523255813953499,
          "velocity": 0.16535433070866143,
          "duration": 0.03488372093023262
        },
        {
          "name": "A6",
          "midi": 93,
          "time": 7.523255813953499,
          "velocity": 0.16535433070866143,
          "duration": 0.04651162790697683
        },
        {
          "name": "F4",
          "midi": 65,
          "time": 7.5465116279069875,
          "velocity": 0.7322834645669292,
          "duration": 0.3023255813953494
        },
        {
          "name": "A#4",
          "midi": 70,
          "time": 7.5465116279069875,
          "velocity": 0.2992125984251969,
          "duration": 0.04651162790697683
        },
        {
          "name": "C#5",
          "midi": 73,
          "time": 7.5465116279069875,
          "velocity": 0.2283464566929134,
          "duration": 0.023255813953488413
        },
        {
          "name": "G2",
          "midi": 43,
          "time": 7.558139534883732,
          "velocity": 0.1732283464566929,
          "duration": 0.058139534883721034
        },
        {
          "name": "G#5",
          "midi": 80,
          "time": 7.558139534883732,
          "velocity": 0.1968503937007874,
          "duration": 0.08139534883720945
        },
        {
          "name": "B5",
          "midi": 83,
          "time": 7.558139534883732,
          "velocity": 0.31496062992125984,
          "duration": 0.04651162790697683
        },
        {
          "name": "G6",
          "midi": 91,
          "time": 7.558139534883732,
          "velocity": 0.14960629921259844,
          "duration": 0.058139534883721034
        },
        {
          "name": "E6",
          "midi": 88,
          "time": 7.569767441860476,
          "velocity": 0.25984251968503935,
          "duration": 0.04651162790697683
        },
        {
          "name": "C5",
          "midi": 72,
          "time": 7.58139534883722,
          "velocity": 0.5118110236220472,
          "duration": 0.23255813953488413
        },
        {
          "name": "C#4",
          "midi": 61,
          "time": 7.593023255813964,
          "velocity": 0.4330708661417323,
          "duration": 0.058139534883721034
        },
        {
          "name": "F#2",
          "midi": 42,
          "time": 7.616279069767453,
          "velocity": 0.29133858267716534,
          "duration": 0.23255813953488413
        },
        {
          "name": "A5",
          "midi": 81,
          "time": 7.627906976744197,
          "velocity": 0.2440944881889764,
          "duration": 0.10465116279069786
        },
        {
          "name": "E6",
          "midi": 88,
          "time": 7.651162790697685,
          "velocity": 0.15748031496062992,
          "duration": 0.12790697674418627
        },
        {
          "name": "C#4",
          "midi": 61,
          "time": 7.6627906976744296,
          "velocity": 0.36220472440944884,
          "duration": 0.04651162790697683
        },
        {
          "name": "G6",
          "midi": 91,
          "time": 7.6627906976744296,
          "velocity": 0.12598425196850394,
          "duration": 0.11627906976744207
        },
        {
          "name": "G#5",
          "midi": 80,
          "time": 7.674418604651174,
          "velocity": 0.14960629921259844,
          "duration": 0.03488372093023262
        },
        {
          "name": "A#5",
          "midi": 82,
          "time": 7.674418604651174,
          "velocity": 0.12598425196850394,
          "duration": 0.04651162790697683
        },
        {
          "name": "B5",
          "midi": 83,
          "time": 7.674418604651174,
          "velocity": 0.15748031496062992,
          "duration": 0.03488372093023262
        },
        {
          "name": "D#5",
          "midi": 75,
          "time": 7.744186046511639,
          "velocity": 0.12598425196850394,
          "duration": 0.03488372093023262
        },
        {
          "name": "A5",
          "midi": 81,
          "time": 7.744186046511639,
          "velocity": 0.2755905511811024,
          "duration": 0.06976744186046524
        },
        {
          "name": "A#5",
          "midi": 82,
          "time": 7.744186046511639,
          "velocity": 0.12598425196850394,
          "duration": 0.04651162790697683
        },
        {
          "name": "D6",
          "midi": 86,
          "time": 7.755813953488383,
          "velocity": 0.11023622047244094,
          "duration": 0.04651162790697683
        },
        {
          "name": "C#5",
          "midi": 73,
          "time": 7.779069767441872,
          "velocity": 0.25984251968503935,
          "duration": 0.06976744186046524
        },
        {
          "name": "A#4",
          "midi": 70,
          "time": 7.80232558139536,
          "velocity": 0.2125984251968504,
          "duration": 0.06976744186046524
        },
        {
          "name": "G#5",
          "midi": 80,
          "time": 7.813953488372104,
          "velocity": 0.13385826771653545,
          "duration": 0.09302325581395365
        },
        {
          "name": "C#4",
          "midi": 61,
          "time": 7.8255813953488484,
          "velocity": 0.4094488188976378,
          "duration": 0.20930232558139217
        },
        {
          "name": "G#4",
          "midi": 68,
          "time": 7.8255813953488484,
          "velocity": 0.25984251968503935,
          "duration": 0.023255813953488413
        },
        {
          "name": "F#4",
          "midi": 66,
          "time": 7.848837209302337,
          "velocity": 0.49606299212598426,
          "duration": 0.023255813953488413
        },
        {
          "name": "A2",
          "midi": 45,
          "time": 7.860465116279081,
          "velocity": 0.2283464566929134,
          "duration": 0.023255813953488413
        },
        {
          "name": "G#4",
          "midi": 68,
          "time": 7.860465116279081,
          "velocity": 0.3858267716535433,
          "duration": 0.03488372093023262
        },
        {
          "name": "G#3",
          "midi": 56,
          "time": 7.872093023255825,
          "velocity": 0.33858267716535434,
          "duration": 0.08139534883720945
        },
        {
          "name": "F4",
          "midi": 65,
          "time": 7.872093023255825,
          "velocity": 0.6062992125984252,
          "duration": 0.2558139534883619
        },
        {
          "name": "C5",
          "midi": 72,
          "time": 7.872093023255825,
          "velocity": 0.2755905511811024,
          "duration": 0.09302325581395365
        },
        {
          "name": "C#6",
          "midi": 85,
          "time": 7.872093023255825,
          "velocity": 0.10236220472440945,
          "duration": 0.058139534883721034
        },
        {
          "name": "G#2",
          "midi": 44,
          "time": 7.8837209302325695,
          "velocity": 0.2992125984251969,
          "duration": 0.06976744186046524
        },
        {
          "name": "G#5",
          "midi": 80,
          "time": 7.930232558139546,
          "velocity": 0.1732283464566929,
          "duration": 0.058139534883721034
        },
        {
          "name": "D#5",
          "midi": 75,
          "time": 7.9418604651162905,
          "velocity": 0.1732283464566929,
          "duration": 0.06976744186046346
        },
        {
          "name": "A5",
          "midi": 81,
          "time": 7.9418604651162905,
          "velocity": 0.14960629921259844,
          "duration": 0.03488372093023262
        },
        {
          "name": "G#2",
          "midi": 44,
          "time": 7.965116279069779,
          "velocity": 0.2283464566929134,
          "duration": 0.03488372093023173
        },
        {
          "name": "G3",
          "midi": 55,
          "time": 7.965116279069779,
          "velocity": 0.30708661417322836,
          "duration": 0.023255813953488413
        },
        {
          "name": "C5",
          "midi": 72,
          "time": 7.976744186046523,
          "velocity": 0.2992125984251969,
          "duration": 0.05813953488371748
        },
        {
          "name": "G#4",
          "midi": 68,
          "time": 7.988372093023267,
          "velocity": 0.28346456692913385,
          "duration": 0.1279069767441765
        },
        {
          "name": "A5",
          "midi": 81,
          "time": 7.988372093023267,
          "velocity": 0.12598425196850394,
          "duration": 0.034883720930229956
        },
        {
          "name": "G2",
          "midi": 43,
          "time": 8.00000000000001,
          "velocity": 0.2125984251968504,
          "duration": 0.05813953488371659
        },
        {
          "name": "C6",
          "midi": 84,
          "time": 8.011627906976754,
          "velocity": 0.4645669291338583,
          "duration": 0.3953488372092764
        },
        {
          "name": "G3",
          "midi": 55,
          "time": 8.046511627906984,
          "velocity": 0.41732283464566927,
          "duration": 0.023255813953486637
        },
        {
          "name": "D#5",
          "midi": 75,
          "time": 8.058139534883727,
          "velocity": 0.1732283464566929,
          "duration": 0.10465116279068987
        },
        {
          "name": "G#3",
          "midi": 56,
          "time": 8.06976744186047,
          "velocity": 0.36220472440944884,
          "duration": 0.023255813953486637
        },
        {
          "name": "G#2",
          "midi": 44,
          "time": 8.081395348837214,
          "velocity": 0.33070866141732286,
          "duration": 0.5930232558139181
        },
        {
          "name": "G#3",
          "midi": 56,
          "time": 8.1046511627907,
          "velocity": 0.3543307086614173,
          "duration": 0.10465116279068987
        },
        {
          "name": "A#4",
          "midi": 70,
          "time": 8.127906976744187,
          "velocity": 0.13385826771653545,
          "duration": 0.034883720930229956
        },
        {
          "name": "G#5",
          "midi": 80,
          "time": 8.127906976744187,
          "velocity": 0.2204724409448819,
          "duration": 0.13953488372091982
        },
        {
          "name": "F4",
          "midi": 65,
          "time": 8.13953488372093,
          "velocity": 0.4409448818897638,
          "duration": 0.034883720930229956
        },
        {
          "name": "C#4",
          "midi": 61,
          "time": 8.151162790697674,
          "velocity": 0.28346456692913385,
          "duration": 0.046511627906973274
        },
        {
          "name": "E6",
          "midi": 88,
          "time": 8.162790697674417,
          "velocity": 0.2283464566929134,
          "duration": 0.034883720930229956
        },
        {
          "name": "F#4",
          "midi": 66,
          "time": 8.17441860465116,
          "velocity": 0.4409448818897638,
          "duration": 0.023255813953486637
        },
        {
          "name": "D6",
          "midi": 86,
          "time": 8.17441860465116,
          "velocity": 0.2204724409448819,
          "duration": 0.034883720930229956
        },
        {
          "name": "G6",
          "midi": 91,
          "time": 8.17441860465116,
          "velocity": 0.1732283464566929,
          "duration": 0.24418604651161324
        },
        {
          "name": "D#6",
          "midi": 87,
          "time": 8.186046511627904,
          "velocity": 0.1968503937007874,
          "duration": 0.05813953488371659
        },
        {
          "name": "F4",
          "midi": 65,
          "time": 8.197674418604647,
          "velocity": 0.6062992125984252,
          "duration": 0.19767441860463997
        },
        {
          "name": "C5",
          "midi": 72,
          "time": 8.197674418604647,
          "velocity": 0.5433070866141733,
          "duration": 0.24418604651161324
        },
        {
          "name": "A5",
          "midi": 81,
          "time": 8.197674418604647,
          "velocity": 0.2283464566929134,
          "duration": 0.046511627906973274
        },
        {
          "name": "G#4",
          "midi": 68,
          "time": 8.20930232558139,
          "velocity": 0.2992125984251969,
          "duration": 0.06976744186045991
        },
        {
          "name": "C#6",
          "midi": 85,
          "time": 8.20930232558139,
          "velocity": 0.14960629921259844,
          "duration": 0.05813953488371659
        },
        {
          "name": "E6",
          "midi": 88,
          "time": 8.20930232558139,
          "velocity": 0.2677165354330709,
          "duration": 0.05813953488371659
        },
        {
          "name": "C#4",
          "midi": 61,
          "time": 8.220930232558134,
          "velocity": 0.4251968503937008,
          "duration": 0.1395348837209216
        },
        {
          "name": "B5",
          "midi": 83,
          "time": 8.220930232558134,
          "velocity": 0.31496062992125984,
          "duration": 0.034883720930229956
        },
        {
          "name": "A#5",
          "midi": 82,
          "time": 8.232558139534877,
          "velocity": 0.1968503937007874,
          "duration": 0.034883720930229956
        },
        {
          "name": "G3",
          "midi": 55,
          "time": 8.24418604651162,
          "velocity": 0.31496062992125984,
          "duration": 0.023255813953486637
        },
        {
          "name": "D#5",
          "midi": 75,
          "time": 8.24418604651162,
          "velocity": 0.1732283464566929,
          "duration": 0.09302325581394655
        },
        {
          "name": "D6",
          "midi": 86,
          "time": 8.24418604651162,
          "velocity": 0.10236220472440945,
          "duration": 0.1511627906976667
        },
        {
          "name": "A5",
          "midi": 81,
          "time": 8.267441860465107,
          "velocity": 0.18110236220472442,
          "duration": 0.034883720930229956
        },
        {
          "name": "G#5",
          "midi": 80,
          "time": 8.290697674418594,
          "velocity": 0.2755905511811024,
          "duration": 0.10465116279069342
        },
        {
          "name": "G#4",
          "midi": 68,
          "time": 8.31395348837208,
          "velocity": 0.3779527559055118,
          "duration": 0.11627906976743674
        },
        {
          "name": "A5",
          "midi": 81,
          "time": 8.31395348837208,
          "velocity": 0.1889763779527559,
          "duration": 0.04651162790697505
        },
        {
          "name": "B5",
          "midi": 83,
          "time": 8.325581395348824,
          "velocity": 0.1732283464566929,
          "duration": 0.03488372093023173
        },
        {
          "name": "E6",
          "midi": 88,
          "time": 8.325581395348824,
          "velocity": 0.1732283464566929,
          "duration": 0.10465116279069342
        },
        {
          "name": "A3",
          "midi": 57,
          "time": 8.360465116279055,
          "velocity": 0.2283464566929134,
          "duration": 0.023255813953488413
        },
        {
          "name": "D#5",
          "midi": 75,
          "time": 8.360465116279055,
          "velocity": 0.1968503937007874,
          "duration": 0.2093023255813833
        },
        {
          "name": "G#3",
          "midi": 56,
          "time": 8.383720930232544,
          "velocity": 0.3700787401574803,
          "duration": 0.12790697674417828
        },
        {
          "name": "A5",
          "midi": 81,
          "time": 8.383720930232544,
          "velocity": 0.2677165354330709,
          "duration": 0.046511627906973274
        },
        {
          "name": "C#4",
          "midi": 61,
          "time": 8.395348837209287,
          "velocity": 0.1968503937007874,
          "duration": 0.046511627906973274
        },
        {
          "name": "F4",
          "midi": 65,
          "time": 8.40697674418603,
          "velocity": 0.41732283464566927,
          "duration": 0.09302325581394832
        },
        {
          "name": "A4",
          "midi": 69,
          "time": 8.430232558139517,
          "velocity": 0.2677165354330709,
          "duration": 0.023255813953486637
        },
        {
          "name": "C#5",
          "midi": 73,
          "time": 8.430232558139517,
          "velocity": 0.28346456692913385,
          "duration": 0.05813953488371837
        },
        {
          "name": "G#5",
          "midi": 80,
          "time": 8.430232558139517,
          "velocity": 0.2047244094488189,
          "duration": 0.04651162790697505
        },
        {
          "name": "C#4",
          "midi": 61,
          "time": 8.476744186046492,
          "velocity": 0.29133858267716534,
          "duration": 0.15116279069766492
        },
        {
          "name": "C5",
          "midi": 72,
          "time": 8.488372093023235,
          "velocity": 0.2992125984251969,
          "duration": 0.11627906976743496
        },
        {
          "name": "F4",
          "midi": 65,
          "time": 8.511627906976722,
          "velocity": 0.6377952755905512,
          "duration": 0.20930232558138506
        },
        {
          "name": "G4",
          "midi": 67,
          "time": 8.511627906976722,
          "velocity": 0.2755905511811024,
          "duration": 0.023255813953486637
        },
        {
          "name": "F6",
          "midi": 89,
          "time": 8.511627906976722,
          "velocity": 0.09448818897637795,
          "duration": 0.034883720930229956
        },
        {
          "name": "A6",
          "midi": 93,
          "time": 8.523255813953465,
          "velocity": 0.12598425196850394,
          "duration": 0.13953488372092337
        },
        {
          "name": "G#4",
          "midi": 68,
          "time": 8.534883720930209,
          "velocity": 0.3700787401574803,
          "duration": 0.09302325581394832
        },
        {
          "name": "A5",
          "midi": 81,
          "time": 8.558139534883695,
          "velocity": 0.18110236220472442,
          "duration": 0.05813953488371837
        },
        {
          "name": "C5",
          "midi": 72,
          "time": 8.627906976744157,
          "velocity": 0.2992125984251969,
          "duration": 0.0930232558139501
        },
        {
          "name": "D#5",
          "midi": 75,
          "time": 8.662790697674389,
          "velocity": 0.18110236220472442,
          "duration": 0.06976744186046169
        },
        {
          "name": "G#3",
          "midi": 56,
          "time": 8.674418604651132,
          "velocity": 0.33858267716535434,
          "duration": 0.11627906976743674
        },
        {
          "name": "C#4",
          "midi": 61,
          "time": 8.674418604651132,
          "velocity": 0.3228346456692913,
          "duration": 0.06976744186046169
        },
        {
          "name": "G#4",
          "midi": 68,
          "time": 8.674418604651132,
          "velocity": 0.3858267716535433,
          "duration": 0.04651162790697505
        },
        {
          "name": "F#5",
          "midi": 78,
          "time": 8.709302325581364,
          "velocity": 0.4330708661417323,
          "duration": 0.15116279069766492
        },
        {
          "name": "A#5",
          "midi": 82,
          "time": 8.709302325581364,
          "velocity": 0.18110236220472442,
          "duration": 0.081395348837205
        },
        {
          "name": "C#6",
          "midi": 85,
          "time": 8.709302325581364,
          "velocity": 0.5039370078740157,
          "duration": 0.5116279069767149
        },
        {
          "name": "G6",
          "midi": 91,
          "time": 8.709302325581364,
          "velocity": 0.1889763779527559,
          "duration": 0.06976744186046169
        },
        {
          "name": "F#4",
          "midi": 66,
          "time": 8.720930232558107,
          "velocity": 0.6771653543307087,
          "duration": 0.11627906976743496
        },
        {
          "name": "C#5",
          "midi": 73,
          "time": 8.720930232558107,
          "velocity": 0.5433070866141733,
          "duration": 0.22093023255812483
        },
        {
          "name": "E6",
          "midi": 88,
          "time": 8.720930232558107,
          "velocity": 0.11023622047244094,
          "duration": 0.05813953488371837
        },
        {
          "name": "A#6",
          "midi": 94,
          "time": 8.720930232558107,
          "velocity": 0.1889763779527559,
          "duration": 0.11627906976743496
        },
        {
          "name": "G#2",
          "midi": 44,
          "time": 8.73255813953485,
          "velocity": 0.3779527559055118,
          "duration": 0.43023255813951167
        },
        {
          "name": "G#5",
          "midi": 80,
          "time": 8.73255813953485,
          "velocity": 0.2204724409448819,
          "duration": 0.11627906976743496
        },
        {
          "name": "D#5",
          "midi": 75,
          "time": 8.790697674418569,
          "velocity": 0.11811023622047244,
          "duration": 0.034883720930229956
        },
        {
          "name": "A#5",
          "midi": 82,
          "time": 8.802325581395312,
          "velocity": 0.25984251968503935,
          "duration": 0.08139534883720323
        },
        {
          "name": "A6",
          "midi": 93,
          "time": 8.802325581395312,
          "velocity": 0.15748031496062992,
          "duration": 0.06976744186045991
        },
        {
          "name": "C#4",
          "midi": 61,
          "time": 8.813953488372055,
          "velocity": 0.6850393700787402,
          "duration": 0.32558139534882
        },
        {
          "name": "E5",
          "midi": 76,
          "time": 8.813953488372055,
          "velocity": 0.2677165354330709,
          "duration": 0.046511627906973274
        },
        {
          "name": "C6",
          "midi": 84,
          "time": 8.813953488372055,
          "velocity": 0.2283464566929134,
          "duration": 0.023255813953486637
        },
        {
          "name": "F6",
          "midi": 89,
          "time": 8.813953488372055,
          "velocity": 0.3543307086614173,
          "duration": 0.16279069767440824
        },
        {
          "name": "D7",
          "midi": 98,
          "time": 8.813953488372055,
          "velocity": 0.08661417322834646,
          "duration": 0.05813953488371659
        },
        {
          "name": "D6",
          "midi": 86,
          "time": 8.825581395348799,
          "velocity": 0.2755905511811024,
          "duration": 0.034883720930229956
        },
        {
          "name": "D#6",
          "midi": 87,
          "time": 8.825581395348799,
          "velocity": 0.2125984251968504,
          "duration": 0.046511627906973274
        },
        {
          "name": "F4",
          "midi": 65,
          "time": 8.837209302325542,
          "velocity": 0.48031496062992124,
          "duration": 0.023255813953486637
        },
        {
          "name": "C6",
          "midi": 84,
          "time": 8.848837209302285,
          "velocity": 0.2047244094488189,
          "duration": 0.046511627906973274
        },
        {
          "name": "F5",
          "midi": 77,
          "time": 8.860465116279029,
          "velocity": 0.33070866141732286,
          "duration": 0.19767441860464174
        },
        {
          "name": "G#5",
          "midi": 80,
          "time": 8.860465116279029,
          "velocity": 0.4409448818897638,
          "duration": 0.3139534883720767
        },
        {
          "name": "F4",
          "midi": 65,
          "time": 8.872093023255772,
          "velocity": 0.41732283464566927,
          "duration": 0.034883720930229956
        },
        {
          "name": "D#5",
          "midi": 75,
          "time": 8.872093023255772,
          "velocity": 0.1889763779527559,
          "duration": 0.034883720930229956
        },
        {
          "name": "G6",
          "midi": 91,
          "time": 8.883720930232515,
          "velocity": 0.11023622047244094,
          "duration": 0.06976744186045991
        },
        {
          "name": "F#4",
          "midi": 66,
          "time": 8.895348837209259,
          "velocity": 0.44881889763779526,
          "duration": 0.09302325581394832
        },
        {
          "name": "D7",
          "midi": 98,
          "time": 8.895348837209259,
          "velocity": 0.07874015748031496,
          "duration": 0.034883720930229956
        },
        {
          "name": "G3",
          "midi": 55,
          "time": 8.918604651162745,
          "velocity": 0.2283464566929134,
          "duration": 0.023255813953486637
        },
        {
          "name": "C6",
          "midi": 84,
          "time": 8.930232558139489,
          "velocity": 0.2440944881889764,
          "duration": 0.023255813953486637
        },
        {
          "name": "C5",
          "midi": 72,
          "time": 8.941860465116232,
          "velocity": 0.1968503937007874,
          "duration": 0.04651162790697505
        },
        {
          "name": "D#5",
          "midi": 75,
          "time": 8.976744186046464,
          "velocity": 0.2204724409448819,
          "duration": 0.04651162790697505
        },
        {
          "name": "F4",
          "midi": 65,
          "time": 8.988372093023207,
          "velocity": 0.4330708661417323,
          "duration": 0.08139534883720678
        },
        {
          "name": "G6",
          "midi": 91,
          "time": 8.988372093023207,
          "velocity": 0.07874015748031496,
          "duration": 0.03488372093023173
        },
        {
          "name": "D#5",
          "midi": 75,
          "time": 9.046511627906927,
          "velocity": 0.14173228346456693,
          "duration": 0.06976744186046169
        },
        {
          "name": "F#5",
          "midi": 78,
          "time": 9.05813953488367,
          "velocity": 0.15748031496062992,
          "duration": 0.034883720930229956
        },
        {
          "name": "F#4",
          "midi": 66,
          "time": 9.069767441860414,
          "velocity": 0.4251968503937008,
          "duration": 0.05813953488371837
        },
        {
          "name": "F5",
          "midi": 77,
          "time": 9.081395348837157,
          "velocity": 0.18110236220472442,
          "duration": 0.06976744186046169
        },
        {
          "name": "F#5",
          "midi": 78,
          "time": 9.127906976744132,
          "velocity": 0.18110236220472442,
          "duration": 0.05813953488371659
        },
        {
          "name": "C4",
          "midi": 60,
          "time": 9.139534883720875,
          "velocity": 0.3464566929133858,
          "duration": 0.034883720930229956
        },
        {
          "name": "G#4",
          "midi": 68,
          "time": 9.151162790697619,
          "velocity": 0.3464566929133858,
          "duration": 0.2441860465116168
        },
        {
          "name": "A#5",
          "midi": 82,
          "time": 9.151162790697619,
          "velocity": 0.3543307086614173,
          "duration": 0.29069767441859184
        },
        {
          "name": "D#6",
          "midi": 87,
          "time": 9.151162790697619,
          "velocity": 0.25984251968503935,
          "duration": 0.046511627906973274
        },
        {
          "name": "D#5",
          "midi": 75,
          "time": 9.162790697674362,
          "velocity": 0.4094488188976378,
          "duration": 0.4186046511627701
        },
        {
          "name": "G#2",
          "midi": 44,
          "time": 9.174418604651105,
          "velocity": 0.4015748031496063,
          "duration": 0.7906976744185741
        },
        {
          "name": "G#3",
          "midi": 56,
          "time": 9.174418604651105,
          "velocity": 0.41732283464566927,
          "duration": 0.36046511627905176
        },
        {
          "name": "D#4",
          "midi": 63,
          "time": 9.174418604651105,
          "velocity": 0.5669291338582677,
          "duration": 0.3255813953488218
        },
        {
          "name": "B5",
          "midi": 83,
          "time": 9.186046511627849,
          "velocity": 0.15748031496062992,
          "duration": 0.034883720930229956
        },
        {
          "name": "F5",
          "midi": 77,
          "time": 9.197674418604592,
          "velocity": 0.11811023622047244,
          "duration": 0.08139534883720678
        },
        {
          "name": "C#5",
          "midi": 73,
          "time": 9.209302325581335,
          "velocity": 0.1889763779527559,
          "duration": 0.04651162790697505
        },
        {
          "name": "C6",
          "midi": 84,
          "time": 9.25581395348831,
          "velocity": 0.11023622047244094,
          "duration": 0.03488372093023173
        },
        {
          "name": "F5",
          "midi": 77,
          "time": 9.325581395348774,
          "velocity": 0.10236220472440945,
          "duration": 0.05813953488371837
        },
        {
          "name": "C5",
          "midi": 72,
          "time": 9.337209302325517,
          "velocity": 0.1968503937007874,
          "duration": 0.05813953488371837
        },
        {
          "name": "C#6",
          "midi": 85,
          "time": 9.372093023255749,
          "velocity": 0.15748031496062992,
          "duration": 0.034883720930229956
        },
        {
          "name": "G6",
          "midi": 91,
          "time": 9.383720930232492,
          "velocity": 0.2125984251968504,
          "duration": 0.05813953488371837
        },
        {
          "name": "C#5",
          "midi": 73,
          "time": 9.395348837209236,
          "velocity": 0.2047244094488189,
          "duration": 0.03488372093023173
        },
        {
          "name": "F#5",
          "midi": 78,
          "time": 9.430232558139467,
          "velocity": 0.12598425196850394,
          "duration": 0.046511627906973274
        },
        {
          "name": "C#6",
          "midi": 85,
          "time": 9.430232558139467,
          "velocity": 0.1968503937007874,
          "duration": 0.06976744186045991
        },
        {
          "name": "C#5",
          "midi": 73,
          "time": 9.44186046511621,
          "velocity": 0.2283464566929134,
          "duration": 0.15116279069766492
        },
        {
          "name": "F5",
          "midi": 77,
          "time": 9.453488372092954,
          "velocity": 0.08661417322834646,
          "duration": 0.05813953488371659
        },
        {
          "name": "A#5",
          "midi": 82,
          "time": 9.453488372092954,
          "velocity": 0.28346456692913385,
          "duration": 0.08139534883720323
        },
        {
          "name": "G5",
          "midi": 79,
          "time": 9.465116279069697,
          "velocity": 0.12598425196850394,
          "duration": 0.034883720930229956
        },
        {
          "name": "C#4",
          "midi": 61,
          "time": 9.488372093023184,
          "velocity": 0.28346456692913385,
          "duration": 0.034883720930229956
        },
        {
          "name": "F#5",
          "midi": 78,
          "time": 9.499999999999927,
          "velocity": 0.07086614173228346,
          "duration": 0.034883720930229956
        },
        {
          "name": "C4",
          "midi": 60,
          "time": 9.523255813953414,
          "velocity": 0.3543307086614173,
          "duration": 0.04651162790697505
        },
        {
          "name": "E4",
          "midi": 64,
          "time": 9.523255813953414,
          "velocity": 0.2440944881889764,
          "duration": 0.023255813953486637
        },
        {
          "name": "D#4",
          "midi": 63,
          "time": 9.5465116279069,
          "velocity": 0.5039370078740157,
          "duration": 0.2558139534883672
        },
        {
          "name": "G#4",
          "midi": 68,
          "time": 9.581395348837132,
          "velocity": 0.49606299212598426,
          "duration": 0.5581395348837095
        },
        {
          "name": "A#5",
          "midi": 82,
          "time": 9.593023255813875,
          "velocity": 0.14173228346456693,
          "duration": 0.1279069767441836
        },
        {
          "name": "C5",
          "midi": 72,
          "time": 9.604651162790619,
          "velocity": 0.25984251968503935,
          "duration": 0.29069767441859895
        },
        {
          "name": "C4",
          "midi": 60,
          "time": 9.627906976744107,
          "velocity": 0.29133858267716534,
          "duration": 0.023255813953488413
        },
        {
          "name": "G5",
          "midi": 79,
          "time": 9.686046511627827,
          "velocity": 0.2204724409448819,
          "duration": 0.04651162790697505
        },
        {
          "name": "G#3",
          "midi": 56,
          "time": 9.709302325581316,
          "velocity": 0.4015748031496063,
          "duration": 0.1046511627906952
        },
        {
          "name": "A#5",
          "midi": 82,
          "time": 9.75581395348829,
          "velocity": 0.14960629921259844,
          "duration": 0.1046511627906952
        },
        {
          "name": "D#5",
          "midi": 75,
          "time": 9.813953488372011,
          "velocity": 0.36220472440944884,
          "duration": 0.13953488372092515
        },
        {
          "name": "C4",
          "midi": 60,
          "time": 9.825581395348754,
          "velocity": 0.4566929133858268,
          "duration": 0.1046511627906952
        },
        {
          "name": "G3",
          "midi": 55,
          "time": 9.837209302325498,
          "velocity": 0.4645669291338583,
          "duration": 0.023255813953488413
        },
        {
          "name": "D#4",
          "midi": 63,
          "time": 9.837209302325498,
          "velocity": 0.33858267716535434,
          "duration": 0.03488372093023173
        },
        {
          "name": "G#3",
          "midi": 56,
          "time": 9.860465116278986,
          "velocity": 0.5433070866141733,
          "duration": 0.2441860465116239
        },
        {
          "name": "G5",
          "midi": 79,
          "time": 9.895348837209218,
          "velocity": 0.13385826771653545,
          "duration": 0.03488372093023173
        },
        {
          "name": "D#4",
          "midi": 63,
          "time": 9.941860465116193,
          "velocity": 0.3543307086614173,
          "duration": 0.1395348837209287
        },
        {
          "name": "C5",
          "midi": 72,
          "time": 9.941860465116193,
          "velocity": 0.1732283464566929,
          "duration": 0.04651162790697505
        },
        {
          "name": "C6",
          "midi": 84,
          "time": 9.953488372092936,
          "velocity": 0.2204724409448819,
          "duration": 0.058139534883720145
        },
        {
          "name": "F#6",
          "midi": 90,
          "time": 9.953488372092936,
          "velocity": 0.07874015748031496,
          "duration": 0.058139534883720145
        },
        {
          "name": "D#5",
          "midi": 75,
          "time": 9.96511627906968,
          "velocity": 0.3858267716535433,
          "duration": 0.13953488372093048
        },
        {
          "name": "G#2",
          "midi": 44,
          "time": 9.988372093023168,
          "velocity": 0.36220472440944884,
          "duration": 0.46511627906975406
        },
        {
          "name": "C4",
          "midi": 60,
          "time": 9.988372093023168,
          "velocity": 0.31496062992125984,
          "duration": 0.023255813953488413
        },
        {
          "name": "C4",
          "midi": 60,
          "time": 10.081395348837122,
          "velocity": 0.4015748031496063,
          "duration": 0.16279069767441356
        },
        {
          "name": "D#4",
          "midi": 63,
          "time": 10.116279069767353,
          "velocity": 0.1968503937007874,
          "duration": 0.04651162790697505
        },
        {
          "name": "G#3",
          "midi": 56,
          "time": 10.151162790697585,
          "velocity": 0.36220472440944884,
          "duration": 0.1744186046511551
        },
        {
          "name": "G#4",
          "midi": 68,
          "time": 10.174418604651072,
          "velocity": 0.4251968503937008,
          "duration": 0.1627906976744118
        },
        {
          "name": "D#5",
          "midi": 75,
          "time": 10.186046511627815,
          "velocity": 0.18110236220472442,
          "duration": 0.06976744186046346
        },
        {
          "name": "D#4",
          "midi": 63,
          "time": 10.197674418604558,
          "velocity": 0.3858267716535433,
          "duration": 0.1627906976744118
        },
        {
          "name": "A#5",
          "midi": 82,
          "time": 10.197674418604558,
          "velocity": 0.1732283464566929,
          "duration": 0.04651162790697683
        },
        {
          "name": "C5",
          "midi": 72,
          "time": 10.267441860465022,
          "velocity": 0.13385826771653545,
          "duration": 0.04651162790697505
        },
        {
          "name": "G5",
          "midi": 79,
          "time": 10.267441860465022,
          "velocity": 0.13385826771653545,
          "duration": 0.03488372093023173
        },
        {
          "name": "C4",
          "midi": 60,
          "time": 10.279069767441765,
          "velocity": 0.3700787401574803,
          "duration": 0.17441860465115688
        },
        {
          "name": "G#4",
          "midi": 68,
          "time": 10.348837209302227,
          "velocity": 0.3779527559055118,
          "duration": 0.1046511627906952
        },
        {
          "name": "G#5",
          "midi": 80,
          "time": 10.372093023255713,
          "velocity": 0.4330708661417323,
          "duration": 1.1744186046511231
        },
        {
          "name": "A3",
          "midi": 57,
          "time": 10.453488372092922,
          "velocity": 0.3700787401574803,
          "duration": 0.046511627906973274
        },
        {
          "name": "B4",
          "midi": 71,
          "time": 10.453488372092922,
          "velocity": 0.2440944881889764,
          "duration": 0.023255813953486637
        },
        {
          "name": "D#5",
          "midi": 75,
          "time": 10.465116279069665,
          "velocity": 0.2992125984251969,
          "duration": 0.13953488372092515
        },
        {
          "name": "D#6",
          "midi": 87,
          "time": 10.465116279069665,
          "velocity": 0.47244094488188976,
          "duration": 0.5697674418604457
        },
        {
          "name": "D#4",
          "midi": 63,
          "time": 10.476744186046409,
          "velocity": 0.3464566929133858,
          "duration": 0.10465116279069342
        },
        {
          "name": "G#4",
          "midi": 68,
          "time": 10.476744186046409,
          "velocity": 0.7007874015748031,
          "duration": 0.9418604651162479
        },
        {
          "name": "C7",
          "midi": 96,
          "time": 10.476744186046409,
          "velocity": 0.1889763779527559,
          "duration": 0.04651162790697505
        },
        {
          "name": "G#2",
          "midi": 44,
          "time": 10.488372093023152,
          "velocity": 0.33858267716535434,
          "duration": 0.25581395348836367
        },
        {
          "name": "B5",
          "midi": 83,
          "time": 10.488372093023152,
          "velocity": 0.1732283464566929,
          "duration": 0.03488372093023173
        },
        {
          "name": "G#3",
          "midi": 56,
          "time": 10.499999999999895,
          "velocity": 0.3543307086614173,
          "duration": 0.2906976744185954
        },
        {
          "name": "C5",
          "midi": 72,
          "time": 10.534883720930127,
          "velocity": 0.28346456692913385,
          "duration": 0.1976744186046453
        },
        {
          "name": "C7",
          "midi": 96,
          "time": 10.54651162790687,
          "velocity": 0.1889763779527559,
          "duration": 0.18604651162790198
        },
        {
          "name": "C4",
          "midi": 60,
          "time": 10.581395348837102,
          "velocity": 0.16535433070866143,
          "duration": 0.03488372093023173
        },
        {
          "name": "A#5",
          "midi": 82,
          "time": 10.627906976744077,
          "velocity": 0.13385826771653545,
          "duration": 0.04651162790697505
        },
        {
          "name": "D#4",
          "midi": 63,
          "time": 10.63953488372082,
          "velocity": 0.4015748031496063,
          "duration": 0.24418604651162212
        },
        {
          "name": "C4",
          "midi": 60,
          "time": 10.662790697674309,
          "velocity": 0.2677165354330709,
          "duration": 0.06976744186046346
        },
        {
          "name": "G#2",
          "midi": 44,
          "time": 10.755813953488259,
          "velocity": 0.31496062992125984,
          "duration": 0.24418604651162035
        },
        {
          "name": "A#5",
          "midi": 82,
          "time": 10.779069767441747,
          "velocity": 0.1732283464566929,
          "duration": 0.08139534883720678
        },
        {
          "name": "A3",
          "midi": 57,
          "time": 10.79069767441849,
          "velocity": 0.2992125984251969,
          "duration": 0.023255813953488413
        },
        {
          "name": "C5",
          "midi": 72,
          "time": 10.79069767441849,
          "velocity": 0.3543307086614173,
          "duration": 0.16279069767441356
        },
        {
          "name": "G5",
          "midi": 79,
          "time": 10.79069767441849,
          "velocity": 0.1968503937007874,
          "duration": 0.03488372093023173
        },
        {
          "name": "C7",
          "midi": 96,
          "time": 10.79069767441849,
          "velocity": 0.13385826771653545,
          "duration": 0.12790697674418183
        },
        {
          "name": "C4",
          "midi": 60,
          "time": 10.825581395348722,
          "velocity": 0.36220472440944884,
          "duration": 0.08139534883720678
        },
        {
          "name": "G#3",
          "midi": 56,
          "time": 10.837209302325466,
          "velocity": 0.4015748031496063,
          "duration": 0.3023255813953387
        },
        {
          "name": "D#5",
          "midi": 75,
          "time": 10.895348837209186,
          "velocity": 0.36220472440944884,
          "duration": 0.2558139534883619
        },
        {
          "name": "A#5",
          "midi": 82,
          "time": 10.918604651162672,
          "velocity": 0.10236220472440945,
          "duration": 0.03488372093023173
        },
        {
          "name": "D#4",
          "midi": 63,
          "time": 10.930232558139416,
          "velocity": 0.30708661417322836,
          "duration": 0.22093023255813193
        },
        {
          "name": "C7",
          "midi": 96,
          "time": 10.965116279069647,
          "velocity": 0.11811023622047244,
          "duration": 0.058139534883720145
        },
        {
          "name": "C5",
          "midi": 72,
          "time": 10.97674418604639,
          "velocity": 0.33858267716535434,
          "duration": 0.11627906976744029
        },
        {
          "name": "D#3",
          "midi": 51,
          "time": 10.99999999999988,
          "velocity": 0.4881889763779528,
          "duration": 0.1744186046511551
        },
        {
          "name": "D#6",
          "midi": 87,
          "time": 11.093023255813831,
          "velocity": 0.41732283464566927,
          "duration": 0.6976744186046275
        },
        {
          "name": "C5",
          "midi": 72,
          "time": 11.104651162790574,
          "velocity": 0.25984251968503935,
          "duration": 0.046511627906973274
        },
        {
          "name": "A#5",
          "midi": 82,
          "time": 11.116279069767318,
          "velocity": 0.12598425196850394,
          "duration": 0.06976744186045991
        },
        {
          "name": "C4",
          "midi": 60,
          "time": 11.127906976744061,
          "velocity": 0.4094488188976378,
          "duration": 0.18604651162790198
        },
        {
          "name": "B5",
          "midi": 83,
          "time": 11.127906976744061,
          "velocity": 0.1732283464566929,
          "duration": 0.046511627906973274
        },
        {
          "name": "G#2",
          "midi": 44,
          "time": 11.162790697674291,
          "velocity": 0.4015748031496063,
          "duration": 0.5813953488371943
        },
        {
          "name": "C5",
          "midi": 72,
          "time": 11.174418604651034,
          "velocity": 0.5433070866141733,
          "duration": 0.6279069767441676
        },
        {
          "name": "D#5",
          "midi": 75,
          "time": 11.174418604651034,
          "velocity": 0.2125984251968504,
          "duration": 0.09302325581395188
        },
        {
          "name": "D#4",
          "midi": 63,
          "time": 11.209302325581266,
          "velocity": 0.3700787401574803,
          "duration": 0.11627906976744029
        },
        {
          "name": "F5",
          "midi": 77,
          "time": 11.313953488371963,
          "velocity": 0.48031496062992124,
          "duration": 0.12790697674418006
        },
        {
          "name": "A#5",
          "midi": 82,
          "time": 11.325581395348706,
          "velocity": 0.2755905511811024,
          "duration": 0.05813953488371837
        },
        {
          "name": "D6",
          "midi": 86,
          "time": 11.325581395348706,
          "velocity": 0.13385826771653545,
          "duration": 0.03488372093023173
        },
        {
          "name": "F#6",
          "midi": 90,
          "time": 11.325581395348706,
          "velocity": 0.09448818897637795,
          "duration": 0.03488372093023173
        },
        {
          "name": "A6",
          "midi": 93,
          "time": 11.325581395348706,
          "velocity": 0.25984251968503935,
          "duration": 0.2674418604651052
        },
        {
          "name": "C#7",
          "midi": 97,
          "time": 11.325581395348706,
          "velocity": 0.3228346456692913,
          "duration": 0.23255813953487348
        },
        {
          "name": "E5",
          "midi": 76,
          "time": 11.33720930232545,
          "velocity": 0.2440944881889764,
          "duration": 0.023255813953488413
        },
        {
          "name": "G5",
          "midi": 79,
          "time": 11.33720930232545,
          "velocity": 0.18110236220472442,
          "duration": 0.03488372093023173
        },
        {
          "name": "C#6",
          "midi": 85,
          "time": 11.33720930232545,
          "velocity": 0.07086614173228346,
          "duration": 0.04651162790697505
        },
        {
          "name": "F4",
          "midi": 65,
          "time": 11.360465116278938,
          "velocity": 0.3779527559055118,
          "duration": 0.023255813953486637
        },
        {
          "name": "F4",
          "midi": 65,
          "time": 11.395348837209168,
          "velocity": 0.5748031496062992,
          "duration": 0.06976744186046169
        },
        {
          "name": "E7",
          "midi": 100,
          "time": 11.395348837209168,
          "velocity": 0.11023622047244094,
          "duration": 0.10465116279069342
        },
        {
          "name": "D#5",
          "midi": 75,
          "time": 11.418604651162656,
          "velocity": 0.5354330708661418,
          "duration": 0.36046511627905886
        },
        {
          "name": "A5",
          "midi": 81,
          "time": 11.418604651162656,
          "velocity": 0.30708661417322836,
          "duration": 0.034883720930229956
        },
        {
          "name": "C#6",
          "midi": 85,
          "time": 11.418604651162656,
          "velocity": 0.1968503937007874,
          "duration": 0.081395348837205
        },
        {
          "name": "G6",
          "midi": 91,
          "time": 11.418604651162656,
          "velocity": 0.13385826771653545,
          "duration": 0.034883720930229956
        },
        {
          "name": "A3",
          "midi": 57,
          "time": 11.4302325581394,
          "velocity": 0.28346456692913385,
          "duration": 0.023255813953486637
        },
        {
          "name": "G#4",
          "midi": 68,
          "time": 11.441860465116143,
          "velocity": 0.6299212598425197,
          "duration": 0.17441860465115688
        },
        {
          "name": "A#5",
          "midi": 82,
          "time": 11.441860465116143,
          "velocity": 0.4645669291338583,
          "duration": 0.4534883720930072
        },
        {
          "name": "D7",
          "midi": 98,
          "time": 11.441860465116143,
          "velocity": 0.1968503937007874,
          "duration": 0.06976744186046169
        },
        {
          "name": "F#7",
          "midi": 102,
          "time": 11.453488372092886,
          "velocity": 0.09448818897637795,
          "duration": 0.03488372093023173
        },
        {
          "name": "D#4",
          "midi": 63,
          "time": 11.46511627906963,
          "velocity": 0.7007874015748031,
          "duration": 0.34883720930231554
        },
        {
          "name": "G6",
          "midi": 91,
          "time": 11.511627906976605,
          "velocity": 0.2204724409448819,
          "duration": 0.2441860465116239
        },
        {
          "name": "D7",
          "midi": 98,
          "time": 11.534883720930093,
          "velocity": 0.14960629921259844,
          "duration": 0.034883720930229956
        },
        {
          "name": "G#4",
          "midi": 68,
          "time": 11.627906976744043,
          "velocity": 0.3779527559055118,
          "duration": 0.12790697674418539
        },
        {
          "name": "F6",
          "midi": 89,
          "time": 11.627906976744043,
          "velocity": 0.15748031496062992,
          "duration": 0.11627906976744207
        },
        {
          "name": "F5",
          "midi": 77,
          "time": 11.67441860465102,
          "velocity": 0.30708661417322836,
          "duration": 0.19767441860464352
        },
        {
          "name": "D7",
          "midi": 98,
          "time": 11.744186046511485,
          "velocity": 0.11811023622047244,
          "duration": 0.034883720930229956
        },
        {
          "name": "C3",
          "midi": 48,
          "time": 11.767441860464972,
          "velocity": 0.3700787401574803,
          "duration": 0.023255813953486637
        },
        {
          "name": "A#4",
          "midi": 70,
          "time": 11.767441860464972,
          "velocity": 0.2992125984251969,
          "duration": 0.06976744186045991
        },
        {
          "name": "C#6",
          "midi": 85,
          "time": 11.767441860464972,
          "velocity": 0.33070866141732286,
          "duration": 0.7906976744185634
        },
        {
          "name": "F4",
          "midi": 65,
          "time": 11.779069767441715,
          "velocity": 0.4409448818897638,
          "duration": 0.023255813953486637
        },
        {
          "name": "G#4",
          "midi": 68,
          "time": 11.790697674418459,
          "velocity": 0.18110236220472442,
          "duration": 0.046511627906973274
        },
        {
          "name": "A#2",
          "midi": 46,
          "time": 11.802325581395202,
          "velocity": 0.47244094488188976,
          "duration": 0.081395348837205
        },
        {
          "name": "C#5",
          "midi": 73,
          "time": 11.802325581395202,
          "velocity": 0.2283464566929134,
          "duration": 0.023255813953486637
        },
        {
          "name": "C#4",
          "midi": 61,
          "time": 11.813953488371945,
          "velocity": 0.5669291338582677,
          "duration": 0.2906976744185865
        },
        {
          "name": "F4",
          "midi": 65,
          "time": 11.813953488371945,
          "velocity": 0.36220472440944884,
          "duration": 0.081395348837205
        },
        {
          "name": "C5",
          "midi": 72,
          "time": 11.813953488371945,
          "velocity": 0.2677165354330709,
          "duration": 0.023255813953486637
        },
        {
          "name": "G#5",
          "midi": 80,
          "time": 11.825581395348689,
          "velocity": 0.4645669291338583,
          "duration": 0.49999999999997335
        },
        {
          "name": "G#3",
          "midi": 56,
          "time": 11.837209302325432,
          "velocity": 0.3228346456692913,
          "duration": 0.09302325581394832
        },
        {
          "name": "D#5",
          "midi": 75,
          "time": 11.837209302325432,
          "velocity": 0.1732283464566929,
          "duration": 0.10465116279069164
        },
        {
          "name": "A#4",
          "midi": 70,
          "time": 11.86046511627892,
          "velocity": 0.2440944881889764,
          "duration": 0.08139534883720323
        },
        {
          "name": "A2",
          "midi": 45,
          "time": 11.883720930232407,
          "velocity": 0.5039370078740157,
          "duration": 0.034883720930229956
        },
        {
          "name": "F6",
          "midi": 89,
          "time": 11.906976744185894,
          "velocity": 0.25196850393700787,
          "duration": 0.4767441860464885
        },
        {
          "name": "A#2",
          "midi": 46,
          "time": 11.918604651162637,
          "velocity": 0.47244094488188976,
          "duration": 0.034883720930229956
        },
        {
          "name": "F5",
          "midi": 77,
          "time": 11.918604651162637,
          "velocity": 0.33858267716535434,
          "duration": 0.2093023255813815
        },
        {
          "name": "D#6",
          "midi": 87,
          "time": 11.953488372092867,
          "velocity": 0.11811023622047244,
          "duration": 0.06976744186045991
        },
        {
          "name": "A#2",
          "midi": 46,
          "time": 11.96511627906961,
          "velocity": 0.4409448818897638,
          "duration": 0.034883720930229956
        },
        {
          "name": "A#4",
          "midi": 70,
          "time": 11.96511627906961,
          "velocity": 0.3464566929133858,
          "duration": 0.05813953488371659
        },
        {
          "name": "F3",
          "midi": 53,
          "time": 11.976744186046353,
          "velocity": 0.3858267716535433,
          "duration": 0.023255813953486637
        },
        {
          "name": "F4",
          "midi": 65,
          "time": 11.988372093023097,
          "velocity": 0.5275590551181102,
          "duration": 0.20930232558138506
        },
        {
          "name": "D#5",
          "midi": 75,
          "time": 11.988372093023097,
          "velocity": 0.16535433070866143,
          "duration": 0.046511627906973274
        },
        {
          "name": "C6",
          "midi": 84,
          "time": 11.99999999999984,
          "velocity": 0.15748031496062992,
          "duration": 0.034883720930229956
        },
        {
          "name": "B2",
          "midi": 47,
          "time": 12.011627906976583,
          "velocity": 0.2677165354330709,
          "duration": 0.023255813953486637
        },
        {
          "name": "A#4",
          "midi": 70,
          "time": 12.03488372093007,
          "velocity": 0.1732283464566929,
          "duration": 0.04651162790697505
        },
        {
          "name": "A2",
          "midi": 45,
          "time": 12.046511627906813,
          "velocity": 0.3779527559055118,
          "duration": 0.03488372093023173
        },
        {
          "name": "C5",
          "midi": 72,
          "time": 12.081395348837045,
          "velocity": 0.33070866141732286,
          "duration": 0.023255813953486637
        },
        {
          "name": "A#4",
          "midi": 70,
          "time": 12.093023255813788,
          "velocity": 0.5748031496062992,
          "duration": 0.4186046511627719
        },
        {
          "name": "D5",
          "midi": 74,
          "time": 12.093023255813788,
          "velocity": 0.36220472440944884,
          "duration": 0.023255813953486637
        },
        {
          "name": "D#7",
          "midi": 99,
          "time": 12.093023255813788,
          "velocity": 0.14173228346456693,
          "duration": 0.1744186046511551
        },
        {
          "name": "A2",
          "midi": 45,
          "time": 12.104651162790532,
          "velocity": 0.33070866141732286,
          "duration": 0.023255813953486637
        },
        {
          "name": "D4",
          "midi": 62,
          "time": 12.104651162790532,
          "velocity": 0.5984251968503937,
          "duration": 0.011627906976743319
        },
        {
          "name": "E5",
          "midi": 76,
          "time": 12.104651162790532,
          "velocity": 0.25196850393700787,
          "duration": 0.023255813953486637
        },
        {
          "name": "F#6",
          "midi": 90,
          "time": 12.104651162790532,
          "velocity": 0.11811023622047244,
          "duration": 0.034883720930229956
        },
        {
          "name": "C7",
          "midi": 96,
          "time": 12.104651162790532,
          "velocity": 0.12598425196850394,
          "duration": 0.034883720930229956
        },
        {
          "name": "D7",
          "midi": 98,
          "time": 12.104651162790532,
          "velocity": 0.10236220472440945,
          "duration": 0.0930232558139501
        },
        {
          "name": "C#4",
          "midi": 61,
          "time": 12.116279069767275,
          "velocity": 0.6771653543307087,
          "duration": 0.19767441860464352
        },
        {
          "name": "C6",
          "midi": 84,
          "time": 12.116279069767275,
          "velocity": 0.14173228346456693,
          "duration": 0.034883720930229956
        },
        {
          "name": "D6",
          "midi": 86,
          "time": 12.116279069767275,
          "velocity": 0.12598425196850394,
          "duration": 0.034883720930229956
        },
        {
          "name": "B6",
          "midi": 95,
          "time": 12.116279069767275,
          "velocity": 0.1968503937007874,
          "duration": 0.12790697674418006
        },
        {
          "name": "A#2",
          "midi": 46,
          "time": 12.127906976744018,
          "velocity": 0.2755905511811024,
          "duration": 0.023255813953486637
        },
        {
          "name": "D#5",
          "midi": 75,
          "time": 12.127906976744018,
          "velocity": 0.2440944881889764,
          "duration": 0.2906976744185936
        },
        {
          "name": "A#2",
          "midi": 46,
          "time": 12.174418604650993,
          "velocity": 0.33858267716535434,
          "duration": 0.04651162790697505
        },
        {
          "name": "F5",
          "midi": 77,
          "time": 12.197674418604482,
          "velocity": 0.3228346456692913,
          "duration": 0.29069767441859184
        },
        {
          "name": "F4",
          "midi": 65,
          "time": 12.209302325581225,
          "velocity": 0.4015748031496063,
          "duration": 0.0930232558139501
        },
        {
          "name": "G#4",
          "midi": 68,
          "time": 12.220930232557969,
          "velocity": 0.12598425196850394,
          "duration": 0.04651162790697505
        },
        {
          "name": "C6",
          "midi": 84,
          "time": 12.220930232557969,
          "velocity": 0.18110236220472442,
          "duration": 0.05813953488371837
        },
        {
          "name": "A#2",
          "midi": 46,
          "time": 12.232558139534712,
          "velocity": 0.3700787401574803,
          "duration": 0.17441860465115688
        },
        {
          "name": "A#3",
          "midi": 58,
          "time": 12.302325581395175,
          "velocity": 0.47244094488188976,
          "duration": 0.05813953488371837
        },
        {
          "name": "F4",
          "midi": 65,
          "time": 12.313953488371919,
          "velocity": 0.3543307086614173,
          "duration": 0.04651162790697505
        },
        {
          "name": "C#4",
          "midi": 61,
          "time": 12.34883720930215,
          "velocity": 0.3700787401574803,
          "duration": 0.06976744186046169
        },
        {
          "name": "G#5",
          "midi": 80,
          "time": 12.395348837209125,
          "velocity": 0.4094488188976378,
          "duration": 1.5930232558138844
        },
        {
          "name": "F4",
          "midi": 65,
          "time": 12.406976744185869,
          "velocity": 0.3779527559055118,
          "duration": 0.22093023255813016
        },
        {
          "name": "C4",
          "midi": 60,
          "time": 12.418604651162612,
          "velocity": 0.2755905511811024,
          "duration": 0.023255813953486637
        },
        {
          "name": "A2",
          "midi": 45,
          "time": 12.430232558139355,
          "velocity": 0.23622047244094488,
          "duration": 0.023255813953486637
        },
        {
          "name": "D6",
          "midi": 86,
          "time": 12.430232558139355,
          "velocity": 0.08661417322834646,
          "duration": 0.04651162790697505
        },
        {
          "name": "C#4",
          "midi": 61,
          "time": 12.441860465116099,
          "velocity": 0.5433070866141733,
          "duration": 0.20930232558138684
        },
        {
          "name": "G#2",
          "midi": 44,
          "time": 12.453488372092842,
          "velocity": 0.2125984251968504,
          "duration": 0.03488372093023173
        },
        {
          "name": "A3",
          "midi": 57,
          "time": 12.47674418604633,
          "velocity": 0.2283464566929134,
          "duration": 0.023255813953486637
        },
        {
          "name": "G#4",
          "midi": 68,
          "time": 12.51162790697656,
          "velocity": 0.07874015748031496,
          "duration": 0.03488372093023173
        },
        {
          "name": "C6",
          "midi": 84,
          "time": 12.51162790697656,
          "velocity": 0.11023622047244094,
          "duration": 0.04651162790697505
        },
        {
          "name": "A#2",
          "midi": 46,
          "time": 12.534883720930049,
          "velocity": 0.41732283464566927,
          "duration": 0.5232558139534635
        },
        {
          "name": "A#5",
          "midi": 82,
          "time": 12.546511627906792,
          "velocity": 0.13385826771653545,
          "duration": 0.06976744186046346
        },
        {
          "name": "A#4",
          "midi": 70,
          "time": 12.569767441860279,
          "velocity": 0.5354330708661418,
          "duration": 0.34883720930231377
        },
        {
          "name": "C6",
          "midi": 84,
          "time": 12.627906976743999,
          "velocity": 0.2677165354330709,
          "duration": 0.4186046511627701
        },
        {
          "name": "D6",
          "midi": 86,
          "time": 12.627906976743999,
          "velocity": 0.2440944881889764,
          "duration": 0.18604651162789843
        },
        {
          "name": "A3",
          "midi": 57,
          "time": 12.639534883720742,
          "velocity": 0.5590551181102362,
          "duration": 0.023255813953486637
        },
        {
          "name": "F4",
          "midi": 65,
          "time": 12.639534883720742,
          "velocity": 0.4881889763779528,
          "duration": 0.37209302325579685
        },
        {
          "name": "F#6",
          "midi": 90,
          "time": 12.639534883720742,
          "velocity": 0.13385826771653545,
          "duration": 0.034883720930229956
        },
        {
          "name": "A#3",
          "midi": 58,
          "time": 12.662790697674229,
          "velocity": 0.7637795275590551,
          "duration": 0.1860465116279002
        },
        {
          "name": "C#4",
          "midi": 61,
          "time": 12.662790697674229,
          "velocity": 0.5433070866141733,
          "duration": 0.011627906976743319
        },
        {
          "name": "C#4",
          "midi": 61,
          "time": 12.686046511627715,
          "velocity": 0.5511811023622047,
          "duration": 0.011627906976743319
        },
        {
          "name": "D#7",
          "midi": 99,
          "time": 12.744186046511436,
          "velocity": 0.14173228346456693,
          "duration": 0.11627906976743674
        },
        {
          "name": "D#5",
          "midi": 75,
          "time": 12.755813953488179,
          "velocity": 0.3228346456692913,
          "duration": 0.10465116279069342
        },
        {
          "name": "C#6",
          "midi": 85,
          "time": 12.767441860464922,
          "velocity": 0.2283464566929134,
          "duration": 0.06976744186046346
        },
        {
          "name": "F#6",
          "midi": 90,
          "time": 12.767441860464922,
          "velocity": 0.1732283464566929,
          "duration": 0.12790697674418183
        },
        {
          "name": "C#5",
          "midi": 73,
          "time": 12.779069767441666,
          "velocity": 0.44881889763779526,
          "duration": 0.36046511627905
        },
        {
          "name": "G#4",
          "midi": 68,
          "time": 12.813953488371897,
          "velocity": 0.33858267716535434,
          "duration": 0.03488372093023173
        },
        {
          "name": "D#5",
          "midi": 75,
          "time": 12.88372093023236,
          "velocity": 0.3464566929133858,
          "duration": 0.06976744186046169
        },
        {
          "name": "G#3",
          "midi": 56,
          "time": 12.895348837209104,
          "velocity": 0.5905511811023622,
          "duration": 0.03488372093023173
        },
        {
          "name": "A3",
          "midi": 57,
          "time": 12.930232558139336,
          "velocity": 0.5669291338582677,
          "duration": 0.011627906976743319
        },
        {
          "name": "G#3",
          "midi": 56,
          "time": 12.94186046511608,
          "velocity": 0.5511811023622047,
          "duration": 0.023255813953486637
        },
        {
          "name": "A#4",
          "midi": 70,
          "time": 12.94186046511608,
          "velocity": 0.3779527559055118,
          "duration": 0.1279069767441765
        },
        {
          "name": "F#6",
          "midi": 90,
          "time": 12.953488372092822,
          "velocity": 0.07086614173228346,
          "duration": 0.034883720930229956
        },
        {
          "name": "G3",
          "midi": 55,
          "time": 12.965116279069566,
          "velocity": 0.49606299212598426,
          "duration": 0.023255813953486637
        },
        {
          "name": "A#3",
          "midi": 58,
          "time": 12.965116279069566,
          "velocity": 0.4881889763779528,
          "duration": 0.023255813953486637
        },
        {
          "name": "D#5",
          "midi": 75,
          "time": 12.976744186046309,
          "velocity": 0.28346456692913385,
          "duration": 0.08139534883720323
        },
        {
          "name": "A3",
          "midi": 57,
          "time": 12.988372093023052,
          "velocity": 0.5196850393700787,
          "duration": 0.011627906976743319
        },
        {
          "name": "F4",
          "midi": 65,
          "time": 13.023255813953282,
          "velocity": 0.4566929133858268,
          "duration": 0.18604651162789487
        },
        {
          "name": "A#3",
          "midi": 58,
          "time": 13.034883720930026,
          "velocity": 0.4330708661417323,
          "duration": 0.046511627906973274
        },
        {
          "name": "G#4",
          "midi": 68,
          "time": 13.058139534883512,
          "velocity": 0.3464566929133858,
          "duration": 0.034883720930229956
        },
        {
          "name": "C#4",
          "midi": 61,
          "time": 13.081395348836999,
          "velocity": 0.3858267716535433,
          "duration": 0.046511627906973274
        },
        {
          "name": "D#6",
          "midi": 87,
          "time": 13.081395348836999,
          "velocity": 0.4094488188976378,
          "duration": 0.6162790697674225
        },
        {
          "name": "F3",
          "midi": 53,
          "time": 13.093023255813742,
          "velocity": 0.47244094488188976,
          "duration": 0.3023255813953387
        },
        {
          "name": "B5",
          "midi": 83,
          "time": 13.093023255813742,
          "velocity": 0.16535433070866143,
          "duration": 0.034883720930229956
        },
        {
          "name": "C7",
          "midi": 96,
          "time": 13.093023255813742,
          "velocity": 0.13385826771653545,
          "duration": 0.05813953488371659
        },
        {
          "name": "E7",
          "midi": 100,
          "time": 13.093023255813742,
          "velocity": 0.08661417322834646,
          "duration": 0.034883720930229956
        },
        {
          "name": "F2",
          "midi": 41,
          "time": 13.104651162790486,
          "velocity": 0.2204724409448819,
          "duration": 0.046511627906973274
        },
        {
          "name": "G#4",
          "midi": 68,
          "time": 13.116279069767229,
          "velocity": 0.6692913385826772,
          "duration": 0.6627906976743958
        },
        {
          "name": "C4",
          "midi": 60,
          "time": 13.127906976743972,
          "velocity": 0.3228346456692913,
          "duration": 0.023255813953486637
        },
        {
          "name": "A#4",
          "midi": 70,
          "time": 13.162790697674202,
          "velocity": 0.31496062992125984,
          "duration": 0.04651162790697505
        },
        {
          "name": "C#5",
          "midi": 73,
          "time": 13.174418604650945,
          "velocity": 0.29133858267716534,
          "duration": 0.2209302325581355
        },
        {
          "name": "C#4",
          "midi": 61,
          "time": 13.186046511627689,
          "velocity": 0.2755905511811024,
          "duration": 0.023255813953488413
        },
        {
          "name": "A#3",
          "midi": 58,
          "time": 13.22093023255792,
          "velocity": 0.2755905511811024,
          "duration": 0.023255813953488413
        },
        {
          "name": "C#4",
          "midi": 61,
          "time": 13.22093023255792,
          "velocity": 0.25196850393700787,
          "duration": 0.023255813953488413
        },
        {
          "name": "C#4",
          "midi": 61,
          "time": 13.255813953488152,
          "velocity": 0.3464566929133858,
          "duration": 0.058139534883720145
        },
        {
          "name": "C7",
          "midi": 96,
          "time": 13.255813953488152,
          "velocity": 0.2047244094488189,
          "duration": 0.3720930232558075
        },
        {
          "name": "A#3",
          "midi": 58,
          "time": 13.302325581395129,
          "velocity": 0.28346456692913385,
          "duration": 0.03488372093023173
        },
        {
          "name": "F5",
          "midi": 77,
          "time": 13.302325581395129,
          "velocity": 0.2440944881889764,
          "duration": 0.16279069767441534
        },
        {
          "name": "C#4",
          "midi": 61,
          "time": 13.348837209302104,
          "velocity": 0.2440944881889764,
          "duration": 0.023255813953488413
        },
        {
          "name": "G#3",
          "midi": 56,
          "time": 13.395348837209081,
          "velocity": 0.4330708661417323,
          "duration": 0.03488372093023173
        },
        {
          "name": "F4",
          "midi": 65,
          "time": 13.395348837209081,
          "velocity": 0.5826771653543307,
          "duration": 0.27906976744185386
        },
        {
          "name": "C6",
          "midi": 84,
          "time": 13.395348837209081,
          "velocity": 0.18110236220472442,
          "duration": 0.06976744186046346
        },
        {
          "name": "D#5",
          "midi": 75,
          "time": 13.41860465116257,
          "velocity": 0.14960629921259844,
          "duration": 0.1279069767441836
        },
        {
          "name": "C#4",
          "midi": 61,
          "time": 13.430232558139313,
          "velocity": 0.4566929133858268,
          "duration": 0.15116279069767025
        },
        {
          "name": "G#3",
          "midi": 56,
          "time": 13.441860465116056,
          "velocity": 0.4251968503937008,
          "duration": 0.04651162790697683
        },
        {
          "name": "F3",
          "midi": 53,
          "time": 13.465116279069544,
          "velocity": 0.33070866141732286,
          "duration": 0.023255813953488413
        },
        {
          "name": "F2",
          "midi": 41,
          "time": 13.511627906976521,
          "velocity": 0.2440944881889764,
          "duration": 0.0930232558139501
        },
        {
          "name": "F3",
          "midi": 53,
          "time": 13.53488372093001,
          "velocity": 0.2755905511811024,
          "duration": 0.023255813953486637
        },
        {
          "name": "F3",
          "midi": 53,
          "time": 13.56976744186024,
          "velocity": 0.33070866141732286,
          "duration": 0.09302325581395188
        },
        {
          "name": "C#5",
          "midi": 73,
          "time": 13.581395348836983,
          "velocity": 0.23622047244094488,
          "duration": 0.09302325581395188
        },
        {
          "name": "C#4",
          "midi": 61,
          "time": 13.62790697674396,
          "velocity": 0.2283464566929134,
          "duration": 0.023255813953488413
        },
        {
          "name": "C4",
          "midi": 60,
          "time": 13.651162790697448,
          "velocity": 0.25196850393700787,
          "duration": 0.034883720930229956
        },
        {
          "name": "C#4",
          "midi": 61,
          "time": 13.686046511627678,
          "velocity": 0.3543307086614173,
          "duration": 0.15116279069766492
        },
        {
          "name": "F4",
          "midi": 65,
          "time": 13.686046511627678,
          "velocity": 0.33070866141732286,
          "duration": 0.034883720930229956
        },
        {
          "name": "F3",
          "midi": 53,
          "time": 13.709302325581165,
          "velocity": 0.3858267716535433,
          "duration": 0.20930232558138506
        },
        {
          "name": "C5",
          "midi": 72,
          "time": 13.709302325581165,
          "velocity": 0.2204724409448819,
          "duration": 0.034883720930229956
        },
        {
          "name": "F2",
          "midi": 41,
          "time": 13.720930232557908,
          "velocity": 0.36220472440944884,
          "duration": 0.33720930232556157
        },
        {
          "name": "C6",
          "midi": 84,
          "time": 13.720930232557908,
          "velocity": 0.2204724409448819,
          "duration": 0.13953488372092337
        },
        {
          "name": "D#6",
          "midi": 87,
          "time": 13.720930232557908,
          "velocity": 0.3464566929133858,
          "duration": 0.10465116279069164
        },
        {
          "name": "F4",
          "midi": 65,
          "time": 13.732558139534651,
          "velocity": 0.5590551181102362,
          "duration": 0.16279069767441
        },
        {
          "name": "E7",
          "midi": 100,
          "time": 13.732558139534651,
          "velocity": 0.08661417322834646,
          "duration": 0.046511627906973274
        },
        {
          "name": "F#7",
          "midi": 102,
          "time": 13.744186046511395,
          "velocity": 0.12598425196850394,
          "duration": 0.09302325581394832
        },
        {
          "name": "B5",
          "midi": 83,
          "time": 13.755813953488138,
          "velocity": 0.18110236220472442,
          "duration": 0.034883720930229956
        },
        {
          "name": "C5",
          "midi": 72,
          "time": 13.767441860464881,
          "velocity": 0.14960629921259844,
          "duration": 0.034883720930229956
        },
        {
          "name": "G#4",
          "midi": 68,
          "time": 13.790697674418368,
          "velocity": 0.6535433070866141,
          "duration": 0.18604651162789843
        },
        {
          "name": "D#5",
          "midi": 75,
          "time": 13.8255813953486,
          "velocity": 0.07086614173228346,
          "duration": 0.03488372093023173
        },
        {
          "name": "D#6",
          "midi": 87,
          "time": 13.837209302325343,
          "velocity": 0.33070866141732286,
          "duration": 0.16279069767441
        },
        {
          "name": "C7",
          "midi": 96,
          "time": 13.872093023255575,
          "velocity": 0.14960629921259844,
          "duration": 0.18604651162789487
        },
        {
          "name": "C#5",
          "midi": 73,
          "time": 13.883720930232318,
          "velocity": 0.1889763779527559,
          "duration": 0.05813953488371837
        },
        {
          "name": "C#4",
          "midi": 61,
          "time": 13.895348837209061,
          "velocity": 0.4881889763779528,
          "duration": 0.17441860465115155
        },
        {
          "name": "C6",
          "midi": 84,
          "time": 13.930232558139293,
          "velocity": 0.5354330708661418,
          "duration": 0.418604651162763
        },
        {
          "name": "D6",
          "midi": 86,
          "time": 13.930232558139293,
          "velocity": 0.2755905511811024,
          "duration": 0.034883720930229956
        },
        {
          "name": "F6",
          "midi": 89,
          "time": 13.930232558139293,
          "velocity": 0.5039370078740157,
          "duration": 0.43023255813950634
        },
        {
          "name": "A6",
          "midi": 93,
          "time": 13.930232558139293,
          "velocity": 0.3464566929133858,
          "duration": 0.22093023255812305
        },
        {
          "name": "F4",
          "midi": 65,
          "time": 13.941860465116036,
          "velocity": 0.6456692913385826,
          "duration": 0.22093023255812305
        },
        {
          "name": "B6",
          "midi": 95,
          "time": 13.941860465116036,
          "velocity": 0.08661417322834646,
          "duration": 0.046511627906973274
        },
        {
          "name": "C#7",
          "midi": 97,
          "time": 13.941860465116036,
          "velocity": 0.07874015748031496,
          "duration": 0.034883720930229956
        },
        {
          "name": "F#7",
          "midi": 102,
          "time": 13.941860465116036,
          "velocity": 0.12598425196850394,
          "duration": 0.16279069767440646
        },
        {
          "name": "F#6",
          "midi": 90,
          "time": 13.95348837209278,
          "velocity": 0.18110236220472442,
          "duration": 0.034883720930229956
        },
        {
          "name": "E6",
          "midi": 88,
          "time": 13.98837209302301,
          "velocity": 0.18110236220472442,
          "duration": 0.046511627906973274
        },
        {
          "name": "G6",
          "midi": 91,
          "time": 13.98837209302301,
          "velocity": 0.13385826771653545,
          "duration": 0.05813953488371659
        },
        {
          "name": "G#4",
          "midi": 68,
          "time": 13.999999999999753,
          "velocity": 0.4645669291338583,
          "duration": 0.05813953488371659
        },
        {
          "name": "C#7",
          "midi": 97,
          "time": 13.999999999999753,
          "velocity": 0.16535433070866143,
          "duration": 0.1279069767441765
        },
        {
          "name": "C5",
          "midi": 72,
          "time": 14.011627906976496,
          "velocity": 0.4881889763779528,
          "duration": 0.08139534883720323
        },
        {
          "name": "F#6",
          "midi": 90,
          "time": 14.02325581395324,
          "velocity": 0.14173228346456693,
          "duration": 0.034883720930229956
        },
        {
          "name": "D#6",
          "midi": 87,
          "time": 14.034883720929983,
          "velocity": 0.3543307086614173,
          "duration": 0.37209302325578975
        },
        {
          "name": "D#5",
          "midi": 75,
          "time": 14.046511627906726,
          "velocity": 0.25196850393700787,
          "duration": 0.023255813953486637
        },
        {
          "name": "A#5",
          "midi": 82,
          "time": 14.046511627906726,
          "velocity": 0.3543307086614173,
          "duration": 0.4302325581395081
        },
        {
          "name": "C#6",
          "midi": 85,
          "time": 14.05813953488347,
          "velocity": 0.18110236220472442,
          "duration": 0.034883720930229956
        },
        {
          "name": "G6",
          "midi": 91,
          "time": 14.05813953488347,
          "velocity": 0.25984251968503935,
          "duration": 0.2906976744185865
        },
        {
          "name": "B6",
          "midi": 95,
          "time": 14.05813953488347,
          "velocity": 0.11023622047244094,
          "duration": 0.046511627906973274
        },
        {
          "name": "A3",
          "midi": 57,
          "time": 14.069767441860213,
          "velocity": 0.33070866141732286,
          "duration": 0.023255813953486637
        },
        {
          "name": "G#4",
          "midi": 68,
          "time": 14.069767441860213,
          "velocity": 0.3779527559055118,
          "duration": 0.046511627906973274
        },
        {
          "name": "C#4",
          "midi": 61,
          "time": 14.081395348836956,
          "velocity": 0.5118110236220472,
          "duration": 0.034883720930229956
        },
        {
          "name": "D#5",
          "midi": 75,
          "time": 14.081395348836956,
          "velocity": 0.48031496062992124,
          "duration": 0.38372093023253484
        },
        {
          "name": "G#3",
          "midi": 56,
          "time": 14.0930232558137,
          "velocity": 0.3858267716535433,
          "duration": 0.023255813953486637
        },
        {
          "name": "A5",
          "midi": 81,
          "time": 14.104651162790443,
          "velocity": 0.11023622047244094,
          "duration": 0.034883720930229956
        },
        {
          "name": "F2",
          "midi": 41,
          "time": 14.116279069767186,
          "velocity": 0.15748031496062992,
          "duration": 0.034883720930229956
        },
        {
          "name": "C4",
          "midi": 60,
          "time": 14.116279069767186,
          "velocity": 0.4015748031496063,
          "duration": 0.023255813953486637
        },
        {
          "name": "G#3",
          "midi": 56,
          "time": 14.12790697674393,
          "velocity": 0.4094488188976378,
          "duration": 0.046511627906973274
        },
        {
          "name": "F2",
          "midi": 41,
          "time": 14.16279069767416,
          "velocity": 0.16535433070866143,
          "duration": 0.046511627906973274
        },
        {
          "name": "E4",
          "midi": 64,
          "time": 14.16279069767416,
          "velocity": 0.5433070866141733,
          "duration": 0.011627906976743319
        },
        {
          "name": "D#4",
          "midi": 63,
          "time": 14.174418604650903,
          "velocity": 0.5826771653543307,
          "duration": 0.16279069767441
        },
        {
          "name": "A6",
          "midi": 93,
          "time": 14.174418604650903,
          "velocity": 0.13385826771653545,
          "duration": 0.10465116279069164
        },
        {
          "name": "D7",
          "midi": 98,
          "time": 14.174418604650903,
          "velocity": 0.13385826771653545,
          "duration": 0.09302325581394832
        },
        {
          "name": "F3",
          "midi": 53,
          "time": 14.186046511627646,
          "velocity": 0.33070866141732286,
          "duration": 0.10465116279069164
        },
        {
          "name": "C#7",
          "midi": 97,
          "time": 14.186046511627646,
          "velocity": 0.11023622047244094,
          "duration": 0.04651162790697505
        },
        {
          "name": "F#6",
          "midi": 90,
          "time": 14.19767441860439,
          "velocity": 0.09448818897637795,
          "duration": 0.04651162790697505
        },
        {
          "name": "A4",
          "midi": 69,
          "time": 14.255813953488108,
          "velocity": 0.2440944881889764,
          "duration": 0.034883720930229956
        },
        {
          "name": "C#7",
          "midi": 97,
          "time": 14.267441860464851,
          "velocity": 0.11023622047244094,
          "duration": 0.034883720930229956
        },
        {
          "name": "E2",
          "midi": 40,
          "time": 14.279069767441595,
          "velocity": 0.1889763779527559,
          "duration": 0.034883720930229956
        },
        {
          "name": "C#5",
          "midi": 73,
          "time": 14.279069767441595,
          "velocity": 0.31496062992125984,
          "duration": 0.11627906976743496
        },
        {
          "name": "G#4",
          "midi": 68,
          "time": 14.290697674418338,
          "velocity": 0.2125984251968504,
          "duration": 0.05813953488371837
        },
        {
          "name": "F3",
          "midi": 53,
          "time": 14.302325581395081,
          "velocity": 0.31496062992125984,
          "duration": 0.06976744186046169
        },
        {
          "name": "F2",
          "midi": 41,
          "time": 14.313953488371824,
          "velocity": 0.25196850393700787,
          "duration": 0.05813953488371837
        },
        {
          "name": "C#4",
          "midi": 61,
          "time": 14.337209302325313,
          "velocity": 0.6299212598425197,
          "duration": 0.4069767441860197
        },
        {
          "name": "F5",
          "midi": 77,
          "time": 14.337209302325313,
          "velocity": 0.23622047244094488,
          "duration": 0.05813953488371659
        },
        {
          "name": "F4",
          "midi": 65,
          "time": 14.348837209302056,
          "velocity": 0.41732283464566927,
          "duration": 0.034883720930229956
        },
        {
          "name": "A4",
          "midi": 69,
          "time": 14.348837209302056,
          "velocity": 0.2125984251968504,
          "duration": 0.034883720930229956
        },
        {
          "name": "A6",
          "midi": 93,
          "time": 14.348837209302056,
          "velocity": 0.14960629921259844,
          "duration": 0.034883720930229956
        },
        {
          "name": "G2",
          "midi": 43,
          "time": 14.372093023255543,
          "velocity": 0.29133858267716534,
          "duration": 0.023255813953486637
        },
        {
          "name": "G3",
          "midi": 55,
          "time": 14.372093023255543,
          "velocity": 0.5118110236220472,
          "duration": 0.023255813953486637
        },
        {
          "name": "C6",
          "midi": 84,
          "time": 14.372093023255543,
          "velocity": 0.2283464566929134,
          "duration": 0.023255813953486637
        },
        {
          "name": "F#4",
          "midi": 66,
          "time": 14.383720930232286,
          "velocity": 0.4409448818897638,
          "duration": 0.06976744186046169
        },
        {
          "name": "F#2",
          "midi": 42,
          "time": 14.39534883720903,
          "velocity": 0.31496062992125984,
          "duration": 0.13953488372092337
        },
        {
          "name": "F#3",
          "midi": 54,
          "time": 14.39534883720903,
          "velocity": 0.5669291338582677,
          "duration": 0.32558139534881647
        },
        {
          "name": "C#6",
          "midi": 85,
          "time": 14.39534883720903,
          "velocity": 0.3228346456692913,
          "duration": 0.13953488372092337
        },
        {
          "name": "G#5",
          "midi": 80,
          "time": 14.406976744185773,
          "velocity": 0.2440944881889764,
          "duration": 0.1511627906976667
        },
        {
          "name": "F6",
          "midi": 89,
          "time": 14.406976744185773,
          "velocity": 0.1732283464566929,
          "duration": 0.04651162790697505
        },
        {
          "name": "A#4",
          "midi": 70,
          "time": 14.418604651162516,
          "velocity": 0.18110236220472442,
          "duration": 0.10465116279069342
        },
        {
          "name": "F5",
          "midi": 77,
          "time": 14.499999999999723,
          "velocity": 0.10236220472440945,
          "duration": 0.10465116279068987
        },
        {
          "name": "G#4",
          "midi": 68,
          "time": 14.511627906976466,
          "velocity": 0.25984251968503935,
          "duration": 0.034883720930229956
        },
        {
          "name": "D#5",
          "midi": 75,
          "time": 14.52325581395321,
          "velocity": 0.15748031496062992,
          "duration": 0.034883720930229956
        },
        {
          "name": "F#2",
          "midi": 42,
          "time": 14.546511627906696,
          "velocity": 0.2992125984251969,
          "duration": 0.046511627906973274
        },
        {
          "name": "A#4",
          "midi": 70,
          "time": 14.546511627906696,
          "velocity": 0.3700787401574803,
          "duration": 0.08139534883720323
        },
        {
          "name": "G#5",
          "midi": 80,
          "time": 14.569767441860183,
          "velocity": 0.2677165354330709,
          "duration": 0.05813953488371659
        },
        {
          "name": "D#7",
          "midi": 99,
          "time": 14.581395348836926,
          "velocity": 0.07086614173228346,
          "duration": 0.034883720930229956
        },
        {
          "name": "F2",
          "midi": 41,
          "time": 14.59302325581367,
          "velocity": 0.29133858267716534,
          "duration": 0.034883720930229956
        },
        {
          "name": "F6",
          "midi": 89,
          "time": 14.604651162790413,
          "velocity": 0.1732283464566929,
          "duration": 0.05813953488371659
        },
        {
          "name": "F#2",
          "midi": 42,
          "time": 14.6279069767439,
          "velocity": 0.3779527559055118,
          "duration": 0.4302325581395099
        },
        {
          "name": "D#5",
          "midi": 75,
          "time": 14.6279069767439,
          "velocity": 0.14960629921259844,
          "duration": 0.05813953488371659
        },
        {
          "name": "C6",
          "midi": 84,
          "time": 14.6279069767439,
          "velocity": 0.2047244094488189,
          "duration": 0.09302325581394655
        },
        {
          "name": "A#4",
          "midi": 70,
          "time": 14.639534883720643,
          "velocity": 0.5118110236220472,
          "duration": 0.5697674418604368
        },
        {
          "name": "G#5",
          "midi": 80,
          "time": 14.651162790697386,
          "velocity": 0.3937007874015748,
          "duration": 0.6395348837208967
        },
        {
          "name": "F5",
          "midi": 77,
          "time": 14.674418604650873,
          "velocity": 0.2047244094488189,
          "duration": 0.046511627906973274
        },
        {
          "name": "F6",
          "midi": 89,
          "time": 14.686046511627616,
          "velocity": 0.2440944881889764,
          "duration": 0.31395348837207493
        },
        {
          "name": "C#7",
          "midi": 97,
          "time": 14.69767441860436,
          "velocity": 0.25196850393700787,
          "duration": 0.11627906976743496
        },
        {
          "name": "A5",
          "midi": 81,
          "time": 14.709302325581103,
          "velocity": 0.18110236220472442,
          "duration": 0.05813953488371659
        },
        {
          "name": "C#6",
          "midi": 85,
          "time": 14.709302325581103,
          "velocity": 0.5039370078740157,
          "duration": 0.23255813953486992
        },
        {
          "name": "B6",
          "midi": 95,
          "time": 14.709302325581103,
          "velocity": 0.11023622047244094,
          "duration": 0.034883720930229956
        },
        {
          "name": "D#6",
          "midi": 87,
          "time": 14.720930232557846,
          "velocity": 0.2204724409448819,
          "duration": 0.034883720930229956
        },
        {
          "name": "C7",
          "midi": 96,
          "time": 14.720930232557846,
          "velocity": 0.14173228346456693,
          "duration": 0.09302325581394832
        },
        {
          "name": "D7",
          "midi": 98,
          "time": 14.720930232557846,
          "velocity": 0.15748031496062992,
          "duration": 0.17441860465115155
        },
        {
          "name": "A#3",
          "midi": 58,
          "time": 14.73255813953459,
          "velocity": 0.48031496062992124,
          "duration": 0.06976744186046169
        },
        {
          "name": "F#7",
          "midi": 102,
          "time": 14.73255813953459,
          "velocity": 0.16535433070866143,
          "duration": 0.11627906976743496
        },
        {
          "name": "F5",
          "midi": 77,
          "time": 14.744186046511333,
          "velocity": 0.2283464566929134,
          "duration": 0.11627906976743496
        },
        {
          "name": "D#5",
          "midi": 75,
          "time": 14.755813953488076,
          "velocity": 0.2125984251968504,
          "duration": 0.279069767441845
        },
        {
          "name": "C6",
          "midi": 84,
          "time": 14.755813953488076,
          "velocity": 0.2283464566929134,
          "duration": 0.06976744186046169
        },
        {
          "name": "G6",
          "midi": 91,
          "time": 14.755813953488076,
          "velocity": 0.11811023622047244,
          "duration": 0.04651162790697505
        },
        {
          "name": "C#4",
          "midi": 61,
          "time": 14.76744186046482,
          "velocity": 0.6299212598425197,
          "duration": 0.19767441860464174
        },
        {
          "name": "F#4",
          "midi": 66,
          "time": 14.779069767441563,
          "velocity": 0.4015748031496063,
          "duration": 0.20930232558138506
        },
        {
          "name": "B5",
          "midi": 83,
          "time": 14.825581395348538,
          "velocity": 0.08661417322834646,
          "duration": 0.034883720930229956
        },
        {
          "name": "E7",
          "midi": 100,
          "time": 14.837209302325281,
          "velocity": 0.14173228346456693,
          "duration": 0.046511627906973274
        },
        {
          "name": "C6",
          "midi": 84,
          "time": 14.848837209302024,
          "velocity": 0.11811023622047244,
          "duration": 0.05813953488371659
        },
        {
          "name": "F5",
          "midi": 77,
          "time": 14.87209302325551,
          "velocity": 0.14173228346456693,
          "duration": 0.046511627906973274
        },
        {
          "name": "C#4",
          "midi": 61,
          "time": 14.976744186046204,
          "velocity": 0.3700787401574803,
          "duration": 0.046511627906973274
        },
        {
          "name": "F#4",
          "midi": 66,
          "time": 14.999999999999691,
          "velocity": 0.5433070866141733,
          "duration": 0.40697674418602503
        },
        {
          "name": "F3",
          "midi": 53,
          "time": 15.011627906976434,
          "velocity": 0.3228346456692913,
          "duration": 0.023255813953486637
        },
        {
          "name": "F#3",
          "midi": 54,
          "time": 15.03488372092992,
          "velocity": 0.3937007874015748,
          "duration": 0.23255813953487525
        },
        {
          "name": "C#4",
          "midi": 61,
          "time": 15.03488372092992,
          "velocity": 0.4015748031496063,
          "duration": 0.08139534883720856
        },
        {
          "name": "F2",
          "midi": 41,
          "time": 15.05813953488341,
          "velocity": 0.14960629921259844,
          "duration": 0.06976744186046346
        },
        {
          "name": "F6",
          "midi": 89,
          "time": 15.11627906976713,
          "velocity": 0.14173228346456693,
          "duration": 0.05813953488371837
        },
        {
          "name": "F#2",
          "midi": 42,
          "time": 15.127906976743873,
          "velocity": 0.1732283464566929,
          "duration": 0.2093023255813833
        },
        {
          "name": "C#4",
          "midi": 61,
          "time": 15.139534883720616,
          "velocity": 0.3937007874015748,
          "duration": 0.0930232558139501
        },
        {
          "name": "F6",
          "midi": 89,
          "time": 15.197674418604336,
          "velocity": 0.25196850393700787,
          "duration": 0.1279069767441765
        },
        {
          "name": "A#4",
          "midi": 70,
          "time": 15.220930232557823,
          "velocity": 0.5748031496062992,
          "duration": 0.13953488372091982
        },
        {
          "name": "D7",
          "midi": 98,
          "time": 15.232558139534566,
          "velocity": 0.11023622047244094,
          "duration": 0.10465116279068987
        },
        {
          "name": "F5",
          "midi": 77,
          "time": 15.24418604651131,
          "velocity": 0.36220472440944884,
          "duration": 0.22093023255812483
        },
        {
          "name": "F#6",
          "midi": 90,
          "time": 15.24418604651131,
          "velocity": 0.16535433070866143,
          "duration": 0.034883720930229956
        },
        {
          "name": "C7",
          "midi": 96,
          "time": 15.24418604651131,
          "velocity": 0.18110236220472442,
          "duration": 0.2674418604650981
        },
        {
          "name": "E7",
          "midi": 100,
          "time": 15.24418604651131,
          "velocity": 0.15748031496062992,
          "duration": 0.06976744186045991
        },
        {
          "name": "C4",
          "midi": 60,
          "time": 15.255813953488053,
          "velocity": 0.49606299212598426,
          "duration": 0.023255813953486637
        },
        {
          "name": "D6",
          "midi": 86,
          "time": 15.255813953488053,
          "velocity": 0.3464566929133858,
          "duration": 0.1279069767441765
        },
        {
          "name": "G6",
          "midi": 91,
          "time": 15.267441860464796,
          "velocity": 0.13385826771653545,
          "duration": 0.034883720930229956
        },
        {
          "name": "A#3",
          "midi": 58,
          "time": 15.27906976744154,
          "velocity": 0.6377952755905512,
          "duration": 0.11627906976743319
        },
        {
          "name": "B5",
          "midi": 83,
          "time": 15.27906976744154,
          "velocity": 0.2283464566929134,
          "duration": 0.023255813953486637
        },
        {
          "name": "C#5",
          "midi": 73,
          "time": 15.290697674418283,
          "velocity": 0.15748031496062992,
          "duration": 0.034883720930229956
        },
        {
          "name": "D4",
          "midi": 62,
          "time": 15.348837209302,
          "velocity": 0.5039370078740157,
          "duration": 0.023255813953486637
        },
        {
          "name": "G#5",
          "midi": 80,
          "time": 15.348837209302,
          "velocity": 0.3700787401574803,
          "duration": 0.046511627906973274
        },
        {
          "name": "D#6",
          "midi": 87,
          "time": 15.348837209302,
          "velocity": 0.2125984251968504,
          "duration": 0.05813953488371659
        },
        {
          "name": "B6",
          "midi": 95,
          "time": 15.348837209302,
          "velocity": 0.11811023622047244,
          "duration": 0.034883720930229956
        },
        {
          "name": "E7",
          "midi": 100,
          "time": 15.348837209302,
          "velocity": 0.13385826771653545,
          "duration": 0.046511627906973274
        },
        {
          "name": "G6",
          "midi": 91,
          "time": 15.360465116278743,
          "velocity": 0.12598425196850394,
          "duration": 0.034883720930229956
        },
        {
          "name": "C#5",
          "midi": 73,
          "time": 15.372093023255486,
          "velocity": 0.33070866141732286,
          "duration": 0.18604651162789487
        },
        {
          "name": "E5",
          "midi": 76,
          "time": 15.372093023255486,
          "velocity": 0.29133858267716534,
          "duration": 0.023255813953486637
        },
        {
          "name": "C6",
          "midi": 84,
          "time": 15.372093023255486,
          "velocity": 0.3543307086614173,
          "duration": 0.18604651162789487
        },
        {
          "name": "A6",
          "midi": 93,
          "time": 15.372093023255486,
          "velocity": 0.18110236220472442,
          "duration": 0.06976744186046169
        },
        {
          "name": "F#3",
          "midi": 54,
          "time": 15.38372093023223,
          "velocity": 0.5039370078740157,
          "duration": 0.023255813953486637
        },
        {
          "name": "B3",
          "midi": 59,
          "time": 15.395348837208973,
          "velocity": 0.5354330708661418,
          "duration": 0.023255813953486637
        },
        {
          "name": "G#4",
          "midi": 68,
          "time": 15.395348837208973,
          "velocity": 0.5669291338582677,
          "duration": 0.09302325581394832
        },
        {
          "name": "D#5",
          "midi": 75,
          "time": 15.395348837208973,
          "velocity": 0.29133858267716534,
          "duration": 0.1976744186046382
        },
        {
          "name": "F#2",
          "midi": 42,
          "time": 15.406976744185716,
          "velocity": 0.4094488188976378,
          "duration": 0.2790697674418414
        },
        {
          "name": "A#3",
          "midi": 58,
          "time": 15.41860465116246,
          "velocity": 0.5039370078740157,
          "duration": 0.04651162790697505
        },
        {
          "name": "F#3",
          "midi": 54,
          "time": 15.441860465115948,
          "velocity": 0.47244094488188976,
          "duration": 0.023255813953486637
        },
        {
          "name": "F#5",
          "midi": 78,
          "time": 15.453488372092691,
          "velocity": 0.25196850393700787,
          "duration": 0.05813953488371659
        },
        {
          "name": "A3",
          "midi": 57,
          "time": 15.465116279069434,
          "velocity": 0.5118110236220472,
          "duration": 0.023255813953486637
        },
        {
          "name": "A#4",
          "midi": 70,
          "time": 15.476744186046178,
          "velocity": 0.4330708661417323,
          "duration": 0.06976744186045991
        },
        {
          "name": "F#4",
          "midi": 66,
          "time": 15.488372093022921,
          "velocity": 0.41732283464566927,
          "duration": 0.023255813953486637
        },
        {
          "name": "G3",
          "midi": 55,
          "time": 15.499999999999664,
          "velocity": 0.5511811023622047,
          "duration": 0.011627906976743319
        },
        {
          "name": "C#4",
          "midi": 61,
          "time": 15.499999999999664,
          "velocity": 0.29133858267716534,
          "duration": 0.023255813953486637
        },
        {
          "name": "G#3",
          "midi": 56,
          "time": 15.511627906976408,
          "velocity": 0.5669291338582677,
          "duration": 0.011627906976743319
        },
        {
          "name": "A3",
          "midi": 57,
          "time": 15.523255813953151,
          "velocity": 0.5433070866141733,
          "duration": 0.011627906976743319
        },
        {
          "name": "G#4",
          "midi": 68,
          "time": 15.523255813953151,
          "velocity": 0.48031496062992124,
          "duration": 0.06976744186045991
        },
        {
          "name": "G#3",
          "midi": 56,
          "time": 15.534883720929894,
          "velocity": 0.6692913385826772,
          "duration": 0.05813953488371659
        },
        {
          "name": "C#4",
          "midi": 61,
          "time": 15.534883720929894,
          "velocity": 0.3228346456692913,
          "duration": 0.034883720930229956
        },
        {
          "name": "F#5",
          "midi": 78,
          "time": 15.534883720929894,
          "velocity": 0.18110236220472442,
          "duration": 0.046511627906973274
        },
        {
          "name": "F6",
          "midi": 89,
          "time": 15.534883720929894,
          "velocity": 0.14173228346456693,
          "duration": 0.046511627906973274
        },
        {
          "name": "F#4",
          "midi": 66,
          "time": 15.569767441860124,
          "velocity": 0.3937007874015748,
          "duration": 0.05813953488371659
        },
        {
          "name": "C#5",
          "midi": 73,
          "time": 15.569767441860124,
          "velocity": 0.3228346456692913,
          "duration": 0.13953488372091982
        },
        {
          "name": "F5",
          "midi": 77,
          "time": 15.569767441860124,
          "velocity": 0.29133858267716534,
          "duration": 0.05813953488371659
        },
        {
          "name": "C#7",
          "midi": 97,
          "time": 15.581395348836867,
          "velocity": 0.10236220472440945,
          "duration": 0.034883720930229956
        },
        {
          "name": "A3",
          "midi": 57,
          "time": 15.59302325581361,
          "velocity": 0.5905511811023622,
          "duration": 0.011627906976743319
        },
        {
          "name": "D6",
          "midi": 86,
          "time": 15.59302325581361,
          "velocity": 0.10236220472440945,
          "duration": 0.034883720930229956
        },
        {
          "name": "A#4",
          "midi": 70,
          "time": 15.604651162790354,
          "velocity": 0.2755905511811024,
          "duration": 0.08139534883720323
        },
        {
          "name": "G#3",
          "midi": 56,
          "time": 15.616279069767097,
          "velocity": 0.6062992125984252,
          "duration": 0.011627906976743319
        },
        {
          "name": "A3",
          "midi": 57,
          "time": 15.62790697674384,
          "velocity": 0.6377952755905512,
          "duration": 0.011627906976743319
        },
        {
          "name": "C#4",
          "midi": 61,
          "time": 15.639534883720584,
          "velocity": 0.4330708661417323,
          "duration": 0.05813953488371659
        },
        {
          "name": "F#4",
          "midi": 66,
          "time": 15.639534883720584,
          "velocity": 0.3464566929133858,
          "duration": 0.034883720930229956
        },
        {
          "name": "D#5",
          "midi": 75,
          "time": 15.639534883720584,
          "velocity": 0.10236220472440945,
          "duration": 0.034883720930229956
        },
        {
          "name": "F5",
          "midi": 77,
          "time": 15.651162790697327,
          "velocity": 0.2677165354330709,
          "duration": 0.2790697674418485
        },
        {
          "name": "B5",
          "midi": 83,
          "time": 15.66279069767407,
          "velocity": 0.11811023622047244,
          "duration": 0.06976744186045991
        },
        {
          "name": "G#3",
          "midi": 56,
          "time": 15.674418604650814,
          "velocity": 0.4881889763779528,
          "duration": 0.023255813953486637
        },
        {
          "name": "A5",
          "midi": 81,
          "time": 15.674418604650814,
          "velocity": 0.2125984251968504,
          "duration": 0.05813953488371659
        },
        {
          "name": "F3",
          "midi": 53,
          "time": 15.6976744186043,
          "velocity": 0.5511811023622047,
          "duration": 0.25581395348836367
        },
        {
          "name": "G#5",
          "midi": 80,
          "time": 15.6976744186043,
          "velocity": 0.48031496062992124,
          "duration": 0.4534883720930232
        },
        {
          "name": "C#4",
          "midi": 61,
          "time": 15.709302325581044,
          "velocity": 0.4409448818897638,
          "duration": 0.12790697674418006
        },
        {
          "name": "C5",
          "midi": 72,
          "time": 15.709302325581044,
          "velocity": 0.4015748031496063,
          "duration": 0.09302325581394832
        },
        {
          "name": "D#7",
          "midi": 99,
          "time": 15.709302325581044,
          "velocity": 0.07086614173228346,
          "duration": 0.06976744186046169
        },
        {
          "name": "F#2",
          "midi": 42,
          "time": 15.720930232557787,
          "velocity": 0.16535433070866143,
          "duration": 0.04651162790697505
        },
        {
          "name": "A#4",
          "midi": 70,
          "time": 15.767441860464762,
          "velocity": 0.2283464566929134,
          "duration": 0.023255813953486637
        },
        {
          "name": "G#4",
          "midi": 68,
          "time": 15.790697674418249,
          "velocity": 0.30708661417322836,
          "duration": 0.18604651162790198
        },
        {
          "name": "F2",
          "midi": 41,
          "time": 15.813953488371736,
          "velocity": 0.3858267716535433,
          "duration": 0.26744186046511764
        },
        {
          "name": "C#4",
          "midi": 61,
          "time": 15.848837209301967,
          "velocity": 0.4881889763779528,
          "duration": 0.17441860465116044
        },
        {
          "name": "C6",
          "midi": 84,
          "time": 15.86046511627871,
          "velocity": 0.12598425196850394,
          "duration": 0.09302325581395365
        },
        {
          "name": "D#5",
          "midi": 75,
          "time": 15.883720930232199,
          "velocity": 0.36220472440944884,
          "duration": 0.1395348837209287
        },
        {
          "name": "A#4",
          "midi": 70,
          "time": 15.930232558139176,
          "velocity": 0.12598425196850394,
          "duration": 0.03488372093023173
        },
        {
          "name": "G#4",
          "midi": 68,
          "time": 15.988372093022894,
          "velocity": 0.44881889763779526,
          "duration": 0.16279069767442955
        },
        {
          "name": "G#3",
          "midi": 56,
          "time": 15.999999999999638,
          "velocity": 0.4566929133858268,
          "duration": 0.04651162790698038
        },
        {
          "name": "C#6",
          "midi": 85,
          "time": 15.999999999999638,
          "velocity": 0.5433070866141733,
          "duration": 0.6046511627907201
        },
        {
          "name": "F6",
          "midi": 89,
          "time": 15.999999999999638,
          "velocity": 0.3543307086614173,
          "duration": 0.244186046511647
        },
        {
          "name": "D5",
          "midi": 74,
          "time": 16.011627906976383,
          "velocity": 0.33070866141732286,
          "duration": 0.034883720930235285
        },
        {
          "name": "B5",
          "midi": 83,
          "time": 16.011627906976383,
          "velocity": 0.1732283464566929,
          "duration": 0.034883720930235285
        },
        {
          "name": "F#6",
          "midi": 90,
          "time": 16.011627906976383,
          "velocity": 0.14960629921259844,
          "duration": 0.034883720930235285
        },
        {
          "name": "C7",
          "midi": 96,
          "time": 16.011627906976383,
          "velocity": 0.14960629921259844,
          "duration": 0.034883720930235285
        },
        {
          "name": "D#7",
          "midi": 99,
          "time": 16.011627906976383,
          "velocity": 0.25984251968503935,
          "duration": 0.10465116279070585
        },
        {
          "name": "E7",
          "midi": 100,
          "time": 16.011627906976383,
          "velocity": 0.10236220472440945,
          "duration": 0.04651162790698038
        },
        {
          "name": "E5",
          "midi": 76,
          "time": 16.023255813953128,
          "velocity": 0.25984251968503935,
          "duration": 0.02325581395349019
        },
        {
          "name": "C#4",
          "midi": 61,
          "time": 16.034883720929873,
          "velocity": 0.6220472440944882,
          "duration": 0.30232558139536536
        },
        {
          "name": "F#3",
          "midi": 54,
          "time": 16.046511627906618,
          "velocity": 0.3543307086614173,
          "duration": 0.02325581395349019
        },
        {
          "name": "F4",
          "midi": 65,
          "time": 16.046511627906618,
          "velocity": 0.36220472440944884,
          "duration": 0.058139534883725474
        },
        {
          "name": "D#5",
          "midi": 75,
          "time": 16.046511627906618,
          "velocity": 0.28346456692913385,
          "duration": 0.08139534883721566
        },
        {
          "name": "G3",
          "midi": 55,
          "time": 16.069767441860108,
          "velocity": 0.30708661417322836,
          "duration": 0.02325581395349019
        },
        {
          "name": "F#2",
          "midi": 42,
          "time": 16.081395348836853,
          "velocity": 0.16535433070866143,
          "duration": 0.058139534883725474
        },
        {
          "name": "G#3",
          "midi": 56,
          "time": 16.0930232558136,
          "velocity": 0.4015748031496063,
          "duration": 0.02325581395349019
        },
        {
          "name": "F5",
          "midi": 77,
          "time": 16.104651162790343,
          "velocity": 0.11023622047244094,
          "duration": 0.09302325581396076
        },
        {
          "name": "B6",
          "midi": 95,
          "time": 16.104651162790343,
          "velocity": 0.09448818897637795,
          "duration": 0.034883720930235285
        },
        {
          "name": "G#3",
          "midi": 56,
          "time": 16.127906976743834,
          "velocity": 0.3858267716535433,
          "duration": 0.02325581395349019
        },
        {
          "name": "F4",
          "midi": 65,
          "time": 16.127906976743834,
          "velocity": 0.4251968503937008,
          "duration": 0.10465116279070585
        },
        {
          "name": "D7",
          "midi": 98,
          "time": 16.127906976743834,
          "velocity": 0.11811023622047244,
          "duration": 0.034883720930235285
        },
        {
          "name": "F2",
          "midi": 41,
          "time": 16.13953488372058,
          "velocity": 0.4015748031496063,
          "duration": 0.29069767441861316
        },
        {
          "name": "F3",
          "midi": 53,
          "time": 16.151162790697324,
          "velocity": 0.4251968503937008,
          "duration": 0.2209302325581497
        },
        {
          "name": "G#4",
          "midi": 68,
          "time": 16.16279069767407,
          "velocity": 0.47244094488188976,
          "duration": 0.40697674418605345
        },
        {
          "name": "C5",
          "midi": 72,
          "time": 16.174418604650814,
          "velocity": 0.15748031496062992,
          "duration": 0.034883720930235285
        },
        {
          "name": "D#5",
          "midi": 75,
          "time": 16.18604651162756,
          "velocity": 0.08661417322834646,
          "duration": 0.034883720930235285
        },
        {
          "name": "F5",
          "midi": 77,
          "time": 16.23255813953454,
          "velocity": 0.16535433070866143,
          "duration": 0.11627906976744384
        },
        {
          "name": "D#6",
          "midi": 87,
          "time": 16.244186046511285,
          "velocity": 0.2047244094488189,
          "duration": 0.12790697674418894
        },
        {
          "name": "C#4",
          "midi": 61,
          "time": 16.36046511627873,
          "velocity": 0.41732283464566927,
          "duration": 0.04651162790697683
        },
        {
          "name": "E3",
          "midi": 52,
          "time": 16.372093023255474,
          "velocity": 0.13385826771653545,
          "duration": 0.03488372093023173
        },
        {
          "name": "C#4",
          "midi": 61,
          "time": 16.430232558139192,
          "velocity": 0.6535433070866141,
          "duration": 0.13953488372093048
        },
        {
          "name": "F2",
          "midi": 41,
          "time": 16.465116279069424,
          "velocity": 0.3779527559055118,
          "duration": 0.3837209302325739
        },
        {
          "name": "G#5",
          "midi": 80,
          "time": 16.5116279069764,
          "velocity": 0.48031496062992124,
          "duration": 0.2906976744186167
        },
        {
          "name": "B5",
          "midi": 83,
          "time": 16.546511627906632,
          "velocity": 0.2204724409448819,
          "duration": 0.04651162790698038
        },
        {
          "name": "C6",
          "midi": 84,
          "time": 16.546511627906632,
          "velocity": 0.2125984251968504,
          "duration": 0.12790697674419604
        },
        {
          "name": "B4",
          "midi": 71,
          "time": 16.558139534883377,
          "velocity": 0.29133858267716534,
          "duration": 0.02325581395349019
        },
        {
          "name": "F#5",
          "midi": 78,
          "time": 16.558139534883377,
          "velocity": 0.25984251968503935,
          "duration": 0.02325581395349019
        },
        {
          "name": "D#6",
          "midi": 87,
          "time": 16.558139534883377,
          "velocity": 0.11023622047244094,
          "duration": 0.06976744186047057
        },
        {
          "name": "D7",
          "midi": 98,
          "time": 16.558139534883377,
          "velocity": 0.18110236220472442,
          "duration": 0.09302325581396076
        },
        {
          "name": "B3",
          "midi": 59,
          "time": 16.569767441860122,
          "velocity": 0.6456692913385826,
          "duration": 0.011627906976745095
        },
        {
          "name": "D6",
          "midi": 86,
          "time": 16.569767441860122,
          "velocity": 0.28346456692913385,
          "duration": 0.18604651162791797
        },
        {
          "name": "F#7",
          "midi": 102,
          "time": 16.569767441860122,
          "velocity": 0.09448818897637795,
          "duration": 0.034883720930235285
        },
        {
          "name": "A#3",
          "midi": 58,
          "time": 16.581395348836867,
          "velocity": 0.6456692913385826,
          "duration": 0.09302325581396076
        },
        {
          "name": "E7",
          "midi": 100,
          "time": 16.581395348836867,
          "velocity": 0.1968503937007874,
          "duration": 0.034883720930235285
        },
        {
          "name": "D#7",
          "midi": 99,
          "time": 16.604651162790358,
          "velocity": 0.2204724409448819,
          "duration": 0.034883720930235285
        },
        {
          "name": "C5",
          "midi": 72,
          "time": 16.627906976743848,
          "velocity": 0.1889763779527559,
          "duration": 0.034883720930235285
        },
        {
          "name": "A#6",
          "midi": 94,
          "time": 16.627906976743848,
          "velocity": 0.29133858267716534,
          "duration": 0.17441860465116932
        },
        {
          "name": "D5",
          "midi": 74,
          "time": 16.651162790697338,
          "velocity": 0.2755905511811024,
          "duration": 0.04651162790698038
        },
        {
          "name": "F5",
          "midi": 77,
          "time": 16.651162790697338,
          "velocity": 0.2755905511811024,
          "duration": 0.33720930232559
        },
        {
          "name": "F4",
          "midi": 65,
          "time": 16.662790697674083,
          "velocity": 0.5196850393700787,
          "duration": 0.3255813953488449
        },
        {
          "name": "B4",
          "midi": 71,
          "time": 16.662790697674083,
          "velocity": 0.2992125984251969,
          "duration": 0.02325581395349019
        },
        {
          "name": "F#6",
          "midi": 90,
          "time": 16.662790697674083,
          "velocity": 0.2047244094488189,
          "duration": 0.058139534883725474
        },
        {
          "name": "A6",
          "midi": 93,
          "time": 16.662790697674083,
          "velocity": 0.13385826771653545,
          "duration": 0.034883720930235285
        },
        {
          "name": "C#7",
          "midi": 97,
          "time": 16.662790697674083,
          "velocity": 0.2125984251968504,
          "duration": 0.11627906976744384
        },
        {
          "name": "D#7",
          "midi": 99,
          "time": 16.662790697674083,
          "velocity": 0.2125984251968504,
          "duration": 0.11627906976744384
        },
        {
          "name": "A3",
          "midi": 57,
          "time": 16.67441860465083,
          "velocity": 0.5905511811023622,
          "duration": 0.011627906976745095
        },
        {
          "name": "C#6",
          "midi": 85,
          "time": 16.67441860465083,
          "velocity": 0.25196850393700787,
          "duration": 0.11627906976744384
        },
        {
          "name": "D#6",
          "midi": 87,
          "time": 16.67441860465083,
          "velocity": 0.2204724409448819,
          "duration": 0.1976744186046595
        },
        {
          "name": "G3",
          "midi": 55,
          "time": 16.686046511627573,
          "velocity": 0.5511811023622047,
          "duration": 0.034883720930235285
        },
        {
          "name": "C#4",
          "midi": 61,
          "time": 16.686046511627573,
          "velocity": 0.5196850393700787,
          "duration": 0.09302325581395365
        },
        {
          "name": "G#4",
          "midi": 68,
          "time": 16.686046511627573,
          "velocity": 0.3228346456692913,
          "duration": 0.034883720930235285
        },
        {
          "name": "C6",
          "midi": 84,
          "time": 16.686046511627573,
          "velocity": 0.33070866141732286,
          "duration": 0.24418604651163633
        },
        {
          "name": "E7",
          "midi": 100,
          "time": 16.686046511627573,
          "velocity": 0.13385826771653545,
          "duration": 0.04651162790698038
        },
        {
          "name": "C5",
          "midi": 72,
          "time": 16.69767441860432,
          "velocity": 0.18110236220472442,
          "duration": 0.09302325581395365
        },
        {
          "name": "E3",
          "midi": 52,
          "time": 16.709302325581064,
          "velocity": 0.28346456692913385,
          "duration": 0.02325581395349019
        },
        {
          "name": "D#5",
          "midi": 75,
          "time": 16.709302325581064,
          "velocity": 0.3543307086614173,
          "duration": 0.2790697674418645
        },
        {
          "name": "A#5",
          "midi": 82,
          "time": 16.709302325581064,
          "velocity": 0.2440944881889764,
          "duration": 0.10465116279069875
        },
        {
          "name": "G#4",
          "midi": 68,
          "time": 16.732558139534554,
          "velocity": 0.4015748031496063,
          "duration": 0.2558139534883743
        },
        {
          "name": "G3",
          "midi": 55,
          "time": 16.802325581395017,
          "velocity": 0.3543307086614173,
          "duration": 0.02325581395349019
        },
        {
          "name": "C5",
          "midi": 72,
          "time": 16.802325581395017,
          "velocity": 0.1889763779527559,
          "duration": 0.034883720930235285
        },
        {
          "name": "G3",
          "midi": 55,
          "time": 16.837209302325252,
          "velocity": 0.3858267716535433,
          "duration": 0.02325581395349019
        },
        {
          "name": "C#5",
          "midi": 73,
          "time": 16.837209302325252,
          "velocity": 0.16535433070866143,
          "duration": 0.04651162790698038
        },
        {
          "name": "A#6",
          "midi": 94,
          "time": 16.848837209301998,
          "velocity": 0.10236220472440945,
          "duration": 0.08139534883721211
        },
        {
          "name": "G#3",
          "midi": 56,
          "time": 16.860465116278743,
          "velocity": 0.5669291338582677,
          "duration": 0.12790697674418539
        },
        {
          "name": "A#5",
          "midi": 82,
          "time": 16.860465116278743,
          "velocity": 0.08661417322834646,
          "duration": 0.04651162790697683
        },
        {
          "name": "C#4",
          "midi": 61,
          "time": 16.883720930232233,
          "velocity": 0.5275590551181102,
          "duration": 0.3372093023255829
        },
        {
          "name": "C5",
          "midi": 72,
          "time": 16.883720930232233,
          "velocity": 0.1889763779527559,
          "duration": 0.06976744186046346
        },
        {
          "name": "F2",
          "midi": 41,
          "time": 16.90697674418572,
          "velocity": 0.18110236220472442,
          "duration": 0.06976744186046346
        },
        {
          "name": "C#6",
          "midi": 85,
          "time": 16.918604651162465,
          "velocity": 0.1732283464566929,
          "duration": 0.05813953488371837
        },
        {
          "name": "G3",
          "midi": 55,
          "time": 16.988372093022928,
          "velocity": 0.5354330708661418,
          "duration": 0.011627906976745095
        },
        {
          "name": "F#5",
          "midi": 78,
          "time": 16.988372093022928,
          "velocity": 0.14960629921259844,
          "duration": 0.04651162790698038
        },
        {
          "name": "A5",
          "midi": 81,
          "time": 16.988372093022928,
          "velocity": 0.11023622047244094,
          "duration": 0.034883720930235285
        },
        {
          "name": "F#3",
          "midi": 54,
          "time": 16.999999999999673,
          "velocity": 0.5354330708661418,
          "duration": 0.011627906976745095
        },
        {
          "name": "F4",
          "midi": 65,
          "time": 16.999999999999673,
          "velocity": 0.3779527559055118,
          "duration": 0.04651162790698038
        },
        {
          "name": "D#5",
          "midi": 75,
          "time": 16.999999999999673,
          "velocity": 0.25196850393700787,
          "duration": 0.034883720930235285
        },
        {
          "name": "F3",
          "midi": 53,
          "time": 17.01162790697642,
          "velocity": 0.5275590551181102,
          "duration": 0.011627906976745095
        },
        {
          "name": "A#4",
          "midi": 70,
          "time": 17.01162790697642,
          "velocity": 0.36220472440944884,
          "duration": 0.40697674418606056
        },
        {
          "name": "D#7",
          "midi": 99,
          "time": 17.01162790697642,
          "velocity": 0.10236220472440945,
          "duration": 0.034883720930235285
        },
        {
          "name": "F#2",
          "midi": 42,
          "time": 17.023255813953163,
          "velocity": 0.4015748031496063,
          "duration": 0.05813953488372192
        },
        {
          "name": "F#3",
          "midi": 54,
          "time": 17.023255813953163,
          "velocity": 0.5511811023622047,
          "duration": 0.1976744186046524
        },
        {
          "name": "F6",
          "midi": 89,
          "time": 17.023255813953163,
          "velocity": 0.11023622047244094,
          "duration": 0.034883720930235285
        },
        {
          "name": "G#5",
          "midi": 80,
          "time": 17.03488372092991,
          "velocity": 0.30708661417322836,
          "duration": 0.2093023255813975
        },
        {
          "name": "F2",
          "midi": 41,
          "time": 17.081395348836885,
          "velocity": 0.3464566929133858,
          "duration": 0.04651162790697683
        },
        {
          "name": "F6",
          "midi": 89,
          "time": 17.09302325581363,
          "velocity": 0.13385826771653545,
          "duration": 0.15116279069767558
        },
        {
          "name": "F4",
          "midi": 65,
          "time": 17.116279069767117,
          "velocity": 0.33858267716535434,
          "duration": 0.03488372093023173
        },
        {
          "name": "F2",
          "midi": 41,
          "time": 17.15116279069735,
          "velocity": 0.3228346456692913,
          "duration": 0.03488372093023173
        },
        {
          "name": "F#2",
          "midi": 42,
          "time": 17.18604651162758,
          "velocity": 0.3543307086614173,
          "duration": 0.09302325581396076
        },
        {
          "name": "C6",
          "midi": 84,
          "time": 17.18604651162758,
          "velocity": 0.15748031496062992,
          "duration": 0.04651162790698038
        },
        {
          "name": "F5",
          "midi": 77,
          "time": 17.197674418604326,
          "velocity": 0.1889763779527559,
          "duration": 0.034883720930235285
        },
        {
          "name": "A#3",
          "midi": 58,
          "time": 17.20930232558107,
          "velocity": 0.5118110236220472,
          "duration": 0.08139534883721566
        },
        {
          "name": "F5",
          "midi": 77,
          "time": 17.244186046511306,
          "velocity": 0.31496062992125984,
          "duration": 0.08139534883721566
        },
        {
          "name": "C#5",
          "midi": 73,
          "time": 17.25581395348805,
          "velocity": 0.23622047244094488,
          "duration": 0.058139534883725474
        },
        {
          "name": "G#5",
          "midi": 80,
          "time": 17.267441860464796,
          "velocity": 0.3937007874015748,
          "duration": 0.6046511627906987
        },
        {
          "name": "C#4",
          "midi": 61,
          "time": 17.27906976744154,
          "velocity": 0.4330708661417323,
          "duration": 0.058139534883725474
        },
        {
          "name": "F2",
          "midi": 41,
          "time": 17.30232558139503,
          "velocity": 0.23622047244094488,
          "duration": 0.02325581395349019
        },
        {
          "name": "F#3",
          "midi": 54,
          "time": 17.30232558139503,
          "velocity": 0.47244094488188976,
          "duration": 0.02325581395349019
        },
        {
          "name": "E5",
          "midi": 76,
          "time": 17.313953488371777,
          "velocity": 0.3700787401574803,
          "duration": 0.02325581395349019
        },
        {
          "name": "D#6",
          "midi": 87,
          "time": 17.313953488371777,
          "velocity": 0.14173228346456693,
          "duration": 0.08139534883721211
        },
        {
          "name": "F#2",
          "midi": 42,
          "time": 17.32558139534852,
          "velocity": 0.33070866141732286,
          "duration": 0.08139534883721211
        },
        {
          "name": "F#4",
          "midi": 66,
          "time": 17.32558139534852,
          "velocity": 0.47244094488188976,
          "duration": 0.05813953488372192
        },
        {
          "name": "C#5",
          "midi": 73,
          "time": 17.32558139534852,
          "velocity": 0.5354330708661418,
          "duration": 0.6744186046511658
        },
        {
          "name": "D6",
          "midi": 86,
          "time": 17.32558139534852,
          "velocity": 0.2283464566929134,
          "duration": 0.03488372093023173
        },
        {
          "name": "F#6",
          "midi": 90,
          "time": 17.32558139534852,
          "velocity": 0.1732283464566929,
          "duration": 0.03488372093023173
        },
        {
          "name": "D#7",
          "midi": 99,
          "time": 17.32558139534852,
          "velocity": 0.31496062992125984,
          "duration": 0.1162790697674474
        },
        {
          "name": "F#3",
          "midi": 54,
          "time": 17.337209302325267,
          "velocity": 0.4330708661417323,
          "duration": 0.0930232558139572
        },
        {
          "name": "D4",
          "midi": 62,
          "time": 17.337209302325267,
          "velocity": 0.4881889763779528,
          "duration": 0.023255813953486637
        },
        {
          "name": "F5",
          "midi": 77,
          "time": 17.337209302325267,
          "velocity": 0.3228346456692913,
          "duration": 0.16279069767442422
        },
        {
          "name": "B5",
          "midi": 83,
          "time": 17.337209302325267,
          "velocity": 0.18110236220472442,
          "duration": 0.04651162790697683
        },
        {
          "name": "A6",
          "midi": 93,
          "time": 17.337209302325267,
          "velocity": 0.11023622047244094,
          "duration": 0.03488372093023173
        },
        {
          "name": "C#4",
          "midi": 61,
          "time": 17.360465116278753,
          "velocity": 0.6299212598425197,
          "duration": 0.16279069767442422
        },
        {
          "name": "C6",
          "midi": 84,
          "time": 17.360465116278753,
          "velocity": 0.1732283464566929,
          "duration": 0.06976744186047057
        },
        {
          "name": "G6",
          "midi": 91,
          "time": 17.360465116278753,
          "velocity": 0.15748031496062992,
          "duration": 0.04651162790698038
        },
        {
          "name": "E7",
          "midi": 100,
          "time": 17.39534883720899,
          "velocity": 0.08661417322834646,
          "duration": 0.034883720930235285
        },
        {
          "name": "F#2",
          "midi": 42,
          "time": 17.41860465116248,
          "velocity": 0.2755905511811024,
          "duration": 0.04651162790698038
        },
        {
          "name": "A#4",
          "midi": 70,
          "time": 17.453488372092714,
          "velocity": 0.5826771653543307,
          "duration": 0.29069767441859895
        },
        {
          "name": "F#3",
          "midi": 54,
          "time": 17.476744186046204,
          "velocity": 0.4015748031496063,
          "duration": 0.441860465116271
        },
        {
          "name": "C#4",
          "midi": 61,
          "time": 17.534883720929923,
          "velocity": 0.48031496062992124,
          "duration": 0.12790697674418183
        },
        {
          "name": "F2",
          "midi": 41,
          "time": 17.55813953488341,
          "velocity": 0.23622047244094488,
          "duration": 0.04651162790697683
        },
        {
          "name": "F#2",
          "midi": 42,
          "time": 17.604651162790386,
          "velocity": 0.2440944881889764,
          "duration": 0.12790697674418183
        },
        {
          "name": "E5",
          "midi": 76,
          "time": 17.639534883720618,
          "velocity": 0.2047244094488189,
          "duration": 0.046511627906973274
        },
        {
          "name": "D4",
          "midi": 62,
          "time": 17.662790697674104,
          "velocity": 0.33858267716535434,
          "duration": 0.03488372093023173
        },
        {
          "name": "C#4",
          "midi": 61,
          "time": 17.697674418604336,
          "velocity": 0.5984251968503937,
          "duration": 0.18604651162790375
        },
        {
          "name": "F6",
          "midi": 89,
          "time": 17.70930232558108,
          "velocity": 0.2125984251968504,
          "duration": 0.16279069767441356
        },
        {
          "name": "F#2",
          "midi": 42,
          "time": 17.744186046511313,
          "velocity": 0.4094488188976378,
          "duration": 0.5116279069767629
        },
        {
          "name": "A#4",
          "midi": 70,
          "time": 17.7674418604648,
          "velocity": 0.3228346456692913,
          "duration": 0.1046511627906952
        },
        {
          "name": "F#4",
          "midi": 66,
          "time": 17.790697674418286,
          "velocity": 0.47244094488188976,
          "duration": 0.15116279069767558
        },
        {
          "name": "A#5",
          "midi": 82,
          "time": 17.837209302325263,
          "velocity": 0.4015748031496063,
          "duration": 0.255813953488385
        },
        {
          "name": "D#5",
          "midi": 75,
          "time": 17.86046511627875,
          "velocity": 0.4330708661417323,
          "duration": 0.16279069767442778
        },
        {
          "name": "G6",
          "midi": 91,
          "time": 17.86046511627875,
          "velocity": 0.2440944881889764,
          "duration": 0.1162790697674474
        },
        {
          "name": "E4",
          "midi": 64,
          "time": 17.872093023255495,
          "velocity": 0.5118110236220472,
          "duration": 0.02325581395349019
        },
        {
          "name": "A#4",
          "midi": 70,
          "time": 17.88372093023224,
          "velocity": 0.3464566929133858,
          "duration": 0.08139534883721211
        },
        {
          "name": "B5",
          "midi": 83,
          "time": 17.88372093023224,
          "velocity": 0.13385826771653545,
          "duration": 0.034883720930235285
        },
        {
          "name": "D#4",
          "midi": 63,
          "time": 17.895348837208985,
          "velocity": 0.5826771653543307,
          "duration": 0.1046511627907023
        },
        {
          "name": "F6",
          "midi": 89,
          "time": 17.90697674418573,
          "velocity": 0.3858267716535433,
          "duration": 0.17441860465117287
        },
        {
          "name": "F3",
          "midi": 53,
          "time": 17.918604651162475,
          "velocity": 0.29133858267716534,
          "duration": 0.023255813953486637
        },
        {
          "name": "G#6",
          "midi": 92,
          "time": 17.918604651162475,
          "velocity": 0.13385826771653545,
          "duration": 0.06976744186046702
        },
        {
          "name": "D7",
          "midi": 98,
          "time": 17.918604651162475,
          "velocity": 0.08661417322834646,
          "duration": 0.04651162790697683
        },
        {
          "name": "E6",
          "midi": 88,
          "time": 17.941860465115962,
          "velocity": 0.16535433070866143,
          "duration": 0.04651162790698038
        },
        {
          "name": "F#4",
          "midi": 66,
          "time": 17.953488372092707,
          "velocity": 0.6456692913385826,
          "duration": 0.04651162790698038
        },
        {
          "name": "F5",
          "midi": 77,
          "time": 17.965116279069452,
          "velocity": 0.5984251968503937,
          "duration": 1.0116279069767984
        },
        {
          "name": "D6",
          "midi": 86,
          "time": 17.965116279069452,
          "velocity": 0.2677165354330709,
          "duration": 0.02325581395349019
        },
        {
          "name": "A6",
          "midi": 93,
          "time": 17.965116279069452,
          "velocity": 0.1968503937007874,
          "duration": 0.058139534883725474
        },
        {
          "name": "B6",
          "midi": 95,
          "time": 17.965116279069452,
          "velocity": 0.07874015748031496,
          "duration": 0.034883720930235285
        },
        {
          "name": "C7",
          "midi": 96,
          "time": 17.965116279069452,
          "velocity": 0.16535433070866143,
          "duration": 0.13953488372094114
        },
        {
          "name": "F#7",
          "midi": 102,
          "time": 17.965116279069452,
          "velocity": 0.2047244094488189,
          "duration": 0.04651162790698038
        },
        {
          "name": "G#5",
          "midi": 80,
          "time": 17.976744186046197,
          "velocity": 0.29133858267716534,
          "duration": 0.12790697674419604
        },
        {
          "name": "C6",
          "midi": 84,
          "time": 17.976744186046197,
          "velocity": 0.5039370078740157,
          "duration": 0.08139534883721566
        },
        {
          "name": "A#3",
          "midi": 58,
          "time": 17.988372093022942,
          "velocity": 0.48031496062992124,
          "duration": 0.10465116279070585
        },
        {
          "name": "A4",
          "midi": 69,
          "time": 17.988372093022942,
          "velocity": 0.25984251968503935,
          "duration": 0.02325581395349019
        },
        {
          "name": "G6",
          "midi": 91,
          "time": 17.988372093022942,
          "velocity": 0.18110236220472442,
          "duration": 0.2790697674418787
        },
        {
          "name": "D#7",
          "midi": 99,
          "time": 17.988372093022942,
          "velocity": 0.25196850393700787,
          "duration": 0.17441860465117287
        },
        {
          "name": "G7",
          "midi": 103,
          "time": 17.988372093022942,
          "velocity": 0.25984251968503935,
          "duration": 0.11627906976745095
        },
        {
          "name": "F4",
          "midi": 65,
          "time": 17.999999999999687,
          "velocity": 0.6692913385826772,
          "duration": 0.19767441860466306
        },
        {
          "name": "E6",
          "midi": 88,
          "time": 17.999999999999687,
          "velocity": 0.2677165354330709,
          "duration": 0.10465116279070585
        },
        {
          "name": "C5",
          "midi": 72,
          "time": 18.023255813953178,
          "velocity": 0.5118110236220472,
          "duration": 0.1162790697674474
        },
        {
          "name": "F#7",
          "midi": 102,
          "time": 18.034883720929923,
          "velocity": 0.16535433070866143,
          "duration": 0.16279069767442778
        },
        {
          "name": "A6",
          "midi": 93,
          "time": 18.046511627906668,
          "velocity": 0.2204724409448819,
          "duration": 0.17441860465117287
        },
        {
          "name": "D7",
          "midi": 98,
          "time": 18.046511627906668,
          "velocity": 0.08661417322834646,
          "duration": 0.034883720930235285
        },
        {
          "name": "B5",
          "midi": 83,
          "time": 18.058139534883413,
          "velocity": 0.3228346456692913,
          "duration": 0.02325581395349019
        },
        {
          "name": "C#6",
          "midi": 85,
          "time": 18.058139534883413,
          "velocity": 0.18110236220472442,
          "duration": 0.06976744186046702
        },
        {
          "name": "F#6",
          "midi": 90,
          "time": 18.058139534883413,
          "velocity": 0.13385826771653545,
          "duration": 0.034883720930235285
        },
        {
          "name": "D6",
          "midi": 86,
          "time": 18.069767441860158,
          "velocity": 0.12598425196850394,
          "duration": 0.034883720930235285
        },
        {
          "name": "C#4",
          "midi": 61,
          "time": 18.081395348836903,
          "velocity": 0.3937007874015748,
          "duration": 0.1046511627907023
        },
        {
          "name": "A5",
          "midi": 81,
          "time": 18.081395348836903,
          "velocity": 0.13385826771653545,
          "duration": 0.04651162790697683
        },
        {
          "name": "G#5",
          "midi": 80,
          "time": 18.12790697674388,
          "velocity": 0.09448818897637795,
          "duration": 0.034883720930235285
        },
        {
          "name": "A#5",
          "midi": 82,
          "time": 18.12790697674388,
          "velocity": 0.12598425196850394,
          "duration": 0.034883720930235285
        },
        {
          "name": "E6",
          "midi": 88,
          "time": 18.12790697674388,
          "velocity": 0.08661417322834646,
          "duration": 0.034883720930235285
        },
        {
          "name": "C5",
          "midi": 72,
          "time": 18.15116279069737,
          "velocity": 0.49606299212598426,
          "duration": 0.09302325581396076
        },
        {
          "name": "A5",
          "midi": 81,
          "time": 18.15116279069737,
          "velocity": 0.25984251968503935,
          "duration": 0.08139534883721566
        },
        {
          "name": "E6",
          "midi": 88,
          "time": 18.17441860465086,
          "velocity": 0.2125984251968504,
          "duration": 0.058139534883725474
        },
        {
          "name": "A#3",
          "midi": 58,
          "time": 18.186046511627605,
          "velocity": 0.5196850393700787,
          "duration": 0.11627906976745095
        },
        {
          "name": "D#4",
          "midi": 63,
          "time": 18.186046511627605,
          "velocity": 0.3543307086614173,
          "duration": 0.034883720930235285
        },
        {
          "name": "D6",
          "midi": 86,
          "time": 18.186046511627605,
          "velocity": 0.16535433070866143,
          "duration": 0.04651162790698038
        },
        {
          "name": "D#7",
          "midi": 99,
          "time": 18.186046511627605,
          "velocity": 0.07086614173228346,
          "duration": 0.06976744186047057
        },
        {
          "name": "F#4",
          "midi": 66,
          "time": 18.19767441860435,
          "velocity": 0.4094488188976378,
          "duration": 0.034883720930235285
        },
        {
          "name": "G#6",
          "midi": 92,
          "time": 18.209302325581096,
          "velocity": 0.10236220472440945,
          "duration": 0.034883720930235285
        },
        {
          "name": "C#4",
          "midi": 61,
          "time": 18.22093023255784,
          "velocity": 0.3937007874015748,
          "duration": 0.058139534883725474
        },
        {
          "name": "F4",
          "midi": 65,
          "time": 18.232558139534586,
          "velocity": 0.6377952755905512,
          "duration": 0.6627906976744526
        },
        {
          "name": "A5",
          "midi": 81,
          "time": 18.24418604651133,
          "velocity": 0.25984251968503935,
          "duration": 0.02325581395349019
        },
        {
          "name": "F2",
          "midi": 41,
          "time": 18.255813953488076,
          "velocity": 0.1732283464566929,
          "duration": 0.034883720930235285
        },
        {
          "name": "D4",
          "midi": 62,
          "time": 18.29069767441831,
          "velocity": 0.3700787401574803,
          "duration": 0.02325581395349019
        },
        {
          "name": "G#5",
          "midi": 80,
          "time": 18.29069767441831,
          "velocity": 0.2440944881889764,
          "duration": 0.06976744186046702
        },
        {
          "name": "A5",
          "midi": 81,
          "time": 18.29069767441831,
          "velocity": 0.16535433070866143,
          "duration": 0.17441860465116932
        },
        {
          "name": "A3",
          "midi": 57,
          "time": 18.302325581395056,
          "velocity": 0.5511811023622047,
          "duration": 0.011627906976745095
        },
        {
          "name": "D#5",
          "midi": 75,
          "time": 18.302325581395056,
          "velocity": 0.25196850393700787,
          "duration": 0.17441860465116932
        },
        {
          "name": "G#2",
          "midi": 44,
          "time": 18.3139534883718,
          "velocity": 0.2992125984251969,
          "duration": 0.05813953488372192
        },
        {
          "name": "G#3",
          "midi": 56,
          "time": 18.3139534883718,
          "velocity": 0.48031496062992124,
          "duration": 0.08139534883721211
        },
        {
          "name": "C#4",
          "midi": 61,
          "time": 18.3139534883718,
          "velocity": 0.44881889763779526,
          "duration": 0.12790697674418894
        },
        {
          "name": "C5",
          "midi": 72,
          "time": 18.3139534883718,
          "velocity": 0.31496062992125984,
          "duration": 0.1860465116279144
        },
        {
          "name": "C6",
          "midi": 84,
          "time": 18.325581395348546,
          "velocity": 0.47244094488188976,
          "duration": 0.8720930232558466
        },
        {
          "name": "A6",
          "midi": 93,
          "time": 18.325581395348546,
          "velocity": 0.1732283464566929,
          "duration": 0.15116279069767913
        },
        {
          "name": "C#7",
          "midi": 97,
          "time": 18.325581395348546,
          "velocity": 0.07874015748031496,
          "duration": 0.04651162790697683
        },
        {
          "name": "A#4",
          "midi": 70,
          "time": 18.372093023255523,
          "velocity": 0.07086614173228346,
          "duration": 0.034883720930235285
        },
        {
          "name": "G#2",
          "midi": 44,
          "time": 18.38372093023227,
          "velocity": 0.33070866141732286,
          "duration": 0.05813953488372192
        },
        {
          "name": "F#3",
          "midi": 54,
          "time": 18.40697674418576,
          "velocity": 0.1732283464566929,
          "duration": 0.04651162790697683
        },
        {
          "name": "G#3",
          "midi": 56,
          "time": 18.46511627906948,
          "velocity": 0.3228346456692913,
          "duration": 0.10465116279069875
        },
        {
          "name": "C#4",
          "midi": 61,
          "time": 18.46511627906948,
          "velocity": 0.4251968503937008,
          "duration": 0.12790697674418894
        },
        {
          "name": "G2",
          "midi": 43,
          "time": 18.476744186046226,
          "velocity": 0.30708661417322836,
          "duration": 0.02325581395349019
        },
        {
          "name": "G#4",
          "midi": 68,
          "time": 18.48837209302297,
          "velocity": 0.3464566929133858,
          "duration": 0.12790697674418894
        },
        {
          "name": "D#5",
          "midi": 75,
          "time": 18.48837209302297,
          "velocity": 0.25984251968503935,
          "duration": 0.13953488372093403
        },
        {
          "name": "E7",
          "midi": 100,
          "time": 18.48837209302297,
          "velocity": 0.08661417322834646,
          "duration": 0.04651162790697683
        },
        {
          "name": "G#2",
          "midi": 44,
          "time": 18.499999999999716,
          "velocity": 0.25196850393700787,
          "duration": 0.023255813953486637
        },
        {
          "name": "G#2",
          "midi": 44,
          "time": 18.534883720929948,
          "velocity": 0.2677165354330709,
          "duration": 0.04651162790697683
        },
        {
          "name": "G#5",
          "midi": 80,
          "time": 18.546511627906693,
          "velocity": 0.4094488188976378,
          "duration": 0.13953488372093759
        },
        {
          "name": "G#3",
          "midi": 56,
          "time": 18.581395348836924,
          "velocity": 0.23622047244094488,
          "duration": 0.02325581395349019
        },
        {
          "name": "G#2",
          "midi": 44,
          "time": 18.604651162790415,
          "velocity": 0.2047244094488189,
          "duration": 0.04651162790698038
        },
        {
          "name": "G3",
          "midi": 55,
          "time": 18.604651162790415,
          "velocity": 0.2755905511811024,
          "duration": 0.034883720930235285
        },
        {
          "name": "A4",
          "midi": 69,
          "time": 18.61627906976716,
          "velocity": 0.49606299212598426,
          "duration": 0.02325581395349019
        },
        {
          "name": "F#5",
          "midi": 78,
          "time": 18.61627906976716,
          "velocity": 0.4094488188976378,
          "duration": 0.04651162790698038
        },
        {
          "name": "B5",
          "midi": 83,
          "time": 18.61627906976716,
          "velocity": 0.2283464566929134,
          "duration": 0.02325581395349019
        },
        {
          "name": "D#6",
          "midi": 87,
          "time": 18.61627906976716,
          "velocity": 0.3543307086614173,
          "duration": 0.26744186046513363
        },
        {
          "name": "A6",
          "midi": 93,
          "time": 18.61627906976716,
          "velocity": 0.33070866141732286,
          "duration": 0.24418604651164344
        },
        {
          "name": "C#7",
          "midi": 97,
          "time": 18.61627906976716,
          "velocity": 0.2204724409448819,
          "duration": 0.25581395348838853
        },
        {
          "name": "G6",
          "midi": 91,
          "time": 18.627906976743905,
          "velocity": 0.23622047244094488,
          "duration": 0.18604651162791797
        },
        {
          "name": "E7",
          "midi": 100,
          "time": 18.627906976743905,
          "velocity": 0.13385826771653545,
          "duration": 0.1162790697674474
        },
        {
          "name": "F#7",
          "midi": 102,
          "time": 18.627906976743905,
          "velocity": 0.1889763779527559,
          "duration": 0.1046511627907023
        },
        {
          "name": "G#3",
          "midi": 56,
          "time": 18.63953488372065,
          "velocity": 0.2440944881889764,
          "duration": 0.1046511627907023
        },
        {
          "name": "C4",
          "midi": 60,
          "time": 18.63953488372065,
          "velocity": 0.29133858267716534,
          "duration": 0.02325581395349019
        },
        {
          "name": "G#4",
          "midi": 68,
          "time": 18.63953488372065,
          "velocity": 0.5354330708661418,
          "duration": 0.36046511627909084
        },
        {
          "name": "D#5",
          "midi": 75,
          "time": 18.651162790697395,
          "velocity": 0.1968503937007874,
          "duration": 0.05813953488372192
        },
        {
          "name": "E6",
          "midi": 88,
          "time": 18.651162790697395,
          "velocity": 0.25984251968503935,
          "duration": 0.1046511627907023
        },
        {
          "name": "C5",
          "midi": 72,
          "time": 18.66279069767414,
          "velocity": 0.5433070866141733,
          "duration": 0.13953488372093759
        },
        {
          "name": "A#6",
          "midi": 94,
          "time": 18.66279069767414,
          "velocity": 0.13385826771653545,
          "duration": 0.1046511627907023
        },
        {
          "name": "D7",
          "midi": 98,
          "time": 18.674418604650885,
          "velocity": 0.11811023622047244,
          "duration": 0.05813953488372192
        },
        {
          "name": "G#2",
          "midi": 44,
          "time": 18.68604651162763,
          "velocity": 0.1968503937007874,
          "duration": 0.04651162790697683
        },
        {
          "name": "B5",
          "midi": 83,
          "time": 18.68604651162763,
          "velocity": 0.30708661417322836,
          "duration": 0.03488372093023173
        },
        {
          "name": "C#4",
          "midi": 61,
          "time": 18.709302325581117,
          "velocity": 0.23622047244094488,
          "duration": 0.034883720930235285
        },
        {
          "name": "D#5",
          "midi": 75,
          "time": 18.732558139534607,
          "velocity": 0.1732283464566929,
          "duration": 0.034883720930235285
        },
        {
          "name": "A5",
          "midi": 81,
          "time": 18.732558139534607,
          "velocity": 0.2047244094488189,
          "duration": 0.06976744186047057
        },
        {
          "name": "G#2",
          "midi": 44,
          "time": 18.744186046511352,
          "velocity": 0.2283464566929134,
          "duration": 0.058139534883725474
        },
        {
          "name": "F#7",
          "midi": 102,
          "time": 18.755813953488097,
          "velocity": 0.12598425196850394,
          "duration": 0.09302325581396076
        },
        {
          "name": "E7",
          "midi": 100,
          "time": 18.767441860464842,
          "velocity": 0.13385826771653545,
          "duration": 0.09302325581396076
        },
        {
          "name": "A3",
          "midi": 57,
          "time": 18.779069767441587,
          "velocity": 0.10236220472440945,
          "duration": 0.034883720930235285
        },
        {
          "name": "C#6",
          "midi": 85,
          "time": 18.790697674418332,
          "velocity": 0.10236220472440945,
          "duration": 0.058139534883725474
        },
        {
          "name": "E6",
          "midi": 88,
          "time": 18.790697674418332,
          "velocity": 0.1889763779527559,
          "duration": 0.06976744186047057
        },
        {
          "name": "G#2",
          "midi": 44,
          "time": 18.813953488371823,
          "velocity": 0.36220472440944884,
          "duration": 0.39534883720931546
        },
        {
          "name": "C5",
          "midi": 72,
          "time": 18.813953488371823,
          "velocity": 0.5039370078740157,
          "duration": 0.32558139534884845
        },
        {
          "name": "A5",
          "midi": 81,
          "time": 18.813953488371823,
          "velocity": 0.29133858267716534,
          "duration": 0.08139534883721566
        },
        {
          "name": "C#4",
          "midi": 61,
          "time": 18.825581395348568,
          "velocity": 0.3779527559055118,
          "duration": 0.1279069767441925
        },
        {
          "name": "G6",
          "midi": 91,
          "time": 18.837209302325313,
          "velocity": 0.10236220472440945,
          "duration": 0.034883720930235285
        },
        {
          "name": "G#3",
          "midi": 56,
          "time": 18.860465116278803,
          "velocity": 0.4566929133858268,
          "duration": 0.30232558139535826
        },
        {
          "name": "F4",
          "midi": 65,
          "time": 18.941860465116015,
          "velocity": 0.6692913385826772,
          "duration": 0.2558139534883779
        },
        {
          "name": "F#5",
          "midi": 78,
          "time": 18.95348837209276,
          "velocity": 0.11811023622047244,
          "duration": 0.034883720930235285
        },
        {
          "name": "A6",
          "midi": 93,
          "time": 18.95348837209276,
          "velocity": 0.2125984251968504,
          "duration": 0.058139534883725474
        },
        {
          "name": "D#5",
          "midi": 75,
          "time": 18.965116279069505,
          "velocity": 0.12598425196850394,
          "duration": 0.06976744186046702
        },
        {
          "name": "G7",
          "midi": 103,
          "time": 18.965116279069505,
          "velocity": 0.14960629921259844,
          "duration": 0.04651162790698038
        },
        {
          "name": "C#4",
          "midi": 61,
          "time": 18.988372093022996,
          "velocity": 0.6692913385826772,
          "duration": 0.6279069767442174
        },
        {
          "name": "A5",
          "midi": 81,
          "time": 19.046511627906717,
          "velocity": 0.14173228346456693,
          "duration": 0.03488372093023173
        },
        {
          "name": "A6",
          "midi": 93,
          "time": 19.058139534883463,
          "velocity": 0.14173228346456693,
          "duration": 0.046511627906973274
        },
        {
          "name": "D#5",
          "midi": 75,
          "time": 19.08139534883695,
          "velocity": 0.10236220472440945,
          "duration": 0.03488372093023173
        },
        {
          "name": "C#7",
          "midi": 97,
          "time": 19.104651162790436,
          "velocity": 0.30708661417322836,
          "duration": 0.2906976744186238
        },
        {
          "name": "A6",
          "midi": 93,
          "time": 19.127906976743926,
          "velocity": 0.18110236220472442,
          "duration": 0.17441860465117287
        },
        {
          "name": "D#5",
          "midi": 75,
          "time": 19.151162790697416,
          "velocity": 0.3228346456692913,
          "duration": 0.1279069767441925
        },
        {
          "name": "C#6",
          "midi": 85,
          "time": 19.151162790697416,
          "velocity": 0.5196850393700787,
          "duration": 0.13953488372093759
        },
        {
          "name": "A#5",
          "midi": 82,
          "time": 19.16279069767416,
          "velocity": 0.14960629921259844,
          "duration": 0.1162790697674474
        },
        {
          "name": "F#6",
          "midi": 90,
          "time": 19.16279069767416,
          "velocity": 0.3858267716535433,
          "duration": 0.2790697674418787
        },
        {
          "name": "G#3",
          "midi": 56,
          "time": 19.174418604650906,
          "velocity": 0.4645669291338583,
          "duration": 0.08139534883721211
        },
        {
          "name": "A4",
          "midi": 69,
          "time": 19.174418604650906,
          "velocity": 0.4015748031496063,
          "duration": 0.023255813953486637
        },
        {
          "name": "D6",
          "midi": 86,
          "time": 19.174418604650906,
          "velocity": 0.14960629921259844,
          "duration": 0.03488372093023173
        },
        {
          "name": "A#6",
          "midi": 94,
          "time": 19.174418604650906,
          "velocity": 0.31496062992125984,
          "duration": 0.18604651162791797
        },
        {
          "name": "D7",
          "midi": 98,
          "time": 19.174418604650906,
          "velocity": 0.16535433070866143,
          "duration": 0.1279069767441925
        },
        {
          "name": "G#5",
          "midi": 80,
          "time": 19.197674418604393,
          "velocity": 0.4566929133858268,
          "duration": 0.3837209302325846
        },
        {
          "name": "E7",
          "midi": 100,
          "time": 19.197674418604393,
          "velocity": 0.15748031496062992,
          "duration": 0.058139534883725474
        },
        {
          "name": "F#5",
          "midi": 78,
          "time": 19.209302325581138,
          "velocity": 0.33858267716535434,
          "duration": 0.11627906976745095
        },
        {
          "name": "E6",
          "midi": 88,
          "time": 19.209302325581138,
          "velocity": 0.14960629921259844,
          "duration": 0.034883720930235285
        },
        {
          "name": "G6",
          "midi": 91,
          "time": 19.220930232557883,
          "velocity": 0.14960629921259844,
          "duration": 0.08139534883721566
        },
        {
          "name": "F#4",
          "midi": 66,
          "time": 19.23255813953463,
          "velocity": 0.5354330708661418,
          "duration": 0.04651162790698038
        },
        {
          "name": "D#7",
          "midi": 99,
          "time": 19.23255813953463,
          "velocity": 0.11023622047244094,
          "duration": 0.034883720930235285
        },
        {
          "name": "G#3",
          "midi": 56,
          "time": 19.267441860464864,
          "velocity": 0.3779527559055118,
          "duration": 0.02325581395349019
        },
        {
          "name": "C6",
          "midi": 84,
          "time": 19.267441860464864,
          "velocity": 0.3700787401574803,
          "duration": 0.09302325581396076
        },
        {
          "name": "E6",
          "midi": 88,
          "time": 19.267441860464864,
          "velocity": 0.2204724409448819,
          "duration": 0.034883720930235285
        },
        {
          "name": "G4",
          "midi": 67,
          "time": 19.27906976744161,
          "velocity": 0.5433070866141733,
          "duration": 0.011627906976745095
        },
        {
          "name": "E5",
          "midi": 76,
          "time": 19.27906976744161,
          "velocity": 0.23622047244094488,
          "duration": 0.02325581395349019
        },
        {
          "name": "D6",
          "midi": 86,
          "time": 19.27906976744161,
          "velocity": 0.2755905511811024,
          "duration": 0.034883720930235285
        },
        {
          "name": "G#2",
          "midi": 44,
          "time": 19.290697674418354,
          "velocity": 0.31496062992125984,
          "duration": 0.3255813953488591
        },
        {
          "name": "F#4",
          "midi": 66,
          "time": 19.290697674418354,
          "velocity": 0.5039370078740157,
          "duration": 0.034883720930235285
        },
        {
          "name": "G#4",
          "midi": 68,
          "time": 19.290697674418354,
          "velocity": 0.5196850393700787,
          "duration": 0.11627906976745095
        },
        {
          "name": "D5",
          "midi": 74,
          "time": 19.290697674418354,
          "velocity": 0.3228346456692913,
          "duration": 0.02325581395349019
        },
        {
          "name": "A#5",
          "midi": 82,
          "time": 19.290697674418354,
          "velocity": 0.2204724409448819,
          "duration": 0.034883720930235285
        },
        {
          "name": "F6",
          "midi": 89,
          "time": 19.290697674418354,
          "velocity": 0.28346456692913385,
          "duration": 0.20930232558140816
        },
        {
          "name": "D#7",
          "midi": 99,
          "time": 19.290697674418354,
          "velocity": 0.14960629921259844,
          "duration": 0.17441860465117642
        },
        {
          "name": "G#3",
          "midi": 56,
          "time": 19.3023255813951,
          "velocity": 0.41732283464566927,
          "duration": 0.25581395348838853
        },
        {
          "name": "C#6",
          "midi": 85,
          "time": 19.3023255813951,
          "velocity": 0.5196850393700787,
          "duration": 0.20930232558140816
        },
        {
          "name": "D#6",
          "midi": 87,
          "time": 19.3023255813951,
          "velocity": 0.29133858267716534,
          "duration": 0.16279069767443133
        },
        {
          "name": "B6",
          "midi": 95,
          "time": 19.3023255813951,
          "velocity": 0.15748031496062992,
          "duration": 0.06976744186047057
        },
        {
          "name": "D#5",
          "midi": 75,
          "time": 19.313953488371844,
          "velocity": 0.18110236220472442,
          "duration": 0.12790697674419604
        },
        {
          "name": "F4",
          "midi": 65,
          "time": 19.32558139534859,
          "velocity": 0.2755905511811024,
          "duration": 0.02325581395349019
        },
        {
          "name": "A5",
          "midi": 81,
          "time": 19.32558139534859,
          "velocity": 0.1968503937007874,
          "duration": 0.034883720930235285
        },
        {
          "name": "D7",
          "midi": 98,
          "time": 19.32558139534859,
          "velocity": 0.1968503937007874,
          "duration": 0.058139534883725474
        },
        {
          "name": "G6",
          "midi": 91,
          "time": 19.337209302325334,
          "velocity": 0.13385826771653545,
          "duration": 0.034883720930235285
        },
        {
          "name": "F4",
          "midi": 65,
          "time": 19.37209302325557,
          "velocity": 0.41732283464566927,
          "duration": 0.15116279069768268
        },
        {
          "name": "B5",
          "midi": 83,
          "time": 19.37209302325557,
          "velocity": 0.12598425196850394,
          "duration": 0.058139534883725474
        },
        {
          "name": "A6",
          "midi": 93,
          "time": 19.406976744185805,
          "velocity": 0.10236220472440945,
          "duration": 0.058139534883725474
        },
        {
          "name": "D7",
          "midi": 98,
          "time": 19.406976744185805,
          "velocity": 0.14173228346456693,
          "duration": 0.04651162790698038
        },
        {
          "name": "C6",
          "midi": 84,
          "time": 19.41860465116255,
          "velocity": 0.2992125984251969,
          "duration": 0.1162790697674474
        },
        {
          "name": "G#4",
          "midi": 68,
          "time": 19.430232558139295,
          "velocity": 0.41732283464566927,
          "duration": 0.0930232558139572
        },
        {
          "name": "D#5",
          "midi": 75,
          "time": 19.453488372092785,
          "velocity": 0.2440944881889764,
          "duration": 0.05813953488372192
        },
        {
          "name": "A#6",
          "midi": 94,
          "time": 19.46511627906953,
          "velocity": 0.13385826771653545,
          "duration": 0.03488372093023173
        },
        {
          "name": "D#5",
          "midi": 75,
          "time": 19.523255813953252,
          "velocity": 0.16535433070866143,
          "duration": 0.06976744186047057
        },
        {
          "name": "E4",
          "midi": 64,
          "time": 19.534883720929997,
          "velocity": 0.4094488188976378,
          "duration": 0.02325581395349019
        },
        {
          "name": "F#6",
          "midi": 90,
          "time": 19.546511627906742,
          "velocity": 0.09448818897637795,
          "duration": 0.034883720930235285
        },
        {
          "name": "F4",
          "midi": 65,
          "time": 19.558139534883487,
          "velocity": 0.47244094488188976,
          "duration": 0.06976744186047057
        },
        {
          "name": "G#3",
          "midi": 56,
          "time": 19.569767441860233,
          "velocity": 0.3464566929133858,
          "duration": 0.06976744186047057
        },
        {
          "name": "A#5",
          "midi": 82,
          "time": 19.593023255813723,
          "velocity": 0.3543307086614173,
          "duration": 0.08139534883721566
        },
        {
          "name": "D7",
          "midi": 98,
          "time": 19.593023255813723,
          "velocity": 0.1968503937007874,
          "duration": 0.04651162790698038
        },
        {
          "name": "F#5",
          "midi": 78,
          "time": 19.604651162790468,
          "velocity": 0.23622047244094488,
          "duration": 0.06976744186047057
        },
        {
          "name": "D#6",
          "midi": 87,
          "time": 19.604651162790468,
          "velocity": 0.31496062992125984,
          "duration": 0.2674418604651372
        },
        {
          "name": "E6",
          "midi": 88,
          "time": 19.604651162790468,
          "velocity": 0.14960629921259844,
          "duration": 0.04651162790698038
        },
        {
          "name": "A6",
          "midi": 93,
          "time": 19.604651162790468,
          "velocity": 0.1732283464566929,
          "duration": 0.30232558139537247
        },
        {
          "name": "E7",
          "midi": 100,
          "time": 19.604651162790468,
          "velocity": 0.14960629921259844,
          "duration": 0.12790697674419604
        },
        {
          "name": "G7",
          "midi": 103,
          "time": 19.604651162790468,
          "velocity": 0.13385826771653545,
          "duration": 0.10465116279070585
        },
        {
          "name": "C6",
          "midi": 84,
          "time": 19.616279069767213,
          "velocity": 0.07086614173228346,
          "duration": 0.04651162790698038
        },
        {
          "name": "G6",
          "midi": 91,
          "time": 19.616279069767213,
          "velocity": 0.18110236220472442,
          "duration": 0.3953488372093332
        },
        {
          "name": "B6",
          "midi": 95,
          "time": 19.616279069767213,
          "velocity": 0.1968503937007874,
          "duration": 0.06976744186047057
        },
        {
          "name": "D#4",
          "midi": 63,
          "time": 19.627906976743958,
          "velocity": 0.5984251968503937,
          "duration": 0.5232558139535257
        },
        {
          "name": "G#6",
          "midi": 92,
          "time": 19.627906976743958,
          "velocity": 0.11023622047244094,
          "duration": 0.04651162790698038
        },
        {
          "name": "F7",
          "midi": 101,
          "time": 19.627906976743958,
          "velocity": 0.1732283464566929,
          "duration": 0.10465116279070585
        },
        {
          "name": "C#5",
          "midi": 73,
          "time": 19.639534883720703,
          "velocity": 0.25196850393700787,
          "duration": 0.08139534883721566
        },
        {
          "name": "G5",
          "midi": 79,
          "time": 19.651162790697448,
          "velocity": 0.13385826771653545,
          "duration": 0.04651162790698038
        },
        {
          "name": "C7",
          "midi": 96,
          "time": 19.662790697674193,
          "velocity": 0.1889763779527559,
          "duration": 0.09302325581396076
        },
        {
          "name": "B5",
          "midi": 83,
          "time": 19.67441860465094,
          "velocity": 0.1889763779527559,
          "duration": 0.058139534883725474
        },
        {
          "name": "E6",
          "midi": 88,
          "time": 19.67441860465094,
          "velocity": 0.11811023622047244,
          "duration": 0.09302325581396076
        },
        {
          "name": "A5",
          "midi": 81,
          "time": 19.686046511627683,
          "velocity": 0.14173228346456693,
          "duration": 0.04651162790698038
        },
        {
          "name": "G#6",
          "midi": 92,
          "time": 19.686046511627683,
          "velocity": 0.12598425196850394,
          "duration": 0.10465116279070585
        },
        {
          "name": "G#4",
          "midi": 68,
          "time": 19.69767441860443,
          "velocity": 0.3228346456692913,
          "duration": 0.1976744186046666
        },
        {
          "name": "A#6",
          "midi": 94,
          "time": 19.69767441860443,
          "velocity": 0.09448818897637795,
          "duration": 0.034883720930235285
        },
        {
          "name": "D7",
          "midi": 98,
          "time": 19.69767441860443,
          "velocity": 0.14960629921259844,
          "duration": 0.034883720930235285
        },
        {
          "name": "F#7",
          "midi": 102,
          "time": 19.72093023255792,
          "velocity": 0.09448818897637795,
          "duration": 0.034883720930235285
        },
        {
          "name": "A#5",
          "midi": 82,
          "time": 19.732558139534664,
          "velocity": 0.33070866141732286,
          "duration": 0.17441860465117642
        },
        {
          "name": "C6",
          "midi": 84,
          "time": 19.732558139534664,
          "velocity": 0.1968503937007874,
          "duration": 0.09302325581396076
        },
        {
          "name": "D6",
          "midi": 86,
          "time": 19.732558139534664,
          "velocity": 0.14173228346456693,
          "duration": 0.034883720930235285
        },
        {
          "name": "F#6",
          "midi": 90,
          "time": 19.732558139534664,
          "velocity": 0.11023622047244094,
          "duration": 0.034883720930235285
        },
        {
          "name": "C#5",
          "midi": 73,
          "time": 19.74418604651141,
          "velocity": 0.2125984251968504,
          "duration": 0.10465116279070585
        },
        {
          "name": "F5",
          "midi": 77,
          "time": 19.74418604651141,
          "velocity": 0.14960629921259844,
          "duration": 0.10465116279070585
        },
        {
          "name": "C#7",
          "midi": 97,
          "time": 19.755813953488154,
          "velocity": 0.13385826771653545,
          "duration": 0.15116279069768623
        },
        {
          "name": "F6",
          "midi": 89,
          "time": 19.7674418604649,
          "velocity": 0.2047244094488189,
          "duration": 0.244186046511647
        },
        {
          "name": "E7",
          "midi": 100,
          "time": 19.7674418604649,
          "velocity": 0.14173228346456693,
          "duration": 0.11627906976745095
        },
        {
          "name": "B6",
          "midi": 95,
          "time": 19.779069767441644,
          "velocity": 0.15748031496062992,
          "duration": 0.06976744186047057
        },
        {
          "name": "G#2",
          "midi": 44,
          "time": 19.79069767441839,
          "velocity": 0.13385826771653545,
          "duration": 0.058139534883725474
        },
        {
          "name": "G5",
          "midi": 79,
          "time": 19.802325581395134,
          "velocity": 0.13385826771653545,
          "duration": 0.04651162790698038
        },
        {
          "name": "C#6",
          "midi": 85,
          "time": 19.802325581395134,
          "velocity": 0.29133858267716534,
          "duration": 0.18604651162792152
        },
        {
          "name": "D7",
          "midi": 98,
          "time": 19.802325581395134,
          "velocity": 0.16535433070866143,
          "duration": 0.058139534883725474
        },
        {
          "name": "F#7",
          "midi": 102,
          "time": 19.81395348837188,
          "velocity": 0.07874015748031496,
          "duration": 0.06976744186047057
        },
        {
          "name": "G3",
          "midi": 55,
          "time": 19.83720930232537,
          "velocity": 0.18110236220472442,
          "duration": 0.034883720930235285
        },
        {
          "name": "B6",
          "midi": 95,
          "time": 19.86046511627886,
          "velocity": 0.09448818897637795,
          "duration": 0.12790697674419604
        },
        {
          "name": "G#2",
          "midi": 44,
          "time": 19.88372093023235,
          "velocity": 0.1732283464566929,
          "duration": 0.034883720930235285
        },
        {
          "name": "C#5",
          "midi": 73,
          "time": 19.88372093023235,
          "velocity": 0.25196850393700787,
          "duration": 0.058139534883725474
        },
        {
          "name": "D#6",
          "midi": 87,
          "time": 19.895348837209095,
          "velocity": 0.14173228346456693,
          "duration": 0.034883720930235285
        },
        {
          "name": "G5",
          "midi": 79,
          "time": 19.90697674418584,
          "velocity": 0.1889763779527559,
          "duration": 0.058139534883725474
        },
        {
          "name": "B5",
          "midi": 83,
          "time": 19.90697674418584,
          "velocity": 0.1732283464566929,
          "duration": 0.058139534883725474
        },
        {
          "name": "G#4",
          "midi": 68,
          "time": 19.93023255813933,
          "velocity": 0.2440944881889764,
          "duration": 0.09302325581396076
        },
        {
          "name": "E6",
          "midi": 88,
          "time": 19.93023255813933,
          "velocity": 0.1732283464566929,
          "duration": 0.08139534883721566
        },
        {
          "name": "A6",
          "midi": 93,
          "time": 19.93023255813933,
          "velocity": 0.11023622047244094,
          "duration": 0.034883720930235285
        },
        {
          "name": "F#5",
          "midi": 78,
          "time": 19.95348837209282,
          "velocity": 0.18110236220472442,
          "duration": 0.034883720930235285
        },
        {
          "name": "D3",
          "midi": 50,
          "time": 19.965116279069566,
          "velocity": 0.1732283464566929,
          "duration": 0.034883720930235285
        },
        {
          "name": "A#5",
          "midi": 82,
          "time": 19.965116279069566,
          "velocity": 0.18110236220472442,
          "duration": 0.034883720930235285
        },
        {
          "name": "C6",
          "midi": 84,
          "time": 19.965116279069566,
          "velocity": 0.14960629921259844,
          "duration": 0.04651162790698038
        },
        {
          "name": "D6",
          "midi": 86,
          "time": 19.965116279069566,
          "velocity": 0.11023622047244094,
          "duration": 0.058139534883725474
        },
        {
          "name": "C5",
          "midi": 72,
          "time": 19.97674418604631,
          "velocity": 0.08661417322834646,
          "duration": 0.034883720930235285
        },
        {
          "name": "G5",
          "midi": 79,
          "time": 19.97674418604631,
          "velocity": 0.11811023622047244,
          "duration": 0.034883720930235285
        },
        {
          "name": "F5",
          "midi": 77,
          "time": 19.988372093023056,
          "velocity": 0.14960629921259844,
          "duration": 0.05813953488372192
        },
        {
          "name": "A#4",
          "midi": 70,
          "time": 20.011627906976546,
          "velocity": 0.25196850393700787,
          "duration": 0.05813953488372192
        },
        {
          "name": "B5",
          "midi": 83,
          "time": 20.011627906976546,
          "velocity": 0.14960629921259844,
          "duration": 0.1046511627907023
        },
        {
          "name": "C#6",
          "midi": 85,
          "time": 20.011627906976546,
          "velocity": 0.2047244094488189,
          "duration": 0.05813953488372192
        },
        {
          "name": "G#4",
          "midi": 68,
          "time": 20.058139534883523,
          "velocity": 0.2992125984251969,
          "duration": 0.17441860465117642
        },
        {
          "name": "G5",
          "midi": 79,
          "time": 20.069767441860268,
          "velocity": 0.12598425196850394,
          "duration": 0.058139534883725474
        },
        {
          "name": "E3",
          "midi": 52,
          "time": 20.081395348837013,
          "velocity": 0.15748031496062992,
          "duration": 0.034883720930235285
        },
        {
          "name": "F5",
          "midi": 77,
          "time": 20.09302325581376,
          "velocity": 0.1732283464566929,
          "duration": 0.04651162790698038
        },
        {
          "name": "C5",
          "midi": 72,
          "time": 20.104651162790503,
          "velocity": 0.2440944881889764,
          "duration": 0.034883720930235285
        },
        {
          "name": "A5",
          "midi": 81,
          "time": 20.104651162790503,
          "velocity": 0.15748031496062992,
          "duration": 0.034883720930235285
        },
        {
          "name": "C#6",
          "midi": 85,
          "time": 20.104651162790503,
          "velocity": 0.13385826771653545,
          "duration": 0.11627906976745095
        },
        {
          "name": "E5",
          "midi": 76,
          "time": 20.11627906976725,
          "velocity": 0.1732283464566929,
          "duration": 0.058139534883725474
        },
        {
          "name": "C#5",
          "midi": 73,
          "time": 20.127906976743994,
          "velocity": 0.16535433070866143,
          "duration": 0.034883720930235285
        },
        {
          "name": "F#5",
          "midi": 78,
          "time": 20.13953488372074,
          "velocity": 0.14173228346456693,
          "duration": 0.11627906976745095
        },
        {
          "name": "A#5",
          "midi": 82,
          "time": 20.13953488372074,
          "velocity": 0.13385826771653545,
          "duration": 0.10465116279070585
        },
        {
          "name": "F4",
          "midi": 65,
          "time": 20.16279069767423,
          "velocity": 0.2677165354330709,
          "duration": 0.02325581395349019
        },
        {
          "name": "D#5",
          "midi": 75,
          "time": 20.16279069767423,
          "velocity": 0.08661417322834646,
          "duration": 0.034883720930235285
        },
        {
          "name": "G3",
          "midi": 55,
          "time": 20.18604651162772,
          "velocity": 0.2283464566929134,
          "duration": 0.02325581395349019
        },
        {
          "name": "D#4",
          "midi": 63,
          "time": 20.197674418604464,
          "velocity": 0.36220472440944884,
          "duration": 0.04651162790698038
        },
        {
          "name": "C#5",
          "midi": 73,
          "time": 20.197674418604464,
          "velocity": 0.2440944881889764,
          "duration": 0.04651162790698038
        },
        {
          "name": "A#3",
          "midi": 58,
          "time": 20.2325581395347,
          "velocity": 0.31496062992125984,
          "duration": 0.02325581395349019
        },
        {
          "name": "E4",
          "midi": 64,
          "time": 20.244186046511444,
          "velocity": 0.31496062992125984,
          "duration": 0.02325581395349019
        },
        {
          "name": "A#4",
          "midi": 70,
          "time": 20.25581395348819,
          "velocity": 0.2125984251968504,
          "duration": 0.03488372093023173
        },
        {
          "name": "F5",
          "midi": 77,
          "time": 20.25581395348819,
          "velocity": 0.08661417322834646,
          "duration": 0.05813953488372192
        },
        {
          "name": "D#4",
          "midi": 63,
          "time": 20.267441860464935,
          "velocity": 0.25984251968503935,
          "duration": 0.05813953488372192
        },
        {
          "name": "G4",
          "midi": 67,
          "time": 20.267441860464935,
          "velocity": 0.2283464566929134,
          "duration": 0.03488372093023173
        },
        {
          "name": "C5",
          "midi": 72,
          "time": 20.29069767441842,
          "velocity": 0.1889763779527559,
          "duration": 0.06976744186046702
        },
        {
          "name": "G3",
          "midi": 55,
          "time": 20.302325581395166,
          "velocity": 0.2440944881889764,
          "duration": 0.02325581395349019
        },
        {
          "name": "D3",
          "midi": 50,
          "time": 20.31395348837191,
          "velocity": 0.25196850393700787,
          "duration": 0.02325581395349019
        },
        {
          "name": "E4",
          "midi": 64,
          "time": 20.325581395348657,
          "velocity": 0.28346456692913385,
          "duration": 0.03488372093023173
        },
        {
          "name": "F#3",
          "midi": 54,
          "time": 20.3372093023254,
          "velocity": 0.2204724409448819,
          "duration": 0.046511627906973274
        },
        {
          "name": "D#4",
          "midi": 63,
          "time": 20.36046511627889,
          "velocity": 0.28346456692913385,
          "duration": 0.05813953488372192
        },
        {
          "name": "G#4",
          "midi": 68,
          "time": 20.36046511627889,
          "velocity": 0.15748031496062992,
          "duration": 0.03488372093023173
        },
        {
          "name": "A4",
          "midi": 69,
          "time": 20.406976744185865,
          "velocity": 0.11023622047244094,
          "duration": 0.04651162790697683
        },
        {
          "name": "A3",
          "midi": 57,
          "time": 20.441860465116097,
          "velocity": 0.2125984251968504,
          "duration": 0.06976744186046702
        },
        {
          "name": "G#4",
          "midi": 68,
          "time": 20.453488372092842,
          "velocity": 0.16535433070866143,
          "duration": 0.11627906976744384
        },
        {
          "name": "A2",
          "midi": 45,
          "time": 20.488372093023074,
          "velocity": 0.31496062992125984,
          "duration": 0.02325581395349019
        },
        {
          "name": "G3",
          "midi": 55,
          "time": 20.49999999999982,
          "velocity": 0.2125984251968504,
          "duration": 0.04651162790697683
        },
        {
          "name": "D#5",
          "midi": 75,
          "time": 20.49999999999982,
          "velocity": 0.13385826771653545,
          "duration": 0.05813953488372192
        },
        {
          "name": "D#4",
          "midi": 63,
          "time": 20.511627906976564,
          "velocity": 0.2047244094488189,
          "duration": 0.04651162790697683
        },
        {
          "name": "G#2",
          "midi": 44,
          "time": 20.53488372093005,
          "velocity": 0.25984251968503935,
          "duration": 0.04651162790698038
        },
        {
          "name": "A2",
          "midi": 45,
          "time": 20.58139534883703,
          "velocity": 0.25984251968503935,
          "duration": 0.034883720930235285
        },
        {
          "name": "F#3",
          "midi": 54,
          "time": 20.593023255813776,
          "velocity": 0.25196850393700787,
          "duration": 0.02325581395349019
        },
        {
          "name": "D#4",
          "midi": 63,
          "time": 20.60465116279052,
          "velocity": 0.1968503937007874,
          "duration": 0.05813953488372192
        },
        {
          "name": "G#4",
          "midi": 68,
          "time": 20.616279069767266,
          "velocity": 0.11811023622047244,
          "duration": 0.03488372093023173
        },
        {
          "name": "C4",
          "midi": 60,
          "time": 20.639534883720753,
          "velocity": 0.23622047244094488,
          "duration": 0.02325581395349019
        },
        {
          "name": "G#3",
          "midi": 56,
          "time": 20.651162790697498,
          "velocity": 0.2440944881889764,
          "duration": 0.04651162790697683
        },
        {
          "name": "G4",
          "midi": 67,
          "time": 20.651162790697498,
          "velocity": 0.1889763779527559,
          "duration": 0.05813953488372192
        },
        {
          "name": "A#4",
          "midi": 70,
          "time": 20.662790697674243,
          "velocity": 0.08661417322834646,
          "duration": 0.03488372093023173
        },
        {
          "name": "C4",
          "midi": 60,
          "time": 20.70930232558122,
          "velocity": 0.2440944881889764,
          "duration": 0.02325581395349019
        },
        {
          "name": "G#4",
          "midi": 68,
          "time": 20.720930232557965,
          "velocity": 0.15748031496062992,
          "duration": 0.04651162790697683
        },
        {
          "name": "B4",
          "midi": 71,
          "time": 20.720930232557965,
          "velocity": 0.14173228346456693,
          "duration": 0.05813953488372192
        },
        {
          "name": "C#4",
          "midi": 61,
          "time": 20.73255813953471,
          "velocity": 0.1889763779527559,
          "duration": 0.03488372093023173
        },
        {
          "name": "F5",
          "midi": 77,
          "time": 20.744186046511455,
          "velocity": 0.08661417322834646,
          "duration": 0.03488372093023173
        },
        {
          "name": "D5",
          "midi": 74,
          "time": 20.767441860464942,
          "velocity": 0.11811023622047244,
          "duration": 0.034883720930235285
        },
        {
          "name": "D#4",
          "midi": 63,
          "time": 20.779069767441687,
          "velocity": 0.1968503937007874,
          "duration": 0.034883720930235285
        },
        {
          "name": "F5",
          "midi": 77,
          "time": 20.790697674418432,
          "velocity": 0.11811023622047244,
          "duration": 0.034883720930235285
        },
        {
          "name": "G5",
          "midi": 79,
          "time": 20.825581395348667,
          "velocity": 0.14960629921259844,
          "duration": 0.03488372093023173
        },
        {
          "name": "D6",
          "midi": 86,
          "time": 20.825581395348667,
          "velocity": 0.07086614173228346,
          "duration": 0.03488372093023173
        },
        {
          "name": "A#5",
          "midi": 82,
          "time": 20.837209302325412,
          "velocity": 0.07086614173228346,
          "duration": 0.046511627906973274
        },
        {
          "name": "G#5",
          "midi": 80,
          "time": 20.89534883720913,
          "velocity": 0.2755905511811024,
          "duration": 0.058139534883725474
        },
        {
          "name": "A#5",
          "midi": 82,
          "time": 20.89534883720913,
          "velocity": 0.1889763779527559,
          "duration": 0.15116279069768623
        },
        {
          "name": "D3",
          "midi": 50,
          "time": 20.906976744185876,
          "velocity": 0.6535433070866141,
          "duration": 0.02325581395349019
        },
        {
          "name": "G#4",
          "midi": 68,
          "time": 20.906976744185876,
          "velocity": 0.28346456692913385,
          "duration": 0.02325581395349019
        },
        {
          "name": "C#5",
          "midi": 73,
          "time": 20.906976744185876,
          "velocity": 0.29133858267716534,
          "duration": 0.034883720930235285
        },
        {
          "name": "D#5",
          "midi": 75,
          "time": 20.906976744185876,
          "velocity": 0.3543307086614173,
          "duration": 0.41860465116280565
        },
        {
          "name": "E6",
          "midi": 88,
          "time": 20.906976744185876,
          "velocity": 0.2440944881889764,
          "duration": 0.24418604651163633
        },
        {
          "name": "G6",
          "midi": 91,
          "time": 20.906976744185876,
          "velocity": 0.2992125984251969,
          "duration": 0.1976744186046595
        },
        {
          "name": "F#2",
          "midi": 42,
          "time": 20.91860465116262,
          "velocity": 0.6929133858267716,
          "duration": 0.011627906976745095
        },
        {
          "name": "A3",
          "midi": 57,
          "time": 20.91860465116262,
          "velocity": 0.5118110236220472,
          "duration": 0.02325581395349019
        },
        {
          "name": "C7",
          "midi": 96,
          "time": 20.91860465116262,
          "velocity": 0.2125984251968504,
          "duration": 0.08139534883721566
        },
        {
          "name": "D#7",
          "midi": 99,
          "time": 20.91860465116262,
          "velocity": 0.2204724409448819,
          "duration": 0.058139534883725474
        },
        {
          "name": "E2",
          "midi": 40,
          "time": 20.930232558139366,
          "velocity": 0.7322834645669292,
          "duration": 0.011627906976745095
        },
        {
          "name": "C#2",
          "midi": 37,
          "time": 20.94186046511611,
          "velocity": 0.7716535433070866,
          "duration": 0.011627906976745095
        },
        {
          "name": "D#4",
          "midi": 63,
          "time": 20.94186046511611,
          "velocity": 0.36220472440944884,
          "duration": 0.16279069767442422
        },
        {
          "name": "G#4",
          "midi": 68,
          "time": 20.94186046511611,
          "velocity": 0.5984251968503937,
          "duration": 0.5000000000000107
        },
        {
          "name": "C5",
          "midi": 72,
          "time": 20.94186046511611,
          "velocity": 0.28346456692913385,
          "duration": 0.2906976744186167
        },
        {
          "name": "G5",
          "midi": 79,
          "time": 20.94186046511611,
          "velocity": 0.2992125984251969,
          "duration": 0.23255813953489124
        },
        {
          "name": "C2",
          "midi": 36,
          "time": 20.953488372092856,
          "velocity": 0.7716535433070866,
          "duration": 0.011627906976745095
        },
        {
          "name": "F#6",
          "midi": 90,
          "time": 20.953488372092856,
          "velocity": 0.25984251968503935,
          "duration": 0.13953488372093403
        },
        {
          "name": "C#7",
          "midi": 97,
          "time": 20.953488372092856,
          "velocity": 0.1732283464566929,
          "duration": 0.19767441860465595
        },
        {
          "name": "F7",
          "midi": 101,
          "time": 20.953488372092856,
          "velocity": 0.16535433070866143,
          "duration": 0.15116279069767913
        },
        {
          "name": "A#1",
          "midi": 34,
          "time": 20.9651162790696,
          "velocity": 0.7559055118110236,
          "duration": 0.02325581395349019
        },
        {
          "name": "G#3",
          "midi": 56,
          "time": 20.9651162790696,
          "velocity": 0.44881889763779526,
          "duration": 0.13953488372093403
        },
        {
          "name": "D#6",
          "midi": 87,
          "time": 20.976744186046346,
          "velocity": 0.36220472440944884,
          "duration": 0.23255813953489124
        },
        {
          "name": "A6",
          "midi": 93,
          "time": 20.976744186046346,
          "velocity": 0.09448818897637795,
          "duration": 0.06976744186047057
        },
        {
          "name": "A1",
          "midi": 33,
          "time": 20.98837209302309,
          "velocity": 0.6929133858267716,
          "duration": 0.011627906976745095
        },
        {
          "name": "C#6",
          "midi": 85,
          "time": 20.98837209302309,
          "velocity": 0.11023622047244094,
          "duration": 0.034883720930235285
        },
        {
          "name": "G#1",
          "midi": 32,
          "time": 20.999999999999837,
          "velocity": 0.6771653543307087,
          "duration": 0.02325581395349019
        },
        {
          "name": "C6",
          "midi": 84,
          "time": 20.999999999999837,
          "velocity": 0.28346456692913385,
          "duration": 0.12790697674418894
        },
        {
          "name": "A#6",
          "midi": 94,
          "time": 20.999999999999837,
          "velocity": 0.25196850393700787,
          "duration": 0.12790697674418894
        },
        {
          "name": "D7",
          "midi": 98,
          "time": 21.01162790697658,
          "velocity": 0.2283464566929134,
          "duration": 0.09302325581395365
        },
        {
          "name": "G1",
          "midi": 31,
          "time": 21.023255813953327,
          "velocity": 0.7716535433070866,
          "duration": 0.13953488372093048
        },
        {
          "name": "D#3",
          "midi": 51,
          "time": 21.023255813953327,
          "velocity": 0.3700787401574803,
          "duration": 0.08139534883720856
        },
        {
          "name": "F#5",
          "midi": 78,
          "time": 21.023255813953327,
          "velocity": 0.2204724409448819,
          "duration": 0.10465116279069875
        },
        {
          "name": "C4",
          "midi": 60,
          "time": 21.034883720930072,
          "velocity": 0.5118110236220472,
          "duration": 0.7325581395349019
        },
        {
          "name": "D6",
          "midi": 86,
          "time": 21.046511627906817,
          "velocity": 0.16535433070866143,
          "duration": 0.05813953488371837
        },
        {
          "name": "A#5",
          "midi": 82,
          "time": 21.069767441860304,
          "velocity": 0.2283464566929134,
          "duration": 0.23255813953489124
        },
        {
          "name": "D#3",
          "midi": 51,
          "time": 21.11627906976728,
          "velocity": 0.3858267716535433,
          "duration": 0.33720930232558644
        },
        {
          "name": "G#3",
          "midi": 56,
          "time": 21.11627906976728,
          "velocity": 0.4015748031496063,
          "duration": 0.26744186046512297
        },
        {
          "name": "F5",
          "midi": 77,
          "time": 21.127906976744026,
          "velocity": 0.23622047244094488,
          "duration": 0.023255813953486637
        },
        {
          "name": "G#1",
          "midi": 32,
          "time": 21.162790697674257,
          "velocity": 0.7322834645669292,
          "duration": 0.02325581395349019
        },
        {
          "name": "F#5",
          "midi": 78,
          "time": 21.162790697674257,
          "velocity": 0.07874015748031496,
          "duration": 0.034883720930235285
        },
        {
          "name": "A1",
          "midi": 33,
          "time": 21.186046511627747,
          "velocity": 0.6850393700787402,
          "duration": 0.02325581395349019
        },
        {
          "name": "G#1",
          "midi": 32,
          "time": 21.209302325581238,
          "velocity": 0.6929133858267716,
          "duration": 0.3604651162790766
        },
        {
          "name": "D#7",
          "midi": 99,
          "time": 21.209302325581238,
          "velocity": 0.10236220472440945,
          "duration": 0.058139534883725474
        },
        {
          "name": "F6",
          "midi": 89,
          "time": 21.220930232557983,
          "velocity": 0.15748031496062992,
          "duration": 0.034883720930235285
        },
        {
          "name": "F#6",
          "midi": 90,
          "time": 21.220930232557983,
          "velocity": 0.1968503937007874,
          "duration": 0.034883720930235285
        },
        {
          "name": "G6",
          "midi": 91,
          "time": 21.220930232557983,
          "velocity": 0.1889763779527559,
          "duration": 0.034883720930235285
        },
        {
          "name": "D#4",
          "midi": 63,
          "time": 21.244186046511473,
          "velocity": 0.48031496062992124,
          "duration": 0.12790697674418539
        },
        {
          "name": "G5",
          "midi": 79,
          "time": 21.255813953488218,
          "velocity": 0.25196850393700787,
          "duration": 0.12790697674418539
        },
        {
          "name": "G#6",
          "midi": 92,
          "time": 21.383720930232403,
          "velocity": 0.14960629921259844,
          "duration": 0.09302325581395365
        },
        {
          "name": "G#3",
          "midi": 56,
          "time": 21.39534883720915,
          "velocity": 0.2755905511811024,
          "duration": 0.023255813953486637
        },
        {
          "name": "A#4",
          "midi": 70,
          "time": 21.44186046511612,
          "velocity": 0.1732283464566929,
          "duration": 0.04651162790698038
        },
        {
          "name": "G5",
          "midi": 79,
          "time": 21.453488372092867,
          "velocity": 0.1732283464566929,
          "duration": 0.04651162790698038
        },
        {
          "name": "D#3",
          "midi": 51,
          "time": 21.465116279069612,
          "velocity": 0.2125984251968504,
          "duration": 0.04651162790698038
        },
        {
          "name": "G#3",
          "midi": 56,
          "time": 21.476744186046357,
          "velocity": 0.10236220472440945,
          "duration": 0.034883720930235285
        },
        {
          "name": "A#4",
          "midi": 70,
          "time": 21.499999999999847,
          "velocity": 0.13385826771653545,
          "duration": 0.04651162790697683
        },
        {
          "name": "D5",
          "midi": 74,
          "time": 21.546511627906824,
          "velocity": 0.3464566929133858,
          "duration": 0.034883720930235285
        },
        {
          "name": "G5",
          "midi": 79,
          "time": 21.546511627906824,
          "velocity": 0.4330708661417323,
          "duration": 0.058139534883725474
        },
        {
          "name": "B5",
          "midi": 83,
          "time": 21.546511627906824,
          "velocity": 0.30708661417322836,
          "duration": 0.034883720930235285
        },
        {
          "name": "E6",
          "midi": 88,
          "time": 21.546511627906824,
          "velocity": 0.29133858267716534,
          "duration": 0.09302325581396076
        },
        {
          "name": "F6",
          "midi": 89,
          "time": 21.546511627906824,
          "velocity": 0.2440944881889764,
          "duration": 0.02325581395349019
        },
        {
          "name": "G#6",
          "midi": 92,
          "time": 21.546511627906824,
          "velocity": 0.44881889763779526,
          "duration": 0.06976744186047057
        },
        {
          "name": "C#7",
          "midi": 97,
          "time": 21.546511627906824,
          "velocity": 0.2125984251968504,
          "duration": 0.034883720930235285
        },
        {
          "name": "D#7",
          "midi": 99,
          "time": 21.546511627906824,
          "velocity": 0.3228346456692913,
          "duration": 0.15116279069768623
        },
        {
          "name": "G7",
          "midi": 103,
          "time": 21.546511627906824,
          "velocity": 0.14960629921259844,
          "duration": 0.034883720930235285
        },
        {
          "name": "G4",
          "midi": 67,
          "time": 21.55813953488357,
          "velocity": 0.2440944881889764,
          "duration": 0.02325581395349019
        },
        {
          "name": "A#4",
          "midi": 70,
          "time": 21.55813953488357,
          "velocity": 0.2755905511811024,
          "duration": 0.034883720930235285
        },
        {
          "name": "E5",
          "midi": 76,
          "time": 21.55813953488357,
          "velocity": 0.33070866141732286,
          "duration": 0.034883720930235285
        },
        {
          "name": "A#5",
          "midi": 82,
          "time": 21.55813953488357,
          "velocity": 0.28346456692913385,
          "duration": 0.04651162790698038
        },
        {
          "name": "C6",
          "midi": 84,
          "time": 21.55813953488357,
          "velocity": 0.25984251968503935,
          "duration": 0.02325581395349019
        },
        {
          "name": "F#6",
          "midi": 90,
          "time": 21.55813953488357,
          "velocity": 0.29133858267716534,
          "duration": 0.10465116279070585
        },
        {
          "name": "A#6",
          "midi": 94,
          "time": 21.55813953488357,
          "velocity": 0.30708661417322836,
          "duration": 0.09302325581396076
        },
        {
          "name": "D7",
          "midi": 98,
          "time": 21.55813953488357,
          "velocity": 0.2992125984251969,
          "duration": 0.04651162790698038
        },
        {
          "name": "F7",
          "midi": 101,
          "time": 21.55813953488357,
          "velocity": 0.2677165354330709,
          "duration": 0.09302325581396076
        },
        {
          "name": "A#1",
          "midi": 34,
          "time": 21.569767441860314,
          "velocity": 0.5590551181102362,
          "duration": 0.011627906976745095
        },
        {
          "name": "C#5",
          "midi": 73,
          "time": 21.569767441860314,
          "velocity": 0.3779527559055118,
          "duration": 0.058139534883725474
        },
        {
          "name": "G#5",
          "midi": 80,
          "time": 21.569767441860314,
          "velocity": 0.30708661417322836,
          "duration": 0.02325581395349019
        },
        {
          "name": "D#6",
          "midi": 87,
          "time": 21.569767441860314,
          "velocity": 0.28346456692913385,
          "duration": 0.06976744186047057
        },
        {
          "name": "A6",
          "midi": 93,
          "time": 21.569767441860314,
          "velocity": 0.31496062992125984,
          "duration": 0.06976744186047057
        },
        {
          "name": "D#5",
          "midi": 75,
          "time": 21.58139534883706,
          "velocity": 0.23622047244094488,
          "duration": 0.02325581395349019
        },
        {
          "name": "C#6",
          "midi": 85,
          "time": 21.58139534883706,
          "velocity": 0.3858267716535433,
          "duration": 0.02325581395349019
        },
        {
          "name": "F6",
          "midi": 89,
          "time": 21.58139534883706,
          "velocity": 0.2283464566929134,
          "duration": 0.04651162790698038
        },
        {
          "name": "C7",
          "midi": 96,
          "time": 21.58139534883706,
          "velocity": 0.31496062992125984,
          "duration": 0.08139534883721566
        },
        {
          "name": "E7",
          "midi": 100,
          "time": 21.58139534883706,
          "velocity": 0.31496062992125984,
          "duration": 0.09302325581396076
        },
        {
          "name": "D#3",
          "midi": 51,
          "time": 21.593023255813804,
          "velocity": 0.2047244094488189,
          "duration": 0.09302325581396076
        },
        {
          "name": "G4",
          "midi": 67,
          "time": 21.593023255813804,
          "velocity": 0.23622047244094488,
          "duration": 0.02325581395349019
        },
        {
          "name": "F5",
          "midi": 77,
          "time": 21.593023255813804,
          "velocity": 0.2125984251968504,
          "duration": 0.034883720930235285
        },
        {
          "name": "B5",
          "midi": 83,
          "time": 21.593023255813804,
          "velocity": 0.25196850393700787,
          "duration": 0.04651162790698038
        },
        {
          "name": "C6",
          "midi": 84,
          "time": 21.593023255813804,
          "velocity": 0.3700787401574803,
          "duration": 0.034883720930235285
        },
        {
          "name": "A#4",
          "midi": 70,
          "time": 21.60465116279055,
          "velocity": 0.15748031496062992,
          "duration": 0.034883720930235285
        },
        {
          "name": "G#5",
          "midi": 80,
          "time": 21.60465116279055,
          "velocity": 0.3228346456692913,
          "duration": 0.02325581395349019
        },
        {
          "name": "G5",
          "midi": 79,
          "time": 21.616279069767295,
          "velocity": 0.14173228346456693,
          "duration": 0.13953488372093403
        },
        {
          "name": "D7",
          "midi": 98,
          "time": 21.616279069767295,
          "velocity": 0.16535433070866143,
          "duration": 0.034883720930235285
        },
        {
          "name": "G#4",
          "midi": 68,
          "time": 21.639534883720785,
          "velocity": 0.10236220472440945,
          "duration": 0.15116279069767913
        },
        {
          "name": "G#6",
          "midi": 92,
          "time": 21.720930232557997,
          "velocity": 0.25196850393700787,
          "duration": 0.17441860465116577
        },
        {
          "name": "A#5",
          "midi": 82,
          "time": 21.767441860464974,
          "velocity": 0.29133858267716534,
          "duration": 0.04651162790698038
        },
        {
          "name": "D#7",
          "midi": 99,
          "time": 21.767441860464974,
          "velocity": 0.07874015748031496,
          "duration": 0.034883720930235285
        },
        {
          "name": "D#4",
          "midi": 63,
          "time": 21.77906976744172,
          "velocity": 0.3700787401574803,
          "duration": 0.10465116279069875
        },
        {
          "name": "A#5",
          "midi": 82,
          "time": 21.848837209302186,
          "velocity": 0.25984251968503935,
          "duration": 0.2209302325581426
        },
        {
          "name": "G#4",
          "midi": 68,
          "time": 21.883720930232418,
          "velocity": 0.5354330708661418,
          "duration": 0.13953488372093048
        },
        {
          "name": "G5",
          "midi": 79,
          "time": 21.883720930232418,
          "velocity": 0.23622047244094488,
          "duration": 0.05813953488372192
        },
        {
          "name": "D#6",
          "midi": 87,
          "time": 21.883720930232418,
          "velocity": 0.30708661417322836,
          "duration": 0.17441860465116577
        },
        {
          "name": "D#4",
          "midi": 63,
          "time": 21.906976744185908,
          "velocity": 0.47244094488188976,
          "duration": 0.12790697674418539
        },
        {
          "name": "C4",
          "midi": 60,
          "time": 21.918604651162653,
          "velocity": 0.4015748031496063,
          "duration": 0.06976744186046346
        },
        {
          "name": "G5",
          "midi": 79,
          "time": 21.988372093023116,
          "velocity": 0.08661417322834646,
          "duration": 0.03488372093023173
        },
        {
          "name": "G#4",
          "midi": 68,
          "time": 22.034883720930093,
          "velocity": 0.2992125984251969,
          "duration": 0.12790697674418894
        },
        {
          "name": "C4",
          "midi": 60,
          "time": 22.04651162790684,
          "velocity": 0.1889763779527559,
          "duration": 0.15116279069767558
        },
        {
          "name": "D#4",
          "midi": 63,
          "time": 22.081395348837074,
          "velocity": 0.13385826771653545,
          "duration": 0.08139534883720856
        },
        {
          "name": "G5",
          "midi": 79,
          "time": 22.09302325581382,
          "velocity": 0.15748031496062992,
          "duration": 0.03488372093023173
        },
        {
          "name": "D#6",
          "midi": 87,
          "time": 22.09302325581382,
          "velocity": 0.12598425196850394,
          "duration": 0.08139534883720856
        },
        {
          "name": "C5",
          "midi": 72,
          "time": 22.104651162790564,
          "velocity": 0.4409448818897638,
          "duration": 0.18604651162791086
        },
        {
          "name": "G6",
          "midi": 91,
          "time": 22.104651162790564,
          "velocity": 0.2125984251968504,
          "duration": 0.1046511627906952
        },
        {
          "name": "F3",
          "midi": 53,
          "time": 22.20930232558126,
          "velocity": 0.6456692913385826,
          "duration": 0.02325581395349019
        },
        {
          "name": "G#4",
          "midi": 68,
          "time": 22.20930232558126,
          "velocity": 0.33070866141732286,
          "duration": 0.058139534883725474
        },
        {
          "name": "F#2",
          "midi": 42,
          "time": 22.220930232558004,
          "velocity": 0.7007874015748031,
          "duration": 0.011627906976745095
        },
        {
          "name": "D#5",
          "midi": 75,
          "time": 22.220930232558004,
          "velocity": 0.11023622047244094,
          "duration": 0.04651162790698038
        },
        {
          "name": "A5",
          "midi": 81,
          "time": 22.220930232558004,
          "velocity": 0.12598425196850394,
          "duration": 0.034883720930235285
        },
        {
          "name": "C#6",
          "midi": 85,
          "time": 22.220930232558004,
          "velocity": 0.13385826771653545,
          "duration": 0.09302325581396076
        },
        {
          "name": "F6",
          "midi": 89,
          "time": 22.220930232558004,
          "velocity": 0.3543307086614173,
          "duration": 0.30232558139536536
        },
        {
          "name": "F2",
          "midi": 41,
          "time": 22.23255813953475,
          "velocity": 0.7952755905511811,
          "duration": 0.011627906976745095
        },
        {
          "name": "D#3",
          "midi": 51,
          "time": 22.23255813953475,
          "velocity": 0.49606299212598426,
          "duration": 0.02325581395349019
        },
        {
          "name": "A6",
          "midi": 93,
          "time": 22.23255813953475,
          "velocity": 0.14173228346456693,
          "duration": 0.11627906976745095
        },
        {
          "name": "D#2",
          "midi": 39,
          "time": 22.244186046511494,
          "velocity": 0.7952755905511811,
          "duration": 0.011627906976745095
        },
        {
          "name": "A#4",
          "midi": 70,
          "time": 22.244186046511494,
          "velocity": 0.13385826771653545,
          "duration": 0.034883720930235285
        },
        {
          "name": "G#6",
          "midi": 92,
          "time": 22.244186046511494,
          "velocity": 0.30708661417322836,
          "duration": 0.2093023255814117
        },
        {
          "name": "A#6",
          "midi": 94,
          "time": 22.244186046511494,
          "velocity": 0.15748031496062992,
          "duration": 0.08139534883721566
        },
        {
          "name": "C7",
          "midi": 96,
          "time": 22.244186046511494,
          "velocity": 0.2047244094488189,
          "duration": 0.11627906976745095
        },
        {
          "name": "D#7",
          "midi": 99,
          "time": 22.244186046511494,
          "velocity": 0.1732283464566929,
          "duration": 0.18604651162792152
        },
        {
          "name": "G7",
          "midi": 103,
          "time": 22.244186046511494,
          "velocity": 0.15748031496062992,
          "duration": 0.04651162790698038
        },
        {
          "name": "C#2",
          "midi": 37,
          "time": 22.25581395348824,
          "velocity": 0.8188976377952756,
          "duration": 0.011627906976745095
        },
        {
          "name": "F3",
          "midi": 53,
          "time": 22.25581395348824,
          "velocity": 0.3464566929133858,
          "duration": 0.034883720930235285
        },
        {
          "name": "B1",
          "midi": 35,
          "time": 22.267441860464984,
          "velocity": 0.8031496062992126,
          "duration": 0.011627906976745095
        },
        {
          "name": "A#3",
          "midi": 58,
          "time": 22.267441860464984,
          "velocity": 0.36220472440944884,
          "duration": 0.2674418604651301
        },
        {
          "name": "C#7",
          "midi": 97,
          "time": 22.267441860464984,
          "velocity": 0.1732283464566929,
          "duration": 0.08139534883721566
        },
        {
          "name": "A#1",
          "midi": 34,
          "time": 22.27906976744173,
          "velocity": 0.7952755905511811,
          "duration": 0.011627906976745095
        },
        {
          "name": "A1",
          "midi": 33,
          "time": 22.290697674418475,
          "velocity": 0.7795275590551181,
          "duration": 0.02325581395349019
        },
        {
          "name": "C#5",
          "midi": 73,
          "time": 22.290697674418475,
          "velocity": 0.4409448818897638,
          "duration": 0.2790697674418716
        },
        {
          "name": "B6",
          "midi": 95,
          "time": 22.290697674418475,
          "velocity": 0.2047244094488189,
          "duration": 0.09302325581396076
        },
        {
          "name": "C6",
          "midi": 84,
          "time": 22.30232558139522,
          "velocity": 0.2047244094488189,
          "duration": 0.2209302325581497
        },
        {
          "name": "G#1",
          "midi": 32,
          "time": 22.313953488371965,
          "velocity": 0.7007874015748031,
          "duration": 0.02325581395349019
        },
        {
          "name": "F3",
          "midi": 53,
          "time": 22.313953488371965,
          "velocity": 0.33858267716535434,
          "duration": 0.11627906976745095
        },
        {
          "name": "A#4",
          "midi": 70,
          "time": 22.313953488371965,
          "velocity": 0.5118110236220472,
          "duration": 0.4186046511628021
        },
        {
          "name": "D6",
          "midi": 86,
          "time": 22.313953488371965,
          "velocity": 0.2283464566929134,
          "duration": 0.2093023255814046
        },
        {
          "name": "G7",
          "midi": 103,
          "time": 22.313953488371965,
          "velocity": 0.07086614173228346,
          "duration": 0.034883720930235285
        },
        {
          "name": "F1",
          "midi": 29,
          "time": 22.337209302325455,
          "velocity": 0.5590551181102362,
          "duration": 0.011627906976745095
        },
        {
          "name": "E1",
          "midi": 28,
          "time": 22.3488372093022,
          "velocity": 0.6220472440944882,
          "duration": 0.011627906976745095
        },
        {
          "name": "G#4",
          "midi": 68,
          "time": 22.3488372093022,
          "velocity": 0.16535433070866143,
          "duration": 0.034883720930235285
        },
        {
          "name": "G1",
          "midi": 31,
          "time": 22.360465116278945,
          "velocity": 0.7007874015748031,
          "duration": 0.011627906976745095
        },
        {
          "name": "G#1",
          "midi": 32,
          "time": 22.37209302325569,
          "velocity": 0.7637795275590551,
          "duration": 0.034883720930235285
        },
        {
          "name": "C#4",
          "midi": 61,
          "time": 22.39534883720918,
          "velocity": 0.2992125984251969,
          "duration": 0.058139534883725474
        },
        {
          "name": "A1",
          "midi": 33,
          "time": 22.406976744185926,
          "velocity": 0.7401574803149606,
          "duration": 0.011627906976745095
        },
        {
          "name": "A#1",
          "midi": 34,
          "time": 22.41860465116267,
          "velocity": 0.6850393700787402,
          "duration": 0.011627906976745095
        },
        {
          "name": "E6",
          "midi": 88,
          "time": 22.41860465116267,
          "velocity": 0.1732283464566929,
          "duration": 0.034883720930235285
        },
        {
          "name": "B6",
          "midi": 95,
          "time": 22.41860465116267,
          "velocity": 0.15748031496062992,
          "duration": 0.034883720930235285
        },
        {
          "name": "B1",
          "midi": 35,
          "time": 22.430232558139416,
          "velocity": 0.6141732283464567,
          "duration": 0.011627906976745095
        },
        {
          "name": "C2",
          "midi": 36,
          "time": 22.44186046511616,
          "velocity": 0.6377952755905512,
          "duration": 0.011627906976745095
        },
        {
          "name": "A#1",
          "midi": 34,
          "time": 22.453488372092906,
          "velocity": 0.7007874015748031,
          "duration": 0.011627906976745095
        },
        {
          "name": "A1",
          "midi": 33,
          "time": 22.46511627906965,
          "velocity": 0.7559055118110236,
          "duration": 0.023255813953486637
        },
        {
          "name": "C#4",
          "midi": 61,
          "time": 22.46511627906965,
          "velocity": 0.4566929133858268,
          "duration": 0.1046511627906952
        },
        {
          "name": "A#1",
          "midi": 34,
          "time": 22.488372093023138,
          "velocity": 0.7401574803149606,
          "duration": 0.3837209302325668
        },
        {
          "name": "F3",
          "midi": 53,
          "time": 22.534883720930114,
          "velocity": 0.2204724409448819,
          "duration": 0.04651162790697683
        },
        {
          "name": "C6",
          "midi": 84,
          "time": 22.54651162790686,
          "velocity": 0.1732283464566929,
          "duration": 0.12790697674418539
        },
        {
          "name": "C#4",
          "midi": 61,
          "time": 22.58139534883709,
          "velocity": 0.44881889763779526,
          "duration": 0.03488372093023173
        },
        {
          "name": "F3",
          "midi": 53,
          "time": 22.593023255813836,
          "velocity": 0.33070866141732286,
          "duration": 0.16279069767442067
        },
        {
          "name": "C#4",
          "midi": 61,
          "time": 22.627906976744068,
          "velocity": 0.30708661417322836,
          "duration": 0.023255813953486637
        },
        {
          "name": "F6",
          "midi": 89,
          "time": 22.627906976744068,
          "velocity": 0.09448818897637795,
          "duration": 0.05813953488372192
        },
        {
          "name": "C#4",
          "midi": 61,
          "time": 22.6627906976743,
          "velocity": 0.3779527559055118,
          "duration": 0.0930232558139572
        },
        {
          "name": "A3",
          "midi": 57,
          "time": 22.744186046511512,
          "velocity": 0.4015748031496063,
          "duration": 0.02325581395349019
        },
        {
          "name": "G7",
          "midi": 103,
          "time": 22.744186046511512,
          "velocity": 0.1889763779527559,
          "duration": 0.034883720930235285
        },
        {
          "name": "A#4",
          "midi": 70,
          "time": 22.755813953488257,
          "velocity": 0.30708661417322836,
          "duration": 0.15116279069768268
        },
        {
          "name": "D6",
          "midi": 86,
          "time": 22.755813953488257,
          "velocity": 0.11023622047244094,
          "duration": 0.034883720930235285
        },
        {
          "name": "A#3",
          "midi": 58,
          "time": 22.767441860465002,
          "velocity": 0.4330708661417323,
          "duration": 0.02325581395349019
        },
        {
          "name": "F3",
          "midi": 53,
          "time": 22.790697674418492,
          "velocity": 0.2755905511811024,
          "duration": 0.06976744186046702
        },
        {
          "name": "A#3",
          "midi": 58,
          "time": 22.802325581395237,
          "velocity": 0.3858267716535433,
          "duration": 0.3953488372093119
        },
        {
          "name": "C6",
          "midi": 84,
          "time": 22.848837209302214,
          "velocity": 0.31496062992125984,
          "duration": 0.034883720930235285
        },
        {
          "name": "F6",
          "midi": 89,
          "time": 22.848837209302214,
          "velocity": 0.33070866141732286,
          "duration": 0.12790697674419604
        },
        {
          "name": "F#6",
          "midi": 90,
          "time": 22.848837209302214,
          "velocity": 0.31496062992125984,
          "duration": 0.04651162790698038
        },
        {
          "name": "G#6",
          "midi": 92,
          "time": 22.848837209302214,
          "velocity": 0.41732283464566927,
          "duration": 0.06976744186047057
        },
        {
          "name": "C#5",
          "midi": 73,
          "time": 22.86046511627896,
          "velocity": 0.30708661417322836,
          "duration": 0.02325581395349019
        },
        {
          "name": "G5",
          "midi": 79,
          "time": 22.86046511627896,
          "velocity": 0.36220472440944884,
          "duration": 0.04651162790698038
        },
        {
          "name": "B5",
          "midi": 83,
          "time": 22.86046511627896,
          "velocity": 0.33858267716535434,
          "duration": 0.09302325581396076
        },
        {
          "name": "D6",
          "midi": 86,
          "time": 22.86046511627896,
          "velocity": 0.33070866141732286,
          "duration": 0.034883720930235285
        },
        {
          "name": "E6",
          "midi": 88,
          "time": 22.86046511627896,
          "velocity": 0.33070866141732286,
          "duration": 0.09302325581396076
        },
        {
          "name": "A#6",
          "midi": 94,
          "time": 22.86046511627896,
          "velocity": 0.36220472440944884,
          "duration": 0.10465116279070585
        },
        {
          "name": "C7",
          "midi": 96,
          "time": 22.86046511627896,
          "velocity": 0.31496062992125984,
          "duration": 0.09302325581396076
        },
        {
          "name": "C#7",
          "midi": 97,
          "time": 22.86046511627896,
          "velocity": 0.25984251968503935,
          "duration": 0.08139534883721566
        },
        {
          "name": "D#7",
          "midi": 99,
          "time": 22.86046511627896,
          "velocity": 0.33858267716535434,
          "duration": 0.11627906976745095
        },
        {
          "name": "F7",
          "midi": 101,
          "time": 22.86046511627896,
          "velocity": 0.33858267716535434,
          "duration": 0.09302325581396076
        },
        {
          "name": "B1",
          "midi": 35,
          "time": 22.872093023255704,
          "velocity": 0.5984251968503937,
          "duration": 0.011627906976745095
        },
        {
          "name": "D#5",
          "midi": 75,
          "time": 22.872093023255704,
          "velocity": 0.2440944881889764,
          "duration": 0.034883720930235285
        },
        {
          "name": "D#6",
          "midi": 87,
          "time": 22.872093023255704,
          "velocity": 0.25196850393700787,
          "duration": 0.058139534883725474
        },
        {
          "name": "A6",
          "midi": 93,
          "time": 22.872093023255704,
          "velocity": 0.3779527559055118,
          "duration": 0.08139534883721566
        },
        {
          "name": "E7",
          "midi": 100,
          "time": 22.872093023255704,
          "velocity": 0.4015748031496063,
          "duration": 0.10465116279070585
        },
        {
          "name": "G7",
          "midi": 103,
          "time": 22.872093023255704,
          "velocity": 0.31496062992125984,
          "duration": 0.09302325581396076
        },
        {
          "name": "C#6",
          "midi": 85,
          "time": 22.88372093023245,
          "velocity": 0.3464566929133858,
          "duration": 0.058139534883725474
        },
        {
          "name": "G4",
          "midi": 67,
          "time": 22.895348837209195,
          "velocity": 0.2204724409448819,
          "duration": 0.04651162790698038
        },
        {
          "name": "C#5",
          "midi": 73,
          "time": 22.895348837209195,
          "velocity": 0.3464566929133858,
          "duration": 0.04651162790698038
        },
        {
          "name": "F5",
          "midi": 77,
          "time": 22.895348837209195,
          "velocity": 0.2677165354330709,
          "duration": 0.034883720930235285
        },
        {
          "name": "C6",
          "midi": 84,
          "time": 22.895348837209195,
          "velocity": 0.33858267716535434,
          "duration": 0.02325581395349019
        },
        {
          "name": "B4",
          "midi": 71,
          "time": 22.90697674418594,
          "velocity": 0.25196850393700787,
          "duration": 0.02325581395349019
        },
        {
          "name": "G#5",
          "midi": 80,
          "time": 22.90697674418594,
          "velocity": 0.33858267716535434,
          "duration": 0.034883720930235285
        },
        {
          "name": "D6",
          "midi": 86,
          "time": 22.918604651162685,
          "velocity": 0.16535433070866143,
          "duration": 0.034883720930235285
        },
        {
          "name": "F#6",
          "midi": 90,
          "time": 22.918604651162685,
          "velocity": 0.2283464566929134,
          "duration": 0.058139534883725474
        },
        {
          "name": "F4",
          "midi": 65,
          "time": 23.069767441860364,
          "velocity": 0.49606299212598426,
          "duration": 0.11627906976744029
        },
        {
          "name": "C6",
          "midi": 84,
          "time": 23.069767441860364,
          "velocity": 0.3228346456692913,
          "duration": 0.24418604651162568
        },
        {
          "name": "A#4",
          "midi": 70,
          "time": 23.186046511627804,
          "velocity": 0.5905511811023622,
          "duration": 0.2906976744186025
        },
        {
          "name": "G#5",
          "midi": 80,
          "time": 23.186046511627804,
          "velocity": 0.2440944881889764,
          "duration": 0.12790697674418539
        },
        {
          "name": "F6",
          "midi": 89,
          "time": 23.186046511627804,
          "velocity": 0.28346456692913385,
          "duration": 0.1860465116279073
        },
        {
          "name": "C#4",
          "midi": 61,
          "time": 23.19767441860455,
          "velocity": 0.36220472440944884,
          "duration": 0.023255813953486637
        },
        {
          "name": "F4",
          "midi": 65,
          "time": 23.19767441860455,
          "velocity": 0.4094488188976378,
          "duration": 0.33720930232557933
        },
        {
          "name": "C#4",
          "midi": 61,
          "time": 23.23255813953478,
          "velocity": 0.30708661417322836,
          "duration": 0.04651162790697683
        },
        {
          "name": "A#3",
          "midi": 58,
          "time": 23.279069767441758,
          "velocity": 0.14173228346456693,
          "duration": 0.04651162790697683
        },
        {
          "name": "C#4",
          "midi": 61,
          "time": 23.325581395348735,
          "velocity": 0.18110236220472442,
          "duration": 0.11627906976744029
        },
        {
          "name": "C#5",
          "midi": 73,
          "time": 23.406976744185943,
          "velocity": 0.4409448818897638,
          "duration": 0.2906976744186167
        },
        {
          "name": "G#6",
          "midi": 92,
          "time": 23.43023255813943,
          "velocity": 0.10236220472440945,
          "duration": 0.03488372093023173
        },
        {
          "name": "D#3",
          "midi": 51,
          "time": 23.51162790697664,
          "velocity": 0.5748031496062992,
          "duration": 0.011627906976745095
        },
        {
          "name": "A#4",
          "midi": 70,
          "time": 23.51162790697664,
          "velocity": 0.3543307086614173,
          "duration": 0.06976744186047057
        },
        {
          "name": "A5",
          "midi": 81,
          "time": 23.51162790697664,
          "velocity": 0.15748031496062992,
          "duration": 0.058139534883725474
        },
        {
          "name": "C3",
          "midi": 48,
          "time": 23.523255813953384,
          "velocity": 0.7244094488188977,
          "duration": 0.011627906976745095
        },
        {
          "name": "F#5",
          "midi": 78,
          "time": 23.523255813953384,
          "velocity": 0.18110236220472442,
          "duration": 0.034883720930235285
        },
        {
          "name": "F#2",
          "midi": 42,
          "time": 23.53488372093013,
          "velocity": 0.7795275590551181,
          "duration": 0.011627906976745095
        },
        {
          "name": "C#4",
          "midi": 61,
          "time": 23.53488372093013,
          "velocity": 0.4015748031496063,
          "duration": 0.034883720930235285
        },
        {
          "name": "D#6",
          "midi": 87,
          "time": 23.53488372093013,
          "velocity": 0.2125984251968504,
          "duration": 0.24418604651164344
        },
        {
          "name": "E2",
          "midi": 40,
          "time": 23.546511627906874,
          "velocity": 0.7795275590551181,
          "duration": 0.011627906976745095
        },
        {
          "name": "F5",
          "midi": 77,
          "time": 23.546511627906874,
          "velocity": 0.2677165354330709,
          "duration": 0.395348837209319
        },
        {
          "name": "G#5",
          "midi": 80,
          "time": 23.546511627906874,
          "velocity": 0.2440944881889764,
          "duration": 0.13953488372094114
        },
        {
          "name": "C#2",
          "midi": 37,
          "time": 23.55813953488362,
          "velocity": 0.8031496062992126,
          "duration": 0.011627906976745095
        },
        {
          "name": "G#4",
          "midi": 68,
          "time": 23.55813953488362,
          "velocity": 0.3464566929133858,
          "duration": 0.2906976744186238
        },
        {
          "name": "F6",
          "midi": 89,
          "time": 23.55813953488362,
          "velocity": 0.30708661417322836,
          "duration": 0.20930232558140816
        },
        {
          "name": "A#1",
          "midi": 34,
          "time": 23.569767441860364,
          "velocity": 0.7952755905511811,
          "duration": 0.011627906976745095
        },
        {
          "name": "F3",
          "midi": 53,
          "time": 23.569767441860364,
          "velocity": 0.4566929133858268,
          "duration": 0.08139534883721566
        },
        {
          "name": "A1",
          "midi": 33,
          "time": 23.58139534883711,
          "velocity": 0.7874015748031497,
          "duration": 0.011627906976745095
        },
        {
          "name": "C#4",
          "midi": 61,
          "time": 23.58139534883711,
          "velocity": 0.33858267716535434,
          "duration": 0.02325581395349019
        },
        {
          "name": "C7",
          "midi": 96,
          "time": 23.58139534883711,
          "velocity": 0.14960629921259844,
          "duration": 0.058139534883725474
        },
        {
          "name": "G#1",
          "midi": 32,
          "time": 23.593023255813854,
          "velocity": 0.7716535433070866,
          "duration": 0.02325581395349019
        },
        {
          "name": "D#5",
          "midi": 75,
          "time": 23.593023255813854,
          "velocity": 0.14173228346456693,
          "duration": 0.04651162790698038
        },
        {
          "name": "G6",
          "midi": 91,
          "time": 23.593023255813854,
          "velocity": 0.11023622047244094,
          "duration": 0.058139534883725474
        },
        {
          "name": "E7",
          "midi": 100,
          "time": 23.593023255813854,
          "velocity": 0.10236220472440945,
          "duration": 0.04651162790698038
        },
        {
          "name": "C6",
          "midi": 84,
          "time": 23.6046511627906,
          "velocity": 0.25196850393700787,
          "duration": 0.18604651162791797
        },
        {
          "name": "A6",
          "midi": 93,
          "time": 23.6046511627906,
          "velocity": 0.2125984251968504,
          "duration": 0.11627906976745095
        },
        {
          "name": "A1",
          "midi": 33,
          "time": 23.616279069767344,
          "velocity": 0.6771653543307087,
          "duration": 0.02325581395349019
        },
        {
          "name": "C#4",
          "midi": 61,
          "time": 23.616279069767344,
          "velocity": 0.3228346456692913,
          "duration": 0.02325581395349019
        },
        {
          "name": "F4",
          "midi": 65,
          "time": 23.616279069767344,
          "velocity": 0.5905511811023622,
          "duration": 0.4418604651162923
        },
        {
          "name": "G#6",
          "midi": 92,
          "time": 23.616279069767344,
          "velocity": 0.2440944881889764,
          "duration": 0.15116279069768268
        },
        {
          "name": "B6",
          "midi": 95,
          "time": 23.62790697674409,
          "velocity": 0.1732283464566929,
          "duration": 0.034883720930235285
        },
        {
          "name": "G#1",
          "midi": 32,
          "time": 23.639534883720835,
          "velocity": 0.6614173228346457,
          "duration": 0.02325581395349019
        },
        {
          "name": "C3",
          "midi": 48,
          "time": 23.65116279069758,
          "velocity": 0.36220472440944884,
          "duration": 0.08139534883721566
        },
        {
          "name": "C#4",
          "midi": 61,
          "time": 23.65116279069758,
          "velocity": 0.5748031496062992,
          "duration": 0.4302325581395472
        },
        {
          "name": "F#6",
          "midi": 90,
          "time": 23.65116279069758,
          "velocity": 0.15748031496062992,
          "duration": 0.13953488372093759
        },
        {
          "name": "G1",
          "midi": 31,
          "time": 23.662790697674325,
          "velocity": 0.7244094488188977,
          "duration": 0.02325581395349019
        },
        {
          "name": "G#3",
          "midi": 56,
          "time": 23.662790697674325,
          "velocity": 0.4251968503937008,
          "duration": 0.058139534883725474
        },
        {
          "name": "A5",
          "midi": 81,
          "time": 23.67441860465107,
          "velocity": 0.25984251968503935,
          "duration": 0.1279069767441925
        },
        {
          "name": "F#1",
          "midi": 30,
          "time": 23.686046511627815,
          "velocity": 0.7559055118110236,
          "duration": 0.06976744186046702
        },
        {
          "name": "C5",
          "midi": 72,
          "time": 23.709302325581305,
          "velocity": 0.33858267716535434,
          "duration": 0.1279069767441925
        },
        {
          "name": "G5",
          "midi": 79,
          "time": 23.72093023255805,
          "velocity": 0.2047244094488189,
          "duration": 0.04651162790697683
        },
        {
          "name": "B6",
          "midi": 95,
          "time": 23.732558139534795,
          "velocity": 0.07086614173228346,
          "duration": 0.03488372093023173
        },
        {
          "name": "F1",
          "midi": 29,
          "time": 23.755813953488282,
          "velocity": 0.7401574803149606,
          "duration": 0.058139534883725474
        },
        {
          "name": "D#5",
          "midi": 75,
          "time": 23.755813953488282,
          "velocity": 0.2047244094488189,
          "duration": 0.058139534883725474
        },
        {
          "name": "F3",
          "midi": 53,
          "time": 23.790697674418517,
          "velocity": 0.4330708661417323,
          "duration": 0.02325581395349019
        },
        {
          "name": "G#3",
          "midi": 56,
          "time": 23.790697674418517,
          "velocity": 0.4330708661417323,
          "duration": 0.02325581395349019
        },
        {
          "name": "E1",
          "midi": 28,
          "time": 23.813953488372007,
          "velocity": 0.6614173228346457,
          "duration": 0.011627906976745095
        },
        {
          "name": "F1",
          "midi": 29,
          "time": 23.825581395348753,
          "velocity": 0.6614173228346457,
          "duration": 0.348837209302328
        },
        {
          "name": "F3",
          "midi": 53,
          "time": 23.825581395348753,
          "velocity": 0.5039370078740157,
          "duration": 0.13953488372093048
        },
        {
          "name": "D#5",
          "midi": 75,
          "time": 23.837209302325498,
          "velocity": 0.23622047244094488,
          "duration": 0.22093023255813904
        },
        {
          "name": "C6",
          "midi": 84,
          "time": 23.848837209302243,
          "velocity": 0.25984251968503935,
          "duration": 0.1046511627906952
        },
        {
          "name": "G#3",
          "midi": 56,
          "time": 23.883720930232474,
          "velocity": 0.3937007874015748,
          "duration": 0.023255813953486637
        },
        {
          "name": "C3",
          "midi": 48,
          "time": 23.930232558139448,
          "velocity": 0.3543307086614173,
          "duration": 0.2325581395348877
        },
        {
          "name": "F3",
          "midi": 53,
          "time": 23.976744186046428,
          "velocity": 0.4015748031496063,
          "duration": 0.16279069767442067
        },
        {
          "name": "G#5",
          "midi": 80,
          "time": 24.04651162790689,
          "velocity": 0.25196850393700787,
          "duration": 0.12790697674418894
        },
        {
          "name": "F6",
          "midi": 89,
          "time": 24.06976744186038,
          "velocity": 0.11023622047244094,
          "duration": 0.034883720930235285
        },
        {
          "name": "C#4",
          "midi": 61,
          "time": 24.093023255813872,
          "velocity": 0.33070866141732286,
          "duration": 0.09302325581395365
        },
        {
          "name": "C#5",
          "midi": 73,
          "time": 24.162790697674335,
          "velocity": 0.3858267716535433,
          "duration": 0.08139534883721566
        },
        {
          "name": "E5",
          "midi": 76,
          "time": 24.162790697674335,
          "velocity": 0.30708661417322836,
          "duration": 0.04651162790698038
        },
        {
          "name": "A#5",
          "midi": 82,
          "time": 24.162790697674335,
          "velocity": 0.31496062992125984,
          "duration": 0.058139534883725474
        },
        {
          "name": "B5",
          "midi": 83,
          "time": 24.162790697674335,
          "velocity": 0.36220472440944884,
          "duration": 0.034883720930235285
        },
        {
          "name": "C6",
          "midi": 84,
          "time": 24.162790697674335,
          "velocity": 0.3543307086614173,
          "duration": 0.12790697674419604
        },
        {
          "name": "F#6",
          "midi": 90,
          "time": 24.162790697674335,
          "velocity": 0.28346456692913385,
          "duration": 0.08139534883721566
        },
        {
          "name": "G#6",
          "midi": 92,
          "time": 24.162790697674335,
          "velocity": 0.4251968503937008,
          "duration": 0.034883720930235285
        },
        {
          "name": "D7",
          "midi": 98,
          "time": 24.162790697674335,
          "velocity": 0.2992125984251969,
          "duration": 0.10465116279070585
        },
        {
          "name": "G7",
          "midi": 103,
          "time": 24.162790697674335,
          "velocity": 0.30708661417322836,
          "duration": 0.11627906976745095
        },
        {
          "name": "F#1",
          "midi": 30,
          "time": 24.17441860465108,
          "velocity": 0.5669291338582677,
          "duration": 0.011627906976745095
        },
        {
          "name": "A#4",
          "midi": 70,
          "time": 24.17441860465108,
          "velocity": 0.28346456692913385,
          "duration": 0.04651162790698038
        },
        {
          "name": "G5",
          "midi": 79,
          "time": 24.17441860465108,
          "velocity": 0.3543307086614173,
          "duration": 0.04651162790698038
        },
        {
          "name": "F6",
          "midi": 89,
          "time": 24.17441860465108,
          "velocity": 0.2283464566929134,
          "duration": 0.058139534883725474
        },
        {
          "name": "G6",
          "midi": 91,
          "time": 24.17441860465108,
          "velocity": 0.3700787401574803,
          "duration": 0.08139534883721566
        },
        {
          "name": "F7",
          "midi": 101,
          "time": 24.17441860465108,
          "velocity": 0.28346456692913385,
          "duration": 0.09302325581396076
        },
        {
          "name": "A#1",
          "midi": 34,
          "time": 24.186046511627826,
          "velocity": 0.5118110236220472,
          "duration": 0.011627906976745095
        },
        {
          "name": "F4",
          "midi": 65,
          "time": 24.186046511627826,
          "velocity": 0.5511811023622047,
          "duration": 0.23255813953489124
        },
        {
          "name": "D#5",
          "midi": 75,
          "time": 24.186046511627826,
          "velocity": 0.2677165354330709,
          "duration": 0.034883720930235285
        },
        {
          "name": "D#6",
          "midi": 87,
          "time": 24.186046511627826,
          "velocity": 0.2677165354330709,
          "duration": 0.06976744186047057
        },
        {
          "name": "A6",
          "midi": 93,
          "time": 24.186046511627826,
          "velocity": 0.3464566929133858,
          "duration": 0.06976744186047057
        },
        {
          "name": "C#4",
          "midi": 61,
          "time": 24.19767441860457,
          "velocity": 0.2047244094488189,
          "duration": 0.034883720930235285
        },
        {
          "name": "A5",
          "midi": 81,
          "time": 24.19767441860457,
          "velocity": 0.25984251968503935,
          "duration": 0.02325581395349019
        },
        {
          "name": "B6",
          "midi": 95,
          "time": 24.19767441860457,
          "velocity": 0.2047244094488189,
          "duration": 0.06976744186047057
        },
        {
          "name": "D#7",
          "midi": 99,
          "time": 24.19767441860457,
          "velocity": 0.3464566929133858,
          "duration": 0.08139534883721566
        },
        {
          "name": "E7",
          "midi": 100,
          "time": 24.19767441860457,
          "velocity": 0.2755905511811024,
          "duration": 0.08139534883721566
        },
        {
          "name": "B4",
          "midi": 71,
          "time": 24.209302325581316,
          "velocity": 0.25984251968503935,
          "duration": 0.02325581395349019
        },
        {
          "name": "G#5",
          "midi": 80,
          "time": 24.22093023255806,
          "velocity": 0.28346456692913385,
          "duration": 0.02325581395349019
        },
        {
          "name": "C#4",
          "midi": 61,
          "time": 24.302325581395277,
          "velocity": 0.15748031496062992,
          "duration": 0.19767441860464885
        },
        {
          "name": "G#4",
          "midi": 68,
          "time": 24.37209302325574,
          "velocity": 0.5275590551181102,
          "duration": 0.26744186046511587
        },
        {
          "name": "D#6",
          "midi": 87,
          "time": 24.383720930232485,
          "velocity": 0.2992125984251969,
          "duration": 0.1744186046511622
        },
        {
          "name": "C6",
          "midi": 84,
          "time": 24.48837209302318,
          "velocity": 0.2204724409448819,
          "duration": 0.11627906976744384
        },
        {
          "name": "C#5",
          "midi": 73,
          "time": 24.499999999999925,
          "velocity": 0.5984251968503937,
          "duration": 0.2093023255813975
        },
        {
          "name": "G#6",
          "midi": 92,
          "time": 24.499999999999925,
          "velocity": 0.23622047244094488,
          "duration": 0.12790697674418539
        },
        {
          "name": "C#4",
          "midi": 61,
          "time": 24.51162790697667,
          "velocity": 0.3464566929133858,
          "duration": 0.1860465116279073
        },
        {
          "name": "F4",
          "midi": 65,
          "time": 24.51162790697667,
          "velocity": 0.5196850393700787,
          "duration": 0.27906976744186096
        },
        {
          "name": "D#5",
          "midi": 75,
          "time": 24.523255813953416,
          "velocity": 0.1968503937007874,
          "duration": 0.03488372093023173
        },
        {
          "name": "G#3",
          "midi": 56,
          "time": 24.53488372093016,
          "velocity": 0.3858267716535433,
          "duration": 0.1744186046511622
        },
        {
          "name": "D#5",
          "midi": 75,
          "time": 24.569767441860392,
          "velocity": 0.10236220472440945,
          "duration": 0.08139534883720856
        },
        {
          "name": "G#5",
          "midi": 80,
          "time": 24.697674418604578,
          "velocity": 0.33070866141732286,
          "duration": 0.12790697674418894
        },
        {
          "name": "C#4",
          "midi": 61,
          "time": 24.720930232558068,
          "velocity": 0.28346456692913385,
          "duration": 0.04651162790697683
        },
        {
          "name": "C#5",
          "midi": 73,
          "time": 24.720930232558068,
          "velocity": 0.47244094488188976,
          "duration": 0.616279069767458
        },
        {
          "name": "C4",
          "midi": 60,
          "time": 24.767441860465045,
          "velocity": 0.1889763779527559,
          "duration": 0.03488372093023173
        },
        {
          "name": "C#4",
          "midi": 61,
          "time": 24.802325581395277,
          "velocity": 0.4251968503937008,
          "duration": 0.02325581395349019
        },
        {
          "name": "A#5",
          "midi": 82,
          "time": 24.81395348837202,
          "velocity": 0.2992125984251969,
          "duration": 0.09302325581396076
        },
        {
          "name": "C3",
          "midi": 48,
          "time": 24.825581395348767,
          "velocity": 0.7007874015748031,
          "duration": 0.011627906976745095
        },
        {
          "name": "F4",
          "midi": 65,
          "time": 24.825581395348767,
          "velocity": 0.41732283464566927,
          "duration": 0.02325581395349019
        },
        {
          "name": "B4",
          "midi": 71,
          "time": 24.825581395348767,
          "velocity": 0.2992125984251969,
          "duration": 0.02325581395349019
        },
        {
          "name": "D6",
          "midi": 86,
          "time": 24.825581395348767,
          "velocity": 0.11023622047244094,
          "duration": 0.04651162790698038
        },
        {
          "name": "A2",
          "midi": 45,
          "time": 24.837209302325512,
          "velocity": 0.7716535433070866,
          "duration": 0.011627906976745095
        },
        {
          "name": "C#4",
          "midi": 61,
          "time": 24.837209302325512,
          "velocity": 0.3937007874015748,
          "duration": 0.06976744186047057
        },
        {
          "name": "F2",
          "midi": 41,
          "time": 24.848837209302257,
          "velocity": 0.7952755905511811,
          "duration": 0.011627906976745095
        },
        {
          "name": "F#4",
          "midi": 66,
          "time": 24.848837209302257,
          "velocity": 0.3700787401574803,
          "duration": 0.3023255813953618
        },
        {
          "name": "F6",
          "midi": 89,
          "time": 24.848837209302257,
          "velocity": 0.2755905511811024,
          "duration": 0.2209302325581497
        },
        {
          "name": "F#6",
          "midi": 90,
          "time": 24.848837209302257,
          "velocity": 0.18110236220472442,
          "duration": 0.2093023255814046
        },
        {
          "name": "G#6",
          "midi": 92,
          "time": 24.848837209302257,
          "velocity": 0.2283464566929134,
          "duration": 0.2325581395348948
        },
        {
          "name": "C#2",
          "midi": 37,
          "time": 24.860465116279002,
          "velocity": 0.7952755905511811,
          "duration": 0.011627906976745095
        },
        {
          "name": "F#3",
          "midi": 54,
          "time": 24.860465116279002,
          "velocity": 0.48031496062992124,
          "duration": 0.058139534883725474
        },
        {
          "name": "B1",
          "midi": 35,
          "time": 24.872093023255747,
          "velocity": 0.7952755905511811,
          "duration": 0.011627906976745095
        },
        {
          "name": "A1",
          "midi": 33,
          "time": 24.883720930232492,
          "velocity": 0.7874015748031497,
          "duration": 0.011627906976745095
        },
        {
          "name": "B5",
          "midi": 83,
          "time": 24.883720930232492,
          "velocity": 0.14173228346456693,
          "duration": 0.058139534883725474
        },
        {
          "name": "E6",
          "midi": 88,
          "time": 24.883720930232492,
          "velocity": 0.2283464566929134,
          "duration": 0.1976744186046595
        },
        {
          "name": "G#1",
          "midi": 32,
          "time": 24.895348837209237,
          "velocity": 0.7874015748031497,
          "duration": 0.034883720930235285
        },
        {
          "name": "A#3",
          "midi": 58,
          "time": 24.895348837209237,
          "velocity": 0.5905511811023622,
          "duration": 0.47674418604652047
        },
        {
          "name": "G#5",
          "midi": 80,
          "time": 24.906976744185982,
          "velocity": 0.28346456692913385,
          "duration": 0.23255813953489124
        },
        {
          "name": "D7",
          "midi": 98,
          "time": 24.906976744185982,
          "velocity": 0.09448818897637795,
          "duration": 0.06976744186047057
        },
        {
          "name": "C#4",
          "midi": 61,
          "time": 24.918604651162727,
          "velocity": 0.3700787401574803,
          "duration": 0.034883720930235285
        },
        {
          "name": "G1",
          "midi": 31,
          "time": 24.930232558139473,
          "velocity": 0.7637795275590551,
          "duration": 0.058139534883725474
        },
        {
          "name": "F#3",
          "midi": 54,
          "time": 24.930232558139473,
          "velocity": 0.47244094488188976,
          "duration": 0.034883720930235285
        },
        {
          "name": "C6",
          "midi": 84,
          "time": 24.930232558139473,
          "velocity": 0.14173228346456693,
          "duration": 0.034883720930235285
        },
        {
          "name": "D6",
          "midi": 86,
          "time": 24.930232558139473,
          "velocity": 0.1732283464566929,
          "duration": 0.034883720930235285
        },
        {
          "name": "A6",
          "midi": 93,
          "time": 24.930232558139473,
          "velocity": 0.07874015748031496,
          "duration": 0.04651162790698038
        },
        {
          "name": "E5",
          "midi": 76,
          "time": 24.941860465116218,
          "velocity": 0.1732283464566929,
          "duration": 0.08139534883721211
        },
        {
          "name": "B6",
          "midi": 95,
          "time": 24.941860465116218,
          "velocity": 0.18110236220472442,
          "duration": 0.04651162790698038
        },
        {
          "name": "B5",
          "midi": 83,
          "time": 24.965116279069708,
          "velocity": 0.09448818897637795,
          "duration": 0.04651162790697683
        },
        {
          "name": "C#3",
          "midi": 49,
          "time": 24.976744186046453,
          "velocity": 0.30708661417322836,
          "duration": 0.04651162790697683
        },
        {
          "name": "F#1",
          "midi": 30,
          "time": 24.988372093023198,
          "velocity": 0.6299212598425197,
          "duration": 0.04651162790697683
        },
        {
          "name": "D6",
          "midi": 86,
          "time": 25.011627906976685,
          "velocity": 0.25196850393700787,
          "duration": 0.09302325581395365
        },
        {
          "name": "F#3",
          "midi": 54,
          "time": 25.02325581395343,
          "velocity": 0.44881889763779526,
          "duration": 0.03488372093023173
        },
        {
          "name": "F1",
          "midi": 29,
          "time": 25.034883720930175,
          "velocity": 0.6220472440944882,
          "duration": 0.08139534883720856
        },
        {
          "name": "F#1",
          "midi": 30,
          "time": 25.116279069767383,
          "velocity": 0.6771653543307087,
          "duration": 0.3720930232558217
        },
        {
          "name": "C#4",
          "midi": 61,
          "time": 25.12790697674413,
          "velocity": 0.4015748031496063,
          "duration": 0.034883720930235285
        },
        {
          "name": "G#5",
          "midi": 80,
          "time": 25.15116279069762,
          "velocity": 0.25196850393700787,
          "duration": 0.11627906976744384
        },
        {
          "name": "B5",
          "midi": 83,
          "time": 25.15116279069762,
          "velocity": 0.07874015748031496,
          "duration": 0.034883720930235285
        },
        {
          "name": "F#4",
          "midi": 66,
          "time": 25.162790697674364,
          "velocity": 0.5905511811023622,
          "duration": 0.32558139534884134
        },
        {
          "name": "C#3",
          "midi": 49,
          "time": 25.17441860465111,
          "velocity": 0.33070866141732286,
          "duration": 0.04651162790697683
        },
        {
          "name": "C#4",
          "midi": 61,
          "time": 25.267441860465063,
          "velocity": 0.33070866141732286,
          "duration": 0.11627906976744029
        },
        {
          "name": "F#3",
          "midi": 54,
          "time": 25.337209302325526,
          "velocity": 0.33858267716535434,
          "duration": 0.08139534883721211
        },
        {
          "name": "F6",
          "midi": 89,
          "time": 25.360465116279013,
          "velocity": 0.3464566929133858,
          "duration": 0.20930232558140816
        },
        {
          "name": "D7",
          "midi": 98,
          "time": 25.360465116279013,
          "velocity": 0.1889763779527559,
          "duration": 0.034883720930235285
        },
        {
          "name": "E7",
          "midi": 100,
          "time": 25.360465116279013,
          "velocity": 0.1968503937007874,
          "duration": 0.034883720930235285
        },
        {
          "name": "F#7",
          "midi": 102,
          "time": 25.360465116279013,
          "velocity": 0.2204724409448819,
          "duration": 0.04651162790698038
        },
        {
          "name": "G7",
          "midi": 103,
          "time": 25.360465116279013,
          "velocity": 0.14960629921259844,
          "duration": 0.04651162790698038
        },
        {
          "name": "C#3",
          "midi": 49,
          "time": 25.372093023255758,
          "velocity": 0.29133858267716534,
          "duration": 0.04651162790698038
        },
        {
          "name": "A#3",
          "midi": 58,
          "time": 25.406976744185993,
          "velocity": 0.25984251968503935,
          "duration": 0.1162790697674474
        },
        {
          "name": "A#4",
          "midi": 70,
          "time": 25.406976744185993,
          "velocity": 0.3543307086614173,
          "duration": 0.1162790697674474
        },
        {
          "name": "C#3",
          "midi": 49,
          "time": 25.430232558139483,
          "velocity": 0.25984251968503935,
          "duration": 0.05813953488372192
        },
        {
          "name": "C#5",
          "midi": 73,
          "time": 25.465116279069715,
          "velocity": 0.3779527559055118,
          "duration": 0.08139534883721566
        },
        {
          "name": "E5",
          "midi": 76,
          "time": 25.465116279069715,
          "velocity": 0.30708661417322836,
          "duration": 0.034883720930235285
        },
        {
          "name": "B5",
          "midi": 83,
          "time": 25.465116279069715,
          "velocity": 0.3228346456692913,
          "duration": 0.02325581395349019
        },
        {
          "name": "F#6",
          "midi": 90,
          "time": 25.465116279069715,
          "velocity": 0.29133858267716534,
          "duration": 0.06976744186047057
        },
        {
          "name": "C#7",
          "midi": 97,
          "time": 25.465116279069715,
          "velocity": 0.28346456692913385,
          "duration": 0.058139534883725474
        },
        {
          "name": "G7",
          "midi": 103,
          "time": 25.465116279069715,
          "velocity": 0.2283464566929134,
          "duration": 0.034883720930235285
        },
        {
          "name": "G5",
          "midi": 79,
          "time": 25.47674418604646,
          "velocity": 0.3700787401574803,
          "duration": 0.04651162790698038
        },
        {
          "name": "A5",
          "midi": 81,
          "time": 25.47674418604646,
          "velocity": 0.23622047244094488,
          "duration": 0.02325581395349019
        },
        {
          "name": "D6",
          "midi": 86,
          "time": 25.47674418604646,
          "velocity": 0.31496062992125984,
          "duration": 0.02325581395349019
        },
        {
          "name": "G#6",
          "midi": 92,
          "time": 25.47674418604646,
          "velocity": 0.4251968503937008,
          "duration": 0.08139534883721566
        },
        {
          "name": "A#6",
          "midi": 94,
          "time": 25.47674418604646,
          "velocity": 0.30708661417322836,
          "duration": 0.08139534883721566
        },
        {
          "name": "C7",
          "midi": 96,
          "time": 25.47674418604646,
          "velocity": 0.33858267716535434,
          "duration": 0.09302325581396076
        },
        {
          "name": "D7",
          "midi": 98,
          "time": 25.47674418604646,
          "velocity": 0.33070866141732286,
          "duration": 0.09302325581396076
        },
        {
          "name": "D#7",
          "midi": 99,
          "time": 25.47674418604646,
          "velocity": 0.33070866141732286,
          "duration": 0.10465116279070585
        },
        {
          "name": "E7",
          "midi": 100,
          "time": 25.47674418604646,
          "velocity": 0.3228346456692913,
          "duration": 0.11627906976745095
        },
        {
          "name": "G1",
          "midi": 31,
          "time": 25.488372093023205,
          "velocity": 0.5354330708661418,
          "duration": 0.02325581395349019
        },
        {
          "name": "G4",
          "midi": 67,
          "time": 25.488372093023205,
          "velocity": 0.2047244094488189,
          "duration": 0.058139534883725474
        },
        {
          "name": "D#5",
          "midi": 75,
          "time": 25.488372093023205,
          "velocity": 0.23622047244094488,
          "duration": 0.034883720930235285
        },
        {
          "name": "C6",
          "midi": 84,
          "time": 25.488372093023205,
          "velocity": 0.41732283464566927,
          "duration": 0.034883720930235285
        },
        {
          "name": "D#6",
          "midi": 87,
          "time": 25.488372093023205,
          "velocity": 0.31496062992125984,
          "duration": 0.02325581395349019
        },
        {
          "name": "A6",
          "midi": 93,
          "time": 25.488372093023205,
          "velocity": 0.3228346456692913,
          "duration": 0.08139534883721566
        },
        {
          "name": "C#6",
          "midi": 85,
          "time": 25.49999999999995,
          "velocity": 0.4330708661417323,
          "duration": 0.04651162790698038
        },
        {
          "name": "E5",
          "midi": 76,
          "time": 25.511627906976695,
          "velocity": 0.18110236220472442,
          "duration": 0.04651162790698038
        },
        {
          "name": "A5",
          "midi": 81,
          "time": 25.511627906976695,
          "velocity": 0.23622047244094488,
          "duration": 0.034883720930235285
        },
        {
          "name": "D6",
          "midi": 86,
          "time": 25.511627906976695,
          "velocity": 0.2992125984251969,
          "duration": 0.02325581395349019
        },
        {
          "name": "G#5",
          "midi": 80,
          "time": 25.52325581395344,
          "velocity": 0.31496062992125984,
          "duration": 0.02325581395349019
        },
        {
          "name": "B5",
          "midi": 83,
          "time": 25.52325581395344,
          "velocity": 0.14173228346456693,
          "duration": 0.06976744186047057
        },
        {
          "name": "D#6",
          "midi": 87,
          "time": 25.52325581395344,
          "velocity": 0.25196850393700787,
          "duration": 0.034883720930235285
        },
        {
          "name": "A#4",
          "midi": 70,
          "time": 25.534883720930186,
          "velocity": 0.2440944881889764,
          "duration": 0.058139534883725474
        },
        {
          "name": "F#4",
          "midi": 66,
          "time": 25.639534883720888,
          "velocity": 0.2125984251968504,
          "duration": 0.05813953488372192
        },
        {
          "name": "C#6",
          "midi": 85,
          "time": 25.686046511627865,
          "velocity": 0.3464566929133858,
          "duration": 0.2558139534883743
        },
        {
          "name": "F6",
          "midi": 89,
          "time": 25.686046511627865,
          "velocity": 0.12598425196850394,
          "duration": 0.034883720930235285
        },
        {
          "name": "G6",
          "midi": 91,
          "time": 25.686046511627865,
          "velocity": 0.15748031496062992,
          "duration": 0.034883720930235285
        },
        {
          "name": "A6",
          "midi": 93,
          "time": 25.686046511627865,
          "velocity": 0.11811023622047244,
          "duration": 0.034883720930235285
        },
        {
          "name": "F#4",
          "midi": 66,
          "time": 25.709302325581355,
          "velocity": 0.5118110236220472,
          "duration": 0.32558139534883423
        },
        {
          "name": "F5",
          "midi": 77,
          "time": 25.80232558139531,
          "velocity": 0.2204724409448819,
          "duration": 0.23255813953488058
        },
        {
          "name": "G#5",
          "midi": 80,
          "time": 25.80232558139531,
          "velocity": 0.33070866141732286,
          "duration": 0.16279069767441712
        },
        {
          "name": "C#4",
          "midi": 61,
          "time": 25.813953488372054,
          "velocity": 0.4645669291338583,
          "duration": 0.08139534883720856
        },
        {
          "name": "D5",
          "midi": 74,
          "time": 25.813953488372054,
          "velocity": 0.08661417322834646,
          "duration": 0.03488372093023173
        },
        {
          "name": "A#3",
          "midi": 58,
          "time": 25.883720930232517,
          "velocity": 0.3779527559055118,
          "duration": 0.13953488372092693
        },
        {
          "name": "C#4",
          "midi": 61,
          "time": 25.94186046511624,
          "velocity": 0.2047244094488189,
          "duration": 0.046511627906973274
        },
        {
          "name": "B4",
          "midi": 71,
          "time": 26.0116279069767,
          "velocity": 0.1732283464566929,
          "duration": 0.034883720930235285
        },
        {
          "name": "A#3",
          "midi": 58,
          "time": 26.03488372093019,
          "velocity": 0.3700787401574803,
          "duration": 0.09302325581395365
        },
        {
          "name": "F#4",
          "midi": 66,
          "time": 26.05813953488368,
          "velocity": 0.1732283464566929,
          "duration": 0.06976744186046346
        },
        {
          "name": "F5",
          "midi": 77,
          "time": 26.05813953488368,
          "velocity": 0.2992125984251969,
          "duration": 0.13953488372093403
        },
        {
          "name": "D#3",
          "midi": 51,
          "time": 26.127906976744143,
          "velocity": 0.6377952755905512,
          "duration": 0.011627906976745095
        },
        {
          "name": "A4",
          "midi": 69,
          "time": 26.127906976744143,
          "velocity": 0.2992125984251969,
          "duration": 0.034883720930235285
        },
        {
          "name": "B4",
          "midi": 71,
          "time": 26.127906976744143,
          "velocity": 0.2677165354330709,
          "duration": 0.02325581395349019
        },
        {
          "name": "D5",
          "midi": 74,
          "time": 26.127906976744143,
          "velocity": 0.25196850393700787,
          "duration": 0.02325581395349019
        },
        {
          "name": "G#5",
          "midi": 80,
          "time": 26.127906976744143,
          "velocity": 0.3779527559055118,
          "duration": 0.5000000000000178
        },
        {
          "name": "A2",
          "midi": 45,
          "time": 26.139534883720888,
          "velocity": 0.7559055118110236,
          "duration": 0.011627906976745095
        },
        {
          "name": "A#3",
          "midi": 58,
          "time": 26.139534883720888,
          "velocity": 0.49606299212598426,
          "duration": 0.02325581395349019
        },
        {
          "name": "F#2",
          "midi": 42,
          "time": 26.151162790697633,
          "velocity": 0.7952755905511811,
          "duration": 0.011627906976745095
        },
        {
          "name": "C#5",
          "midi": 73,
          "time": 26.151162790697633,
          "velocity": 0.2992125984251969,
          "duration": 0.16279069767443133
        },
        {
          "name": "D#5",
          "midi": 75,
          "time": 26.151162790697633,
          "velocity": 0.25984251968503935,
          "duration": 0.19767441860466306
        },
        {
          "name": "D2",
          "midi": 38,
          "time": 26.162790697674378,
          "velocity": 0.8031496062992126,
          "duration": 0.011627906976745095
        },
        {
          "name": "C#4",
          "midi": 61,
          "time": 26.162790697674378,
          "velocity": 0.33858267716535434,
          "duration": 0.034883720930235285
        },
        {
          "name": "G#4",
          "midi": 68,
          "time": 26.162790697674378,
          "velocity": 0.2047244094488189,
          "duration": 0.034883720930235285
        },
        {
          "name": "C6",
          "midi": 84,
          "time": 26.162790697674378,
          "velocity": 0.3700787401574803,
          "duration": 0.22093023255815325
        },
        {
          "name": "A6",
          "midi": 93,
          "time": 26.162790697674378,
          "velocity": 0.1889763779527559,
          "duration": 0.10465116279070585
        },
        {
          "name": "C2",
          "midi": 36,
          "time": 26.174418604651123,
          "velocity": 0.8110236220472441,
          "duration": 0.011627906976745095
        },
        {
          "name": "F3",
          "midi": 53,
          "time": 26.174418604651123,
          "velocity": 0.4409448818897638,
          "duration": 0.04651162790698038
        },
        {
          "name": "F4",
          "midi": 65,
          "time": 26.174418604651123,
          "velocity": 0.4881889763779528,
          "duration": 0.48837209302327267
        },
        {
          "name": "F#6",
          "midi": 90,
          "time": 26.174418604651123,
          "velocity": 0.1889763779527559,
          "duration": 0.17441860465117287
        },
        {
          "name": "D7",
          "midi": 98,
          "time": 26.174418604651123,
          "velocity": 0.14173228346456693,
          "duration": 0.04651162790698038
        },
        {
          "name": "G7",
          "midi": 103,
          "time": 26.174418604651123,
          "velocity": 0.10236220472440945,
          "duration": 0.06976744186047057
        },
        {
          "name": "A#1",
          "midi": 34,
          "time": 26.18604651162787,
          "velocity": 0.7952755905511811,
          "duration": 0.011627906976745095
        },
        {
          "name": "A1",
          "midi": 33,
          "time": 26.197674418604613,
          "velocity": 0.7874015748031497,
          "duration": 0.011627906976745095
        },
        {
          "name": "G#1",
          "midi": 32,
          "time": 26.20930232558136,
          "velocity": 0.7716535433070866,
          "duration": 0.02325581395349019
        },
        {
          "name": "C#4",
          "midi": 61,
          "time": 26.20930232558136,
          "velocity": 0.41732283464566927,
          "duration": 0.04651162790698038
        },
        {
          "name": "E7",
          "midi": 100,
          "time": 26.20930232558136,
          "velocity": 0.07874015748031496,
          "duration": 0.034883720930235285
        },
        {
          "name": "G#4",
          "midi": 68,
          "time": 26.220930232558104,
          "velocity": 0.41732283464566927,
          "duration": 0.4302325581395472
        },
        {
          "name": "B6",
          "midi": 95,
          "time": 26.220930232558104,
          "velocity": 0.14960629921259844,
          "duration": 0.034883720930235285
        },
        {
          "name": "A1",
          "midi": 33,
          "time": 26.23255813953485,
          "velocity": 0.6692913385826772,
          "duration": 0.034883720930235285
        },
        {
          "name": "A3",
          "midi": 57,
          "time": 26.23255813953485,
          "velocity": 0.29133858267716534,
          "duration": 0.02325581395349019
        },
        {
          "name": "D#7",
          "midi": 99,
          "time": 26.23255813953485,
          "velocity": 0.13385826771653545,
          "duration": 0.08139534883721566
        },
        {
          "name": "G#1",
          "midi": 32,
          "time": 26.267441860465084,
          "velocity": 0.6771653543307087,
          "duration": 0.011627906976745095
        },
        {
          "name": "C#4",
          "midi": 61,
          "time": 26.267441860465084,
          "velocity": 0.4566929133858268,
          "duration": 0.08139534883721211
        },
        {
          "name": "G1",
          "midi": 31,
          "time": 26.27906976744183,
          "velocity": 0.7322834645669292,
          "duration": 0.02325581395349019
        },
        {
          "name": "C3",
          "midi": 48,
          "time": 26.27906976744183,
          "velocity": 0.36220472440944884,
          "duration": 0.05813953488372192
        },
        {
          "name": "G6",
          "midi": 91,
          "time": 26.27906976744183,
          "velocity": 0.14960629921259844,
          "duration": 0.1046511627907023
        },
        {
          "name": "A#6",
          "midi": 94,
          "time": 26.290697674418574,
          "velocity": 0.2125984251968504,
          "duration": 0.08139534883721211
        },
        {
          "name": "F#1",
          "midi": 30,
          "time": 26.30232558139532,
          "velocity": 0.7637795275590551,
          "duration": 0.05813953488372192
        },
        {
          "name": "C5",
          "midi": 72,
          "time": 26.313953488372064,
          "velocity": 0.14173228346456693,
          "duration": 0.03488372093023173
        },
        {
          "name": "G3",
          "midi": 55,
          "time": 26.348837209302296,
          "velocity": 0.4566929133858268,
          "duration": 0.02325581395349019
        },
        {
          "name": "F1",
          "midi": 29,
          "time": 26.36046511627904,
          "velocity": 0.7480314960629921,
          "duration": 0.05813953488372192
        },
        {
          "name": "C#4",
          "midi": 61,
          "time": 26.36046511627904,
          "velocity": 0.3858267716535433,
          "duration": 0.02325581395349019
        },
        {
          "name": "C3",
          "midi": 48,
          "time": 26.372093023255786,
          "velocity": 0.3937007874015748,
          "duration": 0.40697674418605345
        },
        {
          "name": "D#5",
          "midi": 75,
          "time": 26.372093023255786,
          "velocity": 0.2204724409448819,
          "duration": 0.05813953488372192
        },
        {
          "name": "G#3",
          "midi": 56,
          "time": 26.395348837209276,
          "velocity": 0.4015748031496063,
          "duration": 0.023255813953486637
        },
        {
          "name": "C#4",
          "midi": 61,
          "time": 26.395348837209276,
          "velocity": 0.36220472440944884,
          "duration": 0.05813953488372192
        },
        {
          "name": "E1",
          "midi": 28,
          "time": 26.418604651162763,
          "velocity": 0.6692913385826772,
          "duration": 0.02325581395349019
        },
        {
          "name": "G3",
          "midi": 55,
          "time": 26.418604651162763,
          "velocity": 0.4094488188976378,
          "duration": 0.02325581395349019
        },
        {
          "name": "D#6",
          "midi": 87,
          "time": 26.430232558139508,
          "velocity": 0.14173228346456693,
          "duration": 0.04651162790698038
        },
        {
          "name": "F1",
          "midi": 29,
          "time": 26.441860465116253,
          "velocity": 0.6614173228346457,
          "duration": 0.34883720930233153
        },
        {
          "name": "G#3",
          "midi": 56,
          "time": 26.441860465116253,
          "velocity": 0.4645669291338583,
          "duration": 0.04651162790698038
        },
        {
          "name": "C6",
          "midi": 84,
          "time": 26.465116279069743,
          "velocity": 0.25984251968503935,
          "duration": 0.08139534883720856
        },
        {
          "name": "G3",
          "midi": 55,
          "time": 26.488372093023234,
          "velocity": 0.3937007874015748,
          "duration": 0.023255813953486637
        },
        {
          "name": "C#4",
          "midi": 61,
          "time": 26.488372093023234,
          "velocity": 0.3937007874015748,
          "duration": 0.046511627906973274
        },
        {
          "name": "G#3",
          "midi": 56,
          "time": 26.534883720930207,
          "velocity": 0.3858267716535433,
          "duration": 0.02325581395349019
        },
        {
          "name": "D#5",
          "midi": 75,
          "time": 26.534883720930207,
          "velocity": 0.07874015748031496,
          "duration": 0.034883720930235285
        },
        {
          "name": "C#4",
          "midi": 61,
          "time": 26.546511627906952,
          "velocity": 0.2440944881889764,
          "duration": 0.06976744186046346
        },
        {
          "name": "G#3",
          "midi": 56,
          "time": 26.569767441860442,
          "velocity": 0.36220472440944884,
          "duration": 0.06976744186046346
        },
        {
          "name": "F3",
          "midi": 53,
          "time": 26.59302325581393,
          "velocity": 0.3228346456692913,
          "duration": 0.023255813953486637
        },
        {
          "name": "C#4",
          "midi": 61,
          "time": 26.62790697674416,
          "velocity": 0.23622047244094488,
          "duration": 0.06976744186047057
        },
        {
          "name": "F4",
          "midi": 65,
          "time": 26.67441860465114,
          "velocity": 0.1889763779527559,
          "duration": 0.09302325581395365
        },
        {
          "name": "G#4",
          "midi": 68,
          "time": 26.67441860465114,
          "velocity": 0.5275590551181102,
          "duration": 0.2325581395348948
        },
        {
          "name": "D#6",
          "midi": 87,
          "time": 26.67441860465114,
          "velocity": 0.23622047244094488,
          "duration": 0.10465116279069875
        },
        {
          "name": "G#3",
          "midi": 56,
          "time": 26.686046511627886,
          "velocity": 0.3543307086614173,
          "duration": 0.04651162790697683
        },
        {
          "name": "C#4",
          "midi": 61,
          "time": 26.720930232558118,
          "velocity": 0.1732283464566929,
          "duration": 0.04651162790697683
        },
        {
          "name": "G3",
          "midi": 55,
          "time": 26.732558139534863,
          "velocity": 0.2677165354330709,
          "duration": 0.023255813953486637
        },
        {
          "name": "G3",
          "midi": 55,
          "time": 26.767441860465095,
          "velocity": 0.25984251968503935,
          "duration": 0.02325581395349019
        },
        {
          "name": "C#5",
          "midi": 73,
          "time": 26.767441860465095,
          "velocity": 0.36220472440944884,
          "duration": 0.09302325581396076
        },
        {
          "name": "B5",
          "midi": 83,
          "time": 26.767441860465095,
          "velocity": 0.2992125984251969,
          "duration": 0.034883720930235285
        },
        {
          "name": "C6",
          "midi": 84,
          "time": 26.767441860465095,
          "velocity": 0.3779527559055118,
          "duration": 0.08139534883721566
        },
        {
          "name": "F#6",
          "midi": 90,
          "time": 26.767441860465095,
          "velocity": 0.29133858267716534,
          "duration": 0.09302325581396076
        },
        {
          "name": "G#6",
          "midi": 92,
          "time": 26.767441860465095,
          "velocity": 0.41732283464566927,
          "duration": 0.06976744186047057
        },
        {
          "name": "C#4",
          "midi": 61,
          "time": 26.77906976744184,
          "velocity": 0.1889763779527559,
          "duration": 0.2325581395348948
        },
        {
          "name": "G5",
          "midi": 79,
          "time": 26.77906976744184,
          "velocity": 0.3700787401574803,
          "duration": 0.058139534883725474
        },
        {
          "name": "A#5",
          "midi": 82,
          "time": 26.77906976744184,
          "velocity": 0.2992125984251969,
          "duration": 0.058139534883725474
        },
        {
          "name": "C#6",
          "midi": 85,
          "time": 26.77906976744184,
          "velocity": 0.36220472440944884,
          "duration": 0.058139534883725474
        },
        {
          "name": "E6",
          "midi": 88,
          "time": 26.77906976744184,
          "velocity": 0.25984251968503935,
          "duration": 0.09302325581396076
        },
        {
          "name": "F6",
          "midi": 89,
          "time": 26.77906976744184,
          "velocity": 0.25196850393700787,
          "duration": 0.06976744186047057
        },
        {
          "name": "F7",
          "midi": 101,
          "time": 26.77906976744184,
          "velocity": 0.30708661417322836,
          "duration": 0.10465116279070585
        },
        {
          "name": "G7",
          "midi": 103,
          "time": 26.77906976744184,
          "velocity": 0.2755905511811024,
          "duration": 0.10465116279070585
        },
        {
          "name": "F#1",
          "midi": 30,
          "time": 26.790697674418585,
          "velocity": 0.5511811023622047,
          "duration": 0.011627906976745095
        },
        {
          "name": "E5",
          "midi": 76,
          "time": 26.790697674418585,
          "velocity": 0.25984251968503935,
          "duration": 0.034883720930235285
        },
        {
          "name": "D#6",
          "midi": 87,
          "time": 26.790697674418585,
          "velocity": 0.2677165354330709,
          "duration": 0.08139534883721566
        },
        {
          "name": "D7",
          "midi": 98,
          "time": 26.790697674418585,
          "velocity": 0.28346456692913385,
          "duration": 0.034883720930235285
        },
        {
          "name": "D#7",
          "midi": 99,
          "time": 26.790697674418585,
          "velocity": 0.33070866141732286,
          "duration": 0.10465116279070585
        },
        {
          "name": "G1",
          "midi": 31,
          "time": 26.80232558139533,
          "velocity": 0.4645669291338583,
          "duration": 0.02325581395349019
        },
        {
          "name": "A6",
          "midi": 93,
          "time": 26.80232558139533,
          "velocity": 0.30708661417322836,
          "duration": 0.06976744186047057
        },
        {
          "name": "D#5",
          "midi": 75,
          "time": 26.813953488372075,
          "velocity": 0.2755905511811024,
          "duration": 0.034883720930235285
        },
        {
          "name": "E7",
          "midi": 100,
          "time": 26.813953488372075,
          "velocity": 0.30708661417322836,
          "duration": 0.08139534883721566
        },
        {
          "name": "B5",
          "midi": 83,
          "time": 26.82558139534882,
          "velocity": 0.1889763779527559,
          "duration": 0.034883720930235285
        },
        {
          "name": "D7",
          "midi": 98,
          "time": 26.837209302325565,
          "velocity": 0.16535433070866143,
          "duration": 0.034883720930235285
        },
        {
          "name": "C6",
          "midi": 84,
          "time": 26.988372093023244,
          "velocity": 0.28346456692913385,
          "duration": 0.16279069767442067
        },
        {
          "name": "F4",
          "midi": 65,
          "time": 26.99999999999999,
          "velocity": 0.48031496062992124,
          "duration": 0.4069767441860428
        },
        {
          "name": "G#5",
          "midi": 80,
          "time": 27.104651162790688,
          "velocity": 0.4094488188976378,
          "duration": 0.22093023255813904
        },
        {
          "name": "G#3",
          "midi": 56,
          "time": 27.116279069767433,
          "velocity": 0.3228346456692913,
          "duration": 0.023255813953486637
        },
        {
          "name": "C4",
          "midi": 60,
          "time": 27.13953488372092,
          "velocity": 0.2677165354330709,
          "duration": 0.02325581395349019
        },
        {
          "name": "G#3",
          "midi": 56,
          "time": 27.16279069767441,
          "velocity": 0.3779527559055118,
          "duration": 0.16279069767441712
        },
        {
          "name": "C#4",
          "midi": 61,
          "time": 27.16279069767441,
          "velocity": 0.3464566929133858,
          "duration": 0.26744186046510876
        },
        {
          "name": "G3",
          "midi": 55,
          "time": 27.325581395348827,
          "velocity": 0.3228346456692913,
          "duration": 0.046511627906973274
        },
        {
          "name": "D#5",
          "midi": 75,
          "time": 27.348837209302314,
          "velocity": 0.1968503937007874,
          "duration": 0.0930232558139501
        },
        {
          "name": "G#3",
          "midi": 56,
          "time": 27.3720930232558,
          "velocity": 0.3464566929133858,
          "duration": 0.05813953488371837
        },
        {
          "name": "D#3",
          "midi": 51,
          "time": 27.43023255813952,
          "velocity": 0.5590551181102362,
          "duration": 0.011627906976745095
        },
        {
          "name": "B5",
          "midi": 83,
          "time": 27.43023255813952,
          "velocity": 0.18110236220472442,
          "duration": 0.034883720930235285
        },
        {
          "name": "E6",
          "midi": 88,
          "time": 27.43023255813952,
          "velocity": 0.1732283464566929,
          "duration": 0.034883720930235285
        },
        {
          "name": "C3",
          "midi": 48,
          "time": 27.441860465116264,
          "velocity": 0.7244094488188977,
          "duration": 0.011627906976745095
        },
        {
          "name": "C#4",
          "midi": 61,
          "time": 27.441860465116264,
          "velocity": 0.4251968503937008,
          "duration": 0.034883720930235285
        },
        {
          "name": "F4",
          "midi": 65,
          "time": 27.441860465116264,
          "velocity": 0.4251968503937008,
          "duration": 0.02325581395349019
        },
        {
          "name": "A#5",
          "midi": 82,
          "time": 27.441860465116264,
          "velocity": 0.1732283464566929,
          "duration": 0.058139534883725474
        },
        {
          "name": "C#6",
          "midi": 85,
          "time": 27.441860465116264,
          "velocity": 0.29133858267716534,
          "duration": 0.48837209302326556
        },
        {
          "name": "F6",
          "midi": 89,
          "time": 27.441860465116264,
          "velocity": 0.33070866141732286,
          "duration": 0.1860465116279144
        },
        {
          "name": "F#2",
          "midi": 42,
          "time": 27.45348837209301,
          "velocity": 0.7716535433070866,
          "duration": 0.011627906976745095
        },
        {
          "name": "A#4",
          "midi": 70,
          "time": 27.45348837209301,
          "velocity": 0.3937007874015748,
          "duration": 0.33720930232559
        },
        {
          "name": "C#5",
          "midi": 73,
          "time": 27.45348837209301,
          "velocity": 0.4645669291338583,
          "duration": 0.44186046511628874
        },
        {
          "name": "E2",
          "midi": 40,
          "time": 27.465116279069754,
          "velocity": 0.7716535433070866,
          "duration": 0.011627906976745095
        },
        {
          "name": "F5",
          "midi": 77,
          "time": 27.465116279069754,
          "velocity": 0.2992125984251969,
          "duration": 0.17441860465116932
        },
        {
          "name": "G#5",
          "midi": 80,
          "time": 27.465116279069754,
          "velocity": 0.30708661417322836,
          "duration": 0.2093023255814046
        },
        {
          "name": "F#6",
          "midi": 90,
          "time": 27.465116279069754,
          "velocity": 0.16535433070866143,
          "duration": 0.1046511627907023
        },
        {
          "name": "C#2",
          "midi": 37,
          "time": 27.4767441860465,
          "velocity": 0.7874015748031497,
          "duration": 0.011627906976745095
        },
        {
          "name": "F#3",
          "midi": 54,
          "time": 27.4767441860465,
          "velocity": 0.47244094488188976,
          "duration": 0.02325581395349019
        },
        {
          "name": "A#3",
          "midi": 58,
          "time": 27.4767441860465,
          "velocity": 0.48031496062992124,
          "duration": 0.1860465116279144
        },
        {
          "name": "F#4",
          "midi": 66,
          "time": 27.4767441860465,
          "velocity": 0.5511811023622047,
          "duration": 0.5930232558139572
        },
        {
          "name": "D6",
          "midi": 86,
          "time": 27.4767441860465,
          "velocity": 0.25196850393700787,
          "duration": 0.16279069767442422
        },
        {
          "name": "A#1",
          "midi": 34,
          "time": 27.488372093023244,
          "velocity": 0.7874015748031497,
          "duration": 0.011627906976745095
        },
        {
          "name": "C#4",
          "midi": 61,
          "time": 27.488372093023244,
          "velocity": 0.3464566929133858,
          "duration": 0.034883720930235285
        },
        {
          "name": "B6",
          "midi": 95,
          "time": 27.488372093023244,
          "velocity": 0.11023622047244094,
          "duration": 0.0930232558139572
        },
        {
          "name": "A1",
          "midi": 33,
          "time": 27.49999999999999,
          "velocity": 0.7874015748031497,
          "duration": 0.011627906976745095
        },
        {
          "name": "G#1",
          "midi": 32,
          "time": 27.511627906976734,
          "velocity": 0.7874015748031497,
          "duration": 0.02325581395349019
        },
        {
          "name": "F#3",
          "midi": 54,
          "time": 27.511627906976734,
          "velocity": 0.3937007874015748,
          "duration": 0.02325581395349019
        },
        {
          "name": "E7",
          "midi": 100,
          "time": 27.52325581395348,
          "velocity": 0.14173228346456693,
          "duration": 0.03488372093023173
        },
        {
          "name": "G1",
          "midi": 31,
          "time": 27.534883720930225,
          "velocity": 0.7795275590551181,
          "duration": 0.06976744186046346
        },
        {
          "name": "E6",
          "midi": 88,
          "time": 27.534883720930225,
          "velocity": 0.1889763779527559,
          "duration": 0.13953488372093403
        },
        {
          "name": "C#4",
          "midi": 61,
          "time": 27.5813953488372,
          "velocity": 0.47244094488188976,
          "duration": 0.2093023255813975
        },
        {
          "name": "C7",
          "midi": 96,
          "time": 27.5813953488372,
          "velocity": 0.15748031496062992,
          "duration": 0.04651162790697683
        },
        {
          "name": "F#1",
          "midi": 30,
          "time": 27.604651162790688,
          "velocity": 0.6299212598425197,
          "duration": 0.034883720930235285
        },
        {
          "name": "E5",
          "midi": 76,
          "time": 27.616279069767433,
          "velocity": 0.09448818897637795,
          "duration": 0.034883720930235285
        },
        {
          "name": "F#3",
          "midi": 54,
          "time": 27.62790697674418,
          "velocity": 0.5039370078740157,
          "duration": 0.1976744186046524
        },
        {
          "name": "F#6",
          "midi": 90,
          "time": 27.62790697674418,
          "velocity": 0.2440944881889764,
          "duration": 0.0930232558139572
        },
        {
          "name": "F1",
          "midi": 29,
          "time": 27.639534883720923,
          "velocity": 0.6377952755905512,
          "duration": 0.0930232558139572
        },
        {
          "name": "F5",
          "midi": 77,
          "time": 27.65116279069767,
          "velocity": 0.33858267716535434,
          "duration": 0.27906976744186096
        },
        {
          "name": "G#5",
          "midi": 80,
          "time": 27.70930232558139,
          "velocity": 0.28346456692913385,
          "duration": 0.16279069767441712
        },
        {
          "name": "F#1",
          "midi": 30,
          "time": 27.73255813953488,
          "velocity": 0.6771653543307087,
          "duration": 0.37209302325581106
        },
        {
          "name": "A#3",
          "midi": 58,
          "time": 27.73255813953488,
          "velocity": 0.4015748031496063,
          "duration": 0.023255813953486637
        },
        {
          "name": "A#3",
          "midi": 58,
          "time": 27.767441860465112,
          "velocity": 0.5039370078740157,
          "duration": 0.30232558139534405
        },
        {
          "name": "F#3",
          "midi": 54,
          "time": 27.860465116279062,
          "velocity": 0.4251968503937008,
          "duration": 0.02325581395349019
        },
        {
          "name": "F#3",
          "midi": 54,
          "time": 27.895348837209298,
          "velocity": 0.3937007874015748,
          "duration": 0.1046511627906952
        },
        {
          "name": "F6",
          "midi": 89,
          "time": 27.976744186046506,
          "velocity": 0.28346456692913385,
          "duration": 0.081395348837205
        },
        {
          "name": "F#7",
          "midi": 102,
          "time": 27.976744186046506,
          "velocity": 0.2047244094488189,
          "duration": 0.046511627906973274
        },
        {
          "name": "C#5",
          "midi": 73,
          "time": 28.0813953488372,
          "velocity": 0.3700787401574803,
          "duration": 0.08139534883721566
        },
        {
          "name": "E5",
          "midi": 76,
          "time": 28.0813953488372,
          "velocity": 0.2755905511811024,
          "duration": 0.034883720930235285
        },
        {
          "name": "B5",
          "midi": 83,
          "time": 28.0813953488372,
          "velocity": 0.3228346456692913,
          "duration": 0.02325581395349019
        },
        {
          "name": "D6",
          "midi": 86,
          "time": 28.0813953488372,
          "velocity": 0.25196850393700787,
          "duration": 0.02325581395349019
        },
        {
          "name": "F6",
          "midi": 89,
          "time": 28.0813953488372,
          "velocity": 0.3228346456692913,
          "duration": 0.02325581395349019
        },
        {
          "name": "F#6",
          "midi": 90,
          "time": 28.0813953488372,
          "velocity": 0.3858267716535433,
          "duration": 0.10465116279070585
        },
        {
          "name": "G#6",
          "midi": 92,
          "time": 28.0813953488372,
          "velocity": 0.4251968503937008,
          "duration": 0.058139534883725474
        },
        {
          "name": "B6",
          "midi": 95,
          "time": 28.0813953488372,
          "velocity": 0.3464566929133858,
          "duration": 0.09302325581396076
        },
        {
          "name": "C7",
          "midi": 96,
          "time": 28.0813953488372,
          "velocity": 0.3543307086614173,
          "duration": 0.09302325581396076
        },
        {
          "name": "C#7",
          "midi": 97,
          "time": 28.0813953488372,
          "velocity": 0.33858267716535434,
          "duration": 0.09302325581396076
        },
        {
          "name": "D7",
          "midi": 98,
          "time": 28.0813953488372,
          "velocity": 0.36220472440944884,
          "duration": 0.10465116279070585
        },
        {
          "name": "G7",
          "midi": 103,
          "time": 28.0813953488372,
          "velocity": 0.29133858267716534,
          "duration": 0.10465116279070585
        },
        {
          "name": "G4",
          "midi": 67,
          "time": 28.093023255813947,
          "velocity": 0.2047244094488189,
          "duration": 0.058139534883725474
        },
        {
          "name": "G5",
          "midi": 79,
          "time": 28.093023255813947,
          "velocity": 0.3937007874015748,
          "duration": 0.04651162790698038
        },
        {
          "name": "C6",
          "midi": 84,
          "time": 28.093023255813947,
          "velocity": 0.33858267716535434,
          "duration": 0.02325581395349019
        },
        {
          "name": "E6",
          "midi": 88,
          "time": 28.093023255813947,
          "velocity": 0.3543307086614173,
          "duration": 0.10465116279070585
        },
        {
          "name": "A6",
          "midi": 93,
          "time": 28.093023255813947,
          "velocity": 0.41732283464566927,
          "duration": 0.08139534883721566
        },
        {
          "name": "G1",
          "midi": 31,
          "time": 28.10465116279069,
          "velocity": 0.49606299212598426,
          "duration": 0.02325581395349019
        },
        {
          "name": "A#3",
          "midi": 58,
          "time": 28.10465116279069,
          "velocity": 0.14173228346456693,
          "duration": 0.058139534883725474
        },
        {
          "name": "D#5",
          "midi": 75,
          "time": 28.10465116279069,
          "velocity": 0.25196850393700787,
          "duration": 0.034883720930235285
        },
        {
          "name": "D#6",
          "midi": 87,
          "time": 28.10465116279069,
          "velocity": 0.33858267716535434,
          "duration": 0.06976744186047057
        },
        {
          "name": "D#7",
          "midi": 99,
          "time": 28.10465116279069,
          "velocity": 0.3779527559055118,
          "duration": 0.09302325581396076
        },
        {
          "name": "B4",
          "midi": 71,
          "time": 28.116279069767437,
          "velocity": 0.25984251968503935,
          "duration": 0.02325581395349019
        },
        {
          "name": "B5",
          "midi": 83,
          "time": 28.116279069767437,
          "velocity": 0.33070866141732286,
          "duration": 0.058139534883725474
        },
        {
          "name": "C#6",
          "midi": 85,
          "time": 28.116279069767437,
          "velocity": 0.4015748031496063,
          "duration": 0.058139534883725474
        },
        {
          "name": "C#4",
          "midi": 61,
          "time": 28.127906976744182,
          "velocity": 0.10236220472440945,
          "duration": 0.058139534883725474
        },
        {
          "name": "E5",
          "midi": 76,
          "time": 28.127906976744182,
          "velocity": 0.15748031496062992,
          "duration": 0.04651162790698038
        },
        {
          "name": "A#4",
          "midi": 70,
          "time": 28.139534883720927,
          "velocity": 0.29133858267716534,
          "duration": 0.06976744186047057
        },
        {
          "name": "G#5",
          "midi": 80,
          "time": 28.139534883720927,
          "velocity": 0.2755905511811024,
          "duration": 0.034883720930235285
        },
        {
          "name": "A#3",
          "midi": 58,
          "time": 28.197674418604652,
          "velocity": 0.09448818897637795,
          "duration": 0.05813953488372192
        },
        {
          "name": "F#4",
          "midi": 66,
          "time": 28.220930232558143,
          "velocity": 0.5826771653543307,
          "duration": 0.4883720930232549
        },
        {
          "name": "C#6",
          "midi": 85,
          "time": 28.30232558139535,
          "velocity": 0.28346456692913385,
          "duration": 0.2906976744186096
        },
        {
          "name": "A#4",
          "midi": 70,
          "time": 28.348837209302328,
          "velocity": 0.09448818897637795,
          "duration": 0.06976744186046702
        },
        {
          "name": "B5",
          "midi": 83,
          "time": 28.40697674418605,
          "velocity": 0.14960629921259844,
          "duration": 0.034883720930235285
        },
        {
          "name": "A#3",
          "midi": 58,
          "time": 28.418604651162795,
          "velocity": 0.49606299212598426,
          "duration": 0.17441860465116577
        },
        {
          "name": "G#5",
          "midi": 80,
          "time": 28.418604651162795,
          "velocity": 0.2677165354330709,
          "duration": 0.17441860465116577
        },
        {
          "name": "F5",
          "midi": 77,
          "time": 28.43023255813954,
          "velocity": 0.23622047244094488,
          "duration": 0.15116279069767558
        },
        {
          "name": "C#4",
          "midi": 61,
          "time": 28.581395348837216,
          "velocity": 0.15748031496062992,
          "duration": 0.03488372093023173
        },
        {
          "name": "A#3",
          "midi": 58,
          "time": 28.639534883720934,
          "velocity": 0.4566929133858268,
          "duration": 0.0930232558139501
        },
        {
          "name": "F5",
          "midi": 77,
          "time": 28.639534883720934,
          "velocity": 0.29133858267716534,
          "duration": 0.1046511627906952
        },
        {
          "name": "G#4",
          "midi": 68,
          "time": 28.732558139534884,
          "velocity": 0.49606299212598426,
          "duration": 0.4534883720930374
        },
        {
          "name": "A#4",
          "midi": 70,
          "time": 28.732558139534884,
          "velocity": 0.23622047244094488,
          "duration": 0.034883720930235285
        },
        {
          "name": "A#5",
          "midi": 82,
          "time": 28.732558139534884,
          "velocity": 0.23622047244094488,
          "duration": 0.08139534883721566
        },
        {
          "name": "D3",
          "midi": 50,
          "time": 28.74418604651163,
          "velocity": 0.6614173228346457,
          "duration": 0.034883720930235285
        },
        {
          "name": "C#5",
          "midi": 73,
          "time": 28.74418604651163,
          "velocity": 0.23622047244094488,
          "duration": 0.034883720930235285
        },
        {
          "name": "D#5",
          "midi": 75,
          "time": 28.74418604651163,
          "velocity": 0.3543307086614173,
          "duration": 0.40697674418606056
        },
        {
          "name": "F6",
          "midi": 89,
          "time": 28.74418604651163,
          "velocity": 0.30708661417322836,
          "duration": 0.2674418604651265
        },
        {
          "name": "F#2",
          "midi": 42,
          "time": 28.755813953488374,
          "velocity": 0.6850393700787402,
          "duration": 0.011627906976745095
        },
        {
          "name": "A#3",
          "midi": 58,
          "time": 28.755813953488374,
          "velocity": 0.5275590551181102,
          "duration": 0.011627906976745095
        },
        {
          "name": "F5",
          "midi": 77,
          "time": 28.755813953488374,
          "velocity": 0.2992125984251969,
          "duration": 0.36046511627908373
        },
        {
          "name": "A5",
          "midi": 81,
          "time": 28.755813953488374,
          "velocity": 0.12598425196850394,
          "duration": 0.09302325581396076
        },
        {
          "name": "E2",
          "midi": 40,
          "time": 28.76744186046512,
          "velocity": 0.7244094488188977,
          "duration": 0.011627906976745095
        },
        {
          "name": "B3",
          "midi": 59,
          "time": 28.76744186046512,
          "velocity": 0.5118110236220472,
          "duration": 0.011627906976745095
        },
        {
          "name": "C#6",
          "midi": 85,
          "time": 28.76744186046512,
          "velocity": 0.33070866141732286,
          "duration": 0.3139534883721069
        },
        {
          "name": "F#6",
          "midi": 90,
          "time": 28.76744186046512,
          "velocity": 0.2283464566929134,
          "duration": 0.1162790697674474
        },
        {
          "name": "B6",
          "midi": 95,
          "time": 28.76744186046512,
          "velocity": 0.2204724409448819,
          "duration": 0.1860465116279144
        },
        {
          "name": "D7",
          "midi": 98,
          "time": 28.76744186046512,
          "velocity": 0.16535433070866143,
          "duration": 0.04651162790698038
        },
        {
          "name": "C#2",
          "midi": 37,
          "time": 28.779069767441865,
          "velocity": 0.7637795275590551,
          "duration": 0.011627906976745095
        },
        {
          "name": "G3",
          "midi": 55,
          "time": 28.779069767441865,
          "velocity": 0.4881889763779528,
          "duration": 0.02325581395349019
        },
        {
          "name": "C#4",
          "midi": 61,
          "time": 28.779069767441865,
          "velocity": 0.48031496062992124,
          "duration": 0.5581395348837326
        },
        {
          "name": "C2",
          "midi": 36,
          "time": 28.79069767441861,
          "velocity": 0.7716535433070866,
          "duration": 0.011627906976745095
        },
        {
          "name": "F4",
          "midi": 65,
          "time": 28.79069767441861,
          "velocity": 0.2992125984251969,
          "duration": 0.22093023255814614
        },
        {
          "name": "C5",
          "midi": 72,
          "time": 28.79069767441861,
          "velocity": 0.33070866141732286,
          "duration": 0.2906976744186167
        },
        {
          "name": "G6",
          "midi": 91,
          "time": 28.79069767441861,
          "velocity": 0.11811023622047244,
          "duration": 0.034883720930235285
        },
        {
          "name": "A6",
          "midi": 93,
          "time": 28.79069767441861,
          "velocity": 0.13385826771653545,
          "duration": 0.17441860465116932
        },
        {
          "name": "D#7",
          "midi": 99,
          "time": 28.79069767441861,
          "velocity": 0.2047244094488189,
          "duration": 0.13953488372093403
        },
        {
          "name": "B1",
          "midi": 35,
          "time": 28.802325581395355,
          "velocity": 0.7637795275590551,
          "duration": 0.011627906976745095
        },
        {
          "name": "G#6",
          "midi": 92,
          "time": 28.802325581395355,
          "velocity": 0.29133858267716534,
          "duration": 0.16279069767442422
        },
        {
          "name": "A#1",
          "midi": 34,
          "time": 28.8139534883721,
          "velocity": 0.7322834645669292,
          "duration": 0.011627906976745095
        },
        {
          "name": "A1",
          "midi": 33,
          "time": 28.825581395348845,
          "velocity": 0.6929133858267716,
          "duration": 0.011627906976745095
        },
        {
          "name": "G7",
          "midi": 103,
          "time": 28.825581395348845,
          "velocity": 0.11023622047244094,
          "duration": 0.06976744186046702
        },
        {
          "name": "G#1",
          "midi": 32,
          "time": 28.83720930232559,
          "velocity": 0.6692913385826772,
          "duration": 0.02325581395349019
        },
        {
          "name": "F3",
          "midi": 53,
          "time": 28.83720930232559,
          "velocity": 0.4409448818897638,
          "duration": 0.04651162790697683
        },
        {
          "name": "G6",
          "midi": 91,
          "time": 28.848837209302335,
          "velocity": 0.1968503937007874,
          "duration": 0.12790697674418894
        },
        {
          "name": "G1",
          "midi": 31,
          "time": 28.86046511627908,
          "velocity": 0.7795275590551181,
          "duration": 0.15116279069767558
        },
        {
          "name": "A5",
          "midi": 81,
          "time": 28.895348837209312,
          "velocity": 0.25196850393700787,
          "duration": 0.13953488372093403
        },
        {
          "name": "A#5",
          "midi": 82,
          "time": 28.906976744186057,
          "velocity": 0.2047244094488189,
          "duration": 0.10465116279069875
        },
        {
          "name": "F3",
          "midi": 53,
          "time": 28.94186046511629,
          "velocity": 0.48031496062992124,
          "duration": 0.02325581395349019
        },
        {
          "name": "G#1",
          "midi": 32,
          "time": 29.011627906976756,
          "velocity": 0.7086614173228346,
          "duration": 0.011627906976745095
        },
        {
          "name": "E3",
          "midi": 52,
          "time": 29.011627906976756,
          "velocity": 0.49606299212598426,
          "duration": 0.02325581395349019
        },
        {
          "name": "A1",
          "midi": 33,
          "time": 29.0232558139535,
          "velocity": 0.6850393700787402,
          "duration": 0.02325581395349019
        },
        {
          "name": "G#1",
          "midi": 32,
          "time": 29.04651162790699,
          "velocity": 0.6929133858267716,
          "duration": 0.3604651162790766
        },
        {
          "name": "F4",
          "midi": 65,
          "time": 29.058139534883736,
          "velocity": 0.5118110236220472,
          "duration": 0.34883720930233153
        },
        {
          "name": "E3",
          "midi": 52,
          "time": 29.06976744186048,
          "velocity": 0.48031496062992124,
          "duration": 0.02325581395349019
        },
        {
          "name": "F3",
          "midi": 53,
          "time": 29.09302325581397,
          "velocity": 0.4566929133858268,
          "duration": 0.03488372093023173
        },
        {
          "name": "E3",
          "midi": 52,
          "time": 29.127906976744203,
          "velocity": 0.4566929133858268,
          "duration": 0.023255813953486637
        },
        {
          "name": "F3",
          "midi": 53,
          "time": 29.162790697674435,
          "velocity": 0.44881889763779526,
          "duration": 0.023255813953486637
        },
        {
          "name": "G3",
          "midi": 55,
          "time": 29.197674418604667,
          "velocity": 0.3779527559055118,
          "duration": 0.023255813953486637
        },
        {
          "name": "G#4",
          "midi": 68,
          "time": 29.197674418604667,
          "velocity": 0.30708661417322836,
          "duration": 0.16279069767442067
        },
        {
          "name": "E3",
          "midi": 52,
          "time": 29.2325581395349,
          "velocity": 0.41732283464566927,
          "duration": 0.023255813953486637
        },
        {
          "name": "C6",
          "midi": 84,
          "time": 29.27906976744187,
          "velocity": 0.3779527559055118,
          "duration": 0.2093023255814117
        },
        {
          "name": "E3",
          "midi": 52,
          "time": 29.290697674418617,
          "velocity": 0.3700787401574803,
          "duration": 0.02325581395349019
        },
        {
          "name": "G#3",
          "midi": 56,
          "time": 29.302325581395362,
          "velocity": 0.25984251968503935,
          "duration": 0.02325581395349019
        },
        {
          "name": "E3",
          "midi": 52,
          "time": 29.348837209302342,
          "velocity": 0.33858267716535434,
          "duration": 0.02325581395349019
        },
        {
          "name": "C4",
          "midi": 60,
          "time": 29.383720930232577,
          "velocity": 0.2755905511811024,
          "duration": 0.02325581395349019
        },
        {
          "name": "E5",
          "midi": 76,
          "time": 29.383720930232577,
          "velocity": 0.3228346456692913,
          "duration": 0.04651162790698038
        },
        {
          "name": "G#5",
          "midi": 80,
          "time": 29.383720930232577,
          "velocity": 0.2992125984251969,
          "duration": 0.034883720930235285
        },
        {
          "name": "C#6",
          "midi": 85,
          "time": 29.383720930232577,
          "velocity": 0.23622047244094488,
          "duration": 0.02325581395349019
        },
        {
          "name": "F#6",
          "midi": 90,
          "time": 29.383720930232577,
          "velocity": 0.2992125984251969,
          "duration": 0.058139534883725474
        },
        {
          "name": "C#7",
          "midi": 97,
          "time": 29.383720930232577,
          "velocity": 0.2677165354330709,
          "duration": 0.10465116279070585
        },
        {
          "name": "A#4",
          "midi": 70,
          "time": 29.395348837209323,
          "velocity": 0.2677165354330709,
          "duration": 0.034883720930235285
        },
        {
          "name": "D5",
          "midi": 74,
          "time": 29.395348837209323,
          "velocity": 0.33858267716535434,
          "duration": 0.02325581395349019
        },
        {
          "name": "G5",
          "midi": 79,
          "time": 29.395348837209323,
          "velocity": 0.33070866141732286,
          "duration": 0.04651162790698038
        },
        {
          "name": "A#5",
          "midi": 82,
          "time": 29.395348837209323,
          "velocity": 0.2992125984251969,
          "duration": 0.058139534883725474
        },
        {
          "name": "B5",
          "midi": 83,
          "time": 29.395348837209323,
          "velocity": 0.30708661417322836,
          "duration": 0.02325581395349019
        },
        {
          "name": "G#6",
          "midi": 92,
          "time": 29.395348837209323,
          "velocity": 0.4409448818897638,
          "duration": 0.058139534883725474
        },
        {
          "name": "D7",
          "midi": 98,
          "time": 29.395348837209323,
          "velocity": 0.29133858267716534,
          "duration": 0.10465116279070585
        },
        {
          "name": "F7",
          "midi": 101,
          "time": 29.395348837209323,
          "velocity": 0.2755905511811024,
          "duration": 0.09302325581396076
        },
        {
          "name": "A#1",
          "midi": 34,
          "time": 29.406976744186068,
          "velocity": 0.5905511811023622,
          "duration": 0.011627906976745095
        },
        {
          "name": "G#3",
          "midi": 56,
          "time": 29.406976744186068,
          "velocity": 0.08661417322834646,
          "duration": 0.034883720930235285
        },
        {
          "name": "C#4",
          "midi": 61,
          "time": 29.406976744186068,
          "velocity": 0.4566929133858268,
          "duration": 0.1976744186046595
        },
        {
          "name": "G#4",
          "midi": 68,
          "time": 29.406976744186068,
          "velocity": 0.2440944881889764,
          "duration": 0.02325581395349019
        },
        {
          "name": "D#6",
          "midi": 87,
          "time": 29.406976744186068,
          "velocity": 0.2755905511811024,
          "duration": 0.06976744186047057
        },
        {
          "name": "A6",
          "midi": 93,
          "time": 29.406976744186068,
          "velocity": 0.3464566929133858,
          "duration": 0.08139534883721566
        },
        {
          "name": "F6",
          "midi": 89,
          "time": 29.418604651162813,
          "velocity": 0.2047244094488189,
          "duration": 0.04651162790698038
        },
        {
          "name": "A#6",
          "midi": 94,
          "time": 29.418604651162813,
          "velocity": 0.31496062992125984,
          "duration": 0.06976744186047057
        },
        {
          "name": "E7",
          "midi": 100,
          "time": 29.418604651162813,
          "velocity": 0.2677165354330709,
          "duration": 0.09302325581396076
        },
        {
          "name": "G4",
          "midi": 67,
          "time": 29.430232558139558,
          "velocity": 0.2204724409448819,
          "duration": 0.034883720930235285
        },
        {
          "name": "F5",
          "midi": 77,
          "time": 29.430232558139558,
          "velocity": 0.2047244094488189,
          "duration": 0.034883720930235285
        },
        {
          "name": "D#7",
          "midi": 99,
          "time": 29.430232558139558,
          "velocity": 0.33070866141732286,
          "duration": 0.06976744186047057
        },
        {
          "name": "G7",
          "midi": 103,
          "time": 29.430232558139558,
          "velocity": 0.28346456692913385,
          "duration": 0.06976744186047057
        },
        {
          "name": "G#5",
          "midi": 80,
          "time": 29.441860465116303,
          "velocity": 0.31496062992125984,
          "duration": 0.1162790697674474
        },
        {
          "name": "F4",
          "midi": 65,
          "time": 29.465116279069793,
          "velocity": 0.16535433070866143,
          "duration": 0.1046511627907023
        },
        {
          "name": "F#7",
          "midi": 102,
          "time": 29.465116279069793,
          "velocity": 0.08661417322834646,
          "duration": 0.034883720930235285
        },
        {
          "name": "G#3",
          "midi": 56,
          "time": 29.604651162790727,
          "velocity": 0.4251968503937008,
          "duration": 0.023255813953486637
        },
        {
          "name": "D#5",
          "midi": 75,
          "time": 29.604651162790727,
          "velocity": 0.31496062992125984,
          "duration": 0.13953488372093048
        },
        {
          "name": "G#3",
          "midi": 56,
          "time": 29.63953488372096,
          "velocity": 0.44881889763779526,
          "duration": 0.1860465116279073
        },
        {
          "name": "C#4",
          "midi": 61,
          "time": 29.63953488372096,
          "velocity": 0.15748031496062992,
          "duration": 0.08139534883720856
        },
        {
          "name": "F4",
          "midi": 65,
          "time": 29.709302325581422,
          "velocity": 0.4409448818897638,
          "duration": 0.3372093023255829
        },
        {
          "name": "A4",
          "midi": 69,
          "time": 29.709302325581422,
          "velocity": 0.3779527559055118,
          "duration": 0.02325581395349019
        },
        {
          "name": "G#5",
          "midi": 80,
          "time": 29.720930232558167,
          "velocity": 0.33858267716535434,
          "duration": 0.13953488372093048
        },
        {
          "name": "C6",
          "midi": 84,
          "time": 29.720930232558167,
          "velocity": 0.2440944881889764,
          "duration": 0.10465116279069875
        },
        {
          "name": "C#4",
          "midi": 61,
          "time": 29.732558139534913,
          "velocity": 0.44881889763779526,
          "duration": 0.13953488372093048
        },
        {
          "name": "G#4",
          "midi": 68,
          "time": 29.732558139534913,
          "velocity": 0.49606299212598426,
          "duration": 0.1976744186046524
        },
        {
          "name": "C#4",
          "midi": 61,
          "time": 29.91860465116282,
          "velocity": 0.2992125984251969,
          "duration": 0.12790697674418539
        },
        {
          "name": "A4",
          "midi": 69,
          "time": 29.930232558139565,
          "velocity": 0.1889763779527559,
          "duration": 0.03488372093023173
        },
        {
          "name": "D5",
          "midi": 74,
          "time": 29.930232558139565,
          "velocity": 0.1732283464566929,
          "duration": 0.03488372093023173
        },
        {
          "name": "C6",
          "midi": 84,
          "time": 29.94186046511631,
          "velocity": 0.3700787401574803,
          "duration": 0.39534883720931546
        },
        {
          "name": "D#3",
          "midi": 51,
          "time": 30.046511627907005,
          "velocity": 0.6299212598425197,
          "duration": 0.011627906976745095
        },
        {
          "name": "B4",
          "midi": 71,
          "time": 30.046511627907005,
          "velocity": 0.2992125984251969,
          "duration": 0.034883720930235285
        },
        {
          "name": "E5",
          "midi": 76,
          "time": 30.046511627907005,
          "velocity": 0.2677165354330709,
          "duration": 0.02325581395349019
        },
        {
          "name": "D#6",
          "midi": 87,
          "time": 30.046511627907005,
          "velocity": 0.33070866141732286,
          "duration": 0.2209302325581497
        },
        {
          "name": "C3",
          "midi": 48,
          "time": 30.05813953488375,
          "velocity": 0.6929133858267716,
          "duration": 0.02325581395349019
        },
        {
          "name": "G#4",
          "midi": 68,
          "time": 30.05813953488375,
          "velocity": 0.5669291338582677,
          "duration": 0.5348837209302459
        },
        {
          "name": "F2",
          "midi": 41,
          "time": 30.069767441860495,
          "velocity": 0.7007874015748031,
          "duration": 0.011627906976745095
        },
        {
          "name": "C5",
          "midi": 72,
          "time": 30.069767441860495,
          "velocity": 0.3464566929133858,
          "duration": 0.4883720930232691
        },
        {
          "name": "D#5",
          "midi": 75,
          "time": 30.069767441860495,
          "velocity": 0.23622047244094488,
          "duration": 0.02325581395349019
        },
        {
          "name": "F#6",
          "midi": 90,
          "time": 30.069767441860495,
          "velocity": 0.14173228346456693,
          "duration": 0.08139534883721566
        },
        {
          "name": "G#6",
          "midi": 92,
          "time": 30.069767441860495,
          "velocity": 0.1968503937007874,
          "duration": 0.06976744186047057
        },
        {
          "name": "A#6",
          "midi": 94,
          "time": 30.069767441860495,
          "velocity": 0.2283464566929134,
          "duration": 0.2325581395348948
        },
        {
          "name": "D2",
          "midi": 38,
          "time": 30.08139534883724,
          "velocity": 0.7244094488188977,
          "duration": 0.011627906976745095
        },
        {
          "name": "C4",
          "midi": 60,
          "time": 30.08139534883724,
          "velocity": 0.47244094488188976,
          "duration": 0.6395348837209482
        },
        {
          "name": "A#4",
          "midi": 70,
          "time": 30.08139534883724,
          "velocity": 0.23622047244094488,
          "duration": 0.034883720930235285
        },
        {
          "name": "F#5",
          "midi": 78,
          "time": 30.08139534883724,
          "velocity": 0.11023622047244094,
          "duration": 0.06976744186047057
        },
        {
          "name": "E7",
          "midi": 100,
          "time": 30.08139534883724,
          "velocity": 0.11811023622047244,
          "duration": 0.09302325581396076
        },
        {
          "name": "C2",
          "midi": 36,
          "time": 30.093023255813986,
          "velocity": 0.7559055118110236,
          "duration": 0.011627906976745095
        },
        {
          "name": "G5",
          "midi": 79,
          "time": 30.093023255813986,
          "velocity": 0.3228346456692913,
          "duration": 0.13953488372093759
        },
        {
          "name": "G7",
          "midi": 103,
          "time": 30.093023255813986,
          "velocity": 0.2125984251968504,
          "duration": 0.058139534883725474
        },
        {
          "name": "B1",
          "midi": 35,
          "time": 30.10465116279073,
          "velocity": 0.7480314960629921,
          "duration": 0.011627906976745095
        },
        {
          "name": "D#3",
          "midi": 51,
          "time": 30.10465116279073,
          "velocity": 0.5354330708661418,
          "duration": 0.5930232558139679
        },
        {
          "name": "A#1",
          "midi": 34,
          "time": 30.116279069767476,
          "velocity": 0.7244094488188977,
          "duration": 0.011627906976745095
        },
        {
          "name": "D#5",
          "midi": 75,
          "time": 30.116279069767476,
          "velocity": 0.3543307086614173,
          "duration": 0.406976744186057
        },
        {
          "name": "E6",
          "midi": 88,
          "time": 30.116279069767476,
          "velocity": 0.30708661417322836,
          "duration": 0.2093023255814046
        },
        {
          "name": "D7",
          "midi": 98,
          "time": 30.116279069767476,
          "velocity": 0.2283464566929134,
          "duration": 0.16279069767442422
        },
        {
          "name": "A1",
          "midi": 33,
          "time": 30.12790697674422,
          "velocity": 0.6929133858267716,
          "duration": 0.02325581395349019
        },
        {
          "name": "A#4",
          "midi": 70,
          "time": 30.12790697674422,
          "velocity": 0.2440944881889764,
          "duration": 0.12790697674418894
        },
        {
          "name": "C#6",
          "midi": 85,
          "time": 30.12790697674422,
          "velocity": 0.25196850393700787,
          "duration": 0.034883720930235285
        },
        {
          "name": "A#5",
          "midi": 82,
          "time": 30.139534883720966,
          "velocity": 0.25196850393700787,
          "duration": 0.12790697674418894
        },
        {
          "name": "A6",
          "midi": 93,
          "time": 30.139534883720966,
          "velocity": 0.1889763779527559,
          "duration": 0.06976744186046702
        },
        {
          "name": "G#1",
          "midi": 32,
          "time": 30.15116279069771,
          "velocity": 0.6299212598425197,
          "duration": 0.011627906976745095
        },
        {
          "name": "G1",
          "midi": 31,
          "time": 30.162790697674456,
          "velocity": 0.6062992125984252,
          "duration": 0.02325581395349019
        },
        {
          "name": "D6",
          "midi": 86,
          "time": 30.162790697674456,
          "velocity": 0.12598425196850394,
          "duration": 0.05813953488372192
        },
        {
          "name": "F#1",
          "midi": 30,
          "time": 30.186046511627946,
          "velocity": 0.6535433070866141,
          "duration": 0.023255813953486637
        },
        {
          "name": "G1",
          "midi": 31,
          "time": 30.209302325581433,
          "velocity": 0.7637795275590551,
          "duration": 0.1046511627907023
        },
        {
          "name": "C#6",
          "midi": 85,
          "time": 30.220930232558178,
          "velocity": 0.16535433070866143,
          "duration": 0.06976744186046702
        },
        {
          "name": "F#6",
          "midi": 90,
          "time": 30.220930232558178,
          "velocity": 0.13385826771653545,
          "duration": 0.04651162790697683
        },
        {
          "name": "G5",
          "midi": 79,
          "time": 30.25581395348841,
          "velocity": 0.3228346456692913,
          "duration": 0.26744186046512297
        },
        {
          "name": "G#2",
          "midi": 44,
          "time": 30.267441860465155,
          "velocity": 0.4566929133858268,
          "duration": 0.02325581395349019
        },
        {
          "name": "A#5",
          "midi": 82,
          "time": 30.30232558139539,
          "velocity": 0.3464566929133858,
          "duration": 0.31395348837209625
        },
        {
          "name": "G#1",
          "midi": 32,
          "time": 30.313953488372135,
          "velocity": 0.7322834645669292,
          "duration": 0.02325581395349019
        },
        {
          "name": "F#5",
          "midi": 78,
          "time": 30.313953488372135,
          "velocity": 0.07086614173228346,
          "duration": 0.034883720930235285
        },
        {
          "name": "A1",
          "midi": 33,
          "time": 30.337209302325626,
          "velocity": 0.6850393700787402,
          "duration": 0.011627906976745095
        },
        {
          "name": "G#1",
          "midi": 32,
          "time": 30.34883720930237,
          "velocity": 0.6929133858267716,
          "duration": 0.3604651162790731
        },
        {
          "name": "F7",
          "midi": 101,
          "time": 30.58139534883725,
          "velocity": 0.2283464566929134,
          "duration": 0.034883720930235285
        },
        {
          "name": "F#7",
          "midi": 102,
          "time": 30.593023255813996,
          "velocity": 0.2125984251968504,
          "duration": 0.034883720930235285
        },
        {
          "name": "G#4",
          "midi": 68,
          "time": 30.60465116279074,
          "velocity": 0.48031496062992124,
          "duration": 0.1046511627907023
        },
        {
          "name": "C#5",
          "midi": 73,
          "time": 30.686046511627953,
          "velocity": 0.2992125984251969,
          "duration": 0.034883720930235285
        },
        {
          "name": "A#5",
          "midi": 82,
          "time": 30.686046511627953,
          "velocity": 0.29133858267716534,
          "duration": 0.11627906976745095
        },
        {
          "name": "B5",
          "midi": 83,
          "time": 30.686046511627953,
          "velocity": 0.33858267716535434,
          "duration": 0.04651162790698038
        },
        {
          "name": "F6",
          "midi": 89,
          "time": 30.686046511627953,
          "velocity": 0.33070866141732286,
          "duration": 0.08139534883721566
        },
        {
          "name": "G6",
          "midi": 91,
          "time": 30.686046511627953,
          "velocity": 0.3779527559055118,
          "duration": 0.10465116279070585
        },
        {
          "name": "A6",
          "midi": 93,
          "time": 30.686046511627953,
          "velocity": 0.41732283464566927,
          "duration": 0.10465116279070585
        },
        {
          "name": "A#4",
          "midi": 70,
          "time": 30.6976744186047,
          "velocity": 0.2440944881889764,
          "duration": 0.034883720930235285
        },
        {
          "name": "E5",
          "midi": 76,
          "time": 30.6976744186047,
          "velocity": 0.28346456692913385,
          "duration": 0.02325581395349019
        },
        {
          "name": "D6",
          "midi": 86,
          "time": 30.6976744186047,
          "velocity": 0.25196850393700787,
          "duration": 0.034883720930235285
        },
        {
          "name": "F#6",
          "midi": 90,
          "time": 30.6976744186047,
          "velocity": 0.31496062992125984,
          "duration": 0.04651162790698038
        },
        {
          "name": "A#6",
          "midi": 94,
          "time": 30.6976744186047,
          "velocity": 0.31496062992125984,
          "duration": 0.034883720930235285
        },
        {
          "name": "B6",
          "midi": 95,
          "time": 30.6976744186047,
          "velocity": 0.3464566929133858,
          "duration": 0.06976744186047057
        },
        {
          "name": "C7",
          "midi": 96,
          "time": 30.6976744186047,
          "velocity": 0.36220472440944884,
          "duration": 0.058139534883725474
        },
        {
          "name": "C#7",
          "midi": 97,
          "time": 30.6976744186047,
          "velocity": 0.33858267716535434,
          "duration": 0.08139534883721566
        },
        {
          "name": "D#7",
          "midi": 99,
          "time": 30.6976744186047,
          "velocity": 0.3543307086614173,
          "duration": 0.10465116279070585
        },
        {
          "name": "A1",
          "midi": 33,
          "time": 30.709302325581444,
          "velocity": 0.5826771653543307,
          "duration": 0.011627906976745095
        },
        {
          "name": "G4",
          "midi": 67,
          "time": 30.709302325581444,
          "velocity": 0.2992125984251969,
          "duration": 0.02325581395349019
        },
        {
          "name": "D#5",
          "midi": 75,
          "time": 30.709302325581444,
          "velocity": 0.25984251968503935,
          "duration": 0.04651162790698038
        },
        {
          "name": "F5",
          "midi": 77,
          "time": 30.709302325581444,
          "velocity": 0.28346456692913385,
          "duration": 0.02325581395349019
        },
        {
          "name": "G5",
          "midi": 79,
          "time": 30.709302325581444,
          "velocity": 0.3543307086614173,
          "duration": 0.04651162790698038
        },
        {
          "name": "G#6",
          "midi": 92,
          "time": 30.709302325581444,
          "velocity": 0.3858267716535433,
          "duration": 0.09302325581396076
        },
        {
          "name": "D7",
          "midi": 98,
          "time": 30.709302325581444,
          "velocity": 0.2755905511811024,
          "duration": 0.08139534883721566
        },
        {
          "name": "C#6",
          "midi": 85,
          "time": 30.72093023255819,
          "velocity": 0.3858267716535433,
          "duration": 0.034883720930235285
        },
        {
          "name": "D#6",
          "midi": 87,
          "time": 30.72093023255819,
          "velocity": 0.36220472440944884,
          "duration": 0.058139534883725474
        },
        {
          "name": "B4",
          "midi": 71,
          "time": 30.732558139534934,
          "velocity": 0.2677165354330709,
          "duration": 0.034883720930235285
        },
        {
          "name": "C#5",
          "midi": 73,
          "time": 30.732558139534934,
          "velocity": 0.3543307086614173,
          "duration": 0.034883720930235285
        },
        {
          "name": "E5",
          "midi": 76,
          "time": 30.732558139534934,
          "velocity": 0.2440944881889764,
          "duration": 0.04651162790698038
        },
        {
          "name": "C6",
          "midi": 84,
          "time": 30.732558139534934,
          "velocity": 0.3779527559055118,
          "duration": 0.04651162790698038
        },
        {
          "name": "G4",
          "midi": 67,
          "time": 30.74418604651168,
          "velocity": 0.2047244094488189,
          "duration": 0.034883720930235285
        },
        {
          "name": "B5",
          "midi": 83,
          "time": 30.74418604651168,
          "velocity": 0.2677165354330709,
          "duration": 0.02325581395349019
        },
        {
          "name": "A#6",
          "midi": 94,
          "time": 30.74418604651168,
          "velocity": 0.2992125984251969,
          "duration": 0.058139534883725474
        },
        {
          "name": "G#5",
          "midi": 80,
          "time": 30.755813953488424,
          "velocity": 0.2283464566929134,
          "duration": 0.02325581395349019
        },
        {
          "name": "F#6",
          "midi": 90,
          "time": 30.755813953488424,
          "velocity": 0.2047244094488189,
          "duration": 0.058139534883725474
        },
        {
          "name": "C#6",
          "midi": 85,
          "time": 30.779069767441914,
          "velocity": 0.07874015748031496,
          "duration": 0.034883720930235285
        },
        {
          "name": "G#4",
          "midi": 68,
          "time": 30.79069767441866,
          "velocity": 0.08661417322834646,
          "duration": 0.09302325581395365
        },
        {
          "name": "D#4",
          "midi": 63,
          "time": 30.9069767441861,
          "velocity": 0.3858267716535433,
          "duration": 0.12790697674418539
        },
        {
          "name": "A#5",
          "midi": 82,
          "time": 30.918604651162845,
          "velocity": 0.29133858267716534,
          "duration": 0.15116279069767558
        },
        {
          "name": "G6",
          "midi": 91,
          "time": 30.918604651162845,
          "velocity": 0.14173228346456693,
          "duration": 0.06976744186046346
        },
        {
          "name": "G#6",
          "midi": 92,
          "time": 30.918604651162845,
          "velocity": 0.15748031496062992,
          "duration": 0.03488372093023173
        },
        {
          "name": "A6",
          "midi": 93,
          "time": 30.918604651162845,
          "velocity": 0.2047244094488189,
          "duration": 0.06976744186046346
        },
        {
          "name": "C7",
          "midi": 96,
          "time": 30.918604651162845,
          "velocity": 0.18110236220472442,
          "duration": 0.03488372093023173
        },
        {
          "name": "D7",
          "midi": 98,
          "time": 30.918604651162845,
          "velocity": 0.11811023622047244,
          "duration": 0.19767441860465595
        },
        {
          "name": "E6",
          "midi": 88,
          "time": 30.953488372093076,
          "velocity": 0.11811023622047244,
          "duration": 0.05813953488371837
        },
        {
          "name": "F7",
          "midi": 101,
          "time": 30.953488372093076,
          "velocity": 0.11023622047244094,
          "duration": 0.05813953488371837
        },
        {
          "name": "B6",
          "midi": 95,
          "time": 30.96511627906982,
          "velocity": 0.25984251968503935,
          "duration": 0.15116279069767913
        },
        {
          "name": "D#7",
          "midi": 99,
          "time": 30.96511627906982,
          "velocity": 0.11811023622047244,
          "duration": 0.08139534883720856
        },
        {
          "name": "D6",
          "midi": 86,
          "time": 31.011627906976795,
          "velocity": 0.2204724409448819,
          "duration": 0.04651162790698038
        },
        {
          "name": "F6",
          "midi": 89,
          "time": 31.011627906976795,
          "velocity": 0.2992125984251969,
          "duration": 0.08139534883721566
        },
        {
          "name": "G6",
          "midi": 91,
          "time": 31.011627906976795,
          "velocity": 0.2283464566929134,
          "duration": 0.11627906976745095
        },
        {
          "name": "A6",
          "midi": 93,
          "time": 31.011627906976795,
          "velocity": 0.12598425196850394,
          "duration": 0.034883720930235285
        },
        {
          "name": "C7",
          "midi": 96,
          "time": 31.011627906976795,
          "velocity": 0.25984251968503935,
          "duration": 0.10465116279070585
        },
        {
          "name": "C4",
          "midi": 60,
          "time": 31.02325581395354,
          "velocity": 0.4330708661417323,
          "duration": 0.058139534883725474
        },
        {
          "name": "G#4",
          "midi": 68,
          "time": 31.02325581395354,
          "velocity": 0.48031496062992124,
          "duration": 0.2209302325581497
        },
        {
          "name": "D5",
          "midi": 74,
          "time": 31.02325581395354,
          "velocity": 0.16535433070866143,
          "duration": 0.034883720930235285
        },
        {
          "name": "G5",
          "midi": 79,
          "time": 31.02325581395354,
          "velocity": 0.33858267716535434,
          "duration": 0.15116279069768268
        },
        {
          "name": "A5",
          "midi": 81,
          "time": 31.02325581395354,
          "velocity": 0.15748031496062992,
          "duration": 0.09302325581396076
        },
        {
          "name": "C#6",
          "midi": 85,
          "time": 31.02325581395354,
          "velocity": 0.33070866141732286,
          "duration": 0.09302325581396076
        },
        {
          "name": "E4",
          "midi": 64,
          "time": 31.034883720930285,
          "velocity": 0.31496062992125984,
          "duration": 0.02325581395349019
        },
        {
          "name": "C6",
          "midi": 84,
          "time": 31.034883720930285,
          "velocity": 0.25984251968503935,
          "duration": 0.02325581395349019
        },
        {
          "name": "D#6",
          "midi": 87,
          "time": 31.034883720930285,
          "velocity": 0.33070866141732286,
          "duration": 0.36046511627909084
        },
        {
          "name": "F#6",
          "midi": 90,
          "time": 31.04651162790703,
          "velocity": 0.25196850393700787,
          "duration": 0.058139534883725474
        },
        {
          "name": "G#6",
          "midi": 92,
          "time": 31.04651162790703,
          "velocity": 0.2677165354330709,
          "duration": 0.058139534883725474
        },
        {
          "name": "E7",
          "midi": 100,
          "time": 31.04651162790703,
          "velocity": 0.14173228346456693,
          "duration": 0.06976744186047057
        },
        {
          "name": "D#4",
          "midi": 63,
          "time": 31.058139534883775,
          "velocity": 0.4251968503937008,
          "duration": 0.1162790697674474
        },
        {
          "name": "F5",
          "midi": 77,
          "time": 31.058139534883775,
          "velocity": 0.11811023622047244,
          "duration": 0.04651162790698038
        },
        {
          "name": "B5",
          "midi": 83,
          "time": 31.058139534883775,
          "velocity": 0.2125984251968504,
          "duration": 0.034883720930235285
        },
        {
          "name": "E6",
          "midi": 88,
          "time": 31.058139534883775,
          "velocity": 0.2440944881889764,
          "duration": 0.058139534883725474
        },
        {
          "name": "A6",
          "midi": 93,
          "time": 31.058139534883775,
          "velocity": 0.30708661417322836,
          "duration": 0.058139534883725474
        },
        {
          "name": "A#6",
          "midi": 94,
          "time": 31.058139534883775,
          "velocity": 0.3464566929133858,
          "duration": 0.04651162790698038
        },
        {
          "name": "A#5",
          "midi": 82,
          "time": 31.081395348837265,
          "velocity": 0.1889763779527559,
          "duration": 0.034883720930235285
        },
        {
          "name": "C4",
          "midi": 60,
          "time": 31.09302325581401,
          "velocity": 0.3937007874015748,
          "duration": 0.15116279069767913
        },
        {
          "name": "C6",
          "midi": 84,
          "time": 31.104651162790756,
          "velocity": 0.12598425196850394,
          "duration": 0.034883720930235285
        },
        {
          "name": "D#4",
          "midi": 63,
          "time": 31.186046511627968,
          "velocity": 0.1889763779527559,
          "duration": 0.04651162790697683
        },
        {
          "name": "G#3",
          "midi": 56,
          "time": 31.24418604651169,
          "velocity": 0.3937007874015748,
          "duration": 0.058139534883725474
        },
        {
          "name": "D#5",
          "midi": 75,
          "time": 31.24418604651169,
          "velocity": 0.23622047244094488,
          "duration": 0.04651162790698038
        },
        {
          "name": "C#6",
          "midi": 85,
          "time": 31.24418604651169,
          "velocity": 0.2755905511811024,
          "duration": 0.13953488372094114
        },
        {
          "name": "F6",
          "midi": 89,
          "time": 31.24418604651169,
          "velocity": 0.1732283464566929,
          "duration": 0.058139534883725474
        },
        {
          "name": "A6",
          "midi": 93,
          "time": 31.24418604651169,
          "velocity": 0.2755905511811024,
          "duration": 0.09302325581396076
        },
        {
          "name": "E5",
          "midi": 76,
          "time": 31.255813953488435,
          "velocity": 0.16535433070866143,
          "duration": 0.058139534883725474
        },
        {
          "name": "C6",
          "midi": 84,
          "time": 31.255813953488435,
          "velocity": 0.2677165354330709,
          "duration": 0.08139534883721566
        },
        {
          "name": "F#6",
          "midi": 90,
          "time": 31.255813953488435,
          "velocity": 0.29133858267716534,
          "duration": 0.06976744186047057
        },
        {
          "name": "G#6",
          "midi": 92,
          "time": 31.255813953488435,
          "velocity": 0.2755905511811024,
          "duration": 0.09302325581396076
        },
        {
          "name": "B6",
          "midi": 95,
          "time": 31.255813953488435,
          "velocity": 0.2440944881889764,
          "duration": 0.08139534883721566
        },
        {
          "name": "D7",
          "midi": 98,
          "time": 31.255813953488435,
          "velocity": 0.1732283464566929,
          "duration": 0.06976744186047057
        },
        {
          "name": "E7",
          "midi": 100,
          "time": 31.255813953488435,
          "velocity": 0.14960629921259844,
          "duration": 0.08139534883721566
        },
        {
          "name": "G6",
          "midi": 91,
          "time": 31.26744186046518,
          "velocity": 0.2283464566929134,
          "duration": 0.06976744186047057
        },
        {
          "name": "F7",
          "midi": 101,
          "time": 31.26744186046518,
          "velocity": 0.1889763779527559,
          "duration": 0.06976744186047057
        },
        {
          "name": "D#4",
          "midi": 63,
          "time": 31.279069767441925,
          "velocity": 0.11023622047244094,
          "duration": 0.04651162790698038
        },
        {
          "name": "A5",
          "midi": 81,
          "time": 31.279069767441925,
          "velocity": 0.2047244094488189,
          "duration": 0.034883720930235285
        },
        {
          "name": "E6",
          "midi": 88,
          "time": 31.279069767441925,
          "velocity": 0.23622047244094488,
          "duration": 0.058139534883725474
        },
        {
          "name": "C7",
          "midi": 96,
          "time": 31.279069767441925,
          "velocity": 0.2677165354330709,
          "duration": 0.04651162790698038
        },
        {
          "name": "G#5",
          "midi": 80,
          "time": 31.29069767441867,
          "velocity": 0.23622047244094488,
          "duration": 0.04651162790698038
        },
        {
          "name": "G#3",
          "midi": 56,
          "time": 31.31395348837216,
          "velocity": 0.33858267716535434,
          "duration": 0.034883720930235285
        },
        {
          "name": "C4",
          "midi": 60,
          "time": 31.31395348837216,
          "velocity": 0.12598425196850394,
          "duration": 0.034883720930235285
        },
        {
          "name": "A#5",
          "midi": 82,
          "time": 31.31395348837216,
          "velocity": 0.2440944881889764,
          "duration": 0.37209302325583593
        },
        {
          "name": "F6",
          "midi": 89,
          "time": 31.31395348837216,
          "velocity": 0.18110236220472442,
          "duration": 0.034883720930235285
        },
        {
          "name": "F#3",
          "midi": 54,
          "time": 31.348837209302395,
          "velocity": 0.5433070866141733,
          "duration": 0.011627906976745095
        },
        {
          "name": "A#3",
          "midi": 58,
          "time": 31.348837209302395,
          "velocity": 0.4881889763779528,
          "duration": 0.02325581395349019
        },
        {
          "name": "F4",
          "midi": 65,
          "time": 31.348837209302395,
          "velocity": 0.3937007874015748,
          "duration": 0.02325581395349019
        },
        {
          "name": "E5",
          "midi": 76,
          "time": 31.348837209302395,
          "velocity": 0.2047244094488189,
          "duration": 0.034883720930235285
        },
        {
          "name": "B5",
          "midi": 83,
          "time": 31.348837209302395,
          "velocity": 0.2047244094488189,
          "duration": 0.034883720930235285
        },
        {
          "name": "D3",
          "midi": 50,
          "time": 31.36046511627914,
          "velocity": 0.6692913385826772,
          "duration": 0.02325581395349019
        },
        {
          "name": "F#5",
          "midi": 78,
          "time": 31.36046511627914,
          "velocity": 0.2755905511811024,
          "duration": 0.034883720930235285
        },
        {
          "name": "F6",
          "midi": 89,
          "time": 31.36046511627914,
          "velocity": 0.18110236220472442,
          "duration": 0.034883720930235285
        },
        {
          "name": "F#2",
          "midi": 42,
          "time": 31.372093023255886,
          "velocity": 0.7007874015748031,
          "duration": 0.011627906976745095
        },
        {
          "name": "C5",
          "midi": 72,
          "time": 31.372093023255886,
          "velocity": 0.3543307086614173,
          "duration": 0.30232558139536536
        },
        {
          "name": "G#6",
          "midi": 92,
          "time": 31.372093023255886,
          "velocity": 0.11811023622047244,
          "duration": 0.04651162790698038
        },
        {
          "name": "E7",
          "midi": 100,
          "time": 31.372093023255886,
          "velocity": 0.1968503937007874,
          "duration": 0.15116279069768268
        },
        {
          "name": "F7",
          "midi": 101,
          "time": 31.372093023255886,
          "velocity": 0.2047244094488189,
          "duration": 0.16279069767442778
        },
        {
          "name": "G7",
          "midi": 103,
          "time": 31.372093023255886,
          "velocity": 0.12598425196850394,
          "duration": 0.04651162790698038
        },
        {
          "name": "D2",
          "midi": 38,
          "time": 31.38372093023263,
          "velocity": 0.7165354330708661,
          "duration": 0.011627906976745095
        },
        {
          "name": "G3",
          "midi": 55,
          "time": 31.38372093023263,
          "velocity": 0.44881889763779526,
          "duration": 0.02325581395349019
        },
        {
          "name": "C4",
          "midi": 60,
          "time": 31.38372093023263,
          "velocity": 0.47244094488188976,
          "duration": 0.3837209302325775
        },
        {
          "name": "C#2",
          "midi": 37,
          "time": 31.395348837209376,
          "velocity": 0.7480314960629921,
          "duration": 0.011627906976745095
        },
        {
          "name": "D#4",
          "midi": 63,
          "time": 31.395348837209376,
          "velocity": 0.5118110236220472,
          "duration": 0.546511627906991
        },
        {
          "name": "G5",
          "midi": 79,
          "time": 31.395348837209376,
          "velocity": 0.28346456692913385,
          "duration": 0.04651162790698038
        },
        {
          "name": "B1",
          "midi": 35,
          "time": 31.40697674418612,
          "velocity": 0.7480314960629921,
          "duration": 0.011627906976745095
        },
        {
          "name": "G#3",
          "midi": 56,
          "time": 31.40697674418612,
          "velocity": 0.3937007874015748,
          "duration": 0.08139534883721566
        },
        {
          "name": "A#1",
          "midi": 34,
          "time": 31.418604651162866,
          "velocity": 0.7322834645669292,
          "duration": 0.011627906976745095
        },
        {
          "name": "D7",
          "midi": 98,
          "time": 31.418604651162866,
          "velocity": 0.1889763779527559,
          "duration": 0.1279069767441925
        },
        {
          "name": "A1",
          "midi": 33,
          "time": 31.43023255813961,
          "velocity": 0.7086614173228346,
          "duration": 0.02325581395349019
        },
        {
          "name": "G#6",
          "midi": 92,
          "time": 31.441860465116356,
          "velocity": 0.44881889763779526,
          "duration": 0.5930232558139537
        },
        {
          "name": "G#1",
          "midi": 32,
          "time": 31.4534883720931,
          "velocity": 0.6614173228346457,
          "duration": 0.02325581395349019
        },
        {
          "name": "G5",
          "midi": 79,
          "time": 31.4534883720931,
          "velocity": 0.36220472440944884,
          "duration": 0.02325581395349019
        },
        {
          "name": "C#7",
          "midi": 97,
          "time": 31.4534883720931,
          "velocity": 0.14173228346456693,
          "duration": 0.08139534883721211
        },
        {
          "name": "G#5",
          "midi": 80,
          "time": 31.465116279069846,
          "velocity": 0.33070866141732286,
          "duration": 0.02325581395349019
        },
        {
          "name": "E6",
          "midi": 88,
          "time": 31.465116279069846,
          "velocity": 0.2047244094488189,
          "duration": 0.1162790697674474
        },
        {
          "name": "G1",
          "midi": 31,
          "time": 31.47674418604659,
          "velocity": 0.7480314960629921,
          "duration": 0.13953488372093403
        },
        {
          "name": "C#6",
          "midi": 85,
          "time": 31.47674418604659,
          "velocity": 0.16535433070866143,
          "duration": 0.04651162790697683
        },
        {
          "name": "D#3",
          "midi": 51,
          "time": 31.488372093023337,
          "velocity": 0.3700787401574803,
          "duration": 0.04651162790697683
        },
        {
          "name": "G5",
          "midi": 79,
          "time": 31.488372093023337,
          "velocity": 0.3543307086614173,
          "duration": 0.06976744186046702
        },
        {
          "name": "G#2",
          "midi": 44,
          "time": 31.511627906976823,
          "velocity": 0.4251968503937008,
          "duration": 0.034883720930235285
        },
        {
          "name": "D#6",
          "midi": 87,
          "time": 31.52325581395357,
          "velocity": 0.28346456692913385,
          "duration": 0.13953488372093759
        },
        {
          "name": "D#3",
          "midi": 51,
          "time": 31.54651162790706,
          "velocity": 0.3937007874015748,
          "duration": 0.0930232558139572
        },
        {
          "name": "G#3",
          "midi": 56,
          "time": 31.54651162790706,
          "velocity": 0.30708661417322836,
          "duration": 0.02325581395349019
        },
        {
          "name": "F#5",
          "midi": 78,
          "time": 31.54651162790706,
          "velocity": 0.10236220472440945,
          "duration": 0.04651162790698038
        },
        {
          "name": "G#5",
          "midi": 80,
          "time": 31.54651162790706,
          "velocity": 0.4409448818897638,
          "duration": 0.46511627906976827
        },
        {
          "name": "F#6",
          "midi": 90,
          "time": 31.558139534883804,
          "velocity": 0.11023622047244094,
          "duration": 0.034883720930235285
        },
        {
          "name": "G6",
          "midi": 91,
          "time": 31.558139534883804,
          "velocity": 0.13385826771653545,
          "duration": 0.034883720930235285
        },
        {
          "name": "G#3",
          "midi": 56,
          "time": 31.59302325581404,
          "velocity": 0.3700787401574803,
          "duration": 0.0930232558139572
        },
        {
          "name": "G5",
          "midi": 79,
          "time": 31.59302325581404,
          "velocity": 0.23622047244094488,
          "duration": 0.03488372093023173
        },
        {
          "name": "G#1",
          "midi": 32,
          "time": 31.616279069767526,
          "velocity": 0.7165354330708661,
          "duration": 0.02325581395349019
        },
        {
          "name": "F#5",
          "midi": 78,
          "time": 31.616279069767526,
          "velocity": 0.18110236220472442,
          "duration": 0.08139534883721566
        },
        {
          "name": "A1",
          "midi": 33,
          "time": 31.639534883721016,
          "velocity": 0.6692913385826772,
          "duration": 0.02325581395349019
        },
        {
          "name": "D#3",
          "midi": 51,
          "time": 31.65116279069776,
          "velocity": 0.36220472440944884,
          "duration": 0.1046511627907023
        },
        {
          "name": "G#1",
          "midi": 32,
          "time": 31.662790697674506,
          "velocity": 0.6771653543307087,
          "duration": 0.34883720930232087
        },
        {
          "name": "D#6",
          "midi": 87,
          "time": 31.67441860465125,
          "velocity": 0.3543307086614173,
          "duration": 0.24418604651162923
        },
        {
          "name": "G#4",
          "midi": 68,
          "time": 31.69767441860474,
          "velocity": 0.4881889763779528,
          "duration": 0.24418604651162568
        },
        {
          "name": "A#5",
          "midi": 82,
          "time": 31.709302325581486,
          "velocity": 0.1968503937007874,
          "duration": 0.12790697674418539
        },
        {
          "name": "D#3",
          "midi": 51,
          "time": 31.76744186046521,
          "velocity": 0.3464566929133858,
          "duration": 0.023255813953486637
        },
        {
          "name": "D#3",
          "midi": 51,
          "time": 31.825581395348927,
          "velocity": 0.33070866141732286,
          "duration": 0.02325581395349019
        },
        {
          "name": "G#3",
          "midi": 56,
          "time": 31.872093023255903,
          "velocity": 0.2283464566929134,
          "duration": 0.023255813953486637
        },
        {
          "name": "C4",
          "midi": 60,
          "time": 31.872093023255903,
          "velocity": 0.1968503937007874,
          "duration": 0.12790697674418183
        },
        {
          "name": "A#4",
          "midi": 70,
          "time": 31.89534883720939,
          "velocity": 0.1732283464566929,
          "duration": 0.04651162790697683
        },
        {
          "name": "D#3",
          "midi": 51,
          "time": 31.906976744186135,
          "velocity": 0.5118110236220472,
          "duration": 0.11627906976743319
        },
        {
          "name": "A#4",
          "midi": 70,
          "time": 31.965116279069854,
          "velocity": 0.3228346456692913,
          "duration": 0.0813953488371979
        },
        {
          "name": "E5",
          "midi": 76,
          "time": 32.000000000000085,
          "velocity": 0.31496062992125984,
          "duration": 0.034883720930224626
        },
        {
          "name": "B5",
          "midi": 83,
          "time": 32.000000000000085,
          "velocity": 0.2992125984251969,
          "duration": 0.034883720930224626
        },
        {
          "name": "D6",
          "midi": 86,
          "time": 32.000000000000085,
          "velocity": 0.23622047244094488,
          "duration": 0.034883720930224626
        },
        {
          "name": "F#6",
          "midi": 90,
          "time": 32.000000000000085,
          "velocity": 0.2992125984251969,
          "duration": 0.023255813953483084
        },
        {
          "name": "G6",
          "midi": 91,
          "time": 32.000000000000085,
          "velocity": 0.36220472440944884,
          "duration": 0.0813953488371908
        },
        {
          "name": "C#7",
          "midi": 97,
          "time": 32.000000000000085,
          "velocity": 0.2283464566929134,
          "duration": 0.10465116279067388
        },
        {
          "name": "A1",
          "midi": 33,
          "time": 32.01162790697683,
          "velocity": 0.5905511811023622,
          "duration": 0.011627906976741542
        },
        {
          "name": "D5",
          "midi": 74,
          "time": 32.01162790697683,
          "velocity": 0.2992125984251969,
          "duration": 0.023255813953483084
        },
        {
          "name": "C#6",
          "midi": 85,
          "time": 32.01162790697683,
          "velocity": 0.3779527559055118,
          "duration": 0.04651162790696617
        },
        {
          "name": "F6",
          "midi": 89,
          "time": 32.01162790697683,
          "velocity": 0.2755905511811024,
          "duration": 0.06976744186044925
        },
        {
          "name": "G#1",
          "midi": 32,
          "time": 32.02325581395357,
          "velocity": 0.5275590551181102,
          "duration": 0.011627906976741542
        },
        {
          "name": "D3",
          "midi": 50,
          "time": 32.02325581395357,
          "velocity": 0.4645669291338583,
          "duration": 0.023255813953483084
        },
        {
          "name": "C4",
          "midi": 60,
          "time": 32.02325581395357,
          "velocity": 0.4330708661417323,
          "duration": 0.19767441860463464
        },
        {
          "name": "C#5",
          "midi": 73,
          "time": 32.02325581395357,
          "velocity": 0.3779527559055118,
          "duration": 0.05813953488370771
        },
        {
          "name": "F#5",
          "midi": 78,
          "time": 32.02325581395357,
          "velocity": 0.2677165354330709,
          "duration": 0.023255813953483084
        },
        {
          "name": "G#5",
          "midi": 80,
          "time": 32.02325581395357,
          "velocity": 0.3464566929133858,
          "duration": 0.023255813953483084
        },
        {
          "name": "D#6",
          "midi": 87,
          "time": 32.02325581395357,
          "velocity": 0.23622047244094488,
          "duration": 0.06976744186044925
        },
        {
          "name": "A6",
          "midi": 93,
          "time": 32.02325581395357,
          "velocity": 0.33858267716535434,
          "duration": 0.05813953488370771
        },
        {
          "name": "D7",
          "midi": 98,
          "time": 32.02325581395357,
          "velocity": 0.3228346456692913,
          "duration": 0.0813953488371908
        },
        {
          "name": "E7",
          "midi": 100,
          "time": 32.02325581395357,
          "velocity": 0.28346456692913385,
          "duration": 0.10465116279068098
        },
        {
          "name": "G1",
          "midi": 31,
          "time": 32.03488372093031,
          "velocity": 0.3858267716535433,
          "duration": 0.023255813953483084
        },
        {
          "name": "D#5",
          "midi": 75,
          "time": 32.03488372093031,
          "velocity": 0.23622047244094488,
          "duration": 0.034883720930224626
        },
        {
          "name": "D#3",
          "midi": 51,
          "time": 32.04651162790705,
          "velocity": 0.4094488188976378,
          "duration": 0.19767441860464174
        },
        {
          "name": "G4",
          "midi": 67,
          "time": 32.04651162790705,
          "velocity": 0.2047244094488189,
          "duration": 0.034883720930224626
        },
        {
          "name": "B4",
          "midi": 71,
          "time": 32.04651162790705,
          "velocity": 0.25984251968503935,
          "duration": 0.023255813953483084
        },
        {
          "name": "F5",
          "midi": 77,
          "time": 32.04651162790705,
          "velocity": 0.2283464566929134,
          "duration": 0.023255813953483084
        },
        {
          "name": "G5",
          "midi": 79,
          "time": 32.04651162790705,
          "velocity": 0.41732283464566927,
          "duration": 0.023255813953483084
        },
        {
          "name": "C6",
          "midi": 84,
          "time": 32.04651162790705,
          "velocity": 0.33858267716535434,
          "duration": 0.023255813953483084
        },
        {
          "name": "G#6",
          "midi": 92,
          "time": 32.04651162790705,
          "velocity": 0.3228346456692913,
          "duration": 0.24418604651161502
        },
        {
          "name": "A#4",
          "midi": 70,
          "time": 32.05813953488379,
          "velocity": 0.16535433070866143,
          "duration": 0.06976744186045636
        },
        {
          "name": "G#5",
          "midi": 80,
          "time": 32.069767441860535,
          "velocity": 0.36220472440944884,
          "duration": 0.33720930232556157
        },
        {
          "name": "D#5",
          "midi": 75,
          "time": 32.2209302325582,
          "velocity": 0.4015748031496063,
          "duration": 0.02325581395349019
        },
        {
          "name": "A#5",
          "midi": 82,
          "time": 32.2209302325582,
          "velocity": 0.25196850393700787,
          "duration": 0.19767441860463464
        },
        {
          "name": "G6",
          "midi": 91,
          "time": 32.2209302325582,
          "velocity": 0.11811023622047244,
          "duration": 0.03488372093023173
        },
        {
          "name": "A#6",
          "midi": 94,
          "time": 32.2209302325582,
          "velocity": 0.25984251968503935,
          "duration": 0.02325581395349019
        },
        {
          "name": "B6",
          "midi": 95,
          "time": 32.2209302325582,
          "velocity": 0.2047244094488189,
          "duration": 0.05813953488372192
        },
        {
          "name": "E5",
          "midi": 76,
          "time": 32.24418604651169,
          "velocity": 0.4251968503937008,
          "duration": 0.03488372093023173
        },
        {
          "name": "D4",
          "midi": 62,
          "time": 32.279069767441925,
          "velocity": 0.1889763779527559,
          "duration": 0.03488372093023173
        },
        {
          "name": "F5",
          "midi": 77,
          "time": 32.279069767441925,
          "velocity": 0.4251968503937008,
          "duration": 0.0813953488371979
        },
        {
          "name": "C7",
          "midi": 96,
          "time": 32.279069767441925,
          "velocity": 0.25196850393700787,
          "duration": 0.0813953488371979
        },
        {
          "name": "G5",
          "midi": 79,
          "time": 32.29069767441867,
          "velocity": 0.07086614173228346,
          "duration": 0.03488372093023173
        },
        {
          "name": "C#5",
          "midi": 73,
          "time": 32.3255813953489,
          "velocity": 0.4645669291338583,
          "duration": 0.034883720930224626
        },
        {
          "name": "D#6",
          "midi": 87,
          "time": 32.3255813953489,
          "velocity": 0.41732283464566927,
          "duration": 0.3720930232557791
        },
        {
          "name": "G6",
          "midi": 91,
          "time": 32.3255813953489,
          "velocity": 0.1968503937007874,
          "duration": 0.034883720930224626
        },
        {
          "name": "C4",
          "midi": 60,
          "time": 32.33720930232564,
          "velocity": 0.3700787401574803,
          "duration": 0.3139534883720714
        },
        {
          "name": "E4",
          "midi": 64,
          "time": 32.33720930232564,
          "velocity": 0.3543307086614173,
          "duration": 0.023255813953483084
        },
        {
          "name": "G#4",
          "midi": 68,
          "time": 32.34883720930238,
          "velocity": 0.6062992125984252,
          "duration": 0.24418604651161502
        },
        {
          "name": "D#4",
          "midi": 63,
          "time": 32.36046511627912,
          "velocity": 0.3937007874015748,
          "duration": 0.15116279069766847
        },
        {
          "name": "D5",
          "midi": 74,
          "time": 32.36046511627912,
          "velocity": 0.4645669291338583,
          "duration": 0.03488372093023173
        },
        {
          "name": "G5",
          "midi": 79,
          "time": 32.36046511627912,
          "velocity": 0.2204724409448819,
          "duration": 0.06976744186045636
        },
        {
          "name": "A6",
          "midi": 93,
          "time": 32.36046511627912,
          "velocity": 0.2677165354330709,
          "duration": 0.03488372093023173
        },
        {
          "name": "F#7",
          "midi": 102,
          "time": 32.36046511627912,
          "velocity": 0.14173228346456693,
          "duration": 0.03488372093023173
        },
        {
          "name": "D#5",
          "midi": 75,
          "time": 32.395348837209355,
          "velocity": 0.48031496062992124,
          "duration": 0.27906976744183964
        },
        {
          "name": "A#6",
          "midi": 94,
          "time": 32.395348837209355,
          "velocity": 0.28346456692913385,
          "duration": 0.27906976744183964
        },
        {
          "name": "G7",
          "midi": 103,
          "time": 32.395348837209355,
          "velocity": 0.15748031496062992,
          "duration": 0.27906976744183964
        },
        {
          "name": "F5",
          "midi": 77,
          "time": 32.406976744186096,
          "velocity": 0.1732283464566929,
          "duration": 0.081395348837205
        },
        {
          "name": "C5",
          "midi": 72,
          "time": 32.54651162790702,
          "velocity": 0.5511811023622047,
          "duration": 0.1627906976743958
        },
        {
          "name": "G6",
          "midi": 91,
          "time": 32.54651162790702,
          "velocity": 0.2047244094488189,
          "duration": 0.11627906976742963
        },
        {
          "name": "F5",
          "midi": 77,
          "time": 32.60465116279074,
          "velocity": 0.14173228346456693,
          "duration": 0.03488372093023173
        },
        {
          "name": "G#4",
          "midi": 68,
          "time": 32.65116279069771,
          "velocity": 0.3543307086614173,
          "duration": 0.034883720930224626
        },
        {
          "name": "B5",
          "midi": 83,
          "time": 32.65116279069771,
          "velocity": 0.2440944881889764,
          "duration": 0.034883720930224626
        },
        {
          "name": "F3",
          "midi": 53,
          "time": 32.66279069767445,
          "velocity": 0.6377952755905512,
          "duration": 0.034883720930224626
        },
        {
          "name": "C#6",
          "midi": 85,
          "time": 32.66279069767445,
          "velocity": 0.11811023622047244,
          "duration": 0.034883720930224626
        },
        {
          "name": "F6",
          "midi": 89,
          "time": 32.66279069767445,
          "velocity": 0.2440944881889764,
          "duration": 0.29069767441854566
        },
        {
          "name": "F#2",
          "midi": 42,
          "time": 32.674418604651194,
          "velocity": 0.7322834645669292,
          "duration": 0.011627906976741542
        },
        {
          "name": "A#4",
          "midi": 70,
          "time": 32.674418604651194,
          "velocity": 0.3228346456692913,
          "duration": 0.034883720930224626
        },
        {
          "name": "E5",
          "midi": 76,
          "time": 32.674418604651194,
          "velocity": 0.1889763779527559,
          "duration": 0.04651162790696617
        },
        {
          "name": "F5",
          "midi": 77,
          "time": 32.674418604651194,
          "velocity": 0.29133858267716534,
          "duration": 0.1627906976743816
        },
        {
          "name": "D6",
          "midi": 86,
          "time": 32.674418604651194,
          "velocity": 0.16535433070866143,
          "duration": 0.10465116279067388
        },
        {
          "name": "F2",
          "midi": 41,
          "time": 32.686046511627936,
          "velocity": 0.7952755905511811,
          "duration": 0.011627906976741542
        },
        {
          "name": "D2",
          "midi": 38,
          "time": 32.69767441860468,
          "velocity": 0.8031496062992126,
          "duration": 0.011627906976741542
        },
        {
          "name": "G#4",
          "midi": 68,
          "time": 32.69767441860468,
          "velocity": 0.29133858267716534,
          "duration": 0.023255813953483084
        },
        {
          "name": "C#5",
          "midi": 73,
          "time": 32.69767441860468,
          "velocity": 0.4094488188976378,
          "duration": 0.20930232558134776
        },
        {
          "name": "G#6",
          "midi": 92,
          "time": 32.69767441860468,
          "velocity": 0.25196850393700787,
          "duration": 0.20930232558134776
        },
        {
          "name": "C2",
          "midi": 36,
          "time": 32.70930232558142,
          "velocity": 0.8188976377952756,
          "duration": 0.011627906976741542
        },
        {
          "name": "C#4",
          "midi": 61,
          "time": 32.70930232558142,
          "velocity": 0.5275590551181102,
          "duration": 0.3023255813952943
        },
        {
          "name": "G7",
          "midi": 103,
          "time": 32.70930232558142,
          "velocity": 0.13385826771653545,
          "duration": 0.05813953488370771
        },
        {
          "name": "A#1",
          "midi": 34,
          "time": 32.72093023255816,
          "velocity": 0.8031496062992126,
          "duration": 0.023255813953483084
        },
        {
          "name": "F3",
          "midi": 53,
          "time": 32.72093023255816,
          "velocity": 0.36220472440944884,
          "duration": 0.023255813953483084
        },
        {
          "name": "A#4",
          "midi": 70,
          "time": 32.72093023255816,
          "velocity": 0.5039370078740157,
          "duration": 0.5697674418603782
        },
        {
          "name": "G#5",
          "midi": 80,
          "time": 32.72093023255816,
          "velocity": 0.2283464566929134,
          "duration": 0.04651162790696617
        },
        {
          "name": "F4",
          "midi": 65,
          "time": 32.7325581395349,
          "velocity": 0.5039370078740157,
          "duration": 0.39534883720924086
        },
        {
          "name": "C7",
          "midi": 96,
          "time": 32.7325581395349,
          "velocity": 0.1889763779527559,
          "duration": 0.18604651162786467
        },
        {
          "name": "D#7",
          "midi": 99,
          "time": 32.7325581395349,
          "velocity": 0.1732283464566929,
          "duration": 0.1627906976743816
        },
        {
          "name": "A1",
          "midi": 33,
          "time": 32.74418604651164,
          "velocity": 0.7637795275590551,
          "duration": 0.023255813953483084
        },
        {
          "name": "D#3",
          "midi": 51,
          "time": 32.74418604651164,
          "velocity": 0.23622047244094488,
          "duration": 0.023255813953483084
        },
        {
          "name": "A6",
          "midi": 93,
          "time": 32.74418604651164,
          "velocity": 0.30708661417322836,
          "duration": 0.11627906976741542
        },
        {
          "name": "D7",
          "midi": 98,
          "time": 32.755813953488385,
          "velocity": 0.16535433070866143,
          "duration": 0.0813953488371908
        },
        {
          "name": "G#1",
          "midi": 32,
          "time": 32.76744186046513,
          "velocity": 0.6850393700787402,
          "duration": 0.011627906976741542
        },
        {
          "name": "F3",
          "midi": 53,
          "time": 32.76744186046513,
          "velocity": 0.49606299212598426,
          "duration": 0.5465116279068951
        },
        {
          "name": "B6",
          "midi": 95,
          "time": 32.76744186046513,
          "velocity": 0.15748031496062992,
          "duration": 0.06976744186044925
        },
        {
          "name": "F#7",
          "midi": 102,
          "time": 32.76744186046513,
          "velocity": 0.14960629921259844,
          "duration": 0.06976744186044925
        },
        {
          "name": "G1",
          "midi": 31,
          "time": 32.77906976744187,
          "velocity": 0.6141732283464567,
          "duration": 0.011627906976741542
        },
        {
          "name": "G#5",
          "midi": 80,
          "time": 32.77906976744187,
          "velocity": 0.14960629921259844,
          "duration": 0.04651162790696617
        },
        {
          "name": "E1",
          "midi": 28,
          "time": 32.79069767441861,
          "velocity": 0.5590551181102362,
          "duration": 0.011627906976741542
        },
        {
          "name": "C6",
          "midi": 84,
          "time": 32.79069767441861,
          "velocity": 0.2047244094488189,
          "duration": 0.15116279069764715
        },
        {
          "name": "D6",
          "midi": 86,
          "time": 32.79069767441861,
          "velocity": 0.2283464566929134,
          "duration": 0.05813953488370771
        },
        {
          "name": "F1",
          "midi": 29,
          "time": 32.80232558139535,
          "velocity": 0.6377952755905512,
          "duration": 0.011627906976741542
        },
        {
          "name": "D#6",
          "midi": 87,
          "time": 32.80232558139535,
          "velocity": 0.1968503937007874,
          "duration": 0.1395348837209056
        },
        {
          "name": "G1",
          "midi": 31,
          "time": 32.81395348837209,
          "velocity": 0.7165354330708661,
          "duration": 0.011627906976741542
        },
        {
          "name": "G#1",
          "midi": 32,
          "time": 32.825581395348834,
          "velocity": 0.7637795275590551,
          "duration": 0.034883720930224626
        },
        {
          "name": "A1",
          "midi": 33,
          "time": 32.86046511627906,
          "velocity": 0.7244094488188977,
          "duration": 0.011627906976741542
        },
        {
          "name": "G#5",
          "midi": 80,
          "time": 32.86046511627906,
          "velocity": 0.33070866141732286,
          "duration": 0.27906976744182543
        },
        {
          "name": "A#1",
          "midi": 34,
          "time": 32.8720930232558,
          "velocity": 0.6692913385826772,
          "duration": 0.011627906976741542
        },
        {
          "name": "E6",
          "midi": 88,
          "time": 32.8720930232558,
          "velocity": 0.11811023622047244,
          "duration": 0.034883720930224626
        },
        {
          "name": "A6",
          "midi": 93,
          "time": 32.8720930232558,
          "velocity": 0.14960629921259844,
          "duration": 0.04651162790696617
        },
        {
          "name": "B1",
          "midi": 35,
          "time": 32.88372093023254,
          "velocity": 0.6062992125984252,
          "duration": 0.011627906976741542
        },
        {
          "name": "C2",
          "midi": 36,
          "time": 32.89534883720928,
          "velocity": 0.6535433070866141,
          "duration": 0.011627906976741542
        },
        {
          "name": "D6",
          "midi": 86,
          "time": 32.89534883720928,
          "velocity": 0.08661417322834646,
          "duration": 0.081395348837205
        },
        {
          "name": "A#1",
          "midi": 34,
          "time": 32.906976744186025,
          "velocity": 0.7086614173228346,
          "duration": 0.011627906976741542
        },
        {
          "name": "D5",
          "midi": 74,
          "time": 32.906976744186025,
          "velocity": 0.14960629921259844,
          "duration": 0.03488372093023173
        },
        {
          "name": "A1",
          "midi": 33,
          "time": 32.91860465116277,
          "velocity": 0.7480314960629921,
          "duration": 0.02325581395349019
        },
        {
          "name": "A#1",
          "midi": 34,
          "time": 32.94186046511626,
          "velocity": 0.7322834645669292,
          "duration": 0.3837209302325064
        },
        {
          "name": "A#3",
          "midi": 58,
          "time": 32.98837209302323,
          "velocity": 0.31496062992125984,
          "duration": 0.023255813953483084
        },
        {
          "name": "B5",
          "midi": 83,
          "time": 32.98837209302323,
          "velocity": 0.3779527559055118,
          "duration": 0.023255813953483084
        },
        {
          "name": "D#7",
          "midi": 99,
          "time": 32.98837209302323,
          "velocity": 0.18110236220472442,
          "duration": 0.034883720930224626
        },
        {
          "name": "E7",
          "midi": 100,
          "time": 32.98837209302323,
          "velocity": 0.15748031496062992,
          "duration": 0.06976744186044925
        },
        {
          "name": "F#7",
          "midi": 102,
          "time": 32.98837209302323,
          "velocity": 0.14173228346456693,
          "duration": 0.034883720930224626
        },
        {
          "name": "C6",
          "midi": 84,
          "time": 32.99999999999997,
          "velocity": 0.3858267716535433,
          "duration": 0.04651162790696617
        },
        {
          "name": "C4",
          "midi": 60,
          "time": 33.01162790697671,
          "velocity": 0.2755905511811024,
          "duration": 0.023255813953483084
        },
        {
          "name": "G6",
          "midi": 91,
          "time": 33.01162790697671,
          "velocity": 0.25196850393700787,
          "duration": 0.034883720930224626
        },
        {
          "name": "C5",
          "midi": 72,
          "time": 33.023255813953455,
          "velocity": 0.4409448818897638,
          "duration": 0.023255813953483084
        },
        {
          "name": "B5",
          "midi": 83,
          "time": 33.023255813953455,
          "velocity": 0.12598425196850394,
          "duration": 0.034883720930224626
        },
        {
          "name": "C#4",
          "midi": 61,
          "time": 33.034883720930196,
          "velocity": 0.4015748031496063,
          "duration": 0.1627906976744029
        },
        {
          "name": "F6",
          "midi": 89,
          "time": 33.034883720930196,
          "velocity": 0.2047244094488189,
          "duration": 0.081395348837205
        },
        {
          "name": "A#3",
          "midi": 58,
          "time": 33.04651162790694,
          "velocity": 0.2755905511811024,
          "duration": 0.03488372093023173
        },
        {
          "name": "C#5",
          "midi": 73,
          "time": 33.04651162790694,
          "velocity": 0.4566929133858268,
          "duration": 0.17441860465114445
        },
        {
          "name": "G#5",
          "midi": 80,
          "time": 33.18604651162786,
          "velocity": 0.11811023622047244,
          "duration": 0.034883720930224626
        },
        {
          "name": "A#3",
          "midi": 58,
          "time": 33.1976744186046,
          "velocity": 0.48031496062992124,
          "duration": 0.4534883720929628
        },
        {
          "name": "D7",
          "midi": 98,
          "time": 33.1976744186046,
          "velocity": 0.1968503937007874,
          "duration": 0.034883720930224626
        },
        {
          "name": "E7",
          "midi": 100,
          "time": 33.1976744186046,
          "velocity": 0.1968503937007874,
          "duration": 0.034883720930224626
        },
        {
          "name": "F#7",
          "midi": 102,
          "time": 33.1976744186046,
          "velocity": 0.18110236220472442,
          "duration": 0.04651162790696617
        },
        {
          "name": "F5",
          "midi": 77,
          "time": 33.20930232558134,
          "velocity": 0.30708661417322836,
          "duration": 0.10465116279068098
        },
        {
          "name": "C#5",
          "midi": 73,
          "time": 33.232558139534824,
          "velocity": 0.2125984251968504,
          "duration": 0.0813953488371979
        },
        {
          "name": "D#5",
          "midi": 75,
          "time": 33.2790697674418,
          "velocity": 0.2204724409448819,
          "duration": 0.034883720930224626
        },
        {
          "name": "C#6",
          "midi": 85,
          "time": 33.2790697674418,
          "velocity": 0.2283464566929134,
          "duration": 0.04651162790696617
        },
        {
          "name": "C5",
          "midi": 72,
          "time": 33.30232558139528,
          "velocity": 0.2992125984251969,
          "duration": 0.023255813953483084
        },
        {
          "name": "C6",
          "midi": 84,
          "time": 33.30232558139528,
          "velocity": 0.3700787401574803,
          "duration": 0.06976744186044925
        },
        {
          "name": "F6",
          "midi": 89,
          "time": 33.30232558139528,
          "velocity": 0.33070866141732286,
          "duration": 0.05813953488370771
        },
        {
          "name": "G#6",
          "midi": 92,
          "time": 33.30232558139528,
          "velocity": 0.4251968503937008,
          "duration": 0.034883720930224626
        },
        {
          "name": "C#7",
          "midi": 97,
          "time": 33.30232558139528,
          "velocity": 0.2755905511811024,
          "duration": 0.09302325581393234
        },
        {
          "name": "D#7",
          "midi": 99,
          "time": 33.30232558139528,
          "velocity": 0.2440944881889764,
          "duration": 0.11627906976741542
        },
        {
          "name": "E5",
          "midi": 76,
          "time": 33.31395348837202,
          "velocity": 0.31496062992125984,
          "duration": 0.023255813953483084
        },
        {
          "name": "G5",
          "midi": 79,
          "time": 33.31395348837202,
          "velocity": 0.3464566929133858,
          "duration": 0.04651162790696617
        },
        {
          "name": "B5",
          "midi": 83,
          "time": 33.31395348837202,
          "velocity": 0.30708661417322836,
          "duration": 0.034883720930224626
        },
        {
          "name": "D#6",
          "midi": 87,
          "time": 33.31395348837202,
          "velocity": 0.3228346456692913,
          "duration": 0.034883720930224626
        },
        {
          "name": "E6",
          "midi": 88,
          "time": 33.31395348837202,
          "velocity": 0.3700787401574803,
          "duration": 0.06976744186044925
        },
        {
          "name": "F#6",
          "midi": 90,
          "time": 33.31395348837202,
          "velocity": 0.2755905511811024,
          "duration": 0.023255813953483084
        },
        {
          "name": "A#6",
          "midi": 94,
          "time": 33.31395348837202,
          "velocity": 0.3779527559055118,
          "duration": 0.10465116279067388
        },
        {
          "name": "B6",
          "midi": 95,
          "time": 33.31395348837202,
          "velocity": 0.3858267716535433,
          "duration": 0.09302325581393234
        },
        {
          "name": "D7",
          "midi": 98,
          "time": 33.31395348837202,
          "velocity": 0.25196850393700787,
          "duration": 0.09302325581393234
        },
        {
          "name": "F#7",
          "midi": 102,
          "time": 33.31395348837202,
          "velocity": 0.31496062992125984,
          "duration": 0.10465116279067388
        },
        {
          "name": "G7",
          "midi": 103,
          "time": 33.31395348837202,
          "velocity": 0.3464566929133858,
          "duration": 0.10465116279067388
        },
        {
          "name": "B1",
          "midi": 35,
          "time": 33.32558139534876,
          "velocity": 0.5748031496062992,
          "duration": 0.023255813953483084
        },
        {
          "name": "D#5",
          "midi": 75,
          "time": 33.32558139534876,
          "velocity": 0.2755905511811024,
          "duration": 0.034883720930224626
        },
        {
          "name": "F5",
          "midi": 77,
          "time": 33.32558139534876,
          "velocity": 0.29133858267716534,
          "duration": 0.0813953488371908
        },
        {
          "name": "G#5",
          "midi": 80,
          "time": 33.32558139534876,
          "velocity": 0.36220472440944884,
          "duration": 0.023255813953483084
        },
        {
          "name": "D6",
          "midi": 86,
          "time": 33.32558139534876,
          "velocity": 0.3543307086614173,
          "duration": 0.023255813953483084
        },
        {
          "name": "A6",
          "midi": 93,
          "time": 33.32558139534876,
          "velocity": 0.3779527559055118,
          "duration": 0.06976744186044925
        },
        {
          "name": "C#4",
          "midi": 61,
          "time": 33.348837209302246,
          "velocity": 0.1732283464566929,
          "duration": 0.04651162790696617
        },
        {
          "name": "G4",
          "midi": 67,
          "time": 33.348837209302246,
          "velocity": 0.2204724409448819,
          "duration": 0.034883720930224626
        },
        {
          "name": "C#5",
          "midi": 73,
          "time": 33.348837209302246,
          "velocity": 0.4251968503937008,
          "duration": 0.19767441860462753
        },
        {
          "name": "A5",
          "midi": 81,
          "time": 33.348837209302246,
          "velocity": 0.25196850393700787,
          "duration": 0.034883720930224626
        },
        {
          "name": "F#6",
          "midi": 90,
          "time": 33.348837209302246,
          "velocity": 0.25984251968503935,
          "duration": 0.023255813953483084
        },
        {
          "name": "G#6",
          "midi": 92,
          "time": 33.348837209302246,
          "velocity": 0.3228346456692913,
          "duration": 0.023255813953483084
        },
        {
          "name": "G#5",
          "midi": 80,
          "time": 33.36046511627899,
          "velocity": 0.2755905511811024,
          "duration": 0.034883720930224626
        },
        {
          "name": "G6",
          "midi": 91,
          "time": 33.36046511627899,
          "velocity": 0.3228346456692913,
          "duration": 0.034883720930224626
        },
        {
          "name": "F7",
          "midi": 101,
          "time": 33.46511627906967,
          "velocity": 0.13385826771653545,
          "duration": 0.081395348837205
        },
        {
          "name": "F4",
          "midi": 65,
          "time": 33.52325581395339,
          "velocity": 0.4409448818897638,
          "duration": 0.12790697674417117
        },
        {
          "name": "G#4",
          "midi": 68,
          "time": 33.52325581395339,
          "velocity": 0.4015748031496063,
          "duration": 0.034883720930224626
        },
        {
          "name": "D#6",
          "midi": 87,
          "time": 33.52325581395339,
          "velocity": 0.2440944881889764,
          "duration": 0.04651162790696617
        },
        {
          "name": "E6",
          "midi": 88,
          "time": 33.52325581395339,
          "velocity": 0.2047244094488189,
          "duration": 0.05813953488370771
        },
        {
          "name": "F#6",
          "midi": 90,
          "time": 33.52325581395339,
          "velocity": 0.1968503937007874,
          "duration": 0.034883720930224626
        },
        {
          "name": "A6",
          "midi": 93,
          "time": 33.52325581395339,
          "velocity": 0.2204724409448819,
          "duration": 0.034883720930224626
        },
        {
          "name": "A#6",
          "midi": 94,
          "time": 33.52325581395339,
          "velocity": 0.14173228346456693,
          "duration": 0.034883720930224626
        },
        {
          "name": "C6",
          "midi": 84,
          "time": 33.53488372093013,
          "velocity": 0.29133858267716534,
          "duration": 0.1860465116278931
        },
        {
          "name": "A5",
          "midi": 81,
          "time": 33.546511627906874,
          "velocity": 0.3700787401574803,
          "duration": 0.04651162790696617
        },
        {
          "name": "A4",
          "midi": 69,
          "time": 33.558139534883615,
          "velocity": 0.4330708661417323,
          "duration": 0.034883720930224626
        },
        {
          "name": "C#5",
          "midi": 73,
          "time": 33.558139534883615,
          "velocity": 0.2204724409448819,
          "duration": 0.09302325581394655
        },
        {
          "name": "C#6",
          "midi": 85,
          "time": 33.5813953488371,
          "velocity": 0.2992125984251969,
          "duration": 0.09302325581395365
        },
        {
          "name": "F6",
          "midi": 89,
          "time": 33.5813953488371,
          "velocity": 0.2755905511811024,
          "duration": 0.23255813953487348
        },
        {
          "name": "A#4",
          "midi": 70,
          "time": 33.59302325581384,
          "velocity": 0.6062992125984252,
          "duration": 0.19767441860464174
        },
        {
          "name": "D7",
          "midi": 98,
          "time": 33.59302325581384,
          "velocity": 0.1732283464566929,
          "duration": 0.1046511627907023
        },
        {
          "name": "C#4",
          "midi": 61,
          "time": 33.65116279069756,
          "velocity": 0.4094488188976378,
          "duration": 0.09302325581394655
        },
        {
          "name": "F#4",
          "midi": 66,
          "time": 33.65116279069756,
          "velocity": 0.48031496062992124,
          "duration": 0.02325581395349019
        },
        {
          "name": "F4",
          "midi": 65,
          "time": 33.67441860465105,
          "velocity": 0.44881889763779526,
          "duration": 0.25581395348835656
        },
        {
          "name": "G4",
          "midi": 67,
          "time": 33.67441860465105,
          "velocity": 0.4330708661417323,
          "duration": 0.02325581395349019
        },
        {
          "name": "D6",
          "midi": 86,
          "time": 33.67441860465105,
          "velocity": 0.2677165354330709,
          "duration": 0.03488372093023173
        },
        {
          "name": "B6",
          "midi": 95,
          "time": 33.67441860465105,
          "velocity": 0.14173228346456693,
          "duration": 0.03488372093023173
        },
        {
          "name": "G#4",
          "midi": 68,
          "time": 33.69767441860454,
          "velocity": 0.4409448818897638,
          "duration": 0.1860465116278931
        },
        {
          "name": "D#7",
          "midi": 99,
          "time": 33.69767441860454,
          "velocity": 0.2204724409448819,
          "duration": 0.1860465116278931
        },
        {
          "name": "D#6",
          "midi": 87,
          "time": 33.709302325581284,
          "velocity": 0.2440944881889764,
          "duration": 0.23255813953486637
        },
        {
          "name": "F#7",
          "midi": 102,
          "time": 33.73255813953477,
          "velocity": 0.13385826771653545,
          "duration": 0.15116279069766847
        },
        {
          "name": "C#4",
          "midi": 61,
          "time": 33.77906976744174,
          "velocity": 0.1889763779527559,
          "duration": 0.11627906976743674
        },
        {
          "name": "C#6",
          "midi": 85,
          "time": 33.79069767441848,
          "velocity": 0.10236220472440945,
          "duration": 0.09302325581395365
        },
        {
          "name": "C#5",
          "midi": 73,
          "time": 33.83720930232546,
          "velocity": 0.49606299212598426,
          "duration": 0.15116279069765426
        },
        {
          "name": "F#5",
          "midi": 78,
          "time": 33.848837209302204,
          "velocity": 0.1732283464566929,
          "duration": 0.03488372093023173
        },
        {
          "name": "A#4",
          "midi": 70,
          "time": 33.872093023255694,
          "velocity": 0.2283464566929134,
          "duration": 0.0813953488371979
        },
        {
          "name": "G#4",
          "midi": 68,
          "time": 33.91860465116267,
          "velocity": 0.16535433070866143,
          "duration": 0.04651162790696617
        },
        {
          "name": "D#3",
          "midi": 51,
          "time": 33.96511627906963,
          "velocity": 0.6220472440944882,
          "duration": 0.011627906976741542
        },
        {
          "name": "F#5",
          "midi": 78,
          "time": 33.96511627906963,
          "velocity": 0.23622047244094488,
          "duration": 0.034883720930224626
        },
        {
          "name": "G#5",
          "midi": 80,
          "time": 33.96511627906963,
          "velocity": 0.2677165354330709,
          "duration": 0.06976744186044925
        },
        {
          "name": "A#5",
          "midi": 82,
          "time": 33.96511627906963,
          "velocity": 0.1889763779527559,
          "duration": 0.0813953488371908
        },
        {
          "name": "A2",
          "midi": 45,
          "time": 33.976744186046375,
          "velocity": 0.7401574803149606,
          "duration": 0.011627906976741542
        },
        {
          "name": "B4",
          "midi": 71,
          "time": 33.976744186046375,
          "velocity": 0.33070866141732286,
          "duration": 0.023255813953483084
        },
        {
          "name": "F#2",
          "midi": 42,
          "time": 33.988372093023116,
          "velocity": 0.7952755905511811,
          "duration": 0.011627906976741542
        },
        {
          "name": "E3",
          "midi": 52,
          "time": 33.988372093023116,
          "velocity": 0.5196850393700787,
          "duration": 0.011627906976741542
        },
        {
          "name": "A4",
          "midi": 69,
          "time": 33.988372093023116,
          "velocity": 0.2677165354330709,
          "duration": 0.023255813953483084
        },
        {
          "name": "F6",
          "midi": 89,
          "time": 33.988372093023116,
          "velocity": 0.10236220472440945,
          "duration": 0.034883720930224626
        },
        {
          "name": "D2",
          "midi": 38,
          "time": 33.99999999999986,
          "velocity": 0.7952755905511811,
          "duration": 0.011627906976741542
        },
        {
          "name": "F3",
          "midi": 53,
          "time": 33.99999999999986,
          "velocity": 0.5275590551181102,
          "duration": 0.25581395348832814
        },
        {
          "name": "C#4",
          "midi": 61,
          "time": 33.99999999999986,
          "velocity": 0.4409448818897638,
          "duration": 0.5116279069766634
        },
        {
          "name": "C2",
          "midi": 36,
          "time": 34.0116279069766,
          "velocity": 0.8110236220472441,
          "duration": 0.011627906976741542
        },
        {
          "name": "G#4",
          "midi": 68,
          "time": 34.0116279069766,
          "velocity": 0.3937007874015748,
          "duration": 0.2790697674418112
        },
        {
          "name": "G6",
          "midi": 91,
          "time": 34.0116279069766,
          "velocity": 0.2125984251968504,
          "duration": 0.09302325581393234
        },
        {
          "name": "B6",
          "midi": 95,
          "time": 34.0116279069766,
          "velocity": 0.1732283464566929,
          "duration": 0.06976744186044925
        },
        {
          "name": "A#1",
          "midi": 34,
          "time": 34.02325581395334,
          "velocity": 0.7952755905511811,
          "duration": 0.011627906976741542
        },
        {
          "name": "F5",
          "midi": 77,
          "time": 34.02325581395334,
          "velocity": 0.2047244094488189,
          "duration": 0.17441860465113024
        },
        {
          "name": "A1",
          "midi": 33,
          "time": 34.03488372093008,
          "velocity": 0.7795275590551181,
          "duration": 0.011627906976741542
        },
        {
          "name": "G5",
          "midi": 79,
          "time": 34.03488372093008,
          "velocity": 0.25984251968503935,
          "duration": 0.023255813953483084
        },
        {
          "name": "C6",
          "midi": 84,
          "time": 34.03488372093008,
          "velocity": 0.29133858267716534,
          "duration": 0.17441860465113024
        },
        {
          "name": "F6",
          "midi": 89,
          "time": 34.03488372093008,
          "velocity": 0.31496062992125984,
          "duration": 0.23255813953484505
        },
        {
          "name": "F#7",
          "midi": 102,
          "time": 34.03488372093008,
          "velocity": 0.1732283464566929,
          "duration": 0.06976744186044925
        },
        {
          "name": "G#1",
          "midi": 32,
          "time": 34.046511627906824,
          "velocity": 0.7637795275590551,
          "duration": 0.023255813953483084
        },
        {
          "name": "C5",
          "midi": 72,
          "time": 34.046511627906824,
          "velocity": 0.2992125984251969,
          "duration": 0.1627906976743887
        },
        {
          "name": "D#5",
          "midi": 75,
          "time": 34.046511627906824,
          "velocity": 0.29133858267716534,
          "duration": 0.1395348837209056
        },
        {
          "name": "G#5",
          "midi": 80,
          "time": 34.058139534883566,
          "velocity": 0.4566929133858268,
          "duration": 0.5581395348836438
        },
        {
          "name": "A1",
          "midi": 33,
          "time": 34.06976744186031,
          "velocity": 0.6771653543307087,
          "duration": 0.034883720930224626
        },
        {
          "name": "F#6",
          "midi": 90,
          "time": 34.06976744186031,
          "velocity": 0.11811023622047244,
          "duration": 0.05813953488370771
        },
        {
          "name": "D#7",
          "midi": 99,
          "time": 34.06976744186031,
          "velocity": 0.2992125984251969,
          "duration": 0.5697674418603853
        },
        {
          "name": "A5",
          "midi": 81,
          "time": 34.09302325581379,
          "velocity": 0.30708661417322836,
          "duration": 0.034883720930224626
        },
        {
          "name": "G#1",
          "midi": 32,
          "time": 34.10465116279053,
          "velocity": 0.6692913385826772,
          "duration": 0.011627906976741542
        },
        {
          "name": "E6",
          "midi": 88,
          "time": 34.10465116279053,
          "velocity": 0.07086614173228346,
          "duration": 0.06976744186045636
        },
        {
          "name": "G1",
          "midi": 31,
          "time": 34.11627906976727,
          "velocity": 0.7086614173228346,
          "duration": 0.011627906976741542
        },
        {
          "name": "F#1",
          "midi": 30,
          "time": 34.127906976744015,
          "velocity": 0.7559055118110236,
          "duration": 0.0813953488371979
        },
        {
          "name": "F#6",
          "midi": 90,
          "time": 34.151162790697505,
          "velocity": 0.11023622047244094,
          "duration": 0.05813953488370771
        },
        {
          "name": "C3",
          "midi": 48,
          "time": 34.16279069767425,
          "velocity": 0.4094488188976378,
          "duration": 0.3023255813953014
        },
        {
          "name": "F1",
          "midi": 29,
          "time": 34.20930232558121,
          "velocity": 0.7401574803149606,
          "duration": 0.046511627906973274
        },
        {
          "name": "D#5",
          "midi": 75,
          "time": 34.20930232558121,
          "velocity": 0.2755905511811024,
          "duration": 0.1627906976743887
        },
        {
          "name": "C5",
          "midi": 72,
          "time": 34.220930232557954,
          "velocity": 0.28346456692913385,
          "duration": 0.11627906976742253
        },
        {
          "name": "E1",
          "midi": 28,
          "time": 34.255813953488186,
          "velocity": 0.6692913385826772,
          "duration": 0.023255813953483084
        },
        {
          "name": "F3",
          "midi": 53,
          "time": 34.26744186046493,
          "velocity": 0.4409448818897638,
          "duration": 0.06976744186044925
        },
        {
          "name": "F1",
          "midi": 29,
          "time": 34.27906976744167,
          "velocity": 0.6614173228346457,
          "duration": 0.3488372093022818
        },
        {
          "name": "A#5",
          "midi": 82,
          "time": 34.29069767441841,
          "velocity": 0.09448818897637795,
          "duration": 0.034883720930224626
        },
        {
          "name": "G6",
          "midi": 91,
          "time": 34.29069767441841,
          "velocity": 0.14960629921259844,
          "duration": 0.05813953488370771
        },
        {
          "name": "A6",
          "midi": 93,
          "time": 34.29069767441841,
          "velocity": 0.18110236220472442,
          "duration": 0.034883720930224626
        },
        {
          "name": "G#4",
          "midi": 68,
          "time": 34.30232558139515,
          "velocity": 0.31496062992125984,
          "duration": 0.22093023255811062
        },
        {
          "name": "A3",
          "midi": 57,
          "time": 34.313953488371894,
          "velocity": 0.41732283464566927,
          "duration": 0.023255813953483084
        },
        {
          "name": "G3",
          "midi": 55,
          "time": 34.34883720930212,
          "velocity": 0.5275590551181102,
          "duration": 0.011627906976741542
        },
        {
          "name": "G#3",
          "midi": 56,
          "time": 34.36046511627886,
          "velocity": 0.49606299212598426,
          "duration": 0.023255813953483084
        },
        {
          "name": "G#3",
          "midi": 56,
          "time": 34.395348837209085,
          "velocity": 0.49606299212598426,
          "duration": 0.081395348837205
        },
        {
          "name": "F4",
          "midi": 65,
          "time": 34.418604651162575,
          "velocity": 0.2677165354330709,
          "duration": 0.19767441860463464
        },
        {
          "name": "G#3",
          "midi": 56,
          "time": 34.48837209302303,
          "velocity": 0.3779527559055118,
          "duration": 0.046511627906973274
        },
        {
          "name": "C3",
          "midi": 48,
          "time": 34.52325581395326,
          "velocity": 0.29133858267716534,
          "duration": 0.09302325581394655
        },
        {
          "name": "G#3",
          "midi": 56,
          "time": 34.546511627906746,
          "velocity": 0.29133858267716534,
          "duration": 0.02325581395349019
        },
        {
          "name": "C#4",
          "midi": 61,
          "time": 34.546511627906746,
          "velocity": 0.41732283464566927,
          "duration": 0.15116279069766136
        },
        {
          "name": "G#3",
          "midi": 56,
          "time": 34.58139534883698,
          "velocity": 0.29133858267716534,
          "duration": 0.046511627906973274
        },
        {
          "name": "A#5",
          "midi": 82,
          "time": 34.60465116279047,
          "velocity": 0.31496062992125984,
          "duration": 0.06976744186045636
        },
        {
          "name": "C6",
          "midi": 84,
          "time": 34.60465116279047,
          "velocity": 0.36220472440944884,
          "duration": 0.15116279069765426
        },
        {
          "name": "F#6",
          "midi": 90,
          "time": 34.60465116279047,
          "velocity": 0.31496062992125984,
          "duration": 0.09302325581393944
        },
        {
          "name": "G6",
          "midi": 91,
          "time": 34.60465116279047,
          "velocity": 0.3543307086614173,
          "duration": 0.09302325581393944
        },
        {
          "name": "A#4",
          "midi": 70,
          "time": 34.61627906976721,
          "velocity": 0.2677165354330709,
          "duration": 0.058139534883714816
        },
        {
          "name": "G5",
          "midi": 79,
          "time": 34.61627906976721,
          "velocity": 0.4094488188976378,
          "duration": 0.058139534883714816
        },
        {
          "name": "B5",
          "midi": 83,
          "time": 34.61627906976721,
          "velocity": 0.2755905511811024,
          "duration": 0.023255813953483084
        },
        {
          "name": "C#6",
          "midi": 85,
          "time": 34.61627906976721,
          "velocity": 0.3779527559055118,
          "duration": 0.058139534883714816
        },
        {
          "name": "E6",
          "midi": 88,
          "time": 34.61627906976721,
          "velocity": 0.2440944881889764,
          "duration": 0.09302325581393944
        },
        {
          "name": "F7",
          "midi": 101,
          "time": 34.61627906976721,
          "velocity": 0.23622047244094488,
          "duration": 0.10465116279068098
        },
        {
          "name": "F#1",
          "midi": 30,
          "time": 34.62790697674395,
          "velocity": 0.5511811023622047,
          "duration": 0.011627906976741542
        },
        {
          "name": "F4",
          "midi": 65,
          "time": 34.62790697674395,
          "velocity": 0.4015748031496063,
          "duration": 0.2906976744185812
        },
        {
          "name": "E5",
          "midi": 76,
          "time": 34.62790697674395,
          "velocity": 0.2992125984251969,
          "duration": 0.023255813953483084
        },
        {
          "name": "G#5",
          "midi": 80,
          "time": 34.62790697674395,
          "velocity": 0.30708661417322836,
          "duration": 0.023255813953483084
        },
        {
          "name": "D#6",
          "midi": 87,
          "time": 34.62790697674395,
          "velocity": 0.25984251968503935,
          "duration": 0.0813953488371979
        },
        {
          "name": "F6",
          "midi": 89,
          "time": 34.62790697674395,
          "velocity": 0.25196850393700787,
          "duration": 0.058139534883714816
        },
        {
          "name": "D7",
          "midi": 98,
          "time": 34.62790697674395,
          "velocity": 0.2755905511811024,
          "duration": 0.09302325581393944
        },
        {
          "name": "A6",
          "midi": 93,
          "time": 34.63953488372069,
          "velocity": 0.31496062992125984,
          "duration": 0.06976744186045636
        },
        {
          "name": "D#5",
          "midi": 75,
          "time": 34.651162790697434,
          "velocity": 0.2677165354330709,
          "duration": 0.03488372093023173
        },
        {
          "name": "D#7",
          "midi": 99,
          "time": 34.651162790697434,
          "velocity": 0.3228346456692913,
          "duration": 0.19767441860463464
        },
        {
          "name": "E7",
          "midi": 100,
          "time": 34.651162790697434,
          "velocity": 0.2992125984251969,
          "duration": 0.0813953488371979
        },
        {
          "name": "G#5",
          "midi": 80,
          "time": 34.674418604650924,
          "velocity": 0.3464566929133858,
          "duration": 0.2441860465116079
        },
        {
          "name": "A4",
          "midi": 69,
          "time": 34.825581395348586,
          "velocity": 0.33070866141732286,
          "duration": 0.04651162790696617
        },
        {
          "name": "D#6",
          "midi": 87,
          "time": 34.825581395348586,
          "velocity": 0.3228346456692913,
          "duration": 0.15116279069766136
        },
        {
          "name": "D#5",
          "midi": 75,
          "time": 34.83720930232533,
          "velocity": 0.4094488188976378,
          "duration": 0.023255813953483084
        },
        {
          "name": "B6",
          "midi": 95,
          "time": 34.83720930232533,
          "velocity": 0.2204724409448819,
          "duration": 0.058139534883714816
        },
        {
          "name": "E5",
          "midi": 76,
          "time": 34.86046511627881,
          "velocity": 0.4330708661417323,
          "duration": 0.03488372093023173
        },
        {
          "name": "G#4",
          "midi": 68,
          "time": 34.87209302325555,
          "velocity": 0.3464566929133858,
          "duration": 0.06976744186047057
        },
        {
          "name": "C#4",
          "midi": 61,
          "time": 34.89534883720904,
          "velocity": 0.07086614173228346,
          "duration": 0.04651162790698038
        },
        {
          "name": "F5",
          "midi": 77,
          "time": 34.89534883720904,
          "velocity": 0.4330708661417323,
          "duration": 0.09302325581394655
        },
        {
          "name": "C7",
          "midi": 96,
          "time": 34.89534883720904,
          "velocity": 0.25196850393700787,
          "duration": 0.06976744186046346
        },
        {
          "name": "C#5",
          "midi": 73,
          "time": 34.94186046511602,
          "velocity": 0.5590551181102362,
          "duration": 0.2093023255813833
        },
        {
          "name": "G#5",
          "midi": 80,
          "time": 34.94186046511602,
          "velocity": 0.1968503937007874,
          "duration": 0.1860465116278931
        },
        {
          "name": "F#4",
          "midi": 66,
          "time": 34.953488372092764,
          "velocity": 0.3700787401574803,
          "duration": 0.023255813953483084
        },
        {
          "name": "A#4",
          "midi": 70,
          "time": 34.953488372092764,
          "velocity": 0.30708661417322836,
          "duration": 0.023255813953483084
        },
        {
          "name": "G#3",
          "midi": 56,
          "time": 34.965116279069505,
          "velocity": 0.4330708661417323,
          "duration": 0.16279069767441
        },
        {
          "name": "F#7",
          "midi": 102,
          "time": 34.965116279069505,
          "velocity": 0.14960629921259844,
          "duration": 0.046511627906973274
        },
        {
          "name": "C6",
          "midi": 84,
          "time": 34.97674418604625,
          "velocity": 0.2755905511811024,
          "duration": 0.1046511627906952
        },
        {
          "name": "D6",
          "midi": 86,
          "time": 34.97674418604625,
          "velocity": 0.3858267716535433,
          "duration": 0.03488372093023173
        },
        {
          "name": "A6",
          "midi": 93,
          "time": 34.97674418604625,
          "velocity": 0.25984251968503935,
          "duration": 0.03488372093023173
        },
        {
          "name": "C#4",
          "midi": 61,
          "time": 34.98837209302299,
          "velocity": 0.3700787401574803,
          "duration": 0.16279069767441712
        },
        {
          "name": "F4",
          "midi": 65,
          "time": 34.98837209302299,
          "velocity": 0.3779527559055118,
          "duration": 0.04651162790698038
        },
        {
          "name": "D5",
          "midi": 74,
          "time": 34.98837209302299,
          "velocity": 0.4409448818897638,
          "duration": 0.02325581395349019
        },
        {
          "name": "D#5",
          "midi": 75,
          "time": 35.01162790697648,
          "velocity": 0.4881889763779528,
          "duration": 0.27906976744183254
        },
        {
          "name": "A#6",
          "midi": 94,
          "time": 35.01162790697648,
          "velocity": 0.2755905511811024,
          "duration": 0.27906976744183254
        },
        {
          "name": "G7",
          "midi": 103,
          "time": 35.01162790697648,
          "velocity": 0.1732283464566929,
          "duration": 0.27906976744183254
        },
        {
          "name": "F4",
          "midi": 65,
          "time": 35.04651162790671,
          "velocity": 0.25196850393700787,
          "duration": 0.11627906976743674
        },
        {
          "name": "G#5",
          "midi": 80,
          "time": 35.151162790697406,
          "velocity": 0.2992125984251969,
          "duration": 0.0813953488371979
        },
        {
          "name": "C#4",
          "midi": 61,
          "time": 35.16279069767415,
          "velocity": 0.4881889763779528,
          "duration": 0.11627906976742253
        },
        {
          "name": "F4",
          "midi": 65,
          "time": 35.17441860465089,
          "velocity": 0.14173228346456693,
          "duration": 0.06976744186045636
        },
        {
          "name": "F5",
          "midi": 77,
          "time": 35.22093023255786,
          "velocity": 0.1732283464566929,
          "duration": 0.034883720930224626
        },
        {
          "name": "F6",
          "midi": 89,
          "time": 35.244186046511345,
          "velocity": 0.2047244094488189,
          "duration": 0.09302325581393234
        },
        {
          "name": "E3",
          "midi": 52,
          "time": 35.26744186046483,
          "velocity": 0.5354330708661418,
          "duration": 0.011627906976741542
        },
        {
          "name": "A4",
          "midi": 69,
          "time": 35.26744186046483,
          "velocity": 0.25196850393700787,
          "duration": 0.023255813953483084
        },
        {
          "name": "G#5",
          "midi": 80,
          "time": 35.26744186046483,
          "velocity": 0.2047244094488189,
          "duration": 0.11627906976741542
        },
        {
          "name": "B5",
          "midi": 83,
          "time": 35.26744186046483,
          "velocity": 0.2677165354330709,
          "duration": 0.034883720930224626
        },
        {
          "name": "C3",
          "midi": 48,
          "time": 35.27906976744157,
          "velocity": 0.7165354330708661,
          "duration": 0.011627906976741542
        },
        {
          "name": "F4",
          "midi": 65,
          "time": 35.27906976744157,
          "velocity": 0.4094488188976378,
          "duration": 0.034883720930224626
        },
        {
          "name": "C5",
          "midi": 72,
          "time": 35.27906976744157,
          "velocity": 0.2677165354330709,
          "duration": 0.04651162790696617
        },
        {
          "name": "G#2",
          "midi": 44,
          "time": 35.29069767441831,
          "velocity": 0.7559055118110236,
          "duration": 0.011627906976741542
        },
        {
          "name": "A#5",
          "midi": 82,
          "time": 35.29069767441831,
          "velocity": 0.25196850393700787,
          "duration": 0.09302325581393234
        },
        {
          "name": "F2",
          "midi": 41,
          "time": 35.30232558139505,
          "velocity": 0.7716535433070866,
          "duration": 0.011627906976741542
        },
        {
          "name": "C#4",
          "midi": 61,
          "time": 35.30232558139505,
          "velocity": 0.5511811023622047,
          "duration": 0.6279069767441143
        },
        {
          "name": "B6",
          "midi": 95,
          "time": 35.30232558139505,
          "velocity": 0.13385826771653545,
          "duration": 0.05813953488370771
        },
        {
          "name": "D7",
          "midi": 98,
          "time": 35.30232558139505,
          "velocity": 0.14173228346456693,
          "duration": 0.15116279069764715
        },
        {
          "name": "E7",
          "midi": 100,
          "time": 35.30232558139505,
          "velocity": 0.07874015748031496,
          "duration": 0.0813953488371908
        },
        {
          "name": "C#2",
          "midi": 37,
          "time": 35.313953488371794,
          "velocity": 0.7874015748031497,
          "duration": 0.011627906976741542
        },
        {
          "name": "F#3",
          "midi": 54,
          "time": 35.313953488371794,
          "velocity": 0.49606299212598426,
          "duration": 0.023255813953483084
        },
        {
          "name": "A#4",
          "midi": 70,
          "time": 35.313953488371794,
          "velocity": 0.2677165354330709,
          "duration": 0.29069767441855987
        },
        {
          "name": "B1",
          "midi": 35,
          "time": 35.325581395348536,
          "velocity": 0.7874015748031497,
          "duration": 0.011627906976741542
        },
        {
          "name": "A1",
          "midi": 33,
          "time": 35.33720930232528,
          "velocity": 0.7795275590551181,
          "duration": 0.011627906976741542
        },
        {
          "name": "C#6",
          "midi": 85,
          "time": 35.33720930232528,
          "velocity": 0.4566929133858268,
          "duration": 0.5930232558138897
        },
        {
          "name": "G#1",
          "midi": 32,
          "time": 35.34883720930202,
          "velocity": 0.7795275590551181,
          "duration": 0.034883720930224626
        },
        {
          "name": "F7",
          "midi": 101,
          "time": 35.34883720930202,
          "velocity": 0.16535433070866143,
          "duration": 0.15116279069764715
        },
        {
          "name": "B5",
          "midi": 83,
          "time": 35.36046511627876,
          "velocity": 0.11023622047244094,
          "duration": 0.04651162790696617
        },
        {
          "name": "D#6",
          "midi": 87,
          "time": 35.36046511627876,
          "velocity": 0.09448818897637795,
          "duration": 0.034883720930224626
        },
        {
          "name": "F#3",
          "midi": 54,
          "time": 35.3720930232555,
          "velocity": 0.4645669291338583,
          "duration": 0.023255813953483084
        },
        {
          "name": "D6",
          "midi": 86,
          "time": 35.3720930232555,
          "velocity": 0.2204724409448819,
          "duration": 0.10465116279068098
        },
        {
          "name": "F#6",
          "midi": 90,
          "time": 35.3720930232555,
          "velocity": 0.16535433070866143,
          "duration": 0.04651162790696617
        },
        {
          "name": "F#7",
          "midi": 102,
          "time": 35.3720930232555,
          "velocity": 0.16535433070866143,
          "duration": 0.034883720930224626
        },
        {
          "name": "G1",
          "midi": 31,
          "time": 35.38372093023224,
          "velocity": 0.7559055118110236,
          "duration": 0.058139534883714816
        },
        {
          "name": "E6",
          "midi": 88,
          "time": 35.38372093023224,
          "velocity": 0.11811023622047244,
          "duration": 0.058139534883714816
        },
        {
          "name": "A#5",
          "midi": 82,
          "time": 35.395348837208985,
          "velocity": 0.28346456692913385,
          "duration": 0.20930232558136908
        },
        {
          "name": "F#3",
          "midi": 54,
          "time": 35.40697674418573,
          "velocity": 0.5039370078740157,
          "duration": 0.22093023255811062
        },
        {
          "name": "G#5",
          "midi": 80,
          "time": 35.41860465116247,
          "velocity": 0.3858267716535433,
          "duration": 0.23255813953485216
        },
        {
          "name": "F#1",
          "midi": 30,
          "time": 35.44186046511596,
          "velocity": 0.6299212598425197,
          "duration": 0.04651162790696617
        },
        {
          "name": "B6",
          "midi": 95,
          "time": 35.4534883720927,
          "velocity": 0.1889763779527559,
          "duration": 0.05813953488370771
        },
        {
          "name": "F#6",
          "midi": 90,
          "time": 35.46511627906944,
          "velocity": 0.1968503937007874,
          "duration": 0.09302325581393944
        },
        {
          "name": "F1",
          "midi": 29,
          "time": 35.488372093022925,
          "velocity": 0.6299212598425197,
          "duration": 0.0813953488371979
        },
        {
          "name": "D6",
          "midi": 86,
          "time": 35.488372093022925,
          "velocity": 0.2047244094488189,
          "duration": 0.11627906976742963
        },
        {
          "name": "E5",
          "midi": 76,
          "time": 35.52325581395315,
          "velocity": 0.11023622047244094,
          "duration": 0.03488372093023173
        },
        {
          "name": "F#1",
          "midi": 30,
          "time": 35.56976744186012,
          "velocity": 0.6771653543307087,
          "duration": 0.3720930232557862
        },
        {
          "name": "B5",
          "midi": 83,
          "time": 35.56976744186012,
          "velocity": 0.3779527559055118,
          "duration": 0.0813953488371979
        },
        {
          "name": "A4",
          "midi": 69,
          "time": 35.604651162790354,
          "velocity": 0.28346456692913385,
          "duration": 0.023255813953483084
        },
        {
          "name": "D#7",
          "midi": 99,
          "time": 35.604651162790354,
          "velocity": 0.14960629921259844,
          "duration": 0.034883720930224626
        },
        {
          "name": "G6",
          "midi": 91,
          "time": 35.616279069767096,
          "velocity": 0.2283464566929134,
          "duration": 0.04651162790696617
        },
        {
          "name": "C5",
          "midi": 72,
          "time": 35.62790697674384,
          "velocity": 0.4881889763779528,
          "duration": 0.034883720930224626
        },
        {
          "name": "A#3",
          "midi": 58,
          "time": 35.63953488372058,
          "velocity": 0.44881889763779526,
          "duration": 0.04651162790696617
        },
        {
          "name": "E7",
          "midi": 100,
          "time": 35.63953488372058,
          "velocity": 0.14173228346456693,
          "duration": 0.034883720930224626
        },
        {
          "name": "F#3",
          "midi": 54,
          "time": 35.66279069767406,
          "velocity": 0.3700787401574803,
          "duration": 0.12790697674417828
        },
        {
          "name": "D#5",
          "midi": 75,
          "time": 35.66279069767406,
          "velocity": 0.13385826771653545,
          "duration": 0.034883720930224626
        },
        {
          "name": "G#6",
          "midi": 92,
          "time": 35.66279069767406,
          "velocity": 0.25984251968503935,
          "duration": 0.17441860465115155
        },
        {
          "name": "F7",
          "midi": 101,
          "time": 35.6744186046508,
          "velocity": 0.18110236220472442,
          "duration": 0.17441860465115155
        },
        {
          "name": "A#3",
          "midi": 58,
          "time": 35.72093023255778,
          "velocity": 0.30708661417322836,
          "duration": 0.046511627906973274
        },
        {
          "name": "D#5",
          "midi": 75,
          "time": 35.76744186046475,
          "velocity": 0.2755905511811024,
          "duration": 0.16279069767441712
        },
        {
          "name": "F#3",
          "midi": 54,
          "time": 35.80232558139498,
          "velocity": 0.29133858267716534,
          "duration": 0.09302325581395365
        },
        {
          "name": "A#4",
          "midi": 70,
          "time": 35.80232558139498,
          "velocity": 0.5905511811023622,
          "duration": 0.12790697674418539
        },
        {
          "name": "F#7",
          "midi": 102,
          "time": 35.81395348837172,
          "velocity": 0.1968503937007874,
          "duration": 0.03488372093023173
        },
        {
          "name": "F6",
          "midi": 89,
          "time": 35.872093023255445,
          "velocity": 0.3543307086614173,
          "duration": 0.12790697674417117
        },
        {
          "name": "C5",
          "midi": 72,
          "time": 35.918604651162426,
          "velocity": 0.2992125984251969,
          "duration": 0.023255813953483084
        },
        {
          "name": "B5",
          "midi": 83,
          "time": 35.918604651162426,
          "velocity": 0.31496062992125984,
          "duration": 0.04651162790696617
        },
        {
          "name": "G#6",
          "midi": 92,
          "time": 35.918604651162426,
          "velocity": 0.4409448818897638,
          "duration": 0.2441860465115937
        },
        {
          "name": "D#7",
          "midi": 99,
          "time": 35.918604651162426,
          "velocity": 0.30708661417322836,
          "duration": 0.11627906976741542
        },
        {
          "name": "F#7",
          "midi": 102,
          "time": 35.918604651162426,
          "velocity": 0.3464566929133858,
          "duration": 0.11627906976741542
        },
        {
          "name": "A#3",
          "midi": 58,
          "time": 35.93023255813917,
          "velocity": 0.14173228346456693,
          "duration": 0.04651162790696617
        },
        {
          "name": "C#5",
          "midi": 73,
          "time": 35.93023255813917,
          "velocity": 0.4251968503937008,
          "duration": 0.22093023255811062
        },
        {
          "name": "E5",
          "midi": 76,
          "time": 35.93023255813917,
          "velocity": 0.31496062992125984,
          "duration": 0.023255813953483084
        },
        {
          "name": "G5",
          "midi": 79,
          "time": 35.93023255813917,
          "velocity": 0.25984251968503935,
          "duration": 0.023255813953483084
        },
        {
          "name": "A#5",
          "midi": 82,
          "time": 35.93023255813917,
          "velocity": 0.2204724409448819,
          "duration": 0.04651162790696617
        },
        {
          "name": "C6",
          "midi": 84,
          "time": 35.93023255813917,
          "velocity": 0.3779527559055118,
          "duration": 0.023255813953483084
        },
        {
          "name": "D#6",
          "midi": 87,
          "time": 35.93023255813917,
          "velocity": 0.3228346456692913,
          "duration": 0.09302325581393234
        },
        {
          "name": "F#6",
          "midi": 90,
          "time": 35.93023255813917,
          "velocity": 0.30708661417322836,
          "duration": 0.05813953488370771
        },
        {
          "name": "G6",
          "midi": 91,
          "time": 35.93023255813917,
          "velocity": 0.3700787401574803,
          "duration": 0.0813953488371908
        },
        {
          "name": "A6",
          "midi": 93,
          "time": 35.93023255813917,
          "velocity": 0.44881889763779526,
          "duration": 0.10465116279067388
        },
        {
          "name": "A#6",
          "midi": 94,
          "time": 35.93023255813917,
          "velocity": 0.31496062992125984,
          "duration": 0.09302325581393234
        },
        {
          "name": "D7",
          "midi": 98,
          "time": 35.93023255813917,
          "velocity": 0.3228346456692913,
          "duration": 0.09302325581393234
        },
        {
          "name": "E7",
          "midi": 100,
          "time": 35.93023255813917,
          "velocity": 0.3543307086614173,
          "duration": 0.10465116279067388
        },
        {
          "name": "A#1",
          "midi": 34,
          "time": 35.94186046511591,
          "velocity": 0.5196850393700787,
          "duration": 0.011627906976741542
        },
        {
          "name": "G4",
          "midi": 67,
          "time": 35.94186046511591,
          "velocity": 0.2125984251968504,
          "duration": 0.05813953488370771
        },
        {
          "name": "B4",
          "midi": 71,
          "time": 35.94186046511591,
          "velocity": 0.29133858267716534,
          "duration": 0.023255813953483084
        },
        {
          "name": "G#5",
          "midi": 80,
          "time": 35.94186046511591,
          "velocity": 0.33858267716535434,
          "duration": 0.023255813953483084
        },
        {
          "name": "D#5",
          "midi": 75,
          "time": 35.95348837209265,
          "velocity": 0.2440944881889764,
          "duration": 0.023255813953483084
        },
        {
          "name": "E6",
          "midi": 88,
          "time": 35.95348837209265,
          "velocity": 0.23622047244094488,
          "duration": 0.05813953488370771
        },
        {
          "name": "C6",
          "midi": 84,
          "time": 35.96511627906939,
          "velocity": 0.36220472440944884,
          "duration": 0.034883720930224626
        },
        {
          "name": "G#5",
          "midi": 80,
          "time": 35.97674418604613,
          "velocity": 0.25196850393700787,
          "duration": 0.034883720930224626
        },
        {
          "name": "B5",
          "midi": 83,
          "time": 35.97674418604613,
          "velocity": 0.15748031496062992,
          "duration": 0.04651162790696617
        },
        {
          "name": "F7",
          "midi": 101,
          "time": 36.06976744186007,
          "velocity": 0.11811023622047244,
          "duration": 0.09302325581394655
        },
        {
          "name": "F#4",
          "midi": 66,
          "time": 36.139534883720536,
          "velocity": 0.3937007874015748,
          "duration": 0.0813953488371979
        },
        {
          "name": "G#4",
          "midi": 68,
          "time": 36.139534883720536,
          "velocity": 0.3858267716535433,
          "duration": 0.023255813953483084
        },
        {
          "name": "D#6",
          "midi": 87,
          "time": 36.139534883720536,
          "velocity": 0.2283464566929134,
          "duration": 0.023255813953483084
        },
        {
          "name": "A#6",
          "midi": 94,
          "time": 36.139534883720536,
          "velocity": 0.1732283464566929,
          "duration": 0.034883720930224626
        },
        {
          "name": "C7",
          "midi": 96,
          "time": 36.139534883720536,
          "velocity": 0.1889763779527559,
          "duration": 0.034883720930224626
        },
        {
          "name": "A4",
          "midi": 69,
          "time": 36.16279069767402,
          "velocity": 0.4409448818897638,
          "duration": 0.03488372093023173
        },
        {
          "name": "C#5",
          "midi": 73,
          "time": 36.16279069767402,
          "velocity": 0.1889763779527559,
          "duration": 0.11627906976742963
        },
        {
          "name": "E6",
          "midi": 88,
          "time": 36.16279069767402,
          "velocity": 0.2125984251968504,
          "duration": 0.03488372093023173
        },
        {
          "name": "A#4",
          "midi": 70,
          "time": 36.19767441860425,
          "velocity": 0.44881889763779526,
          "duration": 0.06976744186045636
        },
        {
          "name": "F6",
          "midi": 89,
          "time": 36.19767441860425,
          "velocity": 0.2283464566929134,
          "duration": 0.09302325581393944
        },
        {
          "name": "D7",
          "midi": 98,
          "time": 36.20930232558099,
          "velocity": 0.16535433070866143,
          "duration": 0.10465116279068098
        },
        {
          "name": "F4",
          "midi": 65,
          "time": 36.220930232557734,
          "velocity": 0.2283464566929134,
          "duration": 0.03488372093023173
        },
        {
          "name": "G#5",
          "midi": 80,
          "time": 36.244186046511224,
          "velocity": 0.30708661417322836,
          "duration": 0.04651162790696617
        },
        {
          "name": "G4",
          "midi": 67,
          "time": 36.255813953487966,
          "velocity": 0.3858267716535433,
          "duration": 0.023255813953483084
        },
        {
          "name": "F#5",
          "midi": 78,
          "time": 36.255813953487966,
          "velocity": 0.3937007874015748,
          "duration": 0.023255813953483084
        },
        {
          "name": "B5",
          "midi": 83,
          "time": 36.255813953487966,
          "velocity": 0.14960629921259844,
          "duration": 0.034883720930224626
        },
        {
          "name": "C#4",
          "midi": 61,
          "time": 36.26744186046471,
          "velocity": 0.5511811023622047,
          "duration": 0.19767441860463464
        },
        {
          "name": "D6",
          "midi": 86,
          "time": 36.26744186046471,
          "velocity": 0.2677165354330709,
          "duration": 0.04651162790696617
        },
        {
          "name": "A#4",
          "midi": 70,
          "time": 36.27906976744145,
          "velocity": 0.2440944881889764,
          "duration": 0.023255813953483084
        },
        {
          "name": "G5",
          "midi": 79,
          "time": 36.27906976744145,
          "velocity": 0.4330708661417323,
          "duration": 0.034883720930224626
        },
        {
          "name": "E7",
          "midi": 100,
          "time": 36.27906976744145,
          "velocity": 0.11023622047244094,
          "duration": 0.034883720930224626
        },
        {
          "name": "G4",
          "midi": 67,
          "time": 36.29069767441819,
          "velocity": 0.5039370078740157,
          "duration": 0.023255813953483084
        },
        {
          "name": "F5",
          "midi": 77,
          "time": 36.29069767441819,
          "velocity": 0.2125984251968504,
          "duration": 0.19767441860463464
        },
        {
          "name": "B6",
          "midi": 95,
          "time": 36.29069767441819,
          "velocity": 0.15748031496062992,
          "duration": 0.034883720930224626
        },
        {
          "name": "G#4",
          "midi": 68,
          "time": 36.31395348837167,
          "velocity": 0.4409448818897638,
          "duration": 0.19767441860463464
        },
        {
          "name": "D#6",
          "midi": 87,
          "time": 36.31395348837167,
          "velocity": 0.25196850393700787,
          "duration": 0.1860465116278931
        },
        {
          "name": "C7",
          "midi": 96,
          "time": 36.325581395348415,
          "velocity": 0.2047244094488189,
          "duration": 0.17441860465115155
        },
        {
          "name": "F#7",
          "midi": 102,
          "time": 36.33720930232516,
          "velocity": 0.12598425196850394,
          "duration": 0.16279069767441
        },
        {
          "name": "A#3",
          "midi": 58,
          "time": 36.37209302325539,
          "velocity": 0.2755905511811024,
          "duration": 0.03488372093023173
        },
        {
          "name": "A#3",
          "midi": 58,
          "time": 36.47674418604608,
          "velocity": 0.44881889763779526,
          "duration": 0.10465116279068809
        },
        {
          "name": "F5",
          "midi": 77,
          "time": 36.49999999999957,
          "velocity": 0.29133858267716534,
          "duration": 0.15116279069765426
        },
        {
          "name": "C3",
          "midi": 48,
          "time": 36.58139534883677,
          "velocity": 0.6771653543307087,
          "duration": 0.011627906976741542
        },
        {
          "name": "B4",
          "midi": 71,
          "time": 36.58139534883677,
          "velocity": 0.33070866141732286,
          "duration": 0.034883720930224626
        },
        {
          "name": "G#5",
          "midi": 80,
          "time": 36.58139534883677,
          "velocity": 0.2755905511811024,
          "duration": 0.20930232558134776
        },
        {
          "name": "D#6",
          "midi": 87,
          "time": 36.58139534883677,
          "velocity": 0.23622047244094488,
          "duration": 0.29069767441853855
        },
        {
          "name": "A2",
          "midi": 45,
          "time": 36.59302325581351,
          "velocity": 0.7637795275590551,
          "duration": 0.011627906976741542
        },
        {
          "name": "F4",
          "midi": 65,
          "time": 36.59302325581351,
          "velocity": 0.33070866141732286,
          "duration": 0.05813953488370771
        },
        {
          "name": "F2",
          "midi": 41,
          "time": 36.604651162790255,
          "velocity": 0.7952755905511811,
          "duration": 0.011627906976741542
        },
        {
          "name": "G#4",
          "midi": 68,
          "time": 36.604651162790255,
          "velocity": 0.2204724409448819,
          "duration": 0.04651162790696617
        },
        {
          "name": "D2",
          "midi": 38,
          "time": 36.616279069766996,
          "velocity": 0.8110236220472441,
          "duration": 0.011627906976741542
        },
        {
          "name": "F3",
          "midi": 53,
          "time": 36.616279069766996,
          "velocity": 0.44881889763779526,
          "duration": 0.034883720930224626
        },
        {
          "name": "C#4",
          "midi": 61,
          "time": 36.616279069766996,
          "velocity": 0.23622047244094488,
          "duration": 0.05813953488370771
        },
        {
          "name": "C5",
          "midi": 72,
          "time": 36.616279069766996,
          "velocity": 0.2755905511811024,
          "duration": 0.04651162790696617
        },
        {
          "name": "B1",
          "midi": 35,
          "time": 36.62790697674374,
          "velocity": 0.8110236220472441,
          "duration": 0.011627906976741542
        },
        {
          "name": "C#6",
          "midi": 85,
          "time": 36.62790697674374,
          "velocity": 0.2204724409448819,
          "duration": 0.034883720930224626
        },
        {
          "name": "C7",
          "midi": 96,
          "time": 36.62790697674374,
          "velocity": 0.09448818897637795,
          "duration": 0.034883720930224626
        },
        {
          "name": "A1",
          "midi": 33,
          "time": 36.63953488372048,
          "velocity": 0.7952755905511811,
          "duration": 0.023255813953483084
        },
        {
          "name": "F#7",
          "midi": 102,
          "time": 36.65116279069722,
          "velocity": 0.09448818897637795,
          "duration": 0.04651162790696617
        },
        {
          "name": "G#1",
          "midi": 32,
          "time": 36.66279069767396,
          "velocity": 0.7559055118110236,
          "duration": 0.023255813953483084
        },
        {
          "name": "G#4",
          "midi": 68,
          "time": 36.66279069767396,
          "velocity": 0.4251968503937008,
          "duration": 0.37209302325574356
        },
        {
          "name": "C#5",
          "midi": 73,
          "time": 36.66279069767396,
          "velocity": 0.3779527559055118,
          "duration": 0.2558139534883139
        },
        {
          "name": "F5",
          "midi": 77,
          "time": 36.66279069767396,
          "velocity": 0.2440944881889764,
          "duration": 0.17441860465112313
        },
        {
          "name": "B6",
          "midi": 95,
          "time": 36.66279069767396,
          "velocity": 0.14173228346456693,
          "duration": 0.04651162790696617
        },
        {
          "name": "F3",
          "midi": 53,
          "time": 36.674418604650704,
          "velocity": 0.36220472440944884,
          "duration": 0.023255813953483084
        },
        {
          "name": "E6",
          "midi": 88,
          "time": 36.674418604650704,
          "velocity": 0.07874015748031496,
          "duration": 0.05813953488370771
        },
        {
          "name": "A1",
          "midi": 33,
          "time": 36.686046511627445,
          "velocity": 0.6692913385826772,
          "duration": 0.011627906976741542
        },
        {
          "name": "C#4",
          "midi": 61,
          "time": 36.686046511627445,
          "velocity": 0.25196850393700787,
          "duration": 0.023255813953483084
        },
        {
          "name": "F6",
          "midi": 89,
          "time": 36.686046511627445,
          "velocity": 0.2677165354330709,
          "duration": 0.19767441860460622
        },
        {
          "name": "E7",
          "midi": 100,
          "time": 36.686046511627445,
          "velocity": 0.10236220472440945,
          "duration": 0.06976744186044925
        },
        {
          "name": "A#1",
          "midi": 34,
          "time": 36.69767441860419,
          "velocity": 0.6062992125984252,
          "duration": 0.011627906976741542
        },
        {
          "name": "D#5",
          "midi": 75,
          "time": 36.69767441860419,
          "velocity": 0.36220472440944884,
          "duration": 0.2558139534883139
        },
        {
          "name": "C6",
          "midi": 84,
          "time": 36.69767441860419,
          "velocity": 0.1889763779527559,
          "duration": 0.20930232558134776
        },
        {
          "name": "G7",
          "midi": 103,
          "time": 36.69767441860419,
          "velocity": 0.11023622047244094,
          "duration": 0.04651162790696617
        },
        {
          "name": "G#1",
          "midi": 32,
          "time": 36.70930232558093,
          "velocity": 0.6771653543307087,
          "duration": 0.023255813953483084
        },
        {
          "name": "F3",
          "midi": 53,
          "time": 36.70930232558093,
          "velocity": 0.4566929133858268,
          "duration": 0.0813953488371908
        },
        {
          "name": "C#4",
          "midi": 61,
          "time": 36.72093023255767,
          "velocity": 0.2992125984251969,
          "duration": 0.09302325581393234
        },
        {
          "name": "G1",
          "midi": 31,
          "time": 36.73255813953441,
          "velocity": 0.7086614173228346,
          "duration": 0.011627906976741542
        },
        {
          "name": "F#1",
          "midi": 30,
          "time": 36.74418604651115,
          "velocity": 0.7480314960629921,
          "duration": 0.0813953488371908
        },
        {
          "name": "C5",
          "midi": 72,
          "time": 36.767441860464636,
          "velocity": 0.16535433070866143,
          "duration": 0.034883720930224626
        },
        {
          "name": "F#6",
          "midi": 90,
          "time": 36.767441860464636,
          "velocity": 0.07874015748031496,
          "duration": 0.04651162790696617
        },
        {
          "name": "G6",
          "midi": 91,
          "time": 36.77906976744138,
          "velocity": 0.08661417322834646,
          "duration": 0.04651162790696617
        },
        {
          "name": "G#3",
          "midi": 56,
          "time": 36.8139534883716,
          "velocity": 0.4251968503937008,
          "duration": 0.034883720930224626
        },
        {
          "name": "F1",
          "midi": 29,
          "time": 36.825581395348344,
          "velocity": 0.7322834645669292,
          "duration": 0.04651162790696617
        },
        {
          "name": "F3",
          "midi": 53,
          "time": 36.825581395348344,
          "velocity": 0.41732283464566927,
          "duration": 0.023255813953483084
        },
        {
          "name": "C#4",
          "midi": 61,
          "time": 36.825581395348344,
          "velocity": 0.31496062992125984,
          "duration": 0.034883720930224626
        },
        {
          "name": "F3",
          "midi": 53,
          "time": 36.86046511627857,
          "velocity": 0.3858267716535433,
          "duration": 0.023255813953483084
        },
        {
          "name": "E1",
          "midi": 28,
          "time": 36.87209302325531,
          "velocity": 0.6614173228346457,
          "duration": 0.011627906976741542
        },
        {
          "name": "F2",
          "midi": 41,
          "time": 36.87209302325531,
          "velocity": 0.5118110236220472,
          "duration": 0.011627906976741542
        },
        {
          "name": "C#4",
          "midi": 61,
          "time": 36.87209302325531,
          "velocity": 0.2755905511811024,
          "duration": 0.023255813953483084
        },
        {
          "name": "F1",
          "midi": 29,
          "time": 36.88372093023205,
          "velocity": 0.6614173228346457,
          "duration": 0.36046511627903044
        },
        {
          "name": "G#3",
          "midi": 56,
          "time": 36.89534883720879,
          "velocity": 0.4330708661417323,
          "duration": 0.04651162790696617
        },
        {
          "name": "F#4",
          "midi": 66,
          "time": 36.906976744185535,
          "velocity": 0.3228346456692913,
          "duration": 0.023255813953483084
        },
        {
          "name": "F5",
          "midi": 77,
          "time": 36.906976744185535,
          "velocity": 0.11023622047244094,
          "duration": 0.034883720930224626
        },
        {
          "name": "B5",
          "midi": 83,
          "time": 36.906976744185535,
          "velocity": 0.3700787401574803,
          "duration": 0.023255813953483084
        },
        {
          "name": "F#6",
          "midi": 90,
          "time": 36.906976744185535,
          "velocity": 0.29133858267716534,
          "duration": 0.023255813953483084
        },
        {
          "name": "G6",
          "midi": 91,
          "time": 36.906976744185535,
          "velocity": 0.25196850393700787,
          "duration": 0.05813953488370771
        },
        {
          "name": "C#4",
          "midi": 61,
          "time": 36.918604651162276,
          "velocity": 0.48031496062992124,
          "duration": 0.23255813953485927
        },
        {
          "name": "C5",
          "midi": 72,
          "time": 36.918604651162276,
          "velocity": 0.48031496062992124,
          "duration": 0.04651162790696617
        },
        {
          "name": "E7",
          "midi": 100,
          "time": 36.918604651162276,
          "velocity": 0.12598425196850394,
          "duration": 0.05813953488370771
        },
        {
          "name": "F4",
          "midi": 65,
          "time": 36.93023255813902,
          "velocity": 0.4409448818897638,
          "duration": 0.1860465116278931
        },
        {
          "name": "C#5",
          "midi": 73,
          "time": 36.96511627906924,
          "velocity": 0.48031496062992124,
          "duration": 0.2674418604650981
        },
        {
          "name": "D#5",
          "midi": 75,
          "time": 36.976744186045984,
          "velocity": 0.12598425196850394,
          "duration": 0.05813953488372192
        },
        {
          "name": "F7",
          "midi": 101,
          "time": 36.976744186045984,
          "velocity": 0.18110236220472442,
          "duration": 0.16279069767441
        },
        {
          "name": "G#3",
          "midi": 56,
          "time": 37.034883720929706,
          "velocity": 0.3543307086614173,
          "duration": 0.05813953488372192
        },
        {
          "name": "D#5",
          "midi": 75,
          "time": 37.058139534883196,
          "velocity": 0.07874015748031496,
          "duration": 0.046511627906973274
        },
        {
          "name": "G#3",
          "midi": 56,
          "time": 37.11627906976691,
          "velocity": 0.2755905511811024,
          "duration": 0.04651162790696617
        },
        {
          "name": "F4",
          "midi": 65,
          "time": 37.12790697674365,
          "velocity": 0.2283464566929134,
          "duration": 0.09302325581394655
        },
        {
          "name": "G#4",
          "midi": 68,
          "time": 37.12790697674365,
          "velocity": 0.6062992125984252,
          "duration": 0.2441860465115937
        },
        {
          "name": "D#6",
          "midi": 87,
          "time": 37.12790697674365,
          "velocity": 0.29133858267716534,
          "duration": 0.19767441860462043
        },
        {
          "name": "G3",
          "midi": 55,
          "time": 37.16279069767388,
          "velocity": 0.2204724409448819,
          "duration": 0.03488372093023173
        },
        {
          "name": "C5",
          "midi": 72,
          "time": 37.2209302325576,
          "velocity": 0.30708661417322836,
          "duration": 0.034883720930224626
        },
        {
          "name": "A#5",
          "midi": 82,
          "time": 37.2209302325576,
          "velocity": 0.31496062992125984,
          "duration": 0.05813953488370771
        },
        {
          "name": "B5",
          "midi": 83,
          "time": 37.2209302325576,
          "velocity": 0.29133858267716534,
          "duration": 0.034883720930224626
        },
        {
          "name": "D6",
          "midi": 86,
          "time": 37.2209302325576,
          "velocity": 0.2047244094488189,
          "duration": 0.034883720930224626
        },
        {
          "name": "E6",
          "midi": 88,
          "time": 37.2209302325576,
          "velocity": 0.2755905511811024,
          "duration": 0.0813953488371908
        },
        {
          "name": "F6",
          "midi": 89,
          "time": 37.2209302325576,
          "velocity": 0.23622047244094488,
          "duration": 0.0813953488371908
        },
        {
          "name": "F3",
          "midi": 53,
          "time": 37.23255813953434,
          "velocity": 0.28346456692913385,
          "duration": 0.023255813953483084
        },
        {
          "name": "C#4",
          "midi": 61,
          "time": 37.23255813953434,
          "velocity": 0.15748031496062992,
          "duration": 0.0813953488371908
        },
        {
          "name": "E5",
          "midi": 76,
          "time": 37.23255813953434,
          "velocity": 0.3228346456692913,
          "duration": 0.034883720930224626
        },
        {
          "name": "G5",
          "midi": 79,
          "time": 37.23255813953434,
          "velocity": 0.36220472440944884,
          "duration": 0.06976744186044925
        },
        {
          "name": "F#6",
          "midi": 90,
          "time": 37.23255813953434,
          "velocity": 0.25984251968503935,
          "duration": 0.04651162790696617
        },
        {
          "name": "G#6",
          "midi": 92,
          "time": 37.23255813953434,
          "velocity": 0.4251968503937008,
          "duration": 0.04651162790696617
        },
        {
          "name": "D7",
          "midi": 98,
          "time": 37.23255813953434,
          "velocity": 0.2677165354330709,
          "duration": 0.04651162790696617
        },
        {
          "name": "D#7",
          "midi": 99,
          "time": 37.23255813953434,
          "velocity": 0.3228346456692913,
          "duration": 0.10465116279067388
        },
        {
          "name": "F7",
          "midi": 101,
          "time": 37.23255813953434,
          "velocity": 0.2992125984251969,
          "duration": 0.09302325581393234
        },
        {
          "name": "F#1",
          "midi": 30,
          "time": 37.24418604651108,
          "velocity": 0.5275590551181102,
          "duration": 0.011627906976741542
        },
        {
          "name": "C#5",
          "midi": 73,
          "time": 37.24418604651108,
          "velocity": 0.4409448818897638,
          "duration": 0.33720930232554025
        },
        {
          "name": "G1",
          "midi": 31,
          "time": 37.255813953487824,
          "velocity": 0.4251968503937008,
          "duration": 0.023255813953483084
        },
        {
          "name": "A#4",
          "midi": 70,
          "time": 37.255813953487824,
          "velocity": 0.2992125984251969,
          "duration": 0.023255813953483084
        },
        {
          "name": "D#5",
          "midi": 75,
          "time": 37.255813953487824,
          "velocity": 0.29133858267716534,
          "duration": 0.023255813953483084
        },
        {
          "name": "A6",
          "midi": 93,
          "time": 37.255813953487824,
          "velocity": 0.31496062992125984,
          "duration": 0.05813953488370771
        },
        {
          "name": "F5",
          "midi": 77,
          "time": 37.267441860464565,
          "velocity": 0.2125984251968504,
          "duration": 0.034883720930224626
        },
        {
          "name": "B5",
          "midi": 83,
          "time": 37.267441860464565,
          "velocity": 0.2283464566929134,
          "duration": 0.04651162790696617
        },
        {
          "name": "C6",
          "midi": 84,
          "time": 37.267441860464565,
          "velocity": 0.3464566929133858,
          "duration": 0.023255813953483084
        },
        {
          "name": "E7",
          "midi": 100,
          "time": 37.267441860464565,
          "velocity": 0.31496062992125984,
          "duration": 0.06976744186044925
        },
        {
          "name": "D7",
          "midi": 98,
          "time": 37.29069767441805,
          "velocity": 0.16535433070866143,
          "duration": 0.034883720930224626
        },
        {
          "name": "G#6",
          "midi": 92,
          "time": 37.30232558139479,
          "velocity": 0.18110236220472442,
          "duration": 0.17441860465114445
        },
        {
          "name": "F7",
          "midi": 101,
          "time": 37.38372093023199,
          "velocity": 0.07874015748031496,
          "duration": 0.081395348837205
        },
        {
          "name": "G#4",
          "midi": 68,
          "time": 37.44186046511571,
          "velocity": 0.4251968503937008,
          "duration": 0.034883720930224626
        },
        {
          "name": "C6",
          "midi": 84,
          "time": 37.44186046511571,
          "velocity": 0.2440944881889764,
          "duration": 0.2441860465116008
        },
        {
          "name": "D#6",
          "midi": 87,
          "time": 37.44186046511571,
          "velocity": 0.25196850393700787,
          "duration": 0.034883720930224626
        },
        {
          "name": "F#6",
          "midi": 90,
          "time": 37.44186046511571,
          "velocity": 0.18110236220472442,
          "duration": 0.034883720930224626
        },
        {
          "name": "G6",
          "midi": 91,
          "time": 37.44186046511571,
          "velocity": 0.16535433070866143,
          "duration": 0.034883720930224626
        },
        {
          "name": "F4",
          "midi": 65,
          "time": 37.45348837209245,
          "velocity": 0.4566929133858268,
          "duration": 0.12790697674417117
        },
        {
          "name": "E6",
          "midi": 88,
          "time": 37.45348837209245,
          "velocity": 0.2047244094488189,
          "duration": 0.058139534883714816
        },
        {
          "name": "A4",
          "midi": 69,
          "time": 37.476744186045934,
          "velocity": 0.4094488188976378,
          "duration": 0.03488372093023173
        },
        {
          "name": "C#7",
          "midi": 97,
          "time": 37.476744186045934,
          "velocity": 0.11811023622047244,
          "duration": 0.046511627906973274
        },
        {
          "name": "F7",
          "midi": 101,
          "time": 37.499999999999424,
          "velocity": 0.1968503937007874,
          "duration": 0.15116279069765426
        },
        {
          "name": "A#4",
          "midi": 70,
          "time": 37.511627906976166,
          "velocity": 0.4330708661417323,
          "duration": 0.058139534883714816
        },
        {
          "name": "F6",
          "midi": 89,
          "time": 37.511627906976166,
          "velocity": 0.2677165354330709,
          "duration": 0.09302325581393944
        },
        {
          "name": "D7",
          "midi": 98,
          "time": 37.52325581395291,
          "velocity": 0.18110236220472442,
          "duration": 0.09302325581393944
        },
        {
          "name": "G#5",
          "midi": 80,
          "time": 37.55813953488314,
          "velocity": 0.2755905511811024,
          "duration": 0.023255813953483084
        },
        {
          "name": "C#4",
          "midi": 61,
          "time": 37.56976744185988,
          "velocity": 0.4645669291338583,
          "duration": 0.31395348837206427
        },
        {
          "name": "F#5",
          "midi": 78,
          "time": 37.56976744185988,
          "velocity": 0.3937007874015748,
          "duration": 0.023255813953483084
        },
        {
          "name": "A3",
          "midi": 57,
          "time": 37.58139534883662,
          "velocity": 0.31496062992125984,
          "duration": 0.023255813953483084
        },
        {
          "name": "C5",
          "midi": 72,
          "time": 37.58139534883662,
          "velocity": 0.14173228346456693,
          "duration": 0.04651162790696617
        },
        {
          "name": "E7",
          "midi": 100,
          "time": 37.58139534883662,
          "velocity": 0.07086614173228346,
          "duration": 0.034883720930224626
        },
        {
          "name": "F4",
          "midi": 65,
          "time": 37.593023255813364,
          "velocity": 0.41732283464566927,
          "duration": 0.31395348837206427
        },
        {
          "name": "G4",
          "midi": 67,
          "time": 37.593023255813364,
          "velocity": 0.44881889763779526,
          "duration": 0.034883720930224626
        },
        {
          "name": "G#5",
          "midi": 80,
          "time": 37.593023255813364,
          "velocity": 0.4015748031496063,
          "duration": 0.25581395348834945
        },
        {
          "name": "D6",
          "midi": 86,
          "time": 37.593023255813364,
          "velocity": 0.2677165354330709,
          "duration": 0.034883720930224626
        },
        {
          "name": "B6",
          "midi": 95,
          "time": 37.593023255813364,
          "velocity": 0.15748031496062992,
          "duration": 0.034883720930224626
        },
        {
          "name": "G#3",
          "midi": 56,
          "time": 37.61627906976685,
          "velocity": 0.3937007874015748,
          "duration": 0.16279069767441712
        },
        {
          "name": "D#5",
          "midi": 75,
          "time": 37.61627906976685,
          "velocity": 0.30708661417322836,
          "duration": 0.27906976744183964
        },
        {
          "name": "D#7",
          "midi": 99,
          "time": 37.61627906976685,
          "velocity": 0.2125984251968504,
          "duration": 0.19767441860464174
        },
        {
          "name": "G#4",
          "midi": 68,
          "time": 37.62790697674359,
          "velocity": 0.4330708661417323,
          "duration": 0.1860465116279002
        },
        {
          "name": "F#7",
          "midi": 102,
          "time": 37.65116279069708,
          "velocity": 0.13385826771653545,
          "duration": 0.15116279069766847
        },
        {
          "name": "F#5",
          "midi": 78,
          "time": 37.76744186046452,
          "velocity": 0.14173228346456693,
          "duration": 0.034883720930224626
        },
        {
          "name": "C6",
          "midi": 84,
          "time": 37.76744186046452,
          "velocity": 0.25984251968503935,
          "duration": 0.05813953488370771
        },
        {
          "name": "G#3",
          "midi": 56,
          "time": 37.790697674418006,
          "velocity": 0.44881889763779526,
          "duration": 0.09302325581393944
        },
        {
          "name": "C#6",
          "midi": 85,
          "time": 37.790697674418006,
          "velocity": 0.11811023622047244,
          "duration": 0.034883720930224626
        },
        {
          "name": "A4",
          "midi": 69,
          "time": 37.80232558139475,
          "velocity": 0.11023622047244094,
          "duration": 0.034883720930224626
        },
        {
          "name": "A#4",
          "midi": 70,
          "time": 37.84883720930171,
          "velocity": 0.12598425196850394,
          "duration": 0.03488372093023173
        },
        {
          "name": "D#3",
          "midi": 51,
          "time": 37.883720930231945,
          "velocity": 0.6220472440944882,
          "duration": 0.011627906976741542
        },
        {
          "name": "A#5",
          "midi": 82,
          "time": 37.883720930231945,
          "velocity": 0.2677165354330709,
          "duration": 0.33720930232551183
        },
        {
          "name": "A#2",
          "midi": 46,
          "time": 37.89534883720869,
          "velocity": 0.7401574803149606,
          "duration": 0.011627906976741542
        },
        {
          "name": "G4",
          "midi": 67,
          "time": 37.89534883720869,
          "velocity": 0.33070866141732286,
          "duration": 0.034883720930224626
        },
        {
          "name": "A#4",
          "midi": 70,
          "time": 37.89534883720869,
          "velocity": 0.25984251968503935,
          "duration": 0.05813953488370771
        },
        {
          "name": "B5",
          "midi": 83,
          "time": 37.89534883720869,
          "velocity": 0.2755905511811024,
          "duration": 0.023255813953483084
        },
        {
          "name": "F6",
          "midi": 89,
          "time": 37.89534883720869,
          "velocity": 0.25984251968503935,
          "duration": 0.3023255813952872
        },
        {
          "name": "F#2",
          "midi": 42,
          "time": 37.90697674418543,
          "velocity": 0.7716535433070866,
          "duration": 0.011627906976741542
        },
        {
          "name": "C#4",
          "midi": 61,
          "time": 37.90697674418543,
          "velocity": 0.33858267716535434,
          "duration": 0.05813953488370771
        },
        {
          "name": "D2",
          "midi": 38,
          "time": 37.91860465116217,
          "velocity": 0.7716535433070866,
          "duration": 0.011627906976741542
        },
        {
          "name": "E5",
          "midi": 76,
          "time": 37.91860465116217,
          "velocity": 0.14173228346456693,
          "duration": 0.034883720930224626
        },
        {
          "name": "C6",
          "midi": 84,
          "time": 37.91860465116217,
          "velocity": 0.1968503937007874,
          "duration": 0.04651162790696617
        },
        {
          "name": "D6",
          "midi": 86,
          "time": 37.91860465116217,
          "velocity": 0.2125984251968504,
          "duration": 0.1627906976743887
        },
        {
          "name": "C#7",
          "midi": 97,
          "time": 37.91860465116217,
          "velocity": 0.16535433070866143,
          "duration": 0.0813953488371908
        },
        {
          "name": "G7",
          "midi": 103,
          "time": 37.91860465116217,
          "velocity": 0.11811023622047244,
          "duration": 0.0813953488371908
        },
        {
          "name": "C2",
          "midi": 36,
          "time": 37.93023255813891,
          "velocity": 0.7874015748031497,
          "duration": 0.011627906976741542
        },
        {
          "name": "F#3",
          "midi": 54,
          "time": 37.93023255813891,
          "velocity": 0.4645669291338583,
          "duration": 0.023255813953483084
        },
        {
          "name": "G#6",
          "midi": 92,
          "time": 37.93023255813891,
          "velocity": 0.30708661417322836,
          "duration": 0.17441860465113024
        },
        {
          "name": "A#1",
          "midi": 34,
          "time": 37.94186046511565,
          "velocity": 0.7874015748031497,
          "duration": 0.011627906976741542
        },
        {
          "name": "D#7",
          "midi": 99,
          "time": 37.94186046511565,
          "velocity": 0.07874015748031496,
          "duration": 0.05813953488370771
        },
        {
          "name": "A1",
          "midi": 33,
          "time": 37.953488372092394,
          "velocity": 0.7874015748031497,
          "duration": 0.011627906976741542
        },
        {
          "name": "D5",
          "midi": 74,
          "time": 37.953488372092394,
          "velocity": 0.14173228346456693,
          "duration": 0.034883720930224626
        },
        {
          "name": "G#1",
          "midi": 32,
          "time": 37.965116279069136,
          "velocity": 0.7874015748031497,
          "duration": 0.023255813953483084
        },
        {
          "name": "F#3",
          "midi": 54,
          "time": 37.965116279069136,
          "velocity": 0.47244094488188976,
          "duration": 0.25581395348832103
        },
        {
          "name": "A#4",
          "midi": 70,
          "time": 37.965116279069136,
          "velocity": 0.3228346456692913,
          "duration": 0.25581395348832103
        },
        {
          "name": "F5",
          "midi": 77,
          "time": 37.965116279069136,
          "velocity": 0.18110236220472442,
          "duration": 0.034883720930224626
        },
        {
          "name": "C#6",
          "midi": 85,
          "time": 37.965116279069136,
          "velocity": 0.3937007874015748,
          "duration": 0.2209302325580964
        },
        {
          "name": "A#3",
          "midi": 58,
          "time": 37.97674418604588,
          "velocity": 0.29133858267716534,
          "duration": 0.023255813953483084
        },
        {
          "name": "C#4",
          "midi": 61,
          "time": 37.97674418604588,
          "velocity": 0.30708661417322836,
          "duration": 0.0813953488371979
        },
        {
          "name": "B5",
          "midi": 83,
          "time": 37.97674418604588,
          "velocity": 0.1968503937007874,
          "duration": 0.058139534883714816
        },
        {
          "name": "F#7",
          "midi": 102,
          "time": 37.97674418604588,
          "velocity": 0.11023622047244094,
          "duration": 0.058139534883714816
        },
        {
          "name": "G1",
          "midi": 31,
          "time": 37.98837209302262,
          "velocity": 0.7716535433070866,
          "duration": 0.058139534883714816
        },
        {
          "name": "C#5",
          "midi": 73,
          "time": 37.98837209302262,
          "velocity": 0.3779527559055118,
          "duration": 0.23255813953483795
        },
        {
          "name": "G#5",
          "midi": 80,
          "time": 37.98837209302262,
          "velocity": 0.36220472440944884,
          "duration": 0.20930232558135486
        },
        {
          "name": "E6",
          "midi": 88,
          "time": 38.0116279069761,
          "velocity": 0.15748031496062992,
          "duration": 0.058139534883714816
        },
        {
          "name": "F#1",
          "midi": 30,
          "time": 38.046511627906334,
          "velocity": 0.6456692913385826,
          "duration": 0.04651162790696617
        },
        {
          "name": "G6",
          "midi": 91,
          "time": 38.046511627906334,
          "velocity": 0.08661417322834646,
          "duration": 0.034883720930224626
        },
        {
          "name": "D#7",
          "midi": 99,
          "time": 38.058139534883075,
          "velocity": 0.07874015748031496,
          "duration": 0.034883720930224626
        },
        {
          "name": "C#3",
          "midi": 49,
          "time": 38.06976744185982,
          "velocity": 0.33858267716535434,
          "duration": 0.04651162790696617
        },
        {
          "name": "A#3",
          "midi": 58,
          "time": 38.08139534883656,
          "velocity": 0.31496062992125984,
          "duration": 0.023255813953483084
        },
        {
          "name": "F1",
          "midi": 29,
          "time": 38.0930232558133,
          "velocity": 0.6062992125984252,
          "duration": 0.0813953488371908
        },
        {
          "name": "D6",
          "midi": 86,
          "time": 38.0930232558133,
          "velocity": 0.25984251968503935,
          "duration": 0.04651162790696617
        },
        {
          "name": "E6",
          "midi": 88,
          "time": 38.0930232558133,
          "velocity": 0.1889763779527559,
          "duration": 0.05813953488370771
        },
        {
          "name": "B6",
          "midi": 95,
          "time": 38.0930232558133,
          "velocity": 0.14173228346456693,
          "duration": 0.034883720930224626
        },
        {
          "name": "F5",
          "midi": 77,
          "time": 38.11627906976678,
          "velocity": 0.3543307086614173,
          "duration": 0.2674418604650626
        },
        {
          "name": "A#3",
          "midi": 58,
          "time": 38.127906976743525,
          "velocity": 0.3779527559055118,
          "duration": 0.023255813953483084
        },
        {
          "name": "A#3",
          "midi": 58,
          "time": 38.16279069767375,
          "velocity": 0.4015748031496063,
          "duration": 0.034883720930224626
        },
        {
          "name": "F#1",
          "midi": 30,
          "time": 38.17441860465049,
          "velocity": 0.6692913385826772,
          "duration": 0.3837209302324993
        },
        {
          "name": "B5",
          "midi": 83,
          "time": 38.209302325580715,
          "velocity": 0.4015748031496063,
          "duration": 0.034883720930224626
        },
        {
          "name": "F#6",
          "midi": 90,
          "time": 38.209302325580715,
          "velocity": 0.23622047244094488,
          "duration": 0.034883720930224626
        },
        {
          "name": "D#7",
          "midi": 99,
          "time": 38.209302325580715,
          "velocity": 0.18110236220472442,
          "duration": 0.04651162790696617
        },
        {
          "name": "C#3",
          "midi": 49,
          "time": 38.22093023255746,
          "velocity": 0.36220472440944884,
          "duration": 0.034883720930224626
        },
        {
          "name": "B3",
          "midi": 59,
          "time": 38.22093023255746,
          "velocity": 0.3779527559055118,
          "duration": 0.023255813953483084
        },
        {
          "name": "G4",
          "midi": 67,
          "time": 38.22093023255746,
          "velocity": 0.4251968503937008,
          "duration": 0.034883720930224626
        },
        {
          "name": "G#5",
          "midi": 80,
          "time": 38.22093023255746,
          "velocity": 0.2755905511811024,
          "duration": 0.2209302325581035
        },
        {
          "name": "F#3",
          "midi": 54,
          "time": 38.2325581395342,
          "velocity": 0.44881889763779526,
          "duration": 0.034883720930224626
        },
        {
          "name": "C5",
          "midi": 72,
          "time": 38.2325581395342,
          "velocity": 0.4881889763779528,
          "duration": 0.034883720930224626
        },
        {
          "name": "E7",
          "midi": 100,
          "time": 38.2325581395342,
          "velocity": 0.11811023622047244,
          "duration": 0.05813953488370771
        },
        {
          "name": "A#3",
          "midi": 58,
          "time": 38.24418604651094,
          "velocity": 0.4566929133858268,
          "duration": 0.12790697674416407
        },
        {
          "name": "G6",
          "midi": 91,
          "time": 38.24418604651094,
          "velocity": 0.25984251968503935,
          "duration": 0.034883720930224626
        },
        {
          "name": "C#3",
          "midi": 49,
          "time": 38.26744186046442,
          "velocity": 0.33858267716535434,
          "duration": 0.023255813953483084
        },
        {
          "name": "C#5",
          "midi": 73,
          "time": 38.26744186046442,
          "velocity": 0.4566929133858268,
          "duration": 0.17441860465113734
        },
        {
          "name": "F#3",
          "midi": 54,
          "time": 38.279069767441165,
          "velocity": 0.4015748031496063,
          "duration": 0.058139534883714816
        },
        {
          "name": "G#6",
          "midi": 92,
          "time": 38.279069767441165,
          "velocity": 0.2992125984251969,
          "duration": 0.17441860465113734
        },
        {
          "name": "F7",
          "midi": 101,
          "time": 38.290697674417906,
          "velocity": 0.23622047244094488,
          "duration": 0.1627906976743958
        },
        {
          "name": "F#3",
          "midi": 54,
          "time": 38.34883720930162,
          "velocity": 0.33858267716535434,
          "duration": 0.13953488372091272
        },
        {
          "name": "C#4",
          "midi": 61,
          "time": 38.36046511627836,
          "velocity": 0.30708661417322836,
          "duration": 0.058139534883714816
        },
        {
          "name": "C#4",
          "midi": 61,
          "time": 38.43023255813882,
          "velocity": 0.2047244094488189,
          "duration": 0.12790697674417117
        },
        {
          "name": "A#4",
          "midi": 70,
          "time": 38.43023255813882,
          "velocity": 0.49606299212598426,
          "duration": 0.20930232558136197
        },
        {
          "name": "F#7",
          "midi": 102,
          "time": 38.43023255813882,
          "velocity": 0.1889763779527559,
          "duration": 0.046511627906973274
        },
        {
          "name": "F6",
          "midi": 89,
          "time": 38.44186046511556,
          "velocity": 0.30708661417322836,
          "duration": 0.1627906976743958
        },
        {
          "name": "C#5",
          "midi": 73,
          "time": 38.4534883720923,
          "velocity": 0.2047244094488189,
          "duration": 0.081395348837205
        },
        {
          "name": "C#3",
          "midi": 49,
          "time": 38.47674418604579,
          "velocity": 0.2992125984251969,
          "duration": 0.06976744186045636
        },
        {
          "name": "C5",
          "midi": 72,
          "time": 38.523255813952765,
          "velocity": 0.2755905511811024,
          "duration": 0.034883720930224626
        },
        {
          "name": "B5",
          "midi": 83,
          "time": 38.523255813952765,
          "velocity": 0.31496062992125984,
          "duration": 0.04651162790696617
        },
        {
          "name": "C6",
          "midi": 84,
          "time": 38.523255813952765,
          "velocity": 0.29133858267716534,
          "duration": 0.034883720930224626
        },
        {
          "name": "C#6",
          "midi": 85,
          "time": 38.523255813952765,
          "velocity": 0.47244094488188976,
          "duration": 0.5232558139534262
        },
        {
          "name": "F#6",
          "midi": 90,
          "time": 38.523255813952765,
          "velocity": 0.30708661417322836,
          "duration": 0.034883720930224626
        },
        {
          "name": "G#6",
          "midi": 92,
          "time": 38.523255813952765,
          "velocity": 0.3858267716535433,
          "duration": 0.2674418604650768
        },
        {
          "name": "E5",
          "midi": 76,
          "time": 38.53488372092951,
          "velocity": 0.31496062992125984,
          "duration": 0.034883720930224626
        },
        {
          "name": "A5",
          "midi": 81,
          "time": 38.53488372092951,
          "velocity": 0.2755905511811024,
          "duration": 0.05813953488370771
        },
        {
          "name": "A#6",
          "midi": 94,
          "time": 38.53488372092951,
          "velocity": 0.3700787401574803,
          "duration": 0.10465116279067388
        },
        {
          "name": "D7",
          "midi": 98,
          "time": 38.53488372092951,
          "velocity": 0.33070866141732286,
          "duration": 0.10465116279067388
        },
        {
          "name": "D#7",
          "midi": 99,
          "time": 38.53488372092951,
          "velocity": 0.2992125984251969,
          "duration": 0.10465116279067388
        },
        {
          "name": "G7",
          "midi": 103,
          "time": 38.53488372092951,
          "velocity": 0.2992125984251969,
          "duration": 0.11627906976741542
        },
        {
          "name": "G4",
          "midi": 67,
          "time": 38.54651162790625,
          "velocity": 0.1968503937007874,
          "duration": 0.04651162790696617
        },
        {
          "name": "C#5",
          "midi": 73,
          "time": 38.54651162790625,
          "velocity": 0.4330708661417323,
          "duration": 0.2441860465115937
        },
        {
          "name": "G5",
          "midi": 79,
          "time": 38.54651162790625,
          "velocity": 0.3464566929133858,
          "duration": 0.04651162790696617
        },
        {
          "name": "D#6",
          "midi": 87,
          "time": 38.54651162790625,
          "velocity": 0.31496062992125984,
          "duration": 0.034883720930224626
        },
        {
          "name": "A6",
          "midi": 93,
          "time": 38.54651162790625,
          "velocity": 0.4015748031496063,
          "duration": 0.0813953488371908
        },
        {
          "name": "G1",
          "midi": 31,
          "time": 38.55813953488299,
          "velocity": 0.48031496062992124,
          "duration": 0.023255813953483084
        },
        {
          "name": "D#5",
          "midi": 75,
          "time": 38.55813953488299,
          "velocity": 0.2755905511811024,
          "duration": 0.04651162790696617
        },
        {
          "name": "E7",
          "midi": 100,
          "time": 38.55813953488299,
          "velocity": 0.3543307086614173,
          "duration": 0.06976744186044925
        },
        {
          "name": "E6",
          "midi": 88,
          "time": 38.56976744185973,
          "velocity": 0.3858267716535433,
          "duration": 0.04651162790696617
        },
        {
          "name": "F#6",
          "midi": 90,
          "time": 38.56976744185973,
          "velocity": 0.2755905511811024,
          "duration": 0.06976744186044925
        },
        {
          "name": "F5",
          "midi": 77,
          "time": 38.58139534883647,
          "velocity": 0.2283464566929134,
          "duration": 0.023255813953483084
        },
        {
          "name": "B5",
          "midi": 83,
          "time": 38.58139534883647,
          "velocity": 0.2047244094488189,
          "duration": 0.034883720930224626
        },
        {
          "name": "A#3",
          "midi": 58,
          "time": 38.65116279069692,
          "velocity": 0.07874015748031496,
          "duration": 0.05813953488372192
        },
        {
          "name": "F#4",
          "midi": 66,
          "time": 38.744186046510876,
          "velocity": 0.25196850393700787,
          "duration": 0.023255813953483084
        },
        {
          "name": "A6",
          "midi": 93,
          "time": 38.75581395348762,
          "velocity": 0.2204724409448819,
          "duration": 0.05813953488370771
        },
        {
          "name": "F4",
          "midi": 65,
          "time": 38.76744186046436,
          "velocity": 0.2283464566929134,
          "duration": 0.023255813953483084
        },
        {
          "name": "F#7",
          "midi": 102,
          "time": 38.76744186046436,
          "velocity": 0.11023622047244094,
          "duration": 0.05813953488370771
        },
        {
          "name": "D5",
          "midi": 74,
          "time": 38.7790697674411,
          "velocity": 0.4094488188976378,
          "duration": 0.034883720930224626
        },
        {
          "name": "F#4",
          "midi": 66,
          "time": 38.79069767441784,
          "velocity": 0.5118110236220472,
          "duration": 0.3139534883720714
        },
        {
          "name": "A#4",
          "midi": 70,
          "time": 38.802325581394584,
          "velocity": 0.1732283464566929,
          "duration": 0.09302325581394655
        },
        {
          "name": "C#5",
          "midi": 73,
          "time": 38.813953488371325,
          "velocity": 0.23622047244094488,
          "duration": 0.058139534883714816
        },
        {
          "name": "D#5",
          "midi": 75,
          "time": 38.813953488371325,
          "velocity": 0.48031496062992124,
          "duration": 0.081395348837205
        },
        {
          "name": "A#6",
          "midi": 94,
          "time": 38.813953488371325,
          "velocity": 0.2755905511811024,
          "duration": 0.09302325581394655
        },
        {
          "name": "G7",
          "midi": 103,
          "time": 38.82558139534807,
          "velocity": 0.13385826771653545,
          "duration": 0.06976744186046346
        },
        {
          "name": "A#3",
          "midi": 58,
          "time": 38.87209302325504,
          "velocity": 0.4566929133858268,
          "duration": 0.06976744186045636
        },
        {
          "name": "C5",
          "midi": 72,
          "time": 38.87209302325504,
          "velocity": 0.1732283464566929,
          "duration": 0.03488372093023173
        },
        {
          "name": "G#5",
          "midi": 80,
          "time": 38.87209302325504,
          "velocity": 0.3464566929133858,
          "duration": 0.2093023255813833
        },
        {
          "name": "B6",
          "midi": 95,
          "time": 38.87209302325504,
          "velocity": 0.23622047244094488,
          "duration": 0.046511627906973274
        },
        {
          "name": "C#5",
          "midi": 73,
          "time": 38.89534883720853,
          "velocity": 0.25984251968503935,
          "duration": 0.2441860465116079
        },
        {
          "name": "E5",
          "midi": 76,
          "time": 38.89534883720853,
          "velocity": 0.47244094488188976,
          "duration": 0.04651162790696617
        },
        {
          "name": "D#6",
          "midi": 87,
          "time": 38.90697674418527,
          "velocity": 0.13385826771653545,
          "duration": 0.10465116279068809
        },
        {
          "name": "C7",
          "midi": 96,
          "time": 38.91860465116201,
          "velocity": 0.2755905511811024,
          "duration": 0.1860465116279002
        },
        {
          "name": "C#4",
          "midi": 61,
          "time": 38.930232558138755,
          "velocity": 0.4015748031496063,
          "duration": 0.17441860465115866
        },
        {
          "name": "F6",
          "midi": 89,
          "time": 38.930232558138755,
          "velocity": 0.4251968503937008,
          "duration": 0.2093023255813833
        },
        {
          "name": "F5",
          "midi": 77,
          "time": 38.9418604651155,
          "velocity": 0.5275590551181102,
          "duration": 0.25581395348835656
        },
        {
          "name": "A#3",
          "midi": 58,
          "time": 38.97674418604573,
          "velocity": 0.2992125984251969,
          "duration": 0.046511627906973274
        },
        {
          "name": "A3",
          "midi": 57,
          "time": 39.08139534883642,
          "velocity": 0.29133858267716534,
          "duration": 0.03488372093023173
        },
        {
          "name": "D#5",
          "midi": 75,
          "time": 39.08139534883642,
          "velocity": 0.2047244094488189,
          "duration": 0.11627906976742963
        },
        {
          "name": "D6",
          "midi": 86,
          "time": 39.08139534883642,
          "velocity": 0.18110236220472442,
          "duration": 0.046511627906973274
        },
        {
          "name": "A#3",
          "midi": 58,
          "time": 39.116279069766655,
          "velocity": 0.47244094488188976,
          "duration": 0.06976744186045636
        },
        {
          "name": "G3",
          "midi": 55,
          "time": 39.18604651162711,
          "velocity": 0.5118110236220472,
          "duration": 0.011627906976741542
        },
        {
          "name": "A3",
          "midi": 57,
          "time": 39.18604651162711,
          "velocity": 0.5511811023622047,
          "duration": 0.011627906976741542
        },
        {
          "name": "C5",
          "midi": 72,
          "time": 39.18604651162711,
          "velocity": 0.28346456692913385,
          "duration": 0.11627906976741542
        },
        {
          "name": "F#5",
          "midi": 78,
          "time": 39.18604651162711,
          "velocity": 0.1732283464566929,
          "duration": 0.034883720930224626
        },
        {
          "name": "B5",
          "midi": 83,
          "time": 39.18604651162711,
          "velocity": 0.2047244094488189,
          "duration": 0.034883720930224626
        },
        {
          "name": "D#6",
          "midi": 87,
          "time": 39.18604651162711,
          "velocity": 0.2125984251968504,
          "duration": 0.06976744186044925
        },
        {
          "name": "D3",
          "midi": 50,
          "time": 39.19767441860385,
          "velocity": 0.6692913385826772,
          "duration": 0.023255813953483084
        },
        {
          "name": "C#5",
          "midi": 73,
          "time": 39.19767441860385,
          "velocity": 0.2755905511811024,
          "duration": 0.023255813953483084
        },
        {
          "name": "F#2",
          "midi": 42,
          "time": 39.209302325580595,
          "velocity": 0.7007874015748031,
          "duration": 0.011627906976741542
        },
        {
          "name": "C6",
          "midi": 84,
          "time": 39.209302325580595,
          "velocity": 0.29133858267716534,
          "duration": 0.1627906976743887
        },
        {
          "name": "A#6",
          "midi": 94,
          "time": 39.209302325580595,
          "velocity": 0.16535433070866143,
          "duration": 0.1395348837209056
        },
        {
          "name": "D2",
          "midi": 38,
          "time": 39.220930232557336,
          "velocity": 0.7244094488188977,
          "duration": 0.011627906976741542
        },
        {
          "name": "E5",
          "midi": 76,
          "time": 39.220930232557336,
          "velocity": 0.36220472440944884,
          "duration": 0.034883720930224626
        },
        {
          "name": "G#5",
          "midi": 80,
          "time": 39.220930232557336,
          "velocity": 0.23622047244094488,
          "duration": 0.1395348837209056
        },
        {
          "name": "F#6",
          "midi": 90,
          "time": 39.220930232557336,
          "velocity": 0.10236220472440945,
          "duration": 0.06976744186044925
        },
        {
          "name": "G6",
          "midi": 91,
          "time": 39.220930232557336,
          "velocity": 0.11023622047244094,
          "duration": 0.04651162790696617
        },
        {
          "name": "G#6",
          "midi": 92,
          "time": 39.220930232557336,
          "velocity": 0.2440944881889764,
          "duration": 0.19767441860461332
        },
        {
          "name": "F7",
          "midi": 101,
          "time": 39.220930232557336,
          "velocity": 0.18110236220472442,
          "duration": 0.1395348837209056
        },
        {
          "name": "C#2",
          "midi": 37,
          "time": 39.23255813953408,
          "velocity": 0.7716535433070866,
          "duration": 0.011627906976741542
        },
        {
          "name": "C#4",
          "midi": 61,
          "time": 39.23255813953408,
          "velocity": 0.5354330708661418,
          "duration": 0.5581395348836509
        },
        {
          "name": "G#4",
          "midi": 68,
          "time": 39.23255813953408,
          "velocity": 0.6220472440944882,
          "duration": 0.5348837209301678
        },
        {
          "name": "A6",
          "midi": 93,
          "time": 39.23255813953408,
          "velocity": 0.13385826771653545,
          "duration": 0.10465116279068098
        },
        {
          "name": "B1",
          "midi": 35,
          "time": 39.24418604651082,
          "velocity": 0.7795275590551181,
          "duration": 0.011627906976741542
        },
        {
          "name": "E3",
          "midi": 52,
          "time": 39.24418604651082,
          "velocity": 0.41732283464566927,
          "duration": 0.023255813953483084
        },
        {
          "name": "D#5",
          "midi": 75,
          "time": 39.24418604651082,
          "velocity": 0.48031496062992124,
          "duration": 0.31395348837205006
        },
        {
          "name": "C#7",
          "midi": 97,
          "time": 39.24418604651082,
          "velocity": 0.13385826771653545,
          "duration": 0.04651162790696617
        },
        {
          "name": "A#1",
          "midi": 34,
          "time": 39.25581395348756,
          "velocity": 0.7559055118110236,
          "duration": 0.011627906976741542
        },
        {
          "name": "F5",
          "midi": 77,
          "time": 39.25581395348756,
          "velocity": 0.4645669291338583,
          "duration": 0.27906976744182543
        },
        {
          "name": "A#5",
          "midi": 82,
          "time": 39.25581395348756,
          "velocity": 0.10236220472440945,
          "duration": 0.12790697674416407
        },
        {
          "name": "G7",
          "midi": 103,
          "time": 39.25581395348756,
          "velocity": 0.1732283464566929,
          "duration": 0.04651162790696617
        },
        {
          "name": "A1",
          "midi": 33,
          "time": 39.2674418604643,
          "velocity": 0.7244094488188977,
          "duration": 0.023255813953483084
        },
        {
          "name": "D7",
          "midi": 98,
          "time": 39.2674418604643,
          "velocity": 0.1889763779527559,
          "duration": 0.06976744186045636
        },
        {
          "name": "C#6",
          "midi": 85,
          "time": 39.279069767441044,
          "velocity": 0.2204724409448819,
          "duration": 0.2441860465116008
        },
        {
          "name": "G#1",
          "midi": 32,
          "time": 39.290697674417785,
          "velocity": 0.6692913385826772,
          "duration": 0.023255813953483084
        },
        {
          "name": "A2",
          "midi": 45,
          "time": 39.290697674417785,
          "velocity": 0.33858267716535434,
          "duration": 0.023255813953483084
        },
        {
          "name": "F3",
          "midi": 53,
          "time": 39.290697674417785,
          "velocity": 0.4409448818897638,
          "duration": 0.046511627906973274
        },
        {
          "name": "B6",
          "midi": 95,
          "time": 39.290697674417785,
          "velocity": 0.16535433070866143,
          "duration": 0.09302325581393944
        },
        {
          "name": "E7",
          "midi": 100,
          "time": 39.290697674417785,
          "velocity": 0.14173228346456693,
          "duration": 0.06976744186045636
        },
        {
          "name": "G1",
          "midi": 31,
          "time": 39.31395348837127,
          "velocity": 0.7637795275590551,
          "duration": 0.13953488372091272
        },
        {
          "name": "G#2",
          "midi": 44,
          "time": 39.31395348837127,
          "velocity": 0.36220472440944884,
          "duration": 0.03488372093023173
        },
        {
          "name": "G6",
          "midi": 91,
          "time": 39.33720930232476,
          "velocity": 0.12598425196850394,
          "duration": 0.06976744186044925
        },
        {
          "name": "A6",
          "midi": 93,
          "time": 39.3488372093015,
          "velocity": 0.11811023622047244,
          "duration": 0.034883720930224626
        },
        {
          "name": "F3",
          "midi": 53,
          "time": 39.37209302325498,
          "velocity": 0.36220472440944884,
          "duration": 0.023255813953483084
        },
        {
          "name": "F4",
          "midi": 65,
          "time": 39.37209302325498,
          "velocity": 0.4015748031496063,
          "duration": 0.15116279069766136
        },
        {
          "name": "D#3",
          "midi": 51,
          "time": 39.41860465116195,
          "velocity": 0.4094488188976378,
          "duration": 0.02325581395349019
        },
        {
          "name": "G#1",
          "midi": 32,
          "time": 39.45348837209218,
          "velocity": 0.7244094488188977,
          "duration": 0.02325581395349019
        },
        {
          "name": "C6",
          "midi": 84,
          "time": 39.45348837209218,
          "velocity": 0.1732283464566929,
          "duration": 0.1860465116279002
        },
        {
          "name": "A1",
          "midi": 33,
          "time": 39.47674418604567,
          "velocity": 0.6850393700787402,
          "duration": 0.02325581395349019
        },
        {
          "name": "D#3",
          "midi": 51,
          "time": 39.47674418604567,
          "velocity": 0.3779527559055118,
          "duration": 0.02325581395349019
        },
        {
          "name": "A5",
          "midi": 81,
          "time": 39.47674418604567,
          "velocity": 0.16535433070866143,
          "duration": 0.058139534883714816
        },
        {
          "name": "G#1",
          "midi": 32,
          "time": 39.49999999999916,
          "velocity": 0.6929133858267716,
          "duration": 0.36046511627903044
        },
        {
          "name": "D#3",
          "midi": 51,
          "time": 39.5116279069759,
          "velocity": 0.3858267716535433,
          "duration": 0.19767441860463464
        },
        {
          "name": "E6",
          "midi": 88,
          "time": 39.5116279069759,
          "velocity": 0.3937007874015748,
          "duration": 0.06976744186045636
        },
        {
          "name": "F#6",
          "midi": 90,
          "time": 39.5116279069759,
          "velocity": 0.16535433070866143,
          "duration": 0.034883720930224626
        },
        {
          "name": "A6",
          "midi": 93,
          "time": 39.5116279069759,
          "velocity": 0.2047244094488189,
          "duration": 0.034883720930224626
        },
        {
          "name": "A#6",
          "midi": 94,
          "time": 39.523255813952645,
          "velocity": 0.23622047244094488,
          "duration": 0.058139534883714816
        },
        {
          "name": "A3",
          "midi": 57,
          "time": 39.534883720929386,
          "velocity": 0.3228346456692913,
          "duration": 0.023255813953483084
        },
        {
          "name": "E5",
          "midi": 76,
          "time": 39.54651162790613,
          "velocity": 0.4645669291338583,
          "duration": 0.03488372093023173
        },
        {
          "name": "B6",
          "midi": 95,
          "time": 39.54651162790613,
          "velocity": 0.2125984251968504,
          "duration": 0.03488372093023173
        },
        {
          "name": "F4",
          "midi": 65,
          "time": 39.55813953488287,
          "velocity": 0.3700787401574803,
          "duration": 0.09302325581395365
        },
        {
          "name": "D#5",
          "midi": 75,
          "time": 39.58139534883636,
          "velocity": 0.1732283464566929,
          "duration": 0.03488372093023173
        },
        {
          "name": "F5",
          "midi": 77,
          "time": 39.58139534883636,
          "velocity": 0.5118110236220472,
          "duration": 0.267441860465091
        },
        {
          "name": "C7",
          "midi": 96,
          "time": 39.58139534883636,
          "velocity": 0.28346456692913385,
          "duration": 0.17441860465114445
        },
        {
          "name": "C5",
          "midi": 72,
          "time": 39.60465116278985,
          "velocity": 0.14960629921259844,
          "duration": 0.09302325581394655
        },
        {
          "name": "F4",
          "midi": 65,
          "time": 39.662790697673564,
          "velocity": 0.1968503937007874,
          "duration": 0.03488372093023173
        },
        {
          "name": "G#3",
          "midi": 56,
          "time": 39.697674418603796,
          "velocity": 0.25196850393700787,
          "duration": 0.023255813953483084
        },
        {
          "name": "D#3",
          "midi": 51,
          "time": 39.72093023255728,
          "velocity": 0.33858267716535434,
          "duration": 0.023255813953483084
        },
        {
          "name": "F4",
          "midi": 65,
          "time": 39.72093023255728,
          "velocity": 0.4330708661417323,
          "duration": 0.17441860465113734
        },
        {
          "name": "C6",
          "midi": 84,
          "time": 39.73255813953402,
          "velocity": 0.29133858267716534,
          "duration": 0.13953488372091272
        },
        {
          "name": "G#3",
          "midi": 56,
          "time": 39.755813953487504,
          "velocity": 0.23622047244094488,
          "duration": 0.023255813953483084
        },
        {
          "name": "D#3",
          "midi": 51,
          "time": 39.79069767441773,
          "velocity": 0.31496062992125984,
          "duration": 0.04651162790698038
        },
        {
          "name": "G#3",
          "midi": 56,
          "time": 39.81395348837122,
          "velocity": 0.2283464566929134,
          "duration": 0.03488372093023173
        },
        {
          "name": "B5",
          "midi": 83,
          "time": 39.83720930232471,
          "velocity": 0.2992125984251969,
          "duration": 0.034883720930224626
        },
        {
          "name": "C#6",
          "midi": 85,
          "time": 39.83720930232471,
          "velocity": 0.2440944881889764,
          "duration": 0.023255813953483084
        },
        {
          "name": "F#6",
          "midi": 90,
          "time": 39.83720930232471,
          "velocity": 0.2755905511811024,
          "duration": 0.034883720930224626
        },
        {
          "name": "G#6",
          "midi": 92,
          "time": 39.83720930232471,
          "velocity": 0.4330708661417323,
          "duration": 0.04651162790696617
        },
        {
          "name": "C#7",
          "midi": 97,
          "time": 39.83720930232471,
          "velocity": 0.25984251968503935,
          "duration": 0.09302325581393234
        },
        {
          "name": "D7",
          "midi": 98,
          "time": 39.83720930232471,
          "velocity": 0.28346456692913385,
          "duration": 0.11627906976741542
        },
        {
          "name": "G7",
          "midi": 103,
          "time": 39.83720930232471,
          "velocity": 0.29133858267716534,
          "duration": 0.10465116279067388
        },
        {
          "name": "C4",
          "midi": 60,
          "time": 39.84883720930145,
          "velocity": 0.2125984251968504,
          "duration": 0.034883720930224626
        },
        {
          "name": "A#4",
          "midi": 70,
          "time": 39.84883720930145,
          "velocity": 0.28346456692913385,
          "duration": 0.034883720930224626
        },
        {
          "name": "D5",
          "midi": 74,
          "time": 39.84883720930145,
          "velocity": 0.36220472440944884,
          "duration": 0.034883720930224626
        },
        {
          "name": "E5",
          "midi": 76,
          "time": 39.84883720930145,
          "velocity": 0.3228346456692913,
          "duration": 0.034883720930224626
        },
        {
          "name": "G5",
          "midi": 79,
          "time": 39.84883720930145,
          "velocity": 0.30708661417322836,
          "duration": 0.023255813953483084
        },
        {
          "name": "A#5",
          "midi": 82,
          "time": 39.84883720930145,
          "velocity": 0.2992125984251969,
          "duration": 0.04651162790696617
        },
        {
          "name": "G6",
          "midi": 91,
          "time": 39.84883720930145,
          "velocity": 0.3779527559055118,
          "duration": 0.0813953488371908
        },
        {
          "name": "A#6",
          "midi": 94,
          "time": 39.84883720930145,
          "velocity": 0.33858267716535434,
          "duration": 0.0813953488371908
        },
        {
          "name": "A#1",
          "midi": 34,
          "time": 39.86046511627819,
          "velocity": 0.5511811023622047,
          "duration": 0.011627906976741542
        },
        {
          "name": "G#4",
          "midi": 68,
          "time": 39.86046511627819,
          "velocity": 0.2677165354330709,
          "duration": 0.04651162790696617
        },
        {
          "name": "C#5",
          "midi": 73,
          "time": 39.86046511627819,
          "velocity": 0.3779527559055118,
          "duration": 0.06976744186044925
        },
        {
          "name": "G#5",
          "midi": 80,
          "time": 39.86046511627819,
          "velocity": 0.3858267716535433,
          "duration": 0.04651162790696617
        },
        {
          "name": "A6",
          "midi": 93,
          "time": 39.86046511627819,
          "velocity": 0.3228346456692913,
          "duration": 0.06976744186044925
        },
        {
          "name": "D#7",
          "midi": 99,
          "time": 39.86046511627819,
          "velocity": 0.29133858267716534,
          "duration": 0.09302325581393234
        },
        {
          "name": "C#6",
          "midi": 85,
          "time": 39.87209302325493,
          "velocity": 0.3858267716535433,
          "duration": 0.023255813953483084
        },
        {
          "name": "C7",
          "midi": 96,
          "time": 39.87209302325493,
          "velocity": 0.33070866141732286,
          "duration": 0.24418604651161502
        },
        {
          "name": "E7",
          "midi": 100,
          "time": 39.87209302325493,
          "velocity": 0.31496062992125984,
          "duration": 0.0813953488371908
        },
        {
          "name": "C#4",
          "midi": 61,
          "time": 39.883720930231675,
          "velocity": 0.3700787401574803,
          "duration": 0.2906976744185883
        },
        {
          "name": "B5",
          "midi": 83,
          "time": 39.883720930231675,
          "velocity": 0.23622047244094488,
          "duration": 0.034883720930224626
        },
        {
          "name": "C6",
          "midi": 84,
          "time": 39.883720930231675,
          "velocity": 0.3464566929133858,
          "duration": 0.034883720930224626
        },
        {
          "name": "D#6",
          "midi": 87,
          "time": 39.883720930231675,
          "velocity": 0.25196850393700787,
          "duration": 0.04651162790696617
        },
        {
          "name": "F5",
          "midi": 77,
          "time": 39.89534883720842,
          "velocity": 0.4566929133858268,
          "duration": 0.22093023255813193
        },
        {
          "name": "G#5",
          "midi": 80,
          "time": 39.93023255813864,
          "velocity": 0.10236220472440945,
          "duration": 0.06976744186046346
        },
        {
          "name": "G#4",
          "midi": 68,
          "time": 39.976744186045615,
          "velocity": 0.07874015748031496,
          "duration": 0.1046511627907023
        },
        {
          "name": "E5",
          "midi": 76,
          "time": 40.05813953488283,
          "velocity": 0.3937007874015748,
          "duration": 0.02325581395349019
        },
        {
          "name": "C6",
          "midi": 84,
          "time": 40.05813953488283,
          "velocity": 0.25196850393700787,
          "duration": 0.03488372093023173
        },
        {
          "name": "B6",
          "midi": 95,
          "time": 40.05813953488283,
          "velocity": 0.2677165354330709,
          "duration": 0.03488372093023173
        },
        {
          "name": "G#3",
          "midi": 56,
          "time": 40.08139534883632,
          "velocity": 0.4330708661417323,
          "duration": 0.25581395348835656
        },
        {
          "name": "D#5",
          "midi": 75,
          "time": 40.11627906976655,
          "velocity": 0.2204724409448819,
          "duration": 0.12790697674417117
        },
        {
          "name": "F#5",
          "midi": 78,
          "time": 40.11627906976655,
          "velocity": 0.4330708661417323,
          "duration": 0.09302325581393944
        },
        {
          "name": "C#7",
          "midi": 97,
          "time": 40.11627906976655,
          "velocity": 0.23622047244094488,
          "duration": 0.0813953488371979
        },
        {
          "name": "F4",
          "midi": 65,
          "time": 40.16279069767352,
          "velocity": 0.4094488188976378,
          "duration": 0.09302325581393944
        },
        {
          "name": "G#5",
          "midi": 80,
          "time": 40.16279069767352,
          "velocity": 0.4094488188976378,
          "duration": 0.17441860465115155
        },
        {
          "name": "B5",
          "midi": 83,
          "time": 40.16279069767352,
          "velocity": 0.3858267716535433,
          "duration": 0.034883720930224626
        },
        {
          "name": "D#6",
          "midi": 87,
          "time": 40.16279069767352,
          "velocity": 0.28346456692913385,
          "duration": 0.23255813953486637
        },
        {
          "name": "F6",
          "midi": 89,
          "time": 40.16279069767352,
          "velocity": 0.2283464566929134,
          "duration": 0.04651162790696617
        },
        {
          "name": "G#4",
          "midi": 68,
          "time": 40.17441860465026,
          "velocity": 0.5354330708661418,
          "duration": 0.23255813953486637
        },
        {
          "name": "B4",
          "midi": 71,
          "time": 40.17441860465026,
          "velocity": 0.4409448818897638,
          "duration": 0.023255813953483084
        },
        {
          "name": "G6",
          "midi": 91,
          "time": 40.17441860465026,
          "velocity": 0.25984251968503935,
          "duration": 0.058139534883714816
        },
        {
          "name": "C#4",
          "midi": 61,
          "time": 40.186046511627005,
          "velocity": 0.5275590551181102,
          "duration": 0.1860465116279002
        },
        {
          "name": "C6",
          "midi": 84,
          "time": 40.186046511627005,
          "velocity": 0.3937007874015748,
          "duration": 0.06976744186045636
        },
        {
          "name": "C5",
          "midi": 72,
          "time": 40.19767441860375,
          "velocity": 0.47244094488188976,
          "duration": 0.03488372093023173
        },
        {
          "name": "E7",
          "midi": 100,
          "time": 40.19767441860375,
          "velocity": 0.14173228346456693,
          "duration": 0.046511627906973274
        },
        {
          "name": "F7",
          "midi": 101,
          "time": 40.24418604651072,
          "velocity": 0.1968503937007874,
          "duration": 0.2674418604651052
        },
        {
          "name": "F4",
          "midi": 65,
          "time": 40.27906976744095,
          "velocity": 0.18110236220472442,
          "duration": 0.06976744186046346
        },
        {
          "name": "C6",
          "midi": 84,
          "time": 40.38372093023165,
          "velocity": 0.2440944881889764,
          "duration": 0.1046511627906952
        },
        {
          "name": "C#4",
          "midi": 61,
          "time": 40.40697674418513,
          "velocity": 0.13385826771653545,
          "duration": 0.08139534883721211
        },
        {
          "name": "F4",
          "midi": 65,
          "time": 40.40697674418513,
          "velocity": 0.5039370078740157,
          "duration": 0.09302325581395365
        },
        {
          "name": "A#4",
          "midi": 70,
          "time": 40.48837209302234,
          "velocity": 0.2440944881889764,
          "duration": 0.20930232558134776
        },
        {
          "name": "D#3",
          "midi": 51,
          "time": 40.49999999999908,
          "velocity": 0.6535433070866141,
          "duration": 0.011627906976741542
        },
        {
          "name": "C6",
          "midi": 84,
          "time": 40.49999999999908,
          "velocity": 0.3228346456692913,
          "duration": 0.10465116279067388
        },
        {
          "name": "A2",
          "midi": 45,
          "time": 40.511627906975825,
          "velocity": 0.6850393700787402,
          "duration": 0.011627906976741542
        },
        {
          "name": "C5",
          "midi": 72,
          "time": 40.511627906975825,
          "velocity": 0.29133858267716534,
          "duration": 0.04651162790696617
        },
        {
          "name": "D5",
          "midi": 74,
          "time": 40.511627906975825,
          "velocity": 0.2992125984251969,
          "duration": 0.023255813953483084
        },
        {
          "name": "G5",
          "midi": 79,
          "time": 40.511627906975825,
          "velocity": 0.25196850393700787,
          "duration": 0.15116279069764005
        },
        {
          "name": "F2",
          "midi": 41,
          "time": 40.52325581395257,
          "velocity": 0.6929133858267716,
          "duration": 0.011627906976741542
        },
        {
          "name": "D#4",
          "midi": 63,
          "time": 40.52325581395257,
          "velocity": 0.36220472440944884,
          "duration": 0.05813953488370771
        },
        {
          "name": "G#4",
          "midi": 68,
          "time": 40.52325581395257,
          "velocity": 0.30708661417322836,
          "duration": 0.19767441860460622
        },
        {
          "name": "D#5",
          "midi": 75,
          "time": 40.52325581395257,
          "velocity": 0.36220472440944884,
          "duration": 0.034883720930224626
        },
        {
          "name": "A6",
          "midi": 93,
          "time": 40.52325581395257,
          "velocity": 0.12598425196850394,
          "duration": 0.034883720930224626
        },
        {
          "name": "A#6",
          "midi": 94,
          "time": 40.52325581395257,
          "velocity": 0.28346456692913385,
          "duration": 0.3255813953487703
        },
        {
          "name": "E7",
          "midi": 100,
          "time": 40.52325581395257,
          "velocity": 0.15748031496062992,
          "duration": 0.11627906976741542
        },
        {
          "name": "C#2",
          "midi": 37,
          "time": 40.53488372092931,
          "velocity": 0.7322834645669292,
          "duration": 0.011627906976741542
        },
        {
          "name": "G#3",
          "midi": 56,
          "time": 40.53488372092931,
          "velocity": 0.5118110236220472,
          "duration": 0.15116279069764005
        },
        {
          "name": "C4",
          "midi": 60,
          "time": 40.53488372092931,
          "velocity": 0.5433070866141733,
          "duration": 0.6162790697673515
        },
        {
          "name": "G#5",
          "midi": 80,
          "time": 40.53488372092931,
          "velocity": 0.33858267716535434,
          "duration": 0.24418604651157239
        },
        {
          "name": "F#6",
          "midi": 90,
          "time": 40.53488372092931,
          "velocity": 0.2677165354330709,
          "duration": 0.1395348837208985
        },
        {
          "name": "C2",
          "midi": 36,
          "time": 40.54651162790605,
          "velocity": 0.7637795275590551,
          "duration": 0.011627906976741542
        },
        {
          "name": "E6",
          "midi": 88,
          "time": 40.54651162790605,
          "velocity": 0.30708661417322836,
          "duration": 0.17441860465112313
        },
        {
          "name": "C#7",
          "midi": 97,
          "time": 40.54651162790605,
          "velocity": 0.08661417322834646,
          "duration": 0.034883720930224626
        },
        {
          "name": "B1",
          "midi": 35,
          "time": 40.55813953488279,
          "velocity": 0.7559055118110236,
          "duration": 0.011627906976741542
        },
        {
          "name": "D#6",
          "midi": 87,
          "time": 40.55813953488279,
          "velocity": 0.3543307086614173,
          "duration": 0.5813953488371268
        },
        {
          "name": "F7",
          "midi": 101,
          "time": 40.55813953488279,
          "velocity": 0.10236220472440945,
          "duration": 0.0813953488371908
        },
        {
          "name": "A#1",
          "midi": 34,
          "time": 40.56976744185953,
          "velocity": 0.7244094488188977,
          "duration": 0.011627906976741542
        },
        {
          "name": "G7",
          "midi": 103,
          "time": 40.56976744185953,
          "velocity": 0.18110236220472442,
          "duration": 0.05813953488370771
        },
        {
          "name": "A1",
          "midi": 33,
          "time": 40.581395348836274,
          "velocity": 0.6771653543307087,
          "duration": 0.011627906976741542
        },
        {
          "name": "D#5",
          "midi": 75,
          "time": 40.581395348836274,
          "velocity": 0.4409448818897638,
          "duration": 0.3837209302324922
        },
        {
          "name": "G#1",
          "midi": 32,
          "time": 40.593023255813016,
          "velocity": 0.6535433070866141,
          "duration": 0.023255813953483084
        },
        {
          "name": "C#6",
          "midi": 85,
          "time": 40.593023255813016,
          "velocity": 0.23622047244094488,
          "duration": 0.034883720930224626
        },
        {
          "name": "G1",
          "midi": 31,
          "time": 40.6162790697665,
          "velocity": 0.6062992125984252,
          "duration": 0.023255813953483084
        },
        {
          "name": "C6",
          "midi": 84,
          "time": 40.6162790697665,
          "velocity": 0.3543307086614173,
          "duration": 0.2209302325580964
        },
        {
          "name": "F#5",
          "midi": 78,
          "time": 40.62790697674324,
          "velocity": 0.2677165354330709,
          "duration": 0.11627906976741542
        },
        {
          "name": "F6",
          "midi": 89,
          "time": 40.62790697674324,
          "velocity": 0.13385826771653545,
          "duration": 0.034883720930224626
        },
        {
          "name": "A6",
          "midi": 93,
          "time": 40.62790697674324,
          "velocity": 0.07086614173228346,
          "duration": 0.034883720930224626
        },
        {
          "name": "F#1",
          "midi": 30,
          "time": 40.63953488371998,
          "velocity": 0.6299212598425197,
          "duration": 0.011627906976741542
        },
        {
          "name": "A#5",
          "midi": 82,
          "time": 40.63953488371998,
          "velocity": 0.2992125984251969,
          "duration": 0.3837209302325064
        },
        {
          "name": "G1",
          "midi": 31,
          "time": 40.65116279069672,
          "velocity": 0.7637795275590551,
          "duration": 0.10465116279067388
        },
        {
          "name": "D#3",
          "midi": 51,
          "time": 40.65116279069672,
          "velocity": 0.3228346456692913,
          "duration": 0.04651162790696617
        },
        {
          "name": "D#4",
          "midi": 63,
          "time": 40.65116279069672,
          "velocity": 0.4409448818897638,
          "duration": 0.023255813953483084
        },
        {
          "name": "G5",
          "midi": 79,
          "time": 40.67441860465021,
          "velocity": 0.30708661417322836,
          "duration": 0.05813953488370771
        },
        {
          "name": "D#4",
          "midi": 63,
          "time": 40.68604651162695,
          "velocity": 0.4645669291338583,
          "duration": 0.034883720930224626
        },
        {
          "name": "G#3",
          "midi": 56,
          "time": 40.69767441860369,
          "velocity": 0.36220472440944884,
          "duration": 0.023255813953483084
        },
        {
          "name": "F6",
          "midi": 89,
          "time": 40.69767441860369,
          "velocity": 0.25984251968503935,
          "duration": 0.04651162790696617
        },
        {
          "name": "C#6",
          "midi": 85,
          "time": 40.70930232558043,
          "velocity": 0.2283464566929134,
          "duration": 0.15116279069764715
        },
        {
          "name": "D#3",
          "midi": 51,
          "time": 40.72093023255717,
          "velocity": 0.25984251968503935,
          "duration": 0.023255813953483084
        },
        {
          "name": "G#4",
          "midi": 68,
          "time": 40.732558139533914,
          "velocity": 0.5511811023622047,
          "duration": 0.4302325581394868
        },
        {
          "name": "A#4",
          "midi": 70,
          "time": 40.732558139533914,
          "velocity": 0.14173228346456693,
          "duration": 0.04651162790696617
        },
        {
          "name": "G5",
          "midi": 79,
          "time": 40.744186046510656,
          "velocity": 0.2677165354330709,
          "duration": 0.1627906976743958
        },
        {
          "name": "G#1",
          "midi": 32,
          "time": 40.7558139534874,
          "velocity": 0.7401574803149606,
          "duration": 0.034883720930224626
        },
        {
          "name": "D#3",
          "midi": 51,
          "time": 40.7558139534874,
          "velocity": 0.3858267716535433,
          "duration": 0.4069767441860037
        },
        {
          "name": "F#5",
          "midi": 78,
          "time": 40.76744186046414,
          "velocity": 0.12598425196850394,
          "duration": 0.058139534883714816
        },
        {
          "name": "A1",
          "midi": 33,
          "time": 40.79069767441762,
          "velocity": 0.6771653543307087,
          "duration": 0.011627906976741542
        },
        {
          "name": "D#4",
          "midi": 63,
          "time": 40.79069767441762,
          "velocity": 0.44881889763779526,
          "duration": 0.03488372093023173
        },
        {
          "name": "G#1",
          "midi": 32,
          "time": 40.80232558139436,
          "velocity": 0.6850393700787402,
          "duration": 0.36046511627903755
        },
        {
          "name": "F5",
          "midi": 77,
          "time": 40.825581395347854,
          "velocity": 0.07086614173228346,
          "duration": 0.034883720930224626
        },
        {
          "name": "F5",
          "midi": 77,
          "time": 40.91860465116179,
          "velocity": 0.12598425196850394,
          "duration": 0.16279069767441
        },
        {
          "name": "G#3",
          "midi": 56,
          "time": 40.930232558138535,
          "velocity": 0.33858267716535434,
          "duration": 0.02325581395349019
        },
        {
          "name": "G#3",
          "midi": 56,
          "time": 40.965116279068766,
          "velocity": 0.3543307086614173,
          "duration": 0.11627906976743674
        },
        {
          "name": "D#5",
          "midi": 75,
          "time": 40.98837209302226,
          "velocity": 0.12598425196850394,
          "duration": 0.081395348837205
        },
        {
          "name": "E7",
          "midi": 100,
          "time": 41.03488372092923,
          "velocity": 0.1732283464566929,
          "duration": 0.03488372093023173
        },
        {
          "name": "F7",
          "midi": 101,
          "time": 41.03488372092923,
          "velocity": 0.2047244094488189,
          "duration": 0.03488372093023173
        },
        {
          "name": "F#7",
          "midi": 102,
          "time": 41.03488372092923,
          "velocity": 0.2204724409448819,
          "duration": 0.046511627906973274
        },
        {
          "name": "G7",
          "midi": 103,
          "time": 41.03488372092923,
          "velocity": 0.14960629921259844,
          "duration": 0.03488372093023173
        },
        {
          "name": "G#3",
          "midi": 56,
          "time": 41.093023255812945,
          "velocity": 0.2677165354330709,
          "duration": 0.046511627906973274
        },
        {
          "name": "D6",
          "midi": 86,
          "time": 41.13953488371992,
          "velocity": 0.10236220472440945,
          "duration": 0.034883720930224626
        },
        {
          "name": "F6",
          "midi": 89,
          "time": 41.13953488371992,
          "velocity": 0.31496062992125984,
          "duration": 0.04651162790696617
        },
        {
          "name": "G6",
          "midi": 91,
          "time": 41.13953488371992,
          "velocity": 0.33070866141732286,
          "duration": 0.04651162790696617
        },
        {
          "name": "G#6",
          "midi": 92,
          "time": 41.13953488371992,
          "velocity": 0.4251968503937008,
          "duration": 0.05813953488370771
        },
        {
          "name": "C7",
          "midi": 96,
          "time": 41.13953488371992,
          "velocity": 0.3464566929133858,
          "duration": 0.31395348837204295
        },
        {
          "name": "C#7",
          "midi": 97,
          "time": 41.13953488371992,
          "velocity": 0.33858267716535434,
          "duration": 0.09302325581393234
        },
        {
          "name": "E5",
          "midi": 76,
          "time": 41.15116279069666,
          "velocity": 0.3228346456692913,
          "duration": 0.023255813953483084
        },
        {
          "name": "G5",
          "midi": 79,
          "time": 41.15116279069666,
          "velocity": 0.3700787401574803,
          "duration": 0.05813953488370771
        },
        {
          "name": "B5",
          "midi": 83,
          "time": 41.15116279069666,
          "velocity": 0.3543307086614173,
          "duration": 0.023255813953483084
        },
        {
          "name": "C#6",
          "midi": 85,
          "time": 41.15116279069666,
          "velocity": 0.23622047244094488,
          "duration": 0.023255813953483084
        },
        {
          "name": "F#6",
          "midi": 90,
          "time": 41.15116279069666,
          "velocity": 0.4094488188976378,
          "duration": 0.06976744186044925
        },
        {
          "name": "A#6",
          "midi": 94,
          "time": 41.15116279069666,
          "velocity": 0.3228346456692913,
          "duration": 0.06976744186044925
        },
        {
          "name": "B6",
          "midi": 95,
          "time": 41.15116279069666,
          "velocity": 0.3779527559055118,
          "duration": 0.09302325581393234
        },
        {
          "name": "D7",
          "midi": 98,
          "time": 41.15116279069666,
          "velocity": 0.30708661417322836,
          "duration": 0.10465116279067388
        },
        {
          "name": "D#7",
          "midi": 99,
          "time": 41.15116279069666,
          "velocity": 0.36220472440944884,
          "duration": 0.3023255813953014
        },
        {
          "name": "A1",
          "midi": 33,
          "time": 41.1627906976734,
          "velocity": 0.5669291338582677,
          "duration": 0.011627906976741542
        },
        {
          "name": "F#4",
          "midi": 66,
          "time": 41.1627906976734,
          "velocity": 0.28346456692913385,
          "duration": 0.023255813953483084
        },
        {
          "name": "A#4",
          "midi": 70,
          "time": 41.1627906976734,
          "velocity": 0.25196850393700787,
          "duration": 0.023255813953483084
        },
        {
          "name": "C#5",
          "midi": 73,
          "time": 41.1627906976734,
          "velocity": 0.3779527559055118,
          "duration": 0.06976744186044925
        },
        {
          "name": "A#5",
          "midi": 82,
          "time": 41.1627906976734,
          "velocity": 0.2755905511811024,
          "duration": 0.04651162790696617
        },
        {
          "name": "C6",
          "midi": 84,
          "time": 41.1627906976734,
          "velocity": 0.4094488188976378,
          "duration": 0.04651162790696617
        },
        {
          "name": "D#6",
          "midi": 87,
          "time": 41.1627906976734,
          "velocity": 0.3700787401574803,
          "duration": 0.5348837209301536
        },
        {
          "name": "A6",
          "midi": 93,
          "time": 41.1627906976734,
          "velocity": 0.33070866141732286,
          "duration": 0.06976744186044925
        },
        {
          "name": "E7",
          "midi": 100,
          "time": 41.1627906976734,
          "velocity": 0.33070866141732286,
          "duration": 0.09302325581393234
        },
        {
          "name": "E6",
          "midi": 88,
          "time": 41.17441860465014,
          "velocity": 0.33070866141732286,
          "duration": 0.04651162790696617
        },
        {
          "name": "G#4",
          "midi": 68,
          "time": 41.186046511626884,
          "velocity": 0.2992125984251969,
          "duration": 0.023255813953483084
        },
        {
          "name": "D#5",
          "midi": 75,
          "time": 41.186046511626884,
          "velocity": 0.2755905511811024,
          "duration": 0.023255813953483084
        },
        {
          "name": "A5",
          "midi": 81,
          "time": 41.186046511626884,
          "velocity": 0.2992125984251969,
          "duration": 0.034883720930224626
        },
        {
          "name": "D#4",
          "midi": 63,
          "time": 41.197674418603626,
          "velocity": 0.1732283464566929,
          "duration": 0.04651162790696617
        },
        {
          "name": "B5",
          "midi": 83,
          "time": 41.197674418603626,
          "velocity": 0.1732283464566929,
          "duration": 0.06976744186044925
        },
        {
          "name": "D6",
          "midi": 86,
          "time": 41.197674418603626,
          "velocity": 0.2677165354330709,
          "duration": 0.023255813953483084
        },
        {
          "name": "F6",
          "midi": 89,
          "time": 41.197674418603626,
          "velocity": 0.15748031496062992,
          "duration": 0.05813953488370771
        },
        {
          "name": "G#5",
          "midi": 80,
          "time": 41.20930232558037,
          "velocity": 0.3228346456692913,
          "duration": 0.29069767441855987
        },
        {
          "name": "G#4",
          "midi": 68,
          "time": 41.22093023255711,
          "velocity": 0.3937007874015748,
          "duration": 0.2441860465115937
        },
        {
          "name": "D#4",
          "midi": 63,
          "time": 41.27906976744082,
          "velocity": 0.07086614173228346,
          "duration": 0.06976744186046346
        },
        {
          "name": "D#4",
          "midi": 63,
          "time": 41.36046511627802,
          "velocity": 0.4645669291338583,
          "duration": 0.27906976744181833
        },
        {
          "name": "F6",
          "midi": 89,
          "time": 41.36046511627802,
          "velocity": 0.1889763779527559,
          "duration": 0.034883720930224626
        },
        {
          "name": "G6",
          "midi": 91,
          "time": 41.36046511627802,
          "velocity": 0.16535433070866143,
          "duration": 0.034883720930224626
        },
        {
          "name": "A#6",
          "midi": 94,
          "time": 41.36046511627802,
          "velocity": 0.1732283464566929,
          "duration": 0.0813953488371979
        },
        {
          "name": "A#5",
          "midi": 82,
          "time": 41.37209302325476,
          "velocity": 0.2755905511811024,
          "duration": 0.1627906976743887
        },
        {
          "name": "F#7",
          "midi": 102,
          "time": 41.383720930231505,
          "velocity": 0.1732283464566929,
          "duration": 0.06976744186045636
        },
        {
          "name": "G6",
          "midi": 91,
          "time": 41.40697674418499,
          "velocity": 0.2047244094488189,
          "duration": 0.1627906976743887
        },
        {
          "name": "C6",
          "midi": 84,
          "time": 41.4651162790687,
          "velocity": 0.15748031496062992,
          "duration": 0.034883720930224626
        },
        {
          "name": "B6",
          "midi": 95,
          "time": 41.4651162790687,
          "velocity": 0.2047244094488189,
          "duration": 0.10465116279067388
        },
        {
          "name": "E7",
          "midi": 100,
          "time": 41.4651162790687,
          "velocity": 0.16535433070866143,
          "duration": 0.09302325581393234
        },
        {
          "name": "B3",
          "midi": 59,
          "time": 41.476744186045444,
          "velocity": 0.3228346456692913,
          "duration": 0.023255813953483084
        },
        {
          "name": "G#4",
          "midi": 68,
          "time": 41.476744186045444,
          "velocity": 0.5748031496062992,
          "duration": 0.23255813953485216
        },
        {
          "name": "C#6",
          "midi": 85,
          "time": 41.476744186045444,
          "velocity": 0.2755905511811024,
          "duration": 0.10465116279067388
        },
        {
          "name": "E6",
          "midi": 88,
          "time": 41.476744186045444,
          "velocity": 0.2755905511811024,
          "duration": 0.023255813953483084
        },
        {
          "name": "G5",
          "midi": 79,
          "time": 41.488372093022186,
          "velocity": 0.2992125984251969,
          "duration": 0.12790697674416407
        },
        {
          "name": "F#6",
          "midi": 90,
          "time": 41.488372093022186,
          "velocity": 0.25984251968503935,
          "duration": 0.06976744186044925
        },
        {
          "name": "A6",
          "midi": 93,
          "time": 41.488372093022186,
          "velocity": 0.2755905511811024,
          "duration": 0.0813953488371908
        },
        {
          "name": "C7",
          "midi": 96,
          "time": 41.488372093022186,
          "velocity": 0.2992125984251969,
          "duration": 0.06976744186044925
        },
        {
          "name": "C#7",
          "midi": 97,
          "time": 41.488372093022186,
          "velocity": 0.28346456692913385,
          "duration": 0.06976744186044925
        },
        {
          "name": "D7",
          "midi": 98,
          "time": 41.488372093022186,
          "velocity": 0.2204724409448819,
          "duration": 0.06976744186044925
        },
        {
          "name": "F7",
          "midi": 101,
          "time": 41.49999999999893,
          "velocity": 0.1968503937007874,
          "duration": 0.05813953488370771
        },
        {
          "name": "E5",
          "midi": 76,
          "time": 41.51162790697567,
          "velocity": 0.1732283464566929,
          "duration": 0.034883720930224626
        },
        {
          "name": "C6",
          "midi": 84,
          "time": 41.51162790697567,
          "velocity": 0.29133858267716534,
          "duration": 0.05813953488370771
        },
        {
          "name": "E6",
          "midi": 88,
          "time": 41.51162790697567,
          "velocity": 0.31496062992125984,
          "duration": 0.05813953488370771
        },
        {
          "name": "F5",
          "midi": 77,
          "time": 41.52325581395241,
          "velocity": 0.10236220472440945,
          "duration": 0.04651162790696617
        },
        {
          "name": "C4",
          "midi": 60,
          "time": 41.53488372092915,
          "velocity": 0.2677165354330709,
          "duration": 0.1627906976744029
        },
        {
          "name": "A#5",
          "midi": 82,
          "time": 41.68604651162681,
          "velocity": 0.14960629921259844,
          "duration": 0.05813953488370771
        },
        {
          "name": "C6",
          "midi": 84,
          "time": 41.697674418603555,
          "velocity": 0.2677165354330709,
          "duration": 0.0813953488371979
        },
        {
          "name": "D6",
          "midi": 86,
          "time": 41.697674418603555,
          "velocity": 0.1968503937007874,
          "duration": 0.04651162790696617
        },
        {
          "name": "A#6",
          "midi": 94,
          "time": 41.697674418603555,
          "velocity": 0.2204724409448819,
          "duration": 0.10465116279068098
        },
        {
          "name": "G#3",
          "midi": 56,
          "time": 41.709302325580296,
          "velocity": 0.5039370078740157,
          "duration": 0.09302325581393944
        },
        {
          "name": "D#4",
          "midi": 63,
          "time": 41.709302325580296,
          "velocity": 0.2283464566929134,
          "duration": 0.09302325581393944
        },
        {
          "name": "C#6",
          "midi": 85,
          "time": 41.709302325580296,
          "velocity": 0.2992125984251969,
          "duration": 0.0813953488371979
        },
        {
          "name": "D#6",
          "midi": 87,
          "time": 41.709302325580296,
          "velocity": 0.31496062992125984,
          "duration": 0.10465116279068098
        },
        {
          "name": "F#6",
          "midi": 90,
          "time": 41.709302325580296,
          "velocity": 0.23622047244094488,
          "duration": 0.034883720930224626
        },
        {
          "name": "A6",
          "midi": 93,
          "time": 41.709302325580296,
          "velocity": 0.2440944881889764,
          "duration": 0.10465116279068098
        },
        {
          "name": "B6",
          "midi": 95,
          "time": 41.709302325580296,
          "velocity": 0.2204724409448819,
          "duration": 0.06976744186045636
        },
        {
          "name": "E7",
          "midi": 100,
          "time": 41.709302325580296,
          "velocity": 0.15748031496062992,
          "duration": 0.06976744186045636
        },
        {
          "name": "B5",
          "midi": 83,
          "time": 41.72093023255704,
          "velocity": 0.1968503937007874,
          "duration": 0.10465116279068098
        },
        {
          "name": "E6",
          "midi": 88,
          "time": 41.72093023255704,
          "velocity": 0.2755905511811024,
          "duration": 0.20930232558135486
        },
        {
          "name": "G#6",
          "midi": 92,
          "time": 41.72093023255704,
          "velocity": 0.3464566929133858,
          "duration": 0.06976744186045636
        },
        {
          "name": "F7",
          "midi": 101,
          "time": 41.72093023255704,
          "velocity": 0.28346456692913385,
          "duration": 0.06976744186045636
        },
        {
          "name": "F6",
          "midi": 89,
          "time": 41.73255813953378,
          "velocity": 0.33858267716535434,
          "duration": 0.10465116279068098
        },
        {
          "name": "G7",
          "midi": 103,
          "time": 41.73255813953378,
          "velocity": 0.16535433070866143,
          "duration": 0.046511627906973274
        },
        {
          "name": "G#5",
          "midi": 80,
          "time": 41.74418604651052,
          "velocity": 0.11811023622047244,
          "duration": 0.058139534883714816
        },
        {
          "name": "G6",
          "midi": 91,
          "time": 41.74418604651052,
          "velocity": 0.2283464566929134,
          "duration": 0.0813953488371979
        },
        {
          "name": "D6",
          "midi": 86,
          "time": 41.75581395348726,
          "velocity": 0.15748031496062992,
          "duration": 0.12790697674416407
        },
        {
          "name": "F#3",
          "midi": 54,
          "time": 41.802325581394236,
          "velocity": 0.5826771653543307,
          "duration": 0.011627906976741542
        },
        {
          "name": "C#5",
          "midi": 73,
          "time": 41.802325581394236,
          "velocity": 0.2677165354330709,
          "duration": 0.034883720930224626
        },
        {
          "name": "A#5",
          "midi": 82,
          "time": 41.802325581394236,
          "velocity": 0.36220472440944884,
          "duration": 0.2674418604650626
        },
        {
          "name": "A2",
          "midi": 45,
          "time": 41.81395348837098,
          "velocity": 0.6456692913385826,
          "duration": 0.011627906976741542
        },
        {
          "name": "D3",
          "midi": 50,
          "time": 41.81395348837098,
          "velocity": 0.6614173228346457,
          "duration": 0.023255813953483084
        },
        {
          "name": "E4",
          "midi": 64,
          "time": 41.81395348837098,
          "velocity": 0.4094488188976378,
          "duration": 0.04651162790696617
        },
        {
          "name": "G#4",
          "midi": 68,
          "time": 41.81395348837098,
          "velocity": 0.2440944881889764,
          "duration": 0.023255813953483084
        },
        {
          "name": "F#5",
          "midi": 78,
          "time": 41.81395348837098,
          "velocity": 0.30708661417322836,
          "duration": 0.023255813953483084
        },
        {
          "name": "G#5",
          "midi": 80,
          "time": 41.81395348837098,
          "velocity": 0.29133858267716534,
          "duration": 0.023255813953483084
        },
        {
          "name": "C6",
          "midi": 84,
          "time": 41.81395348837098,
          "velocity": 0.3779527559055118,
          "duration": 0.33720930232551893
        },
        {
          "name": "F2",
          "midi": 41,
          "time": 41.82558139534772,
          "velocity": 0.7086614173228346,
          "duration": 0.011627906976741542
        },
        {
          "name": "C#7",
          "midi": 97,
          "time": 41.82558139534772,
          "velocity": 0.1968503937007874,
          "duration": 0.18604651162786467
        },
        {
          "name": "D7",
          "midi": 98,
          "time": 41.82558139534772,
          "velocity": 0.2047244094488189,
          "duration": 0.0813953488371908
        },
        {
          "name": "D#7",
          "midi": 99,
          "time": 41.82558139534772,
          "velocity": 0.31496062992125984,
          "duration": 0.8720930232556938
        },
        {
          "name": "G7",
          "midi": 103,
          "time": 41.82558139534772,
          "velocity": 0.12598425196850394,
          "duration": 0.17441860465112313
        },
        {
          "name": "D2",
          "midi": 38,
          "time": 41.83720930232446,
          "velocity": 0.7322834645669292,
          "duration": 0.011627906976741542
        },
        {
          "name": "G#3",
          "midi": 56,
          "time": 41.83720930232446,
          "velocity": 0.48031496062992124,
          "duration": 0.0813953488371908
        },
        {
          "name": "C5",
          "midi": 72,
          "time": 41.83720930232446,
          "velocity": 0.4409448818897638,
          "duration": 0.3255813953487774
        },
        {
          "name": "D#5",
          "midi": 75,
          "time": 41.83720930232446,
          "velocity": 0.4251968503937008,
          "duration": 0.4302325581394726
        },
        {
          "name": "G5",
          "midi": 79,
          "time": 41.83720930232446,
          "velocity": 0.3464566929133858,
          "duration": 0.05813953488370771
        },
        {
          "name": "C#2",
          "midi": 37,
          "time": 41.8488372093012,
          "velocity": 0.7559055118110236,
          "duration": 0.011627906976741542
        },
        {
          "name": "B1",
          "midi": 35,
          "time": 41.86046511627794,
          "velocity": 0.7480314960629921,
          "duration": 0.011627906976741542
        },
        {
          "name": "F#5",
          "midi": 78,
          "time": 41.86046511627794,
          "velocity": 0.14960629921259844,
          "duration": 0.09302325581393234
        },
        {
          "name": "A#1",
          "midi": 34,
          "time": 41.872093023254685,
          "velocity": 0.7322834645669292,
          "duration": 0.011627906976741542
        },
        {
          "name": "C4",
          "midi": 60,
          "time": 41.872093023254685,
          "velocity": 0.3937007874015748,
          "duration": 0.2209302325581035
        },
        {
          "name": "A1",
          "midi": 33,
          "time": 41.883720930231426,
          "velocity": 0.7007874015748031,
          "duration": 0.011627906976741542
        },
        {
          "name": "G#1",
          "midi": 32,
          "time": 41.89534883720817,
          "velocity": 0.6771653543307087,
          "duration": 0.023255813953483084
        },
        {
          "name": "D#4",
          "midi": 63,
          "time": 41.89534883720817,
          "velocity": 0.41732283464566927,
          "duration": 0.581395348837134
        },
        {
          "name": "G#5",
          "midi": 80,
          "time": 41.89534883720817,
          "velocity": 0.3543307086614173,
          "duration": 0.11627906976741542
        },
        {
          "name": "G#6",
          "midi": 92,
          "time": 41.89534883720817,
          "velocity": 0.4251968503937008,
          "duration": 0.6162790697673586
        },
        {
          "name": "G6",
          "midi": 91,
          "time": 41.90697674418491,
          "velocity": 0.23622047244094488,
          "duration": 0.05813953488370771
        },
        {
          "name": "F7",
          "midi": 101,
          "time": 41.90697674418491,
          "velocity": 0.15748031496062992,
          "duration": 0.06976744186044925
        },
        {
          "name": "G1",
          "midi": 31,
          "time": 41.91860465116165,
          "velocity": 0.7637795275590551,
          "duration": 0.15116279069764715
        },
        {
          "name": "D#3",
          "midi": 51,
          "time": 41.93023255813839,
          "velocity": 0.33858267716535434,
          "duration": 0.0813953488371908
        },
        {
          "name": "D7",
          "midi": 98,
          "time": 41.93023255813839,
          "velocity": 0.16535433070866143,
          "duration": 0.06976744186044925
        },
        {
          "name": "C#6",
          "midi": 85,
          "time": 41.941860465115134,
          "velocity": 0.16535433070866143,
          "duration": 0.0813953488371908
        },
        {
          "name": "E6",
          "midi": 88,
          "time": 41.941860465115134,
          "velocity": 0.12598425196850394,
          "duration": 0.0813953488371908
        },
        {
          "name": "F5",
          "midi": 77,
          "time": 41.953488372091876,
          "velocity": 0.16535433070866143,
          "duration": 0.034883720930224626
        },
        {
          "name": "G5",
          "midi": 79,
          "time": 41.953488372091876,
          "velocity": 0.2992125984251969,
          "duration": 0.0813953488371908
        },
        {
          "name": "G#3",
          "midi": 56,
          "time": 41.96511627906862,
          "velocity": 0.4881889763779528,
          "duration": 0.38372093023252063
        },
        {
          "name": "G#4",
          "midi": 68,
          "time": 41.9883720930221,
          "velocity": 0.6062992125984252,
          "duration": 0.46511627906971853
        },
        {
          "name": "F#5",
          "midi": 78,
          "time": 41.9883720930221,
          "velocity": 0.15748031496062992,
          "duration": 0.04651162790696617
        },
        {
          "name": "D#3",
          "midi": 51,
          "time": 42.023255813952325,
          "velocity": 0.3779527559055118,
          "duration": 0.09302325581394655
        },
        {
          "name": "G6",
          "midi": 91,
          "time": 42.04651162790581,
          "velocity": 0.14173228346456693,
          "duration": 0.04651162790698038
        },
        {
          "name": "G#1",
          "midi": 32,
          "time": 42.0697674418593,
          "velocity": 0.7086614173228346,
          "duration": 0.02325581395349019
        },
        {
          "name": "C#7",
          "midi": 97,
          "time": 42.0697674418593,
          "velocity": 0.12598425196850394,
          "duration": 0.06976744186045636
        },
        {
          "name": "A1",
          "midi": 33,
          "time": 42.09302325581279,
          "velocity": 0.6771653543307087,
          "duration": 0.023255813953483084
        },
        {
          "name": "C4",
          "midi": 60,
          "time": 42.10465116278953,
          "velocity": 0.4330708661417323,
          "duration": 0.11627906976742253
        },
        {
          "name": "G#1",
          "midi": 32,
          "time": 42.11627906976627,
          "velocity": 0.6850393700787402,
          "duration": 0.3488372093022889
        },
        {
          "name": "G5",
          "midi": 79,
          "time": 42.11627906976627,
          "velocity": 0.25984251968503935,
          "duration": 0.034883720930224626
        },
        {
          "name": "D#3",
          "midi": 51,
          "time": 42.12790697674301,
          "velocity": 0.3700787401574803,
          "duration": 0.1860465116279002
        },
        {
          "name": "A#5",
          "midi": 82,
          "time": 42.139534883719755,
          "velocity": 0.2283464566929134,
          "duration": 0.15116279069766847
        },
        {
          "name": "F#5",
          "midi": 78,
          "time": 42.151162790696496,
          "velocity": 0.14960629921259844,
          "duration": 0.034883720930224626
        },
        {
          "name": "C#7",
          "midi": 97,
          "time": 42.17441860464998,
          "velocity": 0.14960629921259844,
          "duration": 0.046511627906973274
        },
        {
          "name": "C#6",
          "midi": 85,
          "time": 42.19767441860346,
          "velocity": 0.13385826771653545,
          "duration": 0.04651162790698038
        },
        {
          "name": "D#3",
          "midi": 51,
          "time": 42.325581395347655,
          "velocity": 0.5511811023622047,
          "duration": 0.15116279069764715
        },
        {
          "name": "C#7",
          "midi": 97,
          "time": 42.337209302324396,
          "velocity": 0.30708661417322836,
          "duration": 0.39534883720924796
        },
        {
          "name": "C#6",
          "midi": 85,
          "time": 42.36046511627788,
          "velocity": 0.3858267716535433,
          "duration": 0.15116279069764715
        },
        {
          "name": "A#4",
          "midi": 70,
          "time": 42.37209302325462,
          "velocity": 0.31496062992125984,
          "duration": 0.1395348837209056
        },
        {
          "name": "G#3",
          "midi": 56,
          "time": 42.38372093023136,
          "velocity": 0.2992125984251969,
          "duration": 0.046511627906973274
        },
        {
          "name": "F6",
          "midi": 89,
          "time": 42.44186046511508,
          "velocity": 0.25984251968503935,
          "duration": 0.0813953488371908
        },
        {
          "name": "G4",
          "midi": 67,
          "time": 42.45348837209182,
          "velocity": 0.2440944881889764,
          "duration": 0.04651162790696617
        },
        {
          "name": "C#5",
          "midi": 73,
          "time": 42.45348837209182,
          "velocity": 0.3700787401574803,
          "duration": 0.0813953488371908
        },
        {
          "name": "E5",
          "midi": 76,
          "time": 42.45348837209182,
          "velocity": 0.30708661417322836,
          "duration": 0.04651162790696617
        },
        {
          "name": "F#5",
          "midi": 78,
          "time": 42.45348837209182,
          "velocity": 0.25196850393700787,
          "duration": 0.04651162790696617
        },
        {
          "name": "B5",
          "midi": 83,
          "time": 42.45348837209182,
          "velocity": 0.28346456692913385,
          "duration": 0.034883720930224626
        },
        {
          "name": "D6",
          "midi": 86,
          "time": 42.45348837209182,
          "velocity": 0.25984251968503935,
          "duration": 0.034883720930224626
        },
        {
          "name": "A#6",
          "midi": 94,
          "time": 42.45348837209182,
          "velocity": 0.30708661417322836,
          "duration": 0.10465116279067388
        },
        {
          "name": "D7",
          "midi": 98,
          "time": 42.45348837209182,
          "velocity": 0.2677165354330709,
          "duration": 0.09302325581393234
        },
        {
          "name": "F7",
          "midi": 101,
          "time": 42.45348837209182,
          "velocity": 0.25984251968503935,
          "duration": 0.10465116279067388
        },
        {
          "name": "F#7",
          "midi": 102,
          "time": 42.45348837209182,
          "velocity": 0.2125984251968504,
          "duration": 0.10465116279067388
        },
        {
          "name": "A1",
          "midi": 33,
          "time": 42.46511627906856,
          "velocity": 0.5905511811023622,
          "duration": 0.011627906976741542
        },
        {
          "name": "F#6",
          "midi": 90,
          "time": 42.46511627906856,
          "velocity": 0.2992125984251969,
          "duration": 0.04651162790696617
        },
        {
          "name": "G6",
          "midi": 91,
          "time": 42.46511627906856,
          "velocity": 0.33070866141732286,
          "duration": 0.06976744186044925
        },
        {
          "name": "A#1",
          "midi": 34,
          "time": 42.4767441860453,
          "velocity": 0.5118110236220472,
          "duration": 0.011627906976741542
        },
        {
          "name": "D#6",
          "midi": 87,
          "time": 42.4767441860453,
          "velocity": 0.23622047244094488,
          "duration": 0.0813953488371908
        },
        {
          "name": "A6",
          "midi": 93,
          "time": 42.4767441860453,
          "velocity": 0.33858267716535434,
          "duration": 0.06976744186044925
        },
        {
          "name": "D#3",
          "midi": 51,
          "time": 42.48837209302204,
          "velocity": 0.44881889763779526,
          "duration": 0.267441860465091
        },
        {
          "name": "C4",
          "midi": 60,
          "time": 42.48837209302204,
          "velocity": 0.4409448818897638,
          "duration": 0.15116279069765426
        },
        {
          "name": "D#5",
          "midi": 75,
          "time": 42.48837209302204,
          "velocity": 0.23622047244094488,
          "duration": 0.023255813953483084
        },
        {
          "name": "C7",
          "midi": 96,
          "time": 42.48837209302204,
          "velocity": 0.29133858267716534,
          "duration": 0.023255813953483084
        },
        {
          "name": "E7",
          "midi": 100,
          "time": 42.48837209302204,
          "velocity": 0.29133858267716534,
          "duration": 0.0813953488371908
        },
        {
          "name": "G#4",
          "midi": 68,
          "time": 42.499999999998785,
          "velocity": 0.25196850393700787,
          "duration": 0.023255813953483084
        },
        {
          "name": "B4",
          "midi": 71,
          "time": 42.499999999998785,
          "velocity": 0.2440944881889764,
          "duration": 0.023255813953483084
        },
        {
          "name": "G5",
          "midi": 79,
          "time": 42.499999999998785,
          "velocity": 0.4015748031496063,
          "duration": 0.023255813953483084
        },
        {
          "name": "C6",
          "midi": 84,
          "time": 42.499999999998785,
          "velocity": 0.33070866141732286,
          "duration": 0.023255813953483084
        },
        {
          "name": "A#4",
          "midi": 70,
          "time": 42.52325581395227,
          "velocity": 0.12598425196850394,
          "duration": 0.05813953488370771
        },
        {
          "name": "G#5",
          "midi": 80,
          "time": 42.52325581395227,
          "velocity": 0.3464566929133858,
          "duration": 0.17441860465114445
        },
        {
          "name": "C7",
          "midi": 96,
          "time": 42.52325581395227,
          "velocity": 0.14173228346456693,
          "duration": 0.034883720930224626
        },
        {
          "name": "A#5",
          "midi": 82,
          "time": 42.66279069767319,
          "velocity": 0.33858267716535434,
          "duration": 0.1860465116278931
        },
        {
          "name": "D#4",
          "midi": 63,
          "time": 42.67441860464993,
          "velocity": 0.5196850393700787,
          "duration": 0.1046511627906952
        },
        {
          "name": "D#6",
          "midi": 87,
          "time": 42.67441860464993,
          "velocity": 0.3543307086614173,
          "duration": 0.023255813953483084
        },
        {
          "name": "G6",
          "midi": 91,
          "time": 42.67441860464993,
          "velocity": 0.1889763779527559,
          "duration": 0.034883720930224626
        },
        {
          "name": "E5",
          "midi": 76,
          "time": 42.68604651162667,
          "velocity": 0.4251968503937008,
          "duration": 0.046511627906973274
        },
        {
          "name": "C#6",
          "midi": 85,
          "time": 42.68604651162667,
          "velocity": 0.4409448818897638,
          "duration": 0.15116279069766847
        },
        {
          "name": "B6",
          "midi": 95,
          "time": 42.68604651162667,
          "velocity": 0.2047244094488189,
          "duration": 0.046511627906973274
        },
        {
          "name": "G5",
          "midi": 79,
          "time": 42.69767441860341,
          "velocity": 0.11023622047244094,
          "duration": 0.08139534883721211
        },
        {
          "name": "F5",
          "midi": 77,
          "time": 42.732558139533644,
          "velocity": 0.4251968503937008,
          "duration": 0.081395348837205
        },
        {
          "name": "C7",
          "midi": 96,
          "time": 42.732558139533644,
          "velocity": 0.25196850393700787,
          "duration": 0.06976744186046346
        },
        {
          "name": "C#5",
          "midi": 73,
          "time": 42.779069767440625,
          "velocity": 0.4566929133858268,
          "duration": 0.034883720930224626
        },
        {
          "name": "G#5",
          "midi": 80,
          "time": 42.779069767440625,
          "velocity": 0.2283464566929134,
          "duration": 0.034883720930224626
        },
        {
          "name": "G#6",
          "midi": 92,
          "time": 42.779069767440625,
          "velocity": 0.23622047244094488,
          "duration": 0.0813953488371979
        },
        {
          "name": "G#4",
          "midi": 68,
          "time": 42.790697674417366,
          "velocity": 0.5039370078740157,
          "duration": 0.2093023255813833
        },
        {
          "name": "G5",
          "midi": 79,
          "time": 42.790697674417366,
          "velocity": 0.25196850393700787,
          "duration": 0.13953488372091982
        },
        {
          "name": "D#6",
          "midi": 87,
          "time": 42.790697674417366,
          "velocity": 0.4251968503937008,
          "duration": 0.372093023255772
        },
        {
          "name": "D#4",
          "midi": 63,
          "time": 42.80232558139411,
          "velocity": 0.4251968503937008,
          "duration": 0.16279069767441
        },
        {
          "name": "C4",
          "midi": 60,
          "time": 42.81395348837085,
          "velocity": 0.3858267716535433,
          "duration": 0.2906976744185812
        },
        {
          "name": "D5",
          "midi": 74,
          "time": 42.81395348837085,
          "velocity": 0.4645669291338583,
          "duration": 0.03488372093023173
        },
        {
          "name": "E5",
          "midi": 76,
          "time": 42.81395348837085,
          "velocity": 0.07874015748031496,
          "duration": 0.046511627906973274
        },
        {
          "name": "A6",
          "midi": 93,
          "time": 42.81395348837085,
          "velocity": 0.2677165354330709,
          "duration": 0.03488372093023173
        },
        {
          "name": "F#7",
          "midi": 102,
          "time": 42.81395348837085,
          "velocity": 0.15748031496062992,
          "duration": 0.03488372093023173
        },
        {
          "name": "D#5",
          "midi": 75,
          "time": 42.84883720930108,
          "velocity": 0.48031496062992124,
          "duration": 0.27906976744183254
        },
        {
          "name": "C#6",
          "midi": 85,
          "time": 42.84883720930108,
          "velocity": 0.1889763779527559,
          "duration": 0.09302325581394655
        },
        {
          "name": "A#6",
          "midi": 94,
          "time": 42.84883720930108,
          "velocity": 0.28346456692913385,
          "duration": 0.27906976744183254
        },
        {
          "name": "G7",
          "midi": 103,
          "time": 42.84883720930108,
          "velocity": 0.1732283464566929,
          "duration": 0.27906976744183254
        },
        {
          "name": "F5",
          "midi": 77,
          "time": 42.86046511627782,
          "velocity": 0.1732283464566929,
          "duration": 0.081395348837205
        },
        {
          "name": "G#6",
          "midi": 92,
          "time": 42.88372093023131,
          "velocity": 0.07086614173228346,
          "duration": 0.046511627906973274
        },
        {
          "name": "C#7",
          "midi": 97,
          "time": 42.895348837208054,
          "velocity": 0.25196850393700787,
          "duration": 0.25581395348834235
        },
        {
          "name": "C#6",
          "midi": 85,
          "time": 42.96511627906852,
          "velocity": 0.09448818897637795,
          "duration": 0.046511627906973274
        },
        {
          "name": "F#5",
          "midi": 78,
          "time": 42.98837209302201,
          "velocity": 0.1732283464566929,
          "duration": 0.04651162790696617
        },
        {
          "name": "G5",
          "midi": 79,
          "time": 42.98837209302201,
          "velocity": 0.12598425196850394,
          "duration": 0.034883720930224626
        },
        {
          "name": "C5",
          "midi": 72,
          "time": 42.99999999999875,
          "velocity": 0.4645669291338583,
          "duration": 0.09302325581393944
        },
        {
          "name": "G6",
          "midi": 91,
          "time": 42.99999999999875,
          "velocity": 0.14173228346456693,
          "duration": 0.034883720930224626
        },
        {
          "name": "G#5",
          "midi": 80,
          "time": 43.01162790697549,
          "velocity": 0.1968503937007874,
          "duration": 0.18604651162787178
        },
        {
          "name": "D#4",
          "midi": 63,
          "time": 43.058139534882464,
          "velocity": 0.09448818897637795,
          "duration": 0.04651162790696617
        },
        {
          "name": "C#6",
          "midi": 85,
          "time": 43.069767441859206,
          "velocity": 0.14173228346456693,
          "duration": 0.05813953488370771
        },
        {
          "name": "G6",
          "midi": 91,
          "time": 43.08139534883595,
          "velocity": 0.14173228346456693,
          "duration": 0.09302325581393234
        },
        {
          "name": "A5",
          "midi": 81,
          "time": 43.10465116278943,
          "velocity": 0.1732283464566929,
          "duration": 0.034883720930224626
        },
        {
          "name": "B5",
          "midi": 83,
          "time": 43.10465116278943,
          "velocity": 0.2283464566929134,
          "duration": 0.10465116279067388
        },
        {
          "name": "F6",
          "midi": 89,
          "time": 43.10465116278943,
          "velocity": 0.2677165354330709,
          "duration": 0.4186046511627026
        },
        {
          "name": "A2",
          "midi": 45,
          "time": 43.11627906976617,
          "velocity": 0.6220472440944882,
          "duration": 0.011627906976741542
        },
        {
          "name": "F3",
          "midi": 53,
          "time": 43.11627906976617,
          "velocity": 0.6535433070866141,
          "duration": 0.023255813953483084
        },
        {
          "name": "D4",
          "midi": 62,
          "time": 43.11627906976617,
          "velocity": 0.47244094488188976,
          "duration": 0.034883720930224626
        },
        {
          "name": "A#4",
          "midi": 70,
          "time": 43.11627906976617,
          "velocity": 0.25196850393700787,
          "duration": 0.023255813953483084
        },
        {
          "name": "C#5",
          "midi": 73,
          "time": 43.11627906976617,
          "velocity": 0.25984251968503935,
          "duration": 0.04651162790696617
        },
        {
          "name": "D6",
          "midi": 86,
          "time": 43.11627906976617,
          "velocity": 0.3779527559055118,
          "duration": 0.2209302325580964
        },
        {
          "name": "F#2",
          "midi": 42,
          "time": 43.12790697674291,
          "velocity": 0.7480314960629921,
          "duration": 0.011627906976741542
        },
        {
          "name": "F#4",
          "midi": 66,
          "time": 43.12790697674291,
          "velocity": 0.25196850393700787,
          "duration": 0.023255813953483084
        },
        {
          "name": "F5",
          "midi": 77,
          "time": 43.12790697674291,
          "velocity": 0.3779527559055118,
          "duration": 0.4069767441859611
        },
        {
          "name": "F2",
          "midi": 41,
          "time": 43.139534883719655,
          "velocity": 0.7952755905511811,
          "duration": 0.011627906976741542
        },
        {
          "name": "G#4",
          "midi": 68,
          "time": 43.139534883719655,
          "velocity": 0.2755905511811024,
          "duration": 0.034883720930224626
        },
        {
          "name": "A6",
          "midi": 93,
          "time": 43.139534883719655,
          "velocity": 0.1889763779527559,
          "duration": 0.1627906976743816
        },
        {
          "name": "D2",
          "midi": 38,
          "time": 43.1511627906964,
          "velocity": 0.8110236220472441,
          "duration": 0.011627906976741542
        },
        {
          "name": "F4",
          "midi": 65,
          "time": 43.1511627906964,
          "velocity": 0.4881889763779528,
          "duration": 0.604651162790617
        },
        {
          "name": "C7",
          "midi": 96,
          "time": 43.1511627906964,
          "velocity": 0.07086614173228346,
          "duration": 0.034883720930224626
        },
        {
          "name": "C2",
          "midi": 36,
          "time": 43.16279069767314,
          "velocity": 0.8110236220472441,
          "duration": 0.011627906976741542
        },
        {
          "name": "C#4",
          "midi": 61,
          "time": 43.16279069767314,
          "velocity": 0.4094488188976378,
          "duration": 0.05813953488370771
        },
        {
          "name": "A#4",
          "midi": 70,
          "time": 43.16279069767314,
          "velocity": 0.33858267716535434,
          "duration": 0.2674418604650626
        },
        {
          "name": "C6",
          "midi": 84,
          "time": 43.16279069767314,
          "velocity": 0.1732283464566929,
          "duration": 0.05813953488370771
        },
        {
          "name": "A#6",
          "midi": 94,
          "time": 43.16279069767314,
          "velocity": 0.09448818897637795,
          "duration": 0.0813953488371908
        },
        {
          "name": "A#1",
          "midi": 34,
          "time": 43.17441860464988,
          "velocity": 0.8031496062992126,
          "duration": 0.011627906976741542
        },
        {
          "name": "A#3",
          "midi": 58,
          "time": 43.17441860464988,
          "velocity": 0.3228346456692913,
          "duration": 0.023255813953483084
        },
        {
          "name": "A1",
          "midi": 33,
          "time": 43.18604651162662,
          "velocity": 0.7874015748031497,
          "duration": 0.034883720930224626
        },
        {
          "name": "C#5",
          "midi": 73,
          "time": 43.18604651162662,
          "velocity": 0.41732283464566927,
          "duration": 0.2790697674418041
        },
        {
          "name": "F#3",
          "midi": 54,
          "time": 43.19767441860336,
          "velocity": 0.28346456692913385,
          "duration": 0.023255813953483084
        },
        {
          "name": "A#3",
          "midi": 58,
          "time": 43.209302325580104,
          "velocity": 0.44881889763779526,
          "duration": 0.23255813953483795
        },
        {
          "name": "G#1",
          "midi": 32,
          "time": 43.220930232556846,
          "velocity": 0.6692913385826772,
          "duration": 0.011627906976741542
        },
        {
          "name": "F3",
          "midi": 53,
          "time": 43.220930232556846,
          "velocity": 0.3464566929133858,
          "duration": 0.10465116279068098
        },
        {
          "name": "G#6",
          "midi": 92,
          "time": 43.220930232556846,
          "velocity": 0.2204724409448819,
          "duration": 0.15116279069764715
        },
        {
          "name": "D#7",
          "midi": 99,
          "time": 43.220930232556846,
          "velocity": 0.2125984251968504,
          "duration": 0.06976744186044925
        },
        {
          "name": "G1",
          "midi": 31,
          "time": 43.23255813953359,
          "velocity": 0.5826771653543307,
          "duration": 0.011627906976741542
        },
        {
          "name": "C#4",
          "midi": 61,
          "time": 43.23255813953359,
          "velocity": 0.44881889763779526,
          "duration": 0.034883720930224626
        },
        {
          "name": "G#5",
          "midi": 80,
          "time": 43.23255813953359,
          "velocity": 0.31496062992125984,
          "duration": 0.2441860465115795
        },
        {
          "name": "C6",
          "midi": 84,
          "time": 43.23255813953359,
          "velocity": 0.2992125984251969,
          "duration": 0.17441860465113024
        },
        {
          "name": "B6",
          "midi": 95,
          "time": 43.23255813953359,
          "velocity": 0.11023622047244094,
          "duration": 0.11627906976742253
        },
        {
          "name": "D#1",
          "midi": 27,
          "time": 43.24418604651033,
          "velocity": 0.5669291338582677,
          "duration": 0.011627906976741542
        },
        {
          "name": "F#1",
          "midi": 30,
          "time": 43.25581395348707,
          "velocity": 0.6614173228346457,
          "duration": 0.011627906976741542
        },
        {
          "name": "G1",
          "midi": 31,
          "time": 43.26744186046381,
          "velocity": 0.7244094488188977,
          "duration": 0.011627906976741542
        },
        {
          "name": "G#1",
          "midi": 32,
          "time": 43.279069767440554,
          "velocity": 0.7637795275590551,
          "duration": 0.023255813953483084
        },
        {
          "name": "A1",
          "midi": 33,
          "time": 43.30232558139404,
          "velocity": 0.7480314960629921,
          "duration": 0.02325581395349019
        },
        {
          "name": "D#7",
          "midi": 99,
          "time": 43.30232558139404,
          "velocity": 0.07086614173228346,
          "duration": 0.03488372093023173
        },
        {
          "name": "A#1",
          "midi": 34,
          "time": 43.32558139534753,
          "velocity": 0.6456692913385826,
          "duration": 0.011627906976741542
        },
        {
          "name": "A6",
          "midi": 93,
          "time": 43.32558139534753,
          "velocity": 0.13385826771653545,
          "duration": 0.05813953488370771
        },
        {
          "name": "C2",
          "midi": 36,
          "time": 43.33720930232427,
          "velocity": 0.6062992125984252,
          "duration": 0.011627906976741542
        },
        {
          "name": "B1",
          "midi": 35,
          "time": 43.34883720930101,
          "velocity": 0.6614173228346457,
          "duration": 0.011627906976741542
        },
        {
          "name": "A#1",
          "midi": 34,
          "time": 43.36046511627775,
          "velocity": 0.7165354330708661,
          "duration": 0.011627906976741542
        },
        {
          "name": "A1",
          "midi": 33,
          "time": 43.37209302325449,
          "velocity": 0.7480314960629921,
          "duration": 0.023255813953483084
        },
        {
          "name": "A#1",
          "midi": 34,
          "time": 43.395348837207976,
          "velocity": 0.7322834645669292,
          "duration": 0.3720930232557791
        },
        {
          "name": "D4",
          "midi": 62,
          "time": 43.395348837207976,
          "velocity": 0.2440944881889764,
          "duration": 0.023255813953483084
        },
        {
          "name": "D6",
          "midi": 86,
          "time": 43.40697674418472,
          "velocity": 0.07874015748031496,
          "duration": 0.05813953488370771
        },
        {
          "name": "A6",
          "midi": 93,
          "time": 43.4302325581382,
          "velocity": 0.15748031496062992,
          "duration": 0.034883720930224626
        },
        {
          "name": "B6",
          "midi": 95,
          "time": 43.4302325581382,
          "velocity": 0.13385826771653545,
          "duration": 0.034883720930224626
        },
        {
          "name": "A#4",
          "midi": 70,
          "time": 43.44186046511494,
          "velocity": 0.48031496062992124,
          "duration": 0.33720930232555446
        },
        {
          "name": "B5",
          "midi": 83,
          "time": 43.44186046511494,
          "velocity": 0.3779527559055118,
          "duration": 0.023255813953483084
        },
        {
          "name": "D#6",
          "midi": 87,
          "time": 43.44186046511494,
          "velocity": 0.07086614173228346,
          "duration": 0.04651162790696617
        },
        {
          "name": "G6",
          "midi": 91,
          "time": 43.44186046511494,
          "velocity": 0.25196850393700787,
          "duration": 0.05813953488370771
        },
        {
          "name": "D#7",
          "midi": 99,
          "time": 43.44186046511494,
          "velocity": 0.12598425196850394,
          "duration": 0.034883720930224626
        },
        {
          "name": "C#4",
          "midi": 61,
          "time": 43.453488372091684,
          "velocity": 0.5590551181102362,
          "duration": 0.1627906976744029
        },
        {
          "name": "C5",
          "midi": 72,
          "time": 43.465116279068425,
          "velocity": 0.4566929133858268,
          "duration": 0.034883720930224626
        },
        {
          "name": "E7",
          "midi": 100,
          "time": 43.465116279068425,
          "velocity": 0.14960629921259844,
          "duration": 0.04651162790696617
        },
        {
          "name": "F3",
          "midi": 53,
          "time": 43.48837209302191,
          "velocity": 0.30708661417322836,
          "duration": 0.2674418604651052
        },
        {
          "name": "G#5",
          "midi": 80,
          "time": 43.48837209302191,
          "velocity": 0.2204724409448819,
          "duration": 0.12790697674417828
        },
        {
          "name": "G#6",
          "midi": 92,
          "time": 43.49999999999865,
          "velocity": 0.29133858267716534,
          "duration": 0.17441860465115155
        },
        {
          "name": "D#5",
          "midi": 75,
          "time": 43.52325581395213,
          "velocity": 0.09448818897637795,
          "duration": 0.03488372093023173
        },
        {
          "name": "D#5",
          "midi": 75,
          "time": 43.581395348835855,
          "velocity": 0.11023622047244094,
          "duration": 0.03488372093023173
        },
        {
          "name": "A#3",
          "midi": 58,
          "time": 43.604651162789345,
          "velocity": 0.4330708661417323,
          "duration": 0.4883720930232016
        },
        {
          "name": "D#5",
          "midi": 75,
          "time": 43.62790697674283,
          "velocity": 0.12598425196850394,
          "duration": 0.03488372093023173
        },
        {
          "name": "F#7",
          "midi": 102,
          "time": 43.65116279069632,
          "velocity": 0.1732283464566929,
          "duration": 0.046511627906973274
        },
        {
          "name": "D#5",
          "midi": 75,
          "time": 43.73255813953352,
          "velocity": 0.25984251968503935,
          "duration": 0.03488372093023173
        },
        {
          "name": "F#3",
          "midi": 54,
          "time": 43.755813953487014,
          "velocity": 0.2283464566929134,
          "duration": 0.023255813953483084
        },
        {
          "name": "C5",
          "midi": 72,
          "time": 43.755813953487014,
          "velocity": 0.3228346456692913,
          "duration": 0.034883720930224626
        },
        {
          "name": "B5",
          "midi": 83,
          "time": 43.755813953487014,
          "velocity": 0.2992125984251969,
          "duration": 0.12790697674415696
        },
        {
          "name": "C6",
          "midi": 84,
          "time": 43.755813953487014,
          "velocity": 0.33858267716535434,
          "duration": 0.034883720930224626
        },
        {
          "name": "F#6",
          "midi": 90,
          "time": 43.755813953487014,
          "velocity": 0.3464566929133858,
          "duration": 0.023255813953483084
        },
        {
          "name": "G#6",
          "midi": 92,
          "time": 43.755813953487014,
          "velocity": 0.4409448818897638,
          "duration": 0.2441860465115937
        },
        {
          "name": "B6",
          "midi": 95,
          "time": 43.755813953487014,
          "velocity": 0.33070866141732286,
          "duration": 0.0813953488371908
        },
        {
          "name": "D#7",
          "midi": 99,
          "time": 43.755813953487014,
          "velocity": 0.25984251968503935,
          "duration": 0.11627906976741542
        },
        {
          "name": "G7",
          "midi": 103,
          "time": 43.755813953487014,
          "velocity": 0.29133858267716534,
          "duration": 0.10465116279067388
        },
        {
          "name": "B1",
          "midi": 35,
          "time": 43.767441860463755,
          "velocity": 0.6220472440944882,
          "duration": 0.023255813953483084
        },
        {
          "name": "E5",
          "midi": 76,
          "time": 43.767441860463755,
          "velocity": 0.2992125984251969,
          "duration": 0.023255813953483084
        },
        {
          "name": "G5",
          "midi": 79,
          "time": 43.767441860463755,
          "velocity": 0.3779527559055118,
          "duration": 0.05813953488370771
        },
        {
          "name": "A5",
          "midi": 81,
          "time": 43.767441860463755,
          "velocity": 0.29133858267716534,
          "duration": 0.04651162790696617
        },
        {
          "name": "C#6",
          "midi": 85,
          "time": 43.767441860463755,
          "velocity": 0.41732283464566927,
          "duration": 0.2441860465115937
        },
        {
          "name": "A#6",
          "midi": 94,
          "time": 43.767441860463755,
          "velocity": 0.3228346456692913,
          "duration": 0.09302325581393234
        },
        {
          "name": "D7",
          "midi": 98,
          "time": 43.767441860463755,
          "velocity": 0.25196850393700787,
          "duration": 0.0813953488371908
        },
        {
          "name": "E7",
          "midi": 100,
          "time": 43.767441860463755,
          "velocity": 0.3228346456692913,
          "duration": 0.11627906976741542
        },
        {
          "name": "C#5",
          "midi": 73,
          "time": 43.7790697674405,
          "velocity": 0.4330708661417323,
          "duration": 0.20930232558136908
        },
        {
          "name": "D#5",
          "midi": 75,
          "time": 43.7790697674405,
          "velocity": 0.2755905511811024,
          "duration": 0.034883720930224626
        },
        {
          "name": "D#6",
          "midi": 87,
          "time": 43.7790697674405,
          "velocity": 0.30708661417322836,
          "duration": 0.09302325581393234
        },
        {
          "name": "A6",
          "midi": 93,
          "time": 43.7790697674405,
          "velocity": 0.33070866141732286,
          "duration": 0.06976744186044925
        },
        {
          "name": "G4",
          "midi": 67,
          "time": 43.80232558139398,
          "velocity": 0.2125984251968504,
          "duration": 0.034883720930224626
        },
        {
          "name": "F5",
          "midi": 77,
          "time": 43.80232558139398,
          "velocity": 0.18110236220472442,
          "duration": 0.034883720930224626
        },
        {
          "name": "E6",
          "midi": 88,
          "time": 43.80232558139398,
          "velocity": 0.2992125984251969,
          "duration": 0.06976744186044925
        },
        {
          "name": "F#6",
          "midi": 90,
          "time": 43.81395348837072,
          "velocity": 0.2755905511811024,
          "duration": 0.04651162790696617
        },
        {
          "name": "F7",
          "midi": 101,
          "time": 43.89534883720791,
          "velocity": 0.13385826771653545,
          "duration": 0.1046511627906952
        },
        {
          "name": "G#5",
          "midi": 80,
          "time": 43.976744186045124,
          "velocity": 0.33858267716535434,
          "duration": 0.023255813953483084
        },
        {
          "name": "C6",
          "midi": 84,
          "time": 43.976744186045124,
          "velocity": 0.31496062992125984,
          "duration": 0.19767441860461332
        },
        {
          "name": "A6",
          "midi": 93,
          "time": 43.976744186045124,
          "velocity": 0.1732283464566929,
          "duration": 0.034883720930224626
        },
        {
          "name": "D#7",
          "midi": 99,
          "time": 43.976744186045124,
          "velocity": 0.1732283464566929,
          "duration": 0.034883720930224626
        },
        {
          "name": "E4",
          "midi": 64,
          "time": 43.988372093021866,
          "velocity": 0.2677165354330709,
          "duration": 0.023255813953483084
        },
        {
          "name": "A4",
          "midi": 69,
          "time": 43.99999999999861,
          "velocity": 0.4330708661417323,
          "duration": 0.04651162790696617
        },
        {
          "name": "C#5",
          "midi": 73,
          "time": 43.99999999999861,
          "velocity": 0.2204724409448819,
          "duration": 0.09302325581393944
        },
        {
          "name": "E6",
          "midi": 88,
          "time": 43.99999999999861,
          "velocity": 0.2204724409448819,
          "duration": 0.034883720930224626
        },
        {
          "name": "F4",
          "midi": 65,
          "time": 44.01162790697535,
          "velocity": 0.4409448818897638,
          "duration": 0.10465116279068098
        },
        {
          "name": "C#6",
          "midi": 85,
          "time": 44.02325581395209,
          "velocity": 0.29133858267716534,
          "duration": 0.11627906976742253
        },
        {
          "name": "F6",
          "midi": 89,
          "time": 44.03488372092883,
          "velocity": 0.30708661417322836,
          "duration": 0.20930232558136908
        },
        {
          "name": "A#4",
          "midi": 70,
          "time": 44.04651162790557,
          "velocity": 0.6299212598425197,
          "duration": 0.23255813953485927
        },
        {
          "name": "D7",
          "midi": 98,
          "time": 44.04651162790557,
          "velocity": 0.15748031496062992,
          "duration": 0.10465116279068098
        },
        {
          "name": "F#5",
          "midi": 78,
          "time": 44.09302325581255,
          "velocity": 0.3937007874015748,
          "duration": 0.023255813953483084
        },
        {
          "name": "C#4",
          "midi": 61,
          "time": 44.10465116278929,
          "velocity": 0.3858267716535433,
          "duration": 0.10465116279068098
        },
        {
          "name": "G4",
          "midi": 67,
          "time": 44.11627906976603,
          "velocity": 0.47244094488188976,
          "duration": 0.04651162790696617
        },
        {
          "name": "B6",
          "midi": 95,
          "time": 44.11627906976603,
          "velocity": 0.1968503937007874,
          "duration": 0.04651162790696617
        },
        {
          "name": "D6",
          "midi": 86,
          "time": 44.12790697674277,
          "velocity": 0.2677165354330709,
          "duration": 0.023255813953483084
        },
        {
          "name": "F4",
          "midi": 65,
          "time": 44.13953488371951,
          "velocity": 0.4094488188976378,
          "duration": 0.25581395348835656
        },
        {
          "name": "G#5",
          "midi": 80,
          "time": 44.151162790696254,
          "velocity": 0.3937007874015748,
          "duration": 0.19767441860464174
        },
        {
          "name": "D#6",
          "midi": 87,
          "time": 44.151162790696254,
          "velocity": 0.25196850393700787,
          "duration": 0.1860465116279002
        },
        {
          "name": "G#4",
          "midi": 68,
          "time": 44.17441860464974,
          "velocity": 0.4330708661417323,
          "duration": 0.16279069767441712
        },
        {
          "name": "C#6",
          "midi": 85,
          "time": 44.17441860464974,
          "velocity": 0.2440944881889764,
          "duration": 0.4534883720929628
        },
        {
          "name": "F#7",
          "midi": 102,
          "time": 44.18604651162648,
          "velocity": 0.13385826771653545,
          "duration": 0.15116279069767558
        },
        {
          "name": "C#4",
          "midi": 61,
          "time": 44.25581395348694,
          "velocity": 0.18110236220472442,
          "duration": 0.13953488372092693
        },
        {
          "name": "C#5",
          "midi": 73,
          "time": 44.313953488370665,
          "velocity": 0.4094488188976378,
          "duration": 0.12790697674417117
        },
        {
          "name": "A#4",
          "midi": 70,
          "time": 44.348837209300896,
          "velocity": 0.14960629921259844,
          "duration": 0.058139534883714816
        },
        {
          "name": "D#6",
          "midi": 87,
          "time": 44.36046511627764,
          "velocity": 0.08661417322834646,
          "duration": 0.03488372093023173
        },
        {
          "name": "B4",
          "midi": 71,
          "time": 44.40697674418461,
          "velocity": 0.33070866141732286,
          "duration": 0.034883720930224626
        },
        {
          "name": "C3",
          "midi": 48,
          "time": 44.41860465116135,
          "velocity": 0.6614173228346457,
          "duration": 0.011627906976741542
        },
        {
          "name": "E5",
          "midi": 76,
          "time": 44.41860465116135,
          "velocity": 0.15748031496062992,
          "duration": 0.034883720930224626
        },
        {
          "name": "F#5",
          "midi": 78,
          "time": 44.41860465116135,
          "velocity": 0.15748031496062992,
          "duration": 0.034883720930224626
        },
        {
          "name": "A5",
          "midi": 81,
          "time": 44.41860465116135,
          "velocity": 0.2440944881889764,
          "duration": 0.04651162790696617
        },
        {
          "name": "A2",
          "midi": 45,
          "time": 44.430232558138094,
          "velocity": 0.7559055118110236,
          "duration": 0.011627906976741542
        },
        {
          "name": "F4",
          "midi": 65,
          "time": 44.430232558138094,
          "velocity": 0.3858267716535433,
          "duration": 0.023255813953483084
        },
        {
          "name": "A4",
          "midi": 69,
          "time": 44.430232558138094,
          "velocity": 0.2677165354330709,
          "duration": 0.04651162790696617
        },
        {
          "name": "D#6",
          "midi": 87,
          "time": 44.430232558138094,
          "velocity": 0.2677165354330709,
          "duration": 0.2209302325580964
        },
        {
          "name": "F#6",
          "midi": 90,
          "time": 44.430232558138094,
          "velocity": 0.1889763779527559,
          "duration": 0.034883720930224626
        },
        {
          "name": "F2",
          "midi": 41,
          "time": 44.441860465114836,
          "velocity": 0.7874015748031497,
          "duration": 0.011627906976741542
        },
        {
          "name": "C5",
          "midi": 72,
          "time": 44.441860465114836,
          "velocity": 0.2047244094488189,
          "duration": 0.06976744186044925
        },
        {
          "name": "D2",
          "midi": 38,
          "time": 44.45348837209158,
          "velocity": 0.8031496062992126,
          "duration": 0.011627906976741542
        },
        {
          "name": "F3",
          "midi": 53,
          "time": 44.45348837209158,
          "velocity": 0.5039370078740157,
          "duration": 0.11627906976741542
        },
        {
          "name": "G5",
          "midi": 79,
          "time": 44.45348837209158,
          "velocity": 0.2283464566929134,
          "duration": 0.04651162790696617
        },
        {
          "name": "F6",
          "midi": 89,
          "time": 44.45348837209158,
          "velocity": 0.2283464566929134,
          "duration": 0.2674418604650697
        },
        {
          "name": "G6",
          "midi": 91,
          "time": 44.45348837209158,
          "velocity": 0.23622047244094488,
          "duration": 0.05813953488370771
        },
        {
          "name": "B1",
          "midi": 35,
          "time": 44.46511627906832,
          "velocity": 0.8110236220472441,
          "duration": 0.011627906976741542
        },
        {
          "name": "C#4",
          "midi": 61,
          "time": 44.46511627906832,
          "velocity": 0.3543307086614173,
          "duration": 0.2790697674418112
        },
        {
          "name": "D#5",
          "midi": 75,
          "time": 44.46511627906832,
          "velocity": 0.2677165354330709,
          "duration": 0.1395348837208985
        },
        {
          "name": "F5",
          "midi": 77,
          "time": 44.46511627906832,
          "velocity": 0.2125984251968504,
          "duration": 0.19767441860461332
        },
        {
          "name": "A#1",
          "midi": 34,
          "time": 44.47674418604506,
          "velocity": 0.7952755905511811,
          "duration": 0.011627906976741542
        },
        {
          "name": "G#4",
          "midi": 68,
          "time": 44.47674418604506,
          "velocity": 0.4015748031496063,
          "duration": 0.2674418604650697
        },
        {
          "name": "C6",
          "midi": 84,
          "time": 44.47674418604506,
          "velocity": 0.29133858267716534,
          "duration": 0.09302325581393234
        },
        {
          "name": "F#6",
          "midi": 90,
          "time": 44.47674418604506,
          "velocity": 0.07086614173228346,
          "duration": 0.06976744186044925
        },
        {
          "name": "A1",
          "midi": 33,
          "time": 44.4883720930218,
          "velocity": 0.7874015748031497,
          "duration": 0.011627906976741542
        },
        {
          "name": "E7",
          "midi": 100,
          "time": 44.4883720930218,
          "velocity": 0.07874015748031496,
          "duration": 0.05813953488370771
        },
        {
          "name": "G#1",
          "midi": 32,
          "time": 44.49999999999854,
          "velocity": 0.7637795275590551,
          "duration": 0.034883720930224626
        },
        {
          "name": "G#5",
          "midi": 80,
          "time": 44.49999999999854,
          "velocity": 0.41732283464566927,
          "duration": 0.12790697674415696
        },
        {
          "name": "G#6",
          "midi": 92,
          "time": 44.511627906975285,
          "velocity": 0.41732283464566927,
          "duration": 0.8604651162789736
        },
        {
          "name": "A#6",
          "midi": 94,
          "time": 44.511627906975285,
          "velocity": 0.2204724409448819,
          "duration": 0.05813953488370771
        },
        {
          "name": "D#7",
          "midi": 99,
          "time": 44.511627906975285,
          "velocity": 0.31496062992125984,
          "duration": 0.7906976744185101
        },
        {
          "name": "C5",
          "midi": 72,
          "time": 44.52325581395203,
          "velocity": 0.2283464566929134,
          "duration": 0.05813953488370771
        },
        {
          "name": "A5",
          "midi": 81,
          "time": 44.52325581395203,
          "velocity": 0.2047244094488189,
          "duration": 0.034883720930224626
        },
        {
          "name": "A1",
          "midi": 33,
          "time": 44.53488372092877,
          "velocity": 0.6299212598425197,
          "duration": 0.023255813953483084
        },
        {
          "name": "G6",
          "midi": 91,
          "time": 44.54651162790551,
          "velocity": 0.12598425196850394,
          "duration": 0.05813953488370771
        },
        {
          "name": "G#1",
          "midi": 32,
          "time": 44.55813953488225,
          "velocity": 0.6771653543307087,
          "duration": 0.011627906976741542
        },
        {
          "name": "C#5",
          "midi": 73,
          "time": 44.55813953488225,
          "velocity": 0.3858267716535433,
          "duration": 0.20930232558136197
        },
        {
          "name": "G1",
          "midi": 31,
          "time": 44.56976744185899,
          "velocity": 0.7322834645669292,
          "duration": 0.023255813953483084
        },
        {
          "name": "B6",
          "midi": 95,
          "time": 44.56976744185899,
          "velocity": 0.12598425196850394,
          "duration": 0.05813953488370771
        },
        {
          "name": "C3",
          "midi": 48,
          "time": 44.581395348835734,
          "velocity": 0.3543307086614173,
          "duration": 0.034883720930224626
        },
        {
          "name": "G#3",
          "midi": 56,
          "time": 44.581395348835734,
          "velocity": 0.28346456692913385,
          "duration": 0.023255813953483084
        },
        {
          "name": "F4",
          "midi": 65,
          "time": 44.581395348835734,
          "velocity": 0.2755905511811024,
          "duration": 0.1627906976743958
        },
        {
          "name": "F#1",
          "midi": 30,
          "time": 44.593023255812476,
          "velocity": 0.7559055118110236,
          "duration": 0.06976744186045636
        },
        {
          "name": "C6",
          "midi": 84,
          "time": 44.593023255812476,
          "velocity": 0.1889763779527559,
          "duration": 0.13953488372091272
        },
        {
          "name": "G#3",
          "midi": 56,
          "time": 44.61627906976596,
          "velocity": 0.3779527559055118,
          "duration": 0.046511627906973274
        },
        {
          "name": "A5",
          "midi": 81,
          "time": 44.61627906976596,
          "velocity": 0.25984251968503935,
          "duration": 0.046511627906973274
        },
        {
          "name": "D#5",
          "midi": 75,
          "time": 44.6279069767427,
          "velocity": 0.2204724409448819,
          "duration": 0.06976744186046346
        },
        {
          "name": "G#5",
          "midi": 80,
          "time": 44.65116279069619,
          "velocity": 0.4566929133858268,
          "duration": 0.41860465116275236
        },
        {
          "name": "F1",
          "midi": 29,
          "time": 44.66279069767293,
          "velocity": 0.7401574803149606,
          "duration": 0.046511627906973274
        },
        {
          "name": "C3",
          "midi": 48,
          "time": 44.674418604649674,
          "velocity": 0.3937007874015748,
          "duration": 0.10465116279068098
        },
        {
          "name": "E1",
          "midi": 28,
          "time": 44.709302325579905,
          "velocity": 0.6614173228346457,
          "duration": 0.011627906976741542
        },
        {
          "name": "G#3",
          "midi": 56,
          "time": 44.709302325579905,
          "velocity": 0.3700787401574803,
          "duration": 0.04651162790696617
        },
        {
          "name": "F1",
          "midi": 29,
          "time": 44.72093023255665,
          "velocity": 0.6614173228346457,
          "duration": 0.36046511627903755
        },
        {
          "name": "D#5",
          "midi": 75,
          "time": 44.72093023255665,
          "velocity": 0.2283464566929134,
          "duration": 0.17441860465113734
        },
        {
          "name": "C4",
          "midi": 60,
          "time": 44.74418604651013,
          "velocity": 0.4094488188976378,
          "duration": 0.023255813953483084
        },
        {
          "name": "F3",
          "midi": 53,
          "time": 44.75581395348687,
          "velocity": 0.30708661417322836,
          "duration": 0.023255813953483084
        },
        {
          "name": "F4",
          "midi": 65,
          "time": 44.75581395348687,
          "velocity": 0.5196850393700787,
          "duration": 0.0813953488371979
        },
        {
          "name": "G#4",
          "midi": 68,
          "time": 44.75581395348687,
          "velocity": 0.2992125984251969,
          "duration": 0.19767441860463464
        },
        {
          "name": "C#4",
          "midi": 61,
          "time": 44.76744186046361,
          "velocity": 0.5196850393700787,
          "duration": 0.348837209302296
        },
        {
          "name": "C3",
          "midi": 48,
          "time": 44.790697674417096,
          "velocity": 0.3464566929133858,
          "duration": 0.2674418604651052
        },
        {
          "name": "G#3",
          "midi": 56,
          "time": 44.790697674417096,
          "velocity": 0.4881889763779528,
          "duration": 0.13953488372091982
        },
        {
          "name": "C5",
          "midi": 72,
          "time": 44.83720930232407,
          "velocity": 0.18110236220472442,
          "duration": 0.081395348837205
        },
        {
          "name": "F4",
          "midi": 65,
          "time": 44.84883720930081,
          "velocity": 0.3228346456692913,
          "duration": 0.19767441860464885
        },
        {
          "name": "C7",
          "midi": 96,
          "time": 44.953488372091506,
          "velocity": 0.15748031496062992,
          "duration": 0.03488372093023173
        },
        {
          "name": "D7",
          "midi": 98,
          "time": 44.953488372091506,
          "velocity": 0.16535433070866143,
          "duration": 0.03488372093023173
        },
        {
          "name": "G#3",
          "midi": 56,
          "time": 44.96511627906825,
          "velocity": 0.3464566929133858,
          "duration": 0.02325581395349019
        },
        {
          "name": "E5",
          "midi": 76,
          "time": 45.0581395348822,
          "velocity": 0.33070866141732286,
          "duration": 0.05813953488370771
        },
        {
          "name": "A#5",
          "midi": 82,
          "time": 45.0581395348822,
          "velocity": 0.31496062992125984,
          "duration": 0.06976744186044925
        },
        {
          "name": "F#6",
          "midi": 90,
          "time": 45.0581395348822,
          "velocity": 0.31496062992125984,
          "duration": 0.09302325581393234
        },
        {
          "name": "A#4",
          "midi": 70,
          "time": 45.06976744185894,
          "velocity": 0.25984251968503935,
          "duration": 0.034883720930224626
        },
        {
          "name": "G5",
          "midi": 79,
          "time": 45.06976744185894,
          "velocity": 0.4251968503937008,
          "duration": 0.05813953488370771
        },
        {
          "name": "B5",
          "midi": 83,
          "time": 45.06976744185894,
          "velocity": 0.31496062992125984,
          "duration": 0.0813953488371908
        },
        {
          "name": "F6",
          "midi": 89,
          "time": 45.06976744185894,
          "velocity": 0.2204724409448819,
          "duration": 0.06976744186044925
        },
        {
          "name": "D7",
          "midi": 98,
          "time": 45.06976744185894,
          "velocity": 0.2440944881889764,
          "duration": 0.09302325581393234
        },
        {
          "name": "F7",
          "midi": 101,
          "time": 45.06976744185894,
          "velocity": 0.25984251968503935,
          "duration": 0.09302325581393234
        },
        {
          "name": "F#1",
          "midi": 30,
          "time": 45.081395348835684,
          "velocity": 0.5354330708661418,
          "duration": 0.011627906976741542
        },
        {
          "name": "F4",
          "midi": 65,
          "time": 45.081395348835684,
          "velocity": 0.4881889763779528,
          "duration": 0.19767441860462753
        },
        {
          "name": "G#5",
          "midi": 80,
          "time": 45.081395348835684,
          "velocity": 0.3228346456692913,
          "duration": 0.023255813953483084
        },
        {
          "name": "D#6",
          "midi": 87,
          "time": 45.081395348835684,
          "velocity": 0.25984251968503935,
          "duration": 0.06976744186044925
        },
        {
          "name": "A6",
          "midi": 93,
          "time": 45.081395348835684,
          "velocity": 0.31496062992125984,
          "duration": 0.06976744186044925
        },
        {
          "name": "C7",
          "midi": 96,
          "time": 45.093023255812426,
          "velocity": 0.3228346456692913,
          "duration": 0.0813953488371908
        },
        {
          "name": "E7",
          "midi": 100,
          "time": 45.10465116278917,
          "velocity": 0.3228346456692913,
          "duration": 0.0813953488371908
        },
        {
          "name": "G#5",
          "midi": 80,
          "time": 45.12790697674265,
          "velocity": 0.3543307086614173,
          "duration": 0.17441860465114445
        },
        {
          "name": "C6",
          "midi": 84,
          "time": 45.12790697674265,
          "velocity": 0.2440944881889764,
          "duration": 0.11627906976742963
        },
        {
          "name": "C#7",
          "midi": 97,
          "time": 45.17441860464962,
          "velocity": 0.2755905511811024,
          "duration": 0.4302325581395152
        },
        {
          "name": "C#6",
          "midi": 85,
          "time": 45.26744186046357,
          "velocity": 0.3937007874015748,
          "duration": 0.17441860465115155
        },
        {
          "name": "D#6",
          "midi": 87,
          "time": 45.27906976744031,
          "velocity": 0.33070866141732286,
          "duration": 0.15116279069766847
        },
        {
          "name": "A6",
          "midi": 93,
          "time": 45.27906976744031,
          "velocity": 0.14960629921259844,
          "duration": 0.034883720930224626
        },
        {
          "name": "B6",
          "midi": 95,
          "time": 45.27906976744031,
          "velocity": 0.2125984251968504,
          "duration": 0.058139534883714816
        },
        {
          "name": "G#4",
          "midi": 68,
          "time": 45.29069767441705,
          "velocity": 0.5905511811023622,
          "duration": 0.19767441860464174
        },
        {
          "name": "E5",
          "midi": 76,
          "time": 45.302325581393795,
          "velocity": 0.4251968503937008,
          "duration": 0.046511627906973274
        },
        {
          "name": "F4",
          "midi": 65,
          "time": 45.33720930232403,
          "velocity": 0.13385826771653545,
          "duration": 0.03488372093023173
        },
        {
          "name": "C7",
          "midi": 96,
          "time": 45.33720930232403,
          "velocity": 0.25196850393700787,
          "duration": 0.08139534883721211
        },
        {
          "name": "F5",
          "midi": 77,
          "time": 45.34883720930077,
          "velocity": 0.4409448818897638,
          "duration": 0.1046511627906952
        },
        {
          "name": "G#3",
          "midi": 56,
          "time": 45.39534883720775,
          "velocity": 0.3858267716535433,
          "duration": 0.09302325581394655
        },
        {
          "name": "C#4",
          "midi": 61,
          "time": 45.39534883720775,
          "velocity": 0.4094488188976378,
          "duration": 0.17441860465115155
        },
        {
          "name": "F#4",
          "midi": 66,
          "time": 45.39534883720775,
          "velocity": 0.4094488188976378,
          "duration": 0.02325581395349019
        },
        {
          "name": "C#5",
          "midi": 73,
          "time": 45.39534883720775,
          "velocity": 0.5748031496062992,
          "duration": 0.22093023255812483
        },
        {
          "name": "G#6",
          "midi": 92,
          "time": 45.39534883720775,
          "velocity": 0.2283464566929134,
          "duration": 0.03488372093023173
        },
        {
          "name": "F4",
          "midi": 65,
          "time": 45.41860465116124,
          "velocity": 0.48031496062992124,
          "duration": 0.17441860465115155
        },
        {
          "name": "C6",
          "midi": 84,
          "time": 45.41860465116124,
          "velocity": 0.2283464566929134,
          "duration": 0.10465116279068809
        },
        {
          "name": "F#7",
          "midi": 102,
          "time": 45.41860465116124,
          "velocity": 0.14960629921259844,
          "duration": 0.04651162790696617
        },
        {
          "name": "D6",
          "midi": 86,
          "time": 45.43023255813798,
          "velocity": 0.3858267716535433,
          "duration": 0.034883720930224626
        },
        {
          "name": "A6",
          "midi": 93,
          "time": 45.43023255813798,
          "velocity": 0.23622047244094488,
          "duration": 0.034883720930224626
        },
        {
          "name": "D#5",
          "midi": 75,
          "time": 45.45348837209146,
          "velocity": 0.47244094488188976,
          "duration": 0.2906976744185883
        },
        {
          "name": "A#6",
          "midi": 94,
          "time": 45.465116279068205,
          "velocity": 0.2755905511811024,
          "duration": 0.27906976744184675
        },
        {
          "name": "G7",
          "midi": 103,
          "time": 45.465116279068205,
          "velocity": 0.1732283464566929,
          "duration": 0.27906976744184675
        },
        {
          "name": "C#4",
          "midi": 61,
          "time": 45.60465116278913,
          "velocity": 0.3779527559055118,
          "duration": 0.11627906976743674
        },
        {
          "name": "F6",
          "midi": 89,
          "time": 45.61627906976587,
          "velocity": 0.18110236220472442,
          "duration": 0.03488372093023173
        },
        {
          "name": "C#7",
          "midi": 97,
          "time": 45.61627906976587,
          "velocity": 0.28346456692913385,
          "duration": 0.6279069767441072
        },
        {
          "name": "G#3",
          "midi": 56,
          "time": 45.627906976742615,
          "velocity": 0.2440944881889764,
          "duration": 0.09302325581395365
        },
        {
          "name": "F4",
          "midi": 65,
          "time": 45.651162790696105,
          "velocity": 0.3858267716535433,
          "duration": 0.10465116279068809
        },
        {
          "name": "F6",
          "midi": 89,
          "time": 45.674418604649595,
          "velocity": 0.14960629921259844,
          "duration": 0.11627906976742253
        },
        {
          "name": "D#3",
          "midi": 51,
          "time": 45.72093023255657,
          "velocity": 0.5984251968503937,
          "duration": 0.011627906976741542
        },
        {
          "name": "A#4",
          "midi": 70,
          "time": 45.72093023255657,
          "velocity": 0.2755905511811024,
          "duration": 0.023255813953483084
        },
        {
          "name": "G5",
          "midi": 79,
          "time": 45.72093023255657,
          "velocity": 0.1732283464566929,
          "duration": 0.034883720930224626
        },
        {
          "name": "B5",
          "midi": 83,
          "time": 45.72093023255657,
          "velocity": 0.2755905511811024,
          "duration": 0.034883720930224626
        },
        {
          "name": "F#6",
          "midi": 90,
          "time": 45.72093023255657,
          "velocity": 0.11023622047244094,
          "duration": 0.04651162790696617
        },
        {
          "name": "C3",
          "midi": 48,
          "time": 45.73255813953331,
          "velocity": 0.7244094488188977,
          "duration": 0.011627906976741542
        },
        {
          "name": "F#2",
          "midi": 42,
          "time": 45.74418604651005,
          "velocity": 0.7716535433070866,
          "duration": 0.011627906976741542
        },
        {
          "name": "C5",
          "midi": 72,
          "time": 45.74418604651005,
          "velocity": 0.30708661417322836,
          "duration": 0.034883720930224626
        },
        {
          "name": "D2",
          "midi": 38,
          "time": 45.75581395348679,
          "velocity": 0.7716535433070866,
          "duration": 0.011627906976741542
        },
        {
          "name": "C#4",
          "midi": 61,
          "time": 45.75581395348679,
          "velocity": 0.5748031496062992,
          "duration": 0.3488372093022676
        },
        {
          "name": "F#4",
          "midi": 66,
          "time": 45.75581395348679,
          "velocity": 0.4566929133858268,
          "duration": 0.5116279069766776
        },
        {
          "name": "A#4",
          "midi": 70,
          "time": 45.75581395348679,
          "velocity": 0.3937007874015748,
          "duration": 0.47674418604644586
        },
        {
          "name": "D6",
          "midi": 86,
          "time": 45.75581395348679,
          "velocity": 0.2204724409448819,
          "duration": 0.06976744186044925
        },
        {
          "name": "E6",
          "midi": 88,
          "time": 45.75581395348679,
          "velocity": 0.13385826771653545,
          "duration": 0.10465116279067388
        },
        {
          "name": "C2",
          "midi": 36,
          "time": 45.767441860463535,
          "velocity": 0.7874015748031497,
          "duration": 0.011627906976741542
        },
        {
          "name": "G#6",
          "midi": 92,
          "time": 45.767441860463535,
          "velocity": 0.2125984251968504,
          "duration": 0.20930232558135486
        },
        {
          "name": "C7",
          "midi": 96,
          "time": 45.767441860463535,
          "velocity": 0.11023622047244094,
          "duration": 0.034883720930224626
        },
        {
          "name": "A#1",
          "midi": 34,
          "time": 45.77906976744028,
          "velocity": 0.7874015748031497,
          "duration": 0.011627906976741542
        },
        {
          "name": "F3",
          "midi": 53,
          "time": 45.77906976744028,
          "velocity": 0.48031496062992124,
          "duration": 0.034883720930224626
        },
        {
          "name": "G#5",
          "midi": 80,
          "time": 45.77906976744028,
          "velocity": 0.29133858267716534,
          "duration": 0.23255813953484505
        },
        {
          "name": "A1",
          "midi": 33,
          "time": 45.79069767441702,
          "velocity": 0.7874015748031497,
          "duration": 0.011627906976741542
        },
        {
          "name": "E5",
          "midi": 76,
          "time": 45.79069767441702,
          "velocity": 0.11023622047244094,
          "duration": 0.05813953488370771
        },
        {
          "name": "G#1",
          "midi": 32,
          "time": 45.80232558139376,
          "velocity": 0.7874015748031497,
          "duration": 0.034883720930224626
        },
        {
          "name": "B6",
          "midi": 95,
          "time": 45.80232558139376,
          "velocity": 0.14960629921259844,
          "duration": 0.05813953488370771
        },
        {
          "name": "G7",
          "midi": 103,
          "time": 45.80232558139376,
          "velocity": 0.1968503937007874,
          "duration": 0.034883720930224626
        },
        {
          "name": "C6",
          "midi": 84,
          "time": 45.8139534883705,
          "velocity": 0.15748031496062992,
          "duration": 0.034883720930224626
        },
        {
          "name": "D3",
          "midi": 50,
          "time": 45.82558139534724,
          "velocity": 0.36220472440944884,
          "duration": 0.023255813953483084
        },
        {
          "name": "C#6",
          "midi": 85,
          "time": 45.82558139534724,
          "velocity": 0.3700787401574803,
          "duration": 0.19767441860462043
        },
        {
          "name": "F6",
          "midi": 89,
          "time": 45.82558139534724,
          "velocity": 0.11811023622047244,
          "duration": 0.034883720930224626
        },
        {
          "name": "G1",
          "midi": 31,
          "time": 45.837209302323984,
          "velocity": 0.7480314960629921,
          "duration": 0.04651162790696617
        },
        {
          "name": "F#3",
          "midi": 54,
          "time": 45.837209302323984,
          "velocity": 0.2992125984251969,
          "duration": 0.034883720930224626
        },
        {
          "name": "D#6",
          "midi": 87,
          "time": 45.837209302323984,
          "velocity": 0.12598425196850394,
          "duration": 0.05813953488370771
        },
        {
          "name": "D7",
          "midi": 98,
          "time": 45.837209302323984,
          "velocity": 0.15748031496062992,
          "duration": 0.04651162790696617
        },
        {
          "name": "F#7",
          "midi": 102,
          "time": 45.837209302323984,
          "velocity": 0.18110236220472442,
          "duration": 0.034883720930224626
        },
        {
          "name": "C7",
          "midi": 96,
          "time": 45.848837209300726,
          "velocity": 0.09448818897637795,
          "duration": 0.034883720930224626
        },
        {
          "name": "E5",
          "midi": 76,
          "time": 45.86046511627747,
          "velocity": 0.14960629921259844,
          "duration": 0.0813953488371908
        },
        {
          "name": "F5",
          "midi": 77,
          "time": 45.86046511627747,
          "velocity": 0.25196850393700787,
          "duration": 0.12790697674416407
        },
        {
          "name": "B5",
          "midi": 83,
          "time": 45.86046511627747,
          "velocity": 0.08661417322834646,
          "duration": 0.04651162790696617
        },
        {
          "name": "D6",
          "midi": 86,
          "time": 45.87209302325421,
          "velocity": 0.25196850393700787,
          "duration": 0.04651162790696617
        },
        {
          "name": "F#1",
          "midi": 30,
          "time": 45.88372093023095,
          "velocity": 0.6456692913385826,
          "duration": 0.04651162790696617
        },
        {
          "name": "B6",
          "midi": 95,
          "time": 45.88372093023095,
          "velocity": 0.14960629921259844,
          "duration": 0.05813953488370771
        },
        {
          "name": "F1",
          "midi": 29,
          "time": 45.93023255813792,
          "velocity": 0.6377952755905512,
          "duration": 0.09302325581394655
        },
        {
          "name": "D#6",
          "midi": 87,
          "time": 45.93023255813792,
          "velocity": 0.1889763779527559,
          "duration": 0.03488372093023173
        },
        {
          "name": "C#3",
          "midi": 49,
          "time": 46.01162790697512,
          "velocity": 0.36220472440944884,
          "duration": 0.09302325581393944
        },
        {
          "name": "F#1",
          "midi": 30,
          "time": 46.02325581395186,
          "velocity": 0.6692913385826772,
          "duration": 0.3720930232557791
        },
        {
          "name": "A3",
          "midi": 57,
          "time": 46.04651162790535,
          "velocity": 0.2755905511811024,
          "duration": 0.023255813953483084
        },
        {
          "name": "B5",
          "midi": 83,
          "time": 46.04651162790535,
          "velocity": 0.3700787401574803,
          "duration": 0.034883720930224626
        },
        {
          "name": "D#6",
          "midi": 87,
          "time": 46.04651162790535,
          "velocity": 0.08661417322834646,
          "duration": 0.034883720930224626
        },
        {
          "name": "D#7",
          "midi": 99,
          "time": 46.04651162790535,
          "velocity": 0.14173228346456693,
          "duration": 0.034883720930224626
        },
        {
          "name": "C#6",
          "midi": 85,
          "time": 46.058139534882095,
          "velocity": 0.4645669291338583,
          "duration": 0.31395348837206427
        },
        {
          "name": "G6",
          "midi": 91,
          "time": 46.058139534882095,
          "velocity": 0.23622047244094488,
          "duration": 0.05813953488370771
        },
        {
          "name": "F#7",
          "midi": 102,
          "time": 46.058139534882095,
          "velocity": 0.12598425196850394,
          "duration": 0.04651162790696617
        },
        {
          "name": "C5",
          "midi": 72,
          "time": 46.069767441858836,
          "velocity": 0.4330708661417323,
          "duration": 0.034883720930224626
        },
        {
          "name": "A#3",
          "midi": 58,
          "time": 46.08139534883558,
          "velocity": 0.3464566929133858,
          "duration": 0.034883720930224626
        },
        {
          "name": "F5",
          "midi": 77,
          "time": 46.08139534883558,
          "velocity": 0.2125984251968504,
          "duration": 0.12790697674417828
        },
        {
          "name": "G#5",
          "midi": 80,
          "time": 46.09302325581232,
          "velocity": 0.15748031496062992,
          "duration": 0.1860465116278931
        },
        {
          "name": "C#5",
          "midi": 73,
          "time": 46.10465116278906,
          "velocity": 0.4881889763779528,
          "duration": 0.1860465116278931
        },
        {
          "name": "C#3",
          "midi": 49,
          "time": 46.1162790697658,
          "velocity": 0.33858267716535434,
          "duration": 0.2674418604650981
        },
        {
          "name": "C#4",
          "midi": 61,
          "time": 46.1162790697658,
          "velocity": 0.3700787401574803,
          "duration": 0.2674418604650981
        },
        {
          "name": "G#6",
          "midi": 92,
          "time": 46.1162790697658,
          "velocity": 0.2755905511811024,
          "duration": 0.17441860465115155
        },
        {
          "name": "F7",
          "midi": 101,
          "time": 46.1162790697658,
          "velocity": 0.1889763779527559,
          "duration": 0.1860465116278931
        },
        {
          "name": "D#5",
          "midi": 75,
          "time": 46.2209302325565,
          "velocity": 0.13385826771653545,
          "duration": 0.046511627906973274
        },
        {
          "name": "A#4",
          "midi": 70,
          "time": 46.26744186046347,
          "velocity": 0.5748031496062992,
          "duration": 0.2209302325581035
        },
        {
          "name": "F#4",
          "midi": 66,
          "time": 46.27906976744021,
          "velocity": 0.11811023622047244,
          "duration": 0.081395348837205
        },
        {
          "name": "F6",
          "midi": 89,
          "time": 46.27906976744021,
          "velocity": 0.25984251968503935,
          "duration": 0.11627906976742963
        },
        {
          "name": "D#5",
          "midi": 75,
          "time": 46.36046511627742,
          "velocity": 0.29133858267716534,
          "duration": 0.04651162790696617
        },
        {
          "name": "B5",
          "midi": 83,
          "time": 46.36046511627742,
          "velocity": 0.28346456692913385,
          "duration": 0.04651162790696617
        },
        {
          "name": "C6",
          "midi": 84,
          "time": 46.36046511627742,
          "velocity": 0.3228346456692913,
          "duration": 0.09302325581393234
        },
        {
          "name": "A5",
          "midi": 81,
          "time": 46.37209302325416,
          "velocity": 0.2440944881889764,
          "duration": 0.034883720930224626
        },
        {
          "name": "F#6",
          "midi": 90,
          "time": 46.37209302325416,
          "velocity": 0.33070866141732286,
          "duration": 0.11627906976741542
        },
        {
          "name": "G#6",
          "midi": 92,
          "time": 46.37209302325416,
          "velocity": 0.4094488188976378,
          "duration": 0.05813953488370771
        },
        {
          "name": "A#6",
          "midi": 94,
          "time": 46.37209302325416,
          "velocity": 0.2992125984251969,
          "duration": 0.0813953488371908
        },
        {
          "name": "B6",
          "midi": 95,
          "time": 46.37209302325416,
          "velocity": 0.3779527559055118,
          "duration": 0.09302325581393234
        },
        {
          "name": "D#7",
          "midi": 99,
          "time": 46.37209302325416,
          "velocity": 0.28346456692913385,
          "duration": 0.11627906976741542
        },
        {
          "name": "E7",
          "midi": 100,
          "time": 46.37209302325416,
          "velocity": 0.28346456692913385,
          "duration": 0.11627906976741542
        },
        {
          "name": "F7",
          "midi": 101,
          "time": 46.37209302325416,
          "velocity": 0.30708661417322836,
          "duration": 0.10465116279067388
        },
        {
          "name": "G7",
          "midi": 103,
          "time": 46.37209302325416,
          "velocity": 0.2755905511811024,
          "duration": 0.10465116279067388
        },
        {
          "name": "A#3",
          "midi": 58,
          "time": 46.3837209302309,
          "velocity": 0.10236220472440945,
          "duration": 0.034883720930224626
        },
        {
          "name": "G4",
          "midi": 67,
          "time": 46.3837209302309,
          "velocity": 0.1889763779527559,
          "duration": 0.04651162790696617
        },
        {
          "name": "C#5",
          "midi": 73,
          "time": 46.3837209302309,
          "velocity": 0.41732283464566927,
          "duration": 0.20930232558136908
        },
        {
          "name": "E5",
          "midi": 76,
          "time": 46.3837209302309,
          "velocity": 0.30708661417322836,
          "duration": 0.04651162790696617
        },
        {
          "name": "G5",
          "midi": 79,
          "time": 46.3837209302309,
          "velocity": 0.31496062992125984,
          "duration": 0.023255813953483084
        },
        {
          "name": "D#6",
          "midi": 87,
          "time": 46.3837209302309,
          "velocity": 0.31496062992125984,
          "duration": 0.05813953488370771
        },
        {
          "name": "G6",
          "midi": 91,
          "time": 46.3837209302309,
          "velocity": 0.3779527559055118,
          "duration": 0.0813953488371908
        },
        {
          "name": "C7",
          "midi": 96,
          "time": 46.3837209302309,
          "velocity": 0.3464566929133858,
          "duration": 0.06976744186044925
        },
        {
          "name": "D7",
          "midi": 98,
          "time": 46.3837209302309,
          "velocity": 0.30708661417322836,
          "duration": 0.09302325581393234
        },
        {
          "name": "G1",
          "midi": 31,
          "time": 46.39534883720764,
          "velocity": 0.49606299212598426,
          "duration": 0.023255813953483084
        },
        {
          "name": "G#5",
          "midi": 80,
          "time": 46.39534883720764,
          "velocity": 0.3464566929133858,
          "duration": 0.06976744186044925
        },
        {
          "name": "A6",
          "midi": 93,
          "time": 46.39534883720764,
          "velocity": 0.33070866141732286,
          "duration": 0.06976744186044925
        },
        {
          "name": "D6",
          "midi": 86,
          "time": 46.406976744184384,
          "velocity": 0.3858267716535433,
          "duration": 0.05813953488370771
        },
        {
          "name": "C#4",
          "midi": 61,
          "time": 46.418604651161125,
          "velocity": 0.07874015748031496,
          "duration": 0.04651162790696617
        },
        {
          "name": "F#5",
          "midi": 78,
          "time": 46.418604651161125,
          "velocity": 0.2440944881889764,
          "duration": 0.023255813953483084
        },
        {
          "name": "F6",
          "midi": 89,
          "time": 46.418604651161125,
          "velocity": 0.23622047244094488,
          "duration": 0.034883720930224626
        },
        {
          "name": "B5",
          "midi": 83,
          "time": 46.43023255813787,
          "velocity": 0.1889763779527559,
          "duration": 0.034883720930224626
        },
        {
          "name": "F7",
          "midi": 101,
          "time": 46.499999999998316,
          "velocity": 0.11023622047244094,
          "duration": 0.1046511627906952
        },
        {
          "name": "F#4",
          "midi": 66,
          "time": 46.58139534883553,
          "velocity": 0.5669291338582677,
          "duration": 0.2209302325581035
        },
        {
          "name": "E5",
          "midi": 76,
          "time": 46.58139534883553,
          "velocity": 0.15748031496062992,
          "duration": 0.034883720930224626
        },
        {
          "name": "G#5",
          "midi": 80,
          "time": 46.59302325581227,
          "velocity": 0.3464566929133858,
          "duration": 0.023255813953483084
        },
        {
          "name": "D#7",
          "midi": 99,
          "time": 46.59302325581227,
          "velocity": 0.11023622047244094,
          "duration": 0.034883720930224626
        },
        {
          "name": "E6",
          "midi": 88,
          "time": 46.60465116278901,
          "velocity": 0.2204724409448819,
          "duration": 0.046511627906973274
        },
        {
          "name": "A4",
          "midi": 69,
          "time": 46.61627906976575,
          "velocity": 0.4330708661417323,
          "duration": 0.03488372093023173
        },
        {
          "name": "C#5",
          "midi": 73,
          "time": 46.61627906976575,
          "velocity": 0.2204724409448819,
          "duration": 0.09302325581394655
        },
        {
          "name": "A#4",
          "midi": 70,
          "time": 46.651162790695984,
          "velocity": 0.4566929133858268,
          "duration": 0.09302325581393944
        },
        {
          "name": "F6",
          "midi": 89,
          "time": 46.651162790695984,
          "velocity": 0.25196850393700787,
          "duration": 0.09302325581393944
        },
        {
          "name": "D7",
          "midi": 98,
          "time": 46.662790697672726,
          "velocity": 0.14960629921259844,
          "duration": 0.10465116279068098
        },
        {
          "name": "G#5",
          "midi": 80,
          "time": 46.69767441860296,
          "velocity": 0.1889763779527559,
          "duration": 0.034883720930224626
        },
        {
          "name": "D6",
          "midi": 86,
          "time": 46.69767441860296,
          "velocity": 0.2755905511811024,
          "duration": 0.06976744186044925
        },
        {
          "name": "A#3",
          "midi": 58,
          "time": 46.72093023255644,
          "velocity": 0.49606299212598426,
          "duration": 0.1627906976743958
        },
        {
          "name": "D5",
          "midi": 74,
          "time": 46.72093023255644,
          "velocity": 0.14173228346456693,
          "duration": 0.034883720930224626
        },
        {
          "name": "F5",
          "midi": 77,
          "time": 46.72093023255644,
          "velocity": 0.23622047244094488,
          "duration": 0.06976744186044925
        },
        {
          "name": "G5",
          "midi": 79,
          "time": 46.73255813953318,
          "velocity": 0.4015748031496063,
          "duration": 0.023255813953483084
        },
        {
          "name": "B6",
          "midi": 95,
          "time": 46.744186046509924,
          "velocity": 0.14960629921259844,
          "duration": 0.034883720930224626
        },
        {
          "name": "F7",
          "midi": 101,
          "time": 46.744186046509924,
          "velocity": 0.10236220472440945,
          "duration": 0.05813953488370771
        },
        {
          "name": "C#5",
          "midi": 73,
          "time": 46.755813953486665,
          "velocity": 0.2047244094488189,
          "duration": 0.1627906976744029
        },
        {
          "name": "G#5",
          "midi": 80,
          "time": 46.755813953486665,
          "velocity": 0.4251968503937008,
          "duration": 0.20930232558136908
        },
        {
          "name": "D#7",
          "midi": 99,
          "time": 46.755813953486665,
          "velocity": 0.2283464566929134,
          "duration": 0.19767441860462753
        },
        {
          "name": "D#6",
          "midi": 87,
          "time": 46.76744186046341,
          "velocity": 0.2440944881889764,
          "duration": 0.186046511627886
        },
        {
          "name": "C7",
          "midi": 96,
          "time": 46.77906976744015,
          "velocity": 0.2047244094488189,
          "duration": 0.17441860465114445
        },
        {
          "name": "G#4",
          "midi": 68,
          "time": 46.79069767441689,
          "velocity": 0.4330708661417323,
          "duration": 0.2441860465116079
        },
        {
          "name": "F#7",
          "midi": 102,
          "time": 46.80232558139363,
          "velocity": 0.11811023622047244,
          "duration": 0.13953488372091982
        },
        {
          "name": "F5",
          "midi": 77,
          "time": 46.81395348837037,
          "velocity": 0.09448818897637795,
          "duration": 0.046511627906973274
        },
        {
          "name": "C#4",
          "midi": 61,
          "time": 46.88372093023084,
          "velocity": 0.08661417322834646,
          "duration": 0.03488372093023173
        },
        {
          "name": "F5",
          "midi": 77,
          "time": 46.91860465116107,
          "velocity": 0.23622047244094488,
          "duration": 0.11627906976742963
        },
        {
          "name": "A#3",
          "midi": 58,
          "time": 46.93023255813781,
          "velocity": 0.3937007874015748,
          "duration": 0.09302325581394655
        },
        {
          "name": "F#4",
          "midi": 66,
          "time": 46.95348837209129,
          "velocity": 0.09448818897637795,
          "duration": 0.046511627906973274
        },
        {
          "name": "A#4",
          "midi": 70,
          "time": 47.02325581395176,
          "velocity": 0.31496062992125984,
          "duration": 0.023255813953483084
        },
        {
          "name": "D#6",
          "midi": 87,
          "time": 47.02325581395176,
          "velocity": 0.25984251968503935,
          "duration": 0.2441860465115866
        },
        {
          "name": "C3",
          "midi": 48,
          "time": 47.0348837209285,
          "velocity": 0.6929133858267716,
          "duration": 0.011627906976741542
        },
        {
          "name": "E5",
          "midi": 76,
          "time": 47.0348837209285,
          "velocity": 0.2283464566929134,
          "duration": 0.034883720930224626
        },
        {
          "name": "A5",
          "midi": 81,
          "time": 47.0348837209285,
          "velocity": 0.23622047244094488,
          "duration": 0.034883720930224626
        },
        {
          "name": "B5",
          "midi": 83,
          "time": 47.0348837209285,
          "velocity": 0.31496062992125984,
          "duration": 0.023255813953483084
        },
        {
          "name": "D6",
          "midi": 86,
          "time": 47.0348837209285,
          "velocity": 0.11811023622047244,
          "duration": 0.034883720930224626
        },
        {
          "name": "A2",
          "midi": 45,
          "time": 47.04651162790524,
          "velocity": 0.7559055118110236,
          "duration": 0.011627906976741542
        },
        {
          "name": "F#4",
          "midi": 66,
          "time": 47.04651162790524,
          "velocity": 0.3464566929133858,
          "duration": 0.023255813953483084
        },
        {
          "name": "A4",
          "midi": 69,
          "time": 47.04651162790524,
          "velocity": 0.1968503937007874,
          "duration": 0.034883720930224626
        },
        {
          "name": "F2",
          "midi": 41,
          "time": 47.05813953488198,
          "velocity": 0.7874015748031497,
          "duration": 0.011627906976741542
        },
        {
          "name": "C5",
          "midi": 72,
          "time": 47.05813953488198,
          "velocity": 0.3464566929133858,
          "duration": 0.034883720930224626
        },
        {
          "name": "F5",
          "midi": 77,
          "time": 47.05813953488198,
          "velocity": 0.2283464566929134,
          "duration": 0.1627906976743958
        },
        {
          "name": "C#2",
          "midi": 37,
          "time": 47.06976744185872,
          "velocity": 0.8110236220472441,
          "duration": 0.011627906976741542
        },
        {
          "name": "F3",
          "midi": 53,
          "time": 47.06976744185872,
          "velocity": 0.5039370078740157,
          "duration": 0.1627906976743958
        },
        {
          "name": "D#5",
          "midi": 75,
          "time": 47.06976744185872,
          "velocity": 0.2283464566929134,
          "duration": 0.13953488372091272
        },
        {
          "name": "G#6",
          "midi": 92,
          "time": 47.06976744185872,
          "velocity": 0.1968503937007874,
          "duration": 0.10465116279068098
        },
        {
          "name": "B6",
          "midi": 95,
          "time": 47.06976744185872,
          "velocity": 0.18110236220472442,
          "duration": 0.12790697674417117
        },
        {
          "name": "C#7",
          "midi": 97,
          "time": 47.06976744185872,
          "velocity": 0.28346456692913385,
          "duration": 0.2674418604650768
        },
        {
          "name": "E7",
          "midi": 100,
          "time": 47.06976744185872,
          "velocity": 0.11023622047244094,
          "duration": 0.034883720930224626
        },
        {
          "name": "B1",
          "midi": 35,
          "time": 47.081395348835464,
          "velocity": 0.8110236220472441,
          "duration": 0.011627906976741542
        },
        {
          "name": "D#4",
          "midi": 63,
          "time": 47.081395348835464,
          "velocity": 0.23622047244094488,
          "duration": 0.023255813953483084
        },
        {
          "name": "G#4",
          "midi": 68,
          "time": 47.081395348835464,
          "velocity": 0.3228346456692913,
          "duration": 0.17441860465113734
        },
        {
          "name": "A1",
          "midi": 33,
          "time": 47.093023255812206,
          "velocity": 0.7874015748031497,
          "duration": 0.011627906976741542
        },
        {
          "name": "C#5",
          "midi": 73,
          "time": 47.093023255812206,
          "velocity": 0.3937007874015748,
          "duration": 0.046511627906973274
        },
        {
          "name": "G6",
          "midi": 91,
          "time": 47.093023255812206,
          "velocity": 0.07086614173228346,
          "duration": 0.06976744186045636
        },
        {
          "name": "F#7",
          "midi": 102,
          "time": 47.093023255812206,
          "velocity": 0.07086614173228346,
          "duration": 0.046511627906973274
        },
        {
          "name": "G#1",
          "midi": 32,
          "time": 47.10465116278895,
          "velocity": 0.7795275590551181,
          "duration": 0.03488372093023173
        },
        {
          "name": "C#4",
          "midi": 61,
          "time": 47.10465116278895,
          "velocity": 0.5039370078740157,
          "duration": 0.11627906976742963
        },
        {
          "name": "G#5",
          "midi": 80,
          "time": 47.10465116278895,
          "velocity": 0.33858267716535434,
          "duration": 0.15116279069765426
        },
        {
          "name": "F7",
          "midi": 101,
          "time": 47.10465116278895,
          "velocity": 0.18110236220472442,
          "duration": 0.12790697674417117
        },
        {
          "name": "F#6",
          "midi": 90,
          "time": 47.12790697674244,
          "velocity": 0.1968503937007874,
          "duration": 0.04651162790696617
        },
        {
          "name": "A6",
          "midi": 93,
          "time": 47.12790697674244,
          "velocity": 0.10236220472440945,
          "duration": 0.09302325581393944
        },
        {
          "name": "A#6",
          "midi": 94,
          "time": 47.12790697674244,
          "velocity": 0.11811023622047244,
          "duration": 0.04651162790696617
        },
        {
          "name": "A1",
          "midi": 33,
          "time": 47.13953488371918,
          "velocity": 0.6535433070866141,
          "duration": 0.011627906976741542
        },
        {
          "name": "C5",
          "midi": 72,
          "time": 47.13953488371918,
          "velocity": 0.4330708661417323,
          "duration": 0.09302325581393944
        },
        {
          "name": "A#1",
          "midi": 34,
          "time": 47.15116279069592,
          "velocity": 0.6062992125984252,
          "duration": 0.011627906976741542
        },
        {
          "name": "A1",
          "midi": 33,
          "time": 47.16279069767266,
          "velocity": 0.6377952755905512,
          "duration": 0.011627906976741542
        },
        {
          "name": "G1",
          "midi": 31,
          "time": 47.174418604649404,
          "velocity": 0.7086614173228346,
          "duration": 0.02325581395349019
        },
        {
          "name": "C7",
          "midi": 96,
          "time": 47.174418604649404,
          "velocity": 0.12598425196850394,
          "duration": 0.058139534883714816
        },
        {
          "name": "F#1",
          "midi": 30,
          "time": 47.197674418602894,
          "velocity": 0.7559055118110236,
          "duration": 0.06976744186044925
        },
        {
          "name": "F#6",
          "midi": 90,
          "time": 47.209302325579635,
          "velocity": 0.15748031496062992,
          "duration": 0.09302325581393944
        },
        {
          "name": "C#5",
          "midi": 73,
          "time": 47.22093023255638,
          "velocity": 0.47244094488188976,
          "duration": 0.1627906976743887
        },
        {
          "name": "C4",
          "midi": 60,
          "time": 47.23255813953312,
          "velocity": 0.4251968503937008,
          "duration": 0.023255813953483084
        },
        {
          "name": "A5",
          "midi": 81,
          "time": 47.24418604650986,
          "velocity": 0.2204724409448819,
          "duration": 0.0813953488371979
        },
        {
          "name": "B5",
          "midi": 83,
          "time": 47.24418604650986,
          "velocity": 0.14173228346456693,
          "duration": 0.034883720930224626
        },
        {
          "name": "C#4",
          "midi": 61,
          "time": 47.2558139534866,
          "velocity": 0.4881889763779528,
          "duration": 0.023255813953483084
        },
        {
          "name": "D#5",
          "midi": 75,
          "time": 47.2558139534866,
          "velocity": 0.29133858267716534,
          "duration": 0.1627906976743887
        },
        {
          "name": "F1",
          "midi": 29,
          "time": 47.26744186046334,
          "velocity": 0.7401574803149606,
          "duration": 0.058139534883714816
        },
        {
          "name": "G#4",
          "midi": 68,
          "time": 47.26744186046334,
          "velocity": 0.33070866141732286,
          "duration": 0.10465116279068098
        },
        {
          "name": "C6",
          "midi": 84,
          "time": 47.26744186046334,
          "velocity": 0.23622047244094488,
          "duration": 0.06976744186045636
        },
        {
          "name": "D4",
          "midi": 62,
          "time": 47.279069767440085,
          "velocity": 0.3700787401574803,
          "duration": 0.02325581395349019
        },
        {
          "name": "C3",
          "midi": 48,
          "time": 47.302325581393575,
          "velocity": 0.4094488188976378,
          "duration": 0.3255813953487916
        },
        {
          "name": "F3",
          "midi": 53,
          "time": 47.302325581393575,
          "velocity": 0.3858267716535433,
          "duration": 0.023255813953483084
        },
        {
          "name": "G#3",
          "midi": 56,
          "time": 47.302325581393575,
          "velocity": 0.4094488188976378,
          "duration": 0.023255813953483084
        },
        {
          "name": "C#4",
          "midi": 61,
          "time": 47.313953488370316,
          "velocity": 0.4645669291338583,
          "duration": 0.06976744186044925
        },
        {
          "name": "E1",
          "midi": 28,
          "time": 47.32558139534706,
          "velocity": 0.6614173228346457,
          "duration": 0.011627906976741542
        },
        {
          "name": "F1",
          "midi": 29,
          "time": 47.3372093023238,
          "velocity": 0.6614173228346457,
          "duration": 0.3488372093022818
        },
        {
          "name": "G#3",
          "midi": 56,
          "time": 47.3372093023238,
          "velocity": 0.5354330708661418,
          "duration": 0.22093023255811062
        },
        {
          "name": "A#5",
          "midi": 82,
          "time": 47.34883720930054,
          "velocity": 0.29133858267716534,
          "duration": 0.0813953488371908
        },
        {
          "name": "C6",
          "midi": 84,
          "time": 47.34883720930054,
          "velocity": 0.3858267716535433,
          "duration": 0.0813953488371908
        },
        {
          "name": "F6",
          "midi": 89,
          "time": 47.34883720930054,
          "velocity": 0.1889763779527559,
          "duration": 0.04651162790696617
        },
        {
          "name": "B4",
          "midi": 71,
          "time": 47.36046511627728,
          "velocity": 0.4409448818897638,
          "duration": 0.023255813953483084
        },
        {
          "name": "G6",
          "midi": 91,
          "time": 47.36046511627728,
          "velocity": 0.2440944881889764,
          "duration": 0.05813953488370771
        },
        {
          "name": "C#7",
          "midi": 97,
          "time": 47.36046511627728,
          "velocity": 0.2047244094488189,
          "duration": 0.034883720930224626
        },
        {
          "name": "F5",
          "midi": 77,
          "time": 47.372093023254024,
          "velocity": 0.11811023622047244,
          "duration": 0.034883720930224626
        },
        {
          "name": "D#7",
          "midi": 99,
          "time": 47.372093023254024,
          "velocity": 0.10236220472440945,
          "duration": 0.034883720930224626
        },
        {
          "name": "C4",
          "midi": 60,
          "time": 47.383720930230766,
          "velocity": 0.4645669291338583,
          "duration": 0.023255813953483084
        },
        {
          "name": "C5",
          "midi": 72,
          "time": 47.383720930230766,
          "velocity": 0.49606299212598426,
          "duration": 0.034883720930224626
        },
        {
          "name": "E7",
          "midi": 100,
          "time": 47.383720930230766,
          "velocity": 0.14960629921259844,
          "duration": 0.04651162790696617
        },
        {
          "name": "C#4",
          "midi": 61,
          "time": 47.40697674418425,
          "velocity": 0.47244094488188976,
          "duration": 0.058139534883714816
        },
        {
          "name": "C#5",
          "midi": 73,
          "time": 47.41860465116099,
          "velocity": 0.48031496062992124,
          "duration": 0.267441860465091
        },
        {
          "name": "F7",
          "midi": 101,
          "time": 47.43023255813773,
          "velocity": 0.18110236220472442,
          "duration": 0.17441860465115155
        },
        {
          "name": "A#5",
          "midi": 82,
          "time": 47.46511627906796,
          "velocity": 0.2440944881889764,
          "duration": 0.058139534883714816
        },
        {
          "name": "D#4",
          "midi": 63,
          "time": 47.476744186044705,
          "velocity": 0.41732283464566927,
          "duration": 0.046511627906973274
        },
        {
          "name": "G6",
          "midi": 91,
          "time": 47.476744186044705,
          "velocity": 0.1889763779527559,
          "duration": 0.046511627906973274
        },
        {
          "name": "C#4",
          "midi": 61,
          "time": 47.51162790697494,
          "velocity": 0.30708661417322836,
          "duration": 0.06976744186045636
        },
        {
          "name": "G#3",
          "midi": 56,
          "time": 47.56976744185865,
          "velocity": 0.3937007874015748,
          "duration": 0.046511627906973274
        },
        {
          "name": "D#4",
          "midi": 63,
          "time": 47.56976744185865,
          "velocity": 0.4330708661417323,
          "duration": 0.046511627906973274
        },
        {
          "name": "D#6",
          "midi": 87,
          "time": 47.56976744185865,
          "velocity": 0.33070866141732286,
          "duration": 0.20930232558136197
        },
        {
          "name": "A#5",
          "midi": 82,
          "time": 47.58139534883539,
          "velocity": 0.2440944881889764,
          "duration": 0.03488372093023173
        },
        {
          "name": "G6",
          "midi": 91,
          "time": 47.58139534883539,
          "velocity": 0.18110236220472442,
          "duration": 0.046511627906973274
        },
        {
          "name": "C#4",
          "midi": 61,
          "time": 47.616279069765625,
          "velocity": 0.2992125984251969,
          "duration": 0.06976744186045636
        },
        {
          "name": "E4",
          "midi": 64,
          "time": 47.616279069765625,
          "velocity": 0.33858267716535434,
          "duration": 0.06976744186045636
        },
        {
          "name": "B5",
          "midi": 83,
          "time": 47.616279069765625,
          "velocity": 0.14960629921259844,
          "duration": 0.046511627906973274
        },
        {
          "name": "G#3",
          "midi": 56,
          "time": 47.627906976742366,
          "velocity": 0.29133858267716534,
          "duration": 0.03488372093023173
        },
        {
          "name": "C3",
          "midi": 48,
          "time": 47.63953488371911,
          "velocity": 0.30708661417322836,
          "duration": 0.03488372093023173
        },
        {
          "name": "F3",
          "midi": 53,
          "time": 47.6627906976726,
          "velocity": 0.29133858267716534,
          "duration": 0.034883720930224626
        },
        {
          "name": "A#5",
          "midi": 82,
          "time": 47.67441860464934,
          "velocity": 0.33858267716535434,
          "duration": 0.06976744186044925
        },
        {
          "name": "C6",
          "midi": 84,
          "time": 47.67441860464934,
          "velocity": 0.28346456692913385,
          "duration": 0.034883720930224626
        },
        {
          "name": "D6",
          "midi": 86,
          "time": 47.67441860464934,
          "velocity": 0.2204724409448819,
          "duration": 0.034883720930224626
        },
        {
          "name": "E6",
          "midi": 88,
          "time": 47.67441860464934,
          "velocity": 0.25984251968503935,
          "duration": 0.10465116279067388
        },
        {
          "name": "F#6",
          "midi": 90,
          "time": 47.67441860464934,
          "velocity": 0.25196850393700787,
          "duration": 0.05813953488370771
        },
        {
          "name": "G6",
          "midi": 91,
          "time": 47.67441860464934,
          "velocity": 0.33070866141732286,
          "duration": 0.09302325581393234
        },
        {
          "name": "B6",
          "midi": 95,
          "time": 47.67441860464934,
          "velocity": 0.2125984251968504,
          "duration": 0.09302325581393234
        },
        {
          "name": "D7",
          "midi": 98,
          "time": 47.67441860464934,
          "velocity": 0.29133858267716534,
          "duration": 0.05813953488370771
        },
        {
          "name": "F7",
          "midi": 101,
          "time": 47.67441860464934,
          "velocity": 0.25196850393700787,
          "duration": 0.12790697674415696
        },
        {
          "name": "F#1",
          "midi": 30,
          "time": 47.68604651162608,
          "velocity": 0.5748031496062992,
          "duration": 0.023255813953483084
        },
        {
          "name": "D5",
          "midi": 74,
          "time": 47.68604651162608,
          "velocity": 0.30708661417322836,
          "duration": 0.023255813953483084
        },
        {
          "name": "E5",
          "midi": 76,
          "time": 47.68604651162608,
          "velocity": 0.31496062992125984,
          "duration": 0.023255813953483084
        },
        {
          "name": "G5",
          "midi": 79,
          "time": 47.68604651162608,
          "velocity": 0.3543307086614173,
          "duration": 0.04651162790696617
        },
        {
          "name": "F6",
          "midi": 89,
          "time": 47.68604651162608,
          "velocity": 0.25984251968503935,
          "duration": 0.06976744186044925
        },
        {
          "name": "G#6",
          "midi": 92,
          "time": 47.68604651162608,
          "velocity": 0.4251968503937008,
          "duration": 0.034883720930224626
        },
        {
          "name": "E4",
          "midi": 64,
          "time": 47.69767441860282,
          "velocity": 0.4094488188976378,
          "duration": 0.10465116279067388
        },
        {
          "name": "D#5",
          "midi": 75,
          "time": 47.69767441860282,
          "velocity": 0.25984251968503935,
          "duration": 0.034883720930224626
        },
        {
          "name": "B5",
          "midi": 83,
          "time": 47.69767441860282,
          "velocity": 0.3228346456692913,
          "duration": 0.034883720930224626
        },
        {
          "name": "A6",
          "midi": 93,
          "time": 47.69767441860282,
          "velocity": 0.33858267716535434,
          "duration": 0.06976744186044925
        },
        {
          "name": "C#5",
          "midi": 73,
          "time": 47.709302325579564,
          "velocity": 0.4251968503937008,
          "duration": 0.04651162790696617
        },
        {
          "name": "C#4",
          "midi": 61,
          "time": 47.720930232556306,
          "velocity": 0.23622047244094488,
          "duration": 0.04651162790696617
        },
        {
          "name": "C6",
          "midi": 84,
          "time": 47.720930232556306,
          "velocity": 0.3858267716535433,
          "duration": 0.023255813953483084
        },
        {
          "name": "G#4",
          "midi": 68,
          "time": 47.73255813953305,
          "velocity": 0.2755905511811024,
          "duration": 0.0813953488371908
        },
        {
          "name": "G#5",
          "midi": 80,
          "time": 47.73255813953305,
          "velocity": 0.2755905511811024,
          "duration": 0.034883720930224626
        },
        {
          "name": "F#6",
          "midi": 90,
          "time": 47.74418604650979,
          "velocity": 0.12598425196850394,
          "duration": 0.04651162790696617
        },
        {
          "name": "D7",
          "midi": 98,
          "time": 47.74418604650979,
          "velocity": 0.1889763779527559,
          "duration": 0.034883720930224626
        },
        {
          "name": "C#5",
          "midi": 73,
          "time": 47.76744186046327,
          "velocity": 0.3543307086614173,
          "duration": 0.13953488372091272
        },
        {
          "name": "F4",
          "midi": 65,
          "time": 47.8023255813935,
          "velocity": 0.4409448818897638,
          "duration": 0.023255813953483084
        },
        {
          "name": "B5",
          "midi": 83,
          "time": 47.8023255813935,
          "velocity": 0.2755905511811024,
          "duration": 0.023255813953483084
        },
        {
          "name": "E4",
          "midi": 64,
          "time": 47.82558139534698,
          "velocity": 0.3779527559055118,
          "duration": 0.023255813953483084
        },
        {
          "name": "C4",
          "midi": 60,
          "time": 47.83720930232372,
          "velocity": 0.2047244094488189,
          "duration": 0.05813953488372192
        },
        {
          "name": "F7",
          "midi": 101,
          "time": 47.83720930232372,
          "velocity": 0.09448818897637795,
          "duration": 0.081395348837205
        },
        {
          "name": "F4",
          "midi": 65,
          "time": 47.84883720930046,
          "velocity": 0.30708661417322836,
          "duration": 0.05813953488372192
        },
        {
          "name": "G#4",
          "midi": 68,
          "time": 47.87209302325395,
          "velocity": 0.4409448818897638,
          "duration": 0.058139534883714816
        },
        {
          "name": "E5",
          "midi": 76,
          "time": 47.89534883720744,
          "velocity": 0.11811023622047244,
          "duration": 0.034883720930224626
        },
        {
          "name": "D#6",
          "midi": 87,
          "time": 47.89534883720744,
          "velocity": 0.2283464566929134,
          "duration": 0.023255813953483084
        },
        {
          "name": "A6",
          "midi": 93,
          "time": 47.89534883720744,
          "velocity": 0.2440944881889764,
          "duration": 0.04651162790696617
        },
        {
          "name": "C7",
          "midi": 96,
          "time": 47.89534883720744,
          "velocity": 0.2047244094488189,
          "duration": 0.034883720930224626
        },
        {
          "name": "C6",
          "midi": 84,
          "time": 47.906976744184185,
          "velocity": 0.30708661417322836,
          "duration": 0.17441860465112313
        },
        {
          "name": "E7",
          "midi": 100,
          "time": 47.906976744184185,
          "velocity": 0.12598425196850394,
          "duration": 0.04651162790696617
        },
        {
          "name": "B3",
          "midi": 59,
          "time": 47.918604651160926,
          "velocity": 0.14960629921259844,
          "duration": 0.034883720930224626
        },
        {
          "name": "F4",
          "midi": 65,
          "time": 47.918604651160926,
          "velocity": 0.4409448818897638,
          "duration": 0.05813953488370771
        },
        {
          "name": "C#5",
          "midi": 73,
          "time": 47.918604651160926,
          "velocity": 0.2047244094488189,
          "duration": 0.20930232558135486
        },
        {
          "name": "A5",
          "midi": 81,
          "time": 47.918604651160926,
          "velocity": 0.36220472440944884,
          "duration": 0.04651162790696617
        },
        {
          "name": "E6",
          "midi": 88,
          "time": 47.918604651160926,
          "velocity": 0.2204724409448819,
          "duration": 0.034883720930224626
        },
        {
          "name": "A4",
          "midi": 69,
          "time": 47.93023255813767,
          "velocity": 0.41732283464566927,
          "duration": 0.034883720930224626
        },
        {
          "name": "F3",
          "midi": 53,
          "time": 47.94186046511441,
          "velocity": 0.13385826771653545,
          "duration": 0.05813953488370771
        },
        {
          "name": "F6",
          "midi": 89,
          "time": 47.95348837209115,
          "velocity": 0.2677165354330709,
          "duration": 0.0813953488371908
        },
        {
          "name": "A#4",
          "midi": 70,
          "time": 47.96511627906789,
          "velocity": 0.4409448818897638,
          "duration": 0.09302325581393234
        },
        {
          "name": "C#6",
          "midi": 85,
          "time": 47.976744186044634,
          "velocity": 0.2755905511811024,
          "duration": 0.23255813953484505
        },
        {
          "name": "D7",
          "midi": 98,
          "time": 47.976744186044634,
          "velocity": 0.15748031496062992,
          "duration": 0.09302325581393234
        },
        {
          "name": "F4",
          "midi": 65,
          "time": 47.988372093021376,
          "velocity": 0.5118110236220472,
          "duration": 0.04651162790696617
        },
        {
          "name": "G#5",
          "midi": 80,
          "time": 48.01162790697486,
          "velocity": 0.2440944881889764,
          "duration": 0.034883720930224626
        },
        {
          "name": "E6",
          "midi": 88,
          "time": 48.01162790697486,
          "velocity": 0.10236220472440945,
          "duration": 0.034883720930224626
        },
        {
          "name": "A6",
          "midi": 93,
          "time": 48.01162790697486,
          "velocity": 0.1889763779527559,
          "duration": 0.034883720930224626
        },
        {
          "name": "C#4",
          "midi": 61,
          "time": 48.0232558139516,
          "velocity": 0.4015748031496063,
          "duration": 0.09302325581393944
        },
        {
          "name": "F#4",
          "midi": 66,
          "time": 48.03488372092834,
          "velocity": 0.5433070866141733,
          "duration": 0.011627906976741542
        },
        {
          "name": "G5",
          "midi": 79,
          "time": 48.03488372092834,
          "velocity": 0.4251968503937008,
          "duration": 0.034883720930224626
        },
        {
          "name": "F4",
          "midi": 65,
          "time": 48.04651162790508,
          "velocity": 0.48031496062992124,
          "duration": 0.09302325581393944
        },
        {
          "name": "D6",
          "midi": 86,
          "time": 48.04651162790508,
          "velocity": 0.2677165354330709,
          "duration": 0.023255813953483084
        },
        {
          "name": "B6",
          "midi": 95,
          "time": 48.04651162790508,
          "velocity": 0.1889763779527559,
          "duration": 0.034883720930224626
        },
        {
          "name": "F7",
          "midi": 101,
          "time": 48.04651162790508,
          "velocity": 0.07874015748031496,
          "duration": 0.04651162790696617
        },
        {
          "name": "F#5",
          "midi": 78,
          "time": 48.058139534881825,
          "velocity": 0.18110236220472442,
          "duration": 0.06976744186045636
        },
        {
          "name": "G#4",
          "midi": 68,
          "time": 48.069767441858566,
          "velocity": 0.44881889763779526,
          "duration": 0.06976744186045636
        },
        {
          "name": "D#6",
          "midi": 87,
          "time": 48.069767441858566,
          "velocity": 0.25984251968503935,
          "duration": 0.18604651162787889
        },
        {
          "name": "G#3",
          "midi": 56,
          "time": 48.08139534883531,
          "velocity": 0.3858267716535433,
          "duration": 0.0813953488371979
        },
        {
          "name": "C7",
          "midi": 96,
          "time": 48.08139534883531,
          "velocity": 0.2283464566929134,
          "duration": 0.1627906976743958
        },
        {
          "name": "F#7",
          "midi": 102,
          "time": 48.09302325581205,
          "velocity": 0.13385826771653545,
          "duration": 0.17441860465113734
        },
        {
          "name": "C5",
          "midi": 72,
          "time": 48.12790697674228,
          "velocity": 0.13385826771653545,
          "duration": 0.034883720930224626
        },
        {
          "name": "A#6",
          "midi": 94,
          "time": 48.12790697674228,
          "velocity": 0.18110236220472442,
          "duration": 0.04651162790696617
        },
        {
          "name": "F#4",
          "midi": 66,
          "time": 48.13953488371902,
          "velocity": 0.44881889763779526,
          "duration": 0.023255813953483084
        },
        {
          "name": "G#4",
          "midi": 68,
          "time": 48.151162790695764,
          "velocity": 0.41732283464566927,
          "duration": 0.09302325581393944
        },
        {
          "name": "C#4",
          "midi": 61,
          "time": 48.17441860464925,
          "velocity": 0.2283464566929134,
          "duration": 0.046511627906973274
        },
        {
          "name": "D#5",
          "midi": 75,
          "time": 48.17441860464925,
          "velocity": 0.08661417322834646,
          "duration": 0.03488372093023173
        },
        {
          "name": "C#5",
          "midi": 73,
          "time": 48.22093023255622,
          "velocity": 0.1968503937007874,
          "duration": 0.06976744186044925
        },
        {
          "name": "F5",
          "midi": 77,
          "time": 48.22093023255622,
          "velocity": 0.1889763779527559,
          "duration": 0.034883720930224626
        },
        {
          "name": "C6",
          "midi": 84,
          "time": 48.22093023255622,
          "velocity": 0.1732283464566929,
          "duration": 0.05813953488370771
        },
        {
          "name": "C#6",
          "midi": 85,
          "time": 48.22093023255622,
          "velocity": 0.31496062992125984,
          "duration": 0.11627906976742253
        },
        {
          "name": "F#4",
          "midi": 66,
          "time": 48.23255813953296,
          "velocity": 0.4015748031496063,
          "duration": 0.034883720930224626
        },
        {
          "name": "D#5",
          "midi": 75,
          "time": 48.23255813953296,
          "velocity": 0.2677165354330709,
          "duration": 0.034883720930224626
        },
        {
          "name": "A#6",
          "midi": 94,
          "time": 48.23255813953296,
          "velocity": 0.1889763779527559,
          "duration": 0.034883720930224626
        },
        {
          "name": "G4",
          "midi": 67,
          "time": 48.26744186046319,
          "velocity": 0.3700787401574803,
          "duration": 0.023255813953483084
        },
        {
          "name": "G#3",
          "midi": 56,
          "time": 48.27906976743993,
          "velocity": 0.3700787401574803,
          "duration": 0.046511627906973274
        },
        {
          "name": "A#4",
          "midi": 70,
          "time": 48.27906976743993,
          "velocity": 0.1732283464566929,
          "duration": 0.058139534883714816
        },
        {
          "name": "D#5",
          "midi": 75,
          "time": 48.27906976743993,
          "velocity": 0.2204724409448819,
          "duration": 0.046511627906973274
        },
        {
          "name": "G4",
          "midi": 67,
          "time": 48.30232558139341,
          "velocity": 0.2755905511811024,
          "duration": 0.03488372093023173
        },
        {
          "name": "C3",
          "midi": 48,
          "time": 48.3255813953469,
          "velocity": 0.6535433070866141,
          "duration": 0.023255813953483084
        },
        {
          "name": "G#4",
          "midi": 68,
          "time": 48.3255813953469,
          "velocity": 0.3858267716535433,
          "duration": 0.023255813953483084
        },
        {
          "name": "C#5",
          "midi": 73,
          "time": 48.3255813953469,
          "velocity": 0.2677165354330709,
          "duration": 0.023255813953483084
        },
        {
          "name": "C6",
          "midi": 84,
          "time": 48.3255813953469,
          "velocity": 0.16535433070866143,
          "duration": 0.034883720930224626
        },
        {
          "name": "F4",
          "midi": 65,
          "time": 48.33720930232364,
          "velocity": 0.41732283464566927,
          "duration": 0.023255813953483084
        },
        {
          "name": "D5",
          "midi": 74,
          "time": 48.33720930232364,
          "velocity": 0.28346456692913385,
          "duration": 0.023255813953483084
        },
        {
          "name": "F#5",
          "midi": 78,
          "time": 48.33720930232364,
          "velocity": 0.15748031496062992,
          "duration": 0.034883720930224626
        },
        {
          "name": "B5",
          "midi": 83,
          "time": 48.33720930232364,
          "velocity": 0.2677165354330709,
          "duration": 0.034883720930224626
        },
        {
          "name": "F#6",
          "midi": 90,
          "time": 48.33720930232364,
          "velocity": 0.1889763779527559,
          "duration": 0.15116279069764005
        },
        {
          "name": "A2",
          "midi": 45,
          "time": 48.348837209300385,
          "velocity": 0.7559055118110236,
          "duration": 0.011627906976741542
        },
        {
          "name": "C#4",
          "midi": 61,
          "time": 48.348837209300385,
          "velocity": 0.3543307086614173,
          "duration": 0.023255813953483084
        },
        {
          "name": "G4",
          "midi": 67,
          "time": 48.348837209300385,
          "velocity": 0.4094488188976378,
          "duration": 0.06976744186044925
        },
        {
          "name": "C5",
          "midi": 72,
          "time": 48.348837209300385,
          "velocity": 0.2677165354330709,
          "duration": 0.023255813953483084
        },
        {
          "name": "F6",
          "midi": 89,
          "time": 48.348837209300385,
          "velocity": 0.2125984251968504,
          "duration": 0.0813953488371908
        },
        {
          "name": "F#2",
          "midi": 42,
          "time": 48.360465116277126,
          "velocity": 0.7874015748031497,
          "duration": 0.011627906976741542
        },
        {
          "name": "F5",
          "midi": 77,
          "time": 48.360465116277126,
          "velocity": 0.25984251968503935,
          "duration": 0.023255813953483084
        },
        {
          "name": "G#5",
          "midi": 80,
          "time": 48.360465116277126,
          "velocity": 0.3228346456692913,
          "duration": 0.1395348837208985
        },
        {
          "name": "A#5",
          "midi": 82,
          "time": 48.360465116277126,
          "velocity": 0.2755905511811024,
          "duration": 0.2209302325580964
        },
        {
          "name": "D#7",
          "midi": 99,
          "time": 48.360465116277126,
          "velocity": 0.12598425196850394,
          "duration": 0.05813953488370771
        },
        {
          "name": "D2",
          "midi": 38,
          "time": 48.37209302325387,
          "velocity": 0.7795275590551181,
          "duration": 0.011627906976741542
        },
        {
          "name": "C6",
          "midi": 84,
          "time": 48.37209302325387,
          "velocity": 0.25196850393700787,
          "duration": 0.023255813953483084
        },
        {
          "name": "E6",
          "midi": 88,
          "time": 48.37209302325387,
          "velocity": 0.12598425196850394,
          "duration": 0.05813953488370771
        },
        {
          "name": "C2",
          "midi": 36,
          "time": 48.38372093023061,
          "velocity": 0.7874015748031497,
          "duration": 0.011627906976741542
        },
        {
          "name": "C#4",
          "midi": 61,
          "time": 48.38372093023061,
          "velocity": 0.33858267716535434,
          "duration": 0.034883720930224626
        },
        {
          "name": "A#4",
          "midi": 70,
          "time": 48.38372093023061,
          "velocity": 0.2283464566929134,
          "duration": 0.05813953488370771
        },
        {
          "name": "F#5",
          "midi": 78,
          "time": 48.38372093023061,
          "velocity": 0.3543307086614173,
          "duration": 0.12790697674415696
        },
        {
          "name": "A#1",
          "midi": 34,
          "time": 48.39534883720735,
          "velocity": 0.7952755905511811,
          "duration": 0.011627906976741542
        },
        {
          "name": "F3",
          "midi": 53,
          "time": 48.39534883720735,
          "velocity": 0.4409448818897638,
          "duration": 0.023255813953483084
        },
        {
          "name": "E5",
          "midi": 76,
          "time": 48.39534883720735,
          "velocity": 0.14960629921259844,
          "duration": 0.034883720930224626
        },
        {
          "name": "C#6",
          "midi": 85,
          "time": 48.39534883720735,
          "velocity": 0.3937007874015748,
          "duration": 0.31395348837203585
        },
        {
          "name": "A1",
          "midi": 33,
          "time": 48.40697674418409,
          "velocity": 0.7874015748031497,
          "duration": 0.011627906976741542
        },
        {
          "name": "B6",
          "midi": 95,
          "time": 48.40697674418409,
          "velocity": 0.1732283464566929,
          "duration": 0.17441860465113024
        },
        {
          "name": "G#1",
          "midi": 32,
          "time": 48.418604651160834,
          "velocity": 0.7952755905511811,
          "duration": 0.023255813953483084
        },
        {
          "name": "F#4",
          "midi": 66,
          "time": 48.418604651160834,
          "velocity": 0.2283464566929134,
          "duration": 0.023255813953483084
        },
        {
          "name": "C#5",
          "midi": 73,
          "time": 48.418604651160834,
          "velocity": 0.4094488188976378,
          "duration": 0.1395348837209056
        },
        {
          "name": "A#3",
          "midi": 58,
          "time": 48.430232558137575,
          "velocity": 0.4330708661417323,
          "duration": 0.12790697674416407
        },
        {
          "name": "C#4",
          "midi": 61,
          "time": 48.430232558137575,
          "velocity": 0.2992125984251969,
          "duration": 0.034883720930224626
        },
        {
          "name": "D6",
          "midi": 86,
          "time": 48.430232558137575,
          "velocity": 0.30708661417322836,
          "duration": 0.10465116279068098
        },
        {
          "name": "G1",
          "midi": 31,
          "time": 48.44186046511432,
          "velocity": 0.7716535433070866,
          "duration": 0.04651162790696617
        },
        {
          "name": "C#3",
          "midi": 49,
          "time": 48.45348837209106,
          "velocity": 0.33858267716535434,
          "duration": 0.034883720930224626
        },
        {
          "name": "G#4",
          "midi": 68,
          "time": 48.45348837209106,
          "velocity": 0.3937007874015748,
          "duration": 0.023255813953483084
        },
        {
          "name": "B5",
          "midi": 83,
          "time": 48.45348837209106,
          "velocity": 0.13385826771653545,
          "duration": 0.0813953488371979
        },
        {
          "name": "F6",
          "midi": 89,
          "time": 48.45348837209106,
          "velocity": 0.2125984251968504,
          "duration": 0.0813953488371979
        },
        {
          "name": "E7",
          "midi": 100,
          "time": 48.4651162790678,
          "velocity": 0.14960629921259844,
          "duration": 0.04651162790696617
        },
        {
          "name": "F#1",
          "midi": 30,
          "time": 48.48837209302128,
          "velocity": 0.6850393700787402,
          "duration": 0.058139534883714816
        },
        {
          "name": "F#3",
          "midi": 54,
          "time": 48.48837209302128,
          "velocity": 0.4566929133858268,
          "duration": 0.20930232558136197
        },
        {
          "name": "E6",
          "midi": 88,
          "time": 48.48837209302128,
          "velocity": 0.18110236220472442,
          "duration": 0.06976744186045636
        },
        {
          "name": "C#4",
          "midi": 61,
          "time": 48.499999999998025,
          "velocity": 0.4566929133858268,
          "duration": 0.058139534883714816
        },
        {
          "name": "F5",
          "midi": 77,
          "time": 48.499999999998025,
          "velocity": 0.2677165354330709,
          "duration": 0.046511627906973274
        },
        {
          "name": "G#4",
          "midi": 68,
          "time": 48.511627906974766,
          "velocity": 0.2755905511811024,
          "duration": 0.02325581395349019
        },
        {
          "name": "G#5",
          "midi": 80,
          "time": 48.534883720928256,
          "velocity": 0.28346456692913385,
          "duration": 0.17441860465113024
        },
        {
          "name": "F1",
          "midi": 29,
          "time": 48.546511627905,
          "velocity": 0.6220472440944882,
          "duration": 0.0813953488371908
        },
        {
          "name": "D#6",
          "midi": 87,
          "time": 48.546511627905,
          "velocity": 0.28346456692913385,
          "duration": 0.0813953488371908
        },
        {
          "name": "F6",
          "midi": 89,
          "time": 48.546511627905,
          "velocity": 0.2047244094488189,
          "duration": 0.11627906976742253
        },
        {
          "name": "F#6",
          "midi": 90,
          "time": 48.546511627905,
          "velocity": 0.2125984251968504,
          "duration": 0.034883720930224626
        },
        {
          "name": "B4",
          "midi": 71,
          "time": 48.55813953488174,
          "velocity": 0.11023622047244094,
          "duration": 0.034883720930224626
        },
        {
          "name": "F5",
          "midi": 77,
          "time": 48.55813953488174,
          "velocity": 0.30708661417322836,
          "duration": 0.29069767441855277
        },
        {
          "name": "C7",
          "midi": 96,
          "time": 48.55813953488174,
          "velocity": 0.11811023622047244,
          "duration": 0.04651162790696617
        },
        {
          "name": "C#4",
          "midi": 61,
          "time": 48.56976744185848,
          "velocity": 0.5196850393700787,
          "duration": 0.33720930232551893
        },
        {
          "name": "G#4",
          "midi": 68,
          "time": 48.56976744185848,
          "velocity": 0.4094488188976378,
          "duration": 0.06976744186044925
        },
        {
          "name": "F#4",
          "midi": 66,
          "time": 48.593023255811964,
          "velocity": 0.5826771653543307,
          "duration": 0.29069767441855277
        },
        {
          "name": "A#4",
          "midi": 70,
          "time": 48.604651162788706,
          "velocity": 0.4015748031496063,
          "duration": 0.06976744186045636
        },
        {
          "name": "C#3",
          "midi": 49,
          "time": 48.61627906976545,
          "velocity": 0.36220472440944884,
          "duration": 0.023255813953483084
        },
        {
          "name": "F#1",
          "midi": 30,
          "time": 48.62790697674219,
          "velocity": 0.6771653543307087,
          "duration": 0.37209302325575067
        },
        {
          "name": "E5",
          "midi": 76,
          "time": 48.62790697674219,
          "velocity": 0.1732283464566929,
          "duration": 0.058139534883714816
        },
        {
          "name": "B5",
          "midi": 83,
          "time": 48.66279069767242,
          "velocity": 0.3779527559055118,
          "duration": 0.034883720930224626
        },
        {
          "name": "F#6",
          "midi": 90,
          "time": 48.66279069767242,
          "velocity": 0.25984251968503935,
          "duration": 0.034883720930224626
        },
        {
          "name": "D#7",
          "midi": 99,
          "time": 48.66279069767242,
          "velocity": 0.14173228346456693,
          "duration": 0.04651162790696617
        },
        {
          "name": "A4",
          "midi": 69,
          "time": 48.67441860464916,
          "velocity": 0.4645669291338583,
          "duration": 0.023255813953483084
        },
        {
          "name": "B4",
          "midi": 71,
          "time": 48.67441860464916,
          "velocity": 0.4645669291338583,
          "duration": 0.023255813953483084
        },
        {
          "name": "E6",
          "midi": 88,
          "time": 48.67441860464916,
          "velocity": 0.29133858267716534,
          "duration": 0.06976744186044925
        },
        {
          "name": "C7",
          "midi": 96,
          "time": 48.67441860464916,
          "velocity": 0.18110236220472442,
          "duration": 0.034883720930224626
        },
        {
          "name": "C5",
          "midi": 72,
          "time": 48.697674418602645,
          "velocity": 0.47244094488188976,
          "duration": 0.023255813953483084
        },
        {
          "name": "A#3",
          "midi": 58,
          "time": 48.70930232557939,
          "velocity": 0.5196850393700787,
          "duration": 0.09302325581393234
        },
        {
          "name": "A4",
          "midi": 69,
          "time": 48.70930232557939,
          "velocity": 0.2992125984251969,
          "duration": 0.04651162790696617
        },
        {
          "name": "G#5",
          "midi": 80,
          "time": 48.72093023255613,
          "velocity": 0.2204724409448819,
          "duration": 0.1627906976743887
        },
        {
          "name": "G#6",
          "midi": 92,
          "time": 48.72093023255613,
          "velocity": 0.2755905511811024,
          "duration": 0.1627906976743887
        },
        {
          "name": "F7",
          "midi": 101,
          "time": 48.73255813953287,
          "velocity": 0.18110236220472442,
          "duration": 0.18604651162787178
        },
        {
          "name": "F#3",
          "midi": 54,
          "time": 48.75581395348635,
          "velocity": 0.4094488188976378,
          "duration": 0.12790697674416407
        },
        {
          "name": "E6",
          "midi": 88,
          "time": 48.767441860463094,
          "velocity": 0.25196850393700787,
          "duration": 0.06976744186045636
        },
        {
          "name": "A4",
          "midi": 69,
          "time": 48.779069767439836,
          "velocity": 0.41732283464566927,
          "duration": 0.0813953488371979
        },
        {
          "name": "C#3",
          "midi": 49,
          "time": 48.79069767441658,
          "velocity": 0.33858267716535434,
          "duration": 0.023255813953483084
        },
        {
          "name": "C6",
          "midi": 84,
          "time": 48.81395348837006,
          "velocity": 0.14173228346456693,
          "duration": 0.03488372093023173
        },
        {
          "name": "G#4",
          "midi": 68,
          "time": 48.872093023253775,
          "velocity": 0.33858267716535434,
          "duration": 0.023255813953483084
        },
        {
          "name": "E6",
          "midi": 88,
          "time": 48.872093023253775,
          "velocity": 0.28346456692913385,
          "duration": 0.04651162790696617
        },
        {
          "name": "F6",
          "midi": 89,
          "time": 48.872093023253775,
          "velocity": 0.3464566929133858,
          "duration": 0.18604651162787178
        },
        {
          "name": "F#7",
          "midi": 102,
          "time": 48.872093023253775,
          "velocity": 0.23622047244094488,
          "duration": 0.034883720930224626
        },
        {
          "name": "G7",
          "midi": 103,
          "time": 48.872093023253775,
          "velocity": 0.1732283464566929,
          "duration": 0.034883720930224626
        },
        {
          "name": "A5",
          "midi": 81,
          "time": 48.88372093023052,
          "velocity": 0.12598425196850394,
          "duration": 0.034883720930224626
        },
        {
          "name": "F#4",
          "midi": 66,
          "time": 48.89534883720726,
          "velocity": 0.1732283464566929,
          "duration": 0.0813953488371979
        },
        {
          "name": "C#3",
          "midi": 49,
          "time": 48.906976744184,
          "velocity": 0.2992125984251969,
          "duration": 0.023255813953483084
        },
        {
          "name": "A#4",
          "midi": 70,
          "time": 48.906976744184,
          "velocity": 0.4330708661417323,
          "duration": 0.1395348837209056
        },
        {
          "name": "G#5",
          "midi": 80,
          "time": 48.906976744184,
          "velocity": 0.11811023622047244,
          "duration": 0.034883720930224626
        },
        {
          "name": "F#3",
          "midi": 54,
          "time": 48.91860465116074,
          "velocity": 0.30708661417322836,
          "duration": 0.09302325581393944
        },
        {
          "name": "F5",
          "midi": 77,
          "time": 48.976744186044456,
          "velocity": 0.3228346456692913,
          "duration": 0.034883720930224626
        },
        {
          "name": "G5",
          "midi": 79,
          "time": 48.976744186044456,
          "velocity": 0.3858267716535433,
          "duration": 0.05813953488370771
        },
        {
          "name": "A5",
          "midi": 81,
          "time": 48.976744186044456,
          "velocity": 0.28346456692913385,
          "duration": 0.023255813953483084
        },
        {
          "name": "B5",
          "midi": 83,
          "time": 48.976744186044456,
          "velocity": 0.33858267716535434,
          "duration": 0.034883720930224626
        },
        {
          "name": "D6",
          "midi": 86,
          "time": 48.976744186044456,
          "velocity": 0.33070866141732286,
          "duration": 0.0813953488371908
        },
        {
          "name": "G#6",
          "midi": 92,
          "time": 48.976744186044456,
          "velocity": 0.3937007874015748,
          "duration": 0.023255813953483084
        },
        {
          "name": "A#6",
          "midi": 94,
          "time": 48.976744186044456,
          "velocity": 0.3858267716535433,
          "duration": 0.09302325581393234
        },
        {
          "name": "B3",
          "midi": 59,
          "time": 48.9883720930212,
          "velocity": 0.13385826771653545,
          "duration": 0.034883720930224626
        },
        {
          "name": "C6",
          "midi": 84,
          "time": 48.9883720930212,
          "velocity": 0.3937007874015748,
          "duration": 0.05813953488370771
        },
        {
          "name": "E6",
          "midi": 88,
          "time": 48.9883720930212,
          "velocity": 0.23622047244094488,
          "duration": 0.05813953488370771
        },
        {
          "name": "F#6",
          "midi": 90,
          "time": 48.9883720930212,
          "velocity": 0.31496062992125984,
          "duration": 0.06976744186044925
        },
        {
          "name": "D#7",
          "midi": 99,
          "time": 48.9883720930212,
          "velocity": 0.2992125984251969,
          "duration": 0.11627906976741542
        },
        {
          "name": "F#7",
          "midi": 102,
          "time": 48.9883720930212,
          "velocity": 0.3464566929133858,
          "duration": 0.11627906976741542
        },
        {
          "name": "G1",
          "midi": 31,
          "time": 48.99999999999794,
          "velocity": 0.5511811023622047,
          "duration": 0.023255813953483084
        },
        {
          "name": "E5",
          "midi": 76,
          "time": 48.99999999999794,
          "velocity": 0.2677165354330709,
          "duration": 0.023255813953483084
        },
        {
          "name": "G#5",
          "midi": 80,
          "time": 48.99999999999794,
          "velocity": 0.3858267716535433,
          "duration": 0.023255813953483084
        },
        {
          "name": "D#6",
          "midi": 87,
          "time": 48.99999999999794,
          "velocity": 0.2283464566929134,
          "duration": 0.034883720930224626
        },
        {
          "name": "A6",
          "midi": 93,
          "time": 48.99999999999794,
          "velocity": 0.36220472440944884,
          "duration": 0.023255813953483084
        },
        {
          "name": "E7",
          "midi": 100,
          "time": 48.99999999999794,
          "velocity": 0.36220472440944884,
          "duration": 0.10465116279067388
        },
        {
          "name": "C#5",
          "midi": 73,
          "time": 49.01162790697468,
          "velocity": 0.4409448818897638,
          "duration": 0.19767441860462043
        },
        {
          "name": "D#5",
          "midi": 75,
          "time": 49.01162790697468,
          "velocity": 0.29133858267716534,
          "duration": 0.023255813953483084
        },
        {
          "name": "F5",
          "midi": 77,
          "time": 49.02325581395142,
          "velocity": 0.25984251968503935,
          "duration": 0.034883720930224626
        },
        {
          "name": "G#5",
          "midi": 80,
          "time": 49.034883720928164,
          "velocity": 0.33070866141732286,
          "duration": 0.034883720930224626
        },
        {
          "name": "A6",
          "midi": 93,
          "time": 49.034883720928164,
          "velocity": 0.33858267716535434,
          "duration": 0.034883720930224626
        },
        {
          "name": "A5",
          "midi": 81,
          "time": 49.046511627904906,
          "velocity": 0.2440944881889764,
          "duration": 0.13953488372091272
        },
        {
          "name": "B5",
          "midi": 83,
          "time": 49.046511627904906,
          "velocity": 0.2047244094488189,
          "duration": 0.04651162790696617
        },
        {
          "name": "D#6",
          "midi": 87,
          "time": 49.046511627904906,
          "velocity": 0.11811023622047244,
          "duration": 0.04651162790696617
        },
        {
          "name": "G6",
          "midi": 91,
          "time": 49.046511627904906,
          "velocity": 0.25196850393700787,
          "duration": 0.023255813953483084
        },
        {
          "name": "E5",
          "midi": 76,
          "time": 49.05813953488165,
          "velocity": 0.10236220472440945,
          "duration": 0.034883720930224626
        },
        {
          "name": "C7",
          "midi": 96,
          "time": 49.05813953488165,
          "velocity": 0.12598425196850394,
          "duration": 0.04651162790696617
        },
        {
          "name": "A#4",
          "midi": 70,
          "time": 49.08139534883513,
          "velocity": 0.4409448818897638,
          "duration": 0.04651162790696617
        },
        {
          "name": "F#6",
          "midi": 90,
          "time": 49.08139534883513,
          "velocity": 0.28346456692913385,
          "duration": 0.0813953488371979
        },
        {
          "name": "D7",
          "midi": 98,
          "time": 49.10465116278861,
          "velocity": 0.15748031496062992,
          "duration": 0.034883720930224626
        },
        {
          "name": "D6",
          "midi": 86,
          "time": 49.116279069765355,
          "velocity": 0.13385826771653545,
          "duration": 0.06976744186046346
        },
        {
          "name": "B4",
          "midi": 71,
          "time": 49.127906976742096,
          "velocity": 0.4409448818897638,
          "duration": 0.20930232558136908
        },
        {
          "name": "F7",
          "midi": 101,
          "time": 49.127906976742096,
          "velocity": 0.12598425196850394,
          "duration": 0.10465116279068809
        },
        {
          "name": "A#5",
          "midi": 82,
          "time": 49.18604651162582,
          "velocity": 0.14960629921259844,
          "duration": 0.04651162790696617
        },
        {
          "name": "C#4",
          "midi": 61,
          "time": 49.19767441860256,
          "velocity": 0.13385826771653545,
          "duration": 0.034883720930224626
        },
        {
          "name": "E5",
          "midi": 76,
          "time": 49.19767441860256,
          "velocity": 0.14960629921259844,
          "duration": 0.034883720930224626
        },
        {
          "name": "F#6",
          "midi": 90,
          "time": 49.19767441860256,
          "velocity": 0.29133858267716534,
          "duration": 0.05813953488370771
        },
        {
          "name": "A6",
          "midi": 93,
          "time": 49.19767441860256,
          "velocity": 0.2125984251968504,
          "duration": 0.05813953488370771
        },
        {
          "name": "F5",
          "midi": 77,
          "time": 49.2093023255793,
          "velocity": 0.10236220472440945,
          "duration": 0.04651162790696617
        },
        {
          "name": "D#7",
          "midi": 99,
          "time": 49.2093023255793,
          "velocity": 0.14960629921259844,
          "duration": 0.034883720930224626
        },
        {
          "name": "F#4",
          "midi": 66,
          "time": 49.22093023255604,
          "velocity": 0.5196850393700787,
          "duration": 0.25581395348832814
        },
        {
          "name": "C#5",
          "midi": 73,
          "time": 49.22093023255604,
          "velocity": 0.41732283464566927,
          "duration": 0.023255813953483084
        },
        {
          "name": "D5",
          "midi": 74,
          "time": 49.232558139532784,
          "velocity": 0.4015748031496063,
          "duration": 0.034883720930224626
        },
        {
          "name": "C#4",
          "midi": 61,
          "time": 49.244186046509526,
          "velocity": 0.15748031496062992,
          "duration": 0.034883720930224626
        },
        {
          "name": "A#6",
          "midi": 94,
          "time": 49.25581395348627,
          "velocity": 0.28346456692913385,
          "duration": 0.09302325581393944
        },
        {
          "name": "D#5",
          "midi": 75,
          "time": 49.26744186046301,
          "velocity": 0.44881889763779526,
          "duration": 0.06976744186045636
        },
        {
          "name": "G7",
          "midi": 103,
          "time": 49.26744186046301,
          "velocity": 0.13385826771653545,
          "duration": 0.06976744186045636
        },
        {
          "name": "C#5",
          "midi": 73,
          "time": 49.29069767441649,
          "velocity": 0.2677165354330709,
          "duration": 0.03488372093023173
        },
        {
          "name": "F6",
          "midi": 89,
          "time": 49.31395348836998,
          "velocity": 0.25984251968503935,
          "duration": 0.034883720930224626
        },
        {
          "name": "G#5",
          "midi": 80,
          "time": 49.325581395346724,
          "velocity": 0.3543307086614173,
          "duration": 0.12790697674416407
        },
        {
          "name": "A#5",
          "midi": 82,
          "time": 49.325581395346724,
          "velocity": 0.2125984251968504,
          "duration": 0.034883720930224626
        },
        {
          "name": "E6",
          "midi": 88,
          "time": 49.325581395346724,
          "velocity": 0.4015748031496063,
          "duration": 0.05813953488370771
        },
        {
          "name": "C#4",
          "midi": 61,
          "time": 49.337209302323465,
          "velocity": 0.4251968503937008,
          "duration": 0.06976744186044925
        },
        {
          "name": "C5",
          "midi": 72,
          "time": 49.337209302323465,
          "velocity": 0.4094488188976378,
          "duration": 0.034883720930224626
        },
        {
          "name": "E5",
          "midi": 76,
          "time": 49.337209302323465,
          "velocity": 0.47244094488188976,
          "duration": 0.04651162790696617
        },
        {
          "name": "G6",
          "midi": 91,
          "time": 49.337209302323465,
          "velocity": 0.28346456692913385,
          "duration": 0.023255813953483084
        },
        {
          "name": "B6",
          "midi": 95,
          "time": 49.34883720930021,
          "velocity": 0.2283464566929134,
          "duration": 0.023255813953483084
        },
        {
          "name": "D6",
          "midi": 86,
          "time": 49.36046511627695,
          "velocity": 0.2204724409448819,
          "duration": 0.10465116279068098
        },
        {
          "name": "C7",
          "midi": 96,
          "time": 49.37209302325369,
          "velocity": 0.2755905511811024,
          "duration": 0.17441860465113734
        },
        {
          "name": "C5",
          "midi": 72,
          "time": 49.38372093023043,
          "velocity": 0.2992125984251969,
          "duration": 0.023255813953483084
        },
        {
          "name": "F5",
          "midi": 77,
          "time": 49.38372093023043,
          "velocity": 0.48031496062992124,
          "duration": 0.29069767441855987
        },
        {
          "name": "A#3",
          "midi": 58,
          "time": 49.39534883720717,
          "velocity": 0.3543307086614173,
          "duration": 0.10465116279068098
        },
        {
          "name": "C5",
          "midi": 72,
          "time": 49.418604651160656,
          "velocity": 0.44881889763779526,
          "duration": 0.0813953488371979
        },
        {
          "name": "D#5",
          "midi": 75,
          "time": 49.418604651160656,
          "velocity": 0.14173228346456693,
          "duration": 0.06976744186045636
        },
        {
          "name": "G6",
          "midi": 91,
          "time": 49.418604651160656,
          "velocity": 0.25984251968503935,
          "duration": 0.06976744186045636
        },
        {
          "name": "E7",
          "midi": 100,
          "time": 49.4302325581374,
          "velocity": 0.15748031496062992,
          "duration": 0.03488372093023173
        },
        {
          "name": "A4",
          "midi": 69,
          "time": 49.45348837209089,
          "velocity": 0.08661417322834646,
          "duration": 0.04651162790696617
        },
        {
          "name": "D#6",
          "midi": 87,
          "time": 49.46511627906763,
          "velocity": 0.25196850393700787,
          "duration": 0.06976744186045636
        },
        {
          "name": "G5",
          "midi": 79,
          "time": 49.48837209302111,
          "velocity": 0.16535433070866143,
          "duration": 0.046511627906973274
        },
        {
          "name": "F#4",
          "midi": 66,
          "time": 49.499999999997854,
          "velocity": 0.18110236220472442,
          "duration": 0.058139534883714816
        },
        {
          "name": "C#5",
          "midi": 73,
          "time": 49.499999999997854,
          "velocity": 0.23622047244094488,
          "duration": 0.02325581395349019
        },
        {
          "name": "D6",
          "midi": 86,
          "time": 49.523255813951344,
          "velocity": 0.25196850393700787,
          "duration": 0.04651162790696617
        },
        {
          "name": "C#5",
          "midi": 73,
          "time": 49.534883720928086,
          "velocity": 0.4409448818897638,
          "duration": 0.034883720930224626
        },
        {
          "name": "G6",
          "midi": 91,
          "time": 49.534883720928086,
          "velocity": 0.2204724409448819,
          "duration": 0.04651162790696617
        },
        {
          "name": "E7",
          "midi": 100,
          "time": 49.534883720928086,
          "velocity": 0.2125984251968504,
          "duration": 0.034883720930224626
        },
        {
          "name": "A#3",
          "midi": 58,
          "time": 49.54651162790483,
          "velocity": 0.5354330708661418,
          "duration": 0.12790697674416407
        },
        {
          "name": "D#6",
          "midi": 87,
          "time": 49.54651162790483,
          "velocity": 0.1732283464566929,
          "duration": 0.034883720930224626
        },
        {
          "name": "E6",
          "midi": 88,
          "time": 49.56976744185831,
          "velocity": 0.2125984251968504,
          "duration": 0.1395348837209056
        },
        {
          "name": "C#5",
          "midi": 73,
          "time": 49.58139534883505,
          "velocity": 0.30708661417322836,
          "duration": 0.058139534883714816
        },
        {
          "name": "D#6",
          "midi": 87,
          "time": 49.616279069765284,
          "velocity": 0.2283464566929134,
          "duration": 0.25581395348832103
        },
        {
          "name": "D4",
          "midi": 62,
          "time": 49.627906976742025,
          "velocity": 0.4330708661417323,
          "duration": 0.04651162790696617
        },
        {
          "name": "E3",
          "midi": 52,
          "time": 49.63953488371877,
          "velocity": 0.5590551181102362,
          "duration": 0.011627906976741542
        },
        {
          "name": "A5",
          "midi": 81,
          "time": 49.63953488371877,
          "velocity": 0.1889763779527559,
          "duration": 0.034883720930224626
        },
        {
          "name": "B5",
          "midi": 83,
          "time": 49.63953488371877,
          "velocity": 0.2047244094488189,
          "duration": 0.05813953488370771
        },
        {
          "name": "F#6",
          "midi": 90,
          "time": 49.63953488371877,
          "velocity": 0.23622047244094488,
          "duration": 0.18604651162787178
        },
        {
          "name": "D3",
          "midi": 50,
          "time": 49.65116279069551,
          "velocity": 0.6771653543307087,
          "duration": 0.023255813953483084
        },
        {
          "name": "G#4",
          "midi": 68,
          "time": 49.65116279069551,
          "velocity": 0.33858267716535434,
          "duration": 0.3255813953487703
        },
        {
          "name": "G#6",
          "midi": 92,
          "time": 49.65116279069551,
          "velocity": 0.2677165354330709,
          "duration": 0.10465116279067388
        },
        {
          "name": "F7",
          "midi": 101,
          "time": 49.65116279069551,
          "velocity": 0.18110236220472442,
          "duration": 0.15116279069764005
        },
        {
          "name": "F2",
          "midi": 41,
          "time": 49.66279069767225,
          "velocity": 0.7007874015748031,
          "duration": 0.011627906976741542
        },
        {
          "name": "C#5",
          "midi": 73,
          "time": 49.66279069767225,
          "velocity": 0.3779527559055118,
          "duration": 0.09302325581393234
        },
        {
          "name": "A#6",
          "midi": 94,
          "time": 49.66279069767225,
          "velocity": 0.16535433070866143,
          "duration": 0.05813953488370771
        },
        {
          "name": "D2",
          "midi": 38,
          "time": 49.67441860464899,
          "velocity": 0.7401574803149606,
          "duration": 0.011627906976741542
        },
        {
          "name": "C#4",
          "midi": 61,
          "time": 49.67441860464899,
          "velocity": 0.4409448818897638,
          "duration": 0.47674418604642455
        },
        {
          "name": "F4",
          "midi": 65,
          "time": 49.67441860464899,
          "velocity": 0.2677165354330709,
          "duration": 0.15116279069764715
        },
        {
          "name": "E5",
          "midi": 76,
          "time": 49.67441860464899,
          "velocity": 0.3228346456692913,
          "duration": 0.023255813953483084
        },
        {
          "name": "A6",
          "midi": 93,
          "time": 49.67441860464899,
          "velocity": 0.29133858267716534,
          "duration": 0.2441860465115795
        },
        {
          "name": "C#2",
          "midi": 37,
          "time": 49.68604651162573,
          "velocity": 0.7716535433070866,
          "duration": 0.011627906976741542
        },
        {
          "name": "G6",
          "midi": 91,
          "time": 49.68604651162573,
          "velocity": 0.14960629921259844,
          "duration": 0.18604651162787178
        },
        {
          "name": "B1",
          "midi": 35,
          "time": 49.697674418602475,
          "velocity": 0.7637795275590551,
          "duration": 0.011627906976741542
        },
        {
          "name": "A#1",
          "midi": 34,
          "time": 49.709302325579216,
          "velocity": 0.7480314960629921,
          "duration": 0.011627906976741542
        },
        {
          "name": "D#5",
          "midi": 75,
          "time": 49.709302325579216,
          "velocity": 0.14960629921259844,
          "duration": 0.034883720930224626
        },
        {
          "name": "F6",
          "midi": 89,
          "time": 49.709302325579216,
          "velocity": 0.3937007874015748,
          "duration": 0.17441860465113024
        },
        {
          "name": "A1",
          "midi": 33,
          "time": 49.72093023255596,
          "velocity": 0.7165354330708661,
          "duration": 0.023255813953483084
        },
        {
          "name": "E3",
          "midi": 52,
          "time": 49.72093023255596,
          "velocity": 0.4015748031496063,
          "duration": 0.023255813953483084
        },
        {
          "name": "F5",
          "midi": 77,
          "time": 49.72093023255596,
          "velocity": 0.41732283464566927,
          "duration": 0.25581395348832103
        },
        {
          "name": "A#5",
          "midi": 82,
          "time": 49.72093023255596,
          "velocity": 0.1889763779527559,
          "duration": 0.1395348837209056
        },
        {
          "name": "E6",
          "midi": 88,
          "time": 49.72093023255596,
          "velocity": 0.13385826771653545,
          "duration": 0.034883720930224626
        },
        {
          "name": "B6",
          "midi": 95,
          "time": 49.72093023255596,
          "velocity": 0.1732283464566929,
          "duration": 0.10465116279068098
        },
        {
          "name": "C7",
          "midi": 96,
          "time": 49.7325581395327,
          "velocity": 0.1732283464566929,
          "duration": 0.05813953488370771
        },
        {
          "name": "G#1",
          "midi": 32,
          "time": 49.74418604650944,
          "velocity": 0.6692913385826772,
          "duration": 0.011627906976741542
        },
        {
          "name": "G1",
          "midi": 31,
          "time": 49.75581395348618,
          "velocity": 0.7637795275590551,
          "duration": 0.15116279069764715
        },
        {
          "name": "G#2",
          "midi": 44,
          "time": 49.75581395348618,
          "velocity": 0.47244094488188976,
          "duration": 0.0813953488371979
        },
        {
          "name": "C5",
          "midi": 72,
          "time": 49.75581395348618,
          "velocity": 0.2755905511811024,
          "duration": 0.023255813953483084
        },
        {
          "name": "D5",
          "midi": 74,
          "time": 49.75581395348618,
          "velocity": 0.3937007874015748,
          "duration": 0.023255813953483084
        },
        {
          "name": "C6",
          "midi": 84,
          "time": 49.75581395348618,
          "velocity": 0.3464566929133858,
          "duration": 0.20930232558135486
        },
        {
          "name": "E6",
          "midi": 88,
          "time": 49.767441860462924,
          "velocity": 0.3228346456692913,
          "duration": 0.19767441860461332
        },
        {
          "name": "G#3",
          "midi": 56,
          "time": 49.779069767439665,
          "velocity": 0.47244094488188976,
          "duration": 0.058139534883714816
        },
        {
          "name": "C5",
          "midi": 72,
          "time": 49.80232558139315,
          "velocity": 0.3228346456692913,
          "duration": 0.15116279069764715
        },
        {
          "name": "D5",
          "midi": 74,
          "time": 49.80232558139315,
          "velocity": 0.30708661417322836,
          "duration": 0.03488372093023173
        },
        {
          "name": "D#5",
          "midi": 75,
          "time": 49.80232558139315,
          "velocity": 0.2204724409448819,
          "duration": 0.058139534883714816
        },
        {
          "name": "A5",
          "midi": 81,
          "time": 49.83720930232338,
          "velocity": 0.16535433070866143,
          "duration": 0.09302325581393234
        },
        {
          "name": "G#3",
          "midi": 56,
          "time": 49.84883720930012,
          "velocity": 0.4881889763779528,
          "duration": 0.3023255813952943
        },
        {
          "name": "F4",
          "midi": 65,
          "time": 49.84883720930012,
          "velocity": 0.2440944881889764,
          "duration": 0.034883720930224626
        },
        {
          "name": "D5",
          "midi": 74,
          "time": 49.86046511627686,
          "velocity": 0.41732283464566927,
          "duration": 0.10465116279067388
        },
        {
          "name": "F#6",
          "midi": 90,
          "time": 49.86046511627686,
          "velocity": 0.16535433070866143,
          "duration": 0.06976744186044925
        },
        {
          "name": "D#3",
          "midi": 51,
          "time": 49.883720930230346,
          "velocity": 0.4015748031496063,
          "duration": 0.023255813953483084
        },
        {
          "name": "F4",
          "midi": 65,
          "time": 49.89534883720709,
          "velocity": 0.2677165354330709,
          "duration": 0.06976744186044925
        },
        {
          "name": "G#1",
          "midi": 32,
          "time": 49.90697674418383,
          "velocity": 0.7244094488188977,
          "duration": 0.034883720930224626
        },
        {
          "name": "D#6",
          "midi": 87,
          "time": 49.91860465116057,
          "velocity": 0.14173228346456693,
          "duration": 0.034883720930224626
        },
        {
          "name": "A1",
          "midi": 33,
          "time": 49.941860465114054,
          "velocity": 0.6771653543307087,
          "duration": 0.011627906976741542
        },
        {
          "name": "D#3",
          "midi": 51,
          "time": 49.941860465114054,
          "velocity": 0.3858267716535433,
          "duration": 0.04651162790696617
        },
        {
          "name": "G#1",
          "midi": 32,
          "time": 49.953488372090796,
          "velocity": 0.6850393700787402,
          "duration": 0.3488372093022605
        },
        {
          "name": "A4",
          "midi": 69,
          "time": 49.96511627906754,
          "velocity": 0.3700787401574803,
          "duration": 0.023255813953483084
        },
        {
          "name": "D#5",
          "midi": 75,
          "time": 49.96511627906754,
          "velocity": 0.3937007874015748,
          "duration": 0.023255813953483084
        },
        {
          "name": "G5",
          "midi": 79,
          "time": 49.96511627906754,
          "velocity": 0.12598425196850394,
          "duration": 0.034883720930224626
        },
        {
          "name": "F#6",
          "midi": 90,
          "time": 49.96511627906754,
          "velocity": 0.16535433070866143,
          "duration": 0.10465116279067388
        },
        {
          "name": "A6",
          "midi": 93,
          "time": 49.96511627906754,
          "velocity": 0.25196850393700787,
          "duration": 0.034883720930224626
        },
        {
          "name": "A#6",
          "midi": 94,
          "time": 49.96511627906754,
          "velocity": 0.2677165354330709,
          "duration": 0.023255813953483084
        },
        {
          "name": "B6",
          "midi": 95,
          "time": 49.96511627906754,
          "velocity": 0.25196850393700787,
          "duration": 0.06976744186044925
        },
        {
          "name": "C6",
          "midi": 84,
          "time": 49.97674418604428,
          "velocity": 0.18110236220472442,
          "duration": 0.06976744186044925
        },
        {
          "name": "C#7",
          "midi": 97,
          "time": 49.97674418604428,
          "velocity": 0.2677165354330709,
          "duration": 0.3488372093022605
        },
        {
          "name": "G#4",
          "midi": 68,
          "time": 49.98837209302102,
          "velocity": 0.5433070866141733,
          "duration": 0.19767441860462043
        },
        {
          "name": "E5",
          "midi": 76,
          "time": 49.98837209302102,
          "velocity": 0.4645669291338583,
          "duration": 0.04651162790696617
        },
        {
          "name": "F4",
          "midi": 65,
          "time": 49.99999999999776,
          "velocity": 0.3858267716535433,
          "duration": 0.17441860465113734
        },
        {
          "name": "A#6",
          "midi": 94,
          "time": 49.99999999999776,
          "velocity": 0.2047244094488189,
          "duration": 0.034883720930224626
        },
        {
          "name": "C#6",
          "midi": 85,
          "time": 50.0116279069745,
          "velocity": 0.2677165354330709,
          "duration": 0.17441860465113734
        },
        {
          "name": "F6",
          "midi": 89,
          "time": 50.0116279069745,
          "velocity": 0.44881889763779526,
          "duration": 0.18604651162787889
        },
        {
          "name": "D#3",
          "midi": 51,
          "time": 50.023255813951245,
          "velocity": 0.36220472440944884,
          "duration": 0.023255813953483084
        },
        {
          "name": "D#5",
          "midi": 75,
          "time": 50.034883720927986,
          "velocity": 0.1968503937007874,
          "duration": 0.034883720930224626
        },
        {
          "name": "F5",
          "midi": 77,
          "time": 50.034883720927986,
          "velocity": 0.49606299212598426,
          "duration": 0.19767441860462043
        },
        {
          "name": "C7",
          "midi": 96,
          "time": 50.034883720927986,
          "velocity": 0.25984251968503935,
          "duration": 0.18604651162787889
        },
        {
          "name": "B5",
          "midi": 83,
          "time": 50.04651162790473,
          "velocity": 0.09448818897637795,
          "duration": 0.058139534883714816
        },
        {
          "name": "C6",
          "midi": 84,
          "time": 50.05813953488147,
          "velocity": 0.2125984251968504,
          "duration": 0.058139534883714816
        },
        {
          "name": "D#3",
          "midi": 51,
          "time": 50.08139534883495,
          "velocity": 0.33858267716535434,
          "duration": 0.046511627906973274
        },
        {
          "name": "D#5",
          "midi": 75,
          "time": 50.08139534883495,
          "velocity": 0.44881889763779526,
          "duration": 0.10465116279068809
        },
        {
          "name": "E6",
          "midi": 88,
          "time": 50.08139534883495,
          "velocity": 0.14173228346456693,
          "duration": 0.03488372093023173
        },
        {
          "name": "F#6",
          "midi": 90,
          "time": 50.08139534883495,
          "velocity": 0.3700787401574803,
          "duration": 0.3023255813953014
        },
        {
          "name": "A#6",
          "midi": 94,
          "time": 50.08139534883495,
          "velocity": 0.2755905511811024,
          "duration": 0.046511627906973274
        },
        {
          "name": "A#5",
          "midi": 82,
          "time": 50.10465116278844,
          "velocity": 0.13385826771653545,
          "duration": 0.09302325581393944
        },
        {
          "name": "C#5",
          "midi": 73,
          "time": 50.151162790695416,
          "velocity": 0.13385826771653545,
          "duration": 0.034883720930224626
        },
        {
          "name": "G#3",
          "midi": 56,
          "time": 50.16279069767216,
          "velocity": 0.3543307086614173,
          "duration": 0.023255813953483084
        },
        {
          "name": "G6",
          "midi": 91,
          "time": 50.16279069767216,
          "velocity": 0.10236220472440945,
          "duration": 0.04651162790696617
        },
        {
          "name": "A6",
          "midi": 93,
          "time": 50.1744186046489,
          "velocity": 0.2283464566929134,
          "duration": 0.05813953488370771
        },
        {
          "name": "F4",
          "midi": 65,
          "time": 50.18604651162564,
          "velocity": 0.48031496062992124,
          "duration": 0.27906976744181833
        },
        {
          "name": "E5",
          "midi": 76,
          "time": 50.18604651162564,
          "velocity": 0.4251968503937008,
          "duration": 0.034883720930224626
        },
        {
          "name": "C6",
          "midi": 84,
          "time": 50.18604651162564,
          "velocity": 0.3543307086614173,
          "duration": 0.0813953488371908
        },
        {
          "name": "B6",
          "midi": 95,
          "time": 50.18604651162564,
          "velocity": 0.2992125984251969,
          "duration": 0.04651162790696617
        },
        {
          "name": "D#3",
          "midi": 51,
          "time": 50.19767441860238,
          "velocity": 0.31496062992125984,
          "duration": 0.10465116279067388
        },
        {
          "name": "G#3",
          "midi": 56,
          "time": 50.19767441860238,
          "velocity": 0.31496062992125984,
          "duration": 0.04651162790696617
        },
        {
          "name": "A5",
          "midi": 81,
          "time": 50.19767441860238,
          "velocity": 0.10236220472440945,
          "duration": 0.034883720930224626
        },
        {
          "name": "C#4",
          "midi": 61,
          "time": 50.209302325579124,
          "velocity": 0.2677165354330709,
          "duration": 0.04651162790696617
        },
        {
          "name": "G6",
          "midi": 91,
          "time": 50.220930232555865,
          "velocity": 0.3937007874015748,
          "duration": 0.10465116279067388
        },
        {
          "name": "E5",
          "midi": 76,
          "time": 50.23255813953261,
          "velocity": 0.33070866141732286,
          "duration": 0.05813953488370771
        },
        {
          "name": "C#6",
          "midi": 85,
          "time": 50.23255813953261,
          "velocity": 0.3228346456692913,
          "duration": 0.0813953488371908
        },
        {
          "name": "G#3",
          "midi": 56,
          "time": 50.25581395348609,
          "velocity": 0.25984251968503935,
          "duration": 0.023255813953483084
        },
        {
          "name": "B4",
          "midi": 71,
          "time": 50.26744186046283,
          "velocity": 0.23622047244094488,
          "duration": 0.034883720930224626
        },
        {
          "name": "G#6",
          "midi": 92,
          "time": 50.26744186046283,
          "velocity": 0.4330708661417323,
          "duration": 0.05813953488370771
        },
        {
          "name": "G5",
          "midi": 79,
          "time": 50.27906976743957,
          "velocity": 0.33070866141732286,
          "duration": 0.04651162790696617
        },
        {
          "name": "A#5",
          "midi": 82,
          "time": 50.27906976743957,
          "velocity": 0.29133858267716534,
          "duration": 0.06976744186044925
        },
        {
          "name": "C#4",
          "midi": 61,
          "time": 50.290697674416315,
          "velocity": 0.44881889763779526,
          "duration": 0.13953488372091272
        },
        {
          "name": "B5",
          "midi": 83,
          "time": 50.290697674416315,
          "velocity": 0.2992125984251969,
          "duration": 0.034883720930224626
        },
        {
          "name": "C7",
          "midi": 96,
          "time": 50.290697674416315,
          "velocity": 0.33858267716535434,
          "duration": 0.27906976744181833
        },
        {
          "name": "D7",
          "midi": 98,
          "time": 50.290697674416315,
          "velocity": 0.3228346456692913,
          "duration": 0.10465116279068098
        },
        {
          "name": "A1",
          "midi": 33,
          "time": 50.302325581393056,
          "velocity": 0.5905511811023622,
          "duration": 0.011627906976741542
        },
        {
          "name": "A#4",
          "midi": 70,
          "time": 50.302325581393056,
          "velocity": 0.25984251968503935,
          "duration": 0.10465116279068098
        },
        {
          "name": "D5",
          "midi": 74,
          "time": 50.302325581393056,
          "velocity": 0.41732283464566927,
          "duration": 0.023255813953483084
        },
        {
          "name": "D#6",
          "midi": 87,
          "time": 50.302325581393056,
          "velocity": 0.3543307086614173,
          "duration": 0.023255813953483084
        },
        {
          "name": "A#1",
          "midi": 34,
          "time": 50.3139534883698,
          "velocity": 0.5275590551181102,
          "duration": 0.011627906976741542
        },
        {
          "name": "G#4",
          "midi": 68,
          "time": 50.3139534883698,
          "velocity": 0.29133858267716534,
          "duration": 0.023255813953483084
        },
        {
          "name": "E5",
          "midi": 76,
          "time": 50.3139534883698,
          "velocity": 0.3779527559055118,
          "duration": 0.034883720930224626
        },
        {
          "name": "G#5",
          "midi": 80,
          "time": 50.3139534883698,
          "velocity": 0.3779527559055118,
          "duration": 0.023255813953483084
        },
        {
          "name": "C6",
          "midi": 84,
          "time": 50.3139534883698,
          "velocity": 0.3543307086614173,
          "duration": 0.034883720930224626
        },
        {
          "name": "A6",
          "midi": 93,
          "time": 50.3139534883698,
          "velocity": 0.33858267716535434,
          "duration": 0.06976744186045636
        },
        {
          "name": "C#6",
          "midi": 85,
          "time": 50.32558139534654,
          "velocity": 0.3937007874015748,
          "duration": 0.0813953488371979
        },
        {
          "name": "G5",
          "midi": 79,
          "time": 50.33720930232328,
          "velocity": 0.33070866141732286,
          "duration": 0.06976744186045636
        },
        {
          "name": "B5",
          "midi": 83,
          "time": 50.33720930232328,
          "velocity": 0.2283464566929134,
          "duration": 0.03488372093023173
        },
        {
          "name": "D#6",
          "midi": 87,
          "time": 50.33720930232328,
          "velocity": 0.25196850393700787,
          "duration": 0.058139534883714816
        },
        {
          "name": "G6",
          "midi": 91,
          "time": 50.33720930232328,
          "velocity": 0.4015748031496063,
          "duration": 0.3023255813953085
        },
        {
          "name": "F5",
          "midi": 77,
          "time": 50.34883720930002,
          "velocity": 0.5433070866141733,
          "duration": 0.23255813953485216
        },
        {
          "name": "G#5",
          "midi": 80,
          "time": 50.34883720930002,
          "velocity": 0.2204724409448819,
          "duration": 0.081395348837205
        },
        {
          "name": "B6",
          "midi": 95,
          "time": 50.37209302325351,
          "velocity": 0.2283464566929134,
          "duration": 0.058139534883714816
        },
        {
          "name": "A#6",
          "midi": 94,
          "time": 50.395348837206996,
          "velocity": 0.12598425196850394,
          "duration": 0.03488372093023173
        },
        {
          "name": "G#4",
          "midi": 68,
          "time": 50.40697674418374,
          "velocity": 0.23622047244094488,
          "duration": 0.081395348837205
        },
        {
          "name": "D4",
          "midi": 62,
          "time": 50.43023255813723,
          "velocity": 0.13385826771653545,
          "duration": 0.058139534883714816
        },
        {
          "name": "C#6",
          "midi": 85,
          "time": 50.43023255813723,
          "velocity": 0.23622047244094488,
          "duration": 0.19767441860462043
        },
        {
          "name": "G#6",
          "midi": 92,
          "time": 50.45348837209072,
          "velocity": 0.36220472440944884,
          "duration": 0.6627906976742892
        },
        {
          "name": "D#5",
          "midi": 75,
          "time": 50.46511627906746,
          "velocity": 0.11023622047244094,
          "duration": 0.034883720930224626
        },
        {
          "name": "A5",
          "midi": 81,
          "time": 50.4767441860442,
          "velocity": 0.16535433070866143,
          "duration": 0.06976744186044925
        },
        {
          "name": "G#5",
          "midi": 80,
          "time": 50.48837209302094,
          "velocity": 0.1732283464566929,
          "duration": 0.04651162790696617
        },
        {
          "name": "A#6",
          "midi": 94,
          "time": 50.48837209302094,
          "velocity": 0.2755905511811024,
          "duration": 0.04651162790696617
        },
        {
          "name": "C#7",
          "midi": 97,
          "time": 50.48837209302094,
          "velocity": 0.33858267716535434,
          "duration": 0.4302325581394584
        },
        {
          "name": "C6",
          "midi": 84,
          "time": 50.499999999997684,
          "velocity": 0.1889763779527559,
          "duration": 0.04651162790696617
        },
        {
          "name": "E6",
          "midi": 88,
          "time": 50.511627906974425,
          "velocity": 0.3543307086614173,
          "duration": 0.023255813953483084
        },
        {
          "name": "A6",
          "midi": 93,
          "time": 50.511627906974425,
          "velocity": 0.1889763779527559,
          "duration": 0.05813953488370771
        },
        {
          "name": "B6",
          "midi": 95,
          "time": 50.511627906974425,
          "velocity": 0.29133858267716534,
          "duration": 0.05813953488370771
        },
        {
          "name": "G#3",
          "midi": 56,
          "time": 50.52325581395117,
          "velocity": 0.44881889763779526,
          "duration": 0.04651162790696617
        },
        {
          "name": "D#6",
          "midi": 87,
          "time": 50.52325581395117,
          "velocity": 0.14960629921259844,
          "duration": 0.06976744186044925
        },
        {
          "name": "F#6",
          "midi": 90,
          "time": 50.52325581395117,
          "velocity": 0.2755905511811024,
          "duration": 0.023255813953483084
        },
        {
          "name": "D#5",
          "midi": 75,
          "time": 50.53488372092791,
          "velocity": 0.3464566929133858,
          "duration": 0.11627906976742253
        },
        {
          "name": "G5",
          "midi": 79,
          "time": 50.55813953488139,
          "velocity": 0.14960629921259844,
          "duration": 0.034883720930224626
        },
        {
          "name": "F#6",
          "midi": 90,
          "time": 50.55813953488139,
          "velocity": 0.3779527559055118,
          "duration": 0.09302325581393944
        },
        {
          "name": "G3",
          "midi": 55,
          "time": 50.56976744185813,
          "velocity": 0.2992125984251969,
          "duration": 0.058139534883714816
        },
        {
          "name": "F#5",
          "midi": 78,
          "time": 50.56976744185813,
          "velocity": 0.4566929133858268,
          "duration": 0.06976744186045636
        },
        {
          "name": "A6",
          "midi": 93,
          "time": 50.581395348834874,
          "velocity": 0.11023622047244094,
          "duration": 0.06976744186045636
        },
        {
          "name": "F4",
          "midi": 65,
          "time": 50.616279069765106,
          "velocity": 0.5118110236220472,
          "duration": 0.2209302325580964
        },
        {
          "name": "G5",
          "midi": 79,
          "time": 50.616279069765106,
          "velocity": 0.28346456692913385,
          "duration": 0.023255813953483084
        },
        {
          "name": "G#5",
          "midi": 80,
          "time": 50.616279069765106,
          "velocity": 0.33070866141732286,
          "duration": 0.18604651162787178
        },
        {
          "name": "C6",
          "midi": 84,
          "time": 50.616279069765106,
          "velocity": 0.2677165354330709,
          "duration": 0.023255813953483084
        },
        {
          "name": "F6",
          "midi": 89,
          "time": 50.616279069765106,
          "velocity": 0.2755905511811024,
          "duration": 0.034883720930224626
        },
        {
          "name": "A#6",
          "midi": 94,
          "time": 50.616279069765106,
          "velocity": 0.12598425196850394,
          "duration": 0.034883720930224626
        },
        {
          "name": "C7",
          "midi": 96,
          "time": 50.616279069765106,
          "velocity": 0.2755905511811024,
          "duration": 0.034883720930224626
        },
        {
          "name": "C#4",
          "midi": 61,
          "time": 50.62790697674185,
          "velocity": 0.5275590551181102,
          "duration": 0.023255813953483084
        },
        {
          "name": "G#4",
          "midi": 68,
          "time": 50.62790697674185,
          "velocity": 0.4881889763779528,
          "duration": 0.20930232558135486
        },
        {
          "name": "B4",
          "midi": 71,
          "time": 50.62790697674185,
          "velocity": 0.44881889763779526,
          "duration": 0.023255813953483084
        },
        {
          "name": "C3",
          "midi": 48,
          "time": 50.63953488371859,
          "velocity": 0.1732283464566929,
          "duration": 0.04651162790696617
        },
        {
          "name": "G#3",
          "midi": 56,
          "time": 50.63953488371859,
          "velocity": 0.3779527559055118,
          "duration": 0.04651162790696617
        },
        {
          "name": "E6",
          "midi": 88,
          "time": 50.63953488371859,
          "velocity": 0.16535433070866143,
          "duration": 0.05813953488370771
        },
        {
          "name": "G7",
          "midi": 103,
          "time": 50.63953488371859,
          "velocity": 0.13385826771653545,
          "duration": 0.034883720930224626
        },
        {
          "name": "C5",
          "midi": 72,
          "time": 50.65116279069533,
          "velocity": 0.47244094488188976,
          "duration": 0.034883720930224626
        },
        {
          "name": "F#5",
          "midi": 78,
          "time": 50.65116279069533,
          "velocity": 0.4409448818897638,
          "duration": 0.05813953488370771
        },
        {
          "name": "E7",
          "midi": 100,
          "time": 50.65116279069533,
          "velocity": 0.1732283464566929,
          "duration": 0.04651162790696617
        },
        {
          "name": "C#4",
          "midi": 61,
          "time": 50.66279069767207,
          "velocity": 0.49606299212598426,
          "duration": 0.1627906976743887
        },
        {
          "name": "G#3",
          "midi": 56,
          "time": 50.6976744186023,
          "velocity": 0.29133858267716534,
          "duration": 0.058139534883714816
        },
        {
          "name": "G6",
          "midi": 91,
          "time": 50.6976744186023,
          "velocity": 0.11023622047244094,
          "duration": 0.09302325581393944
        },
        {
          "name": "F7",
          "midi": 101,
          "time": 50.6976744186023,
          "velocity": 0.2125984251968504,
          "duration": 0.2790697674418112
        },
        {
          "name": "A#6",
          "midi": 94,
          "time": 50.70930232557904,
          "velocity": 0.10236220472440945,
          "duration": 0.0813953488371979
        },
        {
          "name": "E6",
          "midi": 88,
          "time": 50.72093023255578,
          "velocity": 0.1889763779527559,
          "duration": 0.03488372093023173
        },
        {
          "name": "A6",
          "midi": 93,
          "time": 50.72093023255578,
          "velocity": 0.3228346456692913,
          "duration": 0.20930232558136197
        },
        {
          "name": "F#5",
          "midi": 78,
          "time": 50.73255813953252,
          "velocity": 0.4409448818897638,
          "duration": 0.1395348837209056
        },
        {
          "name": "C6",
          "midi": 84,
          "time": 50.73255813953252,
          "velocity": 0.1889763779527559,
          "duration": 0.03488372093023173
        },
        {
          "name": "G#3",
          "midi": 56,
          "time": 50.76744186046275,
          "velocity": 0.14173228346456693,
          "duration": 0.034883720930224626
        },
        {
          "name": "E6",
          "midi": 88,
          "time": 50.779069767439495,
          "velocity": 0.07874015748031496,
          "duration": 0.04651162790696617
        },
        {
          "name": "G3",
          "midi": 55,
          "time": 50.81395348836972,
          "velocity": 0.16535433070866143,
          "duration": 0.034883720930224626
        },
        {
          "name": "C6",
          "midi": 84,
          "time": 50.82558139534646,
          "velocity": 0.30708661417322836,
          "duration": 0.23255813953483795
        },
        {
          "name": "A#6",
          "midi": 94,
          "time": 50.82558139534646,
          "velocity": 0.13385826771653545,
          "duration": 0.04651162790696617
        },
        {
          "name": "E4",
          "midi": 64,
          "time": 50.8372093023232,
          "velocity": 0.2992125984251969,
          "duration": 0.023255813953483084
        },
        {
          "name": "G6",
          "midi": 91,
          "time": 50.8372093023232,
          "velocity": 0.12598425196850394,
          "duration": 0.0813953488371979
        },
        {
          "name": "F4",
          "midi": 65,
          "time": 50.860465116276686,
          "velocity": 0.30708661417322836,
          "duration": 0.03488372093023173
        },
        {
          "name": "C#4",
          "midi": 61,
          "time": 50.87209302325343,
          "velocity": 0.2204724409448819,
          "duration": 0.046511627906973274
        },
        {
          "name": "G5",
          "midi": 79,
          "time": 50.87209302325343,
          "velocity": 0.44881889763779526,
          "duration": 0.15116279069764715
        },
        {
          "name": "F4",
          "midi": 65,
          "time": 50.90697674418366,
          "velocity": 0.3464566929133858,
          "duration": 0.034883720930224626
        },
        {
          "name": "A#6",
          "midi": 94,
          "time": 50.90697674418366,
          "velocity": 0.2755905511811024,
          "duration": 0.1395348837208985
        },
        {
          "name": "F#5",
          "midi": 78,
          "time": 50.9186046511604,
          "velocity": 0.15748031496062992,
          "duration": 0.034883720930224626
        },
        {
          "name": "E6",
          "midi": 88,
          "time": 50.9186046511604,
          "velocity": 0.07874015748031496,
          "duration": 0.034883720930224626
        },
        {
          "name": "F#6",
          "midi": 90,
          "time": 50.9186046511604,
          "velocity": 0.18110236220472442,
          "duration": 0.04651162790696617
        },
        {
          "name": "D4",
          "midi": 62,
          "time": 50.94186046511388,
          "velocity": 0.4330708661417323,
          "duration": 0.034883720930224626
        },
        {
          "name": "F5",
          "midi": 77,
          "time": 50.94186046511388,
          "velocity": 0.2125984251968504,
          "duration": 0.04651162790696617
        },
        {
          "name": "B5",
          "midi": 83,
          "time": 50.94186046511388,
          "velocity": 0.25984251968503935,
          "duration": 0.034883720930224626
        },
        {
          "name": "A6",
          "midi": 93,
          "time": 50.94186046511388,
          "velocity": 0.2283464566929134,
          "duration": 0.3023255813952872
        },
        {
          "name": "D7",
          "midi": 98,
          "time": 50.94186046511388,
          "velocity": 0.2125984251968504,
          "duration": 0.05813953488370771
        },
        {
          "name": "D#3",
          "midi": 51,
          "time": 50.953488372090625,
          "velocity": 0.6614173228346457,
          "duration": 0.011627906976741542
        },
        {
          "name": "G4",
          "midi": 67,
          "time": 50.953488372090625,
          "velocity": 0.33070866141732286,
          "duration": 0.023255813953483084
        },
        {
          "name": "D#6",
          "midi": 87,
          "time": 50.953488372090625,
          "velocity": 0.14960629921259844,
          "duration": 0.04651162790696617
        },
        {
          "name": "F#2",
          "midi": 42,
          "time": 50.96511627906737,
          "velocity": 0.6692913385826772,
          "duration": 0.011627906976741542
        },
        {
          "name": "G3",
          "midi": 55,
          "time": 50.96511627906737,
          "velocity": 0.5748031496062992,
          "duration": 0.023255813953483084
        },
        {
          "name": "C5",
          "midi": 72,
          "time": 50.96511627906737,
          "velocity": 0.33070866141732286,
          "duration": 0.06976744186044925
        },
        {
          "name": "D#5",
          "midi": 75,
          "time": 50.96511627906737,
          "velocity": 0.28346456692913385,
          "duration": 0.023255813953483084
        },
        {
          "name": "D2",
          "midi": 38,
          "time": 50.97674418604411,
          "velocity": 0.6850393700787402,
          "duration": 0.011627906976741542
        },
        {
          "name": "C#3",
          "midi": 49,
          "time": 50.97674418604411,
          "velocity": 0.41732283464566927,
          "duration": 0.023255813953483084
        },
        {
          "name": "C#4",
          "midi": 61,
          "time": 50.97674418604411,
          "velocity": 0.4251968503937008,
          "duration": 0.023255813953483084
        },
        {
          "name": "D6",
          "midi": 86,
          "time": 50.97674418604411,
          "velocity": 0.25196850393700787,
          "duration": 0.034883720930224626
        },
        {
          "name": "F#6",
          "midi": 90,
          "time": 50.97674418604411,
          "velocity": 0.2283464566929134,
          "duration": 0.18604651162787178
        },
        {
          "name": "C#2",
          "midi": 37,
          "time": 50.98837209302085,
          "velocity": 0.7322834645669292,
          "duration": 0.011627906976741542
        },
        {
          "name": "G#3",
          "midi": 56,
          "time": 50.98837209302085,
          "velocity": 0.5196850393700787,
          "duration": 0.29069767441854566
        },
        {
          "name": "D5",
          "midi": 74,
          "time": 50.98837209302085,
          "velocity": 0.31496062992125984,
          "duration": 0.034883720930224626
        },
        {
          "name": "D#7",
          "midi": 99,
          "time": 50.98837209302085,
          "velocity": 0.2440944881889764,
          "duration": 0.10465116279067388
        },
        {
          "name": "B1",
          "midi": 35,
          "time": 50.99999999999759,
          "velocity": 0.7559055118110236,
          "duration": 0.011627906976741542
        },
        {
          "name": "D#3",
          "midi": 51,
          "time": 50.99999999999759,
          "velocity": 0.4566929133858268,
          "duration": 0.023255813953483084
        },
        {
          "name": "C4",
          "midi": 60,
          "time": 50.99999999999759,
          "velocity": 0.47244094488188976,
          "duration": 0.19767441860461332
        },
        {
          "name": "A#4",
          "midi": 70,
          "time": 50.99999999999759,
          "velocity": 0.3779527559055118,
          "duration": 0.25581395348832103
        },
        {
          "name": "F6",
          "midi": 89,
          "time": 50.99999999999759,
          "velocity": 0.1732283464566929,
          "duration": 0.04651162790696617
        },
        {
          "name": "A#1",
          "midi": 34,
          "time": 51.01162790697433,
          "velocity": 0.7401574803149606,
          "duration": 0.023255813953483084
        },
        {
          "name": "G#5",
          "midi": 80,
          "time": 51.01162790697433,
          "velocity": 0.48031496062992124,
          "duration": 0.2441860465115795
        },
        {
          "name": "D#6",
          "midi": 87,
          "time": 51.01162790697433,
          "velocity": 0.4015748031496063,
          "duration": 0.5930232558138329
        },
        {
          "name": "E6",
          "midi": 88,
          "time": 51.01162790697433,
          "velocity": 0.2755905511811024,
          "duration": 0.1395348837209056
        },
        {
          "name": "C#5",
          "midi": 73,
          "time": 51.023255813951074,
          "velocity": 0.2047244094488189,
          "duration": 0.05813953488370771
        },
        {
          "name": "D#5",
          "midi": 75,
          "time": 51.023255813951074,
          "velocity": 0.47244094488188976,
          "duration": 0.2790697674418041
        },
        {
          "name": "A1",
          "midi": 33,
          "time": 51.034883720927816,
          "velocity": 0.6614173228346457,
          "duration": 0.011627906976741542
        },
        {
          "name": "D#3",
          "midi": 51,
          "time": 51.034883720927816,
          "velocity": 0.5354330708661418,
          "duration": 0.5813953488370913
        },
        {
          "name": "B6",
          "midi": 95,
          "time": 51.034883720927816,
          "velocity": 0.25196850393700787,
          "duration": 0.18604651162787178
        },
        {
          "name": "G#1",
          "midi": 32,
          "time": 51.04651162790456,
          "velocity": 0.6377952755905512,
          "duration": 0.023255813953483084
        },
        {
          "name": "A#6",
          "midi": 94,
          "time": 51.0581395348813,
          "velocity": 0.25984251968503935,
          "duration": 0.37209302325574356
        },
        {
          "name": "D7",
          "midi": 98,
          "time": 51.0581395348813,
          "velocity": 0.13385826771653545,
          "duration": 0.12790697674416407
        },
        {
          "name": "G1",
          "midi": 31,
          "time": 51.06976744185804,
          "velocity": 0.5984251968503937,
          "duration": 0.011627906976741542
        },
        {
          "name": "F5",
          "midi": 77,
          "time": 51.06976744185804,
          "velocity": 0.14173228346456693,
          "duration": 0.034883720930224626
        },
        {
          "name": "C6",
          "midi": 84,
          "time": 51.06976744185804,
          "velocity": 0.30708661417322836,
          "duration": 0.2441860465115795
        },
        {
          "name": "F#1",
          "midi": 30,
          "time": 51.08139534883478,
          "velocity": 0.6377952755905512,
          "duration": 0.023255813953483084
        },
        {
          "name": "G6",
          "midi": 91,
          "time": 51.08139534883478,
          "velocity": 0.23622047244094488,
          "duration": 0.18604651162787178
        },
        {
          "name": "F#5",
          "midi": 78,
          "time": 51.093023255811524,
          "velocity": 0.25196850393700787,
          "duration": 0.0813953488371979
        },
        {
          "name": "G1",
          "midi": 31,
          "time": 51.104651162788265,
          "velocity": 0.7480314960629921,
          "duration": 0.10465116279068098
        },
        {
          "name": "G5",
          "midi": 79,
          "time": 51.104651162788265,
          "velocity": 0.25196850393700787,
          "duration": 0.023255813953483084
        },
        {
          "name": "F6",
          "midi": 89,
          "time": 51.104651162788265,
          "velocity": 0.1889763779527559,
          "duration": 0.10465116279068098
        },
        {
          "name": "G#4",
          "midi": 68,
          "time": 51.12790697674175,
          "velocity": 0.5354330708661418,
          "duration": 0.488372093023159
        },
        {
          "name": "C#6",
          "midi": 85,
          "time": 51.12790697674175,
          "velocity": 0.1968503937007874,
          "duration": 0.046511627906973274
        },
        {
          "name": "C#5",
          "midi": 73,
          "time": 51.18604651162546,
          "velocity": 0.1732283464566929,
          "duration": 0.034883720930224626
        },
        {
          "name": "F#5",
          "midi": 78,
          "time": 51.18604651162546,
          "velocity": 0.14173228346456693,
          "duration": 0.04651162790696617
        },
        {
          "name": "C#7",
          "midi": 97,
          "time": 51.197674418602205,
          "velocity": 0.1732283464566929,
          "duration": 0.04651162790696617
        },
        {
          "name": "G#1",
          "midi": 32,
          "time": 51.209302325578946,
          "velocity": 0.7322834645669292,
          "duration": 0.034883720930224626
        },
        {
          "name": "G5",
          "midi": 79,
          "time": 51.22093023255569,
          "velocity": 0.16535433070866143,
          "duration": 0.04651162790696617
        },
        {
          "name": "C#5",
          "midi": 73,
          "time": 51.23255813953243,
          "velocity": 0.2204724409448819,
          "duration": 0.06976744186044925
        },
        {
          "name": "A1",
          "midi": 33,
          "time": 51.24418604650917,
          "velocity": 0.6771653543307087,
          "duration": 0.011627906976741542
        },
        {
          "name": "G#1",
          "midi": 32,
          "time": 51.25581395348591,
          "velocity": 0.6850393700787402,
          "duration": 0.3604651162789949
        },
        {
          "name": "A5",
          "midi": 81,
          "time": 51.25581395348591,
          "velocity": 0.44881889763779526,
          "duration": 0.10465116279068098
        },
        {
          "name": "C#6",
          "midi": 85,
          "time": 51.25581395348591,
          "velocity": 0.23622047244094488,
          "duration": 0.09302325581393944
        },
        {
          "name": "B6",
          "midi": 95,
          "time": 51.25581395348591,
          "velocity": 0.15748031496062992,
          "duration": 0.04651162790696617
        },
        {
          "name": "C4",
          "midi": 60,
          "time": 51.267441860462654,
          "velocity": 0.28346456692913385,
          "duration": 0.023255813953483084
        },
        {
          "name": "D7",
          "midi": 98,
          "time": 51.267441860462654,
          "velocity": 0.10236220472440945,
          "duration": 0.034883720930224626
        },
        {
          "name": "C5",
          "midi": 72,
          "time": 51.279069767439395,
          "velocity": 0.30708661417322836,
          "duration": 0.1627906976743887
        },
        {
          "name": "G#3",
          "midi": 56,
          "time": 51.29069767441614,
          "velocity": 0.4566929133858268,
          "duration": 0.0813953488371979
        },
        {
          "name": "A#5",
          "midi": 82,
          "time": 51.29069767441614,
          "velocity": 0.13385826771653545,
          "duration": 0.058139534883714816
        },
        {
          "name": "G6",
          "midi": 91,
          "time": 51.29069767441614,
          "velocity": 0.07874015748031496,
          "duration": 0.046511627906973274
        },
        {
          "name": "E7",
          "midi": 100,
          "time": 51.29069767441614,
          "velocity": 0.25196850393700787,
          "duration": 0.046511627906973274
        },
        {
          "name": "D5",
          "midi": 74,
          "time": 51.30232558139288,
          "velocity": 0.1968503937007874,
          "duration": 0.046511627906973274
        },
        {
          "name": "G5",
          "midi": 79,
          "time": 51.31395348836962,
          "velocity": 0.23622047244094488,
          "duration": 0.12790697674416407
        },
        {
          "name": "B6",
          "midi": 95,
          "time": 51.31395348836962,
          "velocity": 0.11811023622047244,
          "duration": 0.06976744186045636
        },
        {
          "name": "F5",
          "midi": 77,
          "time": 51.34883720929985,
          "velocity": 0.11811023622047244,
          "duration": 0.04651162790696617
        },
        {
          "name": "C#7",
          "midi": 97,
          "time": 51.372093023253335,
          "velocity": 0.1968503937007874,
          "duration": 0.09302325581393234
        },
        {
          "name": "A5",
          "midi": 81,
          "time": 51.383720930230076,
          "velocity": 0.4566929133858268,
          "duration": 0.09302325581393234
        },
        {
          "name": "E7",
          "midi": 100,
          "time": 51.383720930230076,
          "velocity": 0.25984251968503935,
          "duration": 0.034883720930224626
        },
        {
          "name": "C#6",
          "midi": 85,
          "time": 51.39534883720682,
          "velocity": 0.18110236220472442,
          "duration": 0.1395348837208985
        },
        {
          "name": "C#5",
          "midi": 73,
          "time": 51.40697674418356,
          "velocity": 0.11811023622047244,
          "duration": 0.09302325581393234
        },
        {
          "name": "F5",
          "midi": 77,
          "time": 51.40697674418356,
          "velocity": 0.15748031496062992,
          "duration": 0.0813953488371908
        },
        {
          "name": "G#3",
          "midi": 56,
          "time": 51.43023255813704,
          "velocity": 0.28346456692913385,
          "duration": 0.023255813953483084
        },
        {
          "name": "C4",
          "midi": 60,
          "time": 51.441860465113784,
          "velocity": 0.28346456692913385,
          "duration": 0.12790697674415696
        },
        {
          "name": "A#6",
          "midi": 94,
          "time": 51.453488372090526,
          "velocity": 0.41732283464566927,
          "duration": 0.23255813953483084
        },
        {
          "name": "G#3",
          "midi": 56,
          "time": 51.46511627906727,
          "velocity": 0.25984251968503935,
          "duration": 0.034883720930224626
        },
        {
          "name": "D#5",
          "midi": 75,
          "time": 51.46511627906727,
          "velocity": 0.09448818897637795,
          "duration": 0.04651162790696617
        },
        {
          "name": "F#5",
          "midi": 78,
          "time": 51.47674418604401,
          "velocity": 0.08661417322834646,
          "duration": 0.04651162790696617
        },
        {
          "name": "A#5",
          "midi": 82,
          "time": 51.47674418604401,
          "velocity": 0.2677165354330709,
          "duration": 0.023255813953483084
        },
        {
          "name": "E6",
          "midi": 88,
          "time": 51.47674418604401,
          "velocity": 0.07874015748031496,
          "duration": 0.034883720930224626
        },
        {
          "name": "F6",
          "midi": 89,
          "time": 51.48837209302075,
          "velocity": 0.2125984251968504,
          "duration": 0.0813953488371908
        },
        {
          "name": "G#6",
          "midi": 92,
          "time": 51.48837209302075,
          "velocity": 0.4094488188976378,
          "duration": 0.1627906976743816
        },
        {
          "name": "C7",
          "midi": 96,
          "time": 51.48837209302075,
          "velocity": 0.33070866141732286,
          "duration": 0.29069767441853855
        },
        {
          "name": "C#7",
          "midi": 97,
          "time": 51.48837209302075,
          "velocity": 0.2283464566929134,
          "duration": 0.06976744186044925
        },
        {
          "name": "D7",
          "midi": 98,
          "time": 51.48837209302075,
          "velocity": 0.31496062992125984,
          "duration": 0.2209302325580893
        },
        {
          "name": "E7",
          "midi": 100,
          "time": 51.48837209302075,
          "velocity": 0.2440944881889764,
          "duration": 0.2209302325580893
        },
        {
          "name": "F7",
          "midi": 101,
          "time": 51.48837209302075,
          "velocity": 0.29133858267716534,
          "duration": 0.20930232558134776
        },
        {
          "name": "F#7",
          "midi": 102,
          "time": 51.48837209302075,
          "velocity": 0.31496062992125984,
          "duration": 0.2558139534883139
        },
        {
          "name": "B5",
          "midi": 83,
          "time": 51.49999999999749,
          "velocity": 0.2440944881889764,
          "duration": 0.05813953488370771
        },
        {
          "name": "A#5",
          "midi": 82,
          "time": 51.51162790697423,
          "velocity": 0.4566929133858268,
          "duration": 0.17441860465112313
        },
        {
          "name": "F#6",
          "midi": 90,
          "time": 51.51162790697423,
          "velocity": 0.29133858267716534,
          "duration": 0.11627906976741542
        },
        {
          "name": "C#5",
          "midi": 73,
          "time": 51.523255813950975,
          "velocity": 0.10236220472440945,
          "duration": 0.04651162790696617
        },
        {
          "name": "G6",
          "midi": 91,
          "time": 51.523255813950975,
          "velocity": 0.2125984251968504,
          "duration": 0.0813953488371908
        },
        {
          "name": "B6",
          "midi": 95,
          "time": 51.523255813950975,
          "velocity": 0.3779527559055118,
          "duration": 0.12790697674415696
        },
        {
          "name": "G7",
          "midi": 103,
          "time": 51.534883720927716,
          "velocity": 0.25984251968503935,
          "duration": 0.1627906976743816
        },
        {
          "name": "D#5",
          "midi": 75,
          "time": 51.54651162790446,
          "velocity": 0.12598425196850394,
          "duration": 0.034883720930224626
        },
        {
          "name": "C#6",
          "midi": 85,
          "time": 51.54651162790446,
          "velocity": 0.4566929133858268,
          "duration": 0.19767441860460622
        },
        {
          "name": "F5",
          "midi": 77,
          "time": 51.56976744185794,
          "velocity": 0.2677165354330709,
          "duration": 0.05813953488370771
        },
        {
          "name": "E6",
          "midi": 88,
          "time": 51.58139534883468,
          "velocity": 0.3858267716535433,
          "duration": 0.10465116279067388
        },
        {
          "name": "E5",
          "midi": 76,
          "time": 51.593023255811424,
          "velocity": 0.29133858267716534,
          "duration": 0.034883720930224626
        },
        {
          "name": "C6",
          "midi": 84,
          "time": 51.593023255811424,
          "velocity": 0.31496062992125984,
          "duration": 0.0813953488371908
        },
        {
          "name": "F6",
          "midi": 89,
          "time": 51.593023255811424,
          "velocity": 0.33070866141732286,
          "duration": 0.0813953488371908
        },
        {
          "name": "C#5",
          "midi": 73,
          "time": 51.604651162788166,
          "velocity": 0.3779527559055118,
          "duration": 0.06976744186044925
        },
        {
          "name": "B5",
          "midi": 83,
          "time": 51.604651162788166,
          "velocity": 0.29133858267716534,
          "duration": 0.023255813953483084
        },
        {
          "name": "A#1",
          "midi": 34,
          "time": 51.61627906976491,
          "velocity": 0.5511811023622047,
          "duration": 0.011627906976741542
        },
        {
          "name": "G4",
          "midi": 67,
          "time": 51.61627906976491,
          "velocity": 0.28346456692913385,
          "duration": 0.023255813953483084
        },
        {
          "name": "A#4",
          "midi": 70,
          "time": 51.61627906976491,
          "velocity": 0.23622047244094488,
          "duration": 0.023255813953483084
        },
        {
          "name": "D#5",
          "midi": 75,
          "time": 51.61627906976491,
          "velocity": 0.2755905511811024,
          "duration": 0.034883720930224626
        },
        {
          "name": "G#5",
          "midi": 80,
          "time": 51.61627906976491,
          "velocity": 0.2992125984251969,
          "duration": 0.023255813953483084
        },
        {
          "name": "D6",
          "midi": 86,
          "time": 51.61627906976491,
          "velocity": 0.2677165354330709,
          "duration": 0.023255813953483084
        },
        {
          "name": "G6",
          "midi": 91,
          "time": 51.61627906976491,
          "velocity": 0.33858267716535434,
          "duration": 0.0813953488371908
        },
        {
          "name": "A6",
          "midi": 93,
          "time": 51.61627906976491,
          "velocity": 0.36220472440944884,
          "duration": 0.0813953488371908
        },
        {
          "name": "D#4",
          "midi": 63,
          "time": 51.62790697674165,
          "velocity": 0.1889763779527559,
          "duration": 0.034883720930224626
        },
        {
          "name": "G5",
          "midi": 79,
          "time": 51.62790697674165,
          "velocity": 0.3937007874015748,
          "duration": 0.023255813953483084
        },
        {
          "name": "E5",
          "midi": 76,
          "time": 51.63953488371839,
          "velocity": 0.2283464566929134,
          "duration": 0.05813953488370771
        },
        {
          "name": "A5",
          "midi": 81,
          "time": 51.63953488371839,
          "velocity": 0.2125984251968504,
          "duration": 0.04651162790696617
        },
        {
          "name": "G#5",
          "midi": 80,
          "time": 51.65116279069513,
          "velocity": 0.3700787401574803,
          "duration": 0.31395348837202164
        },
        {
          "name": "D#6",
          "midi": 87,
          "time": 51.65116279069513,
          "velocity": 0.33858267716535434,
          "duration": 0.3372093023255047
        },
        {
          "name": "F#6",
          "midi": 90,
          "time": 51.65116279069513,
          "velocity": 0.18110236220472442,
          "duration": 0.05813953488370771
        },
        {
          "name": "B6",
          "midi": 95,
          "time": 51.66279069767187,
          "velocity": 0.2992125984251969,
          "duration": 0.12790697674415696
        },
        {
          "name": "G#4",
          "midi": 68,
          "time": 51.674418604648615,
          "velocity": 0.6062992125984252,
          "duration": 0.4999999999998863
        },
        {
          "name": "B5",
          "midi": 83,
          "time": 51.674418604648615,
          "velocity": 0.11811023622047244,
          "duration": 0.034883720930224626
        },
        {
          "name": "C6",
          "midi": 84,
          "time": 51.68604651162536,
          "velocity": 0.1968503937007874,
          "duration": 0.06976744186044925
        },
        {
          "name": "F5",
          "midi": 77,
          "time": 51.6976744186021,
          "velocity": 0.11023622047244094,
          "duration": 0.034883720930224626
        },
        {
          "name": "C4",
          "midi": 60,
          "time": 51.70930232557884,
          "velocity": 0.2204724409448819,
          "duration": 0.05813953488370771
        },
        {
          "name": "G6",
          "midi": 91,
          "time": 51.70930232557884,
          "velocity": 0.07086614173228346,
          "duration": 0.034883720930224626
        },
        {
          "name": "B5",
          "midi": 83,
          "time": 51.72093023255558,
          "velocity": 0.4645669291338583,
          "duration": 0.18604651162786467
        },
        {
          "name": "D#5",
          "midi": 75,
          "time": 51.73255813953232,
          "velocity": 0.07086614173228346,
          "duration": 0.034883720930224626
        },
        {
          "name": "D5",
          "midi": 74,
          "time": 51.755813953485806,
          "velocity": 0.13385826771653545,
          "duration": 0.0813953488371908
        },
        {
          "name": "C#6",
          "midi": 85,
          "time": 51.755813953485806,
          "velocity": 0.1889763779527559,
          "duration": 0.05813953488370771
        },
        {
          "name": "F#7",
          "midi": 102,
          "time": 51.77906976743929,
          "velocity": 0.2125984251968504,
          "duration": 0.11627906976741542
        },
        {
          "name": "C4",
          "midi": 60,
          "time": 51.79069767441603,
          "velocity": 0.23622047244094488,
          "duration": 0.034883720930224626
        },
        {
          "name": "B4",
          "midi": 71,
          "time": 51.79069767441603,
          "velocity": 0.07874015748031496,
          "duration": 0.04651162790696617
        },
        {
          "name": "C7",
          "midi": 96,
          "time": 51.79069767441603,
          "velocity": 0.3858267716535433,
          "duration": 0.05813953488370771
        },
        {
          "name": "A#5",
          "midi": 82,
          "time": 51.80232558139277,
          "velocity": 0.2992125984251969,
          "duration": 0.023255813953483084
        },
        {
          "name": "A6",
          "midi": 93,
          "time": 51.80232558139277,
          "velocity": 0.2047244094488189,
          "duration": 0.06976744186044925
        },
        {
          "name": "C6",
          "midi": 84,
          "time": 51.81395348836951,
          "velocity": 0.2440944881889764,
          "duration": 0.0813953488371908
        },
        {
          "name": "F#6",
          "midi": 90,
          "time": 51.81395348836951,
          "velocity": 0.11023622047244094,
          "duration": 0.10465116279067388
        },
        {
          "name": "D7",
          "midi": 98,
          "time": 51.81395348836951,
          "velocity": 0.13385826771653545,
          "duration": 0.04651162790696617
        },
        {
          "name": "D#4",
          "midi": 63,
          "time": 51.825581395346255,
          "velocity": 0.2283464566929134,
          "duration": 0.10465116279067388
        },
        {
          "name": "E7",
          "midi": 100,
          "time": 51.825581395346255,
          "velocity": 0.33070866141732286,
          "duration": 0.43023255813943706
        },
        {
          "name": "F3",
          "midi": 53,
          "time": 51.837209302323,
          "velocity": 0.07874015748031496,
          "duration": 0.04651162790696617
        },
        {
          "name": "G6",
          "midi": 91,
          "time": 51.837209302323,
          "velocity": 0.08661417322834646,
          "duration": 0.034883720930224626
        },
        {
          "name": "E6",
          "midi": 88,
          "time": 51.86046511627648,
          "velocity": 0.2283464566929134,
          "duration": 0.09302325581393234
        },
        {
          "name": "F7",
          "midi": 101,
          "time": 51.87209302325322,
          "velocity": 0.23622047244094488,
          "duration": 0.15116279069764005
        },
        {
          "name": "C6",
          "midi": 84,
          "time": 51.906976744183446,
          "velocity": 0.47244094488188976,
          "duration": 0.20930232558134776
        },
        {
          "name": "C#6",
          "midi": 85,
          "time": 51.906976744183446,
          "velocity": 0.2283464566929134,
          "duration": 0.04651162790696617
        },
        {
          "name": "A6",
          "midi": 93,
          "time": 51.906976744183446,
          "velocity": 0.30708661417322836,
          "duration": 0.10465116279067388
        },
        {
          "name": "D7",
          "midi": 98,
          "time": 51.906976744183446,
          "velocity": 0.2047244094488189,
          "duration": 0.15116279069764005
        },
        {
          "name": "D5",
          "midi": 74,
          "time": 51.91860465116019,
          "velocity": 0.1968503937007874,
          "duration": 0.034883720930224626
        },
        {
          "name": "F6",
          "midi": 89,
          "time": 51.91860465116019,
          "velocity": 0.2755905511811024,
          "duration": 0.11627906976741542
        },
        {
          "name": "F#7",
          "midi": 102,
          "time": 51.91860465116019,
          "velocity": 0.2204724409448819,
          "duration": 0.1395348837208985
        },
        {
          "name": "C5",
          "midi": 72,
          "time": 51.93023255813693,
          "velocity": 0.14960629921259844,
          "duration": 0.034883720930224626
        },
        {
          "name": "G5",
          "midi": 79,
          "time": 51.93023255813693,
          "velocity": 0.36220472440944884,
          "duration": 0.09302325581393234
        },
        {
          "name": "F#6",
          "midi": 90,
          "time": 51.93023255813693,
          "velocity": 0.25984251968503935,
          "duration": 0.0813953488371908
        },
        {
          "name": "A#6",
          "midi": 94,
          "time": 51.93023255813693,
          "velocity": 0.2755905511811024,
          "duration": 0.04651162790696617
        },
        {
          "name": "G7",
          "midi": 103,
          "time": 51.93023255813693,
          "velocity": 0.1968503937007874,
          "duration": 0.0813953488371908
        },
        {
          "name": "C4",
          "midi": 60,
          "time": 51.94186046511367,
          "velocity": 0.4409448818897638,
          "duration": 0.04651162790696617
        },
        {
          "name": "D#4",
          "midi": 63,
          "time": 51.94186046511367,
          "velocity": 0.4015748031496063,
          "duration": 0.1395348837208985
        },
        {
          "name": "A#5",
          "midi": 82,
          "time": 51.94186046511367,
          "velocity": 0.2125984251968504,
          "duration": 0.034883720930224626
        },
        {
          "name": "D#3",
          "midi": 51,
          "time": 51.95348837209041,
          "velocity": 0.11811023622047244,
          "duration": 0.034883720930224626
        },
        {
          "name": "A5",
          "midi": 81,
          "time": 51.96511627906715,
          "velocity": 0.1968503937007874,
          "duration": 0.034883720930224626
        },
        {
          "name": "F5",
          "midi": 77,
          "time": 51.976744186043895,
          "velocity": 0.14960629921259844,
          "duration": 0.06976744186044925
        },
        {
          "name": "E6",
          "midi": 88,
          "time": 51.976744186043895,
          "velocity": 0.3543307086614173,
          "duration": 0.023255813953483084
        },
        {
          "name": "B3",
          "midi": 59,
          "time": 51.98837209302064,
          "velocity": 0.2677165354330709,
          "duration": 0.04651162790696617
        },
        {
          "name": "B5",
          "midi": 83,
          "time": 51.98837209302064,
          "velocity": 0.11023622047244094,
          "duration": 0.034883720930224626
        },
        {
          "name": "D6",
          "midi": 86,
          "time": 51.98837209302064,
          "velocity": 0.14173228346456693,
          "duration": 0.0813953488371908
        },
        {
          "name": "C#6",
          "midi": 85,
          "time": 51.99999999999738,
          "velocity": 0.2992125984251969,
          "duration": 0.04651162790696617
        },
        {
          "name": "D#6",
          "midi": 87,
          "time": 51.99999999999738,
          "velocity": 0.1889763779527559,
          "duration": 0.12790697674415696
        },
        {
          "name": "A#6",
          "midi": 94,
          "time": 51.99999999999738,
          "velocity": 0.16535433070866143,
          "duration": 0.0813953488371908
        },
        {
          "name": "C#5",
          "midi": 73,
          "time": 52.01162790697412,
          "velocity": 0.08661417322834646,
          "duration": 0.034883720930224626
        },
        {
          "name": "C4",
          "midi": 60,
          "time": 52.0348837209276,
          "velocity": 0.30708661417322836,
          "duration": 0.12790697674415696
        },
        {
          "name": "G5",
          "midi": 79,
          "time": 52.0348837209276,
          "velocity": 0.18110236220472442,
          "duration": 0.04651162790696617
        },
        {
          "name": "G7",
          "midi": 103,
          "time": 52.0348837209276,
          "velocity": 0.14173228346456693,
          "duration": 0.04651162790696617
        },
        {
          "name": "D#4",
          "midi": 63,
          "time": 52.09302325581131,
          "velocity": 0.2204724409448819,
          "duration": 0.04651162790696617
        },
        {
          "name": "C#5",
          "midi": 73,
          "time": 52.10465116278805,
          "velocity": 0.11811023622047244,
          "duration": 0.04651162790696617
        },
        {
          "name": "E5",
          "midi": 76,
          "time": 52.11627906976479,
          "velocity": 0.15748031496062992,
          "duration": 0.034883720930224626
        },
        {
          "name": "C#6",
          "midi": 85,
          "time": 52.11627906976479,
          "velocity": 0.3937007874015748,
          "duration": 0.04651162790696617
        },
        {
          "name": "G#6",
          "midi": 92,
          "time": 52.11627906976479,
          "velocity": 0.2755905511811024,
          "duration": 0.12790697674415696
        },
        {
          "name": "A5",
          "midi": 81,
          "time": 52.127906976741535,
          "velocity": 0.1889763779527559,
          "duration": 0.04651162790696617
        },
        {
          "name": "E6",
          "midi": 88,
          "time": 52.127906976741535,
          "velocity": 0.25196850393700787,
          "duration": 0.1395348837208985
        },
        {
          "name": "C#2",
          "midi": 37,
          "time": 52.13953488371828,
          "velocity": 0.14960629921259844,
          "duration": 0.034883720930224626
        },
        {
          "name": "G5",
          "midi": 79,
          "time": 52.13953488371828,
          "velocity": 0.2283464566929134,
          "duration": 0.04651162790696617
        },
        {
          "name": "B5",
          "midi": 83,
          "time": 52.13953488371828,
          "velocity": 0.2125984251968504,
          "duration": 0.04651162790696617
        },
        {
          "name": "D#5",
          "midi": 75,
          "time": 52.15116279069502,
          "velocity": 0.25196850393700787,
          "duration": 0.06976744186044925
        },
        {
          "name": "F5",
          "midi": 77,
          "time": 52.15116279069502,
          "velocity": 0.1732283464566929,
          "duration": 0.09302325581393234
        },
        {
          "name": "D#6",
          "midi": 87,
          "time": 52.15116279069502,
          "velocity": 0.2992125984251969,
          "duration": 0.04651162790696617
        },
        {
          "name": "A6",
          "midi": 93,
          "time": 52.15116279069502,
          "velocity": 0.3228346456692913,
          "duration": 0.10465116279067388
        },
        {
          "name": "C7",
          "midi": 96,
          "time": 52.15116279069502,
          "velocity": 0.3228346456692913,
          "duration": 0.09302325581393234
        },
        {
          "name": "G7",
          "midi": 103,
          "time": 52.15116279069502,
          "velocity": 0.2047244094488189,
          "duration": 0.06976744186044925
        },
        {
          "name": "C6",
          "midi": 84,
          "time": 52.16279069767176,
          "velocity": 0.4566929133858268,
          "duration": 0.034883720930224626
        },
        {
          "name": "F#6",
          "midi": 90,
          "time": 52.16279069767176,
          "velocity": 0.23622047244094488,
          "duration": 0.06976744186044925
        },
        {
          "name": "D7",
          "midi": 98,
          "time": 52.16279069767176,
          "velocity": 0.2440944881889764,
          "duration": 0.0813953488371908
        },
        {
          "name": "F7",
          "midi": 101,
          "time": 52.16279069767176,
          "velocity": 0.15748031496062992,
          "duration": 0.05813953488370771
        },
        {
          "name": "A3",
          "midi": 57,
          "time": 52.1744186046485,
          "velocity": 0.2283464566929134,
          "duration": 0.023255813953483084
        },
        {
          "name": "C4",
          "midi": 60,
          "time": 52.1744186046485,
          "velocity": 0.23622047244094488,
          "duration": 0.034883720930224626
        },
        {
          "name": "C#6",
          "midi": 85,
          "time": 52.1744186046485,
          "velocity": 0.4251968503937008,
          "duration": 0.0813953488371908
        },
        {
          "name": "B6",
          "midi": 95,
          "time": 52.1744186046485,
          "velocity": 0.25196850393700787,
          "duration": 0.11627906976741542
        },
        {
          "name": "G#5",
          "midi": 80,
          "time": 52.18604651162524,
          "velocity": 0.09448818897637795,
          "duration": 0.034883720930224626
        },
        {
          "name": "A#5",
          "midi": 82,
          "time": 52.18604651162524,
          "velocity": 0.25984251968503935,
          "duration": 0.034883720930224626
        },
        {
          "name": "G#3",
          "midi": 56,
          "time": 52.209302325578726,
          "velocity": 0.13385826771653545,
          "duration": 0.04651162790696617
        },
        {
          "name": "C#4",
          "midi": 61,
          "time": 52.209302325578726,
          "velocity": 0.14173228346456693,
          "duration": 0.04651162790696617
        },
        {
          "name": "G5",
          "midi": 79,
          "time": 52.209302325578726,
          "velocity": 0.1732283464566929,
          "duration": 0.04651162790696617
        },
        {
          "name": "C6",
          "midi": 84,
          "time": 52.209302325578726,
          "velocity": 0.2283464566929134,
          "duration": 0.023255813953483084
        },
        {
          "name": "B4",
          "midi": 71,
          "time": 52.22093023255547,
          "velocity": 0.11811023622047244,
          "duration": 0.034883720930224626
        },
        {
          "name": "D#5",
          "midi": 75,
          "time": 52.23255813953221,
          "velocity": 0.2677165354330709,
          "duration": 0.034883720930224626
        },
        {
          "name": "G3",
          "midi": 55,
          "time": 52.25581395348569,
          "velocity": 0.4409448818897638,
          "duration": 0.034883720930224626
        },
        {
          "name": "D#4",
          "midi": 63,
          "time": 52.25581395348569,
          "velocity": 0.2755905511811024,
          "duration": 0.04651162790696617
        },
        {
          "name": "G#4",
          "midi": 68,
          "time": 52.25581395348569,
          "velocity": 0.4409448818897638,
          "duration": 0.25581395348833524
        },
        {
          "name": "C5",
          "midi": 72,
          "time": 52.25581395348569,
          "velocity": 0.3464566929133858,
          "duration": 0.11627906976742963
        },
        {
          "name": "F#5",
          "midi": 78,
          "time": 52.25581395348569,
          "velocity": 0.2047244094488189,
          "duration": 0.034883720930224626
        },
        {
          "name": "D6",
          "midi": 86,
          "time": 52.25581395348569,
          "velocity": 0.11811023622047244,
          "duration": 0.034883720930224626
        },
        {
          "name": "C#7",
          "midi": 97,
          "time": 52.267441860462434,
          "velocity": 0.3228346456692913,
          "duration": 0.5581395348836367
        },
        {
          "name": "C#3",
          "midi": 49,
          "time": 52.279069767439175,
          "velocity": 0.3937007874015748,
          "duration": 0.023255813953483084
        },
        {
          "name": "D#5",
          "midi": 75,
          "time": 52.279069767439175,
          "velocity": 0.2755905511811024,
          "duration": 0.15116279069766136
        },
        {
          "name": "G#3",
          "midi": 56,
          "time": 52.29069767441592,
          "velocity": 0.3543307086614173,
          "duration": 0.1627906976744029
        },
        {
          "name": "G6",
          "midi": 91,
          "time": 52.29069767441592,
          "velocity": 0.07086614173228346,
          "duration": 0.03488372093023173
        },
        {
          "name": "C#6",
          "midi": 85,
          "time": 52.30232558139266,
          "velocity": 0.12598425196850394,
          "duration": 0.03488372093023173
        },
        {
          "name": "D#4",
          "midi": 63,
          "time": 52.32558139534615,
          "velocity": 0.30708661417322836,
          "duration": 0.4883720930231803
        },
        {
          "name": "C#6",
          "midi": 85,
          "time": 52.34883720929963,
          "velocity": 0.23622047244094488,
          "duration": 0.09302325581394655
        },
        {
          "name": "C5",
          "midi": 72,
          "time": 52.38372093022986,
          "velocity": 0.3464566929133858,
          "duration": 0.3488372093022605
        },
        {
          "name": "D6",
          "midi": 86,
          "time": 52.40697674418335,
          "velocity": 0.08661417322834646,
          "duration": 0.06976744186044925
        },
        {
          "name": "G1",
          "midi": 31,
          "time": 52.418604651160095,
          "velocity": 0.3543307086614173,
          "duration": 0.023255813953483084
        },
        {
          "name": "B5",
          "midi": 83,
          "time": 52.418604651160095,
          "velocity": 0.1968503937007874,
          "duration": 0.06976744186044925
        },
        {
          "name": "F7",
          "midi": 101,
          "time": 52.418604651160095,
          "velocity": 0.10236220472440945,
          "duration": 0.04651162790696617
        },
        {
          "name": "A2",
          "midi": 45,
          "time": 52.43023255813684,
          "velocity": 0.3543307086614173,
          "duration": 0.023255813953483084
        },
        {
          "name": "F#6",
          "midi": 90,
          "time": 52.44186046511358,
          "velocity": 0.09448818897637795,
          "duration": 0.09302325581393234
        },
        {
          "name": "C#6",
          "midi": 85,
          "time": 52.46511627906706,
          "velocity": 0.2283464566929134,
          "duration": 0.04651162790696617
        },
        {
          "name": "A2",
          "midi": 45,
          "time": 52.4767441860438,
          "velocity": 0.2755905511811024,
          "duration": 0.023255813953483084
        },
        {
          "name": "C6",
          "midi": 84,
          "time": 52.4767441860438,
          "velocity": 0.41732283464566927,
          "duration": 0.3023255813952943
        },
        {
          "name": "G#3",
          "midi": 56,
          "time": 52.488372093020544,
          "velocity": 0.3700787401574803,
          "duration": 0.18604651162787178
        },
        {
          "name": "G6",
          "midi": 91,
          "time": 52.499999999997286,
          "velocity": 0.07086614173228346,
          "duration": 0.04651162790696617
        },
        {
          "name": "F5",
          "midi": 77,
          "time": 52.51162790697403,
          "velocity": 0.09448818897637795,
          "duration": 0.04651162790696617
        },
        {
          "name": "G#5",
          "midi": 80,
          "time": 52.51162790697403,
          "velocity": 0.29133858267716534,
          "duration": 0.18604651162787178
        },
        {
          "name": "E6",
          "midi": 88,
          "time": 52.51162790697403,
          "velocity": 0.12598425196850394,
          "duration": 0.034883720930224626
        },
        {
          "name": "G#2",
          "midi": 44,
          "time": 52.52325581395077,
          "velocity": 0.2677165354330709,
          "duration": 0.023255813953483084
        },
        {
          "name": "G#4",
          "midi": 68,
          "time": 52.52325581395077,
          "velocity": 0.44881889763779526,
          "duration": 0.6976744186045423
        },
        {
          "name": "D#5",
          "midi": 75,
          "time": 52.54651162790425,
          "velocity": 0.5039370078740157,
          "duration": 0.3720930232557649
        },
        {
          "name": "A2",
          "midi": 45,
          "time": 52.569767441857735,
          "velocity": 0.3858267716535433,
          "duration": 0.023255813953483084
        },
        {
          "name": "E6",
          "midi": 88,
          "time": 52.58139534883448,
          "velocity": 0.12598425196850394,
          "duration": 0.034883720930224626
        },
        {
          "name": "G#2",
          "midi": 44,
          "time": 52.59302325581122,
          "velocity": 0.4015748031496063,
          "duration": 0.023255813953483084
        },
        {
          "name": "B5",
          "midi": 83,
          "time": 52.59302325581122,
          "velocity": 0.2047244094488189,
          "duration": 0.05813953488370771
        },
        {
          "name": "G1",
          "midi": 31,
          "time": 52.60465116278796,
          "velocity": 0.3700787401574803,
          "duration": 0.023255813953483084
        },
        {
          "name": "D6",
          "midi": 86,
          "time": 52.6162790697647,
          "velocity": 0.1968503937007874,
          "duration": 0.10465116279068098
        },
        {
          "name": "G6",
          "midi": 91,
          "time": 52.6162790697647,
          "velocity": 0.13385826771653545,
          "duration": 0.034883720930224626
        },
        {
          "name": "C#6",
          "midi": 85,
          "time": 52.62790697674144,
          "velocity": 0.2283464566929134,
          "duration": 0.186046511627886
        },
        {
          "name": "F#6",
          "midi": 90,
          "time": 52.639534883718184,
          "velocity": 0.14173228346456693,
          "duration": 0.186046511627886
        },
        {
          "name": "C3",
          "midi": 48,
          "time": 52.674418604648416,
          "velocity": 0.29133858267716534,
          "duration": 0.023255813953483084
        },
        {
          "name": "G1",
          "midi": 31,
          "time": 52.68604651162516,
          "velocity": 0.3700787401574803,
          "duration": 0.023255813953483084
        },
        {
          "name": "G#3",
          "midi": 56,
          "time": 52.68604651162516,
          "velocity": 0.2440944881889764,
          "duration": 0.034883720930224626
        },
        {
          "name": "F#5",
          "midi": 78,
          "time": 52.6976744186019,
          "velocity": 0.2440944881889764,
          "duration": 0.023255813953483084
        },
        {
          "name": "F#1",
          "midi": 30,
          "time": 52.70930232557864,
          "velocity": 0.3937007874015748,
          "duration": 0.09302325581394655
        },
        {
          "name": "F5",
          "midi": 77,
          "time": 52.70930232557864,
          "velocity": 0.2283464566929134,
          "duration": 0.04651162790696617
        },
        {
          "name": "G3",
          "midi": 55,
          "time": 52.72093023255538,
          "velocity": 0.2440944881889764,
          "duration": 0.023255813953483084
        },
        {
          "name": "A#5",
          "midi": 82,
          "time": 52.72093023255538,
          "velocity": 0.15748031496062992,
          "duration": 0.034883720930224626
        },
        {
          "name": "G6",
          "midi": 91,
          "time": 52.72093023255538,
          "velocity": 0.09448818897637795,
          "duration": 0.034883720930224626
        },
        {
          "name": "C#3",
          "midi": 49,
          "time": 52.732558139532124,
          "velocity": 0.25984251968503935,
          "duration": 0.023255813953483084
        },
        {
          "name": "C5",
          "midi": 72,
          "time": 52.75581395348561,
          "velocity": 0.33070866141732286,
          "duration": 0.22093023255811772
        },
        {
          "name": "B5",
          "midi": 83,
          "time": 52.75581395348561,
          "velocity": 0.16535433070866143,
          "duration": 0.05813953488372192
        },
        {
          "name": "A3",
          "midi": 57,
          "time": 52.80232558139259,
          "velocity": 0.2440944881889764,
          "duration": 0.023255813953483084
        },
        {
          "name": "C6",
          "midi": 84,
          "time": 52.80232558139259,
          "velocity": 0.3858267716535433,
          "duration": 0.13953488372091272
        },
        {
          "name": "G#3",
          "midi": 56,
          "time": 52.82558139534607,
          "velocity": 0.25196850393700787,
          "duration": 0.13953488372091272
        },
        {
          "name": "C#6",
          "midi": 85,
          "time": 52.83720930232281,
          "velocity": 0.14173228346456693,
          "duration": 0.03488372093023173
        },
        {
          "name": "A2",
          "midi": 45,
          "time": 52.87209302325304,
          "velocity": 0.3464566929133858,
          "duration": 0.023255813953483084
        },
        {
          "name": "D#4",
          "midi": 63,
          "time": 52.87209302325304,
          "velocity": 0.36220472440944884,
          "duration": 0.2790697674418112
        },
        {
          "name": "F#6",
          "midi": 90,
          "time": 52.87209302325304,
          "velocity": 0.15748031496062992,
          "duration": 0.1395348837209056
        },
        {
          "name": "C#6",
          "midi": 85,
          "time": 52.883720930229785,
          "velocity": 0.18110236220472442,
          "duration": 0.1395348837209056
        },
        {
          "name": "E6",
          "midi": 88,
          "time": 52.883720930229785,
          "velocity": 0.07086614173228346,
          "duration": 0.046511627906973274
        },
        {
          "name": "F1",
          "midi": 29,
          "time": 52.89534883720653,
          "velocity": 0.3700787401574803,
          "duration": 0.02325581395349019
        },
        {
          "name": "G#2",
          "midi": 44,
          "time": 52.89534883720653,
          "velocity": 0.3543307086614173,
          "duration": 0.02325581395349019
        },
        {
          "name": "F6",
          "midi": 89,
          "time": 52.89534883720653,
          "velocity": 0.13385826771653545,
          "duration": 0.046511627906973274
        },
        {
          "name": "E5",
          "midi": 76,
          "time": 52.91860465116002,
          "velocity": 0.29133858267716534,
          "duration": 0.023255813953483084
        },
        {
          "name": "B5",
          "midi": 83,
          "time": 52.91860465116002,
          "velocity": 0.14960629921259844,
          "duration": 0.05813953488370771
        },
        {
          "name": "G6",
          "midi": 91,
          "time": 52.91860465116002,
          "velocity": 0.16535433070866143,
          "duration": 0.04651162790696617
        },
        {
          "name": "E1",
          "midi": 28,
          "time": 52.93023255813676,
          "velocity": 0.3543307086614173,
          "duration": 0.023255813953483084
        },
        {
          "name": "F#2",
          "midi": 42,
          "time": 52.93023255813676,
          "velocity": 0.30708661417322836,
          "duration": 0.023255813953483084
        },
        {
          "name": "D#6",
          "midi": 87,
          "time": 52.93023255813676,
          "velocity": 0.08661417322834646,
          "duration": 0.034883720930224626
        },
        {
          "name": "A#6",
          "midi": 94,
          "time": 52.95348837209024,
          "velocity": 0.09448818897637795,
          "duration": 0.034883720930224626
        },
        {
          "name": "G3",
          "midi": 55,
          "time": 52.96511627906698,
          "velocity": 0.2440944881889764,
          "duration": 0.034883720930224626
        },
        {
          "name": "G#2",
          "midi": 44,
          "time": 52.976744186043724,
          "velocity": 0.3700787401574803,
          "duration": 0.0813953488371908
        },
        {
          "name": "D6",
          "midi": 86,
          "time": 52.976744186043724,
          "velocity": 0.14173228346456693,
          "duration": 0.04651162790696617
        },
        {
          "name": "B5",
          "midi": 83,
          "time": 52.988372093020466,
          "velocity": 0.18110236220472442,
          "duration": 0.0813953488371908
        },
        {
          "name": "D#1",
          "midi": 27,
          "time": 52.99999999999721,
          "velocity": 0.33858267716535434,
          "duration": 0.023255813953483084
        },
        {
          "name": "C#7",
          "midi": 97,
          "time": 53.01162790697395,
          "velocity": 0.23622047244094488,
          "duration": 0.3023255813952943
        },
        {
          "name": "G#3",
          "midi": 56,
          "time": 53.02325581395069,
          "velocity": 0.3779527559055118,
          "duration": 0.23255813953484505
        },
        {
          "name": "C5",
          "midi": 72,
          "time": 53.02325581395069,
          "velocity": 0.4015748031496063,
          "duration": 0.5465116279068809
        },
        {
          "name": "F#5",
          "midi": 78,
          "time": 53.02325581395069,
          "velocity": 0.18110236220472442,
          "duration": 0.034883720930224626
        },
        {
          "name": "D#1",
          "midi": 27,
          "time": 53.03488372092743,
          "velocity": 0.33070866141732286,
          "duration": 0.023255813953483084
        },
        {
          "name": "E5",
          "midi": 76,
          "time": 53.03488372092743,
          "velocity": 0.16535433070866143,
          "duration": 0.034883720930224626
        },
        {
          "name": "C#6",
          "midi": 85,
          "time": 53.046511627904174,
          "velocity": 0.2440944881889764,
          "duration": 0.058139534883714816
        },
        {
          "name": "D#5",
          "midi": 75,
          "time": 53.06976744185766,
          "velocity": 0.4409448818897638,
          "duration": 0.39534883720924086
        },
        {
          "name": "E6",
          "midi": 88,
          "time": 53.06976744185766,
          "velocity": 0.1732283464566929,
          "duration": 0.058139534883714816
        },
        {
          "name": "C6",
          "midi": 84,
          "time": 53.0813953488344,
          "velocity": 0.4251968503937008,
          "duration": 0.23255813953484505
        },
        {
          "name": "G6",
          "midi": 91,
          "time": 53.0813953488344,
          "velocity": 0.14960629921259844,
          "duration": 0.03488372093023173
        },
        {
          "name": "A2",
          "midi": 45,
          "time": 53.11627906976463,
          "velocity": 0.33070866141732286,
          "duration": 0.058139534883714816
        },
        {
          "name": "B5",
          "midi": 83,
          "time": 53.11627906976463,
          "velocity": 0.2440944881889764,
          "duration": 0.06976744186045636
        },
        {
          "name": "D6",
          "midi": 86,
          "time": 53.11627906976463,
          "velocity": 0.1732283464566929,
          "duration": 0.058139534883714816
        },
        {
          "name": "D1",
          "midi": 26,
          "time": 53.12790697674137,
          "velocity": 0.2677165354330709,
          "duration": 0.023255813953483084
        },
        {
          "name": "F6",
          "midi": 89,
          "time": 53.12790697674137,
          "velocity": 0.09448818897637795,
          "duration": 0.046511627906973274
        },
        {
          "name": "F#6",
          "midi": 90,
          "time": 53.13953488371811,
          "velocity": 0.13385826771653545,
          "duration": 0.046511627906973274
        },
        {
          "name": "F4",
          "midi": 65,
          "time": 53.151162790694855,
          "velocity": 0.5196850393700787,
          "duration": 0.1395348837209056
        },
        {
          "name": "F2",
          "midi": 41,
          "time": 53.174418604648345,
          "velocity": 0.3543307086614173,
          "duration": 0.023255813953483084
        },
        {
          "name": "C#6",
          "midi": 85,
          "time": 53.18604651162509,
          "velocity": 0.16535433070866143,
          "duration": 0.04651162790696617
        },
        {
          "name": "D6",
          "midi": 86,
          "time": 53.20930232557857,
          "velocity": 0.12598425196850394,
          "duration": 0.05813953488370771
        },
        {
          "name": "G6",
          "midi": 91,
          "time": 53.22093023255531,
          "velocity": 0.13385826771653545,
          "duration": 0.034883720930224626
        },
        {
          "name": "G#2",
          "midi": 44,
          "time": 53.23255813953205,
          "velocity": 0.3779527559055118,
          "duration": 0.023255813953483084
        },
        {
          "name": "F#6",
          "midi": 90,
          "time": 53.244186046508794,
          "velocity": 0.12598425196850394,
          "duration": 0.05813953488370771
        },
        {
          "name": "G2",
          "midi": 43,
          "time": 53.255813953485536,
          "velocity": 0.3543307086614173,
          "duration": 0.023255813953483084
        },
        {
          "name": "A#5",
          "midi": 82,
          "time": 53.255813953485536,
          "velocity": 0.14173228346456693,
          "duration": 0.09302325581393234
        },
        {
          "name": "C#6",
          "midi": 85,
          "time": 53.255813953485536,
          "velocity": 0.1968503937007874,
          "duration": 0.0813953488371908
        },
        {
          "name": "E6",
          "midi": 88,
          "time": 53.255813953485536,
          "velocity": 0.11023622047244094,
          "duration": 0.034883720930224626
        },
        {
          "name": "G#2",
          "midi": 44,
          "time": 53.27906976743902,
          "velocity": 0.3779527559055118,
          "duration": 0.023255813953483084
        },
        {
          "name": "G#3",
          "midi": 56,
          "time": 53.27906976743902,
          "velocity": 0.3937007874015748,
          "duration": 0.1395348837209056
        },
        {
          "name": "E4",
          "midi": 64,
          "time": 53.29069767441576,
          "velocity": 0.5275590551181102,
          "duration": 0.011627906976741542
        },
        {
          "name": "D6",
          "midi": 86,
          "time": 53.29069767441576,
          "velocity": 0.12598425196850394,
          "duration": 0.034883720930224626
        },
        {
          "name": "D#4",
          "midi": 63,
          "time": 53.3023255813925,
          "velocity": 0.6062992125984252,
          "duration": 0.31395348837203585
        },
        {
          "name": "A2",
          "midi": 45,
          "time": 53.34883720929947,
          "velocity": 0.28346456692913385,
          "duration": 0.023255813953483084
        },
        {
          "name": "F5",
          "midi": 77,
          "time": 53.34883720929947,
          "velocity": 0.2755905511811024,
          "duration": 0.023255813953483084
        },
        {
          "name": "F#6",
          "midi": 90,
          "time": 53.34883720929947,
          "velocity": 0.11811023622047244,
          "duration": 0.13953488372091272
        },
        {
          "name": "G#5",
          "midi": 80,
          "time": 53.36046511627621,
          "velocity": 0.41732283464566927,
          "duration": 0.11627906976742963
        },
        {
          "name": "C#6",
          "midi": 85,
          "time": 53.36046511627621,
          "velocity": 0.2125984251968504,
          "duration": 0.058139534883714816
        },
        {
          "name": "B5",
          "midi": 83,
          "time": 53.37209302325295,
          "velocity": 0.2283464566929134,
          "duration": 0.058139534883714816
        },
        {
          "name": "F7",
          "midi": 101,
          "time": 53.38372093022969,
          "velocity": 0.07874015748031496,
          "duration": 0.046511627906973274
        },
        {
          "name": "A2",
          "midi": 45,
          "time": 53.395348837206434,
          "velocity": 0.2440944881889764,
          "duration": 0.02325581395349019
        },
        {
          "name": "G#3",
          "midi": 56,
          "time": 53.430232558136666,
          "velocity": 0.41732283464566927,
          "duration": 0.12790697674416407
        },
        {
          "name": "F5",
          "midi": 77,
          "time": 53.430232558136666,
          "velocity": 0.07086614173228346,
          "duration": 0.03488372093023173
        },
        {
          "name": "A#5",
          "midi": 82,
          "time": 53.430232558136666,
          "velocity": 0.28346456692913385,
          "duration": 0.058139534883714816
        },
        {
          "name": "A5",
          "midi": 81,
          "time": 53.453488372090156,
          "velocity": 0.28346456692913385,
          "duration": 0.034883720930224626
        },
        {
          "name": "B5",
          "midi": 83,
          "time": 53.453488372090156,
          "velocity": 0.3464566929133858,
          "duration": 0.04651162790696617
        },
        {
          "name": "C#6",
          "midi": 85,
          "time": 53.453488372090156,
          "velocity": 0.15748031496062992,
          "duration": 0.05813953488370771
        },
        {
          "name": "C6",
          "midi": 84,
          "time": 53.47674418604364,
          "velocity": 0.41732283464566927,
          "duration": 0.19767441860461332
        },
        {
          "name": "G6",
          "midi": 91,
          "time": 53.48837209302038,
          "velocity": 0.12598425196850394,
          "duration": 0.0813953488371908
        },
        {
          "name": "C#3",
          "midi": 49,
          "time": 53.49999999999712,
          "velocity": 0.25196850393700787,
          "duration": 0.023255813953483084
        },
        {
          "name": "C#7",
          "midi": 97,
          "time": 53.523255813950605,
          "velocity": 0.15748031496062992,
          "duration": 0.25581395348832814
        },
        {
          "name": "G#2",
          "midi": 44,
          "time": 53.53488372092735,
          "velocity": 0.3543307086614173,
          "duration": 0.034883720930224626
        },
        {
          "name": "D6",
          "midi": 86,
          "time": 53.54651162790409,
          "velocity": 0.07086614173228346,
          "duration": 0.034883720930224626
        },
        {
          "name": "A3",
          "midi": 57,
          "time": 53.55813953488083,
          "velocity": 0.28346456692913385,
          "duration": 0.04651162790696617
        },
        {
          "name": "C#5",
          "midi": 73,
          "time": 53.56976744185757,
          "velocity": 0.1889763779527559,
          "duration": 0.034883720930224626
        },
        {
          "name": "C5",
          "midi": 72,
          "time": 53.58139534883431,
          "velocity": 0.2204724409448819,
          "duration": 0.05813953488370771
        },
        {
          "name": "F#5",
          "midi": 78,
          "time": 53.58139534883431,
          "velocity": 0.2047244094488189,
          "duration": 0.034883720930224626
        },
        {
          "name": "E6",
          "midi": 88,
          "time": 53.58139534883431,
          "velocity": 0.14173228346456693,
          "duration": 0.04651162790696617
        },
        {
          "name": "A#4",
          "midi": 70,
          "time": 53.593023255811055,
          "velocity": 0.3543307086614173,
          "duration": 0.3255813953487774
        },
        {
          "name": "F5",
          "midi": 77,
          "time": 53.593023255811055,
          "velocity": 0.3937007874015748,
          "duration": 0.11627906976742253
        },
        {
          "name": "G6",
          "midi": 91,
          "time": 53.593023255811055,
          "velocity": 0.11811023622047244,
          "duration": 0.034883720930224626
        },
        {
          "name": "A#2",
          "midi": 46,
          "time": 53.61627906976454,
          "velocity": 0.31496062992125984,
          "duration": 0.023255813953483084
        },
        {
          "name": "C#4",
          "midi": 61,
          "time": 53.61627906976454,
          "velocity": 0.4409448818897638,
          "duration": 0.15116279069765426
        },
        {
          "name": "F4",
          "midi": 65,
          "time": 53.63953488371802,
          "velocity": 0.33858267716535434,
          "duration": 0.046511627906973274
        },
        {
          "name": "D#5",
          "midi": 75,
          "time": 53.63953488371802,
          "velocity": 0.2047244094488189,
          "duration": 0.12790697674417117
        },
        {
          "name": "C#6",
          "midi": 85,
          "time": 53.67441860464825,
          "velocity": 0.44881889763779526,
          "duration": 0.4069767441859753
        },
        {
          "name": "A#3",
          "midi": 58,
          "time": 53.686046511624994,
          "velocity": 0.3937007874015748,
          "duration": 0.034883720930224626
        },
        {
          "name": "G#4",
          "midi": 68,
          "time": 53.686046511624994,
          "velocity": 0.1889763779527559,
          "duration": 0.04651162790696617
        },
        {
          "name": "G6",
          "midi": 91,
          "time": 53.686046511624994,
          "velocity": 0.09448818897637795,
          "duration": 0.04651162790696617
        },
        {
          "name": "A#5",
          "midi": 82,
          "time": 53.697674418601736,
          "velocity": 0.36220472440944884,
          "duration": 0.17441860465113024
        },
        {
          "name": "A#2",
          "midi": 46,
          "time": 53.72093023255522,
          "velocity": 0.33858267716535434,
          "duration": 0.058139534883714816
        },
        {
          "name": "F4",
          "midi": 65,
          "time": 53.72093023255522,
          "velocity": 0.3464566929133858,
          "duration": 0.0813953488371979
        },
        {
          "name": "E6",
          "midi": 88,
          "time": 53.72093023255522,
          "velocity": 0.14173228346456693,
          "duration": 0.046511627906973274
        },
        {
          "name": "F#6",
          "midi": 90,
          "time": 53.73255813953196,
          "velocity": 0.13385826771653545,
          "duration": 0.046511627906973274
        },
        {
          "name": "C6",
          "midi": 84,
          "time": 53.7441860465087,
          "velocity": 0.3543307086614173,
          "duration": 0.058139534883714816
        },
        {
          "name": "A#2",
          "midi": 46,
          "time": 53.790697674415675,
          "velocity": 0.25984251968503935,
          "duration": 0.023255813953483084
        },
        {
          "name": "D#5",
          "midi": 75,
          "time": 53.790697674415675,
          "velocity": 0.1968503937007874,
          "duration": 0.04651162790696617
        },
        {
          "name": "G#6",
          "midi": 92,
          "time": 53.790697674415675,
          "velocity": 0.11811023622047244,
          "duration": 0.04651162790696617
        },
        {
          "name": "C#4",
          "midi": 61,
          "time": 53.80232558139242,
          "velocity": 0.4015748031496063,
          "duration": 0.06976744186044925
        },
        {
          "name": "B2",
          "midi": 47,
          "time": 53.81395348836916,
          "velocity": 0.3228346456692913,
          "duration": 0.023255813953483084
        },
        {
          "name": "G#5",
          "midi": 80,
          "time": 53.81395348836916,
          "velocity": 0.10236220472440945,
          "duration": 0.034883720930224626
        },
        {
          "name": "F4",
          "midi": 65,
          "time": 53.8255813953459,
          "velocity": 0.23622047244094488,
          "duration": 0.04651162790696617
        },
        {
          "name": "B5",
          "midi": 83,
          "time": 53.8255813953459,
          "velocity": 0.12598425196850394,
          "duration": 0.034883720930224626
        },
        {
          "name": "G6",
          "midi": 91,
          "time": 53.8255813953459,
          "velocity": 0.11811023622047244,
          "duration": 0.04651162790696617
        },
        {
          "name": "F#5",
          "midi": 78,
          "time": 53.860465116276124,
          "velocity": 0.23622047244094488,
          "duration": 0.04651162790696617
        },
        {
          "name": "B5",
          "midi": 83,
          "time": 53.872093023252866,
          "velocity": 0.2440944881889764,
          "duration": 0.06976744186044925
        },
        {
          "name": "F6",
          "midi": 89,
          "time": 53.872093023252866,
          "velocity": 0.10236220472440945,
          "duration": 0.11627906976742253
        },
        {
          "name": "G#6",
          "midi": 92,
          "time": 53.872093023252866,
          "velocity": 0.12598425196850394,
          "duration": 0.04651162790696617
        },
        {
          "name": "D#4",
          "midi": 63,
          "time": 53.88372093022961,
          "velocity": 0.2992125984251969,
          "duration": 0.034883720930224626
        },
        {
          "name": "G#5",
          "midi": 80,
          "time": 53.89534883720635,
          "velocity": 0.1968503937007874,
          "duration": 0.04651162790696617
        },
        {
          "name": "C4",
          "midi": 60,
          "time": 53.90697674418309,
          "velocity": 0.5196850393700787,
          "duration": 0.023255813953483084
        },
        {
          "name": "G#4",
          "midi": 68,
          "time": 53.90697674418309,
          "velocity": 0.15748031496062992,
          "duration": 0.04651162790696617
        },
        {
          "name": "F5",
          "midi": 77,
          "time": 53.90697674418309,
          "velocity": 0.4881889763779528,
          "duration": 0.31395348837205006
        },
        {
          "name": "C6",
          "midi": 84,
          "time": 53.90697674418309,
          "velocity": 0.23622047244094488,
          "duration": 0.023255813953483084
        },
        {
          "name": "F4",
          "midi": 65,
          "time": 53.91860465115983,
          "velocity": 0.44881889763779526,
          "duration": 0.23255813953485216
        },
        {
          "name": "C#5",
          "midi": 73,
          "time": 53.91860465115983,
          "velocity": 0.2125984251968504,
          "duration": 0.04651162790696617
        },
        {
          "name": "G6",
          "midi": 91,
          "time": 53.91860465115983,
          "velocity": 0.14173228346456693,
          "duration": 0.09302325581393944
        },
        {
          "name": "C#4",
          "midi": 61,
          "time": 53.930232558136574,
          "velocity": 0.6299212598425197,
          "duration": 0.22093023255811062
        },
        {
          "name": "A#4",
          "midi": 70,
          "time": 53.930232558136574,
          "velocity": 0.3228346456692913,
          "duration": 0.1627906976743958
        },
        {
          "name": "A2",
          "midi": 45,
          "time": 53.941860465113315,
          "velocity": 0.2440944881889764,
          "duration": 0.023255813953483084
        },
        {
          "name": "A#5",
          "midi": 82,
          "time": 53.941860465113315,
          "velocity": 0.4409448818897638,
          "duration": 0.186046511627886
        },
        {
          "name": "D#5",
          "midi": 75,
          "time": 53.95348837209006,
          "velocity": 0.10236220472440945,
          "duration": 0.03488372093023173
        },
        {
          "name": "E6",
          "midi": 88,
          "time": 53.9651162790668,
          "velocity": 0.09448818897637795,
          "duration": 0.03488372093023173
        },
        {
          "name": "G#4",
          "midi": 68,
          "time": 53.99999999999703,
          "velocity": 0.1732283464566929,
          "duration": 0.046511627906973274
        },
        {
          "name": "G5",
          "midi": 79,
          "time": 53.99999999999703,
          "velocity": 0.2440944881889764,
          "duration": 0.03488372093023173
        },
        {
          "name": "D#6",
          "midi": 87,
          "time": 53.99999999999703,
          "velocity": 0.10236220472440945,
          "duration": 0.058139534883714816
        },
        {
          "name": "D6",
          "midi": 86,
          "time": 54.03488372092726,
          "velocity": 0.10236220472440945,
          "duration": 0.034883720930224626
        },
        {
          "name": "C3",
          "midi": 48,
          "time": 54.09302325581097,
          "velocity": 0.2440944881889764,
          "duration": 0.02325581395349019
        },
        {
          "name": "D#5",
          "midi": 75,
          "time": 54.09302325581097,
          "velocity": 0.11023622047244094,
          "duration": 0.03488372093023173
        },
        {
          "name": "C6",
          "midi": 84,
          "time": 54.09302325581097,
          "velocity": 0.25196850393700787,
          "duration": 0.03488372093023173
        },
        {
          "name": "C#6",
          "midi": 85,
          "time": 54.09302325581097,
          "velocity": 0.48031496062992124,
          "duration": 0.31395348837204295
        },
        {
          "name": "C#2",
          "midi": 37,
          "time": 54.11627906976446,
          "velocity": 0.2440944881889764,
          "duration": 0.023255813953483084
        },
        {
          "name": "A2",
          "midi": 45,
          "time": 54.11627906976446,
          "velocity": 0.2440944881889764,
          "duration": 0.034883720930224626
        },
        {
          "name": "G#5",
          "midi": 80,
          "time": 54.11627906976446,
          "velocity": 0.18110236220472442,
          "duration": 0.04651162790696617
        },
        {
          "name": "B5",
          "midi": 83,
          "time": 54.11627906976446,
          "velocity": 0.31496062992125984,
          "duration": 0.023255813953483084
        },
        {
          "name": "F#6",
          "midi": 90,
          "time": 54.1279069767412,
          "velocity": 0.08661417322834646,
          "duration": 0.034883720930224626
        },
        {
          "name": "A5",
          "midi": 81,
          "time": 54.13953488371794,
          "velocity": 0.11811023622047244,
          "duration": 0.034883720930224626
        },
        {
          "name": "D4",
          "midi": 62,
          "time": 54.151162790694684,
          "velocity": 0.23622047244094488,
          "duration": 0.023255813953483084
        },
        {
          "name": "A#4",
          "midi": 70,
          "time": 54.151162790694684,
          "velocity": 0.3228346456692913,
          "duration": 0.11627906976742963
        },
        {
          "name": "D6",
          "midi": 86,
          "time": 54.151162790694684,
          "velocity": 0.15748031496062992,
          "duration": 0.058139534883714816
        },
        {
          "name": "C#5",
          "midi": 73,
          "time": 54.162790697671426,
          "velocity": 0.31496062992125984,
          "duration": 0.10465116279068809
        },
        {
          "name": "C#4",
          "midi": 61,
          "time": 54.17441860464817,
          "velocity": 0.30708661417322836,
          "duration": 0.18604651162787889
        },
        {
          "name": "D#5",
          "midi": 75,
          "time": 54.17441860464817,
          "velocity": 0.11811023622047244,
          "duration": 0.058139534883714816
        },
        {
          "name": "G#5",
          "midi": 80,
          "time": 54.17441860464817,
          "velocity": 0.2125984251968504,
          "duration": 0.10465116279068809
        },
        {
          "name": "C6",
          "midi": 84,
          "time": 54.17441860464817,
          "velocity": 0.10236220472440945,
          "duration": 0.03488372093023173
        },
        {
          "name": "D#6",
          "midi": 87,
          "time": 54.17441860464817,
          "velocity": 0.11811023622047244,
          "duration": 0.11627906976742963
        },
        {
          "name": "G6",
          "midi": 91,
          "time": 54.17441860464817,
          "velocity": 0.14173228346456693,
          "duration": 0.03488372093023173
        },
        {
          "name": "F#6",
          "midi": 90,
          "time": 54.19767441860166,
          "velocity": 0.13385826771653545,
          "duration": 0.034883720930224626
        },
        {
          "name": "A2",
          "midi": 45,
          "time": 54.2093023255784,
          "velocity": 0.31496062992125984,
          "duration": 0.034883720930224626
        },
        {
          "name": "F4",
          "midi": 65,
          "time": 54.2093023255784,
          "velocity": 0.4409448818897638,
          "duration": 0.3488372093022747
        },
        {
          "name": "F6",
          "midi": 89,
          "time": 54.22093023255514,
          "velocity": 0.13385826771653545,
          "duration": 0.06976744186045636
        },
        {
          "name": "F5",
          "midi": 77,
          "time": 54.23255813953188,
          "velocity": 0.5039370078740157,
          "duration": 0.604651162790617
        },
        {
          "name": "A#5",
          "midi": 82,
          "time": 54.267441860462114,
          "velocity": 0.15748031496062992,
          "duration": 0.034883720930224626
        },
        {
          "name": "C6",
          "midi": 84,
          "time": 54.267441860462114,
          "velocity": 0.18110236220472442,
          "duration": 0.034883720930224626
        },
        {
          "name": "D6",
          "midi": 86,
          "time": 54.279069767438855,
          "velocity": 0.13385826771653545,
          "duration": 0.034883720930224626
        },
        {
          "name": "G5",
          "midi": 79,
          "time": 54.2906976744156,
          "velocity": 0.09448818897637795,
          "duration": 0.04651162790696617
        },
        {
          "name": "B5",
          "midi": 83,
          "time": 54.2906976744156,
          "velocity": 0.1732283464566929,
          "duration": 0.04651162790696617
        },
        {
          "name": "G#6",
          "midi": 92,
          "time": 54.2906976744156,
          "velocity": 0.10236220472440945,
          "duration": 0.034883720930224626
        },
        {
          "name": "A#4",
          "midi": 70,
          "time": 54.30232558139234,
          "velocity": 0.48031496062992124,
          "duration": 0.41860465116273105
        },
        {
          "name": "D#6",
          "midi": 87,
          "time": 54.30232558139234,
          "velocity": 0.13385826771653545,
          "duration": 0.06976744186044925
        },
        {
          "name": "A#3",
          "midi": 58,
          "time": 54.31395348836908,
          "velocity": 0.30708661417322836,
          "duration": 0.06976744186044925
        },
        {
          "name": "D#5",
          "midi": 75,
          "time": 54.31395348836908,
          "velocity": 0.10236220472440945,
          "duration": 0.034883720930224626
        },
        {
          "name": "G6",
          "midi": 91,
          "time": 54.31395348836908,
          "velocity": 0.10236220472440945,
          "duration": 0.05813953488370771
        },
        {
          "name": "A#2",
          "midi": 46,
          "time": 54.32558139534582,
          "velocity": 0.15748031496062992,
          "duration": 0.034883720930224626
        },
        {
          "name": "G#5",
          "midi": 80,
          "time": 54.32558139534582,
          "velocity": 0.12598425196850394,
          "duration": 0.10465116279067388
        },
        {
          "name": "A5",
          "midi": 81,
          "time": 54.32558139534582,
          "velocity": 0.25196850393700787,
          "duration": 0.023255813953483084
        },
        {
          "name": "C#5",
          "midi": 73,
          "time": 54.348837209299305,
          "velocity": 0.36220472440944884,
          "duration": 0.5232558139534191
        },
        {
          "name": "D6",
          "midi": 86,
          "time": 54.360465116276046,
          "velocity": 0.11811023622047244,
          "duration": 0.10465116279067388
        },
        {
          "name": "A#3",
          "midi": 58,
          "time": 54.39534883720627,
          "velocity": 0.33858267716535434,
          "duration": 0.04651162790696617
        },
        {
          "name": "C6",
          "midi": 84,
          "time": 54.418604651159754,
          "velocity": 0.2047244094488189,
          "duration": 0.034883720930224626
        },
        {
          "name": "C#6",
          "midi": 85,
          "time": 54.430232558136495,
          "velocity": 0.44881889763779526,
          "duration": 0.31395348837206427
        },
        {
          "name": "F#6",
          "midi": 90,
          "time": 54.430232558136495,
          "velocity": 0.16535433070866143,
          "duration": 0.034883720930224626
        },
        {
          "name": "C4",
          "midi": 60,
          "time": 54.44186046511324,
          "velocity": 0.5118110236220472,
          "duration": 0.011627906976741542
        },
        {
          "name": "B5",
          "midi": 83,
          "time": 54.44186046511324,
          "velocity": 0.23622047244094488,
          "duration": 0.046511627906973274
        },
        {
          "name": "B3",
          "midi": 59,
          "time": 54.45348837208998,
          "velocity": 0.6220472440944882,
          "duration": 0.011627906976741542
        },
        {
          "name": "A#3",
          "midi": 58,
          "time": 54.46511627906672,
          "velocity": 0.7086614173228346,
          "duration": 0.1046511627906952
        },
        {
          "name": "D#5",
          "midi": 75,
          "time": 54.49999999999695,
          "velocity": 0.11811023622047244,
          "duration": 0.05813953488372192
        },
        {
          "name": "D#6",
          "midi": 87,
          "time": 54.49999999999695,
          "velocity": 0.1968503937007874,
          "duration": 0.05813953488372192
        },
        {
          "name": "B5",
          "midi": 83,
          "time": 54.53488372092718,
          "velocity": 0.1732283464566929,
          "duration": 0.03488372093023173
        },
        {
          "name": "E6",
          "midi": 88,
          "time": 54.53488372092718,
          "velocity": 0.09448818897637795,
          "duration": 0.046511627906973274
        },
        {
          "name": "E4",
          "midi": 64,
          "time": 54.558139534880674,
          "velocity": 0.29133858267716534,
          "duration": 0.023255813953483084
        },
        {
          "name": "D6",
          "midi": 86,
          "time": 54.558139534880674,
          "velocity": 0.18110236220472442,
          "duration": 0.11627906976742253
        },
        {
          "name": "A3",
          "midi": 57,
          "time": 54.569767441857415,
          "velocity": 0.6141732283464567,
          "duration": 0.011627906976741542
        },
        {
          "name": "G#3",
          "midi": 56,
          "time": 54.58139534883416,
          "velocity": 0.6299212598425197,
          "duration": 0.2674418604650839
        },
        {
          "name": "F4",
          "midi": 65,
          "time": 54.58139534883416,
          "velocity": 0.4566929133858268,
          "duration": 0.19767441860462753
        },
        {
          "name": "C6",
          "midi": 84,
          "time": 54.5930232558109,
          "velocity": 0.14173228346456693,
          "duration": 0.058139534883714816
        },
        {
          "name": "D#6",
          "midi": 87,
          "time": 54.5930232558109,
          "velocity": 0.13385826771653545,
          "duration": 0.046511627906973274
        },
        {
          "name": "A#2",
          "midi": 46,
          "time": 54.60465116278764,
          "velocity": 0.28346456692913385,
          "duration": 0.046511627906973274
        },
        {
          "name": "C#4",
          "midi": 61,
          "time": 54.61627906976438,
          "velocity": 0.33858267716535434,
          "duration": 0.058139534883714816
        },
        {
          "name": "B5",
          "midi": 83,
          "time": 54.61627906976438,
          "velocity": 0.12598425196850394,
          "duration": 0.046511627906973274
        },
        {
          "name": "F#6",
          "midi": 90,
          "time": 54.61627906976438,
          "velocity": 0.16535433070866143,
          "duration": 0.046511627906973274
        },
        {
          "name": "A5",
          "midi": 81,
          "time": 54.63953488371787,
          "velocity": 0.31496062992125984,
          "duration": 0.034883720930224626
        },
        {
          "name": "B2",
          "midi": 47,
          "time": 54.65116279069461,
          "velocity": 0.2677165354330709,
          "duration": 0.023255813953483084
        },
        {
          "name": "D#6",
          "midi": 87,
          "time": 54.662790697671355,
          "velocity": 0.09448818897637795,
          "duration": 0.058139534883714816
        },
        {
          "name": "F#6",
          "midi": 90,
          "time": 54.68604651162484,
          "velocity": 0.11811023622047244,
          "duration": 0.11627906976742963
        },
        {
          "name": "D6",
          "midi": 86,
          "time": 54.70930232557833,
          "velocity": 0.11811023622047244,
          "duration": 0.046511627906973274
        },
        {
          "name": "G6",
          "midi": 91,
          "time": 54.70930232557833,
          "velocity": 0.07874015748031496,
          "duration": 0.046511627906973274
        },
        {
          "name": "B5",
          "midi": 83,
          "time": 54.72093023255507,
          "velocity": 0.12598425196850394,
          "duration": 0.03488372093023173
        },
        {
          "name": "A#4",
          "midi": 70,
          "time": 54.74418604650856,
          "velocity": 0.2125984251968504,
          "duration": 0.05813953488370771
        },
        {
          "name": "C6",
          "midi": 84,
          "time": 54.7558139534853,
          "velocity": 0.2677165354330709,
          "duration": 0.023255813953483084
        },
        {
          "name": "C#6",
          "midi": 85,
          "time": 54.7558139534853,
          "velocity": 0.49606299212598426,
          "duration": 0.546511627906888
        },
        {
          "name": "G#6",
          "midi": 92,
          "time": 54.7558139534853,
          "velocity": 0.12598425196850394,
          "duration": 0.05813953488370771
        },
        {
          "name": "A5",
          "midi": 81,
          "time": 54.76744186046204,
          "velocity": 0.15748031496062992,
          "duration": 0.034883720930224626
        },
        {
          "name": "D#6",
          "midi": 87,
          "time": 54.76744186046204,
          "velocity": 0.1889763779527559,
          "duration": 0.10465116279068098
        },
        {
          "name": "C#2",
          "midi": 37,
          "time": 54.790697674415526,
          "velocity": 0.2125984251968504,
          "duration": 0.046511627906973274
        },
        {
          "name": "F4",
          "midi": 65,
          "time": 54.790697674415526,
          "velocity": 0.3464566929133858,
          "duration": 0.0813953488371979
        },
        {
          "name": "G6",
          "midi": 91,
          "time": 54.790697674415526,
          "velocity": 0.07874015748031496,
          "duration": 0.06976744186045636
        },
        {
          "name": "A#4",
          "midi": 70,
          "time": 54.81395348836901,
          "velocity": 0.2204724409448819,
          "duration": 0.058139534883714816
        },
        {
          "name": "G#5",
          "midi": 80,
          "time": 54.8372093023225,
          "velocity": 0.16535433070866143,
          "duration": 0.034883720930224626
        },
        {
          "name": "A#3",
          "midi": 58,
          "time": 54.84883720929924,
          "velocity": 0.3858267716535433,
          "duration": 0.023255813953483084
        },
        {
          "name": "F6",
          "midi": 89,
          "time": 54.86046511627598,
          "velocity": 0.09448818897637795,
          "duration": 0.04651162790696617
        },
        {
          "name": "C#2",
          "midi": 37,
          "time": 54.872093023252724,
          "velocity": 0.2204724409448819,
          "duration": 0.04651162790696617
        },
        {
          "name": "A3",
          "midi": 57,
          "time": 54.872093023252724,
          "velocity": 0.3700787401574803,
          "duration": 0.023255813953483084
        },
        {
          "name": "F#4",
          "midi": 66,
          "time": 54.872093023252724,
          "velocity": 0.28346456692913385,
          "duration": 0.023255813953483084
        },
        {
          "name": "B5",
          "midi": 83,
          "time": 54.872093023252724,
          "velocity": 0.28346456692913385,
          "duration": 0.023255813953483084
        },
        {
          "name": "D6",
          "midi": 86,
          "time": 54.872093023252724,
          "velocity": 0.2440944881889764,
          "duration": 0.10465116279067388
        },
        {
          "name": "C#4",
          "midi": 61,
          "time": 54.883720930229465,
          "velocity": 0.29133858267716534,
          "duration": 0.09302325581393234
        },
        {
          "name": "G#4",
          "midi": 68,
          "time": 54.883720930229465,
          "velocity": 0.2440944881889764,
          "duration": 0.034883720930224626
        },
        {
          "name": "F5",
          "midi": 77,
          "time": 54.883720930229465,
          "velocity": 0.44881889763779526,
          "duration": 0.360465116279002
        },
        {
          "name": "G#3",
          "midi": 56,
          "time": 54.89534883720621,
          "velocity": 0.2283464566929134,
          "duration": 0.034883720930224626
        },
        {
          "name": "F4",
          "midi": 65,
          "time": 54.89534883720621,
          "velocity": 0.30708661417322836,
          "duration": 0.0813953488371908
        },
        {
          "name": "C#5",
          "midi": 73,
          "time": 54.89534883720621,
          "velocity": 0.31496062992125984,
          "duration": 0.09302325581393234
        },
        {
          "name": "A#5",
          "midi": 82,
          "time": 54.89534883720621,
          "velocity": 0.2283464566929134,
          "duration": 0.0813953488371908
        },
        {
          "name": "C6",
          "midi": 84,
          "time": 54.90697674418295,
          "velocity": 0.1732283464566929,
          "duration": 0.10465116279067388
        },
        {
          "name": "G#4",
          "midi": 68,
          "time": 54.93023255813643,
          "velocity": 0.5433070866141733,
          "duration": 0.5232558139534049
        },
        {
          "name": "F3",
          "midi": 53,
          "time": 54.94186046511317,
          "velocity": 0.2755905511811024,
          "duration": 0.0813953488371908
        },
        {
          "name": "A#2",
          "midi": 46,
          "time": 54.953488372089915,
          "velocity": 0.2677165354330709,
          "duration": 0.023255813953483084
        },
        {
          "name": "A#3",
          "midi": 58,
          "time": 54.965116279066656,
          "velocity": 0.31496062992125984,
          "duration": 0.04651162790696617
        },
        {
          "name": "D#5",
          "midi": 75,
          "time": 54.965116279066656,
          "velocity": 0.2204724409448819,
          "duration": 0.034883720930224626
        },
        {
          "name": "E6",
          "midi": 88,
          "time": 54.965116279066656,
          "velocity": 0.12598425196850394,
          "duration": 0.034883720930224626
        },
        {
          "name": "C5",
          "midi": 72,
          "time": 54.9767441860434,
          "velocity": 0.25196850393700787,
          "duration": 0.04651162790696617
        },
        {
          "name": "B5",
          "midi": 83,
          "time": 54.9767441860434,
          "velocity": 0.1732283464566929,
          "duration": 0.04651162790696617
        },
        {
          "name": "F4",
          "midi": 65,
          "time": 54.98837209302014,
          "velocity": 0.4566929133858268,
          "duration": 0.1627906976743958
        },
        {
          "name": "D5",
          "midi": 74,
          "time": 54.98837209302014,
          "velocity": 0.2125984251968504,
          "duration": 0.034883720930224626
        },
        {
          "name": "C#4",
          "midi": 61,
          "time": 55.023255813950364,
          "velocity": 0.41732283464566927,
          "duration": 0.31395348837205717
        },
        {
          "name": "A#5",
          "midi": 82,
          "time": 55.023255813950364,
          "velocity": 0.2047244094488189,
          "duration": 0.058139534883714816
        },
        {
          "name": "E6",
          "midi": 88,
          "time": 55.034883720927105,
          "velocity": 0.11023622047244094,
          "duration": 0.046511627906973274
        },
        {
          "name": "D6",
          "midi": 86,
          "time": 55.04651162790385,
          "velocity": 0.2125984251968504,
          "duration": 0.09302325581394655
        },
        {
          "name": "A#3",
          "midi": 58,
          "time": 55.09302325581082,
          "velocity": 0.2755905511811024,
          "duration": 0.03488372093023173
        },
        {
          "name": "D#5",
          "midi": 75,
          "time": 55.09302325581082,
          "velocity": 0.14173228346456693,
          "duration": 0.058139534883714816
        },
        {
          "name": "B5",
          "midi": 83,
          "time": 55.09302325581082,
          "velocity": 0.10236220472440945,
          "duration": 0.03488372093023173
        },
        {
          "name": "D#6",
          "midi": 87,
          "time": 55.12790697674105,
          "velocity": 0.2440944881889764,
          "duration": 0.06976744186044925
        },
        {
          "name": "A2",
          "midi": 45,
          "time": 55.13953488371779,
          "velocity": 0.25196850393700787,
          "duration": 0.023255813953483084
        },
        {
          "name": "F3",
          "midi": 53,
          "time": 55.13953488371779,
          "velocity": 0.31496062992125984,
          "duration": 0.06976744186044925
        },
        {
          "name": "A#5",
          "midi": 82,
          "time": 55.13953488371779,
          "velocity": 0.18110236220472442,
          "duration": 0.05813953488370771
        },
        {
          "name": "F#6",
          "midi": 90,
          "time": 55.13953488371779,
          "velocity": 0.10236220472440945,
          "duration": 0.04651162790696617
        },
        {
          "name": "E2",
          "midi": 40,
          "time": 55.16279069767128,
          "velocity": 0.2755905511811024,
          "duration": 0.023255813953483084
        },
        {
          "name": "C5",
          "midi": 72,
          "time": 55.16279069767128,
          "velocity": 0.1732283464566929,
          "duration": 0.034883720930224626
        },
        {
          "name": "F4",
          "midi": 65,
          "time": 55.17441860464802,
          "velocity": 0.3779527559055118,
          "duration": 0.06976744186044925
        },
        {
          "name": "F2",
          "midi": 41,
          "time": 55.18604651162476,
          "velocity": 0.28346456692913385,
          "duration": 0.023255813953483084
        },
        {
          "name": "G6",
          "midi": 91,
          "time": 55.18604651162476,
          "velocity": 0.09448818897637795,
          "duration": 0.04651162790696617
        },
        {
          "name": "D5",
          "midi": 74,
          "time": 55.1976744186015,
          "velocity": 0.29133858267716534,
          "duration": 0.023255813953483084
        },
        {
          "name": "F#5",
          "midi": 78,
          "time": 55.1976744186015,
          "velocity": 0.2204724409448819,
          "duration": 0.034883720930224626
        },
        {
          "name": "C#5",
          "midi": 73,
          "time": 55.220930232554984,
          "velocity": 0.4566929133858268,
          "duration": 0.12790697674417828
        },
        {
          "name": "D#5",
          "midi": 75,
          "time": 55.220930232554984,
          "velocity": 0.2440944881889764,
          "duration": 0.046511627906973274
        },
        {
          "name": "F3",
          "midi": 53,
          "time": 55.26744186046196,
          "velocity": 0.25984251968503935,
          "duration": 0.02325581395349019
        },
        {
          "name": "F5",
          "midi": 77,
          "time": 55.26744186046196,
          "velocity": 0.5039370078740157,
          "duration": 0.8488372093022036
        },
        {
          "name": "B5",
          "midi": 83,
          "time": 55.26744186046196,
          "velocity": 0.10236220472440945,
          "duration": 0.046511627906973274
        },
        {
          "name": "A#5",
          "midi": 82,
          "time": 55.29069767441545,
          "velocity": 0.12598425196850394,
          "duration": 0.046511627906973274
        },
        {
          "name": "F3",
          "midi": 53,
          "time": 55.30232558139219,
          "velocity": 0.30708661417322836,
          "duration": 0.0813953488371979
        },
        {
          "name": "D#5",
          "midi": 75,
          "time": 55.31395348836893,
          "velocity": 0.29133858267716534,
          "duration": 0.02325581395349019
        },
        {
          "name": "F#6",
          "midi": 90,
          "time": 55.33720930232242,
          "velocity": 0.09448818897637795,
          "duration": 0.0813953488371908
        },
        {
          "name": "F2",
          "midi": 41,
          "time": 55.360465116275904,
          "velocity": 0.2125984251968504,
          "duration": 0.034883720930224626
        },
        {
          "name": "C4",
          "midi": 60,
          "time": 55.372093023252646,
          "velocity": 0.29133858267716534,
          "duration": 0.034883720930224626
        },
        {
          "name": "E6",
          "midi": 88,
          "time": 55.372093023252646,
          "velocity": 0.10236220472440945,
          "duration": 0.034883720930224626
        },
        {
          "name": "G6",
          "midi": 91,
          "time": 55.372093023252646,
          "velocity": 0.07086614173228346,
          "duration": 0.06976744186044925
        },
        {
          "name": "F4",
          "midi": 65,
          "time": 55.38372093022939,
          "velocity": 0.4251968503937008,
          "duration": 0.17441860465113024
        },
        {
          "name": "C5",
          "midi": 72,
          "time": 55.39534883720613,
          "velocity": 0.29133858267716534,
          "duration": 0.034883720930224626
        },
        {
          "name": "F3",
          "midi": 53,
          "time": 55.40697674418287,
          "velocity": 0.3464566929133858,
          "duration": 0.7674418604649986
        },
        {
          "name": "C#4",
          "midi": 61,
          "time": 55.40697674418287,
          "velocity": 0.2755905511811024,
          "duration": 0.06976744186044925
        },
        {
          "name": "D6",
          "midi": 86,
          "time": 55.40697674418287,
          "velocity": 0.09448818897637795,
          "duration": 0.05813953488370771
        },
        {
          "name": "F2",
          "midi": 41,
          "time": 55.43023255813635,
          "velocity": 0.2755905511811024,
          "duration": 0.034883720930224626
        },
        {
          "name": "F#5",
          "midi": 78,
          "time": 55.43023255813635,
          "velocity": 0.2755905511811024,
          "duration": 0.023255813953483084
        },
        {
          "name": "D#5",
          "midi": 75,
          "time": 55.441860465113095,
          "velocity": 0.09448818897637795,
          "duration": 0.034883720930224626
        },
        {
          "name": "D#6",
          "midi": 87,
          "time": 55.441860465113095,
          "velocity": 0.14960629921259844,
          "duration": 0.11627906976742253
        },
        {
          "name": "G#4",
          "midi": 68,
          "time": 55.46511627906658,
          "velocity": 0.2755905511811024,
          "duration": 0.10465116279068098
        },
        {
          "name": "C#6",
          "midi": 85,
          "time": 55.46511627906658,
          "velocity": 0.23622047244094488,
          "duration": 0.20930232558136197
        },
        {
          "name": "A#5",
          "midi": 82,
          "time": 55.47674418604332,
          "velocity": 0.09448818897637795,
          "duration": 0.046511627906973274
        },
        {
          "name": "A#3",
          "midi": 58,
          "time": 55.49999999999681,
          "velocity": 0.1889763779527559,
          "duration": 0.034883720930224626
        },
        {
          "name": "C#5",
          "midi": 73,
          "time": 55.49999999999681,
          "velocity": 0.25984251968503935,
          "duration": 0.06976744186044925
        },
        {
          "name": "F2",
          "midi": 41,
          "time": 55.51162790697355,
          "velocity": 0.2440944881889764,
          "duration": 0.034883720930224626
        },
        {
          "name": "E6",
          "midi": 88,
          "time": 55.51162790697355,
          "velocity": 0.09448818897637795,
          "duration": 0.05813953488370771
        },
        {
          "name": "G6",
          "midi": 91,
          "time": 55.534883720927034,
          "velocity": 0.09448818897637795,
          "duration": 0.034883720930224626
        },
        {
          "name": "C#4",
          "midi": 61,
          "time": 55.546511627903776,
          "velocity": 0.3700787401574803,
          "duration": 0.3023255813953014
        },
        {
          "name": "C5",
          "midi": 72,
          "time": 55.55813953488052,
          "velocity": 0.18110236220472442,
          "duration": 0.034883720930224626
        },
        {
          "name": "F4",
          "midi": 65,
          "time": 55.56976744185726,
          "velocity": 0.4094488188976378,
          "duration": 0.20930232558135486
        },
        {
          "name": "G#4",
          "midi": 68,
          "time": 55.581395348834,
          "velocity": 0.5039370078740157,
          "duration": 0.27906976744181833
        },
        {
          "name": "C6",
          "midi": 84,
          "time": 55.59302325581074,
          "velocity": 0.12598425196850394,
          "duration": 0.03488372093023173
        },
        {
          "name": "D#5",
          "midi": 75,
          "time": 55.60465116278748,
          "velocity": 0.2125984251968504,
          "duration": 0.046511627906973274
        },
        {
          "name": "F#6",
          "midi": 90,
          "time": 55.627906976740974,
          "velocity": 0.16535433070866143,
          "duration": 0.12790697674415696
        },
        {
          "name": "D#6",
          "midi": 87,
          "time": 55.639534883717715,
          "velocity": 0.23622047244094488,
          "duration": 0.1395348837208985
        },
        {
          "name": "B5",
          "midi": 83,
          "time": 55.65116279069446,
          "velocity": 0.08661417322834646,
          "duration": 0.034883720930224626
        },
        {
          "name": "C6",
          "midi": 84,
          "time": 55.65116279069446,
          "velocity": 0.12598425196850394,
          "duration": 0.06976744186044925
        },
        {
          "name": "G6",
          "midi": 91,
          "time": 55.6627906976712,
          "velocity": 0.14960629921259844,
          "duration": 0.034883720930224626
        },
        {
          "name": "D#5",
          "midi": 75,
          "time": 55.709302325578165,
          "velocity": 0.07874015748031496,
          "duration": 0.034883720930224626
        },
        {
          "name": "A#5",
          "midi": 82,
          "time": 55.720930232554906,
          "velocity": 0.11811023622047244,
          "duration": 0.10465116279068098
        },
        {
          "name": "C6",
          "midi": 84,
          "time": 55.73255813953165,
          "velocity": 0.09448818897637795,
          "duration": 0.04651162790696617
        },
        {
          "name": "C5",
          "midi": 72,
          "time": 55.74418604650839,
          "velocity": 0.33070866141732286,
          "duration": 0.12790697674417117
        },
        {
          "name": "D6",
          "midi": 86,
          "time": 55.76744186046187,
          "velocity": 0.1889763779527559,
          "duration": 0.034883720930224626
        },
        {
          "name": "F4",
          "midi": 65,
          "time": 55.790697674415355,
          "velocity": 0.6929133858267716,
          "duration": 0.1627906976744029
        },
        {
          "name": "D#6",
          "midi": 87,
          "time": 55.790697674415355,
          "velocity": 0.2283464566929134,
          "duration": 0.06976744186046346
        },
        {
          "name": "C#6",
          "midi": 85,
          "time": 55.82558139534559,
          "velocity": 0.14173228346456693,
          "duration": 0.15116279069765426
        },
        {
          "name": "D5",
          "midi": 74,
          "time": 55.84883720929908,
          "velocity": 0.25196850393700787,
          "duration": 0.023255813953483084
        },
        {
          "name": "F#5",
          "midi": 78,
          "time": 55.84883720929908,
          "velocity": 0.2204724409448819,
          "duration": 0.034883720930224626
        },
        {
          "name": "B5",
          "midi": 83,
          "time": 55.84883720929908,
          "velocity": 0.2204724409448819,
          "duration": 0.04651162790696617
        },
        {
          "name": "E5",
          "midi": 76,
          "time": 55.86046511627582,
          "velocity": 0.18110236220472442,
          "duration": 0.034883720930224626
        },
        {
          "name": "G#4",
          "midi": 68,
          "time": 55.87209302325256,
          "velocity": 0.3464566929133858,
          "duration": 0.034883720930224626
        },
        {
          "name": "C#5",
          "midi": 73,
          "time": 55.87209302325256,
          "velocity": 0.4409448818897638,
          "duration": 0.13953488372091272
        },
        {
          "name": "D#5",
          "midi": 75,
          "time": 55.89534883720604,
          "velocity": 0.2204724409448819,
          "duration": 0.058139534883714816
        },
        {
          "name": "A#5",
          "midi": 82,
          "time": 55.89534883720604,
          "velocity": 0.15748031496062992,
          "duration": 0.06976744186045636
        },
        {
          "name": "D6",
          "midi": 86,
          "time": 55.89534883720604,
          "velocity": 0.15748031496062992,
          "duration": 0.0813953488371979
        },
        {
          "name": "F#6",
          "midi": 90,
          "time": 55.906976744182785,
          "velocity": 0.11811023622047244,
          "duration": 0.03488372093023173
        },
        {
          "name": "G#4",
          "midi": 68,
          "time": 55.91860465115953,
          "velocity": 0.36220472440944884,
          "duration": 0.10465116279068809
        },
        {
          "name": "D#4",
          "midi": 63,
          "time": 55.94186046511302,
          "velocity": 0.5039370078740157,
          "duration": 0.04651162790696617
        },
        {
          "name": "G6",
          "midi": 91,
          "time": 55.9651162790665,
          "velocity": 0.07874015748031496,
          "duration": 0.058139534883714816
        },
        {
          "name": "C#4",
          "midi": 61,
          "time": 55.98837209301998,
          "velocity": 0.4566929133858268,
          "duration": 0.046511627906973274
        },
        {
          "name": "F4",
          "midi": 65,
          "time": 55.98837209301998,
          "velocity": 0.41732283464566927,
          "duration": 0.058139534883714816
        },
        {
          "name": "G#5",
          "midi": 80,
          "time": 55.98837209301998,
          "velocity": 0.44881889763779526,
          "duration": 0.25581395348834235
        },
        {
          "name": "B5",
          "midi": 83,
          "time": 55.98837209301998,
          "velocity": 0.14960629921259844,
          "duration": 0.03488372093023173
        },
        {
          "name": "D6",
          "midi": 86,
          "time": 55.98837209301998,
          "velocity": 0.10236220472440945,
          "duration": 0.03488372093023173
        },
        {
          "name": "E6",
          "midi": 88,
          "time": 56.01162790697347,
          "velocity": 0.08661417322834646,
          "duration": 0.034883720930224626
        },
        {
          "name": "D#4",
          "midi": 63,
          "time": 56.034883720926956,
          "velocity": 0.5354330708661418,
          "duration": 0.1627906976743958
        },
        {
          "name": "G#4",
          "midi": 68,
          "time": 56.034883720926956,
          "velocity": 0.2283464566929134,
          "duration": 0.09302325581394655
        },
        {
          "name": "A#5",
          "midi": 82,
          "time": 56.09302325581067,
          "velocity": 0.10236220472440945,
          "duration": 0.09302325581393944
        },
        {
          "name": "F#6",
          "midi": 90,
          "time": 56.09302325581067,
          "velocity": 0.13385826771653545,
          "duration": 0.09302325581393944
        },
        {
          "name": "D6",
          "midi": 86,
          "time": 56.11627906976416,
          "velocity": 0.1732283464566929,
          "duration": 0.034883720930224626
        },
        {
          "name": "G#4",
          "midi": 68,
          "time": 56.139534883717644,
          "velocity": 0.33070866141732286,
          "duration": 0.04651162790696617
        },
        {
          "name": "F5",
          "midi": 77,
          "time": 56.139534883717644,
          "velocity": 0.2755905511811024,
          "duration": 0.06976744186044925
        },
        {
          "name": "D6",
          "midi": 86,
          "time": 56.16279069767113,
          "velocity": 0.1732283464566929,
          "duration": 0.05813953488370771
        },
        {
          "name": "A#4",
          "midi": 70,
          "time": 56.17441860464787,
          "velocity": 0.31496062992125984,
          "duration": 0.17441860465114445
        },
        {
          "name": "F#4",
          "midi": 66,
          "time": 56.18604651162461,
          "velocity": 0.4015748031496063,
          "duration": 0.06976744186045636
        },
        {
          "name": "C#4",
          "midi": 61,
          "time": 56.19767441860135,
          "velocity": 0.5433070866141733,
          "duration": 0.20930232558136908
        },
        {
          "name": "B5",
          "midi": 83,
          "time": 56.220930232554835,
          "velocity": 0.07874015748031496,
          "duration": 0.06976744186046346
        },
        {
          "name": "F#3",
          "midi": 54,
          "time": 56.25581395348507,
          "velocity": 0.30708661417322836,
          "duration": 0.02325581395349019
        },
        {
          "name": "F4",
          "midi": 65,
          "time": 56.25581395348507,
          "velocity": 0.2755905511811024,
          "duration": 0.02325581395349019
        },
        {
          "name": "F#4",
          "midi": 66,
          "time": 56.27906976743856,
          "velocity": 0.4094488188976378,
          "duration": 0.04651162790696617
        },
        {
          "name": "D#5",
          "midi": 75,
          "time": 56.27906976743856,
          "velocity": 0.2283464566929134,
          "duration": 0.0813953488371979
        },
        {
          "name": "F#3",
          "midi": 54,
          "time": 56.2906976744153,
          "velocity": 0.3858267716535433,
          "duration": 0.20930232558136908
        },
        {
          "name": "D6",
          "midi": 86,
          "time": 56.30232558139204,
          "velocity": 0.16535433070866143,
          "duration": 0.06976744186045636
        },
        {
          "name": "F#6",
          "midi": 90,
          "time": 56.30232558139204,
          "velocity": 0.11811023622047244,
          "duration": 0.0813953488371979
        },
        {
          "name": "G#5",
          "midi": 80,
          "time": 56.31395348836878,
          "velocity": 0.11811023622047244,
          "duration": 0.03488372093023173
        },
        {
          "name": "G#4",
          "midi": 68,
          "time": 56.32558139534552,
          "velocity": 0.2047244094488189,
          "duration": 0.046511627906973274
        },
        {
          "name": "B5",
          "midi": 83,
          "time": 56.32558139534552,
          "velocity": 0.18110236220472442,
          "duration": 0.046511627906973274
        },
        {
          "name": "D#6",
          "midi": 87,
          "time": 56.32558139534552,
          "velocity": 0.23622047244094488,
          "duration": 0.20930232558137618
        },
        {
          "name": "F4",
          "midi": 65,
          "time": 56.360465116275755,
          "velocity": 0.29133858267716534,
          "duration": 0.023255813953483084
        },
        {
          "name": "A#4",
          "midi": 70,
          "time": 56.360465116275755,
          "velocity": 0.25984251968503935,
          "duration": 0.05813953488370771
        },
        {
          "name": "G#5",
          "midi": 80,
          "time": 56.360465116275755,
          "velocity": 0.25196850393700787,
          "duration": 0.13953488372091272
        },
        {
          "name": "D#5",
          "midi": 75,
          "time": 56.39534883720598,
          "velocity": 0.2047244094488189,
          "duration": 0.09302325581394655
        },
        {
          "name": "A5",
          "midi": 81,
          "time": 56.40697674418272,
          "velocity": 0.2755905511811024,
          "duration": 0.023255813953483084
        },
        {
          "name": "C#4",
          "midi": 61,
          "time": 56.41860465115946,
          "velocity": 0.3937007874015748,
          "duration": 0.046511627906973274
        },
        {
          "name": "A#5",
          "midi": 82,
          "time": 56.41860465115946,
          "velocity": 0.3779527559055118,
          "duration": 0.13953488372091982
        },
        {
          "name": "F5",
          "midi": 77,
          "time": 56.430232558136204,
          "velocity": 0.2440944881889764,
          "duration": 0.05813953488372192
        },
        {
          "name": "A#4",
          "midi": 70,
          "time": 56.441860465112946,
          "velocity": 0.1968503937007874,
          "duration": 0.08139534883721211
        },
        {
          "name": "E6",
          "midi": 88,
          "time": 56.488372093019926,
          "velocity": 0.15748031496062992,
          "duration": 0.0813953488371979
        },
        {
          "name": "D#4",
          "midi": 63,
          "time": 56.49999999999667,
          "velocity": 0.4094488188976378,
          "duration": 0.058139534883714816
        },
        {
          "name": "F6",
          "midi": 89,
          "time": 56.49999999999667,
          "velocity": 0.10236220472440945,
          "duration": 0.03488372093023173
        },
        {
          "name": "C4",
          "midi": 60,
          "time": 56.52325581395016,
          "velocity": 0.41732283464566927,
          "duration": 0.023255813953483084
        },
        {
          "name": "D6",
          "midi": 86,
          "time": 56.52325581395016,
          "velocity": 0.1889763779527559,
          "duration": 0.11627906976742253
        },
        {
          "name": "F#4",
          "midi": 66,
          "time": 56.5348837209269,
          "velocity": 0.3464566929133858,
          "duration": 0.023255813953483084
        },
        {
          "name": "A#4",
          "midi": 70,
          "time": 56.5348837209269,
          "velocity": 0.2992125984251969,
          "duration": 0.0813953488371979
        },
        {
          "name": "F5",
          "midi": 77,
          "time": 56.5348837209269,
          "velocity": 0.2125984251968504,
          "duration": 0.09302325581393944
        },
        {
          "name": "C#4",
          "midi": 61,
          "time": 56.54651162790364,
          "velocity": 0.5590551181102362,
          "duration": 0.19767441860462043
        },
        {
          "name": "G#6",
          "midi": 92,
          "time": 56.54651162790364,
          "velocity": 0.09448818897637795,
          "duration": 0.034883720930224626
        },
        {
          "name": "F#3",
          "midi": 54,
          "time": 56.55813953488038,
          "velocity": 0.33858267716535434,
          "duration": 0.17441860465113734
        },
        {
          "name": "D#5",
          "midi": 75,
          "time": 56.55813953488038,
          "velocity": 0.2283464566929134,
          "duration": 0.06976744186045636
        },
        {
          "name": "G#5",
          "midi": 80,
          "time": 56.55813953488038,
          "velocity": 0.2755905511811024,
          "duration": 0.06976744186045636
        },
        {
          "name": "F#4",
          "midi": 66,
          "time": 56.569767441857124,
          "velocity": 0.4015748031496063,
          "duration": 0.10465116279068809
        },
        {
          "name": "C5",
          "midi": 72,
          "time": 56.569767441857124,
          "velocity": 0.2440944881889764,
          "duration": 0.023255813953483084
        },
        {
          "name": "A#4",
          "midi": 70,
          "time": 56.62790697674084,
          "velocity": 0.2992125984251969,
          "duration": 0.36046511627902333
        },
        {
          "name": "E5",
          "midi": 76,
          "time": 56.62790697674084,
          "velocity": 0.2204724409448819,
          "duration": 0.03488372093023173
        },
        {
          "name": "F#5",
          "midi": 78,
          "time": 56.62790697674084,
          "velocity": 0.4015748031496063,
          "duration": 0.19767441860462753
        },
        {
          "name": "G#5",
          "midi": 80,
          "time": 56.66279069767107,
          "velocity": 0.29133858267716534,
          "duration": 0.29069767441855987
        },
        {
          "name": "D6",
          "midi": 86,
          "time": 56.66279069767107,
          "velocity": 0.11023622047244094,
          "duration": 0.034883720930224626
        },
        {
          "name": "F2",
          "midi": 41,
          "time": 56.67441860464781,
          "velocity": 0.2283464566929134,
          "duration": 0.034883720930224626
        },
        {
          "name": "F#4",
          "midi": 66,
          "time": 56.68604651162455,
          "velocity": 0.3858267716535433,
          "duration": 0.290697674418567
        },
        {
          "name": "B5",
          "midi": 83,
          "time": 56.68604651162455,
          "velocity": 0.13385826771653545,
          "duration": 0.06976744186044925
        },
        {
          "name": "F6",
          "midi": 89,
          "time": 56.72093023255478,
          "velocity": 0.13385826771653545,
          "duration": 0.10465116279068809
        },
        {
          "name": "A#5",
          "midi": 82,
          "time": 56.74418604650826,
          "velocity": 0.3700787401574803,
          "duration": 0.10465116279068809
        },
        {
          "name": "C#4",
          "midi": 61,
          "time": 56.755813953485,
          "velocity": 0.4015748031496063,
          "duration": 0.09302325581394655
        },
        {
          "name": "D#6",
          "midi": 87,
          "time": 56.767441860461744,
          "velocity": 0.12598425196850394,
          "duration": 0.04651162790698038
        },
        {
          "name": "D6",
          "midi": 86,
          "time": 56.790697674415235,
          "velocity": 0.14960629921259844,
          "duration": 0.15116279069765426
        },
        {
          "name": "D#5",
          "midi": 75,
          "time": 56.813953488368725,
          "velocity": 0.15748031496062992,
          "duration": 0.05813953488370771
        },
        {
          "name": "F5",
          "midi": 77,
          "time": 56.825581395345466,
          "velocity": 0.2047244094488189,
          "duration": 0.06976744186044925
        },
        {
          "name": "B5",
          "midi": 83,
          "time": 56.83720930232221,
          "velocity": 0.2755905511811024,
          "duration": 0.04651162790696617
        },
        {
          "name": "D4",
          "midi": 62,
          "time": 56.84883720929895,
          "velocity": 0.3464566929133858,
          "duration": 0.023255813953483084
        },
        {
          "name": "F#3",
          "midi": 54,
          "time": 56.86046511627569,
          "velocity": 0.3464566929133858,
          "duration": 0.20930232558136197
        },
        {
          "name": "C#4",
          "midi": 61,
          "time": 56.87209302325243,
          "velocity": 0.5433070866141733,
          "duration": 0.18604651162787889
        },
        {
          "name": "F#5",
          "midi": 78,
          "time": 56.895348837205916,
          "velocity": 0.3937007874015748,
          "duration": 0.2209302325581035
        },
        {
          "name": "B5",
          "midi": 83,
          "time": 56.895348837205916,
          "velocity": 0.11023622047244094,
          "duration": 0.03488372093023173
        },
        {
          "name": "F2",
          "midi": 41,
          "time": 56.918604651159406,
          "velocity": 0.2204724409448819,
          "duration": 0.034883720930224626
        },
        {
          "name": "D#6",
          "midi": 87,
          "time": 56.94186046511289,
          "velocity": 0.18110236220472442,
          "duration": 0.1627906976743887
        },
        {
          "name": "D#5",
          "midi": 75,
          "time": 56.95348837208963,
          "velocity": 0.1732283464566929,
          "duration": 0.03488372093023173
        },
        {
          "name": "D6",
          "midi": 86,
          "time": 56.95348837208963,
          "velocity": 0.11811023622047244,
          "duration": 0.058139534883714816
        },
        {
          "name": "E6",
          "midi": 88,
          "time": 56.98837209301986,
          "velocity": 0.13385826771653545,
          "duration": 0.04651162790696617
        },
        {
          "name": "A#4",
          "midi": 70,
          "time": 56.999999999996604,
          "velocity": 0.3464566929133858,
          "duration": 0.09302325581393234
        },
        {
          "name": "G#5",
          "midi": 80,
          "time": 57.011627906973345,
          "velocity": 0.07086614173228346,
          "duration": 0.034883720930224626
        },
        {
          "name": "A#5",
          "midi": 82,
          "time": 57.02325581395009,
          "velocity": 0.4251968503937008,
          "duration": 0.17441860465113024
        },
        {
          "name": "D6",
          "midi": 86,
          "time": 57.02325581395009,
          "velocity": 0.2047244094488189,
          "duration": 0.04651162790696617
        },
        {
          "name": "G#4",
          "midi": 68,
          "time": 57.04651162790357,
          "velocity": 0.36220472440944884,
          "duration": 0.04651162790696617
        },
        {
          "name": "B3",
          "midi": 59,
          "time": 57.06976744185705,
          "velocity": 0.5511811023622047,
          "duration": 0.011627906976741542
        },
        {
          "name": "B5",
          "midi": 83,
          "time": 57.06976744185705,
          "velocity": 0.07874015748031496,
          "duration": 0.034883720930224626
        },
        {
          "name": "A#3",
          "midi": 58,
          "time": 57.081395348833794,
          "velocity": 0.7165354330708661,
          "duration": 0.1395348837209056
        },
        {
          "name": "F5",
          "midi": 77,
          "time": 57.081395348833794,
          "velocity": 0.33858267716535434,
          "duration": 0.10465116279068098
        },
        {
          "name": "F#4",
          "midi": 66,
          "time": 57.093023255810536,
          "velocity": 0.29133858267716534,
          "duration": 0.06976744186045636
        },
        {
          "name": "D6",
          "midi": 86,
          "time": 57.10465116278728,
          "velocity": 0.1732283464566929,
          "duration": 0.09302325581393944
        },
        {
          "name": "A4",
          "midi": 69,
          "time": 57.11627906976402,
          "velocity": 0.2440944881889764,
          "duration": 0.02325581395349019
        },
        {
          "name": "C#5",
          "midi": 73,
          "time": 57.11627906976402,
          "velocity": 0.4251968503937008,
          "duration": 0.17441860465113734
        },
        {
          "name": "G#4",
          "midi": 68,
          "time": 57.13953488371751,
          "velocity": 0.31496062992125984,
          "duration": 0.034883720930224626
        },
        {
          "name": "A5",
          "midi": 81,
          "time": 57.15116279069425,
          "velocity": 0.2755905511811024,
          "duration": 0.04651162790696617
        },
        {
          "name": "E5",
          "midi": 76,
          "time": 57.16279069767099,
          "velocity": 0.25196850393700787,
          "duration": 0.034883720930224626
        },
        {
          "name": "D#6",
          "midi": 87,
          "time": 57.16279069767099,
          "velocity": 0.15748031496062992,
          "duration": 0.1395348837209056
        },
        {
          "name": "F#6",
          "midi": 90,
          "time": 57.16279069767099,
          "velocity": 0.09448818897637795,
          "duration": 0.034883720930224626
        },
        {
          "name": "G#3",
          "midi": 56,
          "time": 57.19767441860122,
          "velocity": 0.5984251968503937,
          "duration": 0.023255813953483084
        },
        {
          "name": "D#5",
          "midi": 75,
          "time": 57.19767441860122,
          "velocity": 0.2755905511811024,
          "duration": 0.0813953488371979
        },
        {
          "name": "C6",
          "midi": 84,
          "time": 57.19767441860122,
          "velocity": 0.08661417322834646,
          "duration": 0.046511627906973274
        },
        {
          "name": "F#4",
          "midi": 66,
          "time": 57.20930232557796,
          "velocity": 0.3543307086614173,
          "duration": 0.03488372093023173
        },
        {
          "name": "B5",
          "midi": 83,
          "time": 57.20930232557796,
          "velocity": 0.12598425196850394,
          "duration": 0.06976744186045636
        },
        {
          "name": "A3",
          "midi": 57,
          "time": 57.2209302325547,
          "velocity": 0.7007874015748031,
          "duration": 0.02325581395349019
        },
        {
          "name": "G#3",
          "midi": 56,
          "time": 57.24418604650819,
          "velocity": 0.6377952755905512,
          "duration": 0.05813953488370771
        },
        {
          "name": "F5",
          "midi": 77,
          "time": 57.24418604650819,
          "velocity": 0.30708661417322836,
          "duration": 0.04651162790696617
        },
        {
          "name": "D6",
          "midi": 86,
          "time": 57.24418604650819,
          "velocity": 0.1732283464566929,
          "duration": 0.05813953488370771
        },
        {
          "name": "F#5",
          "midi": 78,
          "time": 57.25581395348493,
          "velocity": 0.4015748031496063,
          "duration": 0.1627906976743816
        },
        {
          "name": "A#5",
          "midi": 82,
          "time": 57.26744186046167,
          "velocity": 0.23622047244094488,
          "duration": 0.034883720930224626
        },
        {
          "name": "F#4",
          "midi": 66,
          "time": 57.279069767438415,
          "velocity": 0.25196850393700787,
          "duration": 0.023255813953483084
        },
        {
          "name": "E5",
          "midi": 76,
          "time": 57.279069767438415,
          "velocity": 0.2755905511811024,
          "duration": 0.023255813953483084
        },
        {
          "name": "C#4",
          "midi": 61,
          "time": 57.290697674415156,
          "velocity": 0.4409448818897638,
          "duration": 0.09302325581393234
        },
        {
          "name": "G3",
          "midi": 55,
          "time": 57.3023255813919,
          "velocity": 0.5748031496062992,
          "duration": 0.023255813953483084
        },
        {
          "name": "D#5",
          "midi": 75,
          "time": 57.3023255813919,
          "velocity": 0.29133858267716534,
          "duration": 0.06976744186044925
        },
        {
          "name": "B5",
          "midi": 83,
          "time": 57.3023255813919,
          "velocity": 0.2125984251968504,
          "duration": 0.034883720930224626
        },
        {
          "name": "F#4",
          "midi": 66,
          "time": 57.31395348836864,
          "velocity": 0.29133858267716534,
          "duration": 0.05813953488370771
        },
        {
          "name": "G#3",
          "midi": 56,
          "time": 57.32558139534538,
          "velocity": 0.5196850393700787,
          "duration": 0.023255813953483084
        },
        {
          "name": "A#4",
          "midi": 70,
          "time": 57.32558139534538,
          "velocity": 0.31496062992125984,
          "duration": 0.0813953488371908
        },
        {
          "name": "E6",
          "midi": 88,
          "time": 57.33720930232212,
          "velocity": 0.08661417322834646,
          "duration": 0.034883720930224626
        },
        {
          "name": "F6",
          "midi": 89,
          "time": 57.33720930232212,
          "velocity": 0.11023622047244094,
          "duration": 0.034883720930224626
        },
        {
          "name": "G3",
          "midi": 55,
          "time": 57.348837209298864,
          "velocity": 0.5196850393700787,
          "duration": 0.023255813953483084
        },
        {
          "name": "B5",
          "midi": 83,
          "time": 57.348837209298864,
          "velocity": 0.16535433070866143,
          "duration": 0.034883720930224626
        },
        {
          "name": "G#4",
          "midi": 68,
          "time": 57.360465116275606,
          "velocity": 0.33858267716535434,
          "duration": 0.11627906976741542
        },
        {
          "name": "C#6",
          "midi": 85,
          "time": 57.360465116275606,
          "velocity": 0.14173228346456693,
          "duration": 0.05813953488370771
        },
        {
          "name": "A#3",
          "midi": 58,
          "time": 57.37209302325235,
          "velocity": 0.4094488188976378,
          "duration": 0.023255813953483084
        },
        {
          "name": "A#5",
          "midi": 82,
          "time": 57.37209302325235,
          "velocity": 0.44881889763779526,
          "duration": 0.1395348837208985
        },
        {
          "name": "F4",
          "midi": 65,
          "time": 57.38372093022909,
          "velocity": 0.2047244094488189,
          "duration": 0.034883720930224626
        },
        {
          "name": "C#5",
          "midi": 73,
          "time": 57.39534883720583,
          "velocity": 0.2992125984251969,
          "duration": 0.10465116279067388
        },
        {
          "name": "A#3",
          "midi": 58,
          "time": 57.40697674418257,
          "velocity": 0.3700787401574803,
          "duration": 0.05813953488370771
        },
        {
          "name": "F#5",
          "midi": 78,
          "time": 57.430232558136055,
          "velocity": 0.25984251968503935,
          "duration": 0.0813953488371908
        },
        {
          "name": "F#4",
          "midi": 66,
          "time": 57.441860465112796,
          "velocity": 0.18110236220472442,
          "duration": 0.05813953488370771
        },
        {
          "name": "G#3",
          "midi": 56,
          "time": 57.45348837208954,
          "velocity": 0.3858267716535433,
          "duration": 0.023255813953483084
        },
        {
          "name": "F6",
          "midi": 89,
          "time": 57.46511627906628,
          "velocity": 0.10236220472440945,
          "duration": 0.0813953488371908
        },
        {
          "name": "G3",
          "midi": 55,
          "time": 57.48837209301976,
          "velocity": 0.33858267716535434,
          "duration": 0.034883720930224626
        },
        {
          "name": "G#4",
          "midi": 68,
          "time": 57.48837209301976,
          "velocity": 0.33858267716535434,
          "duration": 0.12790697674416407
        },
        {
          "name": "F4",
          "midi": 65,
          "time": 57.499999999996504,
          "velocity": 0.30708661417322836,
          "duration": 0.06976744186045636
        },
        {
          "name": "C#6",
          "midi": 85,
          "time": 57.499999999996504,
          "velocity": 0.14960629921259844,
          "duration": 0.12790697674416407
        },
        {
          "name": "C#4",
          "midi": 61,
          "time": 57.511627906973246,
          "velocity": 0.5905511811023622,
          "duration": 0.3023255813953085
        },
        {
          "name": "B5",
          "midi": 83,
          "time": 57.511627906973246,
          "velocity": 0.14173228346456693,
          "duration": 0.06976744186045636
        },
        {
          "name": "F3",
          "midi": 53,
          "time": 57.52325581394999,
          "velocity": 0.2677165354330709,
          "duration": 0.023255813953483084
        },
        {
          "name": "A#5",
          "midi": 82,
          "time": 57.53488372092673,
          "velocity": 0.11811023622047244,
          "duration": 0.11627906976742253
        },
        {
          "name": "D6",
          "midi": 86,
          "time": 57.53488372092673,
          "velocity": 0.08661417322834646,
          "duration": 0.03488372093023173
        },
        {
          "name": "G3",
          "midi": 55,
          "time": 57.56976744185696,
          "velocity": 0.23622047244094488,
          "duration": 0.023255813953483084
        },
        {
          "name": "F#4",
          "midi": 66,
          "time": 57.56976744185696,
          "velocity": 0.3228346456692913,
          "duration": 0.06976744186044925
        },
        {
          "name": "F5",
          "midi": 77,
          "time": 57.56976744185696,
          "velocity": 0.4015748031496063,
          "duration": 0.290697674418567
        },
        {
          "name": "G#5",
          "midi": 80,
          "time": 57.604651162787185,
          "velocity": 0.41732283464566927,
          "duration": 0.8720930232557507
        },
        {
          "name": "D#6",
          "midi": 87,
          "time": 57.604651162787185,
          "velocity": 0.15748031496062992,
          "duration": 0.11627906976742963
        },
        {
          "name": "G#4",
          "midi": 68,
          "time": 57.62790697674067,
          "velocity": 0.36220472440944884,
          "duration": 0.15116279069766136
        },
        {
          "name": "F4",
          "midi": 65,
          "time": 57.63953488371741,
          "velocity": 0.3858267716535433,
          "duration": 0.2441860465116079
        },
        {
          "name": "C#6",
          "midi": 85,
          "time": 57.65116279069415,
          "velocity": 0.2204724409448819,
          "duration": 0.3720930232557862
        },
        {
          "name": "G3",
          "midi": 55,
          "time": 57.67441860464764,
          "velocity": 0.28346456692913385,
          "duration": 0.02325581395349019
        },
        {
          "name": "C6",
          "midi": 84,
          "time": 57.67441860464764,
          "velocity": 0.11811023622047244,
          "duration": 0.03488372093023173
        },
        {
          "name": "A#5",
          "midi": 82,
          "time": 57.69767441860113,
          "velocity": 0.15748031496062992,
          "duration": 0.09302325581393944
        },
        {
          "name": "B5",
          "midi": 83,
          "time": 57.70930232557787,
          "velocity": 0.14173228346456693,
          "duration": 0.046511627906973274
        },
        {
          "name": "F3",
          "midi": 53,
          "time": 57.76744186046159,
          "velocity": 0.28346456692913385,
          "duration": 0.04651162790696617
        },
        {
          "name": "D#6",
          "midi": 87,
          "time": 57.77906976743833,
          "velocity": 0.12598425196850394,
          "duration": 0.12790697674417117
        },
        {
          "name": "G#4",
          "midi": 68,
          "time": 57.80232558139181,
          "velocity": 0.3464566929133858,
          "duration": 0.2093023255813833
        },
        {
          "name": "C#5",
          "midi": 73,
          "time": 57.813953488368554,
          "velocity": 0.5039370078740157,
          "duration": 0.12790697674417828
        },
        {
          "name": "A#5",
          "midi": 82,
          "time": 57.813953488368554,
          "velocity": 0.16535433070866143,
          "duration": 0.03488372093023173
        },
        {
          "name": "F3",
          "midi": 53,
          "time": 57.825581395345296,
          "velocity": 0.3543307086614173,
          "duration": 0.3720930232558004
        },
        {
          "name": "C#4",
          "midi": 61,
          "time": 57.825581395345296,
          "velocity": 0.7401574803149606,
          "duration": 0.3139534883720785
        },
        {
          "name": "B5",
          "midi": 83,
          "time": 57.825581395345296,
          "velocity": 0.14960629921259844,
          "duration": 0.06976744186046346
        },
        {
          "name": "F#4",
          "midi": 66,
          "time": 57.9069767441825,
          "velocity": 0.2677165354330709,
          "duration": 0.02325581395349019
        },
        {
          "name": "F5",
          "midi": 77,
          "time": 57.93023255813599,
          "velocity": 0.48031496062992124,
          "duration": 0.6395348837208772
        },
        {
          "name": "F4",
          "midi": 65,
          "time": 57.999999999996454,
          "velocity": 0.3700787401574803,
          "duration": 0.12790697674417828
        },
        {
          "name": "D#5",
          "midi": 75,
          "time": 57.999999999996454,
          "velocity": 0.08661417322834646,
          "duration": 0.034883720930224626
        },
        {
          "name": "G#4",
          "midi": 68,
          "time": 58.04651162790342,
          "velocity": 0.3779527559055118,
          "duration": 0.36046511627905176
        },
        {
          "name": "D#6",
          "midi": 87,
          "time": 58.04651162790342,
          "velocity": 0.11811023622047244,
          "duration": 0.03488372093023173
        },
        {
          "name": "D#5",
          "midi": 75,
          "time": 58.06976744185691,
          "velocity": 0.11023622047244094,
          "duration": 0.03488372093023173
        },
        {
          "name": "F4",
          "midi": 65,
          "time": 58.162790697670864,
          "velocity": 0.3700787401574803,
          "duration": 0.1860465116279002
        },
        {
          "name": "B5",
          "midi": 83,
          "time": 58.162790697670864,
          "velocity": 0.11023622047244094,
          "duration": 0.06976744186046346
        },
        {
          "name": "C#4",
          "midi": 61,
          "time": 58.186046511624355,
          "velocity": 0.5196850393700787,
          "duration": 0.19767441860463464
        },
        {
          "name": "D#6",
          "midi": 87,
          "time": 58.186046511624355,
          "velocity": 0.11811023622047244,
          "duration": 0.09302325581394655
        },
        {
          "name": "F3",
          "midi": 53,
          "time": 58.23255813953133,
          "velocity": 0.29133858267716534,
          "duration": 0.23255813953486637
        },
        {
          "name": "B5",
          "midi": 83,
          "time": 58.30232558139179,
          "velocity": 0.14173228346456693,
          "duration": 0.046511627906973274
        },
        {
          "name": "D6",
          "midi": 86,
          "time": 58.30232558139179,
          "velocity": 0.11023622047244094,
          "duration": 0.09302325581393944
        },
        {
          "name": "G5",
          "midi": 79,
          "time": 58.348837209298765,
          "velocity": 0.2677165354330709,
          "duration": 0.023255813953483084
        },
        {
          "name": "A#5",
          "midi": 82,
          "time": 58.360465116275506,
          "velocity": 0.1968503937007874,
          "duration": 0.034883720930224626
        },
        {
          "name": "C4",
          "midi": 60,
          "time": 58.38372093022899,
          "velocity": 0.5196850393700787,
          "duration": 0.011627906976741542
        },
        {
          "name": "A#4",
          "midi": 70,
          "time": 58.38372093022899,
          "velocity": 0.3937007874015748,
          "duration": 0.10465116279068809
        },
        {
          "name": "C#4",
          "midi": 61,
          "time": 58.39534883720573,
          "velocity": 0.5196850393700787,
          "duration": 0.3488372093022818
        },
        {
          "name": "C6",
          "midi": 84,
          "time": 58.39534883720573,
          "velocity": 0.12598425196850394,
          "duration": 0.046511627906973274
        },
        {
          "name": "F4",
          "midi": 65,
          "time": 58.40697674418247,
          "velocity": 0.33858267716535434,
          "duration": 0.10465116279068809
        },
        {
          "name": "G#4",
          "midi": 68,
          "time": 58.418604651159214,
          "velocity": 0.48031496062992124,
          "duration": 0.25581395348833524
        },
        {
          "name": "D#6",
          "midi": 87,
          "time": 58.441860465112704,
          "velocity": 0.11023622047244094,
          "duration": 0.10465116279068098
        },
        {
          "name": "D5",
          "midi": 74,
          "time": 58.476744186042936,
          "velocity": 0.3779527559055118,
          "duration": 0.023255813953483084
        },
        {
          "name": "D#5",
          "midi": 75,
          "time": 58.476744186042936,
          "velocity": 0.3700787401574803,
          "duration": 0.09302325581393234
        },
        {
          "name": "C6",
          "midi": 84,
          "time": 58.476744186042936,
          "velocity": 0.2204724409448819,
          "duration": 0.04651162790696617
        },
        {
          "name": "C#6",
          "midi": 85,
          "time": 58.48837209301968,
          "velocity": 0.14960629921259844,
          "duration": 0.10465116279067388
        },
        {
          "name": "E6",
          "midi": 88,
          "time": 58.48837209301968,
          "velocity": 0.11023622047244094,
          "duration": 0.034883720930224626
        },
        {
          "name": "G#3",
          "midi": 56,
          "time": 58.49999999999642,
          "velocity": 0.6299212598425197,
          "duration": 0.27906976744182543
        },
        {
          "name": "A#4",
          "midi": 70,
          "time": 58.49999999999642,
          "velocity": 0.1968503937007874,
          "duration": 0.034883720930224626
        },
        {
          "name": "F4",
          "midi": 65,
          "time": 58.546511627903385,
          "velocity": 0.1889763779527559,
          "duration": 0.04651162790696617
        },
        {
          "name": "C6",
          "midi": 84,
          "time": 58.546511627903385,
          "velocity": 0.08661417322834646,
          "duration": 0.04651162790696617
        },
        {
          "name": "A#4",
          "midi": 70,
          "time": 58.55813953488013,
          "velocity": 0.13385826771653545,
          "duration": 0.034883720930224626
        },
        {
          "name": "F5",
          "midi": 77,
          "time": 58.58139534883361,
          "velocity": 0.48031496062992124,
          "duration": 0.22093023255811772
        },
        {
          "name": "D#5",
          "midi": 75,
          "time": 58.60465116278709,
          "velocity": 0.2204724409448819,
          "duration": 0.03488372093023173
        },
        {
          "name": "F4",
          "midi": 65,
          "time": 58.616279069763834,
          "velocity": 0.3228346456692913,
          "duration": 0.09302325581394655
        },
        {
          "name": "C6",
          "midi": 84,
          "time": 58.616279069763834,
          "velocity": 0.18110236220472442,
          "duration": 0.03488372093023173
        },
        {
          "name": "D#5",
          "midi": 75,
          "time": 58.66279069767081,
          "velocity": 0.3464566929133858,
          "duration": 0.12790697674417828
        },
        {
          "name": "G5",
          "midi": 79,
          "time": 58.67441860464755,
          "velocity": 0.25196850393700787,
          "duration": 0.02325581395349019
        },
        {
          "name": "B5",
          "midi": 83,
          "time": 58.67441860464755,
          "velocity": 0.09448818897637795,
          "duration": 0.046511627906973274
        },
        {
          "name": "F#5",
          "midi": 78,
          "time": 58.69767441860104,
          "velocity": 0.25196850393700787,
          "duration": 0.023255813953483084
        },
        {
          "name": "G#5",
          "midi": 80,
          "time": 58.69767441860104,
          "velocity": 0.44881889763779526,
          "duration": 0.12790697674417117
        },
        {
          "name": "A#5",
          "midi": 82,
          "time": 58.70930232557778,
          "velocity": 0.14173228346456693,
          "duration": 0.046511627906973274
        },
        {
          "name": "F4",
          "midi": 65,
          "time": 58.72093023255452,
          "velocity": 0.33858267716535434,
          "duration": 0.081395348837205
        },
        {
          "name": "C4",
          "midi": 60,
          "time": 58.790697674414986,
          "velocity": 0.33070866141732286,
          "duration": 0.034883720930224626
        },
        {
          "name": "D5",
          "midi": 74,
          "time": 58.790697674414986,
          "velocity": 0.2992125984251969,
          "duration": 0.023255813953483084
        },
        {
          "name": "B5",
          "midi": 83,
          "time": 58.790697674414986,
          "velocity": 0.1889763779527559,
          "duration": 0.04651162790696617
        },
        {
          "name": "F#4",
          "midi": 66,
          "time": 58.80232558139173,
          "velocity": 0.4409448818897638,
          "duration": 0.0813953488371908
        },
        {
          "name": "E5",
          "midi": 76,
          "time": 58.80232558139173,
          "velocity": 0.2283464566929134,
          "duration": 0.023255813953483084
        },
        {
          "name": "C#5",
          "midi": 73,
          "time": 58.81395348836847,
          "velocity": 0.4094488188976378,
          "duration": 0.12790697674416407
        },
        {
          "name": "C#4",
          "midi": 61,
          "time": 58.82558139534521,
          "velocity": 0.5826771653543307,
          "duration": 0.2209302325581035
        },
        {
          "name": "A#4",
          "midi": 70,
          "time": 58.82558139534521,
          "velocity": 0.4094488188976378,
          "duration": 0.6511627906975761
        },
        {
          "name": "G#5",
          "midi": 80,
          "time": 58.83720930232195,
          "velocity": 0.36220472440944884,
          "duration": 0.5813953488371197
        },
        {
          "name": "D#6",
          "midi": 87,
          "time": 58.84883720929869,
          "velocity": 0.14173228346456693,
          "duration": 0.06976744186044925
        },
        {
          "name": "G#4",
          "midi": 68,
          "time": 58.860465116275435,
          "velocity": 0.2283464566929134,
          "duration": 0.034883720930224626
        },
        {
          "name": "F5",
          "midi": 77,
          "time": 58.860465116275435,
          "velocity": 0.2047244094488189,
          "duration": 0.05813953488370771
        },
        {
          "name": "E6",
          "midi": 88,
          "time": 58.87209302325218,
          "velocity": 0.08661417322834646,
          "duration": 0.034883720930224626
        },
        {
          "name": "F3",
          "midi": 53,
          "time": 58.88372093022892,
          "velocity": 0.2204724409448819,
          "duration": 0.034883720930224626
        },
        {
          "name": "F#4",
          "midi": 66,
          "time": 58.89534883720566,
          "velocity": 0.3858267716535433,
          "duration": 0.06976744186046346
        },
        {
          "name": "F#4",
          "midi": 66,
          "time": 58.976744186042865,
          "velocity": 0.33070866141732286,
          "duration": 0.04651162790696617
        },
        {
          "name": "F3",
          "midi": 53,
          "time": 58.988372093019606,
          "velocity": 0.29133858267716534,
          "duration": 0.023255813953483084
        },
        {
          "name": "F6",
          "midi": 89,
          "time": 58.99999999999635,
          "velocity": 0.09448818897637795,
          "duration": 0.034883720930224626
        },
        {
          "name": "G3",
          "midi": 55,
          "time": 59.01162790697309,
          "velocity": 0.2755905511811024,
          "duration": 0.023255813953483084
        },
        {
          "name": "F#4",
          "midi": 66,
          "time": 59.03488372092657,
          "velocity": 0.2992125984251969,
          "duration": 0.05813953488370771
        },
        {
          "name": "C#4",
          "midi": 61,
          "time": 59.058139534880056,
          "velocity": 0.3700787401574803,
          "duration": 0.06976744186045636
        },
        {
          "name": "F3",
          "midi": 53,
          "time": 59.0697674418568,
          "velocity": 0.1889763779527559,
          "duration": 0.046511627906973274
        },
        {
          "name": "F5",
          "midi": 77,
          "time": 59.08139534883354,
          "velocity": 0.1732283464566929,
          "duration": 0.0813953488371979
        },
        {
          "name": "G3",
          "midi": 55,
          "time": 59.11627906976377,
          "velocity": 0.23622047244094488,
          "duration": 0.023255813953483084
        },
        {
          "name": "D6",
          "midi": 86,
          "time": 59.11627906976377,
          "velocity": 0.16535433070866143,
          "duration": 0.034883720930224626
        },
        {
          "name": "C#6",
          "midi": 85,
          "time": 59.12790697674051,
          "velocity": 0.33858267716535434,
          "duration": 0.4302325581394726
        },
        {
          "name": "C#4",
          "midi": 61,
          "time": 59.13953488371725,
          "velocity": 0.6141732283464567,
          "duration": 0.2441860465115937
        },
        {
          "name": "F#4",
          "midi": 66,
          "time": 59.13953488371725,
          "velocity": 0.3464566929133858,
          "duration": 0.05813953488370771
        },
        {
          "name": "B5",
          "midi": 83,
          "time": 59.13953488371725,
          "velocity": 0.12598425196850394,
          "duration": 0.05813953488370771
        },
        {
          "name": "D#6",
          "midi": 87,
          "time": 59.13953488371725,
          "velocity": 0.10236220472440945,
          "duration": 0.12790697674415696
        },
        {
          "name": "D#5",
          "midi": 75,
          "time": 59.17441860464748,
          "velocity": 0.11023622047244094,
          "duration": 0.034883720930224626
        },
        {
          "name": "F#3",
          "midi": 54,
          "time": 59.18604651162422,
          "velocity": 0.2755905511811024,
          "duration": 0.034883720930224626
        },
        {
          "name": "F5",
          "midi": 77,
          "time": 59.18604651162422,
          "velocity": 0.2677165354330709,
          "duration": 0.05813953488370771
        },
        {
          "name": "F4",
          "midi": 65,
          "time": 59.19767441860096,
          "velocity": 0.2125984251968504,
          "duration": 0.04651162790696617
        },
        {
          "name": "E5",
          "midi": 76,
          "time": 59.220930232554444,
          "velocity": 0.2440944881889764,
          "duration": 0.04651162790696617
        },
        {
          "name": "B5",
          "midi": 83,
          "time": 59.232558139531186,
          "velocity": 0.07874015748031496,
          "duration": 0.034883720930224626
        },
        {
          "name": "F#4",
          "midi": 66,
          "time": 59.24418604650793,
          "velocity": 0.31496062992125984,
          "duration": 0.11627906976743674
        },
        {
          "name": "F#5",
          "midi": 78,
          "time": 59.24418604650793,
          "velocity": 0.4566929133858268,
          "duration": 0.5348837209301678
        },
        {
          "name": "F#3",
          "midi": 54,
          "time": 59.25581395348467,
          "velocity": 0.25196850393700787,
          "duration": 0.06976744186046346
        },
        {
          "name": "C6",
          "midi": 84,
          "time": 59.25581395348467,
          "velocity": 0.07086614173228346,
          "duration": 0.046511627906973274
        },
        {
          "name": "A5",
          "midi": 81,
          "time": 59.337209302321874,
          "velocity": 0.3700787401574803,
          "duration": 0.02325581395349019
        },
        {
          "name": "A#5",
          "midi": 82,
          "time": 59.360465116275364,
          "velocity": 0.4251968503937008,
          "duration": 0.11627906976742253
        },
        {
          "name": "F#4",
          "midi": 66,
          "time": 59.372093023252106,
          "velocity": 0.2047244094488189,
          "duration": 0.034883720930224626
        },
        {
          "name": "F3",
          "midi": 53,
          "time": 59.38372093022885,
          "velocity": 0.2125984251968504,
          "duration": 0.04651162790696617
        },
        {
          "name": "C#4",
          "midi": 61,
          "time": 59.39534883720559,
          "velocity": 0.5039370078740157,
          "duration": 0.19767441860462753
        },
        {
          "name": "B5",
          "midi": 83,
          "time": 59.39534883720559,
          "velocity": 0.10236220472440945,
          "duration": 0.04651162790696617
        },
        {
          "name": "F#4",
          "midi": 66,
          "time": 59.41860465115907,
          "velocity": 0.29133858267716534,
          "duration": 0.023255813953483084
        },
        {
          "name": "F#3",
          "midi": 54,
          "time": 59.43023255813581,
          "velocity": 0.2125984251968504,
          "duration": 0.12790697674417117
        },
        {
          "name": "G#5",
          "midi": 80,
          "time": 59.43023255813581,
          "velocity": 0.28346456692913385,
          "duration": 0.33720930232554025
        },
        {
          "name": "F#4",
          "midi": 66,
          "time": 59.465116279066045,
          "velocity": 0.29133858267716534,
          "duration": 0.0813953488371979
        },
        {
          "name": "D6",
          "midi": 86,
          "time": 59.465116279066045,
          "velocity": 0.10236220472440945,
          "duration": 0.034883720930224626
        },
        {
          "name": "A#4",
          "midi": 70,
          "time": 59.48837209301953,
          "velocity": 0.3464566929133858,
          "duration": 0.27906976744182543
        },
        {
          "name": "E5",
          "midi": 76,
          "time": 59.569767441856726,
          "velocity": 0.15748031496062992,
          "duration": 0.03488372093023173
        },
        {
          "name": "F3",
          "midi": 53,
          "time": 59.593023255810216,
          "velocity": 0.15748031496062992,
          "duration": 0.046511627906973274
        },
        {
          "name": "F#4",
          "midi": 66,
          "time": 59.593023255810216,
          "velocity": 0.3464566929133858,
          "duration": 0.0813953488371979
        },
        {
          "name": "A#5",
          "midi": 82,
          "time": 59.593023255810216,
          "velocity": 0.4094488188976378,
          "duration": 0.20930232558136197
        },
        {
          "name": "C#5",
          "midi": 73,
          "time": 59.60465116278696,
          "velocity": 0.33858267716535434,
          "duration": 0.11627906976742253
        },
        {
          "name": "C4",
          "midi": 60,
          "time": 59.62790697674045,
          "velocity": 0.33858267716535434,
          "duration": 0.034883720930224626
        },
        {
          "name": "B5",
          "midi": 83,
          "time": 59.65116279069393,
          "velocity": 0.13385826771653545,
          "duration": 0.04651162790696617
        },
        {
          "name": "C#4",
          "midi": 61,
          "time": 59.66279069767067,
          "velocity": 0.44881889763779526,
          "duration": 0.034883720930224626
        },
        {
          "name": "D#6",
          "midi": 87,
          "time": 59.674418604647414,
          "velocity": 0.28346456692913385,
          "duration": 0.18604651162787178
        },
        {
          "name": "D#4",
          "midi": 63,
          "time": 59.686046511624156,
          "velocity": 0.6929133858267716,
          "duration": 0.12790697674416407
        },
        {
          "name": "F#4",
          "midi": 66,
          "time": 59.686046511624156,
          "velocity": 0.3543307086614173,
          "duration": 0.023255813953483084
        },
        {
          "name": "F#3",
          "midi": 54,
          "time": 59.6976744186009,
          "velocity": 0.1732283464566929,
          "duration": 0.06976744186045636
        },
        {
          "name": "C#5",
          "midi": 73,
          "time": 59.73255813953112,
          "velocity": 0.29133858267716534,
          "duration": 0.046511627906973274
        },
        {
          "name": "F5",
          "midi": 77,
          "time": 59.76744186046135,
          "velocity": 0.5905511811023622,
          "duration": 0.5697674418603711
        },
        {
          "name": "D5",
          "midi": 74,
          "time": 59.779069767438095,
          "velocity": 0.2992125984251969,
          "duration": 0.023255813953483084
        },
        {
          "name": "G5",
          "midi": 79,
          "time": 59.779069767438095,
          "velocity": 0.2755905511811024,
          "duration": 0.034883720930224626
        },
        {
          "name": "C6",
          "midi": 84,
          "time": 59.779069767438095,
          "velocity": 0.2755905511811024,
          "duration": 0.0813953488371908
        },
        {
          "name": "F#4",
          "midi": 66,
          "time": 59.79069767441484,
          "velocity": 0.5433070866141733,
          "duration": 0.011627906976741542
        },
        {
          "name": "A5",
          "midi": 81,
          "time": 59.79069767441484,
          "velocity": 0.2125984251968504,
          "duration": 0.034883720930224626
        },
        {
          "name": "F#3",
          "midi": 54,
          "time": 59.80232558139158,
          "velocity": 0.2677165354330709,
          "duration": 0.1627906976743887
        },
        {
          "name": "A#4",
          "midi": 70,
          "time": 59.80232558139158,
          "velocity": 0.2677165354330709,
          "duration": 0.05813953488370771
        },
        {
          "name": "C#5",
          "midi": 73,
          "time": 59.80232558139158,
          "velocity": 0.4330708661417323,
          "duration": 0.05813953488370771
        },
        {
          "name": "B5",
          "midi": 83,
          "time": 59.80232558139158,
          "velocity": 0.2283464566929134,
          "duration": 0.023255813953483084
        },
        {
          "name": "E4",
          "midi": 64,
          "time": 59.81395348836832,
          "velocity": 0.5118110236220472,
          "duration": 0.011627906976741542
        },
        {
          "name": "D#5",
          "midi": 75,
          "time": 59.81395348836832,
          "velocity": 0.14173228346456693,
          "duration": 0.034883720930224626
        },
        {
          "name": "D#4",
          "midi": 63,
          "time": 59.82558139534506,
          "velocity": 0.4094488188976378,
          "duration": 0.023255813953483084
        },
        {
          "name": "G#5",
          "midi": 80,
          "time": 59.82558139534506,
          "velocity": 0.2677165354330709,
          "duration": 0.18604651162787178
        },
        {
          "name": "E6",
          "midi": 88,
          "time": 59.82558139534506,
          "velocity": 0.15748031496062992,
          "duration": 0.04651162790696617
        },
        {
          "name": "B5",
          "midi": 83,
          "time": 59.8372093023218,
          "velocity": 0.2755905511811024,
          "duration": 0.04651162790696617
        },
        {
          "name": "C5",
          "midi": 72,
          "time": 59.848837209298544,
          "velocity": 0.5118110236220472,
          "duration": 0.09302325581393944
        },
        {
          "name": "F4",
          "midi": 65,
          "time": 59.860465116275286,
          "velocity": 0.6141732283464567,
          "duration": 0.2441860465115937
        },
        {
          "name": "C#5",
          "midi": 73,
          "time": 59.90697674418226,
          "velocity": 0.2755905511811024,
          "duration": 0.023255813953483084
        },
        {
          "name": "C#4",
          "midi": 61,
          "time": 59.918604651159,
          "velocity": 0.4094488188976378,
          "duration": 0.0813953488371908
        },
        {
          "name": "E6",
          "midi": 88,
          "time": 59.93023255813574,
          "velocity": 0.11811023622047244,
          "duration": 0.04651162790696617
        },
        {
          "name": "C5",
          "midi": 72,
          "time": 59.953488372089225,
          "velocity": 0.4881889763779528,
          "duration": 0.10465116279068098
        },
        {
          "name": "C#6",
          "midi": 85,
          "time": 59.97674418604271,
          "velocity": 0.08661417322834646,
          "duration": 0.034883720930224626
        },
        {
          "name": "D6",
          "midi": 86,
          "time": 59.97674418604271,
          "velocity": 0.11811023622047244,
          "duration": 0.058139534883714816
        },
        {
          "name": "F#5",
          "midi": 78,
          "time": 59.98837209301945,
          "velocity": 0.3543307086614173,
          "duration": 0.046511627906973274
        },
        {
          "name": "A#5",
          "midi": 82,
          "time": 59.99999999999619,
          "velocity": 0.41732283464566927,
          "duration": 0.15116279069766136
        },
        {
          "name": "C#4",
          "midi": 61,
          "time": 60.01162790697293,
          "velocity": 0.4094488188976378,
          "duration": 0.081395348837205
        },
        {
          "name": "C#6",
          "midi": 85,
          "time": 60.03488372092642,
          "velocity": 0.16535433070866143,
          "duration": 0.13953488372091272
        },
        {
          "name": "A#4",
          "midi": 70,
          "time": 60.046511627903165,
          "velocity": 0.31496062992125984,
          "duration": 0.058139534883714816
        },
        {
          "name": "G#3",
          "midi": 56,
          "time": 60.10465116278688,
          "velocity": 0.30708661417322836,
          "duration": 0.0813953488371979
        },
        {
          "name": "C#4",
          "midi": 61,
          "time": 60.10465116278688,
          "velocity": 0.33858267716535434,
          "duration": 0.046511627906973274
        },
        {
          "name": "G#4",
          "midi": 68,
          "time": 60.10465116278688,
          "velocity": 0.36220472440944884,
          "duration": 0.10465116279068098
        },
        {
          "name": "F4",
          "midi": 65,
          "time": 60.11627906976362,
          "velocity": 0.6535433070866141,
          "duration": 0.2441860465115866
        },
        {
          "name": "C5",
          "midi": 72,
          "time": 60.12790697674036,
          "velocity": 0.2992125984251969,
          "duration": 0.13953488372091272
        },
        {
          "name": "A#4",
          "midi": 70,
          "time": 60.162790697670594,
          "velocity": 0.25196850393700787,
          "duration": 0.034883720930224626
        },
        {
          "name": "C#4",
          "midi": 61,
          "time": 60.174418604647336,
          "velocity": 0.31496062992125984,
          "duration": 0.0813953488371979
        },
        {
          "name": "C#6",
          "midi": 85,
          "time": 60.18604651162408,
          "velocity": 0.15748031496062992,
          "duration": 0.0813953488371979
        },
        {
          "name": "G#3",
          "midi": 56,
          "time": 60.20930232557756,
          "velocity": 0.23622047244094488,
          "duration": 0.10465116279068098
        },
        {
          "name": "D#6",
          "midi": 87,
          "time": 60.20930232557756,
          "velocity": 0.11811023622047244,
          "duration": 0.046511627906973274
        },
        {
          "name": "G#4",
          "midi": 68,
          "time": 60.2209302325543,
          "velocity": 0.33858267716535434,
          "duration": 0.0813953488371979
        },
        {
          "name": "A#5",
          "midi": 82,
          "time": 60.2209302325543,
          "velocity": 0.18110236220472442,
          "duration": 0.09302325581393944
        },
        {
          "name": "C#5",
          "midi": 73,
          "time": 60.232558139531044,
          "velocity": 0.31496062992125984,
          "duration": 0.19767441860462043
        },
        {
          "name": "C#4",
          "midi": 61,
          "time": 60.27906976743802,
          "velocity": 0.33858267716535434,
          "duration": 0.04651162790696617
        },
        {
          "name": "D#5",
          "midi": 75,
          "time": 60.27906976743802,
          "velocity": 0.14173228346456693,
          "duration": 0.15116279069764715
        },
        {
          "name": "G#5",
          "midi": 80,
          "time": 60.29069767441476,
          "velocity": 0.4330708661417323,
          "duration": 0.31395348837202874
        },
        {
          "name": "G#4",
          "midi": 68,
          "time": 60.32558139534498,
          "velocity": 0.3937007874015748,
          "duration": 0.18604651162787178
        },
        {
          "name": "F#5",
          "midi": 78,
          "time": 60.32558139534498,
          "velocity": 0.2047244094488189,
          "duration": 0.04651162790696617
        },
        {
          "name": "A#4",
          "midi": 70,
          "time": 60.337209302321725,
          "velocity": 0.23622047244094488,
          "duration": 0.06976744186045636
        },
        {
          "name": "G#3",
          "midi": 56,
          "time": 60.348837209298466,
          "velocity": 0.2204724409448819,
          "duration": 0.0813953488371979
        },
        {
          "name": "F5",
          "midi": 77,
          "time": 60.36046511627521,
          "velocity": 0.2992125984251969,
          "duration": 0.06976744186045636
        },
        {
          "name": "F4",
          "midi": 65,
          "time": 60.37209302325195,
          "velocity": 0.6692913385826772,
          "duration": 0.3023255813952943
        },
        {
          "name": "F#5",
          "midi": 78,
          "time": 60.41860465115892,
          "velocity": 0.3543307086614173,
          "duration": 0.034883720930224626
        },
        {
          "name": "G3",
          "midi": 55,
          "time": 60.430232558135664,
          "velocity": 0.1968503937007874,
          "duration": 0.034883720930224626
        },
        {
          "name": "C#5",
          "midi": 73,
          "time": 60.441860465112406,
          "velocity": 0.4015748031496063,
          "duration": 0.05813953488370771
        },
        {
          "name": "A5",
          "midi": 81,
          "time": 60.441860465112406,
          "velocity": 0.15748031496062992,
          "duration": 0.04651162790696617
        },
        {
          "name": "C#4",
          "midi": 61,
          "time": 60.45348837208915,
          "velocity": 0.29133858267716534,
          "duration": 0.0813953488371908
        },
        {
          "name": "G#3",
          "midi": 56,
          "time": 60.46511627906589,
          "velocity": 0.3464566929133858,
          "duration": 0.1627906976743816
        },
        {
          "name": "E6",
          "midi": 88,
          "time": 60.47674418604263,
          "velocity": 0.15748031496062992,
          "duration": 0.04651162790696617
        },
        {
          "name": "B5",
          "midi": 83,
          "time": 60.48837209301937,
          "velocity": 0.29133858267716534,
          "duration": 0.023255813953483084
        },
        {
          "name": "C5",
          "midi": 72,
          "time": 60.49999999999611,
          "velocity": 0.5511811023622047,
          "duration": 0.19767441860461332
        },
        {
          "name": "D6",
          "midi": 86,
          "time": 60.511627906972855,
          "velocity": 0.07874015748031496,
          "duration": 0.034883720930224626
        },
        {
          "name": "G#4",
          "midi": 68,
          "time": 60.53488372092634,
          "velocity": 0.4094488188976378,
          "duration": 0.19767441860461332
        },
        {
          "name": "A#5",
          "midi": 82,
          "time": 60.53488372092634,
          "velocity": 0.11023622047244094,
          "duration": 0.05813953488370771
        },
        {
          "name": "A6",
          "midi": 93,
          "time": 60.53488372092634,
          "velocity": 0.09448818897637795,
          "duration": 0.034883720930224626
        },
        {
          "name": "D#5",
          "midi": 75,
          "time": 60.55813953487982,
          "velocity": 0.2283464566929134,
          "duration": 0.05813953488370771
        },
        {
          "name": "C#5",
          "midi": 73,
          "time": 60.56976744185656,
          "velocity": 0.25984251968503935,
          "duration": 0.023255813953483084
        },
        {
          "name": "C#4",
          "midi": 61,
          "time": 60.581395348833304,
          "velocity": 0.33858267716535434,
          "duration": 0.12790697674416407
        },
        {
          "name": "B5",
          "midi": 83,
          "time": 60.581395348833304,
          "velocity": 0.13385826771653545,
          "duration": 0.09302325581393944
        },
        {
          "name": "A5",
          "midi": 81,
          "time": 60.593023255810046,
          "velocity": 0.2440944881889764,
          "duration": 0.06976744186045636
        },
        {
          "name": "D#5",
          "midi": 75,
          "time": 60.62790697674027,
          "velocity": 0.13385826771653545,
          "duration": 0.046511627906973274
        },
        {
          "name": "E6",
          "midi": 88,
          "time": 60.62790697674027,
          "velocity": 0.11023622047244094,
          "duration": 0.046511627906973274
        },
        {
          "name": "F4",
          "midi": 65,
          "time": 60.686046511623985,
          "velocity": 0.3858267716535433,
          "duration": 0.06976744186044925
        },
        {
          "name": "G#3",
          "midi": 56,
          "time": 60.69767441860073,
          "velocity": 0.2755905511811024,
          "duration": 0.267441860465091
        },
        {
          "name": "C5",
          "midi": 72,
          "time": 60.72093023255421,
          "velocity": 0.29133858267716534,
          "duration": 0.12790697674417117
        },
        {
          "name": "C#4",
          "midi": 61,
          "time": 60.73255813953095,
          "velocity": 0.1889763779527559,
          "duration": 0.046511627906973274
        },
        {
          "name": "G#4",
          "midi": 68,
          "time": 60.74418604650769,
          "velocity": 0.48031496062992124,
          "duration": 0.09302325581394655
        },
        {
          "name": "D#5",
          "midi": 75,
          "time": 60.755813953484434,
          "velocity": 0.16535433070866143,
          "duration": 0.03488372093023173
        },
        {
          "name": "B5",
          "midi": 83,
          "time": 60.755813953484434,
          "velocity": 0.11023622047244094,
          "duration": 0.03488372093023173
        },
        {
          "name": "F4",
          "midi": 65,
          "time": 60.779069767437925,
          "velocity": 0.6614173228346457,
          "duration": 0.20930232558137618
        },
        {
          "name": "C#6",
          "midi": 85,
          "time": 60.8255813953449,
          "velocity": 0.4330708661417323,
          "duration": 0.6162790697673515
        },
        {
          "name": "C#4",
          "midi": 61,
          "time": 60.83720930232164,
          "velocity": 0.31496062992125984,
          "duration": 0.2441860465115937
        },
        {
          "name": "D#5",
          "midi": 75,
          "time": 60.83720930232164,
          "velocity": 0.28346456692913385,
          "duration": 0.12790697674417828
        },
        {
          "name": "A5",
          "midi": 81,
          "time": 60.84883720929838,
          "velocity": 0.12598425196850394,
          "duration": 0.03488372093023173
        },
        {
          "name": "C5",
          "midi": 72,
          "time": 60.87209302325187,
          "velocity": 0.2755905511811024,
          "duration": 0.046511627906973274
        },
        {
          "name": "A#5",
          "midi": 82,
          "time": 60.87209302325187,
          "velocity": 0.10236220472440945,
          "duration": 0.03488372093023173
        },
        {
          "name": "G#4",
          "midi": 68,
          "time": 60.88372093022861,
          "velocity": 0.3700787401574803,
          "duration": 0.081395348837205
        },
        {
          "name": "C6",
          "midi": 84,
          "time": 60.918604651158844,
          "velocity": 0.2047244094488189,
          "duration": 0.06976744186045636
        },
        {
          "name": "A#4",
          "midi": 70,
          "time": 60.930232558135586,
          "velocity": 0.30708661417322836,
          "duration": 0.046511627906973274
        },
        {
          "name": "F#5",
          "midi": 78,
          "time": 60.97674418604256,
          "velocity": 0.4094488188976378,
          "duration": 0.034883720930224626
        },
        {
          "name": "G#3",
          "midi": 56,
          "time": 60.9883720930193,
          "velocity": 0.28346456692913385,
          "duration": 0.29069767441854566
        },
        {
          "name": "G#5",
          "midi": 80,
          "time": 60.9883720930193,
          "velocity": 0.4409448818897638,
          "duration": 0.441860465116207
        },
        {
          "name": "F4",
          "midi": 65,
          "time": 60.99999999999604,
          "velocity": 0.4094488188976378,
          "duration": 0.023255813953483084
        },
        {
          "name": "A#5",
          "midi": 82,
          "time": 60.99999999999604,
          "velocity": 0.1889763779527559,
          "duration": 0.09302325581393234
        },
        {
          "name": "F#4",
          "midi": 66,
          "time": 61.023255813949525,
          "velocity": 0.4330708661417323,
          "duration": 0.023255813953483084
        },
        {
          "name": "A#4",
          "midi": 70,
          "time": 61.023255813949525,
          "velocity": 0.1968503937007874,
          "duration": 0.06976744186044925
        },
        {
          "name": "C#5",
          "midi": 73,
          "time": 61.023255813949525,
          "velocity": 0.5196850393700787,
          "duration": 0.39534883720924086
        },
        {
          "name": "C6",
          "midi": 84,
          "time": 61.023255813949525,
          "velocity": 0.2755905511811024,
          "duration": 0.023255813953483084
        },
        {
          "name": "F4",
          "midi": 65,
          "time": 61.03488372092627,
          "velocity": 0.4330708661417323,
          "duration": 0.023255813953483084
        },
        {
          "name": "F#5",
          "midi": 78,
          "time": 61.04651162790301,
          "velocity": 0.3228346456692913,
          "duration": 0.034883720930224626
        },
        {
          "name": "F#4",
          "midi": 66,
          "time": 61.05813953487975,
          "velocity": 0.49606299212598426,
          "duration": 0.023255813953483084
        },
        {
          "name": "F5",
          "midi": 77,
          "time": 61.05813953487975,
          "velocity": 0.4251968503937008,
          "duration": 0.05813953488370771
        },
        {
          "name": "F4",
          "midi": 65,
          "time": 61.06976744185649,
          "velocity": 0.4566929133858268,
          "duration": 0.05813953488370771
        },
        {
          "name": "G4",
          "midi": 67,
          "time": 61.08139534883323,
          "velocity": 0.3464566929133858,
          "duration": 0.023255813953483084
        },
        {
          "name": "C#4",
          "midi": 61,
          "time": 61.104651162786716,
          "velocity": 0.6377952755905512,
          "duration": 0.3023255813953085
        },
        {
          "name": "A#5",
          "midi": 82,
          "time": 61.104651162786716,
          "velocity": 0.15748031496062992,
          "duration": 0.034883720930224626
        },
        {
          "name": "F#4",
          "midi": 66,
          "time": 61.1279069767402,
          "velocity": 0.2440944881889764,
          "duration": 0.04651162790696617
        },
        {
          "name": "F5",
          "midi": 77,
          "time": 61.1279069767402,
          "velocity": 0.4645669291338583,
          "duration": 0.27906976744182543
        },
        {
          "name": "A5",
          "midi": 81,
          "time": 61.13953488371694,
          "velocity": 0.15748031496062992,
          "duration": 0.034883720930224626
        },
        {
          "name": "C6",
          "midi": 84,
          "time": 61.13953488371694,
          "velocity": 0.2440944881889764,
          "duration": 0.04651162790696617
        },
        {
          "name": "D#6",
          "midi": 87,
          "time": 61.13953488371694,
          "velocity": 0.15748031496062992,
          "duration": 0.034883720930224626
        },
        {
          "name": "G#4",
          "midi": 68,
          "time": 61.15116279069368,
          "velocity": 0.3464566929133858,
          "duration": 0.10465116279068098
        },
        {
          "name": "D#5",
          "midi": 75,
          "time": 61.162790697670424,
          "velocity": 0.31496062992125984,
          "duration": 0.04651162790696617
        },
        {
          "name": "F4",
          "midi": 65,
          "time": 61.174418604647165,
          "velocity": 0.4094488188976378,
          "duration": 0.186046511627886
        },
        {
          "name": "C6",
          "midi": 84,
          "time": 61.19767441860065,
          "velocity": 0.1968503937007874,
          "duration": 0.058139534883714816
        },
        {
          "name": "G#4",
          "midi": 68,
          "time": 61.267441860461105,
          "velocity": 0.33858267716535434,
          "duration": 0.13953488372091982
        },
        {
          "name": "G#3",
          "midi": 56,
          "time": 61.31395348836808,
          "velocity": 0.25984251968503935,
          "duration": 0.03488372093023173
        },
        {
          "name": "D#5",
          "midi": 75,
          "time": 61.31395348836808,
          "velocity": 0.15748031496062992,
          "duration": 0.081395348837205
        },
        {
          "name": "A#5",
          "midi": 82,
          "time": 61.31395348836808,
          "velocity": 0.08661417322834646,
          "duration": 0.046511627906973274
        },
        {
          "name": "G#3",
          "midi": 56,
          "time": 61.38372093022854,
          "velocity": 0.23622047244094488,
          "duration": 0.023255813953483084
        },
        {
          "name": "C5",
          "midi": 72,
          "time": 61.39534883720528,
          "velocity": 0.28346456692913385,
          "duration": 0.12790697674417828
        },
        {
          "name": "C4",
          "midi": 60,
          "time": 61.406976744182025,
          "velocity": 0.25196850393700787,
          "duration": 0.023255813953483084
        },
        {
          "name": "F4",
          "midi": 65,
          "time": 61.406976744182025,
          "velocity": 0.3779527559055118,
          "duration": 0.034883720930224626
        },
        {
          "name": "D#5",
          "midi": 75,
          "time": 61.406976744182025,
          "velocity": 0.44881889763779526,
          "duration": 0.6395348837208772
        },
        {
          "name": "G#4",
          "midi": 68,
          "time": 61.418604651158766,
          "velocity": 0.4094488188976378,
          "duration": 0.6744186046511018
        },
        {
          "name": "A#5",
          "midi": 82,
          "time": 61.418604651158766,
          "velocity": 0.11023622047244094,
          "duration": 0.046511627906973274
        },
        {
          "name": "D#4",
          "midi": 63,
          "time": 61.43023255813551,
          "velocity": 0.6299212598425197,
          "duration": 0.6395348837208772
        },
        {
          "name": "A#4",
          "midi": 70,
          "time": 61.43023255813551,
          "velocity": 0.13385826771653545,
          "duration": 0.03488372093023173
        },
        {
          "name": "F5",
          "midi": 77,
          "time": 61.44186046511225,
          "velocity": 0.10236220472440945,
          "duration": 0.03488372093023173
        },
        {
          "name": "A#5",
          "midi": 82,
          "time": 61.47674418604248,
          "velocity": 0.1968503937007874,
          "duration": 0.05813953488372192
        },
        {
          "name": "C#6",
          "midi": 85,
          "time": 61.47674418604248,
          "velocity": 0.2047244094488189,
          "duration": 0.4534883720929912
        },
        {
          "name": "G#3",
          "midi": 56,
          "time": 61.49999999999597,
          "velocity": 0.31496062992125984,
          "duration": 0.31395348837205717
        },
        {
          "name": "C5",
          "midi": 72,
          "time": 61.546511627902944,
          "velocity": 0.25984251968503935,
          "duration": 0.10465116279068098
        },
        {
          "name": "G5",
          "midi": 79,
          "time": 61.546511627902944,
          "velocity": 0.14960629921259844,
          "duration": 0.09302325581393944
        },
        {
          "name": "A#5",
          "midi": 82,
          "time": 61.558139534879686,
          "velocity": 0.3543307086614173,
          "duration": 0.15116279069765426
        },
        {
          "name": "F5",
          "midi": 77,
          "time": 61.56976744185643,
          "velocity": 0.18110236220472442,
          "duration": 0.058139534883714816
        },
        {
          "name": "A#4",
          "midi": 70,
          "time": 61.6162790697634,
          "velocity": 0.07874015748031496,
          "duration": 0.04651162790696617
        },
        {
          "name": "C#5",
          "midi": 73,
          "time": 61.639534883716884,
          "velocity": 0.2204724409448819,
          "duration": 0.034883720930224626
        },
        {
          "name": "F#5",
          "midi": 78,
          "time": 61.639534883716884,
          "velocity": 0.1889763779527559,
          "duration": 0.11627906976742253
        },
        {
          "name": "A#4",
          "midi": 70,
          "time": 61.67441860464711,
          "velocity": 0.13385826771653545,
          "duration": 0.046511627906973274
        },
        {
          "name": "C5",
          "midi": 72,
          "time": 61.67441860464711,
          "velocity": 0.2047244094488189,
          "duration": 0.03488372093023173
        },
        {
          "name": "C#5",
          "midi": 73,
          "time": 61.70930232557734,
          "velocity": 0.31496062992125984,
          "duration": 0.04651162790696617
        },
        {
          "name": "F5",
          "midi": 77,
          "time": 61.70930232557734,
          "velocity": 0.11023622047244094,
          "duration": 0.06976744186045636
        },
        {
          "name": "C5",
          "midi": 72,
          "time": 61.73255813953082,
          "velocity": 0.4094488188976378,
          "duration": 0.11627906976743674
        },
        {
          "name": "A#5",
          "midi": 82,
          "time": 61.744186046507565,
          "velocity": 0.16535433070866143,
          "duration": 0.081395348837205
        },
        {
          "name": "A#4",
          "midi": 70,
          "time": 61.80232558139129,
          "velocity": 0.23622047244094488,
          "duration": 0.19767441860464174
        },
        {
          "name": "G#3",
          "midi": 56,
          "time": 61.84883720929826,
          "velocity": 0.18110236220472442,
          "duration": 0.09302325581395365
        },
        {
          "name": "C4",
          "midi": 60,
          "time": 61.84883720929826,
          "velocity": 0.25984251968503935,
          "duration": 0.08139534883721211
        },
        {
          "name": "C5",
          "midi": 72,
          "time": 61.87209302325175,
          "velocity": 0.31496062992125984,
          "duration": 0.02325581395349019
        },
        {
          "name": "G#3",
          "midi": 56,
          "time": 61.98837209301919,
          "velocity": 0.11811023622047244,
          "duration": 0.058139534883714816
        },
        {
          "name": "C5",
          "midi": 72,
          "time": 61.98837209301919,
          "velocity": 0.2755905511811024,
          "duration": 0.10465116279068098
        },
        {
          "name": "C4",
          "midi": 60,
          "time": 62.0465116279029,
          "velocity": 0.2992125984251969,
          "duration": 0.09302325581393944
        },
        {
          "name": "D#6",
          "midi": 87,
          "time": 62.0465116279029,
          "velocity": 0.09448818897637795,
          "duration": 0.034883720930224626
        },
        {
          "name": "G3",
          "midi": 55,
          "time": 62.05813953487964,
          "velocity": 0.3464566929133858,
          "duration": 0.034883720930224626
        },
        {
          "name": "A#4",
          "midi": 70,
          "time": 62.09302325580987,
          "velocity": 0.2283464566929134,
          "duration": 0.081395348837205
        },
        {
          "name": "A3",
          "midi": 57,
          "time": 62.10465116278661,
          "velocity": 0.33070866141732286,
          "duration": 0.02325581395349019
        },
        {
          "name": "D#4",
          "midi": 63,
          "time": 62.10465116278661,
          "velocity": 0.18110236220472442,
          "duration": 0.081395348837205
        },
        {
          "name": "G#4",
          "midi": 68,
          "time": 62.10465116278661,
          "velocity": 0.47244094488188976,
          "duration": 0.23255813953486637
        },
        {
          "name": "G#3",
          "midi": 56,
          "time": 62.1279069767401,
          "velocity": 0.5984251968503937,
          "duration": 0.23255813953486637
        },
        {
          "name": "D#6",
          "midi": 87,
          "time": 62.1279069767401,
          "velocity": 0.08661417322834646,
          "duration": 0.046511627906973274
        },
        {
          "name": "D#5",
          "midi": 75,
          "time": 62.13953488371684,
          "velocity": 0.4015748031496063,
          "duration": 0.25581395348834945
        },
        {
          "name": "C#6",
          "midi": 85,
          "time": 62.17441860464707,
          "velocity": 0.14173228346456693,
          "duration": 0.046511627906973274
        },
        {
          "name": "D#4",
          "midi": 63,
          "time": 62.220930232554046,
          "velocity": 0.2992125984251969,
          "duration": 0.10465116279068809
        },
        {
          "name": "C6",
          "midi": 84,
          "time": 62.23255813953079,
          "velocity": 0.16535433070866143,
          "duration": 0.10465116279068809
        },
        {
          "name": "C5",
          "midi": 72,
          "time": 62.26744186046102,
          "velocity": 0.13385826771653545,
          "duration": 0.046511627906973274
        },
        {
          "name": "F5",
          "midi": 77,
          "time": 62.27906976743776,
          "velocity": 0.1732283464566929,
          "duration": 0.03488372093023173
        },
        {
          "name": "C#6",
          "midi": 85,
          "time": 62.325581395344734,
          "velocity": 0.14173228346456693,
          "duration": 0.046511627906973274
        },
        {
          "name": "C4",
          "midi": 60,
          "time": 62.337209302321476,
          "velocity": 0.2992125984251969,
          "duration": 0.046511627906973274
        },
        {
          "name": "D#4",
          "midi": 63,
          "time": 62.360465116274966,
          "velocity": 0.3937007874015748,
          "duration": 0.1860465116278931
        },
        {
          "name": "G#3",
          "midi": 56,
          "time": 62.37209302325171,
          "velocity": 0.4251968503937008,
          "duration": 0.19767441860464174
        },
        {
          "name": "C4",
          "midi": 60,
          "time": 62.39534883720519,
          "velocity": 0.2283464566929134,
          "duration": 0.02325581395349019
        },
        {
          "name": "C#5",
          "midi": 73,
          "time": 62.39534883720519,
          "velocity": 0.33858267716535434,
          "duration": 0.02325581395349019
        },
        {
          "name": "E5",
          "midi": 76,
          "time": 62.39534883720519,
          "velocity": 0.1889763779527559,
          "duration": 0.03488372093023173
        },
        {
          "name": "C5",
          "midi": 72,
          "time": 62.41860465115868,
          "velocity": 0.36220472440944884,
          "duration": 0.081395348837205
        },
        {
          "name": "G#5",
          "midi": 80,
          "time": 62.441860465112164,
          "velocity": 0.1732283464566929,
          "duration": 0.081395348837205
        },
        {
          "name": "C#6",
          "midi": 85,
          "time": 62.465116279065654,
          "velocity": 0.07874015748031496,
          "duration": 0.058139534883714816
        },
        {
          "name": "C4",
          "midi": 60,
          "time": 62.476744186042396,
          "velocity": 0.2992125984251969,
          "duration": 0.1046511627906952
        },
        {
          "name": "G#4",
          "midi": 68,
          "time": 62.476744186042396,
          "velocity": 0.4409448818897638,
          "duration": 0.1627906976744029
        },
        {
          "name": "C#5",
          "midi": 73,
          "time": 62.499999999995886,
          "velocity": 0.28346456692913385,
          "duration": 0.023255813953483084
        },
        {
          "name": "D#5",
          "midi": 75,
          "time": 62.51162790697263,
          "velocity": 0.4015748031496063,
          "duration": 0.4302325581394797
        },
        {
          "name": "A#5",
          "midi": 82,
          "time": 62.54651162790286,
          "velocity": 0.14173228346456693,
          "duration": 0.058139534883714816
        },
        {
          "name": "G#3",
          "midi": 56,
          "time": 62.59302325580983,
          "velocity": 0.3228346456692913,
          "duration": 0.1627906976743887
        },
        {
          "name": "C4",
          "midi": 60,
          "time": 62.59302325580983,
          "velocity": 0.2283464566929134,
          "duration": 0.034883720930224626
        },
        {
          "name": "D#4",
          "midi": 63,
          "time": 62.59302325580983,
          "velocity": 0.3779527559055118,
          "duration": 0.12790697674416407
        },
        {
          "name": "A#4",
          "midi": 70,
          "time": 62.616279069763316,
          "velocity": 0.16535433070866143,
          "duration": 0.0813953488371979
        },
        {
          "name": "C5",
          "midi": 72,
          "time": 62.65116279069354,
          "velocity": 0.1732283464566929,
          "duration": 0.058139534883714816
        },
        {
          "name": "C#6",
          "midi": 85,
          "time": 62.68604651162377,
          "velocity": 0.1732283464566929,
          "duration": 0.22093023255811062
        },
        {
          "name": "A4",
          "midi": 69,
          "time": 62.709302325577255,
          "velocity": 0.41732283464566927,
          "duration": 0.023255813953483084
        },
        {
          "name": "C6",
          "midi": 84,
          "time": 62.709302325577255,
          "velocity": 0.18110236220472442,
          "duration": 0.0813953488371908
        },
        {
          "name": "E7",
          "midi": 100,
          "time": 62.709302325577255,
          "velocity": 0.13385826771653545,
          "duration": 0.034883720930224626
        },
        {
          "name": "B4",
          "midi": 71,
          "time": 62.720930232554,
          "velocity": 0.30708661417322836,
          "duration": 0.034883720930224626
        },
        {
          "name": "G#5",
          "midi": 80,
          "time": 62.720930232554,
          "velocity": 0.2283464566929134,
          "duration": 0.0813953488371908
        },
        {
          "name": "D#6",
          "midi": 87,
          "time": 62.720930232554,
          "velocity": 0.4251968503937008,
          "duration": 0.5930232558138826
        },
        {
          "name": "G6",
          "midi": 91,
          "time": 62.720930232554,
          "velocity": 0.15748031496062992,
          "duration": 0.034883720930224626
        },
        {
          "name": "A6",
          "midi": 93,
          "time": 62.720930232554,
          "velocity": 0.07874015748031496,
          "duration": 0.034883720930224626
        },
        {
          "name": "D#4",
          "midi": 63,
          "time": 62.73255813953074,
          "velocity": 0.4251968503937008,
          "duration": 0.5232558139534333
        },
        {
          "name": "G#4",
          "midi": 68,
          "time": 62.73255813953074,
          "velocity": 0.6692913385826772,
          "duration": 0.558139534883658
        },
        {
          "name": "G#3",
          "midi": 56,
          "time": 62.76744186046096,
          "velocity": 0.2677165354330709,
          "duration": 0.023255813953483084
        },
        {
          "name": "A#4",
          "midi": 70,
          "time": 62.76744186046096,
          "velocity": 0.33858267716535434,
          "duration": 0.023255813953483084
        },
        {
          "name": "C5",
          "midi": 72,
          "time": 62.779069767437704,
          "velocity": 0.3228346456692913,
          "duration": 0.10465116279068809
        },
        {
          "name": "G#3",
          "midi": 56,
          "time": 62.80232558139119,
          "velocity": 0.33858267716535434,
          "duration": 0.46511627906972564
        },
        {
          "name": "A#5",
          "midi": 82,
          "time": 62.81395348836793,
          "velocity": 0.07874015748031496,
          "duration": 0.03488372093023173
        },
        {
          "name": "C4",
          "midi": 60,
          "time": 62.83720930232142,
          "velocity": 0.16535433070866143,
          "duration": 0.081395348837205
        },
        {
          "name": "A#5",
          "midi": 82,
          "time": 62.87209302325165,
          "velocity": 0.12598425196850394,
          "duration": 0.046511627906973274
        },
        {
          "name": "B4",
          "midi": 71,
          "time": 62.88372093022839,
          "velocity": 0.3464566929133858,
          "duration": 0.0813953488371979
        },
        {
          "name": "A#5",
          "midi": 82,
          "time": 62.930232558135366,
          "velocity": 0.2204724409448819,
          "duration": 0.31395348837206427
        },
        {
          "name": "C6",
          "midi": 84,
          "time": 62.94186046511211,
          "velocity": 0.2440944881889764,
          "duration": 0.186046511627886
        },
        {
          "name": "D#5",
          "midi": 75,
          "time": 62.95348837208885,
          "velocity": 0.49606299212598426,
          "duration": 0.36046511627903044
        },
        {
          "name": "C#6",
          "midi": 85,
          "time": 62.95348837208885,
          "velocity": 0.11811023622047244,
          "duration": 0.058139534883714816
        },
        {
          "name": "C5",
          "midi": 72,
          "time": 62.96511627906559,
          "velocity": 0.30708661417322836,
          "duration": 0.058139534883714816
        },
        {
          "name": "C4",
          "midi": 60,
          "time": 62.97674418604233,
          "velocity": 0.1889763779527559,
          "duration": 0.046511627906973274
        },
        {
          "name": "F5",
          "midi": 77,
          "time": 63.03488372092605,
          "velocity": 0.2204724409448819,
          "duration": 0.046511627906973274
        },
        {
          "name": "C5",
          "midi": 72,
          "time": 63.04651162790279,
          "velocity": 0.3464566929133858,
          "duration": 0.1046511627906952
        },
        {
          "name": "G5",
          "midi": 79,
          "time": 63.08139534883302,
          "velocity": 0.2283464566929134,
          "duration": 0.03488372093023173
        },
        {
          "name": "C4",
          "midi": 60,
          "time": 63.09302325580976,
          "velocity": 0.2755905511811024,
          "duration": 0.06976744186046346
        },
        {
          "name": "C5",
          "midi": 72,
          "time": 63.162790697670225,
          "velocity": 0.48031496062992124,
          "duration": 0.09302325581394655
        },
        {
          "name": "F5",
          "midi": 77,
          "time": 63.162790697670225,
          "velocity": 0.13385826771653545,
          "duration": 0.03488372093023173
        },
        {
          "name": "C#6",
          "midi": 85,
          "time": 63.19767441860046,
          "velocity": 0.1889763779527559,
          "duration": 0.09302325581393944
        },
        {
          "name": "G5",
          "midi": 79,
          "time": 63.25581395348417,
          "velocity": 0.18110236220472442,
          "duration": 0.034883720930224626
        },
        {
          "name": "F7",
          "midi": 101,
          "time": 63.25581395348417,
          "velocity": 0.14960629921259844,
          "duration": 0.034883720930224626
        },
        {
          "name": "F#7",
          "midi": 102,
          "time": 63.25581395348417,
          "velocity": 0.11811023622047244,
          "duration": 0.034883720930224626
        },
        {
          "name": "D#4",
          "midi": 63,
          "time": 63.26744186046091,
          "velocity": 0.3858267716535433,
          "duration": 0.31395348837205006
        },
        {
          "name": "C5",
          "midi": 72,
          "time": 63.26744186046091,
          "velocity": 0.44881889763779526,
          "duration": 0.22093023255811062
        },
        {
          "name": "G#3",
          "midi": 56,
          "time": 63.279069767437655,
          "velocity": 0.28346456692913385,
          "duration": 0.186046511627886
        },
        {
          "name": "D7",
          "midi": 98,
          "time": 63.279069767437655,
          "velocity": 0.11023622047244094,
          "duration": 0.06976744186045636
        },
        {
          "name": "G#4",
          "midi": 68,
          "time": 63.30232558139114,
          "velocity": 0.3937007874015748,
          "duration": 0.06976744186045636
        },
        {
          "name": "A#5",
          "midi": 82,
          "time": 63.31395348836788,
          "velocity": 0.1889763779527559,
          "duration": 0.06976744186045636
        },
        {
          "name": "C#6",
          "midi": 85,
          "time": 63.32558139534462,
          "velocity": 0.23622047244094488,
          "duration": 0.27906976744182543
        },
        {
          "name": "D#6",
          "midi": 87,
          "time": 63.32558139534462,
          "velocity": 0.44881889763779526,
          "duration": 0.7209302325580538
        },
        {
          "name": "C4",
          "midi": 60,
          "time": 63.36046511627485,
          "velocity": 0.2992125984251969,
          "duration": 0.06976744186045636
        },
        {
          "name": "F#5",
          "midi": 78,
          "time": 63.36046511627485,
          "velocity": 0.11811023622047244,
          "duration": 0.034883720930224626
        },
        {
          "name": "G#4",
          "midi": 68,
          "time": 63.383720930228336,
          "velocity": 0.6377952755905512,
          "duration": 0.290697674418567
        },
        {
          "name": "E5",
          "midi": 76,
          "time": 63.383720930228336,
          "velocity": 0.14173228346456693,
          "duration": 0.03488372093023173
        },
        {
          "name": "B5",
          "midi": 83,
          "time": 63.383720930228336,
          "velocity": 0.1732283464566929,
          "duration": 0.03488372093023173
        },
        {
          "name": "C7",
          "midi": 96,
          "time": 63.39534883720508,
          "velocity": 0.09448818897637795,
          "duration": 0.06976744186046346
        },
        {
          "name": "C4",
          "midi": 60,
          "time": 63.46511627906554,
          "velocity": 0.16535433070866143,
          "duration": 0.04651162790696617
        },
        {
          "name": "G5",
          "midi": 79,
          "time": 63.47674418604228,
          "velocity": 0.2755905511811024,
          "duration": 0.023255813953483084
        },
        {
          "name": "A#5",
          "midi": 82,
          "time": 63.47674418604228,
          "velocity": 0.4409448818897638,
          "duration": 0.813953488371979
        },
        {
          "name": "C5",
          "midi": 72,
          "time": 63.52325581394925,
          "velocity": 0.16535433070866143,
          "duration": 0.046511627906973274
        },
        {
          "name": "G#3",
          "midi": 56,
          "time": 63.53488372092599,
          "velocity": 0.2204724409448819,
          "duration": 0.1627906976743958
        },
        {
          "name": "C6",
          "midi": 84,
          "time": 63.53488372092599,
          "velocity": 0.4015748031496063,
          "duration": 0.3255813953487845
        },
        {
          "name": "F5",
          "midi": 77,
          "time": 63.56976744185622,
          "velocity": 0.5669291338582677,
          "duration": 0.709302325581298
        },
        {
          "name": "E6",
          "midi": 88,
          "time": 63.56976744185622,
          "velocity": 0.1889763779527559,
          "duration": 0.034883720930224626
        },
        {
          "name": "F#6",
          "midi": 90,
          "time": 63.58139534883296,
          "velocity": 0.07086614173228346,
          "duration": 0.034883720930224626
        },
        {
          "name": "G6",
          "midi": 91,
          "time": 63.58139534883296,
          "velocity": 0.2440944881889764,
          "duration": 0.2674418604650697
        },
        {
          "name": "A6",
          "midi": 93,
          "time": 63.58139534883296,
          "velocity": 0.29133858267716534,
          "duration": 0.23255813953484505
        },
        {
          "name": "C5",
          "midi": 72,
          "time": 63.593023255809705,
          "velocity": 0.4645669291338583,
          "duration": 0.11627906976742253
        },
        {
          "name": "F4",
          "midi": 65,
          "time": 63.604651162786446,
          "velocity": 0.6535433070866141,
          "duration": 0.1627906976743887
        },
        {
          "name": "C#6",
          "midi": 85,
          "time": 63.65116279069342,
          "velocity": 0.2047244094488189,
          "duration": 0.09302325581393234
        },
        {
          "name": "A5",
          "midi": 81,
          "time": 63.66279069767016,
          "velocity": 0.23622047244094488,
          "duration": 0.023255813953483084
        },
        {
          "name": "E7",
          "midi": 100,
          "time": 63.6744186046469,
          "velocity": 0.15748031496062992,
          "duration": 0.04651162790696617
        },
        {
          "name": "G#5",
          "midi": 80,
          "time": 63.686046511623644,
          "velocity": 0.30708661417322836,
          "duration": 0.05813953488370771
        },
        {
          "name": "B6",
          "midi": 95,
          "time": 63.686046511623644,
          "velocity": 0.14173228346456693,
          "duration": 0.06976744186044925
        },
        {
          "name": "D7",
          "midi": 98,
          "time": 63.686046511623644,
          "velocity": 0.12598425196850394,
          "duration": 0.034883720930224626
        },
        {
          "name": "A#4",
          "midi": 70,
          "time": 63.697674418600386,
          "velocity": 0.28346456692913385,
          "duration": 0.023255813953483084
        },
        {
          "name": "F#7",
          "midi": 102,
          "time": 63.697674418600386,
          "velocity": 0.14173228346456693,
          "duration": 0.04651162790696617
        },
        {
          "name": "G5",
          "midi": 79,
          "time": 63.70930232557713,
          "velocity": 0.2047244094488189,
          "duration": 0.04651162790696617
        },
        {
          "name": "D#4",
          "midi": 63,
          "time": 63.72093023255387,
          "velocity": 0.5196850393700787,
          "duration": 0.011627906976741542
        },
        {
          "name": "C5",
          "midi": 72,
          "time": 63.72093023255387,
          "velocity": 0.5118110236220472,
          "duration": 0.33720930232554736
        },
        {
          "name": "E6",
          "midi": 88,
          "time": 63.72093023255387,
          "velocity": 0.2440944881889764,
          "duration": 0.034883720930224626
        },
        {
          "name": "G#4",
          "midi": 68,
          "time": 63.73255813953061,
          "velocity": 0.30708661417322836,
          "duration": 0.034883720930224626
        },
        {
          "name": "C4",
          "midi": 60,
          "time": 63.74418604650735,
          "velocity": 0.25984251968503935,
          "duration": 0.023255813953483084
        },
        {
          "name": "D#4",
          "midi": 63,
          "time": 63.74418604650735,
          "velocity": 0.5590551181102362,
          "duration": 0.011627906976741542
        },
        {
          "name": "G#5",
          "midi": 80,
          "time": 63.75581395348409,
          "velocity": 0.3543307086614173,
          "duration": 0.27906976744183964
        },
        {
          "name": "E4",
          "midi": 64,
          "time": 63.767441860460835,
          "velocity": 0.6535433070866141,
          "duration": 0.011627906976741542
        },
        {
          "name": "D#5",
          "midi": 75,
          "time": 63.767441860460835,
          "velocity": 0.47244094488188976,
          "duration": 0.2674418604650981
        },
        {
          "name": "C#6",
          "midi": 85,
          "time": 63.767441860460835,
          "velocity": 0.1732283464566929,
          "duration": 0.058139534883714816
        },
        {
          "name": "D#4",
          "midi": 63,
          "time": 63.779069767437576,
          "velocity": 0.7322834645669292,
          "duration": 0.2906976744185812
        },
        {
          "name": "G#4",
          "midi": 68,
          "time": 63.779069767437576,
          "velocity": 0.3464566929133858,
          "duration": 0.02325581395349019
        },
        {
          "name": "F4",
          "midi": 65,
          "time": 63.80232558139107,
          "velocity": 0.5984251968503937,
          "duration": 0.011627906976741542
        },
        {
          "name": "F#5",
          "midi": 78,
          "time": 63.80232558139107,
          "velocity": 0.15748031496062992,
          "duration": 0.034883720930224626
        },
        {
          "name": "A6",
          "midi": 93,
          "time": 63.84883720929803,
          "velocity": 0.07874015748031496,
          "duration": 0.06976744186045636
        },
        {
          "name": "G#3",
          "midi": 56,
          "time": 63.860465116274774,
          "velocity": 0.2047244094488189,
          "duration": 0.15116279069767558
        },
        {
          "name": "G#4",
          "midi": 68,
          "time": 63.860465116274774,
          "velocity": 0.3779527559055118,
          "duration": 0.06976744186045636
        },
        {
          "name": "C#6",
          "midi": 85,
          "time": 63.872093023251516,
          "velocity": 0.14960629921259844,
          "duration": 0.1046511627906952
        },
        {
          "name": "G6",
          "midi": 91,
          "time": 63.88372093022826,
          "velocity": 0.2283464566929134,
          "duration": 0.15116279069767558
        },
        {
          "name": "A4",
          "midi": 69,
          "time": 63.93023255813523,
          "velocity": 0.3228346456692913,
          "duration": 0.02325581395349019
        },
        {
          "name": "G#4",
          "midi": 68,
          "time": 63.95348837208872,
          "velocity": 0.33070866141732286,
          "duration": 0.08139534883721211
        },
        {
          "name": "C#6",
          "midi": 85,
          "time": 64.01162790697245,
          "velocity": 0.4566929133858268,
          "duration": 0.7325581395347314
        },
        {
          "name": "A#4",
          "midi": 70,
          "time": 64.02325581394919,
          "velocity": 0.29133858267716534,
          "duration": 0.11627906976741542
        },
        {
          "name": "D6",
          "midi": 86,
          "time": 64.02325581394919,
          "velocity": 0.12598425196850394,
          "duration": 0.034883720930224626
        },
        {
          "name": "C#5",
          "midi": 73,
          "time": 64.03488372092593,
          "velocity": 0.3700787401574803,
          "duration": 0.09302325581393234
        },
        {
          "name": "G#5",
          "midi": 80,
          "time": 64.04651162790267,
          "velocity": 0.31496062992125984,
          "duration": 0.09302325581393234
        },
        {
          "name": "C#4",
          "midi": 61,
          "time": 64.06976744185616,
          "velocity": 0.4330708661417323,
          "duration": 0.05813953488370771
        },
        {
          "name": "F4",
          "midi": 65,
          "time": 64.06976744185616,
          "velocity": 0.33858267716535434,
          "duration": 0.04651162790696617
        },
        {
          "name": "D#6",
          "midi": 87,
          "time": 64.09302325580964,
          "velocity": 0.14960629921259844,
          "duration": 0.05813953488370771
        },
        {
          "name": "D#4",
          "midi": 63,
          "time": 64.12790697673987,
          "velocity": 0.4015748031496063,
          "duration": 0.05813953488370771
        },
        {
          "name": "C5",
          "midi": 72,
          "time": 64.12790697673987,
          "velocity": 0.2755905511811024,
          "duration": 0.023255813953483084
        },
        {
          "name": "C#5",
          "midi": 73,
          "time": 64.1395348837166,
          "velocity": 0.41732283464566927,
          "duration": 0.11627906976742963
        },
        {
          "name": "G#6",
          "midi": 92,
          "time": 64.1395348837166,
          "velocity": 0.07086614173228346,
          "duration": 0.034883720930224626
        },
        {
          "name": "G#4",
          "midi": 68,
          "time": 64.15116279069335,
          "velocity": 0.33070866141732286,
          "duration": 0.09302325581394655
        },
        {
          "name": "A#4",
          "midi": 70,
          "time": 64.15116279069335,
          "velocity": 0.33070866141732286,
          "duration": 0.06976744186046346
        },
        {
          "name": "C#4",
          "midi": 61,
          "time": 64.18604651162357,
          "velocity": 0.4094488188976378,
          "duration": 0.04651162790698038
        },
        {
          "name": "F4",
          "midi": 65,
          "time": 64.18604651162357,
          "velocity": 0.4251968503937008,
          "duration": 0.06976744186046346
        },
        {
          "name": "D#6",
          "midi": 87,
          "time": 64.18604651162357,
          "velocity": 0.14960629921259844,
          "duration": 0.12790697674417117
        },
        {
          "name": "D#5",
          "midi": 75,
          "time": 64.23255813953055,
          "velocity": 0.2125984251968504,
          "duration": 0.06976744186044925
        },
        {
          "name": "B6",
          "midi": 95,
          "time": 64.23255813953055,
          "velocity": 0.15748031496062992,
          "duration": 0.04651162790696617
        },
        {
          "name": "C7",
          "midi": 96,
          "time": 64.23255813953055,
          "velocity": 0.12598425196850394,
          "duration": 0.05813953488370771
        },
        {
          "name": "E7",
          "midi": 100,
          "time": 64.23255813953055,
          "velocity": 0.1732283464566929,
          "duration": 0.034883720930224626
        },
        {
          "name": "F#7",
          "midi": 102,
          "time": 64.23255813953055,
          "velocity": 0.14960629921259844,
          "duration": 0.034883720930224626
        },
        {
          "name": "G7",
          "midi": 103,
          "time": 64.23255813953055,
          "velocity": 0.11811023622047244,
          "duration": 0.034883720930224626
        },
        {
          "name": "C#4",
          "midi": 61,
          "time": 64.2441860465073,
          "velocity": 0.5748031496062992,
          "duration": 0.10465116279067388
        },
        {
          "name": "A#4",
          "midi": 70,
          "time": 64.2441860465073,
          "velocity": 0.3228346456692913,
          "duration": 0.05813953488370771
        },
        {
          "name": "C6",
          "midi": 84,
          "time": 64.2441860465073,
          "velocity": 0.25196850393700787,
          "duration": 0.023255813953483084
        },
        {
          "name": "C5",
          "midi": 72,
          "time": 64.25581395348404,
          "velocity": 0.31496062992125984,
          "duration": 0.05813953488370771
        },
        {
          "name": "F3",
          "midi": 53,
          "time": 64.26744186046078,
          "velocity": 0.2125984251968504,
          "duration": 0.034883720930224626
        },
        {
          "name": "F4",
          "midi": 65,
          "time": 64.26744186046078,
          "velocity": 0.41732283464566927,
          "duration": 0.06976744186044925
        },
        {
          "name": "G#4",
          "midi": 68,
          "time": 64.27906976743752,
          "velocity": 0.2204724409448819,
          "duration": 0.05813953488370771
        },
        {
          "name": "F5",
          "midi": 77,
          "time": 64.302325581391,
          "velocity": 0.5433070866141733,
          "duration": 1.1395348837206711
        },
        {
          "name": "A#4",
          "midi": 70,
          "time": 64.31395348836774,
          "velocity": 0.23622047244094488,
          "duration": 0.023255813953483084
        },
        {
          "name": "D#4",
          "midi": 63,
          "time": 64.33720930232123,
          "velocity": 0.5196850393700787,
          "duration": 0.023255813953483084
        },
        {
          "name": "F#6",
          "midi": 90,
          "time": 64.33720930232123,
          "velocity": 0.1732283464566929,
          "duration": 0.05813953488370771
        },
        {
          "name": "G#6",
          "midi": 92,
          "time": 64.33720930232123,
          "velocity": 0.2755905511811024,
          "duration": 0.17441860465112313
        },
        {
          "name": "A#4",
          "midi": 70,
          "time": 64.34883720929797,
          "velocity": 0.5905511811023622,
          "duration": 0.279069767441797
        },
        {
          "name": "G#5",
          "midi": 80,
          "time": 64.34883720929797,
          "velocity": 0.4409448818897638,
          "duration": 0.26744186046505547
        },
        {
          "name": "E6",
          "midi": 88,
          "time": 64.34883720929797,
          "velocity": 0.2204724409448819,
          "duration": 0.04651162790696617
        },
        {
          "name": "A6",
          "midi": 93,
          "time": 64.34883720929797,
          "velocity": 0.16535433070866143,
          "duration": 0.034883720930224626
        },
        {
          "name": "B6",
          "midi": 95,
          "time": 64.34883720929797,
          "velocity": 0.25984251968503935,
          "duration": 0.09302325581393234
        },
        {
          "name": "C7",
          "midi": 96,
          "time": 64.34883720929797,
          "velocity": 0.11023622047244094,
          "duration": 0.034883720930224626
        },
        {
          "name": "D7",
          "midi": 98,
          "time": 64.34883720929797,
          "velocity": 0.15748031496062992,
          "duration": 0.05813953488370771
        },
        {
          "name": "D#7",
          "midi": 99,
          "time": 64.34883720929797,
          "velocity": 0.2440944881889764,
          "duration": 0.09302325581393234
        },
        {
          "name": "D6",
          "midi": 86,
          "time": 64.36046511627471,
          "velocity": 0.2283464566929134,
          "duration": 0.023255813953483084
        },
        {
          "name": "C#4",
          "midi": 61,
          "time": 64.37209302325145,
          "velocity": 0.6377952755905512,
          "duration": 0.2209302325580893
        },
        {
          "name": "C6",
          "midi": 84,
          "time": 64.3837209302282,
          "velocity": 0.31496062992125984,
          "duration": 0.04651162790696617
        },
        {
          "name": "C6",
          "midi": 84,
          "time": 64.4418604651119,
          "velocity": 0.2125984251968504,
          "duration": 0.034883720930224626
        },
        {
          "name": "D#5",
          "midi": 75,
          "time": 64.45348837208864,
          "velocity": 0.25196850393700787,
          "duration": 0.05813953488370771
        },
        {
          "name": "C6",
          "midi": 84,
          "time": 64.48837209301887,
          "velocity": 0.1889763779527559,
          "duration": 0.0813953488371908
        },
        {
          "name": "C5",
          "midi": 72,
          "time": 64.52325581394909,
          "velocity": 0.25984251968503935,
          "duration": 0.023255813953483084
        },
        {
          "name": "D6",
          "midi": 86,
          "time": 64.52325581394909,
          "velocity": 0.08661417322834646,
          "duration": 0.06976744186044925
        },
        {
          "name": "F4",
          "midi": 65,
          "time": 64.54651162790258,
          "velocity": 0.3779527559055118,
          "duration": 0.0813953488371908
        },
        {
          "name": "A#3",
          "midi": 58,
          "time": 64.59302325580954,
          "velocity": 0.3700787401574803,
          "duration": 0.06976744186044925
        },
        {
          "name": "D#5",
          "midi": 75,
          "time": 64.61627906976302,
          "velocity": 0.2283464566929134,
          "duration": 0.04651162790696617
        },
        {
          "name": "A#4",
          "midi": 70,
          "time": 64.63953488371651,
          "velocity": 0.3779527559055118,
          "duration": 0.04651162790696617
        },
        {
          "name": "E7",
          "midi": 100,
          "time": 64.66279069766999,
          "velocity": 0.1889763779527559,
          "duration": 0.034883720930224626
        },
        {
          "name": "D4",
          "midi": 62,
          "time": 64.67441860464673,
          "velocity": 0.36220472440944884,
          "duration": 0.023255813953483084
        },
        {
          "name": "A5",
          "midi": 81,
          "time": 64.67441860464673,
          "velocity": 0.12598425196850394,
          "duration": 0.034883720930224626
        },
        {
          "name": "G#6",
          "midi": 92,
          "time": 64.67441860464673,
          "velocity": 0.14173228346456693,
          "duration": 0.18604651162786467
        },
        {
          "name": "A6",
          "midi": 93,
          "time": 64.67441860464673,
          "velocity": 0.13385826771653545,
          "duration": 0.04651162790696617
        },
        {
          "name": "B6",
          "midi": 95,
          "time": 64.67441860464673,
          "velocity": 0.16535433070866143,
          "duration": 0.04651162790696617
        },
        {
          "name": "C7",
          "midi": 96,
          "time": 64.67441860464673,
          "velocity": 0.14173228346456693,
          "duration": 0.04651162790696617
        },
        {
          "name": "D#7",
          "midi": 99,
          "time": 64.67441860464673,
          "velocity": 0.2047244094488189,
          "duration": 0.05813953488370771
        },
        {
          "name": "F#7",
          "midi": 102,
          "time": 64.67441860464673,
          "velocity": 0.15748031496062992,
          "duration": 0.04651162790696617
        },
        {
          "name": "C#5",
          "midi": 73,
          "time": 64.68604651162347,
          "velocity": 0.30708661417322836,
          "duration": 0.09302325581393234
        },
        {
          "name": "G#5",
          "midi": 80,
          "time": 64.68604651162347,
          "velocity": 0.33858267716535434,
          "duration": 0.4186046511626955
        },
        {
          "name": "C6",
          "midi": 84,
          "time": 64.68604651162347,
          "velocity": 0.14960629921259844,
          "duration": 0.0813953488371908
        },
        {
          "name": "C#4",
          "midi": 61,
          "time": 64.69767441860022,
          "velocity": 0.5511811023622047,
          "duration": 0.18604651162786467
        },
        {
          "name": "F4",
          "midi": 65,
          "time": 64.70930232557696,
          "velocity": 0.36220472440944884,
          "duration": 0.1627906976743816
        },
        {
          "name": "A#4",
          "midi": 70,
          "time": 64.7209302325537,
          "velocity": 0.5984251968503937,
          "duration": 0.5465116279068525
        },
        {
          "name": "D#5",
          "midi": 75,
          "time": 64.73255813953044,
          "velocity": 0.1968503937007874,
          "duration": 0.034883720930224626
        },
        {
          "name": "D5",
          "midi": 74,
          "time": 64.76744186046066,
          "velocity": 0.2677165354330709,
          "duration": 0.04651162790696617
        },
        {
          "name": "C#6",
          "midi": 85,
          "time": 64.79069767441415,
          "velocity": 0.4251968503937008,
          "duration": 0.5813953488370771
        },
        {
          "name": "D5",
          "midi": 74,
          "time": 64.83720930232111,
          "velocity": 0.2755905511811024,
          "duration": 0.023255813953483084
        },
        {
          "name": "D4",
          "midi": 62,
          "time": 64.88372093022808,
          "velocity": 0.5354330708661418,
          "duration": 0.011627906976741542
        },
        {
          "name": "C6",
          "midi": 84,
          "time": 64.88372093022808,
          "velocity": 0.29133858267716534,
          "duration": 0.0813953488371908
        },
        {
          "name": "C4",
          "midi": 60,
          "time": 64.89534883720482,
          "velocity": 0.5590551181102362,
          "duration": 0.023255813953483084
        },
        {
          "name": "F4",
          "midi": 65,
          "time": 64.89534883720482,
          "velocity": 0.44881889763779526,
          "duration": 0.09302325581393234
        },
        {
          "name": "B3",
          "midi": 59,
          "time": 64.90697674418156,
          "velocity": 0.5590551181102362,
          "duration": 0.011627906976741542
        },
        {
          "name": "D7",
          "midi": 98,
          "time": 64.90697674418156,
          "velocity": 0.1732283464566929,
          "duration": 0.05813953488370771
        },
        {
          "name": "A#3",
          "midi": 58,
          "time": 64.9186046511583,
          "velocity": 0.7244094488188977,
          "duration": 0.12790697674415696
        },
        {
          "name": "C#4",
          "midi": 61,
          "time": 64.9186046511583,
          "velocity": 0.5511811023622047,
          "duration": 0.034883720930224626
        },
        {
          "name": "D6",
          "midi": 86,
          "time": 64.94186046511179,
          "velocity": 0.15748031496062992,
          "duration": 0.034883720930224626
        },
        {
          "name": "D#5",
          "midi": 75,
          "time": 64.95348837208853,
          "velocity": 0.23622047244094488,
          "duration": 0.04651162790696617
        },
        {
          "name": "C6",
          "midi": 84,
          "time": 64.97674418604201,
          "velocity": 0.3543307086614173,
          "duration": 0.1627906976743816
        },
        {
          "name": "D#7",
          "midi": 99,
          "time": 64.98837209301875,
          "velocity": 0.25984251968503935,
          "duration": 0.11627906976741542
        },
        {
          "name": "E7",
          "midi": 100,
          "time": 64.98837209301875,
          "velocity": 0.1968503937007874,
          "duration": 0.04651162790696617
        },
        {
          "name": "E4",
          "midi": 64,
          "time": 64.9999999999955,
          "velocity": 0.44881889763779526,
          "duration": 0.023255813953483084
        },
        {
          "name": "G5",
          "midi": 79,
          "time": 64.9999999999955,
          "velocity": 0.16535433070866143,
          "duration": 0.04651162790696617
        },
        {
          "name": "A6",
          "midi": 93,
          "time": 64.9999999999955,
          "velocity": 0.18110236220472442,
          "duration": 0.06976744186044925
        },
        {
          "name": "B6",
          "midi": 95,
          "time": 64.9999999999955,
          "velocity": 0.10236220472440945,
          "duration": 0.05813953488370771
        },
        {
          "name": "D7",
          "midi": 98,
          "time": 64.9999999999955,
          "velocity": 0.18110236220472442,
          "duration": 0.05813953488370771
        },
        {
          "name": "F#7",
          "midi": 102,
          "time": 64.9999999999955,
          "velocity": 0.1968503937007874,
          "duration": 0.034883720930224626
        },
        {
          "name": "D#5",
          "midi": 75,
          "time": 65.01162790697224,
          "velocity": 0.49606299212598426,
          "duration": 0.3023255813952801
        },
        {
          "name": "F4",
          "midi": 65,
          "time": 65.02325581394898,
          "velocity": 0.4645669291338583,
          "duration": 0.10465116279067388
        },
        {
          "name": "C#5",
          "midi": 73,
          "time": 65.02325581394898,
          "velocity": 0.3543307086614173,
          "duration": 0.09302325581393234
        },
        {
          "name": "F#6",
          "midi": 90,
          "time": 65.02325581394898,
          "velocity": 0.13385826771653545,
          "duration": 0.034883720930224626
        },
        {
          "name": "G#3",
          "midi": 56,
          "time": 65.04651162790246,
          "velocity": 0.5511811023622047,
          "duration": 0.011627906976741542
        },
        {
          "name": "G3",
          "midi": 55,
          "time": 65.0581395348792,
          "velocity": 0.5590551181102362,
          "duration": 0.011627906976741542
        },
        {
          "name": "G#3",
          "midi": 56,
          "time": 65.06976744185594,
          "velocity": 0.6220472440944882,
          "duration": 0.023255813953483084
        },
        {
          "name": "G3",
          "midi": 55,
          "time": 65.09302325580943,
          "velocity": 0.5905511811023622,
          "duration": 0.011627906976741542
        },
        {
          "name": "F#6",
          "midi": 90,
          "time": 65.09302325580943,
          "velocity": 0.12598425196850394,
          "duration": 0.09302325581393234
        },
        {
          "name": "G#3",
          "midi": 56,
          "time": 65.10465116278617,
          "velocity": 0.6692913385826772,
          "duration": 0.1395348837208985
        },
        {
          "name": "C#5",
          "midi": 73,
          "time": 65.12790697673965,
          "velocity": 0.4645669291338583,
          "duration": 0.2558139534883139
        },
        {
          "name": "F4",
          "midi": 65,
          "time": 65.1395348837164,
          "velocity": 0.4566929133858268,
          "duration": 0.2209302325580893
        },
        {
          "name": "C6",
          "midi": 84,
          "time": 65.16279069766988,
          "velocity": 0.18110236220472442,
          "duration": 0.034883720930224626
        },
        {
          "name": "C#4",
          "midi": 61,
          "time": 65.17441860464662,
          "velocity": 0.2992125984251969,
          "duration": 0.034883720930224626
        },
        {
          "name": "D#7",
          "midi": 99,
          "time": 65.20930232557684,
          "velocity": 0.1732283464566929,
          "duration": 0.04651162790696617
        },
        {
          "name": "E7",
          "midi": 100,
          "time": 65.20930232557684,
          "velocity": 0.1732283464566929,
          "duration": 0.04651162790696617
        },
        {
          "name": "F7",
          "midi": 101,
          "time": 65.20930232557684,
          "velocity": 0.1968503937007874,
          "duration": 0.04651162790696617
        },
        {
          "name": "F#7",
          "midi": 102,
          "time": 65.20930232557684,
          "velocity": 0.15748031496062992,
          "duration": 0.05813953488370771
        },
        {
          "name": "B5",
          "midi": 83,
          "time": 65.22093023255358,
          "velocity": 0.23622047244094488,
          "duration": 0.023255813953483084
        },
        {
          "name": "C7",
          "midi": 96,
          "time": 65.22093023255358,
          "velocity": 0.11811023622047244,
          "duration": 0.034883720930224626
        },
        {
          "name": "C6",
          "midi": 84,
          "time": 65.23255813953033,
          "velocity": 0.2283464566929134,
          "duration": 0.05813953488370771
        },
        {
          "name": "G#4",
          "midi": 68,
          "time": 65.24418604650707,
          "velocity": 0.23622047244094488,
          "duration": 0.05813953488370771
        },
        {
          "name": "G#3",
          "midi": 56,
          "time": 65.26744186046055,
          "velocity": 0.2992125984251969,
          "duration": 0.034883720930224626
        },
        {
          "name": "A#4",
          "midi": 70,
          "time": 65.27906976743729,
          "velocity": 0.31496062992125984,
          "duration": 0.04651162790696617
        },
        {
          "name": "A3",
          "midi": 57,
          "time": 65.30232558139078,
          "velocity": 0.3228346456692913,
          "duration": 0.023255813953483084
        },
        {
          "name": "G#4",
          "midi": 68,
          "time": 65.32558139534426,
          "velocity": 0.7007874015748031,
          "duration": 0.7209302325579898
        },
        {
          "name": "E5",
          "midi": 76,
          "time": 65.32558139534426,
          "velocity": 0.2047244094488189,
          "duration": 0.034883720930224626
        },
        {
          "name": "C6",
          "midi": 84,
          "time": 65.32558139534426,
          "velocity": 0.14960629921259844,
          "duration": 0.034883720930224626
        },
        {
          "name": "D#7",
          "midi": 99,
          "time": 65.32558139534426,
          "velocity": 0.2125984251968504,
          "duration": 0.10465116279067388
        },
        {
          "name": "E7",
          "midi": 100,
          "time": 65.32558139534426,
          "velocity": 0.1889763779527559,
          "duration": 0.05813953488370771
        },
        {
          "name": "F7",
          "midi": 101,
          "time": 65.32558139534426,
          "velocity": 0.16535433070866143,
          "duration": 0.04651162790696617
        },
        {
          "name": "F#7",
          "midi": 102,
          "time": 65.32558139534426,
          "velocity": 0.14173228346456693,
          "duration": 0.04651162790696617
        },
        {
          "name": "G7",
          "midi": 103,
          "time": 65.32558139534426,
          "velocity": 0.13385826771653545,
          "duration": 0.034883720930224626
        },
        {
          "name": "C#4",
          "midi": 61,
          "time": 65.337209302321,
          "velocity": 0.25984251968503935,
          "duration": 0.279069767441797
        },
        {
          "name": "A5",
          "midi": 81,
          "time": 65.337209302321,
          "velocity": 0.13385826771653545,
          "duration": 0.05813953488370771
        },
        {
          "name": "D#6",
          "midi": 87,
          "time": 65.337209302321,
          "velocity": 0.4251968503937008,
          "duration": 0.5930232558138329
        },
        {
          "name": "G#6",
          "midi": 92,
          "time": 65.337209302321,
          "velocity": 0.23622047244094488,
          "duration": 0.360465116279002
        },
        {
          "name": "B6",
          "midi": 95,
          "time": 65.337209302321,
          "velocity": 0.1732283464566929,
          "duration": 0.034883720930224626
        },
        {
          "name": "F4",
          "midi": 65,
          "time": 65.38372093022797,
          "velocity": 0.31496062992125984,
          "duration": 0.0813953488371908
        },
        {
          "name": "A#5",
          "midi": 82,
          "time": 65.38372093022797,
          "velocity": 0.12598425196850394,
          "duration": 0.04651162790696617
        },
        {
          "name": "C5",
          "midi": 72,
          "time": 65.39534883720471,
          "velocity": 0.31496062992125984,
          "duration": 0.034883720930224626
        },
        {
          "name": "C#5",
          "midi": 73,
          "time": 65.41860465115819,
          "velocity": 0.3858267716535433,
          "duration": 0.034883720930224626
        },
        {
          "name": "G#3",
          "midi": 56,
          "time": 65.43023255813493,
          "velocity": 0.1889763779527559,
          "duration": 0.04651162790696617
        },
        {
          "name": "E5",
          "midi": 76,
          "time": 65.43023255813493,
          "velocity": 0.2992125984251969,
          "duration": 0.034883720930224626
        },
        {
          "name": "C5",
          "midi": 72,
          "time": 65.45348837208842,
          "velocity": 0.4094488188976378,
          "duration": 0.04651162790696617
        },
        {
          "name": "F5",
          "midi": 77,
          "time": 65.45348837208842,
          "velocity": 0.4330708661417323,
          "duration": 0.25581395348832814
        },
        {
          "name": "C#6",
          "midi": 85,
          "time": 65.4767441860419,
          "velocity": 0.13385826771653545,
          "duration": 0.05813953488370771
        },
        {
          "name": "C7",
          "midi": 96,
          "time": 65.4767441860419,
          "velocity": 0.2440944881889764,
          "duration": 0.29069767441855277
        },
        {
          "name": "F4",
          "midi": 65,
          "time": 65.48837209301864,
          "velocity": 0.4015748031496063,
          "duration": 0.1627906976743816
        },
        {
          "name": "C#5",
          "midi": 73,
          "time": 65.49999999999538,
          "velocity": 0.3700787401574803,
          "duration": 0.023255813953483084
        },
        {
          "name": "C5",
          "midi": 72,
          "time": 65.52325581394886,
          "velocity": 0.4409448818897638,
          "duration": 0.10465116279067388
        },
        {
          "name": "G#3",
          "midi": 56,
          "time": 65.5348837209256,
          "velocity": 0.2283464566929134,
          "duration": 0.0813953488371908
        },
        {
          "name": "F#5",
          "midi": 78,
          "time": 65.55813953487909,
          "velocity": 0.16535433070866143,
          "duration": 0.034883720930224626
        },
        {
          "name": "A#5",
          "midi": 82,
          "time": 65.58139534883257,
          "velocity": 0.15748031496062992,
          "duration": 0.12790697674417117
        },
        {
          "name": "C#5",
          "midi": 73,
          "time": 65.6162790697628,
          "velocity": 0.5118110236220472,
          "duration": 0.33720930232551893
        },
        {
          "name": "C#4",
          "midi": 61,
          "time": 65.63953488371628,
          "velocity": 0.4251968503937008,
          "duration": 0.23255813953484505
        },
        {
          "name": "C6",
          "midi": 84,
          "time": 65.65116279069302,
          "velocity": 0.36220472440944884,
          "duration": 0.05813953488372192
        },
        {
          "name": "F4",
          "midi": 65,
          "time": 65.66279069766976,
          "velocity": 0.4015748031496063,
          "duration": 0.05813953488372192
        },
        {
          "name": "D#5",
          "midi": 75,
          "time": 65.72093023255348,
          "velocity": 0.3700787401574803,
          "duration": 0.0813953488371908
        },
        {
          "name": "C6",
          "midi": 84,
          "time": 65.72093023255348,
          "velocity": 0.14960629921259844,
          "duration": 0.11627906976741542
        },
        {
          "name": "F4",
          "midi": 65,
          "time": 65.74418604650697,
          "velocity": 0.25984251968503935,
          "duration": 0.06976744186044925
        },
        {
          "name": "F5",
          "midi": 77,
          "time": 65.76744186046045,
          "velocity": 0.5196850393700787,
          "duration": 0.8837209302323856
        },
        {
          "name": "C7",
          "midi": 96,
          "time": 65.79069767441393,
          "velocity": 0.2125984251968504,
          "duration": 0.12790697674415696
        },
        {
          "name": "F4",
          "midi": 65,
          "time": 65.8372093023209,
          "velocity": 0.4645669291338583,
          "duration": 0.1395348837208985
        },
        {
          "name": "A#5",
          "midi": 82,
          "time": 65.8372093023209,
          "velocity": 0.09448818897637795,
          "duration": 0.034883720930224626
        },
        {
          "name": "C#7",
          "midi": 97,
          "time": 65.86046511627438,
          "velocity": 0.14960629921259844,
          "duration": 0.04651162790696617
        },
        {
          "name": "D7",
          "midi": 98,
          "time": 65.86046511627438,
          "velocity": 0.10236220472440945,
          "duration": 0.034883720930224626
        },
        {
          "name": "E7",
          "midi": 100,
          "time": 65.86046511627438,
          "velocity": 0.18110236220472442,
          "duration": 0.034883720930224626
        },
        {
          "name": "F7",
          "midi": 101,
          "time": 65.86046511627438,
          "velocity": 0.16535433070866143,
          "duration": 0.034883720930224626
        },
        {
          "name": "F#7",
          "midi": 102,
          "time": 65.86046511627438,
          "velocity": 0.18110236220472442,
          "duration": 0.04651162790696617
        },
        {
          "name": "B6",
          "midi": 95,
          "time": 65.87209302325113,
          "velocity": 0.13385826771653545,
          "duration": 0.034883720930224626
        },
        {
          "name": "C#4",
          "midi": 61,
          "time": 65.88372093022787,
          "velocity": 0.3543307086614173,
          "duration": 0.05813953488370771
        },
        {
          "name": "C6",
          "midi": 84,
          "time": 65.90697674418135,
          "velocity": 0.14960629921259844,
          "duration": 0.10465116279067388
        },
        {
          "name": "C5",
          "midi": 72,
          "time": 65.94186046511157,
          "velocity": 0.3543307086614173,
          "duration": 0.05813953488370771
        },
        {
          "name": "C#4",
          "midi": 61,
          "time": 65.96511627906506,
          "velocity": 0.31496062992125984,
          "duration": 0.1860465116278931
        },
        {
          "name": "D#6",
          "midi": 87,
          "time": 65.96511627906506,
          "velocity": 0.36220472440944884,
          "duration": 0.3488372093022747
        },
        {
          "name": "F4",
          "midi": 65,
          "time": 65.98837209301854,
          "velocity": 0.41732283464566927,
          "duration": 0.22093023255811772
        },
        {
          "name": "B5",
          "midi": 83,
          "time": 65.98837209301854,
          "velocity": 0.1968503937007874,
          "duration": 0.04651162790696617
        },
        {
          "name": "A6",
          "midi": 93,
          "time": 65.98837209301854,
          "velocity": 0.09448818897637795,
          "duration": 0.034883720930224626
        },
        {
          "name": "C#5",
          "midi": 73,
          "time": 65.99999999999528,
          "velocity": 0.4094488188976378,
          "duration": 0.11627906976742963
        },
        {
          "name": "C7",
          "midi": 96,
          "time": 65.99999999999528,
          "velocity": 0.18110236220472442,
          "duration": 0.19767441860463464
        },
        {
          "name": "C6",
          "midi": 84,
          "time": 66.02325581394877,
          "velocity": 0.25196850393700787,
          "duration": 0.09302325581394655
        },
        {
          "name": "G#4",
          "midi": 68,
          "time": 66.06976744185573,
          "velocity": 0.5590551181102362,
          "duration": 0.22093023255811772
        },
        {
          "name": "C4",
          "midi": 60,
          "time": 66.15116279069295,
          "velocity": 0.14173228346456693,
          "duration": 0.034883720930224626
        },
        {
          "name": "D5",
          "midi": 74,
          "time": 66.15116279069295,
          "velocity": 0.23622047244094488,
          "duration": 0.034883720930224626
        },
        {
          "name": "C#5",
          "midi": 73,
          "time": 66.16279069766969,
          "velocity": 0.3543307086614173,
          "duration": 0.05813953488370771
        },
        {
          "name": "C#4",
          "midi": 61,
          "time": 66.18604651162318,
          "velocity": 0.2204724409448819,
          "duration": 0.10465116279067388
        },
        {
          "name": "A5",
          "midi": 81,
          "time": 66.18604651162318,
          "velocity": 0.1889763779527559,
          "duration": 0.06976744186044925
        },
        {
          "name": "C6",
          "midi": 84,
          "time": 66.18604651162318,
          "velocity": 0.4566929133858268,
          "duration": 0.3372093023255047
        },
        {
          "name": "A6",
          "midi": 93,
          "time": 66.18604651162318,
          "velocity": 0.2677165354330709,
          "duration": 0.18604651162786467
        },
        {
          "name": "F#6",
          "midi": 90,
          "time": 66.19767441859992,
          "velocity": 0.18110236220472442,
          "duration": 0.04651162790696617
        },
        {
          "name": "G7",
          "midi": 103,
          "time": 66.19767441859992,
          "velocity": 0.08661417322834646,
          "duration": 0.04651162790696617
        },
        {
          "name": "D5",
          "midi": 74,
          "time": 66.2209302325534,
          "velocity": 0.3779527559055118,
          "duration": 0.034883720930224626
        },
        {
          "name": "F4",
          "midi": 65,
          "time": 66.23255813953014,
          "velocity": 0.5590551181102362,
          "duration": 0.10465116279067388
        },
        {
          "name": "C5",
          "midi": 72,
          "time": 66.24418604650688,
          "velocity": 0.5118110236220472,
          "duration": 0.06976744186044925
        },
        {
          "name": "G6",
          "midi": 91,
          "time": 66.24418604650688,
          "velocity": 0.12598425196850394,
          "duration": 0.05813953488370771
        },
        {
          "name": "C#7",
          "midi": 97,
          "time": 66.25581395348362,
          "velocity": 0.2440944881889764,
          "duration": 0.18604651162786467
        },
        {
          "name": "D7",
          "midi": 98,
          "time": 66.25581395348362,
          "velocity": 0.15748031496062992,
          "duration": 0.09302325581393234
        },
        {
          "name": "F#7",
          "midi": 102,
          "time": 66.25581395348362,
          "velocity": 0.11811023622047244,
          "duration": 0.034883720930224626
        },
        {
          "name": "D5",
          "midi": 74,
          "time": 66.26744186046037,
          "velocity": 0.3779527559055118,
          "duration": 0.034883720930224626
        },
        {
          "name": "E7",
          "midi": 100,
          "time": 66.26744186046037,
          "velocity": 0.2440944881889764,
          "duration": 0.11627906976741542
        },
        {
          "name": "F#6",
          "midi": 90,
          "time": 66.27906976743711,
          "velocity": 0.15748031496062992,
          "duration": 0.034883720930224626
        },
        {
          "name": "F3",
          "midi": 53,
          "time": 66.29069767441385,
          "velocity": 0.25984251968503935,
          "duration": 0.09302325581393234
        },
        {
          "name": "A4",
          "midi": 69,
          "time": 66.29069767441385,
          "velocity": 0.41732283464566927,
          "duration": 0.04651162790696617
        },
        {
          "name": "C#5",
          "midi": 73,
          "time": 66.30232558139059,
          "velocity": 0.5511811023622047,
          "duration": 0.06976744186044925
        },
        {
          "name": "E6",
          "midi": 88,
          "time": 66.30232558139059,
          "velocity": 0.2677165354330709,
          "duration": 0.04651162790696617
        },
        {
          "name": "A#6",
          "midi": 94,
          "time": 66.30232558139059,
          "velocity": 0.2125984251968504,
          "duration": 0.06976744186044925
        },
        {
          "name": "B6",
          "midi": 95,
          "time": 66.30232558139059,
          "velocity": 0.1732283464566929,
          "duration": 0.05813953488370771
        },
        {
          "name": "F#7",
          "midi": 102,
          "time": 66.30232558139059,
          "velocity": 0.2204724409448819,
          "duration": 0.09302325581393234
        },
        {
          "name": "G7",
          "midi": 103,
          "time": 66.30232558139059,
          "velocity": 0.14960629921259844,
          "duration": 0.034883720930224626
        },
        {
          "name": "A#5",
          "midi": 82,
          "time": 66.31395348836733,
          "velocity": 0.41732283464566927,
          "duration": 0.3023255813952801
        },
        {
          "name": "G6",
          "midi": 91,
          "time": 66.31395348836733,
          "velocity": 0.33858267716535434,
          "duration": 0.3255813953487632
        },
        {
          "name": "D#6",
          "midi": 87,
          "time": 66.32558139534407,
          "velocity": 0.44881889763779526,
          "duration": 0.24418604651157239
        },
        {
          "name": "D#4",
          "midi": 63,
          "time": 66.33720930232082,
          "velocity": 0.6062992125984252,
          "duration": 0.18604651162786467
        },
        {
          "name": "G#4",
          "midi": 68,
          "time": 66.3604651162743,
          "velocity": 0.31496062992125984,
          "duration": 0.04651162790696617
        },
        {
          "name": "D5",
          "midi": 74,
          "time": 66.39534883720452,
          "velocity": 0.44881889763779526,
          "duration": 0.034883720930224626
        },
        {
          "name": "D7",
          "midi": 98,
          "time": 66.39534883720452,
          "velocity": 0.07086614173228346,
          "duration": 0.034883720930224626
        },
        {
          "name": "F3",
          "midi": 53,
          "time": 66.40697674418126,
          "velocity": 0.14173228346456693,
          "duration": 0.18604651162786467
        },
        {
          "name": "A6",
          "midi": 93,
          "time": 66.40697674418126,
          "velocity": 0.12598425196850394,
          "duration": 0.09302325581393234
        },
        {
          "name": "G#4",
          "midi": 68,
          "time": 66.418604651158,
          "velocity": 0.2992125984251969,
          "duration": 0.05813953488370771
        },
        {
          "name": "C#5",
          "midi": 73,
          "time": 66.418604651158,
          "velocity": 0.41732283464566927,
          "duration": 0.04651162790696617
        },
        {
          "name": "D7",
          "midi": 98,
          "time": 66.45348837208823,
          "velocity": 0.12598425196850394,
          "duration": 0.04651162790696617
        },
        {
          "name": "D5",
          "midi": 74,
          "time": 66.47674418604171,
          "velocity": 0.3700787401574803,
          "duration": 0.023255813953483084
        },
        {
          "name": "G#4",
          "midi": 68,
          "time": 66.48837209301846,
          "velocity": 0.4015748031496063,
          "duration": 0.05813953488370771
        },
        {
          "name": "C#5",
          "midi": 73,
          "time": 66.48837209301846,
          "velocity": 0.3779527559055118,
          "duration": 0.06976744186044925
        },
        {
          "name": "C#7",
          "midi": 97,
          "time": 66.52325581394868,
          "velocity": 0.08661417322834646,
          "duration": 0.04651162790696617
        },
        {
          "name": "D#4",
          "midi": 63,
          "time": 66.53488372092542,
          "velocity": 0.5590551181102362,
          "duration": 0.0813953488371908
        },
        {
          "name": "F#5",
          "midi": 78,
          "time": 66.53488372092542,
          "velocity": 0.29133858267716534,
          "duration": 0.05813953488370771
        },
        {
          "name": "C6",
          "midi": 84,
          "time": 66.53488372092542,
          "velocity": 0.2204724409448819,
          "duration": 0.10465116279067388
        },
        {
          "name": "A6",
          "midi": 93,
          "time": 66.5581395348789,
          "velocity": 0.1968503937007874,
          "duration": 0.05813953488370771
        },
        {
          "name": "G#4",
          "midi": 68,
          "time": 66.56976744185565,
          "velocity": 0.3464566929133858,
          "duration": 0.05813953488370771
        },
        {
          "name": "C#5",
          "midi": 73,
          "time": 66.56976744185565,
          "velocity": 0.3228346456692913,
          "duration": 0.04651162790696617
        },
        {
          "name": "D5",
          "midi": 74,
          "time": 66.58139534883239,
          "velocity": 0.2677165354330709,
          "duration": 0.023255813953483084
        },
        {
          "name": "E6",
          "midi": 88,
          "time": 66.59302325580913,
          "velocity": 0.14960629921259844,
          "duration": 0.06976744186044925
        },
        {
          "name": "D#6",
          "midi": 87,
          "time": 66.60465116278587,
          "velocity": 0.2440944881889764,
          "duration": 0.034883720930224626
        },
        {
          "name": "D4",
          "midi": 62,
          "time": 66.61627906976261,
          "velocity": 0.4330708661417323,
          "duration": 0.023255813953483084
        },
        {
          "name": "C5",
          "midi": 72,
          "time": 66.61627906976261,
          "velocity": 0.30708661417322836,
          "duration": 0.023255813953483084
        },
        {
          "name": "A#6",
          "midi": 94,
          "time": 66.61627906976261,
          "velocity": 0.08661417322834646,
          "duration": 0.06976744186044925
        },
        {
          "name": "A#5",
          "midi": 82,
          "time": 66.62790697673935,
          "velocity": 0.1889763779527559,
          "duration": 0.10465116279067388
        },
        {
          "name": "F#3",
          "midi": 54,
          "time": 66.6395348837161,
          "velocity": 0.16535433070866143,
          "duration": 0.06976744186044925
        },
        {
          "name": "D#4",
          "midi": 63,
          "time": 66.6395348837161,
          "velocity": 0.4094488188976378,
          "duration": 0.034883720930224626
        },
        {
          "name": "A#4",
          "midi": 70,
          "time": 66.6395348837161,
          "velocity": 0.33858267716535434,
          "duration": 0.20930232558136197
        },
        {
          "name": "C#5",
          "midi": 73,
          "time": 66.6395348837161,
          "velocity": 0.4330708661417323,
          "duration": 0.2441860465115866
        },
        {
          "name": "D#5",
          "midi": 75,
          "time": 66.6395348837161,
          "velocity": 0.4566929133858268,
          "duration": 0.06976744186044925
        },
        {
          "name": "C#6",
          "midi": 85,
          "time": 66.6395348837161,
          "velocity": 0.4645669291338583,
          "duration": 0.7441860465115155
        },
        {
          "name": "F#5",
          "midi": 78,
          "time": 66.65116279069284,
          "velocity": 0.3464566929133858,
          "duration": 0.31395348837203585
        },
        {
          "name": "D#7",
          "midi": 99,
          "time": 66.65116279069284,
          "velocity": 0.11023622047244094,
          "duration": 0.0813953488371908
        },
        {
          "name": "C#4",
          "midi": 61,
          "time": 66.66279069766958,
          "velocity": 0.5984251968503937,
          "duration": 0.20930232558136197
        },
        {
          "name": "F#4",
          "midi": 66,
          "time": 66.68604651162306,
          "velocity": 0.2283464566929134,
          "duration": 0.06976744186044925
        },
        {
          "name": "F6",
          "midi": 89,
          "time": 66.74418604650677,
          "velocity": 0.1968503937007874,
          "duration": 0.19767441860462043
        },
        {
          "name": "G#4",
          "midi": 68,
          "time": 66.75581395348351,
          "velocity": 0.2047244094488189,
          "duration": 0.05813953488372192
        },
        {
          "name": "D#5",
          "midi": 75,
          "time": 66.75581395348351,
          "velocity": 0.33070866141732286,
          "duration": 0.03488372093023884
        },
        {
          "name": "E5",
          "midi": 76,
          "time": 66.79069767441375,
          "velocity": 0.28346456692913385,
          "duration": 0.023255813953483084
        },
        {
          "name": "F#4",
          "midi": 66,
          "time": 66.81395348836723,
          "velocity": 0.25984251968503935,
          "duration": 0.023255813953483084
        },
        {
          "name": "D#5",
          "midi": 75,
          "time": 66.81395348836723,
          "velocity": 0.2440944881889764,
          "duration": 0.034883720930224626
        },
        {
          "name": "C6",
          "midi": 84,
          "time": 66.81395348836723,
          "velocity": 0.09448818897637795,
          "duration": 0.04651162790696617
        },
        {
          "name": "D#7",
          "midi": 99,
          "time": 66.83720930232072,
          "velocity": 0.18110236220472442,
          "duration": 0.05813953488370771
        },
        {
          "name": "F7",
          "midi": 101,
          "time": 66.83720930232072,
          "velocity": 0.1968503937007874,
          "duration": 0.04651162790696617
        },
        {
          "name": "G#4",
          "midi": 68,
          "time": 66.84883720929746,
          "velocity": 0.33070866141732286,
          "duration": 0.023255813953483084
        },
        {
          "name": "B4",
          "midi": 71,
          "time": 66.84883720929746,
          "velocity": 0.2755905511811024,
          "duration": 0.023255813953483084
        },
        {
          "name": "A#5",
          "midi": 82,
          "time": 66.84883720929746,
          "velocity": 0.4094488188976378,
          "duration": 0.17441860465112313
        },
        {
          "name": "B6",
          "midi": 95,
          "time": 66.84883720929746,
          "velocity": 0.1889763779527559,
          "duration": 0.04651162790696617
        },
        {
          "name": "D7",
          "midi": 98,
          "time": 66.84883720929746,
          "velocity": 0.10236220472440945,
          "duration": 0.034883720930224626
        },
        {
          "name": "E7",
          "midi": 100,
          "time": 66.84883720929746,
          "velocity": 0.1889763779527559,
          "duration": 0.04651162790696617
        },
        {
          "name": "F#7",
          "midi": 102,
          "time": 66.84883720929746,
          "velocity": 0.16535433070866143,
          "duration": 0.034883720930224626
        },
        {
          "name": "G7",
          "midi": 103,
          "time": 66.84883720929746,
          "velocity": 0.12598425196850394,
          "duration": 0.034883720930224626
        },
        {
          "name": "D#5",
          "midi": 75,
          "time": 66.8604651162742,
          "velocity": 0.33070866141732286,
          "duration": 0.023255813953483084
        },
        {
          "name": "C7",
          "midi": 96,
          "time": 66.8604651162742,
          "velocity": 0.08661417322834646,
          "duration": 0.034883720930224626
        },
        {
          "name": "A#4",
          "midi": 70,
          "time": 66.87209302325094,
          "velocity": 0.3700787401574803,
          "duration": 0.0813953488371908
        },
        {
          "name": "E5",
          "midi": 76,
          "time": 66.87209302325094,
          "velocity": 0.25984251968503935,
          "duration": 0.034883720930224626
        },
        {
          "name": "D#4",
          "midi": 63,
          "time": 66.88372093022768,
          "velocity": 0.2992125984251969,
          "duration": 0.023255813953483084
        },
        {
          "name": "C#5",
          "midi": 73,
          "time": 66.89534883720442,
          "velocity": 0.1732283464566929,
          "duration": 0.04651162790696617
        },
        {
          "name": "D#5",
          "midi": 75,
          "time": 66.89534883720442,
          "velocity": 0.3228346456692913,
          "duration": 0.06976744186044925
        },
        {
          "name": "F#4",
          "midi": 66,
          "time": 66.90697674418116,
          "velocity": 0.2440944881889764,
          "duration": 0.04651162790696617
        },
        {
          "name": "F#3",
          "midi": 54,
          "time": 66.9186046511579,
          "velocity": 0.14173228346456693,
          "duration": 0.034883720930224626
        },
        {
          "name": "C#4",
          "midi": 61,
          "time": 66.93023255813465,
          "velocity": 0.6062992125984252,
          "duration": 0.0813953488371908
        },
        {
          "name": "G#5",
          "midi": 80,
          "time": 66.93023255813465,
          "velocity": 0.44881889763779526,
          "duration": 0.29069767441855277
        },
        {
          "name": "C6",
          "midi": 84,
          "time": 66.94186046511139,
          "velocity": 0.2125984251968504,
          "duration": 0.04651162790696617
        },
        {
          "name": "D#7",
          "midi": 99,
          "time": 66.94186046511139,
          "velocity": 0.29133858267716534,
          "duration": 0.09302325581393234
        },
        {
          "name": "G4",
          "midi": 67,
          "time": 66.95348837208813,
          "velocity": 0.36220472440944884,
          "duration": 0.023255813953483084
        },
        {
          "name": "F5",
          "midi": 77,
          "time": 66.95348837208813,
          "velocity": 0.3228346456692913,
          "duration": 0.05813953488370771
        },
        {
          "name": "B5",
          "midi": 83,
          "time": 66.95348837208813,
          "velocity": 0.25984251968503935,
          "duration": 0.05813953488370771
        },
        {
          "name": "D5",
          "midi": 74,
          "time": 66.96511627906487,
          "velocity": 0.3779527559055118,
          "duration": 0.023255813953483084
        },
        {
          "name": "D7",
          "midi": 98,
          "time": 66.96511627906487,
          "velocity": 0.1889763779527559,
          "duration": 0.17441860465112313
        },
        {
          "name": "E7",
          "midi": 100,
          "time": 66.96511627906487,
          "velocity": 0.12598425196850394,
          "duration": 0.09302325581393234
        },
        {
          "name": "A#4",
          "midi": 70,
          "time": 66.97674418604161,
          "velocity": 0.2204724409448819,
          "duration": 0.11627906976741542
        },
        {
          "name": "F#4",
          "midi": 66,
          "time": 66.98837209301836,
          "velocity": 0.4566929133858268,
          "duration": 0.290697674418567
        },
        {
          "name": "D#5",
          "midi": 75,
          "time": 66.98837209301836,
          "velocity": 0.25984251968503935,
          "duration": 0.023255813953483084
        },
        {
          "name": "E6",
          "midi": 88,
          "time": 66.98837209301836,
          "velocity": 0.1732283464566929,
          "duration": 0.034883720930224626
        },
        {
          "name": "E5",
          "midi": 76,
          "time": 67.01162790697184,
          "velocity": 0.31496062992125984,
          "duration": 0.06976744186044925
        },
        {
          "name": "G6",
          "midi": 91,
          "time": 67.01162790697184,
          "velocity": 0.14960629921259844,
          "duration": 0.06976744186044925
        },
        {
          "name": "C#4",
          "midi": 61,
          "time": 67.02325581394858,
          "velocity": 0.6377952755905512,
          "duration": 0.25581395348834235
        },
        {
          "name": "C6",
          "midi": 84,
          "time": 67.02325581394858,
          "velocity": 0.2047244094488189,
          "duration": 0.04651162790696617
        },
        {
          "name": "B5",
          "midi": 83,
          "time": 67.06976744185555,
          "velocity": 0.14173228346456693,
          "duration": 0.04651162790696617
        },
        {
          "name": "E5",
          "midi": 76,
          "time": 67.09302325580903,
          "velocity": 0.36220472440944884,
          "duration": 0.034883720930224626
        },
        {
          "name": "A#5",
          "midi": 82,
          "time": 67.09302325580903,
          "velocity": 0.23622047244094488,
          "duration": 0.09302325581394655
        },
        {
          "name": "A#4",
          "midi": 70,
          "time": 67.11627906976251,
          "velocity": 0.28346456692913385,
          "duration": 0.05813953488372192
        },
        {
          "name": "C6",
          "midi": 84,
          "time": 67.12790697673925,
          "velocity": 0.14960629921259844,
          "duration": 0.05813953488372192
        },
        {
          "name": "E5",
          "midi": 76,
          "time": 67.139534883716,
          "velocity": 0.4015748031496063,
          "duration": 0.081395348837205
        },
        {
          "name": "A#4",
          "midi": 70,
          "time": 67.18604651162298,
          "velocity": 0.4094488188976378,
          "duration": 0.3023255813953085
        },
        {
          "name": "A#5",
          "midi": 82,
          "time": 67.19767441859972,
          "velocity": 0.44881889763779526,
          "duration": 0.25581395348834235
        },
        {
          "name": "F5",
          "midi": 77,
          "time": 67.20930232557646,
          "velocity": 0.33070866141732286,
          "duration": 0.05813953488372192
        },
        {
          "name": "D#6",
          "midi": 87,
          "time": 67.20930232557646,
          "velocity": 0.07086614173228346,
          "duration": 0.05813953488372192
        },
        {
          "name": "D#5",
          "midi": 75,
          "time": 67.2209302325532,
          "velocity": 0.14173228346456693,
          "duration": 0.03488372093023884
        },
        {
          "name": "E5",
          "midi": 76,
          "time": 67.26744186046018,
          "velocity": 0.3543307086614173,
          "duration": 0.023255813953483084
        },
        {
          "name": "F3",
          "midi": 53,
          "time": 67.27906976743692,
          "velocity": 0.2440944881889764,
          "duration": 0.034883720930224626
        },
        {
          "name": "F4",
          "midi": 65,
          "time": 67.27906976743692,
          "velocity": 0.44881889763779526,
          "duration": 0.034883720930224626
        },
        {
          "name": "G#5",
          "midi": 80,
          "time": 67.27906976743692,
          "velocity": 0.2755905511811024,
          "duration": 0.3023255813952943
        },
        {
          "name": "D7",
          "midi": 98,
          "time": 67.27906976743692,
          "velocity": 0.12598425196850394,
          "duration": 0.034883720930224626
        },
        {
          "name": "E7",
          "midi": 100,
          "time": 67.27906976743692,
          "velocity": 0.18110236220472442,
          "duration": 0.034883720930224626
        },
        {
          "name": "G6",
          "midi": 91,
          "time": 67.29069767441366,
          "velocity": 0.14173228346456693,
          "duration": 0.034883720930224626
        },
        {
          "name": "B6",
          "midi": 95,
          "time": 67.29069767441366,
          "velocity": 0.14960629921259844,
          "duration": 0.10465116279068809
        },
        {
          "name": "C7",
          "midi": 96,
          "time": 67.29069767441366,
          "velocity": 0.14960629921259844,
          "duration": 0.034883720930224626
        },
        {
          "name": "D#7",
          "midi": 99,
          "time": 67.29069767441366,
          "velocity": 0.14173228346456693,
          "duration": 0.13953488372091272
        },
        {
          "name": "F#7",
          "midi": 102,
          "time": 67.29069767441366,
          "velocity": 0.14960629921259844,
          "duration": 0.081395348837205
        },
        {
          "name": "C#4",
          "midi": 61,
          "time": 67.3023255813904,
          "velocity": 0.5669291338582677,
          "duration": 0.2209302325581035
        },
        {
          "name": "E5",
          "midi": 76,
          "time": 67.3023255813904,
          "velocity": 0.2204724409448819,
          "duration": 0.034883720930224626
        },
        {
          "name": "F#4",
          "midi": 66,
          "time": 67.32558139534389,
          "velocity": 0.31496062992125984,
          "duration": 0.081395348837205
        },
        {
          "name": "D#5",
          "midi": 75,
          "time": 67.39534883720435,
          "velocity": 0.12598425196850394,
          "duration": 0.034883720930224626
        },
        {
          "name": "F#5",
          "midi": 78,
          "time": 67.4069767441811,
          "velocity": 0.4094488188976378,
          "duration": 0.12790697674415696
        },
        {
          "name": "F#3",
          "midi": 54,
          "time": 67.43023255813458,
          "velocity": 0.11023622047244094,
          "duration": 0.04651162790696617
        },
        {
          "name": "F#4",
          "midi": 66,
          "time": 67.45348837208806,
          "velocity": 0.4015748031496063,
          "duration": 0.15116279069764005
        },
        {
          "name": "G#6",
          "midi": 92,
          "time": 67.4651162790648,
          "velocity": 0.2755905511811024,
          "duration": 0.31395348837202164
        },
        {
          "name": "D#7",
          "midi": 99,
          "time": 67.4651162790648,
          "velocity": 0.08661417322834646,
          "duration": 0.04651162790696617
        },
        {
          "name": "C6",
          "midi": 84,
          "time": 67.47674418604154,
          "velocity": 0.2047244094488189,
          "duration": 0.04651162790696617
        },
        {
          "name": "A5",
          "midi": 81,
          "time": 67.48837209301828,
          "velocity": 0.3228346456692913,
          "duration": 0.04651162790696617
        },
        {
          "name": "D6",
          "midi": 86,
          "time": 67.48837209301828,
          "velocity": 0.15748031496062992,
          "duration": 0.04651162790696617
        },
        {
          "name": "D#6",
          "midi": 87,
          "time": 67.48837209301828,
          "velocity": 0.14173228346456693,
          "duration": 0.04651162790696617
        },
        {
          "name": "A#4",
          "midi": 70,
          "time": 67.49999999999503,
          "velocity": 0.3937007874015748,
          "duration": 0.04651162790696617
        },
        {
          "name": "G6",
          "midi": 91,
          "time": 67.49999999999503,
          "velocity": 0.13385826771653545,
          "duration": 0.04651162790696617
        },
        {
          "name": "B6",
          "midi": 95,
          "time": 67.49999999999503,
          "velocity": 0.1889763779527559,
          "duration": 0.04651162790696617
        },
        {
          "name": "B5",
          "midi": 83,
          "time": 67.51162790697177,
          "velocity": 0.25984251968503935,
          "duration": 0.034883720930224626
        },
        {
          "name": "E6",
          "midi": 88,
          "time": 67.51162790697177,
          "velocity": 0.14173228346456693,
          "duration": 0.05813953488370771
        },
        {
          "name": "C7",
          "midi": 96,
          "time": 67.51162790697177,
          "velocity": 0.2283464566929134,
          "duration": 0.19767441860460622
        },
        {
          "name": "F#7",
          "midi": 102,
          "time": 67.51162790697177,
          "velocity": 0.15748031496062992,
          "duration": 0.06976744186044925
        },
        {
          "name": "C4",
          "midi": 60,
          "time": 67.52325581394851,
          "velocity": 0.5826771653543307,
          "duration": 0.011627906976741542
        },
        {
          "name": "F5",
          "midi": 77,
          "time": 67.52325581394851,
          "velocity": 0.49606299212598426,
          "duration": 0.19767441860460622
        },
        {
          "name": "A#3",
          "midi": 58,
          "time": 67.53488372092525,
          "velocity": 0.6299212598425197,
          "duration": 0.11627906976741542
        },
        {
          "name": "A#5",
          "midi": 82,
          "time": 67.53488372092525,
          "velocity": 0.4251968503937008,
          "duration": 0.09302325581393234
        },
        {
          "name": "E7",
          "midi": 100,
          "time": 67.53488372092525,
          "velocity": 0.18110236220472442,
          "duration": 0.15116279069764005
        },
        {
          "name": "A4",
          "midi": 69,
          "time": 67.54651162790199,
          "velocity": 0.3858267716535433,
          "duration": 0.034883720930224626
        },
        {
          "name": "D6",
          "midi": 86,
          "time": 67.54651162790199,
          "velocity": 0.25984251968503935,
          "duration": 0.15116279069764005
        },
        {
          "name": "F#6",
          "midi": 90,
          "time": 67.54651162790199,
          "velocity": 0.07086614173228346,
          "duration": 0.034883720930224626
        },
        {
          "name": "G#5",
          "midi": 80,
          "time": 67.6046511627857,
          "velocity": 0.4645669291338583,
          "duration": 0.18604651162786467
        },
        {
          "name": "B6",
          "midi": 95,
          "time": 67.6046511627857,
          "velocity": 0.2047244094488189,
          "duration": 0.06976744186044925
        },
        {
          "name": "F#4",
          "midi": 66,
          "time": 67.61627906976244,
          "velocity": 0.47244094488188976,
          "duration": 0.023255813953483084
        },
        {
          "name": "A4",
          "midi": 69,
          "time": 67.61627906976244,
          "velocity": 0.4409448818897638,
          "duration": 0.023255813953483084
        },
        {
          "name": "D#6",
          "midi": 87,
          "time": 67.61627906976244,
          "velocity": 0.30708661417322836,
          "duration": 0.06976744186044925
        },
        {
          "name": "F#6",
          "midi": 90,
          "time": 67.61627906976244,
          "velocity": 0.25196850393700787,
          "duration": 0.11627906976741542
        },
        {
          "name": "G6",
          "midi": 91,
          "time": 67.61627906976244,
          "velocity": 0.2204724409448819,
          "duration": 0.04651162790696617
        },
        {
          "name": "D5",
          "midi": 74,
          "time": 67.62790697673918,
          "velocity": 0.3937007874015748,
          "duration": 0.023255813953483084
        },
        {
          "name": "G#4",
          "midi": 68,
          "time": 67.63953488371592,
          "velocity": 0.5669291338582677,
          "duration": 0.20930232558134776
        },
        {
          "name": "C#5",
          "midi": 73,
          "time": 67.63953488371592,
          "velocity": 0.4251968503937008,
          "duration": 0.34883720930224626
        },
        {
          "name": "A#5",
          "midi": 82,
          "time": 67.63953488371592,
          "velocity": 0.4645669291338583,
          "duration": 0.3255813953487632
        },
        {
          "name": "C6",
          "midi": 84,
          "time": 67.63953488371592,
          "velocity": 0.30708661417322836,
          "duration": 0.04651162790696617
        },
        {
          "name": "A3",
          "midi": 57,
          "time": 67.65116279069267,
          "velocity": 0.5669291338582677,
          "duration": 0.011627906976741542
        },
        {
          "name": "D#5",
          "midi": 75,
          "time": 67.65116279069267,
          "velocity": 0.41732283464566927,
          "duration": 0.09302325581393234
        },
        {
          "name": "G3",
          "midi": 55,
          "time": 67.66279069766941,
          "velocity": 0.5275590551181102,
          "duration": 0.011627906976741542
        },
        {
          "name": "A#3",
          "midi": 58,
          "time": 67.66279069766941,
          "velocity": 0.5354330708661418,
          "duration": 0.011627906976741542
        },
        {
          "name": "G7",
          "midi": 103,
          "time": 67.66279069766941,
          "velocity": 0.11023622047244094,
          "duration": 0.04651162790696617
        },
        {
          "name": "G#3",
          "midi": 56,
          "time": 67.67441860464615,
          "velocity": 0.5905511811023622,
          "duration": 0.011627906976741542
        },
        {
          "name": "A3",
          "midi": 57,
          "time": 67.68604651162289,
          "velocity": 0.5669291338582677,
          "duration": 0.011627906976741542
        },
        {
          "name": "G5",
          "midi": 79,
          "time": 67.68604651162289,
          "velocity": 0.31496062992125984,
          "duration": 0.023255813953483084
        },
        {
          "name": "C6",
          "midi": 84,
          "time": 67.69767441859963,
          "velocity": 0.3700787401574803,
          "duration": 0.09302325581393234
        },
        {
          "name": "E7",
          "midi": 100,
          "time": 67.69767441859963,
          "velocity": 0.09448818897637795,
          "duration": 0.034883720930224626
        },
        {
          "name": "F#5",
          "midi": 78,
          "time": 67.70930232557637,
          "velocity": 0.4330708661417323,
          "duration": 0.17441860465112313
        },
        {
          "name": "C#4",
          "midi": 61,
          "time": 67.72093023255312,
          "velocity": 0.23622047244094488,
          "duration": 0.023255813953483084
        },
        {
          "name": "E6",
          "midi": 88,
          "time": 67.72093023255312,
          "velocity": 0.09448818897637795,
          "duration": 0.034883720930224626
        },
        {
          "name": "G#3",
          "midi": 56,
          "time": 67.73255813952986,
          "velocity": 0.31496062992125984,
          "duration": 0.023255813953483084
        },
        {
          "name": "G3",
          "midi": 55,
          "time": 67.75581395348334,
          "velocity": 0.36220472440944884,
          "duration": 0.023255813953483084
        },
        {
          "name": "D7",
          "midi": 98,
          "time": 67.75581395348334,
          "velocity": 0.2125984251968504,
          "duration": 0.0813953488371908
        },
        {
          "name": "C#4",
          "midi": 61,
          "time": 67.76744186046008,
          "velocity": 0.2677165354330709,
          "duration": 0.05813953488370771
        },
        {
          "name": "G#3",
          "midi": 56,
          "time": 67.77906976743682,
          "velocity": 0.5748031496062992,
          "duration": 0.15116279069764005
        },
        {
          "name": "D#5",
          "midi": 75,
          "time": 67.77906976743682,
          "velocity": 0.3464566929133858,
          "duration": 0.05813953488370771
        },
        {
          "name": "C6",
          "midi": 84,
          "time": 67.8023255813903,
          "velocity": 0.25196850393700787,
          "duration": 0.05813953488370771
        },
        {
          "name": "F6",
          "midi": 89,
          "time": 67.81395348836705,
          "velocity": 0.18110236220472442,
          "duration": 0.034883720930224626
        },
        {
          "name": "F4",
          "midi": 65,
          "time": 67.82558139534379,
          "velocity": 0.4251968503937008,
          "duration": 0.023255813953483084
        },
        {
          "name": "G#6",
          "midi": 92,
          "time": 67.82558139534379,
          "velocity": 0.11811023622047244,
          "duration": 0.034883720930224626
        },
        {
          "name": "D#7",
          "midi": 99,
          "time": 67.82558139534379,
          "velocity": 0.1889763779527559,
          "duration": 0.034883720930224626
        },
        {
          "name": "E7",
          "midi": 100,
          "time": 67.82558139534379,
          "velocity": 0.1889763779527559,
          "duration": 0.04651162790696617
        },
        {
          "name": "F7",
          "midi": 101,
          "time": 67.82558139534379,
          "velocity": 0.1968503937007874,
          "duration": 0.034883720930224626
        },
        {
          "name": "A#4",
          "midi": 70,
          "time": 67.83720930232053,
          "velocity": 0.30708661417322836,
          "duration": 0.0813953488371908
        },
        {
          "name": "C#7",
          "midi": 97,
          "time": 67.83720930232053,
          "velocity": 0.25984251968503935,
          "duration": 0.04651162790696617
        },
        {
          "name": "F#7",
          "midi": 102,
          "time": 67.83720930232053,
          "velocity": 0.15748031496062992,
          "duration": 0.034883720930224626
        },
        {
          "name": "G7",
          "midi": 103,
          "time": 67.83720930232053,
          "velocity": 0.1968503937007874,
          "duration": 0.04651162790696617
        },
        {
          "name": "G#5",
          "midi": 80,
          "time": 67.84883720929727,
          "velocity": 0.3228346456692913,
          "duration": 0.0813953488371908
        },
        {
          "name": "C#4",
          "midi": 61,
          "time": 67.86046511627401,
          "velocity": 0.25984251968503935,
          "duration": 0.023255813953483084
        },
        {
          "name": "F5",
          "midi": 77,
          "time": 67.86046511627401,
          "velocity": 0.47244094488188976,
          "duration": 0.4418604651161786
        },
        {
          "name": "G5",
          "midi": 79,
          "time": 67.8837209302275,
          "velocity": 0.31496062992125984,
          "duration": 0.06976744186044925
        },
        {
          "name": "F#4",
          "midi": 66,
          "time": 67.89534883720424,
          "velocity": 0.3700787401574803,
          "duration": 0.04651162790696617
        },
        {
          "name": "F#6",
          "midi": 90,
          "time": 67.90697674418098,
          "velocity": 0.11811023622047244,
          "duration": 0.06976744186044925
        },
        {
          "name": "D#5",
          "midi": 75,
          "time": 67.93023255813446,
          "velocity": 0.2204724409448819,
          "duration": 0.034883720930224626
        },
        {
          "name": "D7",
          "midi": 98,
          "time": 67.93023255813446,
          "velocity": 0.14173228346456693,
          "duration": 0.034883720930224626
        },
        {
          "name": "D#7",
          "midi": 99,
          "time": 67.93023255813446,
          "velocity": 0.2283464566929134,
          "duration": 0.06976744186044925
        },
        {
          "name": "E7",
          "midi": 100,
          "time": 67.93023255813446,
          "velocity": 0.1889763779527559,
          "duration": 0.05813953488370771
        },
        {
          "name": "G7",
          "midi": 103,
          "time": 67.93023255813446,
          "velocity": 0.1968503937007874,
          "duration": 0.05813953488370771
        },
        {
          "name": "F4",
          "midi": 65,
          "time": 67.9418604651112,
          "velocity": 0.4251968503937008,
          "duration": 0.15116279069764005
        },
        {
          "name": "F#7",
          "midi": 102,
          "time": 67.9418604651112,
          "velocity": 0.12598425196850394,
          "duration": 0.05813953488370771
        },
        {
          "name": "G#5",
          "midi": 80,
          "time": 67.95348837208795,
          "velocity": 0.3858267716535433,
          "duration": 0.0813953488371908
        },
        {
          "name": "C#4",
          "midi": 61,
          "time": 67.96511627906469,
          "velocity": 0.5275590551181102,
          "duration": 0.23255813953483084
        },
        {
          "name": "G#4",
          "midi": 68,
          "time": 67.96511627906469,
          "velocity": 0.3543307086614173,
          "duration": 0.31395348837202164
        },
        {
          "name": "G5",
          "midi": 79,
          "time": 67.96511627906469,
          "velocity": 0.3700787401574803,
          "duration": 0.04651162790696617
        },
        {
          "name": "B5",
          "midi": 83,
          "time": 67.96511627906469,
          "velocity": 0.2283464566929134,
          "duration": 0.034883720930224626
        },
        {
          "name": "C5",
          "midi": 72,
          "time": 67.97674418604143,
          "velocity": 0.29133858267716534,
          "duration": 0.0813953488371908
        },
        {
          "name": "A#5",
          "midi": 82,
          "time": 68.01162790697165,
          "velocity": 0.1889763779527559,
          "duration": 0.0813953488371908
        },
        {
          "name": "B5",
          "midi": 83,
          "time": 68.01162790697165,
          "velocity": 0.15748031496062992,
          "duration": 0.034883720930224626
        },
        {
          "name": "G5",
          "midi": 79,
          "time": 68.0232558139484,
          "velocity": 0.2992125984251969,
          "duration": 0.05813953488370771
        },
        {
          "name": "D#7",
          "midi": 99,
          "time": 68.0232558139484,
          "velocity": 0.11811023622047244,
          "duration": 0.04651162790696617
        },
        {
          "name": "A#4",
          "midi": 70,
          "time": 68.05813953487862,
          "velocity": 0.13385826771653545,
          "duration": 0.034883720930224626
        },
        {
          "name": "B5",
          "midi": 83,
          "time": 68.05813953487862,
          "velocity": 0.16535433070866143,
          "duration": 0.09302325581393234
        },
        {
          "name": "D#6",
          "midi": 87,
          "time": 68.05813953487862,
          "velocity": 0.12598425196850394,
          "duration": 0.0813953488371908
        },
        {
          "name": "G#5",
          "midi": 80,
          "time": 68.06976744185536,
          "velocity": 0.4409448818897638,
          "duration": 0.2558139534883139
        },
        {
          "name": "G#3",
          "midi": 56,
          "time": 68.11627906976233,
          "velocity": 0.2204724409448819,
          "duration": 0.04651162790696617
        },
        {
          "name": "F4",
          "midi": 65,
          "time": 68.12790697673907,
          "velocity": 0.23622047244094488,
          "duration": 0.04651162790696617
        },
        {
          "name": "A#5",
          "midi": 82,
          "time": 68.12790697673907,
          "velocity": 0.2047244094488189,
          "duration": 0.17441860465112313
        },
        {
          "name": "C6",
          "midi": 84,
          "time": 68.15116279069255,
          "velocity": 0.2440944881889764,
          "duration": 0.09302325581393234
        },
        {
          "name": "D#5",
          "midi": 75,
          "time": 68.1627906976693,
          "velocity": 0.29133858267716534,
          "duration": 0.10465116279067388
        },
        {
          "name": "D6",
          "midi": 86,
          "time": 68.1627906976693,
          "velocity": 0.11023622047244094,
          "duration": 0.034883720930224626
        },
        {
          "name": "C5",
          "midi": 72,
          "time": 68.20930232557626,
          "velocity": 0.2755905511811024,
          "duration": 0.023255813953483084
        },
        {
          "name": "C#4",
          "midi": 61,
          "time": 68.220930232553,
          "velocity": 0.36220472440944884,
          "duration": 0.034883720930224626
        },
        {
          "name": "C#6",
          "midi": 85,
          "time": 68.23255813952974,
          "velocity": 0.4409448818897638,
          "duration": 0.4069767441859682
        },
        {
          "name": "F#4",
          "midi": 66,
          "time": 68.24418604650648,
          "velocity": 0.3464566929133858,
          "duration": 0.023255813953483084
        },
        {
          "name": "C6",
          "midi": 84,
          "time": 68.25581395348323,
          "velocity": 0.33070866141732286,
          "duration": 0.04651162790696617
        },
        {
          "name": "B6",
          "midi": 95,
          "time": 68.25581395348323,
          "velocity": 0.1968503937007874,
          "duration": 0.10465116279067388
        },
        {
          "name": "D#7",
          "midi": 99,
          "time": 68.25581395348323,
          "velocity": 0.2677165354330709,
          "duration": 0.09302325581393234
        },
        {
          "name": "E7",
          "midi": 100,
          "time": 68.25581395348323,
          "velocity": 0.1732283464566929,
          "duration": 0.0813953488371908
        },
        {
          "name": "F7",
          "midi": 101,
          "time": 68.25581395348323,
          "velocity": 0.2047244094488189,
          "duration": 0.10465116279067388
        },
        {
          "name": "F#7",
          "midi": 102,
          "time": 68.25581395348323,
          "velocity": 0.2204724409448819,
          "duration": 0.06976744186044925
        },
        {
          "name": "F3",
          "midi": 53,
          "time": 68.26744186045997,
          "velocity": 0.25196850393700787,
          "duration": 0.023255813953483084
        },
        {
          "name": "F4",
          "midi": 65,
          "time": 68.26744186045997,
          "velocity": 0.47244094488188976,
          "duration": 0.1627906976743958
        },
        {
          "name": "D5",
          "midi": 74,
          "time": 68.26744186045997,
          "velocity": 0.3858267716535433,
          "duration": 0.023255813953483084
        },
        {
          "name": "F#5",
          "midi": 78,
          "time": 68.26744186045997,
          "velocity": 0.31496062992125984,
          "duration": 0.023255813953483084
        },
        {
          "name": "G6",
          "midi": 91,
          "time": 68.26744186045997,
          "velocity": 0.1889763779527559,
          "duration": 0.04651162790696617
        },
        {
          "name": "C#4",
          "midi": 61,
          "time": 68.27906976743671,
          "velocity": 0.6771653543307087,
          "duration": 0.2674418604650697
        },
        {
          "name": "A#4",
          "midi": 70,
          "time": 68.27906976743671,
          "velocity": 0.25984251968503935,
          "duration": 0.034883720930224626
        },
        {
          "name": "B5",
          "midi": 83,
          "time": 68.27906976743671,
          "velocity": 0.1968503937007874,
          "duration": 0.04651162790696617
        },
        {
          "name": "D#5",
          "midi": 75,
          "time": 68.29069767441345,
          "velocity": 0.2677165354330709,
          "duration": 0.04651162790696617
        },
        {
          "name": "G#4",
          "midi": 68,
          "time": 68.30232558139019,
          "velocity": 0.2204724409448819,
          "duration": 0.034883720930224626
        },
        {
          "name": "F#5",
          "midi": 78,
          "time": 68.30232558139019,
          "velocity": 0.10236220472440945,
          "duration": 0.04651162790696617
        },
        {
          "name": "D7",
          "midi": 98,
          "time": 68.31395348836693,
          "velocity": 0.08661417322834646,
          "duration": 0.04651162790696617
        },
        {
          "name": "G#5",
          "midi": 80,
          "time": 68.33720930232042,
          "velocity": 0.4566929133858268,
          "duration": 0.25581395348832814
        },
        {
          "name": "A#5",
          "midi": 82,
          "time": 68.33720930232042,
          "velocity": 0.14173228346456693,
          "duration": 0.034883720930224626
        },
        {
          "name": "C6",
          "midi": 84,
          "time": 68.33720930232042,
          "velocity": 0.28346456692913385,
          "duration": 0.09302325581394655
        },
        {
          "name": "G#4",
          "midi": 68,
          "time": 68.34883720929716,
          "velocity": 0.41732283464566927,
          "duration": 0.1627906976743958
        },
        {
          "name": "D#5",
          "midi": 75,
          "time": 68.3604651162739,
          "velocity": 0.30708661417322836,
          "duration": 0.023255813953483084
        },
        {
          "name": "F5",
          "midi": 77,
          "time": 68.38372093022738,
          "velocity": 0.5196850393700787,
          "duration": 0.895348837209113
        },
        {
          "name": "B6",
          "midi": 95,
          "time": 68.38372093022738,
          "velocity": 0.14960629921259844,
          "duration": 0.04651162790698038
        },
        {
          "name": "B5",
          "midi": 83,
          "time": 68.41860465115762,
          "velocity": 0.10236220472440945,
          "duration": 0.034883720930224626
        },
        {
          "name": "D#7",
          "midi": 99,
          "time": 68.41860465115762,
          "velocity": 0.08661417322834646,
          "duration": 0.034883720930224626
        },
        {
          "name": "C7",
          "midi": 96,
          "time": 68.43023255813436,
          "velocity": 0.08661417322834646,
          "duration": 0.04651162790696617
        },
        {
          "name": "F4",
          "midi": 65,
          "time": 68.4418604651111,
          "velocity": 0.4094488188976378,
          "duration": 0.09302325581393234
        },
        {
          "name": "A#6",
          "midi": 94,
          "time": 68.45348837208785,
          "velocity": 0.07874015748031496,
          "duration": 0.034883720930224626
        },
        {
          "name": "B5",
          "midi": 83,
          "time": 68.46511627906459,
          "velocity": 0.1732283464566929,
          "duration": 0.034883720930224626
        },
        {
          "name": "D#6",
          "midi": 87,
          "time": 68.46511627906459,
          "velocity": 0.3228346456692913,
          "duration": 0.29069767441853855
        },
        {
          "name": "E7",
          "midi": 100,
          "time": 68.46511627906459,
          "velocity": 0.25196850393700787,
          "duration": 0.09302325581393234
        },
        {
          "name": "D5",
          "midi": 74,
          "time": 68.47674418604133,
          "velocity": 0.31496062992125984,
          "duration": 0.023255813953483084
        },
        {
          "name": "A#5",
          "midi": 82,
          "time": 68.47674418604133,
          "velocity": 0.11811023622047244,
          "duration": 0.034883720930224626
        },
        {
          "name": "A6",
          "midi": 93,
          "time": 68.47674418604133,
          "velocity": 0.13385826771653545,
          "duration": 0.04651162790696617
        },
        {
          "name": "D7",
          "midi": 98,
          "time": 68.47674418604133,
          "velocity": 0.13385826771653545,
          "duration": 0.04651162790696617
        },
        {
          "name": "F#7",
          "midi": 102,
          "time": 68.47674418604133,
          "velocity": 0.1968503937007874,
          "duration": 0.06976744186044925
        },
        {
          "name": "F3",
          "midi": 53,
          "time": 68.48837209301807,
          "velocity": 0.2283464566929134,
          "duration": 0.1395348837208985
        },
        {
          "name": "G6",
          "midi": 91,
          "time": 68.48837209301807,
          "velocity": 0.11023622047244094,
          "duration": 0.034883720930224626
        },
        {
          "name": "G7",
          "midi": 103,
          "time": 68.48837209301807,
          "velocity": 0.11811023622047244,
          "duration": 0.034883720930224626
        },
        {
          "name": "C6",
          "midi": 84,
          "time": 68.49999999999481,
          "velocity": 0.23622047244094488,
          "duration": 0.0813953488371908
        },
        {
          "name": "G#4",
          "midi": 68,
          "time": 68.5232558139483,
          "velocity": 0.33858267716535434,
          "duration": 0.06976744186044925
        },
        {
          "name": "A#5",
          "midi": 82,
          "time": 68.5232558139483,
          "velocity": 0.18110236220472442,
          "duration": 0.05813953488370771
        },
        {
          "name": "C#4",
          "midi": 61,
          "time": 68.56976744185526,
          "velocity": 0.2755905511811024,
          "duration": 0.023255813953483084
        },
        {
          "name": "E4",
          "midi": 64,
          "time": 68.56976744185526,
          "velocity": 0.31496062992125984,
          "duration": 0.023255813953483084
        },
        {
          "name": "C5",
          "midi": 72,
          "time": 68.56976744185526,
          "velocity": 0.1889763779527559,
          "duration": 0.034883720930224626
        },
        {
          "name": "B6",
          "midi": 95,
          "time": 68.56976744185526,
          "velocity": 0.13385826771653545,
          "duration": 0.06976744186044925
        },
        {
          "name": "E6",
          "midi": 88,
          "time": 68.581395348832,
          "velocity": 0.15748031496062992,
          "duration": 0.034883720930224626
        },
        {
          "name": "F#6",
          "midi": 90,
          "time": 68.581395348832,
          "velocity": 0.13385826771653545,
          "duration": 0.034883720930224626
        },
        {
          "name": "E7",
          "midi": 100,
          "time": 68.581395348832,
          "velocity": 0.2047244094488189,
          "duration": 0.0813953488371908
        },
        {
          "name": "F#7",
          "midi": 102,
          "time": 68.581395348832,
          "velocity": 0.1889763779527559,
          "duration": 0.06976744186044925
        },
        {
          "name": "F4",
          "midi": 65,
          "time": 68.59302325580875,
          "velocity": 0.4251968503937008,
          "duration": 0.034883720930224626
        },
        {
          "name": "G5",
          "midi": 79,
          "time": 68.59302325580875,
          "velocity": 0.25196850393700787,
          "duration": 0.023255813953483084
        },
        {
          "name": "A5",
          "midi": 81,
          "time": 68.59302325580875,
          "velocity": 0.2992125984251969,
          "duration": 0.04651162790696617
        },
        {
          "name": "B5",
          "midi": 83,
          "time": 68.59302325580875,
          "velocity": 0.2047244094488189,
          "duration": 0.034883720930224626
        },
        {
          "name": "G#6",
          "midi": 92,
          "time": 68.59302325580875,
          "velocity": 0.2283464566929134,
          "duration": 0.11627906976741542
        },
        {
          "name": "C7",
          "midi": 96,
          "time": 68.59302325580875,
          "velocity": 0.08661417322834646,
          "duration": 0.034883720930224626
        },
        {
          "name": "G7",
          "midi": 103,
          "time": 68.59302325580875,
          "velocity": 0.08661417322834646,
          "duration": 0.04651162790696617
        },
        {
          "name": "C#4",
          "midi": 61,
          "time": 68.60465116278549,
          "velocity": 0.5354330708661418,
          "duration": 0.24418604651157239
        },
        {
          "name": "B4",
          "midi": 71,
          "time": 68.60465116278549,
          "velocity": 0.16535433070866143,
          "duration": 0.034883720930224626
        },
        {
          "name": "A#5",
          "midi": 82,
          "time": 68.62790697673897,
          "velocity": 0.2125984251968504,
          "duration": 0.034883720930224626
        },
        {
          "name": "F4",
          "midi": 65,
          "time": 68.63953488371571,
          "velocity": 0.15748031496062992,
          "duration": 0.034883720930224626
        },
        {
          "name": "G#5",
          "midi": 80,
          "time": 68.63953488371571,
          "velocity": 0.3543307086614173,
          "duration": 0.29069767441853855
        },
        {
          "name": "D6",
          "midi": 86,
          "time": 68.63953488371571,
          "velocity": 0.2440944881889764,
          "duration": 0.04651162790696617
        },
        {
          "name": "A5",
          "midi": 81,
          "time": 68.65116279069245,
          "velocity": 0.30708661417322836,
          "duration": 0.04651162790696617
        },
        {
          "name": "C#6",
          "midi": 85,
          "time": 68.65116279069245,
          "velocity": 0.3937007874015748,
          "duration": 0.17441860465112313
        },
        {
          "name": "G#4",
          "midi": 68,
          "time": 68.6627906976692,
          "velocity": 0.33858267716535434,
          "duration": 0.15116279069764005
        },
        {
          "name": "A#5",
          "midi": 82,
          "time": 68.69767441859942,
          "velocity": 0.3228346456692913,
          "duration": 0.04651162790696617
        },
        {
          "name": "F4",
          "midi": 65,
          "time": 68.7209302325529,
          "velocity": 0.15748031496062992,
          "duration": 0.034883720930224626
        },
        {
          "name": "C6",
          "midi": 84,
          "time": 68.73255813952964,
          "velocity": 0.2755905511811024,
          "duration": 0.18604651162786467
        },
        {
          "name": "A5",
          "midi": 81,
          "time": 68.74418604650639,
          "velocity": 0.31496062992125984,
          "duration": 0.034883720930224626
        },
        {
          "name": "A#5",
          "midi": 82,
          "time": 68.77906976743661,
          "velocity": 0.3464566929133858,
          "duration": 0.17441860465112313
        },
        {
          "name": "D#5",
          "midi": 75,
          "time": 68.79069767441335,
          "velocity": 0.15748031496062992,
          "duration": 0.04651162790696617
        },
        {
          "name": "A#4",
          "midi": 70,
          "time": 68.8023255813901,
          "velocity": 0.4251968503937008,
          "duration": 0.11627906976741542
        },
        {
          "name": "D6",
          "midi": 86,
          "time": 68.8023255813901,
          "velocity": 0.36220472440944884,
          "duration": 0.09302325581393234
        },
        {
          "name": "F#6",
          "midi": 90,
          "time": 68.8023255813901,
          "velocity": 0.2677165354330709,
          "duration": 0.3023255813952801
        },
        {
          "name": "F4",
          "midi": 65,
          "time": 68.81395348836683,
          "velocity": 0.2992125984251969,
          "duration": 0.09302325581393234
        },
        {
          "name": "A6",
          "midi": 93,
          "time": 68.81395348836683,
          "velocity": 0.09448818897637795,
          "duration": 0.05813953488370771
        },
        {
          "name": "B6",
          "midi": 95,
          "time": 68.81395348836683,
          "velocity": 0.18110236220472442,
          "duration": 0.034883720930224626
        },
        {
          "name": "E7",
          "midi": 100,
          "time": 68.81395348836683,
          "velocity": 0.14173228346456693,
          "duration": 0.0813953488371908
        },
        {
          "name": "A3",
          "midi": 57,
          "time": 68.82558139534358,
          "velocity": 0.31496062992125984,
          "duration": 0.023255813953483084
        },
        {
          "name": "A#3",
          "midi": 58,
          "time": 68.84883720929706,
          "velocity": 0.5354330708661418,
          "duration": 0.06976744186044925
        },
        {
          "name": "D5",
          "midi": 74,
          "time": 68.84883720929706,
          "velocity": 0.18110236220472442,
          "duration": 0.04651162790696617
        },
        {
          "name": "D#7",
          "midi": 99,
          "time": 68.8604651162738,
          "velocity": 0.2755905511811024,
          "duration": 0.18604651162786467
        },
        {
          "name": "C#5",
          "midi": 73,
          "time": 68.87209302325054,
          "velocity": 0.3700787401574803,
          "duration": 0.05813953488370771
        },
        {
          "name": "G7",
          "midi": 103,
          "time": 68.89534883720403,
          "velocity": 0.2125984251968504,
          "duration": 0.1395348837208985
        },
        {
          "name": "D6",
          "midi": 86,
          "time": 68.90697674418077,
          "velocity": 0.2755905511811024,
          "duration": 0.0813953488371908
        },
        {
          "name": "B3",
          "midi": 59,
          "time": 68.91860465115751,
          "velocity": 0.6062992125984252,
          "duration": 0.011627906976741542
        },
        {
          "name": "E6",
          "midi": 88,
          "time": 68.91860465115751,
          "velocity": 0.18110236220472442,
          "duration": 0.034883720930224626
        },
        {
          "name": "A6",
          "midi": 93,
          "time": 68.91860465115751,
          "velocity": 0.1732283464566929,
          "duration": 0.04651162790696617
        },
        {
          "name": "A#3",
          "midi": 58,
          "time": 68.93023255813425,
          "velocity": 0.6692913385826772,
          "duration": 0.011627906976741542
        },
        {
          "name": "D5",
          "midi": 74,
          "time": 68.93023255813425,
          "velocity": 0.3464566929133858,
          "duration": 0.023255813953483084
        },
        {
          "name": "G5",
          "midi": 79,
          "time": 68.93023255813425,
          "velocity": 0.2755905511811024,
          "duration": 0.023255813953483084
        },
        {
          "name": "C6",
          "midi": 84,
          "time": 68.93023255813425,
          "velocity": 0.3779527559055118,
          "duration": 0.29069767441853855
        },
        {
          "name": "B6",
          "midi": 95,
          "time": 68.93023255813425,
          "velocity": 0.16535433070866143,
          "duration": 0.034883720930224626
        },
        {
          "name": "A3",
          "midi": 57,
          "time": 68.94186046511099,
          "velocity": 0.6850393700787402,
          "duration": 0.011627906976741542
        },
        {
          "name": "G#4",
          "midi": 68,
          "time": 68.94186046511099,
          "velocity": 0.47244094488188976,
          "duration": 0.3023255813952801
        },
        {
          "name": "D#5",
          "midi": 75,
          "time": 68.94186046511099,
          "velocity": 0.3858267716535433,
          "duration": 0.12790697674415696
        },
        {
          "name": "B5",
          "midi": 83,
          "time": 68.94186046511099,
          "velocity": 0.2755905511811024,
          "duration": 0.06976744186044925
        },
        {
          "name": "G#3",
          "midi": 56,
          "time": 68.95348837208773,
          "velocity": 0.6299212598425197,
          "duration": 0.011627906976741542
        },
        {
          "name": "A#4",
          "midi": 70,
          "time": 68.95348837208773,
          "velocity": 0.25196850393700787,
          "duration": 0.04651162790696617
        },
        {
          "name": "C#5",
          "midi": 73,
          "time": 68.95348837208773,
          "velocity": 0.4645669291338583,
          "duration": 0.1395348837208985
        },
        {
          "name": "G3",
          "midi": 55,
          "time": 68.96511627906447,
          "velocity": 0.5984251968503937,
          "duration": 0.011627906976741542
        },
        {
          "name": "F4",
          "midi": 65,
          "time": 68.96511627906447,
          "velocity": 0.28346456692913385,
          "duration": 0.04651162790696617
        },
        {
          "name": "G#3",
          "midi": 56,
          "time": 68.97674418604122,
          "velocity": 0.6299212598425197,
          "duration": 0.1395348837208985
        },
        {
          "name": "C#4",
          "midi": 61,
          "time": 68.9999999999947,
          "velocity": 0.3228346456692913,
          "duration": 0.04651162790696617
        },
        {
          "name": "A#4",
          "midi": 70,
          "time": 69.01162790697144,
          "velocity": 0.29133858267716534,
          "duration": 0.04651162790696617
        },
        {
          "name": "D6",
          "midi": 86,
          "time": 69.04651162790167,
          "velocity": 0.2677165354330709,
          "duration": 0.023255813953483084
        },
        {
          "name": "A#6",
          "midi": 94,
          "time": 69.0581395348784,
          "velocity": 0.14173228346456693,
          "duration": 0.034883720930224626
        },
        {
          "name": "C#4",
          "midi": 61,
          "time": 69.06976744185515,
          "velocity": 0.28346456692913385,
          "duration": 0.034883720930224626
        },
        {
          "name": "F4",
          "midi": 65,
          "time": 69.08139534883189,
          "velocity": 0.41732283464566927,
          "duration": 0.10465116279067388
        },
        {
          "name": "D#5",
          "midi": 75,
          "time": 69.09302325580863,
          "velocity": 0.3858267716535433,
          "duration": 0.26744186046505547
        },
        {
          "name": "E6",
          "midi": 88,
          "time": 69.10465116278537,
          "velocity": 0.25984251968503935,
          "duration": 0.023255813953483084
        },
        {
          "name": "A3",
          "midi": 57,
          "time": 69.11627906976211,
          "velocity": 0.29133858267716534,
          "duration": 0.023255813953483084
        },
        {
          "name": "A#5",
          "midi": 82,
          "time": 69.11627906976211,
          "velocity": 0.16535433070866143,
          "duration": 0.04651162790696617
        },
        {
          "name": "C#6",
          "midi": 85,
          "time": 69.11627906976211,
          "velocity": 0.1889763779527559,
          "duration": 0.034883720930224626
        },
        {
          "name": "F#6",
          "midi": 90,
          "time": 69.12790697673886,
          "velocity": 0.1732283464566929,
          "duration": 0.0813953488371908
        },
        {
          "name": "B6",
          "midi": 95,
          "time": 69.12790697673886,
          "velocity": 0.2204724409448819,
          "duration": 0.06976744186044925
        },
        {
          "name": "C#7",
          "midi": 97,
          "time": 69.12790697673886,
          "velocity": 0.1889763779527559,
          "duration": 0.06976744186044925
        },
        {
          "name": "E7",
          "midi": 100,
          "time": 69.12790697673886,
          "velocity": 0.18110236220472442,
          "duration": 0.05813953488370771
        },
        {
          "name": "G#3",
          "midi": 56,
          "time": 69.1395348837156,
          "velocity": 0.5433070866141733,
          "duration": 0.18604651162786467
        },
        {
          "name": "G#6",
          "midi": 92,
          "time": 69.1395348837156,
          "velocity": 0.18110236220472442,
          "duration": 0.06976744186044925
        },
        {
          "name": "G7",
          "midi": 103,
          "time": 69.1395348837156,
          "velocity": 0.08661417322834646,
          "duration": 0.06976744186044925
        },
        {
          "name": "G#5",
          "midi": 80,
          "time": 69.15116279069234,
          "velocity": 0.48031496062992124,
          "duration": 0.7558139534882002
        },
        {
          "name": "D6",
          "midi": 86,
          "time": 69.16279069766908,
          "velocity": 0.13385826771653545,
          "duration": 0.034883720930224626
        },
        {
          "name": "C#5",
          "midi": 73,
          "time": 69.17441860464582,
          "velocity": 0.2677165354330709,
          "duration": 0.034883720930224626
        },
        {
          "name": "E6",
          "midi": 88,
          "time": 69.17441860464582,
          "velocity": 0.2440944881889764,
          "duration": 0.023255813953483084
        },
        {
          "name": "A6",
          "midi": 93,
          "time": 69.17441860464582,
          "velocity": 0.08661417322834646,
          "duration": 0.04651162790696617
        },
        {
          "name": "C5",
          "midi": 72,
          "time": 69.20930232557605,
          "velocity": 0.29133858267716534,
          "duration": 0.034883720930224626
        },
        {
          "name": "C#6",
          "midi": 85,
          "time": 69.20930232557605,
          "velocity": 0.3464566929133858,
          "duration": 0.2558139534883139
        },
        {
          "name": "E6",
          "midi": 88,
          "time": 69.20930232557605,
          "velocity": 0.13385826771653545,
          "duration": 0.05813953488370771
        },
        {
          "name": "G6",
          "midi": 91,
          "time": 69.20930232557605,
          "velocity": 0.15748031496062992,
          "duration": 0.10465116279067388
        },
        {
          "name": "F#4",
          "midi": 66,
          "time": 69.22093023255279,
          "velocity": 0.23622047244094488,
          "duration": 0.023255813953483084
        },
        {
          "name": "F#6",
          "midi": 90,
          "time": 69.23255813952953,
          "velocity": 0.15748031496062992,
          "duration": 0.20930232558134776
        },
        {
          "name": "C7",
          "midi": 96,
          "time": 69.23255813952953,
          "velocity": 0.15748031496062992,
          "duration": 0.06976744186044925
        },
        {
          "name": "C#5",
          "midi": 73,
          "time": 69.24418604650627,
          "velocity": 0.41732283464566927,
          "duration": 0.12790697674415696
        },
        {
          "name": "B5",
          "midi": 83,
          "time": 69.24418604650627,
          "velocity": 0.07874015748031496,
          "duration": 0.04651162790696617
        },
        {
          "name": "A6",
          "midi": 93,
          "time": 69.24418604650627,
          "velocity": 0.1889763779527559,
          "duration": 0.06976744186044925
        },
        {
          "name": "A#6",
          "midi": 94,
          "time": 69.24418604650627,
          "velocity": 0.09448818897637795,
          "duration": 0.034883720930224626
        },
        {
          "name": "B6",
          "midi": 95,
          "time": 69.24418604650627,
          "velocity": 0.12598425196850394,
          "duration": 0.05813953488370771
        },
        {
          "name": "D7",
          "midi": 98,
          "time": 69.24418604650627,
          "velocity": 0.2125984251968504,
          "duration": 0.05813953488370771
        },
        {
          "name": "E7",
          "midi": 100,
          "time": 69.24418604650627,
          "velocity": 0.1732283464566929,
          "duration": 0.04651162790696617
        },
        {
          "name": "F7",
          "midi": 101,
          "time": 69.24418604650627,
          "velocity": 0.1732283464566929,
          "duration": 0.034883720930224626
        },
        {
          "name": "G7",
          "midi": 103,
          "time": 69.24418604650627,
          "velocity": 0.1889763779527559,
          "duration": 0.034883720930224626
        },
        {
          "name": "A#4",
          "midi": 70,
          "time": 69.25581395348301,
          "velocity": 0.30708661417322836,
          "duration": 0.24418604651157239
        },
        {
          "name": "D6",
          "midi": 86,
          "time": 69.25581395348301,
          "velocity": 0.15748031496062992,
          "duration": 0.04651162790696617
        },
        {
          "name": "C#4",
          "midi": 61,
          "time": 69.26744186045975,
          "velocity": 0.5748031496062992,
          "duration": 0.23255813953483084
        },
        {
          "name": "F#5",
          "midi": 78,
          "time": 69.2790697674365,
          "velocity": 0.1732283464566929,
          "duration": 0.0813953488371908
        },
        {
          "name": "C6",
          "midi": 84,
          "time": 69.29069767441324,
          "velocity": 0.1889763779527559,
          "duration": 0.10465116279067388
        },
        {
          "name": "E6",
          "midi": 88,
          "time": 69.30232558138998,
          "velocity": 0.33858267716535434,
          "duration": 0.15116279069764005
        },
        {
          "name": "A6",
          "midi": 93,
          "time": 69.32558139534346,
          "velocity": 0.07874015748031496,
          "duration": 0.034883720930224626
        },
        {
          "name": "G6",
          "midi": 91,
          "time": 69.34883720929695,
          "velocity": 0.14173228346456693,
          "duration": 0.034883720930224626
        },
        {
          "name": "D7",
          "midi": 98,
          "time": 69.36046511627369,
          "velocity": 0.07874015748031496,
          "duration": 0.034883720930224626
        },
        {
          "name": "F4",
          "midi": 65,
          "time": 69.37209302325043,
          "velocity": 0.25984251968503935,
          "duration": 0.023255813953483084
        },
        {
          "name": "F#5",
          "midi": 78,
          "time": 69.37209302325043,
          "velocity": 0.33858267716535434,
          "duration": 0.19767441860460622
        },
        {
          "name": "D#6",
          "midi": 87,
          "time": 69.39534883720391,
          "velocity": 0.07874015748031496,
          "duration": 0.034883720930224626
        },
        {
          "name": "G#3",
          "midi": 56,
          "time": 69.40697674418065,
          "velocity": 0.1732283464566929,
          "duration": 0.04651162790696617
        },
        {
          "name": "G6",
          "midi": 91,
          "time": 69.40697674418065,
          "velocity": 0.14960629921259844,
          "duration": 0.05813953488370771
        },
        {
          "name": "F#4",
          "midi": 66,
          "time": 69.4186046511574,
          "velocity": 0.3858267716535433,
          "duration": 0.15116279069764005
        },
        {
          "name": "B6",
          "midi": 95,
          "time": 69.43023255813414,
          "velocity": 0.08661417322834646,
          "duration": 0.06976744186044925
        },
        {
          "name": "A#5",
          "midi": 82,
          "time": 69.44186046511088,
          "velocity": 0.3779527559055118,
          "duration": 0.1627906976743816
        },
        {
          "name": "F6",
          "midi": 89,
          "time": 69.44186046511088,
          "velocity": 0.3700787401574803,
          "duration": 0.1627906976743816
        },
        {
          "name": "D#5",
          "midi": 75,
          "time": 69.45348837208762,
          "velocity": 0.08661417322834646,
          "duration": 0.034883720930224626
        },
        {
          "name": "E6",
          "midi": 88,
          "time": 69.46511627906436,
          "velocity": 0.3464566929133858,
          "duration": 0.06976744186044925
        },
        {
          "name": "F5",
          "midi": 77,
          "time": 69.4767441860411,
          "velocity": 0.23622047244094488,
          "duration": 0.05813953488370771
        },
        {
          "name": "D4",
          "midi": 62,
          "time": 69.49999999999459,
          "velocity": 0.2125984251968504,
          "duration": 0.034883720930224626
        },
        {
          "name": "B5",
          "midi": 83,
          "time": 69.49999999999459,
          "velocity": 0.09448818897637795,
          "duration": 0.034883720930224626
        },
        {
          "name": "D#6",
          "midi": 87,
          "time": 69.49999999999459,
          "velocity": 0.08661417322834646,
          "duration": 0.034883720930224626
        },
        {
          "name": "A2",
          "midi": 45,
          "time": 69.51162790697133,
          "velocity": 0.07874015748031496,
          "duration": 0.034883720930224626
        },
        {
          "name": "C#5",
          "midi": 73,
          "time": 69.51162790697133,
          "velocity": 0.5590551181102362,
          "duration": 0.17441860465112313
        },
        {
          "name": "A#4",
          "midi": 70,
          "time": 69.52325581394807,
          "velocity": 0.25196850393700787,
          "duration": 0.12790697674415696
        },
        {
          "name": "C#4",
          "midi": 61,
          "time": 69.53488372092481,
          "velocity": 0.4330708661417323,
          "duration": 0.034883720930224626
        },
        {
          "name": "B6",
          "midi": 95,
          "time": 69.5581395348783,
          "velocity": 0.1968503937007874,
          "duration": 0.15116279069764005
        },
        {
          "name": "C4",
          "midi": 60,
          "time": 69.56976744185503,
          "velocity": 0.4094488188976378,
          "duration": 0.023255813953483084
        },
        {
          "name": "F5",
          "midi": 77,
          "time": 69.56976744185503,
          "velocity": 0.3543307086614173,
          "duration": 0.10465116279067388
        },
        {
          "name": "D#6",
          "midi": 87,
          "time": 69.56976744185503,
          "velocity": 0.16535433070866143,
          "duration": 0.05813953488370771
        },
        {
          "name": "C7",
          "midi": 96,
          "time": 69.56976744185503,
          "velocity": 0.16535433070866143,
          "duration": 0.06976744186044925
        },
        {
          "name": "D7",
          "midi": 98,
          "time": 69.56976744185503,
          "velocity": 0.1732283464566929,
          "duration": 0.05813953488370771
        },
        {
          "name": "D#7",
          "midi": 99,
          "time": 69.56976744185503,
          "velocity": 0.2047244094488189,
          "duration": 0.15116279069764005
        },
        {
          "name": "E7",
          "midi": 100,
          "time": 69.56976744185503,
          "velocity": 0.2125984251968504,
          "duration": 0.11627906976741542
        },
        {
          "name": "G7",
          "midi": 103,
          "time": 69.56976744185503,
          "velocity": 0.2047244094488189,
          "duration": 0.09302325581393234
        },
        {
          "name": "E4",
          "midi": 64,
          "time": 69.58139534883178,
          "velocity": 0.5118110236220472,
          "duration": 0.011627906976741542
        },
        {
          "name": "F#4",
          "midi": 66,
          "time": 69.58139534883178,
          "velocity": 0.4409448818897638,
          "duration": 0.09302325581393234
        },
        {
          "name": "D6",
          "midi": 86,
          "time": 69.58139534883178,
          "velocity": 0.2047244094488189,
          "duration": 0.034883720930224626
        },
        {
          "name": "G6",
          "midi": 91,
          "time": 69.58139534883178,
          "velocity": 0.41732283464566927,
          "duration": 0.6744186046510237
        },
        {
          "name": "A6",
          "midi": 93,
          "time": 69.58139534883178,
          "velocity": 0.2047244094488189,
          "duration": 0.06976744186044925
        },
        {
          "name": "C#4",
          "midi": 61,
          "time": 69.59302325580852,
          "velocity": 0.7244094488188977,
          "duration": 0.2209302325580893
        },
        {
          "name": "E6",
          "midi": 88,
          "time": 69.59302325580852,
          "velocity": 0.28346456692913385,
          "duration": 0.023255813953483084
        },
        {
          "name": "F6",
          "midi": 89,
          "time": 69.616279069762,
          "velocity": 0.3700787401574803,
          "duration": 0.06976744186044925
        },
        {
          "name": "A#6",
          "midi": 94,
          "time": 69.62790697673874,
          "velocity": 0.14960629921259844,
          "duration": 0.04651162790696617
        },
        {
          "name": "G#3",
          "midi": 56,
          "time": 69.63953488371548,
          "velocity": 0.1968503937007874,
          "duration": 0.034883720930224626
        },
        {
          "name": "C6",
          "midi": 84,
          "time": 69.63953488371548,
          "velocity": 0.1732283464566929,
          "duration": 0.04651162790696617
        },
        {
          "name": "D7",
          "midi": 98,
          "time": 69.63953488371548,
          "velocity": 0.15748031496062992,
          "duration": 0.034883720930224626
        },
        {
          "name": "A#5",
          "midi": 82,
          "time": 69.65116279069223,
          "velocity": 0.49606299212598426,
          "duration": 0.616279069767316
        },
        {
          "name": "G#4",
          "midi": 68,
          "time": 69.66279069766897,
          "velocity": 0.2047244094488189,
          "duration": 0.0813953488371908
        },
        {
          "name": "E5",
          "midi": 76,
          "time": 69.68604651162245,
          "velocity": 0.31496062992125984,
          "duration": 0.034883720930224626
        },
        {
          "name": "B5",
          "midi": 83,
          "time": 69.68604651162245,
          "velocity": 0.2047244094488189,
          "duration": 0.04651162790696617
        },
        {
          "name": "A6",
          "midi": 93,
          "time": 69.68604651162245,
          "velocity": 0.28346456692913385,
          "duration": 0.1395348837208985
        },
        {
          "name": "D7",
          "midi": 98,
          "time": 69.68604651162245,
          "velocity": 0.1968503937007874,
          "duration": 0.1627906976743816
        },
        {
          "name": "F6",
          "midi": 89,
          "time": 69.69767441859919,
          "velocity": 0.30708661417322836,
          "duration": 0.023255813953483084
        },
        {
          "name": "A#4",
          "midi": 70,
          "time": 69.70930232557593,
          "velocity": 0.48031496062992124,
          "duration": 0.4418604651161928
        },
        {
          "name": "F#4",
          "midi": 66,
          "time": 69.72093023255267,
          "velocity": 0.16535433070866143,
          "duration": 0.034883720930224626
        },
        {
          "name": "B6",
          "midi": 95,
          "time": 69.73255813952942,
          "velocity": 0.15748031496062992,
          "duration": 0.12790697674415696
        },
        {
          "name": "F6",
          "midi": 89,
          "time": 69.74418604650616,
          "velocity": 0.2440944881889764,
          "duration": 0.17441860465112313
        },
        {
          "name": "B5",
          "midi": 83,
          "time": 69.7558139534829,
          "velocity": 0.10236220472440945,
          "duration": 0.034883720930224626
        },
        {
          "name": "F#4",
          "midi": 66,
          "time": 69.76744186045964,
          "velocity": 0.3779527559055118,
          "duration": 0.034883720930224626
        },
        {
          "name": "D5",
          "midi": 74,
          "time": 69.77906976743638,
          "velocity": 0.33070866141732286,
          "duration": 0.023255813953483084
        },
        {
          "name": "D#7",
          "midi": 99,
          "time": 69.77906976743638,
          "velocity": 0.08661417322834646,
          "duration": 0.05813953488370771
        },
        {
          "name": "E7",
          "midi": 100,
          "time": 69.77906976743638,
          "velocity": 0.2125984251968504,
          "duration": 0.034883720930224626
        },
        {
          "name": "C7",
          "midi": 96,
          "time": 69.79069767441312,
          "velocity": 0.12598425196850394,
          "duration": 0.1627906976743816
        },
        {
          "name": "D4",
          "midi": 62,
          "time": 69.81395348836661,
          "velocity": 0.30708661417322836,
          "duration": 0.023255813953483084
        },
        {
          "name": "F#4",
          "midi": 66,
          "time": 69.81395348836661,
          "velocity": 0.3779527559055118,
          "duration": 0.09302325581393234
        },
        {
          "name": "F5",
          "midi": 77,
          "time": 69.81395348836661,
          "velocity": 0.25196850393700787,
          "duration": 0.034883720930224626
        },
        {
          "name": "C#4",
          "midi": 61,
          "time": 69.83720930232009,
          "velocity": 0.41732283464566927,
          "duration": 0.0813953488371908
        },
        {
          "name": "A6",
          "midi": 93,
          "time": 69.83720930232009,
          "velocity": 0.18110236220472442,
          "duration": 0.034883720930224626
        },
        {
          "name": "E5",
          "midi": 76,
          "time": 69.84883720929683,
          "velocity": 0.1889763779527559,
          "duration": 0.034883720930224626
        },
        {
          "name": "F#5",
          "midi": 78,
          "time": 69.86046511627357,
          "velocity": 0.3779527559055118,
          "duration": 0.360465116279002
        },
        {
          "name": "A6",
          "midi": 93,
          "time": 69.88372093022706,
          "velocity": 0.12598425196850394,
          "duration": 0.034883720930224626
        },
        {
          "name": "D#7",
          "midi": 99,
          "time": 69.8953488372038,
          "velocity": 0.1889763779527559,
          "duration": 0.05813953488370771
        },
        {
          "name": "B6",
          "midi": 95,
          "time": 69.90697674418054,
          "velocity": 0.23622047244094488,
          "duration": 0.05813953488370771
        },
        {
          "name": "C#7",
          "midi": 97,
          "time": 69.90697674418054,
          "velocity": 0.14960629921259844,
          "duration": 0.06976744186044925
        },
        {
          "name": "G#5",
          "midi": 80,
          "time": 69.91860465115728,
          "velocity": 0.3937007874015748,
          "duration": 0.31395348837203585
        },
        {
          "name": "C#6",
          "midi": 85,
          "time": 69.91860465115728,
          "velocity": 0.3858267716535433,
          "duration": 0.29069767441855277
        },
        {
          "name": "C#4",
          "midi": 61,
          "time": 69.93023255813402,
          "velocity": 0.6220472440944882,
          "duration": 0.19767441860462043
        },
        {
          "name": "F6",
          "midi": 89,
          "time": 69.93023255813402,
          "velocity": 0.2440944881889764,
          "duration": 0.1627906976743958
        },
        {
          "name": "F#3",
          "midi": 54,
          "time": 69.9534883720875,
          "velocity": 0.11811023622047244,
          "duration": 0.034883720930224626
        },
        {
          "name": "A6",
          "midi": 93,
          "time": 69.9534883720875,
          "velocity": 0.15748031496062992,
          "duration": 0.13953488372091272
        },
        {
          "name": "D#6",
          "midi": 87,
          "time": 69.97674418604099,
          "velocity": 0.09448818897637795,
          "duration": 0.04651162790696617
        },
        {
          "name": "E6",
          "midi": 88,
          "time": 69.99999999999447,
          "velocity": 0.13385826771653545,
          "duration": 0.04651162790696617
        },
        {
          "name": "F#4",
          "midi": 66,
          "time": 70.01162790697121,
          "velocity": 0.2440944881889764,
          "duration": 0.09302325581394655
        },
        {
          "name": "B6",
          "midi": 95,
          "time": 70.0348837209247,
          "velocity": 0.14173228346456693,
          "duration": 0.04651162790698038
        },
        {
          "name": "D#5",
          "midi": 75,
          "time": 70.04651162790144,
          "velocity": 0.14173228346456693,
          "duration": 0.03488372093023884
        },
        {
          "name": "D7",
          "midi": 98,
          "time": 70.09302325580842,
          "velocity": 0.14173228346456693,
          "duration": 0.11627906976741542
        },
        {
          "name": "E5",
          "midi": 76,
          "time": 70.10465116278516,
          "velocity": 0.2204724409448819,
          "duration": 0.034883720930224626
        },
        {
          "name": "D#6",
          "midi": 87,
          "time": 70.10465116278516,
          "velocity": 0.3464566929133858,
          "duration": 0.26744186046505547
        },
        {
          "name": "A6",
          "midi": 93,
          "time": 70.10465116278516,
          "velocity": 0.2440944881889764,
          "duration": 0.04651162790696617
        },
        {
          "name": "B6",
          "midi": 95,
          "time": 70.10465116278516,
          "velocity": 0.2047244094488189,
          "duration": 0.05813953488370771
        },
        {
          "name": "D#5",
          "midi": 75,
          "time": 70.1162790697619,
          "velocity": 0.3700787401574803,
          "duration": 0.12790697674415696
        },
        {
          "name": "A5",
          "midi": 81,
          "time": 70.1162790697619,
          "velocity": 0.2440944881889764,
          "duration": 0.023255813953483084
        },
        {
          "name": "F6",
          "midi": 89,
          "time": 70.1162790697619,
          "velocity": 0.4015748031496063,
          "duration": 0.24418604651157239
        },
        {
          "name": "C#5",
          "midi": 73,
          "time": 70.12790697673864,
          "velocity": 0.4251968503937008,
          "duration": 0.11627906976741542
        },
        {
          "name": "D#4",
          "midi": 63,
          "time": 70.13953488371538,
          "velocity": 0.7007874015748031,
          "duration": 0.12790697674415696
        },
        {
          "name": "A#4",
          "midi": 70,
          "time": 70.16279069766887,
          "velocity": 0.3937007874015748,
          "duration": 0.10465116279067388
        },
        {
          "name": "C6",
          "midi": 84,
          "time": 70.18604651162235,
          "velocity": 0.47244094488188976,
          "duration": 0.3372093023255047
        },
        {
          "name": "B6",
          "midi": 95,
          "time": 70.20930232557583,
          "velocity": 0.2047244094488189,
          "duration": 0.10465116279067388
        },
        {
          "name": "F#7",
          "midi": 102,
          "time": 70.20930232557583,
          "velocity": 0.1732283464566929,
          "duration": 0.17441860465112313
        },
        {
          "name": "F#6",
          "midi": 90,
          "time": 70.22093023255258,
          "velocity": 0.13385826771653545,
          "duration": 0.10465116279067388
        },
        {
          "name": "D7",
          "midi": 98,
          "time": 70.22093023255258,
          "velocity": 0.2677165354330709,
          "duration": 0.04651162790696617
        },
        {
          "name": "F5",
          "midi": 77,
          "time": 70.23255813952932,
          "velocity": 0.5118110236220472,
          "duration": 0.11627906976741542
        },
        {
          "name": "G#5",
          "midi": 80,
          "time": 70.24418604650606,
          "velocity": 0.2755905511811024,
          "duration": 0.04651162790696617
        },
        {
          "name": "A6",
          "midi": 93,
          "time": 70.24418604650606,
          "velocity": 0.36220472440944884,
          "duration": 0.2209302325580893
        },
        {
          "name": "C#5",
          "midi": 73,
          "time": 70.2558139534828,
          "velocity": 0.3937007874015748,
          "duration": 0.04651162790696617
        },
        {
          "name": "A5",
          "midi": 81,
          "time": 70.2558139534828,
          "velocity": 0.29133858267716534,
          "duration": 0.023255813953483084
        },
        {
          "name": "F4",
          "midi": 65,
          "time": 70.26744186045954,
          "velocity": 0.5669291338582677,
          "duration": 0.04651162790696617
        },
        {
          "name": "B5",
          "midi": 83,
          "time": 70.26744186045954,
          "velocity": 0.25984251968503935,
          "duration": 0.034883720930224626
        },
        {
          "name": "A#5",
          "midi": 82,
          "time": 70.27906976743628,
          "velocity": 0.3700787401574803,
          "duration": 0.12790697674415696
        },
        {
          "name": "G7",
          "midi": 103,
          "time": 70.27906976743628,
          "velocity": 0.16535433070866143,
          "duration": 0.0813953488371908
        },
        {
          "name": "C5",
          "midi": 72,
          "time": 70.29069767441302,
          "velocity": 0.5275590551181102,
          "duration": 0.10465116279067388
        },
        {
          "name": "D7",
          "midi": 98,
          "time": 70.29069767441302,
          "velocity": 0.15748031496062992,
          "duration": 0.0813953488371908
        },
        {
          "name": "D#4",
          "midi": 63,
          "time": 70.30232558138977,
          "velocity": 0.41732283464566927,
          "duration": 0.04651162790696617
        },
        {
          "name": "G5",
          "midi": 79,
          "time": 70.30232558138977,
          "velocity": 0.10236220472440945,
          "duration": 0.034883720930224626
        },
        {
          "name": "G6",
          "midi": 91,
          "time": 70.30232558138977,
          "velocity": 0.2204724409448819,
          "duration": 0.09302325581393234
        },
        {
          "name": "F4",
          "midi": 65,
          "time": 70.33720930231999,
          "velocity": 0.7165354330708661,
          "duration": 0.4999999999998863
        },
        {
          "name": "C#6",
          "midi": 85,
          "time": 70.33720930231999,
          "velocity": 0.13385826771653545,
          "duration": 0.034883720930224626
        },
        {
          "name": "A4",
          "midi": 69,
          "time": 70.34883720929673,
          "velocity": 0.23622047244094488,
          "duration": 0.034883720930224626
        },
        {
          "name": "F#5",
          "midi": 78,
          "time": 70.34883720929673,
          "velocity": 0.4330708661417323,
          "duration": 0.05813953488370771
        },
        {
          "name": "G#5",
          "midi": 80,
          "time": 70.34883720929673,
          "velocity": 0.16535433070866143,
          "duration": 0.05813953488370771
        },
        {
          "name": "E6",
          "midi": 88,
          "time": 70.36046511627347,
          "velocity": 0.14960629921259844,
          "duration": 0.034883720930224626
        },
        {
          "name": "B6",
          "midi": 95,
          "time": 70.36046511627347,
          "velocity": 0.2047244094488189,
          "duration": 0.034883720930224626
        },
        {
          "name": "C#4",
          "midi": 61,
          "time": 70.37209302325022,
          "velocity": 0.31496062992125984,
          "duration": 0.04651162790696617
        },
        {
          "name": "B5",
          "midi": 83,
          "time": 70.37209302325022,
          "velocity": 0.18110236220472442,
          "duration": 0.034883720930224626
        },
        {
          "name": "F6",
          "midi": 89,
          "time": 70.37209302325022,
          "velocity": 0.30708661417322836,
          "duration": 0.0813953488371908
        },
        {
          "name": "A5",
          "midi": 81,
          "time": 70.38372093022696,
          "velocity": 0.33858267716535434,
          "duration": 0.09302325581393234
        },
        {
          "name": "C#6",
          "midi": 85,
          "time": 70.38372093022696,
          "velocity": 0.25984251968503935,
          "duration": 0.11627906976741542
        },
        {
          "name": "D7",
          "midi": 98,
          "time": 70.38372093022696,
          "velocity": 0.1889763779527559,
          "duration": 0.12790697674415696
        },
        {
          "name": "E7",
          "midi": 100,
          "time": 70.38372093022696,
          "velocity": 0.23622047244094488,
          "duration": 0.11627906976741542
        },
        {
          "name": "C5",
          "midi": 72,
          "time": 70.40697674418044,
          "velocity": 0.49606299212598426,
          "duration": 0.09302325581393234
        },
        {
          "name": "F#5",
          "midi": 78,
          "time": 70.41860465115718,
          "velocity": 0.33858267716535434,
          "duration": 0.06976744186044925
        },
        {
          "name": "G6",
          "midi": 91,
          "time": 70.41860465115718,
          "velocity": 0.18110236220472442,
          "duration": 0.09302325581393234
        },
        {
          "name": "G#6",
          "midi": 92,
          "time": 70.41860465115718,
          "velocity": 0.1732283464566929,
          "duration": 0.034883720930224626
        },
        {
          "name": "A#6",
          "midi": 94,
          "time": 70.41860465115718,
          "velocity": 0.28346456692913385,
          "duration": 0.24418604651157239
        },
        {
          "name": "D#6",
          "midi": 87,
          "time": 70.43023255813392,
          "velocity": 0.1968503937007874,
          "duration": 0.0813953488371908
        },
        {
          "name": "E6",
          "midi": 88,
          "time": 70.43023255813392,
          "velocity": 0.23622047244094488,
          "duration": 0.11627906976741542
        },
        {
          "name": "B6",
          "midi": 95,
          "time": 70.43023255813392,
          "velocity": 0.2047244094488189,
          "duration": 0.06976744186044925
        },
        {
          "name": "A#5",
          "midi": 82,
          "time": 70.44186046511066,
          "velocity": 0.41732283464566927,
          "duration": 0.1395348837208985
        },
        {
          "name": "F#7",
          "midi": 102,
          "time": 70.44186046511066,
          "velocity": 0.14960629921259844,
          "duration": 0.06976744186044925
        },
        {
          "name": "D#5",
          "midi": 75,
          "time": 70.4534883720874,
          "velocity": 0.1732283464566929,
          "duration": 0.034883720930224626
        },
        {
          "name": "G7",
          "midi": 103,
          "time": 70.4534883720874,
          "velocity": 0.18110236220472442,
          "duration": 0.04651162790696617
        },
        {
          "name": "C#4",
          "midi": 61,
          "time": 70.46511627906415,
          "velocity": 0.3464566929133858,
          "duration": 0.023255813953483084
        },
        {
          "name": "A#4",
          "midi": 70,
          "time": 70.46511627906415,
          "velocity": 0.29133858267716534,
          "duration": 0.023255813953483084
        },
        {
          "name": "F6",
          "midi": 89,
          "time": 70.46511627906415,
          "velocity": 0.25196850393700787,
          "duration": 0.10465116279067388
        },
        {
          "name": "G#6",
          "midi": 92,
          "time": 70.46511627906415,
          "velocity": 0.25984251968503935,
          "duration": 0.04651162790696617
        },
        {
          "name": "A6",
          "midi": 93,
          "time": 70.47674418604089,
          "velocity": 0.23622047244094488,
          "duration": 0.3023255813952801
        },
        {
          "name": "A5",
          "midi": 81,
          "time": 70.48837209301763,
          "velocity": 0.29133858267716534,
          "duration": 0.034883720930224626
        },
        {
          "name": "D#5",
          "midi": 75,
          "time": 70.49999999999437,
          "velocity": 0.1889763779527559,
          "duration": 0.04651162790696617
        },
        {
          "name": "A#4",
          "midi": 70,
          "time": 70.51162790697111,
          "velocity": 0.2992125984251969,
          "duration": 0.05813953488370771
        },
        {
          "name": "C5",
          "midi": 72,
          "time": 70.51162790697111,
          "velocity": 0.2204724409448819,
          "duration": 0.04651162790696617
        },
        {
          "name": "G#5",
          "midi": 80,
          "time": 70.51162790697111,
          "velocity": 0.2283464566929134,
          "duration": 0.10465116279067388
        },
        {
          "name": "C#6",
          "midi": 85,
          "time": 70.51162790697111,
          "velocity": 0.13385826771653545,
          "duration": 0.06976744186044925
        },
        {
          "name": "F#6",
          "midi": 90,
          "time": 70.51162790697111,
          "velocity": 0.14960629921259844,
          "duration": 0.034883720930224626
        },
        {
          "name": "B6",
          "midi": 95,
          "time": 70.51162790697111,
          "velocity": 0.2677165354330709,
          "duration": 0.47674418604640323
        },
        {
          "name": "G6",
          "midi": 91,
          "time": 70.52325581394786,
          "velocity": 0.25984251968503935,
          "duration": 0.12790697674415696
        },
        {
          "name": "C#4",
          "midi": 61,
          "time": 70.5348837209246,
          "velocity": 0.3228346456692913,
          "duration": 0.04651162790696617
        },
        {
          "name": "C6",
          "midi": 84,
          "time": 70.5348837209246,
          "velocity": 0.31496062992125984,
          "duration": 0.3023255813952801
        },
        {
          "name": "D7",
          "midi": 98,
          "time": 70.54651162790134,
          "velocity": 0.1732283464566929,
          "duration": 0.15116279069764005
        },
        {
          "name": "D#7",
          "midi": 99,
          "time": 70.54651162790134,
          "velocity": 0.11811023622047244,
          "duration": 0.04651162790696617
        },
        {
          "name": "E7",
          "midi": 100,
          "time": 70.54651162790134,
          "velocity": 0.16535433070866143,
          "duration": 0.09302325581393234
        },
        {
          "name": "F#7",
          "midi": 102,
          "time": 70.54651162790134,
          "velocity": 0.1732283464566929,
          "duration": 0.0813953488371908
        },
        {
          "name": "D#5",
          "midi": 75,
          "time": 70.55813953487808,
          "velocity": 0.31496062992125984,
          "duration": 0.10465116279067388
        },
        {
          "name": "G#4",
          "midi": 68,
          "time": 70.56976744185482,
          "velocity": 0.2125984251968504,
          "duration": 0.05813953488370771
        },
        {
          "name": "F#6",
          "midi": 90,
          "time": 70.56976744185482,
          "velocity": 0.1889763779527559,
          "duration": 0.11627906976741542
        },
        {
          "name": "C#5",
          "midi": 73,
          "time": 70.58139534883156,
          "velocity": 0.3543307086614173,
          "duration": 0.034883720930224626
        },
        {
          "name": "F6",
          "midi": 89,
          "time": 70.58139534883156,
          "velocity": 0.2992125984251969,
          "duration": 0.2209302325580893
        },
        {
          "name": "C#4",
          "midi": 61,
          "time": 70.5930232558083,
          "velocity": 0.2047244094488189,
          "duration": 0.04651162790696617
        },
        {
          "name": "C5",
          "midi": 72,
          "time": 70.61627906976179,
          "velocity": 0.33858267716535434,
          "duration": 0.05813953488370771
        },
        {
          "name": "A5",
          "midi": 81,
          "time": 70.61627906976179,
          "velocity": 0.16535433070866143,
          "duration": 0.10465116279067388
        },
        {
          "name": "E6",
          "midi": 88,
          "time": 70.65116279069201,
          "velocity": 0.10236220472440945,
          "duration": 0.034883720930224626
        },
        {
          "name": "G#6",
          "midi": 92,
          "time": 70.65116279069201,
          "velocity": 0.30708661417322836,
          "duration": 0.3604651162789878
        },
        {
          "name": "D#7",
          "midi": 99,
          "time": 70.65116279069201,
          "velocity": 0.2047244094488189,
          "duration": 0.034883720930224626
        },
        {
          "name": "E5",
          "midi": 76,
          "time": 70.66279069766875,
          "velocity": 0.23622047244094488,
          "duration": 0.023255813953483084
        },
        {
          "name": "C#7",
          "midi": 97,
          "time": 70.66279069766875,
          "velocity": 0.14173228346456693,
          "duration": 0.10465116279067388
        },
        {
          "name": "F3",
          "midi": 53,
          "time": 70.6744186046455,
          "velocity": 0.1732283464566929,
          "duration": 0.034883720930224626
        },
        {
          "name": "G6",
          "midi": 91,
          "time": 70.6744186046455,
          "velocity": 0.29133858267716534,
          "duration": 0.12790697674415696
        },
        {
          "name": "A#6",
          "midi": 94,
          "time": 70.6744186046455,
          "velocity": 0.2125984251968504,
          "duration": 0.1627906976743816
        },
        {
          "name": "C#4",
          "midi": 61,
          "time": 70.68604651162224,
          "velocity": 0.2047244094488189,
          "duration": 0.0813953488371908
        },
        {
          "name": "C5",
          "midi": 72,
          "time": 70.68604651162224,
          "velocity": 0.2755905511811024,
          "duration": 0.034883720930224626
        },
        {
          "name": "C#5",
          "midi": 73,
          "time": 70.68604651162224,
          "velocity": 0.29133858267716534,
          "duration": 0.023255813953483084
        },
        {
          "name": "B5",
          "midi": 83,
          "time": 70.68604651162224,
          "velocity": 0.11811023622047244,
          "duration": 0.034883720930224626
        },
        {
          "name": "D#6",
          "midi": 87,
          "time": 70.68604651162224,
          "velocity": 0.2125984251968504,
          "duration": 0.04651162790696617
        },
        {
          "name": "C7",
          "midi": 96,
          "time": 70.70930232557572,
          "velocity": 0.33070866141732286,
          "duration": 0.29069767441853855
        },
        {
          "name": "A#5",
          "midi": 82,
          "time": 70.72093023255246,
          "velocity": 0.25196850393700787,
          "duration": 0.15116279069764005
        },
        {
          "name": "D6",
          "midi": 86,
          "time": 70.72093023255246,
          "velocity": 0.10236220472440945,
          "duration": 0.034883720930224626
        },
        {
          "name": "D7",
          "midi": 98,
          "time": 70.72093023255246,
          "velocity": 0.1889763779527559,
          "duration": 0.09302325581393234
        },
        {
          "name": "C#5",
          "midi": 73,
          "time": 70.7325581395292,
          "velocity": 0.30708661417322836,
          "duration": 0.0813953488371908
        },
        {
          "name": "D#6",
          "midi": 87,
          "time": 70.74418604650594,
          "velocity": 0.23622047244094488,
          "duration": 0.37209302325572935
        },
        {
          "name": "D#5",
          "midi": 75,
          "time": 70.75581395348269,
          "velocity": 0.1968503937007874,
          "duration": 0.04651162790696617
        },
        {
          "name": "G#5",
          "midi": 80,
          "time": 70.75581395348269,
          "velocity": 0.4409448818897638,
          "duration": 0.12790697674415696
        },
        {
          "name": "E7",
          "midi": 100,
          "time": 70.75581395348269,
          "velocity": 0.14960629921259844,
          "duration": 0.05813953488370771
        },
        {
          "name": "F3",
          "midi": 53,
          "time": 70.76744186045943,
          "velocity": 0.1732283464566929,
          "duration": 0.034883720930224626
        },
        {
          "name": "A#4",
          "midi": 70,
          "time": 70.76744186045943,
          "velocity": 0.25984251968503935,
          "duration": 0.023255813953483084
        },
        {
          "name": "F#7",
          "midi": 102,
          "time": 70.76744186045943,
          "velocity": 0.1968503937007874,
          "duration": 0.034883720930224626
        },
        {
          "name": "F#6",
          "midi": 90,
          "time": 70.77906976743617,
          "velocity": 0.10236220472440945,
          "duration": 0.034883720930224626
        },
        {
          "name": "C#7",
          "midi": 97,
          "time": 70.77906976743617,
          "velocity": 0.28346456692913385,
          "duration": 0.5348837209301109
        },
        {
          "name": "G#4",
          "midi": 68,
          "time": 70.79069767441291,
          "velocity": 0.25196850393700787,
          "duration": 0.0813953488371908
        },
        {
          "name": "A6",
          "midi": 93,
          "time": 70.79069767441291,
          "velocity": 0.3700787401574803,
          "duration": 0.3604651162789878
        },
        {
          "name": "E6",
          "midi": 88,
          "time": 70.80232558138965,
          "velocity": 0.2204724409448819,
          "duration": 0.10465116279067388
        },
        {
          "name": "C5",
          "midi": 72,
          "time": 70.8139534883664,
          "velocity": 0.14960629921259844,
          "duration": 0.04651162790696617
        },
        {
          "name": "G6",
          "midi": 91,
          "time": 70.8139534883664,
          "velocity": 0.23622047244094488,
          "duration": 0.023255813953483084
        },
        {
          "name": "D#5",
          "midi": 75,
          "time": 70.82558139534314,
          "velocity": 0.18110236220472442,
          "duration": 0.04651162790696617
        },
        {
          "name": "D#4",
          "midi": 63,
          "time": 70.84883720929662,
          "velocity": 0.33070866141732286,
          "duration": 0.034883720930224626
        },
        {
          "name": "F4",
          "midi": 65,
          "time": 70.84883720929662,
          "velocity": 0.41732283464566927,
          "duration": 0.034883720930224626
        },
        {
          "name": "D5",
          "midi": 74,
          "time": 70.86046511627336,
          "velocity": 0.30708661417322836,
          "duration": 0.034883720930224626
        },
        {
          "name": "C6",
          "midi": 84,
          "time": 70.86046511627336,
          "velocity": 0.5039370078740157,
          "duration": 0.6395348837207848
        },
        {
          "name": "G6",
          "midi": 91,
          "time": 70.8720930232501,
          "velocity": 0.12598425196850394,
          "duration": 0.05813953488370771
        },
        {
          "name": "E7",
          "midi": 100,
          "time": 70.8720930232501,
          "velocity": 0.25984251968503935,
          "duration": 0.06976744186044925
        },
        {
          "name": "F#7",
          "midi": 102,
          "time": 70.8720930232501,
          "velocity": 0.2125984251968504,
          "duration": 0.09302325581393234
        },
        {
          "name": "G7",
          "midi": 103,
          "time": 70.8720930232501,
          "velocity": 0.25196850393700787,
          "duration": 0.2558139534883139
        },
        {
          "name": "F#4",
          "midi": 66,
          "time": 70.88372093022684,
          "velocity": 0.5354330708661418,
          "duration": 0.023255813953483084
        },
        {
          "name": "F#3",
          "midi": 54,
          "time": 70.89534883720358,
          "velocity": 0.15748031496062992,
          "duration": 0.034883720930224626
        },
        {
          "name": "C#5",
          "midi": 73,
          "time": 70.89534883720358,
          "velocity": 0.4645669291338583,
          "duration": 0.06976744186044925
        },
        {
          "name": "G#5",
          "midi": 80,
          "time": 70.89534883720358,
          "velocity": 0.3700787401574803,
          "duration": 0.05813953488370771
        },
        {
          "name": "F4",
          "midi": 65,
          "time": 70.90697674418033,
          "velocity": 0.7322834645669292,
          "duration": 0.17441860465112313
        },
        {
          "name": "G#4",
          "midi": 68,
          "time": 70.90697674418033,
          "velocity": 0.33070866141732286,
          "duration": 0.04651162790696617
        },
        {
          "name": "E6",
          "midi": 88,
          "time": 70.91860465115707,
          "velocity": 0.2677165354330709,
          "duration": 0.2209302325580893
        },
        {
          "name": "A#5",
          "midi": 82,
          "time": 70.93023255813381,
          "velocity": 0.15748031496062992,
          "duration": 0.0813953488371908
        },
        {
          "name": "D6",
          "midi": 86,
          "time": 70.93023255813381,
          "velocity": 0.2125984251968504,
          "duration": 0.034883720930224626
        },
        {
          "name": "G3",
          "midi": 55,
          "time": 70.94186046511055,
          "velocity": 0.15748031496062992,
          "duration": 0.034883720930224626
        },
        {
          "name": "G6",
          "midi": 91,
          "time": 70.94186046511055,
          "velocity": 0.2440944881889764,
          "duration": 0.17441860465112313
        },
        {
          "name": "C5",
          "midi": 72,
          "time": 70.95348837208729,
          "velocity": 0.5433070866141733,
          "duration": 0.09302325581393234
        },
        {
          "name": "F#7",
          "midi": 102,
          "time": 70.97674418604078,
          "velocity": 0.2047244094488189,
          "duration": 0.1627906976743816
        },
        {
          "name": "A#6",
          "midi": 94,
          "time": 70.98837209301752,
          "velocity": 0.4094488188976378,
          "duration": 0.24418604651157239
        },
        {
          "name": "D5",
          "midi": 74,
          "time": 70.99999999999426,
          "velocity": 0.2755905511811024,
          "duration": 0.034883720930224626
        },
        {
          "name": "G#5",
          "midi": 80,
          "time": 70.99999999999426,
          "velocity": 0.25196850393700787,
          "duration": 0.06976744186044925
        },
        {
          "name": "C#4",
          "midi": 61,
          "time": 71.011627906971,
          "velocity": 0.10236220472440945,
          "duration": 0.034883720930224626
        },
        {
          "name": "A5",
          "midi": 81,
          "time": 71.02325581394774,
          "velocity": 0.25984251968503935,
          "duration": 0.06976744186044925
        },
        {
          "name": "B6",
          "midi": 95,
          "time": 71.02325581394774,
          "velocity": 0.18110236220472442,
          "duration": 0.034883720930224626
        },
        {
          "name": "G3",
          "midi": 55,
          "time": 71.03488372092448,
          "velocity": 0.11811023622047244,
          "duration": 0.034883720930224626
        },
        {
          "name": "D6",
          "midi": 86,
          "time": 71.04651162790122,
          "velocity": 0.14960629921259844,
          "duration": 0.09302325581393234
        },
        {
          "name": "G#4",
          "midi": 68,
          "time": 71.05813953487797,
          "velocity": 0.33070866141732286,
          "duration": 0.04651162790696617
        },
        {
          "name": "C5",
          "midi": 72,
          "time": 71.05813953487797,
          "velocity": 0.4881889763779528,
          "duration": 0.09302325581393234
        },
        {
          "name": "G#5",
          "midi": 80,
          "time": 71.08139534883145,
          "velocity": 0.4330708661417323,
          "duration": 0.2558139534883139
        },
        {
          "name": "B6",
          "midi": 95,
          "time": 71.08139534883145,
          "velocity": 0.3779527559055118,
          "duration": 0.17441860465112313
        },
        {
          "name": "F4",
          "midi": 65,
          "time": 71.09302325580819,
          "velocity": 0.4566929133858268,
          "duration": 0.10465116279067388
        },
        {
          "name": "F#3",
          "midi": 54,
          "time": 71.10465116278493,
          "velocity": 0.2204724409448819,
          "duration": 0.04651162790696617
        },
        {
          "name": "D#5",
          "midi": 75,
          "time": 71.11627906976167,
          "velocity": 0.11023622047244094,
          "duration": 0.04651162790696617
        },
        {
          "name": "B5",
          "midi": 83,
          "time": 71.12790697673842,
          "velocity": 0.11023622047244094,
          "duration": 0.034883720930224626
        },
        {
          "name": "F#6",
          "midi": 90,
          "time": 71.12790697673842,
          "velocity": 0.18110236220472442,
          "duration": 0.05813953488370771
        },
        {
          "name": "G6",
          "midi": 91,
          "time": 71.12790697673842,
          "velocity": 0.09448818897637795,
          "duration": 0.04651162790696617
        },
        {
          "name": "G#4",
          "midi": 68,
          "time": 71.13953488371516,
          "velocity": 0.23622047244094488,
          "duration": 0.05813953488370771
        },
        {
          "name": "C#5",
          "midi": 73,
          "time": 71.13953488371516,
          "velocity": 0.15748031496062992,
          "duration": 0.034883720930224626
        },
        {
          "name": "D#6",
          "midi": 87,
          "time": 71.16279069766864,
          "velocity": 0.07874015748031496,
          "duration": 0.06976744186044925
        },
        {
          "name": "F3",
          "midi": 53,
          "time": 71.17441860464538,
          "velocity": 0.2047244094488189,
          "duration": 0.034883720930224626
        },
        {
          "name": "C5",
          "midi": 72,
          "time": 71.17441860464538,
          "velocity": 0.2992125984251969,
          "duration": 0.06976744186044925
        },
        {
          "name": "A#5",
          "midi": 82,
          "time": 71.17441860464538,
          "velocity": 0.14173228346456693,
          "duration": 0.06976744186044925
        },
        {
          "name": "G4",
          "midi": 67,
          "time": 71.19767441859887,
          "velocity": 0.3858267716535433,
          "duration": 0.034883720930224626
        },
        {
          "name": "F#6",
          "midi": 90,
          "time": 71.19767441859887,
          "velocity": 0.16535433070866143,
          "duration": 0.034883720930224626
        },
        {
          "name": "E7",
          "midi": 100,
          "time": 71.19767441859887,
          "velocity": 0.2992125984251969,
          "duration": 0.6162790697673017
        },
        {
          "name": "D7",
          "midi": 98,
          "time": 71.2093023255756,
          "velocity": 0.14960629921259844,
          "duration": 0.05813953488370771
        },
        {
          "name": "D#7",
          "midi": 99,
          "time": 71.2093023255756,
          "velocity": 0.12598425196850394,
          "duration": 0.04651162790696617
        },
        {
          "name": "G6",
          "midi": 91,
          "time": 71.22093023255235,
          "velocity": 0.1732283464566929,
          "duration": 0.12790697674415696
        },
        {
          "name": "A6",
          "midi": 93,
          "time": 71.22093023255235,
          "velocity": 0.2125984251968504,
          "duration": 0.15116279069764005
        },
        {
          "name": "F4",
          "midi": 65,
          "time": 71.23255813952909,
          "velocity": 0.7322834645669292,
          "duration": 0.2209302325580893
        },
        {
          "name": "C#5",
          "midi": 73,
          "time": 71.23255813952909,
          "velocity": 0.23622047244094488,
          "duration": 0.023255813953483084
        },
        {
          "name": "G#4",
          "midi": 68,
          "time": 71.24418604650583,
          "velocity": 0.4330708661417323,
          "duration": 0.10465116279067388
        },
        {
          "name": "D#5",
          "midi": 75,
          "time": 71.24418604650583,
          "velocity": 0.14173228346456693,
          "duration": 0.04651162790696617
        },
        {
          "name": "A#6",
          "midi": 94,
          "time": 71.24418604650583,
          "velocity": 0.2992125984251969,
          "duration": 0.023255813953483084
        },
        {
          "name": "B3",
          "midi": 59,
          "time": 71.25581395348257,
          "velocity": 0.14173228346456693,
          "duration": 0.034883720930224626
        },
        {
          "name": "C5",
          "midi": 72,
          "time": 71.25581395348257,
          "velocity": 0.30708661417322836,
          "duration": 0.1627906976743816
        },
        {
          "name": "A5",
          "midi": 81,
          "time": 71.25581395348257,
          "velocity": 0.14173228346456693,
          "duration": 0.034883720930224626
        },
        {
          "name": "D#6",
          "midi": 87,
          "time": 71.25581395348257,
          "velocity": 0.2047244094488189,
          "duration": 0.09302325581393234
        },
        {
          "name": "B6",
          "midi": 95,
          "time": 71.26744186045931,
          "velocity": 0.30708661417322836,
          "duration": 0.11627906976741542
        },
        {
          "name": "D7",
          "midi": 98,
          "time": 71.27906976743606,
          "velocity": 0.2283464566929134,
          "duration": 0.09302325581393234
        },
        {
          "name": "D#7",
          "midi": 99,
          "time": 71.2906976744128,
          "velocity": 0.33070866141732286,
          "duration": 0.47674418604640323
        },
        {
          "name": "A5",
          "midi": 81,
          "time": 71.30232558138954,
          "velocity": 0.13385826771653545,
          "duration": 0.04651162790696617
        },
        {
          "name": "G7",
          "midi": 103,
          "time": 71.30232558138954,
          "velocity": 0.1732283464566929,
          "duration": 0.034883720930224626
        },
        {
          "name": "E6",
          "midi": 88,
          "time": 71.31395348836628,
          "velocity": 0.14173228346456693,
          "duration": 0.034883720930224626
        },
        {
          "name": "F#6",
          "midi": 90,
          "time": 71.31395348836628,
          "velocity": 0.14960629921259844,
          "duration": 0.034883720930224626
        },
        {
          "name": "D#5",
          "midi": 75,
          "time": 71.32558139534302,
          "velocity": 0.1889763779527559,
          "duration": 0.034883720930224626
        },
        {
          "name": "B5",
          "midi": 83,
          "time": 71.32558139534302,
          "velocity": 0.11023622047244094,
          "duration": 0.034883720930224626
        },
        {
          "name": "A#6",
          "midi": 94,
          "time": 71.32558139534302,
          "velocity": 0.07086614173228346,
          "duration": 0.04651162790696617
        },
        {
          "name": "C#7",
          "midi": 97,
          "time": 71.32558139534302,
          "velocity": 0.4094488188976378,
          "duration": 0.3837209302324709
        },
        {
          "name": "G#5",
          "midi": 80,
          "time": 71.3488372092965,
          "velocity": 0.41732283464566927,
          "duration": 0.2209302325580893
        },
        {
          "name": "E6",
          "midi": 88,
          "time": 71.39534883720347,
          "velocity": 0.14960629921259844,
          "duration": 0.04651162790696617
        },
        {
          "name": "F#6",
          "midi": 90,
          "time": 71.39534883720347,
          "velocity": 0.2283464566929134,
          "duration": 0.06976744186044925
        },
        {
          "name": "D7",
          "midi": 98,
          "time": 71.40697674418021,
          "velocity": 0.29133858267716534,
          "duration": 0.3255813953487632
        },
        {
          "name": "A3",
          "midi": 57,
          "time": 71.41860465115695,
          "velocity": 0.2047244094488189,
          "duration": 0.034883720930224626
        },
        {
          "name": "A4",
          "midi": 69,
          "time": 71.41860465115695,
          "velocity": 0.3937007874015748,
          "duration": 0.023255813953483084
        },
        {
          "name": "C#5",
          "midi": 73,
          "time": 71.41860465115695,
          "velocity": 0.5118110236220472,
          "duration": 0.43023255813943706
        },
        {
          "name": "F#5",
          "midi": 78,
          "time": 71.41860465115695,
          "velocity": 0.29133858267716534,
          "duration": 0.023255813953483084
        },
        {
          "name": "C#6",
          "midi": 85,
          "time": 71.41860465115695,
          "velocity": 0.5433070866141733,
          "duration": 0.3372093023255047
        },
        {
          "name": "D#6",
          "midi": 87,
          "time": 71.41860465115695,
          "velocity": 0.2992125984251969,
          "duration": 0.5813953488370771
        },
        {
          "name": "G6",
          "midi": 91,
          "time": 71.41860465115695,
          "velocity": 0.15748031496062992,
          "duration": 0.05813953488370771
        },
        {
          "name": "F7",
          "midi": 101,
          "time": 71.41860465115695,
          "velocity": 0.2204724409448819,
          "duration": 0.1627906976743816
        },
        {
          "name": "G7",
          "midi": 103,
          "time": 71.41860465115695,
          "velocity": 0.1889763779527559,
          "duration": 0.1627906976743816
        },
        {
          "name": "A#6",
          "midi": 94,
          "time": 71.4302325581337,
          "velocity": 0.23622047244094488,
          "duration": 0.15116279069764005
        },
        {
          "name": "B6",
          "midi": 95,
          "time": 71.4302325581337,
          "velocity": 0.09448818897637795,
          "duration": 0.04651162790696617
        },
        {
          "name": "A#5",
          "midi": 82,
          "time": 71.44186046511044,
          "velocity": 0.2204724409448819,
          "duration": 0.034883720930224626
        },
        {
          "name": "F#4",
          "midi": 66,
          "time": 71.45348837208718,
          "velocity": 0.5826771653543307,
          "duration": 0.034883720930224626
        },
        {
          "name": "E6",
          "midi": 88,
          "time": 71.45348837208718,
          "velocity": 0.16535433070866143,
          "duration": 0.0813953488371908
        },
        {
          "name": "A6",
          "midi": 93,
          "time": 71.46511627906392,
          "velocity": 0.1889763779527559,
          "duration": 0.04651162790696617
        },
        {
          "name": "F#4",
          "midi": 66,
          "time": 71.49999999999415,
          "velocity": 0.6220472440944882,
          "duration": 0.023255813953483084
        },
        {
          "name": "A#5",
          "midi": 82,
          "time": 71.49999999999415,
          "velocity": 0.33858267716535434,
          "duration": 0.0813953488371908
        },
        {
          "name": "B6",
          "midi": 95,
          "time": 71.49999999999415,
          "velocity": 0.16535433070866143,
          "duration": 0.06976744186044925
        },
        {
          "name": "E5",
          "midi": 76,
          "time": 71.51162790697089,
          "velocity": 0.2677165354330709,
          "duration": 0.05813953488370771
        },
        {
          "name": "F4",
          "midi": 65,
          "time": 71.52325581394763,
          "velocity": 0.5433070866141733,
          "duration": 0.23255813953483084
        },
        {
          "name": "D6",
          "midi": 86,
          "time": 71.52325581394763,
          "velocity": 0.2755905511811024,
          "duration": 0.04651162790696617
        },
        {
          "name": "F6",
          "midi": 89,
          "time": 71.52325581394763,
          "velocity": 0.28346456692913385,
          "duration": 0.05813953488370771
        },
        {
          "name": "G6",
          "midi": 91,
          "time": 71.52325581394763,
          "velocity": 0.13385826771653545,
          "duration": 0.04651162790696617
        },
        {
          "name": "A6",
          "midi": 93,
          "time": 71.52325581394763,
          "velocity": 0.14173228346456693,
          "duration": 0.034883720930224626
        },
        {
          "name": "C#4",
          "midi": 61,
          "time": 71.53488372092437,
          "velocity": 0.5669291338582677,
          "duration": 0.3255813953487632
        },
        {
          "name": "B5",
          "midi": 83,
          "time": 71.53488372092437,
          "velocity": 0.25196850393700787,
          "duration": 0.023255813953483084
        },
        {
          "name": "G#4",
          "midi": 68,
          "time": 71.54651162790111,
          "velocity": 0.4566929133858268,
          "duration": 0.17441860465112313
        },
        {
          "name": "C7",
          "midi": 96,
          "time": 71.54651162790111,
          "velocity": 0.10236220472440945,
          "duration": 0.04651162790696617
        },
        {
          "name": "G5",
          "midi": 79,
          "time": 71.55813953487785,
          "velocity": 0.3543307086614173,
          "duration": 0.023255813953483084
        },
        {
          "name": "G6",
          "midi": 91,
          "time": 71.59302325580808,
          "velocity": 0.11811023622047244,
          "duration": 0.034883720930224626
        },
        {
          "name": "A6",
          "midi": 93,
          "time": 71.59302325580808,
          "velocity": 0.12598425196850394,
          "duration": 0.05813953488370771
        },
        {
          "name": "A#6",
          "midi": 94,
          "time": 71.60465116278482,
          "velocity": 0.08661417322834646,
          "duration": 0.04651162790696617
        },
        {
          "name": "C6",
          "midi": 84,
          "time": 71.61627906976156,
          "velocity": 0.2755905511811024,
          "duration": 0.034883720930224626
        },
        {
          "name": "G7",
          "midi": 103,
          "time": 71.6279069767383,
          "velocity": 0.16535433070866143,
          "duration": 0.034883720930224626
        },
        {
          "name": "D#5",
          "midi": 75,
          "time": 71.63953488371504,
          "velocity": 0.2283464566929134,
          "duration": 0.04651162790696617
        },
        {
          "name": "D6",
          "midi": 86,
          "time": 71.66279069766853,
          "velocity": 0.11023622047244094,
          "duration": 0.04651162790696617
        },
        {
          "name": "C6",
          "midi": 84,
          "time": 71.67441860464527,
          "velocity": 0.33858267716535434,
          "duration": 0.31395348837202164
        },
        {
          "name": "G6",
          "midi": 91,
          "time": 71.69767441859875,
          "velocity": 0.10236220472440945,
          "duration": 0.034883720930224626
        },
        {
          "name": "G5",
          "midi": 79,
          "time": 71.73255813952898,
          "velocity": 0.23622047244094488,
          "duration": 0.023255813953483084
        },
        {
          "name": "F#7",
          "midi": 102,
          "time": 71.73255813952898,
          "velocity": 0.11811023622047244,
          "duration": 0.04651162790696617
        },
        {
          "name": "A4",
          "midi": 69,
          "time": 71.74418604650572,
          "velocity": 0.3858267716535433,
          "duration": 0.06976744186044925
        },
        {
          "name": "A6",
          "midi": 93,
          "time": 71.74418604650572,
          "velocity": 0.15748031496062992,
          "duration": 0.034883720930224626
        },
        {
          "name": "A#6",
          "midi": 94,
          "time": 71.74418604650572,
          "velocity": 0.1732283464566929,
          "duration": 0.04651162790696617
        },
        {
          "name": "D7",
          "midi": 98,
          "time": 71.74418604650572,
          "velocity": 0.11023622047244094,
          "duration": 0.0813953488371908
        },
        {
          "name": "F#4",
          "midi": 66,
          "time": 71.75581395348246,
          "velocity": 0.25196850393700787,
          "duration": 0.023255813953483084
        },
        {
          "name": "G3",
          "midi": 55,
          "time": 71.79069767441268,
          "velocity": 0.16535433070866143,
          "duration": 0.034883720930224626
        },
        {
          "name": "F4",
          "midi": 65,
          "time": 71.79069767441268,
          "velocity": 0.25196850393700787,
          "duration": 0.05813953488370771
        },
        {
          "name": "G#4",
          "midi": 68,
          "time": 71.80232558138943,
          "velocity": 0.23622047244094488,
          "duration": 0.05813953488370771
        },
        {
          "name": "F#6",
          "midi": 90,
          "time": 71.80232558138943,
          "velocity": 0.2204724409448819,
          "duration": 0.05813953488370771
        },
        {
          "name": "F#5",
          "midi": 78,
          "time": 71.81395348836617,
          "velocity": 0.3858267716535433,
          "duration": 0.05813953488370771
        },
        {
          "name": "G6",
          "midi": 91,
          "time": 71.81395348836617,
          "velocity": 0.08661417322834646,
          "duration": 0.034883720930224626
        },
        {
          "name": "D7",
          "midi": 98,
          "time": 71.83720930231965,
          "velocity": 0.25984251968503935,
          "duration": 0.15116279069764005
        },
        {
          "name": "E7",
          "midi": 100,
          "time": 71.83720930231965,
          "velocity": 0.2992125984251969,
          "duration": 0.12790697674415696
        },
        {
          "name": "E6",
          "midi": 88,
          "time": 71.84883720929639,
          "velocity": 0.29133858267716534,
          "duration": 0.09302325581393234
        },
        {
          "name": "A6",
          "midi": 93,
          "time": 71.84883720929639,
          "velocity": 0.2283464566929134,
          "duration": 0.04651162790696617
        },
        {
          "name": "A#6",
          "midi": 94,
          "time": 71.84883720929639,
          "velocity": 0.33858267716535434,
          "duration": 0.11627906976741542
        },
        {
          "name": "C#7",
          "midi": 97,
          "time": 71.84883720929639,
          "velocity": 0.3228346456692913,
          "duration": 0.1395348837208985
        },
        {
          "name": "F#7",
          "midi": 102,
          "time": 71.84883720929639,
          "velocity": 0.2204724409448819,
          "duration": 0.09302325581393234
        },
        {
          "name": "E4",
          "midi": 64,
          "time": 71.86046511627313,
          "velocity": 0.4094488188976378,
          "duration": 0.023255813953483084
        },
        {
          "name": "A4",
          "midi": 69,
          "time": 71.86046511627313,
          "velocity": 0.23622047244094488,
          "duration": 0.023255813953483084
        },
        {
          "name": "B4",
          "midi": 71,
          "time": 71.86046511627313,
          "velocity": 0.2047244094488189,
          "duration": 0.034883720930224626
        },
        {
          "name": "A#5",
          "midi": 82,
          "time": 71.86046511627313,
          "velocity": 0.25984251968503935,
          "duration": 0.034883720930224626
        },
        {
          "name": "B5",
          "midi": 83,
          "time": 71.86046511627313,
          "velocity": 0.2283464566929134,
          "duration": 0.04651162790696617
        },
        {
          "name": "D6",
          "midi": 86,
          "time": 71.86046511627313,
          "velocity": 0.3228346456692913,
          "duration": 0.05813953488370771
        },
        {
          "name": "F6",
          "midi": 89,
          "time": 71.86046511627313,
          "velocity": 0.2440944881889764,
          "duration": 0.15116279069764005
        },
        {
          "name": "G6",
          "midi": 91,
          "time": 71.86046511627313,
          "velocity": 0.33070866141732286,
          "duration": 0.0813953488371908
        },
        {
          "name": "B1",
          "midi": 35,
          "time": 71.87209302324987,
          "velocity": 0.5354330708661418,
          "duration": 0.011627906976741542
        },
        {
          "name": "F#6",
          "midi": 90,
          "time": 71.87209302324987,
          "velocity": 0.2440944881889764,
          "duration": 0.10465116279067388
        },
        {
          "name": "B6",
          "midi": 95,
          "time": 71.87209302324987,
          "velocity": 0.2992125984251969,
          "duration": 0.05813953488370771
        },
        {
          "name": "A#1",
          "midi": 34,
          "time": 71.88372093022662,
          "velocity": 0.5669291338582677,
          "duration": 0.011627906976741542
        },
        {
          "name": "D#3",
          "midi": 51,
          "time": 71.88372093022662,
          "velocity": 0.5196850393700787,
          "duration": 0.023255813953483084
        },
        {
          "name": "D#4",
          "midi": 63,
          "time": 71.88372093022662,
          "velocity": 0.6377952755905512,
          "duration": 0.48837209302314477
        },
        {
          "name": "C#5",
          "midi": 73,
          "time": 71.88372093022662,
          "velocity": 0.28346456692913385,
          "duration": 0.034883720930224626
        },
        {
          "name": "A1",
          "midi": 33,
          "time": 71.89534883720336,
          "velocity": 0.5748031496062992,
          "duration": 0.023255813953483084
        },
        {
          "name": "A#2",
          "midi": 46,
          "time": 71.9069767441801,
          "velocity": 0.5433070866141733,
          "duration": 0.011627906976741542
        },
        {
          "name": "A#5",
          "midi": 82,
          "time": 71.9069767441801,
          "velocity": 0.33858267716535434,
          "duration": 0.43023255813943706
        },
        {
          "name": "G#1",
          "midi": 32,
          "time": 71.91860465115684,
          "velocity": 0.5669291338582677,
          "duration": 0.011627906976741542
        },
        {
          "name": "A2",
          "midi": 45,
          "time": 71.91860465115684,
          "velocity": 0.5826771653543307,
          "duration": 0.011627906976741542
        },
        {
          "name": "A1",
          "midi": 33,
          "time": 71.93023255813358,
          "velocity": 0.5905511811023622,
          "duration": 0.011627906976741542
        },
        {
          "name": "C#5",
          "midi": 73,
          "time": 71.93023255813358,
          "velocity": 0.14173228346456693,
          "duration": 0.10465116279067388
        },
        {
          "name": "G1",
          "midi": 31,
          "time": 71.94186046511032,
          "velocity": 0.5511811023622047,
          "duration": 0.011627906976741542
        },
        {
          "name": "F2",
          "midi": 41,
          "time": 71.94186046511032,
          "velocity": 0.5433070866141733,
          "duration": 0.011627906976741542
        },
        {
          "name": "F#5",
          "midi": 78,
          "time": 71.94186046511032,
          "velocity": 0.14173228346456693,
          "duration": 0.05813953488370771
        },
        {
          "name": "A0",
          "midi": 21,
          "time": 71.95348837208707,
          "velocity": 0.5984251968503937,
          "duration": 0.011627906976741542
        },
        {
          "name": "G6",
          "midi": 91,
          "time": 71.95348837208707,
          "velocity": 0.2047244094488189,
          "duration": 0.3255813953487632
        },
        {
          "name": "B1",
          "midi": 35,
          "time": 71.9651162790638,
          "velocity": 0.6850393700787402,
          "duration": 0.011627906976741542
        },
        {
          "name": "G#4",
          "midi": 68,
          "time": 71.9651162790638,
          "velocity": 0.09448818897637795,
          "duration": 0.034883720930224626
        },
        {
          "name": "A#1",
          "midi": 34,
          "time": 71.97674418604055,
          "velocity": 0.6535433070866141,
          "duration": 0.023255813953483084
        },
        {
          "name": "F5",
          "midi": 77,
          "time": 71.99999999999403,
          "velocity": 0.14173228346456693,
          "duration": 0.034883720930224626
        },
        {
          "name": "D#1",
          "midi": 27,
          "time": 72.01162790697077,
          "velocity": 0.5275590551181102,
          "duration": 0.011627906976741542
        },
        {
          "name": "F#6",
          "midi": 90,
          "time": 72.01162790697077,
          "velocity": 0.15748031496062992,
          "duration": 0.05813953488370771
        },
        {
          "name": "G1",
          "midi": 31,
          "time": 72.02325581394751,
          "velocity": 0.5984251968503937,
          "duration": 0.011627906976741542
        },
        {
          "name": "G#5",
          "midi": 80,
          "time": 72.02325581394751,
          "velocity": 0.2125984251968504,
          "duration": 0.20930232558134776
        },
        {
          "name": "G#1",
          "midi": 32,
          "time": 72.03488372092426,
          "velocity": 0.6377952755905512,
          "duration": 0.011627906976741542
        },
        {
          "name": "A6",
          "midi": 93,
          "time": 72.03488372092426,
          "velocity": 0.07086614173228346,
          "duration": 0.10465116279067388
        },
        {
          "name": "A1",
          "midi": 33,
          "time": 72.046511627901,
          "velocity": 0.6377952755905512,
          "duration": 0.023255813953483084
        },
        {
          "name": "G3",
          "midi": 55,
          "time": 72.046511627901,
          "velocity": 0.2677165354330709,
          "duration": 0.023255813953483084
        },
        {
          "name": "B6",
          "midi": 95,
          "time": 72.046511627901,
          "velocity": 0.08661417322834646,
          "duration": 0.04651162790696617
        },
        {
          "name": "C6",
          "midi": 84,
          "time": 72.05813953487774,
          "velocity": 0.11811023622047244,
          "duration": 0.04651162790696617
        },
        {
          "name": "G#1",
          "midi": 32,
          "time": 72.06976744185448,
          "velocity": 0.5590551181102362,
          "duration": 0.011627906976741542
        },
        {
          "name": "F5",
          "midi": 77,
          "time": 72.06976744185448,
          "velocity": 0.11023622047244094,
          "duration": 0.09302325581393234
        },
        {
          "name": "C#6",
          "midi": 85,
          "time": 72.08139534883122,
          "velocity": 0.1889763779527559,
          "duration": 0.0813953488371908
        },
        {
          "name": "B5",
          "midi": 83,
          "time": 72.09302325580796,
          "velocity": 0.13385826771653545,
          "duration": 0.05813953488370771
        },
        {
          "name": "G#1",
          "midi": 32,
          "time": 72.11627906976145,
          "velocity": 0.5118110236220472,
          "duration": 0.023255813953483084
        },
        {
          "name": "G1",
          "midi": 31,
          "time": 72.13953488371493,
          "velocity": 0.5433070866141733,
          "duration": 0.011627906976741542
        },
        {
          "name": "A2",
          "midi": 45,
          "time": 72.13953488371493,
          "velocity": 0.28346456692913385,
          "duration": 0.023255813953483084
        },
        {
          "name": "F1",
          "midi": 29,
          "time": 72.15116279069167,
          "velocity": 0.5354330708661418,
          "duration": 0.011627906976741542
        },
        {
          "name": "C#5",
          "midi": 73,
          "time": 72.15116279069167,
          "velocity": 0.2283464566929134,
          "duration": 0.0813953488371908
        },
        {
          "name": "F#5",
          "midi": 78,
          "time": 72.15116279069167,
          "velocity": 0.12598425196850394,
          "duration": 0.04651162790696617
        },
        {
          "name": "C#6",
          "midi": 85,
          "time": 72.1860465116219,
          "velocity": 0.2283464566929134,
          "duration": 0.06976744186044925
        },
        {
          "name": "C3",
          "midi": 48,
          "time": 72.19767441859864,
          "velocity": 0.29133858267716534,
          "duration": 0.023255813953483084
        },
        {
          "name": "F1",
          "midi": 29,
          "time": 72.23255813952886,
          "velocity": 0.49606299212598426,
          "duration": 0.023255813953483084
        },
        {
          "name": "D#3",
          "midi": 51,
          "time": 72.23255813952886,
          "velocity": 0.18110236220472442,
          "duration": 0.034883720930224626
        },
        {
          "name": "D1",
          "midi": 26,
          "time": 72.25581395348235,
          "velocity": 0.5118110236220472,
          "duration": 0.023255813953483084
        },
        {
          "name": "E1",
          "midi": 28,
          "time": 72.27906976743583,
          "velocity": 0.5275590551181102,
          "duration": 0.011627906976741542
        },
        {
          "name": "G6",
          "midi": 91,
          "time": 72.31395348836605,
          "velocity": 0.1889763779527559,
          "duration": 0.04651162790696617
        },
        {
          "name": "E5",
          "midi": 76,
          "time": 72.33720930231954,
          "velocity": 0.4251968503937008,
          "duration": 0.05813953488370771
        },
        {
          "name": "B5",
          "midi": 83,
          "time": 72.33720930231954,
          "velocity": 0.4015748031496063,
          "duration": 0.05813953488370771
        },
        {
          "name": "E1",
          "midi": 28,
          "time": 72.34883720929628,
          "velocity": 0.5039370078740157,
          "duration": 0.023255813953483084
        },
        {
          "name": "C#6",
          "midi": 85,
          "time": 72.34883720929628,
          "velocity": 0.11811023622047244,
          "duration": 0.034883720930224626
        },
        {
          "name": "G#6",
          "midi": 92,
          "time": 72.36046511627302,
          "velocity": 0.12598425196850394,
          "duration": 0.034883720930224626
        },
        {
          "name": "E4",
          "midi": 64,
          "time": 72.37209302324976,
          "velocity": 0.5905511811023622,
          "duration": 0.034883720930224626
        },
        {
          "name": "A2",
          "midi": 45,
          "time": 72.39534883720324,
          "velocity": 0.29133858267716534,
          "duration": 0.023255813953483084
        },
        {
          "name": "F5",
          "midi": 77,
          "time": 72.39534883720324,
          "velocity": 0.3779527559055118,
          "duration": 0.05813953488370771
        },
        {
          "name": "C6",
          "midi": 84,
          "time": 72.39534883720324,
          "velocity": 0.3779527559055118,
          "duration": 0.04651162790696617
        },
        {
          "name": "F4",
          "midi": 65,
          "time": 72.40697674417999,
          "velocity": 0.5905511811023622,
          "duration": 0.034883720930224626
        },
        {
          "name": "A#5",
          "midi": 82,
          "time": 72.40697674417999,
          "velocity": 0.15748031496062992,
          "duration": 0.034883720930224626
        },
        {
          "name": "A6",
          "midi": 93,
          "time": 72.40697674417999,
          "velocity": 0.11811023622047244,
          "duration": 0.05813953488370771
        },
        {
          "name": "G#5",
          "midi": 80,
          "time": 72.43023255813347,
          "velocity": 0.12598425196850394,
          "duration": 0.04651162790696617
        },
        {
          "name": "C#6",
          "midi": 85,
          "time": 72.44186046511021,
          "velocity": 0.4094488188976378,
          "duration": 0.06976744186044925
        },
        {
          "name": "F#5",
          "midi": 78,
          "time": 72.45348837208695,
          "velocity": 0.3779527559055118,
          "duration": 0.05813953488370771
        },
        {
          "name": "A#5",
          "midi": 82,
          "time": 72.45348837208695,
          "velocity": 0.1732283464566929,
          "duration": 0.05813953488370771
        },
        {
          "name": "E1",
          "midi": 28,
          "time": 72.4651162790637,
          "velocity": 0.4330708661417323,
          "duration": 0.023255813953483084
        },
        {
          "name": "F#4",
          "midi": 66,
          "time": 72.4651162790637,
          "velocity": 0.5748031496062992,
          "duration": 0.034883720930224626
        },
        {
          "name": "D#4",
          "midi": 63,
          "time": 72.47674418604043,
          "velocity": 0.4330708661417323,
          "duration": 0.04651162790696617
        },
        {
          "name": "C3",
          "midi": 48,
          "time": 72.48837209301718,
          "velocity": 0.25984251968503935,
          "duration": 0.034883720930224626
        },
        {
          "name": "G4",
          "midi": 67,
          "time": 72.49999999999392,
          "velocity": 0.5669291338582677,
          "duration": 0.04651162790696617
        },
        {
          "name": "D6",
          "midi": 86,
          "time": 72.49999999999392,
          "velocity": 0.30708661417322836,
          "duration": 0.04651162790696617
        },
        {
          "name": "C1",
          "midi": 24,
          "time": 72.5232558139474,
          "velocity": 0.33070866141732286,
          "duration": 0.023255813953483084
        },
        {
          "name": "E4",
          "midi": 64,
          "time": 72.5232558139474,
          "velocity": 0.23622047244094488,
          "duration": 0.023255813953483084
        },
        {
          "name": "G#4",
          "midi": 68,
          "time": 72.54651162790088,
          "velocity": 0.3937007874015748,
          "duration": 0.04651162790698038
        },
        {
          "name": "E4",
          "midi": 64,
          "time": 72.58139534883112,
          "velocity": 0.16535433070866143,
          "duration": 0.034883720930224626
        },
        {
          "name": "E6",
          "midi": 88,
          "time": 72.58139534883112,
          "velocity": 0.1732283464566929,
          "duration": 0.05813953488370771
        },
        {
          "name": "A4",
          "midi": 69,
          "time": 72.59302325580786,
          "velocity": 0.3937007874015748,
          "duration": 0.034883720930224626
        },
        {
          "name": "D#3",
          "midi": 51,
          "time": 72.6046511627846,
          "velocity": 0.15748031496062992,
          "duration": 0.04651162790696617
        },
        {
          "name": "D#4",
          "midi": 63,
          "time": 72.61627906976135,
          "velocity": 0.2677165354330709,
          "duration": 0.13953488372091272
        },
        {
          "name": "A#4",
          "midi": 70,
          "time": 72.62790697673809,
          "velocity": 0.49606299212598426,
          "duration": 0.05813953488370771
        },
        {
          "name": "F6",
          "midi": 89,
          "time": 72.63953488371483,
          "velocity": 0.2755905511811024,
          "duration": 0.04651162790696617
        },
        {
          "name": "D1",
          "midi": 26,
          "time": 72.66279069766831,
          "velocity": 0.5354330708661418,
          "duration": 0.011627906976741542
        },
        {
          "name": "D#1",
          "midi": 27,
          "time": 72.67441860464506,
          "velocity": 0.5433070866141733,
          "duration": 0.011627906976741542
        },
        {
          "name": "B5",
          "midi": 83,
          "time": 72.67441860464506,
          "velocity": 0.3464566929133858,
          "duration": 0.09302325581394655
        },
        {
          "name": "B4",
          "midi": 71,
          "time": 72.6860465116218,
          "velocity": 0.5196850393700787,
          "duration": 0.04651162790698038
        },
        {
          "name": "F#6",
          "midi": 90,
          "time": 72.6860465116218,
          "velocity": 0.33858267716535434,
          "duration": 0.06976744186046346
        },
        {
          "name": "A6",
          "midi": 93,
          "time": 72.69767441859854,
          "velocity": 0.11811023622047244,
          "duration": 0.04651162790698038
        },
        {
          "name": "C5",
          "midi": 72,
          "time": 72.73255813952878,
          "velocity": 0.6141732283464567,
          "duration": 0.05813953488370771
        },
        {
          "name": "G6",
          "midi": 91,
          "time": 72.73255813952878,
          "velocity": 0.30708661417322836,
          "duration": 0.12790697674415696
        },
        {
          "name": "E1",
          "midi": 28,
          "time": 72.74418604650552,
          "velocity": 0.5590551181102362,
          "duration": 0.023255813953483084
        },
        {
          "name": "G5",
          "midi": 79,
          "time": 72.74418604650552,
          "velocity": 0.2755905511811024,
          "duration": 0.2209302325580893
        },
        {
          "name": "A4",
          "midi": 69,
          "time": 72.75581395348226,
          "velocity": 0.29133858267716534,
          "duration": 0.023255813953483084
        },
        {
          "name": "D#1",
          "midi": 27,
          "time": 72.767441860459,
          "velocity": 0.5511811023622047,
          "duration": 0.023255813953483084
        },
        {
          "name": "D#4",
          "midi": 63,
          "time": 72.767441860459,
          "velocity": 0.2125984251968504,
          "duration": 0.034883720930224626
        },
        {
          "name": "A#5",
          "midi": 82,
          "time": 72.767441860459,
          "velocity": 0.09448818897637795,
          "duration": 0.034883720930224626
        },
        {
          "name": "A#4",
          "midi": 70,
          "time": 72.77906976743574,
          "velocity": 0.3464566929133858,
          "duration": 0.06976744186044925
        },
        {
          "name": "C#6",
          "midi": 85,
          "time": 72.77906976743574,
          "velocity": 0.4015748031496063,
          "duration": 0.05813953488370771
        },
        {
          "name": "G#6",
          "midi": 92,
          "time": 72.77906976743574,
          "velocity": 0.4251968503937008,
          "duration": 0.05813953488370771
        },
        {
          "name": "E1",
          "midi": 28,
          "time": 72.79069767441248,
          "velocity": 0.5590551181102362,
          "duration": 0.011627906976741542
        },
        {
          "name": "C#5",
          "midi": 73,
          "time": 72.79069767441248,
          "velocity": 0.6456692913385826,
          "duration": 0.034883720930224626
        },
        {
          "name": "F7",
          "midi": 101,
          "time": 72.79069767441248,
          "velocity": 0.14960629921259844,
          "duration": 0.04651162790696617
        },
        {
          "name": "F1",
          "midi": 29,
          "time": 72.80232558138923,
          "velocity": 0.5590551181102362,
          "duration": 0.023255813953483084
        },
        {
          "name": "B5",
          "midi": 83,
          "time": 72.80232558138923,
          "velocity": 0.16535433070866143,
          "duration": 0.09302325581393234
        },
        {
          "name": "D#4",
          "midi": 63,
          "time": 72.81395348836597,
          "velocity": 0.1889763779527559,
          "duration": 0.05813953488370771
        },
        {
          "name": "D5",
          "midi": 74,
          "time": 72.82558139534271,
          "velocity": 0.5748031496062992,
          "duration": 0.05813953488370771
        },
        {
          "name": "C6",
          "midi": 84,
          "time": 72.82558139534271,
          "velocity": 0.08661417322834646,
          "duration": 0.12790697674415696
        },
        {
          "name": "A6",
          "midi": 93,
          "time": 72.82558139534271,
          "velocity": 0.4330708661417323,
          "duration": 0.06976744186044925
        },
        {
          "name": "D#7",
          "midi": 99,
          "time": 72.82558139534271,
          "velocity": 0.09448818897637795,
          "duration": 0.034883720930224626
        },
        {
          "name": "F#7",
          "midi": 102,
          "time": 72.83720930231945,
          "velocity": 0.13385826771653545,
          "duration": 0.04651162790696617
        },
        {
          "name": "G3",
          "midi": 55,
          "time": 72.84883720929619,
          "velocity": 0.18110236220472442,
          "duration": 0.04651162790696617
        },
        {
          "name": "C#7",
          "midi": 97,
          "time": 72.84883720929619,
          "velocity": 0.41732283464566927,
          "duration": 0.39534883720921243
        },
        {
          "name": "F1",
          "midi": 29,
          "time": 72.86046511627293,
          "velocity": 0.5275590551181102,
          "duration": 0.011627906976741542
        },
        {
          "name": "F#1",
          "midi": 30,
          "time": 72.87209302324968,
          "velocity": 0.6220472440944882,
          "duration": 0.034883720930224626
        },
        {
          "name": "G#4",
          "midi": 68,
          "time": 72.87209302324968,
          "velocity": 0.15748031496062992,
          "duration": 0.034883720930224626
        },
        {
          "name": "C5",
          "midi": 72,
          "time": 72.88372093022642,
          "velocity": 0.3228346456692913,
          "duration": 0.034883720930224626
        },
        {
          "name": "D#5",
          "midi": 75,
          "time": 72.88372093022642,
          "velocity": 0.6456692913385826,
          "duration": 0.04651162790696617
        },
        {
          "name": "A#6",
          "midi": 94,
          "time": 72.88372093022642,
          "velocity": 0.44881889763779526,
          "duration": 0.24418604651157239
        },
        {
          "name": "A#5",
          "midi": 82,
          "time": 72.89534883720316,
          "velocity": 0.15748031496062992,
          "duration": 0.10465116279067388
        },
        {
          "name": "G1",
          "midi": 31,
          "time": 72.9069767441799,
          "velocity": 0.5748031496062992,
          "duration": 0.023255813953483084
        },
        {
          "name": "A4",
          "midi": 69,
          "time": 72.9069767441799,
          "velocity": 0.1968503937007874,
          "duration": 0.034883720930224626
        },
        {
          "name": "C#6",
          "midi": 85,
          "time": 72.9069767441799,
          "velocity": 0.16535433070866143,
          "duration": 0.04651162790696617
        },
        {
          "name": "E6",
          "midi": 88,
          "time": 72.9069767441799,
          "velocity": 0.3543307086614173,
          "duration": 0.0813953488371908
        },
        {
          "name": "F7",
          "midi": 101,
          "time": 72.9069767441799,
          "velocity": 0.15748031496062992,
          "duration": 0.09302325581393234
        },
        {
          "name": "D3",
          "midi": 50,
          "time": 72.91860465115664,
          "velocity": 0.11023622047244094,
          "duration": 0.034883720930224626
        },
        {
          "name": "C#5",
          "midi": 73,
          "time": 72.91860465115664,
          "velocity": 0.36220472440944884,
          "duration": 0.05813953488370771
        },
        {
          "name": "F6",
          "midi": 89,
          "time": 72.91860465115664,
          "velocity": 0.08661417322834646,
          "duration": 0.04651162790696617
        },
        {
          "name": "A6",
          "midi": 93,
          "time": 72.91860465115664,
          "velocity": 0.18110236220472442,
          "duration": 0.0813953488371908
        },
        {
          "name": "F#7",
          "midi": 102,
          "time": 72.91860465115664,
          "velocity": 0.09448818897637795,
          "duration": 0.05813953488370771
        },
        {
          "name": "E5",
          "midi": 76,
          "time": 72.93023255813338,
          "velocity": 0.6141732283464567,
          "duration": 0.05813953488370771
        },
        {
          "name": "F#6",
          "midi": 90,
          "time": 72.94186046511012,
          "velocity": 0.10236220472440945,
          "duration": 0.034883720930224626
        },
        {
          "name": "B6",
          "midi": 95,
          "time": 72.94186046511012,
          "velocity": 0.3700787401574803,
          "duration": 0.023255813953483084
        },
        {
          "name": "D#7",
          "midi": 99,
          "time": 72.94186046511012,
          "velocity": 0.11811023622047244,
          "duration": 0.09302325581393234
        },
        {
          "name": "G#5",
          "midi": 80,
          "time": 72.95348837208687,
          "velocity": 0.12598425196850394,
          "duration": 0.034883720930224626
        },
        {
          "name": "D6",
          "midi": 86,
          "time": 72.95348837208687,
          "velocity": 0.18110236220472442,
          "duration": 0.04651162790696617
        },
        {
          "name": "A4",
          "midi": 69,
          "time": 72.96511627906361,
          "velocity": 0.25984251968503935,
          "duration": 0.023255813953483084
        },
        {
          "name": "G#6",
          "midi": 92,
          "time": 72.96511627906361,
          "velocity": 0.5433070866141733,
          "duration": 1.2906976744183112
        },
        {
          "name": "C7",
          "midi": 96,
          "time": 72.96511627906361,
          "velocity": 0.3858267716535433,
          "duration": 0.12790697674415696
        },
        {
          "name": "G1",
          "midi": 31,
          "time": 72.97674418604035,
          "velocity": 0.6456692913385826,
          "duration": 0.06976744186044925
        },
        {
          "name": "D5",
          "midi": 74,
          "time": 72.97674418604035,
          "velocity": 0.30708661417322836,
          "duration": 0.0813953488371908
        },
        {
          "name": "F5",
          "midi": 77,
          "time": 72.97674418604035,
          "velocity": 0.6929133858267716,
          "duration": 0.04651162790696617
        },
        {
          "name": "B6",
          "midi": 95,
          "time": 72.97674418604035,
          "velocity": 0.2125984251968504,
          "duration": 0.034883720930224626
        },
        {
          "name": "G5",
          "midi": 79,
          "time": 72.98837209301709,
          "velocity": 0.2677165354330709,
          "duration": 0.023255813953483084
        },
        {
          "name": "A5",
          "midi": 81,
          "time": 72.99999999999383,
          "velocity": 0.15748031496062992,
          "duration": 0.09302325581393234
        },
        {
          "name": "C#6",
          "midi": 85,
          "time": 72.99999999999383,
          "velocity": 0.07086614173228346,
          "duration": 0.034883720930224626
        },
        {
          "name": "D7",
          "midi": 98,
          "time": 72.99999999999383,
          "velocity": 0.4251968503937008,
          "duration": 0.11627906976741542
        },
        {
          "name": "C#4",
          "midi": 61,
          "time": 73.01162790697057,
          "velocity": 0.2047244094488189,
          "duration": 0.04651162790696617
        },
        {
          "name": "G4",
          "midi": 67,
          "time": 73.01162790697057,
          "velocity": 0.14173228346456693,
          "duration": 0.034883720930224626
        },
        {
          "name": "B4",
          "midi": 71,
          "time": 73.01162790697057,
          "velocity": 0.23622047244094488,
          "duration": 0.023255813953483084
        },
        {
          "name": "G6",
          "midi": 91,
          "time": 73.01162790697057,
          "velocity": 0.3700787401574803,
          "duration": 0.10465116279067388
        },
        {
          "name": "C5",
          "midi": 72,
          "time": 73.02325581394732,
          "velocity": 0.2677165354330709,
          "duration": 0.023255813953483084
        },
        {
          "name": "F#5",
          "midi": 78,
          "time": 73.02325581394732,
          "velocity": 0.6141732283464567,
          "duration": 0.05813953488370771
        },
        {
          "name": "G#1",
          "midi": 32,
          "time": 73.0465116279008,
          "velocity": 0.6377952755905512,
          "duration": 0.023255813953483084
        },
        {
          "name": "F4",
          "midi": 65,
          "time": 73.0465116279008,
          "velocity": 0.1968503937007874,
          "duration": 0.034883720930224626
        },
        {
          "name": "G1",
          "midi": 31,
          "time": 73.06976744185428,
          "velocity": 0.6141732283464567,
          "duration": 0.011627906976741542
        },
        {
          "name": "A#4",
          "midi": 70,
          "time": 73.06976744185428,
          "velocity": 0.2283464566929134,
          "duration": 0.05813953488370771
        },
        {
          "name": "C#5",
          "midi": 73,
          "time": 73.06976744185428,
          "velocity": 0.33070866141732286,
          "duration": 0.0813953488371908
        },
        {
          "name": "D6",
          "midi": 86,
          "time": 73.06976744185428,
          "velocity": 0.2440944881889764,
          "duration": 0.12790697674415696
        },
        {
          "name": "G#1",
          "midi": 32,
          "time": 73.08139534883102,
          "velocity": 0.6062992125984252,
          "duration": 0.04651162790696617
        },
        {
          "name": "F5",
          "midi": 77,
          "time": 73.08139534883102,
          "velocity": 0.4015748031496063,
          "duration": 0.0813953488371908
        },
        {
          "name": "G5",
          "midi": 79,
          "time": 73.08139534883102,
          "velocity": 0.6299212598425197,
          "duration": 0.034883720930224626
        },
        {
          "name": "D#6",
          "midi": 87,
          "time": 73.08139534883102,
          "velocity": 0.11811023622047244,
          "duration": 0.034883720930224626
        },
        {
          "name": "E6",
          "midi": 88,
          "time": 73.08139534883102,
          "velocity": 0.28346456692913385,
          "duration": 0.12790697674415696
        },
        {
          "name": "E4",
          "midi": 64,
          "time": 73.09302325580776,
          "velocity": 0.1968503937007874,
          "duration": 0.05813953488370771
        },
        {
          "name": "D#7",
          "midi": 99,
          "time": 73.09302325580776,
          "velocity": 0.47244094488188976,
          "duration": 0.6744186046510094
        },
        {
          "name": "A#5",
          "midi": 82,
          "time": 73.1046511627845,
          "velocity": 0.29133858267716534,
          "duration": 0.17441860465112313
        },
        {
          "name": "C6",
          "midi": 84,
          "time": 73.1046511627845,
          "velocity": 0.25984251968503935,
          "duration": 0.0813953488371908
        },
        {
          "name": "F#7",
          "midi": 102,
          "time": 73.1046511627845,
          "velocity": 0.2992125984251969,
          "duration": 0.813953488371908
        },
        {
          "name": "B4",
          "midi": 71,
          "time": 73.11627906976125,
          "velocity": 0.25196850393700787,
          "duration": 0.023255813953483084
        },
        {
          "name": "G#5",
          "midi": 80,
          "time": 73.11627906976125,
          "velocity": 0.5984251968503937,
          "duration": 0.05813953488370771
        },
        {
          "name": "B6",
          "midi": 95,
          "time": 73.11627906976125,
          "velocity": 0.29133858267716534,
          "duration": 0.04651162790696617
        },
        {
          "name": "G7",
          "midi": 103,
          "time": 73.11627906976125,
          "velocity": 0.2125984251968504,
          "duration": 0.09302325581393234
        },
        {
          "name": "A1",
          "midi": 33,
          "time": 73.12790697673799,
          "velocity": 0.5905511811023622,
          "duration": 0.023255813953483084
        },
        {
          "name": "A4",
          "midi": 69,
          "time": 73.12790697673799,
          "velocity": 0.23622047244094488,
          "duration": 0.023255813953483084
        },
        {
          "name": "G6",
          "midi": 91,
          "time": 73.12790697673799,
          "velocity": 0.25984251968503935,
          "duration": 0.0813953488371908
        },
        {
          "name": "A6",
          "midi": 93,
          "time": 73.12790697673799,
          "velocity": 0.2204724409448819,
          "duration": 0.034883720930224626
        },
        {
          "name": "G#3",
          "midi": 56,
          "time": 73.13953488371473,
          "velocity": 0.47244094488188976,
          "duration": 0.023255813953483084
        },
        {
          "name": "A#4",
          "midi": 70,
          "time": 73.13953488371473,
          "velocity": 0.2677165354330709,
          "duration": 0.023255813953483084
        },
        {
          "name": "D5",
          "midi": 74,
          "time": 73.13953488371473,
          "velocity": 0.33070866141732286,
          "duration": 0.04651162790696617
        },
        {
          "name": "A#1",
          "midi": 34,
          "time": 73.15116279069147,
          "velocity": 0.5669291338582677,
          "duration": 0.011627906976741542
        },
        {
          "name": "F4",
          "midi": 65,
          "time": 73.15116279069147,
          "velocity": 0.4251968503937008,
          "duration": 0.04651162790696617
        },
        {
          "name": "C5",
          "midi": 72,
          "time": 73.15116279069147,
          "velocity": 0.36220472440944884,
          "duration": 0.023255813953483084
        },
        {
          "name": "F#6",
          "midi": 90,
          "time": 73.15116279069147,
          "velocity": 0.2204724409448819,
          "duration": 0.09302325581393234
        },
        {
          "name": "C3",
          "midi": 48,
          "time": 73.16279069766821,
          "velocity": 0.6692913385826772,
          "duration": 0.011627906976741542
        },
        {
          "name": "E5",
          "midi": 76,
          "time": 73.16279069766821,
          "velocity": 0.2992125984251969,
          "duration": 0.023255813953483084
        },
        {
          "name": "D#6",
          "midi": 87,
          "time": 73.16279069766821,
          "velocity": 0.13385826771653545,
          "duration": 0.12790697674415696
        },
        {
          "name": "F2",
          "midi": 41,
          "time": 73.17441860464496,
          "velocity": 0.7480314960629921,
          "duration": 0.023255813953483084
        },
        {
          "name": "C4",
          "midi": 60,
          "time": 73.17441860464496,
          "velocity": 0.3700787401574803,
          "duration": 0.023255813953483084
        },
        {
          "name": "C#5",
          "midi": 73,
          "time": 73.17441860464496,
          "velocity": 0.36220472440944884,
          "duration": 0.034883720930224626
        },
        {
          "name": "A6",
          "midi": 93,
          "time": 73.17441860464496,
          "velocity": 0.1732283464566929,
          "duration": 0.034883720930224626
        },
        {
          "name": "G4",
          "midi": 67,
          "time": 73.1860465116217,
          "velocity": 0.2204724409448819,
          "duration": 0.034883720930224626
        },
        {
          "name": "D#5",
          "midi": 75,
          "time": 73.1860465116217,
          "velocity": 0.1889763779527559,
          "duration": 0.04651162790696617
        },
        {
          "name": "G#5",
          "midi": 80,
          "time": 73.1860465116217,
          "velocity": 0.6220472440944882,
          "duration": 0.9069767441858403
        },
        {
          "name": "B5",
          "midi": 83,
          "time": 73.1860465116217,
          "velocity": 0.2755905511811024,
          "duration": 0.023255813953483084
        },
        {
          "name": "C#2",
          "midi": 37,
          "time": 73.19767441859844,
          "velocity": 0.7716535433070866,
          "duration": 0.011627906976741542
        },
        {
          "name": "F3",
          "midi": 53,
          "time": 73.19767441859844,
          "velocity": 0.4094488188976378,
          "duration": 0.034883720930224626
        },
        {
          "name": "E4",
          "midi": 64,
          "time": 73.19767441859844,
          "velocity": 0.2047244094488189,
          "duration": 0.034883720930224626
        },
        {
          "name": "B1",
          "midi": 35,
          "time": 73.20930232557518,
          "velocity": 0.7716535433070866,
          "duration": 0.011627906976741542
        },
        {
          "name": "F#5",
          "midi": 78,
          "time": 73.20930232557518,
          "velocity": 0.2125984251968504,
          "duration": 0.04651162790696617
        },
        {
          "name": "A#1",
          "midi": 34,
          "time": 73.22093023255192,
          "velocity": 0.7637795275590551,
          "duration": 0.011627906976741542
        },
        {
          "name": "A1",
          "midi": 33,
          "time": 73.23255813952866,
          "velocity": 0.7401574803149606,
          "duration": 0.023255813953483084
        },
        {
          "name": "E3",
          "midi": 52,
          "time": 73.23255813952866,
          "velocity": 0.29133858267716534,
          "duration": 0.034883720930224626
        },
        {
          "name": "D#4",
          "midi": 63,
          "time": 73.23255813952866,
          "velocity": 0.12598425196850394,
          "duration": 0.034883720930224626
        },
        {
          "name": "C#6",
          "midi": 85,
          "time": 73.23255813952866,
          "velocity": 0.11023622047244094,
          "duration": 0.09302325581393234
        },
        {
          "name": "G7",
          "midi": 103,
          "time": 73.23255813952866,
          "velocity": 0.14960629921259844,
          "duration": 0.04651162790696617
        },
        {
          "name": "A4",
          "midi": 69,
          "time": 73.2441860465054,
          "velocity": 0.11023622047244094,
          "duration": 0.034883720930224626
        },
        {
          "name": "C5",
          "midi": 72,
          "time": 73.2441860465054,
          "velocity": 0.47244094488188976,
          "duration": 0.5697674418603356
        },
        {
          "name": "G#1",
          "midi": 32,
          "time": 73.25581395348215,
          "velocity": 0.7322834645669292,
          "duration": 0.023255813953483084
        },
        {
          "name": "G#3",
          "midi": 56,
          "time": 73.25581395348215,
          "velocity": 0.25196850393700787,
          "duration": 0.023255813953483084
        },
        {
          "name": "D#5",
          "midi": 75,
          "time": 73.25581395348215,
          "velocity": 0.4251968503937008,
          "duration": 0.5697674418603356
        },
        {
          "name": "G6",
          "midi": 91,
          "time": 73.25581395348215,
          "velocity": 0.33858267716535434,
          "duration": 0.39534883720921243
        },
        {
          "name": "F5",
          "midi": 77,
          "time": 73.26744186045889,
          "velocity": 0.31496062992125984,
          "duration": 0.10465116279067388
        },
        {
          "name": "F#5",
          "midi": 78,
          "time": 73.26744186045889,
          "velocity": 0.1968503937007874,
          "duration": 0.04651162790696617
        },
        {
          "name": "A6",
          "midi": 93,
          "time": 73.26744186045889,
          "velocity": 0.14173228346456693,
          "duration": 0.09302325581393234
        },
        {
          "name": "B6",
          "midi": 95,
          "time": 73.26744186045889,
          "velocity": 0.08661417322834646,
          "duration": 0.15116279069764005
        },
        {
          "name": "C#7",
          "midi": 97,
          "time": 73.26744186045889,
          "velocity": 0.13385826771653545,
          "duration": 0.05813953488370771
        },
        {
          "name": "G1",
          "midi": 31,
          "time": 73.27906976743563,
          "velocity": 0.7401574803149606,
          "duration": 0.1395348837208985
        },
        {
          "name": "D#4",
          "midi": 63,
          "time": 73.27906976743563,
          "velocity": 0.33858267716535434,
          "duration": 0.2209302325580893
        },
        {
          "name": "G#4",
          "midi": 68,
          "time": 73.27906976743563,
          "velocity": 0.5118110236220472,
          "duration": 0.5465116279068525
        },
        {
          "name": "E6",
          "midi": 88,
          "time": 73.27906976743563,
          "velocity": 0.14960629921259844,
          "duration": 0.05813953488370771
        },
        {
          "name": "D7",
          "midi": 98,
          "time": 73.27906976743563,
          "velocity": 0.16535433070866143,
          "duration": 0.04651162790696617
        },
        {
          "name": "D6",
          "midi": 86,
          "time": 73.29069767441237,
          "velocity": 0.1732283464566929,
          "duration": 0.1395348837208985
        },
        {
          "name": "C7",
          "midi": 96,
          "time": 73.30232558138911,
          "velocity": 0.3700787401574803,
          "duration": 0.6046511627905602
        },
        {
          "name": "D#3",
          "midi": 51,
          "time": 73.31395348836585,
          "velocity": 0.31496062992125984,
          "duration": 0.04651162790696617
        },
        {
          "name": "G#3",
          "midi": 56,
          "time": 73.3255813953426,
          "velocity": 0.11023622047244094,
          "duration": 0.034883720930224626
        },
        {
          "name": "F7",
          "midi": 101,
          "time": 73.3255813953426,
          "velocity": 0.12598425196850394,
          "duration": 0.04651162790696617
        },
        {
          "name": "B5",
          "midi": 83,
          "time": 73.33720930231934,
          "velocity": 0.1968503937007874,
          "duration": 0.05813953488370771
        },
        {
          "name": "A#6",
          "midi": 94,
          "time": 73.36046511627282,
          "velocity": 0.25984251968503935,
          "duration": 0.406976744185954
        },
        {
          "name": "F#5",
          "midi": 78,
          "time": 73.37209302324956,
          "velocity": 0.2283464566929134,
          "duration": 0.023255813953483084
        },
        {
          "name": "A#5",
          "midi": 82,
          "time": 73.37209302324956,
          "velocity": 0.25196850393700787,
          "duration": 0.04651162790696617
        },
        {
          "name": "A6",
          "midi": 93,
          "time": 73.37209302324956,
          "velocity": 0.12598425196850394,
          "duration": 0.05813953488370771
        },
        {
          "name": "E7",
          "midi": 100,
          "time": 73.3837209302263,
          "velocity": 0.18110236220472442,
          "duration": 0.19767441860460622
        },
        {
          "name": "F7",
          "midi": 101,
          "time": 73.3837209302263,
          "velocity": 0.18110236220472442,
          "duration": 0.3837209302324709
        },
        {
          "name": "G5",
          "midi": 79,
          "time": 73.39534883720304,
          "velocity": 0.28346456692913385,
          "duration": 0.034883720930224626
        },
        {
          "name": "D#3",
          "midi": 51,
          "time": 73.40697674417979,
          "velocity": 0.4015748031496063,
          "duration": 0.29069767441853855
        },
        {
          "name": "B5",
          "midi": 83,
          "time": 73.40697674417979,
          "velocity": 0.16535433070866143,
          "duration": 0.034883720930224626
        },
        {
          "name": "E6",
          "midi": 88,
          "time": 73.40697674417979,
          "velocity": 0.2047244094488189,
          "duration": 0.04651162790696617
        },
        {
          "name": "C#7",
          "midi": 97,
          "time": 73.40697674417979,
          "velocity": 0.33070866141732286,
          "duration": 0.1627906976743816
        },
        {
          "name": "G#1",
          "midi": 32,
          "time": 73.41860465115653,
          "velocity": 0.6535433070866141,
          "duration": 0.023255813953483084
        },
        {
          "name": "G#3",
          "midi": 56,
          "time": 73.41860465115653,
          "velocity": 0.31496062992125984,
          "duration": 0.06976744186044925
        },
        {
          "name": "F5",
          "midi": 77,
          "time": 73.43023255813327,
          "velocity": 0.2755905511811024,
          "duration": 0.05813953488370771
        },
        {
          "name": "A1",
          "midi": 33,
          "time": 73.44186046511001,
          "velocity": 0.6456692913385826,
          "duration": 0.023255813953483084
        },
        {
          "name": "B6",
          "midi": 95,
          "time": 73.44186046511001,
          "velocity": 0.08661417322834646,
          "duration": 0.034883720930224626
        },
        {
          "name": "B5",
          "midi": 83,
          "time": 73.45348837208675,
          "velocity": 0.1968503937007874,
          "duration": 0.034883720930224626
        },
        {
          "name": "F#6",
          "midi": 90,
          "time": 73.45348837208675,
          "velocity": 0.14173228346456693,
          "duration": 0.034883720930224626
        },
        {
          "name": "G#1",
          "midi": 32,
          "time": 73.4651162790635,
          "velocity": 0.7007874015748031,
          "duration": 0.3604651162789878
        },
        {
          "name": "C#6",
          "midi": 85,
          "time": 73.4651162790635,
          "velocity": 0.1889763779527559,
          "duration": 0.05813953488370771
        },
        {
          "name": "F#5",
          "midi": 78,
          "time": 73.47674418604024,
          "velocity": 0.31496062992125984,
          "duration": 0.2558139534883139
        },
        {
          "name": "E6",
          "midi": 88,
          "time": 73.47674418604024,
          "velocity": 0.1889763779527559,
          "duration": 0.11627906976741542
        },
        {
          "name": "D7",
          "midi": 98,
          "time": 73.47674418604024,
          "velocity": 0.11023622047244094,
          "duration": 0.06976744186044925
        },
        {
          "name": "C4",
          "midi": 60,
          "time": 73.48837209301698,
          "velocity": 0.4015748031496063,
          "duration": 0.1627906976743816
        },
        {
          "name": "A#5",
          "midi": 82,
          "time": 73.48837209301698,
          "velocity": 0.18110236220472442,
          "duration": 0.034883720930224626
        },
        {
          "name": "D6",
          "midi": 86,
          "time": 73.48837209301698,
          "velocity": 0.2283464566929134,
          "duration": 0.023255813953483084
        },
        {
          "name": "A6",
          "midi": 93,
          "time": 73.48837209301698,
          "velocity": 0.2047244094488189,
          "duration": 0.05813953488370771
        },
        {
          "name": "B6",
          "midi": 95,
          "time": 73.49999999999372,
          "velocity": 0.18110236220472442,
          "duration": 0.04651162790696617
        },
        {
          "name": "B5",
          "midi": 83,
          "time": 73.51162790697046,
          "velocity": 0.2047244094488189,
          "duration": 0.04651162790696617
        },
        {
          "name": "A#5",
          "midi": 82,
          "time": 73.53488372092394,
          "velocity": 0.31496062992125984,
          "duration": 0.279069767441797
        },
        {
          "name": "C#6",
          "midi": 85,
          "time": 73.54651162790068,
          "velocity": 0.09448818897637795,
          "duration": 0.04651162790696617
        },
        {
          "name": "D6",
          "midi": 86,
          "time": 73.55813953487743,
          "velocity": 0.1889763779527559,
          "duration": 0.0813953488371908
        },
        {
          "name": "A6",
          "midi": 93,
          "time": 73.56976744185417,
          "velocity": 0.10236220472440945,
          "duration": 0.034883720930224626
        },
        {
          "name": "B6",
          "midi": 95,
          "time": 73.59302325580765,
          "velocity": 0.11811023622047244,
          "duration": 0.034883720930224626
        },
        {
          "name": "G#3",
          "midi": 56,
          "time": 73.60465116278439,
          "velocity": 0.2125984251968504,
          "duration": 0.034883720930224626
        },
        {
          "name": "E7",
          "midi": 100,
          "time": 73.60465116278439,
          "velocity": 0.14173228346456693,
          "duration": 0.05813953488370771
        },
        {
          "name": "A6",
          "midi": 93,
          "time": 73.61627906976113,
          "velocity": 0.12598425196850394,
          "duration": 0.09302325581393234
        },
        {
          "name": "F#4",
          "midi": 66,
          "time": 73.62790697673788,
          "velocity": 0.16535433070866143,
          "duration": 0.05813953488370771
        },
        {
          "name": "C#6",
          "midi": 85,
          "time": 73.62790697673788,
          "velocity": 0.2125984251968504,
          "duration": 0.04651162790696617
        },
        {
          "name": "E6",
          "midi": 88,
          "time": 73.62790697673788,
          "velocity": 0.1732283464566929,
          "duration": 0.06976744186044925
        },
        {
          "name": "G6",
          "midi": 91,
          "time": 73.6627906976681,
          "velocity": 0.29133858267716534,
          "duration": 0.10465116279067388
        },
        {
          "name": "G#3",
          "midi": 56,
          "time": 73.68604651162158,
          "velocity": 0.30708661417322836,
          "duration": 0.023255813953483084
        },
        {
          "name": "E7",
          "midi": 100,
          "time": 73.68604651162158,
          "velocity": 0.2204724409448819,
          "duration": 0.1395348837208985
        },
        {
          "name": "D3",
          "midi": 50,
          "time": 73.69767441859833,
          "velocity": 0.4645669291338583,
          "duration": 0.023255813953483084
        },
        {
          "name": "B6",
          "midi": 95,
          "time": 73.69767441859833,
          "velocity": 0.10236220472440945,
          "duration": 0.0813953488371908
        },
        {
          "name": "F5",
          "midi": 77,
          "time": 73.70930232557507,
          "velocity": 0.2125984251968504,
          "duration": 0.034883720930224626
        },
        {
          "name": "D#3",
          "midi": 51,
          "time": 73.72093023255181,
          "velocity": 0.5196850393700787,
          "duration": 0.10465116279067388
        },
        {
          "name": "G#3",
          "midi": 56,
          "time": 73.72093023255181,
          "velocity": 0.30708661417322836,
          "duration": 0.09302325581393234
        },
        {
          "name": "A6",
          "midi": 93,
          "time": 73.72093023255181,
          "velocity": 0.11811023622047244,
          "duration": 0.034883720930224626
        },
        {
          "name": "C#7",
          "midi": 97,
          "time": 73.72093023255181,
          "velocity": 0.3543307086614173,
          "duration": 0.1395348837208985
        },
        {
          "name": "D7",
          "midi": 98,
          "time": 73.72093023255181,
          "velocity": 0.14173228346456693,
          "duration": 0.034883720930224626
        },
        {
          "name": "E6",
          "midi": 88,
          "time": 73.73255813952855,
          "velocity": 0.14173228346456693,
          "duration": 0.0813953488371908
        },
        {
          "name": "F#6",
          "midi": 90,
          "time": 73.74418604650529,
          "velocity": 0.2204724409448819,
          "duration": 0.06976744186044925
        },
        {
          "name": "C#6",
          "midi": 85,
          "time": 73.76744186045877,
          "velocity": 0.25984251968503935,
          "duration": 0.10465116279067388
        },
        {
          "name": "G6",
          "midi": 91,
          "time": 73.77906976743552,
          "velocity": 0.31496062992125984,
          "duration": 0.034883720930224626
        },
        {
          "name": "D#7",
          "midi": 99,
          "time": 73.77906976743552,
          "velocity": 0.47244094488188976,
          "duration": 0.7325581395347172
        },
        {
          "name": "F#5",
          "midi": 78,
          "time": 73.79069767441226,
          "velocity": 0.25984251968503935,
          "duration": 0.04651162790696617
        },
        {
          "name": "B6",
          "midi": 95,
          "time": 73.79069767441226,
          "velocity": 0.2125984251968504,
          "duration": 0.1627906976743816
        },
        {
          "name": "F7",
          "midi": 101,
          "time": 73.79069767441226,
          "velocity": 0.5118110236220472,
          "duration": 0.6395348837207848
        },
        {
          "name": "B5",
          "midi": 83,
          "time": 73.802325581389,
          "velocity": 0.33070866141732286,
          "duration": 0.04651162790696617
        },
        {
          "name": "F6",
          "midi": 89,
          "time": 73.802325581389,
          "velocity": 0.2440944881889764,
          "duration": 0.04651162790696617
        },
        {
          "name": "A6",
          "midi": 93,
          "time": 73.802325581389,
          "velocity": 0.3779527559055118,
          "duration": 0.04651162790696617
        },
        {
          "name": "D7",
          "midi": 98,
          "time": 73.802325581389,
          "velocity": 0.25196850393700787,
          "duration": 0.10465116279067388
        },
        {
          "name": "C4",
          "midi": 60,
          "time": 73.81395348836574,
          "velocity": 0.48031496062992124,
          "duration": 0.12790697674415696
        },
        {
          "name": "D3",
          "midi": 50,
          "time": 73.82558139534248,
          "velocity": 0.3543307086614173,
          "duration": 0.023255813953483084
        },
        {
          "name": "A4",
          "midi": 69,
          "time": 73.82558139534248,
          "velocity": 0.5433070866141733,
          "duration": 0.034883720930224626
        },
        {
          "name": "E5",
          "midi": 76,
          "time": 73.82558139534248,
          "velocity": 0.2440944881889764,
          "duration": 0.04651162790696617
        },
        {
          "name": "G5",
          "midi": 79,
          "time": 73.82558139534248,
          "velocity": 0.25984251968503935,
          "duration": 0.023255813953483084
        },
        {
          "name": "G6",
          "midi": 91,
          "time": 73.82558139534248,
          "velocity": 0.30708661417322836,
          "duration": 0.034883720930224626
        },
        {
          "name": "B4",
          "midi": 71,
          "time": 73.84883720929597,
          "velocity": 0.1732283464566929,
          "duration": 0.034883720930224626
        },
        {
          "name": "G#4",
          "midi": 68,
          "time": 73.8604651162727,
          "velocity": 0.23622047244094488,
          "duration": 0.05813953488370771
        },
        {
          "name": "F5",
          "midi": 77,
          "time": 73.8604651162727,
          "velocity": 0.08661417322834646,
          "duration": 0.034883720930224626
        },
        {
          "name": "A#5",
          "midi": 82,
          "time": 73.8604651162727,
          "velocity": 0.14960629921259844,
          "duration": 0.034883720930224626
        },
        {
          "name": "F6",
          "midi": 89,
          "time": 73.8604651162727,
          "velocity": 0.16535433070866143,
          "duration": 0.04651162790696617
        },
        {
          "name": "A6",
          "midi": 93,
          "time": 73.8604651162727,
          "velocity": 0.25196850393700787,
          "duration": 0.06976744186044925
        },
        {
          "name": "D6",
          "midi": 86,
          "time": 73.88372093022619,
          "velocity": 0.14173228346456693,
          "duration": 0.06976744186044925
        },
        {
          "name": "C6",
          "midi": 84,
          "time": 73.90697674417967,
          "velocity": 0.2677165354330709,
          "duration": 0.3023255813952801
        },
        {
          "name": "C#7",
          "midi": 97,
          "time": 73.90697674417967,
          "velocity": 0.25196850393700787,
          "duration": 0.20930232558134776
        },
        {
          "name": "D#3",
          "midi": 51,
          "time": 73.91860465115641,
          "velocity": 0.15748031496062992,
          "duration": 0.09302325581393234
        },
        {
          "name": "D#6",
          "midi": 87,
          "time": 73.91860465115641,
          "velocity": 0.25984251968503935,
          "duration": 0.09302325581393234
        },
        {
          "name": "G#3",
          "midi": 56,
          "time": 73.93023255813316,
          "velocity": 0.2204724409448819,
          "duration": 0.17441860465112313
        },
        {
          "name": "D#4",
          "midi": 63,
          "time": 73.93023255813316,
          "velocity": 0.2992125984251969,
          "duration": 0.09302325581393234
        },
        {
          "name": "A#5",
          "midi": 82,
          "time": 73.93023255813316,
          "velocity": 0.16535433070866143,
          "duration": 0.05813953488370771
        },
        {
          "name": "A6",
          "midi": 93,
          "time": 73.9418604651099,
          "velocity": 0.1732283464566929,
          "duration": 0.06976744186044925
        },
        {
          "name": "G#2",
          "midi": 44,
          "time": 73.95348837208664,
          "velocity": 0.2047244094488189,
          "duration": 0.19767441860460622
        },
        {
          "name": "C5",
          "midi": 72,
          "time": 73.95348837208664,
          "velocity": 0.2677165354330709,
          "duration": 0.04651162790696617
        },
        {
          "name": "C#6",
          "midi": 85,
          "time": 73.95348837208664,
          "velocity": 0.12598425196850394,
          "duration": 0.04651162790696617
        },
        {
          "name": "G6",
          "midi": 91,
          "time": 73.95348837208664,
          "velocity": 0.3228346456692913,
          "duration": 0.3372093023255047
        },
        {
          "name": "A#6",
          "midi": 94,
          "time": 73.95348837208664,
          "velocity": 0.1732283464566929,
          "duration": 0.12790697674415696
        },
        {
          "name": "A4",
          "midi": 69,
          "time": 73.96511627906338,
          "velocity": 0.33070866141732286,
          "duration": 0.023255813953483084
        },
        {
          "name": "D6",
          "midi": 86,
          "time": 73.96511627906338,
          "velocity": 0.23622047244094488,
          "duration": 0.0813953488371908
        },
        {
          "name": "F5",
          "midi": 77,
          "time": 73.97674418604012,
          "velocity": 0.7086614173228346,
          "duration": 0.4999999999998863
        },
        {
          "name": "A4",
          "midi": 69,
          "time": 73.9999999999936,
          "velocity": 0.36220472440944884,
          "duration": 0.034883720930224626
        },
        {
          "name": "C5",
          "midi": 72,
          "time": 74.01162790697035,
          "velocity": 0.5275590551181102,
          "duration": 0.45348837209292014
        },
        {
          "name": "D5",
          "midi": 74,
          "time": 74.01162790697035,
          "velocity": 0.11023622047244094,
          "duration": 0.034883720930224626
        },
        {
          "name": "B6",
          "midi": 95,
          "time": 74.01162790697035,
          "velocity": 0.1732283464566929,
          "duration": 0.12790697674415696
        },
        {
          "name": "A6",
          "midi": 93,
          "time": 74.02325581394709,
          "velocity": 0.23622047244094488,
          "duration": 0.023255813953483084
        },
        {
          "name": "D7",
          "midi": 98,
          "time": 74.02325581394709,
          "velocity": 0.2755905511811024,
          "duration": 0.3255813953487632
        },
        {
          "name": "D#4",
          "midi": 63,
          "time": 74.03488372092383,
          "velocity": 0.49606299212598426,
          "duration": 0.10465116279067388
        },
        {
          "name": "A#5",
          "midi": 82,
          "time": 74.03488372092383,
          "velocity": 0.4330708661417323,
          "duration": 0.0813953488371908
        },
        {
          "name": "D#6",
          "midi": 87,
          "time": 74.03488372092383,
          "velocity": 0.30708661417322836,
          "duration": 0.0813953488371908
        },
        {
          "name": "G#4",
          "midi": 68,
          "time": 74.04651162790057,
          "velocity": 0.5590551181102362,
          "duration": 0.3023255813952801
        },
        {
          "name": "C7",
          "midi": 96,
          "time": 74.04651162790057,
          "velocity": 0.5196850393700787,
          "duration": 0.47674418604640323
        },
        {
          "name": "A6",
          "midi": 93,
          "time": 74.05813953487731,
          "velocity": 0.23622047244094488,
          "duration": 0.0813953488371908
        },
        {
          "name": "D6",
          "midi": 86,
          "time": 74.0813953488308,
          "velocity": 0.2440944881889764,
          "duration": 0.05813953488370771
        },
        {
          "name": "C#6",
          "midi": 85,
          "time": 74.09302325580754,
          "velocity": 0.12598425196850394,
          "duration": 0.034883720930224626
        },
        {
          "name": "F#7",
          "midi": 102,
          "time": 74.11627906976102,
          "velocity": 0.1968503937007874,
          "duration": 0.19767441860460622
        },
        {
          "name": "A#5",
          "midi": 82,
          "time": 74.12790697673776,
          "velocity": 0.2992125984251969,
          "duration": 0.15116279069764005
        },
        {
          "name": "D#6",
          "midi": 87,
          "time": 74.12790697673776,
          "velocity": 0.5590551181102362,
          "duration": 0.406976744185954
        },
        {
          "name": "F#6",
          "midi": 90,
          "time": 74.12790697673776,
          "velocity": 0.16535433070866143,
          "duration": 0.05813953488370771
        },
        {
          "name": "C4",
          "midi": 60,
          "time": 74.1395348837145,
          "velocity": 0.36220472440944884,
          "duration": 0.10465116279067388
        },
        {
          "name": "F4",
          "midi": 65,
          "time": 74.1395348837145,
          "velocity": 0.28346456692913385,
          "duration": 0.023255813953483084
        },
        {
          "name": "A#6",
          "midi": 94,
          "time": 74.1395348837145,
          "velocity": 0.5748031496062992,
          "duration": 0.3604651162789878
        },
        {
          "name": "C#7",
          "midi": 97,
          "time": 74.1395348837145,
          "velocity": 0.2047244094488189,
          "duration": 0.11627906976741542
        },
        {
          "name": "G7",
          "midi": 103,
          "time": 74.1395348837145,
          "velocity": 0.3228346456692913,
          "duration": 0.3372093023255047
        },
        {
          "name": "D6",
          "midi": 86,
          "time": 74.15116279069125,
          "velocity": 0.13385826771653545,
          "duration": 0.10465116279067388
        },
        {
          "name": "D#5",
          "midi": 75,
          "time": 74.16279069766799,
          "velocity": 0.6771653543307087,
          "duration": 0.37209302325572935
        },
        {
          "name": "E6",
          "midi": 88,
          "time": 74.16279069766799,
          "velocity": 0.14960629921259844,
          "duration": 0.034883720930224626
        },
        {
          "name": "A6",
          "midi": 93,
          "time": 74.16279069766799,
          "velocity": 0.1968503937007874,
          "duration": 0.05813953488370771
        },
        {
          "name": "G5",
          "midi": 79,
          "time": 74.17441860464473,
          "velocity": 0.2677165354330709,
          "duration": 0.05813953488370771
        },
        {
          "name": "G#2",
          "midi": 44,
          "time": 74.18604651162147,
          "velocity": 0.14960629921259844,
          "duration": 0.04651162790696617
        },
        {
          "name": "D#4",
          "midi": 63,
          "time": 74.19767441859821,
          "velocity": 0.3228346456692913,
          "duration": 0.12790697674415696
        },
        {
          "name": "E7",
          "midi": 100,
          "time": 74.2209302325517,
          "velocity": 0.10236220472440945,
          "duration": 0.11627906976741542
        },
        {
          "name": "G#3",
          "midi": 56,
          "time": 74.23255813952844,
          "velocity": 0.29133858267716534,
          "duration": 0.1627906976743816
        },
        {
          "name": "C#6",
          "midi": 85,
          "time": 74.23255813952844,
          "velocity": 0.14960629921259844,
          "duration": 0.0813953488371908
        },
        {
          "name": "F#6",
          "midi": 90,
          "time": 74.25581395348192,
          "velocity": 0.16535433070866143,
          "duration": 0.09302325581393234
        },
        {
          "name": "G#6",
          "midi": 92,
          "time": 74.2790697674354,
          "velocity": 0.5196850393700787,
          "duration": 2.3720930232552746
        },
        {
          "name": "B5",
          "midi": 83,
          "time": 74.29069767441214,
          "velocity": 0.25196850393700787,
          "duration": 0.034883720930224626
        },
        {
          "name": "E6",
          "midi": 88,
          "time": 74.29069767441214,
          "velocity": 0.12598425196850394,
          "duration": 0.09302325581393234
        },
        {
          "name": "C#7",
          "midi": 97,
          "time": 74.30232558138889,
          "velocity": 0.3858267716535433,
          "duration": 0.48837209302314477
        },
        {
          "name": "G6",
          "midi": 91,
          "time": 74.31395348836563,
          "velocity": 0.33858267716535434,
          "duration": 0.17441860465112313
        },
        {
          "name": "G#2",
          "midi": 44,
          "time": 74.32558139534237,
          "velocity": 0.3937007874015748,
          "duration": 0.1395348837208985
        },
        {
          "name": "A#5",
          "midi": 82,
          "time": 74.32558139534237,
          "velocity": 0.28346456692913385,
          "duration": 0.10465116279067388
        },
        {
          "name": "E7",
          "midi": 100,
          "time": 74.34883720929585,
          "velocity": 0.14960629921259844,
          "duration": 0.034883720930224626
        },
        {
          "name": "G#4",
          "midi": 68,
          "time": 74.3604651162726,
          "velocity": 0.36220472440944884,
          "duration": 0.10465116279067388
        },
        {
          "name": "C#6",
          "midi": 85,
          "time": 74.37209302324933,
          "velocity": 0.12598425196850394,
          "duration": 0.06976744186044925
        },
        {
          "name": "B5",
          "midi": 83,
          "time": 74.39534883720282,
          "velocity": 0.1968503937007874,
          "duration": 0.06976744186044925
        },
        {
          "name": "C4",
          "midi": 60,
          "time": 74.40697674417956,
          "velocity": 0.25984251968503935,
          "duration": 0.05813953488370771
        },
        {
          "name": "F#6",
          "midi": 90,
          "time": 74.40697674417956,
          "velocity": 0.10236220472440945,
          "duration": 0.04651162790696617
        },
        {
          "name": "G#3",
          "midi": 56,
          "time": 74.43023255813304,
          "velocity": 0.4015748031496063,
          "duration": 0.034883720930224626
        },
        {
          "name": "A6",
          "midi": 93,
          "time": 74.43023255813304,
          "velocity": 0.14173228346456693,
          "duration": 0.09302325581393234
        },
        {
          "name": "F4",
          "midi": 65,
          "time": 74.45348837208653,
          "velocity": 0.3937007874015748,
          "duration": 0.05813953488370771
        },
        {
          "name": "A#5",
          "midi": 82,
          "time": 74.45348837208653,
          "velocity": 0.1732283464566929,
          "duration": 0.0813953488371908
        },
        {
          "name": "C3",
          "midi": 48,
          "time": 74.46511627906327,
          "velocity": 0.6535433070866141,
          "duration": 0.011627906976741542
        },
        {
          "name": "B4",
          "midi": 71,
          "time": 74.46511627906327,
          "velocity": 0.3700787401574803,
          "duration": 0.023255813953483084
        },
        {
          "name": "C#6",
          "midi": 85,
          "time": 74.46511627906327,
          "velocity": 0.4881889763779528,
          "duration": 0.9186046511625818
        },
        {
          "name": "E6",
          "midi": 88,
          "time": 74.46511627906327,
          "velocity": 0.2677165354330709,
          "duration": 0.06976744186044925
        },
        {
          "name": "A2",
          "midi": 45,
          "time": 74.47674418604001,
          "velocity": 0.7401574803149606,
          "duration": 0.011627906976741542
        },
        {
          "name": "F#6",
          "midi": 90,
          "time": 74.47674418604001,
          "velocity": 0.1732283464566929,
          "duration": 0.0813953488371908
        },
        {
          "name": "F2",
          "midi": 41,
          "time": 74.48837209301675,
          "velocity": 0.7874015748031497,
          "duration": 0.011627906976741542
        },
        {
          "name": "D2",
          "midi": 38,
          "time": 74.49999999999349,
          "velocity": 0.7952755905511811,
          "duration": 0.011627906976741542
        },
        {
          "name": "C#5",
          "midi": 73,
          "time": 74.49999999999349,
          "velocity": 0.47244094488188976,
          "duration": 0.2209302325580893
        },
        {
          "name": "G6",
          "midi": 91,
          "time": 74.49999999999349,
          "velocity": 0.1968503937007874,
          "duration": 0.15116279069764005
        },
        {
          "name": "C2",
          "midi": 36,
          "time": 74.51162790697023,
          "velocity": 0.8031496062992126,
          "duration": 0.011627906976741542
        },
        {
          "name": "F3",
          "midi": 53,
          "time": 74.51162790697023,
          "velocity": 0.3543307086614173,
          "duration": 0.023255813953483084
        },
        {
          "name": "F5",
          "midi": 77,
          "time": 74.51162790697023,
          "velocity": 0.11811023622047244,
          "duration": 0.034883720930224626
        },
        {
          "name": "A#1",
          "midi": 34,
          "time": 74.52325581394697,
          "velocity": 0.7952755905511811,
          "duration": 0.011627906976741542
        },
        {
          "name": "F4",
          "midi": 65,
          "time": 74.52325581394697,
          "velocity": 0.36220472440944884,
          "duration": 0.279069767441797
        },
        {
          "name": "A1",
          "midi": 33,
          "time": 74.53488372092372,
          "velocity": 0.7874015748031497,
          "duration": 0.034883720930224626
        },
        {
          "name": "E3",
          "midi": 52,
          "time": 74.53488372092372,
          "velocity": 0.3464566929133858,
          "duration": 0.023255813953483084
        },
        {
          "name": "F6",
          "midi": 89,
          "time": 74.53488372092372,
          "velocity": 0.2440944881889764,
          "duration": 0.17441860465112313
        },
        {
          "name": "A#3",
          "midi": 58,
          "time": 74.54651162790046,
          "velocity": 0.2677165354330709,
          "duration": 0.10465116279067388
        },
        {
          "name": "D#5",
          "midi": 75,
          "time": 74.54651162790046,
          "velocity": 0.33070866141732286,
          "duration": 0.10465116279067388
        },
        {
          "name": "C6",
          "midi": 84,
          "time": 74.54651162790046,
          "velocity": 0.18110236220472442,
          "duration": 0.06976744186044925
        },
        {
          "name": "F7",
          "midi": 101,
          "time": 74.54651162790046,
          "velocity": 0.3543307086614173,
          "duration": 1.093023255813705
        },
        {
          "name": "G#1",
          "midi": 32,
          "time": 74.56976744185394,
          "velocity": 0.7559055118110236,
          "duration": 0.023255813953483084
        },
        {
          "name": "F5",
          "midi": 77,
          "time": 74.56976744185394,
          "velocity": 0.4094488188976378,
          "duration": 0.6162790697673017
        },
        {
          "name": "A#2",
          "midi": 46,
          "time": 74.58139534883068,
          "velocity": 0.41732283464566927,
          "duration": 0.05813953488370771
        },
        {
          "name": "A#4",
          "midi": 70,
          "time": 74.58139534883068,
          "velocity": 0.5039370078740157,
          "duration": 0.3604651162789878
        },
        {
          "name": "G#5",
          "midi": 80,
          "time": 74.58139534883068,
          "velocity": 0.16535433070866143,
          "duration": 0.04651162790696617
        },
        {
          "name": "E6",
          "midi": 88,
          "time": 74.58139534883068,
          "velocity": 0.09448818897637795,
          "duration": 0.034883720930224626
        },
        {
          "name": "G1",
          "midi": 31,
          "time": 74.59302325580742,
          "velocity": 0.7165354330708661,
          "duration": 0.011627906976741542
        },
        {
          "name": "F#6",
          "midi": 90,
          "time": 74.59302325580742,
          "velocity": 0.2283464566929134,
          "duration": 0.15116279069764005
        },
        {
          "name": "A#6",
          "midi": 94,
          "time": 74.59302325580742,
          "velocity": 0.23622047244094488,
          "duration": 0.23255813953483084
        },
        {
          "name": "F#1",
          "midi": 30,
          "time": 74.60465116278417,
          "velocity": 0.7165354330708661,
          "duration": 0.034883720930224626
        },
        {
          "name": "F3",
          "midi": 53,
          "time": 74.60465116278417,
          "velocity": 0.25984251968503935,
          "duration": 0.04651162790696617
        },
        {
          "name": "G#4",
          "midi": 68,
          "time": 74.62790697673765,
          "velocity": 0.1732283464566929,
          "duration": 0.034883720930224626
        },
        {
          "name": "C7",
          "midi": 96,
          "time": 74.62790697673765,
          "velocity": 0.18110236220472442,
          "duration": 0.09302325581393234
        },
        {
          "name": "G1",
          "midi": 31,
          "time": 74.63953488371439,
          "velocity": 0.7401574803149606,
          "duration": 0.011627906976741542
        },
        {
          "name": "D7",
          "midi": 98,
          "time": 74.63953488371439,
          "velocity": 0.3464566929133858,
          "duration": 0.6046511627905602
        },
        {
          "name": "G#1",
          "midi": 32,
          "time": 74.65116279069113,
          "velocity": 0.7559055118110236,
          "duration": 0.034883720930224626
        },
        {
          "name": "G#5",
          "midi": 80,
          "time": 74.65116279069113,
          "velocity": 0.29133858267716534,
          "duration": 0.29069767441853855
        },
        {
          "name": "C6",
          "midi": 84,
          "time": 74.65116279069113,
          "velocity": 0.16535433070866143,
          "duration": 0.04651162790696617
        },
        {
          "name": "E6",
          "midi": 88,
          "time": 74.65116279069113,
          "velocity": 0.1732283464566929,
          "duration": 0.0813953488371908
        },
        {
          "name": "G6",
          "midi": 91,
          "time": 74.66279069766787,
          "velocity": 0.18110236220472442,
          "duration": 0.06976744186044925
        },
        {
          "name": "A1",
          "midi": 33,
          "time": 74.68604651162136,
          "velocity": 0.6141732283464567,
          "duration": 0.011627906976741542
        },
        {
          "name": "D#5",
          "midi": 75,
          "time": 74.68604651162136,
          "velocity": 0.33070866141732286,
          "duration": 0.11627906976741542
        },
        {
          "name": "A#2",
          "midi": 46,
          "time": 74.6976744185981,
          "velocity": 0.4330708661417323,
          "duration": 0.023255813953483084
        },
        {
          "name": "F3",
          "midi": 53,
          "time": 74.6976744185981,
          "velocity": 0.5669291338582677,
          "duration": 0.12790697674415696
        },
        {
          "name": "C#2",
          "midi": 37,
          "time": 74.70930232557484,
          "velocity": 0.5905511811023622,
          "duration": 0.011627906976741542
        },
        {
          "name": "A6",
          "midi": 93,
          "time": 74.70930232557484,
          "velocity": 0.11811023622047244,
          "duration": 0.034883720930224626
        },
        {
          "name": "D#7",
          "midi": 99,
          "time": 74.70930232557484,
          "velocity": 0.2992125984251969,
          "duration": 0.6395348837207848
        },
        {
          "name": "A#1",
          "midi": 34,
          "time": 74.72093023255158,
          "velocity": 0.6771653543307087,
          "duration": 0.011627906976741542
        },
        {
          "name": "B5",
          "midi": 83,
          "time": 74.72093023255158,
          "velocity": 0.1732283464566929,
          "duration": 0.034883720930224626
        },
        {
          "name": "A1",
          "midi": 33,
          "time": 74.73255813952832,
          "velocity": 0.7086614173228346,
          "duration": 0.023255813953483084
        },
        {
          "name": "C#5",
          "midi": 73,
          "time": 74.73255813952832,
          "velocity": 0.6062992125984252,
          "duration": 0.4418604651161786
        },
        {
          "name": "F6",
          "midi": 89,
          "time": 74.73255813952832,
          "velocity": 0.4409448818897638,
          "duration": 0.5348837209301109
        },
        {
          "name": "C7",
          "midi": 96,
          "time": 74.73255813952832,
          "velocity": 0.33858267716535434,
          "duration": 0.4418604651161786
        },
        {
          "name": "D6",
          "midi": 86,
          "time": 74.74418604650506,
          "velocity": 0.25196850393700787,
          "duration": 0.11627906976741542
        },
        {
          "name": "G6",
          "midi": 91,
          "time": 74.74418604650506,
          "velocity": 0.14960629921259844,
          "duration": 0.034883720930224626
        },
        {
          "name": "E7",
          "midi": 100,
          "time": 74.74418604650506,
          "velocity": 0.07874015748031496,
          "duration": 0.034883720930224626
        },
        {
          "name": "A#1",
          "midi": 34,
          "time": 74.7558139534818,
          "velocity": 0.7086614173228346,
          "duration": 0.3837209302324709
        },
        {
          "name": "C6",
          "midi": 84,
          "time": 74.76744186045855,
          "velocity": 0.2047244094488189,
          "duration": 0.04651162790696617
        },
        {
          "name": "E6",
          "midi": 88,
          "time": 74.76744186045855,
          "velocity": 0.1889763779527559,
          "duration": 0.04651162790696617
        },
        {
          "name": "F#6",
          "midi": 90,
          "time": 74.76744186045855,
          "velocity": 0.18110236220472442,
          "duration": 0.034883720930224626
        },
        {
          "name": "A6",
          "midi": 93,
          "time": 74.76744186045855,
          "velocity": 0.15748031496062992,
          "duration": 0.09302325581393234
        },
        {
          "name": "B6",
          "midi": 95,
          "time": 74.76744186045855,
          "velocity": 0.2992125984251969,
          "duration": 0.279069767441797
        },
        {
          "name": "C#4",
          "midi": 61,
          "time": 74.79069767441203,
          "velocity": 0.33070866141732286,
          "duration": 0.034883720930224626
        },
        {
          "name": "G5",
          "midi": 79,
          "time": 74.80232558138877,
          "velocity": 0.2440944881889764,
          "duration": 0.023255813953483084
        },
        {
          "name": "G6",
          "midi": 91,
          "time": 74.80232558138877,
          "velocity": 0.25196850393700787,
          "duration": 0.034883720930224626
        },
        {
          "name": "F#7",
          "midi": 102,
          "time": 74.81395348836551,
          "velocity": 0.14960629921259844,
          "duration": 0.17441860465112313
        },
        {
          "name": "D#5",
          "midi": 75,
          "time": 74.837209302319,
          "velocity": 0.3464566929133858,
          "duration": 0.24418604651157239
        },
        {
          "name": "F3",
          "midi": 53,
          "time": 74.84883720929574,
          "velocity": 0.25196850393700787,
          "duration": 0.06976744186044925
        },
        {
          "name": "C4",
          "midi": 60,
          "time": 74.84883720929574,
          "velocity": 0.3228346456692913,
          "duration": 0.023255813953483084
        },
        {
          "name": "G6",
          "midi": 91,
          "time": 74.84883720929574,
          "velocity": 0.3858267716535433,
          "duration": 0.09302325581393234
        },
        {
          "name": "A5",
          "midi": 81,
          "time": 74.86046511627248,
          "velocity": 0.29133858267716534,
          "duration": 0.023255813953483084
        },
        {
          "name": "F#6",
          "midi": 90,
          "time": 74.86046511627248,
          "velocity": 0.2992125984251969,
          "duration": 0.05813953488370771
        },
        {
          "name": "C#4",
          "midi": 61,
          "time": 74.87209302324922,
          "velocity": 0.33070866141732286,
          "duration": 0.034883720930224626
        },
        {
          "name": "D6",
          "midi": 86,
          "time": 74.87209302324922,
          "velocity": 0.2992125984251969,
          "duration": 0.05813953488370771
        },
        {
          "name": "A6",
          "midi": 93,
          "time": 74.88372093022596,
          "velocity": 0.28346456692913385,
          "duration": 0.23255813953483084
        },
        {
          "name": "C6",
          "midi": 84,
          "time": 74.8953488372027,
          "velocity": 0.36220472440944884,
          "duration": 0.10465116279067388
        },
        {
          "name": "F3",
          "midi": 53,
          "time": 74.93023255813293,
          "velocity": 0.29133858267716534,
          "duration": 0.06976744186044925
        },
        {
          "name": "G#4",
          "midi": 68,
          "time": 74.93023255813293,
          "velocity": 0.29133858267716534,
          "duration": 0.023255813953483084
        },
        {
          "name": "C#4",
          "midi": 61,
          "time": 74.94186046510967,
          "velocity": 0.23622047244094488,
          "duration": 0.023255813953483084
        },
        {
          "name": "G6",
          "midi": 91,
          "time": 74.95348837208641,
          "velocity": 0.1889763779527559,
          "duration": 0.05813953488370771
        },
        {
          "name": "A#4",
          "midi": 70,
          "time": 74.96511627906315,
          "velocity": 0.41732283464566927,
          "duration": 0.1627906976743816
        },
        {
          "name": "D6",
          "midi": 86,
          "time": 74.96511627906315,
          "velocity": 0.2283464566929134,
          "duration": 0.023255813953483084
        },
        {
          "name": "C#4",
          "midi": 61,
          "time": 74.9767441860399,
          "velocity": 0.2677165354330709,
          "duration": 0.034883720930224626
        },
        {
          "name": "E6",
          "midi": 88,
          "time": 74.9767441860399,
          "velocity": 0.2440944881889764,
          "duration": 0.0813953488371908
        },
        {
          "name": "F3",
          "midi": 53,
          "time": 75.01162790697012,
          "velocity": 0.3700787401574803,
          "duration": 0.10465116279067388
        },
        {
          "name": "A#3",
          "midi": 58,
          "time": 75.01162790697012,
          "velocity": 0.4330708661417323,
          "duration": 0.05813953488370771
        },
        {
          "name": "G#5",
          "midi": 80,
          "time": 75.01162790697012,
          "velocity": 0.1968503937007874,
          "duration": 0.06976744186044925
        },
        {
          "name": "C6",
          "midi": 84,
          "time": 75.01162790697012,
          "velocity": 0.3779527559055118,
          "duration": 0.15116279069764005
        },
        {
          "name": "G#4",
          "midi": 68,
          "time": 75.02325581394686,
          "velocity": 0.18110236220472442,
          "duration": 0.06976744186044925
        },
        {
          "name": "F#6",
          "midi": 90,
          "time": 75.02325581394686,
          "velocity": 0.1732283464566929,
          "duration": 0.05813953488370771
        },
        {
          "name": "D6",
          "midi": 86,
          "time": 75.05813953487709,
          "velocity": 0.2204724409448819,
          "duration": 0.04651162790696617
        },
        {
          "name": "A#3",
          "midi": 58,
          "time": 75.08139534883057,
          "velocity": 0.3937007874015748,
          "duration": 0.37209302325572935
        },
        {
          "name": "G5",
          "midi": 79,
          "time": 75.08139534883057,
          "velocity": 0.08661417322834646,
          "duration": 0.034883720930224626
        },
        {
          "name": "G6",
          "midi": 91,
          "time": 75.08139534883057,
          "velocity": 0.28346456692913385,
          "duration": 0.23255813953483084
        },
        {
          "name": "E6",
          "midi": 88,
          "time": 75.09302325580731,
          "velocity": 0.3228346456692913,
          "duration": 0.11627906976741542
        },
        {
          "name": "B2",
          "midi": 47,
          "time": 75.10465116278405,
          "velocity": 0.3858267716535433,
          "duration": 0.034883720930224626
        },
        {
          "name": "G#5",
          "midi": 80,
          "time": 75.10465116278405,
          "velocity": 0.3937007874015748,
          "duration": 0.023255813953483084
        },
        {
          "name": "F#6",
          "midi": 90,
          "time": 75.10465116278405,
          "velocity": 0.29133858267716534,
          "duration": 0.15116279069764005
        },
        {
          "name": "D#6",
          "midi": 87,
          "time": 75.1162790697608,
          "velocity": 0.3543307086614173,
          "duration": 0.04651162790696617
        },
        {
          "name": "A4",
          "midi": 69,
          "time": 75.12790697673753,
          "velocity": 0.5354330708661418,
          "duration": 0.04651162790696617
        },
        {
          "name": "B5",
          "midi": 83,
          "time": 75.12790697673753,
          "velocity": 0.2992125984251969,
          "duration": 0.05813953488370771
        },
        {
          "name": "E4",
          "midi": 64,
          "time": 75.13953488371428,
          "velocity": 0.2440944881889764,
          "duration": 0.034883720930224626
        },
        {
          "name": "G#5",
          "midi": 80,
          "time": 75.13953488371428,
          "velocity": 0.29133858267716534,
          "duration": 0.10465116279067388
        },
        {
          "name": "C#4",
          "midi": 61,
          "time": 75.1744186046445,
          "velocity": 0.1732283464566929,
          "duration": 0.06976744186044925
        },
        {
          "name": "A#5",
          "midi": 82,
          "time": 75.1744186046445,
          "velocity": 0.2047244094488189,
          "duration": 0.10465116279067388
        },
        {
          "name": "A6",
          "midi": 93,
          "time": 75.1744186046445,
          "velocity": 0.1968503937007874,
          "duration": 0.0813953488371908
        },
        {
          "name": "A4",
          "midi": 69,
          "time": 75.18604651162124,
          "velocity": 0.16535433070866143,
          "duration": 0.04651162790696617
        },
        {
          "name": "C6",
          "midi": 84,
          "time": 75.18604651162124,
          "velocity": 0.16535433070866143,
          "duration": 0.05813953488370771
        },
        {
          "name": "C#5",
          "midi": 73,
          "time": 75.19767441859798,
          "velocity": 0.5354330708661418,
          "duration": 0.6279069767440433
        },
        {
          "name": "D6",
          "midi": 86,
          "time": 75.19767441859798,
          "velocity": 0.15748031496062992,
          "duration": 0.05813953488370771
        },
        {
          "name": "C7",
          "midi": 96,
          "time": 75.19767441859798,
          "velocity": 0.4015748031496063,
          "duration": 0.6162790697673017
        },
        {
          "name": "D#6",
          "midi": 87,
          "time": 75.22093023255147,
          "velocity": 0.29133858267716534,
          "duration": 0.05813953488370771
        },
        {
          "name": "F#5",
          "midi": 78,
          "time": 75.23255813952821,
          "velocity": 0.1889763779527559,
          "duration": 0.06976744186044925
        },
        {
          "name": "A5",
          "midi": 81,
          "time": 75.23255813952821,
          "velocity": 0.2125984251968504,
          "duration": 0.06976744186044925
        },
        {
          "name": "E6",
          "midi": 88,
          "time": 75.23255813952821,
          "velocity": 0.11023622047244094,
          "duration": 0.04651162790696617
        },
        {
          "name": "E7",
          "midi": 100,
          "time": 75.25581395348169,
          "velocity": 0.15748031496062992,
          "duration": 0.04651162790696617
        },
        {
          "name": "G#4",
          "midi": 68,
          "time": 75.26744186045843,
          "velocity": 0.3779527559055118,
          "duration": 0.034883720930224626
        },
        {
          "name": "E5",
          "midi": 76,
          "time": 75.26744186045843,
          "velocity": 0.15748031496062992,
          "duration": 0.04651162790696617
        },
        {
          "name": "B5",
          "midi": 83,
          "time": 75.26744186045843,
          "velocity": 0.1968503937007874,
          "duration": 0.04651162790696617
        },
        {
          "name": "C6",
          "midi": 84,
          "time": 75.26744186045843,
          "velocity": 0.23622047244094488,
          "duration": 0.023255813953483084
        },
        {
          "name": "F#6",
          "midi": 90,
          "time": 75.26744186045843,
          "velocity": 0.25196850393700787,
          "duration": 0.09302325581393234
        },
        {
          "name": "A#6",
          "midi": 94,
          "time": 75.26744186045843,
          "velocity": 0.3858267716535433,
          "duration": 0.5930232558138187
        },
        {
          "name": "A#2",
          "midi": 46,
          "time": 75.27906976743517,
          "velocity": 0.31496062992125984,
          "duration": 0.17441860465112313
        },
        {
          "name": "G5",
          "midi": 79,
          "time": 75.27906976743517,
          "velocity": 0.2204724409448819,
          "duration": 0.034883720930224626
        },
        {
          "name": "D6",
          "midi": 86,
          "time": 75.27906976743517,
          "velocity": 0.30708661417322836,
          "duration": 0.09302325581393234
        },
        {
          "name": "A4",
          "midi": 69,
          "time": 75.30232558138866,
          "velocity": 0.3700787401574803,
          "duration": 0.023255813953483084
        },
        {
          "name": "A#5",
          "midi": 82,
          "time": 75.30232558138866,
          "velocity": 0.3779527559055118,
          "duration": 0.18604651162786467
        },
        {
          "name": "D#6",
          "midi": 87,
          "time": 75.30232558138866,
          "velocity": 0.10236220472440945,
          "duration": 0.034883720930224626
        },
        {
          "name": "F6",
          "midi": 89,
          "time": 75.30232558138866,
          "velocity": 0.41732283464566927,
          "duration": 0.5930232558138187
        },
        {
          "name": "F4",
          "midi": 65,
          "time": 75.3139534883654,
          "velocity": 0.49606299212598426,
          "duration": 0.48837209302314477
        },
        {
          "name": "A5",
          "midi": 81,
          "time": 75.32558139534214,
          "velocity": 0.33070866141732286,
          "duration": 0.034883720930224626
        },
        {
          "name": "E6",
          "midi": 88,
          "time": 75.32558139534214,
          "velocity": 0.14173228346456693,
          "duration": 0.05813953488370771
        },
        {
          "name": "D7",
          "midi": 98,
          "time": 75.32558139534214,
          "velocity": 0.30708661417322836,
          "duration": 0.29069767441853855
        },
        {
          "name": "E7",
          "midi": 100,
          "time": 75.32558139534214,
          "velocity": 0.16535433070866143,
          "duration": 0.09302325581393234
        },
        {
          "name": "C6",
          "midi": 84,
          "time": 75.33720930231888,
          "velocity": 0.3779527559055118,
          "duration": 0.24418604651157239
        },
        {
          "name": "A6",
          "midi": 93,
          "time": 75.33720930231888,
          "velocity": 0.3700787401574803,
          "duration": 0.10465116279067388
        },
        {
          "name": "A#4",
          "midi": 70,
          "time": 75.34883720929562,
          "velocity": 0.5748031496062992,
          "duration": 0.12790697674415696
        },
        {
          "name": "G6",
          "midi": 91,
          "time": 75.34883720929562,
          "velocity": 0.2677165354330709,
          "duration": 0.17441860465112313
        },
        {
          "name": "D#6",
          "midi": 87,
          "time": 75.36046511627237,
          "velocity": 0.23622047244094488,
          "duration": 0.023255813953483084
        },
        {
          "name": "A5",
          "midi": 81,
          "time": 75.3720930232491,
          "velocity": 0.13385826771653545,
          "duration": 0.04651162790696617
        },
        {
          "name": "B5",
          "midi": 83,
          "time": 75.39534883720259,
          "velocity": 0.2283464566929134,
          "duration": 0.023255813953483084
        },
        {
          "name": "D#6",
          "midi": 87,
          "time": 75.40697674417933,
          "velocity": 0.3543307086614173,
          "duration": 0.034883720930224626
        },
        {
          "name": "F#6",
          "midi": 90,
          "time": 75.41860465115607,
          "velocity": 0.1968503937007874,
          "duration": 0.034883720930224626
        },
        {
          "name": "B6",
          "midi": 95,
          "time": 75.43023255813281,
          "velocity": 0.12598425196850394,
          "duration": 0.06976744186044925
        },
        {
          "name": "D6",
          "midi": 86,
          "time": 75.44186046510956,
          "velocity": 0.30708661417322836,
          "duration": 0.09302325581393234
        },
        {
          "name": "C#4",
          "midi": 61,
          "time": 75.4534883720863,
          "velocity": 0.44881889763779526,
          "duration": 0.0813953488371908
        },
        {
          "name": "G#5",
          "midi": 80,
          "time": 75.4534883720863,
          "velocity": 0.4645669291338583,
          "duration": 0.31395348837202164
        },
        {
          "name": "D#6",
          "midi": 87,
          "time": 75.4534883720863,
          "velocity": 0.4881889763779528,
          "duration": 0.3372093023255047
        },
        {
          "name": "A6",
          "midi": 93,
          "time": 75.4534883720863,
          "velocity": 0.1889763779527559,
          "duration": 0.09302325581393234
        },
        {
          "name": "D#7",
          "midi": 99,
          "time": 75.4534883720863,
          "velocity": 0.5196850393700787,
          "duration": 1.2906976744183112
        },
        {
          "name": "F#7",
          "midi": 102,
          "time": 75.4534883720863,
          "velocity": 0.41732283464566927,
          "duration": 0.26744186046505547
        },
        {
          "name": "A#2",
          "midi": 46,
          "time": 75.46511627906304,
          "velocity": 0.2440944881889764,
          "duration": 0.05813953488370771
        },
        {
          "name": "A4",
          "midi": 69,
          "time": 75.46511627906304,
          "velocity": 0.4566929133858268,
          "duration": 0.023255813953483084
        },
        {
          "name": "F#6",
          "midi": 90,
          "time": 75.47674418603978,
          "velocity": 0.2677165354330709,
          "duration": 0.12790697674415696
        },
        {
          "name": "G#4",
          "midi": 68,
          "time": 75.48837209301652,
          "velocity": 0.6614173228346457,
          "duration": 0.2558139534883139
        },
        {
          "name": "B5",
          "midi": 83,
          "time": 75.49999999999326,
          "velocity": 0.31496062992125984,
          "duration": 0.04651162790696617
        },
        {
          "name": "D#5",
          "midi": 75,
          "time": 75.51162790697,
          "velocity": 0.33070866141732286,
          "duration": 0.023255813953483084
        },
        {
          "name": "A#5",
          "midi": 82,
          "time": 75.51162790697,
          "velocity": 0.29133858267716534,
          "duration": 0.19767441860460622
        },
        {
          "name": "A5",
          "midi": 81,
          "time": 75.52325581394675,
          "velocity": 0.08661417322834646,
          "duration": 0.034883720930224626
        },
        {
          "name": "E6",
          "midi": 88,
          "time": 75.52325581394675,
          "velocity": 0.2440944881889764,
          "duration": 0.023255813953483084
        },
        {
          "name": "A#2",
          "midi": 46,
          "time": 75.53488372092349,
          "velocity": 0.16535433070866143,
          "duration": 0.09302325581393234
        },
        {
          "name": "A#3",
          "midi": 58,
          "time": 75.53488372092349,
          "velocity": 0.3228346456692913,
          "duration": 0.17441860465112313
        },
        {
          "name": "G6",
          "midi": 91,
          "time": 75.53488372092349,
          "velocity": 0.1968503937007874,
          "duration": 0.0813953488371908
        },
        {
          "name": "E7",
          "midi": 100,
          "time": 75.54651162790023,
          "velocity": 0.09448818897637795,
          "duration": 0.05813953488370771
        },
        {
          "name": "A#4",
          "midi": 70,
          "time": 75.55813953487697,
          "velocity": 0.33858267716535434,
          "duration": 0.023255813953483084
        },
        {
          "name": "A6",
          "midi": 93,
          "time": 75.58139534883045,
          "velocity": 0.15748031496062992,
          "duration": 0.034883720930224626
        },
        {
          "name": "C6",
          "midi": 84,
          "time": 75.5930232558072,
          "velocity": 0.28346456692913385,
          "duration": 0.0813953488371908
        },
        {
          "name": "F#6",
          "midi": 90,
          "time": 75.61627906976068,
          "velocity": 0.2125984251968504,
          "duration": 0.0813953488371908
        },
        {
          "name": "B2",
          "midi": 47,
          "time": 75.62790697673742,
          "velocity": 0.08661417322834646,
          "duration": 0.034883720930224626
        },
        {
          "name": "B6",
          "midi": 95,
          "time": 75.62790697673742,
          "velocity": 0.09448818897637795,
          "duration": 0.04651162790696617
        },
        {
          "name": "D7",
          "midi": 98,
          "time": 75.62790697673742,
          "velocity": 0.18110236220472442,
          "duration": 0.15116279069764005
        },
        {
          "name": "E7",
          "midi": 100,
          "time": 75.62790697673742,
          "velocity": 0.09448818897637795,
          "duration": 0.04651162790696617
        },
        {
          "name": "D6",
          "midi": 86,
          "time": 75.63953488371416,
          "velocity": 0.16535433070866143,
          "duration": 0.04651162790696617
        },
        {
          "name": "A6",
          "midi": 93,
          "time": 75.63953488371416,
          "velocity": 0.1889763779527559,
          "duration": 0.12790697674415696
        },
        {
          "name": "C#4",
          "midi": 61,
          "time": 75.6511627906909,
          "velocity": 0.1968503937007874,
          "duration": 0.04651162790696617
        },
        {
          "name": "B5",
          "midi": 83,
          "time": 75.66279069766765,
          "velocity": 0.2047244094488189,
          "duration": 0.034883720930224626
        },
        {
          "name": "B2",
          "midi": 47,
          "time": 75.67441860464439,
          "velocity": 0.08661417322834646,
          "duration": 0.034883720930224626
        },
        {
          "name": "C6",
          "midi": 84,
          "time": 75.69767441859787,
          "velocity": 0.2125984251968504,
          "duration": 0.04651162790696617
        },
        {
          "name": "A#2",
          "midi": 46,
          "time": 75.70930232557461,
          "velocity": 0.2440944881889764,
          "duration": 0.05813953488370771
        },
        {
          "name": "B5",
          "midi": 83,
          "time": 75.70930232557461,
          "velocity": 0.14960629921259844,
          "duration": 0.034883720930224626
        },
        {
          "name": "F#6",
          "midi": 90,
          "time": 75.70930232557461,
          "velocity": 0.1889763779527559,
          "duration": 0.06976744186044925
        },
        {
          "name": "D#5",
          "midi": 75,
          "time": 75.72093023255135,
          "velocity": 0.2125984251968504,
          "duration": 0.06976744186044925
        },
        {
          "name": "A#3",
          "midi": 58,
          "time": 75.7325581395281,
          "velocity": 0.31496062992125984,
          "duration": 0.034883720930224626
        },
        {
          "name": "A#4",
          "midi": 70,
          "time": 75.7325581395281,
          "velocity": 0.48031496062992124,
          "duration": 0.04651162790696617
        },
        {
          "name": "F#5",
          "midi": 78,
          "time": 75.75581395348158,
          "velocity": 0.2125984251968504,
          "duration": 0.06976744186044925
        },
        {
          "name": "C6",
          "midi": 84,
          "time": 75.75581395348158,
          "velocity": 0.1732283464566929,
          "duration": 0.05813953488370771
        },
        {
          "name": "C3",
          "midi": 48,
          "time": 75.76744186045832,
          "velocity": 0.7086614173228346,
          "duration": 0.023255813953483084
        },
        {
          "name": "D6",
          "midi": 86,
          "time": 75.76744186045832,
          "velocity": 0.2204724409448819,
          "duration": 0.05813953488370771
        },
        {
          "name": "E6",
          "midi": 88,
          "time": 75.76744186045832,
          "velocity": 0.15748031496062992,
          "duration": 0.04651162790696617
        },
        {
          "name": "B5",
          "midi": 83,
          "time": 75.77906976743506,
          "velocity": 0.2755905511811024,
          "duration": 0.04651162790696617
        },
        {
          "name": "G6",
          "midi": 91,
          "time": 75.77906976743506,
          "velocity": 0.2047244094488189,
          "duration": 0.06976744186044925
        },
        {
          "name": "F#2",
          "midi": 42,
          "time": 75.7906976744118,
          "velocity": 0.7716535433070866,
          "duration": 0.011627906976741542
        },
        {
          "name": "G#5",
          "midi": 80,
          "time": 75.7906976744118,
          "velocity": 0.6456692913385826,
          "duration": 1.3023255813950527
        },
        {
          "name": "D2",
          "midi": 38,
          "time": 75.80232558138854,
          "velocity": 0.7716535433070866,
          "duration": 0.011627906976741542
        },
        {
          "name": "E3",
          "midi": 52,
          "time": 75.80232558138854,
          "velocity": 0.5118110236220472,
          "duration": 0.011627906976741542
        },
        {
          "name": "C#2",
          "midi": 37,
          "time": 75.81395348836529,
          "velocity": 0.8031496062992126,
          "duration": 0.011627906976741542
        },
        {
          "name": "F3",
          "midi": 53,
          "time": 75.81395348836529,
          "velocity": 0.5669291338582677,
          "duration": 0.04651162790696617
        },
        {
          "name": "D5",
          "midi": 74,
          "time": 75.81395348836529,
          "velocity": 0.11023622047244094,
          "duration": 0.034883720930224626
        },
        {
          "name": "F5",
          "midi": 77,
          "time": 75.81395348836529,
          "velocity": 0.14173228346456693,
          "duration": 0.04651162790696617
        },
        {
          "name": "A#5",
          "midi": 82,
          "time": 75.81395348836529,
          "velocity": 0.23622047244094488,
          "duration": 0.0813953488371908
        },
        {
          "name": "D#6",
          "midi": 87,
          "time": 75.81395348836529,
          "velocity": 0.15748031496062992,
          "duration": 0.10465116279067388
        },
        {
          "name": "B1",
          "midi": 35,
          "time": 75.82558139534203,
          "velocity": 0.8031496062992126,
          "duration": 0.011627906976741542
        },
        {
          "name": "C6",
          "midi": 84,
          "time": 75.82558139534203,
          "velocity": 0.13385826771653545,
          "duration": 0.034883720930224626
        },
        {
          "name": "A#1",
          "midi": 34,
          "time": 75.83720930231877,
          "velocity": 0.7952755905511811,
          "duration": 0.011627906976741542
        },
        {
          "name": "C#4",
          "midi": 61,
          "time": 75.83720930231877,
          "velocity": 0.2204724409448819,
          "duration": 0.06976744186044925
        },
        {
          "name": "C5",
          "midi": 72,
          "time": 75.83720930231877,
          "velocity": 0.33858267716535434,
          "duration": 0.1627906976743816
        },
        {
          "name": "E6",
          "midi": 88,
          "time": 75.83720930231877,
          "velocity": 0.12598425196850394,
          "duration": 0.04651162790696617
        },
        {
          "name": "A1",
          "midi": 33,
          "time": 75.84883720929551,
          "velocity": 0.7795275590551181,
          "duration": 0.011627906976741542
        },
        {
          "name": "F#6",
          "midi": 90,
          "time": 75.84883720929551,
          "velocity": 0.09448818897637795,
          "duration": 0.04651162790696617
        },
        {
          "name": "G7",
          "midi": 103,
          "time": 75.84883720929551,
          "velocity": 0.07086614173228346,
          "duration": 0.034883720930224626
        },
        {
          "name": "G#1",
          "midi": 32,
          "time": 75.86046511627225,
          "velocity": 0.7795275590551181,
          "duration": 0.023255813953483084
        },
        {
          "name": "F4",
          "midi": 65,
          "time": 75.86046511627225,
          "velocity": 0.1968503937007874,
          "duration": 0.15116279069764005
        },
        {
          "name": "A6",
          "midi": 93,
          "time": 75.86046511627225,
          "velocity": 0.15748031496062992,
          "duration": 0.11627906976741542
        },
        {
          "name": "F3",
          "midi": 53,
          "time": 75.872093023249,
          "velocity": 0.4645669291338583,
          "duration": 0.12790697674415696
        },
        {
          "name": "G#4",
          "midi": 68,
          "time": 75.872093023249,
          "velocity": 0.2204724409448819,
          "duration": 0.0813953488371908
        },
        {
          "name": "D#5",
          "midi": 75,
          "time": 75.872093023249,
          "velocity": 0.16535433070866143,
          "duration": 0.034883720930224626
        },
        {
          "name": "F5",
          "midi": 77,
          "time": 75.872093023249,
          "velocity": 0.2125984251968504,
          "duration": 0.15116279069764005
        },
        {
          "name": "G1",
          "midi": 31,
          "time": 75.88372093022573,
          "velocity": 0.7716535433070866,
          "duration": 0.06976744186044925
        },
        {
          "name": "C#5",
          "midi": 73,
          "time": 75.90697674417922,
          "velocity": 0.23622047244094488,
          "duration": 0.023255813953483084
        },
        {
          "name": "B5",
          "midi": 83,
          "time": 75.90697674417922,
          "velocity": 0.16535433070866143,
          "duration": 0.034883720930224626
        },
        {
          "name": "D6",
          "midi": 86,
          "time": 75.91860465115596,
          "velocity": 0.23622047244094488,
          "duration": 0.05813953488370771
        },
        {
          "name": "G6",
          "midi": 91,
          "time": 75.91860465115596,
          "velocity": 0.2047244094488189,
          "duration": 0.04651162790696617
        },
        {
          "name": "A#4",
          "midi": 70,
          "time": 75.9302325581327,
          "velocity": 0.1889763779527559,
          "duration": 0.034883720930224626
        },
        {
          "name": "F#6",
          "midi": 90,
          "time": 75.9302325581327,
          "velocity": 0.16535433070866143,
          "duration": 0.12790697674415696
        },
        {
          "name": "C7",
          "midi": 96,
          "time": 75.9302325581327,
          "velocity": 0.3464566929133858,
          "duration": 0.5930232558138187
        },
        {
          "name": "F#7",
          "midi": 102,
          "time": 75.9302325581327,
          "velocity": 0.2992125984251969,
          "duration": 0.6162790697673017
        },
        {
          "name": "C#4",
          "midi": 61,
          "time": 75.94186046510944,
          "velocity": 0.2992125984251969,
          "duration": 0.12790697674415696
        },
        {
          "name": "E6",
          "midi": 88,
          "time": 75.94186046510944,
          "velocity": 0.1968503937007874,
          "duration": 0.034883720930224626
        },
        {
          "name": "G#1",
          "midi": 32,
          "time": 75.95348837208618,
          "velocity": 0.5669291338582677,
          "duration": 0.011627906976741542
        },
        {
          "name": "B6",
          "midi": 95,
          "time": 75.95348837208618,
          "velocity": 0.11023622047244094,
          "duration": 0.05813953488370771
        },
        {
          "name": "A1",
          "midi": 33,
          "time": 75.96511627906293,
          "velocity": 0.5511811023622047,
          "duration": 0.011627906976741542
        },
        {
          "name": "C3",
          "midi": 48,
          "time": 75.96511627906293,
          "velocity": 0.4645669291338583,
          "duration": 0.47674418604640323
        },
        {
          "name": "A4",
          "midi": 69,
          "time": 75.96511627906293,
          "velocity": 0.23622047244094488,
          "duration": 0.04651162790696617
        },
        {
          "name": "D#6",
          "midi": 87,
          "time": 75.96511627906293,
          "velocity": 0.2755905511811024,
          "duration": 0.15116279069764005
        },
        {
          "name": "F6",
          "midi": 89,
          "time": 75.96511627906293,
          "velocity": 0.3464566929133858,
          "duration": 0.47674418604640323
        },
        {
          "name": "G#1",
          "midi": 32,
          "time": 75.97674418603967,
          "velocity": 0.5748031496062992,
          "duration": 0.011627906976741542
        },
        {
          "name": "B5",
          "midi": 83,
          "time": 75.97674418603967,
          "velocity": 0.11023622047244094,
          "duration": 0.06976744186044925
        },
        {
          "name": "G1",
          "midi": 31,
          "time": 75.98837209301641,
          "velocity": 0.6456692913385826,
          "duration": 0.023255813953483084
        },
        {
          "name": "C#5",
          "midi": 73,
          "time": 75.98837209301641,
          "velocity": 0.48031496062992124,
          "duration": 0.5116279069766279
        },
        {
          "name": "A#5",
          "midi": 82,
          "time": 75.98837209301641,
          "velocity": 0.14173228346456693,
          "duration": 0.11627906976741542
        },
        {
          "name": "E6",
          "midi": 88,
          "time": 75.98837209301641,
          "velocity": 0.15748031496062992,
          "duration": 0.11627906976741542
        },
        {
          "name": "D7",
          "midi": 98,
          "time": 75.98837209301641,
          "velocity": 0.10236220472440945,
          "duration": 0.04651162790696617
        },
        {
          "name": "F#1",
          "midi": 30,
          "time": 76.01162790696989,
          "velocity": 0.7086614173228346,
          "duration": 0.06976744186044925
        },
        {
          "name": "G#4",
          "midi": 68,
          "time": 76.01162790696989,
          "velocity": 0.4330708661417323,
          "duration": 0.20930232558134776
        },
        {
          "name": "A6",
          "midi": 93,
          "time": 76.01162790696989,
          "velocity": 0.13385826771653545,
          "duration": 0.034883720930224626
        },
        {
          "name": "A#6",
          "midi": 94,
          "time": 76.01162790696989,
          "velocity": 0.15748031496062992,
          "duration": 0.17441860465112313
        },
        {
          "name": "C#7",
          "midi": 97,
          "time": 76.01162790696989,
          "velocity": 0.2440944881889764,
          "duration": 0.10465116279067388
        },
        {
          "name": "B6",
          "midi": 95,
          "time": 76.02325581394663,
          "velocity": 0.1732283464566929,
          "duration": 0.04651162790696617
        },
        {
          "name": "F5",
          "midi": 77,
          "time": 76.04651162790012,
          "velocity": 0.4015748031496063,
          "duration": 0.4186046511626955
        },
        {
          "name": "G6",
          "midi": 91,
          "time": 76.04651162790012,
          "velocity": 0.23622047244094488,
          "duration": 0.1395348837208985
        },
        {
          "name": "F4",
          "midi": 65,
          "time": 76.05813953487686,
          "velocity": 0.2755905511811024,
          "duration": 0.034883720930224626
        },
        {
          "name": "C6",
          "midi": 84,
          "time": 76.05813953487686,
          "velocity": 0.2204724409448819,
          "duration": 0.034883720930224626
        },
        {
          "name": "F1",
          "midi": 29,
          "time": 76.08139534883034,
          "velocity": 0.7244094488188977,
          "duration": 0.34883720930224626
        },
        {
          "name": "B5",
          "midi": 83,
          "time": 76.08139534883034,
          "velocity": 0.2440944881889764,
          "duration": 0.05813953488370771
        },
        {
          "name": "A6",
          "midi": 93,
          "time": 76.08139534883034,
          "velocity": 0.2125984251968504,
          "duration": 0.034883720930224626
        },
        {
          "name": "D7",
          "midi": 98,
          "time": 76.08139534883034,
          "velocity": 0.1732283464566929,
          "duration": 0.12790697674415696
        },
        {
          "name": "C#4",
          "midi": 61,
          "time": 76.09302325580708,
          "velocity": 0.47244094488188976,
          "duration": 0.1627906976743816
        },
        {
          "name": "E7",
          "midi": 100,
          "time": 76.09302325580708,
          "velocity": 0.1889763779527559,
          "duration": 0.10465116279067388
        },
        {
          "name": "F#4",
          "midi": 66,
          "time": 76.10465116278382,
          "velocity": 0.4409448818897638,
          "duration": 0.034883720930224626
        },
        {
          "name": "C6",
          "midi": 84,
          "time": 76.10465116278382,
          "velocity": 0.36220472440944884,
          "duration": 0.48837209302314477
        },
        {
          "name": "F#6",
          "midi": 90,
          "time": 76.10465116278382,
          "velocity": 0.16535433070866143,
          "duration": 0.04651162790696617
        },
        {
          "name": "G#3",
          "midi": 56,
          "time": 76.11627906976057,
          "velocity": 0.3779527559055118,
          "duration": 0.05813953488370771
        },
        {
          "name": "A#5",
          "midi": 82,
          "time": 76.11627906976057,
          "velocity": 0.1732283464566929,
          "duration": 0.034883720930224626
        },
        {
          "name": "D6",
          "midi": 86,
          "time": 76.11627906976057,
          "velocity": 0.25196850393700787,
          "duration": 0.1395348837208985
        },
        {
          "name": "D#6",
          "midi": 87,
          "time": 76.12790697673731,
          "velocity": 0.2755905511811024,
          "duration": 0.11627906976741542
        },
        {
          "name": "A6",
          "midi": 93,
          "time": 76.12790697673731,
          "velocity": 0.25196850393700787,
          "duration": 0.10465116279067388
        },
        {
          "name": "F4",
          "midi": 65,
          "time": 76.13953488371405,
          "velocity": 0.4409448818897638,
          "duration": 0.10465116279067388
        },
        {
          "name": "B6",
          "midi": 95,
          "time": 76.15116279069079,
          "velocity": 0.15748031496062992,
          "duration": 0.24418604651157239
        },
        {
          "name": "C#7",
          "midi": 97,
          "time": 76.15116279069079,
          "velocity": 0.30708661417322836,
          "duration": 0.4999999999998863
        },
        {
          "name": "D#5",
          "midi": 75,
          "time": 76.16279069766753,
          "velocity": 0.2204724409448819,
          "duration": 0.04651162790696617
        },
        {
          "name": "A#5",
          "midi": 82,
          "time": 76.16279069766753,
          "velocity": 0.2204724409448819,
          "duration": 0.034883720930224626
        },
        {
          "name": "A#6",
          "midi": 94,
          "time": 76.19767441859776,
          "velocity": 0.2440944881889764,
          "duration": 0.04651162790696617
        },
        {
          "name": "G6",
          "midi": 91,
          "time": 76.2093023255745,
          "velocity": 0.14960629921259844,
          "duration": 0.04651162790696617
        },
        {
          "name": "A4",
          "midi": 69,
          "time": 76.22093023255124,
          "velocity": 0.2992125984251969,
          "duration": 0.034883720930224626
        },
        {
          "name": "F#6",
          "midi": 90,
          "time": 76.22093023255124,
          "velocity": 0.11811023622047244,
          "duration": 0.05813953488370771
        },
        {
          "name": "A#5",
          "midi": 82,
          "time": 76.23255813952798,
          "velocity": 0.2283464566929134,
          "duration": 0.023255813953483084
        },
        {
          "name": "E6",
          "midi": 88,
          "time": 76.23255813952798,
          "velocity": 0.07874015748031496,
          "duration": 0.034883720930224626
        },
        {
          "name": "A3",
          "midi": 57,
          "time": 76.24418604650472,
          "velocity": 0.25196850393700787,
          "duration": 0.05813953488370771
        },
        {
          "name": "G#4",
          "midi": 68,
          "time": 76.25581395348146,
          "velocity": 0.5039370078740157,
          "duration": 0.18604651162786467
        },
        {
          "name": "D#6",
          "midi": 87,
          "time": 76.25581395348146,
          "velocity": 0.28346456692913385,
          "duration": 0.1627906976743816
        },
        {
          "name": "A#6",
          "midi": 94,
          "time": 76.25581395348146,
          "velocity": 0.11023622047244094,
          "duration": 0.034883720930224626
        },
        {
          "name": "F4",
          "midi": 65,
          "time": 76.2674418604582,
          "velocity": 0.23622047244094488,
          "duration": 0.05813953488370771
        },
        {
          "name": "D#5",
          "midi": 75,
          "time": 76.2674418604582,
          "velocity": 0.08661417322834646,
          "duration": 0.034883720930224626
        },
        {
          "name": "D6",
          "midi": 86,
          "time": 76.2674418604582,
          "velocity": 0.2047244094488189,
          "duration": 0.034883720930224626
        },
        {
          "name": "A6",
          "midi": 93,
          "time": 76.2674418604582,
          "velocity": 0.2283464566929134,
          "duration": 0.15116279069764005
        },
        {
          "name": "G7",
          "midi": 103,
          "time": 76.2674418604582,
          "velocity": 0.09448818897637795,
          "duration": 0.05813953488370771
        },
        {
          "name": "C#4",
          "midi": 61,
          "time": 76.27906976743495,
          "velocity": 0.29133858267716534,
          "duration": 0.034883720930224626
        },
        {
          "name": "G6",
          "midi": 91,
          "time": 76.27906976743495,
          "velocity": 0.2047244094488189,
          "duration": 0.10465116279067388
        },
        {
          "name": "F4",
          "midi": 65,
          "time": 76.33720930231866,
          "velocity": 0.2283464566929134,
          "duration": 0.0813953488371908
        },
        {
          "name": "E6",
          "midi": 88,
          "time": 76.33720930231866,
          "velocity": 0.12598425196850394,
          "duration": 0.05813953488370771
        },
        {
          "name": "C#4",
          "midi": 61,
          "time": 76.3488372092954,
          "velocity": 0.4094488188976378,
          "duration": 0.04651162790696617
        },
        {
          "name": "B5",
          "midi": 83,
          "time": 76.3488372092954,
          "velocity": 0.1889763779527559,
          "duration": 0.034883720930224626
        },
        {
          "name": "F3",
          "midi": 53,
          "time": 76.36046511627214,
          "velocity": 0.3700787401574803,
          "duration": 0.034883720930224626
        },
        {
          "name": "F#6",
          "midi": 90,
          "time": 76.37209302324888,
          "velocity": 0.29133858267716534,
          "duration": 0.10465116279067388
        },
        {
          "name": "G7",
          "midi": 103,
          "time": 76.37209302324888,
          "velocity": 0.2677165354330709,
          "duration": 0.12790697674415696
        },
        {
          "name": "B6",
          "midi": 95,
          "time": 76.4069767441791,
          "velocity": 0.2677165354330709,
          "duration": 0.1627906976743816
        },
        {
          "name": "D7",
          "midi": 98,
          "time": 76.4069767441791,
          "velocity": 0.3543307086614173,
          "duration": 0.18604651162786467
        },
        {
          "name": "D6",
          "midi": 86,
          "time": 76.41860465115585,
          "velocity": 0.3779527559055118,
          "duration": 0.023255813953483084
        },
        {
          "name": "E6",
          "midi": 88,
          "time": 76.41860465115585,
          "velocity": 0.25196850393700787,
          "duration": 0.11627906976741542
        },
        {
          "name": "A#6",
          "midi": 94,
          "time": 76.41860465115585,
          "velocity": 0.3228346456692913,
          "duration": 0.10465116279067388
        },
        {
          "name": "F#1",
          "midi": 30,
          "time": 76.43023255813259,
          "velocity": 0.6299212598425197,
          "duration": 0.023255813953483084
        },
        {
          "name": "C#4",
          "midi": 61,
          "time": 76.43023255813259,
          "velocity": 0.25984251968503935,
          "duration": 0.04651162790696617
        },
        {
          "name": "B5",
          "midi": 83,
          "time": 76.43023255813259,
          "velocity": 0.3464566929133858,
          "duration": 0.034883720930224626
        },
        {
          "name": "G6",
          "midi": 91,
          "time": 76.43023255813259,
          "velocity": 0.2677165354330709,
          "duration": 0.04651162790696617
        },
        {
          "name": "A4",
          "midi": 69,
          "time": 76.44186046510933,
          "velocity": 0.5039370078740157,
          "duration": 0.023255813953483084
        },
        {
          "name": "D#6",
          "midi": 87,
          "time": 76.44186046510933,
          "velocity": 0.31496062992125984,
          "duration": 0.023255813953483084
        },
        {
          "name": "A6",
          "midi": 93,
          "time": 76.44186046510933,
          "velocity": 0.29133858267716534,
          "duration": 0.023255813953483084
        },
        {
          "name": "F4",
          "midi": 65,
          "time": 76.45348837208607,
          "velocity": 0.3700787401574803,
          "duration": 0.1395348837208985
        },
        {
          "name": "D6",
          "midi": 86,
          "time": 76.45348837208607,
          "velocity": 0.25196850393700787,
          "duration": 0.18604651162786467
        },
        {
          "name": "A#5",
          "midi": 82,
          "time": 76.46511627906281,
          "velocity": 0.1889763779527559,
          "duration": 0.0813953488371908
        },
        {
          "name": "D#6",
          "midi": 87,
          "time": 76.47674418603955,
          "velocity": 0.15748031496062992,
          "duration": 0.06976744186044925
        },
        {
          "name": "A4",
          "midi": 69,
          "time": 76.4883720930163,
          "velocity": 0.2047244094488189,
          "duration": 0.05813953488370771
        },
        {
          "name": "A6",
          "midi": 93,
          "time": 76.4883720930163,
          "velocity": 0.1889763779527559,
          "duration": 0.10465116279067388
        },
        {
          "name": "G6",
          "midi": 91,
          "time": 76.49999999999304,
          "velocity": 0.31496062992125984,
          "duration": 0.6395348837207848
        },
        {
          "name": "F#6",
          "midi": 90,
          "time": 76.51162790696978,
          "velocity": 0.15748031496062992,
          "duration": 0.09302325581393234
        },
        {
          "name": "F2",
          "midi": 41,
          "time": 76.52325581394652,
          "velocity": 0.11023622047244094,
          "duration": 0.06976744186044925
        },
        {
          "name": "C#6",
          "midi": 85,
          "time": 76.52325581394652,
          "velocity": 0.18110236220472442,
          "duration": 0.05813953488370771
        },
        {
          "name": "C#4",
          "midi": 61,
          "time": 76.5465116279,
          "velocity": 0.1732283464566929,
          "duration": 0.09302325581393234
        },
        {
          "name": "G#4",
          "midi": 68,
          "time": 76.5465116279,
          "velocity": 0.36220472440944884,
          "duration": 0.05813953488370771
        },
        {
          "name": "B5",
          "midi": 83,
          "time": 76.5465116279,
          "velocity": 0.14960629921259844,
          "duration": 0.06976744186044925
        },
        {
          "name": "E6",
          "midi": 88,
          "time": 76.5465116279,
          "velocity": 0.1968503937007874,
          "duration": 0.034883720930224626
        },
        {
          "name": "C7",
          "midi": 96,
          "time": 76.55813953487674,
          "velocity": 0.4881889763779528,
          "duration": 0.5697674418603356
        },
        {
          "name": "D#6",
          "midi": 87,
          "time": 76.56976744185349,
          "velocity": 0.49606299212598426,
          "duration": 0.5697674418603356
        },
        {
          "name": "F3",
          "midi": 53,
          "time": 76.58139534883023,
          "velocity": 0.25196850393700787,
          "duration": 0.1627906976743816
        },
        {
          "name": "F6",
          "midi": 89,
          "time": 76.58139534883023,
          "velocity": 0.49606299212598426,
          "duration": 0.29069767441853855
        },
        {
          "name": "A#6",
          "midi": 94,
          "time": 76.58139534883023,
          "velocity": 0.5511811023622047,
          "duration": 0.7209302325579756
        },
        {
          "name": "F5",
          "midi": 77,
          "time": 76.59302325580697,
          "velocity": 0.5433070866141733,
          "duration": 0.11627906976741542
        },
        {
          "name": "C#6",
          "midi": 85,
          "time": 76.59302325580697,
          "velocity": 0.25984251968503935,
          "duration": 0.05813953488370771
        },
        {
          "name": "B6",
          "midi": 95,
          "time": 76.59302325580697,
          "velocity": 0.15748031496062992,
          "duration": 0.09302325581393234
        },
        {
          "name": "F2",
          "midi": 41,
          "time": 76.60465116278371,
          "velocity": 0.1968503937007874,
          "duration": 0.05813953488370771
        },
        {
          "name": "A4",
          "midi": 69,
          "time": 76.60465116278371,
          "velocity": 0.3779527559055118,
          "duration": 0.04651162790696617
        },
        {
          "name": "A#5",
          "midi": 82,
          "time": 76.60465116278371,
          "velocity": 0.2047244094488189,
          "duration": 0.04651162790696617
        },
        {
          "name": "C6",
          "midi": 84,
          "time": 76.60465116278371,
          "velocity": 0.2047244094488189,
          "duration": 0.0813953488371908
        },
        {
          "name": "F7",
          "midi": 101,
          "time": 76.60465116278371,
          "velocity": 0.5118110236220472,
          "duration": 1.7325581395344898
        },
        {
          "name": "C#5",
          "midi": 73,
          "time": 76.61627906976045,
          "velocity": 0.2204724409448819,
          "duration": 0.034883720930224626
        },
        {
          "name": "D7",
          "midi": 98,
          "time": 76.6279069767372,
          "velocity": 0.2755905511811024,
          "duration": 0.2558139534883139
        },
        {
          "name": "E7",
          "midi": 100,
          "time": 76.6279069767372,
          "velocity": 0.2204724409448819,
          "duration": 0.20930232558134776
        },
        {
          "name": "C4",
          "midi": 60,
          "time": 76.63953488371394,
          "velocity": 0.2204724409448819,
          "duration": 0.034883720930224626
        },
        {
          "name": "G#4",
          "midi": 68,
          "time": 76.63953488371394,
          "velocity": 0.5039370078740157,
          "duration": 0.29069767441853855
        },
        {
          "name": "E6",
          "midi": 88,
          "time": 76.63953488371394,
          "velocity": 0.23622047244094488,
          "duration": 0.023255813953483084
        },
        {
          "name": "F#6",
          "midi": 90,
          "time": 76.63953488371394,
          "velocity": 0.31496062992125984,
          "duration": 0.06976744186044925
        },
        {
          "name": "A6",
          "midi": 93,
          "time": 76.63953488371394,
          "velocity": 0.2440944881889764,
          "duration": 0.034883720930224626
        },
        {
          "name": "G7",
          "midi": 103,
          "time": 76.65116279069068,
          "velocity": 0.36220472440944884,
          "duration": 0.45348837209292014
        },
        {
          "name": "A#5",
          "midi": 82,
          "time": 76.66279069766742,
          "velocity": 0.3779527559055118,
          "duration": 0.11627906976741542
        },
        {
          "name": "C#7",
          "midi": 97,
          "time": 76.66279069766742,
          "velocity": 0.25196850393700787,
          "duration": 0.23255813953483084
        },
        {
          "name": "F2",
          "midi": 41,
          "time": 76.67441860464416,
          "velocity": 0.2755905511811024,
          "duration": 0.19767441860460622
        },
        {
          "name": "C#4",
          "midi": 61,
          "time": 76.67441860464416,
          "velocity": 0.33070866141732286,
          "duration": 0.10465116279067388
        },
        {
          "name": "C#6",
          "midi": 85,
          "time": 76.67441860464416,
          "velocity": 0.1968503937007874,
          "duration": 0.0813953488371908
        },
        {
          "name": "C#5",
          "midi": 73,
          "time": 76.6860465116209,
          "velocity": 0.5354330708661418,
          "duration": 0.11627906976741542
        },
        {
          "name": "D6",
          "midi": 86,
          "time": 76.6860465116209,
          "velocity": 0.11023622047244094,
          "duration": 0.034883720930224626
        },
        {
          "name": "B6",
          "midi": 95,
          "time": 76.69767441859764,
          "velocity": 0.08661417322834646,
          "duration": 0.034883720930224626
        },
        {
          "name": "F5",
          "midi": 77,
          "time": 76.72093023255113,
          "velocity": 0.6220472440944882,
          "duration": 0.34883720930224626
        },
        {
          "name": "F#6",
          "midi": 90,
          "time": 76.72093023255113,
          "velocity": 0.13385826771653545,
          "duration": 0.05813953488370771
        },
        {
          "name": "C6",
          "midi": 84,
          "time": 76.74418604650461,
          "velocity": 0.25984251968503935,
          "duration": 0.10465116279067388
        },
        {
          "name": "F4",
          "midi": 65,
          "time": 76.75581395348135,
          "velocity": 0.4645669291338583,
          "duration": 0.3604651162789878
        },
        {
          "name": "A5",
          "midi": 81,
          "time": 76.75581395348135,
          "velocity": 0.18110236220472442,
          "duration": 0.034883720930224626
        },
        {
          "name": "E6",
          "midi": 88,
          "time": 76.76744186045809,
          "velocity": 0.2755905511811024,
          "duration": 0.023255813953483084
        },
        {
          "name": "A3",
          "midi": 57,
          "time": 76.77906976743483,
          "velocity": 0.2677165354330709,
          "duration": 0.023255813953483084
        },
        {
          "name": "D#5",
          "midi": 75,
          "time": 76.77906976743483,
          "velocity": 0.6299212598425197,
          "duration": 0.3372093023255047
        },
        {
          "name": "A#5",
          "midi": 82,
          "time": 76.79069767441158,
          "velocity": 0.2204724409448819,
          "duration": 0.04651162790696617
        },
        {
          "name": "F#6",
          "midi": 90,
          "time": 76.79069767441158,
          "velocity": 0.10236220472440945,
          "duration": 0.04651162790696617
        },
        {
          "name": "C#4",
          "midi": 61,
          "time": 76.81395348836506,
          "velocity": 0.31496062992125984,
          "duration": 0.10465116279067388
        },
        {
          "name": "G#3",
          "midi": 56,
          "time": 76.8255813953418,
          "velocity": 0.41732283464566927,
          "duration": 0.05813953488370771
        },
        {
          "name": "C5",
          "midi": 72,
          "time": 76.8255813953418,
          "velocity": 0.2283464566929134,
          "duration": 0.04651162790696617
        },
        {
          "name": "B5",
          "midi": 83,
          "time": 76.84883720929528,
          "velocity": 0.11023622047244094,
          "duration": 0.0813953488371908
        },
        {
          "name": "F#6",
          "midi": 90,
          "time": 76.84883720929528,
          "velocity": 0.1732283464566929,
          "duration": 0.05813953488370771
        },
        {
          "name": "E7",
          "midi": 100,
          "time": 76.84883720929528,
          "velocity": 0.07874015748031496,
          "duration": 0.0813953488371908
        },
        {
          "name": "C6",
          "midi": 84,
          "time": 76.88372093022551,
          "velocity": 0.2283464566929134,
          "duration": 0.09302325581393234
        },
        {
          "name": "B6",
          "midi": 95,
          "time": 76.88372093022551,
          "velocity": 0.12598425196850394,
          "duration": 0.034883720930224626
        },
        {
          "name": "F2",
          "midi": 41,
          "time": 76.89534883720225,
          "velocity": 0.14960629921259844,
          "duration": 0.034883720930224626
        },
        {
          "name": "G#3",
          "midi": 56,
          "time": 76.89534883720225,
          "velocity": 0.28346456692913385,
          "duration": 0.04651162790696617
        },
        {
          "name": "C#5",
          "midi": 73,
          "time": 76.90697674417899,
          "velocity": 0.44881889763779526,
          "duration": 0.43023255813943706
        },
        {
          "name": "F#7",
          "midi": 102,
          "time": 76.91860465115573,
          "velocity": 0.07086614173228346,
          "duration": 0.034883720930224626
        },
        {
          "name": "F2",
          "midi": 41,
          "time": 76.94186046510922,
          "velocity": 0.23622047244094488,
          "duration": 0.12790697674415696
        },
        {
          "name": "C#4",
          "midi": 61,
          "time": 76.94186046510922,
          "velocity": 0.2283464566929134,
          "duration": 0.023255813953483084
        },
        {
          "name": "G#4",
          "midi": 68,
          "time": 76.94186046510922,
          "velocity": 0.23622047244094488,
          "duration": 0.04651162790696617
        },
        {
          "name": "E6",
          "midi": 88,
          "time": 76.94186046510922,
          "velocity": 0.2047244094488189,
          "duration": 0.034883720930224626
        },
        {
          "name": "F3",
          "midi": 53,
          "time": 76.95348837208596,
          "velocity": 0.2992125984251969,
          "duration": 0.09302325581393234
        },
        {
          "name": "B5",
          "midi": 83,
          "time": 76.95348837208596,
          "velocity": 0.11023622047244094,
          "duration": 0.034883720930224626
        },
        {
          "name": "C#7",
          "midi": 97,
          "time": 76.95348837208596,
          "velocity": 0.11023622047244094,
          "duration": 0.10465116279067388
        },
        {
          "name": "C#4",
          "midi": 61,
          "time": 76.97674418603944,
          "velocity": 0.4409448818897638,
          "duration": 0.023255813953483084
        },
        {
          "name": "C6",
          "midi": 84,
          "time": 76.98837209301618,
          "velocity": 0.2677165354330709,
          "duration": 0.09302325581393234
        },
        {
          "name": "C#4",
          "midi": 61,
          "time": 77.01162790696966,
          "velocity": 0.4566929133858268,
          "duration": 0.06976744186044925
        },
        {
          "name": "G#4",
          "midi": 68,
          "time": 77.01162790696966,
          "velocity": 0.1968503937007874,
          "duration": 0.05813953488370771
        },
        {
          "name": "E6",
          "midi": 88,
          "time": 77.01162790696966,
          "velocity": 0.08661417322834646,
          "duration": 0.034883720930224626
        },
        {
          "name": "B5",
          "midi": 83,
          "time": 77.0232558139464,
          "velocity": 0.2677165354330709,
          "duration": 0.0813953488371908
        },
        {
          "name": "A6",
          "midi": 93,
          "time": 77.03488372092315,
          "velocity": 0.11023622047244094,
          "duration": 0.034883720930224626
        },
        {
          "name": "F#6",
          "midi": 90,
          "time": 77.04651162789989,
          "velocity": 0.13385826771653545,
          "duration": 0.05813953488370771
        },
        {
          "name": "C#6",
          "midi": 85,
          "time": 77.05813953487663,
          "velocity": 0.5275590551181102,
          "duration": 1.348837209302019
        },
        {
          "name": "C3",
          "midi": 48,
          "time": 77.08139534883011,
          "velocity": 0.6850393700787402,
          "duration": 0.011627906976741542
        },
        {
          "name": "G5",
          "midi": 79,
          "time": 77.08139534883011,
          "velocity": 0.12598425196850394,
          "duration": 0.034883720930224626
        },
        {
          "name": "F#2",
          "midi": 42,
          "time": 77.09302325580686,
          "velocity": 0.7559055118110236,
          "duration": 0.011627906976741542
        },
        {
          "name": "A#5",
          "midi": 82,
          "time": 77.09302325580686,
          "velocity": 0.18110236220472442,
          "duration": 0.034883720930224626
        },
        {
          "name": "E6",
          "midi": 88,
          "time": 77.09302325580686,
          "velocity": 0.10236220472440945,
          "duration": 0.04651162790696617
        },
        {
          "name": "A6",
          "midi": 93,
          "time": 77.09302325580686,
          "velocity": 0.07874015748031496,
          "duration": 0.034883720930224626
        },
        {
          "name": "F2",
          "midi": 41,
          "time": 77.1046511627836,
          "velocity": 0.7716535433070866,
          "duration": 0.011627906976741542
        },
        {
          "name": "G#6",
          "midi": 92,
          "time": 77.1046511627836,
          "velocity": 0.5275590551181102,
          "duration": 0.8720930232556157
        },
        {
          "name": "C#2",
          "midi": 37,
          "time": 77.11627906976034,
          "velocity": 0.7874015748031497,
          "duration": 0.011627906976741542
        },
        {
          "name": "B1",
          "midi": 35,
          "time": 77.12790697673708,
          "velocity": 0.7874015748031497,
          "duration": 0.011627906976741542
        },
        {
          "name": "F3",
          "midi": 53,
          "time": 77.12790697673708,
          "velocity": 0.41732283464566927,
          "duration": 0.023255813953483084
        },
        {
          "name": "G#4",
          "midi": 68,
          "time": 77.12790697673708,
          "velocity": 0.2204724409448819,
          "duration": 0.034883720930224626
        },
        {
          "name": "B5",
          "midi": 83,
          "time": 77.12790697673708,
          "velocity": 0.16535433070866143,
          "duration": 0.04651162790696617
        },
        {
          "name": "A#1",
          "midi": 34,
          "time": 77.13953488371382,
          "velocity": 0.7716535433070866,
          "duration": 0.011627906976741542
        },
        {
          "name": "D4",
          "midi": 62,
          "time": 77.13953488371382,
          "velocity": 0.2755905511811024,
          "duration": 0.034883720930224626
        },
        {
          "name": "A1",
          "midi": 33,
          "time": 77.15116279069056,
          "velocity": 0.7716535433070866,
          "duration": 0.023255813953483084
        },
        {
          "name": "A#5",
          "midi": 82,
          "time": 77.15116279069056,
          "velocity": 0.18110236220472442,
          "duration": 0.04651162790696617
        },
        {
          "name": "A4",
          "midi": 69,
          "time": 77.1627906976673,
          "velocity": 0.2283464566929134,
          "duration": 0.023255813953483084
        },
        {
          "name": "D#6",
          "midi": 87,
          "time": 77.1627906976673,
          "velocity": 0.2047244094488189,
          "duration": 0.05813953488370771
        },
        {
          "name": "G#1",
          "midi": 32,
          "time": 77.17441860464405,
          "velocity": 0.7716535433070866,
          "duration": 0.023255813953483084
        },
        {
          "name": "C#4",
          "midi": 61,
          "time": 77.17441860464405,
          "velocity": 0.1732283464566929,
          "duration": 0.034883720930224626
        },
        {
          "name": "F#4",
          "midi": 66,
          "time": 77.17441860464405,
          "velocity": 0.44881889763779526,
          "duration": 0.26744186046505547
        },
        {
          "name": "A6",
          "midi": 93,
          "time": 77.17441860464405,
          "velocity": 0.11023622047244094,
          "duration": 0.034883720930224626
        },
        {
          "name": "A#4",
          "midi": 70,
          "time": 77.18604651162079,
          "velocity": 0.3937007874015748,
          "duration": 0.43023255813943706
        },
        {
          "name": "D#5",
          "midi": 75,
          "time": 77.18604651162079,
          "velocity": 0.2283464566929134,
          "duration": 0.023255813953483084
        },
        {
          "name": "G1",
          "midi": 31,
          "time": 77.19767441859753,
          "velocity": 0.7795275590551181,
          "duration": 0.04651162790696617
        },
        {
          "name": "F6",
          "midi": 89,
          "time": 77.19767441859753,
          "velocity": 0.25984251968503935,
          "duration": 0.1627906976743816
        },
        {
          "name": "F#6",
          "midi": 90,
          "time": 77.19767441859753,
          "velocity": 0.25984251968503935,
          "duration": 0.37209302325572935
        },
        {
          "name": "G7",
          "midi": 103,
          "time": 77.19767441859753,
          "velocity": 0.12598425196850394,
          "duration": 0.04651162790696617
        },
        {
          "name": "D3",
          "midi": 50,
          "time": 77.20930232557427,
          "velocity": 0.33070866141732286,
          "duration": 0.023255813953483084
        },
        {
          "name": "G#5",
          "midi": 80,
          "time": 77.20930232557427,
          "velocity": 0.09448818897637795,
          "duration": 0.034883720930224626
        },
        {
          "name": "C#4",
          "midi": 61,
          "time": 77.22093023255101,
          "velocity": 0.44881889763779526,
          "duration": 0.18604651162786467
        },
        {
          "name": "C6",
          "midi": 84,
          "time": 77.22093023255101,
          "velocity": 0.08661417322834646,
          "duration": 0.034883720930224626
        },
        {
          "name": "D6",
          "midi": 86,
          "time": 77.22093023255101,
          "velocity": 0.11811023622047244,
          "duration": 0.04651162790696617
        },
        {
          "name": "C#3",
          "midi": 49,
          "time": 77.23255813952775,
          "velocity": 0.3858267716535433,
          "duration": 0.09302325581393234
        },
        {
          "name": "A6",
          "midi": 93,
          "time": 77.23255813952775,
          "velocity": 0.08661417322834646,
          "duration": 0.04651162790696617
        },
        {
          "name": "F#1",
          "midi": 30,
          "time": 77.2441860465045,
          "velocity": 0.7637795275590551,
          "duration": 0.11627906976741542
        },
        {
          "name": "E5",
          "midi": 76,
          "time": 77.2441860465045,
          "velocity": 0.2204724409448819,
          "duration": 0.034883720930224626
        },
        {
          "name": "B5",
          "midi": 83,
          "time": 77.2441860465045,
          "velocity": 0.18110236220472442,
          "duration": 0.034883720930224626
        },
        {
          "name": "G#5",
          "midi": 80,
          "time": 77.26744186045798,
          "velocity": 0.36220472440944884,
          "duration": 0.15116279069764005
        },
        {
          "name": "D#6",
          "midi": 87,
          "time": 77.26744186045798,
          "velocity": 0.14173228346456693,
          "duration": 0.04651162790696617
        },
        {
          "name": "D7",
          "midi": 98,
          "time": 77.27906976743472,
          "velocity": 0.18110236220472442,
          "duration": 0.04651162790696617
        },
        {
          "name": "F#7",
          "midi": 102,
          "time": 77.27906976743472,
          "velocity": 0.31496062992125984,
          "duration": 0.5232558139533694
        },
        {
          "name": "D#5",
          "midi": 75,
          "time": 77.29069767441146,
          "velocity": 0.29133858267716534,
          "duration": 0.1627906976743816
        },
        {
          "name": "F5",
          "midi": 77,
          "time": 77.3023255813882,
          "velocity": 0.33858267716535434,
          "duration": 0.23255813953483084
        },
        {
          "name": "E6",
          "midi": 88,
          "time": 77.3023255813882,
          "velocity": 0.2125984251968504,
          "duration": 0.04651162790696617
        },
        {
          "name": "B6",
          "midi": 95,
          "time": 77.3023255813882,
          "velocity": 0.25984251968503935,
          "duration": 0.3837209302324709
        },
        {
          "name": "D#7",
          "midi": 99,
          "time": 77.3023255813882,
          "velocity": 0.18110236220472442,
          "duration": 0.29069767441853855
        },
        {
          "name": "F#3",
          "midi": 54,
          "time": 77.34883720929517,
          "velocity": 0.2755905511811024,
          "duration": 0.023255813953483084
        },
        {
          "name": "B5",
          "midi": 83,
          "time": 77.34883720929517,
          "velocity": 0.14173228346456693,
          "duration": 0.06976744186044925
        },
        {
          "name": "D7",
          "midi": 98,
          "time": 77.34883720929517,
          "velocity": 0.29133858267716534,
          "duration": 0.29069767441853855
        },
        {
          "name": "E7",
          "midi": 100,
          "time": 77.34883720929517,
          "velocity": 0.2283464566929134,
          "duration": 0.3255813953487632
        },
        {
          "name": "F1",
          "midi": 29,
          "time": 77.36046511627191,
          "velocity": 0.7165354330708661,
          "duration": 0.023255813953483084
        },
        {
          "name": "C#3",
          "midi": 49,
          "time": 77.36046511627191,
          "velocity": 0.4251968503937008,
          "duration": 0.05813953488370771
        },
        {
          "name": "E6",
          "midi": 88,
          "time": 77.37209302324865,
          "velocity": 0.11023622047244094,
          "duration": 0.034883720930224626
        },
        {
          "name": "F#1",
          "midi": 30,
          "time": 77.3837209302254,
          "velocity": 0.7244094488188977,
          "duration": 0.37209302325572935
        },
        {
          "name": "F6",
          "midi": 89,
          "time": 77.39534883720214,
          "velocity": 0.4330708661417323,
          "duration": 0.3604651162789878
        },
        {
          "name": "A#3",
          "midi": 58,
          "time": 77.40697674417888,
          "velocity": 0.4566929133858268,
          "duration": 0.15116279069764005
        },
        {
          "name": "C#5",
          "midi": 73,
          "time": 77.40697674417888,
          "velocity": 0.5433070866141733,
          "duration": 0.5930232558138187
        },
        {
          "name": "G5",
          "midi": 79,
          "time": 77.40697674417888,
          "velocity": 0.23622047244094488,
          "duration": 0.034883720930224626
        },
        {
          "name": "A6",
          "midi": 93,
          "time": 77.40697674417888,
          "velocity": 0.2125984251968504,
          "duration": 0.034883720930224626
        },
        {
          "name": "D6",
          "midi": 86,
          "time": 77.41860465115562,
          "velocity": 0.16535433070866143,
          "duration": 0.034883720930224626
        },
        {
          "name": "E6",
          "midi": 88,
          "time": 77.41860465115562,
          "velocity": 0.29133858267716534,
          "duration": 0.12790697674415696
        },
        {
          "name": "G6",
          "midi": 91,
          "time": 77.41860465115562,
          "velocity": 0.29133858267716534,
          "duration": 0.06976744186044925
        },
        {
          "name": "C#3",
          "midi": 49,
          "time": 77.43023255813236,
          "velocity": 0.3937007874015748,
          "duration": 0.023255813953483084
        },
        {
          "name": "F#5",
          "midi": 78,
          "time": 77.4418604651091,
          "velocity": 0.2047244094488189,
          "duration": 0.034883720930224626
        },
        {
          "name": "G#5",
          "midi": 80,
          "time": 77.4418604651091,
          "velocity": 0.2992125984251969,
          "duration": 0.1395348837208985
        },
        {
          "name": "B5",
          "midi": 83,
          "time": 77.4418604651091,
          "velocity": 0.11023622047244094,
          "duration": 0.034883720930224626
        },
        {
          "name": "F#4",
          "midi": 66,
          "time": 77.45348837208584,
          "velocity": 0.3700787401574803,
          "duration": 0.279069767441797
        },
        {
          "name": "D6",
          "midi": 86,
          "time": 77.47674418603933,
          "velocity": 0.2283464566929134,
          "duration": 0.12790697674415696
        },
        {
          "name": "A6",
          "midi": 93,
          "time": 77.47674418603933,
          "velocity": 0.1732283464566929,
          "duration": 0.06976744186044925
        },
        {
          "name": "C#3",
          "midi": 49,
          "time": 77.48837209301607,
          "velocity": 0.4330708661417323,
          "duration": 0.18604651162786467
        },
        {
          "name": "C7",
          "midi": 96,
          "time": 77.48837209301607,
          "velocity": 0.14173228346456693,
          "duration": 0.034883720930224626
        },
        {
          "name": "F#5",
          "midi": 78,
          "time": 77.49999999999281,
          "velocity": 0.4566929133858268,
          "duration": 0.2558139534883139
        },
        {
          "name": "C7",
          "midi": 96,
          "time": 77.54651162789978,
          "velocity": 0.15748031496062992,
          "duration": 0.05813953488370771
        },
        {
          "name": "E6",
          "midi": 88,
          "time": 77.55813953487652,
          "velocity": 0.2125984251968504,
          "duration": 0.06976744186044925
        },
        {
          "name": "G6",
          "midi": 91,
          "time": 77.56976744185326,
          "velocity": 0.1889763779527559,
          "duration": 0.06976744186044925
        },
        {
          "name": "G#5",
          "midi": 80,
          "time": 77.59302325580674,
          "velocity": 0.31496062992125984,
          "duration": 0.1395348837208985
        },
        {
          "name": "D#5",
          "midi": 75,
          "time": 77.60465116278348,
          "velocity": 0.28346456692913385,
          "duration": 0.11627906976741542
        },
        {
          "name": "D#7",
          "midi": 99,
          "time": 77.60465116278348,
          "velocity": 0.15748031496062992,
          "duration": 0.034883720930224626
        },
        {
          "name": "A6",
          "midi": 93,
          "time": 77.61627906976022,
          "velocity": 0.15748031496062992,
          "duration": 0.05813953488370771
        },
        {
          "name": "C7",
          "midi": 96,
          "time": 77.61627906976022,
          "velocity": 0.14173228346456693,
          "duration": 0.05813953488370771
        },
        {
          "name": "A#4",
          "midi": 70,
          "time": 77.62790697673697,
          "velocity": 0.4645669291338583,
          "duration": 0.11627906976741542
        },
        {
          "name": "D6",
          "midi": 86,
          "time": 77.62790697673697,
          "velocity": 0.29133858267716534,
          "duration": 0.05813953488370771
        },
        {
          "name": "E6",
          "midi": 88,
          "time": 77.63953488371371,
          "velocity": 0.1732283464566929,
          "duration": 0.09302325581393234
        },
        {
          "name": "D7",
          "midi": 98,
          "time": 77.65116279069045,
          "velocity": 0.31496062992125984,
          "duration": 0.26744186046505547
        },
        {
          "name": "D#7",
          "midi": 99,
          "time": 77.65116279069045,
          "velocity": 0.3464566929133858,
          "duration": 0.7441860465114587
        },
        {
          "name": "B5",
          "midi": 83,
          "time": 77.66279069766719,
          "velocity": 0.1889763779527559,
          "duration": 0.04651162790696617
        },
        {
          "name": "G7",
          "midi": 103,
          "time": 77.67441860464393,
          "velocity": 0.2283464566929134,
          "duration": 0.2209302325580893
        },
        {
          "name": "C#3",
          "midi": 49,
          "time": 77.68604651162067,
          "velocity": 0.4330708661417323,
          "duration": 0.034883720930224626
        },
        {
          "name": "D#6",
          "midi": 87,
          "time": 77.68604651162067,
          "velocity": 0.29133858267716534,
          "duration": 0.09302325581393234
        },
        {
          "name": "A6",
          "midi": 93,
          "time": 77.68604651162067,
          "velocity": 0.30708661417322836,
          "duration": 0.04651162790696617
        },
        {
          "name": "D3",
          "midi": 50,
          "time": 77.7209302325509,
          "velocity": 0.4015748031496063,
          "duration": 0.023255813953483084
        },
        {
          "name": "C7",
          "midi": 96,
          "time": 77.7209302325509,
          "velocity": 0.1968503937007874,
          "duration": 0.1395348837208985
        },
        {
          "name": "A5",
          "midi": 81,
          "time": 77.73255813952764,
          "velocity": 0.4330708661417323,
          "duration": 0.09302325581393234
        },
        {
          "name": "B5",
          "midi": 83,
          "time": 77.73255813952764,
          "velocity": 0.28346456692913385,
          "duration": 0.023255813953483084
        },
        {
          "name": "E7",
          "midi": 100,
          "time": 77.73255813952764,
          "velocity": 0.25984251968503935,
          "duration": 0.11627906976741542
        },
        {
          "name": "A4",
          "midi": 69,
          "time": 77.74418604650438,
          "velocity": 0.5196850393700787,
          "duration": 0.023255813953483084
        },
        {
          "name": "E5",
          "midi": 76,
          "time": 77.74418604650438,
          "velocity": 0.2204724409448819,
          "duration": 0.034883720930224626
        },
        {
          "name": "E6",
          "midi": 88,
          "time": 77.74418604650438,
          "velocity": 0.25984251968503935,
          "duration": 0.11627906976741542
        },
        {
          "name": "G6",
          "midi": 91,
          "time": 77.74418604650438,
          "velocity": 0.25196850393700787,
          "duration": 0.04651162790696617
        },
        {
          "name": "A#4",
          "midi": 70,
          "time": 77.75581395348112,
          "velocity": 0.3228346456692913,
          "duration": 0.04651162790696617
        },
        {
          "name": "G5",
          "midi": 79,
          "time": 77.75581395348112,
          "velocity": 0.2440944881889764,
          "duration": 0.023255813953483084
        },
        {
          "name": "B6",
          "midi": 95,
          "time": 77.75581395348112,
          "velocity": 0.2283464566929134,
          "duration": 0.1395348837208985
        },
        {
          "name": "F6",
          "midi": 89,
          "time": 77.76744186045786,
          "velocity": 0.12598425196850394,
          "duration": 0.04651162790696617
        },
        {
          "name": "D#5",
          "midi": 75,
          "time": 77.7790697674346,
          "velocity": 0.2440944881889764,
          "duration": 0.023255813953483084
        },
        {
          "name": "C6",
          "midi": 84,
          "time": 77.7790697674346,
          "velocity": 0.09448818897637795,
          "duration": 0.06976744186044925
        },
        {
          "name": "F#6",
          "midi": 90,
          "time": 77.80232558138809,
          "velocity": 0.1968503937007874,
          "duration": 0.09302325581393234
        },
        {
          "name": "G6",
          "midi": 91,
          "time": 77.80232558138809,
          "velocity": 0.1889763779527559,
          "duration": 0.04651162790696617
        },
        {
          "name": "F#3",
          "midi": 54,
          "time": 77.82558139534157,
          "velocity": 0.2125984251968504,
          "duration": 0.23255813953483084
        },
        {
          "name": "G#5",
          "midi": 80,
          "time": 77.82558139534157,
          "velocity": 0.2047244094488189,
          "duration": 0.034883720930224626
        },
        {
          "name": "D#6",
          "midi": 87,
          "time": 77.82558139534157,
          "velocity": 0.23622047244094488,
          "duration": 0.12790697674415696
        },
        {
          "name": "A#4",
          "midi": 70,
          "time": 77.83720930231831,
          "velocity": 0.2440944881889764,
          "duration": 0.05813953488370771
        },
        {
          "name": "B5",
          "midi": 83,
          "time": 77.84883720929506,
          "velocity": 0.1889763779527559,
          "duration": 0.09302325581393234
        },
        {
          "name": "A5",
          "midi": 81,
          "time": 77.8604651162718,
          "velocity": 0.23622047244094488,
          "duration": 0.034883720930224626
        },
        {
          "name": "F6",
          "midi": 89,
          "time": 77.8604651162718,
          "velocity": 0.2283464566929134,
          "duration": 0.12790697674415696
        },
        {
          "name": "F#5",
          "midi": 78,
          "time": 77.87209302324854,
          "velocity": 0.2992125984251969,
          "duration": 0.12790697674415696
        },
        {
          "name": "G#5",
          "midi": 80,
          "time": 77.87209302324854,
          "velocity": 0.25196850393700787,
          "duration": 0.04651162790696617
        },
        {
          "name": "G6",
          "midi": 91,
          "time": 77.87209302324854,
          "velocity": 0.2204724409448819,
          "duration": 0.17441860465112313
        },
        {
          "name": "A#6",
          "midi": 94,
          "time": 77.87209302324854,
          "velocity": 0.5039370078740157,
          "duration": 0.5116279069766279
        },
        {
          "name": "F#2",
          "midi": 42,
          "time": 77.88372093022528,
          "velocity": 0.2992125984251969,
          "duration": 0.2209302325580893
        },
        {
          "name": "G#4",
          "midi": 68,
          "time": 77.88372093022528,
          "velocity": 0.3858267716535433,
          "duration": 0.023255813953483084
        },
        {
          "name": "C#4",
          "midi": 61,
          "time": 77.89534883720202,
          "velocity": 0.5590551181102362,
          "duration": 0.2558139534883139
        },
        {
          "name": "G5",
          "midi": 79,
          "time": 77.89534883720202,
          "velocity": 0.2204724409448819,
          "duration": 0.034883720930224626
        },
        {
          "name": "D6",
          "midi": 86,
          "time": 77.90697674417876,
          "velocity": 0.12598425196850394,
          "duration": 0.04651162790696617
        },
        {
          "name": "F#4",
          "midi": 66,
          "time": 77.9186046511555,
          "velocity": 0.3464566929133858,
          "duration": 0.023255813953483084
        },
        {
          "name": "A4",
          "midi": 69,
          "time": 77.9186046511555,
          "velocity": 0.3543307086614173,
          "duration": 0.04651162790696617
        },
        {
          "name": "A#5",
          "midi": 82,
          "time": 77.9186046511555,
          "velocity": 0.36220472440944884,
          "duration": 0.24418604651157239
        },
        {
          "name": "F4",
          "midi": 65,
          "time": 77.93023255813225,
          "velocity": 0.31496062992125984,
          "duration": 0.023255813953483084
        },
        {
          "name": "D7",
          "midi": 98,
          "time": 77.94186046510899,
          "velocity": 0.3228346456692913,
          "duration": 0.39534883720921243
        },
        {
          "name": "F#4",
          "midi": 66,
          "time": 77.95348837208573,
          "velocity": 0.48031496062992124,
          "duration": 0.0813953488371908
        },
        {
          "name": "E6",
          "midi": 88,
          "time": 77.95348837208573,
          "velocity": 0.1968503937007874,
          "duration": 0.034883720930224626
        },
        {
          "name": "A#4",
          "midi": 70,
          "time": 77.96511627906247,
          "velocity": 0.5905511811023622,
          "duration": 0.20930232558134776
        },
        {
          "name": "B5",
          "midi": 83,
          "time": 77.96511627906247,
          "velocity": 0.2992125984251969,
          "duration": 0.034883720930224626
        },
        {
          "name": "A6",
          "midi": 93,
          "time": 77.96511627906247,
          "velocity": 0.4409448818897638,
          "duration": 0.06976744186044925
        },
        {
          "name": "C7",
          "midi": 96,
          "time": 77.96511627906247,
          "velocity": 0.11023622047244094,
          "duration": 0.11627906976741542
        },
        {
          "name": "F#7",
          "midi": 102,
          "time": 77.96511627906247,
          "velocity": 0.07874015748031496,
          "duration": 0.034883720930224626
        },
        {
          "name": "F5",
          "midi": 77,
          "time": 77.97674418603921,
          "velocity": 0.1968503937007874,
          "duration": 0.05813953488370771
        },
        {
          "name": "A5",
          "midi": 81,
          "time": 77.97674418603921,
          "velocity": 0.1889763779527559,
          "duration": 0.034883720930224626
        },
        {
          "name": "D#6",
          "midi": 87,
          "time": 77.98837209301595,
          "velocity": 0.49606299212598426,
          "duration": 0.406976744185954
        },
        {
          "name": "G#6",
          "midi": 92,
          "time": 77.98837209301595,
          "velocity": 0.5275590551181102,
          "duration": 1.7441860465112313
        },
        {
          "name": "F6",
          "midi": 89,
          "time": 77.9999999999927,
          "velocity": 0.3937007874015748,
          "duration": 0.1627906976743816
        },
        {
          "name": "G#5",
          "midi": 80,
          "time": 78.01162790696944,
          "velocity": 0.4881889763779528,
          "duration": 0.12790697674415696
        },
        {
          "name": "B5",
          "midi": 83,
          "time": 78.02325581394618,
          "velocity": 0.25196850393700787,
          "duration": 0.034883720930224626
        },
        {
          "name": "F#5",
          "midi": 78,
          "time": 78.03488372092292,
          "velocity": 0.2204724409448819,
          "duration": 0.06976744186044925
        },
        {
          "name": "F#6",
          "midi": 90,
          "time": 78.03488372092292,
          "velocity": 0.2440944881889764,
          "duration": 0.10465116279067388
        },
        {
          "name": "F#4",
          "midi": 66,
          "time": 78.04651162789966,
          "velocity": 0.5511811023622047,
          "duration": 0.10465116279067388
        },
        {
          "name": "F5",
          "midi": 77,
          "time": 78.0581395348764,
          "velocity": 0.2677165354330709,
          "duration": 0.06976744186044925
        },
        {
          "name": "D6",
          "midi": 86,
          "time": 78.0581395348764,
          "velocity": 0.33858267716535434,
          "duration": 0.04651162790696617
        },
        {
          "name": "F#7",
          "midi": 102,
          "time": 78.0581395348764,
          "velocity": 0.3858267716535433,
          "duration": 0.3023255813952801
        },
        {
          "name": "B5",
          "midi": 83,
          "time": 78.06976744185314,
          "velocity": 0.25984251968503935,
          "duration": 0.04651162790696617
        },
        {
          "name": "G6",
          "midi": 91,
          "time": 78.08139534882989,
          "velocity": 0.2677165354330709,
          "duration": 0.10465116279067388
        },
        {
          "name": "E7",
          "midi": 100,
          "time": 78.08139534882989,
          "velocity": 0.14960629921259844,
          "duration": 0.05813953488370771
        },
        {
          "name": "G#4",
          "midi": 68,
          "time": 78.09302325580663,
          "velocity": 0.4645669291338583,
          "duration": 0.023255813953483084
        },
        {
          "name": "C6",
          "midi": 84,
          "time": 78.09302325580663,
          "velocity": 0.25196850393700787,
          "duration": 0.034883720930224626
        },
        {
          "name": "A6",
          "midi": 93,
          "time": 78.09302325580663,
          "velocity": 0.2204724409448819,
          "duration": 0.0813953488371908
        },
        {
          "name": "C7",
          "midi": 96,
          "time": 78.09302325580663,
          "velocity": 0.3543307086614173,
          "duration": 0.31395348837202164
        },
        {
          "name": "D#5",
          "midi": 75,
          "time": 78.10465116278337,
          "velocity": 0.3464566929133858,
          "duration": 0.04651162790696617
        },
        {
          "name": "F#2",
          "midi": 42,
          "time": 78.11627906976011,
          "velocity": 0.31496062992125984,
          "duration": 0.2558139534883139
        },
        {
          "name": "G#4",
          "midi": 68,
          "time": 78.12790697673685,
          "velocity": 0.6377952755905512,
          "duration": 0.15116279069764005
        },
        {
          "name": "A5",
          "midi": 81,
          "time": 78.12790697673685,
          "velocity": 0.2677165354330709,
          "duration": 0.04651162790696617
        },
        {
          "name": "B5",
          "midi": 83,
          "time": 78.12790697673685,
          "velocity": 0.2677165354330709,
          "duration": 0.023255813953483084
        },
        {
          "name": "E6",
          "midi": 88,
          "time": 78.12790697673685,
          "velocity": 0.2755905511811024,
          "duration": 0.04651162790696617
        },
        {
          "name": "F5",
          "midi": 77,
          "time": 78.1395348837136,
          "velocity": 0.2677165354330709,
          "duration": 0.0813953488371908
        },
        {
          "name": "F#6",
          "midi": 90,
          "time": 78.15116279069034,
          "velocity": 0.2440944881889764,
          "duration": 0.10465116279067388
        },
        {
          "name": "C#4",
          "midi": 61,
          "time": 78.16279069766708,
          "velocity": 0.4251968503937008,
          "duration": 0.11627906976741542
        },
        {
          "name": "A#5",
          "midi": 82,
          "time": 78.17441860464382,
          "velocity": 0.30708661417322836,
          "duration": 0.23255813953483084
        },
        {
          "name": "B5",
          "midi": 83,
          "time": 78.17441860464382,
          "velocity": 0.07874015748031496,
          "duration": 0.034883720930224626
        },
        {
          "name": "F6",
          "midi": 89,
          "time": 78.18604651162056,
          "velocity": 0.2992125984251969,
          "duration": 0.24418604651157239
        },
        {
          "name": "A6",
          "midi": 93,
          "time": 78.18604651162056,
          "velocity": 0.15748031496062992,
          "duration": 0.06976744186044925
        },
        {
          "name": "B6",
          "midi": 95,
          "time": 78.1976744185973,
          "velocity": 0.08661417322834646,
          "duration": 0.034883720930224626
        },
        {
          "name": "E7",
          "midi": 100,
          "time": 78.20930232557404,
          "velocity": 0.11023622047244094,
          "duration": 0.04651162790696617
        },
        {
          "name": "F#5",
          "midi": 78,
          "time": 78.22093023255078,
          "velocity": 0.2283464566929134,
          "duration": 0.05813953488370771
        },
        {
          "name": "G6",
          "midi": 91,
          "time": 78.23255813952753,
          "velocity": 0.16535433070866143,
          "duration": 0.034883720930224626
        },
        {
          "name": "F5",
          "midi": 77,
          "time": 78.26744186045775,
          "velocity": 0.4015748031496063,
          "duration": 0.15116279069764005
        },
        {
          "name": "B5",
          "midi": 83,
          "time": 78.27906976743449,
          "velocity": 0.14173228346456693,
          "duration": 0.034883720930224626
        },
        {
          "name": "A#3",
          "midi": 58,
          "time": 78.29069767441123,
          "velocity": 0.3937007874015748,
          "duration": 0.04651162790696617
        },
        {
          "name": "G#4",
          "midi": 68,
          "time": 78.29069767441123,
          "velocity": 0.5433070866141733,
          "duration": 0.09302325581393234
        },
        {
          "name": "F#6",
          "midi": 90,
          "time": 78.30232558138798,
          "velocity": 0.23622047244094488,
          "duration": 0.10465116279067388
        },
        {
          "name": "E6",
          "midi": 88,
          "time": 78.32558139534146,
          "velocity": 0.14960629921259844,
          "duration": 0.034883720930224626
        },
        {
          "name": "A#3",
          "midi": 58,
          "time": 78.34883720929494,
          "velocity": 0.3228346456692913,
          "duration": 0.023255813953483084
        },
        {
          "name": "C#4",
          "midi": 61,
          "time": 78.34883720929494,
          "velocity": 0.3228346456692913,
          "duration": 0.023255813953483084
        },
        {
          "name": "D7",
          "midi": 98,
          "time": 78.34883720929494,
          "velocity": 0.14960629921259844,
          "duration": 0.04651162790696617
        },
        {
          "name": "D#5",
          "midi": 75,
          "time": 78.37209302324842,
          "velocity": 0.2125984251968504,
          "duration": 0.034883720930224626
        },
        {
          "name": "C6",
          "midi": 84,
          "time": 78.37209302324842,
          "velocity": 0.14173228346456693,
          "duration": 0.04651162790696617
        },
        {
          "name": "E6",
          "midi": 88,
          "time": 78.37209302324842,
          "velocity": 0.18110236220472442,
          "duration": 0.04651162790696617
        },
        {
          "name": "B6",
          "midi": 95,
          "time": 78.37209302324842,
          "velocity": 0.14173228346456693,
          "duration": 0.05813953488370771
        },
        {
          "name": "C3",
          "midi": 48,
          "time": 78.38372093022517,
          "velocity": 0.6377952755905512,
          "duration": 0.011627906976741542
        },
        {
          "name": "F4",
          "midi": 65,
          "time": 78.38372093022517,
          "velocity": 0.4015748031496063,
          "duration": 0.034883720930224626
        },
        {
          "name": "A5",
          "midi": 81,
          "time": 78.38372093022517,
          "velocity": 0.2677165354330709,
          "duration": 0.04651162790696617
        },
        {
          "name": "A2",
          "midi": 45,
          "time": 78.39534883720191,
          "velocity": 0.7401574803149606,
          "duration": 0.011627906976741542
        },
        {
          "name": "C4",
          "midi": 60,
          "time": 78.39534883720191,
          "velocity": 0.4330708661417323,
          "duration": 0.034883720930224626
        },
        {
          "name": "B5",
          "midi": 83,
          "time": 78.39534883720191,
          "velocity": 0.2047244094488189,
          "duration": 0.11627906976741542
        },
        {
          "name": "D6",
          "midi": 86,
          "time": 78.39534883720191,
          "velocity": 0.25196850393700787,
          "duration": 0.04651162790696617
        },
        {
          "name": "F2",
          "midi": 41,
          "time": 78.40697674417865,
          "velocity": 0.7952755905511811,
          "duration": 0.011627906976741542
        },
        {
          "name": "D2",
          "midi": 38,
          "time": 78.41860465115539,
          "velocity": 0.7874015748031497,
          "duration": 0.011627906976741542
        },
        {
          "name": "C#6",
          "midi": 85,
          "time": 78.41860465115539,
          "velocity": 0.5511811023622047,
          "duration": 0.5813953488370771
        },
        {
          "name": "G7",
          "midi": 103,
          "time": 78.41860465115539,
          "velocity": 0.08661417322834646,
          "duration": 0.04651162790696617
        },
        {
          "name": "C2",
          "midi": 36,
          "time": 78.43023255813213,
          "velocity": 0.8031496062992126,
          "duration": 0.011627906976741542
        },
        {
          "name": "F3",
          "midi": 53,
          "time": 78.43023255813213,
          "velocity": 0.49606299212598426,
          "duration": 0.0813953488371908
        },
        {
          "name": "D4",
          "midi": 62,
          "time": 78.43023255813213,
          "velocity": 0.2755905511811024,
          "duration": 0.034883720930224626
        },
        {
          "name": "G#4",
          "midi": 68,
          "time": 78.43023255813213,
          "velocity": 0.1732283464566929,
          "duration": 0.034883720930224626
        },
        {
          "name": "B1",
          "midi": 35,
          "time": 78.44186046510887,
          "velocity": 0.8031496062992126,
          "duration": 0.011627906976741542
        },
        {
          "name": "E5",
          "midi": 76,
          "time": 78.44186046510887,
          "velocity": 0.2440944881889764,
          "duration": 0.0813953488371908
        },
        {
          "name": "D#6",
          "midi": 87,
          "time": 78.44186046510887,
          "velocity": 0.16535433070866143,
          "duration": 0.09302325581393234
        },
        {
          "name": "G6",
          "midi": 91,
          "time": 78.44186046510887,
          "velocity": 0.12598425196850394,
          "duration": 0.05813953488370771
        },
        {
          "name": "A#1",
          "midi": 34,
          "time": 78.45348837208562,
          "velocity": 0.7874015748031497,
          "duration": 0.011627906976741542
        },
        {
          "name": "A1",
          "midi": 33,
          "time": 78.46511627906236,
          "velocity": 0.7795275590551181,
          "duration": 0.011627906976741542
        },
        {
          "name": "C#4",
          "midi": 61,
          "time": 78.46511627906236,
          "velocity": 0.23622047244094488,
          "duration": 0.023255813953483084
        },
        {
          "name": "A4",
          "midi": 69,
          "time": 78.46511627906236,
          "velocity": 0.2755905511811024,
          "duration": 0.023255813953483084
        },
        {
          "name": "G#1",
          "midi": 32,
          "time": 78.4767441860391,
          "velocity": 0.7795275590551181,
          "duration": 0.023255813953483084
        },
        {
          "name": "A#4",
          "midi": 70,
          "time": 78.48837209301584,
          "velocity": 0.2283464566929134,
          "duration": 0.023255813953483084
        },
        {
          "name": "F5",
          "midi": 77,
          "time": 78.48837209301584,
          "velocity": 0.25984251968503935,
          "duration": 0.12790697674415696
        },
        {
          "name": "F7",
          "midi": 101,
          "time": 78.48837209301584,
          "velocity": 0.3858267716535433,
          "duration": 0.9767441860462895
        },
        {
          "name": "F#7",
          "midi": 102,
          "time": 78.48837209301584,
          "velocity": 0.07874015748031496,
          "duration": 0.034883720930224626
        },
        {
          "name": "G1",
          "midi": 31,
          "time": 78.49999999999258,
          "velocity": 0.7716535433070866,
          "duration": 0.06976744186044925
        },
        {
          "name": "G#5",
          "midi": 80,
          "time": 78.49999999999258,
          "velocity": 0.2992125984251969,
          "duration": 0.11627906976741542
        },
        {
          "name": "F6",
          "midi": 89,
          "time": 78.49999999999258,
          "velocity": 0.3228346456692913,
          "duration": 0.26744186046505547
        },
        {
          "name": "D6",
          "midi": 86,
          "time": 78.51162790696932,
          "velocity": 0.23622047244094488,
          "duration": 0.04651162790696617
        },
        {
          "name": "F#6",
          "midi": 90,
          "time": 78.51162790696932,
          "velocity": 0.14960629921259844,
          "duration": 0.12790697674415696
        },
        {
          "name": "F3",
          "midi": 53,
          "time": 78.52325581394607,
          "velocity": 0.3700787401574803,
          "duration": 0.023255813953483084
        },
        {
          "name": "G#4",
          "midi": 68,
          "time": 78.52325581394607,
          "velocity": 0.2755905511811024,
          "duration": 0.04651162790696617
        },
        {
          "name": "B6",
          "midi": 95,
          "time": 78.52325581394607,
          "velocity": 0.2047244094488189,
          "duration": 0.2209302325580893
        },
        {
          "name": "C3",
          "midi": 48,
          "time": 78.5348837209228,
          "velocity": 0.47244094488188976,
          "duration": 0.3604651162789878
        },
        {
          "name": "C#4",
          "midi": 61,
          "time": 78.5348837209228,
          "velocity": 0.49606299212598426,
          "duration": 0.31395348837202164
        },
        {
          "name": "A6",
          "midi": 93,
          "time": 78.5348837209228,
          "velocity": 0.13385826771653545,
          "duration": 0.09302325581393234
        },
        {
          "name": "A#5",
          "midi": 82,
          "time": 78.54651162789955,
          "velocity": 0.07086614173228346,
          "duration": 0.034883720930224626
        },
        {
          "name": "C6",
          "midi": 84,
          "time": 78.54651162789955,
          "velocity": 0.14960629921259844,
          "duration": 0.034883720930224626
        },
        {
          "name": "D#6",
          "midi": 87,
          "time": 78.54651162789955,
          "velocity": 0.29133858267716534,
          "duration": 0.1395348837208985
        },
        {
          "name": "F#7",
          "midi": 102,
          "time": 78.54651162789955,
          "velocity": 0.30708661417322836,
          "duration": 0.3372093023255047
        },
        {
          "name": "G#1",
          "midi": 32,
          "time": 78.56976744185303,
          "velocity": 0.5905511811023622,
          "duration": 0.034883720930224626
        },
        {
          "name": "B5",
          "midi": 83,
          "time": 78.56976744185303,
          "velocity": 0.14960629921259844,
          "duration": 0.06976744186044925
        },
        {
          "name": "C7",
          "midi": 96,
          "time": 78.56976744185303,
          "velocity": 0.3779527559055118,
          "duration": 0.5348837209301109
        },
        {
          "name": "A#4",
          "midi": 70,
          "time": 78.58139534882977,
          "velocity": 0.2283464566929134,
          "duration": 0.023255813953483084
        },
        {
          "name": "D#5",
          "midi": 75,
          "time": 78.59302325580651,
          "velocity": 0.25196850393700787,
          "duration": 0.04651162790696617
        },
        {
          "name": "C6",
          "midi": 84,
          "time": 78.59302325580651,
          "velocity": 0.12598425196850394,
          "duration": 0.05813953488370771
        },
        {
          "name": "G6",
          "midi": 91,
          "time": 78.59302325580651,
          "velocity": 0.1968503937007874,
          "duration": 0.06976744186044925
        },
        {
          "name": "G1",
          "midi": 31,
          "time": 78.60465116278326,
          "velocity": 0.6299212598425197,
          "duration": 0.011627906976741542
        },
        {
          "name": "A5",
          "midi": 81,
          "time": 78.60465116278326,
          "velocity": 0.2992125984251969,
          "duration": 0.06976744186044925
        },
        {
          "name": "F#1",
          "midi": 30,
          "time": 78.61627906976,
          "velocity": 0.7165354330708661,
          "duration": 0.06976744186044925
        },
        {
          "name": "G#3",
          "midi": 56,
          "time": 78.61627906976,
          "velocity": 0.5511811023622047,
          "duration": 0.05813953488370771
        },
        {
          "name": "A#4",
          "midi": 70,
          "time": 78.61627906976,
          "velocity": 0.2677165354330709,
          "duration": 0.04651162790696617
        },
        {
          "name": "G#5",
          "midi": 80,
          "time": 78.63953488371348,
          "velocity": 0.4409448818897638,
          "duration": 0.406976744185954
        },
        {
          "name": "E7",
          "midi": 100,
          "time": 78.63953488371348,
          "velocity": 0.11811023622047244,
          "duration": 0.034883720930224626
        },
        {
          "name": "D#5",
          "midi": 75,
          "time": 78.65116279069022,
          "velocity": 0.2992125984251969,
          "duration": 0.05813953488370771
        },
        {
          "name": "D#7",
          "midi": 99,
          "time": 78.65116279069022,
          "velocity": 0.31496062992125984,
          "duration": 0.4999999999998863
        },
        {
          "name": "F5",
          "midi": 77,
          "time": 78.66279069766696,
          "velocity": 0.4409448818897638,
          "duration": 0.43023255813943706
        },
        {
          "name": "A#6",
          "midi": 94,
          "time": 78.66279069766696,
          "velocity": 0.1968503937007874,
          "duration": 0.2209302325580893
        },
        {
          "name": "G3",
          "midi": 55,
          "time": 78.6744186046437,
          "velocity": 0.4566929133858268,
          "duration": 0.023255813953483084
        },
        {
          "name": "A#4",
          "midi": 70,
          "time": 78.6744186046437,
          "velocity": 0.29133858267716534,
          "duration": 0.034883720930224626
        },
        {
          "name": "F1",
          "midi": 29,
          "time": 78.68604651162045,
          "velocity": 0.7244094488188977,
          "duration": 0.34883720930224626
        },
        {
          "name": "C6",
          "midi": 84,
          "time": 78.68604651162045,
          "velocity": 0.2440944881889764,
          "duration": 0.04651162790696617
        },
        {
          "name": "E6",
          "midi": 88,
          "time": 78.68604651162045,
          "velocity": 0.07086614173228346,
          "duration": 0.034883720930224626
        },
        {
          "name": "G7",
          "midi": 103,
          "time": 78.68604651162045,
          "velocity": 0.14960629921259844,
          "duration": 0.20930232558134776
        },
        {
          "name": "G#3",
          "midi": 56,
          "time": 78.69767441859719,
          "velocity": 0.3858267716535433,
          "duration": 0.023255813953483084
        },
        {
          "name": "B5",
          "midi": 83,
          "time": 78.69767441859719,
          "velocity": 0.1968503937007874,
          "duration": 0.04651162790696617
        },
        {
          "name": "D6",
          "midi": 86,
          "time": 78.70930232557393,
          "velocity": 0.2283464566929134,
          "duration": 0.0813953488371908
        },
        {
          "name": "G6",
          "midi": 91,
          "time": 78.70930232557393,
          "velocity": 0.3543307086614173,
          "duration": 0.20930232558134776
        },
        {
          "name": "D7",
          "midi": 98,
          "time": 78.70930232557393,
          "velocity": 0.28346456692913385,
          "duration": 0.1627906976743816
        },
        {
          "name": "E7",
          "midi": 100,
          "time": 78.70930232557393,
          "velocity": 0.15748031496062992,
          "duration": 0.279069767441797
        },
        {
          "name": "C5",
          "midi": 72,
          "time": 78.72093023255067,
          "velocity": 0.3937007874015748,
          "duration": 0.04651162790696617
        },
        {
          "name": "F3",
          "midi": 53,
          "time": 78.73255813952741,
          "velocity": 0.4094488188976378,
          "duration": 0.023255813953483084
        },
        {
          "name": "A5",
          "midi": 81,
          "time": 78.74418604650415,
          "velocity": 0.2283464566929134,
          "duration": 0.023255813953483084
        },
        {
          "name": "E5",
          "midi": 76,
          "time": 78.7558139534809,
          "velocity": 0.2440944881889764,
          "duration": 0.023255813953483084
        },
        {
          "name": "B5",
          "midi": 83,
          "time": 78.7558139534809,
          "velocity": 0.10236220472440945,
          "duration": 0.034883720930224626
        },
        {
          "name": "F#6",
          "midi": 90,
          "time": 78.7558139534809,
          "velocity": 0.13385826771653545,
          "duration": 0.0813953488371908
        },
        {
          "name": "B6",
          "midi": 95,
          "time": 78.7558139534809,
          "velocity": 0.2283464566929134,
          "duration": 0.24418604651157239
        },
        {
          "name": "F3",
          "midi": 53,
          "time": 78.76744186045764,
          "velocity": 0.41732283464566927,
          "duration": 0.034883720930224626
        },
        {
          "name": "C#5",
          "midi": 73,
          "time": 78.76744186045764,
          "velocity": 0.5826771653543307,
          "duration": 0.20930232558134776
        },
        {
          "name": "C6",
          "midi": 84,
          "time": 78.76744186045764,
          "velocity": 0.3858267716535433,
          "duration": 0.11627906976741542
        },
        {
          "name": "D#5",
          "midi": 75,
          "time": 78.77906976743438,
          "velocity": 0.1889763779527559,
          "duration": 0.034883720930224626
        },
        {
          "name": "A#5",
          "midi": 82,
          "time": 78.77906976743438,
          "velocity": 0.2047244094488189,
          "duration": 0.11627906976741542
        },
        {
          "name": "D#6",
          "midi": 87,
          "time": 78.79069767441112,
          "velocity": 0.2992125984251969,
          "duration": 0.15116279069764005
        },
        {
          "name": "F3",
          "midi": 53,
          "time": 78.8139534883646,
          "velocity": 0.44881889763779526,
          "duration": 0.10465116279067388
        },
        {
          "name": "A4",
          "midi": 69,
          "time": 78.8139534883646,
          "velocity": 0.3464566929133858,
          "duration": 0.034883720930224626
        },
        {
          "name": "A6",
          "midi": 93,
          "time": 78.8139534883646,
          "velocity": 0.2283464566929134,
          "duration": 0.034883720930224626
        },
        {
          "name": "E6",
          "midi": 88,
          "time": 78.83720930231809,
          "velocity": 0.16535433070866143,
          "duration": 0.034883720930224626
        },
        {
          "name": "F#6",
          "midi": 90,
          "time": 78.84883720929483,
          "velocity": 0.28346456692913385,
          "duration": 0.1395348837208985
        },
        {
          "name": "G#4",
          "midi": 68,
          "time": 78.87209302324831,
          "velocity": 0.33858267716535434,
          "duration": 0.05813953488370771
        },
        {
          "name": "A6",
          "midi": 93,
          "time": 78.87209302324831,
          "velocity": 0.25984251968503935,
          "duration": 0.1627906976743816
        },
        {
          "name": "C#4",
          "midi": 61,
          "time": 78.88372093022505,
          "velocity": 0.3858267716535433,
          "duration": 0.09302325581393234
        },
        {
          "name": "C6",
          "midi": 84,
          "time": 78.8953488372018,
          "velocity": 0.3464566929133858,
          "duration": 0.17441860465112313
        },
        {
          "name": "C3",
          "midi": 48,
          "time": 78.90697674417854,
          "velocity": 0.4409448818897638,
          "duration": 0.034883720930224626
        },
        {
          "name": "D7",
          "midi": 98,
          "time": 78.90697674417854,
          "velocity": 0.14173228346456693,
          "duration": 0.04651162790696617
        },
        {
          "name": "A4",
          "midi": 69,
          "time": 78.91860465115528,
          "velocity": 0.3779527559055118,
          "duration": 0.023255813953483084
        },
        {
          "name": "F3",
          "midi": 53,
          "time": 78.93023255813202,
          "velocity": 0.5275590551181102,
          "duration": 0.12790697674415696
        },
        {
          "name": "G#4",
          "midi": 68,
          "time": 78.94186046510876,
          "velocity": 0.4015748031496063,
          "duration": 0.04651162790696617
        },
        {
          "name": "G6",
          "midi": 91,
          "time": 78.94186046510876,
          "velocity": 0.1968503937007874,
          "duration": 0.05813953488370771
        },
        {
          "name": "C4",
          "midi": 60,
          "time": 78.97674418603899,
          "velocity": 0.30708661417322836,
          "duration": 0.023255813953483084
        },
        {
          "name": "A#5",
          "midi": 82,
          "time": 78.97674418603899,
          "velocity": 0.13385826771653545,
          "duration": 0.04651162790696617
        },
        {
          "name": "D#6",
          "midi": 87,
          "time": 78.97674418603899,
          "velocity": 0.33858267716535434,
          "duration": 0.10465116279067388
        },
        {
          "name": "A4",
          "midi": 69,
          "time": 78.98837209301573,
          "velocity": 0.2125984251968504,
          "duration": 0.04651162790696617
        },
        {
          "name": "C#5",
          "midi": 73,
          "time": 78.98837209301573,
          "velocity": 0.2992125984251969,
          "duration": 0.05813953488370771
        },
        {
          "name": "D6",
          "midi": 86,
          "time": 78.99999999999247,
          "velocity": 0.2992125984251969,
          "duration": 0.04651162790696617
        },
        {
          "name": "C#6",
          "midi": 85,
          "time": 79.01162790696921,
          "velocity": 0.3228346456692913,
          "duration": 0.034883720930224626
        },
        {
          "name": "B6",
          "midi": 95,
          "time": 79.01162790696921,
          "velocity": 0.25984251968503935,
          "duration": 0.19767441860460622
        },
        {
          "name": "F#7",
          "midi": 102,
          "time": 79.01162790696921,
          "velocity": 0.31496062992125984,
          "duration": 0.12790697674415696
        },
        {
          "name": "F#6",
          "midi": 90,
          "time": 79.02325581394595,
          "velocity": 0.2440944881889764,
          "duration": 0.29069767441853855
        },
        {
          "name": "G6",
          "midi": 91,
          "time": 79.02325581394595,
          "velocity": 0.2440944881889764,
          "duration": 0.05813953488370771
        },
        {
          "name": "D7",
          "midi": 98,
          "time": 79.02325581394595,
          "velocity": 0.3464566929133858,
          "duration": 0.0813953488371908
        },
        {
          "name": "F#1",
          "midi": 30,
          "time": 79.03488372092269,
          "velocity": 0.6850393700787402,
          "duration": 0.023255813953483084
        },
        {
          "name": "G#4",
          "midi": 68,
          "time": 79.03488372092269,
          "velocity": 0.5196850393700787,
          "duration": 0.023255813953483084
        },
        {
          "name": "G5",
          "midi": 79,
          "time": 79.03488372092269,
          "velocity": 0.28346456692913385,
          "duration": 0.023255813953483084
        },
        {
          "name": "B5",
          "midi": 83,
          "time": 79.03488372092269,
          "velocity": 0.33858267716535434,
          "duration": 0.05813953488370771
        },
        {
          "name": "E6",
          "midi": 88,
          "time": 79.03488372092269,
          "velocity": 0.2755905511811024,
          "duration": 0.09302325581393234
        },
        {
          "name": "A#6",
          "midi": 94,
          "time": 79.03488372092269,
          "velocity": 0.25196850393700787,
          "duration": 0.09302325581393234
        },
        {
          "name": "A5",
          "midi": 81,
          "time": 79.04651162789943,
          "velocity": 0.47244094488188976,
          "duration": 0.034883720930224626
        },
        {
          "name": "A4",
          "midi": 69,
          "time": 79.05813953487618,
          "velocity": 0.4645669291338583,
          "duration": 0.023255813953483084
        },
        {
          "name": "C#5",
          "midi": 73,
          "time": 79.05813953487618,
          "velocity": 0.4645669291338583,
          "duration": 0.39534883720921243
        },
        {
          "name": "D6",
          "midi": 86,
          "time": 79.08139534882966,
          "velocity": 0.13385826771653545,
          "duration": 0.034883720930224626
        },
        {
          "name": "B5",
          "midi": 83,
          "time": 79.10465116278314,
          "velocity": 0.1732283464566929,
          "duration": 0.09302325581393234
        },
        {
          "name": "D#6",
          "midi": 87,
          "time": 79.10465116278314,
          "velocity": 0.2283464566929134,
          "duration": 0.11627906976741542
        },
        {
          "name": "F6",
          "midi": 89,
          "time": 79.10465116278314,
          "velocity": 0.16535433070866143,
          "duration": 0.10465116279067388
        },
        {
          "name": "A6",
          "midi": 93,
          "time": 79.10465116278314,
          "velocity": 0.2440944881889764,
          "duration": 0.12790697674415696
        },
        {
          "name": "F2",
          "midi": 41,
          "time": 79.11627906975988,
          "velocity": 0.41732283464566927,
          "duration": 0.558139534883594
        },
        {
          "name": "G#5",
          "midi": 80,
          "time": 79.11627906975988,
          "velocity": 0.2283464566929134,
          "duration": 0.04651162790696617
        },
        {
          "name": "D7",
          "midi": 98,
          "time": 79.11627906975988,
          "velocity": 0.2283464566929134,
          "duration": 0.04651162790696617
        },
        {
          "name": "C6",
          "midi": 84,
          "time": 79.12790697673663,
          "velocity": 0.2283464566929134,
          "duration": 0.034883720930224626
        },
        {
          "name": "D6",
          "midi": 86,
          "time": 79.13953488371337,
          "velocity": 0.2047244094488189,
          "duration": 0.034883720930224626
        },
        {
          "name": "G6",
          "midi": 91,
          "time": 79.15116279069011,
          "velocity": 0.11811023622047244,
          "duration": 0.0813953488371908
        },
        {
          "name": "C#4",
          "midi": 61,
          "time": 79.16279069766685,
          "velocity": 0.15748031496062992,
          "duration": 0.05813953488370771
        },
        {
          "name": "G#4",
          "midi": 68,
          "time": 79.16279069766685,
          "velocity": 0.3858267716535433,
          "duration": 0.05813953488370771
        },
        {
          "name": "F5",
          "midi": 77,
          "time": 79.16279069766685,
          "velocity": 0.18110236220472442,
          "duration": 0.0813953488371908
        },
        {
          "name": "A5",
          "midi": 81,
          "time": 79.16279069766685,
          "velocity": 0.2440944881889764,
          "duration": 0.05813953488370771
        },
        {
          "name": "C7",
          "midi": 96,
          "time": 79.16279069766685,
          "velocity": 0.12598425196850394,
          "duration": 0.06976744186044925
        },
        {
          "name": "D#7",
          "midi": 99,
          "time": 79.16279069766685,
          "velocity": 0.3543307086614173,
          "duration": 0.5465116279068525
        },
        {
          "name": "G5",
          "midi": 79,
          "time": 79.19767441859707,
          "velocity": 0.15748031496062992,
          "duration": 0.034883720930224626
        },
        {
          "name": "A#6",
          "midi": 94,
          "time": 79.20930232557382,
          "velocity": 0.4094488188976378,
          "duration": 0.3023255813952801
        },
        {
          "name": "C4",
          "midi": 60,
          "time": 79.22093023255056,
          "velocity": 0.07874015748031496,
          "duration": 0.034883720930224626
        },
        {
          "name": "A4",
          "midi": 69,
          "time": 79.22093023255056,
          "velocity": 0.4645669291338583,
          "duration": 0.05813953488370771
        },
        {
          "name": "D6",
          "midi": 86,
          "time": 79.22093023255056,
          "velocity": 0.1968503937007874,
          "duration": 0.05813953488370771
        },
        {
          "name": "F4",
          "midi": 65,
          "time": 79.2325581395273,
          "velocity": 0.29133858267716534,
          "duration": 0.023255813953483084
        },
        {
          "name": "A#5",
          "midi": 82,
          "time": 79.2325581395273,
          "velocity": 0.2992125984251969,
          "duration": 0.034883720930224626
        },
        {
          "name": "C6",
          "midi": 84,
          "time": 79.24418604650404,
          "velocity": 0.3543307086614173,
          "duration": 0.29069767441853855
        },
        {
          "name": "A6",
          "midi": 93,
          "time": 79.24418604650404,
          "velocity": 0.36220472440944884,
          "duration": 0.034883720930224626
        },
        {
          "name": "B6",
          "midi": 95,
          "time": 79.24418604650404,
          "velocity": 0.14960629921259844,
          "duration": 0.04651162790696617
        },
        {
          "name": "D#6",
          "midi": 87,
          "time": 79.25581395348078,
          "velocity": 0.4645669291338583,
          "duration": 0.4651162790696617
        },
        {
          "name": "F6",
          "midi": 89,
          "time": 79.25581395348078,
          "velocity": 0.4015748031496063,
          "duration": 0.279069767441797
        },
        {
          "name": "G7",
          "midi": 103,
          "time": 79.25581395348078,
          "velocity": 0.11023622047244094,
          "duration": 0.04651162790696617
        },
        {
          "name": "F4",
          "midi": 65,
          "time": 79.26744186045752,
          "velocity": 0.4645669291338583,
          "duration": 0.09302325581393234
        },
        {
          "name": "B5",
          "midi": 83,
          "time": 79.26744186045752,
          "velocity": 0.3779527559055118,
          "duration": 0.034883720930224626
        },
        {
          "name": "D7",
          "midi": 98,
          "time": 79.26744186045752,
          "velocity": 0.2283464566929134,
          "duration": 0.06976744186044925
        },
        {
          "name": "C#4",
          "midi": 61,
          "time": 79.27906976743427,
          "velocity": 0.1889763779527559,
          "duration": 0.034883720930224626
        },
        {
          "name": "A#4",
          "midi": 70,
          "time": 79.27906976743427,
          "velocity": 0.6141732283464567,
          "duration": 0.15116279069764005
        },
        {
          "name": "A5",
          "midi": 81,
          "time": 79.27906976743427,
          "velocity": 0.2283464566929134,
          "duration": 0.023255813953483084
        },
        {
          "name": "C7",
          "midi": 96,
          "time": 79.27906976743427,
          "velocity": 0.36220472440944884,
          "duration": 0.43023255813943706
        },
        {
          "name": "G#5",
          "midi": 80,
          "time": 79.290697674411,
          "velocity": 0.4409448818897638,
          "duration": 0.43023255813943706
        },
        {
          "name": "A6",
          "midi": 93,
          "time": 79.30232558138775,
          "velocity": 0.2677165354330709,
          "duration": 0.05813953488370771
        },
        {
          "name": "G6",
          "midi": 91,
          "time": 79.31395348836449,
          "velocity": 0.25196850393700787,
          "duration": 0.20930232558134776
        },
        {
          "name": "C#4",
          "midi": 61,
          "time": 79.33720930231797,
          "velocity": 0.25196850393700787,
          "duration": 0.034883720930224626
        },
        {
          "name": "D7",
          "midi": 98,
          "time": 79.34883720929471,
          "velocity": 0.2755905511811024,
          "duration": 0.18604651162786467
        },
        {
          "name": "A3",
          "midi": 57,
          "time": 79.3720930232482,
          "velocity": 0.3858267716535433,
          "duration": 0.023255813953483084
        },
        {
          "name": "D4",
          "midi": 62,
          "time": 79.3720930232482,
          "velocity": 0.33858267716535434,
          "duration": 0.034883720930224626
        },
        {
          "name": "F4",
          "midi": 65,
          "time": 79.3720930232482,
          "velocity": 0.44881889763779526,
          "duration": 0.05813953488370771
        },
        {
          "name": "F#6",
          "midi": 90,
          "time": 79.3720930232482,
          "velocity": 0.29133858267716534,
          "duration": 0.06976744186044925
        },
        {
          "name": "G#4",
          "midi": 68,
          "time": 79.38372093022494,
          "velocity": 0.5984251968503937,
          "duration": 0.20930232558134776
        },
        {
          "name": "B6",
          "midi": 95,
          "time": 79.38372093022494,
          "velocity": 0.15748031496062992,
          "duration": 0.04651162790696617
        },
        {
          "name": "A5",
          "midi": 81,
          "time": 79.39534883720168,
          "velocity": 0.31496062992125984,
          "duration": 0.023255813953483084
        },
        {
          "name": "D6",
          "midi": 86,
          "time": 79.39534883720168,
          "velocity": 0.33070866141732286,
          "duration": 0.04651162790696617
        },
        {
          "name": "C#4",
          "midi": 61,
          "time": 79.40697674417842,
          "velocity": 0.4251968503937008,
          "duration": 0.279069767441797
        },
        {
          "name": "G#3",
          "midi": 56,
          "time": 79.41860465115516,
          "velocity": 0.4330708661417323,
          "duration": 0.023255813953483084
        },
        {
          "name": "F#7",
          "midi": 102,
          "time": 79.41860465115516,
          "velocity": 0.3937007874015748,
          "duration": 0.24418604651157239
        },
        {
          "name": "D#5",
          "midi": 75,
          "time": 79.4302325581319,
          "velocity": 0.33070866141732286,
          "duration": 0.05813953488370771
        },
        {
          "name": "A#5",
          "midi": 82,
          "time": 79.4302325581319,
          "velocity": 0.2047244094488189,
          "duration": 0.10465116279067388
        },
        {
          "name": "A6",
          "midi": 93,
          "time": 79.4302325581319,
          "velocity": 0.1968503937007874,
          "duration": 0.034883720930224626
        },
        {
          "name": "A#4",
          "midi": 70,
          "time": 79.44186046510865,
          "velocity": 0.3228346456692913,
          "duration": 0.023255813953483084
        },
        {
          "name": "E6",
          "midi": 88,
          "time": 79.44186046510865,
          "velocity": 0.23622047244094488,
          "duration": 0.023255813953483084
        },
        {
          "name": "D6",
          "midi": 86,
          "time": 79.45348837208539,
          "velocity": 0.13385826771653545,
          "duration": 0.034883720930224626
        },
        {
          "name": "B6",
          "midi": 95,
          "time": 79.45348837208539,
          "velocity": 0.13385826771653545,
          "duration": 0.04651162790696617
        },
        {
          "name": "F4",
          "midi": 65,
          "time": 79.46511627906213,
          "velocity": 0.4094488188976378,
          "duration": 0.19767441860460622
        },
        {
          "name": "F#6",
          "midi": 90,
          "time": 79.46511627906213,
          "velocity": 0.23622047244094488,
          "duration": 0.06976744186044925
        },
        {
          "name": "C#6",
          "midi": 85,
          "time": 79.47674418603887,
          "velocity": 0.33858267716535434,
          "duration": 0.12790697674415696
        },
        {
          "name": "F7",
          "midi": 101,
          "time": 79.47674418603887,
          "velocity": 0.4645669291338583,
          "duration": 2.465116279069207
        },
        {
          "name": "E6",
          "midi": 88,
          "time": 79.52325581394584,
          "velocity": 0.1889763779527559,
          "duration": 0.034883720930224626
        },
        {
          "name": "A#6",
          "midi": 94,
          "time": 79.52325581394584,
          "velocity": 0.23622047244094488,
          "duration": 0.17441860465112313
        },
        {
          "name": "G6",
          "midi": 91,
          "time": 79.53488372092258,
          "velocity": 0.2283464566929134,
          "duration": 0.023255813953483084
        },
        {
          "name": "A6",
          "midi": 93,
          "time": 79.53488372092258,
          "velocity": 0.2047244094488189,
          "duration": 0.11627906976741542
        },
        {
          "name": "B6",
          "midi": 95,
          "time": 79.53488372092258,
          "velocity": 0.1732283464566929,
          "duration": 0.034883720930224626
        },
        {
          "name": "A#5",
          "midi": 82,
          "time": 79.54651162789932,
          "velocity": 0.1732283464566929,
          "duration": 0.034883720930224626
        },
        {
          "name": "C6",
          "midi": 84,
          "time": 79.55813953487606,
          "velocity": 0.14960629921259844,
          "duration": 0.034883720930224626
        },
        {
          "name": "F#6",
          "midi": 90,
          "time": 79.55813953487606,
          "velocity": 0.13385826771653545,
          "duration": 0.10465116279067388
        },
        {
          "name": "D#5",
          "midi": 75,
          "time": 79.5697674418528,
          "velocity": 0.33858267716535434,
          "duration": 0.12790697674415696
        },
        {
          "name": "C5",
          "midi": 72,
          "time": 79.58139534882955,
          "velocity": 0.25196850393700787,
          "duration": 0.05813953488370771
        },
        {
          "name": "G#3",
          "midi": 56,
          "time": 79.59302325580629,
          "velocity": 0.4566929133858268,
          "duration": 0.09302325581393234
        },
        {
          "name": "G4",
          "midi": 67,
          "time": 79.59302325580629,
          "velocity": 0.3228346456692913,
          "duration": 0.023255813953483084
        },
        {
          "name": "C#6",
          "midi": 85,
          "time": 79.61627906975977,
          "velocity": 0.10236220472440945,
          "duration": 0.034883720930224626
        },
        {
          "name": "A#5",
          "midi": 82,
          "time": 79.62790697673651,
          "velocity": 0.18110236220472442,
          "duration": 0.05813953488370771
        },
        {
          "name": "B5",
          "midi": 83,
          "time": 79.67441860464348,
          "velocity": 0.2677165354330709,
          "duration": 0.023255813953483084
        },
        {
          "name": "G3",
          "midi": 55,
          "time": 79.68604651162022,
          "velocity": 0.6062992125984252,
          "duration": 0.011627906976741542
        },
        {
          "name": "C5",
          "midi": 72,
          "time": 79.68604651162022,
          "velocity": 0.36220472440944884,
          "duration": 0.023255813953483084
        },
        {
          "name": "D5",
          "midi": 74,
          "time": 79.68604651162022,
          "velocity": 0.2677165354330709,
          "duration": 0.023255813953483084
        },
        {
          "name": "F6",
          "midi": 89,
          "time": 79.68604651162022,
          "velocity": 0.14960629921259844,
          "duration": 0.034883720930224626
        },
        {
          "name": "A2",
          "midi": 45,
          "time": 79.69767441859696,
          "velocity": 0.7086614173228346,
          "duration": 0.011627906976741542
        },
        {
          "name": "F5",
          "midi": 77,
          "time": 79.69767441859696,
          "velocity": 0.1968503937007874,
          "duration": 0.04651162790696617
        },
        {
          "name": "A#5",
          "midi": 82,
          "time": 79.69767441859696,
          "velocity": 0.2755905511811024,
          "duration": 0.05813953488370771
        },
        {
          "name": "B6",
          "midi": 95,
          "time": 79.69767441859696,
          "velocity": 0.09448818897637795,
          "duration": 0.034883720930224626
        },
        {
          "name": "C#7",
          "midi": 97,
          "time": 79.69767441859696,
          "velocity": 0.41732283464566927,
          "duration": 1.1511627906974127
        },
        {
          "name": "F#2",
          "midi": 42,
          "time": 79.7093023255737,
          "velocity": 0.7795275590551181,
          "duration": 0.011627906976741542
        },
        {
          "name": "G#4",
          "midi": 68,
          "time": 79.7093023255737,
          "velocity": 0.1968503937007874,
          "duration": 0.034883720930224626
        },
        {
          "name": "C#5",
          "midi": 73,
          "time": 79.7093023255737,
          "velocity": 0.36220472440944884,
          "duration": 0.06976744186044925
        },
        {
          "name": "E6",
          "midi": 88,
          "time": 79.7093023255737,
          "velocity": 0.11023622047244094,
          "duration": 0.09302325581393234
        },
        {
          "name": "D2",
          "midi": 38,
          "time": 79.72093023255044,
          "velocity": 0.7795275590551181,
          "duration": 0.011627906976741542
        },
        {
          "name": "G5",
          "midi": 79,
          "time": 79.72093023255044,
          "velocity": 0.14173228346456693,
          "duration": 0.034883720930224626
        },
        {
          "name": "C#6",
          "midi": 85,
          "time": 79.72093023255044,
          "velocity": 0.3858267716535433,
          "duration": 0.3023255813952801
        },
        {
          "name": "G6",
          "midi": 91,
          "time": 79.72093023255044,
          "velocity": 0.2440944881889764,
          "duration": 0.034883720930224626
        },
        {
          "name": "C#2",
          "midi": 37,
          "time": 79.73255813952719,
          "velocity": 0.7952755905511811,
          "duration": 0.011627906976741542
        },
        {
          "name": "G3",
          "midi": 55,
          "time": 79.73255813952719,
          "velocity": 0.3779527559055118,
          "duration": 0.034883720930224626
        },
        {
          "name": "E5",
          "midi": 76,
          "time": 79.73255813952719,
          "velocity": 0.11023622047244094,
          "duration": 0.034883720930224626
        },
        {
          "name": "D7",
          "midi": 98,
          "time": 79.73255813952719,
          "velocity": 0.10236220472440945,
          "duration": 0.034883720930224626
        },
        {
          "name": "B1",
          "midi": 35,
          "time": 79.74418604650393,
          "velocity": 0.7952755905511811,
          "duration": 0.011627906976741542
        },
        {
          "name": "F#5",
          "midi": 78,
          "time": 79.74418604650393,
          "velocity": 0.15748031496062992,
          "duration": 0.10465116279067388
        },
        {
          "name": "G#6",
          "midi": 92,
          "time": 79.74418604650393,
          "velocity": 0.5275590551181102,
          "duration": 0.5116279069766279
        },
        {
          "name": "A#1",
          "midi": 34,
          "time": 79.75581395348067,
          "velocity": 0.7795275590551181,
          "duration": 0.011627906976741542
        },
        {
          "name": "F#4",
          "midi": 66,
          "time": 79.75581395348067,
          "velocity": 0.14173228346456693,
          "duration": 0.034883720930224626
        },
        {
          "name": "A#4",
          "midi": 70,
          "time": 79.75581395348067,
          "velocity": 0.18110236220472442,
          "duration": 0.06976744186044925
        },
        {
          "name": "D#6",
          "midi": 87,
          "time": 79.75581395348067,
          "velocity": 0.07874015748031496,
          "duration": 0.034883720930224626
        },
        {
          "name": "A6",
          "midi": 93,
          "time": 79.75581395348067,
          "velocity": 0.14960629921259844,
          "duration": 0.034883720930224626
        },
        {
          "name": "A1",
          "midi": 33,
          "time": 79.76744186045741,
          "velocity": 0.7795275590551181,
          "duration": 0.023255813953483084
        },
        {
          "name": "D4",
          "midi": 62,
          "time": 79.76744186045741,
          "velocity": 0.25196850393700787,
          "duration": 0.034883720930224626
        },
        {
          "name": "G#5",
          "midi": 80,
          "time": 79.76744186045741,
          "velocity": 0.14960629921259844,
          "duration": 0.05813953488370771
        },
        {
          "name": "D6",
          "midi": 86,
          "time": 79.76744186045741,
          "velocity": 0.13385826771653545,
          "duration": 0.05813953488370771
        },
        {
          "name": "F3",
          "midi": 53,
          "time": 79.77906976743415,
          "velocity": 0.47244094488188976,
          "duration": 0.023255813953483084
        },
        {
          "name": "A#5",
          "midi": 82,
          "time": 79.77906976743415,
          "velocity": 0.1889763779527559,
          "duration": 0.05813953488370771
        },
        {
          "name": "F6",
          "midi": 89,
          "time": 79.77906976743415,
          "velocity": 0.11023622047244094,
          "duration": 0.034883720930224626
        },
        {
          "name": "G#1",
          "midi": 32,
          "time": 79.7906976744109,
          "velocity": 0.7795275590551181,
          "duration": 0.023255813953483084
        },
        {
          "name": "C#5",
          "midi": 73,
          "time": 79.7906976744109,
          "velocity": 0.4566929133858268,
          "duration": 0.23255813953483084
        },
        {
          "name": "F#3",
          "midi": 54,
          "time": 79.80232558138763,
          "velocity": 0.44881889763779526,
          "duration": 0.034883720930224626
        },
        {
          "name": "G1",
          "midi": 31,
          "time": 79.81395348836438,
          "velocity": 0.7795275590551181,
          "duration": 0.04651162790696617
        },
        {
          "name": "D#6",
          "midi": 87,
          "time": 79.81395348836438,
          "velocity": 0.1889763779527559,
          "duration": 0.04651162790696617
        },
        {
          "name": "F#6",
          "midi": 90,
          "time": 79.81395348836438,
          "velocity": 0.25984251968503935,
          "duration": 0.2209302325580893
        },
        {
          "name": "D7",
          "midi": 98,
          "time": 79.81395348836438,
          "velocity": 0.2440944881889764,
          "duration": 0.5232558139533694
        },
        {
          "name": "G#5",
          "midi": 80,
          "time": 79.83720930231786,
          "velocity": 0.3700787401574803,
          "duration": 0.4999999999998863
        },
        {
          "name": "B6",
          "midi": 95,
          "time": 79.83720930231786,
          "velocity": 0.18110236220472442,
          "duration": 0.17441860465112313
        },
        {
          "name": "E7",
          "midi": 100,
          "time": 79.83720930231786,
          "velocity": 0.11811023622047244,
          "duration": 0.0813953488371908
        },
        {
          "name": "G7",
          "midi": 103,
          "time": 79.83720930231786,
          "velocity": 0.13385826771653545,
          "duration": 0.0813953488371908
        },
        {
          "name": "F#3",
          "midi": 54,
          "time": 79.8488372092946,
          "velocity": 0.4094488188976378,
          "duration": 0.0813953488371908
        },
        {
          "name": "C#4",
          "midi": 61,
          "time": 79.8488372092946,
          "velocity": 0.3700787401574803,
          "duration": 0.10465116279067388
        },
        {
          "name": "F#4",
          "midi": 66,
          "time": 79.8488372092946,
          "velocity": 0.5354330708661418,
          "duration": 0.4999999999998863
        },
        {
          "name": "A#4",
          "midi": 70,
          "time": 79.8488372092946,
          "velocity": 0.2677165354330709,
          "duration": 0.05813953488370771
        },
        {
          "name": "F#1",
          "midi": 30,
          "time": 79.86046511627134,
          "velocity": 0.7716535433070866,
          "duration": 0.11627906976741542
        },
        {
          "name": "C#3",
          "midi": 49,
          "time": 79.87209302324808,
          "velocity": 0.4409448818897638,
          "duration": 0.1395348837208985
        },
        {
          "name": "E5",
          "midi": 76,
          "time": 79.87209302324808,
          "velocity": 0.11023622047244094,
          "duration": 0.034883720930224626
        },
        {
          "name": "A#5",
          "midi": 82,
          "time": 79.87209302324808,
          "velocity": 0.4330708661417323,
          "duration": 0.4651162790696617
        },
        {
          "name": "D#6",
          "midi": 87,
          "time": 79.87209302324808,
          "velocity": 0.08661417322834646,
          "duration": 0.05813953488370771
        },
        {
          "name": "F6",
          "midi": 89,
          "time": 79.87209302324808,
          "velocity": 0.3858267716535433,
          "duration": 0.48837209302314477
        },
        {
          "name": "A6",
          "midi": 93,
          "time": 79.89534883720157,
          "velocity": 0.15748031496062992,
          "duration": 0.034883720930224626
        },
        {
          "name": "F5",
          "midi": 77,
          "time": 79.90697674417831,
          "velocity": 0.25984251968503935,
          "duration": 0.034883720930224626
        },
        {
          "name": "F#7",
          "midi": 102,
          "time": 79.90697674417831,
          "velocity": 0.33070866141732286,
          "duration": 0.558139534883594
        },
        {
          "name": "G#4",
          "midi": 68,
          "time": 79.91860465115505,
          "velocity": 0.2755905511811024,
          "duration": 0.023255813953483084
        },
        {
          "name": "A#4",
          "midi": 70,
          "time": 79.93023255813179,
          "velocity": 0.5433070866141733,
          "duration": 0.43023255813943706
        },
        {
          "name": "A#3",
          "midi": 58,
          "time": 79.94186046510853,
          "velocity": 0.3937007874015748,
          "duration": 0.05813953488370771
        },
        {
          "name": "E6",
          "midi": 88,
          "time": 79.94186046510853,
          "velocity": 0.18110236220472442,
          "duration": 0.05813953488370771
        },
        {
          "name": "F5",
          "midi": 77,
          "time": 79.95348837208527,
          "velocity": 0.13385826771653545,
          "duration": 0.034883720930224626
        },
        {
          "name": "F1",
          "midi": 29,
          "time": 79.97674418603876,
          "velocity": 0.7165354330708661,
          "duration": 0.023255813953483084
        },
        {
          "name": "C7",
          "midi": 96,
          "time": 79.97674418603876,
          "velocity": 0.08661417322834646,
          "duration": 0.04651162790696617
        },
        {
          "name": "B5",
          "midi": 83,
          "time": 79.9883720930155,
          "velocity": 0.2677165354330709,
          "duration": 0.023255813953483084
        },
        {
          "name": "F#1",
          "midi": 30,
          "time": 79.99999999999224,
          "velocity": 0.7244094488188977,
          "duration": 0.37209302325572935
        },
        {
          "name": "A6",
          "midi": 93,
          "time": 79.99999999999224,
          "velocity": 0.2440944881889764,
          "duration": 0.1395348837208985
        },
        {
          "name": "D#7",
          "midi": 99,
          "time": 79.99999999999224,
          "velocity": 0.1732283464566929,
          "duration": 0.11627906976741542
        },
        {
          "name": "E7",
          "midi": 100,
          "time": 80.01162790696898,
          "velocity": 0.2047244094488189,
          "duration": 0.17441860465112313
        },
        {
          "name": "C#3",
          "midi": 49,
          "time": 80.02325581394572,
          "velocity": 0.3779527559055118,
          "duration": 0.04651162790696617
        },
        {
          "name": "B5",
          "midi": 83,
          "time": 80.02325581394572,
          "velocity": 0.23622047244094488,
          "duration": 0.04651162790696617
        },
        {
          "name": "D#6",
          "midi": 87,
          "time": 80.02325581394572,
          "velocity": 0.12598425196850394,
          "duration": 0.034883720930224626
        },
        {
          "name": "B6",
          "midi": 95,
          "time": 80.02325581394572,
          "velocity": 0.23622047244094488,
          "duration": 0.17441860465112313
        },
        {
          "name": "C#5",
          "midi": 73,
          "time": 80.03488372092247,
          "velocity": 0.5748031496062992,
          "duration": 0.3255813953487632
        },
        {
          "name": "A#3",
          "midi": 58,
          "time": 80.0465116278992,
          "velocity": 0.4566929133858268,
          "duration": 0.12790697674415696
        },
        {
          "name": "F#6",
          "midi": 90,
          "time": 80.0465116278992,
          "velocity": 0.3464566929133858,
          "duration": 0.43023255813943706
        },
        {
          "name": "G7",
          "midi": 103,
          "time": 80.0465116278992,
          "velocity": 0.2047244094488189,
          "duration": 0.09302325581393234
        },
        {
          "name": "F5",
          "midi": 77,
          "time": 80.05813953487595,
          "velocity": 0.2755905511811024,
          "duration": 0.023255813953483084
        },
        {
          "name": "C#4",
          "midi": 61,
          "time": 80.06976744185269,
          "velocity": 0.3464566929133858,
          "duration": 0.034883720930224626
        },
        {
          "name": "G6",
          "midi": 91,
          "time": 80.06976744185269,
          "velocity": 0.1968503937007874,
          "duration": 0.04651162790696617
        },
        {
          "name": "C7",
          "midi": 96,
          "time": 80.08139534882943,
          "velocity": 0.14960629921259844,
          "duration": 0.11627906976741542
        },
        {
          "name": "C6",
          "midi": 84,
          "time": 80.09302325580617,
          "velocity": 0.2125984251968504,
          "duration": 0.09302325581393234
        },
        {
          "name": "D#6",
          "midi": 87,
          "time": 80.10465116278291,
          "velocity": 0.18110236220472442,
          "duration": 0.05813953488370771
        },
        {
          "name": "D6",
          "midi": 86,
          "time": 80.11627906975966,
          "velocity": 0.2047244094488189,
          "duration": 0.034883720930224626
        },
        {
          "name": "C#3",
          "midi": 49,
          "time": 80.1279069767364,
          "velocity": 0.4330708661417323,
          "duration": 0.20930232558134776
        },
        {
          "name": "E6",
          "midi": 88,
          "time": 80.1279069767364,
          "velocity": 0.15748031496062992,
          "duration": 0.05813953488370771
        },
        {
          "name": "G7",
          "midi": 103,
          "time": 80.15116279068988,
          "velocity": 0.07874015748031496,
          "duration": 0.04651162790696617
        },
        {
          "name": "A6",
          "midi": 93,
          "time": 80.16279069766662,
          "velocity": 0.12598425196850394,
          "duration": 0.034883720930224626
        },
        {
          "name": "D6",
          "midi": 86,
          "time": 80.17441860464336,
          "velocity": 0.1889763779527559,
          "duration": 0.05813953488370771
        },
        {
          "name": "D#6",
          "midi": 87,
          "time": 80.17441860464336,
          "velocity": 0.16535433070866143,
          "duration": 0.034883720930224626
        },
        {
          "name": "D#5",
          "midi": 75,
          "time": 80.1860465116201,
          "velocity": 0.1889763779527559,
          "duration": 0.034883720930224626
        },
        {
          "name": "G6",
          "midi": 91,
          "time": 80.19767441859685,
          "velocity": 0.11023622047244094,
          "duration": 0.034883720930224626
        },
        {
          "name": "A6",
          "midi": 93,
          "time": 80.22093023255033,
          "velocity": 0.18110236220472442,
          "duration": 0.0813953488371908
        },
        {
          "name": "E7",
          "midi": 100,
          "time": 80.23255813952707,
          "velocity": 0.11811023622047244,
          "duration": 0.06976744186044925
        },
        {
          "name": "D#7",
          "midi": 99,
          "time": 80.25581395348055,
          "velocity": 0.4566929133858268,
          "duration": 0.5697674418603356
        },
        {
          "name": "E6",
          "midi": 88,
          "time": 80.2674418604573,
          "velocity": 0.10236220472440945,
          "duration": 0.034883720930224626
        },
        {
          "name": "G#6",
          "midi": 92,
          "time": 80.2674418604573,
          "velocity": 0.5118110236220472,
          "duration": 0.34883720930224626
        },
        {
          "name": "C7",
          "midi": 96,
          "time": 80.27906976743404,
          "velocity": 0.10236220472440945,
          "duration": 0.034883720930224626
        },
        {
          "name": "B5",
          "midi": 83,
          "time": 80.30232558138752,
          "velocity": 0.1968503937007874,
          "duration": 0.034883720930224626
        },
        {
          "name": "D6",
          "midi": 86,
          "time": 80.30232558138752,
          "velocity": 0.3543307086614173,
          "duration": 0.19767441860460622
        },
        {
          "name": "A5",
          "midi": 81,
          "time": 80.325581395341,
          "velocity": 0.4330708661417323,
          "duration": 0.1395348837208985
        },
        {
          "name": "E6",
          "midi": 88,
          "time": 80.325581395341,
          "velocity": 0.2755905511811024,
          "duration": 0.12790697674415696
        },
        {
          "name": "E7",
          "midi": 100,
          "time": 80.33720930231775,
          "velocity": 0.2992125984251969,
          "duration": 0.1627906976743816
        },
        {
          "name": "G7",
          "midi": 103,
          "time": 80.33720930231775,
          "velocity": 0.14960629921259844,
          "duration": 0.0813953488371908
        },
        {
          "name": "A#3",
          "midi": 58,
          "time": 80.34883720929449,
          "velocity": 0.2755905511811024,
          "duration": 0.04651162790696617
        },
        {
          "name": "B5",
          "midi": 83,
          "time": 80.34883720929449,
          "velocity": 0.2755905511811024,
          "duration": 0.04651162790696617
        },
        {
          "name": "G6",
          "midi": 91,
          "time": 80.34883720929449,
          "velocity": 0.3228346456692913,
          "duration": 0.1395348837208985
        },
        {
          "name": "C7",
          "midi": 96,
          "time": 80.34883720929449,
          "velocity": 0.2283464566929134,
          "duration": 0.04651162790696617
        },
        {
          "name": "D7",
          "midi": 98,
          "time": 80.34883720929449,
          "velocity": 0.3779527559055118,
          "duration": 0.06976744186044925
        },
        {
          "name": "E4",
          "midi": 64,
          "time": 80.36046511627123,
          "velocity": 0.25196850393700787,
          "duration": 0.023255813953483084
        },
        {
          "name": "A4",
          "midi": 69,
          "time": 80.36046511627123,
          "velocity": 0.5039370078740157,
          "duration": 0.023255813953483084
        },
        {
          "name": "F5",
          "midi": 77,
          "time": 80.36046511627123,
          "velocity": 0.2283464566929134,
          "duration": 0.023255813953483084
        },
        {
          "name": "G#5",
          "midi": 80,
          "time": 80.36046511627123,
          "velocity": 0.3543307086614173,
          "duration": 0.034883720930224626
        },
        {
          "name": "D#6",
          "midi": 87,
          "time": 80.36046511627123,
          "velocity": 0.2677165354330709,
          "duration": 0.034883720930224626
        },
        {
          "name": "A#4",
          "midi": 70,
          "time": 80.37209302324797,
          "velocity": 0.36220472440944884,
          "duration": 0.0813953488371908
        },
        {
          "name": "C#5",
          "midi": 73,
          "time": 80.37209302324797,
          "velocity": 0.3464566929133858,
          "duration": 0.05813953488370771
        },
        {
          "name": "F6",
          "midi": 89,
          "time": 80.37209302324797,
          "velocity": 0.23622047244094488,
          "duration": 0.0813953488371908
        },
        {
          "name": "F#5",
          "midi": 78,
          "time": 80.38372093022471,
          "velocity": 0.15748031496062992,
          "duration": 0.05813953488370771
        },
        {
          "name": "G#5",
          "midi": 80,
          "time": 80.41860465115494,
          "velocity": 0.2125984251968504,
          "duration": 0.05813953488370771
        },
        {
          "name": "A#6",
          "midi": 94,
          "time": 80.43023255813168,
          "velocity": 0.4881889763779528,
          "duration": 0.45348837209292014
        },
        {
          "name": "F#3",
          "midi": 54,
          "time": 80.44186046510842,
          "velocity": 0.29133858267716534,
          "duration": 0.23255813953483084
        },
        {
          "name": "C#5",
          "midi": 73,
          "time": 80.44186046510842,
          "velocity": 0.4645669291338583,
          "duration": 0.5813953488370771
        },
        {
          "name": "A#5",
          "midi": 82,
          "time": 80.45348837208516,
          "velocity": 0.2047244094488189,
          "duration": 0.04651162790696617
        },
        {
          "name": "G#4",
          "midi": 68,
          "time": 80.4651162790619,
          "velocity": 0.4015748031496063,
          "duration": 0.06976744186044925
        },
        {
          "name": "A5",
          "midi": 81,
          "time": 80.47674418603864,
          "velocity": 0.28346456692913385,
          "duration": 0.034883720930224626
        },
        {
          "name": "F6",
          "midi": 89,
          "time": 80.47674418603864,
          "velocity": 0.2204724409448819,
          "duration": 0.09302325581393234
        },
        {
          "name": "B6",
          "midi": 95,
          "time": 80.47674418603864,
          "velocity": 0.2204724409448819,
          "duration": 0.0813953488371908
        },
        {
          "name": "F#6",
          "midi": 90,
          "time": 80.48837209301539,
          "velocity": 0.23622047244094488,
          "duration": 0.04651162790696617
        },
        {
          "name": "C6",
          "midi": 84,
          "time": 80.49999999999213,
          "velocity": 0.14173228346456693,
          "duration": 0.05813953488370771
        },
        {
          "name": "C7",
          "midi": 96,
          "time": 80.49999999999213,
          "velocity": 0.4881889763779528,
          "duration": 1.5581395348833667
        },
        {
          "name": "F#2",
          "midi": 42,
          "time": 80.51162790696887,
          "velocity": 0.4251968503937008,
          "duration": 0.47674418604640323
        },
        {
          "name": "C#4",
          "midi": 61,
          "time": 80.51162790696887,
          "velocity": 0.14173228346456693,
          "duration": 0.06976744186044925
        },
        {
          "name": "A#5",
          "midi": 82,
          "time": 80.51162790696887,
          "velocity": 0.2677165354330709,
          "duration": 0.05813953488370771
        },
        {
          "name": "D6",
          "midi": 86,
          "time": 80.51162790696887,
          "velocity": 0.23622047244094488,
          "duration": 0.04651162790696617
        },
        {
          "name": "F#5",
          "midi": 78,
          "time": 80.52325581394561,
          "velocity": 0.2204724409448819,
          "duration": 0.15116279069764005
        },
        {
          "name": "D#6",
          "midi": 87,
          "time": 80.52325581394561,
          "velocity": 0.4409448818897638,
          "duration": 0.4418604651161786
        },
        {
          "name": "G6",
          "midi": 91,
          "time": 80.52325581394561,
          "velocity": 0.25984251968503935,
          "duration": 0.034883720930224626
        },
        {
          "name": "F4",
          "midi": 65,
          "time": 80.53488372092235,
          "velocity": 0.2677165354330709,
          "duration": 0.023255813953483084
        },
        {
          "name": "A4",
          "midi": 69,
          "time": 80.53488372092235,
          "velocity": 0.3700787401574803,
          "duration": 0.04651162790696617
        },
        {
          "name": "G#5",
          "midi": 80,
          "time": 80.5465116278991,
          "velocity": 0.30708661417322836,
          "duration": 0.023255813953483084
        },
        {
          "name": "F#4",
          "midi": 66,
          "time": 80.55813953487583,
          "velocity": 0.5354330708661418,
          "duration": 0.09302325581393234
        },
        {
          "name": "D#5",
          "midi": 75,
          "time": 80.55813953487583,
          "velocity": 0.5984251968503937,
          "duration": 0.11627906976741542
        },
        {
          "name": "B5",
          "midi": 83,
          "time": 80.55813953487583,
          "velocity": 0.14960629921259844,
          "duration": 0.034883720930224626
        },
        {
          "name": "G7",
          "midi": 103,
          "time": 80.55813953487583,
          "velocity": 0.2992125984251969,
          "duration": 0.1627906976743816
        },
        {
          "name": "G6",
          "midi": 91,
          "time": 80.56976744185258,
          "velocity": 0.2440944881889764,
          "duration": 0.0813953488371908
        },
        {
          "name": "A#4",
          "midi": 70,
          "time": 80.58139534882932,
          "velocity": 0.3464566929133858,
          "duration": 0.12790697674415696
        },
        {
          "name": "E7",
          "midi": 100,
          "time": 80.58139534882932,
          "velocity": 0.1732283464566929,
          "duration": 0.04651162790696617
        },
        {
          "name": "G#5",
          "midi": 80,
          "time": 80.59302325580606,
          "velocity": 0.2283464566929134,
          "duration": 0.023255813953483084
        },
        {
          "name": "B6",
          "midi": 95,
          "time": 80.6046511627828,
          "velocity": 0.07086614173228346,
          "duration": 0.034883720930224626
        },
        {
          "name": "E6",
          "midi": 88,
          "time": 80.61627906975954,
          "velocity": 0.2047244094488189,
          "duration": 0.05813953488370771
        },
        {
          "name": "F6",
          "midi": 89,
          "time": 80.61627906975954,
          "velocity": 0.48031496062992124,
          "duration": 0.37209302325572935
        },
        {
          "name": "A6",
          "midi": 93,
          "time": 80.61627906975954,
          "velocity": 0.15748031496062992,
          "duration": 0.04651162790696617
        },
        {
          "name": "G#5",
          "midi": 80,
          "time": 80.62790697673628,
          "velocity": 0.1732283464566929,
          "duration": 0.05813953488370771
        },
        {
          "name": "G#6",
          "midi": 92,
          "time": 80.62790697673628,
          "velocity": 0.2755905511811024,
          "duration": 0.11627906976741542
        },
        {
          "name": "E7",
          "midi": 100,
          "time": 80.63953488371303,
          "velocity": 0.2125984251968504,
          "duration": 0.1395348837208985
        },
        {
          "name": "G4",
          "midi": 67,
          "time": 80.66279069766651,
          "velocity": 0.41732283464566927,
          "duration": 0.023255813953483084
        },
        {
          "name": "A5",
          "midi": 81,
          "time": 80.66279069766651,
          "velocity": 0.1889763779527559,
          "duration": 0.034883720930224626
        },
        {
          "name": "G6",
          "midi": 91,
          "time": 80.66279069766651,
          "velocity": 0.44881889763779526,
          "duration": 0.12790697674415696
        },
        {
          "name": "B6",
          "midi": 95,
          "time": 80.66279069766651,
          "velocity": 0.1732283464566929,
          "duration": 0.05813953488370771
        },
        {
          "name": "C#4",
          "midi": 61,
          "time": 80.67441860464325,
          "velocity": 0.3937007874015748,
          "duration": 0.04651162790696617
        },
        {
          "name": "F5",
          "midi": 77,
          "time": 80.67441860464325,
          "velocity": 0.6850393700787402,
          "duration": 0.9767441860462895
        },
        {
          "name": "D7",
          "midi": 98,
          "time": 80.67441860464325,
          "velocity": 0.2125984251968504,
          "duration": 0.10465116279067388
        },
        {
          "name": "F#4",
          "midi": 66,
          "time": 80.68604651161999,
          "velocity": 0.4409448818897638,
          "duration": 0.31395348837202164
        },
        {
          "name": "D#5",
          "midi": 75,
          "time": 80.68604651161999,
          "velocity": 0.4409448818897638,
          "duration": 0.0813953488371908
        },
        {
          "name": "G5",
          "midi": 79,
          "time": 80.68604651161999,
          "velocity": 0.2755905511811024,
          "duration": 0.034883720930224626
        },
        {
          "name": "A6",
          "midi": 93,
          "time": 80.68604651161999,
          "velocity": 0.2125984251968504,
          "duration": 0.05813953488370771
        },
        {
          "name": "A#3",
          "midi": 58,
          "time": 80.69767441859673,
          "velocity": 0.48031496062992124,
          "duration": 0.12790697674415696
        },
        {
          "name": "G#5",
          "midi": 80,
          "time": 80.69767441859673,
          "velocity": 0.2992125984251969,
          "duration": 0.17441860465112313
        },
        {
          "name": "E6",
          "midi": 88,
          "time": 80.69767441859673,
          "velocity": 0.2204724409448819,
          "duration": 0.034883720930224626
        },
        {
          "name": "D6",
          "midi": 86,
          "time": 80.70930232557347,
          "velocity": 0.2125984251968504,
          "duration": 0.04651162790696617
        },
        {
          "name": "F#6",
          "midi": 90,
          "time": 80.72093023255022,
          "velocity": 0.2755905511811024,
          "duration": 0.11627906976741542
        },
        {
          "name": "B6",
          "midi": 95,
          "time": 80.75581395348044,
          "velocity": 0.10236220472440945,
          "duration": 0.06976744186044925
        },
        {
          "name": "C#4",
          "midi": 61,
          "time": 80.77906976743392,
          "velocity": 0.3779527559055118,
          "duration": 0.10465116279067388
        },
        {
          "name": "D#5",
          "midi": 75,
          "time": 80.79069767441067,
          "velocity": 0.2125984251968504,
          "duration": 0.034883720930224626
        },
        {
          "name": "E7",
          "midi": 100,
          "time": 80.80232558138741,
          "velocity": 0.12598425196850394,
          "duration": 0.0813953488371908
        },
        {
          "name": "G#6",
          "midi": 92,
          "time": 80.81395348836415,
          "velocity": 0.31496062992125984,
          "duration": 0.12790697674415696
        },
        {
          "name": "D7",
          "midi": 98,
          "time": 80.82558139534089,
          "velocity": 0.23622047244094488,
          "duration": 0.05813953488370771
        },
        {
          "name": "D#5",
          "midi": 75,
          "time": 80.83720930231763,
          "velocity": 0.11811023622047244,
          "duration": 0.034883720930224626
        },
        {
          "name": "E6",
          "midi": 88,
          "time": 80.84883720929437,
          "velocity": 0.11023622047244094,
          "duration": 0.04651162790696617
        },
        {
          "name": "G7",
          "midi": 103,
          "time": 80.84883720929437,
          "velocity": 0.10236220472440945,
          "duration": 0.05813953488370771
        },
        {
          "name": "G6",
          "midi": 91,
          "time": 80.86046511627111,
          "velocity": 0.2283464566929134,
          "duration": 0.034883720930224626
        },
        {
          "name": "A#4",
          "midi": 70,
          "time": 80.8837209302246,
          "velocity": 0.3228346456692913,
          "duration": 0.11627906976741542
        },
        {
          "name": "F#6",
          "midi": 90,
          "time": 80.8837209302246,
          "velocity": 0.2047244094488189,
          "duration": 0.034883720930224626
        },
        {
          "name": "A#3",
          "midi": 58,
          "time": 80.89534883720134,
          "velocity": 0.5118110236220472,
          "duration": 0.09302325581393234
        },
        {
          "name": "F#6",
          "midi": 90,
          "time": 80.93023255813156,
          "velocity": 0.23622047244094488,
          "duration": 0.10465116279067388
        },
        {
          "name": "D7",
          "midi": 98,
          "time": 80.9418604651083,
          "velocity": 0.1968503937007874,
          "duration": 0.1627906976743816
        },
        {
          "name": "G#5",
          "midi": 80,
          "time": 80.95348837208505,
          "velocity": 0.25984251968503935,
          "duration": 0.19767441860460622
        },
        {
          "name": "D#5",
          "midi": 75,
          "time": 80.97674418603853,
          "velocity": 0.2677165354330709,
          "duration": 0.09302325581393234
        },
        {
          "name": "B5",
          "midi": 83,
          "time": 80.98837209301527,
          "velocity": 0.12598425196850394,
          "duration": 0.05813953488370771
        },
        {
          "name": "C6",
          "midi": 84,
          "time": 80.98837209301527,
          "velocity": 0.1732283464566929,
          "duration": 0.15116279069764005
        },
        {
          "name": "D#6",
          "midi": 87,
          "time": 80.98837209301527,
          "velocity": 0.3937007874015748,
          "duration": 0.7209302325579756
        },
        {
          "name": "E6",
          "midi": 88,
          "time": 80.98837209301527,
          "velocity": 0.14173228346456693,
          "duration": 0.10465116279067388
        },
        {
          "name": "G6",
          "midi": 91,
          "time": 80.98837209301527,
          "velocity": 0.11811023622047244,
          "duration": 0.05813953488370771
        },
        {
          "name": "C3",
          "midi": 48,
          "time": 80.99999999999201,
          "velocity": 0.6771653543307087,
          "duration": 0.011627906976741542
        },
        {
          "name": "A4",
          "midi": 69,
          "time": 80.99999999999201,
          "velocity": 0.3543307086614173,
          "duration": 0.034883720930224626
        },
        {
          "name": "A2",
          "midi": 45,
          "time": 81.01162790696876,
          "velocity": 0.7401574803149606,
          "duration": 0.011627906976741542
        },
        {
          "name": "F#4",
          "midi": 66,
          "time": 81.01162790696876,
          "velocity": 0.3464566929133858,
          "duration": 0.034883720930224626
        },
        {
          "name": "A6",
          "midi": 93,
          "time": 81.01162790696876,
          "velocity": 0.14960629921259844,
          "duration": 0.034883720930224626
        },
        {
          "name": "F2",
          "midi": 41,
          "time": 81.0232558139455,
          "velocity": 0.7795275590551181,
          "duration": 0.011627906976741542
        },
        {
          "name": "C#2",
          "midi": 37,
          "time": 81.03488372092224,
          "velocity": 0.8031496062992126,
          "duration": 0.011627906976741542
        },
        {
          "name": "A#5",
          "midi": 82,
          "time": 81.03488372092224,
          "velocity": 0.2047244094488189,
          "duration": 0.0813953488371908
        },
        {
          "name": "B1",
          "midi": 35,
          "time": 81.04651162789898,
          "velocity": 0.7952755905511811,
          "duration": 0.011627906976741542
        },
        {
          "name": "F3",
          "midi": 53,
          "time": 81.04651162789898,
          "velocity": 0.4015748031496063,
          "duration": 0.023255813953483084
        },
        {
          "name": "G7",
          "midi": 103,
          "time": 81.04651162789898,
          "velocity": 0.14173228346456693,
          "duration": 0.034883720930224626
        },
        {
          "name": "A#1",
          "midi": 34,
          "time": 81.05813953487572,
          "velocity": 0.7874015748031497,
          "duration": 0.011627906976741542
        },
        {
          "name": "D5",
          "midi": 74,
          "time": 81.05813953487572,
          "velocity": 0.30708661417322836,
          "duration": 0.04651162790696617
        },
        {
          "name": "C#7",
          "midi": 97,
          "time": 81.05813953487572,
          "velocity": 0.11811023622047244,
          "duration": 0.034883720930224626
        },
        {
          "name": "A1",
          "midi": 33,
          "time": 81.06976744185246,
          "velocity": 0.7716535433070866,
          "duration": 0.023255813953483084
        },
        {
          "name": "E3",
          "midi": 52,
          "time": 81.06976744185246,
          "velocity": 0.2992125984251969,
          "duration": 0.023255813953483084
        },
        {
          "name": "A3",
          "midi": 57,
          "time": 81.06976744185246,
          "velocity": 0.25984251968503935,
          "duration": 0.034883720930224626
        },
        {
          "name": "C#4",
          "midi": 61,
          "time": 81.06976744185246,
          "velocity": 0.1968503937007874,
          "duration": 0.05813953488370771
        },
        {
          "name": "G#1",
          "midi": 32,
          "time": 81.09302325580595,
          "velocity": 0.7559055118110236,
          "duration": 0.023255813953483084
        },
        {
          "name": "G#3",
          "midi": 56,
          "time": 81.10465116278269,
          "velocity": 0.4409448818897638,
          "duration": 0.558139534883594
        },
        {
          "name": "C#5",
          "midi": 73,
          "time": 81.10465116278269,
          "velocity": 0.28346456692913385,
          "duration": 0.06976744186044925
        },
        {
          "name": "D#5",
          "midi": 75,
          "time": 81.10465116278269,
          "velocity": 0.2440944881889764,
          "duration": 0.0813953488371908
        },
        {
          "name": "E7",
          "midi": 100,
          "time": 81.10465116278269,
          "velocity": 0.14960629921259844,
          "duration": 0.05813953488370771
        },
        {
          "name": "G1",
          "midi": 31,
          "time": 81.11627906975943,
          "velocity": 0.7637795275590551,
          "duration": 0.1395348837208985
        },
        {
          "name": "G#4",
          "midi": 68,
          "time": 81.12790697673617,
          "velocity": 0.6062992125984252,
          "duration": 0.5116279069766279
        },
        {
          "name": "D6",
          "midi": 86,
          "time": 81.12790697673617,
          "velocity": 0.12598425196850394,
          "duration": 0.034883720930224626
        },
        {
          "name": "G#6",
          "midi": 92,
          "time": 81.12790697673617,
          "velocity": 0.2677165354330709,
          "duration": 0.24418604651157239
        },
        {
          "name": "D#3",
          "midi": 51,
          "time": 81.13953488371291,
          "velocity": 0.31496062992125984,
          "duration": 0.023255813953483084
        },
        {
          "name": "C#4",
          "midi": 61,
          "time": 81.13953488371291,
          "velocity": 0.2125984251968504,
          "duration": 0.04651162790696617
        },
        {
          "name": "F#6",
          "midi": 90,
          "time": 81.15116279068965,
          "velocity": 0.09448818897637795,
          "duration": 0.06976744186044925
        },
        {
          "name": "D3",
          "midi": 50,
          "time": 81.1627906976664,
          "velocity": 0.3700787401574803,
          "duration": 0.023255813953483084
        },
        {
          "name": "F4",
          "midi": 65,
          "time": 81.1627906976664,
          "velocity": 0.11811023622047244,
          "duration": 0.04651162790696617
        },
        {
          "name": "A#5",
          "midi": 82,
          "time": 81.1627906976664,
          "velocity": 0.15748031496062992,
          "duration": 0.10465116279067388
        },
        {
          "name": "D#3",
          "midi": 51,
          "time": 81.18604651161988,
          "velocity": 0.3464566929133858,
          "duration": 0.023255813953483084
        },
        {
          "name": "D5",
          "midi": 74,
          "time": 81.18604651161988,
          "velocity": 0.1968503937007874,
          "duration": 0.034883720930224626
        },
        {
          "name": "C#4",
          "midi": 61,
          "time": 81.19767441859662,
          "velocity": 0.4330708661417323,
          "duration": 0.26744186046505547
        },
        {
          "name": "C5",
          "midi": 72,
          "time": 81.19767441859662,
          "velocity": 0.25984251968503935,
          "duration": 0.023255813953483084
        },
        {
          "name": "C6",
          "midi": 84,
          "time": 81.19767441859662,
          "velocity": 0.2755905511811024,
          "duration": 0.26744186046505547
        },
        {
          "name": "A6",
          "midi": 93,
          "time": 81.20930232557336,
          "velocity": 0.16535433070866143,
          "duration": 0.10465116279067388
        },
        {
          "name": "F#7",
          "midi": 102,
          "time": 81.20930232557336,
          "velocity": 0.25984251968503935,
          "duration": 0.23255813953483084
        },
        {
          "name": "F4",
          "midi": 65,
          "time": 81.2209302325501,
          "velocity": 0.2125984251968504,
          "duration": 0.09302325581393234
        },
        {
          "name": "D#5",
          "midi": 75,
          "time": 81.2209302325501,
          "velocity": 0.2204724409448819,
          "duration": 0.0813953488371908
        },
        {
          "name": "A#6",
          "midi": 94,
          "time": 81.2209302325501,
          "velocity": 0.1889763779527559,
          "duration": 0.15116279069764005
        },
        {
          "name": "B6",
          "midi": 95,
          "time": 81.2209302325501,
          "velocity": 0.14960629921259844,
          "duration": 0.05813953488370771
        },
        {
          "name": "D#3",
          "midi": 51,
          "time": 81.23255813952684,
          "velocity": 0.4015748031496063,
          "duration": 0.10465116279067388
        },
        {
          "name": "G#1",
          "midi": 32,
          "time": 81.25581395348033,
          "velocity": 0.6850393700787402,
          "duration": 0.023255813953483084
        },
        {
          "name": "C#7",
          "midi": 97,
          "time": 81.26744186045707,
          "velocity": 0.11023622047244094,
          "duration": 0.04651162790696617
        },
        {
          "name": "A1",
          "midi": 33,
          "time": 81.27906976743381,
          "velocity": 0.6692913385826772,
          "duration": 0.023255813953483084
        },
        {
          "name": "G7",
          "midi": 103,
          "time": 81.29069767441055,
          "velocity": 0.1968503937007874,
          "duration": 0.12790697674415696
        },
        {
          "name": "G#1",
          "midi": 32,
          "time": 81.3023255813873,
          "velocity": 0.7007874015748031,
          "duration": 0.3604651162789878
        },
        {
          "name": "F#6",
          "midi": 90,
          "time": 81.31395348836404,
          "velocity": 0.12598425196850394,
          "duration": 0.034883720930224626
        },
        {
          "name": "D7",
          "midi": 98,
          "time": 81.32558139534078,
          "velocity": 0.25196850393700787,
          "duration": 0.29069767441853855
        },
        {
          "name": "D#5",
          "midi": 75,
          "time": 81.33720930231752,
          "velocity": 0.25984251968503935,
          "duration": 0.034883720930224626
        },
        {
          "name": "A6",
          "midi": 93,
          "time": 81.33720930231752,
          "velocity": 0.25984251968503935,
          "duration": 0.12790697674415696
        },
        {
          "name": "D#3",
          "midi": 51,
          "time": 81.34883720929426,
          "velocity": 0.4015748031496063,
          "duration": 0.3023255813952801
        },
        {
          "name": "D6",
          "midi": 86,
          "time": 81.34883720929426,
          "velocity": 0.2283464566929134,
          "duration": 0.023255813953483084
        },
        {
          "name": "G6",
          "midi": 91,
          "time": 81.34883720929426,
          "velocity": 0.44881889763779526,
          "duration": 0.12790697674415696
        },
        {
          "name": "E7",
          "midi": 100,
          "time": 81.34883720929426,
          "velocity": 0.2204724409448819,
          "duration": 0.09302325581393234
        },
        {
          "name": "A5",
          "midi": 81,
          "time": 81.360465116271,
          "velocity": 0.2755905511811024,
          "duration": 0.04651162790696617
        },
        {
          "name": "E6",
          "midi": 88,
          "time": 81.360465116271,
          "velocity": 0.2125984251968504,
          "duration": 0.04651162790696617
        },
        {
          "name": "B6",
          "midi": 95,
          "time": 81.360465116271,
          "velocity": 0.1889763779527559,
          "duration": 0.1395348837208985
        },
        {
          "name": "F4",
          "midi": 65,
          "time": 81.37209302324774,
          "velocity": 0.4015748031496063,
          "duration": 0.034883720930224626
        },
        {
          "name": "B4",
          "midi": 71,
          "time": 81.37209302324774,
          "velocity": 0.1889763779527559,
          "duration": 0.04651162790696617
        },
        {
          "name": "F#6",
          "midi": 90,
          "time": 81.38372093022448,
          "velocity": 0.2204724409448819,
          "duration": 0.06976744186044925
        },
        {
          "name": "G5",
          "midi": 79,
          "time": 81.39534883720123,
          "velocity": 0.2047244094488189,
          "duration": 0.034883720930224626
        },
        {
          "name": "A#5",
          "midi": 82,
          "time": 81.39534883720123,
          "velocity": 0.2677165354330709,
          "duration": 0.05813953488370771
        },
        {
          "name": "D6",
          "midi": 86,
          "time": 81.39534883720123,
          "velocity": 0.14173228346456693,
          "duration": 0.034883720930224626
        },
        {
          "name": "D#5",
          "midi": 75,
          "time": 81.40697674417797,
          "velocity": 0.3779527559055118,
          "duration": 0.0813953488371908
        },
        {
          "name": "F4",
          "midi": 65,
          "time": 81.44186046510819,
          "velocity": 0.3464566929133858,
          "duration": 0.11627906976741542
        },
        {
          "name": "F#7",
          "midi": 102,
          "time": 81.45348837208493,
          "velocity": 0.1968503937007874,
          "duration": 0.04651162790696617
        },
        {
          "name": "B5",
          "midi": 83,
          "time": 81.46511627906168,
          "velocity": 0.09448818897637795,
          "duration": 0.04651162790696617
        },
        {
          "name": "C#6",
          "midi": 85,
          "time": 81.46511627906168,
          "velocity": 0.16535433070866143,
          "duration": 0.04651162790696617
        },
        {
          "name": "F#6",
          "midi": 90,
          "time": 81.46511627906168,
          "velocity": 0.16535433070866143,
          "duration": 0.034883720930224626
        },
        {
          "name": "D5",
          "midi": 74,
          "time": 81.47674418603842,
          "velocity": 0.33858267716535434,
          "duration": 0.023255813953483084
        },
        {
          "name": "C6",
          "midi": 84,
          "time": 81.47674418603842,
          "velocity": 0.1889763779527559,
          "duration": 0.0813953488371908
        },
        {
          "name": "C#7",
          "midi": 97,
          "time": 81.47674418603842,
          "velocity": 0.16535433070866143,
          "duration": 0.09302325581393234
        },
        {
          "name": "C#5",
          "midi": 73,
          "time": 81.48837209301516,
          "velocity": 0.33858267716535434,
          "duration": 0.05813953488370771
        },
        {
          "name": "G6",
          "midi": 91,
          "time": 81.48837209301516,
          "velocity": 0.28346456692913385,
          "duration": 0.10465116279067388
        },
        {
          "name": "A6",
          "midi": 93,
          "time": 81.48837209301516,
          "velocity": 0.18110236220472442,
          "duration": 0.05813953488370771
        },
        {
          "name": "D#5",
          "midi": 75,
          "time": 81.4999999999919,
          "velocity": 0.3228346456692913,
          "duration": 0.034883720930224626
        },
        {
          "name": "A#5",
          "midi": 82,
          "time": 81.4999999999919,
          "velocity": 0.14960629921259844,
          "duration": 0.05813953488370771
        },
        {
          "name": "D6",
          "midi": 86,
          "time": 81.51162790696864,
          "velocity": 0.2125984251968504,
          "duration": 0.04651162790696617
        },
        {
          "name": "E7",
          "midi": 100,
          "time": 81.52325581394538,
          "velocity": 0.07086614173228346,
          "duration": 0.034883720930224626
        },
        {
          "name": "C5",
          "midi": 72,
          "time": 81.53488372092212,
          "velocity": 0.31496062992125984,
          "duration": 0.09302325581393234
        },
        {
          "name": "F#6",
          "midi": 90,
          "time": 81.54651162789887,
          "velocity": 0.14173228346456693,
          "duration": 0.05813953488370771
        },
        {
          "name": "G#6",
          "midi": 92,
          "time": 81.54651162789887,
          "velocity": 0.5590551181102362,
          "duration": 0.7790697674416833
        },
        {
          "name": "F#7",
          "midi": 102,
          "time": 81.54651162789887,
          "velocity": 0.4409448818897638,
          "duration": 0.7906976744184249
        },
        {
          "name": "C#4",
          "midi": 61,
          "time": 81.55813953487561,
          "velocity": 0.3228346456692913,
          "duration": 0.09302325581393234
        },
        {
          "name": "E4",
          "midi": 64,
          "time": 81.55813953487561,
          "velocity": 0.2755905511811024,
          "duration": 0.023255813953483084
        },
        {
          "name": "D#5",
          "midi": 75,
          "time": 81.55813953487561,
          "velocity": 0.25196850393700787,
          "duration": 0.11627906976741542
        },
        {
          "name": "A6",
          "midi": 93,
          "time": 81.56976744185235,
          "velocity": 0.31496062992125984,
          "duration": 0.0813953488371908
        },
        {
          "name": "F4",
          "midi": 65,
          "time": 81.58139534882909,
          "velocity": 0.4094488188976378,
          "duration": 0.06976744186044925
        },
        {
          "name": "C#7",
          "midi": 97,
          "time": 81.58139534882909,
          "velocity": 0.31496062992125984,
          "duration": 0.12790697674415696
        },
        {
          "name": "A#5",
          "midi": 82,
          "time": 81.61627906975932,
          "velocity": 0.08661417322834646,
          "duration": 0.034883720930224626
        },
        {
          "name": "B6",
          "midi": 95,
          "time": 81.61627906975932,
          "velocity": 0.30708661417322836,
          "duration": 0.15116279069764005
        },
        {
          "name": "F#6",
          "midi": 90,
          "time": 81.62790697673606,
          "velocity": 0.3464566929133858,
          "duration": 0.0813953488371908
        },
        {
          "name": "A#6",
          "midi": 94,
          "time": 81.62790697673606,
          "velocity": 0.33070866141732286,
          "duration": 0.04651162790696617
        },
        {
          "name": "B5",
          "midi": 83,
          "time": 81.6395348837128,
          "velocity": 0.3228346456692913,
          "duration": 0.0813953488371908
        },
        {
          "name": "E6",
          "midi": 88,
          "time": 81.6395348837128,
          "velocity": 0.2677165354330709,
          "duration": 0.034883720930224626
        },
        {
          "name": "G6",
          "midi": 91,
          "time": 81.6395348837128,
          "velocity": 0.3464566929133858,
          "duration": 0.04651162790696617
        },
        {
          "name": "D7",
          "midi": 98,
          "time": 81.6395348837128,
          "velocity": 0.33070866141732286,
          "duration": 0.279069767441797
        },
        {
          "name": "E7",
          "midi": 100,
          "time": 81.6395348837128,
          "velocity": 0.2992125984251969,
          "duration": 0.1395348837208985
        },
        {
          "name": "F#5",
          "midi": 78,
          "time": 81.65116279068954,
          "velocity": 0.30708661417322836,
          "duration": 0.023255813953483084
        },
        {
          "name": "A4",
          "midi": 69,
          "time": 81.66279069766628,
          "velocity": 0.5354330708661418,
          "duration": 0.034883720930224626
        },
        {
          "name": "C#5",
          "midi": 73,
          "time": 81.66279069766628,
          "velocity": 0.25196850393700787,
          "duration": 0.034883720930224626
        },
        {
          "name": "A6",
          "midi": 93,
          "time": 81.66279069766628,
          "velocity": 0.3779527559055118,
          "duration": 0.12790697674415696
        },
        {
          "name": "C#4",
          "midi": 61,
          "time": 81.67441860464302,
          "velocity": 0.33070866141732286,
          "duration": 0.034883720930224626
        },
        {
          "name": "F4",
          "midi": 65,
          "time": 81.67441860464302,
          "velocity": 0.2755905511811024,
          "duration": 0.06976744186044925
        },
        {
          "name": "F5",
          "midi": 77,
          "time": 81.67441860464302,
          "velocity": 0.6220472440944882,
          "duration": 0.20930232558134776
        },
        {
          "name": "D6",
          "midi": 86,
          "time": 81.67441860464302,
          "velocity": 0.16535433070866143,
          "duration": 0.034883720930224626
        },
        {
          "name": "G#4",
          "midi": 68,
          "time": 81.68604651161976,
          "velocity": 0.14960629921259844,
          "duration": 0.034883720930224626
        },
        {
          "name": "A#5",
          "midi": 82,
          "time": 81.68604651161976,
          "velocity": 0.25196850393700787,
          "duration": 0.09302325581393234
        },
        {
          "name": "C6",
          "midi": 84,
          "time": 81.68604651161976,
          "velocity": 0.16535433070866143,
          "duration": 0.034883720930224626
        },
        {
          "name": "G6",
          "midi": 91,
          "time": 81.6976744185965,
          "velocity": 0.14960629921259844,
          "duration": 0.04651162790696617
        },
        {
          "name": "C4",
          "midi": 60,
          "time": 81.70930232557325,
          "velocity": 0.23622047244094488,
          "duration": 0.023255813953483084
        },
        {
          "name": "C#6",
          "midi": 85,
          "time": 81.70930232557325,
          "velocity": 0.15748031496062992,
          "duration": 0.034883720930224626
        },
        {
          "name": "A4",
          "midi": 69,
          "time": 81.72093023254999,
          "velocity": 0.14960629921259844,
          "duration": 0.05813953488370771
        },
        {
          "name": "F#6",
          "midi": 90,
          "time": 81.72093023254999,
          "velocity": 0.25196850393700787,
          "duration": 0.11627906976741542
        },
        {
          "name": "C#4",
          "midi": 61,
          "time": 81.73255813952673,
          "velocity": 0.2992125984251969,
          "duration": 0.11627906976741542
        },
        {
          "name": "B5",
          "midi": 83,
          "time": 81.73255813952673,
          "velocity": 0.09448818897637795,
          "duration": 0.034883720930224626
        },
        {
          "name": "C#7",
          "midi": 97,
          "time": 81.74418604650347,
          "velocity": 0.18110236220472442,
          "duration": 0.10465116279067388
        },
        {
          "name": "G6",
          "midi": 91,
          "time": 81.75581395348021,
          "velocity": 0.14960629921259844,
          "duration": 0.10465116279067388
        },
        {
          "name": "D6",
          "midi": 86,
          "time": 81.76744186045696,
          "velocity": 0.08661417322834646,
          "duration": 0.034883720930224626
        },
        {
          "name": "G#3",
          "midi": 56,
          "time": 81.7790697674337,
          "velocity": 0.1732283464566929,
          "duration": 0.0813953488371908
        },
        {
          "name": "A5",
          "midi": 81,
          "time": 81.7790697674337,
          "velocity": 0.2125984251968504,
          "duration": 0.034883720930224626
        },
        {
          "name": "C6",
          "midi": 84,
          "time": 81.7790697674337,
          "velocity": 0.1968503937007874,
          "duration": 0.15116279069764005
        },
        {
          "name": "A4",
          "midi": 69,
          "time": 81.79069767441044,
          "velocity": 0.25984251968503935,
          "duration": 0.023255813953483084
        },
        {
          "name": "D#5",
          "midi": 75,
          "time": 81.79069767441044,
          "velocity": 0.11023622047244094,
          "duration": 0.034883720930224626
        },
        {
          "name": "G#5",
          "midi": 80,
          "time": 81.79069767441044,
          "velocity": 0.3228346456692913,
          "duration": 0.0813953488371908
        },
        {
          "name": "E7",
          "midi": 100,
          "time": 81.79069767441044,
          "velocity": 0.18110236220472442,
          "duration": 0.05813953488370771
        },
        {
          "name": "G#4",
          "midi": 68,
          "time": 81.80232558138718,
          "velocity": 0.3700787401574803,
          "duration": 0.034883720930224626
        },
        {
          "name": "C#6",
          "midi": 85,
          "time": 81.80232558138718,
          "velocity": 0.16535433070866143,
          "duration": 0.10465116279067388
        },
        {
          "name": "D#6",
          "midi": 87,
          "time": 81.80232558138718,
          "velocity": 0.1968503937007874,
          "duration": 0.10465116279067388
        },
        {
          "name": "E6",
          "midi": 88,
          "time": 81.80232558138718,
          "velocity": 0.2204724409448819,
          "duration": 0.0813953488371908
        },
        {
          "name": "D#7",
          "midi": 99,
          "time": 81.82558139534066,
          "velocity": 0.2125984251968504,
          "duration": 0.45348837209292014
        },
        {
          "name": "F#4",
          "midi": 66,
          "time": 81.8372093023174,
          "velocity": 0.30708661417322836,
          "duration": 0.023255813953483084
        },
        {
          "name": "A4",
          "midi": 69,
          "time": 81.8372093023174,
          "velocity": 0.3464566929133858,
          "duration": 0.04651162790696617
        },
        {
          "name": "F4",
          "midi": 65,
          "time": 81.84883720929415,
          "velocity": 0.2755905511811024,
          "duration": 0.023255813953483084
        },
        {
          "name": "F#6",
          "midi": 90,
          "time": 81.84883720929415,
          "velocity": 0.41732283464566927,
          "duration": 0.20930232558134776
        },
        {
          "name": "G#3",
          "midi": 56,
          "time": 81.87209302324763,
          "velocity": 0.3937007874015748,
          "duration": 0.023255813953483084
        },
        {
          "name": "C#5",
          "midi": 73,
          "time": 81.87209302324763,
          "velocity": 0.23622047244094488,
          "duration": 0.10465116279067388
        },
        {
          "name": "D#5",
          "midi": 75,
          "time": 81.87209302324763,
          "velocity": 0.3543307086614173,
          "duration": 0.1395348837208985
        },
        {
          "name": "F#5",
          "midi": 78,
          "time": 81.87209302324763,
          "velocity": 0.6220472440944882,
          "duration": 0.1627906976743816
        },
        {
          "name": "C#7",
          "midi": 97,
          "time": 81.87209302324763,
          "velocity": 0.5354330708661418,
          "duration": 0.47674418604640323
        },
        {
          "name": "E7",
          "midi": 100,
          "time": 81.88372093022437,
          "velocity": 0.15748031496062992,
          "duration": 0.0813953488371908
        },
        {
          "name": "A3",
          "midi": 57,
          "time": 81.89534883720111,
          "velocity": 0.2283464566929134,
          "duration": 0.023255813953483084
        },
        {
          "name": "G#5",
          "midi": 80,
          "time": 81.89534883720111,
          "velocity": 0.4251968503937008,
          "duration": 0.24418604651157239
        },
        {
          "name": "B5",
          "midi": 83,
          "time": 81.89534883720111,
          "velocity": 0.29133858267716534,
          "duration": 0.05813953488370771
        },
        {
          "name": "A6",
          "midi": 93,
          "time": 81.89534883720111,
          "velocity": 0.2047244094488189,
          "duration": 0.1627906976743816
        },
        {
          "name": "G#2",
          "midi": 44,
          "time": 81.90697674417785,
          "velocity": 0.23622047244094488,
          "duration": 0.06976744186044925
        },
        {
          "name": "F4",
          "midi": 65,
          "time": 81.90697674417785,
          "velocity": 0.18110236220472442,
          "duration": 0.034883720930224626
        },
        {
          "name": "G#3",
          "midi": 56,
          "time": 81.9186046511546,
          "velocity": 0.3700787401574803,
          "duration": 0.06976744186044925
        },
        {
          "name": "F5",
          "midi": 77,
          "time": 81.9186046511546,
          "velocity": 0.30708661417322836,
          "duration": 0.023255813953483084
        },
        {
          "name": "A5",
          "midi": 81,
          "time": 81.93023255813134,
          "velocity": 0.1732283464566929,
          "duration": 0.034883720930224626
        },
        {
          "name": "G6",
          "midi": 91,
          "time": 81.93023255813134,
          "velocity": 0.2047244094488189,
          "duration": 0.04651162790696617
        },
        {
          "name": "F4",
          "midi": 65,
          "time": 81.95348837208482,
          "velocity": 0.44881889763779526,
          "duration": 0.05813953488370771
        },
        {
          "name": "A4",
          "midi": 69,
          "time": 81.96511627906156,
          "velocity": 0.4409448818897638,
          "duration": 0.023255813953483084
        },
        {
          "name": "D6",
          "midi": 86,
          "time": 81.96511627906156,
          "velocity": 0.25984251968503935,
          "duration": 0.023255813953483084
        },
        {
          "name": "C#4",
          "midi": 61,
          "time": 81.9767441860383,
          "velocity": 0.47244094488188976,
          "duration": 0.17441860465112313
        },
        {
          "name": "C6",
          "midi": 84,
          "time": 81.9767441860383,
          "velocity": 0.3543307086614173,
          "duration": 0.05813953488370771
        },
        {
          "name": "G#2",
          "midi": 44,
          "time": 81.98837209301504,
          "velocity": 0.25984251968503935,
          "duration": 0.034883720930224626
        },
        {
          "name": "G#4",
          "midi": 68,
          "time": 81.98837209301504,
          "velocity": 0.6062992125984252,
          "duration": 0.31395348837202164
        },
        {
          "name": "C#6",
          "midi": 85,
          "time": 81.98837209301504,
          "velocity": 0.5118110236220472,
          "duration": 0.3604651162789878
        },
        {
          "name": "G#3",
          "midi": 56,
          "time": 81.99999999999179,
          "velocity": 0.3779527559055118,
          "duration": 0.3023255813952801
        },
        {
          "name": "D5",
          "midi": 74,
          "time": 81.99999999999179,
          "velocity": 0.3858267716535433,
          "duration": 0.023255813953483084
        },
        {
          "name": "D7",
          "midi": 98,
          "time": 81.99999999999179,
          "velocity": 0.14960629921259844,
          "duration": 0.06976744186044925
        },
        {
          "name": "E7",
          "midi": 100,
          "time": 81.99999999999179,
          "velocity": 0.14960629921259844,
          "duration": 0.2558139534883139
        },
        {
          "name": "F6",
          "midi": 89,
          "time": 82.01162790696853,
          "velocity": 0.28346456692913385,
          "duration": 0.3255813953487632
        },
        {
          "name": "G7",
          "midi": 103,
          "time": 82.01162790696853,
          "velocity": 0.15748031496062992,
          "duration": 0.04651162790696617
        },
        {
          "name": "F4",
          "midi": 65,
          "time": 82.02325581394527,
          "velocity": 0.3779527559055118,
          "duration": 0.05813953488370771
        },
        {
          "name": "C#5",
          "midi": 73,
          "time": 82.02325581394527,
          "velocity": 0.6535433070866141,
          "duration": 0.3604651162789878
        },
        {
          "name": "F5",
          "midi": 77,
          "time": 82.02325581394527,
          "velocity": 0.3937007874015748,
          "duration": 0.04651162790696617
        },
        {
          "name": "G#2",
          "midi": 44,
          "time": 82.03488372092201,
          "velocity": 0.30708661417322836,
          "duration": 0.12790697674415696
        },
        {
          "name": "A5",
          "midi": 81,
          "time": 82.03488372092201,
          "velocity": 0.1889763779527559,
          "duration": 0.034883720930224626
        },
        {
          "name": "G6",
          "midi": 91,
          "time": 82.03488372092201,
          "velocity": 0.1732283464566929,
          "duration": 0.05813953488370771
        },
        {
          "name": "C6",
          "midi": 84,
          "time": 82.04651162789875,
          "velocity": 0.25196850393700787,
          "duration": 0.034883720930224626
        },
        {
          "name": "F#5",
          "midi": 78,
          "time": 82.0581395348755,
          "velocity": 0.3228346456692913,
          "duration": 0.06976744186044925
        },
        {
          "name": "A6",
          "midi": 93,
          "time": 82.06976744185224,
          "velocity": 0.1732283464566929,
          "duration": 0.05813953488370771
        },
        {
          "name": "F5",
          "midi": 77,
          "time": 82.08139534882898,
          "velocity": 0.4015748031496063,
          "duration": 0.12790697674415696
        },
        {
          "name": "C7",
          "midi": 96,
          "time": 82.08139534882898,
          "velocity": 0.2125984251968504,
          "duration": 0.09302325581393234
        },
        {
          "name": "D6",
          "midi": 86,
          "time": 82.09302325580572,
          "velocity": 0.13385826771653545,
          "duration": 0.034883720930224626
        },
        {
          "name": "D7",
          "midi": 98,
          "time": 82.10465116278246,
          "velocity": 0.14960629921259844,
          "duration": 0.05813953488370771
        },
        {
          "name": "D#5",
          "midi": 75,
          "time": 82.1162790697592,
          "velocity": 0.2204724409448819,
          "duration": 0.034883720930224626
        },
        {
          "name": "F4",
          "midi": 65,
          "time": 82.16279069766617,
          "velocity": 0.23622047244094488,
          "duration": 0.023255813953483084
        },
        {
          "name": "D#4",
          "midi": 63,
          "time": 82.17441860464291,
          "velocity": 0.3937007874015748,
          "duration": 0.023255813953483084
        },
        {
          "name": "A#4",
          "midi": 70,
          "time": 82.17441860464291,
          "velocity": 0.15748031496062992,
          "duration": 0.034883720930224626
        },
        {
          "name": "C6",
          "midi": 84,
          "time": 82.18604651161965,
          "velocity": 0.36220472440944884,
          "duration": 0.04651162790696617
        },
        {
          "name": "C#4",
          "midi": 61,
          "time": 82.19767441859639,
          "velocity": 0.3858267716535433,
          "duration": 0.10465116279067388
        },
        {
          "name": "F4",
          "midi": 65,
          "time": 82.19767441859639,
          "velocity": 0.4881889763779528,
          "duration": 0.10465116279067388
        },
        {
          "name": "F#5",
          "midi": 78,
          "time": 82.19767441859639,
          "velocity": 0.4094488188976378,
          "duration": 0.11627906976741542
        },
        {
          "name": "G#2",
          "midi": 44,
          "time": 82.22093023254988,
          "velocity": 0.2125984251968504,
          "duration": 0.06976744186044925
        },
        {
          "name": "A6",
          "midi": 93,
          "time": 82.22093023254988,
          "velocity": 0.2440944881889764,
          "duration": 0.06976744186044925
        },
        {
          "name": "B6",
          "midi": 95,
          "time": 82.23255813952662,
          "velocity": 0.13385826771653545,
          "duration": 0.04651162790696617
        },
        {
          "name": "C6",
          "midi": 84,
          "time": 82.24418604650336,
          "velocity": 0.33070866141732286,
          "duration": 0.1627906976743816
        },
        {
          "name": "D#7",
          "midi": 99,
          "time": 82.29069767441032,
          "velocity": 0.4409448818897638,
          "duration": 1.0465116279067388
        },
        {
          "name": "C3",
          "midi": 48,
          "time": 82.30232558138707,
          "velocity": 0.6377952755905512,
          "duration": 0.011627906976741542
        },
        {
          "name": "F#4",
          "midi": 66,
          "time": 82.30232558138707,
          "velocity": 0.3858267716535433,
          "duration": 0.034883720930224626
        },
        {
          "name": "A4",
          "midi": 69,
          "time": 82.30232558138707,
          "velocity": 0.3464566929133858,
          "duration": 0.023255813953483084
        },
        {
          "name": "A2",
          "midi": 45,
          "time": 82.31395348836381,
          "velocity": 0.7401574803149606,
          "duration": 0.011627906976741542
        },
        {
          "name": "E4",
          "midi": 64,
          "time": 82.31395348836381,
          "velocity": 0.33070866141732286,
          "duration": 0.023255813953483084
        },
        {
          "name": "D#6",
          "midi": 87,
          "time": 82.31395348836381,
          "velocity": 0.4251968503937008,
          "duration": 1.3023255813950527
        },
        {
          "name": "G6",
          "midi": 91,
          "time": 82.31395348836381,
          "velocity": 0.1889763779527559,
          "duration": 0.04651162790696617
        },
        {
          "name": "A#6",
          "midi": 94,
          "time": 82.31395348836381,
          "velocity": 0.4251968503937008,
          "duration": 0.686046511627751
        },
        {
          "name": "F2",
          "midi": 41,
          "time": 82.32558139534055,
          "velocity": 0.7874015748031497,
          "duration": 0.011627906976741542
        },
        {
          "name": "D#5",
          "midi": 75,
          "time": 82.32558139534055,
          "velocity": 0.5511811023622047,
          "duration": 0.6279069767440433
        },
        {
          "name": "D2",
          "midi": 38,
          "time": 82.33720930231729,
          "velocity": 0.8031496062992126,
          "duration": 0.011627906976741542
        },
        {
          "name": "C2",
          "midi": 36,
          "time": 82.34883720929403,
          "velocity": 0.8031496062992126,
          "duration": 0.011627906976741542
        },
        {
          "name": "G#4",
          "midi": 68,
          "time": 82.34883720929403,
          "velocity": 0.6377952755905512,
          "duration": 1.3023255813950527
        },
        {
          "name": "B4",
          "midi": 71,
          "time": 82.34883720929403,
          "velocity": 0.1732283464566929,
          "duration": 0.034883720930224626
        },
        {
          "name": "E7",
          "midi": 100,
          "time": 82.34883720929403,
          "velocity": 0.12598425196850394,
          "duration": 0.09302325581393234
        },
        {
          "name": "A#1",
          "midi": 34,
          "time": 82.36046511627077,
          "velocity": 0.7874015748031497,
          "duration": 0.011627906976741542
        },
        {
          "name": "G#3",
          "midi": 56,
          "time": 82.36046511627077,
          "velocity": 0.41732283464566927,
          "duration": 0.023255813953483084
        },
        {
          "name": "C#4",
          "midi": 61,
          "time": 82.36046511627077,
          "velocity": 0.25984251968503935,
          "duration": 0.023255813953483084
        },
        {
          "name": "F5",
          "midi": 77,
          "time": 82.36046511627077,
          "velocity": 0.2283464566929134,
          "duration": 0.0813953488371908
        },
        {
          "name": "A1",
          "midi": 33,
          "time": 82.37209302324752,
          "velocity": 0.7795275590551181,
          "duration": 0.023255813953483084
        },
        {
          "name": "C5",
          "midi": 72,
          "time": 82.38372093022426,
          "velocity": 0.23622047244094488,
          "duration": 0.034883720930224626
        },
        {
          "name": "G#1",
          "midi": 32,
          "time": 82.395348837201,
          "velocity": 0.7559055118110236,
          "duration": 0.034883720930224626
        },
        {
          "name": "C#5",
          "midi": 73,
          "time": 82.395348837201,
          "velocity": 0.2677165354330709,
          "duration": 0.11627906976741542
        },
        {
          "name": "C#7",
          "midi": 97,
          "time": 82.395348837201,
          "velocity": 0.11811023622047244,
          "duration": 0.04651162790696617
        },
        {
          "name": "G3",
          "midi": 55,
          "time": 82.40697674417774,
          "velocity": 0.2755905511811024,
          "duration": 0.034883720930224626
        },
        {
          "name": "F4",
          "midi": 65,
          "time": 82.40697674417774,
          "velocity": 0.08661417322834646,
          "duration": 0.034883720930224626
        },
        {
          "name": "C7",
          "midi": 96,
          "time": 82.40697674417774,
          "velocity": 0.12598425196850394,
          "duration": 0.1395348837208985
        },
        {
          "name": "G7",
          "midi": 103,
          "time": 82.41860465115448,
          "velocity": 0.25984251968503935,
          "duration": 0.34883720930224626
        },
        {
          "name": "G1",
          "midi": 31,
          "time": 82.43023255813122,
          "velocity": 0.7637795275590551,
          "duration": 0.1395348837208985
        },
        {
          "name": "C6",
          "midi": 84,
          "time": 82.43023255813122,
          "velocity": 0.18110236220472442,
          "duration": 0.034883720930224626
        },
        {
          "name": "G#3",
          "midi": 56,
          "time": 82.44186046510796,
          "velocity": 0.28346456692913385,
          "duration": 0.06976744186044925
        },
        {
          "name": "F#5",
          "midi": 78,
          "time": 82.44186046510796,
          "velocity": 0.1732283464566929,
          "duration": 0.034883720930224626
        },
        {
          "name": "D6",
          "midi": 86,
          "time": 82.44186046510796,
          "velocity": 0.08661417322834646,
          "duration": 0.06976744186044925
        },
        {
          "name": "C4",
          "midi": 60,
          "time": 82.4534883720847,
          "velocity": 0.1889763779527559,
          "duration": 0.034883720930224626
        },
        {
          "name": "G#6",
          "midi": 92,
          "time": 82.4534883720847,
          "velocity": 0.5275590551181102,
          "duration": 0.5465116279068525
        },
        {
          "name": "D#3",
          "midi": 51,
          "time": 82.46511627906145,
          "velocity": 0.3543307086614173,
          "duration": 0.05813953488370771
        },
        {
          "name": "F5",
          "midi": 77,
          "time": 82.46511627906145,
          "velocity": 0.25984251968503935,
          "duration": 0.04651162790696617
        },
        {
          "name": "E6",
          "midi": 88,
          "time": 82.46511627906145,
          "velocity": 0.1889763779527559,
          "duration": 0.04651162790696617
        },
        {
          "name": "G6",
          "midi": 91,
          "time": 82.46511627906145,
          "velocity": 0.2677165354330709,
          "duration": 0.12790697674415696
        },
        {
          "name": "F#7",
          "midi": 102,
          "time": 82.48837209301493,
          "velocity": 0.07086614173228346,
          "duration": 0.05813953488370771
        },
        {
          "name": "C#4",
          "midi": 61,
          "time": 82.51162790696841,
          "velocity": 0.30708661417322836,
          "duration": 0.04651162790696617
        },
        {
          "name": "C5",
          "midi": 72,
          "time": 82.51162790696841,
          "velocity": 0.4015748031496063,
          "duration": 0.15116279069764005
        },
        {
          "name": "F#6",
          "midi": 90,
          "time": 82.51162790696841,
          "velocity": 0.14960629921259844,
          "duration": 0.04651162790696617
        },
        {
          "name": "E7",
          "midi": 100,
          "time": 82.51162790696841,
          "velocity": 0.11023622047244094,
          "duration": 0.06976744186044925
        },
        {
          "name": "G#3",
          "midi": 56,
          "time": 82.52325581394516,
          "velocity": 0.2283464566929134,
          "duration": 0.04651162790696617
        },
        {
          "name": "F5",
          "midi": 77,
          "time": 82.52325581394516,
          "velocity": 0.28346456692913385,
          "duration": 0.06976744186044925
        },
        {
          "name": "G5",
          "midi": 79,
          "time": 82.52325581394516,
          "velocity": 0.3464566929133858,
          "duration": 0.09302325581393234
        },
        {
          "name": "A#5",
          "midi": 82,
          "time": 82.52325581394516,
          "velocity": 0.3543307086614173,
          "duration": 0.43023255813943706
        },
        {
          "name": "E3",
          "midi": 52,
          "time": 82.5348837209219,
          "velocity": 0.31496062992125984,
          "duration": 0.023255813953483084
        },
        {
          "name": "B5",
          "midi": 83,
          "time": 82.54651162789864,
          "velocity": 0.09448818897637795,
          "duration": 0.034883720930224626
        },
        {
          "name": "D#3",
          "midi": 51,
          "time": 82.55813953487538,
          "velocity": 0.4409448818897638,
          "duration": 0.34883720930224626
        },
        {
          "name": "C4",
          "midi": 60,
          "time": 82.55813953487538,
          "velocity": 0.4409448818897638,
          "duration": 0.26744186046505547
        },
        {
          "name": "D7",
          "midi": 98,
          "time": 82.55813953487538,
          "velocity": 0.09448818897637795,
          "duration": 0.034883720930224626
        },
        {
          "name": "G#1",
          "midi": 32,
          "time": 82.56976744185212,
          "velocity": 0.6850393700787402,
          "duration": 0.011627906976741542
        },
        {
          "name": "D6",
          "midi": 86,
          "time": 82.56976744185212,
          "velocity": 0.16535433070866143,
          "duration": 0.034883720930224626
        },
        {
          "name": "C7",
          "midi": 96,
          "time": 82.56976744185212,
          "velocity": 0.33858267716535434,
          "duration": 0.9186046511625818
        },
        {
          "name": "C#7",
          "midi": 97,
          "time": 82.56976744185212,
          "velocity": 0.25196850393700787,
          "duration": 0.19767441860460622
        },
        {
          "name": "F7",
          "midi": 101,
          "time": 82.56976744185212,
          "velocity": 0.12598425196850394,
          "duration": 0.15116279069764005
        },
        {
          "name": "A1",
          "midi": 33,
          "time": 82.58139534882886,
          "velocity": 0.6771653543307087,
          "duration": 0.023255813953483084
        },
        {
          "name": "F#6",
          "midi": 90,
          "time": 82.58139534882886,
          "velocity": 0.25984251968503935,
          "duration": 0.37209302325572935
        },
        {
          "name": "F#7",
          "midi": 102,
          "time": 82.58139534882886,
          "velocity": 0.3543307086614173,
          "duration": 0.23255813953483084
        },
        {
          "name": "G#1",
          "midi": 32,
          "time": 82.60465116278235,
          "velocity": 0.7244094488188977,
          "duration": 0.3604651162789878
        },
        {
          "name": "C#6",
          "midi": 85,
          "time": 82.60465116278235,
          "velocity": 0.25196850393700787,
          "duration": 0.11627906976741542
        },
        {
          "name": "E6",
          "midi": 88,
          "time": 82.61627906975909,
          "velocity": 0.2440944881889764,
          "duration": 0.05813953488370771
        },
        {
          "name": "G6",
          "midi": 91,
          "time": 82.61627906975909,
          "velocity": 0.28346456692913385,
          "duration": 0.1395348837208985
        },
        {
          "name": "D7",
          "midi": 98,
          "time": 82.61627906975909,
          "velocity": 0.3937007874015748,
          "duration": 0.39534883720921243
        },
        {
          "name": "D#4",
          "midi": 63,
          "time": 82.63953488371257,
          "velocity": 0.49606299212598426,
          "duration": 0.20930232558134776
        },
        {
          "name": "B5",
          "midi": 83,
          "time": 82.63953488371257,
          "velocity": 0.2125984251968504,
          "duration": 0.04651162790696617
        },
        {
          "name": "G5",
          "midi": 79,
          "time": 82.65116279068931,
          "velocity": 0.2755905511811024,
          "duration": 0.034883720930224626
        },
        {
          "name": "D6",
          "midi": 86,
          "time": 82.65116279068931,
          "velocity": 0.1968503937007874,
          "duration": 0.04651162790696617
        },
        {
          "name": "F#5",
          "midi": 78,
          "time": 82.66279069766605,
          "velocity": 0.3228346456692913,
          "duration": 0.15116279069764005
        },
        {
          "name": "E5",
          "midi": 76,
          "time": 82.6744186046428,
          "velocity": 0.2283464566929134,
          "duration": 0.034883720930224626
        },
        {
          "name": "G5",
          "midi": 79,
          "time": 82.69767441859628,
          "velocity": 0.30708661417322836,
          "duration": 0.04651162790696617
        },
        {
          "name": "G#3",
          "midi": 56,
          "time": 82.7325581395265,
          "velocity": 0.3543307086614173,
          "duration": 0.10465116279067388
        },
        {
          "name": "F7",
          "midi": 101,
          "time": 82.7325581395265,
          "velocity": 0.14173228346456693,
          "duration": 0.17441860465112313
        },
        {
          "name": "G6",
          "midi": 91,
          "time": 82.76744186045673,
          "velocity": 0.25984251968503935,
          "duration": 0.11627906976741542
        },
        {
          "name": "B6",
          "midi": 95,
          "time": 82.77906976743347,
          "velocity": 0.14173228346456693,
          "duration": 0.0813953488371908
        },
        {
          "name": "A6",
          "midi": 93,
          "time": 82.79069767441021,
          "velocity": 0.15748031496062992,
          "duration": 0.06976744186044925
        },
        {
          "name": "E7",
          "midi": 100,
          "time": 82.79069767441021,
          "velocity": 0.09448818897637795,
          "duration": 0.034883720930224626
        },
        {
          "name": "C#6",
          "midi": 85,
          "time": 82.80232558138695,
          "velocity": 0.12598425196850394,
          "duration": 0.034883720930224626
        },
        {
          "name": "C#7",
          "midi": 97,
          "time": 82.80232558138695,
          "velocity": 0.3858267716535433,
          "duration": 0.3604651162789878
        },
        {
          "name": "F5",
          "midi": 77,
          "time": 82.8139534883637,
          "velocity": 0.30708661417322836,
          "duration": 0.023255813953483084
        },
        {
          "name": "E6",
          "midi": 88,
          "time": 82.8139534883637,
          "velocity": 0.16535433070866143,
          "duration": 0.05813953488370771
        },
        {
          "name": "C#5",
          "midi": 73,
          "time": 82.83720930231718,
          "velocity": 0.2992125984251969,
          "duration": 0.05813953488370771
        },
        {
          "name": "G#3",
          "midi": 56,
          "time": 82.84883720929392,
          "velocity": 0.33070866141732286,
          "duration": 0.09302325581393234
        },
        {
          "name": "F5",
          "midi": 77,
          "time": 82.84883720929392,
          "velocity": 0.2755905511811024,
          "duration": 0.023255813953483084
        },
        {
          "name": "F#7",
          "midi": 102,
          "time": 82.84883720929392,
          "velocity": 0.33070866141732286,
          "duration": 0.5232558139533694
        },
        {
          "name": "C4",
          "midi": 60,
          "time": 82.86046511627066,
          "velocity": 0.3858267716535433,
          "duration": 0.10465116279067388
        },
        {
          "name": "E7",
          "midi": 100,
          "time": 82.86046511627066,
          "velocity": 0.25984251968503935,
          "duration": 0.2209302325580893
        },
        {
          "name": "F#5",
          "midi": 78,
          "time": 82.8720930232474,
          "velocity": 0.2677165354330709,
          "duration": 0.0813953488371908
        },
        {
          "name": "E6",
          "midi": 88,
          "time": 82.88372093022414,
          "velocity": 0.11023622047244094,
          "duration": 0.034883720930224626
        },
        {
          "name": "A6",
          "midi": 93,
          "time": 82.88372093022414,
          "velocity": 0.10236220472440945,
          "duration": 0.04651162790696617
        },
        {
          "name": "G6",
          "midi": 91,
          "time": 82.89534883720088,
          "velocity": 0.3858267716535433,
          "duration": 0.12790697674415696
        },
        {
          "name": "D#3",
          "midi": 51,
          "time": 82.91860465115437,
          "velocity": 0.3937007874015748,
          "duration": 0.034883720930224626
        },
        {
          "name": "B6",
          "midi": 95,
          "time": 82.93023255813111,
          "velocity": 0.15748031496062992,
          "duration": 0.034883720930224626
        },
        {
          "name": "F7",
          "midi": 101,
          "time": 82.93023255813111,
          "velocity": 0.1889763779527559,
          "duration": 0.17441860465112313
        },
        {
          "name": "E6",
          "midi": 88,
          "time": 82.94186046510785,
          "velocity": 0.2677165354330709,
          "duration": 0.0813953488371908
        },
        {
          "name": "E5",
          "midi": 76,
          "time": 82.95348837208459,
          "velocity": 0.30708661417322836,
          "duration": 0.023255813953483084
        },
        {
          "name": "A5",
          "midi": 81,
          "time": 82.95348837208459,
          "velocity": 0.48031496062992124,
          "duration": 0.06976744186044925
        },
        {
          "name": "C#6",
          "midi": 85,
          "time": 82.95348837208459,
          "velocity": 0.2283464566929134,
          "duration": 0.17441860465112313
        },
        {
          "name": "G1",
          "midi": 31,
          "time": 82.96511627906133,
          "velocity": 0.5748031496062992,
          "duration": 0.023255813953483084
        },
        {
          "name": "D#5",
          "midi": 75,
          "time": 82.96511627906133,
          "velocity": 0.2283464566929134,
          "duration": 0.023255813953483084
        },
        {
          "name": "B5",
          "midi": 83,
          "time": 82.96511627906133,
          "velocity": 0.31496062992125984,
          "duration": 0.11627906976741542
        },
        {
          "name": "F#6",
          "midi": 90,
          "time": 82.96511627906133,
          "velocity": 0.25984251968503935,
          "duration": 0.2558139534883139
        },
        {
          "name": "C5",
          "midi": 72,
          "time": 82.97674418603808,
          "velocity": 0.2283464566929134,
          "duration": 0.023255813953483084
        },
        {
          "name": "C#5",
          "midi": 73,
          "time": 82.97674418603808,
          "velocity": 0.23622047244094488,
          "duration": 0.034883720930224626
        },
        {
          "name": "F5",
          "midi": 77,
          "time": 82.97674418603808,
          "velocity": 0.2125984251968504,
          "duration": 0.034883720930224626
        },
        {
          "name": "G5",
          "midi": 79,
          "time": 82.97674418603808,
          "velocity": 0.25196850393700787,
          "duration": 0.023255813953483084
        },
        {
          "name": "D6",
          "midi": 86,
          "time": 82.97674418603808,
          "velocity": 0.2283464566929134,
          "duration": 0.034883720930224626
        },
        {
          "name": "C4",
          "midi": 60,
          "time": 82.99999999999156,
          "velocity": 0.13385826771653545,
          "duration": 0.11627906976741542
        },
        {
          "name": "D#5",
          "midi": 75,
          "time": 83.02325581394504,
          "velocity": 0.2677165354330709,
          "duration": 0.12790697674415696
        },
        {
          "name": "G5",
          "midi": 79,
          "time": 83.02325581394504,
          "velocity": 0.11023622047244094,
          "duration": 0.05813953488370771
        },
        {
          "name": "D7",
          "midi": 98,
          "time": 83.02325581394504,
          "velocity": 0.1889763779527559,
          "duration": 0.17441860465112313
        },
        {
          "name": "C#5",
          "midi": 73,
          "time": 83.03488372092178,
          "velocity": 0.10236220472440945,
          "duration": 0.04651162790696617
        },
        {
          "name": "D#4",
          "midi": 63,
          "time": 83.04651162789852,
          "velocity": 0.1889763779527559,
          "duration": 0.11627906976741542
        },
        {
          "name": "C6",
          "midi": 84,
          "time": 83.04651162789852,
          "velocity": 0.16535433070866143,
          "duration": 0.06976744186044925
        },
        {
          "name": "G6",
          "midi": 91,
          "time": 83.06976744185201,
          "velocity": 0.1732283464566929,
          "duration": 0.04651162790696617
        },
        {
          "name": "A#6",
          "midi": 94,
          "time": 83.08139534882875,
          "velocity": 0.23622047244094488,
          "duration": 0.17441860465112313
        },
        {
          "name": "G#2",
          "midi": 44,
          "time": 83.09302325580549,
          "velocity": 0.2047244094488189,
          "duration": 0.10465116279067388
        },
        {
          "name": "F6",
          "midi": 89,
          "time": 83.09302325580549,
          "velocity": 0.15748031496062992,
          "duration": 0.10465116279067388
        },
        {
          "name": "B5",
          "midi": 83,
          "time": 83.10465116278223,
          "velocity": 0.14173228346456693,
          "duration": 0.0813953488371908
        },
        {
          "name": "A6",
          "midi": 93,
          "time": 83.10465116278223,
          "velocity": 0.25984251968503935,
          "duration": 0.1627906976743816
        },
        {
          "name": "E7",
          "midi": 100,
          "time": 83.10465116278223,
          "velocity": 0.15748031496062992,
          "duration": 0.12790697674415696
        },
        {
          "name": "C6",
          "midi": 84,
          "time": 83.12790697673572,
          "velocity": 0.13385826771653545,
          "duration": 0.04651162790696617
        },
        {
          "name": "G6",
          "midi": 91,
          "time": 83.12790697673572,
          "velocity": 0.23622047244094488,
          "duration": 0.1395348837208985
        },
        {
          "name": "D5",
          "midi": 74,
          "time": 83.16279069766594,
          "velocity": 0.15748031496062992,
          "duration": 0.034883720930224626
        },
        {
          "name": "C#6",
          "midi": 85,
          "time": 83.17441860464268,
          "velocity": 0.10236220472440945,
          "duration": 0.034883720930224626
        },
        {
          "name": "D#4",
          "midi": 63,
          "time": 83.18604651161942,
          "velocity": 0.4881889763779528,
          "duration": 0.09302325581393234
        },
        {
          "name": "A#5",
          "midi": 82,
          "time": 83.18604651161942,
          "velocity": 0.23622047244094488,
          "duration": 0.09302325581393234
        },
        {
          "name": "C#7",
          "midi": 97,
          "time": 83.18604651161942,
          "velocity": 0.18110236220472442,
          "duration": 0.11627906976741542
        },
        {
          "name": "G#3",
          "midi": 56,
          "time": 83.19767441859616,
          "velocity": 0.28346456692913385,
          "duration": 0.0813953488371908
        },
        {
          "name": "G#2",
          "midi": 44,
          "time": 83.2093023255729,
          "velocity": 0.2125984251968504,
          "duration": 0.06976744186044925
        },
        {
          "name": "C5",
          "midi": 72,
          "time": 83.22093023254965,
          "velocity": 0.12598425196850394,
          "duration": 0.034883720930224626
        },
        {
          "name": "C6",
          "midi": 84,
          "time": 83.22093023254965,
          "velocity": 0.15748031496062992,
          "duration": 0.034883720930224626
        },
        {
          "name": "C#6",
          "midi": 85,
          "time": 83.22093023254965,
          "velocity": 0.1732283464566929,
          "duration": 0.09302325581393234
        },
        {
          "name": "D7",
          "midi": 98,
          "time": 83.22093023254965,
          "velocity": 0.1968503937007874,
          "duration": 0.12790697674415696
        },
        {
          "name": "F#6",
          "midi": 90,
          "time": 83.23255813952639,
          "velocity": 0.08661417322834646,
          "duration": 0.034883720930224626
        },
        {
          "name": "F#5",
          "midi": 78,
          "time": 83.25581395347987,
          "velocity": 0.15748031496062992,
          "duration": 0.034883720930224626
        },
        {
          "name": "C5",
          "midi": 72,
          "time": 83.27906976743336,
          "velocity": 0.4251968503937008,
          "duration": 0.04651162790696617
        },
        {
          "name": "A5",
          "midi": 81,
          "time": 83.27906976743336,
          "velocity": 0.33070866141732286,
          "duration": 0.023255813953483084
        },
        {
          "name": "B5",
          "midi": 83,
          "time": 83.27906976743336,
          "velocity": 0.25984251968503935,
          "duration": 0.023255813953483084
        },
        {
          "name": "E6",
          "midi": 88,
          "time": 83.27906976743336,
          "velocity": 0.2440944881889764,
          "duration": 0.034883720930224626
        },
        {
          "name": "F6",
          "midi": 89,
          "time": 83.27906976743336,
          "velocity": 0.23622047244094488,
          "duration": 0.034883720930224626
        },
        {
          "name": "G7",
          "midi": 103,
          "time": 83.27906976743336,
          "velocity": 0.10236220472440945,
          "duration": 0.034883720930224626
        },
        {
          "name": "B2",
          "midi": 47,
          "time": 83.2906976744101,
          "velocity": 0.5984251968503937,
          "duration": 0.011627906976741542
        },
        {
          "name": "A#3",
          "midi": 58,
          "time": 83.2906976744101,
          "velocity": 0.5669291338582677,
          "duration": 0.011627906976741542
        },
        {
          "name": "G5",
          "midi": 79,
          "time": 83.2906976744101,
          "velocity": 0.3543307086614173,
          "duration": 0.034883720930224626
        },
        {
          "name": "A2",
          "midi": 45,
          "time": 83.30232558138684,
          "velocity": 0.6771653543307087,
          "duration": 0.011627906976741542
        },
        {
          "name": "E4",
          "midi": 64,
          "time": 83.30232558138684,
          "velocity": 0.5196850393700787,
          "duration": 0.023255813953483084
        },
        {
          "name": "F#5",
          "midi": 78,
          "time": 83.30232558138684,
          "velocity": 0.2755905511811024,
          "duration": 0.034883720930224626
        },
        {
          "name": "A#5",
          "midi": 82,
          "time": 83.30232558138684,
          "velocity": 0.31496062992125984,
          "duration": 0.12790697674415696
        },
        {
          "name": "G2",
          "midi": 43,
          "time": 83.31395348836358,
          "velocity": 0.6771653543307087,
          "duration": 0.011627906976741542
        },
        {
          "name": "B2",
          "midi": 47,
          "time": 83.31395348836358,
          "velocity": 0.5196850393700787,
          "duration": 0.011627906976741542
        },
        {
          "name": "C#4",
          "midi": 61,
          "time": 83.31395348836358,
          "velocity": 0.5118110236220472,
          "duration": 0.011627906976741542
        },
        {
          "name": "D6",
          "midi": 86,
          "time": 83.31395348836358,
          "velocity": 0.11023622047244094,
          "duration": 0.034883720930224626
        },
        {
          "name": "F#2",
          "midi": 42,
          "time": 83.32558139534032,
          "velocity": 0.7244094488188977,
          "duration": 0.011627906976741542
        },
        {
          "name": "C4",
          "midi": 60,
          "time": 83.32558139534032,
          "velocity": 0.4566929133858268,
          "duration": 0.023255813953483084
        },
        {
          "name": "D#4",
          "midi": 63,
          "time": 83.32558139534032,
          "velocity": 0.44881889763779526,
          "duration": 0.11627906976741542
        },
        {
          "name": "G#2",
          "midi": 44,
          "time": 83.33720930231706,
          "velocity": 0.7480314960629921,
          "duration": 0.023255813953483084
        },
        {
          "name": "F5",
          "midi": 77,
          "time": 83.33720930231706,
          "velocity": 0.2440944881889764,
          "duration": 0.034883720930224626
        },
        {
          "name": "G5",
          "midi": 79,
          "time": 83.33720930231706,
          "velocity": 0.25196850393700787,
          "duration": 0.09302325581393234
        },
        {
          "name": "C6",
          "midi": 84,
          "time": 83.3488372092938,
          "velocity": 0.12598425196850394,
          "duration": 0.034883720930224626
        },
        {
          "name": "E6",
          "midi": 88,
          "time": 83.3488372092938,
          "velocity": 0.14173228346456693,
          "duration": 0.034883720930224626
        },
        {
          "name": "G2",
          "midi": 43,
          "time": 83.36046511627055,
          "velocity": 0.7007874015748031,
          "duration": 0.06976744186044925
        },
        {
          "name": "G#3",
          "midi": 56,
          "time": 83.36046511627055,
          "velocity": 0.30708661417322836,
          "duration": 0.023255813953483084
        },
        {
          "name": "C#5",
          "midi": 73,
          "time": 83.36046511627055,
          "velocity": 0.12598425196850394,
          "duration": 0.04651162790696617
        },
        {
          "name": "C4",
          "midi": 60,
          "time": 83.39534883720077,
          "velocity": 0.4015748031496063,
          "duration": 0.10465116279067388
        },
        {
          "name": "F#6",
          "midi": 90,
          "time": 83.430232558131,
          "velocity": 0.07874015748031496,
          "duration": 0.034883720930224626
        },
        {
          "name": "A#5",
          "midi": 82,
          "time": 83.46511627906122,
          "velocity": 0.1732283464566929,
          "duration": 0.06976744186044925
        },
        {
          "name": "F#2",
          "midi": 42,
          "time": 83.47674418603796,
          "velocity": 0.4015748031496063,
          "duration": 0.06976744186044925
        },
        {
          "name": "A3",
          "midi": 57,
          "time": 83.4883720930147,
          "velocity": 0.4881889763779528,
          "duration": 0.023255813953483084
        },
        {
          "name": "C6",
          "midi": 84,
          "time": 83.4883720930147,
          "velocity": 0.28346456692913385,
          "duration": 0.11627906976741542
        },
        {
          "name": "F#6",
          "midi": 90,
          "time": 83.4883720930147,
          "velocity": 0.2047244094488189,
          "duration": 0.04651162790696617
        },
        {
          "name": "G6",
          "midi": 91,
          "time": 83.49999999999145,
          "velocity": 0.11811023622047244,
          "duration": 0.06976744186044925
        },
        {
          "name": "G#3",
          "midi": 56,
          "time": 83.51162790696819,
          "velocity": 0.5354330708661418,
          "duration": 0.06976744186044925
        },
        {
          "name": "D#5",
          "midi": 75,
          "time": 83.51162790696819,
          "velocity": 0.30708661417322836,
          "duration": 0.09302325581393234
        },
        {
          "name": "C4",
          "midi": 60,
          "time": 83.53488372092167,
          "velocity": 0.28346456692913385,
          "duration": 0.023255813953483084
        },
        {
          "name": "D#4",
          "midi": 63,
          "time": 83.54651162789841,
          "velocity": 0.4094488188976378,
          "duration": 0.06976744186044925
        },
        {
          "name": "C#7",
          "midi": 97,
          "time": 83.54651162789841,
          "velocity": 0.15748031496062992,
          "duration": 0.12790697674415696
        },
        {
          "name": "F#2",
          "midi": 42,
          "time": 83.55813953487515,
          "velocity": 0.23622047244094488,
          "duration": 0.034883720930224626
        },
        {
          "name": "C4",
          "midi": 60,
          "time": 83.5697674418519,
          "velocity": 0.2047244094488189,
          "duration": 0.034883720930224626
        },
        {
          "name": "G3",
          "midi": 55,
          "time": 83.58139534882864,
          "velocity": 0.25984251968503935,
          "duration": 0.023255813953483084
        },
        {
          "name": "D#3",
          "midi": 51,
          "time": 83.60465116278212,
          "velocity": 0.5511811023622047,
          "duration": 0.011627906976741542
        },
        {
          "name": "C#5",
          "midi": 73,
          "time": 83.60465116278212,
          "velocity": 0.2677165354330709,
          "duration": 0.04651162790696617
        },
        {
          "name": "E5",
          "midi": 76,
          "time": 83.60465116278212,
          "velocity": 0.2755905511811024,
          "duration": 0.034883720930224626
        },
        {
          "name": "B5",
          "midi": 83,
          "time": 83.60465116278212,
          "velocity": 0.2992125984251969,
          "duration": 0.023255813953483084
        },
        {
          "name": "F6",
          "midi": 89,
          "time": 83.60465116278212,
          "velocity": 0.2204724409448819,
          "duration": 0.09302325581393234
        },
        {
          "name": "D#7",
          "midi": 99,
          "time": 83.60465116278212,
          "velocity": 0.5039370078740157,
          "duration": 1.372093023255502
        },
        {
          "name": "E7",
          "midi": 100,
          "time": 83.60465116278212,
          "velocity": 0.1968503937007874,
          "duration": 0.2558139534883139
        },
        {
          "name": "F#7",
          "midi": 102,
          "time": 83.60465116278212,
          "velocity": 0.09448818897637795,
          "duration": 0.05813953488370771
        },
        {
          "name": "A#2",
          "midi": 46,
          "time": 83.61627906975886,
          "velocity": 0.6929133858267716,
          "duration": 0.011627906976741542
        },
        {
          "name": "F4",
          "midi": 65,
          "time": 83.61627906975886,
          "velocity": 0.4094488188976378,
          "duration": 0.023255813953483084
        },
        {
          "name": "D6",
          "midi": 86,
          "time": 83.61627906975886,
          "velocity": 0.16535433070866143,
          "duration": 0.034883720930224626
        },
        {
          "name": "G6",
          "midi": 91,
          "time": 83.61627906975886,
          "velocity": 0.2047244094488189,
          "duration": 0.06976744186044925
        },
        {
          "name": "A#6",
          "midi": 94,
          "time": 83.61627906975886,
          "velocity": 0.11811023622047244,
          "duration": 0.04651162790696617
        },
        {
          "name": "C7",
          "midi": 96,
          "time": 83.61627906975886,
          "velocity": 0.5275590551181102,
          "duration": 1.3139534883717943
        },
        {
          "name": "F#2",
          "midi": 42,
          "time": 83.6279069767356,
          "velocity": 0.7559055118110236,
          "duration": 0.011627906976741542
        },
        {
          "name": "A3",
          "midi": 57,
          "time": 83.6279069767356,
          "velocity": 0.4251968503937008,
          "duration": 0.023255813953483084
        },
        {
          "name": "C6",
          "midi": 84,
          "time": 83.6279069767356,
          "velocity": 0.6062992125984252,
          "duration": 1.3023255813950527
        },
        {
          "name": "G7",
          "midi": 103,
          "time": 83.6279069767356,
          "velocity": 0.3700787401574803,
          "duration": 1.267441860464828
        },
        {
          "name": "D2",
          "midi": 38,
          "time": 83.63953488371234,
          "velocity": 0.7637795275590551,
          "duration": 0.011627906976741542
        },
        {
          "name": "C#2",
          "midi": 37,
          "time": 83.65116279068909,
          "velocity": 0.7874015748031497,
          "duration": 0.011627906976741542
        },
        {
          "name": "A#4",
          "midi": 70,
          "time": 83.65116279068909,
          "velocity": 0.09448818897637795,
          "duration": 0.034883720930224626
        },
        {
          "name": "D#5",
          "midi": 75,
          "time": 83.65116279068909,
          "velocity": 0.2125984251968504,
          "duration": 0.09302325581393234
        },
        {
          "name": "B1",
          "midi": 35,
          "time": 83.66279069766583,
          "velocity": 0.7716535433070866,
          "duration": 0.011627906976741542
        },
        {
          "name": "G#4",
          "midi": 68,
          "time": 83.66279069766583,
          "velocity": 0.5905511811023622,
          "duration": 0.6279069767440433
        },
        {
          "name": "A#1",
          "midi": 34,
          "time": 83.67441860464257,
          "velocity": 0.7559055118110236,
          "duration": 0.011627906976741542
        },
        {
          "name": "C5",
          "midi": 72,
          "time": 83.67441860464257,
          "velocity": 0.3700787401574803,
          "duration": 0.45348837209292014
        },
        {
          "name": "A#5",
          "midi": 82,
          "time": 83.67441860464257,
          "velocity": 0.2283464566929134,
          "duration": 0.06976744186044925
        },
        {
          "name": "D6",
          "midi": 86,
          "time": 83.67441860464257,
          "velocity": 0.15748031496062992,
          "duration": 0.06976744186044925
        },
        {
          "name": "D7",
          "midi": 98,
          "time": 83.67441860464257,
          "velocity": 0.15748031496062992,
          "duration": 0.04651162790696617
        },
        {
          "name": "F#7",
          "midi": 102,
          "time": 83.67441860464257,
          "velocity": 0.3228346456692913,
          "duration": 0.7209302325579756
        },
        {
          "name": "A1",
          "midi": 33,
          "time": 83.68604651161931,
          "velocity": 0.7480314960629921,
          "duration": 0.011627906976741542
        },
        {
          "name": "E3",
          "midi": 52,
          "time": 83.68604651161931,
          "velocity": 0.3543307086614173,
          "duration": 0.023255813953483084
        },
        {
          "name": "D#4",
          "midi": 63,
          "time": 83.68604651161931,
          "velocity": 0.13385826771653545,
          "duration": 0.04651162790696617
        },
        {
          "name": "G#1",
          "midi": 32,
          "time": 83.69767441859605,
          "velocity": 0.7401574803149606,
          "duration": 0.034883720930224626
        },
        {
          "name": "G6",
          "midi": 91,
          "time": 83.69767441859605,
          "velocity": 0.09448818897637795,
          "duration": 0.06976744186044925
        },
        {
          "name": "D#3",
          "midi": 51,
          "time": 83.70930232557279,
          "velocity": 0.25196850393700787,
          "duration": 0.023255813953483084
        },
        {
          "name": "C#7",
          "midi": 97,
          "time": 83.72093023254953,
          "velocity": 0.14960629921259844,
          "duration": 0.05813953488370771
        },
        {
          "name": "G1",
          "midi": 31,
          "time": 83.73255813952628,
          "velocity": 0.7480314960629921,
          "duration": 0.1395348837208985
        },
        {
          "name": "F#5",
          "midi": 78,
          "time": 83.73255813952628,
          "velocity": 0.1732283464566929,
          "duration": 0.06976744186044925
        },
        {
          "name": "C#6",
          "midi": 85,
          "time": 83.73255813952628,
          "velocity": 0.09448818897637795,
          "duration": 0.034883720930224626
        },
        {
          "name": "G3",
          "midi": 55,
          "time": 83.74418604650302,
          "velocity": 0.2125984251968504,
          "duration": 0.034883720930224626
        },
        {
          "name": "D#4",
          "midi": 63,
          "time": 83.74418604650302,
          "velocity": 0.16535433070866143,
          "duration": 0.04651162790696617
        },
        {
          "name": "F6",
          "midi": 89,
          "time": 83.74418604650302,
          "velocity": 0.09448818897637795,
          "duration": 0.06976744186044925
        },
        {
          "name": "C4",
          "midi": 60,
          "time": 83.75581395347976,
          "velocity": 0.23622047244094488,
          "duration": 0.0813953488371908
        },
        {
          "name": "D#3",
          "midi": 51,
          "time": 83.7674418604565,
          "velocity": 0.33070866141732286,
          "duration": 0.023255813953483084
        },
        {
          "name": "E6",
          "midi": 88,
          "time": 83.7674418604565,
          "velocity": 0.12598425196850394,
          "duration": 0.05813953488370771
        },
        {
          "name": "G#3",
          "midi": 56,
          "time": 83.77906976743324,
          "velocity": 0.4015748031496063,
          "duration": 0.15116279069764005
        },
        {
          "name": "D5",
          "midi": 74,
          "time": 83.77906976743324,
          "velocity": 0.18110236220472442,
          "duration": 0.04651162790696617
        },
        {
          "name": "A#5",
          "midi": 82,
          "time": 83.77906976743324,
          "velocity": 0.25984251968503935,
          "duration": 0.0813953488371908
        },
        {
          "name": "D3",
          "midi": 50,
          "time": 83.79069767440998,
          "velocity": 0.3700787401574803,
          "duration": 0.034883720930224626
        },
        {
          "name": "G6",
          "midi": 91,
          "time": 83.79069767440998,
          "velocity": 0.1968503937007874,
          "duration": 0.04651162790696617
        },
        {
          "name": "D#4",
          "midi": 63,
          "time": 83.80232558138673,
          "velocity": 0.4094488188976378,
          "duration": 0.19767441860460622
        },
        {
          "name": "E5",
          "midi": 76,
          "time": 83.80232558138673,
          "velocity": 0.14960629921259844,
          "duration": 0.034883720930224626
        },
        {
          "name": "F#5",
          "midi": 78,
          "time": 83.81395348836347,
          "velocity": 0.2204724409448819,
          "duration": 0.11627906976741542
        },
        {
          "name": "D#3",
          "midi": 51,
          "time": 83.84883720929369,
          "velocity": 0.5748031496062992,
          "duration": 0.6162790697673017
        },
        {
          "name": "G6",
          "midi": 91,
          "time": 83.84883720929369,
          "velocity": 0.3543307086614173,
          "duration": 0.10465116279067388
        },
        {
          "name": "C#7",
          "midi": 97,
          "time": 83.84883720929369,
          "velocity": 0.25984251968503935,
          "duration": 0.23255813953483084
        },
        {
          "name": "E6",
          "midi": 88,
          "time": 83.86046511627043,
          "velocity": 0.23622047244094488,
          "duration": 0.04651162790696617
        },
        {
          "name": "G#1",
          "midi": 32,
          "time": 83.87209302324717,
          "velocity": 0.6771653543307087,
          "duration": 0.011627906976741542
        },
        {
          "name": "A#5",
          "midi": 82,
          "time": 83.87209302324717,
          "velocity": 0.23622047244094488,
          "duration": 0.05813953488370771
        },
        {
          "name": "D6",
          "midi": 86,
          "time": 83.87209302324717,
          "velocity": 0.18110236220472442,
          "duration": 0.034883720930224626
        },
        {
          "name": "A1",
          "midi": 33,
          "time": 83.88372093022392,
          "velocity": 0.6535433070866141,
          "duration": 0.034883720930224626
        },
        {
          "name": "C#6",
          "midi": 85,
          "time": 83.88372093022392,
          "velocity": 0.11023622047244094,
          "duration": 0.04651162790696617
        },
        {
          "name": "F6",
          "midi": 89,
          "time": 83.89534883720066,
          "velocity": 0.11023622047244094,
          "duration": 0.04651162790696617
        },
        {
          "name": "F#4",
          "midi": 66,
          "time": 83.9069767441774,
          "velocity": 0.2283464566929134,
          "duration": 0.023255813953483084
        },
        {
          "name": "D#6",
          "midi": 87,
          "time": 83.9069767441774,
          "velocity": 0.4330708661417323,
          "duration": 0.39534883720921243
        },
        {
          "name": "G#1",
          "midi": 32,
          "time": 83.91860465115414,
          "velocity": 0.6929133858267716,
          "duration": 0.34883720930224626
        },
        {
          "name": "E5",
          "midi": 76,
          "time": 83.93023255813088,
          "velocity": 0.2755905511811024,
          "duration": 0.023255813953483084
        },
        {
          "name": "D6",
          "midi": 86,
          "time": 83.93023255813088,
          "velocity": 0.18110236220472442,
          "duration": 0.034883720930224626
        },
        {
          "name": "G#3",
          "midi": 56,
          "time": 83.95348837208437,
          "velocity": 0.3937007874015748,
          "duration": 0.09302325581393234
        },
        {
          "name": "D#5",
          "midi": 75,
          "time": 83.95348837208437,
          "velocity": 0.4330708661417323,
          "duration": 0.2558139534883139
        },
        {
          "name": "F#5",
          "midi": 78,
          "time": 83.95348837208437,
          "velocity": 0.31496062992125984,
          "duration": 0.2209302325580893
        },
        {
          "name": "A6",
          "midi": 93,
          "time": 83.95348837208437,
          "velocity": 0.1889763779527559,
          "duration": 0.2558139534883139
        },
        {
          "name": "C4",
          "midi": 60,
          "time": 83.9651162790611,
          "velocity": 0.3937007874015748,
          "duration": 0.10465116279067388
        },
        {
          "name": "C#6",
          "midi": 85,
          "time": 83.9651162790611,
          "velocity": 0.2125984251968504,
          "duration": 0.04651162790696617
        },
        {
          "name": "G6",
          "midi": 91,
          "time": 83.9651162790611,
          "velocity": 0.25196850393700787,
          "duration": 0.0813953488371908
        },
        {
          "name": "B6",
          "midi": 95,
          "time": 83.9651162790611,
          "velocity": 0.13385826771653545,
          "duration": 0.06976744186044925
        },
        {
          "name": "F7",
          "midi": 101,
          "time": 83.9651162790611,
          "velocity": 0.15748031496062992,
          "duration": 0.0813953488371908
        },
        {
          "name": "A#5",
          "midi": 82,
          "time": 83.97674418603785,
          "velocity": 0.18110236220472442,
          "duration": 0.0813953488371908
        },
        {
          "name": "F6",
          "midi": 89,
          "time": 83.97674418603785,
          "velocity": 0.18110236220472442,
          "duration": 0.06976744186044925
        },
        {
          "name": "D6",
          "midi": 86,
          "time": 84.02325581394481,
          "velocity": 0.1889763779527559,
          "duration": 0.0813953488371908
        },
        {
          "name": "E7",
          "midi": 100,
          "time": 84.0465116278983,
          "velocity": 0.2755905511811024,
          "duration": 0.3023255813952801
        },
        {
          "name": "G#3",
          "midi": 56,
          "time": 84.05813953487504,
          "velocity": 0.30708661417322836,
          "duration": 0.023255813953483084
        },
        {
          "name": "G6",
          "midi": 91,
          "time": 84.05813953487504,
          "velocity": 0.2125984251968504,
          "duration": 0.034883720930224626
        },
        {
          "name": "E6",
          "midi": 88,
          "time": 84.06976744185178,
          "velocity": 0.1889763779527559,
          "duration": 0.09302325581393234
        },
        {
          "name": "F7",
          "midi": 101,
          "time": 84.06976744185178,
          "velocity": 0.1889763779527559,
          "duration": 0.3604651162789878
        },
        {
          "name": "C4",
          "midi": 60,
          "time": 84.09302325580526,
          "velocity": 0.18110236220472442,
          "duration": 0.04651162790696617
        },
        {
          "name": "C#6",
          "midi": 85,
          "time": 84.09302325580526,
          "velocity": 0.2047244094488189,
          "duration": 0.034883720930224626
        },
        {
          "name": "G6",
          "midi": 91,
          "time": 84.104651162782,
          "velocity": 0.3700787401574803,
          "duration": 0.19767441860460622
        },
        {
          "name": "A#5",
          "midi": 82,
          "time": 84.11627906975875,
          "velocity": 0.3464566929133858,
          "duration": 0.15116279069764005
        },
        {
          "name": "D7",
          "midi": 98,
          "time": 84.12790697673549,
          "velocity": 0.11811023622047244,
          "duration": 0.05813953488370771
        },
        {
          "name": "C4",
          "midi": 60,
          "time": 84.15116279068897,
          "velocity": 0.2204724409448819,
          "duration": 0.09302325581393234
        },
        {
          "name": "F#4",
          "midi": 66,
          "time": 84.15116279068897,
          "velocity": 0.13385826771653545,
          "duration": 0.05813953488370771
        },
        {
          "name": "C5",
          "midi": 72,
          "time": 84.15116279068897,
          "velocity": 0.33070866141732286,
          "duration": 0.11627906976741542
        },
        {
          "name": "C#7",
          "midi": 97,
          "time": 84.19767441859594,
          "velocity": 0.25196850393700787,
          "duration": 0.06976744186044925
        },
        {
          "name": "D#5",
          "midi": 75,
          "time": 84.22093023254942,
          "velocity": 0.3543307086614173,
          "duration": 0.04651162790696617
        },
        {
          "name": "F#5",
          "midi": 78,
          "time": 84.22093023254942,
          "velocity": 0.14173228346456693,
          "duration": 0.034883720930224626
        },
        {
          "name": "D7",
          "midi": 98,
          "time": 84.22093023254942,
          "velocity": 0.3700787401574803,
          "duration": 0.3604651162789878
        },
        {
          "name": "D6",
          "midi": 86,
          "time": 84.23255813952616,
          "velocity": 0.1968503937007874,
          "duration": 0.034883720930224626
        },
        {
          "name": "F#6",
          "midi": 90,
          "time": 84.23255813952616,
          "velocity": 0.23622047244094488,
          "duration": 0.19767441860460622
        },
        {
          "name": "B6",
          "midi": 95,
          "time": 84.23255813952616,
          "velocity": 0.1889763779527559,
          "duration": 0.034883720930224626
        },
        {
          "name": "A6",
          "midi": 93,
          "time": 84.2441860465029,
          "velocity": 0.33858267716535434,
          "duration": 0.023255813953483084
        },
        {
          "name": "E4",
          "midi": 64,
          "time": 84.25581395347965,
          "velocity": 0.36220472440944884,
          "duration": 0.023255813953483084
        },
        {
          "name": "E6",
          "midi": 88,
          "time": 84.25581395347965,
          "velocity": 0.28346456692913385,
          "duration": 0.12790697674415696
        },
        {
          "name": "G1",
          "midi": 31,
          "time": 84.26744186045639,
          "velocity": 0.6062992125984252,
          "duration": 0.023255813953483084
        },
        {
          "name": "F#5",
          "midi": 78,
          "time": 84.26744186045639,
          "velocity": 0.2283464566929134,
          "duration": 0.023255813953483084
        },
        {
          "name": "C#6",
          "midi": 85,
          "time": 84.26744186045639,
          "velocity": 0.23622047244094488,
          "duration": 0.023255813953483084
        },
        {
          "name": "C4",
          "midi": 60,
          "time": 84.27906976743313,
          "velocity": 0.30708661417322836,
          "duration": 0.04651162790696617
        },
        {
          "name": "C5",
          "midi": 72,
          "time": 84.27906976743313,
          "velocity": 0.31496062992125984,
          "duration": 0.023255813953483084
        },
        {
          "name": "A6",
          "midi": 93,
          "time": 84.27906976743313,
          "velocity": 0.31496062992125984,
          "duration": 0.18604651162786467
        },
        {
          "name": "B6",
          "midi": 95,
          "time": 84.27906976743313,
          "velocity": 0.2677165354330709,
          "duration": 0.20930232558134776
        },
        {
          "name": "C#7",
          "midi": 97,
          "time": 84.27906976743313,
          "velocity": 0.29133858267716534,
          "duration": 0.31395348837202164
        },
        {
          "name": "A4",
          "midi": 69,
          "time": 84.29069767440987,
          "velocity": 0.36220472440944884,
          "duration": 0.023255813953483084
        },
        {
          "name": "D6",
          "midi": 86,
          "time": 84.30232558138661,
          "velocity": 0.07874015748031496,
          "duration": 0.034883720930224626
        },
        {
          "name": "F6",
          "midi": 89,
          "time": 84.30232558138661,
          "velocity": 0.14960629921259844,
          "duration": 0.034883720930224626
        },
        {
          "name": "D#5",
          "midi": 75,
          "time": 84.31395348836335,
          "velocity": 0.15748031496062992,
          "duration": 0.10465116279067388
        },
        {
          "name": "B3",
          "midi": 59,
          "time": 84.3255813953401,
          "velocity": 0.2047244094488189,
          "duration": 0.034883720930224626
        },
        {
          "name": "C5",
          "midi": 72,
          "time": 84.3255813953401,
          "velocity": 0.15748031496062992,
          "duration": 0.0813953488371908
        },
        {
          "name": "A#5",
          "midi": 82,
          "time": 84.3255813953401,
          "velocity": 0.13385826771653545,
          "duration": 0.05813953488370771
        },
        {
          "name": "C#6",
          "midi": 85,
          "time": 84.33720930231684,
          "velocity": 0.2283464566929134,
          "duration": 0.11627906976741542
        },
        {
          "name": "F6",
          "midi": 89,
          "time": 84.34883720929358,
          "velocity": 0.16535433070866143,
          "duration": 0.09302325581393234
        },
        {
          "name": "G6",
          "midi": 91,
          "time": 84.34883720929358,
          "velocity": 0.25984251968503935,
          "duration": 0.17441860465112313
        },
        {
          "name": "C4",
          "midi": 60,
          "time": 84.36046511627032,
          "velocity": 0.28346456692913385,
          "duration": 0.09302325581393234
        },
        {
          "name": "A4",
          "midi": 69,
          "time": 84.36046511627032,
          "velocity": 0.2440944881889764,
          "duration": 0.023255813953483084
        },
        {
          "name": "G#2",
          "midi": 44,
          "time": 84.3837209302238,
          "velocity": 0.31496062992125984,
          "duration": 0.29069767441853855
        },
        {
          "name": "G#4",
          "midi": 68,
          "time": 84.3837209302238,
          "velocity": 0.29133858267716534,
          "duration": 0.04651162790696617
        },
        {
          "name": "A#6",
          "midi": 94,
          "time": 84.39534883720054,
          "velocity": 0.25196850393700787,
          "duration": 0.19767441860460622
        },
        {
          "name": "E6",
          "midi": 88,
          "time": 84.41860465115403,
          "velocity": 0.23622047244094488,
          "duration": 0.06976744186044925
        },
        {
          "name": "G4",
          "midi": 67,
          "time": 84.43023255813077,
          "velocity": 0.31496062992125984,
          "duration": 0.023255813953483084
        },
        {
          "name": "D6",
          "midi": 86,
          "time": 84.43023255813077,
          "velocity": 0.2125984251968504,
          "duration": 0.06976744186044925
        },
        {
          "name": "F#7",
          "midi": 102,
          "time": 84.43023255813077,
          "velocity": 0.25196850393700787,
          "duration": 0.3255813953487632
        },
        {
          "name": "A4",
          "midi": 69,
          "time": 84.44186046510751,
          "velocity": 0.3464566929133858,
          "duration": 0.05813953488370771
        },
        {
          "name": "A#5",
          "midi": 82,
          "time": 84.44186046510751,
          "velocity": 0.4094488188976378,
          "duration": 0.3023255813952801
        },
        {
          "name": "F#6",
          "midi": 90,
          "time": 84.44186046510751,
          "velocity": 0.3464566929133858,
          "duration": 0.06976744186044925
        },
        {
          "name": "F7",
          "midi": 101,
          "time": 84.44186046510751,
          "velocity": 0.4330708661417323,
          "duration": 0.20930232558134776
        },
        {
          "name": "D#5",
          "midi": 75,
          "time": 84.45348837208425,
          "velocity": 0.10236220472440945,
          "duration": 0.034883720930224626
        },
        {
          "name": "C5",
          "midi": 72,
          "time": 84.47674418603773,
          "velocity": 0.2283464566929134,
          "duration": 0.10465116279067388
        },
        {
          "name": "F6",
          "midi": 89,
          "time": 84.47674418603773,
          "velocity": 0.49606299212598426,
          "duration": 0.20930232558134776
        },
        {
          "name": "A6",
          "midi": 93,
          "time": 84.47674418603773,
          "velocity": 0.1968503937007874,
          "duration": 0.09302325581393234
        },
        {
          "name": "D#4",
          "midi": 63,
          "time": 84.48837209301448,
          "velocity": 0.5039370078740157,
          "duration": 0.04651162790696617
        },
        {
          "name": "F5",
          "midi": 77,
          "time": 84.48837209301448,
          "velocity": 0.6614173228346457,
          "duration": 0.1627906976743816
        },
        {
          "name": "G#4",
          "midi": 68,
          "time": 84.49999999999122,
          "velocity": 0.5433070866141733,
          "duration": 0.3255813953487632
        },
        {
          "name": "D#6",
          "midi": 87,
          "time": 84.49999999999122,
          "velocity": 0.25984251968503935,
          "duration": 0.04651162790696617
        },
        {
          "name": "B6",
          "midi": 95,
          "time": 84.49999999999122,
          "velocity": 0.16535433070866143,
          "duration": 0.034883720930224626
        },
        {
          "name": "C#6",
          "midi": 85,
          "time": 84.51162790696796,
          "velocity": 0.2204724409448819,
          "duration": 0.06976744186044925
        },
        {
          "name": "D4",
          "midi": 62,
          "time": 84.53488372092144,
          "velocity": 0.28346456692913385,
          "duration": 0.023255813953483084
        },
        {
          "name": "E6",
          "midi": 88,
          "time": 84.53488372092144,
          "velocity": 0.23622047244094488,
          "duration": 0.034883720930224626
        },
        {
          "name": "G6",
          "midi": 91,
          "time": 84.53488372092144,
          "velocity": 0.33070866141732286,
          "duration": 0.20930232558134776
        },
        {
          "name": "B6",
          "midi": 95,
          "time": 84.54651162789818,
          "velocity": 0.16535433070866143,
          "duration": 0.12790697674415696
        },
        {
          "name": "D#4",
          "midi": 63,
          "time": 84.55813953487493,
          "velocity": 0.3228346456692913,
          "duration": 0.034883720930224626
        },
        {
          "name": "D6",
          "midi": 86,
          "time": 84.56976744185167,
          "velocity": 0.29133858267716534,
          "duration": 0.05813953488370771
        },
        {
          "name": "A6",
          "midi": 93,
          "time": 84.58139534882841,
          "velocity": 0.23622047244094488,
          "duration": 0.11627906976741542
        },
        {
          "name": "E4",
          "midi": 64,
          "time": 84.59302325580515,
          "velocity": 0.2992125984251969,
          "duration": 0.023255813953483084
        },
        {
          "name": "C5",
          "midi": 72,
          "time": 84.59302325580515,
          "velocity": 0.31496062992125984,
          "duration": 0.10465116279067388
        },
        {
          "name": "D#5",
          "midi": 75,
          "time": 84.60465116278189,
          "velocity": 0.6614173228346457,
          "duration": 0.6511627906975264
        },
        {
          "name": "A#6",
          "midi": 94,
          "time": 84.60465116278189,
          "velocity": 0.49606299212598426,
          "duration": 0.45348837209292014
        },
        {
          "name": "D#4",
          "midi": 63,
          "time": 84.61627906975863,
          "velocity": 0.4330708661417323,
          "duration": 0.23255813953483084
        },
        {
          "name": "C4",
          "midi": 60,
          "time": 84.62790697673537,
          "velocity": 0.30708661417322836,
          "duration": 0.04651162790696617
        },
        {
          "name": "E6",
          "midi": 88,
          "time": 84.62790697673537,
          "velocity": 0.11811023622047244,
          "duration": 0.11627906976741542
        },
        {
          "name": "C#7",
          "midi": 97,
          "time": 84.62790697673537,
          "velocity": 0.1889763779527559,
          "duration": 0.0813953488371908
        },
        {
          "name": "G5",
          "midi": 79,
          "time": 84.63953488371212,
          "velocity": 0.2440944881889764,
          "duration": 0.023255813953483084
        },
        {
          "name": "F5",
          "midi": 77,
          "time": 84.6627906976656,
          "velocity": 0.4251968503937008,
          "duration": 0.0813953488371908
        },
        {
          "name": "F#6",
          "midi": 90,
          "time": 84.6627906976656,
          "velocity": 0.1889763779527559,
          "duration": 0.10465116279067388
        },
        {
          "name": "A2",
          "midi": 45,
          "time": 84.67441860464234,
          "velocity": 0.2440944881889764,
          "duration": 0.023255813953483084
        },
        {
          "name": "G#3",
          "midi": 56,
          "time": 84.68604651161908,
          "velocity": 0.2440944881889764,
          "duration": 0.10465116279067388
        },
        {
          "name": "C4",
          "midi": 60,
          "time": 84.68604651161908,
          "velocity": 0.1732283464566929,
          "duration": 0.04651162790696617
        },
        {
          "name": "G#2",
          "midi": 44,
          "time": 84.69767441859582,
          "velocity": 0.3464566929133858,
          "duration": 0.20930232558134776
        },
        {
          "name": "C#6",
          "midi": 85,
          "time": 84.69767441859582,
          "velocity": 0.15748031496062992,
          "duration": 0.034883720930224626
        },
        {
          "name": "C5",
          "midi": 72,
          "time": 84.70930232557257,
          "velocity": 0.31496062992125984,
          "duration": 0.09302325581393234
        },
        {
          "name": "C#7",
          "midi": 97,
          "time": 84.73255813952605,
          "velocity": 0.14960629921259844,
          "duration": 0.034883720930224626
        },
        {
          "name": "B5",
          "midi": 83,
          "time": 84.74418604650279,
          "velocity": 0.25196850393700787,
          "duration": 0.023255813953483084
        },
        {
          "name": "F5",
          "midi": 77,
          "time": 84.75581395347953,
          "velocity": 0.4015748031496063,
          "duration": 0.2209302325580893
        },
        {
          "name": "G6",
          "midi": 91,
          "time": 84.75581395347953,
          "velocity": 0.25984251968503935,
          "duration": 0.19767441860460622
        },
        {
          "name": "A#5",
          "midi": 82,
          "time": 84.76744186045627,
          "velocity": 0.2755905511811024,
          "duration": 0.15116279069764005
        },
        {
          "name": "E6",
          "midi": 88,
          "time": 84.77906976743301,
          "velocity": 0.08661417322834646,
          "duration": 0.034883720930224626
        },
        {
          "name": "G3",
          "midi": 55,
          "time": 84.79069767440976,
          "velocity": 0.11023622047244094,
          "duration": 0.034883720930224626
        },
        {
          "name": "B6",
          "midi": 95,
          "time": 84.79069767440976,
          "velocity": 0.10236220472440945,
          "duration": 0.034883720930224626
        },
        {
          "name": "F#7",
          "midi": 102,
          "time": 84.79069767440976,
          "velocity": 0.13385826771653545,
          "duration": 0.034883720930224626
        },
        {
          "name": "C5",
          "midi": 72,
          "time": 84.81395348836324,
          "velocity": 0.5669291338582677,
          "duration": 0.1395348837208985
        },
        {
          "name": "F#6",
          "midi": 90,
          "time": 84.81395348836324,
          "velocity": 0.14173228346456693,
          "duration": 0.06976744186044925
        },
        {
          "name": "A6",
          "midi": 93,
          "time": 84.81395348836324,
          "velocity": 0.14173228346456693,
          "duration": 0.034883720930224626
        },
        {
          "name": "G#3",
          "midi": 56,
          "time": 84.82558139533998,
          "velocity": 0.47244094488188976,
          "duration": 0.09302325581393234
        },
        {
          "name": "E6",
          "midi": 88,
          "time": 84.82558139533998,
          "velocity": 0.2992125984251969,
          "duration": 0.17441860465112313
        },
        {
          "name": "B6",
          "midi": 95,
          "time": 84.83720930231672,
          "velocity": 0.11023622047244094,
          "duration": 0.05813953488370771
        },
        {
          "name": "C#7",
          "midi": 97,
          "time": 84.83720930231672,
          "velocity": 0.14173228346456693,
          "duration": 0.05813953488370771
        },
        {
          "name": "C4",
          "midi": 60,
          "time": 84.84883720929346,
          "velocity": 0.12598425196850394,
          "duration": 0.034883720930224626
        },
        {
          "name": "A6",
          "midi": 93,
          "time": 84.8604651162702,
          "velocity": 0.1732283464566929,
          "duration": 0.04651162790696617
        },
        {
          "name": "D#4",
          "midi": 63,
          "time": 84.89534883720043,
          "velocity": 0.3543307086614173,
          "duration": 0.023255813953483084
        },
        {
          "name": "D6",
          "midi": 86,
          "time": 84.89534883720043,
          "velocity": 0.15748031496062992,
          "duration": 0.034883720930224626
        },
        {
          "name": "C3",
          "midi": 48,
          "time": 84.91860465115391,
          "velocity": 0.6771653543307087,
          "duration": 0.011627906976741542
        },
        {
          "name": "F4",
          "midi": 65,
          "time": 84.91860465115391,
          "velocity": 0.41732283464566927,
          "duration": 0.034883720930224626
        },
        {
          "name": "B5",
          "midi": 83,
          "time": 84.91860465115391,
          "velocity": 0.1732283464566929,
          "duration": 0.05813953488370771
        },
        {
          "name": "C#7",
          "midi": 97,
          "time": 84.91860465115391,
          "velocity": 0.5748031496062992,
          "duration": 2.3023255813948253
        },
        {
          "name": "F#2",
          "midi": 42,
          "time": 84.93023255813065,
          "velocity": 0.7322834645669292,
          "duration": 0.011627906976741542
        },
        {
          "name": "G5",
          "midi": 79,
          "time": 84.93023255813065,
          "velocity": 0.2204724409448819,
          "duration": 0.034883720930224626
        },
        {
          "name": "C#6",
          "midi": 85,
          "time": 84.93023255813065,
          "velocity": 0.33070866141732286,
          "duration": 0.05813953488370771
        },
        {
          "name": "F2",
          "midi": 41,
          "time": 84.9418604651074,
          "velocity": 0.7795275590551181,
          "duration": 0.011627906976741542
        },
        {
          "name": "C#2",
          "midi": 37,
          "time": 84.95348837208414,
          "velocity": 0.7952755905511811,
          "duration": 0.011627906976741542
        },
        {
          "name": "A4",
          "midi": 69,
          "time": 84.95348837208414,
          "velocity": 0.2283464566929134,
          "duration": 0.034883720930224626
        },
        {
          "name": "C#5",
          "midi": 73,
          "time": 84.95348837208414,
          "velocity": 0.4881889763779528,
          "duration": 0.3023255813952801
        },
        {
          "name": "G7",
          "midi": 103,
          "time": 84.95348837208414,
          "velocity": 0.07874015748031496,
          "duration": 0.034883720930224626
        },
        {
          "name": "B1",
          "midi": 35,
          "time": 84.96511627906088,
          "velocity": 0.8031496062992126,
          "duration": 0.011627906976741542
        },
        {
          "name": "F3",
          "midi": 53,
          "time": 84.96511627906088,
          "velocity": 0.3464566929133858,
          "duration": 0.023255813953483084
        },
        {
          "name": "F#5",
          "midi": 78,
          "time": 84.96511627906088,
          "velocity": 0.18110236220472442,
          "duration": 0.05813953488370771
        },
        {
          "name": "A#1",
          "midi": 34,
          "time": 84.97674418603762,
          "velocity": 0.7874015748031497,
          "duration": 0.011627906976741542
        },
        {
          "name": "A#5",
          "midi": 82,
          "time": 84.97674418603762,
          "velocity": 0.09448818897637795,
          "duration": 0.034883720930224626
        },
        {
          "name": "D6",
          "midi": 86,
          "time": 84.97674418603762,
          "velocity": 0.1889763779527559,
          "duration": 0.09302325581393234
        },
        {
          "name": "B6",
          "midi": 95,
          "time": 84.97674418603762,
          "velocity": 0.12598425196850394,
          "duration": 0.04651162790696617
        },
        {
          "name": "A1",
          "midi": 33,
          "time": 84.98837209301436,
          "velocity": 0.7795275590551181,
          "duration": 0.023255813953483084
        },
        {
          "name": "E3",
          "midi": 52,
          "time": 84.98837209301436,
          "velocity": 0.31496062992125984,
          "duration": 0.023255813953483084
        },
        {
          "name": "G6",
          "midi": 91,
          "time": 84.98837209301436,
          "velocity": 0.12598425196850394,
          "duration": 0.034883720930224626
        },
        {
          "name": "A6",
          "midi": 93,
          "time": 84.98837209301436,
          "velocity": 0.08661417322834646,
          "duration": 0.06976744186044925
        },
        {
          "name": "F4",
          "midi": 65,
          "time": 84.9999999999911,
          "velocity": 0.36220472440944884,
          "duration": 0.24418604651157239
        },
        {
          "name": "G#1",
          "midi": 32,
          "time": 85.01162790696785,
          "velocity": 0.7637795275590551,
          "duration": 0.034883720930224626
        },
        {
          "name": "F5",
          "midi": 77,
          "time": 85.01162790696785,
          "velocity": 0.41732283464566927,
          "duration": 0.7093023255812341
        },
        {
          "name": "G#5",
          "midi": 80,
          "time": 85.01162790696785,
          "velocity": 0.3464566929133858,
          "duration": 0.3837209302324709
        },
        {
          "name": "F#6",
          "midi": 90,
          "time": 85.01162790696785,
          "velocity": 0.18110236220472442,
          "duration": 0.15116279069764005
        },
        {
          "name": "C7",
          "midi": 96,
          "time": 85.01162790696785,
          "velocity": 0.3228346456692913,
          "duration": 0.7441860465114587
        },
        {
          "name": "A#3",
          "midi": 58,
          "time": 85.02325581394459,
          "velocity": 0.2677165354330709,
          "duration": 0.11627906976741542
        },
        {
          "name": "G#4",
          "midi": 68,
          "time": 85.02325581394459,
          "velocity": 0.16535433070866143,
          "duration": 0.034883720930224626
        },
        {
          "name": "F6",
          "midi": 89,
          "time": 85.02325581394459,
          "velocity": 0.4251968503937008,
          "duration": 0.5697674418603356
        },
        {
          "name": "D#7",
          "midi": 99,
          "time": 85.02325581394459,
          "velocity": 0.25984251968503935,
          "duration": 0.4999999999998863
        },
        {
          "name": "A#5",
          "midi": 82,
          "time": 85.03488372092133,
          "velocity": 0.3464566929133858,
          "duration": 0.279069767441797
        },
        {
          "name": "G1",
          "midi": 31,
          "time": 85.04651162789807,
          "velocity": 0.7007874015748031,
          "duration": 0.011627906976741542
        },
        {
          "name": "G6",
          "midi": 91,
          "time": 85.04651162789807,
          "velocity": 0.13385826771653545,
          "duration": 0.09302325581393234
        },
        {
          "name": "F#1",
          "midi": 30,
          "time": 85.05813953487481,
          "velocity": 0.6929133858267716,
          "duration": 0.023255813953483084
        },
        {
          "name": "F3",
          "midi": 53,
          "time": 85.05813953487481,
          "velocity": 0.2677165354330709,
          "duration": 0.034883720930224626
        },
        {
          "name": "G7",
          "midi": 103,
          "time": 85.05813953487481,
          "velocity": 0.13385826771653545,
          "duration": 0.11627906976741542
        },
        {
          "name": "A#4",
          "midi": 70,
          "time": 85.06976744185155,
          "velocity": 0.5511811023622047,
          "duration": 0.3372093023255047
        },
        {
          "name": "G1",
          "midi": 31,
          "time": 85.0813953488283,
          "velocity": 0.7480314960629921,
          "duration": 0.034883720930224626
        },
        {
          "name": "B6",
          "midi": 95,
          "time": 85.09302325580504,
          "velocity": 0.11023622047244094,
          "duration": 0.05813953488370771
        },
        {
          "name": "F#3",
          "midi": 54,
          "time": 85.10465116278178,
          "velocity": 0.29133858267716534,
          "duration": 0.023255813953483084
        },
        {
          "name": "G#1",
          "midi": 32,
          "time": 85.11627906975852,
          "velocity": 0.7322834645669292,
          "duration": 0.023255813953483084
        },
        {
          "name": "A6",
          "midi": 93,
          "time": 85.11627906975852,
          "velocity": 0.09448818897637795,
          "duration": 0.034883720930224626
        },
        {
          "name": "F3",
          "midi": 53,
          "time": 85.12790697673526,
          "velocity": 0.4251968503937008,
          "duration": 0.034883720930224626
        },
        {
          "name": "A#1",
          "midi": 34,
          "time": 85.139534883712,
          "velocity": 0.5826771653543307,
          "duration": 0.011627906976741542
        },
        {
          "name": "D7",
          "midi": 98,
          "time": 85.139534883712,
          "velocity": 0.2755905511811024,
          "duration": 0.18604651162786467
        },
        {
          "name": "C2",
          "midi": 36,
          "time": 85.16279069766549,
          "velocity": 0.6062992125984252,
          "duration": 0.011627906976741542
        },
        {
          "name": "E3",
          "midi": 52,
          "time": 85.16279069766549,
          "velocity": 0.30708661417322836,
          "duration": 0.023255813953483084
        },
        {
          "name": "A6",
          "midi": 93,
          "time": 85.16279069766549,
          "velocity": 0.2440944881889764,
          "duration": 0.1627906976743816
        },
        {
          "name": "A#1",
          "midi": 34,
          "time": 85.17441860464223,
          "velocity": 0.6771653543307087,
          "duration": 0.011627906976741542
        },
        {
          "name": "B5",
          "midi": 83,
          "time": 85.17441860464223,
          "velocity": 0.18110236220472442,
          "duration": 0.034883720930224626
        },
        {
          "name": "A1",
          "midi": 33,
          "time": 85.18604651161897,
          "velocity": 0.7086614173228346,
          "duration": 0.023255813953483084
        },
        {
          "name": "F#7",
          "midi": 102,
          "time": 85.19767441859571,
          "velocity": 0.16535433070866143,
          "duration": 0.2209302325580893
        },
        {
          "name": "A#1",
          "midi": 34,
          "time": 85.20930232557245,
          "velocity": 0.7007874015748031,
          "duration": 0.3604651162789878
        },
        {
          "name": "A#3",
          "midi": 58,
          "time": 85.20930232557245,
          "velocity": 0.2677165354330709,
          "duration": 0.034883720930224626
        },
        {
          "name": "C6",
          "midi": 84,
          "time": 85.20930232557245,
          "velocity": 0.36220472440944884,
          "duration": 0.023255813953483084
        },
        {
          "name": "F#6",
          "midi": 90,
          "time": 85.20930232557245,
          "velocity": 0.1732283464566929,
          "duration": 0.04651162790696617
        },
        {
          "name": "G7",
          "midi": 103,
          "time": 85.20930232557245,
          "velocity": 0.11023622047244094,
          "duration": 0.04651162790696617
        },
        {
          "name": "C#4",
          "midi": 61,
          "time": 85.24418604650268,
          "velocity": 0.31496062992125984,
          "duration": 0.023255813953483084
        },
        {
          "name": "B5",
          "midi": 83,
          "time": 85.24418604650268,
          "velocity": 0.2677165354330709,
          "duration": 0.023255813953483084
        },
        {
          "name": "C6",
          "midi": 84,
          "time": 85.24418604650268,
          "velocity": 0.41732283464566927,
          "duration": 0.15116279069764005
        },
        {
          "name": "G6",
          "midi": 91,
          "time": 85.24418604650268,
          "velocity": 0.36220472440944884,
          "duration": 0.10465116279067388
        },
        {
          "name": "B6",
          "midi": 95,
          "time": 85.24418604650268,
          "velocity": 0.28346456692913385,
          "duration": 0.2558139534883139
        },
        {
          "name": "A#3",
          "midi": 58,
          "time": 85.25581395347942,
          "velocity": 0.31496062992125984,
          "duration": 0.04651162790696617
        },
        {
          "name": "F4",
          "midi": 65,
          "time": 85.25581395347942,
          "velocity": 0.44881889763779526,
          "duration": 0.1395348837208985
        },
        {
          "name": "D6",
          "midi": 86,
          "time": 85.25581395347942,
          "velocity": 0.2992125984251969,
          "duration": 0.04651162790696617
        },
        {
          "name": "E7",
          "midi": 100,
          "time": 85.25581395347942,
          "velocity": 0.1732283464566929,
          "duration": 0.06976744186044925
        },
        {
          "name": "C#5",
          "midi": 73,
          "time": 85.26744186045616,
          "velocity": 0.5669291338582677,
          "duration": 0.8488372093021326
        },
        {
          "name": "E6",
          "midi": 88,
          "time": 85.26744186045616,
          "velocity": 0.2204724409448819,
          "duration": 0.034883720930224626
        },
        {
          "name": "F#6",
          "midi": 90,
          "time": 85.26744186045616,
          "velocity": 0.15748031496062992,
          "duration": 0.034883720930224626
        },
        {
          "name": "F3",
          "midi": 53,
          "time": 85.29069767440964,
          "velocity": 0.31496062992125984,
          "duration": 0.11627906976741542
        },
        {
          "name": "C#4",
          "midi": 61,
          "time": 85.29069767440964,
          "velocity": 0.41732283464566927,
          "duration": 0.06976744186044925
        },
        {
          "name": "D#5",
          "midi": 75,
          "time": 85.29069767440964,
          "velocity": 0.3464566929133858,
          "duration": 0.20930232558134776
        },
        {
          "name": "C#6",
          "midi": 85,
          "time": 85.29069767440964,
          "velocity": 0.6299212598425197,
          "duration": 1.651162790697299
        },
        {
          "name": "E6",
          "midi": 88,
          "time": 85.31395348836313,
          "velocity": 0.13385826771653545,
          "duration": 0.04651162790696617
        },
        {
          "name": "D6",
          "midi": 86,
          "time": 85.32558139533987,
          "velocity": 0.2677165354330709,
          "duration": 0.05813953488370771
        },
        {
          "name": "F#6",
          "midi": 90,
          "time": 85.32558139533987,
          "velocity": 0.2204724409448819,
          "duration": 0.09302325581393234
        },
        {
          "name": "A#3",
          "midi": 58,
          "time": 85.33720930231661,
          "velocity": 0.36220472440944884,
          "duration": 0.11627906976741542
        },
        {
          "name": "E7",
          "midi": 100,
          "time": 85.33720930231661,
          "velocity": 0.16535433070866143,
          "duration": 0.12790697674415696
        },
        {
          "name": "A6",
          "midi": 93,
          "time": 85.34883720929335,
          "velocity": 0.2755905511811024,
          "duration": 0.19767441860460622
        },
        {
          "name": "G#4",
          "midi": 68,
          "time": 85.37209302324683,
          "velocity": 0.2283464566929134,
          "duration": 0.023255813953483084
        },
        {
          "name": "D6",
          "midi": 86,
          "time": 85.39534883720032,
          "velocity": 0.25196850393700787,
          "duration": 0.04651162790696617
        },
        {
          "name": "D7",
          "midi": 98,
          "time": 85.39534883720032,
          "velocity": 0.25984251968503935,
          "duration": 0.12790697674415696
        },
        {
          "name": "A4",
          "midi": 69,
          "time": 85.40697674417706,
          "velocity": 0.2992125984251969,
          "duration": 0.023255813953483084
        },
        {
          "name": "F4",
          "midi": 65,
          "time": 85.4186046511538,
          "velocity": 0.3700787401574803,
          "duration": 0.15116279069764005
        },
        {
          "name": "C6",
          "midi": 84,
          "time": 85.4186046511538,
          "velocity": 0.2992125984251969,
          "duration": 0.05813953488370771
        },
        {
          "name": "F3",
          "midi": 53,
          "time": 85.43023255813054,
          "velocity": 0.2677165354330709,
          "duration": 0.023255813953483084
        },
        {
          "name": "G#5",
          "midi": 80,
          "time": 85.43023255813054,
          "velocity": 0.2125984251968504,
          "duration": 0.1395348837208985
        },
        {
          "name": "B5",
          "midi": 83,
          "time": 85.43023255813054,
          "velocity": 0.33858267716535434,
          "duration": 0.05813953488370771
        },
        {
          "name": "G7",
          "midi": 103,
          "time": 85.43023255813054,
          "velocity": 0.14960629921259844,
          "duration": 0.05813953488370771
        },
        {
          "name": "E6",
          "midi": 88,
          "time": 85.44186046510728,
          "velocity": 0.2125984251968504,
          "duration": 0.04651162790696617
        },
        {
          "name": "B3",
          "midi": 59,
          "time": 85.45348837208402,
          "velocity": 0.36220472440944884,
          "duration": 0.023255813953483084
        },
        {
          "name": "F#6",
          "midi": 90,
          "time": 85.45348837208402,
          "velocity": 0.1732283464566929,
          "duration": 0.06976744186044925
        },
        {
          "name": "D6",
          "midi": 86,
          "time": 85.46511627906077,
          "velocity": 0.1968503937007874,
          "duration": 0.034883720930224626
        },
        {
          "name": "F3",
          "midi": 53,
          "time": 85.47674418603751,
          "velocity": 0.33070866141732286,
          "duration": 0.09302325581393234
        },
        {
          "name": "A#3",
          "midi": 58,
          "time": 85.47674418603751,
          "velocity": 0.48031496062992124,
          "duration": 0.24418604651157239
        },
        {
          "name": "D#6",
          "midi": 87,
          "time": 85.49999999999099,
          "velocity": 0.36220472440944884,
          "duration": 0.19767441860460622
        },
        {
          "name": "G6",
          "midi": 91,
          "time": 85.49999999999099,
          "velocity": 0.14173228346456693,
          "duration": 0.034883720930224626
        },
        {
          "name": "D#5",
          "midi": 75,
          "time": 85.51162790696773,
          "velocity": 0.23622047244094488,
          "duration": 0.023255813953483084
        },
        {
          "name": "D6",
          "midi": 86,
          "time": 85.51162790696773,
          "velocity": 0.1968503937007874,
          "duration": 0.034883720930224626
        },
        {
          "name": "F#7",
          "midi": 102,
          "time": 85.52325581394447,
          "velocity": 0.30708661417322836,
          "duration": 0.2209302325580893
        },
        {
          "name": "C6",
          "midi": 84,
          "time": 85.53488372092121,
          "velocity": 0.3700787401574803,
          "duration": 0.15116279069764005
        },
        {
          "name": "E6",
          "midi": 88,
          "time": 85.53488372092121,
          "velocity": 0.18110236220472442,
          "duration": 0.034883720930224626
        },
        {
          "name": "F#6",
          "midi": 90,
          "time": 85.53488372092121,
          "velocity": 0.1732283464566929,
          "duration": 0.034883720930224626
        },
        {
          "name": "B6",
          "midi": 95,
          "time": 85.53488372092121,
          "velocity": 0.25196850393700787,
          "duration": 0.12790697674415696
        },
        {
          "name": "B5",
          "midi": 83,
          "time": 85.54651162789796,
          "velocity": 0.2992125984251969,
          "duration": 0.0813953488371908
        },
        {
          "name": "G6",
          "midi": 91,
          "time": 85.54651162789796,
          "velocity": 0.3464566929133858,
          "duration": 0.09302325581393234
        },
        {
          "name": "B1",
          "midi": 35,
          "time": 85.56976744185144,
          "velocity": 0.6377952755905512,
          "duration": 0.011627906976741542
        },
        {
          "name": "A5",
          "midi": 81,
          "time": 85.56976744185144,
          "velocity": 0.4409448818897638,
          "duration": 0.04651162790696617
        },
        {
          "name": "E7",
          "midi": 100,
          "time": 85.56976744185144,
          "velocity": 0.1889763779527559,
          "duration": 0.12790697674415696
        },
        {
          "name": "A4",
          "midi": 69,
          "time": 85.58139534882818,
          "velocity": 0.5433070866141733,
          "duration": 0.023255813953483084
        },
        {
          "name": "F#5",
          "midi": 78,
          "time": 85.58139534882818,
          "velocity": 0.28346456692913385,
          "duration": 0.034883720930224626
        },
        {
          "name": "E6",
          "midi": 88,
          "time": 85.58139534882818,
          "velocity": 0.2047244094488189,
          "duration": 0.06976744186044925
        },
        {
          "name": "D7",
          "midi": 98,
          "time": 85.58139534882818,
          "velocity": 0.2992125984251969,
          "duration": 0.15116279069764005
        },
        {
          "name": "A4",
          "midi": 69,
          "time": 85.6162790697584,
          "velocity": 0.1732283464566929,
          "duration": 0.06976744186044925
        },
        {
          "name": "G#5",
          "midi": 80,
          "time": 85.6162790697584,
          "velocity": 0.2440944881889764,
          "duration": 0.0813953488371908
        },
        {
          "name": "A#5",
          "midi": 82,
          "time": 85.6162790697584,
          "velocity": 0.09448818897637795,
          "duration": 0.04651162790696617
        },
        {
          "name": "F#6",
          "midi": 90,
          "time": 85.62790697673515,
          "velocity": 0.14173228346456693,
          "duration": 0.034883720930224626
        },
        {
          "name": "F#6",
          "midi": 90,
          "time": 85.67441860464211,
          "velocity": 0.16535433070866143,
          "duration": 0.034883720930224626
        },
        {
          "name": "G5",
          "midi": 79,
          "time": 85.6976744185956,
          "velocity": 0.1968503937007874,
          "duration": 0.04651162790696617
        },
        {
          "name": "A5",
          "midi": 81,
          "time": 85.6976744185956,
          "velocity": 0.2440944881889764,
          "duration": 0.04651162790696617
        },
        {
          "name": "E6",
          "midi": 88,
          "time": 85.6976744185956,
          "velocity": 0.2125984251968504,
          "duration": 0.06976744186044925
        },
        {
          "name": "D#6",
          "midi": 87,
          "time": 85.70930232557234,
          "velocity": 0.2047244094488189,
          "duration": 0.06976744186044925
        },
        {
          "name": "B6",
          "midi": 95,
          "time": 85.70930232557234,
          "velocity": 0.08661417322834646,
          "duration": 0.04651162790696617
        },
        {
          "name": "G#4",
          "midi": 68,
          "time": 85.72093023254908,
          "velocity": 0.3543307086614173,
          "duration": 0.034883720930224626
        },
        {
          "name": "F#5",
          "midi": 78,
          "time": 85.72093023254908,
          "velocity": 0.15748031496062992,
          "duration": 0.034883720930224626
        },
        {
          "name": "F#6",
          "midi": 90,
          "time": 85.72093023254908,
          "velocity": 0.2204724409448819,
          "duration": 0.1395348837208985
        },
        {
          "name": "A#6",
          "midi": 94,
          "time": 85.73255813952582,
          "velocity": 0.44881889763779526,
          "duration": 0.37209302325572935
        },
        {
          "name": "A#2",
          "midi": 46,
          "time": 85.74418604650256,
          "velocity": 0.14960629921259844,
          "duration": 0.05813953488370771
        },
        {
          "name": "A#3",
          "midi": 58,
          "time": 85.74418604650256,
          "velocity": 0.2992125984251969,
          "duration": 0.1627906976743816
        },
        {
          "name": "F#4",
          "midi": 66,
          "time": 85.7558139534793,
          "velocity": 0.2755905511811024,
          "duration": 0.023255813953483084
        },
        {
          "name": "A4",
          "midi": 69,
          "time": 85.7558139534793,
          "velocity": 0.3543307086614173,
          "duration": 0.034883720930224626
        },
        {
          "name": "F5",
          "midi": 77,
          "time": 85.7558139534793,
          "velocity": 0.33070866141732286,
          "duration": 0.1395348837208985
        },
        {
          "name": "D6",
          "midi": 86,
          "time": 85.76744186045605,
          "velocity": 0.14960629921259844,
          "duration": 0.034883720930224626
        },
        {
          "name": "C7",
          "midi": 96,
          "time": 85.76744186045605,
          "velocity": 0.36220472440944884,
          "duration": 0.4999999999998863
        },
        {
          "name": "A#5",
          "midi": 82,
          "time": 85.77906976743279,
          "velocity": 0.41732283464566927,
          "duration": 0.31395348837202164
        },
        {
          "name": "D7",
          "midi": 98,
          "time": 85.77906976743279,
          "velocity": 0.2992125984251969,
          "duration": 0.18604651162786467
        },
        {
          "name": "F#4",
          "midi": 66,
          "time": 85.79069767440953,
          "velocity": 0.2755905511811024,
          "duration": 0.034883720930224626
        },
        {
          "name": "A#4",
          "midi": 70,
          "time": 85.79069767440953,
          "velocity": 0.5354330708661418,
          "duration": 0.11627906976741542
        },
        {
          "name": "D#6",
          "midi": 87,
          "time": 85.79069767440953,
          "velocity": 0.33858267716535434,
          "duration": 0.12790697674415696
        },
        {
          "name": "B5",
          "midi": 83,
          "time": 85.80232558138627,
          "velocity": 0.2283464566929134,
          "duration": 0.023255813953483084
        },
        {
          "name": "A#2",
          "midi": 46,
          "time": 85.81395348836301,
          "velocity": 0.2047244094488189,
          "duration": 0.06976744186044925
        },
        {
          "name": "C6",
          "midi": 84,
          "time": 85.81395348836301,
          "velocity": 0.30708661417322836,
          "duration": 0.023255813953483084
        },
        {
          "name": "F6",
          "midi": 89,
          "time": 85.81395348836301,
          "velocity": 0.48031496062992124,
          "duration": 0.26744186046505547
        },
        {
          "name": "F4",
          "midi": 65,
          "time": 85.82558139533975,
          "velocity": 0.44881889763779526,
          "duration": 0.11627906976741542
        },
        {
          "name": "A6",
          "midi": 93,
          "time": 85.82558139533975,
          "velocity": 0.2440944881889764,
          "duration": 0.04651162790696617
        },
        {
          "name": "C6",
          "midi": 84,
          "time": 85.87209302324672,
          "velocity": 0.33858267716535434,
          "duration": 0.06976744186044925
        },
        {
          "name": "F#6",
          "midi": 90,
          "time": 85.88372093022346,
          "velocity": 0.2677165354330709,
          "duration": 0.034883720930224626
        },
        {
          "name": "A#2",
          "midi": 46,
          "time": 85.8953488372002,
          "velocity": 0.2677165354330709,
          "duration": 0.023255813953483084
        },
        {
          "name": "B4",
          "midi": 71,
          "time": 85.8953488372002,
          "velocity": 0.4015748031496063,
          "duration": 0.023255813953483084
        },
        {
          "name": "D6",
          "midi": 86,
          "time": 85.8953488372002,
          "velocity": 0.31496062992125984,
          "duration": 0.05813953488370771
        },
        {
          "name": "C#4",
          "midi": 61,
          "time": 85.90697674417694,
          "velocity": 0.4015748031496063,
          "duration": 0.0813953488371908
        },
        {
          "name": "B6",
          "midi": 95,
          "time": 85.90697674417694,
          "velocity": 0.18110236220472442,
          "duration": 0.04651162790696617
        },
        {
          "name": "E7",
          "midi": 100,
          "time": 85.90697674417694,
          "velocity": 0.11023622047244094,
          "duration": 0.11627906976741542
        },
        {
          "name": "F#7",
          "midi": 102,
          "time": 85.90697674417694,
          "velocity": 0.4094488188976378,
          "duration": 0.26744186046505547
        },
        {
          "name": "A2",
          "midi": 45,
          "time": 85.91860465115369,
          "velocity": 0.2677165354330709,
          "duration": 0.023255813953483084
        },
        {
          "name": "A#4",
          "midi": 70,
          "time": 85.91860465115369,
          "velocity": 0.5826771653543307,
          "duration": 0.0813953488371908
        },
        {
          "name": "G#5",
          "midi": 80,
          "time": 85.91860465115369,
          "velocity": 0.6141732283464567,
          "duration": 0.9418604651160649
        },
        {
          "name": "G#4",
          "midi": 68,
          "time": 85.93023255813043,
          "velocity": 0.6377952755905512,
          "duration": 0.29069767441853855
        },
        {
          "name": "D#6",
          "midi": 87,
          "time": 85.93023255813043,
          "velocity": 0.44881889763779526,
          "duration": 0.3837209302324709
        },
        {
          "name": "F#6",
          "midi": 90,
          "time": 85.93023255813043,
          "velocity": 0.25196850393700787,
          "duration": 0.12790697674415696
        },
        {
          "name": "A#2",
          "midi": 46,
          "time": 85.94186046510717,
          "velocity": 0.2440944881889764,
          "duration": 0.023255813953483084
        },
        {
          "name": "D#5",
          "midi": 75,
          "time": 85.94186046510717,
          "velocity": 0.3464566929133858,
          "duration": 0.04651162790696617
        },
        {
          "name": "A#3",
          "midi": 58,
          "time": 85.95348837208391,
          "velocity": 0.33070866141732286,
          "duration": 0.09302325581393234
        },
        {
          "name": "A6",
          "midi": 93,
          "time": 85.95348837208391,
          "velocity": 0.1889763779527559,
          "duration": 0.04651162790696617
        },
        {
          "name": "F4",
          "midi": 65,
          "time": 85.96511627906065,
          "velocity": 0.36220472440944884,
          "duration": 0.0813953488371908
        },
        {
          "name": "E6",
          "midi": 88,
          "time": 85.96511627906065,
          "velocity": 0.2440944881889764,
          "duration": 0.034883720930224626
        },
        {
          "name": "A#2",
          "midi": 46,
          "time": 85.9767441860374,
          "velocity": 0.29133858267716534,
          "duration": 0.23255813953483084
        },
        {
          "name": "C6",
          "midi": 84,
          "time": 86.01162790696762,
          "velocity": 0.28346456692913385,
          "duration": 0.04651162790696617
        },
        {
          "name": "A6",
          "midi": 93,
          "time": 86.01162790696762,
          "velocity": 0.2047244094488189,
          "duration": 0.15116279069764005
        },
        {
          "name": "D#7",
          "midi": 99,
          "time": 86.02325581394436,
          "velocity": 0.49606299212598426,
          "duration": 1.5930232558135913
        },
        {
          "name": "C#4",
          "midi": 61,
          "time": 86.05813953487458,
          "velocity": 0.1968503937007874,
          "duration": 0.04651162790696617
        },
        {
          "name": "F5",
          "midi": 77,
          "time": 86.06976744185133,
          "velocity": 0.3937007874015748,
          "duration": 0.17441860465112313
        },
        {
          "name": "F#6",
          "midi": 90,
          "time": 86.06976744185133,
          "velocity": 0.2125984251968504,
          "duration": 0.0813953488371908
        },
        {
          "name": "G6",
          "midi": 91,
          "time": 86.06976744185133,
          "velocity": 0.1889763779527559,
          "duration": 0.10465116279067388
        },
        {
          "name": "E7",
          "midi": 100,
          "time": 86.06976744185133,
          "velocity": 0.14960629921259844,
          "duration": 0.034883720930224626
        },
        {
          "name": "F4",
          "midi": 65,
          "time": 86.09302325580481,
          "velocity": 0.2992125984251969,
          "duration": 0.12790697674415696
        },
        {
          "name": "A#4",
          "midi": 70,
          "time": 86.11627906975829,
          "velocity": 0.31496062992125984,
          "duration": 0.023255813953483084
        },
        {
          "name": "A#6",
          "midi": 94,
          "time": 86.11627906975829,
          "velocity": 0.16535433070866143,
          "duration": 0.1627906976743816
        },
        {
          "name": "C#5",
          "midi": 73,
          "time": 86.12790697673503,
          "velocity": 0.48031496062992124,
          "duration": 0.10465116279067388
        },
        {
          "name": "C6",
          "midi": 84,
          "time": 86.12790697673503,
          "velocity": 0.25196850393700787,
          "duration": 0.034883720930224626
        },
        {
          "name": "C#4",
          "midi": 61,
          "time": 86.13953488371178,
          "velocity": 0.11811023622047244,
          "duration": 0.034883720930224626
        },
        {
          "name": "D#5",
          "midi": 75,
          "time": 86.13953488371178,
          "velocity": 0.16535433070866143,
          "duration": 0.09302325581393234
        },
        {
          "name": "A#4",
          "midi": 70,
          "time": 86.15116279068852,
          "velocity": 0.41732283464566927,
          "duration": 0.10465116279067388
        },
        {
          "name": "B5",
          "midi": 83,
          "time": 86.15116279068852,
          "velocity": 0.2047244094488189,
          "duration": 0.034883720930224626
        },
        {
          "name": "F#6",
          "midi": 90,
          "time": 86.16279069766526,
          "velocity": 0.2047244094488189,
          "duration": 0.09302325581393234
        },
        {
          "name": "C6",
          "midi": 84,
          "time": 86.19767441859548,
          "velocity": 0.31496062992125984,
          "duration": 0.023255813953483084
        },
        {
          "name": "G6",
          "midi": 91,
          "time": 86.20930232557222,
          "velocity": 0.2047244094488189,
          "duration": 0.06976744186044925
        },
        {
          "name": "D7",
          "midi": 98,
          "time": 86.20930232557222,
          "velocity": 0.14173228346456693,
          "duration": 0.06976744186044925
        },
        {
          "name": "C3",
          "midi": 48,
          "time": 86.22093023254897,
          "velocity": 0.6299212598425197,
          "duration": 0.011627906976741542
        },
        {
          "name": "F#5",
          "midi": 78,
          "time": 86.22093023254897,
          "velocity": 0.14173228346456693,
          "duration": 0.04651162790696617
        },
        {
          "name": "A2",
          "midi": 45,
          "time": 86.23255813952571,
          "velocity": 0.7322834645669292,
          "duration": 0.011627906976741542
        },
        {
          "name": "F4",
          "midi": 65,
          "time": 86.23255813952571,
          "velocity": 0.4015748031496063,
          "duration": 0.034883720930224626
        },
        {
          "name": "C5",
          "midi": 72,
          "time": 86.23255813952571,
          "velocity": 0.3464566929133858,
          "duration": 0.034883720930224626
        },
        {
          "name": "B6",
          "midi": 95,
          "time": 86.23255813952571,
          "velocity": 0.09448818897637795,
          "duration": 0.034883720930224626
        },
        {
          "name": "F2",
          "midi": 41,
          "time": 86.24418604650245,
          "velocity": 0.7874015748031497,
          "duration": 0.011627906976741542
        },
        {
          "name": "E7",
          "midi": 100,
          "time": 86.24418604650245,
          "velocity": 0.07874015748031496,
          "duration": 0.034883720930224626
        },
        {
          "name": "D2",
          "midi": 38,
          "time": 86.25581395347919,
          "velocity": 0.7952755905511811,
          "duration": 0.011627906976741542
        },
        {
          "name": "B5",
          "midi": 83,
          "time": 86.25581395347919,
          "velocity": 0.1889763779527559,
          "duration": 0.05813953488370771
        },
        {
          "name": "F6",
          "midi": 89,
          "time": 86.25581395347919,
          "velocity": 0.15748031496062992,
          "duration": 0.034883720930224626
        },
        {
          "name": "C2",
          "midi": 36,
          "time": 86.26744186045593,
          "velocity": 0.8031496062992126,
          "duration": 0.011627906976741542
        },
        {
          "name": "F3",
          "midi": 53,
          "time": 86.26744186045593,
          "velocity": 0.5039370078740157,
          "duration": 0.034883720930224626
        },
        {
          "name": "C#5",
          "midi": 73,
          "time": 86.26744186045593,
          "velocity": 0.1968503937007874,
          "duration": 0.04651162790696617
        },
        {
          "name": "F5",
          "midi": 77,
          "time": 86.26744186045593,
          "velocity": 0.1732283464566929,
          "duration": 0.04651162790696617
        },
        {
          "name": "B1",
          "midi": 35,
          "time": 86.27906976743267,
          "velocity": 0.7952755905511811,
          "duration": 0.011627906976741542
        },
        {
          "name": "G#4",
          "midi": 68,
          "time": 86.27906976743267,
          "velocity": 0.11811023622047244,
          "duration": 0.034883720930224626
        },
        {
          "name": "A#4",
          "midi": 70,
          "time": 86.27906976743267,
          "velocity": 0.25196850393700787,
          "duration": 0.11627906976741542
        },
        {
          "name": "D6",
          "midi": 86,
          "time": 86.27906976743267,
          "velocity": 0.15748031496062992,
          "duration": 0.034883720930224626
        },
        {
          "name": "A6",
          "midi": 93,
          "time": 86.27906976743267,
          "velocity": 0.2440944881889764,
          "duration": 0.23255813953483084
        },
        {
          "name": "A#1",
          "midi": 34,
          "time": 86.29069767440942,
          "velocity": 0.7874015748031497,
          "duration": 0.011627906976741542
        },
        {
          "name": "A1",
          "midi": 33,
          "time": 86.30232558138616,
          "velocity": 0.7795275590551181,
          "duration": 0.011627906976741542
        },
        {
          "name": "E3",
          "midi": 52,
          "time": 86.30232558138616,
          "velocity": 0.47244094488188976,
          "duration": 0.023255813953483084
        },
        {
          "name": "E6",
          "midi": 88,
          "time": 86.30232558138616,
          "velocity": 0.12598425196850394,
          "duration": 0.05813953488370771
        },
        {
          "name": "E7",
          "midi": 100,
          "time": 86.30232558138616,
          "velocity": 0.13385826771653545,
          "duration": 0.10465116279067388
        },
        {
          "name": "G#1",
          "midi": 32,
          "time": 86.3139534883629,
          "velocity": 0.7795275590551181,
          "duration": 0.023255813953483084
        },
        {
          "name": "C5",
          "midi": 72,
          "time": 86.3139534883629,
          "velocity": 0.18110236220472442,
          "duration": 0.034883720930224626
        },
        {
          "name": "F#5",
          "midi": 78,
          "time": 86.3139534883629,
          "velocity": 0.12598425196850394,
          "duration": 0.034883720930224626
        },
        {
          "name": "C6",
          "midi": 84,
          "time": 86.3139534883629,
          "velocity": 0.23622047244094488,
          "duration": 0.06976744186044925
        },
        {
          "name": "D#6",
          "midi": 87,
          "time": 86.32558139533964,
          "velocity": 0.25984251968503935,
          "duration": 0.1627906976743816
        },
        {
          "name": "G6",
          "midi": 91,
          "time": 86.32558139533964,
          "velocity": 0.18110236220472442,
          "duration": 0.06976744186044925
        },
        {
          "name": "G1",
          "midi": 31,
          "time": 86.33720930231638,
          "velocity": 0.7559055118110236,
          "duration": 0.05813953488370771
        },
        {
          "name": "C#5",
          "midi": 73,
          "time": 86.33720930231638,
          "velocity": 0.3464566929133858,
          "duration": 0.0813953488371908
        },
        {
          "name": "F5",
          "midi": 77,
          "time": 86.34883720929312,
          "velocity": 0.4094488188976378,
          "duration": 0.5348837209301109
        },
        {
          "name": "F4",
          "midi": 65,
          "time": 86.36046511626986,
          "velocity": 0.1732283464566929,
          "duration": 0.09302325581393234
        },
        {
          "name": "G#4",
          "midi": 68,
          "time": 86.3720930232466,
          "velocity": 0.4566929133858268,
          "duration": 0.1627906976743816
        },
        {
          "name": "E6",
          "midi": 88,
          "time": 86.3720930232466,
          "velocity": 0.08661417322834646,
          "duration": 0.034883720930224626
        },
        {
          "name": "C3",
          "midi": 48,
          "time": 86.38372093022335,
          "velocity": 0.4409448818897638,
          "duration": 0.26744186046505547
        },
        {
          "name": "C#4",
          "midi": 61,
          "time": 86.38372093022335,
          "velocity": 0.2755905511811024,
          "duration": 0.05813953488370771
        },
        {
          "name": "G#1",
          "midi": 32,
          "time": 86.39534883720009,
          "velocity": 0.6062992125984252,
          "duration": 0.034883720930224626
        },
        {
          "name": "C6",
          "midi": 84,
          "time": 86.39534883720009,
          "velocity": 0.14960629921259844,
          "duration": 0.034883720930224626
        },
        {
          "name": "B6",
          "midi": 95,
          "time": 86.39534883720009,
          "velocity": 0.12598425196850394,
          "duration": 0.034883720930224626
        },
        {
          "name": "C5",
          "midi": 72,
          "time": 86.40697674417683,
          "velocity": 0.30708661417322836,
          "duration": 0.023255813953483084
        },
        {
          "name": "B5",
          "midi": 83,
          "time": 86.40697674417683,
          "velocity": 0.14173228346456693,
          "duration": 0.034883720930224626
        },
        {
          "name": "C7",
          "midi": 96,
          "time": 86.41860465115357,
          "velocity": 0.29133858267716534,
          "duration": 0.034883720930224626
        },
        {
          "name": "G1",
          "midi": 31,
          "time": 86.43023255813031,
          "velocity": 0.6535433070866141,
          "duration": 0.023255813953483084
        },
        {
          "name": "C#5",
          "midi": 73,
          "time": 86.43023255813031,
          "velocity": 0.33858267716535434,
          "duration": 0.034883720930224626
        },
        {
          "name": "A#6",
          "midi": 94,
          "time": 86.43023255813031,
          "velocity": 0.09448818897637795,
          "duration": 0.10465116279067388
        },
        {
          "name": "F#6",
          "midi": 90,
          "time": 86.44186046510706,
          "velocity": 0.2440944881889764,
          "duration": 0.17441860465112313
        },
        {
          "name": "G7",
          "midi": 103,
          "time": 86.44186046510706,
          "velocity": 0.12598425196850394,
          "duration": 0.034883720930224626
        },
        {
          "name": "F#1",
          "midi": 30,
          "time": 86.4534883720838,
          "velocity": 0.7086614173228346,
          "duration": 0.06976744186044925
        },
        {
          "name": "A#5",
          "midi": 82,
          "time": 86.4534883720838,
          "velocity": 0.18110236220472442,
          "duration": 0.04651162790696617
        },
        {
          "name": "C6",
          "midi": 84,
          "time": 86.4534883720838,
          "velocity": 0.2440944881889764,
          "duration": 0.04651162790696617
        },
        {
          "name": "E7",
          "midi": 100,
          "time": 86.4534883720838,
          "velocity": 0.15748031496062992,
          "duration": 0.06976744186044925
        },
        {
          "name": "F7",
          "midi": 101,
          "time": 86.4534883720838,
          "velocity": 0.2677165354330709,
          "duration": 0.5232558139533694
        },
        {
          "name": "B6",
          "midi": 95,
          "time": 86.46511627906054,
          "velocity": 0.2125984251968504,
          "duration": 0.1395348837208985
        },
        {
          "name": "A#4",
          "midi": 70,
          "time": 86.47674418603728,
          "velocity": 0.28346456692913385,
          "duration": 0.023255813953483084
        },
        {
          "name": "G6",
          "midi": 91,
          "time": 86.48837209301402,
          "velocity": 0.14960629921259844,
          "duration": 0.04651162790696617
        },
        {
          "name": "F4",
          "midi": 65,
          "time": 86.49999999999076,
          "velocity": 0.1968503937007874,
          "duration": 0.034883720930224626
        },
        {
          "name": "C#5",
          "midi": 73,
          "time": 86.49999999999076,
          "velocity": 0.4409448818897638,
          "duration": 0.4186046511626955
        },
        {
          "name": "D#6",
          "midi": 87,
          "time": 86.49999999999076,
          "velocity": 0.25984251968503935,
          "duration": 0.023255813953483084
        },
        {
          "name": "C7",
          "midi": 96,
          "time": 86.49999999999076,
          "velocity": 0.36220472440944884,
          "duration": 0.47674418604640323
        },
        {
          "name": "F1",
          "midi": 29,
          "time": 86.52325581394425,
          "velocity": 0.7086614173228346,
          "duration": 0.34883720930224626
        },
        {
          "name": "B5",
          "midi": 83,
          "time": 86.52325581394425,
          "velocity": 0.23622047244094488,
          "duration": 0.04651162790696617
        },
        {
          "name": "D7",
          "midi": 98,
          "time": 86.52325581394425,
          "velocity": 0.07874015748031496,
          "duration": 0.034883720930224626
        },
        {
          "name": "F#7",
          "midi": 102,
          "time": 86.52325581394425,
          "velocity": 0.2677165354330709,
          "duration": 0.47674418604640323
        },
        {
          "name": "C6",
          "midi": 84,
          "time": 86.53488372092099,
          "velocity": 0.33070866141732286,
          "duration": 0.05813953488370771
        },
        {
          "name": "D#6",
          "midi": 87,
          "time": 86.53488372092099,
          "velocity": 0.23622047244094488,
          "duration": 0.05813953488370771
        },
        {
          "name": "G3",
          "midi": 55,
          "time": 86.54651162789773,
          "velocity": 0.29133858267716534,
          "duration": 0.023255813953483084
        },
        {
          "name": "F4",
          "midi": 65,
          "time": 86.54651162789773,
          "velocity": 0.48031496062992124,
          "duration": 0.1395348837208985
        },
        {
          "name": "A#6",
          "midi": 94,
          "time": 86.54651162789773,
          "velocity": 0.2125984251968504,
          "duration": 0.034883720930224626
        },
        {
          "name": "E7",
          "midi": 100,
          "time": 86.54651162789773,
          "velocity": 0.18110236220472442,
          "duration": 0.17441860465112313
        },
        {
          "name": "C#4",
          "midi": 61,
          "time": 86.55813953487447,
          "velocity": 0.44881889763779526,
          "duration": 0.11627906976741542
        },
        {
          "name": "G#4",
          "midi": 68,
          "time": 86.55813953487447,
          "velocity": 0.3937007874015748,
          "duration": 0.034883720930224626
        },
        {
          "name": "G6",
          "midi": 91,
          "time": 86.55813953487447,
          "velocity": 0.1889763779527559,
          "duration": 0.09302325581393234
        },
        {
          "name": "A6",
          "midi": 93,
          "time": 86.55813953487447,
          "velocity": 0.2283464566929134,
          "duration": 0.12790697674415696
        },
        {
          "name": "D6",
          "midi": 86,
          "time": 86.56976744185121,
          "velocity": 0.25984251968503935,
          "duration": 0.04651162790696617
        },
        {
          "name": "A4",
          "midi": 69,
          "time": 86.58139534882795,
          "velocity": 0.3858267716535433,
          "duration": 0.1395348837208985
        },
        {
          "name": "A#6",
          "midi": 94,
          "time": 86.5930232558047,
          "velocity": 0.23622047244094488,
          "duration": 0.10465116279067388
        },
        {
          "name": "D#5",
          "midi": 75,
          "time": 86.60465116278144,
          "velocity": 0.25984251968503935,
          "duration": 0.04651162790696617
        },
        {
          "name": "A#5",
          "midi": 82,
          "time": 86.60465116278144,
          "velocity": 0.1968503937007874,
          "duration": 0.0813953488371908
        },
        {
          "name": "C6",
          "midi": 84,
          "time": 86.60465116278144,
          "velocity": 0.28346456692913385,
          "duration": 0.034883720930224626
        },
        {
          "name": "D7",
          "midi": 98,
          "time": 86.61627906975818,
          "velocity": 0.09448818897637795,
          "duration": 0.09302325581393234
        },
        {
          "name": "E6",
          "midi": 88,
          "time": 86.62790697673492,
          "velocity": 0.1889763779527559,
          "duration": 0.09302325581393234
        },
        {
          "name": "F3",
          "midi": 53,
          "time": 86.63953488371166,
          "velocity": 0.4645669291338583,
          "duration": 0.23255813953483084
        },
        {
          "name": "C3",
          "midi": 48,
          "time": 86.66279069766514,
          "velocity": 0.4645669291338583,
          "duration": 0.20930232558134776
        },
        {
          "name": "F#6",
          "midi": 90,
          "time": 86.66279069766514,
          "velocity": 0.14960629921259844,
          "duration": 0.06976744186044925
        },
        {
          "name": "D6",
          "midi": 86,
          "time": 86.67441860464189,
          "velocity": 0.1968503937007874,
          "duration": 0.034883720930224626
        },
        {
          "name": "B6",
          "midi": 95,
          "time": 86.67441860464189,
          "velocity": 0.2125984251968504,
          "duration": 0.04651162790696617
        },
        {
          "name": "E4",
          "midi": 64,
          "time": 86.68604651161863,
          "velocity": 0.23622047244094488,
          "duration": 0.023255813953483084
        },
        {
          "name": "D#6",
          "midi": 87,
          "time": 86.70930232557211,
          "velocity": 0.3779527559055118,
          "duration": 0.19767441860460622
        },
        {
          "name": "A6",
          "midi": 93,
          "time": 86.70930232557211,
          "velocity": 0.16535433070866143,
          "duration": 0.034883720930224626
        },
        {
          "name": "G7",
          "midi": 103,
          "time": 86.70930232557211,
          "velocity": 0.25984251968503935,
          "duration": 0.3372093023255047
        },
        {
          "name": "A#5",
          "midi": 82,
          "time": 86.72093023254885,
          "velocity": 0.2125984251968504,
          "duration": 0.05813953488370771
        },
        {
          "name": "C6",
          "midi": 84,
          "time": 86.7325581395256,
          "velocity": 0.2755905511811024,
          "duration": 0.023255813953483084
        },
        {
          "name": "G#4",
          "midi": 68,
          "time": 86.74418604650234,
          "velocity": 0.31496062992125984,
          "duration": 0.023255813953483084
        },
        {
          "name": "B6",
          "midi": 95,
          "time": 86.74418604650234,
          "velocity": 0.12598425196850394,
          "duration": 0.06976744186044925
        },
        {
          "name": "E7",
          "midi": 100,
          "time": 86.74418604650234,
          "velocity": 0.16535433070866143,
          "duration": 0.05813953488370771
        },
        {
          "name": "B5",
          "midi": 83,
          "time": 86.75581395347908,
          "velocity": 0.2125984251968504,
          "duration": 0.034883720930224626
        },
        {
          "name": "C#4",
          "midi": 61,
          "time": 86.76744186045582,
          "velocity": 0.5196850393700787,
          "duration": 0.11627906976741542
        },
        {
          "name": "A4",
          "midi": 69,
          "time": 86.76744186045582,
          "velocity": 0.29133858267716534,
          "duration": 0.023255813953483084
        },
        {
          "name": "F#6",
          "midi": 90,
          "time": 86.76744186045582,
          "velocity": 0.11811023622047244,
          "duration": 0.034883720930224626
        },
        {
          "name": "C6",
          "midi": 84,
          "time": 86.77906976743256,
          "velocity": 0.25196850393700787,
          "duration": 0.034883720930224626
        },
        {
          "name": "A6",
          "midi": 93,
          "time": 86.7906976744093,
          "velocity": 0.4251968503937008,
          "duration": 0.09302325581393234
        },
        {
          "name": "A#5",
          "midi": 82,
          "time": 86.80232558138604,
          "velocity": 0.2047244094488189,
          "duration": 0.04651162790696617
        },
        {
          "name": "A4",
          "midi": 69,
          "time": 86.81395348836278,
          "velocity": 0.5354330708661418,
          "duration": 0.10465116279067388
        },
        {
          "name": "E6",
          "midi": 88,
          "time": 86.82558139533953,
          "velocity": 0.1889763779527559,
          "duration": 0.1395348837208985
        },
        {
          "name": "F#6",
          "midi": 90,
          "time": 86.82558139533953,
          "velocity": 0.16535433070866143,
          "duration": 0.04651162790696617
        },
        {
          "name": "B6",
          "midi": 95,
          "time": 86.83720930231627,
          "velocity": 0.23622047244094488,
          "duration": 0.18604651162786467
        },
        {
          "name": "B5",
          "midi": 83,
          "time": 86.84883720929301,
          "velocity": 0.18110236220472442,
          "duration": 0.034883720930224626
        },
        {
          "name": "C6",
          "midi": 84,
          "time": 86.84883720929301,
          "velocity": 0.4645669291338583,
          "duration": 0.023255813953483084
        },
        {
          "name": "G6",
          "midi": 91,
          "time": 86.84883720929301,
          "velocity": 0.25196850393700787,
          "duration": 0.06976744186044925
        },
        {
          "name": "A#5",
          "midi": 82,
          "time": 86.86046511626975,
          "velocity": 0.3464566929133858,
          "duration": 0.023255813953483084
        },
        {
          "name": "F#1",
          "midi": 30,
          "time": 86.87209302324649,
          "velocity": 0.6850393700787402,
          "duration": 0.023255813953483084
        },
        {
          "name": "D7",
          "midi": 98,
          "time": 86.87209302324649,
          "velocity": 0.33858267716535434,
          "duration": 0.4651162790696617
        },
        {
          "name": "E7",
          "midi": 100,
          "time": 86.87209302324649,
          "velocity": 0.2283464566929134,
          "duration": 0.15116279069764005
        },
        {
          "name": "G#3",
          "midi": 56,
          "time": 86.88372093022323,
          "velocity": 0.25984251968503935,
          "duration": 0.034883720930224626
        },
        {
          "name": "C4",
          "midi": 60,
          "time": 86.88372093022323,
          "velocity": 0.2677165354330709,
          "duration": 0.023255813953483084
        },
        {
          "name": "F#6",
          "midi": 90,
          "time": 86.88372093022323,
          "velocity": 0.25196850393700787,
          "duration": 0.18604651162786467
        },
        {
          "name": "F#4",
          "midi": 66,
          "time": 86.89534883719998,
          "velocity": 0.3700787401574803,
          "duration": 0.023255813953483084
        },
        {
          "name": "F5",
          "midi": 77,
          "time": 86.89534883719998,
          "velocity": 0.1968503937007874,
          "duration": 0.05813953488370771
        },
        {
          "name": "B5",
          "midi": 83,
          "time": 86.89534883719998,
          "velocity": 0.1889763779527559,
          "duration": 0.10465116279067388
        },
        {
          "name": "C#4",
          "midi": 61,
          "time": 86.90697674417672,
          "velocity": 0.2204724409448819,
          "duration": 0.11627906976741542
        },
        {
          "name": "G#5",
          "midi": 80,
          "time": 86.90697674417672,
          "velocity": 0.6062992125984252,
          "duration": 0.6744186046510094
        },
        {
          "name": "C6",
          "midi": 84,
          "time": 86.90697674417672,
          "velocity": 0.1968503937007874,
          "duration": 0.04651162790696617
        },
        {
          "name": "F4",
          "midi": 65,
          "time": 86.91860465115346,
          "velocity": 0.41732283464566927,
          "duration": 0.12790697674415696
        },
        {
          "name": "A4",
          "midi": 69,
          "time": 86.94186046510694,
          "velocity": 0.1889763779527559,
          "duration": 0.04651162790696617
        },
        {
          "name": "D6",
          "midi": 86,
          "time": 86.94186046510694,
          "velocity": 0.31496062992125984,
          "duration": 0.04651162790696617
        },
        {
          "name": "C#6",
          "midi": 85,
          "time": 86.95348837208368,
          "velocity": 0.4881889763779528,
          "duration": 0.034883720930224626
        },
        {
          "name": "A6",
          "midi": 93,
          "time": 86.96511627906042,
          "velocity": 0.2125984251968504,
          "duration": 0.1395348837208985
        },
        {
          "name": "F2",
          "midi": 41,
          "time": 86.97674418603717,
          "velocity": 0.11811023622047244,
          "duration": 0.05813953488370771
        },
        {
          "name": "C5",
          "midi": 72,
          "time": 86.98837209301391,
          "velocity": 0.25984251968503935,
          "duration": 0.09302325581393234
        },
        {
          "name": "A#5",
          "midi": 82,
          "time": 86.98837209301391,
          "velocity": 0.14173228346456693,
          "duration": 0.04651162790696617
        },
        {
          "name": "C6",
          "midi": 84,
          "time": 86.98837209301391,
          "velocity": 0.4566929133858268,
          "duration": 0.034883720930224626
        },
        {
          "name": "D#6",
          "midi": 87,
          "time": 86.98837209301391,
          "velocity": 0.1968503937007874,
          "duration": 0.0813953488371908
        },
        {
          "name": "G3",
          "midi": 55,
          "time": 86.99999999999065,
          "velocity": 0.14173228346456693,
          "duration": 0.034883720930224626
        },
        {
          "name": "F6",
          "midi": 89,
          "time": 87.01162790696739,
          "velocity": 0.1968503937007874,
          "duration": 0.06976744186044925
        },
        {
          "name": "G#4",
          "midi": 68,
          "time": 87.02325581394413,
          "velocity": 0.3543307086614173,
          "duration": 0.034883720930224626
        },
        {
          "name": "C#6",
          "midi": 85,
          "time": 87.02325581394413,
          "velocity": 0.49606299212598426,
          "duration": 0.05813953488370771
        },
        {
          "name": "E6",
          "midi": 88,
          "time": 87.02325581394413,
          "velocity": 0.1968503937007874,
          "duration": 0.06976744186044925
        },
        {
          "name": "F7",
          "midi": 101,
          "time": 87.03488372092087,
          "velocity": 0.44881889763779526,
          "duration": 0.5930232558138187
        },
        {
          "name": "E7",
          "midi": 100,
          "time": 87.04651162789762,
          "velocity": 0.2204724409448819,
          "duration": 0.15116279069764005
        },
        {
          "name": "F2",
          "midi": 41,
          "time": 87.05813953487436,
          "velocity": 0.2283464566929134,
          "duration": 0.18604651162786467
        },
        {
          "name": "A4",
          "midi": 69,
          "time": 87.05813953487436,
          "velocity": 0.4015748031496063,
          "duration": 0.05813953488370771
        },
        {
          "name": "G6",
          "midi": 91,
          "time": 87.05813953487436,
          "velocity": 0.11023622047244094,
          "duration": 0.034883720930224626
        },
        {
          "name": "B6",
          "midi": 95,
          "time": 87.05813953487436,
          "velocity": 0.10236220472440945,
          "duration": 0.06976744186044925
        },
        {
          "name": "C7",
          "midi": 96,
          "time": 87.05813953487436,
          "velocity": 0.4330708661417323,
          "duration": 0.4999999999998863
        },
        {
          "name": "C#4",
          "midi": 61,
          "time": 87.0697674418511,
          "velocity": 0.18110236220472442,
          "duration": 0.04651162790696617
        },
        {
          "name": "C#5",
          "midi": 73,
          "time": 87.08139534882784,
          "velocity": 0.25984251968503935,
          "duration": 0.034883720930224626
        },
        {
          "name": "D6",
          "midi": 86,
          "time": 87.08139534882784,
          "velocity": 0.3779527559055118,
          "duration": 0.034883720930224626
        },
        {
          "name": "F#6",
          "midi": 90,
          "time": 87.08139534882784,
          "velocity": 0.2440944881889764,
          "duration": 0.15116279069764005
        },
        {
          "name": "B5",
          "midi": 83,
          "time": 87.09302325580458,
          "velocity": 0.2125984251968504,
          "duration": 0.034883720930224626
        },
        {
          "name": "C#6",
          "midi": 85,
          "time": 87.09302325580458,
          "velocity": 0.5275590551181102,
          "duration": 0.04651162790696617
        },
        {
          "name": "F6",
          "midi": 89,
          "time": 87.09302325580458,
          "velocity": 0.4015748031496063,
          "duration": 0.20930232558134776
        },
        {
          "name": "F5",
          "midi": 77,
          "time": 87.10465116278132,
          "velocity": 0.5590551181102362,
          "duration": 0.4186046511626955
        },
        {
          "name": "D#6",
          "midi": 87,
          "time": 87.10465116278132,
          "velocity": 0.5039370078740157,
          "duration": 0.4418604651161786
        },
        {
          "name": "G7",
          "midi": 103,
          "time": 87.10465116278132,
          "velocity": 0.14173228346456693,
          "duration": 0.09302325581393234
        },
        {
          "name": "G#4",
          "midi": 68,
          "time": 87.11627906975806,
          "velocity": 0.49606299212598426,
          "duration": 0.17441860465112313
        },
        {
          "name": "C5",
          "midi": 72,
          "time": 87.11627906975806,
          "velocity": 0.1889763779527559,
          "duration": 0.034883720930224626
        },
        {
          "name": "A#5",
          "midi": 82,
          "time": 87.11627906975806,
          "velocity": 0.3464566929133858,
          "duration": 0.06976744186044925
        },
        {
          "name": "G6",
          "midi": 91,
          "time": 87.11627906975806,
          "velocity": 0.1732283464566929,
          "duration": 0.05813953488370771
        },
        {
          "name": "A6",
          "midi": 93,
          "time": 87.11627906975806,
          "velocity": 0.2283464566929134,
          "duration": 0.1395348837208985
        },
        {
          "name": "C6",
          "midi": 84,
          "time": 87.13953488371155,
          "velocity": 0.5826771653543307,
          "duration": 0.034883720930224626
        },
        {
          "name": "F3",
          "midi": 53,
          "time": 87.15116279068829,
          "velocity": 0.25984251968503935,
          "duration": 0.05813953488370771
        },
        {
          "name": "C4",
          "midi": 60,
          "time": 87.15116279068829,
          "velocity": 0.31496062992125984,
          "duration": 0.05813953488370771
        },
        {
          "name": "C#5",
          "midi": 73,
          "time": 87.15116279068829,
          "velocity": 0.2283464566929134,
          "duration": 0.04651162790696617
        },
        {
          "name": "F#7",
          "midi": 102,
          "time": 87.15116279068829,
          "velocity": 0.2440944881889764,
          "duration": 0.24418604651157239
        },
        {
          "name": "C#6",
          "midi": 85,
          "time": 87.16279069766503,
          "velocity": 0.5354330708661418,
          "duration": 0.05813953488370771
        },
        {
          "name": "C6",
          "midi": 84,
          "time": 87.18604651161851,
          "velocity": 0.4330708661417323,
          "duration": 0.034883720930224626
        },
        {
          "name": "C5",
          "midi": 72,
          "time": 87.19767441859526,
          "velocity": 0.48031496062992124,
          "duration": 0.023255813953483084
        },
        {
          "name": "G6",
          "midi": 91,
          "time": 87.19767441859526,
          "velocity": 0.25196850393700787,
          "duration": 0.18604651162786467
        },
        {
          "name": "A#6",
          "midi": 94,
          "time": 87.19767441859526,
          "velocity": 0.49606299212598426,
          "duration": 0.3604651162789878
        },
        {
          "name": "C#4",
          "midi": 61,
          "time": 87.209302325572,
          "velocity": 0.41732283464566927,
          "duration": 0.09302325581393234
        },
        {
          "name": "D6",
          "midi": 86,
          "time": 87.209302325572,
          "velocity": 0.44881889763779526,
          "duration": 0.023255813953483084
        },
        {
          "name": "E7",
          "midi": 100,
          "time": 87.209302325572,
          "velocity": 0.14960629921259844,
          "duration": 0.06976744186044925
        },
        {
          "name": "G7",
          "midi": 103,
          "time": 87.209302325572,
          "velocity": 0.3464566929133858,
          "duration": 0.3604651162789878
        },
        {
          "name": "G#3",
          "midi": 56,
          "time": 87.22093023254874,
          "velocity": 0.31496062992125984,
          "duration": 0.023255813953483084
        },
        {
          "name": "F4",
          "midi": 65,
          "time": 87.22093023254874,
          "velocity": 0.49606299212598426,
          "duration": 0.17441860465112313
        },
        {
          "name": "C#5",
          "midi": 73,
          "time": 87.22093023254874,
          "velocity": 0.4409448818897638,
          "duration": 0.034883720930224626
        },
        {
          "name": "B5",
          "midi": 83,
          "time": 87.22093023254874,
          "velocity": 0.2125984251968504,
          "duration": 0.04651162790696617
        },
        {
          "name": "D#5",
          "midi": 75,
          "time": 87.23255813952548,
          "velocity": 0.6929133858267716,
          "duration": 0.6395348837207848
        },
        {
          "name": "C#6",
          "midi": 85,
          "time": 87.23255813952548,
          "velocity": 0.5669291338582677,
          "duration": 0.05813953488370771
        },
        {
          "name": "A#5",
          "midi": 82,
          "time": 87.24418604650222,
          "velocity": 0.14960629921259844,
          "duration": 0.10465116279067388
        },
        {
          "name": "C5",
          "midi": 72,
          "time": 87.25581395347896,
          "velocity": 0.3464566929133858,
          "duration": 0.023255813953483084
        },
        {
          "name": "G#3",
          "midi": 56,
          "time": 87.2674418604557,
          "velocity": 0.3464566929133858,
          "duration": 0.023255813953483084
        },
        {
          "name": "A6",
          "midi": 93,
          "time": 87.2674418604557,
          "velocity": 0.1732283464566929,
          "duration": 0.0813953488371908
        },
        {
          "name": "F2",
          "midi": 41,
          "time": 87.27906976743245,
          "velocity": 0.13385826771653545,
          "duration": 0.034883720930224626
        },
        {
          "name": "C6",
          "midi": 84,
          "time": 87.27906976743245,
          "velocity": 0.5669291338582677,
          "duration": 0.04651162790696617
        },
        {
          "name": "A4",
          "midi": 69,
          "time": 87.29069767440919,
          "velocity": 0.2755905511811024,
          "duration": 0.034883720930224626
        },
        {
          "name": "E6",
          "midi": 88,
          "time": 87.29069767440919,
          "velocity": 0.1968503937007874,
          "duration": 0.034883720930224626
        },
        {
          "name": "G#3",
          "midi": 56,
          "time": 87.30232558138593,
          "velocity": 0.3464566929133858,
          "duration": 0.023255813953483084
        },
        {
          "name": "F#6",
          "midi": 90,
          "time": 87.30232558138593,
          "velocity": 0.14173228346456693,
          "duration": 0.04651162790696617
        },
        {
          "name": "F#2",
          "midi": 42,
          "time": 87.31395348836267,
          "velocity": 0.12598425196850394,
          "duration": 0.04651162790696617
        },
        {
          "name": "G#4",
          "midi": 68,
          "time": 87.32558139533941,
          "velocity": 0.33070866141732286,
          "duration": 0.18604651162786467
        },
        {
          "name": "C#6",
          "midi": 85,
          "time": 87.32558139533941,
          "velocity": 0.5118110236220472,
          "duration": 0.04651162790696617
        },
        {
          "name": "G#3",
          "midi": 56,
          "time": 87.33720930231615,
          "velocity": 0.2755905511811024,
          "duration": 0.04651162790696617
        },
        {
          "name": "C6",
          "midi": 84,
          "time": 87.33720930231615,
          "velocity": 0.33858267716535434,
          "duration": 0.034883720930224626
        },
        {
          "name": "F2",
          "midi": 41,
          "time": 87.36046511626964,
          "velocity": 0.07874015748031496,
          "duration": 0.04651162790696617
        },
        {
          "name": "C#4",
          "midi": 61,
          "time": 87.36046511626964,
          "velocity": 0.49606299212598426,
          "duration": 0.1627906976743816
        },
        {
          "name": "D6",
          "midi": 86,
          "time": 87.36046511626964,
          "velocity": 0.47244094488188976,
          "duration": 0.023255813953483084
        },
        {
          "name": "F#6",
          "midi": 90,
          "time": 87.37209302324638,
          "velocity": 0.13385826771653545,
          "duration": 0.04651162790696617
        },
        {
          "name": "C#6",
          "midi": 85,
          "time": 87.38372093022312,
          "velocity": 0.5905511811023622,
          "duration": 0.06976744186044925
        },
        {
          "name": "G6",
          "midi": 91,
          "time": 87.39534883719986,
          "velocity": 0.1889763779527559,
          "duration": 0.06976744186044925
        },
        {
          "name": "D7",
          "midi": 98,
          "time": 87.41860465115334,
          "velocity": 0.11023622047244094,
          "duration": 0.06976744186044925
        },
        {
          "name": "C6",
          "midi": 84,
          "time": 87.43023255813009,
          "velocity": 0.5511811023622047,
          "duration": 0.04651162790696617
        },
        {
          "name": "F#6",
          "midi": 90,
          "time": 87.43023255813009,
          "velocity": 0.18110236220472442,
          "duration": 0.04651162790696617
        },
        {
          "name": "A6",
          "midi": 93,
          "time": 87.43023255813009,
          "velocity": 0.1732283464566929,
          "duration": 0.17441860465112313
        },
        {
          "name": "F2",
          "midi": 41,
          "time": 87.44186046510683,
          "velocity": 0.15748031496062992,
          "duration": 0.06976744186044925
        },
        {
          "name": "F4",
          "midi": 65,
          "time": 87.44186046510683,
          "velocity": 0.2204724409448819,
          "duration": 0.06976744186044925
        },
        {
          "name": "A#5",
          "midi": 82,
          "time": 87.44186046510683,
          "velocity": 0.12598425196850394,
          "duration": 0.05813953488370771
        },
        {
          "name": "D6",
          "midi": 86,
          "time": 87.46511627906031,
          "velocity": 0.23622047244094488,
          "duration": 0.023255813953483084
        },
        {
          "name": "C#6",
          "midi": 85,
          "time": 87.47674418603705,
          "velocity": 0.49606299212598426,
          "duration": 0.034883720930224626
        },
        {
          "name": "F3",
          "midi": 53,
          "time": 87.4883720930138,
          "velocity": 0.5354330708661418,
          "duration": 0.04651162790696617
        },
        {
          "name": "B6",
          "midi": 95,
          "time": 87.4883720930138,
          "velocity": 0.12598425196850394,
          "duration": 0.06976744186044925
        },
        {
          "name": "C6",
          "midi": 84,
          "time": 87.49999999999054,
          "velocity": 0.33070866141732286,
          "duration": 0.06976744186044925
        },
        {
          "name": "F#6",
          "midi": 90,
          "time": 87.49999999999054,
          "velocity": 0.14173228346456693,
          "duration": 0.10465116279067388
        },
        {
          "name": "F#4",
          "midi": 66,
          "time": 87.51162790696728,
          "velocity": 0.33070866141732286,
          "duration": 0.023255813953483084
        },
        {
          "name": "D6",
          "midi": 86,
          "time": 87.51162790696728,
          "velocity": 0.3543307086614173,
          "duration": 0.023255813953483084
        },
        {
          "name": "A#5",
          "midi": 82,
          "time": 87.52325581394402,
          "velocity": 0.1732283464566929,
          "duration": 0.11627906976741542
        },
        {
          "name": "E6",
          "midi": 88,
          "time": 87.52325581394402,
          "velocity": 0.1732283464566929,
          "duration": 0.034883720930224626
        },
        {
          "name": "A2",
          "midi": 45,
          "time": 87.53488372092076,
          "velocity": 0.7007874015748031,
          "duration": 0.011627906976741542
        },
        {
          "name": "C4",
          "midi": 60,
          "time": 87.53488372092076,
          "velocity": 0.4330708661417323,
          "duration": 0.023255813953483084
        },
        {
          "name": "F4",
          "midi": 65,
          "time": 87.53488372092076,
          "velocity": 0.3858267716535433,
          "duration": 0.034883720930224626
        },
        {
          "name": "B4",
          "midi": 71,
          "time": 87.53488372092076,
          "velocity": 0.2283464566929134,
          "duration": 0.034883720930224626
        },
        {
          "name": "F#5",
          "midi": 78,
          "time": 87.53488372092076,
          "velocity": 0.11811023622047244,
          "duration": 0.06976744186044925
        },
        {
          "name": "C#6",
          "midi": 85,
          "time": 87.53488372092076,
          "velocity": 0.4094488188976378,
          "duration": 0.2209302325580893
        },
        {
          "name": "F#2",
          "midi": 42,
          "time": 87.5465116278975,
          "velocity": 0.7637795275590551,
          "duration": 0.011627906976741542
        },
        {
          "name": "C#5",
          "midi": 73,
          "time": 87.5465116278975,
          "velocity": 0.5748031496062992,
          "duration": 0.558139534883594
        },
        {
          "name": "D2",
          "midi": 38,
          "time": 87.55813953487424,
          "velocity": 0.7637795275590551,
          "duration": 0.011627906976741542
        },
        {
          "name": "C#2",
          "midi": 37,
          "time": 87.56976744185098,
          "velocity": 0.7952755905511811,
          "duration": 0.011627906976741542
        },
        {
          "name": "F#3",
          "midi": 54,
          "time": 87.56976744185098,
          "velocity": 0.41732283464566927,
          "duration": 0.04651162790696617
        },
        {
          "name": "F5",
          "midi": 77,
          "time": 87.56976744185098,
          "velocity": 0.12598425196850394,
          "duration": 0.034883720930224626
        },
        {
          "name": "B5",
          "midi": 83,
          "time": 87.56976744185098,
          "velocity": 0.18110236220472442,
          "duration": 0.034883720930224626
        },
        {
          "name": "C7",
          "midi": 96,
          "time": 87.56976744185098,
          "velocity": 0.08661417322834646,
          "duration": 0.12790697674415696
        },
        {
          "name": "B1",
          "midi": 35,
          "time": 87.58139534882773,
          "velocity": 0.7874015748031497,
          "duration": 0.011627906976741542
        },
        {
          "name": "D4",
          "midi": 62,
          "time": 87.58139534882773,
          "velocity": 0.2992125984251969,
          "duration": 0.05813953488370771
        },
        {
          "name": "A4",
          "midi": 69,
          "time": 87.58139534882773,
          "velocity": 0.1968503937007874,
          "duration": 0.05813953488370771
        },
        {
          "name": "A#1",
          "midi": 34,
          "time": 87.59302325580447,
          "velocity": 0.7795275590551181,
          "duration": 0.011627906976741542
        },
        {
          "name": "A1",
          "midi": 33,
          "time": 87.60465116278121,
          "velocity": 0.7716535433070866,
          "duration": 0.023255813953483084
        },
        {
          "name": "F#4",
          "midi": 66,
          "time": 87.60465116278121,
          "velocity": 0.5590551181102362,
          "duration": 0.4651162790696617
        },
        {
          "name": "G#1",
          "midi": 32,
          "time": 87.62790697673469,
          "velocity": 0.7637795275590551,
          "duration": 0.023255813953483084
        },
        {
          "name": "F#3",
          "midi": 54,
          "time": 87.62790697673469,
          "velocity": 0.44881889763779526,
          "duration": 0.1395348837208985
        },
        {
          "name": "B5",
          "midi": 83,
          "time": 87.62790697673469,
          "velocity": 0.2125984251968504,
          "duration": 0.06976744186044925
        },
        {
          "name": "C#4",
          "midi": 61,
          "time": 87.63953488371143,
          "velocity": 0.2440944881889764,
          "duration": 0.05813953488370771
        },
        {
          "name": "A#4",
          "midi": 70,
          "time": 87.63953488371143,
          "velocity": 0.2204724409448819,
          "duration": 0.09302325581393234
        },
        {
          "name": "F5",
          "midi": 77,
          "time": 87.63953488371143,
          "velocity": 0.16535433070866143,
          "duration": 0.05813953488370771
        },
        {
          "name": "G1",
          "midi": 31,
          "time": 87.65116279068818,
          "velocity": 0.7637795275590551,
          "duration": 0.04651162790696617
        },
        {
          "name": "G#5",
          "midi": 80,
          "time": 87.65116279068818,
          "velocity": 0.4330708661417323,
          "duration": 0.5930232558138187
        },
        {
          "name": "F#6",
          "midi": 90,
          "time": 87.65116279068818,
          "velocity": 0.13385826771653545,
          "duration": 0.04651162790696617
        },
        {
          "name": "F7",
          "midi": 101,
          "time": 87.65116279068818,
          "velocity": 0.48031496062992124,
          "duration": 5.174418604649986
        },
        {
          "name": "G7",
          "midi": 103,
          "time": 87.66279069766492,
          "velocity": 0.12598425196850394,
          "duration": 0.06976744186044925
        },
        {
          "name": "F6",
          "midi": 89,
          "time": 87.67441860464166,
          "velocity": 0.36220472440944884,
          "duration": 0.3255813953487632
        },
        {
          "name": "F#1",
          "midi": 30,
          "time": 87.69767441859514,
          "velocity": 0.7637795275590551,
          "duration": 0.11627906976741542
        },
        {
          "name": "A#5",
          "midi": 82,
          "time": 87.69767441859514,
          "velocity": 0.2677165354330709,
          "duration": 0.1627906976743816
        },
        {
          "name": "B5",
          "midi": 83,
          "time": 87.70930232557188,
          "velocity": 0.14960629921259844,
          "duration": 0.034883720930224626
        },
        {
          "name": "C6",
          "midi": 84,
          "time": 87.70930232557188,
          "velocity": 0.4015748031496063,
          "duration": 0.05813953488370771
        },
        {
          "name": "F#6",
          "midi": 90,
          "time": 87.70930232557188,
          "velocity": 0.33070866141732286,
          "duration": 0.26744186046505547
        },
        {
          "name": "A#6",
          "midi": 94,
          "time": 87.70930232557188,
          "velocity": 0.3700787401574803,
          "duration": 0.5116279069766279
        },
        {
          "name": "D6",
          "midi": 86,
          "time": 87.72093023254862,
          "velocity": 0.14173228346456693,
          "duration": 0.034883720930224626
        },
        {
          "name": "D4",
          "midi": 62,
          "time": 87.73255813952537,
          "velocity": 0.3700787401574803,
          "duration": 0.023255813953483084
        },
        {
          "name": "C#3",
          "midi": 49,
          "time": 87.75581395347885,
          "velocity": 0.4094488188976378,
          "duration": 0.04651162790696617
        },
        {
          "name": "C#4",
          "midi": 61,
          "time": 87.75581395347885,
          "velocity": 0.48031496062992124,
          "duration": 0.10465116279067388
        },
        {
          "name": "A#4",
          "midi": 70,
          "time": 87.75581395347885,
          "velocity": 0.5039370078740157,
          "duration": 0.4418604651161786
        },
        {
          "name": "E6",
          "midi": 88,
          "time": 87.75581395347885,
          "velocity": 0.2283464566929134,
          "duration": 0.06976744186044925
        },
        {
          "name": "B6",
          "midi": 95,
          "time": 87.79069767440907,
          "velocity": 0.11023622047244094,
          "duration": 0.04651162790696617
        },
        {
          "name": "D#7",
          "midi": 99,
          "time": 87.79069767440907,
          "velocity": 0.29133858267716534,
          "duration": 0.47674418604640323
        },
        {
          "name": "F#3",
          "midi": 54,
          "time": 87.80232558138582,
          "velocity": 0.30708661417322836,
          "duration": 0.04651162790696617
        },
        {
          "name": "B5",
          "midi": 83,
          "time": 87.80232558138582,
          "velocity": 0.3464566929133858,
          "duration": 0.06976744186044925
        },
        {
          "name": "D6",
          "midi": 86,
          "time": 87.80232558138582,
          "velocity": 0.4094488188976378,
          "duration": 0.034883720930224626
        },
        {
          "name": "F1",
          "midi": 29,
          "time": 87.81395348836256,
          "velocity": 0.7086614173228346,
          "duration": 0.011627906976741542
        },
        {
          "name": "F#1",
          "midi": 30,
          "time": 87.8255813953393,
          "velocity": 0.7086614173228346,
          "duration": 0.3837209302324709
        },
        {
          "name": "G6",
          "midi": 91,
          "time": 87.8255813953393,
          "velocity": 0.3464566929133858,
          "duration": 0.10465116279067388
        },
        {
          "name": "E7",
          "midi": 100,
          "time": 87.8255813953393,
          "velocity": 0.2204724409448819,
          "duration": 0.3255813953487632
        },
        {
          "name": "C7",
          "midi": 96,
          "time": 87.83720930231604,
          "velocity": 0.41732283464566927,
          "duration": 0.17441860465112313
        },
        {
          "name": "A#3",
          "midi": 58,
          "time": 87.86046511626952,
          "velocity": 0.4094488188976378,
          "duration": 0.11627906976741542
        },
        {
          "name": "F5",
          "midi": 77,
          "time": 87.86046511626952,
          "velocity": 0.25984251968503935,
          "duration": 0.05813953488370771
        },
        {
          "name": "C6",
          "midi": 84,
          "time": 87.87209302324626,
          "velocity": 0.44881889763779526,
          "duration": 0.023255813953483084
        },
        {
          "name": "E6",
          "midi": 88,
          "time": 87.87209302324626,
          "velocity": 0.25984251968503935,
          "duration": 0.10465116279067388
        },
        {
          "name": "A6",
          "midi": 93,
          "time": 87.87209302324626,
          "velocity": 0.25196850393700787,
          "duration": 0.09302325581393234
        },
        {
          "name": "D#5",
          "midi": 75,
          "time": 87.883720930223,
          "velocity": 0.33070866141732286,
          "duration": 0.1627906976743816
        },
        {
          "name": "B6",
          "midi": 95,
          "time": 87.883720930223,
          "velocity": 0.2125984251968504,
          "duration": 0.31395348837202164
        },
        {
          "name": "C#3",
          "midi": 49,
          "time": 87.89534883719975,
          "velocity": 0.36220472440944884,
          "duration": 0.034883720930224626
        },
        {
          "name": "C6",
          "midi": 84,
          "time": 87.90697674417649,
          "velocity": 0.4409448818897638,
          "duration": 0.0813953488371908
        },
        {
          "name": "C#4",
          "midi": 61,
          "time": 87.94186046510671,
          "velocity": 0.4251968503937008,
          "duration": 0.23255813953483084
        },
        {
          "name": "G6",
          "midi": 91,
          "time": 87.94186046510671,
          "velocity": 0.2047244094488189,
          "duration": 0.11627906976741542
        },
        {
          "name": "D6",
          "midi": 86,
          "time": 87.9651162790602,
          "velocity": 0.4094488188976378,
          "duration": 0.023255813953483084
        },
        {
          "name": "F#3",
          "midi": 54,
          "time": 87.97674418603694,
          "velocity": 0.25196850393700787,
          "duration": 0.023255813953483084
        },
        {
          "name": "B5",
          "midi": 83,
          "time": 87.98837209301368,
          "velocity": 0.2204724409448819,
          "duration": 0.034883720930224626
        },
        {
          "name": "F6",
          "midi": 89,
          "time": 88.01162790696716,
          "velocity": 0.4251968503937008,
          "duration": 0.3255813953487632
        },
        {
          "name": "A6",
          "midi": 93,
          "time": 88.01162790696716,
          "velocity": 0.1889763779527559,
          "duration": 0.11627906976741542
        },
        {
          "name": "C6",
          "midi": 84,
          "time": 88.0232558139439,
          "velocity": 0.4645669291338583,
          "duration": 0.034883720930224626
        },
        {
          "name": "E6",
          "midi": 88,
          "time": 88.0232558139439,
          "velocity": 0.14173228346456693,
          "duration": 0.034883720930224626
        },
        {
          "name": "C#6",
          "midi": 85,
          "time": 88.05813953487413,
          "velocity": 0.5905511811023622,
          "duration": 0.11627906976741542
        },
        {
          "name": "C#3",
          "midi": 49,
          "time": 88.06976744185087,
          "velocity": 0.41732283464566927,
          "duration": 0.12790697674415696
        },
        {
          "name": "D#5",
          "midi": 75,
          "time": 88.06976744185087,
          "velocity": 0.29133858267716534,
          "duration": 0.10465116279067388
        },
        {
          "name": "E6",
          "midi": 88,
          "time": 88.06976744185087,
          "velocity": 0.1732283464566929,
          "duration": 0.0813953488371908
        },
        {
          "name": "F#4",
          "midi": 66,
          "time": 88.08139534882761,
          "velocity": 0.3700787401574803,
          "duration": 0.10465116279067388
        },
        {
          "name": "D6",
          "midi": 86,
          "time": 88.09302325580435,
          "velocity": 0.49606299212598426,
          "duration": 0.034883720930224626
        },
        {
          "name": "C7",
          "midi": 96,
          "time": 88.09302325580435,
          "velocity": 0.1968503937007874,
          "duration": 0.05813953488370771
        },
        {
          "name": "C#5",
          "midi": 73,
          "time": 88.11627906975784,
          "velocity": 0.5039370078740157,
          "duration": 0.45348837209292014
        },
        {
          "name": "D6",
          "midi": 86,
          "time": 88.13953488371132,
          "velocity": 0.2992125984251969,
          "duration": 0.06976744186044925
        },
        {
          "name": "F#3",
          "midi": 54,
          "time": 88.15116279068806,
          "velocity": 0.31496062992125984,
          "duration": 0.034883720930224626
        },
        {
          "name": "G6",
          "midi": 91,
          "time": 88.15116279068806,
          "velocity": 0.28346456692913385,
          "duration": 0.06976744186044925
        },
        {
          "name": "A5",
          "midi": 81,
          "time": 88.1627906976648,
          "velocity": 0.4015748031496063,
          "duration": 0.034883720930224626
        },
        {
          "name": "C6",
          "midi": 84,
          "time": 88.1627906976648,
          "velocity": 0.44881889763779526,
          "duration": 0.034883720930224626
        },
        {
          "name": "F5",
          "midi": 77,
          "time": 88.17441860464155,
          "velocity": 0.25196850393700787,
          "duration": 0.10465116279067388
        },
        {
          "name": "E6",
          "midi": 88,
          "time": 88.17441860464155,
          "velocity": 0.2677165354330709,
          "duration": 0.09302325581393234
        },
        {
          "name": "F3",
          "midi": 53,
          "time": 88.18604651161829,
          "velocity": 0.31496062992125984,
          "duration": 0.023255813953483084
        },
        {
          "name": "G#4",
          "midi": 68,
          "time": 88.18604651161829,
          "velocity": 0.5118110236220472,
          "duration": 0.04651162790696617
        },
        {
          "name": "B5",
          "midi": 83,
          "time": 88.18604651161829,
          "velocity": 0.31496062992125984,
          "duration": 0.023255813953483084
        },
        {
          "name": "A#5",
          "midi": 82,
          "time": 88.19767441859503,
          "velocity": 0.5826771653543307,
          "duration": 1.2906976744183112
        },
        {
          "name": "A6",
          "midi": 93,
          "time": 88.19767441859503,
          "velocity": 0.2440944881889764,
          "duration": 0.05813953488370771
        },
        {
          "name": "C#4",
          "midi": 61,
          "time": 88.20930232557177,
          "velocity": 0.13385826771653545,
          "duration": 0.034883720930224626
        },
        {
          "name": "A#4",
          "midi": 70,
          "time": 88.20930232557177,
          "velocity": 0.31496062992125984,
          "duration": 0.10465116279067388
        },
        {
          "name": "D#5",
          "midi": 75,
          "time": 88.20930232557177,
          "velocity": 0.1968503937007874,
          "duration": 0.04651162790696617
        },
        {
          "name": "B6",
          "midi": 95,
          "time": 88.20930232557177,
          "velocity": 0.2047244094488189,
          "duration": 0.09302325581393234
        },
        {
          "name": "F#4",
          "midi": 66,
          "time": 88.23255813952525,
          "velocity": 0.12598425196850394,
          "duration": 0.06976744186044925
        },
        {
          "name": "G6",
          "midi": 91,
          "time": 88.23255813952525,
          "velocity": 0.1889763779527559,
          "duration": 0.09302325581393234
        },
        {
          "name": "A5",
          "midi": 81,
          "time": 88.244186046502,
          "velocity": 0.2283464566929134,
          "duration": 0.023255813953483084
        },
        {
          "name": "G#5",
          "midi": 80,
          "time": 88.26744186045548,
          "velocity": 0.2755905511811024,
          "duration": 0.10465116279067388
        },
        {
          "name": "F#2",
          "midi": 42,
          "time": 88.27906976743222,
          "velocity": 0.2992125984251969,
          "duration": 0.37209302325572935
        },
        {
          "name": "B5",
          "midi": 83,
          "time": 88.29069767440896,
          "velocity": 0.14960629921259844,
          "duration": 0.034883720930224626
        },
        {
          "name": "F#5",
          "midi": 78,
          "time": 88.3023255813857,
          "velocity": 0.2677165354330709,
          "duration": 0.15116279069764005
        },
        {
          "name": "D#7",
          "midi": 99,
          "time": 88.3023255813857,
          "velocity": 0.1732283464566929,
          "duration": 0.05813953488370771
        },
        {
          "name": "A6",
          "midi": 93,
          "time": 88.31395348836244,
          "velocity": 0.2283464566929134,
          "duration": 0.09302325581393234
        },
        {
          "name": "E7",
          "midi": 100,
          "time": 88.32558139533919,
          "velocity": 0.14173228346456693,
          "duration": 0.1395348837208985
        },
        {
          "name": "G#4",
          "midi": 68,
          "time": 88.33720930231593,
          "velocity": 0.3779527559055118,
          "duration": 0.034883720930224626
        },
        {
          "name": "D#6",
          "midi": 87,
          "time": 88.33720930231593,
          "velocity": 0.1889763779527559,
          "duration": 0.034883720930224626
        },
        {
          "name": "D#5",
          "midi": 75,
          "time": 88.34883720929267,
          "velocity": 0.11811023622047244,
          "duration": 0.034883720930224626
        },
        {
          "name": "F6",
          "midi": 89,
          "time": 88.34883720929267,
          "velocity": 0.1889763779527559,
          "duration": 0.034883720930224626
        },
        {
          "name": "G6",
          "midi": 91,
          "time": 88.34883720929267,
          "velocity": 0.23622047244094488,
          "duration": 0.0813953488371908
        },
        {
          "name": "E6",
          "midi": 88,
          "time": 88.36046511626941,
          "velocity": 0.15748031496062992,
          "duration": 0.04651162790696617
        },
        {
          "name": "A4",
          "midi": 69,
          "time": 88.37209302324615,
          "velocity": 0.3858267716535433,
          "duration": 0.05813953488370771
        },
        {
          "name": "D#7",
          "midi": 99,
          "time": 88.37209302324615,
          "velocity": 0.33858267716535434,
          "duration": 0.48837209302314477
        },
        {
          "name": "C#4",
          "midi": 61,
          "time": 88.38372093022289,
          "velocity": 0.3464566929133858,
          "duration": 0.17441860465112313
        },
        {
          "name": "G#5",
          "midi": 80,
          "time": 88.38372093022289,
          "velocity": 0.3228346456692913,
          "duration": 0.023255813953483084
        },
        {
          "name": "D7",
          "midi": 98,
          "time": 88.38372093022289,
          "velocity": 0.2992125984251969,
          "duration": 0.24418604651157239
        },
        {
          "name": "F#4",
          "midi": 66,
          "time": 88.39534883719963,
          "velocity": 0.4566929133858268,
          "duration": 0.10465116279067388
        },
        {
          "name": "F6",
          "midi": 89,
          "time": 88.39534883719963,
          "velocity": 0.3937007874015748,
          "duration": 0.3023255813952801
        },
        {
          "name": "D6",
          "midi": 86,
          "time": 88.41860465115312,
          "velocity": 0.18110236220472442,
          "duration": 0.034883720930224626
        },
        {
          "name": "A#4",
          "midi": 70,
          "time": 88.43023255812986,
          "velocity": 0.5669291338582677,
          "duration": 0.12790697674415696
        },
        {
          "name": "A6",
          "midi": 93,
          "time": 88.4418604651066,
          "velocity": 0.2440944881889764,
          "duration": 0.09302325581393234
        },
        {
          "name": "F5",
          "midi": 77,
          "time": 88.45348837208334,
          "velocity": 0.2440944881889764,
          "duration": 0.0813953488371908
        },
        {
          "name": "D#6",
          "midi": 87,
          "time": 88.45348837208334,
          "velocity": 0.3464566929133858,
          "duration": 0.06976744186044925
        },
        {
          "name": "F#6",
          "midi": 90,
          "time": 88.45348837208334,
          "velocity": 0.25196850393700787,
          "duration": 0.04651162790696617
        },
        {
          "name": "D#5",
          "midi": 75,
          "time": 88.47674418603683,
          "velocity": 0.2125984251968504,
          "duration": 0.05813953488370771
        },
        {
          "name": "C6",
          "midi": 84,
          "time": 88.47674418603683,
          "velocity": 0.36220472440944884,
          "duration": 0.05813953488370771
        },
        {
          "name": "G6",
          "midi": 91,
          "time": 88.47674418603683,
          "velocity": 0.2283464566929134,
          "duration": 0.18604651162786467
        },
        {
          "name": "G4",
          "midi": 67,
          "time": 88.49999999999031,
          "velocity": 0.4881889763779528,
          "duration": 0.034883720930224626
        },
        {
          "name": "F#5",
          "midi": 78,
          "time": 88.49999999999031,
          "velocity": 0.2755905511811024,
          "duration": 0.09302325581393234
        },
        {
          "name": "C7",
          "midi": 96,
          "time": 88.49999999999031,
          "velocity": 0.4566929133858268,
          "duration": 0.3255813953487632
        },
        {
          "name": "G#5",
          "midi": 80,
          "time": 88.51162790696705,
          "velocity": 0.49606299212598426,
          "duration": 0.3372093023255047
        },
        {
          "name": "D6",
          "midi": 86,
          "time": 88.51162790696705,
          "velocity": 0.2283464566929134,
          "duration": 0.023255813953483084
        },
        {
          "name": "F#6",
          "midi": 90,
          "time": 88.51162790696705,
          "velocity": 0.3858267716535433,
          "duration": 0.15116279069764005
        },
        {
          "name": "B6",
          "midi": 95,
          "time": 88.51162790696705,
          "velocity": 0.11811023622047244,
          "duration": 0.04651162790696617
        },
        {
          "name": "E7",
          "midi": 100,
          "time": 88.51162790696705,
          "velocity": 0.11023622047244094,
          "duration": 0.05813953488370771
        },
        {
          "name": "F#7",
          "midi": 102,
          "time": 88.52325581394379,
          "velocity": 0.4015748031496063,
          "duration": 0.20930232558134776
        },
        {
          "name": "F#4",
          "midi": 66,
          "time": 88.53488372092053,
          "velocity": 0.5118110236220472,
          "duration": 0.12790697674415696
        },
        {
          "name": "D#6",
          "midi": 87,
          "time": 88.53488372092053,
          "velocity": 0.41732283464566927,
          "duration": 0.31395348837202164
        },
        {
          "name": "G#4",
          "midi": 68,
          "time": 88.54651162789727,
          "velocity": 0.5275590551181102,
          "duration": 0.04651162790696617
        },
        {
          "name": "F5",
          "midi": 77,
          "time": 88.54651162789727,
          "velocity": 0.25196850393700787,
          "duration": 0.0813953488371908
        },
        {
          "name": "C6",
          "midi": 84,
          "time": 88.54651162789727,
          "velocity": 0.33070866141732286,
          "duration": 0.10465116279067388
        },
        {
          "name": "A6",
          "midi": 93,
          "time": 88.54651162789727,
          "velocity": 0.13385826771653545,
          "duration": 0.034883720930224626
        },
        {
          "name": "A#3",
          "midi": 58,
          "time": 88.55813953487402,
          "velocity": 0.4094488188976378,
          "duration": 0.15116279069764005
        },
        {
          "name": "D#5",
          "midi": 75,
          "time": 88.56976744185076,
          "velocity": 0.33070866141732286,
          "duration": 0.034883720930224626
        },
        {
          "name": "C#5",
          "midi": 73,
          "time": 88.5813953488275,
          "velocity": 0.3700787401574803,
          "duration": 0.2558139534883139
        },
        {
          "name": "E6",
          "midi": 88,
          "time": 88.5813953488275,
          "velocity": 0.25984251968503935,
          "duration": 0.034883720930224626
        },
        {
          "name": "B6",
          "midi": 95,
          "time": 88.5813953488275,
          "velocity": 0.2125984251968504,
          "duration": 0.10465116279067388
        },
        {
          "name": "A#4",
          "midi": 70,
          "time": 88.59302325580424,
          "velocity": 0.41732283464566927,
          "duration": 0.04651162790696617
        },
        {
          "name": "A6",
          "midi": 93,
          "time": 88.59302325580424,
          "velocity": 0.25984251968503935,
          "duration": 0.023255813953483084
        },
        {
          "name": "G#4",
          "midi": 68,
          "time": 88.61627906975772,
          "velocity": 0.5905511811023622,
          "duration": 0.18604651162786467
        },
        {
          "name": "E6",
          "midi": 88,
          "time": 88.62790697673447,
          "velocity": 0.15748031496062992,
          "duration": 0.034883720930224626
        },
        {
          "name": "A6",
          "midi": 93,
          "time": 88.62790697673447,
          "velocity": 0.16535433070866143,
          "duration": 0.05813953488370771
        },
        {
          "name": "C#6",
          "midi": 85,
          "time": 88.6395348837112,
          "velocity": 0.4094488188976378,
          "duration": 0.0813953488371908
        },
        {
          "name": "D7",
          "midi": 98,
          "time": 88.6395348837112,
          "velocity": 0.1732283464566929,
          "duration": 0.1395348837208985
        },
        {
          "name": "D#5",
          "midi": 75,
          "time": 88.65116279068795,
          "velocity": 0.18110236220472442,
          "duration": 0.11627906976741542
        },
        {
          "name": "F#2",
          "midi": 42,
          "time": 88.66279069766469,
          "velocity": 0.36220472440944884,
          "duration": 0.1627906976743816
        },
        {
          "name": "C4",
          "midi": 60,
          "time": 88.70930232557166,
          "velocity": 0.2992125984251969,
          "duration": 0.023255813953483084
        },
        {
          "name": "F5",
          "midi": 77,
          "time": 88.70930232557166,
          "velocity": 0.29133858267716534,
          "duration": 0.05813953488370771
        },
        {
          "name": "D6",
          "midi": 86,
          "time": 88.70930232557166,
          "velocity": 0.2755905511811024,
          "duration": 0.034883720930224626
        },
        {
          "name": "F6",
          "midi": 89,
          "time": 88.70930232557166,
          "velocity": 0.4015748031496063,
          "duration": 0.7906976744184249
        },
        {
          "name": "C6",
          "midi": 84,
          "time": 88.7209302325484,
          "velocity": 0.1968503937007874,
          "duration": 0.034883720930224626
        },
        {
          "name": "G6",
          "midi": 91,
          "time": 88.7209302325484,
          "velocity": 0.18110236220472442,
          "duration": 0.034883720930224626
        },
        {
          "name": "A#3",
          "midi": 58,
          "time": 88.73255813952514,
          "velocity": 0.4881889763779528,
          "duration": 0.10465116279067388
        },
        {
          "name": "F#5",
          "midi": 78,
          "time": 88.76744186045536,
          "velocity": 0.3543307086614173,
          "duration": 0.0813953488371908
        },
        {
          "name": "C6",
          "midi": 84,
          "time": 88.76744186045536,
          "velocity": 0.2755905511811024,
          "duration": 0.023255813953483084
        },
        {
          "name": "E6",
          "midi": 88,
          "time": 88.76744186045536,
          "velocity": 0.11023622047244094,
          "duration": 0.034883720930224626
        },
        {
          "name": "C#6",
          "midi": 85,
          "time": 88.7790697674321,
          "velocity": 0.5196850393700787,
          "duration": 0.4651162790696617
        },
        {
          "name": "B6",
          "midi": 95,
          "time": 88.7790697674321,
          "velocity": 0.08661417322834646,
          "duration": 0.04651162790696617
        },
        {
          "name": "C#4",
          "midi": 61,
          "time": 88.80232558138559,
          "velocity": 0.28346456692913385,
          "duration": 0.023255813953483084
        },
        {
          "name": "D#5",
          "midi": 75,
          "time": 88.80232558138559,
          "velocity": 0.14173228346456693,
          "duration": 0.034883720930224626
        },
        {
          "name": "F#3",
          "midi": 54,
          "time": 88.81395348836233,
          "velocity": 0.47244094488188976,
          "duration": 0.023255813953483084
        },
        {
          "name": "B5",
          "midi": 83,
          "time": 88.82558139533907,
          "velocity": 0.1968503937007874,
          "duration": 0.034883720930224626
        },
        {
          "name": "E6",
          "midi": 88,
          "time": 88.82558139533907,
          "velocity": 0.2047244094488189,
          "duration": 0.09302325581393234
        },
        {
          "name": "C3",
          "midi": 48,
          "time": 88.83720930231581,
          "velocity": 0.6771653543307087,
          "duration": 0.011627906976741542
        },
        {
          "name": "G4",
          "midi": 67,
          "time": 88.83720930231581,
          "velocity": 0.3700787401574803,
          "duration": 0.034883720930224626
        },
        {
          "name": "B4",
          "midi": 71,
          "time": 88.83720930231581,
          "velocity": 0.2992125984251969,
          "duration": 0.023255813953483084
        },
        {
          "name": "D5",
          "midi": 74,
          "time": 88.83720930231581,
          "velocity": 0.2283464566929134,
          "duration": 0.023255813953483084
        },
        {
          "name": "F5",
          "midi": 77,
          "time": 88.83720930231581,
          "velocity": 0.2204724409448819,
          "duration": 0.05813953488370771
        },
        {
          "name": "F#2",
          "midi": 42,
          "time": 88.84883720929255,
          "velocity": 0.7480314960629921,
          "duration": 0.011627906976741542
        },
        {
          "name": "C#5",
          "midi": 73,
          "time": 88.84883720929255,
          "velocity": 0.2992125984251969,
          "duration": 0.04651162790696617
        },
        {
          "name": "F2",
          "midi": 41,
          "time": 88.8604651162693,
          "velocity": 0.7874015748031497,
          "duration": 0.011627906976741542
        },
        {
          "name": "C7",
          "midi": 96,
          "time": 88.8604651162693,
          "velocity": 0.10236220472440945,
          "duration": 0.034883720930224626
        },
        {
          "name": "C#2",
          "midi": 37,
          "time": 88.87209302324604,
          "velocity": 0.8031496062992126,
          "duration": 0.011627906976741542
        },
        {
          "name": "C5",
          "midi": 72,
          "time": 88.87209302324604,
          "velocity": 0.2283464566929134,
          "duration": 0.034883720930224626
        },
        {
          "name": "B1",
          "midi": 35,
          "time": 88.88372093022278,
          "velocity": 0.8031496062992126,
          "duration": 0.011627906976741542
        },
        {
          "name": "F3",
          "midi": 53,
          "time": 88.88372093022278,
          "velocity": 0.47244094488188976,
          "duration": 0.034883720930224626
        },
        {
          "name": "C#4",
          "midi": 61,
          "time": 88.88372093022278,
          "velocity": 0.1732283464566929,
          "duration": 0.034883720930224626
        },
        {
          "name": "G#5",
          "midi": 80,
          "time": 88.88372093022278,
          "velocity": 0.5039370078740157,
          "duration": 0.3372093023255047
        },
        {
          "name": "B6",
          "midi": 95,
          "time": 88.88372093022278,
          "velocity": 0.07086614173228346,
          "duration": 0.034883720930224626
        },
        {
          "name": "A#1",
          "midi": 34,
          "time": 88.89534883719952,
          "velocity": 0.7952755905511811,
          "duration": 0.011627906976741542
        },
        {
          "name": "A1",
          "midi": 33,
          "time": 88.90697674417626,
          "velocity": 0.7874015748031497,
          "duration": 0.023255813953483084
        },
        {
          "name": "F5",
          "midi": 77,
          "time": 88.90697674417626,
          "velocity": 0.2677165354330709,
          "duration": 0.17441860465112313
        },
        {
          "name": "B5",
          "midi": 83,
          "time": 88.90697674417626,
          "velocity": 0.14173228346456693,
          "duration": 0.05813953488370771
        },
        {
          "name": "G#1",
          "midi": 32,
          "time": 88.93023255812975,
          "velocity": 0.7795275590551181,
          "duration": 0.023255813953483084
        },
        {
          "name": "C#5",
          "midi": 73,
          "time": 88.93023255812975,
          "velocity": 0.6299212598425197,
          "duration": 0.31395348837202164
        },
        {
          "name": "G6",
          "midi": 91,
          "time": 88.93023255812975,
          "velocity": 0.11811023622047244,
          "duration": 0.034883720930224626
        },
        {
          "name": "G1",
          "midi": 31,
          "time": 88.95348837208323,
          "velocity": 0.7559055118110236,
          "duration": 0.04651162790696617
        },
        {
          "name": "C#4",
          "midi": 61,
          "time": 88.95348837208323,
          "velocity": 0.2677165354330709,
          "duration": 0.0813953488371908
        },
        {
          "name": "G#4",
          "midi": 68,
          "time": 88.95348837208323,
          "velocity": 0.3543307086614173,
          "duration": 0.17441860465112313
        },
        {
          "name": "D6",
          "midi": 86,
          "time": 88.95348837208323,
          "velocity": 0.15748031496062992,
          "duration": 0.034883720930224626
        },
        {
          "name": "F3",
          "midi": 53,
          "time": 88.97674418603671,
          "velocity": 0.36220472440944884,
          "duration": 0.06976744186044925
        },
        {
          "name": "D#6",
          "midi": 87,
          "time": 88.97674418603671,
          "velocity": 0.3464566929133858,
          "duration": 0.26744186046505547
        },
        {
          "name": "A6",
          "midi": 93,
          "time": 88.98837209301345,
          "velocity": 0.14960629921259844,
          "duration": 0.04651162790696617
        },
        {
          "name": "G#1",
          "midi": 32,
          "time": 88.9999999999902,
          "velocity": 0.6299212598425197,
          "duration": 0.04651162790696617
        },
        {
          "name": "C3",
          "midi": 48,
          "time": 88.9999999999902,
          "velocity": 0.4645669291338583,
          "duration": 0.5232558139533694
        },
        {
          "name": "D#7",
          "midi": 99,
          "time": 88.9999999999902,
          "velocity": 0.3543307086614173,
          "duration": 1.1627906976741542
        },
        {
          "name": "C7",
          "midi": 96,
          "time": 89.01162790696694,
          "velocity": 0.33858267716535434,
          "duration": 0.23255813953483084
        },
        {
          "name": "F#7",
          "midi": 102,
          "time": 89.03488372092042,
          "velocity": 0.14173228346456693,
          "duration": 0.034883720930224626
        },
        {
          "name": "G7",
          "midi": 103,
          "time": 89.03488372092042,
          "velocity": 0.09448818897637795,
          "duration": 0.034883720930224626
        },
        {
          "name": "G1",
          "midi": 31,
          "time": 89.04651162789716,
          "velocity": 0.6377952755905512,
          "duration": 0.011627906976741542
        },
        {
          "name": "F#6",
          "midi": 90,
          "time": 89.04651162789716,
          "velocity": 0.14173228346456693,
          "duration": 0.04651162790696617
        },
        {
          "name": "G6",
          "midi": 91,
          "time": 89.04651162789716,
          "velocity": 0.18110236220472442,
          "duration": 0.09302325581393234
        },
        {
          "name": "B6",
          "midi": 95,
          "time": 89.04651162789716,
          "velocity": 0.2047244094488189,
          "duration": 0.06976744186044925
        },
        {
          "name": "F#1",
          "midi": 30,
          "time": 89.0581395348739,
          "velocity": 0.7165354330708661,
          "duration": 0.06976744186044925
        },
        {
          "name": "G#3",
          "midi": 56,
          "time": 89.0581395348739,
          "velocity": 0.5196850393700787,
          "duration": 0.05813953488370771
        },
        {
          "name": "D#5",
          "midi": 75,
          "time": 89.0581395348739,
          "velocity": 0.25196850393700787,
          "duration": 0.034883720930224626
        },
        {
          "name": "C#4",
          "midi": 61,
          "time": 89.06976744185064,
          "velocity": 0.3228346456692913,
          "duration": 0.023255813953483084
        },
        {
          "name": "A6",
          "midi": 93,
          "time": 89.06976744185064,
          "velocity": 0.14960629921259844,
          "duration": 0.04651162790696617
        },
        {
          "name": "F4",
          "midi": 65,
          "time": 89.08139534882739,
          "velocity": 0.23622047244094488,
          "duration": 0.06976744186044925
        },
        {
          "name": "B5",
          "midi": 83,
          "time": 89.08139534882739,
          "velocity": 0.11811023622047244,
          "duration": 0.05813953488370771
        },
        {
          "name": "F5",
          "midi": 77,
          "time": 89.09302325580413,
          "velocity": 0.4251968503937008,
          "duration": 0.406976744185954
        },
        {
          "name": "D#5",
          "midi": 75,
          "time": 89.10465116278087,
          "velocity": 0.30708661417322836,
          "duration": 0.05813953488370771
        },
        {
          "name": "G3",
          "midi": 55,
          "time": 89.11627906975761,
          "velocity": 0.4881889763779528,
          "duration": 0.023255813953483084
        },
        {
          "name": "F#7",
          "midi": 102,
          "time": 89.11627906975761,
          "velocity": 0.25984251968503935,
          "duration": 0.23255813953483084
        },
        {
          "name": "F1",
          "midi": 29,
          "time": 89.12790697673435,
          "velocity": 0.7086614173228346,
          "duration": 0.3604651162789878
        },
        {
          "name": "C6",
          "midi": 84,
          "time": 89.12790697673435,
          "velocity": 0.28346456692913385,
          "duration": 0.0813953488371908
        },
        {
          "name": "A6",
          "midi": 93,
          "time": 89.12790697673435,
          "velocity": 0.2283464566929134,
          "duration": 0.04651162790696617
        },
        {
          "name": "E7",
          "midi": 100,
          "time": 89.12790697673435,
          "velocity": 0.1889763779527559,
          "duration": 0.12790697674415696
        },
        {
          "name": "D4",
          "midi": 62,
          "time": 89.1395348837111,
          "velocity": 0.29133858267716534,
          "duration": 0.023255813953483084
        },
        {
          "name": "G#4",
          "midi": 68,
          "time": 89.1395348837111,
          "velocity": 0.29133858267716534,
          "duration": 0.023255813953483084
        },
        {
          "name": "F#6",
          "midi": 90,
          "time": 89.1395348837111,
          "velocity": 0.16535433070866143,
          "duration": 0.034883720930224626
        },
        {
          "name": "G7",
          "midi": 103,
          "time": 89.1395348837111,
          "velocity": 0.1889763779527559,
          "duration": 0.034883720930224626
        },
        {
          "name": "G6",
          "midi": 91,
          "time": 89.15116279068783,
          "velocity": 0.3228346456692913,
          "duration": 0.11627906976741542
        },
        {
          "name": "F#4",
          "midi": 66,
          "time": 89.16279069766458,
          "velocity": 0.4015748031496063,
          "duration": 0.034883720930224626
        },
        {
          "name": "E6",
          "midi": 88,
          "time": 89.16279069766458,
          "velocity": 0.2440944881889764,
          "duration": 0.12790697674415696
        },
        {
          "name": "B6",
          "midi": 95,
          "time": 89.16279069766458,
          "velocity": 0.25196850393700787,
          "duration": 0.406976744185954
        },
        {
          "name": "D7",
          "midi": 98,
          "time": 89.16279069766458,
          "velocity": 0.2677165354330709,
          "duration": 0.09302325581393234
        },
        {
          "name": "C#4",
          "midi": 61,
          "time": 89.17441860464132,
          "velocity": 0.4645669291338583,
          "duration": 0.06976744186044925
        },
        {
          "name": "D#5",
          "midi": 75,
          "time": 89.17441860464132,
          "velocity": 0.2755905511811024,
          "duration": 0.034883720930224626
        },
        {
          "name": "F#6",
          "midi": 90,
          "time": 89.18604651161806,
          "velocity": 0.13385826771653545,
          "duration": 0.034883720930224626
        },
        {
          "name": "F4",
          "midi": 65,
          "time": 89.1976744185948,
          "velocity": 0.4645669291338583,
          "duration": 0.3023255813952801
        },
        {
          "name": "G#4",
          "midi": 68,
          "time": 89.1976744185948,
          "velocity": 0.2440944881889764,
          "duration": 0.023255813953483084
        },
        {
          "name": "A6",
          "midi": 93,
          "time": 89.1976744185948,
          "velocity": 0.2125984251968504,
          "duration": 0.04651162790696617
        },
        {
          "name": "A4",
          "midi": 69,
          "time": 89.22093023254828,
          "velocity": 0.3779527559055118,
          "duration": 0.06976744186044925
        },
        {
          "name": "C6",
          "midi": 84,
          "time": 89.22093023254828,
          "velocity": 0.25196850393700787,
          "duration": 0.05813953488370771
        },
        {
          "name": "G#3",
          "midi": 56,
          "time": 89.23255813952503,
          "velocity": 0.4409448818897638,
          "duration": 0.023255813953483084
        },
        {
          "name": "D#5",
          "midi": 75,
          "time": 89.23255813952503,
          "velocity": 0.1968503937007874,
          "duration": 0.05813953488370771
        },
        {
          "name": "G#5",
          "midi": 80,
          "time": 89.23255813952503,
          "velocity": 0.2992125984251969,
          "duration": 0.034883720930224626
        },
        {
          "name": "F#6",
          "midi": 90,
          "time": 89.23255813952503,
          "velocity": 0.23622047244094488,
          "duration": 0.05813953488370771
        },
        {
          "name": "C5",
          "midi": 72,
          "time": 89.24418604650177,
          "velocity": 0.4094488188976378,
          "duration": 0.04651162790696617
        },
        {
          "name": "C#6",
          "midi": 85,
          "time": 89.25581395347851,
          "velocity": 0.6535433070866141,
          "duration": 0.9767441860462895
        },
        {
          "name": "D#6",
          "midi": 87,
          "time": 89.25581395347851,
          "velocity": 0.3700787401574803,
          "duration": 0.3604651162789878
        },
        {
          "name": "A6",
          "midi": 93,
          "time": 89.25581395347851,
          "velocity": 0.23622047244094488,
          "duration": 0.04651162790696617
        },
        {
          "name": "C7",
          "midi": 96,
          "time": 89.25581395347851,
          "velocity": 0.3464566929133858,
          "duration": 0.3604651162789878
        },
        {
          "name": "D6",
          "midi": 86,
          "time": 89.27906976743199,
          "velocity": 0.23622047244094488,
          "duration": 0.023255813953483084
        },
        {
          "name": "G6",
          "midi": 91,
          "time": 89.27906976743199,
          "velocity": 0.1732283464566929,
          "duration": 0.09302325581393234
        },
        {
          "name": "G#4",
          "midi": 68,
          "time": 89.29069767440873,
          "velocity": 0.33070866141732286,
          "duration": 0.023255813953483084
        },
        {
          "name": "C#5",
          "midi": 73,
          "time": 89.29069767440873,
          "velocity": 0.6062992125984252,
          "duration": 0.43023255813943706
        },
        {
          "name": "G#5",
          "midi": 80,
          "time": 89.29069767440873,
          "velocity": 0.4251968503937008,
          "duration": 0.20930232558134776
        },
        {
          "name": "C6",
          "midi": 84,
          "time": 89.29069767440873,
          "velocity": 0.3779527559055118,
          "duration": 0.05813953488370771
        },
        {
          "name": "E7",
          "midi": 100,
          "time": 89.29069767440873,
          "velocity": 0.14173228346456693,
          "duration": 0.04651162790696617
        },
        {
          "name": "C#4",
          "midi": 61,
          "time": 89.31395348836222,
          "velocity": 0.29133858267716534,
          "duration": 0.023255813953483084
        },
        {
          "name": "A4",
          "midi": 69,
          "time": 89.31395348836222,
          "velocity": 0.3543307086614173,
          "duration": 0.023255813953483084
        },
        {
          "name": "D#5",
          "midi": 75,
          "time": 89.32558139533896,
          "velocity": 0.2047244094488189,
          "duration": 0.034883720930224626
        },
        {
          "name": "G#4",
          "midi": 68,
          "time": 89.3372093023157,
          "velocity": 0.33858267716535434,
          "duration": 0.04651162790696617
        },
        {
          "name": "E6",
          "midi": 88,
          "time": 89.34883720929244,
          "velocity": 0.23622047244094488,
          "duration": 0.023255813953483084
        },
        {
          "name": "F#6",
          "midi": 90,
          "time": 89.34883720929244,
          "velocity": 0.12598425196850394,
          "duration": 0.034883720930224626
        },
        {
          "name": "C6",
          "midi": 84,
          "time": 89.36046511626918,
          "velocity": 0.4094488188976378,
          "duration": 0.10465116279067388
        },
        {
          "name": "A6",
          "midi": 93,
          "time": 89.36046511626918,
          "velocity": 0.28346456692913385,
          "duration": 0.12790697674415696
        },
        {
          "name": "C#4",
          "midi": 61,
          "time": 89.37209302324592,
          "velocity": 0.31496062992125984,
          "duration": 0.023255813953483084
        },
        {
          "name": "D7",
          "midi": 98,
          "time": 89.37209302324592,
          "velocity": 0.08661417322834646,
          "duration": 0.06976744186044925
        },
        {
          "name": "F#7",
          "midi": 102,
          "time": 89.37209302324592,
          "velocity": 0.33070866141732286,
          "duration": 0.23255813953483084
        },
        {
          "name": "F#6",
          "midi": 90,
          "time": 89.3953488371994,
          "velocity": 0.16535433070866143,
          "duration": 0.09302325581393234
        },
        {
          "name": "C#4",
          "midi": 61,
          "time": 89.40697674417615,
          "velocity": 0.4330708661417323,
          "duration": 0.18604651162786467
        },
        {
          "name": "G#4",
          "midi": 68,
          "time": 89.40697674417615,
          "velocity": 0.48031496062992124,
          "duration": 0.0813953488371908
        },
        {
          "name": "F3",
          "midi": 53,
          "time": 89.43023255812963,
          "velocity": 0.4330708661417323,
          "duration": 0.034883720930224626
        },
        {
          "name": "G6",
          "midi": 91,
          "time": 89.43023255812963,
          "velocity": 0.2992125984251969,
          "duration": 0.09302325581393234
        },
        {
          "name": "D7",
          "midi": 98,
          "time": 89.4767441860366,
          "velocity": 0.3700787401574803,
          "duration": 0.47674418604640323
        },
        {
          "name": "F#1",
          "midi": 30,
          "time": 89.48837209301334,
          "velocity": 0.6692913385826772,
          "duration": 0.023255813953483084
        },
        {
          "name": "A4",
          "midi": 69,
          "time": 89.48837209301334,
          "velocity": 0.5196850393700787,
          "duration": 0.023255813953483084
        },
        {
          "name": "E6",
          "midi": 88,
          "time": 89.48837209301334,
          "velocity": 0.25984251968503935,
          "duration": 0.10465116279067388
        },
        {
          "name": "A#6",
          "midi": 94,
          "time": 89.48837209301334,
          "velocity": 0.2755905511811024,
          "duration": 0.15116279069764005
        },
        {
          "name": "E7",
          "midi": 100,
          "time": 89.48837209301334,
          "velocity": 0.25984251968503935,
          "duration": 0.09302325581393234
        },
        {
          "name": "F#5",
          "midi": 78,
          "time": 89.49999999999008,
          "velocity": 0.2992125984251969,
          "duration": 0.05813953488370771
        },
        {
          "name": "B5",
          "midi": 83,
          "time": 89.49999999999008,
          "velocity": 0.23622047244094488,
          "duration": 0.09302325581393234
        },
        {
          "name": "E5",
          "midi": 76,
          "time": 89.51162790696682,
          "velocity": 0.14960629921259844,
          "duration": 0.04651162790696617
        },
        {
          "name": "A#5",
          "midi": 82,
          "time": 89.51162790696682,
          "velocity": 0.14173228346456693,
          "duration": 0.034883720930224626
        },
        {
          "name": "G#4",
          "midi": 68,
          "time": 89.5348837209203,
          "velocity": 0.2755905511811024,
          "duration": 0.0813953488371908
        },
        {
          "name": "F6",
          "midi": 89,
          "time": 89.54651162789705,
          "velocity": 0.4094488188976378,
          "duration": 0.6627906976742679
        },
        {
          "name": "C6",
          "midi": 84,
          "time": 89.58139534882727,
          "velocity": 0.2047244094488189,
          "duration": 0.034883720930224626
        },
        {
          "name": "A#5",
          "midi": 82,
          "time": 89.59302325580401,
          "velocity": 0.2204724409448819,
          "duration": 0.05813953488370771
        },
        {
          "name": "D6",
          "midi": 86,
          "time": 89.60465116278075,
          "velocity": 0.2440944881889764,
          "duration": 0.04651162790696617
        },
        {
          "name": "E7",
          "midi": 100,
          "time": 89.60465116278075,
          "velocity": 0.18110236220472442,
          "duration": 0.09302325581393234
        },
        {
          "name": "A#4",
          "midi": 70,
          "time": 89.6162790697575,
          "velocity": 0.23622047244094488,
          "duration": 0.023255813953483084
        },
        {
          "name": "A5",
          "midi": 81,
          "time": 89.6162790697575,
          "velocity": 0.2440944881889764,
          "duration": 0.04651162790696617
        },
        {
          "name": "E6",
          "midi": 88,
          "time": 89.6162790697575,
          "velocity": 0.1889763779527559,
          "duration": 0.0813953488371908
        },
        {
          "name": "G#4",
          "midi": 68,
          "time": 89.63953488371098,
          "velocity": 0.3464566929133858,
          "duration": 0.034883720930224626
        },
        {
          "name": "B5",
          "midi": 83,
          "time": 89.63953488371098,
          "velocity": 0.16535433070866143,
          "duration": 0.034883720930224626
        },
        {
          "name": "C7",
          "midi": 96,
          "time": 89.63953488371098,
          "velocity": 0.1732283464566929,
          "duration": 0.0813953488371908
        },
        {
          "name": "G5",
          "midi": 79,
          "time": 89.65116279068772,
          "velocity": 0.18110236220472442,
          "duration": 0.034883720930224626
        },
        {
          "name": "D#6",
          "midi": 87,
          "time": 89.65116279068772,
          "velocity": 0.4566929133858268,
          "duration": 0.558139534883594
        },
        {
          "name": "G4",
          "midi": 67,
          "time": 89.66279069766446,
          "velocity": 0.3464566929133858,
          "duration": 0.023255813953483084
        },
        {
          "name": "F5",
          "midi": 77,
          "time": 89.66279069766446,
          "velocity": 0.15748031496062992,
          "duration": 0.05813953488370771
        },
        {
          "name": "A#5",
          "midi": 82,
          "time": 89.66279069766446,
          "velocity": 0.4566929133858268,
          "duration": 0.19767441860460622
        },
        {
          "name": "D6",
          "midi": 86,
          "time": 89.66279069766446,
          "velocity": 0.16535433070866143,
          "duration": 0.034883720930224626
        },
        {
          "name": "A#6",
          "midi": 94,
          "time": 89.66279069766446,
          "velocity": 0.4881889763779528,
          "duration": 0.48837209302314477
        },
        {
          "name": "A4",
          "midi": 69,
          "time": 89.6744186046412,
          "velocity": 0.3464566929133858,
          "duration": 0.034883720930224626
        },
        {
          "name": "F2",
          "midi": 41,
          "time": 89.68604651161795,
          "velocity": 0.1732283464566929,
          "duration": 0.034883720930224626
        },
        {
          "name": "E4",
          "midi": 64,
          "time": 89.69767441859469,
          "velocity": 0.23622047244094488,
          "duration": 0.034883720930224626
        },
        {
          "name": "G#4",
          "midi": 68,
          "time": 89.69767441859469,
          "velocity": 0.31496062992125984,
          "duration": 0.023255813953483084
        },
        {
          "name": "C6",
          "midi": 84,
          "time": 89.69767441859469,
          "velocity": 0.3228346456692913,
          "duration": 0.023255813953483084
        },
        {
          "name": "C#4",
          "midi": 61,
          "time": 89.70930232557143,
          "velocity": 0.2204724409448819,
          "duration": 0.09302325581393234
        },
        {
          "name": "A#4",
          "midi": 70,
          "time": 89.70930232557143,
          "velocity": 0.5275590551181102,
          "duration": 0.1395348837208985
        },
        {
          "name": "E7",
          "midi": 100,
          "time": 89.70930232557143,
          "velocity": 0.2125984251968504,
          "duration": 0.12790697674415696
        },
        {
          "name": "F4",
          "midi": 65,
          "time": 89.72093023254817,
          "velocity": 0.47244094488188976,
          "duration": 0.10465116279067388
        },
        {
          "name": "F#5",
          "midi": 78,
          "time": 89.72093023254817,
          "velocity": 0.14173228346456693,
          "duration": 0.034883720930224626
        },
        {
          "name": "A6",
          "midi": 93,
          "time": 89.72093023254817,
          "velocity": 0.4094488188976378,
          "duration": 0.023255813953483084
        },
        {
          "name": "F2",
          "midi": 41,
          "time": 89.73255813952491,
          "velocity": 0.33858267716535434,
          "duration": 0.3255813953487632
        },
        {
          "name": "G#4",
          "midi": 68,
          "time": 89.73255813952491,
          "velocity": 0.3543307086614173,
          "duration": 0.034883720930224626
        },
        {
          "name": "D6",
          "midi": 86,
          "time": 89.73255813952491,
          "velocity": 0.14960629921259844,
          "duration": 0.04651162790696617
        },
        {
          "name": "G#6",
          "midi": 92,
          "time": 89.73255813952491,
          "velocity": 0.5590551181102362,
          "duration": 1.4302325581392097
        },
        {
          "name": "C7",
          "midi": 96,
          "time": 89.73255813952491,
          "velocity": 0.4409448818897638,
          "duration": 0.43023255813943706
        },
        {
          "name": "A5",
          "midi": 81,
          "time": 89.74418604650165,
          "velocity": 0.1968503937007874,
          "duration": 0.04651162790696617
        },
        {
          "name": "C#5",
          "midi": 73,
          "time": 89.7558139534784,
          "velocity": 0.36220472440944884,
          "duration": 0.05813953488370771
        },
        {
          "name": "B6",
          "midi": 95,
          "time": 89.76744186045514,
          "velocity": 0.10236220472440945,
          "duration": 0.06976744186044925
        },
        {
          "name": "G#5",
          "midi": 80,
          "time": 89.79069767440862,
          "velocity": 0.41732283464566927,
          "duration": 0.4186046511626955
        },
        {
          "name": "A6",
          "midi": 93,
          "time": 89.79069767440862,
          "velocity": 0.16535433070866143,
          "duration": 0.04651162790696617
        },
        {
          "name": "F#7",
          "midi": 102,
          "time": 89.79069767440862,
          "velocity": 0.4330708661417323,
          "duration": 0.34883720930224626
        },
        {
          "name": "F#3",
          "midi": 54,
          "time": 89.80232558138536,
          "velocity": 0.2992125984251969,
          "duration": 0.034883720930224626
        },
        {
          "name": "D#5",
          "midi": 75,
          "time": 89.80232558138536,
          "velocity": 0.11023622047244094,
          "duration": 0.04651162790696617
        },
        {
          "name": "C6",
          "midi": 84,
          "time": 89.80232558138536,
          "velocity": 0.16535433070866143,
          "duration": 0.034883720930224626
        },
        {
          "name": "G6",
          "midi": 91,
          "time": 89.80232558138536,
          "velocity": 0.25984251968503935,
          "duration": 0.11627906976741542
        },
        {
          "name": "C#4",
          "midi": 61,
          "time": 89.8139534883621,
          "velocity": 0.5748031496062992,
          "duration": 0.18604651162786467
        },
        {
          "name": "G#4",
          "midi": 68,
          "time": 89.83720930231559,
          "velocity": 0.7086614173228346,
          "duration": 0.31395348837202164
        },
        {
          "name": "F#6",
          "midi": 90,
          "time": 89.83720930231559,
          "velocity": 0.2125984251968504,
          "duration": 0.18604651162786467
        },
        {
          "name": "A5",
          "midi": 81,
          "time": 89.84883720929233,
          "velocity": 0.25984251968503935,
          "duration": 0.023255813953483084
        },
        {
          "name": "C6",
          "midi": 84,
          "time": 89.84883720929233,
          "velocity": 0.28346456692913385,
          "duration": 0.04651162790696617
        },
        {
          "name": "G#3",
          "midi": 56,
          "time": 89.86046511626907,
          "velocity": 0.3858267716535433,
          "duration": 0.04651162790696617
        },
        {
          "name": "F4",
          "midi": 65,
          "time": 89.86046511626907,
          "velocity": 0.41732283464566927,
          "duration": 0.15116279069764005
        },
        {
          "name": "D#5",
          "midi": 75,
          "time": 89.86046511626907,
          "velocity": 0.29133858267716534,
          "duration": 0.034883720930224626
        },
        {
          "name": "C5",
          "midi": 72,
          "time": 89.88372093022255,
          "velocity": 0.28346456692913385,
          "duration": 0.023255813953483084
        },
        {
          "name": "B5",
          "midi": 83,
          "time": 89.8953488371993,
          "velocity": 0.14173228346456693,
          "duration": 0.034883720930224626
        },
        {
          "name": "E6",
          "midi": 88,
          "time": 89.8953488371993,
          "velocity": 0.2283464566929134,
          "duration": 0.023255813953483084
        },
        {
          "name": "D#5",
          "midi": 75,
          "time": 89.90697674417603,
          "velocity": 0.2755905511811024,
          "duration": 0.023255813953483084
        },
        {
          "name": "G#3",
          "midi": 56,
          "time": 89.91860465115278,
          "velocity": 0.3700787401574803,
          "duration": 0.023255813953483084
        },
        {
          "name": "A#4",
          "midi": 70,
          "time": 89.91860465115278,
          "velocity": 0.29133858267716534,
          "duration": 0.023255813953483084
        },
        {
          "name": "G#3",
          "midi": 56,
          "time": 89.953488372083,
          "velocity": 0.25984251968503935,
          "duration": 0.023255813953483084
        },
        {
          "name": "E7",
          "midi": 100,
          "time": 89.953488372083,
          "velocity": 0.07086614173228346,
          "duration": 0.04651162790696617
        },
        {
          "name": "D#5",
          "midi": 75,
          "time": 89.96511627905974,
          "velocity": 0.11811023622047244,
          "duration": 0.04651162790696617
        },
        {
          "name": "A6",
          "midi": 93,
          "time": 89.96511627905974,
          "velocity": 0.14173228346456693,
          "duration": 0.1627906976743816
        },
        {
          "name": "E6",
          "midi": 88,
          "time": 89.97674418603648,
          "velocity": 0.14173228346456693,
          "duration": 0.034883720930224626
        },
        {
          "name": "B5",
          "midi": 83,
          "time": 89.98837209301323,
          "velocity": 0.09448818897637795,
          "duration": 0.04651162790696617
        },
        {
          "name": "C#4",
          "midi": 61,
          "time": 90.02325581394345,
          "velocity": 0.2204724409448819,
          "duration": 0.034883720930224626
        },
        {
          "name": "F4",
          "midi": 65,
          "time": 90.03488372092019,
          "velocity": 0.30708661417322836,
          "duration": 0.0813953488371908
        },
        {
          "name": "D#5",
          "midi": 75,
          "time": 90.03488372092019,
          "velocity": 0.2755905511811024,
          "duration": 0.1395348837208985
        },
        {
          "name": "G6",
          "midi": 91,
          "time": 90.03488372092019,
          "velocity": 0.08661417322834646,
          "duration": 0.034883720930224626
        },
        {
          "name": "G#3",
          "midi": 56,
          "time": 90.04651162789693,
          "velocity": 0.49606299212598426,
          "duration": 0.09302325581393234
        },
        {
          "name": "A#4",
          "midi": 70,
          "time": 90.04651162789693,
          "velocity": 0.2992125984251969,
          "duration": 0.023255813953483084
        },
        {
          "name": "F#6",
          "midi": 90,
          "time": 90.04651162789693,
          "velocity": 0.09448818897637795,
          "duration": 0.04651162790696617
        },
        {
          "name": "F2",
          "midi": 41,
          "time": 90.08139534882716,
          "velocity": 0.1732283464566929,
          "duration": 0.04651162790696617
        },
        {
          "name": "B5",
          "midi": 83,
          "time": 90.11627906975738,
          "velocity": 0.2125984251968504,
          "duration": 0.1395348837208985
        },
        {
          "name": "F#6",
          "midi": 90,
          "time": 90.11627906975738,
          "velocity": 0.08661417322834646,
          "duration": 0.04651162790696617
        },
        {
          "name": "C#3",
          "midi": 49,
          "time": 90.13953488371087,
          "velocity": 0.6220472440944882,
          "duration": 0.011627906976741542
        },
        {
          "name": "F#4",
          "midi": 66,
          "time": 90.13953488371087,
          "velocity": 0.4094488188976378,
          "duration": 0.023255813953483084
        },
        {
          "name": "A#5",
          "midi": 82,
          "time": 90.13953488371087,
          "velocity": 0.31496062992125984,
          "duration": 0.04651162790696617
        },
        {
          "name": "A2",
          "midi": 45,
          "time": 90.15116279068761,
          "velocity": 0.7401574803149606,
          "duration": 0.011627906976741542
        },
        {
          "name": "A4",
          "midi": 69,
          "time": 90.15116279068761,
          "velocity": 0.30708661417322836,
          "duration": 0.034883720930224626
        },
        {
          "name": "E6",
          "midi": 88,
          "time": 90.15116279068761,
          "velocity": 0.23622047244094488,
          "duration": 0.034883720930224626
        },
        {
          "name": "F2",
          "midi": 41,
          "time": 90.16279069766435,
          "velocity": 0.7795275590551181,
          "duration": 0.011627906976741542
        },
        {
          "name": "E3",
          "midi": 52,
          "time": 90.16279069766435,
          "velocity": 0.5354330708661418,
          "duration": 0.011627906976741542
        },
        {
          "name": "C#5",
          "midi": 73,
          "time": 90.16279069766435,
          "velocity": 0.5196850393700787,
          "duration": 0.3604651162789878
        },
        {
          "name": "G6",
          "midi": 91,
          "time": 90.16279069766435,
          "velocity": 0.2204724409448819,
          "duration": 0.05813953488370771
        },
        {
          "name": "D2",
          "midi": 38,
          "time": 90.17441860464109,
          "velocity": 0.7795275590551181,
          "duration": 0.011627906976741542
        },
        {
          "name": "A#4",
          "midi": 70,
          "time": 90.17441860464109,
          "velocity": 0.14173228346456693,
          "duration": 0.034883720930224626
        },
        {
          "name": "E5",
          "midi": 76,
          "time": 90.17441860464109,
          "velocity": 0.2204724409448819,
          "duration": 0.11627906976741542
        },
        {
          "name": "D6",
          "midi": 86,
          "time": 90.17441860464109,
          "velocity": 0.16535433070866143,
          "duration": 0.10465116279067388
        },
        {
          "name": "C2",
          "midi": 36,
          "time": 90.18604651161783,
          "velocity": 0.7874015748031497,
          "duration": 0.011627906976741542
        },
        {
          "name": "D#4",
          "midi": 63,
          "time": 90.18604651161783,
          "velocity": 0.29133858267716534,
          "duration": 0.034883720930224626
        },
        {
          "name": "B1",
          "midi": 35,
          "time": 90.19767441859457,
          "velocity": 0.7795275590551181,
          "duration": 0.011627906976741542
        },
        {
          "name": "F#3",
          "midi": 54,
          "time": 90.19767441859457,
          "velocity": 0.48031496062992124,
          "duration": 0.034883720930224626
        },
        {
          "name": "A#1",
          "midi": 34,
          "time": 90.20930232557131,
          "velocity": 0.7716535433070866,
          "duration": 0.011627906976741542
        },
        {
          "name": "G#4",
          "midi": 68,
          "time": 90.20930232557131,
          "velocity": 0.25196850393700787,
          "duration": 0.04651162790696617
        },
        {
          "name": "C7",
          "midi": 96,
          "time": 90.20930232557131,
          "velocity": 0.08661417322834646,
          "duration": 0.05813953488370771
        },
        {
          "name": "A1",
          "midi": 33,
          "time": 90.22093023254806,
          "velocity": 0.7716535433070866,
          "duration": 0.011627906976741542
        },
        {
          "name": "A#5",
          "midi": 82,
          "time": 90.22093023254806,
          "velocity": 0.1968503937007874,
          "duration": 0.0813953488371908
        },
        {
          "name": "G#1",
          "midi": 32,
          "time": 90.2325581395248,
          "velocity": 0.7716535433070866,
          "duration": 0.034883720930224626
        },
        {
          "name": "F3",
          "midi": 53,
          "time": 90.2325581395248,
          "velocity": 0.5118110236220472,
          "duration": 0.023255813953483084
        },
        {
          "name": "C#6",
          "midi": 85,
          "time": 90.24418604650154,
          "velocity": 0.5590551181102362,
          "duration": 0.12790697674415696
        },
        {
          "name": "F6",
          "midi": 89,
          "time": 90.24418604650154,
          "velocity": 0.2755905511811024,
          "duration": 0.18604651162786467
        },
        {
          "name": "F#3",
          "midi": 54,
          "time": 90.25581395347828,
          "velocity": 0.4015748031496063,
          "duration": 0.034883720930224626
        },
        {
          "name": "B6",
          "midi": 95,
          "time": 90.25581395347828,
          "velocity": 0.1968503937007874,
          "duration": 0.15116279069764005
        },
        {
          "name": "G7",
          "midi": 103,
          "time": 90.25581395347828,
          "velocity": 0.15748031496062992,
          "duration": 0.034883720930224626
        },
        {
          "name": "G1",
          "midi": 31,
          "time": 90.26744186045502,
          "velocity": 0.7716535433070866,
          "duration": 0.034883720930224626
        },
        {
          "name": "G#4",
          "midi": 68,
          "time": 90.26744186045502,
          "velocity": 0.25196850393700787,
          "duration": 0.05813953488370771
        },
        {
          "name": "D#6",
          "midi": 87,
          "time": 90.26744186045502,
          "velocity": 0.1889763779527559,
          "duration": 0.034883720930224626
        },
        {
          "name": "F#7",
          "midi": 102,
          "time": 90.27906976743176,
          "velocity": 0.14173228346456693,
          "duration": 0.05813953488370771
        },
        {
          "name": "A#3",
          "midi": 58,
          "time": 90.2906976744085,
          "velocity": 0.11023622047244094,
          "duration": 0.034883720930224626
        },
        {
          "name": "F#4",
          "midi": 66,
          "time": 90.2906976744085,
          "velocity": 0.18110236220472442,
          "duration": 0.05813953488370771
        },
        {
          "name": "C6",
          "midi": 84,
          "time": 90.2906976744085,
          "velocity": 0.2047244094488189,
          "duration": 0.05813953488370771
        },
        {
          "name": "D6",
          "midi": 86,
          "time": 90.2906976744085,
          "velocity": 0.1889763779527559,
          "duration": 0.034883720930224626
        },
        {
          "name": "F#1",
          "midi": 30,
          "time": 90.30232558138525,
          "velocity": 0.7637795275590551,
          "duration": 0.12790697674415696
        },
        {
          "name": "F#5",
          "midi": 78,
          "time": 90.30232558138525,
          "velocity": 0.29133858267716534,
          "duration": 0.10465116279067388
        },
        {
          "name": "G6",
          "midi": 91,
          "time": 90.30232558138525,
          "velocity": 0.09448818897637795,
          "duration": 0.06976744186044925
        },
        {
          "name": "C#4",
          "midi": 61,
          "time": 90.31395348836199,
          "velocity": 0.25984251968503935,
          "duration": 0.05813953488370771
        },
        {
          "name": "A#4",
          "midi": 70,
          "time": 90.31395348836199,
          "velocity": 0.5275590551181102,
          "duration": 0.5813953488370771
        },
        {
          "name": "G#5",
          "midi": 80,
          "time": 90.31395348836199,
          "velocity": 0.3464566929133858,
          "duration": 0.48837209302314477
        },
        {
          "name": "E6",
          "midi": 88,
          "time": 90.31395348836199,
          "velocity": 0.13385826771653545,
          "duration": 0.06976744186044925
        },
        {
          "name": "G#4",
          "midi": 68,
          "time": 90.33720930231547,
          "velocity": 0.2440944881889764,
          "duration": 0.034883720930224626
        },
        {
          "name": "D#6",
          "midi": 87,
          "time": 90.33720930231547,
          "velocity": 0.14173228346456693,
          "duration": 0.034883720930224626
        },
        {
          "name": "A#3",
          "midi": 58,
          "time": 90.36046511626895,
          "velocity": 0.49606299212598426,
          "duration": 0.12790697674415696
        },
        {
          "name": "F5",
          "midi": 77,
          "time": 90.36046511626895,
          "velocity": 0.3228346456692913,
          "duration": 0.0813953488371908
        },
        {
          "name": "F#4",
          "midi": 66,
          "time": 90.3720930232457,
          "velocity": 0.3858267716535433,
          "duration": 0.10465116279067388
        },
        {
          "name": "C#3",
          "midi": 49,
          "time": 90.38372093022244,
          "velocity": 0.3700787401574803,
          "duration": 0.023255813953483084
        },
        {
          "name": "D7",
          "midi": 98,
          "time": 90.38372093022244,
          "velocity": 0.2283464566929134,
          "duration": 0.20930232558134776
        },
        {
          "name": "E7",
          "midi": 100,
          "time": 90.38372093022244,
          "velocity": 0.15748031496062992,
          "duration": 0.15116279069764005
        },
        {
          "name": "D#6",
          "midi": 87,
          "time": 90.39534883719918,
          "velocity": 0.1889763779527559,
          "duration": 0.11627906976741542
        },
        {
          "name": "G6",
          "midi": 91,
          "time": 90.39534883719918,
          "velocity": 0.11023622047244094,
          "duration": 0.034883720930224626
        },
        {
          "name": "F#7",
          "midi": 102,
          "time": 90.40697674417592,
          "velocity": 0.28346456692913385,
          "duration": 0.45348837209292014
        },
        {
          "name": "E6",
          "midi": 88,
          "time": 90.41860465115266,
          "velocity": 0.14960629921259844,
          "duration": 0.06976744186044925
        },
        {
          "name": "F1",
          "midi": 29,
          "time": 90.4302325581294,
          "velocity": 0.7086614173228346,
          "duration": 0.011627906976741542
        },
        {
          "name": "B6",
          "midi": 95,
          "time": 90.4302325581294,
          "velocity": 0.2125984251968504,
          "duration": 0.11627906976741542
        },
        {
          "name": "F#1",
          "midi": 30,
          "time": 90.44186046510615,
          "velocity": 0.7086614173228346,
          "duration": 0.3837209302324709
        },
        {
          "name": "F6",
          "midi": 89,
          "time": 90.44186046510615,
          "velocity": 0.3937007874015748,
          "duration": 0.3604651162789878
        },
        {
          "name": "D#4",
          "midi": 63,
          "time": 90.46511627905963,
          "velocity": 0.29133858267716534,
          "duration": 0.023255813953483084
        },
        {
          "name": "B5",
          "midi": 83,
          "time": 90.46511627905963,
          "velocity": 0.2204724409448819,
          "duration": 0.034883720930224626
        },
        {
          "name": "A6",
          "midi": 93,
          "time": 90.46511627905963,
          "velocity": 0.2677165354330709,
          "duration": 0.0813953488371908
        },
        {
          "name": "C7",
          "midi": 96,
          "time": 90.46511627905963,
          "velocity": 0.2283464566929134,
          "duration": 0.05813953488370771
        },
        {
          "name": "C#4",
          "midi": 61,
          "time": 90.48837209301311,
          "velocity": 0.3464566929133858,
          "duration": 0.06976744186044925
        },
        {
          "name": "F#4",
          "midi": 66,
          "time": 90.48837209301311,
          "velocity": 0.5669291338582677,
          "duration": 0.17441860465112313
        },
        {
          "name": "F5",
          "midi": 77,
          "time": 90.48837209301311,
          "velocity": 0.31496062992125984,
          "duration": 0.04651162790696617
        },
        {
          "name": "A#3",
          "midi": 58,
          "time": 90.5116279069666,
          "velocity": 0.3779527559055118,
          "duration": 0.10465116279067388
        },
        {
          "name": "E6",
          "midi": 88,
          "time": 90.5116279069666,
          "velocity": 0.1889763779527559,
          "duration": 0.04651162790696617
        },
        {
          "name": "G6",
          "midi": 91,
          "time": 90.5116279069666,
          "velocity": 0.25984251968503935,
          "duration": 0.0813953488371908
        },
        {
          "name": "D#6",
          "midi": 87,
          "time": 90.52325581394334,
          "velocity": 0.1889763779527559,
          "duration": 0.20930232558134776
        },
        {
          "name": "C#5",
          "midi": 73,
          "time": 90.53488372092008,
          "velocity": 0.5748031496062992,
          "duration": 0.5232558139533694
        },
        {
          "name": "C7",
          "midi": 96,
          "time": 90.54651162789682,
          "velocity": 0.3228346456692913,
          "duration": 0.19767441860460622
        },
        {
          "name": "B5",
          "midi": 83,
          "time": 90.55813953487356,
          "velocity": 0.16535433070866143,
          "duration": 0.034883720930224626
        },
        {
          "name": "A6",
          "midi": 93,
          "time": 90.55813953487356,
          "velocity": 0.25984251968503935,
          "duration": 0.10465116279067388
        },
        {
          "name": "D4",
          "midi": 62,
          "time": 90.5697674418503,
          "velocity": 0.2440944881889764,
          "duration": 0.023255813953483084
        },
        {
          "name": "B6",
          "midi": 95,
          "time": 90.5697674418503,
          "velocity": 0.1889763779527559,
          "duration": 0.10465116279067388
        },
        {
          "name": "E7",
          "midi": 100,
          "time": 90.5697674418503,
          "velocity": 0.1889763779527559,
          "duration": 0.06976744186044925
        },
        {
          "name": "E5",
          "midi": 76,
          "time": 90.58139534882704,
          "velocity": 0.23622047244094488,
          "duration": 0.05813953488370771
        },
        {
          "name": "F#3",
          "midi": 54,
          "time": 90.59302325580379,
          "velocity": 0.3228346456692913,
          "duration": 0.04651162790696617
        },
        {
          "name": "C#4",
          "midi": 61,
          "time": 90.59302325580379,
          "velocity": 0.2992125984251969,
          "duration": 0.04651162790696617
        },
        {
          "name": "B5",
          "midi": 83,
          "time": 90.60465116278053,
          "velocity": 0.2440944881889764,
          "duration": 0.04651162790696617
        },
        {
          "name": "D7",
          "midi": 98,
          "time": 90.61627906975727,
          "velocity": 0.2125984251968504,
          "duration": 0.11627906976741542
        },
        {
          "name": "A#3",
          "midi": 58,
          "time": 90.62790697673401,
          "velocity": 0.25196850393700787,
          "duration": 0.05813953488370771
        },
        {
          "name": "C#3",
          "midi": 49,
          "time": 90.63953488371075,
          "velocity": 0.4094488188976378,
          "duration": 0.15116279069764005
        },
        {
          "name": "G#4",
          "midi": 68,
          "time": 90.6511627906875,
          "velocity": 0.25984251968503935,
          "duration": 0.023255813953483084
        },
        {
          "name": "F#4",
          "midi": 66,
          "time": 90.67441860464098,
          "velocity": 0.2677165354330709,
          "duration": 0.04651162790696617
        },
        {
          "name": "D#7",
          "midi": 99,
          "time": 90.67441860464098,
          "velocity": 0.5354330708661418,
          "duration": 0.9418604651160649
        },
        {
          "name": "E7",
          "midi": 100,
          "time": 90.68604651161772,
          "velocity": 0.2047244094488189,
          "duration": 0.04651162790696617
        },
        {
          "name": "C#6",
          "midi": 85,
          "time": 90.69767441859446,
          "velocity": 0.5748031496062992,
          "duration": 0.05813953488370771
        },
        {
          "name": "A6",
          "midi": 93,
          "time": 90.7093023255712,
          "velocity": 0.4330708661417323,
          "duration": 0.09302325581393234
        },
        {
          "name": "E4",
          "midi": 64,
          "time": 90.72093023254794,
          "velocity": 0.1732283464566929,
          "duration": 0.05813953488370771
        },
        {
          "name": "F#4",
          "midi": 66,
          "time": 90.75581395347817,
          "velocity": 0.25984251968503935,
          "duration": 0.034883720930224626
        },
        {
          "name": "D6",
          "midi": 86,
          "time": 90.75581395347817,
          "velocity": 0.41732283464566927,
          "duration": 0.034883720930224626
        },
        {
          "name": "B5",
          "midi": 83,
          "time": 90.77906976743165,
          "velocity": 0.36220472440944884,
          "duration": 0.12790697674415696
        },
        {
          "name": "E6",
          "midi": 88,
          "time": 90.77906976743165,
          "velocity": 0.29133858267716534,
          "duration": 0.05813953488370771
        },
        {
          "name": "C7",
          "midi": 96,
          "time": 90.77906976743165,
          "velocity": 0.18110236220472442,
          "duration": 0.06976744186044925
        },
        {
          "name": "D#5",
          "midi": 75,
          "time": 90.79069767440839,
          "velocity": 0.23622047244094488,
          "duration": 0.034883720930224626
        },
        {
          "name": "D7",
          "midi": 98,
          "time": 90.79069767440839,
          "velocity": 0.31496062992125984,
          "duration": 0.12790697674415696
        },
        {
          "name": "G7",
          "midi": 103,
          "time": 90.79069767440839,
          "velocity": 0.16535433070866143,
          "duration": 0.0813953488371908
        },
        {
          "name": "A#3",
          "midi": 58,
          "time": 90.80232558138513,
          "velocity": 0.2440944881889764,
          "duration": 0.023255813953483084
        },
        {
          "name": "F5",
          "midi": 77,
          "time": 90.80232558138513,
          "velocity": 0.29133858267716534,
          "duration": 0.05813953488370771
        },
        {
          "name": "A5",
          "midi": 81,
          "time": 90.80232558138513,
          "velocity": 0.4645669291338583,
          "duration": 0.034883720930224626
        },
        {
          "name": "D6",
          "midi": 86,
          "time": 90.80232558138513,
          "velocity": 0.33070866141732286,
          "duration": 0.023255813953483084
        },
        {
          "name": "G6",
          "midi": 91,
          "time": 90.80232558138513,
          "velocity": 0.3228346456692913,
          "duration": 0.05813953488370771
        },
        {
          "name": "D#6",
          "midi": 87,
          "time": 90.81395348836188,
          "velocity": 0.5275590551181102,
          "duration": 0.813953488371908
        },
        {
          "name": "F#4",
          "midi": 66,
          "time": 90.83720930231536,
          "velocity": 0.1732283464566929,
          "duration": 0.034883720930224626
        },
        {
          "name": "G#5",
          "midi": 80,
          "time": 90.83720930231536,
          "velocity": 0.23622047244094488,
          "duration": 0.11627906976741542
        },
        {
          "name": "C6",
          "midi": 84,
          "time": 90.8488372092921,
          "velocity": 0.2125984251968504,
          "duration": 0.05813953488370771
        },
        {
          "name": "E6",
          "midi": 88,
          "time": 90.8488372092921,
          "velocity": 0.1889763779527559,
          "duration": 0.10465116279067388
        },
        {
          "name": "F#6",
          "midi": 90,
          "time": 90.86046511626884,
          "velocity": 0.2283464566929134,
          "duration": 0.05813953488370771
        },
        {
          "name": "G7",
          "midi": 103,
          "time": 90.88372093022232,
          "velocity": 0.15748031496062992,
          "duration": 0.05813953488370771
        },
        {
          "name": "F#2",
          "midi": 42,
          "time": 90.89534883719907,
          "velocity": 0.16535433070866143,
          "duration": 0.1627906976743816
        },
        {
          "name": "F#3",
          "midi": 54,
          "time": 90.90697674417581,
          "velocity": 0.23622047244094488,
          "duration": 0.20930232558134776
        },
        {
          "name": "F6",
          "midi": 89,
          "time": 90.91860465115255,
          "velocity": 0.2125984251968504,
          "duration": 0.12790697674415696
        },
        {
          "name": "C#4",
          "midi": 61,
          "time": 90.93023255812929,
          "velocity": 0.11023622047244094,
          "duration": 0.0813953488371908
        },
        {
          "name": "A5",
          "midi": 81,
          "time": 90.93023255812929,
          "velocity": 0.25196850393700787,
          "duration": 0.034883720930224626
        },
        {
          "name": "F#6",
          "midi": 90,
          "time": 90.94186046510603,
          "velocity": 0.15748031496062992,
          "duration": 0.04651162790696617
        },
        {
          "name": "D7",
          "midi": 98,
          "time": 90.94186046510603,
          "velocity": 0.2125984251968504,
          "duration": 0.6162790697673017
        },
        {
          "name": "G#4",
          "midi": 68,
          "time": 90.95348837208277,
          "velocity": 0.3858267716535433,
          "duration": 0.023255813953483084
        },
        {
          "name": "E7",
          "midi": 100,
          "time": 90.95348837208277,
          "velocity": 0.11023622047244094,
          "duration": 0.06976744186044925
        },
        {
          "name": "G5",
          "midi": 79,
          "time": 90.96511627905952,
          "velocity": 0.2204724409448819,
          "duration": 0.034883720930224626
        },
        {
          "name": "A4",
          "midi": 69,
          "time": 90.97674418603626,
          "velocity": 0.36220472440944884,
          "duration": 0.04651162790696617
        },
        {
          "name": "C7",
          "midi": 96,
          "time": 90.97674418603626,
          "velocity": 0.07874015748031496,
          "duration": 0.06976744186044925
        },
        {
          "name": "F#7",
          "midi": 102,
          "time": 90.97674418603626,
          "velocity": 0.15748031496062992,
          "duration": 0.06976744186044925
        },
        {
          "name": "F#4",
          "midi": 66,
          "time": 90.988372093013,
          "velocity": 0.2440944881889764,
          "duration": 0.023255813953483084
        },
        {
          "name": "G6",
          "midi": 91,
          "time": 90.988372093013,
          "velocity": 0.44881889763779526,
          "duration": 0.26744186046505547
        },
        {
          "name": "F#5",
          "midi": 78,
          "time": 90.99999999998974,
          "velocity": 0.4094488188976378,
          "duration": 0.1395348837208985
        },
        {
          "name": "C6",
          "midi": 84,
          "time": 90.99999999998974,
          "velocity": 0.2755905511811024,
          "duration": 0.023255813953483084
        },
        {
          "name": "A6",
          "midi": 93,
          "time": 90.99999999998974,
          "velocity": 0.2677165354330709,
          "duration": 0.034883720930224626
        },
        {
          "name": "A#6",
          "midi": 94,
          "time": 90.99999999998974,
          "velocity": 0.4094488188976378,
          "duration": 0.3255813953487632
        },
        {
          "name": "D#5",
          "midi": 75,
          "time": 91.01162790696648,
          "velocity": 0.5354330708661418,
          "duration": 0.17441860465112313
        },
        {
          "name": "F#4",
          "midi": 66,
          "time": 91.02325581394322,
          "velocity": 0.5590551181102362,
          "duration": 0.4418604651161786
        },
        {
          "name": "A#4",
          "midi": 70,
          "time": 91.02325581394322,
          "velocity": 0.41732283464566927,
          "duration": 0.4186046511626955
        },
        {
          "name": "C#4",
          "midi": 61,
          "time": 91.03488372091996,
          "velocity": 0.2125984251968504,
          "duration": 0.0813953488371908
        },
        {
          "name": "C#5",
          "midi": 73,
          "time": 91.08139534882693,
          "velocity": 0.41732283464566927,
          "duration": 0.1627906976743816
        },
        {
          "name": "F6",
          "midi": 89,
          "time": 91.08139534882693,
          "velocity": 0.13385826771653545,
          "duration": 0.034883720930224626
        },
        {
          "name": "E6",
          "midi": 88,
          "time": 91.09302325580367,
          "velocity": 0.2440944881889764,
          "duration": 0.06976744186044925
        },
        {
          "name": "G#5",
          "midi": 80,
          "time": 91.11627906975716,
          "velocity": 0.4094488188976378,
          "duration": 0.26744186046505547
        },
        {
          "name": "B5",
          "midi": 83,
          "time": 91.11627906975716,
          "velocity": 0.23622047244094488,
          "duration": 0.023255813953483084
        },
        {
          "name": "A#3",
          "midi": 58,
          "time": 91.1279069767339,
          "velocity": 0.4881889763779528,
          "duration": 0.15116279069764005
        },
        {
          "name": "A6",
          "midi": 93,
          "time": 91.1279069767339,
          "velocity": 0.2125984251968504,
          "duration": 0.12790697674415696
        },
        {
          "name": "C7",
          "midi": 96,
          "time": 91.1279069767339,
          "velocity": 0.48031496062992124,
          "duration": 1.6395348837205574
        },
        {
          "name": "D#3",
          "midi": 51,
          "time": 91.13953488371064,
          "velocity": 0.12598425196850394,
          "duration": 0.034883720930224626
        },
        {
          "name": "F5",
          "midi": 77,
          "time": 91.13953488371064,
          "velocity": 0.44881889763779526,
          "duration": 0.034883720930224626
        },
        {
          "name": "C6",
          "midi": 84,
          "time": 91.15116279068738,
          "velocity": 0.23622047244094488,
          "duration": 0.034883720930224626
        },
        {
          "name": "F6",
          "midi": 89,
          "time": 91.15116279068738,
          "velocity": 0.49606299212598426,
          "duration": 0.7674418604649418
        },
        {
          "name": "E7",
          "midi": 100,
          "time": 91.16279069766412,
          "velocity": 0.1889763779527559,
          "duration": 0.05813953488370771
        },
        {
          "name": "F5",
          "midi": 77,
          "time": 91.1860465116176,
          "velocity": 0.7244094488188977,
          "duration": 0.9186046511625818
        },
        {
          "name": "F#6",
          "midi": 90,
          "time": 91.19767441859435,
          "velocity": 0.25196850393700787,
          "duration": 0.2209302325580893
        },
        {
          "name": "F#2",
          "midi": 42,
          "time": 91.20930232557109,
          "velocity": 0.2125984251968504,
          "duration": 0.0813953488371908
        },
        {
          "name": "F#3",
          "midi": 54,
          "time": 91.22093023254783,
          "velocity": 0.25984251968503935,
          "duration": 0.023255813953483084
        },
        {
          "name": "D6",
          "midi": 86,
          "time": 91.23255813952457,
          "velocity": 0.11023622047244094,
          "duration": 0.034883720930224626
        },
        {
          "name": "B6",
          "midi": 95,
          "time": 91.23255813952457,
          "velocity": 0.13385826771653545,
          "duration": 0.04651162790696617
        },
        {
          "name": "C#4",
          "midi": 61,
          "time": 91.25581395347805,
          "velocity": 0.2677165354330709,
          "duration": 0.06976744186044925
        },
        {
          "name": "C6",
          "midi": 84,
          "time": 91.25581395347805,
          "velocity": 0.14960629921259844,
          "duration": 0.034883720930224626
        },
        {
          "name": "F#3",
          "midi": 54,
          "time": 91.27906976743154,
          "velocity": 0.23622047244094488,
          "duration": 0.05813953488370771
        },
        {
          "name": "G6",
          "midi": 91,
          "time": 91.29069767440828,
          "velocity": 0.14960629921259844,
          "duration": 0.04651162790696617
        },
        {
          "name": "C6",
          "midi": 84,
          "time": 91.30232558138502,
          "velocity": 0.31496062992125984,
          "duration": 0.023255813953483084
        },
        {
          "name": "D#5",
          "midi": 75,
          "time": 91.31395348836176,
          "velocity": 0.25196850393700787,
          "duration": 0.034883720930224626
        },
        {
          "name": "C#6",
          "midi": 85,
          "time": 91.31395348836176,
          "velocity": 0.4015748031496063,
          "duration": 0.2209302325580893
        },
        {
          "name": "C#5",
          "midi": 73,
          "time": 91.3255813953385,
          "velocity": 0.30708661417322836,
          "duration": 0.11627906976741542
        },
        {
          "name": "A6",
          "midi": 93,
          "time": 91.3255813953385,
          "velocity": 0.11023622047244094,
          "duration": 0.04651162790696617
        },
        {
          "name": "A#3",
          "midi": 58,
          "time": 91.33720930231524,
          "velocity": 0.48031496062992124,
          "duration": 0.10465116279067388
        },
        {
          "name": "D#5",
          "midi": 75,
          "time": 91.36046511626873,
          "velocity": 0.29133858267716534,
          "duration": 0.10465116279067388
        },
        {
          "name": "F#3",
          "midi": 54,
          "time": 91.38372093022221,
          "velocity": 0.31496062992125984,
          "duration": 0.05813953488370771
        },
        {
          "name": "G#6",
          "midi": 92,
          "time": 91.39534883719895,
          "velocity": 0.07086614173228346,
          "duration": 0.034883720930224626
        },
        {
          "name": "F#2",
          "midi": 42,
          "time": 91.4069767441757,
          "velocity": 0.14173228346456693,
          "duration": 0.034883720930224626
        },
        {
          "name": "F#7",
          "midi": 102,
          "time": 91.41860465115244,
          "velocity": 0.14173228346456693,
          "duration": 0.06976744186044925
        },
        {
          "name": "G3",
          "midi": 55,
          "time": 91.44186046510592,
          "velocity": 0.5433070866141733,
          "duration": 0.011627906976741542
        },
        {
          "name": "A4",
          "midi": 69,
          "time": 91.44186046510592,
          "velocity": 0.31496062992125984,
          "duration": 0.023255813953483084
        },
        {
          "name": "C5",
          "midi": 72,
          "time": 91.44186046510592,
          "velocity": 0.23622047244094488,
          "duration": 0.034883720930224626
        },
        {
          "name": "B5",
          "midi": 83,
          "time": 91.44186046510592,
          "velocity": 0.14173228346456693,
          "duration": 0.034883720930224626
        },
        {
          "name": "A2",
          "midi": 45,
          "time": 91.45348837208266,
          "velocity": 0.6929133858267716,
          "duration": 0.011627906976741542
        },
        {
          "name": "F#6",
          "midi": 90,
          "time": 91.45348837208266,
          "velocity": 0.25196850393700787,
          "duration": 0.05813953488370771
        },
        {
          "name": "G7",
          "midi": 103,
          "time": 91.45348837208266,
          "velocity": 0.12598425196850394,
          "duration": 0.12790697674415696
        },
        {
          "name": "F#2",
          "midi": 42,
          "time": 91.4651162790594,
          "velocity": 0.7559055118110236,
          "duration": 0.011627906976741542
        },
        {
          "name": "F4",
          "midi": 65,
          "time": 91.4651162790594,
          "velocity": 0.2204724409448819,
          "duration": 0.034883720930224626
        },
        {
          "name": "A5",
          "midi": 81,
          "time": 91.4651162790594,
          "velocity": 0.1732283464566929,
          "duration": 0.04651162790696617
        },
        {
          "name": "D2",
          "midi": 38,
          "time": 91.47674418603614,
          "velocity": 0.7637795275590551,
          "duration": 0.011627906976741542
        },
        {
          "name": "D#5",
          "midi": 75,
          "time": 91.47674418603614,
          "velocity": 0.2283464566929134,
          "duration": 0.15116279069764005
        },
        {
          "name": "G6",
          "midi": 91,
          "time": 91.47674418603614,
          "velocity": 0.08661417322834646,
          "duration": 0.034883720930224626
        },
        {
          "name": "C#2",
          "midi": 37,
          "time": 91.48837209301288,
          "velocity": 0.8031496062992126,
          "duration": 0.011627906976741542
        },
        {
          "name": "A#4",
          "midi": 70,
          "time": 91.48837209301288,
          "velocity": 0.10236220472440945,
          "duration": 0.04651162790696617
        },
        {
          "name": "B5",
          "midi": 83,
          "time": 91.48837209301288,
          "velocity": 0.16535433070866143,
          "duration": 0.034883720930224626
        },
        {
          "name": "B1",
          "midi": 35,
          "time": 91.49999999998963,
          "velocity": 0.7952755905511811,
          "duration": 0.011627906976741542
        },
        {
          "name": "F3",
          "midi": 53,
          "time": 91.49999999998963,
          "velocity": 0.36220472440944884,
          "duration": 0.023255813953483084
        },
        {
          "name": "A#5",
          "midi": 82,
          "time": 91.49999999998963,
          "velocity": 0.18110236220472442,
          "duration": 0.06976744186044925
        },
        {
          "name": "G#6",
          "midi": 92,
          "time": 91.49999999998963,
          "velocity": 0.07086614173228346,
          "duration": 0.034883720930224626
        },
        {
          "name": "A#1",
          "midi": 34,
          "time": 91.51162790696637,
          "velocity": 0.7795275590551181,
          "duration": 0.011627906976741542
        },
        {
          "name": "F4",
          "midi": 65,
          "time": 91.51162790696637,
          "velocity": 0.4094488188976378,
          "duration": 0.26744186046505547
        },
        {
          "name": "A1",
          "midi": 33,
          "time": 91.52325581394311,
          "velocity": 0.7637795275590551,
          "duration": 0.011627906976741542
        },
        {
          "name": "C#4",
          "midi": 61,
          "time": 91.52325581394311,
          "velocity": 0.3858267716535433,
          "duration": 0.37209302325572935
        },
        {
          "name": "G#1",
          "midi": 32,
          "time": 91.53488372091985,
          "velocity": 0.7559055118110236,
          "duration": 0.034883720930224626
        },
        {
          "name": "G3",
          "midi": 55,
          "time": 91.53488372091985,
          "velocity": 0.29133858267716534,
          "duration": 0.023255813953483084
        },
        {
          "name": "C#6",
          "midi": 85,
          "time": 91.54651162789659,
          "velocity": 0.2125984251968504,
          "duration": 0.06976744186044925
        },
        {
          "name": "E7",
          "midi": 100,
          "time": 91.54651162789659,
          "velocity": 0.16535433070866143,
          "duration": 0.12790697674415696
        },
        {
          "name": "D#3",
          "midi": 51,
          "time": 91.55813953487333,
          "velocity": 0.2283464566929134,
          "duration": 0.023255813953483084
        },
        {
          "name": "G#3",
          "midi": 56,
          "time": 91.55813953487333,
          "velocity": 0.3228346456692913,
          "duration": 0.023255813953483084
        },
        {
          "name": "G#4",
          "midi": 68,
          "time": 91.55813953487333,
          "velocity": 0.4251968503937008,
          "duration": 0.24418604651157239
        },
        {
          "name": "G6",
          "midi": 91,
          "time": 91.55813953487333,
          "velocity": 0.07874015748031496,
          "duration": 0.04651162790696617
        },
        {
          "name": "G#6",
          "midi": 92,
          "time": 91.55813953487333,
          "velocity": 0.33070866141732286,
          "duration": 0.279069767441797
        },
        {
          "name": "G1",
          "midi": 31,
          "time": 91.56976744185008,
          "velocity": 0.7480314960629921,
          "duration": 0.1395348837208985
        },
        {
          "name": "D#3",
          "midi": 51,
          "time": 91.6046511627803,
          "velocity": 0.33070866141732286,
          "duration": 0.0813953488371908
        },
        {
          "name": "C6",
          "midi": 84,
          "time": 91.61627906975704,
          "velocity": 0.15748031496062992,
          "duration": 0.034883720930224626
        },
        {
          "name": "F#7",
          "midi": 102,
          "time": 91.61627906975704,
          "velocity": 0.1732283464566929,
          "duration": 0.0813953488371908
        },
        {
          "name": "E6",
          "midi": 88,
          "time": 91.62790697673378,
          "velocity": 0.18110236220472442,
          "duration": 0.06976744186044925
        },
        {
          "name": "G5",
          "midi": 79,
          "time": 91.63953488371052,
          "velocity": 0.2755905511811024,
          "duration": 0.023255813953483084
        },
        {
          "name": "B5",
          "midi": 83,
          "time": 91.63953488371052,
          "velocity": 0.16535433070866143,
          "duration": 0.04651162790696617
        },
        {
          "name": "D7",
          "midi": 98,
          "time": 91.63953488371052,
          "velocity": 0.2047244094488189,
          "duration": 0.05813953488370771
        },
        {
          "name": "D#7",
          "midi": 99,
          "time": 91.63953488371052,
          "velocity": 0.29133858267716534,
          "duration": 1.093023255813705
        },
        {
          "name": "G7",
          "midi": 103,
          "time": 91.63953488371052,
          "velocity": 0.07086614173228346,
          "duration": 0.06976744186044925
        },
        {
          "name": "D#5",
          "midi": 75,
          "time": 91.65116279068727,
          "velocity": 0.25984251968503935,
          "duration": 0.023255813953483084
        },
        {
          "name": "A6",
          "midi": 93,
          "time": 91.65116279068727,
          "velocity": 0.25984251968503935,
          "duration": 0.2558139534883139
        },
        {
          "name": "G#5",
          "midi": 80,
          "time": 91.66279069766401,
          "velocity": 0.4645669291338583,
          "duration": 0.20930232558134776
        },
        {
          "name": "A#5",
          "midi": 82,
          "time": 91.66279069766401,
          "velocity": 0.11811023622047244,
          "duration": 0.04651162790696617
        },
        {
          "name": "G6",
          "midi": 91,
          "time": 91.66279069766401,
          "velocity": 0.12598425196850394,
          "duration": 0.05813953488370771
        },
        {
          "name": "A#6",
          "midi": 94,
          "time": 91.66279069766401,
          "velocity": 0.14960629921259844,
          "duration": 0.05813953488370771
        },
        {
          "name": "D5",
          "midi": 74,
          "time": 91.67441860464075,
          "velocity": 0.2440944881889764,
          "duration": 0.023255813953483084
        },
        {
          "name": "C6",
          "midi": 84,
          "time": 91.67441860464075,
          "velocity": 0.28346456692913385,
          "duration": 0.20930232558134776
        },
        {
          "name": "D#6",
          "midi": 87,
          "time": 91.67441860464075,
          "velocity": 0.44881889763779526,
          "duration": 0.24418604651157239
        },
        {
          "name": "C5",
          "midi": 72,
          "time": 91.68604651161749,
          "velocity": 0.1968503937007874,
          "duration": 0.034883720930224626
        },
        {
          "name": "D#3",
          "midi": 51,
          "time": 91.69767441859423,
          "velocity": 0.3779527559055118,
          "duration": 0.406976744185954
        },
        {
          "name": "E7",
          "midi": 100,
          "time": 91.69767441859423,
          "velocity": 0.14960629921259844,
          "duration": 0.1627906976743816
        },
        {
          "name": "G#1",
          "midi": 32,
          "time": 91.70930232557097,
          "velocity": 0.6929133858267716,
          "duration": 0.011627906976741542
        },
        {
          "name": "A1",
          "midi": 33,
          "time": 91.72093023254772,
          "velocity": 0.6692913385826772,
          "duration": 0.034883720930224626
        },
        {
          "name": "G#3",
          "midi": 56,
          "time": 91.72093023254772,
          "velocity": 0.3228346456692913,
          "duration": 0.09302325581393234
        },
        {
          "name": "B6",
          "midi": 95,
          "time": 91.72093023254772,
          "velocity": 0.10236220472440945,
          "duration": 0.05813953488370771
        },
        {
          "name": "C#5",
          "midi": 73,
          "time": 91.73255813952446,
          "velocity": 0.4015748031496063,
          "duration": 0.09302325581393234
        },
        {
          "name": "F#7",
          "midi": 102,
          "time": 91.73255813952446,
          "velocity": 0.28346456692913385,
          "duration": 0.3023255813952801
        },
        {
          "name": "A#5",
          "midi": 82,
          "time": 91.7441860465012,
          "velocity": 0.28346456692913385,
          "duration": 0.10465116279067388
        },
        {
          "name": "G7",
          "midi": 103,
          "time": 91.7441860465012,
          "velocity": 0.1732283464566929,
          "duration": 0.18604651162786467
        },
        {
          "name": "G#1",
          "midi": 32,
          "time": 91.75581395347794,
          "velocity": 0.6929133858267716,
          "duration": 0.3604651162789878
        },
        {
          "name": "F#4",
          "midi": 66,
          "time": 91.77906976743142,
          "velocity": 0.36220472440944884,
          "duration": 0.034883720930224626
        },
        {
          "name": "D#5",
          "midi": 75,
          "time": 91.79069767440816,
          "velocity": 0.2992125984251969,
          "duration": 0.034883720930224626
        },
        {
          "name": "B6",
          "midi": 95,
          "time": 91.79069767440816,
          "velocity": 0.10236220472440945,
          "duration": 0.034883720930224626
        },
        {
          "name": "A4",
          "midi": 69,
          "time": 91.8023255813849,
          "velocity": 0.3464566929133858,
          "duration": 0.023255813953483084
        },
        {
          "name": "G6",
          "midi": 91,
          "time": 91.8023255813849,
          "velocity": 0.4251968503937008,
          "duration": 0.12790697674415696
        },
        {
          "name": "D7",
          "midi": 98,
          "time": 91.8023255813849,
          "velocity": 0.23622047244094488,
          "duration": 0.0813953488371908
        },
        {
          "name": "F4",
          "midi": 65,
          "time": 91.81395348836165,
          "velocity": 0.3779527559055118,
          "duration": 0.06976744186044925
        },
        {
          "name": "E6",
          "midi": 88,
          "time": 91.81395348836165,
          "velocity": 0.3228346456692913,
          "duration": 0.05813953488370771
        },
        {
          "name": "F#6",
          "midi": 90,
          "time": 91.81395348836165,
          "velocity": 0.2992125984251969,
          "duration": 0.1395348837208985
        },
        {
          "name": "G#3",
          "midi": 56,
          "time": 91.82558139533839,
          "velocity": 0.31496062992125984,
          "duration": 0.023255813953483084
        },
        {
          "name": "G#4",
          "midi": 68,
          "time": 91.82558139533839,
          "velocity": 0.4566929133858268,
          "duration": 0.279069767441797
        },
        {
          "name": "D5",
          "midi": 74,
          "time": 91.82558139533839,
          "velocity": 0.3779527559055118,
          "duration": 0.09302325581393234
        },
        {
          "name": "G#3",
          "midi": 56,
          "time": 91.86046511626861,
          "velocity": 0.33858267716535434,
          "duration": 0.06976744186044925
        },
        {
          "name": "A5",
          "midi": 81,
          "time": 91.87209302324536,
          "velocity": 0.2047244094488189,
          "duration": 0.04651162790696617
        },
        {
          "name": "B6",
          "midi": 95,
          "time": 91.87209302324536,
          "velocity": 0.1889763779527559,
          "duration": 0.05813953488370771
        },
        {
          "name": "A#6",
          "midi": 94,
          "time": 91.89534883719884,
          "velocity": 0.11811023622047244,
          "duration": 0.11627906976741542
        },
        {
          "name": "F4",
          "midi": 65,
          "time": 91.90697674417558,
          "velocity": 0.25984251968503935,
          "duration": 0.0813953488371908
        },
        {
          "name": "C#5",
          "midi": 73,
          "time": 91.90697674417558,
          "velocity": 0.31496062992125984,
          "duration": 0.06976744186044925
        },
        {
          "name": "G5",
          "midi": 79,
          "time": 91.90697674417558,
          "velocity": 0.2283464566929134,
          "duration": 0.04651162790696617
        },
        {
          "name": "E6",
          "midi": 88,
          "time": 91.90697674417558,
          "velocity": 0.3543307086614173,
          "duration": 0.04651162790696617
        },
        {
          "name": "D#5",
          "midi": 75,
          "time": 91.91860465115232,
          "velocity": 0.3700787401574803,
          "duration": 0.04651162790696617
        },
        {
          "name": "B5",
          "midi": 83,
          "time": 91.93023255812906,
          "velocity": 0.10236220472440945,
          "duration": 0.034883720930224626
        },
        {
          "name": "D#6",
          "midi": 87,
          "time": 91.93023255812906,
          "velocity": 0.3700787401574803,
          "duration": 0.26744186046505547
        },
        {
          "name": "A6",
          "midi": 93,
          "time": 91.93023255812906,
          "velocity": 0.16535433070866143,
          "duration": 0.06976744186044925
        },
        {
          "name": "G#3",
          "midi": 56,
          "time": 91.9418604651058,
          "velocity": 0.25984251968503935,
          "duration": 0.023255813953483084
        },
        {
          "name": "C6",
          "midi": 84,
          "time": 91.9418604651058,
          "velocity": 0.29133858267716534,
          "duration": 0.18604651162786467
        },
        {
          "name": "A#5",
          "midi": 82,
          "time": 91.95348837208255,
          "velocity": 0.2440944881889764,
          "duration": 0.15116279069764005
        },
        {
          "name": "G6",
          "midi": 91,
          "time": 91.95348837208255,
          "velocity": 0.1968503937007874,
          "duration": 0.05813953488370771
        },
        {
          "name": "G#6",
          "midi": 92,
          "time": 91.95348837208255,
          "velocity": 0.5039370078740157,
          "duration": 0.23255813953483084
        },
        {
          "name": "E7",
          "midi": 100,
          "time": 91.96511627905929,
          "velocity": 0.1889763779527559,
          "duration": 0.05813953488370771
        },
        {
          "name": "D#5",
          "midi": 75,
          "time": 91.97674418603603,
          "velocity": 0.33070866141732286,
          "duration": 0.09302325581393234
        },
        {
          "name": "G5",
          "midi": 79,
          "time": 91.97674418603603,
          "velocity": 0.2755905511811024,
          "duration": 0.023255813953483084
        },
        {
          "name": "D6",
          "midi": 86,
          "time": 91.97674418603603,
          "velocity": 0.2283464566929134,
          "duration": 0.034883720930224626
        },
        {
          "name": "F#6",
          "midi": 90,
          "time": 91.97674418603603,
          "velocity": 0.25196850393700787,
          "duration": 0.05813953488370771
        },
        {
          "name": "G#3",
          "midi": 56,
          "time": 91.98837209301277,
          "velocity": 0.2755905511811024,
          "duration": 0.023255813953483084
        },
        {
          "name": "E4",
          "midi": 64,
          "time": 91.98837209301277,
          "velocity": 0.4015748031496063,
          "duration": 0.023255813953483084
        },
        {
          "name": "C#5",
          "midi": 73,
          "time": 91.98837209301277,
          "velocity": 0.31496062992125984,
          "duration": 0.0813953488371908
        },
        {
          "name": "G#5",
          "midi": 80,
          "time": 91.98837209301277,
          "velocity": 0.5039370078740157,
          "duration": 0.24418604651157239
        },
        {
          "name": "C#4",
          "midi": 61,
          "time": 92.01162790696625,
          "velocity": 0.29133858267716534,
          "duration": 0.09302325581393234
        },
        {
          "name": "F4",
          "midi": 65,
          "time": 92.01162790696625,
          "velocity": 0.4881889763779528,
          "duration": 0.09302325581393234
        },
        {
          "name": "B6",
          "midi": 95,
          "time": 92.023255813943,
          "velocity": 0.1732283464566929,
          "duration": 0.05813953488370771
        },
        {
          "name": "G7",
          "midi": 103,
          "time": 92.023255813943,
          "velocity": 0.11023622047244094,
          "duration": 0.05813953488370771
        },
        {
          "name": "G#3",
          "midi": 56,
          "time": 92.03488372091974,
          "velocity": 0.2677165354330709,
          "duration": 0.023255813953483084
        },
        {
          "name": "E7",
          "midi": 100,
          "time": 92.03488372091974,
          "velocity": 0.2047244094488189,
          "duration": 0.034883720930224626
        },
        {
          "name": "G6",
          "midi": 91,
          "time": 92.04651162789648,
          "velocity": 0.15748031496062992,
          "duration": 0.04651162790696617
        },
        {
          "name": "G#3",
          "midi": 56,
          "time": 92.06976744184996,
          "velocity": 0.1968503937007874,
          "duration": 0.034883720930224626
        },
        {
          "name": "F#7",
          "midi": 102,
          "time": 92.0813953488267,
          "velocity": 0.28346456692913385,
          "duration": 0.1395348837208985
        },
        {
          "name": "F#5",
          "midi": 78,
          "time": 92.09302325580344,
          "velocity": 0.29133858267716534,
          "duration": 0.034883720930224626
        },
        {
          "name": "B5",
          "midi": 83,
          "time": 92.09302325580344,
          "velocity": 0.25984251968503935,
          "duration": 0.04651162790696617
        },
        {
          "name": "A#6",
          "midi": 94,
          "time": 92.09302325580344,
          "velocity": 0.2677165354330709,
          "duration": 0.06976744186044925
        },
        {
          "name": "D7",
          "midi": 98,
          "time": 92.09302325580344,
          "velocity": 0.3543307086614173,
          "duration": 0.10465116279067388
        },
        {
          "name": "G7",
          "midi": 103,
          "time": 92.09302325580344,
          "velocity": 0.2283464566929134,
          "duration": 0.0813953488371908
        },
        {
          "name": "C3",
          "midi": 48,
          "time": 92.10465116278019,
          "velocity": 0.3228346456692913,
          "duration": 0.023255813953483084
        },
        {
          "name": "E4",
          "midi": 64,
          "time": 92.10465116278019,
          "velocity": 0.25984251968503935,
          "duration": 0.034883720930224626
        },
        {
          "name": "F#6",
          "midi": 90,
          "time": 92.10465116278019,
          "velocity": 0.33858267716535434,
          "duration": 0.0813953488371908
        },
        {
          "name": "E7",
          "midi": 100,
          "time": 92.10465116278019,
          "velocity": 0.25984251968503935,
          "duration": 0.1395348837208985
        },
        {
          "name": "A4",
          "midi": 69,
          "time": 92.11627906975693,
          "velocity": 0.5196850393700787,
          "duration": 0.023255813953483084
        },
        {
          "name": "C#5",
          "midi": 73,
          "time": 92.11627906975693,
          "velocity": 0.1732283464566929,
          "duration": 0.04651162790696617
        },
        {
          "name": "F5",
          "midi": 77,
          "time": 92.11627906975693,
          "velocity": 0.5590551181102362,
          "duration": 0.26744186046505547
        },
        {
          "name": "E6",
          "midi": 88,
          "time": 92.11627906975693,
          "velocity": 0.2283464566929134,
          "duration": 0.05813953488370771
        },
        {
          "name": "G6",
          "midi": 91,
          "time": 92.11627906975693,
          "velocity": 0.25196850393700787,
          "duration": 0.023255813953483084
        },
        {
          "name": "A6",
          "midi": 93,
          "time": 92.11627906975693,
          "velocity": 0.3228346456692913,
          "duration": 0.023255813953483084
        },
        {
          "name": "B6",
          "midi": 95,
          "time": 92.12790697673367,
          "velocity": 0.2755905511811024,
          "duration": 0.06976744186044925
        },
        {
          "name": "F4",
          "midi": 65,
          "time": 92.13953488371041,
          "velocity": 0.2755905511811024,
          "duration": 0.10465116279067388
        },
        {
          "name": "A#5",
          "midi": 82,
          "time": 92.13953488371041,
          "velocity": 0.2204724409448819,
          "duration": 0.05813953488370771
        },
        {
          "name": "C6",
          "midi": 84,
          "time": 92.15116279068715,
          "velocity": 0.14960629921259844,
          "duration": 0.05813953488370771
        },
        {
          "name": "C4",
          "midi": 60,
          "time": 92.1627906976639,
          "velocity": 0.15748031496062992,
          "duration": 0.034883720930224626
        },
        {
          "name": "G6",
          "midi": 91,
          "time": 92.1627906976639,
          "velocity": 0.1968503937007874,
          "duration": 0.15116279069764005
        },
        {
          "name": "C#5",
          "midi": 73,
          "time": 92.18604651161738,
          "velocity": 0.09448818897637795,
          "duration": 0.034883720930224626
        },
        {
          "name": "B5",
          "midi": 83,
          "time": 92.18604651161738,
          "velocity": 0.11023622047244094,
          "duration": 0.034883720930224626
        },
        {
          "name": "A6",
          "midi": 93,
          "time": 92.18604651161738,
          "velocity": 0.2047244094488189,
          "duration": 0.034883720930224626
        },
        {
          "name": "C#4",
          "midi": 61,
          "time": 92.19767441859412,
          "velocity": 0.1889763779527559,
          "duration": 0.04651162790696617
        },
        {
          "name": "G#6",
          "midi": 92,
          "time": 92.19767441859412,
          "velocity": 0.5748031496062992,
          "duration": 2.569767441859966
        },
        {
          "name": "D#6",
          "midi": 87,
          "time": 92.20930232557086,
          "velocity": 0.2440944881889764,
          "duration": 0.2209302325580893
        },
        {
          "name": "G#4",
          "midi": 68,
          "time": 92.2209302325476,
          "velocity": 0.23622047244094488,
          "duration": 0.04651162790696617
        },
        {
          "name": "E6",
          "midi": 88,
          "time": 92.2209302325476,
          "velocity": 0.12598425196850394,
          "duration": 0.0813953488371908
        },
        {
          "name": "A#6",
          "midi": 94,
          "time": 92.2209302325476,
          "velocity": 0.10236220472440945,
          "duration": 0.11627906976741542
        },
        {
          "name": "G#2",
          "midi": 44,
          "time": 92.23255813952434,
          "velocity": 0.33070866141732286,
          "duration": 0.37209302325572935
        },
        {
          "name": "A5",
          "midi": 81,
          "time": 92.23255813952434,
          "velocity": 0.23622047244094488,
          "duration": 0.034883720930224626
        },
        {
          "name": "C6",
          "midi": 84,
          "time": 92.23255813952434,
          "velocity": 0.16535433070866143,
          "duration": 0.034883720930224626
        },
        {
          "name": "D7",
          "midi": 98,
          "time": 92.23255813952434,
          "velocity": 0.1732283464566929,
          "duration": 0.034883720930224626
        },
        {
          "name": "G5",
          "midi": 79,
          "time": 92.24418604650108,
          "velocity": 0.25196850393700787,
          "duration": 0.06976744186044925
        },
        {
          "name": "C#7",
          "midi": 97,
          "time": 92.24418604650108,
          "velocity": 0.5039370078740157,
          "duration": 0.5465116279068525
        },
        {
          "name": "F#6",
          "midi": 90,
          "time": 92.25581395347783,
          "velocity": 0.5039370078740157,
          "duration": 0.29069767441853855
        },
        {
          "name": "G4",
          "midi": 67,
          "time": 92.26744186045457,
          "velocity": 0.30708661417322836,
          "duration": 0.023255813953483084
        },
        {
          "name": "G#5",
          "midi": 80,
          "time": 92.26744186045457,
          "velocity": 0.25196850393700787,
          "duration": 0.034883720930224626
        },
        {
          "name": "D6",
          "midi": 86,
          "time": 92.26744186045457,
          "velocity": 0.18110236220472442,
          "duration": 0.034883720930224626
        },
        {
          "name": "E7",
          "midi": 100,
          "time": 92.26744186045457,
          "velocity": 0.13385826771653545,
          "duration": 0.04651162790696617
        },
        {
          "name": "A4",
          "midi": 69,
          "time": 92.27906976743131,
          "velocity": 0.3464566929133858,
          "duration": 0.04651162790696617
        },
        {
          "name": "A#5",
          "midi": 82,
          "time": 92.29069767440805,
          "velocity": 0.13385826771653545,
          "duration": 0.04651162790696617
        },
        {
          "name": "D7",
          "midi": 98,
          "time": 92.30232558138479,
          "velocity": 0.07874015748031496,
          "duration": 0.10465116279067388
        },
        {
          "name": "G#4",
          "midi": 68,
          "time": 92.31395348836153,
          "velocity": 0.48031496062992124,
          "duration": 0.15116279069764005
        },
        {
          "name": "A6",
          "midi": 93,
          "time": 92.31395348836153,
          "velocity": 0.2755905511811024,
          "duration": 0.12790697674415696
        },
        {
          "name": "G#3",
          "midi": 56,
          "time": 92.32558139533828,
          "velocity": 0.47244094488188976,
          "duration": 0.31395348837202164
        },
        {
          "name": "B5",
          "midi": 83,
          "time": 92.32558139533828,
          "velocity": 0.25984251968503935,
          "duration": 0.06976744186044925
        },
        {
          "name": "F4",
          "midi": 65,
          "time": 92.33720930231502,
          "velocity": 0.23622047244094488,
          "duration": 0.0813953488371908
        },
        {
          "name": "D#5",
          "midi": 75,
          "time": 92.33720930231502,
          "velocity": 0.2992125984251969,
          "duration": 0.09302325581393234
        },
        {
          "name": "E7",
          "midi": 100,
          "time": 92.33720930231502,
          "velocity": 0.18110236220472442,
          "duration": 0.1627906976743816
        },
        {
          "name": "D6",
          "midi": 86,
          "time": 92.34883720929176,
          "velocity": 0.12598425196850394,
          "duration": 0.04651162790696617
        },
        {
          "name": "G6",
          "midi": 91,
          "time": 92.34883720929176,
          "velocity": 0.2204724409448819,
          "duration": 0.10465116279067388
        },
        {
          "name": "A#6",
          "midi": 94,
          "time": 92.34883720929176,
          "velocity": 0.13385826771653545,
          "duration": 0.06976744186044925
        },
        {
          "name": "C#4",
          "midi": 61,
          "time": 92.3604651162685,
          "velocity": 0.15748031496062992,
          "duration": 0.06976744186044925
        },
        {
          "name": "F#5",
          "midi": 78,
          "time": 92.37209302324524,
          "velocity": 0.5433070866141733,
          "duration": 0.10465116279067388
        },
        {
          "name": "C#5",
          "midi": 73,
          "time": 92.38372093022198,
          "velocity": 0.5984251968503937,
          "duration": 0.3837209302324709
        },
        {
          "name": "A#5",
          "midi": 82,
          "time": 92.39534883719872,
          "velocity": 0.09448818897637795,
          "duration": 0.034883720930224626
        },
        {
          "name": "C4",
          "midi": 60,
          "time": 92.43023255812895,
          "velocity": 0.30708661417322836,
          "duration": 0.034883720930224626
        },
        {
          "name": "C6",
          "midi": 84,
          "time": 92.43023255812895,
          "velocity": 0.31496062992125984,
          "duration": 0.04651162790696617
        },
        {
          "name": "F5",
          "midi": 77,
          "time": 92.44186046510569,
          "velocity": 0.5275590551181102,
          "duration": 0.34883720930224626
        },
        {
          "name": "D#6",
          "midi": 87,
          "time": 92.44186046510569,
          "velocity": 0.4330708661417323,
          "duration": 1.3139534883718085
        },
        {
          "name": "A#6",
          "midi": 94,
          "time": 92.44186046510569,
          "velocity": 0.09448818897637795,
          "duration": 0.09302325581393234
        },
        {
          "name": "B6",
          "midi": 95,
          "time": 92.44186046510569,
          "velocity": 0.2440944881889764,
          "duration": 0.09302325581393234
        },
        {
          "name": "F4",
          "midi": 65,
          "time": 92.45348837208243,
          "velocity": 0.48031496062992124,
          "duration": 0.279069767441797
        },
        {
          "name": "G7",
          "midi": 103,
          "time": 92.45348837208243,
          "velocity": 0.14960629921259844,
          "duration": 0.06976744186044925
        },
        {
          "name": "C#4",
          "midi": 61,
          "time": 92.46511627905917,
          "velocity": 0.41732283464566927,
          "duration": 0.19767441860460622
        },
        {
          "name": "G6",
          "midi": 91,
          "time": 92.48837209301266,
          "velocity": 0.15748031496062992,
          "duration": 0.09302325581393234
        },
        {
          "name": "A6",
          "midi": 93,
          "time": 92.48837209301266,
          "velocity": 0.16535433070866143,
          "duration": 0.034883720930224626
        },
        {
          "name": "D7",
          "midi": 98,
          "time": 92.48837209301266,
          "velocity": 0.1889763779527559,
          "duration": 0.0813953488371908
        },
        {
          "name": "D#5",
          "midi": 75,
          "time": 92.5581395348731,
          "velocity": 0.2204724409448819,
          "duration": 0.12790697674415696
        },
        {
          "name": "B6",
          "midi": 95,
          "time": 92.5581395348731,
          "velocity": 0.14173228346456693,
          "duration": 0.034883720930224626
        },
        {
          "name": "A#6",
          "midi": 94,
          "time": 92.56976744184985,
          "velocity": 0.08661417322834646,
          "duration": 0.04651162790696617
        },
        {
          "name": "F#7",
          "midi": 102,
          "time": 92.56976744184985,
          "velocity": 0.12598425196850394,
          "duration": 0.05813953488370771
        },
        {
          "name": "F#6",
          "midi": 90,
          "time": 92.58139534882659,
          "velocity": 0.28346456692913385,
          "duration": 0.1395348837208985
        },
        {
          "name": "G6",
          "midi": 91,
          "time": 92.59302325580333,
          "velocity": 0.10236220472440945,
          "duration": 0.04651162790696617
        },
        {
          "name": "C6",
          "midi": 84,
          "time": 92.60465116278007,
          "velocity": 0.3228346456692913,
          "duration": 0.19767441860460622
        },
        {
          "name": "D7",
          "midi": 98,
          "time": 92.60465116278007,
          "velocity": 0.11023622047244094,
          "duration": 0.034883720930224626
        },
        {
          "name": "A6",
          "midi": 93,
          "time": 92.6395348837103,
          "velocity": 0.08661417322834646,
          "duration": 0.034883720930224626
        },
        {
          "name": "A#6",
          "midi": 94,
          "time": 92.6395348837103,
          "velocity": 0.10236220472440945,
          "duration": 0.04651162790696617
        },
        {
          "name": "G#3",
          "midi": 56,
          "time": 92.66279069766378,
          "velocity": 0.2204724409448819,
          "duration": 0.0813953488371908
        },
        {
          "name": "G#4",
          "midi": 68,
          "time": 92.66279069766378,
          "velocity": 0.3779527559055118,
          "duration": 0.09302325581393234
        },
        {
          "name": "B6",
          "midi": 95,
          "time": 92.68604651161726,
          "velocity": 0.12598425196850394,
          "duration": 0.034883720930224626
        },
        {
          "name": "E7",
          "midi": 100,
          "time": 92.68604651161726,
          "velocity": 0.10236220472440945,
          "duration": 0.034883720930224626
        },
        {
          "name": "D#5",
          "midi": 75,
          "time": 92.697674418594,
          "velocity": 0.10236220472440945,
          "duration": 0.034883720930224626
        },
        {
          "name": "G#5",
          "midi": 80,
          "time": 92.72093023254749,
          "velocity": 0.6299212598425197,
          "duration": 0.8488372093021468
        },
        {
          "name": "G6",
          "midi": 91,
          "time": 92.72093023254749,
          "velocity": 0.1968503937007874,
          "duration": 0.11627906976741542
        },
        {
          "name": "F#7",
          "midi": 102,
          "time": 92.72093023254749,
          "velocity": 0.14960629921259844,
          "duration": 0.034883720930224626
        },
        {
          "name": "B5",
          "midi": 83,
          "time": 92.74418604650097,
          "velocity": 0.2125984251968504,
          "duration": 0.04651162790696617
        },
        {
          "name": "C3",
          "midi": 48,
          "time": 92.75581395347771,
          "velocity": 0.6614173228346457,
          "duration": 0.011627906976741542
        },
        {
          "name": "F4",
          "midi": 65,
          "time": 92.75581395347771,
          "velocity": 0.3937007874015748,
          "duration": 0.023255813953483084
        },
        {
          "name": "D#7",
          "midi": 99,
          "time": 92.75581395347771,
          "velocity": 0.4645669291338583,
          "duration": 1.348837209302033
        },
        {
          "name": "A2",
          "midi": 45,
          "time": 92.76744186045445,
          "velocity": 0.7401574803149606,
          "duration": 0.011627906976741542
        },
        {
          "name": "A#6",
          "midi": 94,
          "time": 92.76744186045445,
          "velocity": 0.4330708661417323,
          "duration": 0.6627906976742821
        },
        {
          "name": "G7",
          "midi": 103,
          "time": 92.76744186045445,
          "velocity": 0.23622047244094488,
          "duration": 0.06976744186044925
        },
        {
          "name": "F2",
          "midi": 41,
          "time": 92.7790697674312,
          "velocity": 0.7795275590551181,
          "duration": 0.011627906976741542
        },
        {
          "name": "E4",
          "midi": 64,
          "time": 92.7790697674312,
          "velocity": 0.12598425196850394,
          "duration": 0.034883720930224626
        },
        {
          "name": "C#2",
          "midi": 37,
          "time": 92.79069767440794,
          "velocity": 0.8031496062992126,
          "duration": 0.011627906976741542
        },
        {
          "name": "C4",
          "midi": 60,
          "time": 92.79069767440794,
          "velocity": 0.28346456692913385,
          "duration": 0.023255813953483084
        },
        {
          "name": "A#5",
          "midi": 82,
          "time": 92.79069767440794,
          "velocity": 0.2440944881889764,
          "duration": 0.23255813953484505
        },
        {
          "name": "B1",
          "midi": 35,
          "time": 92.80232558138468,
          "velocity": 0.7952755905511811,
          "duration": 0.011627906976741542
        },
        {
          "name": "D#5",
          "midi": 75,
          "time": 92.80232558138468,
          "velocity": 0.5826771653543307,
          "duration": 0.6046511627905744
        },
        {
          "name": "A#1",
          "midi": 34,
          "time": 92.81395348836142,
          "velocity": 0.7795275590551181,
          "duration": 0.011627906976741542
        },
        {
          "name": "G#3",
          "midi": 56,
          "time": 92.81395348836142,
          "velocity": 0.3858267716535433,
          "duration": 0.05813953488370771
        },
        {
          "name": "F#5",
          "midi": 78,
          "time": 92.81395348836142,
          "velocity": 0.2992125984251969,
          "duration": 0.034883720930224626
        },
        {
          "name": "A1",
          "midi": 33,
          "time": 92.82558139533816,
          "velocity": 0.7716535433070866,
          "duration": 0.023255813953483084
        },
        {
          "name": "G#4",
          "midi": 68,
          "time": 92.8372093023149,
          "velocity": 0.5826771653543307,
          "duration": 0.39534883720922664
        },
        {
          "name": "E7",
          "midi": 100,
          "time": 92.8372093023149,
          "velocity": 0.08661417322834646,
          "duration": 0.15116279069765426
        },
        {
          "name": "G#1",
          "midi": 32,
          "time": 92.84883720929164,
          "velocity": 0.7401574803149606,
          "duration": 0.023255813953483084
        },
        {
          "name": "C4",
          "midi": 60,
          "time": 92.84883720929164,
          "velocity": 0.2204724409448819,
          "duration": 0.034883720930224626
        },
        {
          "name": "C5",
          "midi": 72,
          "time": 92.84883720929164,
          "velocity": 0.33858267716535434,
          "duration": 0.18604651162787889
        },
        {
          "name": "F5",
          "midi": 77,
          "time": 92.84883720929164,
          "velocity": 0.2204724409448819,
          "duration": 0.05813953488370771
        },
        {
          "name": "F#7",
          "midi": 102,
          "time": 92.84883720929164,
          "velocity": 0.10236220472440945,
          "duration": 0.04651162790696617
        },
        {
          "name": "G7",
          "midi": 103,
          "time": 92.86046511626839,
          "velocity": 0.25984251968503935,
          "duration": 0.12790697674417117
        },
        {
          "name": "G1",
          "midi": 31,
          "time": 92.87209302324513,
          "velocity": 0.7559055118110236,
          "duration": 0.13953488372091272
        },
        {
          "name": "C#6",
          "midi": 85,
          "time": 92.87209302324513,
          "velocity": 0.11023622047244094,
          "duration": 0.034883720930224626
        },
        {
          "name": "D#3",
          "midi": 51,
          "time": 92.89534883719861,
          "velocity": 0.33070866141732286,
          "duration": 0.05813953488372192
        },
        {
          "name": "F#5",
          "midi": 78,
          "time": 92.89534883719861,
          "velocity": 0.23622047244094488,
          "duration": 0.06976744186046346
        },
        {
          "name": "G6",
          "midi": 91,
          "time": 92.90697674417535,
          "velocity": 0.3228346456692913,
          "duration": 0.45348837209293436
        },
        {
          "name": "C7",
          "midi": 96,
          "time": 92.94186046510559,
          "velocity": 0.36220472440944884,
          "duration": 0.8720930232556157
        },
        {
          "name": "D#3",
          "midi": 51,
          "time": 92.96511627905907,
          "velocity": 0.4251968503937008,
          "duration": 0.279069767441797
        },
        {
          "name": "C4",
          "midi": 60,
          "time": 92.97674418603582,
          "velocity": 0.3937007874015748,
          "duration": 0.034883720930224626
        },
        {
          "name": "F#5",
          "midi": 78,
          "time": 92.97674418603582,
          "velocity": 0.31496062992125984,
          "duration": 0.023255813953483084
        },
        {
          "name": "C#6",
          "midi": 85,
          "time": 92.97674418603582,
          "velocity": 0.2125984251968504,
          "duration": 0.06976744186044925
        },
        {
          "name": "B6",
          "midi": 95,
          "time": 92.98837209301256,
          "velocity": 0.09448818897637795,
          "duration": 0.034883720930224626
        },
        {
          "name": "F5",
          "midi": 77,
          "time": 92.9999999999893,
          "velocity": 0.2755905511811024,
          "duration": 0.023255813953483084
        },
        {
          "name": "G#1",
          "midi": 32,
          "time": 93.01162790696604,
          "velocity": 0.6929133858267716,
          "duration": 0.023255813953483084
        },
        {
          "name": "F#5",
          "midi": 78,
          "time": 93.01162790696604,
          "velocity": 0.2283464566929134,
          "duration": 0.023255813953483084
        },
        {
          "name": "B3",
          "midi": 59,
          "time": 93.02325581394278,
          "velocity": 0.2283464566929134,
          "duration": 0.023255813953483084
        },
        {
          "name": "A1",
          "midi": 33,
          "time": 93.03488372091952,
          "velocity": 0.6692913385826772,
          "duration": 0.023255813953483084
        },
        {
          "name": "F5",
          "midi": 77,
          "time": 93.03488372091952,
          "velocity": 0.2677165354330709,
          "duration": 0.034883720930224626
        },
        {
          "name": "A#5",
          "midi": 82,
          "time": 93.03488372091952,
          "velocity": 0.16535433070866143,
          "duration": 0.034883720930224626
        },
        {
          "name": "A6",
          "midi": 93,
          "time": 93.03488372091952,
          "velocity": 0.14960629921259844,
          "duration": 0.0813953488371908
        },
        {
          "name": "C4",
          "midi": 60,
          "time": 93.04651162789627,
          "velocity": 0.4094488188976378,
          "duration": 0.04651162790696617
        },
        {
          "name": "C#5",
          "midi": 73,
          "time": 93.04651162789627,
          "velocity": 0.2677165354330709,
          "duration": 0.023255813953483084
        },
        {
          "name": "E6",
          "midi": 88,
          "time": 93.04651162789627,
          "velocity": 0.31496062992125984,
          "duration": 0.10465116279067388
        },
        {
          "name": "D7",
          "midi": 98,
          "time": 93.04651162789627,
          "velocity": 0.18110236220472442,
          "duration": 0.23255813953483084
        },
        {
          "name": "F#7",
          "midi": 102,
          "time": 93.04651162789627,
          "velocity": 0.29133858267716534,
          "duration": 0.20930232558134776
        },
        {
          "name": "G#1",
          "midi": 32,
          "time": 93.058139534873,
          "velocity": 0.7007874015748031,
          "duration": 0.3604651162789878
        },
        {
          "name": "F#5",
          "midi": 78,
          "time": 93.058139534873,
          "velocity": 0.25984251968503935,
          "duration": 0.034883720930224626
        },
        {
          "name": "G#3",
          "midi": 56,
          "time": 93.06976744184975,
          "velocity": 0.25984251968503935,
          "duration": 0.023255813953483084
        },
        {
          "name": "B6",
          "midi": 95,
          "time": 93.06976744184975,
          "velocity": 0.10236220472440945,
          "duration": 0.05813953488370771
        },
        {
          "name": "C#7",
          "midi": 97,
          "time": 93.06976744184975,
          "velocity": 0.2677165354330709,
          "duration": 0.0813953488371908
        },
        {
          "name": "D#4",
          "midi": 63,
          "time": 93.08139534882649,
          "velocity": 0.4881889763779528,
          "duration": 0.20930232558134776
        },
        {
          "name": "G5",
          "midi": 79,
          "time": 93.09302325580323,
          "velocity": 0.28346456692913385,
          "duration": 0.023255813953483084
        },
        {
          "name": "A#5",
          "midi": 82,
          "time": 93.09302325580323,
          "velocity": 0.2992125984251969,
          "duration": 0.17441860465112313
        },
        {
          "name": "C6",
          "midi": 84,
          "time": 93.09302325580323,
          "velocity": 0.2992125984251969,
          "duration": 0.26744186046505547
        },
        {
          "name": "C5",
          "midi": 72,
          "time": 93.10465116277997,
          "velocity": 0.36220472440944884,
          "duration": 0.17441860465112313
        },
        {
          "name": "F5",
          "midi": 77,
          "time": 93.10465116277997,
          "velocity": 0.23622047244094488,
          "duration": 0.023255813953483084
        },
        {
          "name": "F#5",
          "midi": 78,
          "time": 93.11627906975671,
          "velocity": 0.2440944881889764,
          "duration": 0.034883720930224626
        },
        {
          "name": "C#6",
          "midi": 85,
          "time": 93.11627906975671,
          "velocity": 0.1968503937007874,
          "duration": 0.034883720930224626
        },
        {
          "name": "G#3",
          "midi": 56,
          "time": 93.1395348837102,
          "velocity": 0.2440944881889764,
          "duration": 0.04651162790696617
        },
        {
          "name": "A6",
          "midi": 93,
          "time": 93.1395348837102,
          "velocity": 0.16535433070866143,
          "duration": 0.09302325581393234
        },
        {
          "name": "C4",
          "midi": 60,
          "time": 93.15116279068694,
          "velocity": 0.3464566929133858,
          "duration": 0.05813953488370771
        },
        {
          "name": "F5",
          "midi": 77,
          "time": 93.15116279068694,
          "velocity": 0.2283464566929134,
          "duration": 0.023255813953483084
        },
        {
          "name": "F#5",
          "midi": 78,
          "time": 93.17441860464042,
          "velocity": 0.36220472440944884,
          "duration": 0.12790697674415696
        },
        {
          "name": "C#7",
          "midi": 97,
          "time": 93.17441860464042,
          "velocity": 0.1732283464566929,
          "duration": 0.05813953488370771
        },
        {
          "name": "G#3",
          "midi": 56,
          "time": 93.1976744185939,
          "velocity": 0.28346456692913385,
          "duration": 0.06976744186044925
        },
        {
          "name": "B5",
          "midi": 83,
          "time": 93.1976744185939,
          "velocity": 0.1889763779527559,
          "duration": 0.034883720930224626
        },
        {
          "name": "C#6",
          "midi": 85,
          "time": 93.1976744185939,
          "velocity": 0.15748031496062992,
          "duration": 0.10465116279067388
        },
        {
          "name": "D6",
          "midi": 86,
          "time": 93.1976744185939,
          "velocity": 0.1889763779527559,
          "duration": 0.05813953488370771
        },
        {
          "name": "G#4",
          "midi": 68,
          "time": 93.24418604650087,
          "velocity": 0.3858267716535433,
          "duration": 0.1627906976743816
        },
        {
          "name": "E6",
          "midi": 88,
          "time": 93.24418604650087,
          "velocity": 0.2047244094488189,
          "duration": 0.034883720930224626
        },
        {
          "name": "D#3",
          "midi": 51,
          "time": 93.25581395347761,
          "velocity": 0.3937007874015748,
          "duration": 0.15116279069764005
        },
        {
          "name": "B6",
          "midi": 95,
          "time": 93.25581395347761,
          "velocity": 0.14173228346456693,
          "duration": 0.04651162790696617
        },
        {
          "name": "C4",
          "midi": 60,
          "time": 93.26744186045435,
          "velocity": 0.23622047244094488,
          "duration": 0.04651162790696617
        },
        {
          "name": "G#3",
          "midi": 56,
          "time": 93.2790697674311,
          "velocity": 0.30708661417322836,
          "duration": 0.10465116279067388
        },
        {
          "name": "A#5",
          "midi": 82,
          "time": 93.2790697674311,
          "velocity": 0.30708661417322836,
          "duration": 0.1395348837208985
        },
        {
          "name": "C#7",
          "midi": 97,
          "time": 93.29069767440784,
          "velocity": 0.33070866141732286,
          "duration": 0.17441860465112313
        },
        {
          "name": "C5",
          "midi": 72,
          "time": 93.30232558138458,
          "velocity": 0.2677165354330709,
          "duration": 0.10465116279067388
        },
        {
          "name": "F5",
          "midi": 77,
          "time": 93.30232558138458,
          "velocity": 0.23622047244094488,
          "duration": 0.023255813953483084
        },
        {
          "name": "D7",
          "midi": 98,
          "time": 93.31395348836132,
          "velocity": 0.33858267716535434,
          "duration": 0.24418604651157239
        },
        {
          "name": "D6",
          "midi": 86,
          "time": 93.32558139533806,
          "velocity": 0.14173228346456693,
          "duration": 0.034883720930224626
        },
        {
          "name": "E6",
          "midi": 88,
          "time": 93.32558139533806,
          "velocity": 0.12598425196850394,
          "duration": 0.034883720930224626
        },
        {
          "name": "C#6",
          "midi": 85,
          "time": 93.3372093023148,
          "velocity": 0.2047244094488189,
          "duration": 0.11627906976741542
        },
        {
          "name": "C#5",
          "midi": 73,
          "time": 93.34883720929155,
          "velocity": 0.1889763779527559,
          "duration": 0.034883720930224626
        },
        {
          "name": "F#5",
          "midi": 78,
          "time": 93.34883720929155,
          "velocity": 0.3858267716535433,
          "duration": 0.0813953488371908
        },
        {
          "name": "C4",
          "midi": 60,
          "time": 93.36046511626829,
          "velocity": 0.2677165354330709,
          "duration": 0.04651162790696617
        },
        {
          "name": "G6",
          "midi": 91,
          "time": 93.37209302324503,
          "velocity": 0.33070866141732286,
          "duration": 0.09302325581393234
        },
        {
          "name": "F#7",
          "midi": 102,
          "time": 93.38372093022177,
          "velocity": 0.31496062992125984,
          "duration": 0.3255813953487632
        },
        {
          "name": "C3",
          "midi": 48,
          "time": 93.40697674417525,
          "velocity": 0.3858267716535433,
          "duration": 0.023255813953483084
        },
        {
          "name": "A4",
          "midi": 69,
          "time": 93.40697674417525,
          "velocity": 0.5196850393700787,
          "duration": 0.034883720930224626
        },
        {
          "name": "B6",
          "midi": 95,
          "time": 93.40697674417525,
          "velocity": 0.2677165354330709,
          "duration": 0.11627906976741542
        },
        {
          "name": "G1",
          "midi": 31,
          "time": 93.418604651152,
          "velocity": 0.5354330708661418,
          "duration": 0.011627906976741542
        },
        {
          "name": "C#5",
          "midi": 73,
          "time": 93.418604651152,
          "velocity": 0.1968503937007874,
          "duration": 0.034883720930224626
        },
        {
          "name": "D#5",
          "midi": 75,
          "time": 93.418604651152,
          "velocity": 0.14960629921259844,
          "duration": 0.034883720930224626
        },
        {
          "name": "F5",
          "midi": 77,
          "time": 93.418604651152,
          "velocity": 0.2755905511811024,
          "duration": 0.04651162790696617
        },
        {
          "name": "B5",
          "midi": 83,
          "time": 93.418604651152,
          "velocity": 0.2992125984251969,
          "duration": 0.023255813953483084
        },
        {
          "name": "C4",
          "midi": 60,
          "time": 93.43023255812874,
          "velocity": 0.1968503937007874,
          "duration": 0.19767441860460622
        },
        {
          "name": "G4",
          "midi": 67,
          "time": 93.43023255812874,
          "velocity": 0.3937007874015748,
          "duration": 0.023255813953483084
        },
        {
          "name": "A#5",
          "midi": 82,
          "time": 93.43023255812874,
          "velocity": 0.23622047244094488,
          "duration": 0.023255813953483084
        },
        {
          "name": "A6",
          "midi": 93,
          "time": 93.43023255812874,
          "velocity": 0.2992125984251969,
          "duration": 0.17441860465112313
        },
        {
          "name": "G#4",
          "midi": 68,
          "time": 93.45348837208222,
          "velocity": 0.36220472440944884,
          "duration": 0.09302325581393234
        },
        {
          "name": "B5",
          "midi": 83,
          "time": 93.45348837208222,
          "velocity": 0.15748031496062992,
          "duration": 0.034883720930224626
        },
        {
          "name": "D#5",
          "midi": 75,
          "time": 93.46511627905896,
          "velocity": 0.2204724409448819,
          "duration": 0.06976744186044925
        },
        {
          "name": "C#6",
          "midi": 85,
          "time": 93.4767441860357,
          "velocity": 0.18110236220472442,
          "duration": 0.09302325581393234
        },
        {
          "name": "C6",
          "midi": 84,
          "time": 93.48837209301244,
          "velocity": 0.15748031496062992,
          "duration": 0.034883720930224626
        },
        {
          "name": "B5",
          "midi": 83,
          "time": 93.49999999998919,
          "velocity": 0.14960629921259844,
          "duration": 0.05813953488370771
        },
        {
          "name": "G6",
          "midi": 91,
          "time": 93.49999999998919,
          "velocity": 0.18110236220472442,
          "duration": 0.15116279069764005
        },
        {
          "name": "F#6",
          "midi": 90,
          "time": 93.51162790696593,
          "velocity": 0.2204724409448819,
          "duration": 0.11627906976741542
        },
        {
          "name": "A#6",
          "midi": 94,
          "time": 93.52325581394267,
          "velocity": 0.2204724409448819,
          "duration": 0.1627906976743816
        },
        {
          "name": "A4",
          "midi": 69,
          "time": 93.54651162789615,
          "velocity": 0.2755905511811024,
          "duration": 0.023255813953483084
        },
        {
          "name": "E6",
          "midi": 88,
          "time": 93.5581395348729,
          "velocity": 0.1732283464566929,
          "duration": 0.05813953488370771
        },
        {
          "name": "G#4",
          "midi": 68,
          "time": 93.56976744184963,
          "velocity": 0.5748031496062992,
          "duration": 0.48837209302314477
        },
        {
          "name": "D#5",
          "midi": 75,
          "time": 93.56976744184963,
          "velocity": 0.3779527559055118,
          "duration": 0.4999999999998863
        },
        {
          "name": "F5",
          "midi": 77,
          "time": 93.56976744184963,
          "velocity": 0.14173228346456693,
          "duration": 0.04651162790696617
        },
        {
          "name": "A5",
          "midi": 81,
          "time": 93.56976744184963,
          "velocity": 0.2047244094488189,
          "duration": 0.034883720930224626
        },
        {
          "name": "G#5",
          "midi": 80,
          "time": 93.58139534882638,
          "velocity": 0.6220472440944882,
          "duration": 0.26744186046505547
        },
        {
          "name": "C6",
          "midi": 84,
          "time": 93.58139534882638,
          "velocity": 0.14960629921259844,
          "duration": 0.10465116279067388
        },
        {
          "name": "F7",
          "midi": 101,
          "time": 93.58139534882638,
          "velocity": 0.07874015748031496,
          "duration": 0.034883720930224626
        },
        {
          "name": "G#2",
          "midi": 44,
          "time": 93.60465116277986,
          "velocity": 0.16535433070866143,
          "duration": 0.12790697674415696
        },
        {
          "name": "F4",
          "midi": 65,
          "time": 93.60465116277986,
          "velocity": 0.25984251968503935,
          "duration": 0.023255813953483084
        },
        {
          "name": "A#5",
          "midi": 82,
          "time": 93.60465116277986,
          "velocity": 0.2755905511811024,
          "duration": 0.04651162790696617
        },
        {
          "name": "A5",
          "midi": 81,
          "time": 93.6162790697566,
          "velocity": 0.25196850393700787,
          "duration": 0.023255813953483084
        },
        {
          "name": "G#3",
          "midi": 56,
          "time": 93.62790697673334,
          "velocity": 0.25196850393700787,
          "duration": 0.11627906976741542
        },
        {
          "name": "C5",
          "midi": 72,
          "time": 93.62790697673334,
          "velocity": 0.2047244094488189,
          "duration": 0.06976744186044925
        },
        {
          "name": "D#4",
          "midi": 63,
          "time": 93.63953488371008,
          "velocity": 0.4566929133858268,
          "duration": 0.17441860465112313
        },
        {
          "name": "A6",
          "midi": 93,
          "time": 93.65116279068683,
          "velocity": 0.25196850393700787,
          "duration": 0.04651162790696617
        },
        {
          "name": "C#7",
          "midi": 97,
          "time": 93.65116279068683,
          "velocity": 0.14173228346456693,
          "duration": 0.17441860465112313
        },
        {
          "name": "A#5",
          "midi": 82,
          "time": 93.66279069766357,
          "velocity": 0.12598425196850394,
          "duration": 0.034883720930224626
        },
        {
          "name": "F6",
          "midi": 89,
          "time": 93.66279069766357,
          "velocity": 0.33070866141732286,
          "duration": 0.31395348837202164
        },
        {
          "name": "G6",
          "midi": 91,
          "time": 93.66279069766357,
          "velocity": 0.15748031496062992,
          "duration": 0.05813953488370771
        },
        {
          "name": "D7",
          "midi": 98,
          "time": 93.67441860464031,
          "velocity": 0.13385826771653545,
          "duration": 0.04651162790696617
        },
        {
          "name": "C4",
          "midi": 60,
          "time": 93.68604651161705,
          "velocity": 0.25196850393700787,
          "duration": 0.04651162790696617
        },
        {
          "name": "C#6",
          "midi": 85,
          "time": 93.68604651161705,
          "velocity": 0.11023622047244094,
          "duration": 0.11627906976741542
        },
        {
          "name": "E6",
          "midi": 88,
          "time": 93.69767441859379,
          "velocity": 0.11811023622047244,
          "duration": 0.04651162790696617
        },
        {
          "name": "A#5",
          "midi": 82,
          "time": 93.70930232557053,
          "velocity": 0.28346456692913385,
          "duration": 0.1395348837208985
        },
        {
          "name": "C#5",
          "midi": 73,
          "time": 93.72093023254727,
          "velocity": 0.23622047244094488,
          "duration": 0.04651162790696617
        },
        {
          "name": "C6",
          "midi": 84,
          "time": 93.72093023254727,
          "velocity": 0.30708661417322836,
          "duration": 0.31395348837202164
        },
        {
          "name": "G6",
          "midi": 91,
          "time": 93.73255813952402,
          "velocity": 0.15748031496062992,
          "duration": 0.034883720930224626
        },
        {
          "name": "E7",
          "midi": 100,
          "time": 93.73255813952402,
          "velocity": 0.13385826771653545,
          "duration": 0.09302325581393234
        },
        {
          "name": "G5",
          "midi": 79,
          "time": 93.74418604650076,
          "velocity": 0.31496062992125984,
          "duration": 0.023255813953483084
        },
        {
          "name": "F#7",
          "midi": 102,
          "time": 93.74418604650076,
          "velocity": 0.1968503937007874,
          "duration": 0.10465116279067388
        },
        {
          "name": "G#3",
          "midi": 56,
          "time": 93.7558139534775,
          "velocity": 0.3464566929133858,
          "duration": 0.1395348837208985
        },
        {
          "name": "E6",
          "midi": 88,
          "time": 93.7558139534775,
          "velocity": 0.2125984251968504,
          "duration": 0.034883720930224626
        },
        {
          "name": "C5",
          "midi": 72,
          "time": 93.76744186045424,
          "velocity": 0.2992125984251969,
          "duration": 0.10465116279067388
        },
        {
          "name": "C4",
          "midi": 60,
          "time": 93.80232558138447,
          "velocity": 0.28346456692913385,
          "duration": 0.04651162790696617
        },
        {
          "name": "G6",
          "midi": 91,
          "time": 93.80232558138447,
          "velocity": 0.12598425196850394,
          "duration": 0.09302325581393234
        },
        {
          "name": "G7",
          "midi": 103,
          "time": 93.81395348836121,
          "velocity": 0.13385826771653545,
          "duration": 0.05813953488370771
        },
        {
          "name": "D#4",
          "midi": 63,
          "time": 93.82558139533795,
          "velocity": 0.33858267716535434,
          "duration": 0.23255813953483084
        },
        {
          "name": "G5",
          "midi": 79,
          "time": 93.82558139533795,
          "velocity": 0.2992125984251969,
          "duration": 0.06976744186044925
        },
        {
          "name": "C#7",
          "midi": 97,
          "time": 93.84883720929143,
          "velocity": 0.11023622047244094,
          "duration": 0.034883720930224626
        },
        {
          "name": "G#5",
          "midi": 80,
          "time": 93.86046511626817,
          "velocity": 0.6535433070866141,
          "duration": 0.23255813953483084
        },
        {
          "name": "E7",
          "midi": 100,
          "time": 93.88372093022166,
          "velocity": 0.1732283464566929,
          "duration": 0.11627906976741542
        },
        {
          "name": "C4",
          "midi": 60,
          "time": 93.8953488371984,
          "velocity": 0.2755905511811024,
          "duration": 0.04651162790696617
        },
        {
          "name": "C5",
          "midi": 72,
          "time": 93.8953488371984,
          "velocity": 0.3543307086614173,
          "duration": 0.18604651162786467
        },
        {
          "name": "F#5",
          "midi": 78,
          "time": 93.8953488371984,
          "velocity": 0.09448818897637795,
          "duration": 0.034883720930224626
        },
        {
          "name": "A#5",
          "midi": 82,
          "time": 93.90697674417514,
          "velocity": 0.14173228346456693,
          "duration": 0.12790697674415696
        },
        {
          "name": "F#6",
          "midi": 90,
          "time": 93.91860465115188,
          "velocity": 0.11023622047244094,
          "duration": 0.06976744186044925
        },
        {
          "name": "G6",
          "midi": 91,
          "time": 93.94186046510536,
          "velocity": 0.2204724409448819,
          "duration": 0.0813953488371908
        },
        {
          "name": "A#6",
          "midi": 94,
          "time": 93.9534883720821,
          "velocity": 0.15748031496062992,
          "duration": 0.09302325581393234
        },
        {
          "name": "G3",
          "midi": 55,
          "time": 93.98837209301233,
          "velocity": 0.3858267716535433,
          "duration": 0.034883720930224626
        },
        {
          "name": "F6",
          "midi": 89,
          "time": 93.98837209301233,
          "velocity": 0.25196850393700787,
          "duration": 0.0813953488371908
        },
        {
          "name": "C#7",
          "midi": 97,
          "time": 93.99999999998907,
          "velocity": 0.11023622047244094,
          "duration": 0.04651162790696617
        },
        {
          "name": "G#3",
          "midi": 56,
          "time": 94.02325581394255,
          "velocity": 0.4015748031496063,
          "duration": 0.034883720930224626
        },
        {
          "name": "F5",
          "midi": 77,
          "time": 94.04651162789604,
          "velocity": 0.3700787401574803,
          "duration": 0.0813953488371908
        },
        {
          "name": "D#3",
          "midi": 51,
          "time": 94.05813953487278,
          "velocity": 0.5984251968503937,
          "duration": 0.011627906976741542
        },
        {
          "name": "A6",
          "midi": 93,
          "time": 94.05813953487278,
          "velocity": 0.07874015748031496,
          "duration": 0.034883720930224626
        },
        {
          "name": "C3",
          "midi": 48,
          "time": 94.06976744184952,
          "velocity": 0.6771653543307087,
          "duration": 0.011627906976741542
        },
        {
          "name": "G#4",
          "midi": 68,
          "time": 94.06976744184952,
          "velocity": 0.3543307086614173,
          "duration": 0.25581395348832814
        },
        {
          "name": "A#5",
          "midi": 82,
          "time": 94.06976744184952,
          "velocity": 0.25984251968503935,
          "duration": 0.06976744186044925
        },
        {
          "name": "G6",
          "midi": 91,
          "time": 94.06976744184952,
          "velocity": 0.1732283464566929,
          "duration": 0.04651162790696617
        },
        {
          "name": "F2",
          "midi": 41,
          "time": 94.08139534882626,
          "velocity": 0.6850393700787402,
          "duration": 0.011627906976741542
        },
        {
          "name": "D#5",
          "midi": 75,
          "time": 94.08139534882626,
          "velocity": 0.4881889763779528,
          "duration": 0.3023255813952943
        },
        {
          "name": "B5",
          "midi": 83,
          "time": 94.08139534882626,
          "velocity": 0.14960629921259844,
          "duration": 0.034883720930224626
        },
        {
          "name": "D2",
          "midi": 38,
          "time": 94.093023255803,
          "velocity": 0.7086614173228346,
          "duration": 0.011627906976741542
        },
        {
          "name": "D#4",
          "midi": 63,
          "time": 94.093023255803,
          "velocity": 0.4881889763779528,
          "duration": 0.5116279069766989
        },
        {
          "name": "C5",
          "midi": 72,
          "time": 94.093023255803,
          "velocity": 0.4330708661417323,
          "duration": 0.36046511627903044
        },
        {
          "name": "C2",
          "midi": 36,
          "time": 94.10465116277975,
          "velocity": 0.7401574803149606,
          "duration": 0.011627906976741542
        },
        {
          "name": "G#5",
          "midi": 80,
          "time": 94.10465116277975,
          "velocity": 0.44881889763779526,
          "duration": 0.49999999999995737
        },
        {
          "name": "B1",
          "midi": 35,
          "time": 94.11627906975649,
          "velocity": 0.7401574803149606,
          "duration": 0.011627906976741542
        },
        {
          "name": "D#3",
          "midi": 51,
          "time": 94.11627906975649,
          "velocity": 0.2677165354330709,
          "duration": 0.023255813953483084
        },
        {
          "name": "G#3",
          "midi": 56,
          "time": 94.11627906975649,
          "velocity": 0.4645669291338583,
          "duration": 0.19767441860462043
        },
        {
          "name": "A#1",
          "midi": 34,
          "time": 94.12790697673323,
          "velocity": 0.7165354330708661,
          "duration": 0.011627906976741542
        },
        {
          "name": "A1",
          "midi": 33,
          "time": 94.13953488370997,
          "velocity": 0.6771653543307087,
          "duration": 0.023255813953483084
        },
        {
          "name": "D#3",
          "midi": 51,
          "time": 94.15116279068671,
          "velocity": 0.3858267716535433,
          "duration": 0.44186046511624966
        },
        {
          "name": "G#1",
          "midi": 32,
          "time": 94.16279069766345,
          "velocity": 0.6220472440944882,
          "duration": 0.011627906976741542
        },
        {
          "name": "G1",
          "midi": 31,
          "time": 94.1744186046402,
          "velocity": 0.5984251968503937,
          "duration": 0.023255813953483084
        },
        {
          "name": "F#1",
          "midi": 30,
          "time": 94.19767441859368,
          "velocity": 0.6456692913385826,
          "duration": 0.023255813953483084
        },
        {
          "name": "G1",
          "midi": 31,
          "time": 94.22093023254716,
          "velocity": 0.7716535433070866,
          "duration": 0.10465116279068809
        },
        {
          "name": "D#7",
          "midi": 99,
          "time": 94.22093023254716,
          "velocity": 0.18110236220472442,
          "duration": 0.06976744186046346
        },
        {
          "name": "A#5",
          "midi": 82,
          "time": 94.26744186045414,
          "velocity": 0.1732283464566929,
          "duration": 0.034883720930224626
        },
        {
          "name": "F6",
          "midi": 89,
          "time": 94.26744186045414,
          "velocity": 0.10236220472440945,
          "duration": 0.034883720930224626
        },
        {
          "name": "C4",
          "midi": 60,
          "time": 94.30232558138437,
          "velocity": 0.2440944881889764,
          "duration": 0.0813953488371908
        },
        {
          "name": "G#1",
          "midi": 32,
          "time": 94.32558139533785,
          "velocity": 0.7322834645669292,
          "duration": 0.023255813953483084
        },
        {
          "name": "A1",
          "midi": 33,
          "time": 94.34883720929133,
          "velocity": 0.6850393700787402,
          "duration": 0.023255813953483084
        },
        {
          "name": "D#7",
          "midi": 99,
          "time": 94.34883720929133,
          "velocity": 0.1732283464566929,
          "duration": 0.30232558139533694
        },
        {
          "name": "G#1",
          "midi": 32,
          "time": 94.37209302324482,
          "velocity": 0.6929133858267716,
          "duration": 0.3488372093023031
        },
        {
          "name": "G#4",
          "midi": 68,
          "time": 94.37209302324482,
          "velocity": 0.5354330708661418,
          "duration": 0.2325581395348877
        },
        {
          "name": "F#5",
          "midi": 78,
          "time": 94.38372093022156,
          "velocity": 0.12598425196850394,
          "duration": 0.03488372093023884
        },
        {
          "name": "A#5",
          "midi": 82,
          "time": 94.38372093022156,
          "velocity": 0.23622047244094488,
          "duration": 0.11627906976745805
        },
        {
          "name": "D#6",
          "midi": 87,
          "time": 94.38372093022156,
          "velocity": 0.25984251968503935,
          "duration": 0.18604651162792152
        },
        {
          "name": "F6",
          "midi": 89,
          "time": 94.38372093022156,
          "velocity": 0.14173228346456693,
          "duration": 0.03488372093023884
        },
        {
          "name": "G6",
          "midi": 91,
          "time": 94.38372093022156,
          "velocity": 0.12598425196850394,
          "duration": 0.03488372093023884
        },
        {
          "name": "C4",
          "midi": 60,
          "time": 94.46511627905878,
          "velocity": 0.31496062992125984,
          "duration": 0.04651162790698038
        },
        {
          "name": "G#3",
          "midi": 56,
          "time": 94.51162790696576,
          "velocity": 0.1968503937007874,
          "duration": 0.04651162790698038
        },
        {
          "name": "C4",
          "midi": 60,
          "time": 94.55813953487274,
          "velocity": 0.4330708661417323,
          "duration": 0.37209302325574356
        },
        {
          "name": "D3",
          "midi": 50,
          "time": 94.59302325580296,
          "velocity": 0.4251968503937008,
          "duration": 0.023255813953483084
        },
        {
          "name": "E5",
          "midi": 76,
          "time": 94.59302325580296,
          "velocity": 0.44881889763779526,
          "duration": 0.023255813953483084
        },
        {
          "name": "A5",
          "midi": 81,
          "time": 94.59302325580296,
          "velocity": 0.4094488188976378,
          "duration": 0.034883720930224626
        },
        {
          "name": "C#5",
          "midi": 73,
          "time": 94.6046511627797,
          "velocity": 0.2755905511811024,
          "duration": 0.023255813953483084
        },
        {
          "name": "B5",
          "midi": 83,
          "time": 94.6046511627797,
          "velocity": 0.2992125984251969,
          "duration": 0.034883720930224626
        },
        {
          "name": "D#6",
          "midi": 87,
          "time": 94.6046511627797,
          "velocity": 0.11811023622047244,
          "duration": 0.034883720930224626
        },
        {
          "name": "D#3",
          "midi": 51,
          "time": 94.61627906975644,
          "velocity": 0.5511811023622047,
          "duration": 0.4069767441859966
        },
        {
          "name": "G#4",
          "midi": 68,
          "time": 94.61627906975644,
          "velocity": 0.3543307086614173,
          "duration": 0.1395348837208985
        },
        {
          "name": "D#5",
          "midi": 75,
          "time": 94.61627906975644,
          "velocity": 0.49606299212598426,
          "duration": 0.09302325581393234
        },
        {
          "name": "G5",
          "midi": 79,
          "time": 94.61627906975644,
          "velocity": 0.31496062992125984,
          "duration": 0.023255813953483084
        },
        {
          "name": "C6",
          "midi": 84,
          "time": 94.61627906975644,
          "velocity": 0.30708661417322836,
          "duration": 0.11627906976741542
        },
        {
          "name": "G#5",
          "midi": 80,
          "time": 94.62790697673319,
          "velocity": 0.3700787401574803,
          "duration": 0.09302325581393234
        },
        {
          "name": "A#4",
          "midi": 70,
          "time": 94.67441860464015,
          "velocity": 0.29133858267716534,
          "duration": 0.09302325581393234
        },
        {
          "name": "D#7",
          "midi": 99,
          "time": 94.67441860464015,
          "velocity": 0.07874015748031496,
          "duration": 0.034883720930224626
        },
        {
          "name": "F6",
          "midi": 89,
          "time": 94.69767441859364,
          "velocity": 0.2755905511811024,
          "duration": 0.0813953488371908
        },
        {
          "name": "F#6",
          "midi": 90,
          "time": 94.69767441859364,
          "velocity": 0.25196850393700787,
          "duration": 0.0813953488371908
        },
        {
          "name": "A6",
          "midi": 93,
          "time": 94.69767441859364,
          "velocity": 0.3858267716535433,
          "duration": 0.023255813953483084
        },
        {
          "name": "E5",
          "midi": 76,
          "time": 94.70930232557038,
          "velocity": 0.28346456692913385,
          "duration": 0.034883720930224626
        },
        {
          "name": "B5",
          "midi": 83,
          "time": 94.70930232557038,
          "velocity": 0.3228346456692913,
          "duration": 0.034883720930224626
        },
        {
          "name": "C#6",
          "midi": 85,
          "time": 94.70930232557038,
          "velocity": 0.3779527559055118,
          "duration": 0.05813953488370771
        },
        {
          "name": "A#6",
          "midi": 94,
          "time": 94.70930232557038,
          "velocity": 0.31496062992125984,
          "duration": 0.10465116279067388
        },
        {
          "name": "D7",
          "midi": 98,
          "time": 94.70930232557038,
          "velocity": 0.2755905511811024,
          "duration": 0.10465116279067388
        },
        {
          "name": "G7",
          "midi": 103,
          "time": 94.70930232557038,
          "velocity": 0.2677165354330709,
          "duration": 0.09302325581393234
        },
        {
          "name": "A1",
          "midi": 33,
          "time": 94.72093023254712,
          "velocity": 0.5905511811023622,
          "duration": 0.011627906976741542
        },
        {
          "name": "C#5",
          "midi": 73,
          "time": 94.72093023254712,
          "velocity": 0.3779527559055118,
          "duration": 0.06976744186044925
        },
        {
          "name": "G5",
          "midi": 79,
          "time": 94.72093023254712,
          "velocity": 0.3779527559055118,
          "duration": 0.034883720930224626
        },
        {
          "name": "D#6",
          "midi": 87,
          "time": 94.72093023254712,
          "velocity": 0.2755905511811024,
          "duration": 0.1395348837208985
        },
        {
          "name": "E6",
          "midi": 88,
          "time": 94.72093023254712,
          "velocity": 0.28346456692913385,
          "duration": 0.05813953488370771
        },
        {
          "name": "D#5",
          "midi": 75,
          "time": 94.73255813952386,
          "velocity": 0.3779527559055118,
          "duration": 0.30232558139532273
        },
        {
          "name": "A6",
          "midi": 93,
          "time": 94.73255813952386,
          "velocity": 0.31496062992125984,
          "duration": 0.05813953488370771
        },
        {
          "name": "C6",
          "midi": 84,
          "time": 94.7441860465006,
          "velocity": 0.36220472440944884,
          "duration": 0.034883720930224626
        },
        {
          "name": "B6",
          "midi": 95,
          "time": 94.7441860465006,
          "velocity": 0.1732283464566929,
          "duration": 0.034883720930224626
        },
        {
          "name": "D#7",
          "midi": 99,
          "time": 94.7441860465006,
          "velocity": 0.2992125984251969,
          "duration": 0.09302325581393234
        },
        {
          "name": "G#5",
          "midi": 80,
          "time": 94.75581395347734,
          "velocity": 0.3543307086614173,
          "duration": 0.19767441860462043
        },
        {
          "name": "B5",
          "midi": 83,
          "time": 94.75581395347734,
          "velocity": 0.1968503937007874,
          "duration": 0.034883720930224626
        },
        {
          "name": "G#4",
          "midi": 68,
          "time": 94.76744186045408,
          "velocity": 0.2204724409448819,
          "duration": 0.1627906976743958
        },
        {
          "name": "G#3",
          "midi": 56,
          "time": 94.80232558138431,
          "velocity": 0.1968503937007874,
          "duration": 0.06976744186044925
        },
        {
          "name": "E4",
          "midi": 64,
          "time": 94.91860465115174,
          "velocity": 0.3937007874015748,
          "duration": 0.023255813953483084
        },
        {
          "name": "D#7",
          "midi": 99,
          "time": 94.91860465115174,
          "velocity": 0.11023622047244094,
          "duration": 0.034883720930224626
        },
        {
          "name": "A#5",
          "midi": 82,
          "time": 94.93023255812848,
          "velocity": 0.31496062992125984,
          "duration": 0.1046511627907023
        },
        {
          "name": "G#4",
          "midi": 68,
          "time": 94.94186046510522,
          "velocity": 0.2677165354330709,
          "duration": 0.1046511627907023
        },
        {
          "name": "C5",
          "midi": 72,
          "time": 94.94186046510522,
          "velocity": 0.6220472440944882,
          "duration": 0.5232558139534262
        },
        {
          "name": "G#5",
          "midi": 80,
          "time": 94.9883720930122,
          "velocity": 0.4645669291338583,
          "duration": 0.23255813953485927
        },
        {
          "name": "E5",
          "midi": 76,
          "time": 95.03488372091918,
          "velocity": 0.25984251968503935,
          "duration": 0.023255813953483084
        },
        {
          "name": "D#6",
          "midi": 87,
          "time": 95.03488372091918,
          "velocity": 0.33070866141732286,
          "duration": 0.23255813953484505
        },
        {
          "name": "F6",
          "midi": 89,
          "time": 95.03488372091918,
          "velocity": 0.29133858267716534,
          "duration": 0.034883720930224626
        },
        {
          "name": "G6",
          "midi": 91,
          "time": 95.03488372091918,
          "velocity": 0.2047244094488189,
          "duration": 0.05813953488370771
        },
        {
          "name": "C4",
          "midi": 60,
          "time": 95.04651162789592,
          "velocity": 0.4330708661417323,
          "duration": 0.17441860465113734
        },
        {
          "name": "A#5",
          "midi": 82,
          "time": 95.04651162789592,
          "velocity": 0.3779527559055118,
          "duration": 0.12790697674417117
        },
        {
          "name": "C#6",
          "midi": 85,
          "time": 95.04651162789592,
          "velocity": 0.30708661417322836,
          "duration": 0.023255813953483084
        },
        {
          "name": "F#6",
          "midi": 90,
          "time": 95.04651162789592,
          "velocity": 0.25984251968503935,
          "duration": 0.06976744186044925
        },
        {
          "name": "G#4",
          "midi": 68,
          "time": 95.05813953487267,
          "velocity": 0.6535433070866141,
          "duration": 0.3023255813953085
        },
        {
          "name": "G5",
          "midi": 79,
          "time": 95.05813953487267,
          "velocity": 0.48031496062992124,
          "duration": 0.05813953488370771
        },
        {
          "name": "D#4",
          "midi": 63,
          "time": 95.06976744184941,
          "velocity": 0.4015748031496063,
          "duration": 0.034883720930224626
        },
        {
          "name": "D#4",
          "midi": 63,
          "time": 95.11627906975637,
          "velocity": 0.2992125984251969,
          "duration": 0.03488372093023884
        },
        {
          "name": "G#3",
          "midi": 56,
          "time": 95.15116279068661,
          "velocity": 0.1732283464566929,
          "duration": 0.04651162790696617
        },
        {
          "name": "D#4",
          "midi": 63,
          "time": 95.18604651161684,
          "velocity": 0.23622047244094488,
          "duration": 0.06976744186044925
        },
        {
          "name": "A#5",
          "midi": 82,
          "time": 95.24418604650054,
          "velocity": 0.16535433070866143,
          "duration": 0.0813953488371908
        },
        {
          "name": "G6",
          "midi": 91,
          "time": 95.25581395347729,
          "velocity": 0.14960629921259844,
          "duration": 0.05813953488370771
        },
        {
          "name": "G#3",
          "midi": 56,
          "time": 95.27906976743077,
          "velocity": 0.09448818897637795,
          "duration": 0.081395348837205
        },
        {
          "name": "C4",
          "midi": 60,
          "time": 95.27906976743077,
          "velocity": 0.1968503937007874,
          "duration": 0.081395348837205
        },
        {
          "name": "D#5",
          "midi": 75,
          "time": 95.29069767440751,
          "velocity": 0.25196850393700787,
          "duration": 0.290697674418567
        },
        {
          "name": "F3",
          "midi": 53,
          "time": 95.36046511626797,
          "velocity": 0.6535433070866141,
          "duration": 0.04651162790696617
        },
        {
          "name": "G5",
          "midi": 79,
          "time": 95.36046511626797,
          "velocity": 0.23622047244094488,
          "duration": 0.023255813953483084
        },
        {
          "name": "B5",
          "midi": 83,
          "time": 95.36046511626797,
          "velocity": 0.23622047244094488,
          "duration": 0.04651162790696617
        },
        {
          "name": "A2",
          "midi": 45,
          "time": 95.37209302324472,
          "velocity": 0.6614173228346457,
          "duration": 0.011627906976741542
        },
        {
          "name": "F2",
          "midi": 41,
          "time": 95.38372093022146,
          "velocity": 0.7716535433070866,
          "duration": 0.011627906976741542
        },
        {
          "name": "E2",
          "midi": 40,
          "time": 95.3953488371982,
          "velocity": 0.8110236220472441,
          "duration": 0.011627906976741542
        },
        {
          "name": "G5",
          "midi": 79,
          "time": 95.3953488371982,
          "velocity": 0.15748031496062992,
          "duration": 0.05813953488370771
        },
        {
          "name": "D2",
          "midi": 38,
          "time": 95.40697674417494,
          "velocity": 0.8267716535433071,
          "duration": 0.011627906976741542
        },
        {
          "name": "B1",
          "midi": 35,
          "time": 95.41860465115168,
          "velocity": 0.8267716535433071,
          "duration": 0.011627906976741542
        },
        {
          "name": "A#1",
          "midi": 34,
          "time": 95.43023255812842,
          "velocity": 0.8110236220472441,
          "duration": 0.011627906976741542
        },
        {
          "name": "F3",
          "midi": 53,
          "time": 95.43023255812842,
          "velocity": 0.25196850393700787,
          "duration": 0.023255813953483084
        },
        {
          "name": "A1",
          "midi": 33,
          "time": 95.44186046510517,
          "velocity": 0.7952755905511811,
          "duration": 0.034883720930224626
        },
        {
          "name": "G#4",
          "midi": 68,
          "time": 95.44186046510517,
          "velocity": 0.1889763779527559,
          "duration": 0.12790697674417117
        },
        {
          "name": "F3",
          "midi": 53,
          "time": 95.46511627905865,
          "velocity": 0.3543307086614173,
          "duration": 0.12790697674417117
        },
        {
          "name": "A#5",
          "midi": 82,
          "time": 95.46511627905865,
          "velocity": 0.1889763779527559,
          "duration": 0.034883720930224626
        },
        {
          "name": "C6",
          "midi": 84,
          "time": 95.46511627905865,
          "velocity": 0.15748031496062992,
          "duration": 0.034883720930224626
        },
        {
          "name": "G#1",
          "midi": 32,
          "time": 95.47674418603539,
          "velocity": 0.6692913385826772,
          "duration": 0.011627906976741542
        },
        {
          "name": "F#1",
          "midi": 30,
          "time": 95.48837209301213,
          "velocity": 0.5905511811023622,
          "duration": 0.011627906976741542
        },
        {
          "name": "D#1",
          "midi": 27,
          "time": 95.49999999998887,
          "velocity": 0.5905511811023622,
          "duration": 0.011627906976741542
        },
        {
          "name": "A#2",
          "midi": 46,
          "time": 95.49999999998887,
          "velocity": 0.3937007874015748,
          "duration": 0.023255813953483084
        },
        {
          "name": "F#1",
          "midi": 30,
          "time": 95.51162790696561,
          "velocity": 0.6771653543307087,
          "duration": 0.011627906976741542
        },
        {
          "name": "G#1",
          "midi": 32,
          "time": 95.52325581394236,
          "velocity": 0.7795275590551181,
          "duration": 0.03488372093023884
        },
        {
          "name": "F4",
          "midi": 65,
          "time": 95.52325581394236,
          "velocity": 0.4015748031496063,
          "duration": 0.19767441860463464
        },
        {
          "name": "A1",
          "midi": 33,
          "time": 95.5581395348726,
          "velocity": 0.7637795275590551,
          "duration": 0.023255813953483084
        },
        {
          "name": "C#4",
          "midi": 61,
          "time": 95.56976744184934,
          "velocity": 0.4015748031496063,
          "duration": 0.15116279069765426
        },
        {
          "name": "F#5",
          "midi": 78,
          "time": 95.56976744184934,
          "velocity": 0.2047244094488189,
          "duration": 0.034883720930224626
        },
        {
          "name": "C#6",
          "midi": 85,
          "time": 95.56976744184934,
          "velocity": 0.33070866141732286,
          "duration": 0.15116279069765426
        },
        {
          "name": "G6",
          "midi": 91,
          "time": 95.56976744184934,
          "velocity": 0.2992125984251969,
          "duration": 0.034883720930224626
        },
        {
          "name": "G#6",
          "midi": 92,
          "time": 95.56976744184934,
          "velocity": 0.23622047244094488,
          "duration": 0.09302325581393234
        },
        {
          "name": "A#1",
          "midi": 34,
          "time": 95.58139534882608,
          "velocity": 0.6456692913385826,
          "duration": 0.011627906976741542
        },
        {
          "name": "A#5",
          "midi": 82,
          "time": 95.58139534882608,
          "velocity": 0.13385826771653545,
          "duration": 0.15116279069765426
        },
        {
          "name": "C2",
          "midi": 36,
          "time": 95.59302325580282,
          "velocity": 0.6220472440944882,
          "duration": 0.011627906976741542
        },
        {
          "name": "F#3",
          "midi": 54,
          "time": 95.59302325580282,
          "velocity": 0.25196850393700787,
          "duration": 0.023255813953483084
        },
        {
          "name": "A#4",
          "midi": 70,
          "time": 95.59302325580282,
          "velocity": 0.5984251968503937,
          "duration": 0.5581395348836367
        },
        {
          "name": "F5",
          "midi": 77,
          "time": 95.59302325580282,
          "velocity": 0.4015748031496063,
          "duration": 0.25581395348834235
        },
        {
          "name": "D6",
          "midi": 86,
          "time": 95.59302325580282,
          "velocity": 0.25984251968503935,
          "duration": 0.034883720930224626
        },
        {
          "name": "F#6",
          "midi": 90,
          "time": 95.59302325580282,
          "velocity": 0.2440944881889764,
          "duration": 0.023255813953483084
        },
        {
          "name": "B1",
          "midi": 35,
          "time": 95.60465116277956,
          "velocity": 0.6850393700787402,
          "duration": 0.011627906976741542
        },
        {
          "name": "C6",
          "midi": 84,
          "time": 95.60465116277956,
          "velocity": 0.33858267716535434,
          "duration": 0.19767441860463464
        },
        {
          "name": "A#1",
          "midi": 34,
          "time": 95.6162790697563,
          "velocity": 0.7322834645669292,
          "duration": 0.011627906976741542
        },
        {
          "name": "F3",
          "midi": 53,
          "time": 95.6162790697563,
          "velocity": 0.33858267716535434,
          "duration": 0.10465116279068809
        },
        {
          "name": "A1",
          "midi": 33,
          "time": 95.62790697673304,
          "velocity": 0.7559055118110236,
          "duration": 0.023255813953483084
        },
        {
          "name": "C5",
          "midi": 72,
          "time": 95.62790697673304,
          "velocity": 0.23622047244094488,
          "duration": 0.05813953488370771
        },
        {
          "name": "A#1",
          "midi": 34,
          "time": 95.65116279068653,
          "velocity": 0.7401574803149606,
          "duration": 0.372093023255772
        },
        {
          "name": "G5",
          "midi": 79,
          "time": 95.68604651161675,
          "velocity": 0.1968503937007874,
          "duration": 0.04651162790698038
        },
        {
          "name": "E4",
          "midi": 64,
          "time": 95.72093023254699,
          "velocity": 0.3464566929133858,
          "duration": 0.023255813953483084
        },
        {
          "name": "F3",
          "midi": 53,
          "time": 95.73255813952373,
          "velocity": 0.29133858267716534,
          "duration": 0.17441860465115155
        },
        {
          "name": "C#4",
          "midi": 61,
          "time": 95.73255813952373,
          "velocity": 0.5118110236220472,
          "duration": 0.10465116279068809
        },
        {
          "name": "G#5",
          "midi": 80,
          "time": 95.73255813952373,
          "velocity": 0.28346456692913385,
          "duration": 0.12790697674417117
        },
        {
          "name": "F4",
          "midi": 65,
          "time": 95.74418604650047,
          "velocity": 0.3937007874015748,
          "duration": 0.4883720930231874
        },
        {
          "name": "A#3",
          "midi": 58,
          "time": 95.81395348836094,
          "velocity": 0.5433070866141733,
          "duration": 0.18604651162787889
        },
        {
          "name": "C#4",
          "midi": 61,
          "time": 95.8604651162679,
          "velocity": 0.18110236220472442,
          "duration": 0.03488372093023884
        },
        {
          "name": "G#5",
          "midi": 80,
          "time": 95.89534883719814,
          "velocity": 0.08661417322834646,
          "duration": 0.05813953488370771
        },
        {
          "name": "F5",
          "midi": 77,
          "time": 95.90697674417488,
          "velocity": 0.5433070866141733,
          "duration": 0.441860465116207
        },
        {
          "name": "C7",
          "midi": 96,
          "time": 95.90697674417488,
          "velocity": 0.1732283464566929,
          "duration": 0.034883720930224626
        },
        {
          "name": "D7",
          "midi": 98,
          "time": 95.90697674417488,
          "velocity": 0.14173228346456693,
          "duration": 0.034883720930224626
        },
        {
          "name": "D#7",
          "midi": 99,
          "time": 95.90697674417488,
          "velocity": 0.18110236220472442,
          "duration": 0.034883720930224626
        },
        {
          "name": "E7",
          "midi": 100,
          "time": 95.90697674417488,
          "velocity": 0.2283464566929134,
          "duration": 0.023255813953483084
        },
        {
          "name": "F#7",
          "midi": 102,
          "time": 95.90697674417488,
          "velocity": 0.2283464566929134,
          "duration": 0.034883720930224626
        },
        {
          "name": "C#5",
          "midi": 73,
          "time": 95.91860465115163,
          "velocity": 0.2755905511811024,
          "duration": 0.10465116279067388
        },
        {
          "name": "C6",
          "midi": 84,
          "time": 95.91860465115163,
          "velocity": 0.12598425196850394,
          "duration": 0.05813953488370771
        },
        {
          "name": "F3",
          "midi": 53,
          "time": 95.95348837208185,
          "velocity": 0.28346456692913385,
          "duration": 0.06976744186044925
        },
        {
          "name": "A3",
          "midi": 57,
          "time": 95.99999999998882,
          "velocity": 0.25984251968503935,
          "duration": 0.023255813953483084
        },
        {
          "name": "C#4",
          "midi": 61,
          "time": 95.99999999998882,
          "velocity": 0.2992125984251969,
          "duration": 0.034883720930224626
        },
        {
          "name": "D5",
          "midi": 74,
          "time": 96.01162790696556,
          "velocity": 0.4015748031496063,
          "duration": 0.034883720930224626
        },
        {
          "name": "A5",
          "midi": 81,
          "time": 96.01162790696556,
          "velocity": 0.3858267716535433,
          "duration": 0.034883720930224626
        },
        {
          "name": "B5",
          "midi": 83,
          "time": 96.01162790696556,
          "velocity": 0.3779527559055118,
          "duration": 0.034883720930224626
        },
        {
          "name": "C#6",
          "midi": 85,
          "time": 96.01162790696556,
          "velocity": 0.4015748031496063,
          "duration": 0.1395348837208985
        },
        {
          "name": "G6",
          "midi": 91,
          "time": 96.01162790696556,
          "velocity": 0.3464566929133858,
          "duration": 0.09302325581393234
        },
        {
          "name": "A6",
          "midi": 93,
          "time": 96.01162790696556,
          "velocity": 0.4015748031496063,
          "duration": 0.11627906976741542
        },
        {
          "name": "A#6",
          "midi": 94,
          "time": 96.01162790696556,
          "velocity": 0.28346456692913385,
          "duration": 0.023255813953483084
        },
        {
          "name": "D7",
          "midi": 98,
          "time": 96.01162790696556,
          "velocity": 0.2440944881889764,
          "duration": 0.10465116279067388
        },
        {
          "name": "D#7",
          "midi": 99,
          "time": 96.01162790696556,
          "velocity": 0.2992125984251969,
          "duration": 0.11627906976741542
        },
        {
          "name": "B1",
          "midi": 35,
          "time": 96.0232558139423,
          "velocity": 0.6141732283464567,
          "duration": 0.023255813953483084
        },
        {
          "name": "D#6",
          "midi": 87,
          "time": 96.0232558139423,
          "velocity": 0.31496062992125984,
          "duration": 0.04651162790696617
        },
        {
          "name": "E6",
          "midi": 88,
          "time": 96.0232558139423,
          "velocity": 0.30708661417322836,
          "duration": 0.0813953488371908
        },
        {
          "name": "G#6",
          "midi": 92,
          "time": 96.0232558139423,
          "velocity": 0.3858267716535433,
          "duration": 0.034883720930224626
        },
        {
          "name": "E7",
          "midi": 100,
          "time": 96.0232558139423,
          "velocity": 0.33858267716535434,
          "duration": 0.11627906976741542
        },
        {
          "name": "F#7",
          "midi": 102,
          "time": 96.0232558139423,
          "velocity": 0.23622047244094488,
          "duration": 0.10465116279067388
        },
        {
          "name": "D#5",
          "midi": 75,
          "time": 96.03488372091904,
          "velocity": 0.23622047244094488,
          "duration": 0.034883720930224626
        },
        {
          "name": "G#5",
          "midi": 80,
          "time": 96.03488372091904,
          "velocity": 0.4251968503937008,
          "duration": 0.25581395348834235
        },
        {
          "name": "C6",
          "midi": 84,
          "time": 96.03488372091904,
          "velocity": 0.3543307086614173,
          "duration": 0.034883720930224626
        },
        {
          "name": "A#3",
          "midi": 58,
          "time": 96.04651162789578,
          "velocity": 0.4251968503937008,
          "duration": 0.33720930232553314
        },
        {
          "name": "C#5",
          "midi": 73,
          "time": 96.04651162789578,
          "velocity": 0.4015748031496063,
          "duration": 0.3023255813953085
        },
        {
          "name": "F#6",
          "midi": 90,
          "time": 96.04651162789578,
          "velocity": 0.28346456692913385,
          "duration": 0.05813953488370771
        },
        {
          "name": "B5",
          "midi": 83,
          "time": 96.06976744184927,
          "velocity": 0.18110236220472442,
          "duration": 0.04651162790696617
        },
        {
          "name": "C6",
          "midi": 84,
          "time": 96.09302325580275,
          "velocity": 0.16535433070866143,
          "duration": 0.0813953488371908
        },
        {
          "name": "F4",
          "midi": 65,
          "time": 96.2441860465004,
          "velocity": 0.4094488188976378,
          "duration": 0.09302325581394655
        },
        {
          "name": "C6",
          "midi": 84,
          "time": 96.2441860465004,
          "velocity": 0.23622047244094488,
          "duration": 0.19767441860463464
        },
        {
          "name": "G#5",
          "midi": 80,
          "time": 96.31395348836087,
          "velocity": 0.2283464566929134,
          "duration": 0.034883720930224626
        },
        {
          "name": "C#4",
          "midi": 61,
          "time": 96.32558139533761,
          "velocity": 0.3937007874015748,
          "duration": 0.10465116279068809
        },
        {
          "name": "E4",
          "midi": 64,
          "time": 96.33720930231435,
          "velocity": 0.3858267716535433,
          "duration": 0.023255813953483084
        },
        {
          "name": "D#6",
          "midi": 87,
          "time": 96.33720930231435,
          "velocity": 0.31496062992125984,
          "duration": 0.05813953488370771
        },
        {
          "name": "G6",
          "midi": 91,
          "time": 96.33720930231435,
          "velocity": 0.1889763779527559,
          "duration": 0.04651162790696617
        },
        {
          "name": "F#6",
          "midi": 90,
          "time": 96.34883720929109,
          "velocity": 0.2440944881889764,
          "duration": 0.04651162790696617
        },
        {
          "name": "G#6",
          "midi": 92,
          "time": 96.34883720929109,
          "velocity": 0.2047244094488189,
          "duration": 0.034883720930224626
        },
        {
          "name": "F4",
          "midi": 65,
          "time": 96.36046511626783,
          "velocity": 0.5984251968503937,
          "duration": 0.9651162790696617
        },
        {
          "name": "A#4",
          "midi": 70,
          "time": 96.36046511626783,
          "velocity": 0.5748031496062992,
          "duration": 0.33720930232554736
        },
        {
          "name": "G#5",
          "midi": 80,
          "time": 96.36046511626783,
          "velocity": 0.3937007874015748,
          "duration": 0.16279069767441
        },
        {
          "name": "A6",
          "midi": 93,
          "time": 96.36046511626783,
          "velocity": 0.13385826771653545,
          "duration": 0.034883720930224626
        },
        {
          "name": "D6",
          "midi": 86,
          "time": 96.37209302324457,
          "velocity": 0.18110236220472442,
          "duration": 0.13953488372092693
        },
        {
          "name": "C#4",
          "midi": 61,
          "time": 96.45348837208178,
          "velocity": 0.2283464566929134,
          "duration": 0.11627906976744384
        },
        {
          "name": "C#5",
          "midi": 73,
          "time": 96.45348837208178,
          "velocity": 0.4645669291338583,
          "duration": 0.4069767441859966
        },
        {
          "name": "A5",
          "midi": 81,
          "time": 96.55813953487248,
          "velocity": 0.2677165354330709,
          "duration": 0.023255813953483084
        },
        {
          "name": "G#6",
          "midi": 92,
          "time": 96.55813953487248,
          "velocity": 0.1732283464566929,
          "duration": 0.09302325581393234
        },
        {
          "name": "C6",
          "midi": 84,
          "time": 96.56976744184922,
          "velocity": 0.2440944881889764,
          "duration": 0.1627906976743816
        },
        {
          "name": "A#3",
          "midi": 58,
          "time": 96.58139534882596,
          "velocity": 0.33858267716535434,
          "duration": 0.04651162790696617
        },
        {
          "name": "C#4",
          "midi": 61,
          "time": 96.60465116277945,
          "velocity": 0.3937007874015748,
          "duration": 0.06976744186044925
        },
        {
          "name": "A#3",
          "midi": 58,
          "time": 96.63953488370967,
          "velocity": 0.28346456692913385,
          "duration": 0.023255813953483084
        },
        {
          "name": "D6",
          "midi": 86,
          "time": 96.66279069766316,
          "velocity": 0.2992125984251969,
          "duration": 0.05813953488370771
        },
        {
          "name": "D#6",
          "midi": 87,
          "time": 96.66279069766316,
          "velocity": 0.2755905511811024,
          "duration": 0.034883720930224626
        },
        {
          "name": "C3",
          "midi": 48,
          "time": 96.6744186046399,
          "velocity": 0.6850393700787402,
          "duration": 0.011627906976741542
        },
        {
          "name": "E5",
          "midi": 76,
          "time": 96.6744186046399,
          "velocity": 0.33858267716535434,
          "duration": 0.023255813953483084
        },
        {
          "name": "G#5",
          "midi": 80,
          "time": 96.6744186046399,
          "velocity": 0.25984251968503935,
          "duration": 0.04651162790696617
        },
        {
          "name": "A2",
          "midi": 45,
          "time": 96.68604651161664,
          "velocity": 0.7637795275590551,
          "duration": 0.011627906976741542
        },
        {
          "name": "C#4",
          "midi": 61,
          "time": 96.68604651161664,
          "velocity": 0.4094488188976378,
          "duration": 0.023255813953483084
        },
        {
          "name": "B5",
          "midi": 83,
          "time": 96.68604651161664,
          "velocity": 0.1968503937007874,
          "duration": 0.04651162790696617
        },
        {
          "name": "F2",
          "midi": 41,
          "time": 96.69767441859338,
          "velocity": 0.7952755905511811,
          "duration": 0.011627906976741542
        },
        {
          "name": "G#4",
          "midi": 68,
          "time": 96.69767441859338,
          "velocity": 0.2755905511811024,
          "duration": 0.04651162790696617
        },
        {
          "name": "D#5",
          "midi": 75,
          "time": 96.69767441859338,
          "velocity": 0.4330708661417323,
          "duration": 0.453488372092977
        },
        {
          "name": "C#2",
          "midi": 37,
          "time": 96.70930232557012,
          "velocity": 0.8031496062992126,
          "duration": 0.011627906976741542
        },
        {
          "name": "F3",
          "midi": 53,
          "time": 96.70930232557012,
          "velocity": 0.5118110236220472,
          "duration": 0.19767441860462043
        },
        {
          "name": "B1",
          "midi": 35,
          "time": 96.72093023254686,
          "velocity": 0.8031496062992126,
          "duration": 0.011627906976741542
        },
        {
          "name": "A#3",
          "midi": 58,
          "time": 96.72093023254686,
          "velocity": 0.2755905511811024,
          "duration": 0.023255813953483084
        },
        {
          "name": "A1",
          "midi": 33,
          "time": 96.7325581395236,
          "velocity": 0.7874015748031497,
          "duration": 0.011627906976741542
        },
        {
          "name": "C#4",
          "midi": 61,
          "time": 96.7325581395236,
          "velocity": 0.1889763779527559,
          "duration": 0.2441860465116008
        },
        {
          "name": "G#1",
          "midi": 32,
          "time": 96.74418604650035,
          "velocity": 0.7716535433070866,
          "duration": 0.03488372093023884
        },
        {
          "name": "A1",
          "midi": 33,
          "time": 96.77906976743058,
          "velocity": 0.6456692913385826,
          "duration": 0.011627906976741542
        },
        {
          "name": "A#1",
          "midi": 34,
          "time": 96.79069767440733,
          "velocity": 0.6299212598425197,
          "duration": 0.011627906976741542
        },
        {
          "name": "G#1",
          "midi": 32,
          "time": 96.80232558138407,
          "velocity": 0.6692913385826772,
          "duration": 0.011627906976741542
        },
        {
          "name": "G#4",
          "midi": 68,
          "time": 96.80232558138407,
          "velocity": 0.2440944881889764,
          "duration": 0.19767441860462043
        },
        {
          "name": "G1",
          "midi": 31,
          "time": 96.81395348836081,
          "velocity": 0.7244094488188977,
          "duration": 0.023255813953483084
        },
        {
          "name": "F#1",
          "midi": 30,
          "time": 96.83720930231429,
          "velocity": 0.7637795275590551,
          "duration": 0.0813953488371908
        },
        {
          "name": "C5",
          "midi": 72,
          "time": 96.84883720929103,
          "velocity": 0.28346456692913385,
          "duration": 0.04651162790696617
        },
        {
          "name": "A5",
          "midi": 81,
          "time": 96.88372093022126,
          "velocity": 0.1732283464566929,
          "duration": 0.034883720930224626
        },
        {
          "name": "B5",
          "midi": 83,
          "time": 96.88372093022126,
          "velocity": 0.1732283464566929,
          "duration": 0.034883720930224626
        },
        {
          "name": "C5",
          "midi": 72,
          "time": 96.90697674417474,
          "velocity": 0.2125984251968504,
          "duration": 0.10465116279068809
        },
        {
          "name": "F1",
          "midi": 29,
          "time": 96.91860465115148,
          "velocity": 0.7322834645669292,
          "duration": 0.04651162790698038
        },
        {
          "name": "C3",
          "midi": 48,
          "time": 96.91860465115148,
          "velocity": 0.3937007874015748,
          "duration": 0.4069767441860108
        },
        {
          "name": "E1",
          "midi": 28,
          "time": 96.96511627905846,
          "velocity": 0.6614173228346457,
          "duration": 0.011627906976741542
        },
        {
          "name": "F1",
          "midi": 29,
          "time": 96.9767441860352,
          "velocity": 0.6614173228346457,
          "duration": 0.36046511627903044
        },
        {
          "name": "A3",
          "midi": 57,
          "time": 96.98837209301195,
          "velocity": 0.4251968503937008,
          "duration": 0.05813953488370771
        },
        {
          "name": "G#5",
          "midi": 80,
          "time": 96.99999999998869,
          "velocity": 0.1732283464566929,
          "duration": 0.034883720930224626
        },
        {
          "name": "A5",
          "midi": 81,
          "time": 96.99999999998869,
          "velocity": 0.16535433070866143,
          "duration": 0.05813953488370771
        },
        {
          "name": "C#4",
          "midi": 61,
          "time": 97.01162790696543,
          "velocity": 0.4015748031496063,
          "duration": 0.081395348837205
        },
        {
          "name": "G#4",
          "midi": 68,
          "time": 97.03488372091891,
          "velocity": 0.2283464566929134,
          "duration": 0.17441860465116577
        },
        {
          "name": "G#3",
          "midi": 56,
          "time": 97.04651162789565,
          "velocity": 0.4015748031496063,
          "duration": 0.11627906976744384
        },
        {
          "name": "C#4",
          "midi": 61,
          "time": 97.13953488370962,
          "velocity": 0.15748031496062992,
          "duration": 0.05813953488372192
        },
        {
          "name": "C5",
          "midi": 72,
          "time": 97.1627906976631,
          "velocity": 0.5039370078740157,
          "duration": 0.10465116279068809
        },
        {
          "name": "C#4",
          "midi": 61,
          "time": 97.20930232557008,
          "velocity": 0.5039370078740157,
          "duration": 0.31395348837203585
        },
        {
          "name": "E5",
          "midi": 76,
          "time": 97.20930232557008,
          "velocity": 0.3858267716535433,
          "duration": 0.023255813953483084
        },
        {
          "name": "G#5",
          "midi": 80,
          "time": 97.20930232557008,
          "velocity": 0.3937007874015748,
          "duration": 0.20930232558134776
        },
        {
          "name": "B5",
          "midi": 83,
          "time": 97.20930232557008,
          "velocity": 0.1732283464566929,
          "duration": 0.04651162790696617
        },
        {
          "name": "D6",
          "midi": 86,
          "time": 97.20930232557008,
          "velocity": 0.2755905511811024,
          "duration": 0.023255813953483084
        },
        {
          "name": "G3",
          "midi": 55,
          "time": 97.23255813952356,
          "velocity": 0.2204724409448819,
          "duration": 0.034883720930224626
        },
        {
          "name": "G#4",
          "midi": 68,
          "time": 97.23255813952356,
          "velocity": 0.2677165354330709,
          "duration": 0.09302325581393234
        },
        {
          "name": "D#5",
          "midi": 75,
          "time": 97.23255813952356,
          "velocity": 0.4094488188976378,
          "duration": 0.09302325581393234
        },
        {
          "name": "C#6",
          "midi": 85,
          "time": 97.23255813952356,
          "velocity": 0.25984251968503935,
          "duration": 0.09302325581393234
        },
        {
          "name": "D6",
          "midi": 86,
          "time": 97.2441860465003,
          "velocity": 0.1732283464566929,
          "duration": 0.04651162790696617
        },
        {
          "name": "G#3",
          "midi": 56,
          "time": 97.26744186045379,
          "velocity": 0.25196850393700787,
          "duration": 0.05813953488370771
        },
        {
          "name": "C5",
          "midi": 72,
          "time": 97.27906976743053,
          "velocity": 0.3858267716535433,
          "duration": 0.0813953488371908
        },
        {
          "name": "D5",
          "midi": 74,
          "time": 97.31395348836075,
          "velocity": 0.33070866141732286,
          "duration": 0.023255813953483084
        },
        {
          "name": "A#5",
          "midi": 82,
          "time": 97.31395348836075,
          "velocity": 0.3228346456692913,
          "duration": 0.06976744186044925
        },
        {
          "name": "F6",
          "midi": 89,
          "time": 97.31395348836075,
          "velocity": 0.2677165354330709,
          "duration": 0.0813953488371908
        },
        {
          "name": "G#6",
          "midi": 92,
          "time": 97.31395348836075,
          "velocity": 0.4251968503937008,
          "duration": 0.06976744186044925
        },
        {
          "name": "B6",
          "midi": 95,
          "time": 97.31395348836075,
          "velocity": 0.2047244094488189,
          "duration": 0.06976744186044925
        },
        {
          "name": "A#4",
          "midi": 70,
          "time": 97.3255813953375,
          "velocity": 0.2755905511811024,
          "duration": 0.05813953488370771
        },
        {
          "name": "E5",
          "midi": 76,
          "time": 97.3255813953375,
          "velocity": 0.3228346456692913,
          "duration": 0.034883720930224626
        },
        {
          "name": "B5",
          "midi": 83,
          "time": 97.3255813953375,
          "velocity": 0.3543307086614173,
          "duration": 0.034883720930224626
        },
        {
          "name": "F#6",
          "midi": 90,
          "time": 97.3255813953375,
          "velocity": 0.30708661417322836,
          "duration": 0.04651162790696617
        },
        {
          "name": "D7",
          "midi": 98,
          "time": 97.3255813953375,
          "velocity": 0.2992125984251969,
          "duration": 0.04651162790696617
        },
        {
          "name": "G7",
          "midi": 103,
          "time": 97.3255813953375,
          "velocity": 0.30708661417322836,
          "duration": 0.09302325581393234
        },
        {
          "name": "F#1",
          "midi": 30,
          "time": 97.33720930231424,
          "velocity": 0.5354330708661418,
          "duration": 0.011627906976741542
        },
        {
          "name": "G5",
          "midi": 79,
          "time": 97.33720930231424,
          "velocity": 0.3700787401574803,
          "duration": 0.034883720930224626
        },
        {
          "name": "D#6",
          "midi": 87,
          "time": 97.33720930231424,
          "velocity": 0.23622047244094488,
          "duration": 0.04651162790696617
        },
        {
          "name": "A6",
          "midi": 93,
          "time": 97.33720930231424,
          "velocity": 0.33070866141732286,
          "duration": 0.06976744186044925
        },
        {
          "name": "D#7",
          "midi": 99,
          "time": 97.33720930231424,
          "velocity": 0.3228346456692913,
          "duration": 0.09302325581393234
        },
        {
          "name": "E7",
          "midi": 100,
          "time": 97.34883720929098,
          "velocity": 0.28346456692913385,
          "duration": 0.0813953488371908
        },
        {
          "name": "E4",
          "midi": 64,
          "time": 97.36046511626772,
          "velocity": 0.2283464566929134,
          "duration": 0.023255813953483084
        },
        {
          "name": "D#5",
          "midi": 75,
          "time": 97.36046511626772,
          "velocity": 0.30708661417322836,
          "duration": 0.06976744186044925
        },
        {
          "name": "F5",
          "midi": 77,
          "time": 97.36046511626772,
          "velocity": 0.2440944881889764,
          "duration": 0.15116279069765426
        },
        {
          "name": "C6",
          "midi": 84,
          "time": 97.36046511626772,
          "velocity": 0.3543307086614173,
          "duration": 0.023255813953483084
        },
        {
          "name": "E6",
          "midi": 88,
          "time": 97.36046511626772,
          "velocity": 0.28346456692913385,
          "duration": 0.04651162790696617
        },
        {
          "name": "G#3",
          "midi": 56,
          "time": 97.37209302324446,
          "velocity": 0.2204724409448819,
          "duration": 0.04651162790696617
        },
        {
          "name": "B5",
          "midi": 83,
          "time": 97.37209302324446,
          "velocity": 0.14960629921259844,
          "duration": 0.034883720930224626
        },
        {
          "name": "D6",
          "midi": 86,
          "time": 97.37209302324446,
          "velocity": 0.15748031496062992,
          "duration": 0.034883720930224626
        },
        {
          "name": "F4",
          "midi": 65,
          "time": 97.3837209302212,
          "velocity": 0.29133858267716534,
          "duration": 0.15116279069765426
        },
        {
          "name": "G#4",
          "midi": 68,
          "time": 97.3837209302212,
          "velocity": 0.23622047244094488,
          "duration": 0.10465116279068809
        },
        {
          "name": "D7",
          "midi": 98,
          "time": 97.3837209302212,
          "velocity": 0.15748031496062992,
          "duration": 0.034883720930224626
        },
        {
          "name": "C6",
          "midi": 84,
          "time": 97.39534883719794,
          "velocity": 0.2047244094488189,
          "duration": 0.11627906976742963
        },
        {
          "name": "G#3",
          "midi": 56,
          "time": 97.4651162790584,
          "velocity": 0.10236220472440945,
          "duration": 0.04651162790696617
        },
        {
          "name": "D#5",
          "midi": 75,
          "time": 97.48837209301189,
          "velocity": 0.30708661417322836,
          "duration": 0.1627906976743958
        },
        {
          "name": "F5",
          "midi": 77,
          "time": 97.53488372091886,
          "velocity": 0.2125984251968504,
          "duration": 0.11627906976742963
        },
        {
          "name": "D6",
          "midi": 86,
          "time": 97.53488372091886,
          "velocity": 0.15748031496062992,
          "duration": 0.034883720930224626
        },
        {
          "name": "G#6",
          "midi": 92,
          "time": 97.53488372091886,
          "velocity": 0.18110236220472442,
          "duration": 0.034883720930224626
        },
        {
          "name": "A#6",
          "midi": 94,
          "time": 97.53488372091886,
          "velocity": 0.14960629921259844,
          "duration": 0.034883720930224626
        },
        {
          "name": "C#4",
          "midi": 61,
          "time": 97.5465116278956,
          "velocity": 0.3779527559055118,
          "duration": 0.2441860465116008
        },
        {
          "name": "G#4",
          "midi": 68,
          "time": 97.5465116278956,
          "velocity": 0.44881889763779526,
          "duration": 0.11627906976742963
        },
        {
          "name": "F4",
          "midi": 65,
          "time": 97.55813953487234,
          "velocity": 0.36220472440944884,
          "duration": 0.11627906976742963
        },
        {
          "name": "C5",
          "midi": 72,
          "time": 97.55813953487234,
          "velocity": 0.3228346456692913,
          "duration": 0.09302325581394655
        },
        {
          "name": "A5",
          "midi": 81,
          "time": 97.63953488370954,
          "velocity": 0.5196850393700787,
          "duration": 0.04651162790696617
        },
        {
          "name": "A3",
          "midi": 57,
          "time": 97.65116279068629,
          "velocity": 0.4251968503937008,
          "duration": 0.023255813953483084
        },
        {
          "name": "E5",
          "midi": 76,
          "time": 97.65116279068629,
          "velocity": 0.3700787401574803,
          "duration": 0.023255813953483084
        },
        {
          "name": "D6",
          "midi": 86,
          "time": 97.65116279068629,
          "velocity": 0.2283464566929134,
          "duration": 0.023255813953483084
        },
        {
          "name": "G6",
          "midi": 91,
          "time": 97.65116279068629,
          "velocity": 0.23622047244094488,
          "duration": 0.034883720930224626
        },
        {
          "name": "C#5",
          "midi": 73,
          "time": 97.66279069766303,
          "velocity": 0.5748031496062992,
          "duration": 0.1627906976743958
        },
        {
          "name": "G#5",
          "midi": 80,
          "time": 97.66279069766303,
          "velocity": 0.5354330708661418,
          "duration": 0.20930232558136197
        },
        {
          "name": "B5",
          "midi": 83,
          "time": 97.66279069766303,
          "velocity": 0.36220472440944884,
          "duration": 0.034883720930224626
        },
        {
          "name": "C6",
          "midi": 84,
          "time": 97.66279069766303,
          "velocity": 0.3228346456692913,
          "duration": 0.09302325581393234
        },
        {
          "name": "F#6",
          "midi": 90,
          "time": 97.66279069766303,
          "velocity": 0.10236220472440945,
          "duration": 0.04651162790696617
        },
        {
          "name": "G#3",
          "midi": 56,
          "time": 97.67441860463977,
          "velocity": 0.4251968503937008,
          "duration": 0.023255813953483084
        },
        {
          "name": "D#5",
          "midi": 75,
          "time": 97.67441860463977,
          "velocity": 0.3543307086614173,
          "duration": 0.023255813953483084
        },
        {
          "name": "F5",
          "midi": 77,
          "time": 97.67441860463977,
          "velocity": 0.29133858267716534,
          "duration": 0.360465116279002
        },
        {
          "name": "A5",
          "midi": 81,
          "time": 97.69767441859325,
          "velocity": 0.31496062992125984,
          "duration": 0.023255813953483084
        },
        {
          "name": "G#3",
          "midi": 56,
          "time": 97.70930232557,
          "velocity": 0.33858267716535434,
          "duration": 0.023255813953483084
        },
        {
          "name": "F4",
          "midi": 65,
          "time": 97.70930232557,
          "velocity": 0.33858267716535434,
          "duration": 0.15116279069765426
        },
        {
          "name": "D#5",
          "midi": 75,
          "time": 97.70930232557,
          "velocity": 0.30708661417322836,
          "duration": 0.2790697674418112
        },
        {
          "name": "F3",
          "midi": 53,
          "time": 97.74418604650022,
          "velocity": 0.2047244094488189,
          "duration": 0.06976744186046346
        },
        {
          "name": "C#4",
          "midi": 61,
          "time": 97.80232558138394,
          "velocity": 0.2992125984251969,
          "duration": 0.10465116279067388
        },
        {
          "name": "C6",
          "midi": 84,
          "time": 97.81395348836068,
          "velocity": 0.07086614173228346,
          "duration": 0.034883720930224626
        },
        {
          "name": "C5",
          "midi": 72,
          "time": 97.82558139533742,
          "velocity": 0.28346456692913385,
          "duration": 0.04651162790696617
        },
        {
          "name": "C#5",
          "midi": 73,
          "time": 97.86046511626765,
          "velocity": 0.3543307086614173,
          "duration": 0.17441860465112313
        },
        {
          "name": "A5",
          "midi": 81,
          "time": 97.87209302324439,
          "velocity": 0.16535433070866143,
          "duration": 0.04651162790696617
        },
        {
          "name": "F4",
          "midi": 65,
          "time": 97.88372093022113,
          "velocity": 0.4330708661417323,
          "duration": 0.2209302325580893
        },
        {
          "name": "G3",
          "midi": 55,
          "time": 97.90697674417461,
          "velocity": 0.12598425196850394,
          "duration": 0.034883720930224626
        },
        {
          "name": "C#4",
          "midi": 61,
          "time": 97.9302325581281,
          "velocity": 0.2677165354330709,
          "duration": 0.04651162790696617
        },
        {
          "name": "C6",
          "midi": 84,
          "time": 97.96511627905832,
          "velocity": 0.13385826771653545,
          "duration": 0.034883720930224626
        },
        {
          "name": "D#3",
          "midi": 51,
          "time": 97.97674418603506,
          "velocity": 0.6299212598425197,
          "duration": 0.011627906976741542
        },
        {
          "name": "B4",
          "midi": 71,
          "time": 97.97674418603506,
          "velocity": 0.2992125984251969,
          "duration": 0.023255813953483084
        },
        {
          "name": "A5",
          "midi": 81,
          "time": 97.97674418603506,
          "velocity": 0.2992125984251969,
          "duration": 0.023255813953483084
        },
        {
          "name": "A2",
          "midi": 45,
          "time": 97.9883720930118,
          "velocity": 0.7480314960629921,
          "duration": 0.011627906976741542
        },
        {
          "name": "F#2",
          "midi": 42,
          "time": 97.99999999998855,
          "velocity": 0.7874015748031497,
          "duration": 0.011627906976741542
        },
        {
          "name": "G#5",
          "midi": 80,
          "time": 97.99999999998855,
          "velocity": 0.2283464566929134,
          "duration": 0.023255813953483084
        },
        {
          "name": "D2",
          "midi": 38,
          "time": 98.01162790696529,
          "velocity": 0.7874015748031497,
          "duration": 0.011627906976741542
        },
        {
          "name": "G#4",
          "midi": 68,
          "time": 98.01162790696529,
          "velocity": 0.2047244094488189,
          "duration": 0.17441860465113734
        },
        {
          "name": "C2",
          "midi": 36,
          "time": 98.02325581394203,
          "velocity": 0.8031496062992126,
          "duration": 0.011627906976741542
        },
        {
          "name": "A#1",
          "midi": 34,
          "time": 98.03488372091877,
          "velocity": 0.8031496062992126,
          "duration": 0.011627906976741542
        },
        {
          "name": "A1",
          "midi": 33,
          "time": 98.04651162789551,
          "velocity": 0.8031496062992126,
          "duration": 0.011627906976741542
        },
        {
          "name": "C#4",
          "midi": 61,
          "time": 98.04651162789551,
          "velocity": 0.1889763779527559,
          "duration": 0.05813953488370771
        },
        {
          "name": "G#1",
          "midi": 32,
          "time": 98.05813953487225,
          "velocity": 0.8110236220472441,
          "duration": 0.023255813953483084
        },
        {
          "name": "C#5",
          "midi": 73,
          "time": 98.05813953487225,
          "velocity": 0.2283464566929134,
          "duration": 0.12790697674417117
        },
        {
          "name": "D#5",
          "midi": 75,
          "time": 98.069767441849,
          "velocity": 0.1732283464566929,
          "duration": 0.04651162790696617
        },
        {
          "name": "G1",
          "midi": 31,
          "time": 98.08139534882574,
          "velocity": 0.7874015748031497,
          "duration": 0.05813953488370771
        },
        {
          "name": "F#3",
          "midi": 54,
          "time": 98.08139534882574,
          "velocity": 0.4330708661417323,
          "duration": 0.15116279069765426
        },
        {
          "name": "F#1",
          "midi": 30,
          "time": 98.13953488370944,
          "velocity": 0.6614173228346457,
          "duration": 0.04651162790698038
        },
        {
          "name": "F1",
          "midi": 29,
          "time": 98.18604651161642,
          "velocity": 0.6141732283464567,
          "duration": 0.0813953488371908
        },
        {
          "name": "G5",
          "midi": 79,
          "time": 98.18604651161642,
          "velocity": 0.2992125984251969,
          "duration": 0.023255813953483084
        },
        {
          "name": "A5",
          "midi": 81,
          "time": 98.18604651161642,
          "velocity": 0.4645669291338583,
          "duration": 0.034883720930224626
        },
        {
          "name": "D#6",
          "midi": 87,
          "time": 98.18604651161642,
          "velocity": 0.2677165354330709,
          "duration": 0.04651162790696617
        },
        {
          "name": "F#6",
          "midi": 90,
          "time": 98.18604651161642,
          "velocity": 0.15748031496062992,
          "duration": 0.04651162790696617
        },
        {
          "name": "G#6",
          "midi": 92,
          "time": 98.18604651161642,
          "velocity": 0.13385826771653545,
          "duration": 0.034883720930224626
        },
        {
          "name": "C#3",
          "midi": 49,
          "time": 98.19767441859317,
          "velocity": 0.3700787401574803,
          "duration": 0.44186046511622123
        },
        {
          "name": "B5",
          "midi": 83,
          "time": 98.19767441859317,
          "velocity": 0.25196850393700787,
          "duration": 0.023255813953483084
        },
        {
          "name": "D6",
          "midi": 86,
          "time": 98.19767441859317,
          "velocity": 0.2755905511811024,
          "duration": 0.05813953488370771
        },
        {
          "name": "A#4",
          "midi": 70,
          "time": 98.20930232556991,
          "velocity": 0.2677165354330709,
          "duration": 0.04651162790696617
        },
        {
          "name": "C#5",
          "midi": 73,
          "time": 98.20930232556991,
          "velocity": 0.4566929133858268,
          "duration": 0.20930232558136197
        },
        {
          "name": "F#5",
          "midi": 78,
          "time": 98.20930232556991,
          "velocity": 0.3228346456692913,
          "duration": 0.05813953488370771
        },
        {
          "name": "G#5",
          "midi": 80,
          "time": 98.20930232556991,
          "velocity": 0.4881889763779528,
          "duration": 0.20930232558136197
        },
        {
          "name": "F6",
          "midi": 89,
          "time": 98.20930232556991,
          "velocity": 0.14173228346456693,
          "duration": 0.06976744186044925
        },
        {
          "name": "C#4",
          "midi": 61,
          "time": 98.23255813952339,
          "velocity": 0.44881889763779526,
          "duration": 0.12790697674415696
        },
        {
          "name": "F#4",
          "midi": 66,
          "time": 98.23255813952339,
          "velocity": 0.2755905511811024,
          "duration": 0.06976744186044925
        },
        {
          "name": "F5",
          "midi": 77,
          "time": 98.25581395347687,
          "velocity": 0.25196850393700787,
          "duration": 0.18604651162787889
        },
        {
          "name": "F#1",
          "midi": 30,
          "time": 98.26744186045362,
          "velocity": 0.6850393700787402,
          "duration": 0.372093023255772
        },
        {
          "name": "A#3",
          "midi": 58,
          "time": 98.27906976743036,
          "velocity": 0.3543307086614173,
          "duration": 0.023255813953483084
        },
        {
          "name": "A#4",
          "midi": 70,
          "time": 98.2906976744071,
          "velocity": 0.44881889763779526,
          "duration": 0.4534883720929628
        },
        {
          "name": "G4",
          "midi": 67,
          "time": 98.30232558138384,
          "velocity": 0.3700787401574803,
          "duration": 0.023255813953483084
        },
        {
          "name": "D#5",
          "midi": 75,
          "time": 98.30232558138384,
          "velocity": 0.07874015748031496,
          "duration": 0.04651162790696617
        },
        {
          "name": "F#4",
          "midi": 66,
          "time": 98.32558139533732,
          "velocity": 0.5118110236220472,
          "duration": 0.1860465116278931
        },
        {
          "name": "A#3",
          "midi": 58,
          "time": 98.33720930231406,
          "velocity": 0.4251968503937008,
          "duration": 0.06976744186046346
        },
        {
          "name": "A#3",
          "midi": 58,
          "time": 98.47674418603499,
          "velocity": 0.41732283464566927,
          "duration": 0.41860465116273815
        },
        {
          "name": "G#5",
          "midi": 80,
          "time": 98.47674418603499,
          "velocity": 0.14173228346456693,
          "duration": 0.04651162790696617
        },
        {
          "name": "C#5",
          "midi": 73,
          "time": 98.48837209301173,
          "velocity": 0.1968503937007874,
          "duration": 0.034883720930224626
        },
        {
          "name": "A5",
          "midi": 81,
          "time": 98.51162790696522,
          "velocity": 0.1889763779527559,
          "duration": 0.034883720930224626
        },
        {
          "name": "F6",
          "midi": 89,
          "time": 98.51162790696522,
          "velocity": 0.31496062992125984,
          "duration": 0.23255813953484505
        },
        {
          "name": "F#4",
          "midi": 66,
          "time": 98.52325581394196,
          "velocity": 0.09448818897637795,
          "duration": 0.05813953488370771
        },
        {
          "name": "G7",
          "midi": 103,
          "time": 98.52325581394196,
          "velocity": 0.1732283464566929,
          "duration": 0.034883720930224626
        },
        {
          "name": "F5",
          "midi": 77,
          "time": 98.5348837209187,
          "velocity": 0.31496062992125984,
          "duration": 0.10465116279068809
        },
        {
          "name": "B5",
          "midi": 83,
          "time": 98.6162790697559,
          "velocity": 0.3779527559055118,
          "duration": 0.034883720930224626
        },
        {
          "name": "A6",
          "midi": 93,
          "time": 98.6162790697559,
          "velocity": 0.4330708661417323,
          "duration": 0.10465116279067388
        },
        {
          "name": "D4",
          "midi": 62,
          "time": 98.62790697673265,
          "velocity": 0.2283464566929134,
          "duration": 0.023255813953483084
        },
        {
          "name": "C6",
          "midi": 84,
          "time": 98.62790697673265,
          "velocity": 0.3937007874015748,
          "duration": 0.04651162790696617
        },
        {
          "name": "C#6",
          "midi": 85,
          "time": 98.62790697673265,
          "velocity": 0.4881889763779528,
          "duration": 0.1395348837208985
        },
        {
          "name": "E6",
          "midi": 88,
          "time": 98.62790697673265,
          "velocity": 0.2992125984251969,
          "duration": 0.09302325581393234
        },
        {
          "name": "F#6",
          "midi": 90,
          "time": 98.62790697673265,
          "velocity": 0.29133858267716534,
          "duration": 0.05813953488370771
        },
        {
          "name": "G6",
          "midi": 91,
          "time": 98.62790697673265,
          "velocity": 0.3228346456692913,
          "duration": 0.10465116279067388
        },
        {
          "name": "A#6",
          "midi": 94,
          "time": 98.62790697673265,
          "velocity": 0.3543307086614173,
          "duration": 0.10465116279067388
        },
        {
          "name": "D#7",
          "midi": 99,
          "time": 98.62790697673265,
          "velocity": 0.2992125984251969,
          "duration": 0.11627906976741542
        },
        {
          "name": "F#7",
          "midi": 102,
          "time": 98.62790697673265,
          "velocity": 0.29133858267716534,
          "duration": 0.11627906976741542
        },
        {
          "name": "G1",
          "midi": 31,
          "time": 98.63953488370939,
          "velocity": 0.5511811023622047,
          "duration": 0.023255813953483084
        },
        {
          "name": "G4",
          "midi": 67,
          "time": 98.63953488370939,
          "velocity": 0.30708661417322836,
          "duration": 0.034883720930224626
        },
        {
          "name": "D5",
          "midi": 74,
          "time": 98.63953488370939,
          "velocity": 0.33070866141732286,
          "duration": 0.023255813953483084
        },
        {
          "name": "F#5",
          "midi": 78,
          "time": 98.63953488370939,
          "velocity": 0.44881889763779526,
          "duration": 0.034883720930224626
        },
        {
          "name": "G#5",
          "midi": 80,
          "time": 98.63953488370939,
          "velocity": 0.3937007874015748,
          "duration": 0.15116279069764005
        },
        {
          "name": "D#6",
          "midi": 87,
          "time": 98.63953488370939,
          "velocity": 0.2992125984251969,
          "duration": 0.0813953488371908
        },
        {
          "name": "G#6",
          "midi": 92,
          "time": 98.63953488370939,
          "velocity": 0.41732283464566927,
          "duration": 0.04651162790696617
        },
        {
          "name": "D7",
          "midi": 98,
          "time": 98.63953488370939,
          "velocity": 0.2755905511811024,
          "duration": 0.09302325581393234
        },
        {
          "name": "E7",
          "midi": 100,
          "time": 98.63953488370939,
          "velocity": 0.3464566929133858,
          "duration": 0.10465116279067388
        },
        {
          "name": "G7",
          "midi": 103,
          "time": 98.63953488370939,
          "velocity": 0.3228346456692913,
          "duration": 0.09302325581393234
        },
        {
          "name": "C#5",
          "midi": 73,
          "time": 98.65116279068613,
          "velocity": 0.5196850393700787,
          "duration": 0.6279069767441285
        },
        {
          "name": "F5",
          "midi": 77,
          "time": 98.65116279068613,
          "velocity": 0.44881889763779526,
          "duration": 0.2441860465116008
        },
        {
          "name": "F#4",
          "midi": 66,
          "time": 98.66279069766287,
          "velocity": 0.28346456692913385,
          "duration": 0.17441860465113734
        },
        {
          "name": "A5",
          "midi": 81,
          "time": 98.66279069766287,
          "velocity": 0.25196850393700787,
          "duration": 0.023255813953483084
        },
        {
          "name": "C#4",
          "midi": 61,
          "time": 98.67441860463961,
          "velocity": 0.33858267716535434,
          "duration": 0.17441860465113734
        },
        {
          "name": "B5",
          "midi": 83,
          "time": 98.67441860463961,
          "velocity": 0.33858267716535434,
          "duration": 0.023255813953483084
        },
        {
          "name": "D6",
          "midi": 86,
          "time": 98.68604651161635,
          "velocity": 0.1889763779527559,
          "duration": 0.0813953488371908
        },
        {
          "name": "A#4",
          "midi": 70,
          "time": 98.77906976743029,
          "velocity": 0.4251968503937008,
          "duration": 0.3953488372092835
        },
        {
          "name": "F#4",
          "midi": 66,
          "time": 98.84883720929075,
          "velocity": 0.5984251968503937,
          "duration": 0.44186046511624966
        },
        {
          "name": "C#4",
          "midi": 61,
          "time": 98.88372093022099,
          "velocity": 0.29133858267716534,
          "duration": 0.06976744186046346
        },
        {
          "name": "A5",
          "midi": 81,
          "time": 98.95348837208145,
          "velocity": 0.3779527559055118,
          "duration": 0.023255813953483084
        },
        {
          "name": "B5",
          "midi": 83,
          "time": 98.95348837208145,
          "velocity": 0.4015748031496063,
          "duration": 0.023255813953483084
        },
        {
          "name": "D6",
          "midi": 86,
          "time": 98.95348837208145,
          "velocity": 0.4330708661417323,
          "duration": 0.034883720930224626
        },
        {
          "name": "E6",
          "midi": 88,
          "time": 98.95348837208145,
          "velocity": 0.2125984251968504,
          "duration": 0.034883720930224626
        },
        {
          "name": "F#6",
          "midi": 90,
          "time": 98.95348837208145,
          "velocity": 0.1968503937007874,
          "duration": 0.034883720930224626
        },
        {
          "name": "G6",
          "midi": 91,
          "time": 98.95348837208145,
          "velocity": 0.13385826771653545,
          "duration": 0.04651162790696617
        },
        {
          "name": "A#6",
          "midi": 94,
          "time": 98.95348837208145,
          "velocity": 0.10236220472440945,
          "duration": 0.05813953488370771
        },
        {
          "name": "F6",
          "midi": 89,
          "time": 98.9651162790582,
          "velocity": 0.2283464566929134,
          "duration": 0.05813953488370771
        },
        {
          "name": "G#6",
          "midi": 92,
          "time": 98.9651162790582,
          "velocity": 0.07874015748031496,
          "duration": 0.05813953488370771
        },
        {
          "name": "A#3",
          "midi": 58,
          "time": 98.97674418603494,
          "velocity": 0.4251968503937008,
          "duration": 0.1860465116278931
        },
        {
          "name": "G#5",
          "midi": 80,
          "time": 98.97674418603494,
          "velocity": 0.3464566929133858,
          "duration": 0.19767441860463464
        },
        {
          "name": "A#5",
          "midi": 82,
          "time": 98.97674418603494,
          "velocity": 0.4409448818897638,
          "duration": 0.16279069767441
        },
        {
          "name": "C6",
          "midi": 84,
          "time": 98.97674418603494,
          "velocity": 0.25196850393700787,
          "duration": 0.023255813953483084
        },
        {
          "name": "D#6",
          "midi": 87,
          "time": 98.97674418603494,
          "velocity": 0.25196850393700787,
          "duration": 0.034883720930224626
        },
        {
          "name": "F5",
          "midi": 77,
          "time": 98.98837209301168,
          "velocity": 0.3700787401574803,
          "duration": 0.11627906976742963
        },
        {
          "name": "C#4",
          "midi": 61,
          "time": 99.0232558139419,
          "velocity": 0.3937007874015748,
          "duration": 0.023255813953483084
        },
        {
          "name": "F5",
          "midi": 77,
          "time": 99.15116279068609,
          "velocity": 0.2677165354330709,
          "duration": 0.04651162790696617
        },
        {
          "name": "D5",
          "midi": 74,
          "time": 99.16279069766283,
          "velocity": 0.31496062992125984,
          "duration": 0.034883720930224626
        },
        {
          "name": "A5",
          "midi": 81,
          "time": 99.16279069766283,
          "velocity": 0.23622047244094488,
          "duration": 0.034883720930224626
        },
        {
          "name": "B5",
          "midi": 83,
          "time": 99.16279069766283,
          "velocity": 0.16535433070866143,
          "duration": 0.034883720930224626
        },
        {
          "name": "A#3",
          "midi": 58,
          "time": 99.18604651161631,
          "velocity": 0.3937007874015748,
          "duration": 0.05813953488372192
        },
        {
          "name": "C#4",
          "midi": 61,
          "time": 99.2093023255698,
          "velocity": 0.47244094488188976,
          "duration": 0.081395348837205
        },
        {
          "name": "F5",
          "midi": 77,
          "time": 99.2093023255698,
          "velocity": 0.33858267716535434,
          "duration": 0.3023255813952943
        },
        {
          "name": "F#3",
          "midi": 54,
          "time": 99.25581395347677,
          "velocity": 0.2440944881889764,
          "duration": 0.023255813953483084
        },
        {
          "name": "D#3",
          "midi": 51,
          "time": 99.27906976743026,
          "velocity": 0.5196850393700787,
          "duration": 0.011627906976741542
        },
        {
          "name": "G3",
          "midi": 55,
          "time": 99.27906976743026,
          "velocity": 0.5275590551181102,
          "duration": 0.011627906976741542
        },
        {
          "name": "C5",
          "midi": 72,
          "time": 99.27906976743026,
          "velocity": 0.4015748031496063,
          "duration": 0.06976744186044925
        },
        {
          "name": "G#5",
          "midi": 80,
          "time": 99.27906976743026,
          "velocity": 0.36220472440944884,
          "duration": 0.2558139534883139
        },
        {
          "name": "D#6",
          "midi": 87,
          "time": 99.27906976743026,
          "velocity": 0.29133858267716534,
          "duration": 0.05813953488370771
        },
        {
          "name": "G6",
          "midi": 91,
          "time": 99.27906976743026,
          "velocity": 0.14173228346456693,
          "duration": 0.04651162790696617
        },
        {
          "name": "C3",
          "midi": 48,
          "time": 99.290697674407,
          "velocity": 0.7086614173228346,
          "duration": 0.011627906976741542
        },
        {
          "name": "D#5",
          "midi": 75,
          "time": 99.290697674407,
          "velocity": 0.3700787401574803,
          "duration": 0.2209302325580893
        },
        {
          "name": "F#5",
          "midi": 78,
          "time": 99.290697674407,
          "velocity": 0.2440944881889764,
          "duration": 0.04651162790696617
        },
        {
          "name": "C#6",
          "midi": 85,
          "time": 99.290697674407,
          "velocity": 0.2125984251968504,
          "duration": 0.06976744186044925
        },
        {
          "name": "D6",
          "midi": 86,
          "time": 99.290697674407,
          "velocity": 0.25984251968503935,
          "duration": 0.05813953488370771
        },
        {
          "name": "F#2",
          "midi": 42,
          "time": 99.30232558138374,
          "velocity": 0.7716535433070866,
          "duration": 0.011627906976741542
        },
        {
          "name": "A#3",
          "midi": 58,
          "time": 99.30232558138374,
          "velocity": 0.3700787401574803,
          "duration": 0.023255813953483084
        },
        {
          "name": "C#4",
          "midi": 61,
          "time": 99.30232558138374,
          "velocity": 0.3858267716535433,
          "duration": 0.05813953488370771
        },
        {
          "name": "G#4",
          "midi": 68,
          "time": 99.30232558138374,
          "velocity": 0.33858267716535434,
          "duration": 0.034883720930224626
        },
        {
          "name": "B5",
          "midi": 83,
          "time": 99.30232558138374,
          "velocity": 0.2204724409448819,
          "duration": 0.04651162790696617
        },
        {
          "name": "F2",
          "midi": 41,
          "time": 99.31395348836048,
          "velocity": 0.7874015748031497,
          "duration": 0.011627906976741542
        },
        {
          "name": "F4",
          "midi": 65,
          "time": 99.31395348836048,
          "velocity": 0.3543307086614173,
          "duration": 0.05813953488370771
        },
        {
          "name": "C#2",
          "midi": 37,
          "time": 99.32558139533722,
          "velocity": 0.8110236220472441,
          "duration": 0.011627906976741542
        },
        {
          "name": "B1",
          "midi": 35,
          "time": 99.33720930231397,
          "velocity": 0.7952755905511811,
          "duration": 0.011627906976741542
        },
        {
          "name": "A1",
          "midi": 33,
          "time": 99.3488372092907,
          "velocity": 0.7716535433070866,
          "duration": 0.011627906976741542
        },
        {
          "name": "G#4",
          "midi": 68,
          "time": 99.3488372092907,
          "velocity": 0.31496062992125984,
          "duration": 0.24418604651157239
        },
        {
          "name": "G#1",
          "midi": 32,
          "time": 99.36046511626745,
          "velocity": 0.7637795275590551,
          "duration": 0.023255813953483084
        },
        {
          "name": "C3",
          "midi": 48,
          "time": 99.36046511626745,
          "velocity": 0.4015748031496063,
          "duration": 0.5697674418603498
        },
        {
          "name": "C#4",
          "midi": 61,
          "time": 99.37209302324419,
          "velocity": 0.31496062992125984,
          "duration": 0.23255813953483084
        },
        {
          "name": "A1",
          "midi": 33,
          "time": 99.38372093022093,
          "velocity": 0.6692913385826772,
          "duration": 0.034883720930224626
        },
        {
          "name": "F4",
          "midi": 65,
          "time": 99.40697674417441,
          "velocity": 0.2440944881889764,
          "duration": 0.06976744186044925
        },
        {
          "name": "G#1",
          "midi": 32,
          "time": 99.41860465115116,
          "velocity": 0.6850393700787402,
          "duration": 0.011627906976741542
        },
        {
          "name": "G1",
          "midi": 31,
          "time": 99.4302325581279,
          "velocity": 0.7401574803149606,
          "duration": 0.023255813953483084
        },
        {
          "name": "F#1",
          "midi": 30,
          "time": 99.45348837208138,
          "velocity": 0.7637795275590551,
          "duration": 0.06976744186044925
        },
        {
          "name": "F3",
          "midi": 53,
          "time": 99.46511627905812,
          "velocity": 0.33070866141732286,
          "duration": 0.034883720930224626
        },
        {
          "name": "F#4",
          "midi": 66,
          "time": 99.49999999998835,
          "velocity": 0.25984251968503935,
          "duration": 0.023255813953483084
        },
        {
          "name": "G#3",
          "midi": 56,
          "time": 99.51162790696509,
          "velocity": 0.3937007874015748,
          "duration": 0.023255813953483084
        },
        {
          "name": "F1",
          "midi": 29,
          "time": 99.52325581394183,
          "velocity": 0.7401574803149606,
          "duration": 0.04651162790696617
        },
        {
          "name": "D#5",
          "midi": 75,
          "time": 99.52325581394183,
          "velocity": 0.23622047244094488,
          "duration": 0.25581395348832814
        },
        {
          "name": "F5",
          "midi": 77,
          "time": 99.52325581394183,
          "velocity": 0.1968503937007874,
          "duration": 0.1395348837208985
        },
        {
          "name": "F4",
          "midi": 65,
          "time": 99.54651162789531,
          "velocity": 0.11023622047244094,
          "duration": 0.034883720930224626
        },
        {
          "name": "A#4",
          "midi": 70,
          "time": 99.55813953487205,
          "velocity": 0.2440944881889764,
          "duration": 0.06976744186044925
        },
        {
          "name": "E1",
          "midi": 28,
          "time": 99.5697674418488,
          "velocity": 0.6692913385826772,
          "duration": 0.023255813953483084
        },
        {
          "name": "A3",
          "midi": 57,
          "time": 99.58139534882554,
          "velocity": 0.3228346456692913,
          "duration": 0.04651162790696617
        },
        {
          "name": "F1",
          "midi": 29,
          "time": 99.59302325580228,
          "velocity": 0.6614173228346457,
          "duration": 0.3488372093022605
        },
        {
          "name": "F6",
          "midi": 89,
          "time": 99.60465116277902,
          "velocity": 0.1968503937007874,
          "duration": 0.04651162790696617
        },
        {
          "name": "G#6",
          "midi": 92,
          "time": 99.60465116277902,
          "velocity": 0.14960629921259844,
          "duration": 0.034883720930224626
        },
        {
          "name": "G#5",
          "midi": 80,
          "time": 99.61627906975576,
          "velocity": 0.29133858267716534,
          "duration": 0.20930232558136197
        },
        {
          "name": "C6",
          "midi": 84,
          "time": 99.61627906975576,
          "velocity": 0.13385826771653545,
          "duration": 0.09302325581393234
        },
        {
          "name": "F4",
          "midi": 65,
          "time": 99.6279069767325,
          "velocity": 0.4645669291338583,
          "duration": 0.5348837209301536
        },
        {
          "name": "C#6",
          "midi": 85,
          "time": 99.6279069767325,
          "velocity": 0.11811023622047244,
          "duration": 0.04651162790696617
        },
        {
          "name": "A3",
          "midi": 57,
          "time": 99.63953488370925,
          "velocity": 0.3937007874015748,
          "duration": 0.023255813953483084
        },
        {
          "name": "C#4",
          "midi": 61,
          "time": 99.63953488370925,
          "velocity": 0.3464566929133858,
          "duration": 0.034883720930224626
        },
        {
          "name": "G#4",
          "midi": 68,
          "time": 99.65116279068599,
          "velocity": 0.2283464566929134,
          "duration": 0.15116279069765426
        },
        {
          "name": "G#3",
          "midi": 56,
          "time": 99.66279069766273,
          "velocity": 0.3700787401574803,
          "duration": 0.09302325581394655
        },
        {
          "name": "C#4",
          "midi": 61,
          "time": 99.68604651161621,
          "velocity": 0.3464566929133858,
          "duration": 0.13953488372091272
        },
        {
          "name": "A3",
          "midi": 57,
          "time": 99.81395348836038,
          "velocity": 0.33858267716535434,
          "duration": 0.04651162790696617
        },
        {
          "name": "A#5",
          "midi": 82,
          "time": 99.81395348836038,
          "velocity": 0.30708661417322836,
          "duration": 0.034883720930224626
        },
        {
          "name": "C6",
          "midi": 84,
          "time": 99.81395348836038,
          "velocity": 0.3858267716535433,
          "duration": 0.18604651162786467
        },
        {
          "name": "C#6",
          "midi": 85,
          "time": 99.81395348836038,
          "velocity": 0.33858267716535434,
          "duration": 0.17441860465112313
        },
        {
          "name": "D#6",
          "midi": 87,
          "time": 99.82558139533712,
          "velocity": 0.30708661417322836,
          "duration": 0.20930232558134776
        },
        {
          "name": "F6",
          "midi": 89,
          "time": 99.82558139533712,
          "velocity": 0.2204724409448819,
          "duration": 0.05813953488370771
        },
        {
          "name": "F#6",
          "midi": 90,
          "time": 99.82558139533712,
          "velocity": 0.14173228346456693,
          "duration": 0.05813953488370771
        },
        {
          "name": "G#6",
          "midi": 92,
          "time": 99.82558139533712,
          "velocity": 0.09448818897637795,
          "duration": 0.05813953488370771
        },
        {
          "name": "A6",
          "midi": 93,
          "time": 99.82558139533712,
          "velocity": 0.16535433070866143,
          "duration": 0.034883720930224626
        },
        {
          "name": "G#4",
          "midi": 68,
          "time": 99.83720930231387,
          "velocity": 0.48031496062992124,
          "duration": 0.12790697674415696
        },
        {
          "name": "C#5",
          "midi": 73,
          "time": 99.83720930231387,
          "velocity": 0.4015748031496063,
          "duration": 0.10465116279067388
        },
        {
          "name": "D#5",
          "midi": 75,
          "time": 99.83720930231387,
          "velocity": 0.4566929133858268,
          "duration": 0.15116279069764005
        },
        {
          "name": "B5",
          "midi": 83,
          "time": 99.83720930231387,
          "velocity": 0.2283464566929134,
          "duration": 0.034883720930224626
        },
        {
          "name": "A5",
          "midi": 81,
          "time": 99.84883720929061,
          "velocity": 0.30708661417322836,
          "duration": 0.05813953488370771
        },
        {
          "name": "C#4",
          "midi": 61,
          "time": 99.88372093022083,
          "velocity": 0.1968503937007874,
          "duration": 0.09302325581393234
        },
        {
          "name": "A#5",
          "midi": 82,
          "time": 99.9302325581278,
          "velocity": 0.31496062992125984,
          "duration": 0.05813953488370771
        },
        {
          "name": "F#6",
          "midi": 90,
          "time": 99.9302325581278,
          "velocity": 0.29133858267716534,
          "duration": 0.034883720930224626
        },
        {
          "name": "G#6",
          "midi": 92,
          "time": 99.9302325581278,
          "velocity": 0.4330708661417323,
          "duration": 0.034883720930224626
        },
        {
          "name": "B6",
          "midi": 95,
          "time": 99.9302325581278,
          "velocity": 0.1968503937007874,
          "duration": 0.06976744186044925
        },
        {
          "name": "D7",
          "midi": 98,
          "time": 99.9302325581278,
          "velocity": 0.2677165354330709,
          "duration": 0.10465116279067388
        },
        {
          "name": "F#1",
          "midi": 30,
          "time": 99.94186046510454,
          "velocity": 0.5669291338582677,
          "duration": 0.011627906976741542
        },
        {
          "name": "F3",
          "midi": 53,
          "time": 99.94186046510454,
          "velocity": 0.28346456692913385,
          "duration": 0.023255813953483084
        },
        {
          "name": "G5",
          "midi": 79,
          "time": 99.94186046510454,
          "velocity": 0.25984251968503935,
          "duration": 0.023255813953483084
        },
        {
          "name": "B5",
          "midi": 83,
          "time": 99.94186046510454,
          "velocity": 0.29133858267716534,
          "duration": 0.023255813953483084
        },
        {
          "name": "E6",
          "midi": 88,
          "time": 99.94186046510454,
          "velocity": 0.25196850393700787,
          "duration": 0.0813953488371908
        },
        {
          "name": "F6",
          "midi": 89,
          "time": 99.94186046510454,
          "velocity": 0.2440944881889764,
          "duration": 0.05813953488370771
        },
        {
          "name": "G6",
          "midi": 91,
          "time": 99.94186046510454,
          "velocity": 0.36220472440944884,
          "duration": 0.0813953488371908
        },
        {
          "name": "F7",
          "midi": 101,
          "time": 99.94186046510454,
          "velocity": 0.2677165354330709,
          "duration": 0.09302325581393234
        },
        {
          "name": "G1",
          "midi": 31,
          "time": 99.95348837208128,
          "velocity": 0.5196850393700787,
          "duration": 0.023255813953483084
        },
        {
          "name": "C5",
          "midi": 72,
          "time": 99.95348837208128,
          "velocity": 0.36220472440944884,
          "duration": 0.023255813953483084
        },
        {
          "name": "A6",
          "midi": 93,
          "time": 99.95348837208128,
          "velocity": 0.33070866141732286,
          "duration": 0.05813953488370771
        },
        {
          "name": "D#7",
          "midi": 99,
          "time": 99.95348837208128,
          "velocity": 0.3228346456692913,
          "duration": 0.09302325581393234
        },
        {
          "name": "E7",
          "midi": 100,
          "time": 99.96511627905802,
          "velocity": 0.2677165354330709,
          "duration": 0.0813953488371908
        },
        {
          "name": "G#4",
          "midi": 68,
          "time": 99.97674418603476,
          "velocity": 0.4015748031496063,
          "duration": 0.290697674418567
        },
        {
          "name": "C#5",
          "midi": 73,
          "time": 99.97674418603476,
          "velocity": 0.3700787401574803,
          "duration": 0.034883720930224626
        },
        {
          "name": "G5",
          "midi": 79,
          "time": 99.97674418603476,
          "velocity": 0.33858267716535434,
          "duration": 0.023255813953483084
        },
        {
          "name": "B5",
          "midi": 83,
          "time": 99.97674418603476,
          "velocity": 0.2125984251968504,
          "duration": 0.034883720930224626
        },
        {
          "name": "C#4",
          "midi": 61,
          "time": 99.9883720930115,
          "velocity": 0.14173228346456693,
          "duration": 0.12790697674417117
        },
        {
          "name": "F3",
          "midi": 53,
          "time": 99.99999999998825,
          "velocity": 0.14173228346456693,
          "duration": 0.05813953488370771
        },
        {
          "name": "D#5",
          "midi": 75,
          "time": 99.99999999998825,
          "velocity": 0.1889763779527559,
          "duration": 0.11627906976742963
        },
        {
          "name": "C5",
          "midi": 72,
          "time": 100.02325581394173,
          "velocity": 0.11023622047244094,
          "duration": 0.06976744186046346
        },
        {
          "name": "C#5",
          "midi": 73,
          "time": 100.0930232558022,
          "velocity": 0.1732283464566929,
          "duration": 0.06976744186046346
        },
        {
          "name": "E5",
          "midi": 76,
          "time": 100.15116279068592,
          "velocity": 0.25984251968503935,
          "duration": 0.023255813953483084
        },
        {
          "name": "C6",
          "midi": 84,
          "time": 100.15116279068592,
          "velocity": 0.31496062992125984,
          "duration": 0.11627906976741542
        },
        {
          "name": "C5",
          "midi": 72,
          "time": 100.16279069766266,
          "velocity": 0.2755905511811024,
          "duration": 0.04651162790696617
        },
        {
          "name": "A5",
          "midi": 81,
          "time": 100.16279069766266,
          "velocity": 0.14173228346456693,
          "duration": 0.05813953488370771
        },
        {
          "name": "C#4",
          "midi": 61,
          "time": 100.1744186046394,
          "velocity": 0.12598425196850394,
          "duration": 0.0813953488371908
        },
        {
          "name": "F4",
          "midi": 65,
          "time": 100.1744186046394,
          "velocity": 0.3700787401574803,
          "duration": 0.09302325581393234
        },
        {
          "name": "D#5",
          "midi": 75,
          "time": 100.1744186046394,
          "velocity": 0.2047244094488189,
          "duration": 0.06976744186044925
        },
        {
          "name": "C#5",
          "midi": 73,
          "time": 100.19767441859288,
          "velocity": 0.3858267716535433,
          "duration": 0.0813953488371908
        },
        {
          "name": "G#3",
          "midi": 56,
          "time": 100.2325581395231,
          "velocity": 0.36220472440944884,
          "duration": 0.05813953488370771
        },
        {
          "name": "A5",
          "midi": 81,
          "time": 100.25581395347659,
          "velocity": 0.5039370078740157,
          "duration": 0.09302325581393234
        },
        {
          "name": "D6",
          "midi": 86,
          "time": 100.25581395347659,
          "velocity": 0.2440944881889764,
          "duration": 0.034883720930224626
        },
        {
          "name": "F#4",
          "midi": 66,
          "time": 100.26744186045333,
          "velocity": 0.48031496062992124,
          "duration": 0.023255813953483084
        },
        {
          "name": "A4",
          "midi": 69,
          "time": 100.26744186045333,
          "velocity": 0.36220472440944884,
          "duration": 0.023255813953483084
        },
        {
          "name": "E5",
          "midi": 76,
          "time": 100.26744186045333,
          "velocity": 0.3464566929133858,
          "duration": 0.023255813953483084
        },
        {
          "name": "G#6",
          "midi": 92,
          "time": 100.26744186045333,
          "velocity": 0.11023622047244094,
          "duration": 0.06976744186044925
        },
        {
          "name": "C#4",
          "midi": 61,
          "time": 100.27906976743007,
          "velocity": 0.3858267716535433,
          "duration": 0.06976744186044925
        },
        {
          "name": "C5",
          "midi": 72,
          "time": 100.27906976743007,
          "velocity": 0.49606299212598426,
          "duration": 0.034883720930224626
        },
        {
          "name": "D5",
          "midi": 74,
          "time": 100.27906976743007,
          "velocity": 0.4094488188976378,
          "duration": 0.023255813953483084
        },
        {
          "name": "D#6",
          "midi": 87,
          "time": 100.27906976743007,
          "velocity": 0.13385826771653545,
          "duration": 0.034883720930224626
        },
        {
          "name": "G6",
          "midi": 91,
          "time": 100.27906976743007,
          "velocity": 0.11811023622047244,
          "duration": 0.04651162790696617
        },
        {
          "name": "A3",
          "midi": 57,
          "time": 100.29069767440681,
          "velocity": 0.2992125984251969,
          "duration": 0.023255813953483084
        },
        {
          "name": "F4",
          "midi": 65,
          "time": 100.29069767440681,
          "velocity": 0.4251968503937008,
          "duration": 0.3023255813953085
        },
        {
          "name": "G#4",
          "midi": 68,
          "time": 100.29069767440681,
          "velocity": 0.4251968503937008,
          "duration": 0.27906976744182543
        },
        {
          "name": "D#5",
          "midi": 75,
          "time": 100.30232558138356,
          "velocity": 0.36220472440944884,
          "duration": 0.290697674418567
        },
        {
          "name": "G#3",
          "midi": 56,
          "time": 100.3139534883603,
          "velocity": 0.3779527559055118,
          "duration": 0.09302325581394655
        },
        {
          "name": "C#5",
          "midi": 73,
          "time": 100.3139534883603,
          "velocity": 0.44881889763779526,
          "duration": 0.15116279069766847
        },
        {
          "name": "C#4",
          "midi": 61,
          "time": 100.38372093022076,
          "velocity": 0.33070866141732286,
          "duration": 0.12790697674417117
        },
        {
          "name": "G#3",
          "midi": 56,
          "time": 100.44186046510448,
          "velocity": 0.2283464566929134,
          "duration": 0.05813953488370771
        },
        {
          "name": "A5",
          "midi": 81,
          "time": 100.46511627905797,
          "velocity": 0.16535433070866143,
          "duration": 0.04651162790696617
        },
        {
          "name": "C6",
          "midi": 84,
          "time": 100.47674418603471,
          "velocity": 0.2204724409448819,
          "duration": 0.06976744186044925
        },
        {
          "name": "G#3",
          "midi": 56,
          "time": 100.51162790696493,
          "velocity": 0.4015748031496063,
          "duration": 0.06976744186044925
        },
        {
          "name": "C#4",
          "midi": 61,
          "time": 100.53488372091842,
          "velocity": 0.3464566929133858,
          "duration": 0.05813953488370771
        },
        {
          "name": "A#5",
          "midi": 82,
          "time": 100.58139534882538,
          "velocity": 0.28346456692913385,
          "duration": 0.04651162790696617
        },
        {
          "name": "C3",
          "midi": 48,
          "time": 100.59302325580212,
          "velocity": 0.6850393700787402,
          "duration": 0.011627906976741542
        },
        {
          "name": "A#3",
          "midi": 58,
          "time": 100.59302325580212,
          "velocity": 0.48031496062992124,
          "duration": 0.023255813953483084
        },
        {
          "name": "C5",
          "midi": 72,
          "time": 100.59302325580212,
          "velocity": 0.2992125984251969,
          "duration": 0.0813953488371908
        },
        {
          "name": "E5",
          "midi": 76,
          "time": 100.59302325580212,
          "velocity": 0.2283464566929134,
          "duration": 0.023255813953483084
        },
        {
          "name": "G#5",
          "midi": 80,
          "time": 100.59302325580212,
          "velocity": 0.23622047244094488,
          "duration": 0.04651162790696617
        },
        {
          "name": "A2",
          "midi": 45,
          "time": 100.60465116277886,
          "velocity": 0.7716535433070866,
          "duration": 0.011627906976741542
        },
        {
          "name": "F2",
          "midi": 41,
          "time": 100.6162790697556,
          "velocity": 0.7952755905511811,
          "duration": 0.011627906976741542
        },
        {
          "name": "D2",
          "midi": 38,
          "time": 100.62790697673235,
          "velocity": 0.7952755905511811,
          "duration": 0.011627906976741542
        },
        {
          "name": "G3",
          "midi": 55,
          "time": 100.62790697673235,
          "velocity": 0.48031496062992124,
          "duration": 0.023255813953483084
        },
        {
          "name": "F4",
          "midi": 65,
          "time": 100.62790697673235,
          "velocity": 0.2283464566929134,
          "duration": 0.04651162790696617
        },
        {
          "name": "G#4",
          "midi": 68,
          "time": 100.62790697673235,
          "velocity": 0.29133858267716534,
          "duration": 0.18604651162786467
        },
        {
          "name": "B1",
          "midi": 35,
          "time": 100.63953488370909,
          "velocity": 0.8031496062992126,
          "duration": 0.011627906976741542
        },
        {
          "name": "A#1",
          "midi": 34,
          "time": 100.65116279068583,
          "velocity": 0.8031496062992126,
          "duration": 0.011627906976741542
        },
        {
          "name": "A1",
          "midi": 33,
          "time": 100.66279069766257,
          "velocity": 0.8031496062992126,
          "duration": 0.011627906976741542
        },
        {
          "name": "G#1",
          "midi": 32,
          "time": 100.67441860463931,
          "velocity": 0.8031496062992126,
          "duration": 0.023255813953483084
        },
        {
          "name": "G3",
          "midi": 55,
          "time": 100.68604651161606,
          "velocity": 0.4015748031496063,
          "duration": 0.023255813953483084
        },
        {
          "name": "C#5",
          "midi": 73,
          "time": 100.68604651161606,
          "velocity": 0.2204724409448819,
          "duration": 0.06976744186044925
        },
        {
          "name": "G1",
          "midi": 31,
          "time": 100.6976744185928,
          "velocity": 0.7795275590551181,
          "duration": 0.05813953488370771
        },
        {
          "name": "C#3",
          "midi": 49,
          "time": 100.6976744185928,
          "velocity": 0.3858267716535433,
          "duration": 0.5465116279069093
        },
        {
          "name": "A5",
          "midi": 81,
          "time": 100.6976744185928,
          "velocity": 0.18110236220472442,
          "duration": 0.034883720930224626
        },
        {
          "name": "G3",
          "midi": 55,
          "time": 100.74418604649976,
          "velocity": 0.25984251968503935,
          "duration": 0.023255813953483084
        },
        {
          "name": "F#1",
          "midi": 30,
          "time": 100.7558139534765,
          "velocity": 0.6535433070866141,
          "duration": 0.04651162790696617
        },
        {
          "name": "C5",
          "midi": 72,
          "time": 100.7558139534765,
          "velocity": 0.25984251968503935,
          "duration": 0.05813953488370771
        },
        {
          "name": "F4",
          "midi": 65,
          "time": 100.76744186045325,
          "velocity": 0.10236220472440945,
          "duration": 0.034883720930224626
        },
        {
          "name": "G5",
          "midi": 79,
          "time": 100.79069767440673,
          "velocity": 0.33070866141732286,
          "duration": 0.023255813953483084
        },
        {
          "name": "A#5",
          "midi": 82,
          "time": 100.79069767440673,
          "velocity": 0.3858267716535433,
          "duration": 0.13953488372091272
        },
        {
          "name": "F1",
          "midi": 29,
          "time": 100.80232558138347,
          "velocity": 0.6299212598425197,
          "duration": 0.081395348837205
        },
        {
          "name": "D6",
          "midi": 86,
          "time": 100.80232558138347,
          "velocity": 0.25196850393700787,
          "duration": 0.023255813953483084
        },
        {
          "name": "F#6",
          "midi": 90,
          "time": 100.80232558138347,
          "velocity": 0.16535433070866143,
          "duration": 0.034883720930224626
        },
        {
          "name": "G#6",
          "midi": 92,
          "time": 100.80232558138347,
          "velocity": 0.1889763779527559,
          "duration": 0.04651162790696617
        },
        {
          "name": "A#3",
          "midi": 58,
          "time": 100.81395348836021,
          "velocity": 0.48031496062992124,
          "duration": 0.09302325581394655
        },
        {
          "name": "F#4",
          "midi": 66,
          "time": 100.81395348836021,
          "velocity": 0.44881889763779526,
          "duration": 0.44186046511623545
        },
        {
          "name": "C#5",
          "midi": 73,
          "time": 100.81395348836021,
          "velocity": 0.4251968503937008,
          "duration": 0.41860465116275236
        },
        {
          "name": "F5",
          "midi": 77,
          "time": 100.81395348836021,
          "velocity": 0.47244094488188976,
          "duration": 0.31395348837206427
        },
        {
          "name": "G#5",
          "midi": 80,
          "time": 100.81395348836021,
          "velocity": 0.3464566929133858,
          "duration": 0.081395348837205
        },
        {
          "name": "D#6",
          "midi": 87,
          "time": 100.81395348836021,
          "velocity": 0.23622047244094488,
          "duration": 0.023255813953483084
        },
        {
          "name": "D6",
          "midi": 86,
          "time": 100.8372093023137,
          "velocity": 0.2755905511811024,
          "duration": 0.06976744186046346
        },
        {
          "name": "F#1",
          "midi": 30,
          "time": 100.88372093022068,
          "velocity": 0.6771653543307087,
          "duration": 0.3837209302325135
        },
        {
          "name": "F#3",
          "midi": 54,
          "time": 100.89534883719742,
          "velocity": 0.33070866141732286,
          "duration": 0.023255813953483084
        },
        {
          "name": "G#5",
          "midi": 80,
          "time": 100.9186046511509,
          "velocity": 0.1732283464566929,
          "duration": 0.09302325581394655
        },
        {
          "name": "A#3",
          "midi": 58,
          "time": 101.03488372091833,
          "velocity": 0.3858267716535433,
          "duration": 0.290697674418567
        },
        {
          "name": "A#5",
          "midi": 82,
          "time": 101.12790697673228,
          "velocity": 0.1968503937007874,
          "duration": 0.081395348837205
        },
        {
          "name": "F6",
          "midi": 89,
          "time": 101.12790697673228,
          "velocity": 0.16535433070866143,
          "duration": 0.034883720930224626
        },
        {
          "name": "F#7",
          "midi": 102,
          "time": 101.12790697673228,
          "velocity": 0.1889763779527559,
          "duration": 0.04651162790696617
        },
        {
          "name": "G7",
          "midi": 103,
          "time": 101.12790697673228,
          "velocity": 0.16535433070866143,
          "duration": 0.04651162790696617
        },
        {
          "name": "A#4",
          "midi": 70,
          "time": 101.13953488370902,
          "velocity": 0.5433070866141733,
          "duration": 0.10465116279068809
        },
        {
          "name": "D6",
          "midi": 86,
          "time": 101.23255813952296,
          "velocity": 0.30708661417322836,
          "duration": 0.023255813953483084
        },
        {
          "name": "E6",
          "midi": 88,
          "time": 101.23255813952296,
          "velocity": 0.28346456692913385,
          "duration": 0.06976744186044925
        },
        {
          "name": "F6",
          "midi": 89,
          "time": 101.23255813952296,
          "velocity": 0.33858267716535434,
          "duration": 0.11627906976741542
        },
        {
          "name": "A6",
          "midi": 93,
          "time": 101.23255813952296,
          "velocity": 0.41732283464566927,
          "duration": 0.034883720930224626
        },
        {
          "name": "B6",
          "midi": 95,
          "time": 101.23255813952296,
          "velocity": 0.29133858267716534,
          "duration": 0.09302325581393234
        },
        {
          "name": "C#7",
          "midi": 97,
          "time": 101.23255813952296,
          "velocity": 0.31496062992125984,
          "duration": 0.10465116279067388
        },
        {
          "name": "G4",
          "midi": 67,
          "time": 101.2441860464997,
          "velocity": 0.4251968503937008,
          "duration": 0.034883720930224626
        },
        {
          "name": "C#5",
          "midi": 73,
          "time": 101.2441860464997,
          "velocity": 0.4566929133858268,
          "duration": 0.18604651162786467
        },
        {
          "name": "E5",
          "midi": 76,
          "time": 101.2441860464997,
          "velocity": 0.31496062992125984,
          "duration": 0.023255813953483084
        },
        {
          "name": "A5",
          "midi": 81,
          "time": 101.2441860464997,
          "velocity": 0.28346456692913385,
          "duration": 0.023255813953483084
        },
        {
          "name": "B5",
          "midi": 83,
          "time": 101.2441860464997,
          "velocity": 0.3700787401574803,
          "duration": 0.023255813953483084
        },
        {
          "name": "G#6",
          "midi": 92,
          "time": 101.2441860464997,
          "velocity": 0.4330708661417323,
          "duration": 0.10465116279067388
        },
        {
          "name": "C7",
          "midi": 96,
          "time": 101.2441860464997,
          "velocity": 0.33070866141732286,
          "duration": 0.09302325581393234
        },
        {
          "name": "D#7",
          "midi": 99,
          "time": 101.2441860464997,
          "velocity": 0.3700787401574803,
          "duration": 0.11627906976741542
        },
        {
          "name": "F7",
          "midi": 101,
          "time": 101.2441860464997,
          "velocity": 0.3779527559055118,
          "duration": 0.09302325581393234
        },
        {
          "name": "F#7",
          "midi": 102,
          "time": 101.2441860464997,
          "velocity": 0.2204724409448819,
          "duration": 0.05813953488370771
        },
        {
          "name": "D#4",
          "midi": 63,
          "time": 101.25581395347645,
          "velocity": 0.16535433070866143,
          "duration": 0.034883720930224626
        },
        {
          "name": "A#4",
          "midi": 70,
          "time": 101.25581395347645,
          "velocity": 0.44881889763779526,
          "duration": 0.5581395348836082
        },
        {
          "name": "G#5",
          "midi": 80,
          "time": 101.25581395347645,
          "velocity": 0.3700787401574803,
          "duration": 0.2209302325580893
        },
        {
          "name": "D#6",
          "midi": 87,
          "time": 101.25581395347645,
          "velocity": 0.36220472440944884,
          "duration": 0.034883720930224626
        },
        {
          "name": "F#6",
          "midi": 90,
          "time": 101.25581395347645,
          "velocity": 0.2204724409448819,
          "duration": 0.04651162790696617
        },
        {
          "name": "G6",
          "midi": 91,
          "time": 101.25581395347645,
          "velocity": 0.30708661417322836,
          "duration": 0.06976744186044925
        },
        {
          "name": "E7",
          "midi": 100,
          "time": 101.25581395347645,
          "velocity": 0.33070866141732286,
          "duration": 0.10465116279067388
        },
        {
          "name": "D#5",
          "midi": 75,
          "time": 101.26744186045319,
          "velocity": 0.3228346456692913,
          "duration": 0.034883720930224626
        },
        {
          "name": "F5",
          "midi": 77,
          "time": 101.26744186045319,
          "velocity": 0.33070866141732286,
          "duration": 0.23255813953483084
        },
        {
          "name": "F#4",
          "midi": 66,
          "time": 101.27906976742993,
          "velocity": 0.5826771653543307,
          "duration": 0.5116279069766421
        },
        {
          "name": "C6",
          "midi": 84,
          "time": 101.27906976742993,
          "velocity": 0.3858267716535433,
          "duration": 0.06976744186044925
        },
        {
          "name": "D6",
          "midi": 86,
          "time": 101.27906976742993,
          "velocity": 0.30708661417322836,
          "duration": 0.034883720930224626
        },
        {
          "name": "A6",
          "midi": 93,
          "time": 101.27906976742993,
          "velocity": 0.28346456692913385,
          "duration": 0.04651162790696617
        },
        {
          "name": "B5",
          "midi": 83,
          "time": 101.29069767440667,
          "velocity": 0.1968503937007874,
          "duration": 0.034883720930224626
        },
        {
          "name": "C#4",
          "midi": 61,
          "time": 101.33720930231364,
          "velocity": 0.33858267716535434,
          "duration": 0.09302325581393234
        },
        {
          "name": "F#3",
          "midi": 54,
          "time": 101.3837209302206,
          "velocity": 0.1889763779527559,
          "duration": 0.04651162790696617
        },
        {
          "name": "A#3",
          "midi": 58,
          "time": 101.40697674417409,
          "velocity": 0.3228346456692913,
          "duration": 0.1627906976743958
        },
        {
          "name": "A#6",
          "midi": 94,
          "time": 101.45348837208105,
          "velocity": 0.1968503937007874,
          "duration": 0.034883720930224626
        },
        {
          "name": "B6",
          "midi": 95,
          "time": 101.45348837208105,
          "velocity": 0.14960629921259844,
          "duration": 0.034883720930224626
        },
        {
          "name": "C#5",
          "midi": 73,
          "time": 101.4651162790578,
          "velocity": 0.11023622047244094,
          "duration": 0.04651162790696617
        },
        {
          "name": "C#6",
          "midi": 85,
          "time": 101.4651162790578,
          "velocity": 0.4094488188976378,
          "duration": 0.360465116279002
        },
        {
          "name": "C#4",
          "midi": 61,
          "time": 101.48837209301128,
          "velocity": 0.28346456692913385,
          "duration": 0.081395348837205
        },
        {
          "name": "F5",
          "midi": 77,
          "time": 101.55813953487174,
          "velocity": 0.4566929133858268,
          "duration": 0.15116279069764005
        },
        {
          "name": "A5",
          "midi": 81,
          "time": 101.56976744184848,
          "velocity": 0.33858267716535434,
          "duration": 0.023255813953483084
        },
        {
          "name": "F#6",
          "midi": 90,
          "time": 101.56976744184848,
          "velocity": 0.11811023622047244,
          "duration": 0.04651162790696617
        },
        {
          "name": "A#3",
          "midi": 58,
          "time": 101.58139534882523,
          "velocity": 0.3700787401574803,
          "duration": 0.023255813953483084
        },
        {
          "name": "C#5",
          "midi": 73,
          "time": 101.58139534882523,
          "velocity": 0.48031496062992124,
          "duration": 0.3255813953487632
        },
        {
          "name": "D6",
          "midi": 86,
          "time": 101.58139534882523,
          "velocity": 0.31496062992125984,
          "duration": 0.034883720930224626
        },
        {
          "name": "G#6",
          "midi": 92,
          "time": 101.58139534882523,
          "velocity": 0.12598425196850394,
          "duration": 0.034883720930224626
        },
        {
          "name": "G#5",
          "midi": 80,
          "time": 101.59302325580197,
          "velocity": 0.3858267716535433,
          "duration": 0.2209302325580893
        },
        {
          "name": "A#3",
          "midi": 58,
          "time": 101.61627906975545,
          "velocity": 0.4094488188976378,
          "duration": 0.1627906976743816
        },
        {
          "name": "D6",
          "midi": 86,
          "time": 101.63953488370893,
          "velocity": 0.13385826771653545,
          "duration": 0.034883720930224626
        },
        {
          "name": "F#3",
          "midi": 54,
          "time": 101.65116279068567,
          "velocity": 0.1968503937007874,
          "duration": 0.034883720930224626
        },
        {
          "name": "C#4",
          "midi": 61,
          "time": 101.73255813952287,
          "velocity": 0.1889763779527559,
          "duration": 0.04651162790696617
        },
        {
          "name": "F#3",
          "midi": 54,
          "time": 101.7441860464996,
          "velocity": 0.2677165354330709,
          "duration": 0.11627906976741542
        },
        {
          "name": "F5",
          "midi": 77,
          "time": 101.76744186045309,
          "velocity": 0.1968503937007874,
          "duration": 0.06976744186044925
        },
        {
          "name": "B5",
          "midi": 83,
          "time": 101.77906976742983,
          "velocity": 0.2204724409448819,
          "duration": 0.034883720930224626
        },
        {
          "name": "G4",
          "midi": 67,
          "time": 101.79069767440657,
          "velocity": 0.4015748031496063,
          "duration": 0.023255813953483084
        },
        {
          "name": "F#4",
          "midi": 66,
          "time": 101.81395348836006,
          "velocity": 0.3543307086614173,
          "duration": 0.0813953488371908
        },
        {
          "name": "A#3",
          "midi": 58,
          "time": 101.8255813953368,
          "velocity": 0.5905511811023622,
          "duration": 0.10465116279067388
        },
        {
          "name": "F5",
          "midi": 77,
          "time": 101.86046511626702,
          "velocity": 0.4881889763779528,
          "duration": 0.2790697674418112
        },
        {
          "name": "D4",
          "midi": 62,
          "time": 101.8837209302205,
          "velocity": 0.4330708661417323,
          "duration": 0.034883720930224626
        },
        {
          "name": "F#3",
          "midi": 54,
          "time": 101.89534883719725,
          "velocity": 0.5826771653543307,
          "duration": 0.011627906976741542
        },
        {
          "name": "G#4",
          "midi": 68,
          "time": 101.89534883719725,
          "velocity": 0.4409448818897638,
          "duration": 0.3023255813952943
        },
        {
          "name": "A5",
          "midi": 81,
          "time": 101.89534883719725,
          "velocity": 0.31496062992125984,
          "duration": 0.023255813953483084
        },
        {
          "name": "D3",
          "midi": 50,
          "time": 101.90697674417399,
          "velocity": 0.6614173228346457,
          "duration": 0.011627906976741542
        },
        {
          "name": "C6",
          "midi": 84,
          "time": 101.90697674417399,
          "velocity": 0.2125984251968504,
          "duration": 0.11627906976741542
        },
        {
          "name": "D#6",
          "midi": 87,
          "time": 101.90697674417399,
          "velocity": 0.12598425196850394,
          "duration": 0.034883720930224626
        },
        {
          "name": "F2",
          "midi": 41,
          "time": 101.91860465115073,
          "velocity": 0.6850393700787402,
          "duration": 0.011627906976741542
        },
        {
          "name": "C#5",
          "midi": 73,
          "time": 101.91860465115073,
          "velocity": 0.31496062992125984,
          "duration": 0.11627906976741542
        },
        {
          "name": "D#5",
          "midi": 75,
          "time": 101.91860465115073,
          "velocity": 0.3700787401574803,
          "duration": 0.2209302325581035
        },
        {
          "name": "D2",
          "midi": 38,
          "time": 101.93023255812747,
          "velocity": 0.7086614173228346,
          "duration": 0.011627906976741542
        },
        {
          "name": "A3",
          "midi": 57,
          "time": 101.93023255812747,
          "velocity": 0.5196850393700787,
          "duration": 0.011627906976741542
        },
        {
          "name": "F4",
          "midi": 65,
          "time": 101.93023255812747,
          "velocity": 0.5118110236220472,
          "duration": 0.6511627906975548
        },
        {
          "name": "C2",
          "midi": 36,
          "time": 101.94186046510421,
          "velocity": 0.7322834645669292,
          "duration": 0.011627906976741542
        },
        {
          "name": "G3",
          "midi": 55,
          "time": 101.94186046510421,
          "velocity": 0.4881889763779528,
          "duration": 0.023255813953483084
        },
        {
          "name": "A#4",
          "midi": 70,
          "time": 101.94186046510421,
          "velocity": 0.25196850393700787,
          "duration": 0.023255813953483084
        },
        {
          "name": "B1",
          "midi": 35,
          "time": 101.95348837208095,
          "velocity": 0.7322834645669292,
          "duration": 0.011627906976741542
        },
        {
          "name": "C#4",
          "midi": 61,
          "time": 101.95348837208095,
          "velocity": 0.3543307086614173,
          "duration": 0.05813953488370771
        },
        {
          "name": "A#1",
          "midi": 34,
          "time": 101.9651162790577,
          "velocity": 0.7165354330708661,
          "duration": 0.011627906976741542
        },
        {
          "name": "G#3",
          "midi": 56,
          "time": 101.9651162790577,
          "velocity": 0.49606299212598426,
          "duration": 0.023255813953483084
        },
        {
          "name": "A1",
          "midi": 33,
          "time": 101.97674418603444,
          "velocity": 0.6771653543307087,
          "duration": 0.023255813953483084
        },
        {
          "name": "D#3",
          "midi": 51,
          "time": 101.98837209301118,
          "velocity": 0.3858267716535433,
          "duration": 0.569767441860364
        },
        {
          "name": "G#1",
          "midi": 32,
          "time": 101.99999999998792,
          "velocity": 0.6220472440944882,
          "duration": 0.023255813953483084
        },
        {
          "name": "G#3",
          "midi": 56,
          "time": 101.99999999998792,
          "velocity": 0.4566929133858268,
          "duration": 0.05813953488370771
        },
        {
          "name": "G1",
          "midi": 31,
          "time": 102.0232558139414,
          "velocity": 0.5984251968503937,
          "duration": 0.011627906976741542
        },
        {
          "name": "F#1",
          "midi": 30,
          "time": 102.03488372091815,
          "velocity": 0.6456692913385826,
          "duration": 0.023255813953483084
        },
        {
          "name": "G1",
          "midi": 31,
          "time": 102.05813953487163,
          "velocity": 0.7795275590551181,
          "duration": 0.10465116279068809
        },
        {
          "name": "G#3",
          "midi": 56,
          "time": 102.06976744184837,
          "velocity": 0.31496062992125984,
          "duration": 0.023255813953483084
        },
        {
          "name": "C#4",
          "midi": 61,
          "time": 102.1046511627786,
          "velocity": 0.2677165354330709,
          "duration": 0.05813953488372192
        },
        {
          "name": "A#5",
          "midi": 82,
          "time": 102.1046511627786,
          "velocity": 0.18110236220472442,
          "duration": 0.04651162790698038
        },
        {
          "name": "G#1",
          "midi": 32,
          "time": 102.16279069766232,
          "velocity": 0.7401574803149606,
          "duration": 0.023255813953483084
        },
        {
          "name": "C#4",
          "midi": 61,
          "time": 102.17441860463906,
          "velocity": 0.25984251968503935,
          "duration": 0.023255813953483084
        },
        {
          "name": "A1",
          "midi": 33,
          "time": 102.1860465116158,
          "velocity": 0.6929133858267716,
          "duration": 0.011627906976741542
        },
        {
          "name": "G#1",
          "midi": 32,
          "time": 102.19767441859254,
          "velocity": 0.6929133858267716,
          "duration": 0.360465116279002
        },
        {
          "name": "A#3",
          "midi": 58,
          "time": 102.19767441859254,
          "velocity": 0.2677165354330709,
          "duration": 0.034883720930224626
        },
        {
          "name": "G#4",
          "midi": 68,
          "time": 102.20930232556928,
          "velocity": 0.6141732283464567,
          "duration": 0.2209302325580893
        },
        {
          "name": "C6",
          "midi": 84,
          "time": 102.22093023254602,
          "velocity": 0.2125984251968504,
          "duration": 0.0813953488371908
        },
        {
          "name": "D#6",
          "midi": 87,
          "time": 102.22093023254602,
          "velocity": 0.25984251968503935,
          "duration": 0.05813953488370771
        },
        {
          "name": "C#4",
          "midi": 61,
          "time": 102.24418604649951,
          "velocity": 0.4251968503937008,
          "duration": 0.06976744186044925
        },
        {
          "name": "D#5",
          "midi": 75,
          "time": 102.25581395347625,
          "velocity": 0.11023622047244094,
          "duration": 0.04651162790696617
        },
        {
          "name": "C4",
          "midi": 60,
          "time": 102.31395348835996,
          "velocity": 0.2440944881889764,
          "duration": 0.023255813953483084
        },
        {
          "name": "D#6",
          "midi": 87,
          "time": 102.31395348835996,
          "velocity": 0.14960629921259844,
          "duration": 0.10465116279067388
        },
        {
          "name": "C4",
          "midi": 60,
          "time": 102.34883720929018,
          "velocity": 0.2677165354330709,
          "duration": 0.023255813953483084
        },
        {
          "name": "C6",
          "midi": 84,
          "time": 102.36046511626692,
          "velocity": 0.07874015748031496,
          "duration": 0.05813953488370771
        },
        {
          "name": "C#4",
          "midi": 61,
          "time": 102.39534883719715,
          "velocity": 0.1968503937007874,
          "duration": 0.034883720930224626
        },
        {
          "name": "D5",
          "midi": 74,
          "time": 102.43023255812737,
          "velocity": 0.28346456692913385,
          "duration": 0.034883720930224626
        },
        {
          "name": "B5",
          "midi": 83,
          "time": 102.43023255812737,
          "velocity": 0.16535433070866143,
          "duration": 0.04651162790696617
        },
        {
          "name": "C#6",
          "midi": 85,
          "time": 102.43023255812737,
          "velocity": 0.3937007874015748,
          "duration": 0.04651162790696617
        },
        {
          "name": "A6",
          "midi": 93,
          "time": 102.43023255812737,
          "velocity": 0.1968503937007874,
          "duration": 0.034883720930224626
        },
        {
          "name": "B6",
          "midi": 95,
          "time": 102.43023255812737,
          "velocity": 0.2047244094488189,
          "duration": 0.034883720930224626
        },
        {
          "name": "G#5",
          "midi": 80,
          "time": 102.44186046510411,
          "velocity": 0.36220472440944884,
          "duration": 0.11627906976742963
        },
        {
          "name": "C6",
          "midi": 84,
          "time": 102.44186046510411,
          "velocity": 0.4094488188976378,
          "duration": 0.23255813953484505
        },
        {
          "name": "D#6",
          "midi": 87,
          "time": 102.44186046510411,
          "velocity": 0.09448818897637795,
          "duration": 0.081395348837205
        },
        {
          "name": "F#6",
          "midi": 90,
          "time": 102.44186046510411,
          "velocity": 0.13385826771653545,
          "duration": 0.034883720930224626
        },
        {
          "name": "C#5",
          "midi": 73,
          "time": 102.45348837208086,
          "velocity": 0.3543307086614173,
          "duration": 0.09302325581394655
        },
        {
          "name": "C#4",
          "midi": 61,
          "time": 102.4651162790576,
          "velocity": 0.3858267716535433,
          "duration": 0.11627906976742963
        },
        {
          "name": "D#5",
          "midi": 75,
          "time": 102.4651162790576,
          "velocity": 0.3779527559055118,
          "duration": 0.13953488372091272
        },
        {
          "name": "G#3",
          "midi": 56,
          "time": 102.47674418603434,
          "velocity": 0.09448818897637795,
          "duration": 0.03488372093023884
        },
        {
          "name": "G#4",
          "midi": 68,
          "time": 102.47674418603434,
          "velocity": 0.16535433070866143,
          "duration": 0.06976744186046346
        },
        {
          "name": "A#5",
          "midi": 82,
          "time": 102.53488372091806,
          "velocity": 0.3228346456692913,
          "duration": 0.06976744186044925
        },
        {
          "name": "D6",
          "midi": 86,
          "time": 102.53488372091806,
          "velocity": 0.2677165354330709,
          "duration": 0.04651162790696617
        },
        {
          "name": "F#6",
          "midi": 90,
          "time": 102.53488372091806,
          "velocity": 0.2677165354330709,
          "duration": 0.09302325581393234
        },
        {
          "name": "G#6",
          "midi": 92,
          "time": 102.53488372091806,
          "velocity": 0.4330708661417323,
          "duration": 0.06976744186044925
        },
        {
          "name": "C5",
          "midi": 72,
          "time": 102.5465116278948,
          "velocity": 0.2440944881889764,
          "duration": 0.023255813953483084
        },
        {
          "name": "E6",
          "midi": 88,
          "time": 102.5465116278948,
          "velocity": 0.2755905511811024,
          "duration": 0.0813953488371908
        },
        {
          "name": "B6",
          "midi": 95,
          "time": 102.5465116278948,
          "velocity": 0.16535433070866143,
          "duration": 0.09302325581393234
        },
        {
          "name": "C#7",
          "midi": 97,
          "time": 102.5465116278948,
          "velocity": 0.2677165354330709,
          "duration": 0.09302325581393234
        },
        {
          "name": "D#7",
          "midi": 99,
          "time": 102.5465116278948,
          "velocity": 0.30708661417322836,
          "duration": 0.11627906976741542
        },
        {
          "name": "F7",
          "midi": 101,
          "time": 102.5465116278948,
          "velocity": 0.25196850393700787,
          "duration": 0.09302325581393234
        },
        {
          "name": "G7",
          "midi": 103,
          "time": 102.5465116278948,
          "velocity": 0.28346456692913385,
          "duration": 0.10465116279067388
        },
        {
          "name": "A1",
          "midi": 33,
          "time": 102.55813953487154,
          "velocity": 0.5905511811023622,
          "duration": 0.011627906976741542
        },
        {
          "name": "A#4",
          "midi": 70,
          "time": 102.55813953487154,
          "velocity": 0.25984251968503935,
          "duration": 0.034883720930224626
        },
        {
          "name": "G5",
          "midi": 79,
          "time": 102.55813953487154,
          "velocity": 0.3228346456692913,
          "duration": 0.023255813953483084
        },
        {
          "name": "C#6",
          "midi": 85,
          "time": 102.55813953487154,
          "velocity": 0.36220472440944884,
          "duration": 0.04651162790696617
        },
        {
          "name": "G6",
          "midi": 91,
          "time": 102.55813953487154,
          "velocity": 0.3700787401574803,
          "duration": 0.023255813953483084
        },
        {
          "name": "D7",
          "midi": 98,
          "time": 102.55813953487154,
          "velocity": 0.2677165354330709,
          "duration": 0.0813953488371908
        },
        {
          "name": "A#1",
          "midi": 34,
          "time": 102.56976744184828,
          "velocity": 0.5118110236220472,
          "duration": 0.011627906976741542
        },
        {
          "name": "G#4",
          "midi": 68,
          "time": 102.56976744184828,
          "velocity": 0.3779527559055118,
          "duration": 0.20930232558137618
        },
        {
          "name": "C#5",
          "midi": 73,
          "time": 102.56976744184828,
          "velocity": 0.3937007874015748,
          "duration": 0.05813953488370771
        },
        {
          "name": "A6",
          "midi": 93,
          "time": 102.56976744184828,
          "velocity": 0.3543307086614173,
          "duration": 0.06976744186044925
        },
        {
          "name": "C4",
          "midi": 60,
          "time": 102.58139534882503,
          "velocity": 0.3464566929133858,
          "duration": 0.023255813953483084
        },
        {
          "name": "E7",
          "midi": 100,
          "time": 102.58139534882503,
          "velocity": 0.3228346456692913,
          "duration": 0.0813953488371908
        },
        {
          "name": "B4",
          "midi": 71,
          "time": 102.59302325580177,
          "velocity": 0.25196850393700787,
          "duration": 0.034883720930224626
        },
        {
          "name": "G6",
          "midi": 91,
          "time": 102.59302325580177,
          "velocity": 0.2125984251968504,
          "duration": 0.034883720930224626
        },
        {
          "name": "C#4",
          "midi": 61,
          "time": 102.60465116277851,
          "velocity": 0.30708661417322836,
          "duration": 0.11627906976742963
        },
        {
          "name": "F4",
          "midi": 65,
          "time": 102.60465116277851,
          "velocity": 0.3464566929133858,
          "duration": 0.16279069767441
        },
        {
          "name": "G#3",
          "midi": 56,
          "time": 102.61627906975525,
          "velocity": 0.1968503937007874,
          "duration": 0.15116279069766847
        },
        {
          "name": "D#5",
          "midi": 75,
          "time": 102.61627906975525,
          "velocity": 0.2125984251968504,
          "duration": 0.16279069767441
        },
        {
          "name": "G3",
          "midi": 55,
          "time": 102.76744186045292,
          "velocity": 0.3700787401574803,
          "duration": 0.04651162790696617
        },
        {
          "name": "C#6",
          "midi": 85,
          "time": 102.76744186045292,
          "velocity": 0.18110236220472442,
          "duration": 0.034883720930224626
        },
        {
          "name": "C#4",
          "midi": 61,
          "time": 102.7906976744064,
          "velocity": 0.16535433070866143,
          "duration": 0.081395348837205
        },
        {
          "name": "F4",
          "midi": 65,
          "time": 102.7906976744064,
          "velocity": 0.44881889763779526,
          "duration": 0.13953488372091272
        },
        {
          "name": "D#5",
          "midi": 75,
          "time": 102.7906976744064,
          "velocity": 0.47244094488188976,
          "duration": 0.31395348837206427
        },
        {
          "name": "G#3",
          "midi": 56,
          "time": 102.81395348835989,
          "velocity": 0.41732283464566927,
          "duration": 0.31395348837206427
        },
        {
          "name": "A5",
          "midi": 81,
          "time": 102.87209302324361,
          "velocity": 0.3858267716535433,
          "duration": 0.034883720930224626
        },
        {
          "name": "E6",
          "midi": 88,
          "time": 102.87209302324361,
          "velocity": 0.2204724409448819,
          "duration": 0.034883720930224626
        },
        {
          "name": "F#6",
          "midi": 90,
          "time": 102.87209302324361,
          "velocity": 0.2677165354330709,
          "duration": 0.034883720930224626
        },
        {
          "name": "C#4",
          "midi": 61,
          "time": 102.88372093022035,
          "velocity": 0.4566929133858268,
          "duration": 0.31395348837206427
        },
        {
          "name": "G#4",
          "midi": 68,
          "time": 102.88372093022035,
          "velocity": 0.5590551181102362,
          "duration": 0.13953488372091272
        },
        {
          "name": "C6",
          "midi": 84,
          "time": 102.88372093022035,
          "velocity": 0.29133858267716534,
          "duration": 0.13953488372091272
        },
        {
          "name": "G#6",
          "midi": 92,
          "time": 102.88372093022035,
          "velocity": 0.14173228346456693,
          "duration": 0.04651162790696617
        },
        {
          "name": "F4",
          "midi": 65,
          "time": 102.9534883720808,
          "velocity": 0.5275590551181102,
          "duration": 0.2674418604650981
        },
        {
          "name": "C6",
          "midi": 84,
          "time": 103.09302325580173,
          "velocity": 0.30708661417322836,
          "duration": 0.11627906976742963
        },
        {
          "name": "D#5",
          "midi": 75,
          "time": 103.11627906975521,
          "velocity": 0.2440944881889764,
          "duration": 0.09302325581394655
        },
        {
          "name": "F3",
          "midi": 53,
          "time": 103.19767441859241,
          "velocity": 0.5118110236220472,
          "duration": 0.011627906976741542
        },
        {
          "name": "B5",
          "midi": 83,
          "time": 103.19767441859241,
          "velocity": 0.2204724409448819,
          "duration": 0.034883720930224626
        },
        {
          "name": "F#6",
          "midi": 90,
          "time": 103.19767441859241,
          "velocity": 0.12598425196850394,
          "duration": 0.034883720930224626
        },
        {
          "name": "G6",
          "midi": 91,
          "time": 103.19767441859241,
          "velocity": 0.16535433070866143,
          "duration": 0.04651162790696617
        },
        {
          "name": "D3",
          "midi": 50,
          "time": 103.20930232556915,
          "velocity": 0.6614173228346457,
          "duration": 0.011627906976741542
        },
        {
          "name": "C7",
          "midi": 96,
          "time": 103.20930232556915,
          "velocity": 0.10236220472440945,
          "duration": 0.034883720930224626
        },
        {
          "name": "D#7",
          "midi": 99,
          "time": 103.20930232556915,
          "velocity": 0.14960629921259844,
          "duration": 0.034883720930224626
        },
        {
          "name": "F7",
          "midi": 101,
          "time": 103.20930232556915,
          "velocity": 0.16535433070866143,
          "duration": 0.034883720930224626
        },
        {
          "name": "F#7",
          "midi": 102,
          "time": 103.20930232556915,
          "velocity": 0.18110236220472442,
          "duration": 0.04651162790696617
        },
        {
          "name": "F2",
          "midi": 41,
          "time": 103.2209302325459,
          "velocity": 0.6771653543307087,
          "duration": 0.011627906976741542
        },
        {
          "name": "A3",
          "midi": 57,
          "time": 103.2209302325459,
          "velocity": 0.4409448818897638,
          "duration": 0.034883720930224626
        },
        {
          "name": "D4",
          "midi": 62,
          "time": 103.2209302325459,
          "velocity": 0.28346456692913385,
          "duration": 0.023255813953483084
        },
        {
          "name": "D2",
          "midi": 38,
          "time": 103.23255813952264,
          "velocity": 0.6929133858267716,
          "duration": 0.011627906976741542
        },
        {
          "name": "F4",
          "midi": 65,
          "time": 103.23255813952264,
          "velocity": 0.33858267716535434,
          "duration": 0.06976744186044925
        },
        {
          "name": "G#4",
          "midi": 68,
          "time": 103.23255813952264,
          "velocity": 0.29133858267716534,
          "duration": 0.1627906976743816
        },
        {
          "name": "C#2",
          "midi": 37,
          "time": 103.24418604649938,
          "velocity": 0.7401574803149606,
          "duration": 0.011627906976741542
        },
        {
          "name": "C#4",
          "midi": 61,
          "time": 103.24418604649938,
          "velocity": 0.14173228346456693,
          "duration": 0.0813953488371908
        },
        {
          "name": "B1",
          "midi": 35,
          "time": 103.25581395347612,
          "velocity": 0.7559055118110236,
          "duration": 0.011627906976741542
        },
        {
          "name": "D#3",
          "midi": 51,
          "time": 103.25581395347612,
          "velocity": 0.36220472440944884,
          "duration": 0.1627906976743816
        },
        {
          "name": "G#3",
          "midi": 56,
          "time": 103.25581395347612,
          "velocity": 0.3937007874015748,
          "duration": 0.06976744186044925
        },
        {
          "name": "A#1",
          "midi": 34,
          "time": 103.26744186045286,
          "velocity": 0.7401574803149606,
          "duration": 0.023255813953483084
        },
        {
          "name": "D#5",
          "midi": 75,
          "time": 103.2790697674296,
          "velocity": 0.16535433070866143,
          "duration": 0.10465116279067388
        },
        {
          "name": "A1",
          "midi": 33,
          "time": 103.29069767440635,
          "velocity": 0.6692913385826772,
          "duration": 0.011627906976741542
        },
        {
          "name": "G#1",
          "midi": 32,
          "time": 103.30232558138309,
          "velocity": 0.6456692913385826,
          "duration": 0.023255813953483084
        },
        {
          "name": "G1",
          "midi": 31,
          "time": 103.32558139533657,
          "velocity": 0.6062992125984252,
          "duration": 0.011627906976741542
        },
        {
          "name": "F#1",
          "midi": 30,
          "time": 103.33720930231331,
          "velocity": 0.6456692913385826,
          "duration": 0.023255813953483084
        },
        {
          "name": "G#3",
          "midi": 56,
          "time": 103.33720930231331,
          "velocity": 0.1968503937007874,
          "duration": 0.0813953488371908
        },
        {
          "name": "F5",
          "midi": 77,
          "time": 103.33720930231331,
          "velocity": 0.10236220472440945,
          "duration": 0.05813953488370771
        },
        {
          "name": "G1",
          "midi": 31,
          "time": 103.3604651162668,
          "velocity": 0.7637795275590551,
          "duration": 0.10465116279067388
        },
        {
          "name": "C4",
          "midi": 60,
          "time": 103.3604651162668,
          "velocity": 0.18110236220472442,
          "duration": 0.04651162790696617
        },
        {
          "name": "C#4",
          "midi": 61,
          "time": 103.40697674417376,
          "velocity": 0.29133858267716534,
          "duration": 0.04651162790696617
        },
        {
          "name": "F4",
          "midi": 65,
          "time": 103.40697674417376,
          "velocity": 0.29133858267716534,
          "duration": 0.034883720930224626
        },
        {
          "name": "A#5",
          "midi": 82,
          "time": 103.40697674417376,
          "velocity": 0.25196850393700787,
          "duration": 0.09302325581393234
        },
        {
          "name": "F#5",
          "midi": 78,
          "time": 103.4186046511505,
          "velocity": 0.25196850393700787,
          "duration": 0.034883720930224626
        },
        {
          "name": "D#6",
          "midi": 87,
          "time": 103.4186046511505,
          "velocity": 0.1968503937007874,
          "duration": 0.09302325581393234
        },
        {
          "name": "E6",
          "midi": 88,
          "time": 103.4186046511505,
          "velocity": 0.2047244094488189,
          "duration": 0.06976744186044925
        },
        {
          "name": "F6",
          "midi": 89,
          "time": 103.4186046511505,
          "velocity": 0.1968503937007874,
          "duration": 0.04651162790696617
        },
        {
          "name": "D#3",
          "midi": 51,
          "time": 103.43023255812724,
          "velocity": 0.5433070866141733,
          "duration": 0.10465116279067388
        },
        {
          "name": "C5",
          "midi": 72,
          "time": 103.43023255812724,
          "velocity": 0.4251968503937008,
          "duration": 0.09302325581393234
        },
        {
          "name": "D#5",
          "midi": 75,
          "time": 103.43023255812724,
          "velocity": 0.44881889763779526,
          "duration": 0.4069767441859824
        },
        {
          "name": "G#4",
          "midi": 68,
          "time": 103.44186046510399,
          "velocity": 0.25196850393700787,
          "duration": 0.09302325581393234
        },
        {
          "name": "G#5",
          "midi": 80,
          "time": 103.44186046510399,
          "velocity": 0.2992125984251969,
          "duration": 0.05813953488370771
        },
        {
          "name": "C4",
          "midi": 60,
          "time": 103.45348837208073,
          "velocity": 0.4881889763779528,
          "duration": 0.06976744186044925
        },
        {
          "name": "G5",
          "midi": 79,
          "time": 103.45348837208073,
          "velocity": 0.2677165354330709,
          "duration": 0.0813953488371908
        },
        {
          "name": "G#1",
          "midi": 32,
          "time": 103.46511627905747,
          "velocity": 0.7401574803149606,
          "duration": 0.034883720930224626
        },
        {
          "name": "A1",
          "midi": 33,
          "time": 103.4999999999877,
          "velocity": 0.6850393700787402,
          "duration": 0.011627906976741542
        },
        {
          "name": "G#1",
          "midi": 32,
          "time": 103.51162790696443,
          "velocity": 0.6850393700787402,
          "duration": 0.023255813953483084
        },
        {
          "name": "C#5",
          "midi": 73,
          "time": 103.52325581394118,
          "velocity": 0.29133858267716534,
          "duration": 0.034883720930224626
        },
        {
          "name": "B5",
          "midi": 83,
          "time": 103.52325581394118,
          "velocity": 0.1889763779527559,
          "duration": 0.034883720930224626
        },
        {
          "name": "F#1",
          "midi": 30,
          "time": 103.53488372091792,
          "velocity": 0.6141732283464567,
          "duration": 0.011627906976741542
        },
        {
          "name": "C#2",
          "midi": 37,
          "time": 103.53488372091792,
          "velocity": 0.5984251968503937,
          "duration": 0.011627906976741542
        },
        {
          "name": "D3",
          "midi": 50,
          "time": 103.53488372091792,
          "velocity": 0.6692913385826772,
          "duration": 0.023255813953483084
        },
        {
          "name": "G#5",
          "midi": 80,
          "time": 103.53488372091792,
          "velocity": 0.1889763779527559,
          "duration": 0.09302325581393234
        },
        {
          "name": "G6",
          "midi": 91,
          "time": 103.53488372091792,
          "velocity": 0.10236220472440945,
          "duration": 0.034883720930224626
        },
        {
          "name": "D7",
          "midi": 98,
          "time": 103.53488372091792,
          "velocity": 0.10236220472440945,
          "duration": 0.034883720930224626
        },
        {
          "name": "F7",
          "midi": 101,
          "time": 103.53488372091792,
          "velocity": 0.15748031496062992,
          "duration": 0.034883720930224626
        },
        {
          "name": "F#7",
          "midi": 102,
          "time": 103.53488372091792,
          "velocity": 0.12598425196850394,
          "duration": 0.04651162790696617
        },
        {
          "name": "G7",
          "midi": 103,
          "time": 103.53488372091792,
          "velocity": 0.10236220472440945,
          "duration": 0.034883720930224626
        },
        {
          "name": "F#2",
          "midi": 42,
          "time": 103.54651162789466,
          "velocity": 0.6771653543307087,
          "duration": 0.011627906976741542
        },
        {
          "name": "G#4",
          "midi": 68,
          "time": 103.54651162789466,
          "velocity": 0.5984251968503937,
          "duration": 0.4651162790697043
        },
        {
          "name": "A#5",
          "midi": 82,
          "time": 103.54651162789466,
          "velocity": 0.1732283464566929,
          "duration": 0.1395348837208985
        },
        {
          "name": "C#2",
          "midi": 37,
          "time": 103.5581395348714,
          "velocity": 0.7401574803149606,
          "duration": 0.023255813953483084
        },
        {
          "name": "C5",
          "midi": 72,
          "time": 103.5581395348714,
          "velocity": 0.25984251968503935,
          "duration": 0.290697674418567
        },
        {
          "name": "F3",
          "midi": 53,
          "time": 103.56976744184814,
          "velocity": 0.29133858267716534,
          "duration": 0.023255813953483084
        },
        {
          "name": "C4",
          "midi": 60,
          "time": 103.56976744184814,
          "velocity": 0.3543307086614173,
          "duration": 0.290697674418567
        },
        {
          "name": "D#4",
          "midi": 63,
          "time": 103.56976744184814,
          "velocity": 0.3937007874015748,
          "duration": 0.15116279069764005
        },
        {
          "name": "B1",
          "midi": 35,
          "time": 103.58139534882488,
          "velocity": 0.7480314960629921,
          "duration": 0.011627906976741542
        },
        {
          "name": "G5",
          "midi": 79,
          "time": 103.58139534882488,
          "velocity": 0.18110236220472442,
          "duration": 0.0813953488371908
        },
        {
          "name": "A#1",
          "midi": 34,
          "time": 103.59302325580163,
          "velocity": 0.7322834645669292,
          "duration": 0.023255813953483084
        },
        {
          "name": "A1",
          "midi": 33,
          "time": 103.61627906975511,
          "velocity": 0.6692913385826772,
          "duration": 0.011627906976741542
        },
        {
          "name": "D#3",
          "midi": 51,
          "time": 103.61627906975511,
          "velocity": 0.2047244094488189,
          "duration": 0.04651162790696617
        },
        {
          "name": "G#1",
          "midi": 32,
          "time": 103.62790697673185,
          "velocity": 0.6377952755905512,
          "duration": 0.023255813953483084
        },
        {
          "name": "G#3",
          "midi": 56,
          "time": 103.63953488370859,
          "velocity": 0.11811023622047244,
          "duration": 0.04651162790696617
        },
        {
          "name": "G1",
          "midi": 31,
          "time": 103.65116279068533,
          "velocity": 0.5984251968503937,
          "duration": 0.011627906976741542
        },
        {
          "name": "F#1",
          "midi": 30,
          "time": 103.66279069766207,
          "velocity": 0.6377952755905512,
          "duration": 0.023255813953483084
        },
        {
          "name": "D#3",
          "midi": 51,
          "time": 103.67441860463882,
          "velocity": 0.3858267716535433,
          "duration": 0.19767441860463464
        },
        {
          "name": "A#4",
          "midi": 70,
          "time": 103.67441860463882,
          "velocity": 0.2283464566929134,
          "duration": 0.023255813953483084
        },
        {
          "name": "G1",
          "midi": 31,
          "time": 103.68604651161556,
          "velocity": 0.7716535433070866,
          "duration": 0.10465116279068809
        },
        {
          "name": "A#4",
          "midi": 70,
          "time": 103.70930232556904,
          "velocity": 0.16535433070866143,
          "duration": 0.034883720930224626
        },
        {
          "name": "C#6",
          "midi": 85,
          "time": 103.74418604649927,
          "velocity": 0.11811023622047244,
          "duration": 0.03488372093023884
        },
        {
          "name": "G#1",
          "midi": 32,
          "time": 103.79069767440625,
          "velocity": 0.7480314960629921,
          "duration": 0.03488372093023884
        },
        {
          "name": "A1",
          "midi": 33,
          "time": 103.82558139533649,
          "velocity": 0.6850393700787402,
          "duration": 0.011627906976741542
        },
        {
          "name": "G#1",
          "midi": 32,
          "time": 103.83720930231323,
          "velocity": 0.6929133858267716,
          "duration": 0.023255813953483084
        },
        {
          "name": "C#5",
          "midi": 73,
          "time": 103.84883720928997,
          "velocity": 0.3779527559055118,
          "duration": 0.04651162790696617
        },
        {
          "name": "E5",
          "midi": 76,
          "time": 103.84883720928997,
          "velocity": 0.30708661417322836,
          "duration": 0.06976744186044925
        },
        {
          "name": "A#5",
          "midi": 82,
          "time": 103.84883720928997,
          "velocity": 0.2992125984251969,
          "duration": 0.034883720930224626
        },
        {
          "name": "C6",
          "midi": 84,
          "time": 103.84883720928997,
          "velocity": 0.4409448818897638,
          "duration": 0.15116279069765426
        },
        {
          "name": "F6",
          "midi": 89,
          "time": 103.84883720928997,
          "velocity": 0.3228346456692913,
          "duration": 0.11627906976741542
        },
        {
          "name": "F#6",
          "midi": 90,
          "time": 103.84883720928997,
          "velocity": 0.2992125984251969,
          "duration": 0.034883720930224626
        },
        {
          "name": "G#6",
          "midi": 92,
          "time": 103.84883720928997,
          "velocity": 0.3858267716535433,
          "duration": 0.034883720930224626
        },
        {
          "name": "B6",
          "midi": 95,
          "time": 103.84883720928997,
          "velocity": 0.2125984251968504,
          "duration": 0.05813953488370771
        },
        {
          "name": "D7",
          "midi": 98,
          "time": 103.84883720928997,
          "velocity": 0.2677165354330709,
          "duration": 0.11627906976741542
        },
        {
          "name": "G7",
          "midi": 103,
          "time": 103.84883720928997,
          "velocity": 0.28346456692913385,
          "duration": 0.11627906976741542
        },
        {
          "name": "A1",
          "midi": 33,
          "time": 103.86046511626671,
          "velocity": 0.6692913385826772,
          "duration": 0.011627906976741542
        },
        {
          "name": "G5",
          "midi": 79,
          "time": 103.86046511626671,
          "velocity": 0.4015748031496063,
          "duration": 0.04651162790696617
        },
        {
          "name": "A5",
          "midi": 81,
          "time": 103.86046511626671,
          "velocity": 0.2992125984251969,
          "duration": 0.05813953488370771
        },
        {
          "name": "C#6",
          "midi": 85,
          "time": 103.86046511626671,
          "velocity": 0.3937007874015748,
          "duration": 0.04651162790696617
        },
        {
          "name": "A6",
          "midi": 93,
          "time": 103.86046511626671,
          "velocity": 0.3858267716535433,
          "duration": 0.06976744186044925
        },
        {
          "name": "A#6",
          "midi": 94,
          "time": 103.86046511626671,
          "velocity": 0.31496062992125984,
          "duration": 0.09302325581393234
        },
        {
          "name": "E7",
          "midi": 100,
          "time": 103.86046511626671,
          "velocity": 0.30708661417322836,
          "duration": 0.10465116279067388
        },
        {
          "name": "A#1",
          "midi": 34,
          "time": 103.87209302324345,
          "velocity": 0.6141732283464567,
          "duration": 0.011627906976741542
        },
        {
          "name": "D#4",
          "midi": 63,
          "time": 103.87209302324345,
          "velocity": 0.28346456692913385,
          "duration": 0.18604651162787889
        },
        {
          "name": "A#4",
          "midi": 70,
          "time": 103.87209302324345,
          "velocity": 0.3779527559055118,
          "duration": 0.20930232558136197
        },
        {
          "name": "D#6",
          "midi": 87,
          "time": 103.87209302324345,
          "velocity": 0.33858267716535434,
          "duration": 0.06976744186044925
        },
        {
          "name": "D#7",
          "midi": 99,
          "time": 103.87209302324345,
          "velocity": 0.3543307086614173,
          "duration": 0.09302325581393234
        },
        {
          "name": "C5",
          "midi": 72,
          "time": 103.88372093022019,
          "velocity": 0.41732283464566927,
          "duration": 0.0813953488371908
        },
        {
          "name": "F#5",
          "midi": 78,
          "time": 103.88372093022019,
          "velocity": 0.23622047244094488,
          "duration": 0.023255813953483084
        },
        {
          "name": "B5",
          "midi": 83,
          "time": 103.88372093022019,
          "velocity": 0.2440944881889764,
          "duration": 0.023255813953483084
        },
        {
          "name": "D#3",
          "midi": 51,
          "time": 103.90697674417368,
          "velocity": 0.2440944881889764,
          "duration": 0.15116279069765426
        },
        {
          "name": "G#3",
          "midi": 56,
          "time": 103.90697674417368,
          "velocity": 0.2125984251968504,
          "duration": 0.15116279069765426
        },
        {
          "name": "D6",
          "midi": 86,
          "time": 103.90697674417368,
          "velocity": 0.25984251968503935,
          "duration": 0.023255813953483084
        },
        {
          "name": "C4",
          "midi": 60,
          "time": 103.93023255812716,
          "velocity": 0.2047244094488189,
          "duration": 0.10465116279068809
        },
        {
          "name": "F3",
          "midi": 53,
          "time": 104.06976744184807,
          "velocity": 0.6614173228346457,
          "duration": 0.011627906976741542
        },
        {
          "name": "A4",
          "midi": 69,
          "time": 104.06976744184807,
          "velocity": 0.3228346456692913,
          "duration": 0.04651162790696617
        },
        {
          "name": "E5",
          "midi": 76,
          "time": 104.06976744184807,
          "velocity": 0.2677165354330709,
          "duration": 0.023255813953483084
        },
        {
          "name": "G5",
          "midi": 79,
          "time": 104.06976744184807,
          "velocity": 0.15748031496062992,
          "duration": 0.04651162790696617
        },
        {
          "name": "E7",
          "midi": 100,
          "time": 104.06976744184807,
          "velocity": 0.09448818897637795,
          "duration": 0.034883720930224626
        },
        {
          "name": "F7",
          "midi": 101,
          "time": 104.06976744184807,
          "velocity": 0.16535433070866143,
          "duration": 0.034883720930224626
        },
        {
          "name": "C3",
          "midi": 48,
          "time": 104.08139534882481,
          "velocity": 0.7401574803149606,
          "duration": 0.011627906976741542
        },
        {
          "name": "F4",
          "midi": 65,
          "time": 104.08139534882481,
          "velocity": 0.3543307086614173,
          "duration": 0.023255813953483084
        },
        {
          "name": "F#2",
          "midi": 42,
          "time": 104.09302325580155,
          "velocity": 0.7952755905511811,
          "duration": 0.011627906976741542
        },
        {
          "name": "B3",
          "midi": 59,
          "time": 104.09302325580155,
          "velocity": 0.4566929133858268,
          "duration": 0.023255813953483084
        },
        {
          "name": "D2",
          "midi": 38,
          "time": 104.1046511627783,
          "velocity": 0.7952755905511811,
          "duration": 0.011627906976741542
        },
        {
          "name": "C2",
          "midi": 36,
          "time": 104.11627906975504,
          "velocity": 0.8110236220472441,
          "duration": 0.011627906976741542
        },
        {
          "name": "G#4",
          "midi": 68,
          "time": 104.11627906975504,
          "velocity": 0.5354330708661418,
          "duration": 0.27906976744182543
        },
        {
          "name": "A#4",
          "midi": 70,
          "time": 104.11627906975504,
          "velocity": 0.1889763779527559,
          "duration": 0.05813953488372192
        },
        {
          "name": "A#1",
          "midi": 34,
          "time": 104.12790697673178,
          "velocity": 0.7795275590551181,
          "duration": 0.011627906976741542
        },
        {
          "name": "D#3",
          "midi": 51,
          "time": 104.12790697673178,
          "velocity": 0.4330708661417323,
          "duration": 0.2674418604650839
        },
        {
          "name": "D#4",
          "midi": 63,
          "time": 104.12790697673178,
          "velocity": 0.5039370078740157,
          "duration": 0.23255813953484505
        },
        {
          "name": "C5",
          "midi": 72,
          "time": 104.12790697673178,
          "velocity": 0.3700787401574803,
          "duration": 0.06976744186046346
        },
        {
          "name": "G#1",
          "midi": 32,
          "time": 104.13953488370852,
          "velocity": 0.7795275590551181,
          "duration": 0.37209302325575777
        },
        {
          "name": "B3",
          "midi": 59,
          "time": 104.17441860463876,
          "velocity": 0.2677165354330709,
          "duration": 0.023255813953483084
        },
        {
          "name": "A#5",
          "midi": 82,
          "time": 104.17441860463876,
          "velocity": 0.1968503937007874,
          "duration": 0.18604651162786467
        },
        {
          "name": "C#6",
          "midi": 85,
          "time": 104.1860465116155,
          "velocity": 0.15748031496062992,
          "duration": 0.034883720930224626
        },
        {
          "name": "D#6",
          "midi": 87,
          "time": 104.1860465116155,
          "velocity": 0.23622047244094488,
          "duration": 0.15116279069764005
        },
        {
          "name": "F6",
          "midi": 89,
          "time": 104.1860465116155,
          "velocity": 0.1732283464566929,
          "duration": 0.06976744186044925
        },
        {
          "name": "A#4",
          "midi": 70,
          "time": 104.19767441859224,
          "velocity": 0.4645669291338583,
          "duration": 0.023255813953483084
        },
        {
          "name": "E6",
          "midi": 88,
          "time": 104.19767441859224,
          "velocity": 0.14173228346456693,
          "duration": 0.04651162790696617
        },
        {
          "name": "C5",
          "midi": 72,
          "time": 104.22093023254573,
          "velocity": 0.31496062992125984,
          "duration": 0.09302325581393234
        },
        {
          "name": "A#4",
          "midi": 70,
          "time": 104.26744186045269,
          "velocity": 0.4094488188976378,
          "duration": 0.25581395348832814
        },
        {
          "name": "G5",
          "midi": 79,
          "time": 104.29069767440618,
          "velocity": 0.07874015748031496,
          "duration": 0.04651162790696617
        },
        {
          "name": "C4",
          "midi": 60,
          "time": 104.31395348835966,
          "velocity": 0.3543307086614173,
          "duration": 0.09302325581394655
        },
        {
          "name": "D#5",
          "midi": 75,
          "time": 104.39534883719686,
          "velocity": 0.4566929133858268,
          "duration": 0.45348837209293436
        },
        {
          "name": "D7",
          "midi": 98,
          "time": 104.39534883719686,
          "velocity": 0.10236220472440945,
          "duration": 0.034883720930224626
        },
        {
          "name": "E7",
          "midi": 100,
          "time": 104.39534883719686,
          "velocity": 0.15748031496062992,
          "duration": 0.034883720930224626
        },
        {
          "name": "F7",
          "midi": 101,
          "time": 104.39534883719686,
          "velocity": 0.18110236220472442,
          "duration": 0.034883720930224626
        },
        {
          "name": "G#3",
          "midi": 56,
          "time": 104.4069767441736,
          "velocity": 0.47244094488188976,
          "duration": 0.10465116279067388
        },
        {
          "name": "F#7",
          "midi": 102,
          "time": 104.4069767441736,
          "velocity": 0.14173228346456693,
          "duration": 0.034883720930224626
        },
        {
          "name": "G7",
          "midi": 103,
          "time": 104.4069767441736,
          "velocity": 0.13385826771653545,
          "duration": 0.034883720930224626
        },
        {
          "name": "D#3",
          "midi": 51,
          "time": 104.43023255812709,
          "velocity": 0.3700787401574803,
          "duration": 0.06976744186044925
        },
        {
          "name": "C4",
          "midi": 60,
          "time": 104.44186046510383,
          "velocity": 0.3779527559055118,
          "duration": 0.06976744186044925
        },
        {
          "name": "C#7",
          "midi": 97,
          "time": 104.45348837208057,
          "velocity": 0.15748031496062992,
          "duration": 0.034883720930224626
        },
        {
          "name": "D#7",
          "midi": 99,
          "time": 104.45348837208057,
          "velocity": 0.16535433070866143,
          "duration": 0.034883720930224626
        },
        {
          "name": "F7",
          "midi": 101,
          "time": 104.45348837208057,
          "velocity": 0.16535433070866143,
          "duration": 0.034883720930224626
        },
        {
          "name": "F#7",
          "midi": 102,
          "time": 104.45348837208057,
          "velocity": 0.16535433070866143,
          "duration": 0.034883720930224626
        },
        {
          "name": "F4",
          "midi": 65,
          "time": 104.46511627905731,
          "velocity": 0.3858267716535433,
          "duration": 0.034883720930224626
        },
        {
          "name": "B6",
          "midi": 95,
          "time": 104.46511627905731,
          "velocity": 0.12598425196850394,
          "duration": 0.034883720930224626
        },
        {
          "name": "D3",
          "midi": 50,
          "time": 104.49999999998754,
          "velocity": 0.5984251968503937,
          "duration": 0.04651162790696617
        },
        {
          "name": "G5",
          "midi": 79,
          "time": 104.49999999998754,
          "velocity": 0.25196850393700787,
          "duration": 0.023255813953483084
        },
        {
          "name": "C#6",
          "midi": 85,
          "time": 104.49999999998754,
          "velocity": 0.25196850393700787,
          "duration": 0.05813953488370771
        },
        {
          "name": "E6",
          "midi": 88,
          "time": 104.49999999998754,
          "velocity": 0.2992125984251969,
          "duration": 0.034883720930224626
        },
        {
          "name": "A#1",
          "midi": 34,
          "time": 104.51162790696428,
          "velocity": 0.6141732283464567,
          "duration": 0.011627906976741542
        },
        {
          "name": "C#5",
          "midi": 73,
          "time": 104.51162790696428,
          "velocity": 0.33070866141732286,
          "duration": 0.023255813953483084
        },
        {
          "name": "A5",
          "midi": 81,
          "time": 104.51162790696428,
          "velocity": 0.2283464566929134,
          "duration": 0.023255813953483084
        },
        {
          "name": "G6",
          "midi": 91,
          "time": 104.51162790696428,
          "velocity": 0.41732283464566927,
          "duration": 0.09302325581393234
        },
        {
          "name": "G#6",
          "midi": 92,
          "time": 104.51162790696428,
          "velocity": 0.31496062992125984,
          "duration": 0.1395348837208985
        },
        {
          "name": "A6",
          "midi": 93,
          "time": 104.51162790696428,
          "velocity": 0.2440944881889764,
          "duration": 0.05813953488370771
        },
        {
          "name": "B6",
          "midi": 95,
          "time": 104.51162790696428,
          "velocity": 0.13385826771653545,
          "duration": 0.034883720930224626
        },
        {
          "name": "D7",
          "midi": 98,
          "time": 104.51162790696428,
          "velocity": 0.18110236220472442,
          "duration": 0.034883720930224626
        },
        {
          "name": "F#7",
          "midi": 102,
          "time": 104.51162790696428,
          "velocity": 0.1732283464566929,
          "duration": 0.11627906976741542
        },
        {
          "name": "F#1",
          "midi": 30,
          "time": 104.52325581394102,
          "velocity": 0.5354330708661418,
          "duration": 0.011627906976741542
        },
        {
          "name": "E2",
          "midi": 40,
          "time": 104.52325581394102,
          "velocity": 0.6456692913385826,
          "duration": 0.011627906976741542
        },
        {
          "name": "E4",
          "midi": 64,
          "time": 104.52325581394102,
          "velocity": 0.44881889763779526,
          "duration": 0.034883720930224626
        },
        {
          "name": "A#5",
          "midi": 82,
          "time": 104.52325581394102,
          "velocity": 0.2755905511811024,
          "duration": 0.31395348837203585
        },
        {
          "name": "B5",
          "midi": 83,
          "time": 104.52325581394102,
          "velocity": 0.2677165354330709,
          "duration": 0.023255813953483084
        },
        {
          "name": "F6",
          "midi": 89,
          "time": 104.52325581394102,
          "velocity": 0.23622047244094488,
          "duration": 0.06976744186044925
        },
        {
          "name": "C7",
          "midi": 96,
          "time": 104.52325581394102,
          "velocity": 0.10236220472440945,
          "duration": 0.04651162790696617
        },
        {
          "name": "F2",
          "midi": 41,
          "time": 104.53488372091776,
          "velocity": 0.7086614173228346,
          "duration": 0.011627906976741542
        },
        {
          "name": "C5",
          "midi": 72,
          "time": 104.53488372091776,
          "velocity": 0.3779527559055118,
          "duration": 0.3837209302324993
        },
        {
          "name": "F#6",
          "midi": 90,
          "time": 104.53488372091776,
          "velocity": 0.48031496062992124,
          "duration": 0.2209302325580893
        },
        {
          "name": "C#2",
          "midi": 37,
          "time": 104.5465116278945,
          "velocity": 0.7401574803149606,
          "duration": 0.011627906976741542
        },
        {
          "name": "C4",
          "midi": 60,
          "time": 104.5465116278945,
          "velocity": 0.5590551181102362,
          "duration": 0.5116279069766705
        },
        {
          "name": "G5",
          "midi": 79,
          "time": 104.5465116278945,
          "velocity": 0.25984251968503935,
          "duration": 0.023255813953483084
        },
        {
          "name": "E6",
          "midi": 88,
          "time": 104.5465116278945,
          "velocity": 0.10236220472440945,
          "duration": 0.034883720930224626
        },
        {
          "name": "C2",
          "midi": 36,
          "time": 104.55813953487124,
          "velocity": 0.7559055118110236,
          "duration": 0.011627906976741542
        },
        {
          "name": "B1",
          "midi": 35,
          "time": 104.56976744184799,
          "velocity": 0.7322834645669292,
          "duration": 0.011627906976741542
        },
        {
          "name": "E3",
          "midi": 52,
          "time": 104.56976744184799,
          "velocity": 0.33070866141732286,
          "duration": 0.023255813953483084
        },
        {
          "name": "D#4",
          "midi": 63,
          "time": 104.56976744184799,
          "velocity": 0.3228346456692913,
          "duration": 0.023255813953483084
        },
        {
          "name": "A1",
          "midi": 33,
          "time": 104.58139534882473,
          "velocity": 0.7086614173228346,
          "duration": 0.023255813953483084
        },
        {
          "name": "D7",
          "midi": 98,
          "time": 104.58139534882473,
          "velocity": 0.12598425196850394,
          "duration": 0.12790697674415696
        },
        {
          "name": "A#4",
          "midi": 70,
          "time": 104.59302325580147,
          "velocity": 0.23622047244094488,
          "duration": 0.023255813953483084
        },
        {
          "name": "G5",
          "midi": 79,
          "time": 104.59302325580147,
          "velocity": 0.3228346456692913,
          "duration": 0.09302325581393234
        },
        {
          "name": "C#7",
          "midi": 97,
          "time": 104.59302325580147,
          "velocity": 0.1732283464566929,
          "duration": 0.11627906976741542
        },
        {
          "name": "G#1",
          "midi": 32,
          "time": 104.60465116277821,
          "velocity": 0.6535433070866141,
          "duration": 0.023255813953483084
        },
        {
          "name": "G#3",
          "midi": 56,
          "time": 104.61627906975495,
          "velocity": 0.36220472440944884,
          "duration": 0.023255813953483084
        },
        {
          "name": "C#6",
          "midi": 85,
          "time": 104.61627906975495,
          "velocity": 0.14173228346456693,
          "duration": 0.05813953488370771
        },
        {
          "name": "G6",
          "midi": 91,
          "time": 104.61627906975495,
          "velocity": 0.4094488188976378,
          "duration": 0.09302325581393234
        },
        {
          "name": "G1",
          "midi": 31,
          "time": 104.6279069767317,
          "velocity": 0.7480314960629921,
          "duration": 0.1395348837208985
        },
        {
          "name": "E6",
          "midi": 88,
          "time": 104.6279069767317,
          "velocity": 0.2755905511811024,
          "duration": 0.1395348837208985
        },
        {
          "name": "D#3",
          "midi": 51,
          "time": 104.63953488370844,
          "velocity": 0.3464566929133858,
          "duration": 0.06976744186044925
        },
        {
          "name": "F#5",
          "midi": 78,
          "time": 104.65116279068518,
          "velocity": 0.2283464566929134,
          "duration": 0.18604651162787889
        },
        {
          "name": "G#6",
          "midi": 92,
          "time": 104.66279069766192,
          "velocity": 0.5511811023622047,
          "duration": 1.3372093023254052
        },
        {
          "name": "G5",
          "midi": 79,
          "time": 104.69767441859214,
          "velocity": 0.2992125984251969,
          "duration": 0.1627906976743958
        },
        {
          "name": "G#3",
          "midi": 56,
          "time": 104.70930232556888,
          "velocity": 0.33858267716535434,
          "duration": 0.023255813953483084
        },
        {
          "name": "D#4",
          "midi": 63,
          "time": 104.70930232556888,
          "velocity": 0.4330708661417323,
          "duration": 0.034883720930224626
        },
        {
          "name": "A#4",
          "midi": 70,
          "time": 104.70930232556888,
          "velocity": 0.2125984251968504,
          "duration": 0.09302325581394655
        },
        {
          "name": "D#3",
          "midi": 51,
          "time": 104.72093023254563,
          "velocity": 0.48031496062992124,
          "duration": 0.36046511627903044
        },
        {
          "name": "G#1",
          "midi": 32,
          "time": 104.76744186045259,
          "velocity": 0.7165354330708661,
          "duration": 0.03488372093023884
        },
        {
          "name": "A1",
          "midi": 33,
          "time": 104.80232558138283,
          "velocity": 0.6614173228346457,
          "duration": 0.011627906976741542
        },
        {
          "name": "G#1",
          "midi": 32,
          "time": 104.81395348835957,
          "velocity": 0.6692913385826772,
          "duration": 0.36046511627903044
        },
        {
          "name": "G#4",
          "midi": 68,
          "time": 104.8488372092898,
          "velocity": 0.5511811023622047,
          "duration": 0.11627906976744384
        },
        {
          "name": "A#5",
          "midi": 82,
          "time": 104.8488372092898,
          "velocity": 0.14960629921259844,
          "duration": 0.04651162790698038
        },
        {
          "name": "F#6",
          "midi": 90,
          "time": 104.8488372092898,
          "velocity": 0.15748031496062992,
          "duration": 0.1046511627907023
        },
        {
          "name": "G5",
          "midi": 79,
          "time": 104.91860465115026,
          "velocity": 0.11023622047244094,
          "duration": 0.06976744186046346
        },
        {
          "name": "G#4",
          "midi": 68,
          "time": 104.97674418603398,
          "velocity": 0.2440944881889764,
          "duration": 0.0813953488371908
        },
        {
          "name": "G#3",
          "midi": 56,
          "time": 104.99999999998747,
          "velocity": 0.36220472440944884,
          "duration": 0.17441860465113734
        },
        {
          "name": "D#5",
          "midi": 75,
          "time": 105.02325581394095,
          "velocity": 0.28346456692913385,
          "duration": 0.034883720930224626
        },
        {
          "name": "G#5",
          "midi": 80,
          "time": 105.04651162789443,
          "velocity": 0.3858267716535433,
          "duration": 0.04651162790696617
        },
        {
          "name": "B5",
          "midi": 83,
          "time": 105.04651162789443,
          "velocity": 0.33070866141732286,
          "duration": 0.04651162790696617
        },
        {
          "name": "D6",
          "midi": 86,
          "time": 105.04651162789443,
          "velocity": 0.13385826771653545,
          "duration": 0.034883720930224626
        },
        {
          "name": "E6",
          "midi": 88,
          "time": 105.04651162789443,
          "velocity": 0.1732283464566929,
          "duration": 0.04651162790696617
        },
        {
          "name": "G6",
          "midi": 91,
          "time": 105.04651162789443,
          "velocity": 0.08661417322834646,
          "duration": 0.04651162790696617
        },
        {
          "name": "A6",
          "midi": 93,
          "time": 105.04651162789443,
          "velocity": 0.1889763779527559,
          "duration": 0.06976744186044925
        },
        {
          "name": "C#7",
          "midi": 97,
          "time": 105.04651162789443,
          "velocity": 0.18110236220472442,
          "duration": 0.034883720930224626
        },
        {
          "name": "D7",
          "midi": 98,
          "time": 105.04651162789443,
          "velocity": 0.2440944881889764,
          "duration": 0.034883720930224626
        },
        {
          "name": "G4",
          "midi": 67,
          "time": 105.05813953487117,
          "velocity": 0.25984251968503935,
          "duration": 0.023255813953483084
        },
        {
          "name": "C#5",
          "midi": 73,
          "time": 105.05813953487117,
          "velocity": 0.2677165354330709,
          "duration": 0.023255813953483084
        },
        {
          "name": "C6",
          "midi": 84,
          "time": 105.05813953487117,
          "velocity": 0.2677165354330709,
          "duration": 0.10465116279068809
        },
        {
          "name": "D#5",
          "midi": 75,
          "time": 105.06976744184792,
          "velocity": 0.4330708661417323,
          "duration": 0.12790697674417117
        },
        {
          "name": "G5",
          "midi": 79,
          "time": 105.06976744184792,
          "velocity": 0.33858267716535434,
          "duration": 0.081395348837205
        },
        {
          "name": "A#5",
          "midi": 82,
          "time": 105.06976744184792,
          "velocity": 0.23622047244094488,
          "duration": 0.04651162790696617
        },
        {
          "name": "G#4",
          "midi": 68,
          "time": 105.08139534882466,
          "velocity": 0.3937007874015748,
          "duration": 0.41860465116272394
        },
        {
          "name": "C5",
          "midi": 72,
          "time": 105.08139534882466,
          "velocity": 0.2755905511811024,
          "duration": 0.10465116279068809
        },
        {
          "name": "F#6",
          "midi": 90,
          "time": 105.08139534882466,
          "velocity": 0.11811023622047244,
          "duration": 0.034883720930224626
        },
        {
          "name": "D#3",
          "midi": 51,
          "time": 105.0930232558014,
          "velocity": 0.4881889763779528,
          "duration": 0.3023255813952943
        },
        {
          "name": "A#4",
          "midi": 70,
          "time": 105.15116279068512,
          "velocity": 0.3228346456692913,
          "duration": 0.05813953488370771
        },
        {
          "name": "C#6",
          "midi": 85,
          "time": 105.15116279068512,
          "velocity": 0.3779527559055118,
          "duration": 0.05813953488370771
        },
        {
          "name": "E6",
          "midi": 88,
          "time": 105.15116279068512,
          "velocity": 0.29133858267716534,
          "duration": 0.10465116279067388
        },
        {
          "name": "F#6",
          "midi": 90,
          "time": 105.15116279068512,
          "velocity": 0.23622047244094488,
          "duration": 0.06976744186044925
        },
        {
          "name": "A6",
          "midi": 93,
          "time": 105.15116279068512,
          "velocity": 0.33070866141732286,
          "duration": 0.023255813953483084
        },
        {
          "name": "B5",
          "midi": 83,
          "time": 105.16279069766186,
          "velocity": 0.3228346456692913,
          "duration": 0.034883720930224626
        },
        {
          "name": "A#6",
          "midi": 94,
          "time": 105.16279069766186,
          "velocity": 0.29133858267716534,
          "duration": 0.10465116279067388
        },
        {
          "name": "C7",
          "midi": 96,
          "time": 105.16279069766186,
          "velocity": 0.28346456692913385,
          "duration": 0.0813953488371908
        },
        {
          "name": "D7",
          "midi": 98,
          "time": 105.16279069766186,
          "velocity": 0.2755905511811024,
          "duration": 0.06976744186044925
        },
        {
          "name": "D#7",
          "midi": 99,
          "time": 105.16279069766186,
          "velocity": 0.29133858267716534,
          "duration": 0.11627906976741542
        },
        {
          "name": "F7",
          "midi": 101,
          "time": 105.16279069766186,
          "velocity": 0.25196850393700787,
          "duration": 0.09302325581393234
        },
        {
          "name": "G7",
          "midi": 103,
          "time": 105.16279069766186,
          "velocity": 0.30708661417322836,
          "duration": 0.10465116279067388
        },
        {
          "name": "A1",
          "midi": 33,
          "time": 105.1744186046386,
          "velocity": 0.5669291338582677,
          "duration": 0.011627906976741542
        },
        {
          "name": "C#5",
          "midi": 73,
          "time": 105.1744186046386,
          "velocity": 0.3937007874015748,
          "duration": 0.04651162790696617
        },
        {
          "name": "C6",
          "midi": 84,
          "time": 105.1744186046386,
          "velocity": 0.3858267716535433,
          "duration": 0.05813953488370771
        },
        {
          "name": "C4",
          "midi": 60,
          "time": 105.18604651161534,
          "velocity": 0.3543307086614173,
          "duration": 0.023255813953483084
        },
        {
          "name": "F6",
          "midi": 89,
          "time": 105.18604651161534,
          "velocity": 0.2125984251968504,
          "duration": 0.04651162790696617
        },
        {
          "name": "A6",
          "midi": 93,
          "time": 105.18604651161534,
          "velocity": 0.33070866141732286,
          "duration": 0.09302325581393234
        },
        {
          "name": "B6",
          "midi": 95,
          "time": 105.19767441859209,
          "velocity": 0.1968503937007874,
          "duration": 0.034883720930224626
        },
        {
          "name": "E7",
          "midi": 100,
          "time": 105.19767441859209,
          "velocity": 0.31496062992125984,
          "duration": 0.0813953488371908
        },
        {
          "name": "B5",
          "midi": 83,
          "time": 105.20930232556883,
          "velocity": 0.1732283464566929,
          "duration": 0.034883720930224626
        },
        {
          "name": "G#3",
          "midi": 56,
          "time": 105.22093023254557,
          "velocity": 0.2283464566929134,
          "duration": 0.023255813953483084
        },
        {
          "name": "C4",
          "midi": 60,
          "time": 105.22093023254557,
          "velocity": 0.36220472440944884,
          "duration": 0.1627906976743816
        },
        {
          "name": "G5",
          "midi": 79,
          "time": 105.22093023254557,
          "velocity": 0.2677165354330709,
          "duration": 0.09302325581393234
        },
        {
          "name": "D#5",
          "midi": 75,
          "time": 105.23255813952231,
          "velocity": 0.16535433070866143,
          "duration": 0.05813953488370771
        },
        {
          "name": "F#6",
          "midi": 90,
          "time": 105.24418604649905,
          "velocity": 0.1732283464566929,
          "duration": 0.034883720930224626
        },
        {
          "name": "G#3",
          "midi": 56,
          "time": 105.29069767440602,
          "velocity": 0.1732283464566929,
          "duration": 0.04651162790696617
        },
        {
          "name": "G5",
          "midi": 79,
          "time": 105.36046511626647,
          "velocity": 0.2283464566929134,
          "duration": 0.0813953488371908
        },
        {
          "name": "D#5",
          "midi": 75,
          "time": 105.37209302324321,
          "velocity": 0.2992125984251969,
          "duration": 0.11627906976742963
        },
        {
          "name": "A#5",
          "midi": 82,
          "time": 105.37209302324321,
          "velocity": 0.3700787401574803,
          "duration": 0.25581395348834235
        },
        {
          "name": "D#7",
          "midi": 99,
          "time": 105.37209302324321,
          "velocity": 0.14960629921259844,
          "duration": 0.05813953488370771
        },
        {
          "name": "D4",
          "midi": 62,
          "time": 105.38372093021995,
          "velocity": 0.28346456692913385,
          "duration": 0.023255813953483084
        },
        {
          "name": "G#3",
          "midi": 56,
          "time": 105.39534883719669,
          "velocity": 0.11811023622047244,
          "duration": 0.09302325581394655
        },
        {
          "name": "C4",
          "midi": 60,
          "time": 105.40697674417343,
          "velocity": 0.2204724409448819,
          "duration": 0.06976744186046346
        },
        {
          "name": "D#4",
          "midi": 63,
          "time": 105.40697674417343,
          "velocity": 0.2440944881889764,
          "duration": 0.081395348837205
        },
        {
          "name": "C5",
          "midi": 72,
          "time": 105.48837209301064,
          "velocity": 0.5354330708661418,
          "duration": 0.41860465116275236
        },
        {
          "name": "E5",
          "midi": 76,
          "time": 105.48837209301064,
          "velocity": 0.48031496062992124,
          "duration": 0.023255813953483084
        },
        {
          "name": "C#6",
          "midi": 85,
          "time": 105.48837209301064,
          "velocity": 0.29133858267716534,
          "duration": 0.034883720930224626
        },
        {
          "name": "F6",
          "midi": 89,
          "time": 105.48837209301064,
          "velocity": 0.2204724409448819,
          "duration": 0.034883720930224626
        },
        {
          "name": "F#6",
          "midi": 90,
          "time": 105.48837209301064,
          "velocity": 0.1968503937007874,
          "duration": 0.06976744186044925
        },
        {
          "name": "C4",
          "midi": 60,
          "time": 105.49999999998738,
          "velocity": 0.49606299212598426,
          "duration": 0.27906976744183964
        },
        {
          "name": "A4",
          "midi": 69,
          "time": 105.49999999998738,
          "velocity": 0.5433070866141733,
          "duration": 0.011627906976741542
        },
        {
          "name": "F5",
          "midi": 77,
          "time": 105.49999999998738,
          "velocity": 0.2992125984251969,
          "duration": 0.034883720930224626
        },
        {
          "name": "D#6",
          "midi": 87,
          "time": 105.49999999998738,
          "velocity": 0.41732283464566927,
          "duration": 0.2674418604650981
        },
        {
          "name": "G#4",
          "midi": 68,
          "time": 105.51162790696412,
          "velocity": 0.6062992125984252,
          "duration": 0.3720930232557862
        },
        {
          "name": "D#5",
          "midi": 75,
          "time": 105.51162790696412,
          "velocity": 0.5433070866141733,
          "duration": 0.16279069767441
        },
        {
          "name": "G5",
          "midi": 79,
          "time": 105.51162790696412,
          "velocity": 0.3937007874015748,
          "duration": 0.11627906976742963
        },
        {
          "name": "D#4",
          "midi": 63,
          "time": 105.56976744184783,
          "velocity": 0.29133858267716534,
          "duration": 0.023255813953483084
        },
        {
          "name": "D#4",
          "midi": 63,
          "time": 105.68604651161527,
          "velocity": 0.1968503937007874,
          "duration": 0.034883720930224626
        },
        {
          "name": "D#5",
          "midi": 75,
          "time": 105.68604651161527,
          "velocity": 0.2992125984251969,
          "duration": 0.09302325581394655
        },
        {
          "name": "G#3",
          "midi": 56,
          "time": 105.69767441859202,
          "velocity": 0.11811023622047244,
          "duration": 0.06976744186046346
        },
        {
          "name": "G5",
          "midi": 79,
          "time": 105.69767441859202,
          "velocity": 0.1968503937007874,
          "duration": 0.06976744186046346
        },
        {
          "name": "A#5",
          "midi": 82,
          "time": 105.69767441859202,
          "velocity": 0.18110236220472442,
          "duration": 0.11627906976744384
        },
        {
          "name": "G6",
          "midi": 91,
          "time": 105.69767441859202,
          "velocity": 0.23622047244094488,
          "duration": 0.12790697674418539
        },
        {
          "name": "D#4",
          "midi": 63,
          "time": 105.75581395347574,
          "velocity": 0.2125984251968504,
          "duration": 0.05813953488372192
        },
        {
          "name": "F3",
          "midi": 53,
          "time": 105.81395348835946,
          "velocity": 0.6535433070866141,
          "duration": 0.023255813953483084
        },
        {
          "name": "E4",
          "midi": 64,
          "time": 105.81395348835946,
          "velocity": 0.41732283464566927,
          "duration": 0.023255813953483084
        },
        {
          "name": "A5",
          "midi": 81,
          "time": 105.81395348835946,
          "velocity": 0.2125984251968504,
          "duration": 0.04651162790696617
        },
        {
          "name": "B5",
          "midi": 83,
          "time": 105.81395348835946,
          "velocity": 0.14173228346456693,
          "duration": 0.05813953488370771
        },
        {
          "name": "E6",
          "midi": 88,
          "time": 105.81395348835946,
          "velocity": 0.10236220472440945,
          "duration": 0.034883720930224626
        },
        {
          "name": "A2",
          "midi": 45,
          "time": 105.8255813953362,
          "velocity": 0.6771653543307087,
          "duration": 0.011627906976741542
        },
        {
          "name": "D5",
          "midi": 74,
          "time": 105.8255813953362,
          "velocity": 0.2992125984251969,
          "duration": 0.034883720930224626
        },
        {
          "name": "D6",
          "midi": 86,
          "time": 105.8255813953362,
          "velocity": 0.3228346456692913,
          "duration": 0.18604651162786467
        },
        {
          "name": "F6",
          "midi": 89,
          "time": 105.8255813953362,
          "velocity": 0.3228346456692913,
          "duration": 0.279069767441797
        },
        {
          "name": "F2",
          "midi": 41,
          "time": 105.83720930231294,
          "velocity": 0.7795275590551181,
          "duration": 0.011627906976741542
        },
        {
          "name": "A6",
          "midi": 93,
          "time": 105.83720930231294,
          "velocity": 0.2204724409448819,
          "duration": 0.2558139534883139
        },
        {
          "name": "E2",
          "midi": 40,
          "time": 105.84883720928968,
          "velocity": 0.7795275590551181,
          "duration": 0.011627906976741542
        },
        {
          "name": "D#5",
          "midi": 75,
          "time": 105.84883720928968,
          "velocity": 0.2283464566929134,
          "duration": 0.06976744186044925
        },
        {
          "name": "C#2",
          "midi": 37,
          "time": 105.86046511626643,
          "velocity": 0.8110236220472441,
          "duration": 0.011627906976741542
        },
        {
          "name": "A#4",
          "midi": 70,
          "time": 105.86046511626643,
          "velocity": 0.5039370078740157,
          "duration": 0.6279069767441001
        },
        {
          "name": "F5",
          "midi": 77,
          "time": 105.86046511626643,
          "velocity": 0.4330708661417323,
          "duration": 0.604651162790617
        },
        {
          "name": "B6",
          "midi": 95,
          "time": 105.86046511626643,
          "velocity": 0.1968503937007874,
          "duration": 0.1395348837208985
        },
        {
          "name": "C#7",
          "midi": 97,
          "time": 105.86046511626643,
          "velocity": 0.08661417322834646,
          "duration": 0.034883720930224626
        },
        {
          "name": "B1",
          "midi": 35,
          "time": 105.87209302324317,
          "velocity": 0.8031496062992126,
          "duration": 0.011627906976741542
        },
        {
          "name": "F3",
          "midi": 53,
          "time": 105.87209302324317,
          "velocity": 0.3779527559055118,
          "duration": 0.023255813953483084
        },
        {
          "name": "C#4",
          "midi": 61,
          "time": 105.87209302324317,
          "velocity": 0.4645669291338583,
          "duration": 0.15116279069764005
        },
        {
          "name": "D#7",
          "midi": 99,
          "time": 105.87209302324317,
          "velocity": 0.23622047244094488,
          "duration": 0.18604651162786467
        },
        {
          "name": "A#1",
          "midi": 34,
          "time": 105.88372093021991,
          "velocity": 0.7874015748031497,
          "duration": 0.011627906976741542
        },
        {
          "name": "F4",
          "midi": 65,
          "time": 105.88372093021991,
          "velocity": 0.4251968503937008,
          "duration": 0.1627906976743816
        },
        {
          "name": "A1",
          "midi": 33,
          "time": 105.89534883719665,
          "velocity": 0.7716535433070866,
          "duration": 0.034883720930224626
        },
        {
          "name": "C#6",
          "midi": 85,
          "time": 105.89534883719665,
          "velocity": 0.3228346456692913,
          "duration": 0.19767441860460622
        },
        {
          "name": "C7",
          "midi": 96,
          "time": 105.90697674417339,
          "velocity": 0.25984251968503935,
          "duration": 0.10465116279067388
        },
        {
          "name": "G#4",
          "midi": 68,
          "time": 105.91860465115013,
          "velocity": 0.1889763779527559,
          "duration": 0.04651162790696617
        },
        {
          "name": "G#1",
          "midi": 32,
          "time": 105.93023255812687,
          "velocity": 0.6456692913385826,
          "duration": 0.011627906976741542
        },
        {
          "name": "F3",
          "midi": 53,
          "time": 105.93023255812687,
          "velocity": 0.33858267716535434,
          "duration": 0.06976744186044925
        },
        {
          "name": "F#1",
          "midi": 30,
          "time": 105.94186046510362,
          "velocity": 0.5590551181102362,
          "duration": 0.011627906976741542
        },
        {
          "name": "G#5",
          "midi": 80,
          "time": 105.94186046510362,
          "velocity": 0.1968503937007874,
          "duration": 0.0813953488371908
        },
        {
          "name": "D#1",
          "midi": 27,
          "time": 105.95348837208036,
          "velocity": 0.5984251968503937,
          "duration": 0.011627906976741542
        },
        {
          "name": "C6",
          "midi": 84,
          "time": 105.95348837208036,
          "velocity": 0.33070866141732286,
          "duration": 0.23255813953483084
        },
        {
          "name": "G1",
          "midi": 31,
          "time": 105.9651162790571,
          "velocity": 0.6850393700787402,
          "duration": 0.011627906976741542
        },
        {
          "name": "A#2",
          "midi": 46,
          "time": 105.9651162790571,
          "velocity": 0.4330708661417323,
          "duration": 0.023255813953483084
        },
        {
          "name": "E6",
          "midi": 88,
          "time": 105.9651162790571,
          "velocity": 0.12598425196850394,
          "duration": 0.034883720930224626
        },
        {
          "name": "G#1",
          "midi": 32,
          "time": 105.97674418603384,
          "velocity": 0.7559055118110236,
          "duration": 0.034883720930224626
        },
        {
          "name": "D#6",
          "midi": 87,
          "time": 105.99999999998732,
          "velocity": 0.3464566929133858,
          "duration": 0.10465116279067388
        },
        {
          "name": "A1",
          "midi": 33,
          "time": 106.01162790696407,
          "velocity": 0.7401574803149606,
          "duration": 0.023255813953483084
        },
        {
          "name": "A#2",
          "midi": 46,
          "time": 106.01162790696407,
          "velocity": 0.4409448818897638,
          "duration": 0.034883720930224626
        },
        {
          "name": "A#3",
          "midi": 58,
          "time": 106.01162790696407,
          "velocity": 0.4566929133858268,
          "duration": 0.05813953488370771
        },
        {
          "name": "G#6",
          "midi": 92,
          "time": 106.01162790696407,
          "velocity": 0.2125984251968504,
          "duration": 0.06976744186044925
        },
        {
          "name": "F#3",
          "midi": 54,
          "time": 106.0232558139408,
          "velocity": 0.4015748031496063,
          "duration": 0.023255813953483084
        },
        {
          "name": "B1",
          "midi": 35,
          "time": 106.03488372091755,
          "velocity": 0.6220472440944882,
          "duration": 0.011627906976741542
        },
        {
          "name": "C#4",
          "midi": 61,
          "time": 106.03488372091755,
          "velocity": 0.4251968503937008,
          "duration": 0.0813953488371908
        },
        {
          "name": "C5",
          "midi": 72,
          "time": 106.03488372091755,
          "velocity": 0.33858267716535434,
          "duration": 0.023255813953483084
        },
        {
          "name": "A5",
          "midi": 81,
          "time": 106.03488372091755,
          "velocity": 0.28346456692913385,
          "duration": 0.023255813953483084
        },
        {
          "name": "F#6",
          "midi": 90,
          "time": 106.03488372091755,
          "velocity": 0.1732283464566929,
          "duration": 0.034883720930224626
        },
        {
          "name": "C2",
          "midi": 36,
          "time": 106.04651162789429,
          "velocity": 0.6141732283464567,
          "duration": 0.011627906976741542
        },
        {
          "name": "F3",
          "midi": 53,
          "time": 106.04651162789429,
          "velocity": 0.4881889763779528,
          "duration": 0.12790697674415696
        },
        {
          "name": "B1",
          "midi": 35,
          "time": 106.05813953487103,
          "velocity": 0.6771653543307087,
          "duration": 0.011627906976741542
        },
        {
          "name": "A#1",
          "midi": 34,
          "time": 106.06976744184777,
          "velocity": 0.7244094488188977,
          "duration": 0.011627906976741542
        },
        {
          "name": "A1",
          "midi": 33,
          "time": 106.08139534882451,
          "velocity": 0.7401574803149606,
          "duration": 0.011627906976741542
        },
        {
          "name": "A#3",
          "midi": 58,
          "time": 106.08139534882451,
          "velocity": 0.3779527559055118,
          "duration": 0.05813953488370771
        },
        {
          "name": "D#5",
          "midi": 75,
          "time": 106.08139534882451,
          "velocity": 0.14173228346456693,
          "duration": 0.05813953488370771
        },
        {
          "name": "G#5",
          "midi": 80,
          "time": 106.08139534882451,
          "velocity": 0.2125984251968504,
          "duration": 0.0813953488371908
        },
        {
          "name": "A#1",
          "midi": 34,
          "time": 106.09302325580126,
          "velocity": 0.7322834645669292,
          "duration": 0.38372093023252773
        },
        {
          "name": "D6",
          "midi": 86,
          "time": 106.104651162778,
          "velocity": 0.08661417322834646,
          "duration": 0.0813953488371908
        },
        {
          "name": "C#4",
          "midi": 61,
          "time": 106.12790697673148,
          "velocity": 0.49606299212598426,
          "duration": 0.23255813953487348
        },
        {
          "name": "C#6",
          "midi": 85,
          "time": 106.13953488370822,
          "velocity": 0.4881889763779528,
          "duration": 0.5465116279069235
        },
        {
          "name": "G#5",
          "midi": 80,
          "time": 106.18604651161519,
          "velocity": 0.28346456692913385,
          "duration": 0.17441860465116577
        },
        {
          "name": "F3",
          "midi": 53,
          "time": 106.19767441859193,
          "velocity": 0.33070866141732286,
          "duration": 0.15116279069768268
        },
        {
          "name": "C6",
          "midi": 84,
          "time": 106.23255813952217,
          "velocity": 0.15748031496062992,
          "duration": 0.03488372093023884
        },
        {
          "name": "A#3",
          "midi": 58,
          "time": 106.29069767440589,
          "velocity": 0.3937007874015748,
          "duration": 0.06976744186046346
        },
        {
          "name": "D#6",
          "midi": 87,
          "time": 106.34883720928961,
          "velocity": 0.16535433070866143,
          "duration": 0.034883720930224626
        },
        {
          "name": "G#6",
          "midi": 92,
          "time": 106.36046511626635,
          "velocity": 0.12598425196850394,
          "duration": 0.04651162790696617
        },
        {
          "name": "F7",
          "midi": 101,
          "time": 106.36046511626635,
          "velocity": 0.1968503937007874,
          "duration": 0.034883720930224626
        },
        {
          "name": "F#7",
          "midi": 102,
          "time": 106.36046511626635,
          "velocity": 0.2125984251968504,
          "duration": 0.034883720930224626
        },
        {
          "name": "A#3",
          "midi": 58,
          "time": 106.3720930232431,
          "velocity": 0.5590551181102362,
          "duration": 0.11627906976742963
        },
        {
          "name": "F3",
          "midi": 53,
          "time": 106.39534883719658,
          "velocity": 0.2992125984251969,
          "duration": 0.06976744186046346
        },
        {
          "name": "C6",
          "midi": 84,
          "time": 106.4534883720803,
          "velocity": 0.3937007874015748,
          "duration": 0.06976744186044925
        },
        {
          "name": "G#6",
          "midi": 92,
          "time": 106.4534883720803,
          "velocity": 0.3937007874015748,
          "duration": 0.06976744186044925
        },
        {
          "name": "G#5",
          "midi": 80,
          "time": 106.46511627905704,
          "velocity": 0.3779527559055118,
          "duration": 0.04651162790696617
        },
        {
          "name": "D6",
          "midi": 86,
          "time": 106.46511627905704,
          "velocity": 0.3937007874015748,
          "duration": 0.034883720930224626
        },
        {
          "name": "F#6",
          "midi": 90,
          "time": 106.46511627905704,
          "velocity": 0.2755905511811024,
          "duration": 0.023255813953483084
        },
        {
          "name": "B6",
          "midi": 95,
          "time": 106.46511627905704,
          "velocity": 0.30708661417322836,
          "duration": 0.09302325581393234
        },
        {
          "name": "D#7",
          "midi": 99,
          "time": 106.46511627905704,
          "velocity": 0.23622047244094488,
          "duration": 0.19767441860462043
        },
        {
          "name": "E7",
          "midi": 100,
          "time": 106.46511627905704,
          "velocity": 0.2755905511811024,
          "duration": 0.11627906976741542
        },
        {
          "name": "B1",
          "midi": 35,
          "time": 106.47674418603378,
          "velocity": 0.5984251968503937,
          "duration": 0.023255813953483084
        },
        {
          "name": "F3",
          "midi": 53,
          "time": 106.47674418603378,
          "velocity": 0.2283464566929134,
          "duration": 0.023255813953483084
        },
        {
          "name": "C#4",
          "midi": 61,
          "time": 106.47674418603378,
          "velocity": 0.4015748031496063,
          "duration": 0.3023255813953085
        },
        {
          "name": "B4",
          "midi": 71,
          "time": 106.47674418603378,
          "velocity": 0.29133858267716534,
          "duration": 0.034883720930224626
        },
        {
          "name": "D#5",
          "midi": 75,
          "time": 106.47674418603378,
          "velocity": 0.2755905511811024,
          "duration": 0.04651162790696617
        },
        {
          "name": "F5",
          "midi": 77,
          "time": 106.47674418603378,
          "velocity": 0.4881889763779528,
          "duration": 0.3255813953487916
        },
        {
          "name": "G5",
          "midi": 79,
          "time": 106.47674418603378,
          "velocity": 0.2992125984251969,
          "duration": 0.023255813953483084
        },
        {
          "name": "A6",
          "midi": 93,
          "time": 106.47674418603378,
          "velocity": 0.4094488188976378,
          "duration": 0.09302325581393234
        },
        {
          "name": "G7",
          "midi": 103,
          "time": 106.47674418603378,
          "velocity": 0.2992125984251969,
          "duration": 0.09302325581393234
        },
        {
          "name": "D#6",
          "midi": 87,
          "time": 106.48837209301053,
          "velocity": 0.36220472440944884,
          "duration": 0.06976744186044925
        },
        {
          "name": "E6",
          "midi": 88,
          "time": 106.49999999998727,
          "velocity": 0.29133858267716534,
          "duration": 0.04651162790696617
        },
        {
          "name": "A#4",
          "midi": 70,
          "time": 106.51162790696401,
          "velocity": 0.5748031496062992,
          "duration": 0.5116279069766563
        },
        {
          "name": "A#6",
          "midi": 94,
          "time": 106.51162790696401,
          "velocity": 0.25196850393700787,
          "duration": 0.04651162790696617
        },
        {
          "name": "G#5",
          "midi": 80,
          "time": 106.52325581394075,
          "velocity": 0.4330708661417323,
          "duration": 0.13953488372091272
        },
        {
          "name": "D6",
          "midi": 86,
          "time": 106.52325581394075,
          "velocity": 0.2677165354330709,
          "duration": 0.04651162790696617
        },
        {
          "name": "F#6",
          "midi": 90,
          "time": 106.52325581394075,
          "velocity": 0.2047244094488189,
          "duration": 0.05813953488370771
        },
        {
          "name": "G#5",
          "midi": 80,
          "time": 106.6744186046384,
          "velocity": 0.3937007874015748,
          "duration": 0.23255813953484505
        },
        {
          "name": "F4",
          "midi": 65,
          "time": 106.68604651161515,
          "velocity": 0.5590551181102362,
          "duration": 0.4302325581394655
        },
        {
          "name": "C6",
          "midi": 84,
          "time": 106.68604651161515,
          "velocity": 0.2992125984251969,
          "duration": 0.1627906976743958
        },
        {
          "name": "D#7",
          "midi": 99,
          "time": 106.69767441859189,
          "velocity": 0.13385826771653545,
          "duration": 0.09302325581394655
        },
        {
          "name": "A#3",
          "midi": 58,
          "time": 106.72093023254537,
          "velocity": 0.3228346456692913,
          "duration": 0.081395348837205
        },
        {
          "name": "D#6",
          "midi": 87,
          "time": 106.79069767440583,
          "velocity": 0.3228346456692913,
          "duration": 0.04651162790696617
        },
        {
          "name": "F#6",
          "midi": 90,
          "time": 106.79069767440583,
          "velocity": 0.28346456692913385,
          "duration": 0.023255813953483084
        },
        {
          "name": "A6",
          "midi": 93,
          "time": 106.79069767440583,
          "velocity": 0.1968503937007874,
          "duration": 0.05813953488370771
        },
        {
          "name": "A#6",
          "midi": 94,
          "time": 106.79069767440583,
          "velocity": 0.12598425196850394,
          "duration": 0.034883720930224626
        },
        {
          "name": "C#4",
          "midi": 61,
          "time": 106.80232558138258,
          "velocity": 0.4094488188976378,
          "duration": 0.12790697674415696
        },
        {
          "name": "F#5",
          "midi": 78,
          "time": 106.80232558138258,
          "velocity": 0.4409448818897638,
          "duration": 0.023255813953483084
        },
        {
          "name": "F6",
          "midi": 89,
          "time": 106.80232558138258,
          "velocity": 0.3464566929133858,
          "duration": 0.19767441860460622
        },
        {
          "name": "C#5",
          "midi": 73,
          "time": 106.8372093023128,
          "velocity": 0.5433070866141733,
          "duration": 0.29069767441855277
        },
        {
          "name": "A#3",
          "midi": 58,
          "time": 106.86046511626628,
          "velocity": 0.11811023622047244,
          "duration": 0.034883720930224626
        },
        {
          "name": "G6",
          "midi": 91,
          "time": 106.88372093021977,
          "velocity": 0.25196850393700787,
          "duration": 0.034883720930224626
        },
        {
          "name": "A6",
          "midi": 93,
          "time": 106.89534883719651,
          "velocity": 0.2204724409448819,
          "duration": 0.05813953488370771
        },
        {
          "name": "C6",
          "midi": 84,
          "time": 106.91860465114999,
          "velocity": 0.14960629921259844,
          "duration": 0.11627906976741542
        },
        {
          "name": "A#6",
          "midi": 94,
          "time": 106.91860465114999,
          "velocity": 0.4330708661417323,
          "duration": 0.2790697674418112
        },
        {
          "name": "B6",
          "midi": 95,
          "time": 106.91860465114999,
          "velocity": 0.11023622047244094,
          "duration": 0.034883720930224626
        },
        {
          "name": "A#3",
          "midi": 58,
          "time": 106.93023255812673,
          "velocity": 0.15748031496062992,
          "duration": 0.034883720930224626
        },
        {
          "name": "G#5",
          "midi": 80,
          "time": 106.95348837208022,
          "velocity": 0.2440944881889764,
          "duration": 0.15116279069765426
        },
        {
          "name": "C#4",
          "midi": 61,
          "time": 106.9767441860337,
          "velocity": 0.33070866141732286,
          "duration": 0.06976744186044925
        },
        {
          "name": "G#6",
          "midi": 92,
          "time": 107.01162790696392,
          "velocity": 0.5196850393700787,
          "duration": 1.430232558139295
        },
        {
          "name": "C#4",
          "midi": 61,
          "time": 107.05813953487089,
          "velocity": 0.5039370078740157,
          "duration": 0.4883720930231732
        },
        {
          "name": "A6",
          "midi": 93,
          "time": 107.05813953487089,
          "velocity": 0.14960629921259844,
          "duration": 0.03488372093023884
        },
        {
          "name": "F#5",
          "midi": 78,
          "time": 107.11627906975461,
          "velocity": 0.33858267716535434,
          "duration": 0.034883720930224626
        },
        {
          "name": "A#5",
          "midi": 82,
          "time": 107.11627906975461,
          "velocity": 0.3464566929133858,
          "duration": 0.034883720930224626
        },
        {
          "name": "E6",
          "midi": 88,
          "time": 107.11627906975461,
          "velocity": 0.2440944881889764,
          "duration": 0.05813953488370771
        },
        {
          "name": "C3",
          "midi": 48,
          "time": 107.12790697673135,
          "velocity": 0.6771653543307087,
          "duration": 0.011627906976741542
        },
        {
          "name": "C5",
          "midi": 72,
          "time": 107.12790697673135,
          "velocity": 0.4409448818897638,
          "duration": 0.12790697674415696
        },
        {
          "name": "E5",
          "midi": 76,
          "time": 107.12790697673135,
          "velocity": 0.31496062992125984,
          "duration": 0.034883720930224626
        },
        {
          "name": "D#6",
          "midi": 87,
          "time": 107.12790697673135,
          "velocity": 0.2440944881889764,
          "duration": 0.23255813953483084
        },
        {
          "name": "A6",
          "midi": 93,
          "time": 107.12790697673135,
          "velocity": 0.15748031496062992,
          "duration": 0.034883720930224626
        },
        {
          "name": "A2",
          "midi": 45,
          "time": 107.1395348837081,
          "velocity": 0.7401574803149606,
          "duration": 0.011627906976741542
        },
        {
          "name": "F3",
          "midi": 53,
          "time": 107.1395348837081,
          "velocity": 0.5669291338582677,
          "duration": 0.011627906976741542
        },
        {
          "name": "F5",
          "midi": 77,
          "time": 107.1395348837081,
          "velocity": 0.3228346456692913,
          "duration": 0.41860465116270973
        },
        {
          "name": "B5",
          "midi": 83,
          "time": 107.1395348837081,
          "velocity": 0.07874015748031496,
          "duration": 0.034883720930224626
        },
        {
          "name": "F2",
          "midi": 41,
          "time": 107.15116279068484,
          "velocity": 0.7637795275590551,
          "duration": 0.011627906976741542
        },
        {
          "name": "G#4",
          "midi": 68,
          "time": 107.15116279068484,
          "velocity": 0.33858267716535434,
          "duration": 0.5116279069766421
        },
        {
          "name": "C#2",
          "midi": 37,
          "time": 107.16279069766158,
          "velocity": 0.7795275590551181,
          "duration": 0.011627906976741542
        },
        {
          "name": "F4",
          "midi": 65,
          "time": 107.16279069766158,
          "velocity": 0.49606299212598426,
          "duration": 0.5116279069766421
        },
        {
          "name": "D#5",
          "midi": 75,
          "time": 107.16279069766158,
          "velocity": 0.33070866141732286,
          "duration": 0.09302325581393234
        },
        {
          "name": "C7",
          "midi": 96,
          "time": 107.16279069766158,
          "velocity": 0.14960629921259844,
          "duration": 0.04651162790696617
        },
        {
          "name": "B1",
          "midi": 35,
          "time": 107.17441860463832,
          "velocity": 0.7795275590551181,
          "duration": 0.011627906976741542
        },
        {
          "name": "F3",
          "midi": 53,
          "time": 107.17441860463832,
          "velocity": 0.5748031496062992,
          "duration": 0.17441860465112313
        },
        {
          "name": "A#5",
          "midi": 82,
          "time": 107.17441860463832,
          "velocity": 0.14960629921259844,
          "duration": 0.11627906976741542
        },
        {
          "name": "A1",
          "midi": 33,
          "time": 107.18604651161506,
          "velocity": 0.7637795275590551,
          "duration": 0.011627906976741542
        },
        {
          "name": "G#1",
          "midi": 32,
          "time": 107.1976744185918,
          "velocity": 0.7480314960629921,
          "duration": 0.034883720930224626
        },
        {
          "name": "A6",
          "midi": 93,
          "time": 107.20930232556854,
          "velocity": 0.16535433070866143,
          "duration": 0.09302325581393234
        },
        {
          "name": "A1",
          "midi": 33,
          "time": 107.23255813952203,
          "velocity": 0.6299212598425197,
          "duration": 0.011627906976741542
        },
        {
          "name": "G#1",
          "midi": 32,
          "time": 107.24418604649877,
          "velocity": 0.5984251968503937,
          "duration": 0.011627906976741542
        },
        {
          "name": "A1",
          "midi": 33,
          "time": 107.25581395347551,
          "velocity": 0.6377952755905512,
          "duration": 0.011627906976741542
        },
        {
          "name": "G1",
          "midi": 31,
          "time": 107.26744186045225,
          "velocity": 0.7086614173228346,
          "duration": 0.023255813953483084
        },
        {
          "name": "G6",
          "midi": 91,
          "time": 107.26744186045225,
          "velocity": 0.1889763779527559,
          "duration": 0.06976744186044925
        },
        {
          "name": "F#1",
          "midi": 30,
          "time": 107.29069767440573,
          "velocity": 0.7401574803149606,
          "duration": 0.0813953488371908
        },
        {
          "name": "D#5",
          "midi": 75,
          "time": 107.31395348835922,
          "velocity": 0.30708661417322836,
          "duration": 0.18604651162787889
        },
        {
          "name": "A#6",
          "midi": 94,
          "time": 107.31395348835922,
          "velocity": 0.07874015748031496,
          "duration": 0.034883720930224626
        },
        {
          "name": "C#7",
          "midi": 97,
          "time": 107.31395348835922,
          "velocity": 0.07874015748031496,
          "duration": 0.04651162790696617
        },
        {
          "name": "A5",
          "midi": 81,
          "time": 107.34883720928944,
          "velocity": 0.25984251968503935,
          "duration": 0.023255813953483084
        },
        {
          "name": "F3",
          "midi": 53,
          "time": 107.36046511626618,
          "velocity": 0.49606299212598426,
          "duration": 0.04651162790698038
        },
        {
          "name": "F1",
          "midi": 29,
          "time": 107.37209302324293,
          "velocity": 0.7244094488188977,
          "duration": 0.04651162790698038
        },
        {
          "name": "G3",
          "midi": 55,
          "time": 107.40697674417316,
          "velocity": 0.5275590551181102,
          "duration": 0.011627906976741542
        },
        {
          "name": "E1",
          "midi": 28,
          "time": 107.4186046511499,
          "velocity": 0.6535433070866141,
          "duration": 0.011627906976741542
        },
        {
          "name": "F1",
          "midi": 29,
          "time": 107.43023255812665,
          "velocity": 0.6456692913385826,
          "duration": 0.34883720930224626
        },
        {
          "name": "A5",
          "midi": 81,
          "time": 107.43023255812665,
          "velocity": 0.15748031496062992,
          "duration": 0.034883720930224626
        },
        {
          "name": "G3",
          "midi": 55,
          "time": 107.44186046510339,
          "velocity": 0.5118110236220472,
          "duration": 0.023255813953483084
        },
        {
          "name": "C5",
          "midi": 72,
          "time": 107.44186046510339,
          "velocity": 0.31496062992125984,
          "duration": 0.034883720930224626
        },
        {
          "name": "G6",
          "midi": 91,
          "time": 107.45348837208013,
          "velocity": 0.14960629921259844,
          "duration": 0.09302325581393234
        },
        {
          "name": "G#3",
          "midi": 56,
          "time": 107.46511627905687,
          "velocity": 0.5275590551181102,
          "duration": 0.034883720930224626
        },
        {
          "name": "A6",
          "midi": 93,
          "time": 107.47674418603361,
          "velocity": 0.12598425196850394,
          "duration": 0.034883720930224626
        },
        {
          "name": "G3",
          "midi": 55,
          "time": 107.4999999999871,
          "velocity": 0.5590551181102362,
          "duration": 0.011627906976741542
        },
        {
          "name": "C5",
          "midi": 72,
          "time": 107.4999999999871,
          "velocity": 0.25196850393700787,
          "duration": 0.034883720930224626
        },
        {
          "name": "G#3",
          "midi": 56,
          "time": 107.51162790696384,
          "velocity": 0.5354330708661418,
          "duration": 0.023255813953483084
        },
        {
          "name": "C3",
          "midi": 48,
          "time": 107.54651162789406,
          "velocity": 0.3700787401574803,
          "duration": 0.23255813953483084
        },
        {
          "name": "D#5",
          "midi": 75,
          "time": 107.54651162789406,
          "velocity": 0.13385826771653545,
          "duration": 0.11627906976741542
        },
        {
          "name": "G3",
          "midi": 55,
          "time": 107.5581395348708,
          "velocity": 0.5354330708661418,
          "duration": 0.011627906976741542
        },
        {
          "name": "G#3",
          "midi": 56,
          "time": 107.56976744184755,
          "velocity": 0.48031496062992124,
          "duration": 0.023255813953483084
        },
        {
          "name": "G#3",
          "midi": 56,
          "time": 107.60465116277777,
          "velocity": 0.3937007874015748,
          "duration": 0.04651162790696617
        },
        {
          "name": "C#4",
          "midi": 61,
          "time": 107.60465116277777,
          "velocity": 0.2047244094488189,
          "duration": 0.04651162790696617
        },
        {
          "name": "F3",
          "midi": 53,
          "time": 107.62790697673125,
          "velocity": 0.3228346456692913,
          "duration": 0.023255813953483084
        },
        {
          "name": "A#4",
          "midi": 70,
          "time": 107.65116279068474,
          "velocity": 0.36220472440944884,
          "duration": 0.023255813953483084
        },
        {
          "name": "D6",
          "midi": 86,
          "time": 107.65116279068474,
          "velocity": 0.12598425196850394,
          "duration": 0.034883720930224626
        },
        {
          "name": "G#5",
          "midi": 80,
          "time": 107.66279069766148,
          "velocity": 0.4645669291338583,
          "duration": 0.1395348837208985
        },
        {
          "name": "A5",
          "midi": 81,
          "time": 107.66279069766148,
          "velocity": 0.47244094488188976,
          "duration": 0.034883720930224626
        },
        {
          "name": "A#6",
          "midi": 94,
          "time": 107.66279069766148,
          "velocity": 0.1732283464566929,
          "duration": 0.04651162790696617
        },
        {
          "name": "B6",
          "midi": 95,
          "time": 107.66279069766148,
          "velocity": 0.16535433070866143,
          "duration": 0.034883720930224626
        },
        {
          "name": "C#4",
          "midi": 61,
          "time": 107.67441860463822,
          "velocity": 0.2440944881889764,
          "duration": 0.034883720930224626
        },
        {
          "name": "D#5",
          "midi": 75,
          "time": 107.67441860463822,
          "velocity": 0.4645669291338583,
          "duration": 0.15116279069764005
        },
        {
          "name": "F5",
          "midi": 77,
          "time": 107.67441860463822,
          "velocity": 0.3543307086614173,
          "duration": 0.06976744186044925
        },
        {
          "name": "B5",
          "midi": 83,
          "time": 107.67441860463822,
          "velocity": 0.30708661417322836,
          "duration": 0.023255813953483084
        },
        {
          "name": "G#4",
          "midi": 68,
          "time": 107.68604651161496,
          "velocity": 0.41732283464566927,
          "duration": 0.09302325581393234
        },
        {
          "name": "A#5",
          "midi": 82,
          "time": 107.68604651161496,
          "velocity": 0.2440944881889764,
          "duration": 0.023255813953483084
        },
        {
          "name": "C6",
          "midi": 84,
          "time": 107.68604651161496,
          "velocity": 0.2125984251968504,
          "duration": 0.05813953488370771
        },
        {
          "name": "G6",
          "midi": 91,
          "time": 107.6976744185917,
          "velocity": 0.08661417322834646,
          "duration": 0.034883720930224626
        },
        {
          "name": "F4",
          "midi": 65,
          "time": 107.70930232556844,
          "velocity": 0.09448818897637795,
          "duration": 0.05813953488370771
        },
        {
          "name": "C#4",
          "midi": 61,
          "time": 107.72093023254519,
          "velocity": 0.28346456692913385,
          "duration": 0.2441860465115866
        },
        {
          "name": "G#3",
          "midi": 56,
          "time": 107.73255813952193,
          "velocity": 0.3464566929133858,
          "duration": 0.023255813953483084
        },
        {
          "name": "D6",
          "midi": 86,
          "time": 107.76744186045215,
          "velocity": 0.2204724409448819,
          "duration": 0.034883720930224626
        },
        {
          "name": "F6",
          "midi": 89,
          "time": 107.76744186045215,
          "velocity": 0.23622047244094488,
          "duration": 0.0813953488371908
        },
        {
          "name": "F#6",
          "midi": 90,
          "time": 107.76744186045215,
          "velocity": 0.30708661417322836,
          "duration": 0.034883720930224626
        },
        {
          "name": "B6",
          "midi": 95,
          "time": 107.76744186045215,
          "velocity": 0.14173228346456693,
          "duration": 0.06976744186044925
        },
        {
          "name": "C#7",
          "midi": 97,
          "time": 107.76744186045215,
          "velocity": 0.1732283464566929,
          "duration": 0.034883720930224626
        },
        {
          "name": "D7",
          "midi": 98,
          "time": 107.76744186045215,
          "velocity": 0.2992125984251969,
          "duration": 0.10465116279067388
        },
        {
          "name": "F#1",
          "midi": 30,
          "time": 107.7790697674289,
          "velocity": 0.5669291338582677,
          "duration": 0.011627906976741542
        },
        {
          "name": "G5",
          "midi": 79,
          "time": 107.7790697674289,
          "velocity": 0.3464566929133858,
          "duration": 0.04651162790696617
        },
        {
          "name": "A#5",
          "midi": 82,
          "time": 107.7790697674289,
          "velocity": 0.28346456692913385,
          "duration": 0.05813953488370771
        },
        {
          "name": "E6",
          "midi": 88,
          "time": 107.7790697674289,
          "velocity": 0.2755905511811024,
          "duration": 0.06976744186044925
        },
        {
          "name": "C7",
          "midi": 96,
          "time": 107.7790697674289,
          "velocity": 0.31496062992125984,
          "duration": 0.06976744186044925
        },
        {
          "name": "D#7",
          "midi": 99,
          "time": 107.7790697674289,
          "velocity": 0.2992125984251969,
          "duration": 0.10465116279067388
        },
        {
          "name": "F7",
          "midi": 101,
          "time": 107.7790697674289,
          "velocity": 0.30708661417322836,
          "duration": 0.0813953488371908
        },
        {
          "name": "G7",
          "midi": 103,
          "time": 107.7790697674289,
          "velocity": 0.31496062992125984,
          "duration": 0.10465116279067388
        },
        {
          "name": "G1",
          "midi": 31,
          "time": 107.79069767440564,
          "velocity": 0.5196850393700787,
          "duration": 0.023255813953483084
        },
        {
          "name": "F3",
          "midi": 53,
          "time": 107.79069767440564,
          "velocity": 0.25984251968503935,
          "duration": 0.023255813953483084
        },
        {
          "name": "F4",
          "midi": 65,
          "time": 107.79069767440564,
          "velocity": 0.4251968503937008,
          "duration": 0.11627906976741542
        },
        {
          "name": "G#4",
          "midi": 68,
          "time": 107.79069767440564,
          "velocity": 0.3543307086614173,
          "duration": 0.19767441860462043
        },
        {
          "name": "A#4",
          "midi": 70,
          "time": 107.79069767440564,
          "velocity": 0.2755905511811024,
          "duration": 0.023255813953483084
        },
        {
          "name": "E5",
          "midi": 76,
          "time": 107.79069767440564,
          "velocity": 0.2283464566929134,
          "duration": 0.034883720930224626
        },
        {
          "name": "C6",
          "midi": 84,
          "time": 107.79069767440564,
          "velocity": 0.3937007874015748,
          "duration": 0.04651162790696617
        },
        {
          "name": "C#5",
          "midi": 73,
          "time": 107.80232558138238,
          "velocity": 0.3543307086614173,
          "duration": 0.04651162790696617
        },
        {
          "name": "A6",
          "midi": 93,
          "time": 107.81395348835912,
          "velocity": 0.33070866141732286,
          "duration": 0.04651162790696617
        },
        {
          "name": "C#7",
          "midi": 97,
          "time": 107.81395348835912,
          "velocity": 0.2755905511811024,
          "duration": 0.04651162790696617
        },
        {
          "name": "C5",
          "midi": 72,
          "time": 107.8372093023126,
          "velocity": 0.18110236220472442,
          "duration": 0.034883720930224626
        },
        {
          "name": "E5",
          "midi": 76,
          "time": 107.97674418603351,
          "velocity": 0.16535433070866143,
          "duration": 0.034883720930224626
        },
        {
          "name": "C#5",
          "midi": 73,
          "time": 107.98837209301026,
          "velocity": 0.6141732283464567,
          "duration": 0.3255813953487916
        },
        {
          "name": "D#6",
          "midi": 87,
          "time": 107.98837209301026,
          "velocity": 0.25984251968503935,
          "duration": 0.1627906976743816
        },
        {
          "name": "F#6",
          "midi": 90,
          "time": 107.98837209301026,
          "velocity": 0.18110236220472442,
          "duration": 0.034883720930224626
        },
        {
          "name": "A6",
          "midi": 93,
          "time": 107.98837209301026,
          "velocity": 0.14173228346456693,
          "duration": 0.06976744186044925
        },
        {
          "name": "F3",
          "midi": 53,
          "time": 107.999999999987,
          "velocity": 0.14173228346456693,
          "duration": 0.0813953488371908
        },
        {
          "name": "G#4",
          "midi": 68,
          "time": 107.999999999987,
          "velocity": 0.5354330708661418,
          "duration": 0.41860465116273815
        },
        {
          "name": "A5",
          "midi": 81,
          "time": 107.999999999987,
          "velocity": 0.29133858267716534,
          "duration": 0.034883720930224626
        },
        {
          "name": "D#5",
          "midi": 75,
          "time": 108.01162790696374,
          "velocity": 0.15748031496062992,
          "duration": 0.05813953488370771
        },
        {
          "name": "F4",
          "midi": 65,
          "time": 108.0581395348707,
          "velocity": 0.1889763779527559,
          "duration": 0.04651162790696617
        },
        {
          "name": "A3",
          "midi": 57,
          "time": 108.09302325580093,
          "velocity": 0.3937007874015748,
          "duration": 0.034883720930224626
        },
        {
          "name": "F6",
          "midi": 89,
          "time": 108.09302325580093,
          "velocity": 0.2125984251968504,
          "duration": 0.06976744186044925
        },
        {
          "name": "C#4",
          "midi": 61,
          "time": 108.10465116277767,
          "velocity": 0.49606299212598426,
          "duration": 0.33720930232554736
        },
        {
          "name": "F#5",
          "midi": 78,
          "time": 108.10465116277767,
          "velocity": 0.2283464566929134,
          "duration": 0.023255813953483084
        },
        {
          "name": "A5",
          "midi": 81,
          "time": 108.10465116277767,
          "velocity": 0.3779527559055118,
          "duration": 0.034883720930224626
        },
        {
          "name": "B6",
          "midi": 95,
          "time": 108.10465116277767,
          "velocity": 0.07874015748031496,
          "duration": 0.034883720930224626
        },
        {
          "name": "F4",
          "midi": 65,
          "time": 108.11627906975441,
          "velocity": 0.4015748031496063,
          "duration": 0.31395348837206427
        },
        {
          "name": "D#5",
          "midi": 75,
          "time": 108.11627906975441,
          "velocity": 0.3858267716535433,
          "duration": 0.0813953488371908
        },
        {
          "name": "F5",
          "midi": 77,
          "time": 108.11627906975441,
          "velocity": 0.4330708661417323,
          "duration": 0.31395348837206427
        },
        {
          "name": "C6",
          "midi": 84,
          "time": 108.11627906975441,
          "velocity": 0.2992125984251969,
          "duration": 0.1627906976743958
        },
        {
          "name": "G#3",
          "midi": 56,
          "time": 108.12790697673115,
          "velocity": 0.4566929133858268,
          "duration": 0.30232558139532273
        },
        {
          "name": "D6",
          "midi": 86,
          "time": 108.12790697673115,
          "velocity": 0.13385826771653545,
          "duration": 0.05813953488370771
        },
        {
          "name": "D#5",
          "midi": 75,
          "time": 108.25581395347533,
          "velocity": 0.2440944881889764,
          "duration": 0.17441860465115155
        },
        {
          "name": "C5",
          "midi": 72,
          "time": 108.32558139533579,
          "velocity": 0.1968503937007874,
          "duration": 0.081395348837205
        },
        {
          "name": "A#5",
          "midi": 82,
          "time": 108.41860465114974,
          "velocity": 0.2440944881889764,
          "duration": 0.0813953488371908
        },
        {
          "name": "C#6",
          "midi": 85,
          "time": 108.41860465114974,
          "velocity": 0.4881889763779528,
          "duration": 0.6744186046510521
        },
        {
          "name": "D3",
          "midi": 50,
          "time": 108.43023255812648,
          "velocity": 0.6614173228346457,
          "duration": 0.011627906976741542
        },
        {
          "name": "F#4",
          "midi": 66,
          "time": 108.43023255812648,
          "velocity": 0.4330708661417323,
          "duration": 0.023255813953483084
        },
        {
          "name": "D#6",
          "midi": 87,
          "time": 108.43023255812648,
          "velocity": 0.1732283464566929,
          "duration": 0.0813953488371908
        },
        {
          "name": "A2",
          "midi": 45,
          "time": 108.44186046510322,
          "velocity": 0.7480314960629921,
          "duration": 0.011627906976741542
        },
        {
          "name": "C4",
          "midi": 60,
          "time": 108.44186046510322,
          "velocity": 0.4094488188976378,
          "duration": 0.023255813953483084
        },
        {
          "name": "B4",
          "midi": 71,
          "time": 108.44186046510322,
          "velocity": 0.28346456692913385,
          "duration": 0.023255813953483084
        },
        {
          "name": "G#5",
          "midi": 80,
          "time": 108.44186046510322,
          "velocity": 0.41732283464566927,
          "duration": 0.5348837209301394
        },
        {
          "name": "A5",
          "midi": 81,
          "time": 108.44186046510322,
          "velocity": 0.2283464566929134,
          "duration": 0.023255813953483084
        },
        {
          "name": "F2",
          "midi": 41,
          "time": 108.45348837207996,
          "velocity": 0.7716535433070866,
          "duration": 0.011627906976741542
        },
        {
          "name": "F7",
          "midi": 101,
          "time": 108.45348837207996,
          "velocity": 0.2047244094488189,
          "duration": 0.05813953488370771
        },
        {
          "name": "D2",
          "midi": 38,
          "time": 108.4651162790567,
          "velocity": 0.7716535433070866,
          "duration": 0.011627906976741542
        },
        {
          "name": "F#3",
          "midi": 54,
          "time": 108.4651162790567,
          "velocity": 0.48031496062992124,
          "duration": 0.04651162790696617
        },
        {
          "name": "C#4",
          "midi": 61,
          "time": 108.4651162790567,
          "velocity": 0.28346456692913385,
          "duration": 0.023255813953483084
        },
        {
          "name": "A#4",
          "midi": 70,
          "time": 108.4651162790567,
          "velocity": 0.4251968503937008,
          "duration": 0.2558139534883139
        },
        {
          "name": "B5",
          "midi": 83,
          "time": 108.4651162790567,
          "velocity": 0.2204724409448819,
          "duration": 0.09302325581393234
        },
        {
          "name": "F6",
          "midi": 89,
          "time": 108.4651162790567,
          "velocity": 0.11811023622047244,
          "duration": 0.04651162790696617
        },
        {
          "name": "C2",
          "midi": 36,
          "time": 108.47674418603344,
          "velocity": 0.7795275590551181,
          "duration": 0.011627906976741542
        },
        {
          "name": "A#1",
          "midi": 34,
          "time": 108.48837209301018,
          "velocity": 0.7637795275590551,
          "duration": 0.011627906976741542
        },
        {
          "name": "A5",
          "midi": 81,
          "time": 108.48837209301018,
          "velocity": 0.13385826771653545,
          "duration": 0.034883720930224626
        },
        {
          "name": "A1",
          "midi": 33,
          "time": 108.49999999998693,
          "velocity": 0.7716535433070866,
          "duration": 0.011627906976741542
        },
        {
          "name": "C#4",
          "midi": 61,
          "time": 108.49999999998693,
          "velocity": 0.4251968503937008,
          "duration": 0.09302325581393234
        },
        {
          "name": "E6",
          "midi": 88,
          "time": 108.49999999998693,
          "velocity": 0.12598425196850394,
          "duration": 0.04651162790696617
        },
        {
          "name": "G#1",
          "midi": 32,
          "time": 108.51162790696367,
          "velocity": 0.7795275590551181,
          "duration": 0.023255813953483084
        },
        {
          "name": "F3",
          "midi": 53,
          "time": 108.51162790696367,
          "velocity": 0.49606299212598426,
          "duration": 0.023255813953483084
        },
        {
          "name": "C7",
          "midi": 96,
          "time": 108.51162790696367,
          "velocity": 0.07874015748031496,
          "duration": 0.04651162790696617
        },
        {
          "name": "D#7",
          "midi": 99,
          "time": 108.51162790696367,
          "velocity": 0.10236220472440945,
          "duration": 0.04651162790696617
        },
        {
          "name": "C6",
          "midi": 84,
          "time": 108.52325581394041,
          "velocity": 0.16535433070866143,
          "duration": 0.04651162790696617
        },
        {
          "name": "F6",
          "midi": 89,
          "time": 108.52325581394041,
          "velocity": 0.31496062992125984,
          "duration": 0.2209302325580893
        },
        {
          "name": "G1",
          "midi": 31,
          "time": 108.53488372091715,
          "velocity": 0.7637795275590551,
          "duration": 0.04651162790696617
        },
        {
          "name": "F#3",
          "midi": 54,
          "time": 108.53488372091715,
          "velocity": 0.4645669291338583,
          "duration": 0.0813953488371908
        },
        {
          "name": "F5",
          "midi": 77,
          "time": 108.54651162789389,
          "velocity": 0.23622047244094488,
          "duration": 0.09302325581393234
        },
        {
          "name": "A#3",
          "midi": 58,
          "time": 108.55813953487063,
          "velocity": 0.44881889763779526,
          "duration": 0.11627906976741542
        },
        {
          "name": "F#7",
          "midi": 102,
          "time": 108.55813953487063,
          "velocity": 0.07874015748031496,
          "duration": 0.05813953488370771
        },
        {
          "name": "B5",
          "midi": 83,
          "time": 108.56976744184738,
          "velocity": 0.10236220472440945,
          "duration": 0.04651162790696617
        },
        {
          "name": "F#1",
          "midi": 30,
          "time": 108.58139534882412,
          "velocity": 0.6692913385826772,
          "duration": 0.05813953488370771
        },
        {
          "name": "G#4",
          "midi": 68,
          "time": 108.58139534882412,
          "velocity": 0.2047244094488189,
          "duration": 0.0813953488371908
        },
        {
          "name": "E6",
          "midi": 88,
          "time": 108.59302325580086,
          "velocity": 0.07086614173228346,
          "duration": 0.04651162790696617
        },
        {
          "name": "F#6",
          "midi": 90,
          "time": 108.6046511627776,
          "velocity": 0.2677165354330709,
          "duration": 0.0813953488371908
        },
        {
          "name": "C#4",
          "midi": 61,
          "time": 108.62790697673108,
          "velocity": 0.3543307086614173,
          "duration": 0.023255813953483084
        },
        {
          "name": "F1",
          "midi": 29,
          "time": 108.63953488370782,
          "velocity": 0.6141732283464567,
          "duration": 0.0813953488371908
        },
        {
          "name": "F#2",
          "midi": 42,
          "time": 108.63953488370782,
          "velocity": 0.5118110236220472,
          "duration": 0.05813953488370771
        },
        {
          "name": "F#5",
          "midi": 78,
          "time": 108.63953488370782,
          "velocity": 0.3464566929133858,
          "duration": 0.023255813953483084
        },
        {
          "name": "D6",
          "midi": 86,
          "time": 108.63953488370782,
          "velocity": 0.29133858267716534,
          "duration": 0.023255813953483084
        },
        {
          "name": "G6",
          "midi": 91,
          "time": 108.65116279068457,
          "velocity": 0.25984251968503935,
          "duration": 0.023255813953483084
        },
        {
          "name": "C#4",
          "midi": 61,
          "time": 108.66279069766131,
          "velocity": 0.5118110236220472,
          "duration": 0.09302325581393234
        },
        {
          "name": "F#4",
          "midi": 66,
          "time": 108.66279069766131,
          "velocity": 0.44881889763779526,
          "duration": 0.1395348837208985
        },
        {
          "name": "F5",
          "midi": 77,
          "time": 108.66279069766131,
          "velocity": 0.3464566929133858,
          "duration": 0.04651162790696617
        },
        {
          "name": "B5",
          "midi": 83,
          "time": 108.66279069766131,
          "velocity": 0.13385826771653545,
          "duration": 0.034883720930224626
        },
        {
          "name": "E5",
          "midi": 76,
          "time": 108.68604651161479,
          "velocity": 0.12598425196850394,
          "duration": 0.05813953488370771
        },
        {
          "name": "F#1",
          "midi": 30,
          "time": 108.72093023254502,
          "velocity": 0.6692913385826772,
          "duration": 0.372093023255772
        },
        {
          "name": "A#4",
          "midi": 70,
          "time": 108.7441860464985,
          "velocity": 0.5354330708661418,
          "duration": 0.9999999999998863
        },
        {
          "name": "A#3",
          "midi": 58,
          "time": 108.75581395347524,
          "velocity": 0.4881889763779528,
          "duration": 0.15116279069765426
        },
        {
          "name": "D6",
          "midi": 86,
          "time": 108.75581395347524,
          "velocity": 0.11023622047244094,
          "duration": 0.034883720930224626
        },
        {
          "name": "F5",
          "midi": 77,
          "time": 108.76744186045198,
          "velocity": 0.30708661417322836,
          "duration": 0.30232558139532273
        },
        {
          "name": "F#4",
          "midi": 66,
          "time": 108.81395348835895,
          "velocity": 0.2755905511811024,
          "duration": 0.13953488372092693
        },
        {
          "name": "C#4",
          "midi": 61,
          "time": 108.89534883719615,
          "velocity": 0.30708661417322836,
          "duration": 0.09302325581394655
        },
        {
          "name": "A#3",
          "midi": 58,
          "time": 108.95348837207987,
          "velocity": 0.3858267716535433,
          "duration": 0.13953488372091272
        },
        {
          "name": "D6",
          "midi": 86,
          "time": 108.96511627905662,
          "velocity": 0.16535433070866143,
          "duration": 0.034883720930224626
        },
        {
          "name": "F6",
          "midi": 89,
          "time": 108.96511627905662,
          "velocity": 0.3228346456692913,
          "duration": 0.15116279069765426
        },
        {
          "name": "E7",
          "midi": 100,
          "time": 108.96511627905662,
          "velocity": 0.2047244094488189,
          "duration": 0.034883720930224626
        },
        {
          "name": "F#7",
          "midi": 102,
          "time": 108.96511627905662,
          "velocity": 0.2283464566929134,
          "duration": 0.034883720930224626
        },
        {
          "name": "G7",
          "midi": 103,
          "time": 108.96511627905662,
          "velocity": 0.18110236220472442,
          "duration": 0.034883720930224626
        },
        {
          "name": "F#4",
          "midi": 66,
          "time": 108.99999999998684,
          "velocity": 0.2283464566929134,
          "duration": 0.10465116279068809
        },
        {
          "name": "C#5",
          "midi": 73,
          "time": 108.99999999998684,
          "velocity": 0.28346456692913385,
          "duration": 0.081395348837205
        },
        {
          "name": "A5",
          "midi": 81,
          "time": 109.0697674418473,
          "velocity": 0.3858267716535433,
          "duration": 0.023255813953483084
        },
        {
          "name": "D#6",
          "midi": 87,
          "time": 109.0697674418473,
          "velocity": 0.2677165354330709,
          "duration": 0.04651162790696617
        },
        {
          "name": "G#6",
          "midi": 92,
          "time": 109.0697674418473,
          "velocity": 0.4094488188976378,
          "duration": 0.09302325581393234
        },
        {
          "name": "D7",
          "midi": 98,
          "time": 109.0697674418473,
          "velocity": 0.23622047244094488,
          "duration": 0.10465116279067388
        },
        {
          "name": "D5",
          "midi": 74,
          "time": 109.08139534882405,
          "velocity": 0.4094488188976378,
          "duration": 0.023255813953483084
        },
        {
          "name": "B5",
          "midi": 83,
          "time": 109.08139534882405,
          "velocity": 0.3858267716535433,
          "duration": 0.05813953488370771
        },
        {
          "name": "E6",
          "midi": 88,
          "time": 109.08139534882405,
          "velocity": 0.33858267716535434,
          "duration": 0.06976744186044925
        },
        {
          "name": "F#6",
          "midi": 90,
          "time": 109.08139534882405,
          "velocity": 0.3228346456692913,
          "duration": 0.0813953488371908
        },
        {
          "name": "A#6",
          "midi": 94,
          "time": 109.08139534882405,
          "velocity": 0.30708661417322836,
          "duration": 0.09302325581393234
        },
        {
          "name": "C7",
          "midi": 96,
          "time": 109.08139534882405,
          "velocity": 0.25984251968503935,
          "duration": 0.023255813953483084
        },
        {
          "name": "D#7",
          "midi": 99,
          "time": 109.08139534882405,
          "velocity": 0.3543307086614173,
          "duration": 0.2441860465115866
        },
        {
          "name": "G1",
          "midi": 31,
          "time": 109.09302325580079,
          "velocity": 0.5354330708661418,
          "duration": 0.023255813953483084
        },
        {
          "name": "F5",
          "midi": 77,
          "time": 109.09302325580079,
          "velocity": 0.3779527559055118,
          "duration": 0.30232558139532273
        },
        {
          "name": "G#5",
          "midi": 80,
          "time": 109.09302325580079,
          "velocity": 0.5275590551181102,
          "duration": 0.6046511627906312
        },
        {
          "name": "G6",
          "midi": 91,
          "time": 109.09302325580079,
          "velocity": 0.25196850393700787,
          "duration": 0.023255813953483084
        },
        {
          "name": "A6",
          "midi": 93,
          "time": 109.09302325580079,
          "velocity": 0.36220472440944884,
          "duration": 0.06976744186044925
        },
        {
          "name": "A#3",
          "midi": 58,
          "time": 109.10465116277753,
          "velocity": 0.4330708661417323,
          "duration": 0.06976744186044925
        },
        {
          "name": "C#5",
          "midi": 73,
          "time": 109.10465116277753,
          "velocity": 0.5590551181102362,
          "duration": 0.30232558139532273
        },
        {
          "name": "D#5",
          "midi": 75,
          "time": 109.10465116277753,
          "velocity": 0.23622047244094488,
          "duration": 0.023255813953483084
        },
        {
          "name": "C6",
          "midi": 84,
          "time": 109.11627906975427,
          "velocity": 0.30708661417322836,
          "duration": 0.034883720930224626
        },
        {
          "name": "C7",
          "midi": 96,
          "time": 109.11627906975427,
          "velocity": 0.3228346456692913,
          "duration": 0.05813953488370771
        },
        {
          "name": "G7",
          "midi": 103,
          "time": 109.11627906975427,
          "velocity": 0.29133858267716534,
          "duration": 0.06976744186044925
        },
        {
          "name": "C#4",
          "midi": 61,
          "time": 109.12790697673101,
          "velocity": 0.36220472440944884,
          "duration": 0.04651162790696617
        },
        {
          "name": "D#6",
          "midi": 87,
          "time": 109.12790697673101,
          "velocity": 0.2125984251968504,
          "duration": 0.04651162790696617
        },
        {
          "name": "D6",
          "midi": 86,
          "time": 109.13953488370775,
          "velocity": 0.14960629921259844,
          "duration": 0.034883720930224626
        },
        {
          "name": "G6",
          "midi": 91,
          "time": 109.13953488370775,
          "velocity": 0.2047244094488189,
          "duration": 0.034883720930224626
        },
        {
          "name": "B5",
          "midi": 83,
          "time": 109.1511627906845,
          "velocity": 0.12598425196850394,
          "duration": 0.034883720930224626
        },
        {
          "name": "F#4",
          "midi": 66,
          "time": 109.16279069766124,
          "velocity": 0.13385826771653545,
          "duration": 0.06976744186044925
        },
        {
          "name": "E6",
          "midi": 88,
          "time": 109.17441860463798,
          "velocity": 0.07086614173228346,
          "duration": 0.034883720930224626
        },
        {
          "name": "C#4",
          "midi": 61,
          "time": 109.18604651161472,
          "velocity": 0.33858267716535434,
          "duration": 0.13953488372091272
        },
        {
          "name": "A#3",
          "midi": 58,
          "time": 109.23255813952169,
          "velocity": 0.30708661417322836,
          "duration": 0.17441860465116577
        },
        {
          "name": "F#5",
          "midi": 78,
          "time": 109.24418604649843,
          "velocity": 0.09448818897637795,
          "duration": 0.05813953488372192
        },
        {
          "name": "F#4",
          "midi": 66,
          "time": 109.29069767440541,
          "velocity": 0.4251968503937008,
          "duration": 0.1046511627907023
        },
        {
          "name": "A6",
          "midi": 93,
          "time": 109.29069767440541,
          "velocity": 0.18110236220472442,
          "duration": 0.034883720930224626
        },
        {
          "name": "D#7",
          "midi": 99,
          "time": 109.36046511626587,
          "velocity": 0.14960629921259844,
          "duration": 0.05813953488372192
        },
        {
          "name": "F4",
          "midi": 65,
          "time": 109.39534883719611,
          "velocity": 0.2440944881889764,
          "duration": 0.023255813953483084
        },
        {
          "name": "F#5",
          "midi": 78,
          "time": 109.39534883719611,
          "velocity": 0.33070866141732286,
          "duration": 0.04651162790696617
        },
        {
          "name": "B3",
          "midi": 59,
          "time": 109.40697674417285,
          "velocity": 0.41732283464566927,
          "duration": 0.023255813953483084
        },
        {
          "name": "A5",
          "midi": 81,
          "time": 109.40697674417285,
          "velocity": 0.4251968503937008,
          "duration": 0.034883720930224626
        },
        {
          "name": "D6",
          "midi": 86,
          "time": 109.40697674417285,
          "velocity": 0.3543307086614173,
          "duration": 0.05813953488370771
        },
        {
          "name": "E6",
          "midi": 88,
          "time": 109.40697674417285,
          "velocity": 0.13385826771653545,
          "duration": 0.05813953488370771
        },
        {
          "name": "F#4",
          "midi": 66,
          "time": 109.4186046511496,
          "velocity": 0.41732283464566927,
          "duration": 0.1627906976743958
        },
        {
          "name": "B5",
          "midi": 83,
          "time": 109.4186046511496,
          "velocity": 0.41732283464566927,
          "duration": 0.04651162790696617
        },
        {
          "name": "F6",
          "midi": 89,
          "time": 109.4186046511496,
          "velocity": 0.1889763779527559,
          "duration": 0.0813953488371908
        },
        {
          "name": "A#3",
          "midi": 58,
          "time": 109.43023255812633,
          "velocity": 0.5669291338582677,
          "duration": 0.20930232558136197
        },
        {
          "name": "C#5",
          "midi": 73,
          "time": 109.43023255812633,
          "velocity": 0.44881889763779526,
          "duration": 0.31395348837205006
        },
        {
          "name": "F5",
          "midi": 77,
          "time": 109.43023255812633,
          "velocity": 0.4015748031496063,
          "duration": 0.4651162790696901
        },
        {
          "name": "D#6",
          "midi": 87,
          "time": 109.46511627905656,
          "velocity": 0.25196850393700787,
          "duration": 0.023255813953483084
        },
        {
          "name": "D6",
          "midi": 86,
          "time": 109.4767441860333,
          "velocity": 0.10236220472440945,
          "duration": 0.034883720930224626
        },
        {
          "name": "A6",
          "midi": 93,
          "time": 109.51162790696353,
          "velocity": 0.2283464566929134,
          "duration": 0.034883720930224626
        },
        {
          "name": "A#6",
          "midi": 94,
          "time": 109.52325581394027,
          "velocity": 0.5196850393700787,
          "duration": 0.31395348837205006
        },
        {
          "name": "F#4",
          "midi": 66,
          "time": 109.59302325580073,
          "velocity": 0.28346456692913385,
          "duration": 0.13953488372091272
        },
        {
          "name": "D6",
          "midi": 86,
          "time": 109.61627906975421,
          "velocity": 0.2047244094488189,
          "duration": 0.034883720930224626
        },
        {
          "name": "B5",
          "midi": 83,
          "time": 109.62790697673096,
          "velocity": 0.2755905511811024,
          "duration": 0.023255813953483084
        },
        {
          "name": "A#3",
          "midi": 58,
          "time": 109.65116279068444,
          "velocity": 0.49606299212598426,
          "duration": 0.09302325581394655
        },
        {
          "name": "A6",
          "midi": 93,
          "time": 109.66279069766118,
          "velocity": 0.2125984251968504,
          "duration": 0.04651162790698038
        },
        {
          "name": "C#4",
          "midi": 61,
          "time": 109.69767441859142,
          "velocity": 0.33070866141732286,
          "duration": 0.023255813953483084
        },
        {
          "name": "G#5",
          "midi": 80,
          "time": 109.7209302325449,
          "velocity": 0.33070866141732286,
          "duration": 0.04651162790696617
        },
        {
          "name": "D#3",
          "midi": 51,
          "time": 109.73255813952164,
          "velocity": 0.5590551181102362,
          "duration": 0.011627906976741542
        },
        {
          "name": "A5",
          "midi": 81,
          "time": 109.73255813952164,
          "velocity": 0.4645669291338583,
          "duration": 0.0813953488371908
        },
        {
          "name": "D6",
          "midi": 86,
          "time": 109.73255813952164,
          "velocity": 0.33858267716535434,
          "duration": 0.0813953488371908
        },
        {
          "name": "G#6",
          "midi": 92,
          "time": 109.73255813952164,
          "velocity": 0.5511811023622047,
          "duration": 1.6511627906973843
        },
        {
          "name": "B6",
          "midi": 95,
          "time": 109.73255813952164,
          "velocity": 0.1968503937007874,
          "duration": 0.12790697674415696
        },
        {
          "name": "C3",
          "midi": 48,
          "time": 109.74418604649838,
          "velocity": 0.7007874015748031,
          "duration": 0.011627906976741542
        },
        {
          "name": "F4",
          "midi": 65,
          "time": 109.74418604649838,
          "velocity": 0.4094488188976378,
          "duration": 0.06976744186044925
        },
        {
          "name": "G#4",
          "midi": 68,
          "time": 109.74418604649838,
          "velocity": 0.44881889763779526,
          "duration": 0.3255813953487632
        },
        {
          "name": "C5",
          "midi": 72,
          "time": 109.74418604649838,
          "velocity": 0.3779527559055118,
          "duration": 0.023255813953483084
        },
        {
          "name": "E5",
          "midi": 76,
          "time": 109.74418604649838,
          "velocity": 0.2992125984251969,
          "duration": 0.034883720930224626
        },
        {
          "name": "B5",
          "midi": 83,
          "time": 109.74418604649838,
          "velocity": 0.30708661417322836,
          "duration": 0.023255813953483084
        },
        {
          "name": "F#2",
          "midi": 42,
          "time": 109.75581395347513,
          "velocity": 0.7559055118110236,
          "duration": 0.011627906976741542
        },
        {
          "name": "D#6",
          "midi": 87,
          "time": 109.75581395347513,
          "velocity": 0.16535433070866143,
          "duration": 0.10465116279067388
        },
        {
          "name": "F#6",
          "midi": 90,
          "time": 109.75581395347513,
          "velocity": 0.2047244094488189,
          "duration": 0.10465116279067388
        },
        {
          "name": "D2",
          "midi": 38,
          "time": 109.76744186045187,
          "velocity": 0.7637795275590551,
          "duration": 0.011627906976741542
        },
        {
          "name": "C#4",
          "midi": 61,
          "time": 109.76744186045187,
          "velocity": 0.36220472440944884,
          "duration": 0.09302325581393234
        },
        {
          "name": "C#5",
          "midi": 73,
          "time": 109.76744186045187,
          "velocity": 0.41732283464566927,
          "duration": 0.3255813953487632
        },
        {
          "name": "C6",
          "midi": 84,
          "time": 109.76744186045187,
          "velocity": 0.2677165354330709,
          "duration": 0.05813953488370771
        },
        {
          "name": "C2",
          "midi": 36,
          "time": 109.77906976742861,
          "velocity": 0.7874015748031497,
          "duration": 0.011627906976741542
        },
        {
          "name": "A#4",
          "midi": 70,
          "time": 109.77906976742861,
          "velocity": 0.2440944881889764,
          "duration": 0.023255813953483084
        },
        {
          "name": "G6",
          "midi": 91,
          "time": 109.77906976742861,
          "velocity": 0.11811023622047244,
          "duration": 0.04651162790696617
        },
        {
          "name": "A#1",
          "midi": 34,
          "time": 109.79069767440535,
          "velocity": 0.7716535433070866,
          "duration": 0.011627906976741542
        },
        {
          "name": "D#5",
          "midi": 75,
          "time": 109.79069767440535,
          "velocity": 0.4015748031496063,
          "duration": 0.488372093023159
        },
        {
          "name": "A1",
          "midi": 33,
          "time": 109.80232558138209,
          "velocity": 0.7716535433070866,
          "duration": 0.011627906976741542
        },
        {
          "name": "A3",
          "midi": 57,
          "time": 109.80232558138209,
          "velocity": 0.33070866141732286,
          "duration": 0.023255813953483084
        },
        {
          "name": "G#1",
          "midi": 32,
          "time": 109.81395348835883,
          "velocity": 0.7559055118110236,
          "duration": 0.023255813953483084
        },
        {
          "name": "F4",
          "midi": 65,
          "time": 109.82558139533558,
          "velocity": 0.5118110236220472,
          "duration": 0.45348837209293436
        },
        {
          "name": "A1",
          "midi": 33,
          "time": 109.83720930231232,
          "velocity": 0.6771653543307087,
          "duration": 0.023255813953483084
        },
        {
          "name": "C6",
          "midi": 84,
          "time": 109.84883720928906,
          "velocity": 0.14960629921259844,
          "duration": 0.10465116279067388
        },
        {
          "name": "A#6",
          "midi": 94,
          "time": 109.84883720928906,
          "velocity": 0.14173228346456693,
          "duration": 0.05813953488370771
        },
        {
          "name": "G#1",
          "midi": 32,
          "time": 109.8604651162658,
          "velocity": 0.6535433070866141,
          "duration": 0.023255813953483084
        },
        {
          "name": "A5",
          "midi": 81,
          "time": 109.8604651162658,
          "velocity": 0.16535433070866143,
          "duration": 0.0813953488371908
        },
        {
          "name": "B5",
          "midi": 83,
          "time": 109.8604651162658,
          "velocity": 0.15748031496062992,
          "duration": 0.06976744186044925
        },
        {
          "name": "C#4",
          "midi": 61,
          "time": 109.87209302324254,
          "velocity": 0.3464566929133858,
          "duration": 0.034883720930224626
        },
        {
          "name": "G6",
          "midi": 91,
          "time": 109.87209302324254,
          "velocity": 0.18110236220472442,
          "duration": 0.11627906976741542
        },
        {
          "name": "B6",
          "midi": 95,
          "time": 109.87209302324254,
          "velocity": 0.18110236220472442,
          "duration": 0.05813953488370771
        },
        {
          "name": "G1",
          "midi": 31,
          "time": 109.88372093021928,
          "velocity": 0.7165354330708661,
          "duration": 0.023255813953483084
        },
        {
          "name": "F#1",
          "midi": 30,
          "time": 109.90697674417277,
          "velocity": 0.7401574803149606,
          "duration": 0.06976744186044925
        },
        {
          "name": "C3",
          "midi": 48,
          "time": 109.90697674417277,
          "velocity": 0.3543307086614173,
          "duration": 0.05813953488370771
        },
        {
          "name": "C4",
          "midi": 60,
          "time": 109.93023255812625,
          "velocity": 0.4015748031496063,
          "duration": 0.1395348837208985
        },
        {
          "name": "A#4",
          "midi": 70,
          "time": 109.93023255812625,
          "velocity": 0.2283464566929134,
          "duration": 0.04651162790696617
        },
        {
          "name": "G5",
          "midi": 79,
          "time": 109.93023255812625,
          "velocity": 0.2283464566929134,
          "duration": 0.09302325581393234
        },
        {
          "name": "D6",
          "midi": 86,
          "time": 109.93023255812625,
          "velocity": 0.13385826771653545,
          "duration": 0.04651162790696617
        },
        {
          "name": "F3",
          "midi": 53,
          "time": 109.94186046510299,
          "velocity": 0.31496062992125984,
          "duration": 0.04651162790696617
        },
        {
          "name": "C6",
          "midi": 84,
          "time": 109.96511627905647,
          "velocity": 0.23622047244094488,
          "duration": 0.20930232558134776
        },
        {
          "name": "F1",
          "midi": 29,
          "time": 109.97674418603322,
          "velocity": 0.7244094488188977,
          "duration": 0.04651162790696617
        },
        {
          "name": "F3",
          "midi": 53,
          "time": 109.9999999999867,
          "velocity": 0.36220472440944884,
          "duration": 0.034883720930224626
        },
        {
          "name": "E1",
          "midi": 28,
          "time": 110.02325581394018,
          "velocity": 0.6614173228346457,
          "duration": 0.023255813953483084
        },
        {
          "name": "F1",
          "midi": 29,
          "time": 110.04651162789366,
          "velocity": 0.6535433070866141,
          "duration": 0.3488372093022605
        },
        {
          "name": "A3",
          "midi": 57,
          "time": 110.0581395348704,
          "velocity": 0.36220472440944884,
          "duration": 0.034883720930224626
        },
        {
          "name": "A5",
          "midi": 81,
          "time": 110.0581395348704,
          "velocity": 0.33070866141732286,
          "duration": 0.034883720930224626
        },
        {
          "name": "B5",
          "midi": 83,
          "time": 110.0581395348704,
          "velocity": 0.14960629921259844,
          "duration": 0.04651162790696617
        },
        {
          "name": "D6",
          "midi": 86,
          "time": 110.0581395348704,
          "velocity": 0.14960629921259844,
          "duration": 0.034883720930224626
        },
        {
          "name": "G6",
          "midi": 91,
          "time": 110.0581395348704,
          "velocity": 0.12598425196850394,
          "duration": 0.034883720930224626
        },
        {
          "name": "C#4",
          "midi": 61,
          "time": 110.06976744184715,
          "velocity": 0.5826771653543307,
          "duration": 0.12790697674415696
        },
        {
          "name": "G#5",
          "midi": 80,
          "time": 110.08139534882389,
          "velocity": 0.3779527559055118,
          "duration": 0.19767441860462043
        },
        {
          "name": "G#3",
          "midi": 56,
          "time": 110.09302325580063,
          "velocity": 0.4251968503937008,
          "duration": 0.023255813953483084
        },
        {
          "name": "C5",
          "midi": 72,
          "time": 110.1395348837076,
          "velocity": 0.16535433070866143,
          "duration": 0.034883720930224626
        },
        {
          "name": "F3",
          "midi": 53,
          "time": 110.15116279068434,
          "velocity": 0.3858267716535433,
          "duration": 0.04651162790696617
        },
        {
          "name": "G#4",
          "midi": 68,
          "time": 110.18604651161456,
          "velocity": 0.16535433070866143,
          "duration": 0.034883720930224626
        },
        {
          "name": "C4",
          "midi": 60,
          "time": 110.1976744185913,
          "velocity": 0.3700787401574803,
          "duration": 0.023255813953483084
        },
        {
          "name": "F3",
          "midi": 53,
          "time": 110.20930232556805,
          "velocity": 0.4015748031496063,
          "duration": 0.081395348837205
        },
        {
          "name": "C4",
          "midi": 60,
          "time": 110.23255813952153,
          "velocity": 0.2283464566929134,
          "duration": 0.03488372093023884
        },
        {
          "name": "C#4",
          "midi": 61,
          "time": 110.26744186045177,
          "velocity": 0.1968503937007874,
          "duration": 0.05813953488370771
        },
        {
          "name": "F#5",
          "midi": 78,
          "time": 110.26744186045177,
          "velocity": 0.3779527559055118,
          "duration": 0.023255813953483084
        },
        {
          "name": "G6",
          "midi": 91,
          "time": 110.26744186045177,
          "velocity": 0.2204724409448819,
          "duration": 0.04651162790696617
        },
        {
          "name": "A5",
          "midi": 81,
          "time": 110.27906976742851,
          "velocity": 0.4251968503937008,
          "duration": 0.023255813953483084
        },
        {
          "name": "C6",
          "midi": 84,
          "time": 110.27906976742851,
          "velocity": 0.2755905511811024,
          "duration": 0.05813953488370771
        },
        {
          "name": "G#3",
          "midi": 56,
          "time": 110.29069767440525,
          "velocity": 0.36220472440944884,
          "duration": 0.023255813953483084
        },
        {
          "name": "G#4",
          "midi": 68,
          "time": 110.29069767440525,
          "velocity": 0.4645669291338583,
          "duration": 0.7325581395347598
        },
        {
          "name": "D#5",
          "midi": 75,
          "time": 110.29069767440525,
          "velocity": 0.33858267716535434,
          "duration": 0.10465116279067388
        },
        {
          "name": "F5",
          "midi": 77,
          "time": 110.29069767440525,
          "velocity": 0.4251968503937008,
          "duration": 0.10465116279067388
        },
        {
          "name": "C#6",
          "midi": 85,
          "time": 110.29069767440525,
          "velocity": 0.23622047244094488,
          "duration": 0.034883720930224626
        },
        {
          "name": "F4",
          "midi": 65,
          "time": 110.302325581382,
          "velocity": 0.4015748031496063,
          "duration": 0.2790697674418112
        },
        {
          "name": "C5",
          "midi": 72,
          "time": 110.302325581382,
          "velocity": 0.28346456692913385,
          "duration": 0.04651162790696617
        },
        {
          "name": "A#6",
          "midi": 94,
          "time": 110.302325581382,
          "velocity": 0.12598425196850394,
          "duration": 0.09302325581393234
        },
        {
          "name": "F3",
          "midi": 53,
          "time": 110.31395348835873,
          "velocity": 0.36220472440944884,
          "duration": 0.034883720930224626
        },
        {
          "name": "C#4",
          "midi": 61,
          "time": 110.33720930231222,
          "velocity": 0.2992125984251969,
          "duration": 0.12790697674415696
        },
        {
          "name": "C#5",
          "midi": 73,
          "time": 110.33720930231222,
          "velocity": 0.4094488188976378,
          "duration": 0.3023255813952943
        },
        {
          "name": "A6",
          "midi": 93,
          "time": 110.33720930231222,
          "velocity": 0.12598425196850394,
          "duration": 0.04651162790696617
        },
        {
          "name": "G#3",
          "midi": 56,
          "time": 110.3604651162657,
          "velocity": 0.3700787401574803,
          "duration": 0.023255813953483084
        },
        {
          "name": "B5",
          "midi": 83,
          "time": 110.37209302324244,
          "velocity": 0.28346456692913385,
          "duration": 0.04651162790696617
        },
        {
          "name": "C6",
          "midi": 84,
          "time": 110.37209302324244,
          "velocity": 0.3700787401574803,
          "duration": 0.09302325581393234
        },
        {
          "name": "A#5",
          "midi": 82,
          "time": 110.38372093021918,
          "velocity": 0.30708661417322836,
          "duration": 0.05813953488370771
        },
        {
          "name": "D6",
          "midi": 86,
          "time": 110.38372093021918,
          "velocity": 0.25196850393700787,
          "duration": 0.034883720930224626
        },
        {
          "name": "E6",
          "midi": 88,
          "time": 110.38372093021918,
          "velocity": 0.25984251968503935,
          "duration": 0.06976744186044925
        },
        {
          "name": "F#6",
          "midi": 90,
          "time": 110.38372093021918,
          "velocity": 0.23622047244094488,
          "duration": 0.0813953488371908
        },
        {
          "name": "C#7",
          "midi": 97,
          "time": 110.38372093021918,
          "velocity": 0.2755905511811024,
          "duration": 0.09302325581393234
        },
        {
          "name": "D7",
          "midi": 98,
          "time": 110.38372093021918,
          "velocity": 0.2677165354330709,
          "duration": 0.10465116279067388
        },
        {
          "name": "F#1",
          "midi": 30,
          "time": 110.39534883719593,
          "velocity": 0.5511811023622047,
          "duration": 0.011627906976741542
        },
        {
          "name": "G#3",
          "midi": 56,
          "time": 110.39534883719593,
          "velocity": 0.2755905511811024,
          "duration": 0.2209302325581035
        },
        {
          "name": "E5",
          "midi": 76,
          "time": 110.39534883719593,
          "velocity": 0.30708661417322836,
          "duration": 0.023255813953483084
        },
        {
          "name": "G5",
          "midi": 79,
          "time": 110.39534883719593,
          "velocity": 0.28346456692913385,
          "duration": 0.023255813953483084
        },
        {
          "name": "F7",
          "midi": 101,
          "time": 110.39534883719593,
          "velocity": 0.2440944881889764,
          "duration": 0.09302325581393234
        },
        {
          "name": "F#7",
          "midi": 102,
          "time": 110.39534883719593,
          "velocity": 0.2440944881889764,
          "duration": 0.09302325581393234
        },
        {
          "name": "G1",
          "midi": 31,
          "time": 110.40697674417267,
          "velocity": 0.4881889763779528,
          "duration": 0.023255813953483084
        },
        {
          "name": "A6",
          "midi": 93,
          "time": 110.40697674417267,
          "velocity": 0.31496062992125984,
          "duration": 0.06976744186044925
        },
        {
          "name": "A#6",
          "midi": 94,
          "time": 110.40697674417267,
          "velocity": 0.31496062992125984,
          "duration": 0.0813953488371908
        },
        {
          "name": "D#5",
          "midi": 75,
          "time": 110.41860465114941,
          "velocity": 0.30708661417322836,
          "duration": 0.17441860465113734
        },
        {
          "name": "E7",
          "midi": 100,
          "time": 110.41860465114941,
          "velocity": 0.28346456692913385,
          "duration": 0.0813953488371908
        },
        {
          "name": "G7",
          "midi": 103,
          "time": 110.41860465114941,
          "velocity": 0.29133858267716534,
          "duration": 0.06976744186044925
        },
        {
          "name": "G6",
          "midi": 91,
          "time": 110.44186046510289,
          "velocity": 0.15748031496062992,
          "duration": 0.04651162790696617
        },
        {
          "name": "C6",
          "midi": 84,
          "time": 110.59302325580055,
          "velocity": 0.3464566929133858,
          "duration": 0.2441860465115866
        },
        {
          "name": "F6",
          "midi": 89,
          "time": 110.60465116277729,
          "velocity": 0.11023622047244094,
          "duration": 0.034883720930224626
        },
        {
          "name": "G6",
          "midi": 91,
          "time": 110.60465116277729,
          "velocity": 0.10236220472440945,
          "duration": 0.034883720930224626
        },
        {
          "name": "A6",
          "midi": 93,
          "time": 110.60465116277729,
          "velocity": 0.23622047244094488,
          "duration": 0.023255813953483084
        },
        {
          "name": "F4",
          "midi": 65,
          "time": 110.61627906975403,
          "velocity": 0.4094488188976378,
          "duration": 0.11627906976742963
        },
        {
          "name": "C#4",
          "midi": 61,
          "time": 110.62790697673077,
          "velocity": 0.4330708661417323,
          "duration": 0.1627906976743958
        },
        {
          "name": "D#5",
          "midi": 75,
          "time": 110.62790697673077,
          "velocity": 0.09448818897637795,
          "duration": 0.06976744186046346
        },
        {
          "name": "A3",
          "midi": 57,
          "time": 110.70930232556798,
          "velocity": 0.3779527559055118,
          "duration": 0.034883720930224626
        },
        {
          "name": "D6",
          "midi": 86,
          "time": 110.70930232556798,
          "velocity": 0.2125984251968504,
          "duration": 0.05813953488370771
        },
        {
          "name": "E6",
          "midi": 88,
          "time": 110.70930232556798,
          "velocity": 0.23622047244094488,
          "duration": 0.034883720930224626
        },
        {
          "name": "G6",
          "midi": 91,
          "time": 110.70930232556798,
          "velocity": 0.2125984251968504,
          "duration": 0.034883720930224626
        },
        {
          "name": "C#5",
          "midi": 73,
          "time": 110.72093023254472,
          "velocity": 0.4881889763779528,
          "duration": 0.20930232558136197
        },
        {
          "name": "D#5",
          "midi": 75,
          "time": 110.72093023254472,
          "velocity": 0.4566929133858268,
          "duration": 0.04651162790696617
        },
        {
          "name": "B5",
          "midi": 83,
          "time": 110.72093023254472,
          "velocity": 0.13385826771653545,
          "duration": 0.034883720930224626
        },
        {
          "name": "A6",
          "midi": 93,
          "time": 110.72093023254472,
          "velocity": 0.1732283464566929,
          "duration": 0.04651162790696617
        },
        {
          "name": "F5",
          "midi": 77,
          "time": 110.73255813952146,
          "velocity": 0.3700787401574803,
          "duration": 0.20930232558136197
        },
        {
          "name": "G#5",
          "midi": 80,
          "time": 110.73255813952146,
          "velocity": 0.4645669291338583,
          "duration": 0.11627906976741542
        },
        {
          "name": "F4",
          "midi": 65,
          "time": 110.7441860464982,
          "velocity": 0.3779527559055118,
          "duration": 0.023255813953483084
        },
        {
          "name": "F#3",
          "midi": 54,
          "time": 110.75581395347494,
          "velocity": 0.2677165354330709,
          "duration": 0.023255813953483084
        },
        {
          "name": "G3",
          "midi": 55,
          "time": 110.77906976742842,
          "velocity": 0.2992125984251969,
          "duration": 0.034883720930224626
        },
        {
          "name": "D#5",
          "midi": 75,
          "time": 110.80232558138191,
          "velocity": 0.3858267716535433,
          "duration": 0.2441860465115866
        },
        {
          "name": "G#3",
          "midi": 56,
          "time": 110.81395348835865,
          "velocity": 0.33858267716535434,
          "duration": 0.11627906976742963
        },
        {
          "name": "C#4",
          "midi": 61,
          "time": 110.81395348835865,
          "velocity": 0.2125984251968504,
          "duration": 0.10465116279068809
        },
        {
          "name": "F4",
          "midi": 65,
          "time": 110.83720930231213,
          "velocity": 0.1732283464566929,
          "duration": 0.10465116279068809
        },
        {
          "name": "G5",
          "midi": 79,
          "time": 110.93023255812608,
          "velocity": 0.12598425196850394,
          "duration": 0.034883720930224626
        },
        {
          "name": "A5",
          "midi": 81,
          "time": 110.93023255812608,
          "velocity": 0.13385826771653545,
          "duration": 0.034883720930224626
        },
        {
          "name": "C6",
          "midi": 84,
          "time": 110.93023255812608,
          "velocity": 0.1732283464566929,
          "duration": 0.04651162790696617
        },
        {
          "name": "C#5",
          "midi": 73,
          "time": 110.94186046510282,
          "velocity": 0.29133858267716534,
          "duration": 0.10465116279067388
        },
        {
          "name": "G#3",
          "midi": 56,
          "time": 110.95348837207956,
          "velocity": 0.48031496062992124,
          "duration": 0.0813953488371908
        },
        {
          "name": "C#4",
          "midi": 61,
          "time": 110.95348837207956,
          "velocity": 0.1732283464566929,
          "duration": 0.0813953488371908
        },
        {
          "name": "F5",
          "midi": 77,
          "time": 110.95348837207956,
          "velocity": 0.14173228346456693,
          "duration": 0.04651162790696617
        },
        {
          "name": "F4",
          "midi": 65,
          "time": 110.99999999998653,
          "velocity": 0.4330708661417323,
          "duration": 0.06976744186044925
        },
        {
          "name": "G3",
          "midi": 55,
          "time": 111.03488372091675,
          "velocity": 0.5118110236220472,
          "duration": 0.011627906976741542
        },
        {
          "name": "A4",
          "midi": 69,
          "time": 111.03488372091675,
          "velocity": 0.31496062992125984,
          "duration": 0.034883720930224626
        },
        {
          "name": "B5",
          "midi": 83,
          "time": 111.03488372091675,
          "velocity": 0.2283464566929134,
          "duration": 0.034883720930224626
        },
        {
          "name": "C#6",
          "midi": 85,
          "time": 111.03488372091675,
          "velocity": 0.5039370078740157,
          "duration": 0.7441860465115298
        },
        {
          "name": "C3",
          "midi": 48,
          "time": 111.0465116278935,
          "velocity": 0.7007874015748031,
          "duration": 0.011627906976741542
        },
        {
          "name": "C5",
          "midi": 72,
          "time": 111.0465116278935,
          "velocity": 0.36220472440944884,
          "duration": 0.023255813953483084
        },
        {
          "name": "D5",
          "midi": 74,
          "time": 111.0465116278935,
          "velocity": 0.2677165354330709,
          "duration": 0.023255813953483084
        },
        {
          "name": "F6",
          "midi": 89,
          "time": 111.0465116278935,
          "velocity": 0.2440944881889764,
          "duration": 0.2674418604650697
        },
        {
          "name": "A2",
          "midi": 45,
          "time": 111.05813953487024,
          "velocity": 0.7637795275590551,
          "duration": 0.011627906976741542
        },
        {
          "name": "F2",
          "midi": 41,
          "time": 111.06976744184698,
          "velocity": 0.7795275590551181,
          "duration": 0.011627906976741542
        },
        {
          "name": "G#4",
          "midi": 68,
          "time": 111.06976744184698,
          "velocity": 0.29133858267716534,
          "duration": 0.034883720930224626
        },
        {
          "name": "C#5",
          "midi": 73,
          "time": 111.06976744184698,
          "velocity": 0.36220472440944884,
          "duration": 0.18604651162787889
        },
        {
          "name": "F5",
          "midi": 77,
          "time": 111.06976744184698,
          "velocity": 0.28346456692913385,
          "duration": 0.15116279069765426
        },
        {
          "name": "A#5",
          "midi": 82,
          "time": 111.06976744184698,
          "velocity": 0.36220472440944884,
          "duration": 0.3837209302324993
        },
        {
          "name": "C#2",
          "midi": 37,
          "time": 111.08139534882372,
          "velocity": 0.7874015748031497,
          "duration": 0.011627906976741542
        },
        {
          "name": "C#4",
          "midi": 61,
          "time": 111.08139534882372,
          "velocity": 0.47244094488188976,
          "duration": 0.3023255813953085
        },
        {
          "name": "B1",
          "midi": 35,
          "time": 111.09302325580046,
          "velocity": 0.7874015748031497,
          "duration": 0.011627906976741542
        },
        {
          "name": "A#4",
          "midi": 70,
          "time": 111.09302325580046,
          "velocity": 0.1732283464566929,
          "duration": 0.034883720930224626
        },
        {
          "name": "A1",
          "midi": 33,
          "time": 111.1046511627772,
          "velocity": 0.7874015748031497,
          "duration": 0.011627906976741542
        },
        {
          "name": "G#1",
          "midi": 32,
          "time": 111.11627906975394,
          "velocity": 0.7874015748031497,
          "duration": 0.034883720930224626
        },
        {
          "name": "C6",
          "midi": 84,
          "time": 111.11627906975394,
          "velocity": 0.11811023622047244,
          "duration": 0.034883720930224626
        },
        {
          "name": "D6",
          "midi": 86,
          "time": 111.11627906975394,
          "velocity": 0.25196850393700787,
          "duration": 0.10465116279068809
        },
        {
          "name": "E7",
          "midi": 100,
          "time": 111.11627906975394,
          "velocity": 0.08661417322834646,
          "duration": 0.034883720930224626
        },
        {
          "name": "G#4",
          "midi": 68,
          "time": 111.12790697673069,
          "velocity": 0.11023622047244094,
          "duration": 0.034883720930224626
        },
        {
          "name": "E6",
          "midi": 88,
          "time": 111.12790697673069,
          "velocity": 0.3464566929133858,
          "duration": 0.19767441860462043
        },
        {
          "name": "F#6",
          "midi": 90,
          "time": 111.13953488370743,
          "velocity": 0.1889763779527559,
          "duration": 0.17441860465113734
        },
        {
          "name": "G1",
          "midi": 31,
          "time": 111.15116279068417,
          "velocity": 0.7559055118110236,
          "duration": 0.05813953488372192
        },
        {
          "name": "A#4",
          "midi": 70,
          "time": 111.15116279068417,
          "velocity": 0.5433070866141733,
          "duration": 0.5465116279069235
        },
        {
          "name": "F#4",
          "midi": 66,
          "time": 111.16279069766091,
          "velocity": 0.4881889763779528,
          "duration": 0.290697674418567
        },
        {
          "name": "D#7",
          "midi": 99,
          "time": 111.16279069766091,
          "velocity": 0.1732283464566929,
          "duration": 0.05813953488372192
        },
        {
          "name": "F#3",
          "midi": 54,
          "time": 111.17441860463765,
          "velocity": 0.5118110236220472,
          "duration": 0.41860465116275236
        },
        {
          "name": "F#1",
          "midi": 30,
          "time": 111.20930232556789,
          "velocity": 0.6299212598425197,
          "duration": 0.04651162790696617
        },
        {
          "name": "E5",
          "midi": 76,
          "time": 111.20930232556789,
          "velocity": 0.18110236220472442,
          "duration": 0.034883720930224626
        },
        {
          "name": "D7",
          "midi": 98,
          "time": 111.22093023254463,
          "velocity": 0.07086614173228346,
          "duration": 0.04651162790696617
        },
        {
          "name": "B5",
          "midi": 83,
          "time": 111.24418604649811,
          "velocity": 0.28346456692913385,
          "duration": 0.023255813953483084
        },
        {
          "name": "D6",
          "midi": 86,
          "time": 111.24418604649811,
          "velocity": 0.3228346456692913,
          "duration": 0.023255813953483084
        },
        {
          "name": "F1",
          "midi": 29,
          "time": 111.25581395347486,
          "velocity": 0.6220472440944882,
          "duration": 0.0813953488371908
        },
        {
          "name": "F#2",
          "midi": 42,
          "time": 111.25581395347486,
          "velocity": 0.41732283464566927,
          "duration": 0.023255813953483084
        },
        {
          "name": "D5",
          "midi": 74,
          "time": 111.25581395347486,
          "velocity": 0.41732283464566927,
          "duration": 0.023255813953483084
        },
        {
          "name": "A6",
          "midi": 93,
          "time": 111.25581395347486,
          "velocity": 0.1889763779527559,
          "duration": 0.034883720930224626
        },
        {
          "name": "F5",
          "midi": 77,
          "time": 111.2674418604516,
          "velocity": 0.33858267716535434,
          "duration": 0.034883720930224626
        },
        {
          "name": "G#5",
          "midi": 80,
          "time": 111.2674418604516,
          "velocity": 0.11023622047244094,
          "duration": 0.06976744186044925
        },
        {
          "name": "E5",
          "midi": 76,
          "time": 111.29069767440508,
          "velocity": 0.1732283464566929,
          "duration": 0.034883720930224626
        },
        {
          "name": "F5",
          "midi": 77,
          "time": 111.3255813953353,
          "velocity": 0.2755905511811024,
          "duration": 0.25581395348835656
        },
        {
          "name": "F#1",
          "midi": 30,
          "time": 111.33720930231205,
          "velocity": 0.6692913385826772,
          "duration": 0.3720930232557862
        },
        {
          "name": "F#7",
          "midi": 102,
          "time": 111.37209302324229,
          "velocity": 0.11023622047244094,
          "duration": 0.034883720930224626
        },
        {
          "name": "A#3",
          "midi": 58,
          "time": 111.38372093021903,
          "velocity": 0.4094488188976378,
          "duration": 0.034883720930224626
        },
        {
          "name": "C#4",
          "midi": 61,
          "time": 111.39534883719577,
          "velocity": 0.36220472440944884,
          "duration": 0.13953488372091272
        },
        {
          "name": "G#5",
          "midi": 80,
          "time": 111.430232558126,
          "velocity": 0.16535433070866143,
          "duration": 0.09302325581394655
        },
        {
          "name": "G#6",
          "midi": 92,
          "time": 111.46511627905622,
          "velocity": 0.4566929133858268,
          "duration": 0.36046511627903044
        },
        {
          "name": "A#3",
          "midi": 58,
          "time": 111.52325581393994,
          "velocity": 0.3779527559055118,
          "duration": 0.17441860465115155
        },
        {
          "name": "D5",
          "midi": 74,
          "time": 111.56976744184692,
          "velocity": 0.18110236220472442,
          "duration": 0.034883720930224626
        },
        {
          "name": "F6",
          "midi": 89,
          "time": 111.58139534882366,
          "velocity": 0.3464566929133858,
          "duration": 0.1627906976743958
        },
        {
          "name": "D7",
          "midi": 98,
          "time": 111.58139534882366,
          "velocity": 0.2125984251968504,
          "duration": 0.034883720930224626
        },
        {
          "name": "E7",
          "midi": 100,
          "time": 111.58139534882366,
          "velocity": 0.2125984251968504,
          "duration": 0.034883720930224626
        },
        {
          "name": "F#7",
          "midi": 102,
          "time": 111.58139534882366,
          "velocity": 0.16535433070866143,
          "duration": 0.05813953488370771
        },
        {
          "name": "C#5",
          "midi": 73,
          "time": 111.5930232558004,
          "velocity": 0.28346456692913385,
          "duration": 0.10465116279068809
        },
        {
          "name": "C3",
          "midi": 48,
          "time": 111.68604651161435,
          "velocity": 0.2755905511811024,
          "duration": 0.023255813953483084
        },
        {
          "name": "G#5",
          "midi": 80,
          "time": 111.68604651161435,
          "velocity": 0.3937007874015748,
          "duration": 0.034883720930224626
        },
        {
          "name": "C6",
          "midi": 84,
          "time": 111.68604651161435,
          "velocity": 0.3464566929133858,
          "duration": 0.04651162790696617
        },
        {
          "name": "D#6",
          "midi": 87,
          "time": 111.68604651161435,
          "velocity": 0.2677165354330709,
          "duration": 0.034883720930224626
        },
        {
          "name": "F#6",
          "midi": 90,
          "time": 111.68604651161435,
          "velocity": 0.31496062992125984,
          "duration": 0.023255813953483084
        },
        {
          "name": "G6",
          "midi": 91,
          "time": 111.68604651161435,
          "velocity": 0.3543307086614173,
          "duration": 0.04651162790696617
        },
        {
          "name": "A6",
          "midi": 93,
          "time": 111.68604651161435,
          "velocity": 0.33858267716535434,
          "duration": 0.10465116279067388
        },
        {
          "name": "A#6",
          "midi": 94,
          "time": 111.68604651161435,
          "velocity": 0.31496062992125984,
          "duration": 0.11627906976741542
        },
        {
          "name": "B6",
          "midi": 95,
          "time": 111.68604651161435,
          "velocity": 0.33858267716535434,
          "duration": 0.06976744186044925
        },
        {
          "name": "D#7",
          "midi": 99,
          "time": 111.68604651161435,
          "velocity": 0.31496062992125984,
          "duration": 0.2441860465115866
        },
        {
          "name": "B4",
          "midi": 71,
          "time": 111.69767441859109,
          "velocity": 0.4409448818897638,
          "duration": 0.034883720930224626
        },
        {
          "name": "D#5",
          "midi": 75,
          "time": 111.69767441859109,
          "velocity": 0.3779527559055118,
          "duration": 0.023255813953483084
        },
        {
          "name": "E5",
          "midi": 76,
          "time": 111.69767441859109,
          "velocity": 0.3779527559055118,
          "duration": 0.034883720930224626
        },
        {
          "name": "A#5",
          "midi": 82,
          "time": 111.69767441859109,
          "velocity": 0.3228346456692913,
          "duration": 0.19767441860462043
        },
        {
          "name": "D6",
          "midi": 86,
          "time": 111.69767441859109,
          "velocity": 0.3228346456692913,
          "duration": 0.034883720930224626
        },
        {
          "name": "C7",
          "midi": 96,
          "time": 111.69767441859109,
          "velocity": 0.3543307086614173,
          "duration": 0.10465116279067388
        },
        {
          "name": "G1",
          "midi": 31,
          "time": 111.70930232556783,
          "velocity": 0.5039370078740157,
          "duration": 0.023255813953483084
        },
        {
          "name": "A#3",
          "midi": 58,
          "time": 111.70930232556783,
          "velocity": 0.5511811023622047,
          "duration": 0.5348837209301536
        },
        {
          "name": "C#5",
          "midi": 73,
          "time": 111.70930232556783,
          "velocity": 0.44881889763779526,
          "duration": 0.31395348837205006
        },
        {
          "name": "G5",
          "midi": 79,
          "time": 111.70930232556783,
          "velocity": 0.28346456692913385,
          "duration": 0.023255813953483084
        },
        {
          "name": "F#4",
          "midi": 66,
          "time": 111.72093023254457,
          "velocity": 0.3700787401574803,
          "duration": 0.023255813953483084
        },
        {
          "name": "F#6",
          "midi": 90,
          "time": 111.72093023254457,
          "velocity": 0.33070866141732286,
          "duration": 0.06976744186044925
        },
        {
          "name": "F5",
          "midi": 77,
          "time": 111.73255813952132,
          "velocity": 0.2992125984251969,
          "duration": 0.17441860465113734
        },
        {
          "name": "G#5",
          "midi": 80,
          "time": 111.73255813952132,
          "velocity": 0.48031496062992124,
          "duration": 0.36046511627901623
        },
        {
          "name": "D#6",
          "midi": 87,
          "time": 111.73255813952132,
          "velocity": 0.3228346456692913,
          "duration": 0.05813953488370771
        },
        {
          "name": "E6",
          "midi": 88,
          "time": 111.74418604649806,
          "velocity": 0.31496062992125984,
          "duration": 0.023255813953483084
        },
        {
          "name": "G6",
          "midi": 91,
          "time": 111.74418604649806,
          "velocity": 0.2992125984251969,
          "duration": 0.034883720930224626
        },
        {
          "name": "F#4",
          "midi": 66,
          "time": 111.7558139534748,
          "velocity": 0.5196850393700787,
          "duration": 0.4534883720929628
        },
        {
          "name": "D6",
          "midi": 86,
          "time": 111.7558139534748,
          "velocity": 0.25984251968503935,
          "duration": 0.034883720930224626
        },
        {
          "name": "C#4",
          "midi": 61,
          "time": 111.95348837207942,
          "velocity": 0.1889763779527559,
          "duration": 0.06976744186046346
        },
        {
          "name": "D#7",
          "midi": 99,
          "time": 111.98837209300966,
          "velocity": 0.2204724409448819,
          "duration": 0.11627906976741542
        },
        {
          "name": "F5",
          "midi": 77,
          "time": 112.01162790696314,
          "velocity": 0.4330708661417323,
          "duration": 0.6744186046510379
        },
        {
          "name": "G6",
          "midi": 91,
          "time": 112.01162790696314,
          "velocity": 0.2204724409448819,
          "duration": 0.04651162790696617
        },
        {
          "name": "D5",
          "midi": 74,
          "time": 112.02325581393988,
          "velocity": 0.4566929133858268,
          "duration": 0.023255813953483084
        },
        {
          "name": "B5",
          "midi": 83,
          "time": 112.02325581393988,
          "velocity": 0.25196850393700787,
          "duration": 0.04651162790696617
        },
        {
          "name": "D#6",
          "midi": 87,
          "time": 112.02325581393988,
          "velocity": 0.25196850393700787,
          "duration": 0.034883720930224626
        },
        {
          "name": "C#4",
          "midi": 61,
          "time": 112.03488372091662,
          "velocity": 0.4645669291338583,
          "duration": 0.023255813953483084
        },
        {
          "name": "B4",
          "midi": 71,
          "time": 112.03488372091662,
          "velocity": 0.3779527559055118,
          "duration": 0.034883720930224626
        },
        {
          "name": "A5",
          "midi": 81,
          "time": 112.09302325580033,
          "velocity": 0.3937007874015748,
          "duration": 0.023255813953483084
        },
        {
          "name": "G#5",
          "midi": 80,
          "time": 112.10465116277707,
          "velocity": 0.33070866141732286,
          "duration": 0.13953488372091272
        },
        {
          "name": "A#5",
          "midi": 82,
          "time": 112.11627906975382,
          "velocity": 0.4881889763779528,
          "duration": 0.2441860465116008
        },
        {
          "name": "F7",
          "midi": 101,
          "time": 112.15116279068405,
          "velocity": 0.16535433070866143,
          "duration": 0.034883720930224626
        },
        {
          "name": "C#5",
          "midi": 73,
          "time": 112.17441860463754,
          "velocity": 0.1889763779527559,
          "duration": 0.05813953488370771
        },
        {
          "name": "F7",
          "midi": 101,
          "time": 112.2209302325445,
          "velocity": 0.1968503937007874,
          "duration": 0.13953488372091272
        },
        {
          "name": "G4",
          "midi": 67,
          "time": 112.23255813952125,
          "velocity": 0.31496062992125984,
          "duration": 0.034883720930224626
        },
        {
          "name": "B5",
          "midi": 83,
          "time": 112.23255813952125,
          "velocity": 0.18110236220472442,
          "duration": 0.04651162790696617
        },
        {
          "name": "D6",
          "midi": 86,
          "time": 112.23255813952125,
          "velocity": 0.12598425196850394,
          "duration": 0.04651162790696617
        },
        {
          "name": "A#4",
          "midi": 70,
          "time": 112.24418604649799,
          "velocity": 0.33070866141732286,
          "duration": 0.10465116279068809
        },
        {
          "name": "C#5",
          "midi": 73,
          "time": 112.24418604649799,
          "velocity": 0.3228346456692913,
          "duration": 0.10465116279068809
        },
        {
          "name": "G#5",
          "midi": 80,
          "time": 112.25581395347473,
          "velocity": 0.16535433070866143,
          "duration": 0.06976744186046346
        },
        {
          "name": "A#3",
          "midi": 58,
          "time": 112.26744186045147,
          "velocity": 0.5748031496062992,
          "duration": 0.11627906976742963
        },
        {
          "name": "F#4",
          "midi": 66,
          "time": 112.26744186045147,
          "velocity": 0.1732283464566929,
          "duration": 0.05813953488372192
        },
        {
          "name": "F#3",
          "midi": 54,
          "time": 112.32558139533519,
          "velocity": 0.3700787401574803,
          "duration": 0.023255813953483084
        },
        {
          "name": "D5",
          "midi": 74,
          "time": 112.33720930231193,
          "velocity": 0.36220472440944884,
          "duration": 0.023255813953483084
        },
        {
          "name": "G#5",
          "midi": 80,
          "time": 112.33720930231193,
          "velocity": 0.5118110236220472,
          "duration": 0.45348837209292014
        },
        {
          "name": "D#3",
          "midi": 51,
          "time": 112.34883720928867,
          "velocity": 0.6299212598425197,
          "duration": 0.034883720930224626
        },
        {
          "name": "G#4",
          "midi": 68,
          "time": 112.34883720928867,
          "velocity": 0.4094488188976378,
          "duration": 0.23255813953483084
        },
        {
          "name": "C#6",
          "midi": 85,
          "time": 112.34883720928867,
          "velocity": 0.49606299212598426,
          "duration": 0.7558139534882145
        },
        {
          "name": "E6",
          "midi": 88,
          "time": 112.34883720928867,
          "velocity": 0.1732283464566929,
          "duration": 0.034883720930224626
        },
        {
          "name": "F#6",
          "midi": 90,
          "time": 112.34883720928867,
          "velocity": 0.2283464566929134,
          "duration": 0.19767441860460622
        },
        {
          "name": "A2",
          "midi": 45,
          "time": 112.36046511626542,
          "velocity": 0.6220472440944882,
          "duration": 0.011627906976741542
        },
        {
          "name": "F4",
          "midi": 65,
          "time": 112.36046511626542,
          "velocity": 0.4251968503937008,
          "duration": 0.1627906976743816
        },
        {
          "name": "C5",
          "midi": 72,
          "time": 112.36046511626542,
          "velocity": 0.33858267716535434,
          "duration": 0.023255813953483084
        },
        {
          "name": "D#5",
          "midi": 75,
          "time": 112.36046511626542,
          "velocity": 0.4566929133858268,
          "duration": 0.34883720930224626
        },
        {
          "name": "A6",
          "midi": 93,
          "time": 112.36046511626542,
          "velocity": 0.1732283464566929,
          "duration": 0.0813953488371908
        },
        {
          "name": "A#6",
          "midi": 94,
          "time": 112.36046511626542,
          "velocity": 0.15748031496062992,
          "duration": 0.06976744186044925
        },
        {
          "name": "F2",
          "midi": 41,
          "time": 112.37209302324216,
          "velocity": 0.7007874015748031,
          "duration": 0.011627906976741542
        },
        {
          "name": "G6",
          "midi": 91,
          "time": 112.37209302324216,
          "velocity": 0.13385826771653545,
          "duration": 0.04651162790696617
        },
        {
          "name": "C7",
          "midi": 96,
          "time": 112.37209302324216,
          "velocity": 0.12598425196850394,
          "duration": 0.1627906976743816
        },
        {
          "name": "D2",
          "midi": 38,
          "time": 112.3837209302189,
          "velocity": 0.7244094488188977,
          "duration": 0.011627906976741542
        },
        {
          "name": "C#4",
          "midi": 61,
          "time": 112.3837209302189,
          "velocity": 0.4015748031496063,
          "duration": 0.09302325581393234
        },
        {
          "name": "B4",
          "midi": 71,
          "time": 112.3837209302189,
          "velocity": 0.23622047244094488,
          "duration": 0.023255813953483084
        },
        {
          "name": "C6",
          "midi": 84,
          "time": 112.3837209302189,
          "velocity": 0.29133858267716534,
          "duration": 0.023255813953483084
        },
        {
          "name": "D#7",
          "midi": 99,
          "time": 112.3837209302189,
          "velocity": 0.2125984251968504,
          "duration": 0.15116279069764005
        },
        {
          "name": "C2",
          "midi": 36,
          "time": 112.39534883719564,
          "velocity": 0.7559055118110236,
          "duration": 0.011627906976741542
        },
        {
          "name": "B1",
          "midi": 35,
          "time": 112.40697674417238,
          "velocity": 0.7480314960629921,
          "duration": 0.011627906976741542
        },
        {
          "name": "G#3",
          "midi": 56,
          "time": 112.40697674417238,
          "velocity": 0.44881889763779526,
          "duration": 0.04651162790696617
        },
        {
          "name": "A#1",
          "midi": 34,
          "time": 112.41860465114912,
          "velocity": 0.7244094488188977,
          "duration": 0.011627906976741542
        },
        {
          "name": "E7",
          "midi": 100,
          "time": 112.41860465114912,
          "velocity": 0.09448818897637795,
          "duration": 0.034883720930224626
        },
        {
          "name": "A1",
          "midi": 33,
          "time": 112.43023255812587,
          "velocity": 0.6850393700787402,
          "duration": 0.011627906976741542
        },
        {
          "name": "G#1",
          "midi": 32,
          "time": 112.44186046510261,
          "velocity": 0.6692913385826772,
          "duration": 0.023255813953483084
        },
        {
          "name": "C5",
          "midi": 72,
          "time": 112.44186046510261,
          "velocity": 0.33070866141732286,
          "duration": 0.12790697674415696
        },
        {
          "name": "B6",
          "midi": 95,
          "time": 112.44186046510261,
          "velocity": 0.1732283464566929,
          "duration": 0.09302325581393234
        },
        {
          "name": "G1",
          "midi": 31,
          "time": 112.46511627905609,
          "velocity": 0.7637795275590551,
          "duration": 0.15116279069764005
        },
        {
          "name": "G7",
          "midi": 103,
          "time": 112.46511627905609,
          "velocity": 0.08661417322834646,
          "duration": 0.04651162790696617
        },
        {
          "name": "A#5",
          "midi": 82,
          "time": 112.47674418603283,
          "velocity": 0.11023622047244094,
          "duration": 0.04651162790696617
        },
        {
          "name": "A#6",
          "midi": 94,
          "time": 112.47674418603283,
          "velocity": 0.1889763779527559,
          "duration": 0.11627906976741542
        },
        {
          "name": "G#3",
          "midi": 56,
          "time": 112.48837209300957,
          "velocity": 0.4566929133858268,
          "duration": 0.023255813953483084
        },
        {
          "name": "C#4",
          "midi": 61,
          "time": 112.48837209300957,
          "velocity": 0.3779527559055118,
          "duration": 0.04651162790696617
        },
        {
          "name": "G#3",
          "midi": 56,
          "time": 112.5232558139398,
          "velocity": 0.4330708661417323,
          "duration": 0.023255813953483084
        },
        {
          "name": "C#4",
          "midi": 61,
          "time": 112.54651162789328,
          "velocity": 0.33858267716535434,
          "duration": 0.04651162790696617
        },
        {
          "name": "A#4",
          "midi": 70,
          "time": 112.54651162789328,
          "velocity": 0.1732283464566929,
          "duration": 0.05813953488370771
        },
        {
          "name": "G#3",
          "midi": 56,
          "time": 112.55813953487002,
          "velocity": 0.41732283464566927,
          "duration": 0.034883720930224626
        },
        {
          "name": "D#3",
          "midi": 51,
          "time": 112.56976744184676,
          "velocity": 0.4094488188976378,
          "duration": 0.023255813953483084
        },
        {
          "name": "F#6",
          "midi": 90,
          "time": 112.5813953488235,
          "velocity": 0.07086614173228346,
          "duration": 0.04651162790696617
        },
        {
          "name": "G#3",
          "midi": 56,
          "time": 112.60465116277699,
          "velocity": 0.4094488188976378,
          "duration": 0.05813953488370771
        },
        {
          "name": "G#4",
          "midi": 68,
          "time": 112.60465116277699,
          "velocity": 0.5354330708661418,
          "duration": 0.2790697674418112
        },
        {
          "name": "C#5",
          "midi": 73,
          "time": 112.60465116277699,
          "velocity": 0.30708661417322836,
          "duration": 0.29069767441855277
        },
        {
          "name": "C6",
          "midi": 84,
          "time": 112.60465116277699,
          "velocity": 0.18110236220472442,
          "duration": 0.0813953488371908
        },
        {
          "name": "G#1",
          "midi": 32,
          "time": 112.61627906975373,
          "velocity": 0.7007874015748031,
          "duration": 0.023255813953483084
        },
        {
          "name": "D#4",
          "midi": 63,
          "time": 112.62790697673047,
          "velocity": 0.3700787401574803,
          "duration": 0.034883720930224626
        },
        {
          "name": "A1",
          "midi": 33,
          "time": 112.63953488370721,
          "velocity": 0.6692913385826772,
          "duration": 0.011627906976741542
        },
        {
          "name": "G#1",
          "midi": 32,
          "time": 112.65116279068395,
          "velocity": 0.6850393700787402,
          "duration": 0.360465116279002
        },
        {
          "name": "D#3",
          "midi": 51,
          "time": 112.6627906976607,
          "velocity": 0.4094488188976378,
          "duration": 0.023255813953483084
        },
        {
          "name": "C#4",
          "midi": 61,
          "time": 112.6627906976607,
          "velocity": 0.41732283464566927,
          "duration": 0.09302325581393234
        },
        {
          "name": "G#3",
          "midi": 56,
          "time": 112.67441860463744,
          "velocity": 0.3937007874015748,
          "duration": 0.023255813953483084
        },
        {
          "name": "F#4",
          "midi": 66,
          "time": 112.67441860463744,
          "velocity": 0.31496062992125984,
          "duration": 0.023255813953483084
        },
        {
          "name": "D#3",
          "midi": 51,
          "time": 112.69767441859092,
          "velocity": 0.3779527559055118,
          "duration": 0.3255813953487774
        },
        {
          "name": "F5",
          "midi": 77,
          "time": 112.69767441859092,
          "velocity": 0.2440944881889764,
          "duration": 0.18604651162787889
        },
        {
          "name": "F4",
          "midi": 65,
          "time": 112.70930232556766,
          "velocity": 0.30708661417322836,
          "duration": 0.023255813953483084
        },
        {
          "name": "D#5",
          "midi": 75,
          "time": 112.7209302325444,
          "velocity": 0.2204724409448819,
          "duration": 0.1627906976743958
        },
        {
          "name": "F4",
          "midi": 65,
          "time": 112.75581395347463,
          "velocity": 0.2440944881889764,
          "duration": 0.034883720930224626
        },
        {
          "name": "A#5",
          "midi": 82,
          "time": 112.77906976742811,
          "velocity": 0.11023622047244094,
          "duration": 0.04651162790696617
        },
        {
          "name": "F4",
          "midi": 65,
          "time": 112.81395348835834,
          "velocity": 0.15748031496062992,
          "duration": 0.034883720930224626
        },
        {
          "name": "C#4",
          "midi": 61,
          "time": 112.82558139533508,
          "velocity": 0.2677165354330709,
          "duration": 0.06976744186046346
        },
        {
          "name": "A4",
          "midi": 69,
          "time": 112.8837209302188,
          "velocity": 0.2204724409448819,
          "duration": 0.034883720930224626
        },
        {
          "name": "E5",
          "midi": 76,
          "time": 112.8837209302188,
          "velocity": 0.4015748031496063,
          "duration": 0.023255813953483084
        },
        {
          "name": "F#5",
          "midi": 78,
          "time": 112.8837209302188,
          "velocity": 0.4251968503937008,
          "duration": 0.034883720930224626
        },
        {
          "name": "A5",
          "midi": 81,
          "time": 112.8837209302188,
          "velocity": 0.4251968503937008,
          "duration": 0.023255813953483084
        },
        {
          "name": "B5",
          "midi": 83,
          "time": 112.8837209302188,
          "velocity": 0.2992125984251969,
          "duration": 0.023255813953483084
        },
        {
          "name": "D6",
          "midi": 86,
          "time": 112.8837209302188,
          "velocity": 0.2283464566929134,
          "duration": 0.034883720930224626
        },
        {
          "name": "F6",
          "midi": 89,
          "time": 112.8837209302188,
          "velocity": 0.1968503937007874,
          "duration": 0.09302325581393234
        },
        {
          "name": "G6",
          "midi": 91,
          "time": 112.8837209302188,
          "velocity": 0.16535433070866143,
          "duration": 0.034883720930224626
        },
        {
          "name": "G#6",
          "midi": 92,
          "time": 112.8837209302188,
          "velocity": 0.12598425196850394,
          "duration": 0.04651162790696617
        },
        {
          "name": "C7",
          "midi": 96,
          "time": 112.8837209302188,
          "velocity": 0.16535433070866143,
          "duration": 0.034883720930224626
        },
        {
          "name": "F4",
          "midi": 65,
          "time": 112.90697674417228,
          "velocity": 0.25984251968503935,
          "duration": 0.034883720930224626
        },
        {
          "name": "C#5",
          "midi": 73,
          "time": 112.90697674417228,
          "velocity": 0.23622047244094488,
          "duration": 0.09302325581393234
        },
        {
          "name": "D#5",
          "midi": 75,
          "time": 112.90697674417228,
          "velocity": 0.3937007874015748,
          "duration": 0.09302325581393234
        },
        {
          "name": "F5",
          "midi": 77,
          "time": 112.90697674417228,
          "velocity": 0.4566929133858268,
          "duration": 0.09302325581393234
        },
        {
          "name": "G#5",
          "midi": 80,
          "time": 112.90697674417228,
          "velocity": 0.44881889763779526,
          "duration": 0.11627906976741542
        },
        {
          "name": "A#5",
          "midi": 82,
          "time": 112.90697674417228,
          "velocity": 0.2755905511811024,
          "duration": 0.023255813953483084
        },
        {
          "name": "C6",
          "midi": 84,
          "time": 112.90697674417228,
          "velocity": 0.2283464566929134,
          "duration": 0.09302325581393234
        },
        {
          "name": "G#3",
          "midi": 56,
          "time": 112.91860465114902,
          "velocity": 0.25196850393700787,
          "duration": 0.023255813953483084
        },
        {
          "name": "G#4",
          "midi": 68,
          "time": 112.91860465114902,
          "velocity": 0.5275590551181102,
          "duration": 0.7325581395347882
        },
        {
          "name": "C#4",
          "midi": 61,
          "time": 112.93023255812577,
          "velocity": 0.2677165354330709,
          "duration": 0.06976744186044925
        },
        {
          "name": "G#3",
          "midi": 56,
          "time": 112.95348837207925,
          "velocity": 0.25196850393700787,
          "duration": 0.04651162790696617
        },
        {
          "name": "A#5",
          "midi": 82,
          "time": 112.98837209300947,
          "velocity": 0.2755905511811024,
          "duration": 0.06976744186044925
        },
        {
          "name": "B5",
          "midi": 83,
          "time": 112.98837209300947,
          "velocity": 0.3228346456692913,
          "duration": 0.034883720930224626
        },
        {
          "name": "G6",
          "midi": 91,
          "time": 112.98837209300947,
          "velocity": 0.3700787401574803,
          "duration": 0.09302325581393234
        },
        {
          "name": "D5",
          "midi": 74,
          "time": 112.99999999998622,
          "velocity": 0.29133858267716534,
          "duration": 0.034883720930224626
        },
        {
          "name": "E5",
          "midi": 76,
          "time": 112.99999999998622,
          "velocity": 0.29133858267716534,
          "duration": 0.034883720930224626
        },
        {
          "name": "D#6",
          "midi": 87,
          "time": 112.99999999998622,
          "velocity": 0.5118110236220472,
          "duration": 1.383720930232343
        },
        {
          "name": "F#6",
          "midi": 90,
          "time": 112.99999999998622,
          "velocity": 0.28346456692913385,
          "duration": 0.10465116279067388
        },
        {
          "name": "D7",
          "midi": 98,
          "time": 112.99999999998622,
          "velocity": 0.30708661417322836,
          "duration": 0.04651162790696617
        },
        {
          "name": "F7",
          "midi": 101,
          "time": 112.99999999998622,
          "velocity": 0.2440944881889764,
          "duration": 0.10465116279067388
        },
        {
          "name": "A#1",
          "midi": 34,
          "time": 113.01162790696296,
          "velocity": 0.5905511811023622,
          "duration": 0.011627906976741542
        },
        {
          "name": "C#4",
          "midi": 61,
          "time": 113.01162790696296,
          "velocity": 0.4330708661417323,
          "duration": 0.0813953488371908
        },
        {
          "name": "G5",
          "midi": 79,
          "time": 113.01162790696296,
          "velocity": 0.3228346456692913,
          "duration": 0.04651162790696617
        },
        {
          "name": "A5",
          "midi": 81,
          "time": 113.01162790696296,
          "velocity": 0.1889763779527559,
          "duration": 0.034883720930224626
        },
        {
          "name": "E7",
          "midi": 100,
          "time": 113.01162790696296,
          "velocity": 0.2677165354330709,
          "duration": 0.10465116279067388
        },
        {
          "name": "F4",
          "midi": 65,
          "time": 113.0232558139397,
          "velocity": 0.5039370078740157,
          "duration": 0.5232558139534262
        },
        {
          "name": "F6",
          "midi": 89,
          "time": 113.0232558139397,
          "velocity": 0.2047244094488189,
          "duration": 0.0813953488371908
        },
        {
          "name": "A6",
          "midi": 93,
          "time": 113.0232558139397,
          "velocity": 0.36220472440944884,
          "duration": 0.05813953488370771
        },
        {
          "name": "D#5",
          "midi": 75,
          "time": 113.03488372091644,
          "velocity": 0.25984251968503935,
          "duration": 0.023255813953483084
        },
        {
          "name": "C6",
          "midi": 84,
          "time": 113.03488372091644,
          "velocity": 0.3937007874015748,
          "duration": 0.023255813953483084
        },
        {
          "name": "E6",
          "midi": 88,
          "time": 113.03488372091644,
          "velocity": 0.29133858267716534,
          "duration": 0.034883720930224626
        },
        {
          "name": "B5",
          "midi": 83,
          "time": 113.04651162789318,
          "velocity": 0.15748031496062992,
          "duration": 0.034883720930224626
        },
        {
          "name": "D7",
          "midi": 98,
          "time": 113.05813953486992,
          "velocity": 0.16535433070866143,
          "duration": 0.04651162790696617
        },
        {
          "name": "G#3",
          "midi": 56,
          "time": 113.09302325580015,
          "velocity": 0.11811023622047244,
          "duration": 0.1046511627907023
        },
        {
          "name": "D#5",
          "midi": 75,
          "time": 113.09302325580015,
          "velocity": 0.33858267716535434,
          "duration": 0.23255813953487348
        },
        {
          "name": "C#4",
          "midi": 61,
          "time": 113.11627906975363,
          "velocity": 0.2440944881889764,
          "duration": 0.1046511627907023
        },
        {
          "name": "C#5",
          "midi": 73,
          "time": 113.16279069766061,
          "velocity": 0.25196850393700787,
          "duration": 0.1860465116278931
        },
        {
          "name": "G#3",
          "midi": 56,
          "time": 113.20930232556759,
          "velocity": 0.36220472440944884,
          "duration": 0.023255813953483084
        },
        {
          "name": "G6",
          "midi": 91,
          "time": 113.20930232556759,
          "velocity": 0.1732283464566929,
          "duration": 0.034883720930224626
        },
        {
          "name": "C6",
          "midi": 84,
          "time": 113.22093023254433,
          "velocity": 0.2125984251968504,
          "duration": 0.06976744186046346
        },
        {
          "name": "G#3",
          "midi": 56,
          "time": 113.24418604649782,
          "velocity": 0.3858267716535433,
          "duration": 0.03488372093023884
        },
        {
          "name": "G#3",
          "midi": 56,
          "time": 113.2906976744048,
          "velocity": 0.4094488188976378,
          "duration": 0.05813953488370771
        },
        {
          "name": "C#4",
          "midi": 61,
          "time": 113.2906976744048,
          "velocity": 0.14960629921259844,
          "duration": 0.034883720930224626
        },
        {
          "name": "D6",
          "midi": 86,
          "time": 113.31395348835828,
          "velocity": 0.36220472440944884,
          "duration": 0.04651162790696617
        },
        {
          "name": "C6",
          "midi": 84,
          "time": 113.32558139533502,
          "velocity": 0.33858267716535434,
          "duration": 0.10465116279067388
        },
        {
          "name": "F6",
          "midi": 89,
          "time": 113.32558139533502,
          "velocity": 0.48031496062992124,
          "duration": 0.41860465116272394
        },
        {
          "name": "G6",
          "midi": 91,
          "time": 113.32558139533502,
          "velocity": 0.2755905511811024,
          "duration": 0.034883720930224626
        },
        {
          "name": "C#4",
          "midi": 61,
          "time": 113.33720930231176,
          "velocity": 0.5433070866141733,
          "duration": 0.3023255813953085
        },
        {
          "name": "B4",
          "midi": 71,
          "time": 113.33720930231176,
          "velocity": 0.25984251968503935,
          "duration": 0.023255813953483084
        },
        {
          "name": "D5",
          "midi": 74,
          "time": 113.33720930231176,
          "velocity": 0.25196850393700787,
          "duration": 0.023255813953483084
        },
        {
          "name": "A5",
          "midi": 81,
          "time": 113.33720930231176,
          "velocity": 0.2204724409448819,
          "duration": 0.034883720930224626
        },
        {
          "name": "F#6",
          "midi": 90,
          "time": 113.33720930231176,
          "velocity": 0.15748031496062992,
          "duration": 0.04651162790696617
        },
        {
          "name": "D#5",
          "midi": 75,
          "time": 113.3488372092885,
          "velocity": 0.41732283464566927,
          "duration": 0.19767441860462043
        },
        {
          "name": "C#6",
          "midi": 85,
          "time": 113.3488372092885,
          "velocity": 0.29133858267716534,
          "duration": 0.023255813953483084
        },
        {
          "name": "G#3",
          "midi": 56,
          "time": 113.36046511626525,
          "velocity": 0.25196850393700787,
          "duration": 0.023255813953483084
        },
        {
          "name": "D6",
          "midi": 86,
          "time": 113.37209302324199,
          "velocity": 0.11811023622047244,
          "duration": 0.034883720930224626
        },
        {
          "name": "G#3",
          "midi": 56,
          "time": 113.39534883719547,
          "velocity": 0.1889763779527559,
          "duration": 0.25581395348834235
        },
        {
          "name": "C6",
          "midi": 84,
          "time": 113.45348837207918,
          "velocity": 0.3228346456692913,
          "duration": 0.5116279069766563
        },
        {
          "name": "A5",
          "midi": 81,
          "time": 113.53488372091638,
          "velocity": 0.2125984251968504,
          "duration": 0.04651162790696617
        },
        {
          "name": "F4",
          "midi": 65,
          "time": 113.55813953486987,
          "velocity": 0.4409448818897638,
          "duration": 0.09302325581394655
        },
        {
          "name": "D#3",
          "midi": 51,
          "time": 113.65116279068381,
          "velocity": 0.5748031496062992,
          "duration": 0.011627906976741542
        },
        {
          "name": "F#4",
          "midi": 66,
          "time": 113.65116279068381,
          "velocity": 0.3464566929133858,
          "duration": 0.034883720930224626
        },
        {
          "name": "B4",
          "midi": 71,
          "time": 113.65116279068381,
          "velocity": 0.25984251968503935,
          "duration": 0.034883720930224626
        },
        {
          "name": "D5",
          "midi": 74,
          "time": 113.65116279068381,
          "velocity": 0.25196850393700787,
          "duration": 0.023255813953483084
        },
        {
          "name": "C#6",
          "midi": 85,
          "time": 113.65116279068381,
          "velocity": 0.1889763779527559,
          "duration": 0.04651162790696617
        },
        {
          "name": "F#6",
          "midi": 90,
          "time": 113.65116279068381,
          "velocity": 0.2125984251968504,
          "duration": 0.12790697674415696
        },
        {
          "name": "C3",
          "midi": 48,
          "time": 113.66279069766055,
          "velocity": 0.6850393700787402,
          "duration": 0.011627906976741542
        },
        {
          "name": "E6",
          "midi": 88,
          "time": 113.66279069766055,
          "velocity": 0.1889763779527559,
          "duration": 0.06976744186044925
        },
        {
          "name": "G6",
          "midi": 91,
          "time": 113.66279069766055,
          "velocity": 0.23622047244094488,
          "duration": 0.26744186046505547
        },
        {
          "name": "F2",
          "midi": 41,
          "time": 113.6744186046373,
          "velocity": 0.6850393700787402,
          "duration": 0.011627906976741542
        },
        {
          "name": "G#3",
          "midi": 56,
          "time": 113.6744186046373,
          "velocity": 0.4015748031496063,
          "duration": 0.034883720930224626
        },
        {
          "name": "D2",
          "midi": 38,
          "time": 113.68604651161404,
          "velocity": 0.7086614173228346,
          "duration": 0.011627906976741542
        },
        {
          "name": "C4",
          "midi": 60,
          "time": 113.68604651161404,
          "velocity": 0.3543307086614173,
          "duration": 0.034883720930224626
        },
        {
          "name": "F4",
          "midi": 65,
          "time": 113.68604651161404,
          "velocity": 0.23622047244094488,
          "duration": 0.023255813953483084
        },
        {
          "name": "A#4",
          "midi": 70,
          "time": 113.68604651161404,
          "velocity": 0.2125984251968504,
          "duration": 0.034883720930224626
        },
        {
          "name": "D#5",
          "midi": 75,
          "time": 113.68604651161404,
          "velocity": 0.3858267716535433,
          "duration": 0.5116279069766563
        },
        {
          "name": "A#6",
          "midi": 94,
          "time": 113.68604651161404,
          "velocity": 0.2125984251968504,
          "duration": 0.1627906976743816
        },
        {
          "name": "D7",
          "midi": 98,
          "time": 113.68604651161404,
          "velocity": 0.13385826771653545,
          "duration": 0.05813953488370771
        },
        {
          "name": "C2",
          "midi": 36,
          "time": 113.69767441859078,
          "velocity": 0.7401574803149606,
          "duration": 0.011627906976741542
        },
        {
          "name": "G5",
          "midi": 79,
          "time": 113.69767441859078,
          "velocity": 0.16535433070866143,
          "duration": 0.05813953488370771
        },
        {
          "name": "B6",
          "midi": 95,
          "time": 113.69767441859078,
          "velocity": 0.10236220472440945,
          "duration": 0.04651162790696617
        },
        {
          "name": "B1",
          "midi": 35,
          "time": 113.70930232556752,
          "velocity": 0.7480314960629921,
          "duration": 0.011627906976741542
        },
        {
          "name": "D#3",
          "midi": 51,
          "time": 113.70930232556752,
          "velocity": 0.41732283464566927,
          "duration": 0.1627906976743816
        },
        {
          "name": "A#1",
          "midi": 34,
          "time": 113.72093023254426,
          "velocity": 0.7322834645669292,
          "duration": 0.011627906976741542
        },
        {
          "name": "G#3",
          "midi": 56,
          "time": 113.72093023254426,
          "velocity": 0.33070866141732286,
          "duration": 0.023255813953483084
        },
        {
          "name": "A1",
          "midi": 33,
          "time": 113.732558139521,
          "velocity": 0.6929133858267716,
          "duration": 0.023255813953483084
        },
        {
          "name": "C4",
          "midi": 60,
          "time": 113.732558139521,
          "velocity": 0.41732283464566927,
          "duration": 0.1395348837208985
        },
        {
          "name": "A#5",
          "midi": 82,
          "time": 113.732558139521,
          "velocity": 0.29133858267716534,
          "duration": 0.1395348837208985
        },
        {
          "name": "C#7",
          "midi": 97,
          "time": 113.74418604649775,
          "velocity": 0.14960629921259844,
          "duration": 0.06976744186044925
        },
        {
          "name": "F7",
          "midi": 101,
          "time": 113.74418604649775,
          "velocity": 0.1968503937007874,
          "duration": 0.05813953488370771
        },
        {
          "name": "G#1",
          "midi": 32,
          "time": 113.75581395347449,
          "velocity": 0.6377952755905512,
          "duration": 0.023255813953483084
        },
        {
          "name": "B6",
          "midi": 95,
          "time": 113.75581395347449,
          "velocity": 0.10236220472440945,
          "duration": 0.06976744186044925
        },
        {
          "name": "C#6",
          "midi": 85,
          "time": 113.76744186045123,
          "velocity": 0.1889763779527559,
          "duration": 0.17441860465112313
        },
        {
          "name": "G1",
          "midi": 31,
          "time": 113.77906976742797,
          "velocity": 0.5984251968503937,
          "duration": 0.011627906976741542
        },
        {
          "name": "G#3",
          "midi": 56,
          "time": 113.77906976742797,
          "velocity": 0.31496062992125984,
          "duration": 0.023255813953483084
        },
        {
          "name": "F#1",
          "midi": 30,
          "time": 113.79069767440471,
          "velocity": 0.6141732283464567,
          "duration": 0.011627906976741542
        },
        {
          "name": "G#2",
          "midi": 44,
          "time": 113.79069767440471,
          "velocity": 0.2992125984251969,
          "duration": 0.023255813953483084
        },
        {
          "name": "G1",
          "midi": 31,
          "time": 113.80232558138145,
          "velocity": 0.7559055118110236,
          "duration": 0.11627906976741542
        },
        {
          "name": "G#3",
          "midi": 56,
          "time": 113.8139534883582,
          "velocity": 0.33858267716535434,
          "duration": 0.0813953488371908
        },
        {
          "name": "F#6",
          "midi": 90,
          "time": 113.8139534883582,
          "velocity": 0.08661417322834646,
          "duration": 0.034883720930224626
        },
        {
          "name": "E6",
          "midi": 88,
          "time": 113.82558139533494,
          "velocity": 0.1732283464566929,
          "duration": 0.034883720930224626
        },
        {
          "name": "D6",
          "midi": 86,
          "time": 113.83720930231168,
          "velocity": 0.13385826771653545,
          "duration": 0.034883720930224626
        },
        {
          "name": "A#4",
          "midi": 70,
          "time": 113.8720930232419,
          "velocity": 0.3937007874015748,
          "duration": 0.18604651162786467
        },
        {
          "name": "G5",
          "midi": 79,
          "time": 113.8720930232419,
          "velocity": 0.3937007874015748,
          "duration": 0.11627906976741542
        },
        {
          "name": "B5",
          "midi": 83,
          "time": 113.8720930232419,
          "velocity": 0.1732283464566929,
          "duration": 0.05813953488370771
        },
        {
          "name": "D#3",
          "midi": 51,
          "time": 113.88372093021864,
          "velocity": 0.44881889763779526,
          "duration": 0.2441860465115866
        },
        {
          "name": "F#4",
          "midi": 66,
          "time": 113.88372093021864,
          "velocity": 0.2125984251968504,
          "duration": 0.034883720930224626
        },
        {
          "name": "G#5",
          "midi": 80,
          "time": 113.88372093021864,
          "velocity": 0.3700787401574803,
          "duration": 0.0813953488371908
        },
        {
          "name": "C4",
          "midi": 60,
          "time": 113.89534883719539,
          "velocity": 0.48031496062992124,
          "duration": 0.09302325581393234
        },
        {
          "name": "A5",
          "midi": 81,
          "time": 113.90697674417213,
          "velocity": 0.1968503937007874,
          "duration": 0.034883720930224626
        },
        {
          "name": "G#1",
          "midi": 32,
          "time": 113.91860465114887,
          "velocity": 0.7165354330708661,
          "duration": 0.023255813953483084
        },
        {
          "name": "G#4",
          "midi": 68,
          "time": 113.93023255812561,
          "velocity": 0.25984251968503935,
          "duration": 0.04651162790696617
        },
        {
          "name": "A1",
          "midi": 33,
          "time": 113.94186046510235,
          "velocity": 0.6771653543307087,
          "duration": 0.023255813953483084
        },
        {
          "name": "G#3",
          "midi": 56,
          "time": 113.94186046510235,
          "velocity": 0.3700787401574803,
          "duration": 0.04651162790696617
        },
        {
          "name": "G#1",
          "midi": 32,
          "time": 113.96511627905583,
          "velocity": 0.6850393700787402,
          "duration": 0.3488372093022747
        },
        {
          "name": "D#4",
          "midi": 63,
          "time": 113.97674418603258,
          "velocity": 0.48031496062992124,
          "duration": 0.2674418604650839
        },
        {
          "name": "G#5",
          "midi": 80,
          "time": 113.97674418603258,
          "velocity": 0.2283464566929134,
          "duration": 0.06976744186044925
        },
        {
          "name": "C#6",
          "midi": 85,
          "time": 113.97674418603258,
          "velocity": 0.4330708661417323,
          "duration": 0.3023255813953085
        },
        {
          "name": "G#4",
          "midi": 68,
          "time": 113.98837209300932,
          "velocity": 0.49606299212598426,
          "duration": 0.20930232558137618
        },
        {
          "name": "G6",
          "midi": 91,
          "time": 113.98837209300932,
          "velocity": 0.12598425196850394,
          "duration": 0.034883720930224626
        },
        {
          "name": "G#3",
          "midi": 56,
          "time": 114.0116279069628,
          "velocity": 0.3228346456692913,
          "duration": 0.023255813953483084
        },
        {
          "name": "G5",
          "midi": 79,
          "time": 114.0116279069628,
          "velocity": 0.13385826771653545,
          "duration": 0.05813953488370771
        },
        {
          "name": "C4",
          "midi": 60,
          "time": 114.02325581393954,
          "velocity": 0.33858267716535434,
          "duration": 0.023255813953483084
        },
        {
          "name": "F5",
          "midi": 77,
          "time": 114.03488372091628,
          "velocity": 0.07086614173228346,
          "duration": 0.04651162790696617
        },
        {
          "name": "G#3",
          "midi": 56,
          "time": 114.04651162789303,
          "velocity": 0.2992125984251969,
          "duration": 0.081395348837205
        },
        {
          "name": "A#4",
          "midi": 70,
          "time": 114.09302325579999,
          "velocity": 0.30708661417322836,
          "duration": 0.13953488372092693
        },
        {
          "name": "D#3",
          "midi": 51,
          "time": 114.13953488370697,
          "velocity": 0.3228346456692913,
          "duration": 0.04651162790698038
        },
        {
          "name": "C4",
          "midi": 60,
          "time": 114.17441860463721,
          "velocity": 0.3779527559055118,
          "duration": 0.3488372093022605
        },
        {
          "name": "D#3",
          "midi": 51,
          "time": 114.1976744185907,
          "velocity": 0.28346456692913385,
          "duration": 0.04651162790696617
        },
        {
          "name": "G5",
          "midi": 79,
          "time": 114.1976744185907,
          "velocity": 0.2204724409448819,
          "duration": 0.034883720930224626
        },
        {
          "name": "C6",
          "midi": 84,
          "time": 114.1976744185907,
          "velocity": 0.2992125984251969,
          "duration": 0.04651162790696617
        },
        {
          "name": "F6",
          "midi": 89,
          "time": 114.1976744185907,
          "velocity": 0.2440944881889764,
          "duration": 0.04651162790696617
        },
        {
          "name": "B6",
          "midi": 95,
          "time": 114.1976744185907,
          "velocity": 0.1968503937007874,
          "duration": 0.09302325581393234
        },
        {
          "name": "D7",
          "midi": 98,
          "time": 114.1976744185907,
          "velocity": 0.18110236220472442,
          "duration": 0.09302325581393234
        },
        {
          "name": "F#7",
          "midi": 102,
          "time": 114.1976744185907,
          "velocity": 0.33858267716535434,
          "duration": 0.2209302325580893
        },
        {
          "name": "G7",
          "midi": 103,
          "time": 114.1976744185907,
          "velocity": 0.2204724409448819,
          "duration": 0.09302325581393234
        },
        {
          "name": "F#6",
          "midi": 90,
          "time": 114.20930232556744,
          "velocity": 0.3228346456692913,
          "duration": 0.09302325581393234
        },
        {
          "name": "G6",
          "midi": 91,
          "time": 114.20930232556744,
          "velocity": 0.2440944881889764,
          "duration": 0.04651162790696617
        },
        {
          "name": "G#6",
          "midi": 92,
          "time": 114.20930232556744,
          "velocity": 0.2992125984251969,
          "duration": 0.0813953488371908
        },
        {
          "name": "A6",
          "midi": 93,
          "time": 114.20930232556744,
          "velocity": 0.36220472440944884,
          "duration": 0.10465116279067388
        },
        {
          "name": "E7",
          "midi": 100,
          "time": 114.20930232556744,
          "velocity": 0.2283464566929134,
          "duration": 0.06976744186044925
        },
        {
          "name": "G#4",
          "midi": 68,
          "time": 114.22093023254418,
          "velocity": 0.5196850393700787,
          "duration": 0.10465116279067388
        },
        {
          "name": "E6",
          "midi": 88,
          "time": 114.22093023254418,
          "velocity": 0.25196850393700787,
          "duration": 0.05813953488370771
        },
        {
          "name": "G#3",
          "midi": 56,
          "time": 114.24418604649766,
          "velocity": 0.11811023622047244,
          "duration": 0.04651162790696617
        },
        {
          "name": "D#5",
          "midi": 75,
          "time": 114.24418604649766,
          "velocity": 0.12598425196850394,
          "duration": 0.034883720930224626
        },
        {
          "name": "B5",
          "midi": 83,
          "time": 114.24418604649766,
          "velocity": 0.1968503937007874,
          "duration": 0.034883720930224626
        },
        {
          "name": "D#3",
          "midi": 51,
          "time": 114.2558139534744,
          "velocity": 0.3464566929133858,
          "duration": 0.05813953488370771
        },
        {
          "name": "A#4",
          "midi": 70,
          "time": 114.26744186045114,
          "velocity": 0.29133858267716534,
          "duration": 0.04651162790696617
        },
        {
          "name": "F6",
          "midi": 89,
          "time": 114.26744186045114,
          "velocity": 0.14173228346456693,
          "duration": 0.034883720930224626
        },
        {
          "name": "A#6",
          "midi": 94,
          "time": 114.26744186045114,
          "velocity": 0.30708661417322836,
          "duration": 0.1395348837208985
        },
        {
          "name": "G5",
          "midi": 79,
          "time": 114.27906976742788,
          "velocity": 0.25196850393700787,
          "duration": 0.034883720930224626
        },
        {
          "name": "G6",
          "midi": 91,
          "time": 114.27906976742788,
          "velocity": 0.33070866141732286,
          "duration": 0.034883720930224626
        },
        {
          "name": "C#5",
          "midi": 73,
          "time": 114.29069767440463,
          "velocity": 0.3464566929133858,
          "duration": 0.0813953488371908
        },
        {
          "name": "A5",
          "midi": 81,
          "time": 114.29069767440463,
          "velocity": 0.3779527559055118,
          "duration": 0.034883720930224626
        },
        {
          "name": "B5",
          "midi": 83,
          "time": 114.29069767440463,
          "velocity": 0.3228346456692913,
          "duration": 0.034883720930224626
        },
        {
          "name": "C7",
          "midi": 96,
          "time": 114.29069767440463,
          "velocity": 0.33070866141732286,
          "duration": 0.11627906976741542
        },
        {
          "name": "E5",
          "midi": 76,
          "time": 114.30232558138137,
          "velocity": 0.48031496062992124,
          "duration": 0.023255813953483084
        },
        {
          "name": "A#5",
          "midi": 82,
          "time": 114.30232558138137,
          "velocity": 0.4881889763779528,
          "duration": 0.39534883720922664
        },
        {
          "name": "C#7",
          "midi": 97,
          "time": 114.30232558138137,
          "velocity": 0.3464566929133858,
          "duration": 0.09302325581393234
        },
        {
          "name": "D7",
          "midi": 98,
          "time": 114.30232558138137,
          "velocity": 0.2283464566929134,
          "duration": 0.04651162790696617
        },
        {
          "name": "F7",
          "midi": 101,
          "time": 114.30232558138137,
          "velocity": 0.29133858267716534,
          "duration": 0.09302325581393234
        },
        {
          "name": "A1",
          "midi": 33,
          "time": 114.31395348835811,
          "velocity": 0.5748031496062992,
          "duration": 0.011627906976741542
        },
        {
          "name": "C6",
          "midi": 84,
          "time": 114.31395348835811,
          "velocity": 0.4330708661417323,
          "duration": 0.04651162790696617
        },
        {
          "name": "F6",
          "midi": 89,
          "time": 114.31395348835811,
          "velocity": 0.3464566929133858,
          "duration": 0.06976744186044925
        },
        {
          "name": "A#1",
          "midi": 34,
          "time": 114.32558139533485,
          "velocity": 0.5118110236220472,
          "duration": 0.011627906976741542
        },
        {
          "name": "A#4",
          "midi": 70,
          "time": 114.32558139533485,
          "velocity": 0.3228346456692913,
          "duration": 0.034883720930224626
        },
        {
          "name": "D#5",
          "midi": 75,
          "time": 114.32558139533485,
          "velocity": 0.5275590551181102,
          "duration": 0.3023255813952943
        },
        {
          "name": "G5",
          "midi": 79,
          "time": 114.32558139533485,
          "velocity": 0.44881889763779526,
          "duration": 0.023255813953483084
        },
        {
          "name": "G#4",
          "midi": 68,
          "time": 114.33720930231159,
          "velocity": 0.3779527559055118,
          "duration": 0.29069767441855277
        },
        {
          "name": "F5",
          "midi": 77,
          "time": 114.34883720928833,
          "velocity": 0.2677165354330709,
          "duration": 0.034883720930224626
        },
        {
          "name": "D6",
          "midi": 86,
          "time": 114.34883720928833,
          "velocity": 0.2440944881889764,
          "duration": 0.034883720930224626
        },
        {
          "name": "A6",
          "midi": 93,
          "time": 114.34883720928833,
          "velocity": 0.31496062992125984,
          "duration": 0.05813953488370771
        },
        {
          "name": "G7",
          "midi": 103,
          "time": 114.34883720928833,
          "velocity": 0.31496062992125984,
          "duration": 0.05813953488370771
        },
        {
          "name": "F#6",
          "midi": 90,
          "time": 114.36046511626508,
          "velocity": 0.1968503937007874,
          "duration": 0.05813953488370771
        },
        {
          "name": "D#4",
          "midi": 63,
          "time": 114.37209302324182,
          "velocity": 0.4645669291338583,
          "duration": 0.25581395348832814
        },
        {
          "name": "A#4",
          "midi": 70,
          "time": 114.38372093021856,
          "velocity": 0.25984251968503935,
          "duration": 0.11627906976742963
        },
        {
          "name": "G5",
          "midi": 79,
          "time": 114.38372093021856,
          "velocity": 0.1732283464566929,
          "duration": 0.09302325581394655
        },
        {
          "name": "D#3",
          "midi": 51,
          "time": 114.40697674417204,
          "velocity": 0.08661417322834646,
          "duration": 0.04651162790698038
        },
        {
          "name": "G#3",
          "midi": 56,
          "time": 114.40697674417204,
          "velocity": 0.2283464566929134,
          "duration": 0.05813953488372192
        },
        {
          "name": "F7",
          "midi": 101,
          "time": 114.49999999998599,
          "velocity": 0.2440944881889764,
          "duration": 0.2209302325580893
        },
        {
          "name": "A#4",
          "midi": 70,
          "time": 114.51162790696273,
          "velocity": 0.2125984251968504,
          "duration": 0.06976744186044925
        },
        {
          "name": "G6",
          "midi": 91,
          "time": 114.52325581393947,
          "velocity": 0.1968503937007874,
          "duration": 0.034883720930224626
        },
        {
          "name": "A6",
          "midi": 93,
          "time": 114.52325581393947,
          "velocity": 0.14960629921259844,
          "duration": 0.06976744186044925
        },
        {
          "name": "D7",
          "midi": 98,
          "time": 114.52325581393947,
          "velocity": 0.1889763779527559,
          "duration": 0.034883720930224626
        },
        {
          "name": "C#6",
          "midi": 85,
          "time": 114.53488372091621,
          "velocity": 0.07874015748031496,
          "duration": 0.04651162790696617
        },
        {
          "name": "G#6",
          "midi": 92,
          "time": 114.53488372091621,
          "velocity": 0.14960629921259844,
          "duration": 0.06976744186044925
        },
        {
          "name": "C7",
          "midi": 96,
          "time": 114.5581395348697,
          "velocity": 0.15748031496062992,
          "duration": 0.034883720930224626
        },
        {
          "name": "G5",
          "midi": 79,
          "time": 114.6162790697534,
          "velocity": 0.2992125984251969,
          "duration": 0.10465116279067388
        },
        {
          "name": "C6",
          "midi": 84,
          "time": 114.6162790697534,
          "velocity": 0.31496062992125984,
          "duration": 0.11627906976741542
        },
        {
          "name": "F6",
          "midi": 89,
          "time": 114.6162790697534,
          "velocity": 0.30708661417322836,
          "duration": 0.1395348837208985
        },
        {
          "name": "A6",
          "midi": 93,
          "time": 114.6162790697534,
          "velocity": 0.23622047244094488,
          "duration": 0.12790697674415696
        },
        {
          "name": "D7",
          "midi": 98,
          "time": 114.6162790697534,
          "velocity": 0.2125984251968504,
          "duration": 0.10465116279067388
        },
        {
          "name": "E4",
          "midi": 64,
          "time": 114.62790697673015,
          "velocity": 0.4251968503937008,
          "duration": 0.034883720930224626
        },
        {
          "name": "D6",
          "midi": 86,
          "time": 114.62790697673015,
          "velocity": 0.2677165354330709,
          "duration": 0.06976744186044925
        },
        {
          "name": "E6",
          "midi": 88,
          "time": 114.62790697673015,
          "velocity": 0.30708661417322836,
          "duration": 0.09302325581393234
        },
        {
          "name": "F#6",
          "midi": 90,
          "time": 114.62790697673015,
          "velocity": 0.2283464566929134,
          "duration": 0.034883720930224626
        },
        {
          "name": "G7",
          "midi": 103,
          "time": 114.62790697673015,
          "velocity": 0.1732283464566929,
          "duration": 0.09302325581393234
        },
        {
          "name": "C4",
          "midi": 60,
          "time": 114.63953488370689,
          "velocity": 0.5275590551181102,
          "duration": 0.2209302325581035
        },
        {
          "name": "F5",
          "midi": 77,
          "time": 114.63953488370689,
          "velocity": 0.28346456692913385,
          "duration": 0.023255813953483084
        },
        {
          "name": "C#6",
          "midi": 85,
          "time": 114.63953488370689,
          "velocity": 0.4094488188976378,
          "duration": 0.360465116279002
        },
        {
          "name": "G#6",
          "midi": 92,
          "time": 114.63953488370689,
          "velocity": 0.25196850393700787,
          "duration": 0.09302325581393234
        },
        {
          "name": "D#7",
          "midi": 99,
          "time": 114.63953488370689,
          "velocity": 0.2047244094488189,
          "duration": 0.09302325581393234
        },
        {
          "name": "G#4",
          "midi": 68,
          "time": 114.65116279068363,
          "velocity": 0.5433070866141733,
          "duration": 0.3023255813952943
        },
        {
          "name": "A#4",
          "midi": 70,
          "time": 114.65116279068363,
          "velocity": 0.4330708661417323,
          "duration": 0.023255813953483084
        },
        {
          "name": "D#5",
          "midi": 75,
          "time": 114.65116279068363,
          "velocity": 0.5118110236220472,
          "duration": 0.31395348837203585
        },
        {
          "name": "B6",
          "midi": 95,
          "time": 114.66279069766037,
          "velocity": 0.28346456692913385,
          "duration": 0.034883720930224626
        },
        {
          "name": "A#4",
          "midi": 70,
          "time": 114.68604651161385,
          "velocity": 0.41732283464566927,
          "duration": 0.04651162790696617
        },
        {
          "name": "B5",
          "midi": 83,
          "time": 114.6976744185906,
          "velocity": 0.16535433070866143,
          "duration": 0.034883720930224626
        },
        {
          "name": "A#4",
          "midi": 70,
          "time": 114.74418604649756,
          "velocity": 0.4251968503937008,
          "duration": 0.2441860465115866
        },
        {
          "name": "G#3",
          "midi": 56,
          "time": 114.77906976742779,
          "velocity": 0.4881889763779528,
          "duration": 0.17441860465113734
        },
        {
          "name": "G5",
          "midi": 79,
          "time": 114.77906976742779,
          "velocity": 0.11023622047244094,
          "duration": 0.05813953488372192
        },
        {
          "name": "D#4",
          "midi": 63,
          "time": 114.82558139533477,
          "velocity": 0.3228346456692913,
          "duration": 0.1395348837208985
        },
        {
          "name": "C6",
          "midi": 84,
          "time": 114.8372093023115,
          "velocity": 0.25196850393700787,
          "duration": 0.023255813953483084
        },
        {
          "name": "F6",
          "midi": 89,
          "time": 114.84883720928825,
          "velocity": 0.2755905511811024,
          "duration": 0.09302325581393234
        },
        {
          "name": "F#6",
          "midi": 90,
          "time": 114.84883720928825,
          "velocity": 0.23622047244094488,
          "duration": 0.0813953488371908
        },
        {
          "name": "C5",
          "midi": 72,
          "time": 114.86046511626499,
          "velocity": 0.1968503937007874,
          "duration": 0.04651162790696617
        },
        {
          "name": "F5",
          "midi": 77,
          "time": 114.86046511626499,
          "velocity": 0.09448818897637795,
          "duration": 0.04651162790696617
        },
        {
          "name": "E6",
          "midi": 88,
          "time": 114.86046511626499,
          "velocity": 0.25196850393700787,
          "duration": 0.0813953488371908
        },
        {
          "name": "G6",
          "midi": 91,
          "time": 114.86046511626499,
          "velocity": 0.2204724409448819,
          "duration": 0.0813953488371908
        },
        {
          "name": "G#6",
          "midi": 92,
          "time": 114.86046511626499,
          "velocity": 0.1968503937007874,
          "duration": 0.0813953488371908
        },
        {
          "name": "A6",
          "midi": 93,
          "time": 114.86046511626499,
          "velocity": 0.2047244094488189,
          "duration": 0.05813953488370771
        },
        {
          "name": "A#6",
          "midi": 94,
          "time": 114.86046511626499,
          "velocity": 0.30708661417322836,
          "duration": 0.0813953488371908
        },
        {
          "name": "B6",
          "midi": 95,
          "time": 114.86046511626499,
          "velocity": 0.18110236220472442,
          "duration": 0.12790697674415696
        },
        {
          "name": "C7",
          "midi": 96,
          "time": 114.87209302324173,
          "velocity": 0.1968503937007874,
          "duration": 0.06976744186044925
        },
        {
          "name": "D7",
          "midi": 98,
          "time": 114.87209302324173,
          "velocity": 0.2047244094488189,
          "duration": 0.06976744186044925
        },
        {
          "name": "F#5",
          "midi": 78,
          "time": 114.89534883719521,
          "velocity": 0.13385826771653545,
          "duration": 0.034883720930224626
        },
        {
          "name": "B5",
          "midi": 83,
          "time": 114.90697674417196,
          "velocity": 0.2204724409448819,
          "duration": 0.04651162790696617
        },
        {
          "name": "C6",
          "midi": 84,
          "time": 114.9186046511487,
          "velocity": 0.33858267716535434,
          "duration": 0.11627906976741542
        },
        {
          "name": "C5",
          "midi": 72,
          "time": 114.95348837207892,
          "velocity": 0.3858267716535433,
          "duration": 0.3255813953487632
        },
        {
          "name": "G#5",
          "midi": 80,
          "time": 114.95348837207892,
          "velocity": 0.33858267716535434,
          "duration": 0.0813953488371908
        },
        {
          "name": "F6",
          "midi": 89,
          "time": 114.95348837207892,
          "velocity": 0.2440944881889764,
          "duration": 0.09302325581393234
        },
        {
          "name": "D3",
          "midi": 50,
          "time": 114.96511627905566,
          "velocity": 0.6141732283464567,
          "duration": 0.023255813953483084
        },
        {
          "name": "F#5",
          "midi": 78,
          "time": 114.96511627905566,
          "velocity": 0.2755905511811024,
          "duration": 0.05813953488370771
        },
        {
          "name": "E6",
          "midi": 88,
          "time": 114.96511627905566,
          "velocity": 0.1889763779527559,
          "duration": 0.06976744186044925
        },
        {
          "name": "F#6",
          "midi": 90,
          "time": 114.96511627905566,
          "velocity": 0.48031496062992124,
          "duration": 0.1627906976743816
        },
        {
          "name": "A6",
          "midi": 93,
          "time": 114.96511627905566,
          "velocity": 0.07874015748031496,
          "duration": 0.04651162790696617
        },
        {
          "name": "F#2",
          "midi": 42,
          "time": 114.9767441860324,
          "velocity": 0.6614173228346457,
          "duration": 0.011627906976741542
        },
        {
          "name": "A3",
          "midi": 57,
          "time": 114.9767441860324,
          "velocity": 0.5039370078740157,
          "duration": 0.023255813953483084
        },
        {
          "name": "D7",
          "midi": 98,
          "time": 114.9767441860324,
          "velocity": 0.11023622047244094,
          "duration": 0.034883720930224626
        },
        {
          "name": "E2",
          "midi": 40,
          "time": 114.98837209300915,
          "velocity": 0.6929133858267716,
          "duration": 0.011627906976741542
        },
        {
          "name": "D#4",
          "midi": 63,
          "time": 114.98837209300915,
          "velocity": 0.4330708661417323,
          "duration": 0.20930232558134776
        },
        {
          "name": "G#4",
          "midi": 68,
          "time": 114.98837209300915,
          "velocity": 0.47244094488188976,
          "duration": 0.3023255813952801
        },
        {
          "name": "G6",
          "midi": 91,
          "time": 114.98837209300915,
          "velocity": 0.44881889763779526,
          "duration": 0.1395348837208985
        },
        {
          "name": "C#2",
          "midi": 37,
          "time": 114.99999999998589,
          "velocity": 0.7322834645669292,
          "duration": 0.011627906976741542
        },
        {
          "name": "C4",
          "midi": 60,
          "time": 114.99999999998589,
          "velocity": 0.31496062992125984,
          "duration": 0.023255813953483084
        },
        {
          "name": "D#5",
          "midi": 75,
          "time": 114.99999999998589,
          "velocity": 0.4645669291338583,
          "duration": 0.43023255813945127
        },
        {
          "name": "D6",
          "midi": 86,
          "time": 114.99999999998589,
          "velocity": 0.12598425196850394,
          "duration": 0.034883720930224626
        },
        {
          "name": "C2",
          "midi": 36,
          "time": 115.01162790696263,
          "velocity": 0.7480314960629921,
          "duration": 0.011627906976741542
        },
        {
          "name": "A#1",
          "midi": 34,
          "time": 115.02325581393937,
          "velocity": 0.7322834645669292,
          "duration": 0.023255813953483084
        },
        {
          "name": "G#3",
          "midi": 56,
          "time": 115.02325581393937,
          "velocity": 0.44881889763779526,
          "duration": 0.0813953488371908
        },
        {
          "name": "G5",
          "midi": 79,
          "time": 115.02325581393937,
          "velocity": 0.1732283464566929,
          "duration": 0.034883720930224626
        },
        {
          "name": "C#7",
          "midi": 97,
          "time": 115.03488372091611,
          "velocity": 0.08661417322834646,
          "duration": 0.11627906976741542
        },
        {
          "name": "A1",
          "midi": 33,
          "time": 115.04651162789285,
          "velocity": 0.6692913385826772,
          "duration": 0.011627906976741542
        },
        {
          "name": "G#1",
          "midi": 32,
          "time": 115.0581395348696,
          "velocity": 0.6456692913385826,
          "duration": 0.023255813953483084
        },
        {
          "name": "C4",
          "midi": 60,
          "time": 115.0581395348696,
          "velocity": 0.49606299212598426,
          "duration": 0.45348837209294857
        },
        {
          "name": "G5",
          "midi": 79,
          "time": 115.06976744184634,
          "velocity": 0.2440944881889764,
          "duration": 0.05813953488370771
        },
        {
          "name": "G1",
          "midi": 31,
          "time": 115.08139534882308,
          "velocity": 0.7480314960629921,
          "duration": 0.1395348837208985
        },
        {
          "name": "D#3",
          "midi": 51,
          "time": 115.08139534882308,
          "velocity": 0.36220472440944884,
          "duration": 0.0813953488371908
        },
        {
          "name": "E6",
          "midi": 88,
          "time": 115.08139534882308,
          "velocity": 0.2047244094488189,
          "duration": 0.1395348837208985
        },
        {
          "name": "C#6",
          "midi": 85,
          "time": 115.09302325579982,
          "velocity": 0.2047244094488189,
          "duration": 0.05813953488370771
        },
        {
          "name": "F#5",
          "midi": 78,
          "time": 115.10465116277656,
          "velocity": 0.14960629921259844,
          "duration": 0.034883720930224626
        },
        {
          "name": "D7",
          "midi": 98,
          "time": 115.10465116277656,
          "velocity": 0.1732283464566929,
          "duration": 0.0813953488371908
        },
        {
          "name": "G#6",
          "midi": 92,
          "time": 115.1162790697533,
          "velocity": 0.5433070866141733,
          "duration": 1.174418604650981
        },
        {
          "name": "F5",
          "midi": 77,
          "time": 115.13953488370679,
          "velocity": 0.2125984251968504,
          "duration": 0.034883720930224626
        },
        {
          "name": "G#3",
          "midi": 56,
          "time": 115.15116279068353,
          "velocity": 0.30708661417322836,
          "duration": 0.034883720930224626
        },
        {
          "name": "D6",
          "midi": 86,
          "time": 115.15116279068353,
          "velocity": 0.15748031496062992,
          "duration": 0.034883720930224626
        },
        {
          "name": "D#3",
          "midi": 51,
          "time": 115.17441860463701,
          "velocity": 0.3700787401574803,
          "duration": 0.3255813953487916
        },
        {
          "name": "F#5",
          "midi": 78,
          "time": 115.17441860463701,
          "velocity": 0.2992125984251969,
          "duration": 0.10465116279067388
        },
        {
          "name": "C#6",
          "midi": 85,
          "time": 115.18604651161375,
          "velocity": 0.2283464566929134,
          "duration": 0.023255813953483084
        },
        {
          "name": "A6",
          "midi": 93,
          "time": 115.1976744185905,
          "velocity": 0.08661417322834646,
          "duration": 0.034883720930224626
        },
        {
          "name": "G#1",
          "midi": 32,
          "time": 115.22093023254398,
          "velocity": 0.7165354330708661,
          "duration": 0.034883720930224626
        },
        {
          "name": "G5",
          "midi": 79,
          "time": 115.22093023254398,
          "velocity": 0.2677165354330709,
          "duration": 0.12790697674415696
        },
        {
          "name": "A1",
          "midi": 33,
          "time": 115.2558139534742,
          "velocity": 0.6614173228346457,
          "duration": 0.011627906976741542
        },
        {
          "name": "G#1",
          "midi": 32,
          "time": 115.26744186045094,
          "velocity": 0.6771653543307087,
          "duration": 0.36046511627901623
        },
        {
          "name": "A#4",
          "midi": 70,
          "time": 115.26744186045094,
          "velocity": 0.2440944881889764,
          "duration": 0.023255813953483084
        },
        {
          "name": "C#5",
          "midi": 73,
          "time": 115.27906976742769,
          "velocity": 0.25984251968503935,
          "duration": 0.023255813953483084
        },
        {
          "name": "A5",
          "midi": 81,
          "time": 115.27906976742769,
          "velocity": 0.2677165354330709,
          "duration": 0.034883720930224626
        },
        {
          "name": "E6",
          "midi": 88,
          "time": 115.27906976742769,
          "velocity": 0.14173228346456693,
          "duration": 0.034883720930224626
        },
        {
          "name": "A#6",
          "midi": 94,
          "time": 115.27906976742769,
          "velocity": 0.14173228346456693,
          "duration": 0.0813953488371908
        },
        {
          "name": "F5",
          "midi": 77,
          "time": 115.29069767440443,
          "velocity": 0.25984251968503935,
          "duration": 0.04651162790696617
        },
        {
          "name": "G#5",
          "midi": 80,
          "time": 115.29069767440443,
          "velocity": 0.4015748031496063,
          "duration": 0.37209302325575777
        },
        {
          "name": "G#4",
          "midi": 68,
          "time": 115.30232558138117,
          "velocity": 0.5984251968503937,
          "duration": 0.20930232558137618
        },
        {
          "name": "B5",
          "midi": 83,
          "time": 115.30232558138117,
          "velocity": 0.09448818897637795,
          "duration": 0.034883720930224626
        },
        {
          "name": "A#5",
          "midi": 82,
          "time": 115.31395348835791,
          "velocity": 0.1968503937007874,
          "duration": 0.034883720930224626
        },
        {
          "name": "G5",
          "midi": 79,
          "time": 115.37209302324162,
          "velocity": 0.12598425196850394,
          "duration": 0.03488372093023884
        },
        {
          "name": "F#6",
          "midi": 90,
          "time": 115.37209302324162,
          "velocity": 0.11811023622047244,
          "duration": 0.03488372093023884
        },
        {
          "name": "F5",
          "midi": 77,
          "time": 115.40697674417186,
          "velocity": 0.2047244094488189,
          "duration": 0.04651162790696617
        },
        {
          "name": "A#5",
          "midi": 82,
          "time": 115.44186046510208,
          "velocity": 0.10236220472440945,
          "duration": 0.05813953488372192
        },
        {
          "name": "E5",
          "midi": 76,
          "time": 115.48837209300906,
          "velocity": 0.30708661417322836,
          "duration": 0.023255813953483084
        },
        {
          "name": "C#6",
          "midi": 85,
          "time": 115.48837209300906,
          "velocity": 0.33070866141732286,
          "duration": 0.023255813953483084
        },
        {
          "name": "A6",
          "midi": 93,
          "time": 115.48837209300906,
          "velocity": 0.10236220472440945,
          "duration": 0.04651162790696617
        },
        {
          "name": "D3",
          "midi": 50,
          "time": 115.4999999999858,
          "velocity": 0.5118110236220472,
          "duration": 0.034883720930224626
        },
        {
          "name": "F#5",
          "midi": 78,
          "time": 115.4999999999858,
          "velocity": 0.2047244094488189,
          "duration": 0.04651162790696617
        },
        {
          "name": "A5",
          "midi": 81,
          "time": 115.4999999999858,
          "velocity": 0.3228346456692913,
          "duration": 0.034883720930224626
        },
        {
          "name": "B5",
          "midi": 83,
          "time": 115.4999999999858,
          "velocity": 0.25984251968503935,
          "duration": 0.023255813953483084
        },
        {
          "name": "G6",
          "midi": 91,
          "time": 115.4999999999858,
          "velocity": 0.1889763779527559,
          "duration": 0.06976744186044925
        },
        {
          "name": "A#6",
          "midi": 94,
          "time": 115.4999999999858,
          "velocity": 0.2125984251968504,
          "duration": 0.04651162790696617
        },
        {
          "name": "C7",
          "midi": 96,
          "time": 115.4999999999858,
          "velocity": 0.16535433070866143,
          "duration": 0.034883720930224626
        },
        {
          "name": "D7",
          "midi": 98,
          "time": 115.4999999999858,
          "velocity": 0.13385826771653545,
          "duration": 0.034883720930224626
        },
        {
          "name": "D#7",
          "midi": 99,
          "time": 115.4999999999858,
          "velocity": 0.12598425196850394,
          "duration": 0.05813953488370771
        },
        {
          "name": "C5",
          "midi": 72,
          "time": 115.51162790696254,
          "velocity": 0.4015748031496063,
          "duration": 0.12790697674415696
        },
        {
          "name": "D#5",
          "midi": 75,
          "time": 115.51162790696254,
          "velocity": 0.3937007874015748,
          "duration": 0.10465116279067388
        },
        {
          "name": "C6",
          "midi": 84,
          "time": 115.51162790696254,
          "velocity": 0.49606299212598426,
          "duration": 0.11627906976741542
        },
        {
          "name": "D#4",
          "midi": 63,
          "time": 115.52325581393929,
          "velocity": 0.3858267716535433,
          "duration": 0.11627906976741542
        },
        {
          "name": "G#4",
          "midi": 68,
          "time": 115.52325581393929,
          "velocity": 0.28346456692913385,
          "duration": 0.09302325581393234
        },
        {
          "name": "A#5",
          "midi": 82,
          "time": 115.52325581393929,
          "velocity": 0.2992125984251969,
          "duration": 0.05813953488370771
        },
        {
          "name": "C#6",
          "midi": 85,
          "time": 115.52325581393929,
          "velocity": 0.3937007874015748,
          "duration": 0.1395348837208985
        },
        {
          "name": "D#3",
          "midi": 51,
          "time": 115.53488372091603,
          "velocity": 0.5196850393700787,
          "duration": 0.39534883720924086
        },
        {
          "name": "A#4",
          "midi": 70,
          "time": 115.54651162789277,
          "velocity": 0.23622047244094488,
          "duration": 0.04651162790696617
        },
        {
          "name": "B3",
          "midi": 59,
          "time": 115.60465116277648,
          "velocity": 0.3779527559055118,
          "duration": 0.023255813953483084
        },
        {
          "name": "A#4",
          "midi": 70,
          "time": 115.60465116277648,
          "velocity": 0.2755905511811024,
          "duration": 0.04651162790696617
        },
        {
          "name": "A#5",
          "midi": 82,
          "time": 115.60465116277648,
          "velocity": 0.2992125984251969,
          "duration": 0.04651162790696617
        },
        {
          "name": "F6",
          "midi": 89,
          "time": 115.60465116277648,
          "velocity": 0.25984251968503935,
          "duration": 0.11627906976741542
        },
        {
          "name": "F#6",
          "midi": 90,
          "time": 115.60465116277648,
          "velocity": 0.25984251968503935,
          "duration": 0.12790697674415696
        },
        {
          "name": "G6",
          "midi": 91,
          "time": 115.60465116277648,
          "velocity": 0.3937007874015748,
          "duration": 0.05813953488370771
        },
        {
          "name": "D7",
          "midi": 98,
          "time": 115.60465116277648,
          "velocity": 0.2677165354330709,
          "duration": 0.11627906976741542
        },
        {
          "name": "E5",
          "midi": 76,
          "time": 115.61627906975322,
          "velocity": 0.25984251968503935,
          "duration": 0.023255813953483084
        },
        {
          "name": "D#7",
          "midi": 99,
          "time": 115.61627906975322,
          "velocity": 0.29133858267716534,
          "duration": 0.11627906976741542
        },
        {
          "name": "A#1",
          "midi": 34,
          "time": 115.62790697672996,
          "velocity": 0.5433070866141733,
          "duration": 0.011627906976741542
        },
        {
          "name": "C4",
          "midi": 60,
          "time": 115.62790697672996,
          "velocity": 0.47244094488188976,
          "duration": 0.19767441860463464
        },
        {
          "name": "G#4",
          "midi": 68,
          "time": 115.62790697672996,
          "velocity": 0.3937007874015748,
          "duration": 0.31395348837205006
        },
        {
          "name": "C#5",
          "midi": 73,
          "time": 115.62790697672996,
          "velocity": 0.36220472440944884,
          "duration": 0.05813953488370771
        },
        {
          "name": "A6",
          "midi": 93,
          "time": 115.62790697672996,
          "velocity": 0.2992125984251969,
          "duration": 0.06976744186044925
        },
        {
          "name": "B6",
          "midi": 95,
          "time": 115.62790697672996,
          "velocity": 0.1732283464566929,
          "duration": 0.06976744186044925
        },
        {
          "name": "E7",
          "midi": 100,
          "time": 115.62790697672996,
          "velocity": 0.2677165354330709,
          "duration": 0.10465116279067388
        },
        {
          "name": "D#5",
          "midi": 75,
          "time": 115.6395348837067,
          "velocity": 0.3937007874015748,
          "duration": 0.3023255813953085
        },
        {
          "name": "B4",
          "midi": 71,
          "time": 115.65116279068344,
          "velocity": 0.2755905511811024,
          "duration": 0.023255813953483084
        },
        {
          "name": "G5",
          "midi": 79,
          "time": 115.65116279068344,
          "velocity": 0.3543307086614173,
          "duration": 0.04651162790696617
        },
        {
          "name": "C6",
          "midi": 84,
          "time": 115.65116279068344,
          "velocity": 0.3700787401574803,
          "duration": 0.023255813953483084
        },
        {
          "name": "G5",
          "midi": 79,
          "time": 115.70930232556715,
          "velocity": 0.2283464566929134,
          "duration": 0.034883720930224626
        },
        {
          "name": "F5",
          "midi": 77,
          "time": 115.73255813952063,
          "velocity": 0.11023622047244094,
          "duration": 0.04651162790698038
        },
        {
          "name": "C6",
          "midi": 84,
          "time": 115.74418604649738,
          "velocity": 0.3543307086614173,
          "duration": 0.20930232558137618
        },
        {
          "name": "B5",
          "midi": 83,
          "time": 115.8255813953346,
          "velocity": 0.25196850393700787,
          "duration": 0.034883720930224626
        },
        {
          "name": "F#6",
          "midi": 90,
          "time": 115.8255813953346,
          "velocity": 0.1732283464566929,
          "duration": 0.04651162790696617
        },
        {
          "name": "A6",
          "midi": 93,
          "time": 115.8255813953346,
          "velocity": 0.1732283464566929,
          "duration": 0.034883720930224626
        },
        {
          "name": "D#4",
          "midi": 63,
          "time": 115.83720930231134,
          "velocity": 0.5196850393700787,
          "duration": 0.441860465116207
        },
        {
          "name": "C5",
          "midi": 72,
          "time": 115.83720930231134,
          "velocity": 0.11023622047244094,
          "duration": 0.034883720930224626
        },
        {
          "name": "A5",
          "midi": 81,
          "time": 115.83720930231134,
          "velocity": 0.29133858267716534,
          "duration": 0.023255813953483084
        },
        {
          "name": "C#7",
          "midi": 97,
          "time": 115.83720930231134,
          "velocity": 0.14960629921259844,
          "duration": 0.034883720930224626
        },
        {
          "name": "A#5",
          "midi": 82,
          "time": 115.84883720928808,
          "velocity": 0.3700787401574803,
          "duration": 0.31395348837203585
        },
        {
          "name": "C#6",
          "midi": 85,
          "time": 115.86046511626482,
          "velocity": 0.25984251968503935,
          "duration": 0.04651162790696617
        },
        {
          "name": "C4",
          "midi": 60,
          "time": 115.89534883719504,
          "velocity": 0.10236220472440945,
          "duration": 0.034883720930224626
        },
        {
          "name": "F6",
          "midi": 89,
          "time": 115.93023255812527,
          "velocity": 0.31496062992125984,
          "duration": 0.05813953488370771
        },
        {
          "name": "C#7",
          "midi": 97,
          "time": 115.93023255812527,
          "velocity": 0.07086614173228346,
          "duration": 0.04651162790696617
        },
        {
          "name": "C#5",
          "midi": 73,
          "time": 115.94186046510201,
          "velocity": 0.3543307086614173,
          "duration": 0.023255813953483084
        },
        {
          "name": "G5",
          "midi": 79,
          "time": 115.94186046510201,
          "velocity": 0.30708661417322836,
          "duration": 0.05813953488370771
        },
        {
          "name": "D#6",
          "midi": 87,
          "time": 115.94186046510201,
          "velocity": 0.4094488188976378,
          "duration": 0.20930232558136197
        },
        {
          "name": "D#3",
          "midi": 51,
          "time": 115.95348837207875,
          "velocity": 0.10236220472440945,
          "duration": 0.034883720930224626
        },
        {
          "name": "G#4",
          "midi": 68,
          "time": 115.95348837207875,
          "velocity": 0.5275590551181102,
          "duration": 0.31395348837205006
        },
        {
          "name": "D#5",
          "midi": 75,
          "time": 115.95348837207875,
          "velocity": 0.5905511811023622,
          "duration": 0.3837209302324993
        },
        {
          "name": "F5",
          "midi": 77,
          "time": 115.95348837207875,
          "velocity": 0.3779527559055118,
          "duration": 0.06976744186044925
        },
        {
          "name": "B5",
          "midi": 83,
          "time": 115.95348837207875,
          "velocity": 0.1889763779527559,
          "duration": 0.034883720930224626
        },
        {
          "name": "E6",
          "midi": 88,
          "time": 115.95348837207875,
          "velocity": 0.31496062992125984,
          "duration": 0.023255813953483084
        },
        {
          "name": "C5",
          "midi": 72,
          "time": 115.9651162790555,
          "velocity": 0.4566929133858268,
          "duration": 0.3023255813953085
        },
        {
          "name": "C4",
          "midi": 60,
          "time": 115.97674418603224,
          "velocity": 0.4251968503937008,
          "duration": 0.13953488372091272
        },
        {
          "name": "E6",
          "midi": 88,
          "time": 115.98837209300898,
          "velocity": 0.14960629921259844,
          "duration": 0.034883720930224626
        },
        {
          "name": "G#3",
          "midi": 56,
          "time": 115.99999999998572,
          "velocity": 0.2440944881889764,
          "duration": 0.023255813953483084
        },
        {
          "name": "G5",
          "midi": 79,
          "time": 116.0232558139392,
          "velocity": 0.33858267716535434,
          "duration": 0.04651162790696617
        },
        {
          "name": "G#3",
          "midi": 56,
          "time": 116.03488372091594,
          "velocity": 0.28346456692913385,
          "duration": 0.1627906976743958
        },
        {
          "name": "C#6",
          "midi": 85,
          "time": 116.04651162789268,
          "velocity": 0.1968503937007874,
          "duration": 0.13953488372091272
        },
        {
          "name": "F5",
          "midi": 77,
          "time": 116.06976744184617,
          "velocity": 0.2440944881889764,
          "duration": 0.04651162790698038
        },
        {
          "name": "G6",
          "midi": 91,
          "time": 116.06976744184617,
          "velocity": 0.10236220472440945,
          "duration": 0.06976744186046346
        },
        {
          "name": "G6",
          "midi": 91,
          "time": 116.16279069766011,
          "velocity": 0.2204724409448819,
          "duration": 0.12790697674417117
        },
        {
          "name": "C#7",
          "midi": 97,
          "time": 116.23255813952058,
          "velocity": 0.3464566929133858,
          "duration": 0.20930232558134776
        },
        {
          "name": "C#6",
          "midi": 85,
          "time": 116.24418604649732,
          "velocity": 0.5590551181102362,
          "duration": 0.6860465116277652
        },
        {
          "name": "F3",
          "midi": 53,
          "time": 116.2674418604508,
          "velocity": 0.6141732283464567,
          "duration": 0.023255813953483084
        },
        {
          "name": "A#4",
          "midi": 70,
          "time": 116.2674418604508,
          "velocity": 0.25196850393700787,
          "duration": 0.023255813953483084
        },
        {
          "name": "C#5",
          "midi": 73,
          "time": 116.2674418604508,
          "velocity": 0.41732283464566927,
          "duration": 0.4999999999999005
        },
        {
          "name": "F#2",
          "midi": 42,
          "time": 116.27906976742754,
          "velocity": 0.6929133858267716,
          "duration": 0.011627906976741542
        },
        {
          "name": "F#5",
          "midi": 78,
          "time": 116.27906976742754,
          "velocity": 0.14960629921259844,
          "duration": 0.034883720930224626
        },
        {
          "name": "F2",
          "midi": 41,
          "time": 116.29069767440429,
          "velocity": 0.7874015748031497,
          "duration": 0.011627906976741542
        },
        {
          "name": "D#3",
          "midi": 51,
          "time": 116.29069767440429,
          "velocity": 0.41732283464566927,
          "duration": 0.023255813953483084
        },
        {
          "name": "B3",
          "midi": 59,
          "time": 116.29069767440429,
          "velocity": 0.3937007874015748,
          "duration": 0.023255813953483084
        },
        {
          "name": "F5",
          "midi": 77,
          "time": 116.29069767440429,
          "velocity": 0.36220472440944884,
          "duration": 0.15116279069764005
        },
        {
          "name": "D#7",
          "midi": 99,
          "time": 116.29069767440429,
          "velocity": 0.1889763779527559,
          "duration": 0.1627906976743816
        },
        {
          "name": "D#2",
          "midi": 39,
          "time": 116.30232558138103,
          "velocity": 0.7874015748031497,
          "duration": 0.011627906976741542
        },
        {
          "name": "F4",
          "midi": 65,
          "time": 116.30232558138103,
          "velocity": 0.4645669291338583,
          "duration": 0.6279069767440575
        },
        {
          "name": "B6",
          "midi": 95,
          "time": 116.30232558138103,
          "velocity": 0.1889763779527559,
          "duration": 0.11627906976741542
        },
        {
          "name": "C7",
          "midi": 96,
          "time": 116.30232558138103,
          "velocity": 0.2125984251968504,
          "duration": 0.11627906976741542
        },
        {
          "name": "C#2",
          "midi": 37,
          "time": 116.31395348835777,
          "velocity": 0.8031496062992126,
          "duration": 0.011627906976741542
        },
        {
          "name": "F3",
          "midi": 53,
          "time": 116.31395348835777,
          "velocity": 0.33070866141732286,
          "duration": 0.034883720930224626
        },
        {
          "name": "C6",
          "midi": 84,
          "time": 116.31395348835777,
          "velocity": 0.1889763779527559,
          "duration": 0.05813953488370771
        },
        {
          "name": "B1",
          "midi": 35,
          "time": 116.32558139533451,
          "velocity": 0.7952755905511811,
          "duration": 0.011627906976741542
        },
        {
          "name": "C#4",
          "midi": 61,
          "time": 116.32558139533451,
          "velocity": 0.3700787401574803,
          "duration": 0.05813953488370771
        },
        {
          "name": "A#4",
          "midi": 70,
          "time": 116.32558139533451,
          "velocity": 0.5826771653543307,
          "duration": 0.918604651162596
        },
        {
          "name": "F#7",
          "midi": 102,
          "time": 116.32558139533451,
          "velocity": 0.1968503937007874,
          "duration": 0.05813953488370771
        },
        {
          "name": "A#1",
          "midi": 34,
          "time": 116.33720930231125,
          "velocity": 0.7874015748031497,
          "duration": 0.011627906976741542
        },
        {
          "name": "A1",
          "midi": 33,
          "time": 116.34883720928799,
          "velocity": 0.7637795275590551,
          "duration": 0.023255813953483084
        },
        {
          "name": "D#6",
          "midi": 87,
          "time": 116.36046511626473,
          "velocity": 0.14173228346456693,
          "duration": 0.034883720930224626
        },
        {
          "name": "G#1",
          "midi": 32,
          "time": 116.37209302324148,
          "velocity": 0.6929133858267716,
          "duration": 0.023255813953483084
        },
        {
          "name": "G#4",
          "midi": 68,
          "time": 116.37209302324148,
          "velocity": 0.1732283464566929,
          "duration": 0.04651162790696617
        },
        {
          "name": "A5",
          "midi": 81,
          "time": 116.37209302324148,
          "velocity": 0.2283464566929134,
          "duration": 0.034883720930224626
        },
        {
          "name": "F3",
          "midi": 53,
          "time": 116.38372093021822,
          "velocity": 0.3228346456692913,
          "duration": 0.10465116279067388
        },
        {
          "name": "E6",
          "midi": 88,
          "time": 116.38372093021822,
          "velocity": 0.11023622047244094,
          "duration": 0.034883720930224626
        },
        {
          "name": "F1",
          "midi": 29,
          "time": 116.39534883719496,
          "velocity": 0.5511811023622047,
          "duration": 0.011627906976741542
        },
        {
          "name": "C#4",
          "midi": 61,
          "time": 116.39534883719496,
          "velocity": 0.36220472440944884,
          "duration": 0.05813953488370771
        },
        {
          "name": "A#6",
          "midi": 94,
          "time": 116.39534883719496,
          "velocity": 0.11811023622047244,
          "duration": 0.05813953488370771
        },
        {
          "name": "E1",
          "midi": 28,
          "time": 116.4069767441717,
          "velocity": 0.6141732283464567,
          "duration": 0.011627906976741542
        },
        {
          "name": "A#2",
          "midi": 46,
          "time": 116.4069767441717,
          "velocity": 0.4094488188976378,
          "duration": 0.023255813953483084
        },
        {
          "name": "D6",
          "midi": 86,
          "time": 116.4069767441717,
          "velocity": 0.11023622047244094,
          "duration": 0.034883720930224626
        },
        {
          "name": "G1",
          "midi": 31,
          "time": 116.41860465114844,
          "velocity": 0.7007874015748031,
          "duration": 0.011627906976741542
        },
        {
          "name": "G#5",
          "midi": 80,
          "time": 116.41860465114844,
          "velocity": 0.29133858267716534,
          "duration": 0.09302325581393234
        },
        {
          "name": "G#1",
          "midi": 32,
          "time": 116.43023255812518,
          "velocity": 0.7637795275590551,
          "duration": 0.034883720930224626
        },
        {
          "name": "C7",
          "midi": 96,
          "time": 116.44186046510193,
          "velocity": 0.11023622047244094,
          "duration": 0.06976744186044925
        },
        {
          "name": "D#5",
          "midi": 75,
          "time": 116.45348837207867,
          "velocity": 0.2755905511811024,
          "duration": 0.034883720930224626
        },
        {
          "name": "C6",
          "midi": 84,
          "time": 116.45348837207867,
          "velocity": 0.23622047244094488,
          "duration": 0.023255813953483084
        },
        {
          "name": "A1",
          "midi": 33,
          "time": 116.46511627905541,
          "velocity": 0.7244094488188977,
          "duration": 0.011627906976741542
        },
        {
          "name": "F#5",
          "midi": 78,
          "time": 116.46511627905541,
          "velocity": 0.18110236220472442,
          "duration": 0.04651162790696617
        },
        {
          "name": "A#1",
          "midi": 34,
          "time": 116.47674418603215,
          "velocity": 0.6692913385826772,
          "duration": 0.011627906976741542
        },
        {
          "name": "B5",
          "midi": 83,
          "time": 116.47674418603215,
          "velocity": 0.25984251968503935,
          "duration": 0.023255813953483084
        },
        {
          "name": "F6",
          "midi": 89,
          "time": 116.47674418603215,
          "velocity": 0.1968503937007874,
          "duration": 0.2790697674418112
        },
        {
          "name": "G6",
          "midi": 91,
          "time": 116.47674418603215,
          "velocity": 0.15748031496062992,
          "duration": 0.034883720930224626
        },
        {
          "name": "B1",
          "midi": 35,
          "time": 116.48837209300889,
          "velocity": 0.5984251968503937,
          "duration": 0.011627906976741542
        },
        {
          "name": "E3",
          "midi": 52,
          "time": 116.48837209300889,
          "velocity": 0.3700787401574803,
          "duration": 0.023255813953483084
        },
        {
          "name": "F5",
          "midi": 77,
          "time": 116.48837209300889,
          "velocity": 0.5275590551181102,
          "duration": 0.5581395348836082
        },
        {
          "name": "C6",
          "midi": 84,
          "time": 116.48837209300889,
          "velocity": 0.3228346456692913,
          "duration": 0.05813953488370771
        },
        {
          "name": "D6",
          "midi": 86,
          "time": 116.48837209300889,
          "velocity": 0.29133858267716534,
          "duration": 0.023255813953483084
        },
        {
          "name": "A6",
          "midi": 93,
          "time": 116.48837209300889,
          "velocity": 0.11023622047244094,
          "duration": 0.04651162790696617
        },
        {
          "name": "C2",
          "midi": 36,
          "time": 116.49999999998563,
          "velocity": 0.6220472440944882,
          "duration": 0.011627906976741542
        },
        {
          "name": "A#1",
          "midi": 34,
          "time": 116.51162790696237,
          "velocity": 0.6850393700787402,
          "duration": 0.011627906976741542
        },
        {
          "name": "F3",
          "midi": 53,
          "time": 116.51162790696237,
          "velocity": 0.3858267716535433,
          "duration": 0.034883720930224626
        },
        {
          "name": "C#4",
          "midi": 61,
          "time": 116.51162790696237,
          "velocity": 0.25984251968503935,
          "duration": 0.04651162790696617
        },
        {
          "name": "A1",
          "midi": 33,
          "time": 116.52325581393912,
          "velocity": 0.7322834645669292,
          "duration": 0.023255813953483084
        },
        {
          "name": "G#5",
          "midi": 80,
          "time": 116.53488372091586,
          "velocity": 0.2204724409448819,
          "duration": 0.034883720930224626
        },
        {
          "name": "A#1",
          "midi": 34,
          "time": 116.5465116278926,
          "velocity": 0.7244094488188977,
          "duration": 0.3837209302324851
        },
        {
          "name": "F3",
          "midi": 53,
          "time": 116.55813953486934,
          "velocity": 0.3543307086614173,
          "duration": 0.023255813953483084
        },
        {
          "name": "C#4",
          "midi": 61,
          "time": 116.56976744184608,
          "velocity": 0.33858267716535434,
          "duration": 0.034883720930224626
        },
        {
          "name": "E3",
          "midi": 52,
          "time": 116.58139534882282,
          "velocity": 0.3228346456692913,
          "duration": 0.04651162790696617
        },
        {
          "name": "A#3",
          "midi": 58,
          "time": 116.58139534882282,
          "velocity": 0.33070866141732286,
          "duration": 0.06976744186044925
        },
        {
          "name": "G#5",
          "midi": 80,
          "time": 116.58139534882282,
          "velocity": 0.2992125984251969,
          "duration": 0.19767441860462043
        },
        {
          "name": "D#5",
          "midi": 75,
          "time": 116.61627906975305,
          "velocity": 0.18110236220472442,
          "duration": 0.09302325581394655
        },
        {
          "name": "F3",
          "midi": 53,
          "time": 116.62790697672979,
          "velocity": 0.3228346456692913,
          "duration": 0.31395348837203585
        },
        {
          "name": "C#4",
          "midi": 61,
          "time": 116.63953488370653,
          "velocity": 0.3779527559055118,
          "duration": 0.10465116279068809
        },
        {
          "name": "A#3",
          "midi": 58,
          "time": 116.73255813952048,
          "velocity": 0.3700787401574803,
          "duration": 0.2558139534883139
        },
        {
          "name": "C#4",
          "midi": 61,
          "time": 116.75581395347396,
          "velocity": 0.29133858267716534,
          "duration": 0.05813953488370771
        },
        {
          "name": "G#5",
          "midi": 80,
          "time": 116.80232558138093,
          "velocity": 0.11023622047244094,
          "duration": 0.04651162790696617
        },
        {
          "name": "B5",
          "midi": 83,
          "time": 116.81395348835767,
          "velocity": 0.2204724409448819,
          "duration": 0.04651162790696617
        },
        {
          "name": "F#7",
          "midi": 102,
          "time": 116.81395348835767,
          "velocity": 0.1968503937007874,
          "duration": 0.034883720930224626
        },
        {
          "name": "C#5",
          "midi": 73,
          "time": 116.82558139533441,
          "velocity": 0.3543307086614173,
          "duration": 0.37209302325572935
        },
        {
          "name": "C#4",
          "midi": 61,
          "time": 116.88372093021812,
          "velocity": 0.2440944881889764,
          "duration": 0.034883720930224626
        },
        {
          "name": "B5",
          "midi": 83,
          "time": 116.9069767441716,
          "velocity": 0.29133858267716534,
          "duration": 0.04651162790696617
        },
        {
          "name": "F#6",
          "midi": 90,
          "time": 116.9069767441716,
          "velocity": 0.36220472440944884,
          "duration": 0.034883720930224626
        },
        {
          "name": "G6",
          "midi": 91,
          "time": 116.9069767441716,
          "velocity": 0.3700787401574803,
          "duration": 0.10465116279067388
        },
        {
          "name": "A6",
          "midi": 93,
          "time": 116.9069767441716,
          "velocity": 0.3700787401574803,
          "duration": 0.09302325581393234
        },
        {
          "name": "D6",
          "midi": 86,
          "time": 116.91860465114834,
          "velocity": 0.3700787401574803,
          "duration": 0.034883720930224626
        },
        {
          "name": "A#6",
          "midi": 94,
          "time": 116.91860465114834,
          "velocity": 0.3543307086614173,
          "duration": 0.10465116279067388
        },
        {
          "name": "C7",
          "midi": 96,
          "time": 116.91860465114834,
          "velocity": 0.23622047244094488,
          "duration": 0.06976744186044925
        },
        {
          "name": "D#7",
          "midi": 99,
          "time": 116.91860465114834,
          "velocity": 0.28346456692913385,
          "duration": 0.17441860465112313
        },
        {
          "name": "B1",
          "midi": 35,
          "time": 116.93023255812508,
          "velocity": 0.5826771653543307,
          "duration": 0.023255813953483084
        },
        {
          "name": "G#5",
          "midi": 80,
          "time": 116.93023255812508,
          "velocity": 0.4881889763779528,
          "duration": 0.4651162790696759
        },
        {
          "name": "A5",
          "midi": 81,
          "time": 116.93023255812508,
          "velocity": 0.3700787401574803,
          "duration": 0.034883720930224626
        },
        {
          "name": "C6",
          "midi": 84,
          "time": 116.93023255812508,
          "velocity": 0.36220472440944884,
          "duration": 0.12790697674415696
        },
        {
          "name": "D#6",
          "midi": 87,
          "time": 116.93023255812508,
          "velocity": 0.30708661417322836,
          "duration": 0.06976744186044925
        },
        {
          "name": "E7",
          "midi": 100,
          "time": 116.93023255812508,
          "velocity": 0.3464566929133858,
          "duration": 0.10465116279067388
        },
        {
          "name": "F4",
          "midi": 65,
          "time": 116.94186046510183,
          "velocity": 0.28346456692913385,
          "duration": 0.2558139534883139
        },
        {
          "name": "G#4",
          "midi": 68,
          "time": 116.94186046510183,
          "velocity": 0.3700787401574803,
          "duration": 0.023255813953483084
        },
        {
          "name": "D#5",
          "midi": 75,
          "time": 116.94186046510183,
          "velocity": 0.2677165354330709,
          "duration": 0.04651162790696617
        },
        {
          "name": "F#6",
          "midi": 90,
          "time": 116.95348837207857,
          "velocity": 0.2677165354330709,
          "duration": 0.04651162790696617
        },
        {
          "name": "C#4",
          "midi": 61,
          "time": 116.97674418603205,
          "velocity": 0.25196850393700787,
          "duration": 0.10465116279067388
        },
        {
          "name": "B5",
          "midi": 83,
          "time": 116.97674418603205,
          "velocity": 0.15748031496062992,
          "duration": 0.034883720930224626
        },
        {
          "name": "D6",
          "midi": 86,
          "time": 117.01162790696227,
          "velocity": 0.07874015748031496,
          "duration": 0.034883720930224626
        },
        {
          "name": "A#3",
          "midi": 58,
          "time": 117.02325581393902,
          "velocity": 0.30708661417322836,
          "duration": 0.20930232558134776
        },
        {
          "name": "F5",
          "midi": 77,
          "time": 117.05813953486924,
          "velocity": 0.5354330708661418,
          "duration": 0.5116279069766563
        },
        {
          "name": "D#7",
          "midi": 99,
          "time": 117.10465116277621,
          "velocity": 0.2047244094488189,
          "duration": 0.18604651162786467
        },
        {
          "name": "B6",
          "midi": 95,
          "time": 117.12790697672969,
          "velocity": 0.16535433070866143,
          "duration": 0.034883720930224626
        },
        {
          "name": "C6",
          "midi": 84,
          "time": 117.13953488370643,
          "velocity": 0.2677165354330709,
          "duration": 0.06976744186044925
        },
        {
          "name": "B5",
          "midi": 83,
          "time": 117.15116279068317,
          "velocity": 0.1889763779527559,
          "duration": 0.034883720930224626
        },
        {
          "name": "C#6",
          "midi": 85,
          "time": 117.16279069765991,
          "velocity": 0.4330708661417323,
          "duration": 0.11627906976741542
        },
        {
          "name": "F4",
          "midi": 65,
          "time": 117.20930232556688,
          "velocity": 0.2677165354330709,
          "duration": 0.04651162790696617
        },
        {
          "name": "C6",
          "midi": 84,
          "time": 117.22093023254362,
          "velocity": 0.2440944881889764,
          "duration": 0.023255813953483084
        },
        {
          "name": "D5",
          "midi": 74,
          "time": 117.2441860464971,
          "velocity": 0.3779527559055118,
          "duration": 0.034883720930224626
        },
        {
          "name": "F#5",
          "midi": 78,
          "time": 117.2441860464971,
          "velocity": 0.4015748031496063,
          "duration": 0.04651162790696617
        },
        {
          "name": "C#4",
          "midi": 61,
          "time": 117.25581395347385,
          "velocity": 0.41732283464566927,
          "duration": 0.11627906976742963
        },
        {
          "name": "F#4",
          "midi": 66,
          "time": 117.25581395347385,
          "velocity": 0.28346456692913385,
          "duration": 0.023255813953483084
        },
        {
          "name": "A#4",
          "midi": 70,
          "time": 117.25581395347385,
          "velocity": 0.5118110236220472,
          "duration": 0.31395348837205006
        },
        {
          "name": "A#6",
          "midi": 94,
          "time": 117.25581395347385,
          "velocity": 0.2755905511811024,
          "duration": 0.10465116279068809
        },
        {
          "name": "F4",
          "midi": 65,
          "time": 117.26744186045059,
          "velocity": 0.36220472440944884,
          "duration": 0.1860465116278931
        },
        {
          "name": "B5",
          "midi": 83,
          "time": 117.26744186045059,
          "velocity": 0.33070866141732286,
          "duration": 0.034883720930224626
        },
        {
          "name": "C6",
          "midi": 84,
          "time": 117.27906976742733,
          "velocity": 0.41732283464566927,
          "duration": 0.10465116279068809
        },
        {
          "name": "C#6",
          "midi": 85,
          "time": 117.29069767440407,
          "velocity": 0.4094488188976378,
          "duration": 0.081395348837205
        },
        {
          "name": "A#3",
          "midi": 58,
          "time": 117.33720930231105,
          "velocity": 0.28346456692913385,
          "duration": 0.034883720930224626
        },
        {
          "name": "G6",
          "midi": 91,
          "time": 117.33720930231105,
          "velocity": 0.33858267716535434,
          "duration": 0.023255813953483084
        },
        {
          "name": "A6",
          "midi": 93,
          "time": 117.3488372092878,
          "velocity": 0.4330708661417323,
          "duration": 0.023255813953483084
        },
        {
          "name": "A#6",
          "midi": 94,
          "time": 117.37209302324128,
          "velocity": 0.5511811023622047,
          "duration": 0.18604651162787889
        },
        {
          "name": "A#3",
          "midi": 58,
          "time": 117.38372093021802,
          "velocity": 0.25196850393700787,
          "duration": 0.09302325581394655
        },
        {
          "name": "C#4",
          "midi": 61,
          "time": 117.4069767441715,
          "velocity": 0.2440944881889764,
          "duration": 0.06976744186046346
        },
        {
          "name": "F#4",
          "midi": 66,
          "time": 117.45348837207848,
          "velocity": 0.3228346456692913,
          "duration": 0.023255813953483084
        },
        {
          "name": "C6",
          "midi": 84,
          "time": 117.45348837207848,
          "velocity": 0.31496062992125984,
          "duration": 0.034883720930224626
        },
        {
          "name": "A5",
          "midi": 81,
          "time": 117.46511627905522,
          "velocity": 0.30708661417322836,
          "duration": 0.06976744186044925
        },
        {
          "name": "G#6",
          "midi": 92,
          "time": 117.46511627905522,
          "velocity": 0.5511811023622047,
          "duration": 1.4302325581392523
        },
        {
          "name": "C#7",
          "midi": 97,
          "time": 117.46511627905522,
          "velocity": 0.1889763779527559,
          "duration": 0.29069767441853855
        },
        {
          "name": "F4",
          "midi": 65,
          "time": 117.47674418603197,
          "velocity": 0.4251968503937008,
          "duration": 0.12790697674415696
        },
        {
          "name": "C#5",
          "midi": 73,
          "time": 117.47674418603197,
          "velocity": 0.5275590551181102,
          "duration": 0.558139534883594
        },
        {
          "name": "B5",
          "midi": 83,
          "time": 117.47674418603197,
          "velocity": 0.25984251968503935,
          "duration": 0.034883720930224626
        },
        {
          "name": "A#3",
          "midi": 58,
          "time": 117.4883720930087,
          "velocity": 0.3228346456692913,
          "duration": 0.0813953488371908
        },
        {
          "name": "C#4",
          "midi": 61,
          "time": 117.51162790696219,
          "velocity": 0.25984251968503935,
          "duration": 0.04651162790696617
        },
        {
          "name": "G#5",
          "midi": 80,
          "time": 117.54651162789241,
          "velocity": 0.23622047244094488,
          "duration": 0.034883720930224626
        },
        {
          "name": "D#3",
          "midi": 51,
          "time": 117.5697674418459,
          "velocity": 0.5433070866141733,
          "duration": 0.011627906976741542
        },
        {
          "name": "A4",
          "midi": 69,
          "time": 117.5697674418459,
          "velocity": 0.4094488188976378,
          "duration": 0.04651162790696617
        },
        {
          "name": "F#5",
          "midi": 78,
          "time": 117.5697674418459,
          "velocity": 0.31496062992125984,
          "duration": 0.034883720930224626
        },
        {
          "name": "B5",
          "midi": 83,
          "time": 117.5697674418459,
          "velocity": 0.28346456692913385,
          "duration": 0.04651162790696617
        },
        {
          "name": "D#6",
          "midi": 87,
          "time": 117.5697674418459,
          "velocity": 0.2755905511811024,
          "duration": 0.034883720930224626
        },
        {
          "name": "G6",
          "midi": 91,
          "time": 117.5697674418459,
          "velocity": 0.15748031496062992,
          "duration": 0.034883720930224626
        },
        {
          "name": "A#6",
          "midi": 94,
          "time": 117.5697674418459,
          "velocity": 0.15748031496062992,
          "duration": 0.05813953488370771
        },
        {
          "name": "C3",
          "midi": 48,
          "time": 117.58139534882264,
          "velocity": 0.7086614173228346,
          "duration": 0.011627906976741542
        },
        {
          "name": "A#3",
          "midi": 58,
          "time": 117.58139534882264,
          "velocity": 0.49606299212598426,
          "duration": 0.023255813953483084
        },
        {
          "name": "F#2",
          "midi": 42,
          "time": 117.59302325579938,
          "velocity": 0.7480314960629921,
          "duration": 0.011627906976741542
        },
        {
          "name": "D#5",
          "midi": 75,
          "time": 117.59302325579938,
          "velocity": 0.29133858267716534,
          "duration": 0.05813953488370771
        },
        {
          "name": "F5",
          "midi": 77,
          "time": 117.59302325579938,
          "velocity": 0.5039370078740157,
          "duration": 0.9534883720928349
        },
        {
          "name": "G#5",
          "midi": 80,
          "time": 117.59302325579938,
          "velocity": 0.33858267716535434,
          "duration": 0.023255813953483084
        },
        {
          "name": "C6",
          "midi": 84,
          "time": 117.59302325579938,
          "velocity": 0.1889763779527559,
          "duration": 0.06976744186044925
        },
        {
          "name": "D2",
          "midi": 38,
          "time": 117.60465116277612,
          "velocity": 0.7637795275590551,
          "duration": 0.011627906976741542
        },
        {
          "name": "G3",
          "midi": 55,
          "time": 117.60465116277612,
          "velocity": 0.44881889763779526,
          "duration": 0.023255813953483084
        },
        {
          "name": "G#4",
          "midi": 68,
          "time": 117.60465116277612,
          "velocity": 0.41732283464566927,
          "duration": 0.29069767441853855
        },
        {
          "name": "C2",
          "midi": 36,
          "time": 117.61627906975286,
          "velocity": 0.7874015748031497,
          "duration": 0.011627906976741542
        },
        {
          "name": "C#4",
          "midi": 61,
          "time": 117.61627906975286,
          "velocity": 0.4645669291338583,
          "duration": 0.23255813953483084
        },
        {
          "name": "A5",
          "midi": 81,
          "time": 117.61627906975286,
          "velocity": 0.29133858267716534,
          "duration": 0.023255813953483084
        },
        {
          "name": "A#1",
          "midi": 34,
          "time": 117.6279069767296,
          "velocity": 0.7795275590551181,
          "duration": 0.011627906976741542
        },
        {
          "name": "F3",
          "midi": 53,
          "time": 117.6279069767296,
          "velocity": 0.4330708661417323,
          "duration": 0.023255813953483084
        },
        {
          "name": "A#5",
          "midi": 82,
          "time": 117.6279069767296,
          "velocity": 0.11811023622047244,
          "duration": 0.034883720930224626
        },
        {
          "name": "A1",
          "midi": 33,
          "time": 117.63953488370635,
          "velocity": 0.7716535433070866,
          "duration": 0.011627906976741542
        },
        {
          "name": "G#5",
          "midi": 80,
          "time": 117.63953488370635,
          "velocity": 0.41732283464566927,
          "duration": 0.3372093023255047
        },
        {
          "name": "G#1",
          "midi": 32,
          "time": 117.65116279068309,
          "velocity": 0.7559055118110236,
          "duration": 0.034883720930224626
        },
        {
          "name": "A6",
          "midi": 93,
          "time": 117.65116279068309,
          "velocity": 0.16535433070866143,
          "duration": 0.12790697674415696
        },
        {
          "name": "D#5",
          "midi": 75,
          "time": 117.66279069765983,
          "velocity": 0.2677165354330709,
          "duration": 0.11627906976741542
        },
        {
          "name": "C7",
          "midi": 96,
          "time": 117.66279069765983,
          "velocity": 0.13385826771653545,
          "duration": 0.06976744186044925
        },
        {
          "name": "C3",
          "midi": 48,
          "time": 117.67441860463657,
          "velocity": 0.30708661417322836,
          "duration": 0.034883720930224626
        },
        {
          "name": "G#3",
          "midi": 56,
          "time": 117.67441860463657,
          "velocity": 0.44881889763779526,
          "duration": 0.05813953488370771
        },
        {
          "name": "F4",
          "midi": 65,
          "time": 117.67441860463657,
          "velocity": 0.2283464566929134,
          "duration": 0.11627906976741542
        },
        {
          "name": "A1",
          "midi": 33,
          "time": 117.68604651161331,
          "velocity": 0.6220472440944882,
          "duration": 0.023255813953483084
        },
        {
          "name": "C6",
          "midi": 84,
          "time": 117.68604651161331,
          "velocity": 0.3228346456692913,
          "duration": 0.18604651162786467
        },
        {
          "name": "G#1",
          "midi": 32,
          "time": 117.7093023255668,
          "velocity": 0.6456692913385826,
          "duration": 0.011627906976741542
        },
        {
          "name": "A#6",
          "midi": 94,
          "time": 117.7093023255668,
          "velocity": 0.2125984251968504,
          "duration": 0.15116279069764005
        },
        {
          "name": "G1",
          "midi": 31,
          "time": 117.72093023254354,
          "velocity": 0.7086614173228346,
          "duration": 0.023255813953483084
        },
        {
          "name": "C3",
          "midi": 48,
          "time": 117.72093023254354,
          "velocity": 0.36220472440944884,
          "duration": 0.034883720930224626
        },
        {
          "name": "F#1",
          "midi": 30,
          "time": 117.74418604649702,
          "velocity": 0.7480314960629921,
          "duration": 0.06976744186044925
        },
        {
          "name": "G#3",
          "midi": 56,
          "time": 117.74418604649702,
          "velocity": 0.4330708661417323,
          "duration": 0.04651162790696617
        },
        {
          "name": "A5",
          "midi": 81,
          "time": 117.7674418604505,
          "velocity": 0.16535433070866143,
          "duration": 0.04651162790696617
        },
        {
          "name": "C3",
          "midi": 48,
          "time": 117.79069767440399,
          "velocity": 0.3228346456692913,
          "duration": 0.023255813953483084
        },
        {
          "name": "D#5",
          "midi": 75,
          "time": 117.79069767440399,
          "velocity": 0.2204724409448819,
          "duration": 0.10465116279067388
        },
        {
          "name": "G#3",
          "midi": 56,
          "time": 117.80232558138073,
          "velocity": 0.4015748031496063,
          "duration": 0.023255813953483084
        },
        {
          "name": "G6",
          "midi": 91,
          "time": 117.80232558138073,
          "velocity": 0.10236220472440945,
          "duration": 0.04651162790696617
        },
        {
          "name": "F1",
          "midi": 29,
          "time": 117.81395348835747,
          "velocity": 0.7244094488188977,
          "duration": 0.05813953488370771
        },
        {
          "name": "F4",
          "midi": 65,
          "time": 117.82558139533421,
          "velocity": 0.23622047244094488,
          "duration": 0.09302325581393234
        },
        {
          "name": "C4",
          "midi": 60,
          "time": 117.86046511626444,
          "velocity": 0.33070866141732286,
          "duration": 0.034883720930224626
        },
        {
          "name": "A#5",
          "midi": 82,
          "time": 117.86046511626444,
          "velocity": 0.10236220472440945,
          "duration": 0.05813953488370771
        },
        {
          "name": "E1",
          "midi": 28,
          "time": 117.87209302324118,
          "velocity": 0.6456692913385826,
          "duration": 0.011627906976741542
        },
        {
          "name": "F1",
          "midi": 29,
          "time": 117.88372093021792,
          "velocity": 0.6456692913385826,
          "duration": 0.34883720930224626
        },
        {
          "name": "G3",
          "midi": 55,
          "time": 117.88372093021792,
          "velocity": 0.3858267716535433,
          "duration": 0.023255813953483084
        },
        {
          "name": "A4",
          "midi": 69,
          "time": 117.89534883719466,
          "velocity": 0.23622047244094488,
          "duration": 0.023255813953483084
        },
        {
          "name": "C6",
          "midi": 84,
          "time": 117.89534883719466,
          "velocity": 0.28346456692913385,
          "duration": 0.3255813953487632
        },
        {
          "name": "F#6",
          "midi": 90,
          "time": 117.89534883719466,
          "velocity": 0.18110236220472442,
          "duration": 0.04651162790696617
        },
        {
          "name": "G#3",
          "midi": 56,
          "time": 117.9069767441714,
          "velocity": 0.48031496062992124,
          "duration": 0.05813953488370771
        },
        {
          "name": "C3",
          "midi": 48,
          "time": 117.91860465114814,
          "velocity": 0.3779527559055118,
          "duration": 0.034883720930224626
        },
        {
          "name": "C#4",
          "midi": 61,
          "time": 117.91860465114814,
          "velocity": 0.3464566929133858,
          "duration": 0.05813953488370771
        },
        {
          "name": "F4",
          "midi": 65,
          "time": 117.93023255812489,
          "velocity": 0.2992125984251969,
          "duration": 0.10465116279067388
        },
        {
          "name": "C3",
          "midi": 48,
          "time": 117.96511627905511,
          "velocity": 0.3700787401574803,
          "duration": 0.034883720930224626
        },
        {
          "name": "G3",
          "midi": 55,
          "time": 117.96511627905511,
          "velocity": 0.4094488188976378,
          "duration": 0.023255813953483084
        },
        {
          "name": "F3",
          "midi": 53,
          "time": 117.97674418603185,
          "velocity": 0.3858267716535433,
          "duration": 0.023255813953483084
        },
        {
          "name": "D#5",
          "midi": 75,
          "time": 117.98837209300859,
          "velocity": 0.1968503937007874,
          "duration": 0.034883720930224626
        },
        {
          "name": "F3",
          "midi": 53,
          "time": 118.01162790696208,
          "velocity": 0.36220472440944884,
          "duration": 0.023255813953483084
        },
        {
          "name": "D5",
          "midi": 74,
          "time": 118.02325581393882,
          "velocity": 0.25196850393700787,
          "duration": 0.023255813953483084
        },
        {
          "name": "G3",
          "midi": 55,
          "time": 118.03488372091556,
          "velocity": 0.3937007874015748,
          "duration": 0.023255813953483084
        },
        {
          "name": "A#6",
          "midi": 94,
          "time": 118.03488372091556,
          "velocity": 0.1732283464566929,
          "duration": 0.12790697674415696
        },
        {
          "name": "C4",
          "midi": 60,
          "time": 118.0465116278923,
          "velocity": 0.2204724409448819,
          "duration": 0.04651162790696617
        },
        {
          "name": "C#5",
          "midi": 73,
          "time": 118.0465116278923,
          "velocity": 0.44881889763779526,
          "duration": 0.18604651162786467
        },
        {
          "name": "C3",
          "midi": 48,
          "time": 118.05813953486904,
          "velocity": 0.33070866141732286,
          "duration": 0.1627906976743816
        },
        {
          "name": "F4",
          "midi": 65,
          "time": 118.08139534882253,
          "velocity": 0.3937007874015748,
          "duration": 0.1627906976743816
        },
        {
          "name": "D#5",
          "midi": 75,
          "time": 118.08139534882253,
          "velocity": 0.2047244094488189,
          "duration": 0.034883720930224626
        },
        {
          "name": "A#5",
          "midi": 82,
          "time": 118.10465116277601,
          "velocity": 0.3543307086614173,
          "duration": 0.034883720930224626
        },
        {
          "name": "G6",
          "midi": 91,
          "time": 118.10465116277601,
          "velocity": 0.1968503937007874,
          "duration": 0.034883720930224626
        },
        {
          "name": "B6",
          "midi": 95,
          "time": 118.10465116277601,
          "velocity": 0.14173228346456693,
          "duration": 0.034883720930224626
        },
        {
          "name": "A4",
          "midi": 69,
          "time": 118.11627906975275,
          "velocity": 0.4094488188976378,
          "duration": 0.023255813953483084
        },
        {
          "name": "F#5",
          "midi": 78,
          "time": 118.11627906975275,
          "velocity": 0.33070866141732286,
          "duration": 0.04651162790696617
        },
        {
          "name": "C#7",
          "midi": 97,
          "time": 118.11627906975275,
          "velocity": 0.12598425196850394,
          "duration": 0.05813953488370771
        },
        {
          "name": "D7",
          "midi": 98,
          "time": 118.11627906975275,
          "velocity": 0.15748031496062992,
          "duration": 0.034883720930224626
        },
        {
          "name": "D#7",
          "midi": 99,
          "time": 118.11627906975275,
          "velocity": 0.1889763779527559,
          "duration": 0.034883720930224626
        },
        {
          "name": "D#5",
          "midi": 75,
          "time": 118.12790697672949,
          "velocity": 0.4330708661417323,
          "duration": 0.09302325581393234
        },
        {
          "name": "G#5",
          "midi": 80,
          "time": 118.12790697672949,
          "velocity": 0.41732283464566927,
          "duration": 0.12790697674415696
        },
        {
          "name": "B5",
          "midi": 83,
          "time": 118.12790697672949,
          "velocity": 0.2204724409448819,
          "duration": 0.034883720930224626
        },
        {
          "name": "C#4",
          "midi": 61,
          "time": 118.13953488370623,
          "velocity": 0.44881889763779526,
          "duration": 0.31395348837203585
        },
        {
          "name": "G#4",
          "midi": 68,
          "time": 118.13953488370623,
          "velocity": 0.41732283464566927,
          "duration": 0.4069767441859824
        },
        {
          "name": "G#3",
          "midi": 56,
          "time": 118.15116279068297,
          "velocity": 0.2440944881889764,
          "duration": 0.023255813953483084
        },
        {
          "name": "A6",
          "midi": 93,
          "time": 118.1860465116132,
          "velocity": 0.3779527559055118,
          "duration": 0.04651162790696617
        },
        {
          "name": "B5",
          "midi": 83,
          "time": 118.20930232556668,
          "velocity": 0.36220472440944884,
          "duration": 0.04651162790696617
        },
        {
          "name": "F#6",
          "midi": 90,
          "time": 118.20930232556668,
          "velocity": 0.2440944881889764,
          "duration": 0.09302325581393234
        },
        {
          "name": "C7",
          "midi": 96,
          "time": 118.22093023254342,
          "velocity": 0.2755905511811024,
          "duration": 0.05813953488370771
        },
        {
          "name": "D7",
          "midi": 98,
          "time": 118.22093023254342,
          "velocity": 0.2755905511811024,
          "duration": 0.10465116279067388
        },
        {
          "name": "D#7",
          "midi": 99,
          "time": 118.22093023254342,
          "velocity": 0.2992125984251969,
          "duration": 0.11627906976741542
        },
        {
          "name": "F#1",
          "midi": 30,
          "time": 118.23255813952017,
          "velocity": 0.5590551181102362,
          "duration": 0.011627906976741542
        },
        {
          "name": "A3",
          "midi": 57,
          "time": 118.23255813952017,
          "velocity": 0.14173228346456693,
          "duration": 0.034883720930224626
        },
        {
          "name": "C5",
          "midi": 72,
          "time": 118.23255813952017,
          "velocity": 0.3464566929133858,
          "duration": 0.034883720930224626
        },
        {
          "name": "E6",
          "midi": 88,
          "time": 118.23255813952017,
          "velocity": 0.2755905511811024,
          "duration": 0.06976744186044925
        },
        {
          "name": "G6",
          "midi": 91,
          "time": 118.23255813952017,
          "velocity": 0.33070866141732286,
          "duration": 0.023255813953483084
        },
        {
          "name": "E7",
          "midi": 100,
          "time": 118.23255813952017,
          "velocity": 0.2992125984251969,
          "duration": 0.10465116279067388
        },
        {
          "name": "G1",
          "midi": 31,
          "time": 118.2441860464969,
          "velocity": 0.49606299212598426,
          "duration": 0.023255813953483084
        },
        {
          "name": "G5",
          "midi": 79,
          "time": 118.2441860464969,
          "velocity": 0.33070866141732286,
          "duration": 0.034883720930224626
        },
        {
          "name": "C6",
          "midi": 84,
          "time": 118.2441860464969,
          "velocity": 0.3937007874015748,
          "duration": 0.034883720930224626
        },
        {
          "name": "D#6",
          "midi": 87,
          "time": 118.2441860464969,
          "velocity": 0.25984251968503935,
          "duration": 0.0813953488371908
        },
        {
          "name": "A6",
          "midi": 93,
          "time": 118.2441860464969,
          "velocity": 0.3464566929133858,
          "duration": 0.06976744186044925
        },
        {
          "name": "D#5",
          "midi": 75,
          "time": 118.25581395347365,
          "velocity": 0.33858267716535434,
          "duration": 0.10465116279067388
        },
        {
          "name": "A5",
          "midi": 81,
          "time": 118.25581395347365,
          "velocity": 0.28346456692913385,
          "duration": 0.023255813953483084
        },
        {
          "name": "A#6",
          "midi": 94,
          "time": 118.25581395347365,
          "velocity": 0.25984251968503935,
          "duration": 0.06976744186044925
        },
        {
          "name": "F7",
          "midi": 101,
          "time": 118.25581395347365,
          "velocity": 0.2755905511811024,
          "duration": 0.06976744186044925
        },
        {
          "name": "G7",
          "midi": 103,
          "time": 118.25581395347365,
          "velocity": 0.30708661417322836,
          "duration": 0.0813953488371908
        },
        {
          "name": "G#3",
          "midi": 56,
          "time": 118.26744186045039,
          "velocity": 0.2125984251968504,
          "duration": 0.18604651162787889
        },
        {
          "name": "F4",
          "midi": 65,
          "time": 118.26744186045039,
          "velocity": 0.36220472440944884,
          "duration": 0.23255813953485927
        },
        {
          "name": "B5",
          "midi": 83,
          "time": 118.26744186045039,
          "velocity": 0.2283464566929134,
          "duration": 0.034883720930224626
        },
        {
          "name": "C6",
          "midi": 84,
          "time": 118.29069767440387,
          "velocity": 0.2204724409448819,
          "duration": 0.05813953488370771
        },
        {
          "name": "D#5",
          "midi": 75,
          "time": 118.37209302324106,
          "velocity": 0.2755905511811024,
          "duration": 0.1860465116278931
        },
        {
          "name": "G6",
          "midi": 91,
          "time": 118.41860465114804,
          "velocity": 0.08661417322834646,
          "duration": 0.034883720930224626
        },
        {
          "name": "G#5",
          "midi": 80,
          "time": 118.44186046510153,
          "velocity": 0.47244094488188976,
          "duration": 0.5581395348836224
        },
        {
          "name": "G#3",
          "midi": 56,
          "time": 118.46511627905501,
          "velocity": 0.13385826771653545,
          "duration": 0.081395348837205
        },
        {
          "name": "C#4",
          "midi": 61,
          "time": 118.46511627905501,
          "velocity": 0.47244094488188976,
          "duration": 0.4069767441859824
        },
        {
          "name": "F4",
          "midi": 65,
          "time": 118.52325581393873,
          "velocity": 0.2677165354330709,
          "duration": 0.034883720930224626
        },
        {
          "name": "A3",
          "midi": 57,
          "time": 118.54651162789222,
          "velocity": 0.3700787401574803,
          "duration": 0.05813953488370771
        },
        {
          "name": "A#4",
          "midi": 70,
          "time": 118.54651162789222,
          "velocity": 0.3700787401574803,
          "duration": 0.023255813953483084
        },
        {
          "name": "C5",
          "midi": 72,
          "time": 118.54651162789222,
          "velocity": 0.44881889763779526,
          "duration": 0.023255813953483084
        },
        {
          "name": "E5",
          "midi": 76,
          "time": 118.54651162789222,
          "velocity": 0.3779527559055118,
          "duration": 0.04651162790696617
        },
        {
          "name": "F#5",
          "midi": 78,
          "time": 118.54651162789222,
          "velocity": 0.25196850393700787,
          "duration": 0.04651162790696617
        },
        {
          "name": "A5",
          "midi": 81,
          "time": 118.54651162789222,
          "velocity": 0.2992125984251969,
          "duration": 0.05813953488370771
        },
        {
          "name": "F6",
          "midi": 89,
          "time": 118.54651162789222,
          "velocity": 0.2204724409448819,
          "duration": 0.0813953488371908
        },
        {
          "name": "A#6",
          "midi": 94,
          "time": 118.55813953486896,
          "velocity": 0.12598425196850394,
          "duration": 0.04651162790696617
        },
        {
          "name": "F4",
          "midi": 65,
          "time": 118.5697674418457,
          "velocity": 0.4409448818897638,
          "duration": 0.19767441860460622
        },
        {
          "name": "C#5",
          "midi": 73,
          "time": 118.5697674418457,
          "velocity": 0.4881889763779528,
          "duration": 0.12790697674415696
        },
        {
          "name": "F5",
          "midi": 77,
          "time": 118.5697674418457,
          "velocity": 0.5118110236220472,
          "duration": 0.33720930232551893
        },
        {
          "name": "G6",
          "midi": 91,
          "time": 118.5697674418457,
          "velocity": 0.08661417322834646,
          "duration": 0.04651162790696617
        },
        {
          "name": "G#4",
          "midi": 68,
          "time": 118.58139534882244,
          "velocity": 0.4566929133858268,
          "duration": 0.2209302325580893
        },
        {
          "name": "C6",
          "midi": 84,
          "time": 118.59302325579918,
          "velocity": 0.2283464566929134,
          "duration": 0.09302325581393234
        },
        {
          "name": "G#3",
          "midi": 56,
          "time": 118.60465116277592,
          "velocity": 0.3937007874015748,
          "duration": 0.0813953488371908
        },
        {
          "name": "D#6",
          "midi": 87,
          "time": 118.60465116277592,
          "velocity": 0.08661417322834646,
          "duration": 0.034883720930224626
        },
        {
          "name": "D#5",
          "midi": 75,
          "time": 118.6279069767294,
          "velocity": 0.2440944881889764,
          "duration": 0.034883720930224626
        },
        {
          "name": "C#6",
          "midi": 85,
          "time": 118.63953488370615,
          "velocity": 0.5275590551181102,
          "duration": 1.3255813953485927
        },
        {
          "name": "G#3",
          "midi": 56,
          "time": 118.69767441858986,
          "velocity": 0.2755905511811024,
          "duration": 0.04651162790696617
        },
        {
          "name": "D5",
          "midi": 74,
          "time": 118.69767441858986,
          "velocity": 0.25984251968503935,
          "duration": 0.023255813953483084
        },
        {
          "name": "C5",
          "midi": 72,
          "time": 118.72093023254334,
          "velocity": 0.2204724409448819,
          "duration": 0.04651162790696617
        },
        {
          "name": "D#5",
          "midi": 75,
          "time": 118.72093023254334,
          "velocity": 0.3464566929133858,
          "duration": 0.15116279069765426
        },
        {
          "name": "G5",
          "midi": 79,
          "time": 118.7674418604503,
          "velocity": 0.2992125984251969,
          "duration": 0.023255813953483084
        },
        {
          "name": "F4",
          "midi": 65,
          "time": 118.77906976742705,
          "velocity": 0.2047244094488189,
          "duration": 0.09302325581394655
        },
        {
          "name": "F#5",
          "midi": 78,
          "time": 118.79069767440379,
          "velocity": 0.23622047244094488,
          "duration": 0.034883720930224626
        },
        {
          "name": "G#4",
          "midi": 68,
          "time": 118.82558139533401,
          "velocity": 0.2677165354330709,
          "duration": 0.05813953488372192
        },
        {
          "name": "G#3",
          "midi": 56,
          "time": 118.86046511626425,
          "velocity": 0.48031496062992124,
          "duration": 0.023255813953483084
        },
        {
          "name": "G6",
          "midi": 91,
          "time": 118.86046511626425,
          "velocity": 0.09448818897637795,
          "duration": 0.034883720930224626
        },
        {
          "name": "A#5",
          "midi": 82,
          "time": 118.87209302324099,
          "velocity": 0.2992125984251969,
          "duration": 0.11627906976741542
        },
        {
          "name": "C6",
          "midi": 84,
          "time": 118.87209302324099,
          "velocity": 0.13385826771653545,
          "duration": 0.0813953488371908
        },
        {
          "name": "C3",
          "midi": 48,
          "time": 118.88372093021773,
          "velocity": 0.6850393700787402,
          "duration": 0.011627906976741542
        },
        {
          "name": "F#6",
          "midi": 90,
          "time": 118.88372093021773,
          "velocity": 0.13385826771653545,
          "duration": 0.05813953488370771
        },
        {
          "name": "A2",
          "midi": 45,
          "time": 118.89534883719448,
          "velocity": 0.7559055118110236,
          "duration": 0.011627906976741542
        },
        {
          "name": "A#4",
          "midi": 70,
          "time": 118.89534883719448,
          "velocity": 0.1889763779527559,
          "duration": 0.034883720930224626
        },
        {
          "name": "D5",
          "midi": 74,
          "time": 118.89534883719448,
          "velocity": 0.2755905511811024,
          "duration": 0.023255813953483084
        },
        {
          "name": "F2",
          "midi": 41,
          "time": 118.90697674417122,
          "velocity": 0.7716535433070866,
          "duration": 0.011627906976741542
        },
        {
          "name": "E6",
          "midi": 88,
          "time": 118.90697674417122,
          "velocity": 0.14960629921259844,
          "duration": 0.05813953488370771
        },
        {
          "name": "C#2",
          "midi": 37,
          "time": 118.91860465114796,
          "velocity": 0.7716535433070866,
          "duration": 0.011627906976741542
        },
        {
          "name": "C#5",
          "midi": 73,
          "time": 118.91860465114796,
          "velocity": 0.5118110236220472,
          "duration": 0.45348837209294857
        },
        {
          "name": "F#7",
          "midi": 102,
          "time": 118.91860465114796,
          "velocity": 0.13385826771653545,
          "duration": 0.034883720930224626
        },
        {
          "name": "B1",
          "midi": 35,
          "time": 118.9302325581247,
          "velocity": 0.7716535433070866,
          "duration": 0.011627906976741542
        },
        {
          "name": "G#4",
          "midi": 68,
          "time": 118.9302325581247,
          "velocity": 0.2125984251968504,
          "duration": 0.04651162790696617
        },
        {
          "name": "D#5",
          "midi": 75,
          "time": 118.9302325581247,
          "velocity": 0.23622047244094488,
          "duration": 0.04651162790696617
        },
        {
          "name": "F5",
          "midi": 77,
          "time": 118.9302325581247,
          "velocity": 0.15748031496062992,
          "duration": 0.034883720930224626
        },
        {
          "name": "D#7",
          "midi": 99,
          "time": 118.9302325581247,
          "velocity": 0.07874015748031496,
          "duration": 0.06976744186044925
        },
        {
          "name": "A#1",
          "midi": 34,
          "time": 118.94186046510144,
          "velocity": 0.7795275590551181,
          "duration": 0.011627906976741542
        },
        {
          "name": "G5",
          "midi": 79,
          "time": 118.94186046510144,
          "velocity": 0.11023622047244094,
          "duration": 0.034883720930224626
        },
        {
          "name": "B5",
          "midi": 83,
          "time": 118.94186046510144,
          "velocity": 0.12598425196850394,
          "duration": 0.034883720930224626
        },
        {
          "name": "F7",
          "midi": 101,
          "time": 118.94186046510144,
          "velocity": 0.12598425196850394,
          "duration": 0.034883720930224626
        },
        {
          "name": "G#1",
          "midi": 32,
          "time": 118.95348837207818,
          "velocity": 0.7795275590551181,
          "duration": 0.034883720930224626
        },
        {
          "name": "A5",
          "midi": 81,
          "time": 118.95348837207818,
          "velocity": 0.15748031496062992,
          "duration": 0.06976744186044925
        },
        {
          "name": "F6",
          "midi": 89,
          "time": 118.95348837207818,
          "velocity": 0.33070866141732286,
          "duration": 0.17441860465112313
        },
        {
          "name": "F#4",
          "midi": 66,
          "time": 118.96511627905493,
          "velocity": 0.3464566929133858,
          "duration": 0.1395348837208985
        },
        {
          "name": "C#4",
          "midi": 61,
          "time": 118.97674418603167,
          "velocity": 0.30708661417322836,
          "duration": 0.0813953488371908
        },
        {
          "name": "A#4",
          "midi": 70,
          "time": 118.97674418603167,
          "velocity": 0.4645669291338583,
          "duration": 0.33720930232551893
        },
        {
          "name": "E5",
          "midi": 76,
          "time": 118.97674418603167,
          "velocity": 0.41732283464566927,
          "duration": 0.12790697674415696
        },
        {
          "name": "G6",
          "midi": 91,
          "time": 118.97674418603167,
          "velocity": 0.13385826771653545,
          "duration": 0.04651162790696617
        },
        {
          "name": "C7",
          "midi": 96,
          "time": 118.97674418603167,
          "velocity": 0.18110236220472442,
          "duration": 0.09302325581393234
        },
        {
          "name": "G1",
          "midi": 31,
          "time": 118.98837209300841,
          "velocity": 0.7637795275590551,
          "duration": 0.04651162790696617
        },
        {
          "name": "F#3",
          "midi": 54,
          "time": 118.98837209300841,
          "velocity": 0.3858267716535433,
          "duration": 0.10465116279067388
        },
        {
          "name": "A#3",
          "midi": 58,
          "time": 118.98837209300841,
          "velocity": 0.2440944881889764,
          "duration": 0.023255813953483084
        },
        {
          "name": "D6",
          "midi": 86,
          "time": 118.98837209300841,
          "velocity": 0.1889763779527559,
          "duration": 0.04651162790696617
        },
        {
          "name": "F#5",
          "midi": 78,
          "time": 119.02325581393863,
          "velocity": 0.5196850393700787,
          "duration": 0.11627906976741542
        },
        {
          "name": "G#5",
          "midi": 80,
          "time": 119.02325581393863,
          "velocity": 0.2992125984251969,
          "duration": 0.06976744186044925
        },
        {
          "name": "F#1",
          "midi": 30,
          "time": 119.03488372091537,
          "velocity": 0.6614173228346457,
          "duration": 0.05813953488370771
        },
        {
          "name": "A#3",
          "midi": 58,
          "time": 119.03488372091537,
          "velocity": 0.3543307086614173,
          "duration": 0.06976744186044925
        },
        {
          "name": "D6",
          "midi": 86,
          "time": 119.04651162789212,
          "velocity": 0.16535433070866143,
          "duration": 0.05813953488370771
        },
        {
          "name": "C#4",
          "midi": 61,
          "time": 119.0697674418456,
          "velocity": 0.3464566929133858,
          "duration": 0.034883720930224626
        },
        {
          "name": "C#3",
          "midi": 49,
          "time": 119.08139534882234,
          "velocity": 0.36220472440944884,
          "duration": 0.17441860465112313
        },
        {
          "name": "F1",
          "midi": 29,
          "time": 119.09302325579908,
          "velocity": 0.6220472440944882,
          "duration": 0.0813953488371908
        },
        {
          "name": "D#6",
          "midi": 87,
          "time": 119.09302325579908,
          "velocity": 0.28346456692913385,
          "duration": 0.023255813953483084
        },
        {
          "name": "G4",
          "midi": 67,
          "time": 119.10465116277582,
          "velocity": 0.2992125984251969,
          "duration": 0.023255813953483084
        },
        {
          "name": "G#5",
          "midi": 80,
          "time": 119.10465116277582,
          "velocity": 0.4330708661417323,
          "duration": 0.11627906976741542
        },
        {
          "name": "A5",
          "midi": 81,
          "time": 119.10465116277582,
          "velocity": 0.3543307086614173,
          "duration": 0.023255813953483084
        },
        {
          "name": "A#3",
          "midi": 58,
          "time": 119.11627906975257,
          "velocity": 0.36220472440944884,
          "duration": 0.034883720930224626
        },
        {
          "name": "F#4",
          "midi": 66,
          "time": 119.1279069767293,
          "velocity": 0.2440944881889764,
          "duration": 0.0813953488371908
        },
        {
          "name": "D#5",
          "midi": 75,
          "time": 119.1279069767293,
          "velocity": 0.25984251968503935,
          "duration": 0.023255813953483084
        },
        {
          "name": "F5",
          "midi": 77,
          "time": 119.1279069767293,
          "velocity": 0.4015748031496063,
          "duration": 0.22093023255811772
        },
        {
          "name": "C#4",
          "midi": 61,
          "time": 119.13953488370605,
          "velocity": 0.47244094488188976,
          "duration": 0.0813953488371908
        },
        {
          "name": "F#1",
          "midi": 30,
          "time": 119.17441860463627,
          "velocity": 0.6692913385826772,
          "duration": 0.37209302325575777
        },
        {
          "name": "F7",
          "midi": 101,
          "time": 119.19767441858976,
          "velocity": 0.13385826771653545,
          "duration": 0.034883720930224626
        },
        {
          "name": "A#3",
          "midi": 58,
          "time": 119.2093023255665,
          "velocity": 0.47244094488188976,
          "duration": 0.17441860465115155
        },
        {
          "name": "F#4",
          "midi": 66,
          "time": 119.22093023254324,
          "velocity": 0.44881889763779526,
          "duration": 0.31395348837205006
        },
        {
          "name": "G#5",
          "midi": 80,
          "time": 119.23255813951998,
          "velocity": 0.1732283464566929,
          "duration": 0.15116279069766847
        },
        {
          "name": "C#3",
          "midi": 49,
          "time": 119.2674418604502,
          "velocity": 0.3543307086614173,
          "duration": 0.1860465116278931
        },
        {
          "name": "F5",
          "midi": 77,
          "time": 119.36046511626417,
          "velocity": 0.28346456692913385,
          "duration": 0.17441860465112313
        },
        {
          "name": "A#4",
          "midi": 70,
          "time": 119.37209302324091,
          "velocity": 0.47244094488188976,
          "duration": 0.17441860465112313
        },
        {
          "name": "C#5",
          "midi": 73,
          "time": 119.38372093021765,
          "velocity": 0.36220472440944884,
          "duration": 0.17441860465112313
        },
        {
          "name": "G#6",
          "midi": 92,
          "time": 119.39534883719439,
          "velocity": 0.1732283464566929,
          "duration": 0.09302325581393234
        },
        {
          "name": "G5",
          "midi": 79,
          "time": 119.41860465114787,
          "velocity": 0.2992125984251969,
          "duration": 0.023255813953483084
        },
        {
          "name": "A5",
          "midi": 81,
          "time": 119.41860465114787,
          "velocity": 0.25984251968503935,
          "duration": 0.023255813953483084
        },
        {
          "name": "F6",
          "midi": 89,
          "time": 119.41860465114787,
          "velocity": 0.2992125984251969,
          "duration": 0.2209302325580893
        },
        {
          "name": "D7",
          "midi": 98,
          "time": 119.41860465114787,
          "velocity": 0.14960629921259844,
          "duration": 0.034883720930224626
        },
        {
          "name": "E7",
          "midi": 100,
          "time": 119.41860465114787,
          "velocity": 0.23622047244094488,
          "duration": 0.034883720930224626
        },
        {
          "name": "F#7",
          "midi": 102,
          "time": 119.41860465114787,
          "velocity": 0.2204724409448819,
          "duration": 0.034883720930224626
        },
        {
          "name": "A#3",
          "midi": 58,
          "time": 119.44186046510136,
          "velocity": 0.2755905511811024,
          "duration": 0.05813953488370771
        },
        {
          "name": "G#5",
          "midi": 80,
          "time": 119.44186046510136,
          "velocity": 0.28346456692913385,
          "duration": 0.023255813953483084
        },
        {
          "name": "C#3",
          "midi": 49,
          "time": 119.46511627905484,
          "velocity": 0.29133858267716534,
          "duration": 0.06976744186044925
        },
        {
          "name": "B5",
          "midi": 83,
          "time": 119.52325581393855,
          "velocity": 0.4566929133858268,
          "duration": 0.034883720930224626
        },
        {
          "name": "D6",
          "midi": 86,
          "time": 119.52325581393855,
          "velocity": 0.25984251968503935,
          "duration": 0.023255813953483084
        },
        {
          "name": "G6",
          "midi": 91,
          "time": 119.52325581393855,
          "velocity": 0.36220472440944884,
          "duration": 0.09302325581393234
        },
        {
          "name": "G#6",
          "midi": 92,
          "time": 119.52325581393855,
          "velocity": 0.4409448818897638,
          "duration": 0.2790697674418112
        },
        {
          "name": "A6",
          "midi": 93,
          "time": 119.52325581393855,
          "velocity": 0.36220472440944884,
          "duration": 0.10465116279067388
        },
        {
          "name": "C7",
          "midi": 96,
          "time": 119.52325581393855,
          "velocity": 0.3700787401574803,
          "duration": 0.12790697674415696
        },
        {
          "name": "D7",
          "midi": 98,
          "time": 119.52325581393855,
          "velocity": 0.3543307086614173,
          "duration": 0.05813953488370771
        },
        {
          "name": "G#5",
          "midi": 80,
          "time": 119.53488372091529,
          "velocity": 0.5354330708661418,
          "duration": 0.33720930232551893
        },
        {
          "name": "E6",
          "midi": 88,
          "time": 119.53488372091529,
          "velocity": 0.2992125984251969,
          "duration": 0.0813953488371908
        },
        {
          "name": "F#6",
          "midi": 90,
          "time": 119.53488372091529,
          "velocity": 0.25196850393700787,
          "duration": 0.034883720930224626
        },
        {
          "name": "D#7",
          "midi": 99,
          "time": 119.53488372091529,
          "velocity": 0.4015748031496063,
          "duration": 0.1395348837208985
        },
        {
          "name": "E7",
          "midi": 100,
          "time": 119.53488372091529,
          "velocity": 0.2992125984251969,
          "duration": 0.11627906976741542
        },
        {
          "name": "G1",
          "midi": 31,
          "time": 119.54651162789203,
          "velocity": 0.5196850393700787,
          "duration": 0.023255813953483084
        },
        {
          "name": "A#3",
          "midi": 58,
          "time": 119.54651162789203,
          "velocity": 0.33858267716535434,
          "duration": 0.3255813953487774
        },
        {
          "name": "G#4",
          "midi": 68,
          "time": 119.54651162789203,
          "velocity": 0.3700787401574803,
          "duration": 0.034883720930224626
        },
        {
          "name": "D#5",
          "midi": 75,
          "time": 119.54651162789203,
          "velocity": 0.30708661417322836,
          "duration": 0.034883720930224626
        },
        {
          "name": "F5",
          "midi": 77,
          "time": 119.54651162789203,
          "velocity": 0.3543307086614173,
          "duration": 0.11627906976741542
        },
        {
          "name": "A#4",
          "midi": 70,
          "time": 119.55813953486877,
          "velocity": 0.36220472440944884,
          "duration": 0.1395348837208985
        },
        {
          "name": "A#5",
          "midi": 82,
          "time": 119.55813953486877,
          "velocity": 0.4409448818897638,
          "duration": 0.11627906976741542
        },
        {
          "name": "C6",
          "midi": 84,
          "time": 119.55813953486877,
          "velocity": 0.36220472440944884,
          "duration": 0.023255813953483084
        },
        {
          "name": "C#5",
          "midi": 73,
          "time": 119.56976744184551,
          "velocity": 0.3543307086614173,
          "duration": 0.09302325581393234
        },
        {
          "name": "F#4",
          "midi": 66,
          "time": 119.593023255799,
          "velocity": 0.2047244094488189,
          "duration": 0.15116279069765426
        },
        {
          "name": "B5",
          "midi": 83,
          "time": 119.593023255799,
          "velocity": 0.13385826771653545,
          "duration": 0.04651162790696617
        },
        {
          "name": "F#6",
          "midi": 90,
          "time": 119.593023255799,
          "velocity": 0.10236220472440945,
          "duration": 0.034883720930224626
        },
        {
          "name": "D7",
          "midi": 98,
          "time": 119.593023255799,
          "velocity": 0.16535433070866143,
          "duration": 0.034883720930224626
        },
        {
          "name": "F#5",
          "midi": 78,
          "time": 119.66279069765945,
          "velocity": 0.33858267716535434,
          "duration": 0.18604651162787889
        },
        {
          "name": "G#4",
          "midi": 68,
          "time": 119.68604651161293,
          "velocity": 0.1968503937007874,
          "duration": 0.06976744186046346
        },
        {
          "name": "C#5",
          "midi": 73,
          "time": 119.68604651161293,
          "velocity": 0.30708661417322836,
          "duration": 0.17441860465113734
        },
        {
          "name": "D#7",
          "midi": 99,
          "time": 119.68604651161293,
          "velocity": 0.18110236220472442,
          "duration": 0.06976744186046346
        },
        {
          "name": "A#5",
          "midi": 82,
          "time": 119.69767441858967,
          "velocity": 0.4409448818897638,
          "duration": 0.18604651162787889
        },
        {
          "name": "A#4",
          "midi": 70,
          "time": 119.70930232556641,
          "velocity": 0.4409448818897638,
          "duration": 0.47674418604644586
        },
        {
          "name": "F6",
          "midi": 89,
          "time": 119.74418604649665,
          "velocity": 0.12598425196850394,
          "duration": 0.034883720930224626
        },
        {
          "name": "A6",
          "midi": 93,
          "time": 119.74418604649665,
          "velocity": 0.16535433070866143,
          "duration": 0.034883720930224626
        },
        {
          "name": "F#4",
          "midi": 66,
          "time": 119.75581395347339,
          "velocity": 0.41732283464566927,
          "duration": 0.06976744186044925
        },
        {
          "name": "D#7",
          "midi": 99,
          "time": 119.77906976742688,
          "velocity": 0.18110236220472442,
          "duration": 0.09302325581393234
        },
        {
          "name": "C#4",
          "midi": 61,
          "time": 119.8139534883571,
          "velocity": 0.16535433070866143,
          "duration": 0.034883720930224626
        },
        {
          "name": "F#4",
          "midi": 66,
          "time": 119.83720930231058,
          "velocity": 0.25984251968503935,
          "duration": 0.023255813953483084
        },
        {
          "name": "F5",
          "midi": 77,
          "time": 119.83720930231058,
          "velocity": 0.3779527559055118,
          "duration": 0.15116279069764005
        },
        {
          "name": "D#5",
          "midi": 75,
          "time": 119.84883720928732,
          "velocity": 0.30708661417322836,
          "duration": 0.023255813953483084
        },
        {
          "name": "G6",
          "midi": 91,
          "time": 119.84883720928732,
          "velocity": 0.25984251968503935,
          "duration": 0.023255813953483084
        },
        {
          "name": "C4",
          "midi": 60,
          "time": 119.86046511626407,
          "velocity": 0.36220472440944884,
          "duration": 0.023255813953483084
        },
        {
          "name": "C5",
          "midi": 72,
          "time": 119.86046511626407,
          "velocity": 0.36220472440944884,
          "duration": 0.023255813953483084
        },
        {
          "name": "F#5",
          "midi": 78,
          "time": 119.86046511626407,
          "velocity": 0.44881889763779526,
          "duration": 0.034883720930224626
        },
        {
          "name": "D6",
          "midi": 86,
          "time": 119.86046511626407,
          "velocity": 0.2992125984251969,
          "duration": 0.05813953488370771
        },
        {
          "name": "F#4",
          "midi": 66,
          "time": 119.87209302324081,
          "velocity": 0.5433070866141733,
          "duration": 0.20930232558136197
        },
        {
          "name": "D5",
          "midi": 74,
          "time": 119.87209302324081,
          "velocity": 0.3858267716535433,
          "duration": 0.023255813953483084
        },
        {
          "name": "A5",
          "midi": 81,
          "time": 119.87209302324081,
          "velocity": 0.4645669291338583,
          "duration": 0.023255813953483084
        },
        {
          "name": "E6",
          "midi": 88,
          "time": 119.87209302324081,
          "velocity": 0.2755905511811024,
          "duration": 0.034883720930224626
        },
        {
          "name": "A#3",
          "midi": 58,
          "time": 119.88372093021755,
          "velocity": 0.5118110236220472,
          "duration": 0.18604651162787889
        },
        {
          "name": "C#5",
          "midi": 73,
          "time": 119.88372093021755,
          "velocity": 0.4566929133858268,
          "duration": 0.20930232558136197
        },
        {
          "name": "G#5",
          "midi": 80,
          "time": 119.89534883719429,
          "velocity": 0.3937007874015748,
          "duration": 0.13953488372091272
        },
        {
          "name": "D6",
          "midi": 86,
          "time": 119.94186046510126,
          "velocity": 0.12598425196850394,
          "duration": 0.09302325581394655
        },
        {
          "name": "G6",
          "midi": 91,
          "time": 119.94186046510126,
          "velocity": 0.31496062992125984,
          "duration": 0.034883720930224626
        },
        {
          "name": "A6",
          "midi": 93,
          "time": 119.96511627905474,
          "velocity": 0.4881889763779528,
          "duration": 0.023255813953483084
        },
        {
          "name": "A#6",
          "midi": 94,
          "time": 119.98837209300822,
          "velocity": 0.5354330708661418,
          "duration": 0.22093023255811772
        },
        {
          "name": "B6",
          "midi": 95,
          "time": 120.02325581393846,
          "velocity": 0.11811023622047244,
          "duration": 0.034883720930224626
        },
        {
          "name": "G#5",
          "midi": 80,
          "time": 120.04651162789195,
          "velocity": 0.31496062992125984,
          "duration": 0.06976744186044925
        },
        {
          "name": "A3",
          "midi": 57,
          "time": 120.06976744184543,
          "velocity": 0.41732283464566927,
          "duration": 0.023255813953483084
        },
        {
          "name": "D#5",
          "midi": 75,
          "time": 120.06976744184543,
          "velocity": 0.2283464566929134,
          "duration": 0.034883720930224626
        },
        {
          "name": "A5",
          "midi": 81,
          "time": 120.06976744184543,
          "velocity": 0.33858267716535434,
          "duration": 0.034883720930224626
        },
        {
          "name": "G4",
          "midi": 67,
          "time": 120.08139534882217,
          "velocity": 0.2755905511811024,
          "duration": 0.023255813953483084
        },
        {
          "name": "A#5",
          "midi": 82,
          "time": 120.08139534882217,
          "velocity": 0.4566929133858268,
          "duration": 0.13953488372091272
        },
        {
          "name": "B6",
          "midi": 95,
          "time": 120.08139534882217,
          "velocity": 0.13385826771653545,
          "duration": 0.034883720930224626
        },
        {
          "name": "A#3",
          "midi": 58,
          "time": 120.09302325579891,
          "velocity": 0.5590551181102362,
          "duration": 0.09302325581394655
        },
        {
          "name": "C5",
          "midi": 72,
          "time": 120.09302325579891,
          "velocity": 0.2677165354330709,
          "duration": 0.023255813953483084
        },
        {
          "name": "F5",
          "midi": 77,
          "time": 120.09302325579891,
          "velocity": 0.3858267716535433,
          "duration": 0.09302325581394655
        },
        {
          "name": "D6",
          "midi": 86,
          "time": 120.09302325579891,
          "velocity": 0.23622047244094488,
          "duration": 0.034883720930224626
        },
        {
          "name": "F#4",
          "midi": 66,
          "time": 120.10465116277565,
          "velocity": 0.3858267716535433,
          "duration": 0.11627906976742963
        },
        {
          "name": "C#5",
          "midi": 73,
          "time": 120.1162790697524,
          "velocity": 0.2283464566929134,
          "duration": 0.06976744186046346
        },
        {
          "name": "C#6",
          "midi": 85,
          "time": 120.1162790697524,
          "velocity": 0.3228346456692913,
          "duration": 0.10465116279068809
        },
        {
          "name": "F#3",
          "midi": 54,
          "time": 120.16279069765937,
          "velocity": 0.3779527559055118,
          "duration": 0.023255813953483084
        },
        {
          "name": "D5",
          "midi": 74,
          "time": 120.17441860463612,
          "velocity": 0.3858267716535433,
          "duration": 0.034883720930224626
        },
        {
          "name": "D#3",
          "midi": 51,
          "time": 120.18604651161286,
          "velocity": 0.6299212598425197,
          "duration": 0.011627906976741542
        },
        {
          "name": "A3",
          "midi": 57,
          "time": 120.18604651161286,
          "velocity": 0.5275590551181102,
          "duration": 0.011627906976741542
        },
        {
          "name": "C5",
          "midi": 72,
          "time": 120.18604651161286,
          "velocity": 0.3858267716535433,
          "duration": 0.023255813953483084
        },
        {
          "name": "A5",
          "midi": 81,
          "time": 120.18604651161286,
          "velocity": 0.31496062992125984,
          "duration": 0.023255813953483084
        },
        {
          "name": "F6",
          "midi": 89,
          "time": 120.18604651161286,
          "velocity": 0.2992125984251969,
          "duration": 0.2209302325580893
        },
        {
          "name": "G#6",
          "midi": 92,
          "time": 120.18604651161286,
          "velocity": 0.5354330708661418,
          "duration": 1.1511627906974269
        },
        {
          "name": "A2",
          "midi": 45,
          "time": 120.1976744185896,
          "velocity": 0.7322834645669292,
          "duration": 0.011627906976741542
        },
        {
          "name": "A4",
          "midi": 69,
          "time": 120.1976744185896,
          "velocity": 0.3779527559055118,
          "duration": 0.023255813953483084
        },
        {
          "name": "E5",
          "midi": 76,
          "time": 120.1976744185896,
          "velocity": 0.25984251968503935,
          "duration": 0.023255813953483084
        },
        {
          "name": "F5",
          "midi": 77,
          "time": 120.1976744185896,
          "velocity": 0.3858267716535433,
          "duration": 0.43023255813943706
        },
        {
          "name": "B6",
          "midi": 95,
          "time": 120.1976744185896,
          "velocity": 0.2047244094488189,
          "duration": 0.0813953488371908
        },
        {
          "name": "F#2",
          "midi": 42,
          "time": 120.20930232556634,
          "velocity": 0.7716535433070866,
          "duration": 0.011627906976741542
        },
        {
          "name": "E3",
          "midi": 52,
          "time": 120.20930232556634,
          "velocity": 0.5196850393700787,
          "duration": 0.023255813953483084
        },
        {
          "name": "C#5",
          "midi": 73,
          "time": 120.20930232556634,
          "velocity": 0.3700787401574803,
          "duration": 0.1395348837208985
        },
        {
          "name": "G#5",
          "midi": 80,
          "time": 120.20930232556634,
          "velocity": 0.29133858267716534,
          "duration": 0.034883720930224626
        },
        {
          "name": "D2",
          "midi": 38,
          "time": 120.22093023254308,
          "velocity": 0.7716535433070866,
          "duration": 0.011627906976741542
        },
        {
          "name": "G4",
          "midi": 67,
          "time": 120.22093023254308,
          "velocity": 0.29133858267716534,
          "duration": 0.023255813953483084
        },
        {
          "name": "D#5",
          "midi": 75,
          "time": 120.22093023254308,
          "velocity": 0.29133858267716534,
          "duration": 0.034883720930224626
        },
        {
          "name": "E6",
          "midi": 88,
          "time": 120.22093023254308,
          "velocity": 0.11023622047244094,
          "duration": 0.05813953488370771
        },
        {
          "name": "C2",
          "midi": 36,
          "time": 120.23255813951982,
          "velocity": 0.7952755905511811,
          "duration": 0.011627906976741542
        },
        {
          "name": "F3",
          "midi": 53,
          "time": 120.23255813951982,
          "velocity": 0.5354330708661418,
          "duration": 0.1395348837208985
        },
        {
          "name": "A#5",
          "midi": 82,
          "time": 120.23255813951982,
          "velocity": 0.14173228346456693,
          "duration": 0.10465116279067388
        },
        {
          "name": "G7",
          "midi": 103,
          "time": 120.23255813951982,
          "velocity": 0.15748031496062992,
          "duration": 0.04651162790696617
        },
        {
          "name": "A#1",
          "midi": 34,
          "time": 120.24418604649657,
          "velocity": 0.7874015748031497,
          "duration": 0.011627906976741542
        },
        {
          "name": "G#4",
          "midi": 68,
          "time": 120.24418604649657,
          "velocity": 0.4330708661417323,
          "duration": 0.2558139534883139
        },
        {
          "name": "A1",
          "midi": 33,
          "time": 120.25581395347331,
          "velocity": 0.7716535433070866,
          "duration": 0.011627906976741542
        },
        {
          "name": "G6",
          "midi": 91,
          "time": 120.25581395347331,
          "velocity": 0.1889763779527559,
          "duration": 0.17441860465112313
        },
        {
          "name": "D#7",
          "midi": 99,
          "time": 120.25581395347331,
          "velocity": 0.14960629921259844,
          "duration": 0.06976744186044925
        },
        {
          "name": "G#1",
          "midi": 32,
          "time": 120.26744186045005,
          "velocity": 0.7480314960629921,
          "duration": 0.04651162790696617
        },
        {
          "name": "D#6",
          "midi": 87,
          "time": 120.27906976742679,
          "velocity": 0.1968503937007874,
          "duration": 0.2209302325580893
        },
        {
          "name": "A#6",
          "midi": 94,
          "time": 120.29069767440353,
          "velocity": 0.1889763779527559,
          "duration": 0.24418604651157239
        },
        {
          "name": "F#7",
          "midi": 102,
          "time": 120.29069767440353,
          "velocity": 0.12598425196850394,
          "duration": 0.034883720930224626
        },
        {
          "name": "A1",
          "midi": 33,
          "time": 120.31395348835701,
          "velocity": 0.6141732283464567,
          "duration": 0.011627906976741542
        },
        {
          "name": "B6",
          "midi": 95,
          "time": 120.31395348835701,
          "velocity": 0.10236220472440945,
          "duration": 0.11627906976741542
        },
        {
          "name": "G#1",
          "midi": 32,
          "time": 120.32558139533376,
          "velocity": 0.6535433070866141,
          "duration": 0.011627906976741542
        },
        {
          "name": "D4",
          "midi": 62,
          "time": 120.32558139533376,
          "velocity": 0.2992125984251969,
          "duration": 0.023255813953483084
        },
        {
          "name": "D#5",
          "midi": 75,
          "time": 120.32558139533376,
          "velocity": 0.3779527559055118,
          "duration": 0.31395348837202164
        },
        {
          "name": "G1",
          "midi": 31,
          "time": 120.3372093023105,
          "velocity": 0.7244094488188977,
          "duration": 0.023255813953483084
        },
        {
          "name": "C3",
          "midi": 48,
          "time": 120.34883720928724,
          "velocity": 0.36220472440944884,
          "duration": 0.034883720930224626
        },
        {
          "name": "C#4",
          "midi": 61,
          "time": 120.34883720928724,
          "velocity": 0.33858267716535434,
          "duration": 0.023255813953483084
        },
        {
          "name": "F#1",
          "midi": 30,
          "time": 120.36046511626398,
          "velocity": 0.7401574803149606,
          "duration": 0.06976744186044925
        },
        {
          "name": "C#5",
          "midi": 73,
          "time": 120.36046511626398,
          "velocity": 0.3464566929133858,
          "duration": 0.09302325581393234
        },
        {
          "name": "C#4",
          "midi": 61,
          "time": 120.38372093021746,
          "velocity": 0.4015748031496063,
          "duration": 0.034883720930224626
        },
        {
          "name": "F#6",
          "midi": 90,
          "time": 120.38372093021746,
          "velocity": 0.2204724409448819,
          "duration": 0.05813953488370771
        },
        {
          "name": "G#3",
          "midi": 56,
          "time": 120.41860465114769,
          "velocity": 0.3464566929133858,
          "duration": 0.05813953488370771
        },
        {
          "name": "D4",
          "midi": 62,
          "time": 120.41860465114769,
          "velocity": 0.33858267716535434,
          "duration": 0.023255813953483084
        },
        {
          "name": "F1",
          "midi": 29,
          "time": 120.43023255812443,
          "velocity": 0.7244094488188977,
          "duration": 0.05813953488370771
        },
        {
          "name": "C3",
          "midi": 48,
          "time": 120.44186046510117,
          "velocity": 0.3858267716535433,
          "duration": 0.34883720930224626
        },
        {
          "name": "C5",
          "midi": 72,
          "time": 120.44186046510117,
          "velocity": 0.29133858267716534,
          "duration": 0.05813953488370771
        },
        {
          "name": "C#4",
          "midi": 61,
          "time": 120.45348837207791,
          "velocity": 0.4881889763779528,
          "duration": 0.023255813953483084
        },
        {
          "name": "F4",
          "midi": 65,
          "time": 120.45348837207791,
          "velocity": 0.2125984251968504,
          "duration": 0.034883720930224626
        },
        {
          "name": "A3",
          "midi": 57,
          "time": 120.4767441860314,
          "velocity": 0.3543307086614173,
          "duration": 0.023255813953483084
        },
        {
          "name": "E1",
          "midi": 28,
          "time": 120.48837209300814,
          "velocity": 0.6535433070866141,
          "duration": 0.011627906976741542
        },
        {
          "name": "C#4",
          "midi": 61,
          "time": 120.48837209300814,
          "velocity": 0.3700787401574803,
          "duration": 0.023255813953483084
        },
        {
          "name": "F1",
          "midi": 29,
          "time": 120.49999999998488,
          "velocity": 0.6456692913385826,
          "duration": 0.34883720930224626
        },
        {
          "name": "A3",
          "midi": 57,
          "time": 120.51162790696162,
          "velocity": 0.3464566929133858,
          "duration": 0.05813953488370771
        },
        {
          "name": "D4",
          "midi": 62,
          "time": 120.51162790696162,
          "velocity": 0.4251968503937008,
          "duration": 0.023255813953483084
        },
        {
          "name": "G#4",
          "midi": 68,
          "time": 120.51162790696162,
          "velocity": 0.30708661417322836,
          "duration": 0.18604651162786467
        },
        {
          "name": "C5",
          "midi": 72,
          "time": 120.51162790696162,
          "velocity": 0.33858267716535434,
          "duration": 0.023255813953483084
        },
        {
          "name": "A5",
          "midi": 81,
          "time": 120.51162790696162,
          "velocity": 0.25984251968503935,
          "duration": 0.034883720930224626
        },
        {
          "name": "G6",
          "midi": 91,
          "time": 120.51162790696162,
          "velocity": 0.2047244094488189,
          "duration": 0.034883720930224626
        },
        {
          "name": "C#5",
          "midi": 73,
          "time": 120.52325581393836,
          "velocity": 0.49606299212598426,
          "duration": 0.4651162790696617
        },
        {
          "name": "D#4",
          "midi": 63,
          "time": 120.5348837209151,
          "velocity": 0.3700787401574803,
          "duration": 0.023255813953483084
        },
        {
          "name": "F4",
          "midi": 65,
          "time": 120.5348837209151,
          "velocity": 0.4566929133858268,
          "duration": 0.10465116279067388
        },
        {
          "name": "F3",
          "midi": 53,
          "time": 120.54651162789185,
          "velocity": 0.3228346456692913,
          "duration": 0.023255813953483084
        },
        {
          "name": "A#5",
          "midi": 82,
          "time": 120.54651162789185,
          "velocity": 0.18110236220472442,
          "duration": 0.05813953488370771
        },
        {
          "name": "C#4",
          "midi": 61,
          "time": 120.56976744184533,
          "velocity": 0.3700787401574803,
          "duration": 0.023255813953483084
        },
        {
          "name": "G#3",
          "midi": 56,
          "time": 120.58139534882207,
          "velocity": 0.36220472440944884,
          "duration": 0.023255813953483084
        },
        {
          "name": "A#5",
          "midi": 82,
          "time": 120.6162790697523,
          "velocity": 0.25196850393700787,
          "duration": 0.0813953488371908
        },
        {
          "name": "D#4",
          "midi": 63,
          "time": 120.62790697672904,
          "velocity": 0.4251968503937008,
          "duration": 0.04651162790696617
        },
        {
          "name": "G6",
          "midi": 91,
          "time": 120.62790697672904,
          "velocity": 0.14173228346456693,
          "duration": 0.034883720930224626
        },
        {
          "name": "G#3",
          "midi": 56,
          "time": 120.63953488370578,
          "velocity": 0.3937007874015748,
          "duration": 0.023255813953483084
        },
        {
          "name": "F5",
          "midi": 77,
          "time": 120.63953488370578,
          "velocity": 0.5039370078740157,
          "duration": 0.5232558139533694
        },
        {
          "name": "C#4",
          "midi": 61,
          "time": 120.66279069765926,
          "velocity": 0.3543307086614173,
          "duration": 0.05813953488370771
        },
        {
          "name": "G#3",
          "midi": 56,
          "time": 120.674418604636,
          "velocity": 0.3228346456692913,
          "duration": 0.023255813953483084
        },
        {
          "name": "F3",
          "midi": 53,
          "time": 120.69767441858949,
          "velocity": 0.3228346456692913,
          "duration": 0.023255813953483084
        },
        {
          "name": "A4",
          "midi": 69,
          "time": 120.72093023254297,
          "velocity": 0.2677165354330709,
          "duration": 0.023255813953483084
        },
        {
          "name": "A#5",
          "midi": 82,
          "time": 120.72093023254297,
          "velocity": 0.3464566929133858,
          "duration": 0.023255813953483084
        },
        {
          "name": "C6",
          "midi": 84,
          "time": 120.72093023254297,
          "velocity": 0.14173228346456693,
          "duration": 0.0813953488371908
        },
        {
          "name": "D6",
          "midi": 86,
          "time": 120.72093023254297,
          "velocity": 0.28346456692913385,
          "duration": 0.034883720930224626
        },
        {
          "name": "E6",
          "midi": 88,
          "time": 120.72093023254297,
          "velocity": 0.2677165354330709,
          "duration": 0.034883720930224626
        },
        {
          "name": "F#6",
          "midi": 90,
          "time": 120.72093023254297,
          "velocity": 0.13385826771653545,
          "duration": 0.034883720930224626
        },
        {
          "name": "C7",
          "midi": 96,
          "time": 120.72093023254297,
          "velocity": 0.2125984251968504,
          "duration": 0.034883720930224626
        },
        {
          "name": "C#7",
          "midi": 97,
          "time": 120.72093023254297,
          "velocity": 0.14960629921259844,
          "duration": 0.04651162790696617
        },
        {
          "name": "F3",
          "midi": 53,
          "time": 120.73255813951971,
          "velocity": 0.31496062992125984,
          "duration": 0.05813953488370771
        },
        {
          "name": "A3",
          "midi": 57,
          "time": 120.73255813951971,
          "velocity": 0.31496062992125984,
          "duration": 0.034883720930224626
        },
        {
          "name": "D#4",
          "midi": 63,
          "time": 120.73255813951971,
          "velocity": 0.4409448818897638,
          "duration": 0.034883720930224626
        },
        {
          "name": "G#4",
          "midi": 68,
          "time": 120.74418604649645,
          "velocity": 0.36220472440944884,
          "duration": 0.034883720930224626
        },
        {
          "name": "A#6",
          "midi": 94,
          "time": 120.74418604649645,
          "velocity": 0.2755905511811024,
          "duration": 0.18604651162786467
        },
        {
          "name": "G#5",
          "midi": 80,
          "time": 120.7558139534732,
          "velocity": 0.4015748031496063,
          "duration": 0.09302325581393234
        },
        {
          "name": "A#5",
          "midi": 82,
          "time": 120.7558139534732,
          "velocity": 0.2283464566929134,
          "duration": 0.034883720930224626
        },
        {
          "name": "C#4",
          "midi": 61,
          "time": 120.76744186044994,
          "velocity": 0.3937007874015748,
          "duration": 0.0813953488371908
        },
        {
          "name": "E4",
          "midi": 64,
          "time": 120.76744186044994,
          "velocity": 0.3858267716535433,
          "duration": 0.023255813953483084
        },
        {
          "name": "C3",
          "midi": 48,
          "time": 120.80232558138016,
          "velocity": 0.2677165354330709,
          "duration": 0.034883720930224626
        },
        {
          "name": "E4",
          "midi": 64,
          "time": 120.80232558138016,
          "velocity": 0.2755905511811024,
          "duration": 0.023255813953483084
        },
        {
          "name": "G#4",
          "midi": 68,
          "time": 120.80232558138016,
          "velocity": 0.4330708661417323,
          "duration": 0.3604651162789878
        },
        {
          "name": "F3",
          "midi": 53,
          "time": 120.82558139533364,
          "velocity": 0.29133858267716534,
          "duration": 0.023255813953483084
        },
        {
          "name": "F4",
          "midi": 65,
          "time": 120.82558139533364,
          "velocity": 0.4251968503937008,
          "duration": 0.034883720930224626
        },
        {
          "name": "A#5",
          "midi": 82,
          "time": 120.82558139533364,
          "velocity": 0.31496062992125984,
          "duration": 0.05813953488370771
        },
        {
          "name": "C6",
          "midi": 84,
          "time": 120.82558139533364,
          "velocity": 0.3700787401574803,
          "duration": 0.06976744186044925
        },
        {
          "name": "D6",
          "midi": 86,
          "time": 120.82558139533364,
          "velocity": 0.2125984251968504,
          "duration": 0.034883720930224626
        },
        {
          "name": "F#6",
          "midi": 90,
          "time": 120.82558139533364,
          "velocity": 0.2992125984251969,
          "duration": 0.05813953488370771
        },
        {
          "name": "G6",
          "midi": 91,
          "time": 120.82558139533364,
          "velocity": 0.33858267716535434,
          "duration": 0.05813953488370771
        },
        {
          "name": "E6",
          "midi": 88,
          "time": 120.83720930231038,
          "velocity": 0.23622047244094488,
          "duration": 0.023255813953483084
        },
        {
          "name": "B6",
          "midi": 95,
          "time": 120.83720930231038,
          "velocity": 0.1889763779527559,
          "duration": 0.06976744186044925
        },
        {
          "name": "C#7",
          "midi": 97,
          "time": 120.83720930231038,
          "velocity": 0.16535433070866143,
          "duration": 0.034883720930224626
        },
        {
          "name": "D7",
          "midi": 98,
          "time": 120.83720930231038,
          "velocity": 0.29133858267716534,
          "duration": 0.10465116279067388
        },
        {
          "name": "F7",
          "midi": 101,
          "time": 120.83720930231038,
          "velocity": 0.25984251968503935,
          "duration": 0.09302325581393234
        },
        {
          "name": "F#1",
          "midi": 30,
          "time": 120.84883720928713,
          "velocity": 0.5433070866141733,
          "duration": 0.011627906976741542
        },
        {
          "name": "G5",
          "midi": 79,
          "time": 120.84883720928713,
          "velocity": 0.36220472440944884,
          "duration": 0.034883720930224626
        },
        {
          "name": "B5",
          "midi": 83,
          "time": 120.84883720928713,
          "velocity": 0.3228346456692913,
          "duration": 0.06976744186044925
        },
        {
          "name": "D#6",
          "midi": 87,
          "time": 120.84883720928713,
          "velocity": 0.29133858267716534,
          "duration": 0.0813953488371908
        },
        {
          "name": "D#7",
          "midi": 99,
          "time": 120.84883720928713,
          "velocity": 0.30708661417322836,
          "duration": 0.10465116279067388
        },
        {
          "name": "C#4",
          "midi": 61,
          "time": 120.86046511626387,
          "velocity": 0.3700787401574803,
          "duration": 0.18604651162786467
        },
        {
          "name": "E4",
          "midi": 64,
          "time": 120.86046511626387,
          "velocity": 0.4409448818897638,
          "duration": 0.0813953488371908
        },
        {
          "name": "A6",
          "midi": 93,
          "time": 120.86046511626387,
          "velocity": 0.29133858267716534,
          "duration": 0.10465116279067388
        },
        {
          "name": "E6",
          "midi": 88,
          "time": 120.87209302324061,
          "velocity": 0.2440944881889764,
          "duration": 0.034883720930224626
        },
        {
          "name": "E7",
          "midi": 100,
          "time": 120.87209302324061,
          "velocity": 0.2755905511811024,
          "duration": 0.0813953488371908
        },
        {
          "name": "F#6",
          "midi": 90,
          "time": 120.89534883719409,
          "velocity": 0.08661417322834646,
          "duration": 0.04651162790696617
        },
        {
          "name": "G6",
          "midi": 91,
          "time": 120.89534883719409,
          "velocity": 0.25196850393700787,
          "duration": 0.023255813953483084
        },
        {
          "name": "C7",
          "midi": 96,
          "time": 120.90697674417083,
          "velocity": 0.07086614173228346,
          "duration": 0.034883720930224626
        },
        {
          "name": "E4",
          "midi": 64,
          "time": 120.9534883720778,
          "velocity": 0.4251968503937008,
          "duration": 0.023255813953483084
        },
        {
          "name": "B5",
          "midi": 83,
          "time": 120.96511627905454,
          "velocity": 0.2677165354330709,
          "duration": 0.023255813953483084
        },
        {
          "name": "F4",
          "midi": 65,
          "time": 120.97674418603128,
          "velocity": 0.3937007874015748,
          "duration": 0.023255813953483084
        },
        {
          "name": "F4",
          "midi": 65,
          "time": 121.01162790696151,
          "velocity": 0.4566929133858268,
          "duration": 0.10465116279067388
        },
        {
          "name": "D#5",
          "midi": 75,
          "time": 121.01162790696151,
          "velocity": 0.25984251968503935,
          "duration": 0.1627906976743816
        },
        {
          "name": "G6",
          "midi": 91,
          "time": 121.03488372091499,
          "velocity": 0.2125984251968504,
          "duration": 0.04651162790696617
        },
        {
          "name": "C6",
          "midi": 84,
          "time": 121.04651162789173,
          "velocity": 0.3700787401574803,
          "duration": 0.23255813953484505
        },
        {
          "name": "G#3",
          "midi": 56,
          "time": 121.05813953486847,
          "velocity": 0.15748031496062992,
          "duration": 0.034883720930224626
        },
        {
          "name": "G#5",
          "midi": 80,
          "time": 121.05813953486847,
          "velocity": 0.5196850393700787,
          "duration": 0.31395348837203585
        },
        {
          "name": "A6",
          "midi": 93,
          "time": 121.05813953486847,
          "velocity": 0.2283464566929134,
          "duration": 0.04651162790696617
        },
        {
          "name": "C#4",
          "midi": 61,
          "time": 121.06976744184522,
          "velocity": 0.23622047244094488,
          "duration": 0.09302325581393234
        },
        {
          "name": "C5",
          "midi": 72,
          "time": 121.06976744184522,
          "velocity": 0.33070866141732286,
          "duration": 0.034883720930224626
        },
        {
          "name": "C5",
          "midi": 72,
          "time": 121.11627906975218,
          "velocity": 0.29133858267716534,
          "duration": 0.05813953488370771
        },
        {
          "name": "F4",
          "midi": 65,
          "time": 121.13953488370566,
          "velocity": 0.30708661417322836,
          "duration": 0.034883720930224626
        },
        {
          "name": "C#6",
          "midi": 85,
          "time": 121.13953488370566,
          "velocity": 0.31496062992125984,
          "duration": 0.19767441860462043
        },
        {
          "name": "F#4",
          "midi": 66,
          "time": 121.16279069765915,
          "velocity": 0.5196850393700787,
          "duration": 0.04651162790696617
        },
        {
          "name": "A4",
          "midi": 69,
          "time": 121.16279069765915,
          "velocity": 0.28346456692913385,
          "duration": 0.023255813953483084
        },
        {
          "name": "A5",
          "midi": 81,
          "time": 121.16279069765915,
          "velocity": 0.4881889763779528,
          "duration": 0.034883720930224626
        },
        {
          "name": "E6",
          "midi": 88,
          "time": 121.16279069765915,
          "velocity": 0.1889763779527559,
          "duration": 0.05813953488370771
        },
        {
          "name": "F#6",
          "midi": 90,
          "time": 121.16279069765915,
          "velocity": 0.1732283464566929,
          "duration": 0.04651162790696617
        },
        {
          "name": "C#4",
          "midi": 61,
          "time": 121.17441860463589,
          "velocity": 0.47244094488188976,
          "duration": 0.11627906976742963
        },
        {
          "name": "F6",
          "midi": 89,
          "time": 121.17441860463589,
          "velocity": 0.18110236220472442,
          "duration": 0.04651162790696617
        },
        {
          "name": "G6",
          "midi": 91,
          "time": 121.17441860463589,
          "velocity": 0.11023622047244094,
          "duration": 0.034883720930224626
        },
        {
          "name": "C5",
          "midi": 72,
          "time": 121.18604651161263,
          "velocity": 0.4094488188976378,
          "duration": 0.13953488372091272
        },
        {
          "name": "D#5",
          "midi": 75,
          "time": 121.18604651161263,
          "velocity": 0.41732283464566927,
          "duration": 0.19767441860462043
        },
        {
          "name": "F5",
          "midi": 77,
          "time": 121.18604651161263,
          "velocity": 0.5275590551181102,
          "duration": 0.3255813953487774
        },
        {
          "name": "F4",
          "midi": 65,
          "time": 121.20930232556611,
          "velocity": 0.5196850393700787,
          "duration": 0.09302325581394655
        },
        {
          "name": "A4",
          "midi": 69,
          "time": 121.20930232556611,
          "velocity": 0.15748031496062992,
          "duration": 0.04651162790698038
        },
        {
          "name": "G#3",
          "midi": 56,
          "time": 121.22093023254286,
          "velocity": 0.36220472440944884,
          "duration": 0.13953488372091272
        },
        {
          "name": "A#6",
          "midi": 94,
          "time": 121.27906976742658,
          "velocity": 0.2283464566929134,
          "duration": 0.04651162790696617
        },
        {
          "name": "C#4",
          "midi": 61,
          "time": 121.30232558138006,
          "velocity": 0.3543307086614173,
          "duration": 0.18604651162786467
        },
        {
          "name": "F4",
          "midi": 65,
          "time": 121.3139534883568,
          "velocity": 0.4251968503937008,
          "duration": 0.023255813953483084
        },
        {
          "name": "C#5",
          "midi": 73,
          "time": 121.32558139533354,
          "velocity": 0.36220472440944884,
          "duration": 0.09302325581393234
        },
        {
          "name": "G#4",
          "midi": 68,
          "time": 121.33720930231028,
          "velocity": 0.3779527559055118,
          "duration": 0.06976744186044925
        },
        {
          "name": "F4",
          "midi": 65,
          "time": 121.34883720928703,
          "velocity": 0.41732283464566927,
          "duration": 0.04651162790696617
        },
        {
          "name": "G5",
          "midi": 79,
          "time": 121.36046511626377,
          "velocity": 0.31496062992125984,
          "duration": 0.04651162790696617
        },
        {
          "name": "G#3",
          "midi": 56,
          "time": 121.37209302324051,
          "velocity": 0.49606299212598426,
          "duration": 0.09302325581393234
        },
        {
          "name": "A#6",
          "midi": 94,
          "time": 121.38372093021725,
          "velocity": 0.2125984251968504,
          "duration": 0.04651162790696617
        },
        {
          "name": "F#4",
          "midi": 66,
          "time": 121.39534883719399,
          "velocity": 0.4330708661417323,
          "duration": 0.04651162790696617
        },
        {
          "name": "D#5",
          "midi": 75,
          "time": 121.39534883719399,
          "velocity": 0.2440944881889764,
          "duration": 0.10465116279067388
        },
        {
          "name": "G#5",
          "midi": 80,
          "time": 121.39534883719399,
          "velocity": 0.4409448818897638,
          "duration": 0.12790697674415696
        },
        {
          "name": "C5",
          "midi": 72,
          "time": 121.40697674417073,
          "velocity": 0.16535433070866143,
          "duration": 0.05813953488370771
        },
        {
          "name": "F4",
          "midi": 65,
          "time": 121.43023255812422,
          "velocity": 0.3937007874015748,
          "duration": 0.09302325581393234
        },
        {
          "name": "G3",
          "midi": 55,
          "time": 121.46511627905444,
          "velocity": 0.3937007874015748,
          "duration": 0.023255813953483084
        },
        {
          "name": "C#6",
          "midi": 85,
          "time": 121.47674418603118,
          "velocity": 0.44881889763779526,
          "duration": 0.8720930232556157
        },
        {
          "name": "E3",
          "midi": 52,
          "time": 121.48837209300792,
          "velocity": 0.5511811023622047,
          "duration": 0.011627906976741542
        },
        {
          "name": "G#3",
          "midi": 56,
          "time": 121.48837209300792,
          "velocity": 0.5196850393700787,
          "duration": 0.011627906976741542
        },
        {
          "name": "A5",
          "midi": 81,
          "time": 121.48837209300792,
          "velocity": 0.31496062992125984,
          "duration": 0.023255813953483084
        },
        {
          "name": "B5",
          "midi": 83,
          "time": 121.48837209300792,
          "velocity": 0.2440944881889764,
          "duration": 0.034883720930224626
        },
        {
          "name": "F#6",
          "midi": 90,
          "time": 121.48837209300792,
          "velocity": 0.16535433070866143,
          "duration": 0.034883720930224626
        },
        {
          "name": "C3",
          "midi": 48,
          "time": 121.49999999998467,
          "velocity": 0.7086614173228346,
          "duration": 0.011627906976741542
        },
        {
          "name": "D4",
          "midi": 62,
          "time": 121.49999999998467,
          "velocity": 0.4330708661417323,
          "duration": 0.023255813953483084
        },
        {
          "name": "B4",
          "midi": 71,
          "time": 121.49999999998467,
          "velocity": 0.33070866141732286,
          "duration": 0.023255813953483084
        },
        {
          "name": "F#5",
          "midi": 78,
          "time": 121.49999999998467,
          "velocity": 0.2677165354330709,
          "duration": 0.10465116279067388
        },
        {
          "name": "E6",
          "midi": 88,
          "time": 121.49999999998467,
          "velocity": 0.16535433070866143,
          "duration": 0.05813953488370771
        },
        {
          "name": "F#2",
          "midi": 42,
          "time": 121.51162790696141,
          "velocity": 0.7480314960629921,
          "duration": 0.011627906976741542
        },
        {
          "name": "G4",
          "midi": 67,
          "time": 121.51162790696141,
          "velocity": 0.3779527559055118,
          "duration": 0.04651162790696617
        },
        {
          "name": "C#5",
          "midi": 73,
          "time": 121.51162790696141,
          "velocity": 0.5039370078740157,
          "duration": 0.3255813953487632
        },
        {
          "name": "A#5",
          "midi": 82,
          "time": 121.51162790696141,
          "velocity": 0.2204724409448819,
          "duration": 0.04651162790696617
        },
        {
          "name": "F7",
          "midi": 101,
          "time": 121.51162790696141,
          "velocity": 0.1889763779527559,
          "duration": 0.04651162790696617
        },
        {
          "name": "E2",
          "midi": 40,
          "time": 121.52325581393815,
          "velocity": 0.7559055118110236,
          "duration": 0.011627906976741542
        },
        {
          "name": "C#4",
          "midi": 61,
          "time": 121.52325581393815,
          "velocity": 0.5748031496062992,
          "duration": 0.3255813953487632
        },
        {
          "name": "D#7",
          "midi": 99,
          "time": 121.52325581393815,
          "velocity": 0.08661417322834646,
          "duration": 0.05813953488370771
        },
        {
          "name": "C#2",
          "midi": 37,
          "time": 121.53488372091489,
          "velocity": 0.7716535433070866,
          "duration": 0.011627906976741542
        },
        {
          "name": "A#4",
          "midi": 70,
          "time": 121.53488372091489,
          "velocity": 0.3779527559055118,
          "duration": 0.18604651162786467
        },
        {
          "name": "A5",
          "midi": 81,
          "time": 121.53488372091489,
          "velocity": 0.1732283464566929,
          "duration": 0.04651162790696617
        },
        {
          "name": "D6",
          "midi": 86,
          "time": 121.53488372091489,
          "velocity": 0.2047244094488189,
          "duration": 0.034883720930224626
        },
        {
          "name": "A#1",
          "midi": 34,
          "time": 121.54651162789163,
          "velocity": 0.7716535433070866,
          "duration": 0.011627906976741542
        },
        {
          "name": "F6",
          "midi": 89,
          "time": 121.54651162789163,
          "velocity": 0.30708661417322836,
          "duration": 0.23255813953483084
        },
        {
          "name": "B6",
          "midi": 95,
          "time": 121.54651162789163,
          "velocity": 0.08661417322834646,
          "duration": 0.034883720930224626
        },
        {
          "name": "A1",
          "midi": 33,
          "time": 121.55813953486837,
          "velocity": 0.7716535433070866,
          "duration": 0.011627906976741542
        },
        {
          "name": "F#3",
          "midi": 54,
          "time": 121.55813953486837,
          "velocity": 0.49606299212598426,
          "duration": 0.034883720930224626
        },
        {
          "name": "G#1",
          "midi": 32,
          "time": 121.56976744184512,
          "velocity": 0.7795275590551181,
          "duration": 0.023255813953483084
        },
        {
          "name": "G#5",
          "midi": 80,
          "time": 121.58139534882186,
          "velocity": 0.44881889763779526,
          "duration": 0.43023255813943706
        },
        {
          "name": "E6",
          "midi": 88,
          "time": 121.58139534882186,
          "velocity": 0.11023622047244094,
          "duration": 0.034883720930224626
        },
        {
          "name": "C7",
          "midi": 96,
          "time": 121.58139534882186,
          "velocity": 0.14173228346456693,
          "duration": 0.04651162790696617
        },
        {
          "name": "G1",
          "midi": 31,
          "time": 121.5930232557986,
          "velocity": 0.7716535433070866,
          "duration": 0.05813953488370771
        },
        {
          "name": "F3",
          "midi": 53,
          "time": 121.5930232557986,
          "velocity": 0.5118110236220472,
          "duration": 0.011627906976741542
        },
        {
          "name": "C6",
          "midi": 84,
          "time": 121.5930232557986,
          "velocity": 0.1968503937007874,
          "duration": 0.034883720930224626
        },
        {
          "name": "F#3",
          "midi": 54,
          "time": 121.60465116277534,
          "velocity": 0.5196850393700787,
          "duration": 0.2558139534883139
        },
        {
          "name": "F5",
          "midi": 77,
          "time": 121.60465116277534,
          "velocity": 0.3858267716535433,
          "duration": 0.034883720930224626
        },
        {
          "name": "D6",
          "midi": 86,
          "time": 121.60465116277534,
          "velocity": 0.2440944881889764,
          "duration": 0.05813953488370771
        },
        {
          "name": "B6",
          "midi": 95,
          "time": 121.60465116277534,
          "velocity": 0.2440944881889764,
          "duration": 0.12790697674415696
        },
        {
          "name": "F#5",
          "midi": 78,
          "time": 121.62790697672882,
          "velocity": 0.5275590551181102,
          "duration": 0.10465116279067388
        },
        {
          "name": "F#7",
          "midi": 102,
          "time": 121.63953488370556,
          "velocity": 0.08661417322834646,
          "duration": 0.034883720930224626
        },
        {
          "name": "F#1",
          "midi": 30,
          "time": 121.6511627906823,
          "velocity": 0.6456692913385826,
          "duration": 0.04651162790696617
        },
        {
          "name": "F1",
          "midi": 29,
          "time": 121.69767441858927,
          "velocity": 0.5196850393700787,
          "duration": 0.023255813953483084
        },
        {
          "name": "D#6",
          "midi": 87,
          "time": 121.69767441858927,
          "velocity": 0.33070866141732286,
          "duration": 0.0813953488371908
        },
        {
          "name": "B5",
          "midi": 83,
          "time": 121.70930232556601,
          "velocity": 0.3700787401574803,
          "duration": 0.04651162790696617
        },
        {
          "name": "C7",
          "midi": 96,
          "time": 121.70930232556601,
          "velocity": 0.15748031496062992,
          "duration": 0.05813953488370771
        },
        {
          "name": "F5",
          "midi": 77,
          "time": 121.72093023254276,
          "velocity": 0.5433070866141733,
          "duration": 0.23255813953483084
        },
        {
          "name": "F1",
          "midi": 29,
          "time": 121.7325581395195,
          "velocity": 0.6299212598425197,
          "duration": 0.05813953488370771
        },
        {
          "name": "A#5",
          "midi": 82,
          "time": 121.7325581395195,
          "velocity": 0.3858267716535433,
          "duration": 0.12790697674415696
        },
        {
          "name": "A#4",
          "midi": 70,
          "time": 121.75581395347298,
          "velocity": 0.36220472440944884,
          "duration": 0.06976744186044925
        },
        {
          "name": "F#1",
          "midi": 30,
          "time": 121.7906976744032,
          "velocity": 0.6692913385826772,
          "duration": 0.37209302325572935
        },
        {
          "name": "E5",
          "midi": 76,
          "time": 121.7906976744032,
          "velocity": 0.1732283464566929,
          "duration": 0.034883720930224626
        },
        {
          "name": "E6",
          "midi": 88,
          "time": 121.81395348835669,
          "velocity": 0.23622047244094488,
          "duration": 0.06976744186044925
        },
        {
          "name": "C7",
          "midi": 96,
          "time": 121.82558139533343,
          "velocity": 0.13385826771653545,
          "duration": 0.034883720930224626
        },
        {
          "name": "A#3",
          "midi": 58,
          "time": 121.83720930231017,
          "velocity": 0.5275590551181102,
          "duration": 0.31395348837202164
        },
        {
          "name": "D5",
          "midi": 74,
          "time": 121.83720930231017,
          "velocity": 0.33858267716535434,
          "duration": 0.023255813953483084
        },
        {
          "name": "C#5",
          "midi": 73,
          "time": 121.84883720928691,
          "velocity": 0.33858267716535434,
          "duration": 0.2209302325580893
        },
        {
          "name": "F#4",
          "midi": 66,
          "time": 121.86046511626365,
          "velocity": 0.3779527559055118,
          "duration": 0.1627906976743816
        },
        {
          "name": "A4",
          "midi": 69,
          "time": 121.86046511626365,
          "velocity": 0.36220472440944884,
          "duration": 0.04651162790696617
        },
        {
          "name": "A#5",
          "midi": 82,
          "time": 121.8720930232404,
          "velocity": 0.10236220472440945,
          "duration": 0.034883720930224626
        },
        {
          "name": "F#3",
          "midi": 54,
          "time": 121.89534883719388,
          "velocity": 0.4330708661417323,
          "duration": 0.04651162790696617
        },
        {
          "name": "C6",
          "midi": 84,
          "time": 121.89534883719388,
          "velocity": 0.11811023622047244,
          "duration": 0.034883720930224626
        },
        {
          "name": "A4",
          "midi": 69,
          "time": 121.91860465114736,
          "velocity": 0.4330708661417323,
          "duration": 0.0813953488371908
        },
        {
          "name": "A#5",
          "midi": 82,
          "time": 121.9302325581241,
          "velocity": 0.13385826771653545,
          "duration": 0.034883720930224626
        },
        {
          "name": "E6",
          "midi": 88,
          "time": 121.9302325581241,
          "velocity": 0.2755905511811024,
          "duration": 0.05813953488370771
        },
        {
          "name": "C6",
          "midi": 84,
          "time": 121.94186046510085,
          "velocity": 0.12598425196850394,
          "duration": 0.09302325581393234
        },
        {
          "name": "F#3",
          "midi": 54,
          "time": 121.95348837207759,
          "velocity": 0.3937007874015748,
          "duration": 0.10465116279067388
        },
        {
          "name": "F#5",
          "midi": 78,
          "time": 121.95348837207759,
          "velocity": 0.41732283464566927,
          "duration": 0.11627906976741542
        },
        {
          "name": "A#5",
          "midi": 82,
          "time": 121.98837209300781,
          "velocity": 0.4251968503937008,
          "duration": 0.20930232558134776
        },
        {
          "name": "C#4",
          "midi": 61,
          "time": 121.99999999998455,
          "velocity": 0.33070866141732286,
          "duration": 0.023255813953483084
        },
        {
          "name": "F4",
          "midi": 65,
          "time": 122.02325581393804,
          "velocity": 0.15748031496062992,
          "duration": 0.04651162790696617
        },
        {
          "name": "G#5",
          "midi": 80,
          "time": 122.02325581393804,
          "velocity": 0.30708661417322836,
          "duration": 0.11627906976741542
        },
        {
          "name": "B5",
          "midi": 83,
          "time": 122.02325581393804,
          "velocity": 0.12598425196850394,
          "duration": 0.04651162790696617
        },
        {
          "name": "C#4",
          "midi": 61,
          "time": 122.03488372091478,
          "velocity": 0.30708661417322836,
          "duration": 0.023255813953483084
        },
        {
          "name": "E6",
          "midi": 88,
          "time": 122.03488372091478,
          "velocity": 0.2440944881889764,
          "duration": 0.034883720930224626
        },
        {
          "name": "F7",
          "midi": 101,
          "time": 122.03488372091478,
          "velocity": 0.1968503937007874,
          "duration": 0.034883720930224626
        },
        {
          "name": "F#7",
          "midi": 102,
          "time": 122.03488372091478,
          "velocity": 0.1968503937007874,
          "duration": 0.04651162790696617
        },
        {
          "name": "C#3",
          "midi": 49,
          "time": 122.04651162789152,
          "velocity": 0.31496062992125984,
          "duration": 0.05813953488370771
        },
        {
          "name": "A4",
          "midi": 69,
          "time": 122.05813953486826,
          "velocity": 0.4881889763779528,
          "duration": 0.023255813953483084
        },
        {
          "name": "F5",
          "midi": 77,
          "time": 122.05813953486826,
          "velocity": 0.2440944881889764,
          "duration": 0.10465116279067388
        },
        {
          "name": "F6",
          "midi": 89,
          "time": 122.05813953486826,
          "velocity": 0.4015748031496063,
          "duration": 0.20930232558134776
        },
        {
          "name": "F#4",
          "midi": 66,
          "time": 122.08139534882174,
          "velocity": 0.2125984251968504,
          "duration": 0.06976744186044925
        },
        {
          "name": "D#5",
          "midi": 75,
          "time": 122.09302325579849,
          "velocity": 0.09448818897637795,
          "duration": 0.034883720930224626
        },
        {
          "name": "C#3",
          "midi": 49,
          "time": 122.12790697672871,
          "velocity": 0.2992125984251969,
          "duration": 0.023255813953483084
        },
        {
          "name": "D5",
          "midi": 74,
          "time": 122.13953488370545,
          "velocity": 0.3779527559055118,
          "duration": 0.034883720930224626
        },
        {
          "name": "G5",
          "midi": 79,
          "time": 122.13953488370545,
          "velocity": 0.28346456692913385,
          "duration": 0.034883720930224626
        },
        {
          "name": "A5",
          "midi": 81,
          "time": 122.13953488370545,
          "velocity": 0.2992125984251969,
          "duration": 0.023255813953483084
        },
        {
          "name": "B5",
          "midi": 83,
          "time": 122.13953488370545,
          "velocity": 0.23622047244094488,
          "duration": 0.023255813953483084
        },
        {
          "name": "D6",
          "midi": 86,
          "time": 122.13953488370545,
          "velocity": 0.4094488188976378,
          "duration": 0.034883720930224626
        },
        {
          "name": "G#6",
          "midi": 92,
          "time": 122.13953488370545,
          "velocity": 0.3779527559055118,
          "duration": 0.12790697674415696
        },
        {
          "name": "A6",
          "midi": 93,
          "time": 122.13953488370545,
          "velocity": 0.4094488188976378,
          "duration": 0.034883720930224626
        },
        {
          "name": "B6",
          "midi": 95,
          "time": 122.13953488370545,
          "velocity": 0.25984251968503935,
          "duration": 0.10465116279067388
        },
        {
          "name": "C7",
          "midi": 96,
          "time": 122.13953488370545,
          "velocity": 0.3228346456692913,
          "duration": 0.10465116279067388
        },
        {
          "name": "D#7",
          "midi": 99,
          "time": 122.13953488370545,
          "velocity": 0.36220472440944884,
          "duration": 0.3023255813952801
        },
        {
          "name": "F#7",
          "midi": 102,
          "time": 122.13953488370545,
          "velocity": 0.25984251968503935,
          "duration": 0.11627906976741542
        },
        {
          "name": "G7",
          "midi": 103,
          "time": 122.13953488370545,
          "velocity": 0.2283464566929134,
          "duration": 0.10465116279067388
        },
        {
          "name": "B3",
          "midi": 59,
          "time": 122.15116279068219,
          "velocity": 0.33858267716535434,
          "duration": 0.023255813953483084
        },
        {
          "name": "E5",
          "midi": 76,
          "time": 122.15116279068219,
          "velocity": 0.2283464566929134,
          "duration": 0.023255813953483084
        },
        {
          "name": "F#6",
          "midi": 90,
          "time": 122.15116279068219,
          "velocity": 0.2283464566929134,
          "duration": 0.023255813953483084
        },
        {
          "name": "G6",
          "midi": 91,
          "time": 122.15116279068219,
          "velocity": 0.33070866141732286,
          "duration": 0.0813953488371908
        },
        {
          "name": "E7",
          "midi": 100,
          "time": 122.15116279068219,
          "velocity": 0.25196850393700787,
          "duration": 0.11627906976741542
        },
        {
          "name": "G1",
          "midi": 31,
          "time": 122.16279069765893,
          "velocity": 0.49606299212598426,
          "duration": 0.034883720930224626
        },
        {
          "name": "G#4",
          "midi": 68,
          "time": 122.16279069765893,
          "velocity": 0.3700787401574803,
          "duration": 0.034883720930224626
        },
        {
          "name": "F#5",
          "midi": 78,
          "time": 122.16279069765893,
          "velocity": 0.31496062992125984,
          "duration": 0.023255813953483084
        },
        {
          "name": "G#5",
          "midi": 80,
          "time": 122.16279069765893,
          "velocity": 0.49606299212598426,
          "duration": 0.39534883720921243
        },
        {
          "name": "C6",
          "midi": 84,
          "time": 122.16279069765893,
          "velocity": 0.3700787401574803,
          "duration": 0.034883720930224626
        },
        {
          "name": "D#6",
          "midi": 87,
          "time": 122.16279069765893,
          "velocity": 0.3464566929133858,
          "duration": 0.06976744186044925
        },
        {
          "name": "C#4",
          "midi": 61,
          "time": 122.17441860463568,
          "velocity": 0.3543307086614173,
          "duration": 0.23255813953483084
        },
        {
          "name": "C#5",
          "midi": 73,
          "time": 122.17441860463568,
          "velocity": 0.41732283464566927,
          "duration": 0.18604651162786467
        },
        {
          "name": "D#5",
          "midi": 75,
          "time": 122.17441860463568,
          "velocity": 0.2992125984251969,
          "duration": 0.034883720930224626
        },
        {
          "name": "E6",
          "midi": 88,
          "time": 122.17441860463568,
          "velocity": 0.2992125984251969,
          "duration": 0.05813953488370771
        },
        {
          "name": "B5",
          "midi": 83,
          "time": 122.18604651161242,
          "velocity": 0.3464566929133858,
          "duration": 0.10465116279067388
        },
        {
          "name": "D6",
          "midi": 86,
          "time": 122.18604651161242,
          "velocity": 0.25984251968503935,
          "duration": 0.09302325581393234
        },
        {
          "name": "F#6",
          "midi": 90,
          "time": 122.18604651161242,
          "velocity": 0.31496062992125984,
          "duration": 0.11627906976741542
        },
        {
          "name": "A6",
          "midi": 93,
          "time": 122.18604651161242,
          "velocity": 0.25196850393700787,
          "duration": 0.04651162790696617
        },
        {
          "name": "F5",
          "midi": 77,
          "time": 122.19767441858916,
          "velocity": 0.33070866141732286,
          "duration": 0.06976744186044925
        },
        {
          "name": "F#4",
          "midi": 66,
          "time": 122.23255813951938,
          "velocity": 0.2440944881889764,
          "duration": 0.034883720930224626
        },
        {
          "name": "E5",
          "midi": 76,
          "time": 122.25581395347287,
          "velocity": 0.15748031496062992,
          "duration": 0.034883720930224626
        },
        {
          "name": "G#4",
          "midi": 68,
          "time": 122.26744186044961,
          "velocity": 0.2440944881889764,
          "duration": 0.05813953488370771
        },
        {
          "name": "F#5",
          "midi": 78,
          "time": 122.26744186044961,
          "velocity": 0.3464566929133858,
          "duration": 0.20930232558134776
        },
        {
          "name": "A5",
          "midi": 81,
          "time": 122.29069767440309,
          "velocity": 0.2677165354330709,
          "duration": 0.04651162790696617
        },
        {
          "name": "E5",
          "midi": 76,
          "time": 122.33720930231006,
          "velocity": 0.09448818897637795,
          "duration": 0.034883720930224626
        },
        {
          "name": "C6",
          "midi": 84,
          "time": 122.3488372092868,
          "velocity": 0.1732283464566929,
          "duration": 0.034883720930224626
        },
        {
          "name": "F#4",
          "midi": 66,
          "time": 122.36046511626354,
          "velocity": 0.5669291338582677,
          "duration": 0.3255813953487632
        },
        {
          "name": "A5",
          "midi": 81,
          "time": 122.36046511626354,
          "velocity": 0.3228346456692913,
          "duration": 0.034883720930224626
        },
        {
          "name": "C#6",
          "midi": 85,
          "time": 122.36046511626354,
          "velocity": 0.5039370078740157,
          "duration": 1.1395348837206711
        },
        {
          "name": "D6",
          "midi": 86,
          "time": 122.36046511626354,
          "velocity": 0.14960629921259844,
          "duration": 0.04651162790696617
        },
        {
          "name": "A#3",
          "midi": 58,
          "time": 122.37209302324028,
          "velocity": 0.29133858267716534,
          "duration": 0.09302325581393234
        },
        {
          "name": "B4",
          "midi": 71,
          "time": 122.37209302324028,
          "velocity": 0.4881889763779528,
          "duration": 0.11627906976741542
        },
        {
          "name": "F6",
          "midi": 89,
          "time": 122.37209302324028,
          "velocity": 0.11023622047244094,
          "duration": 0.034883720930224626
        },
        {
          "name": "E5",
          "midi": 76,
          "time": 122.39534883719377,
          "velocity": 0.15748031496062992,
          "duration": 0.034883720930224626
        },
        {
          "name": "A#5",
          "midi": 82,
          "time": 122.39534883719377,
          "velocity": 0.3779527559055118,
          "duration": 0.1627906976743816
        },
        {
          "name": "D6",
          "midi": 86,
          "time": 122.44186046510073,
          "velocity": 0.4409448818897638,
          "duration": 0.19767441860460622
        },
        {
          "name": "C#4",
          "midi": 61,
          "time": 122.45348837207747,
          "velocity": 0.3543307086614173,
          "duration": 0.05813953488370771
        },
        {
          "name": "D#6",
          "midi": 87,
          "time": 122.46511627905421,
          "velocity": 0.28346456692913385,
          "duration": 0.034883720930224626
        },
        {
          "name": "F6",
          "midi": 89,
          "time": 122.46511627905421,
          "velocity": 0.1968503937007874,
          "duration": 0.05813953488370771
        },
        {
          "name": "A6",
          "midi": 93,
          "time": 122.47674418603096,
          "velocity": 0.11023622047244094,
          "duration": 0.04651162790696617
        },
        {
          "name": "A#4",
          "midi": 70,
          "time": 122.4883720930077,
          "velocity": 0.4566929133858268,
          "duration": 0.31395348837202164
        },
        {
          "name": "C#5",
          "midi": 73,
          "time": 122.4883720930077,
          "velocity": 0.5433070866141733,
          "duration": 0.11627906976741542
        },
        {
          "name": "B5",
          "midi": 83,
          "time": 122.4883720930077,
          "velocity": 0.2204724409448819,
          "duration": 0.034883720930224626
        },
        {
          "name": "F3",
          "midi": 53,
          "time": 122.51162790696118,
          "velocity": 0.29133858267716534,
          "duration": 0.023255813953483084
        },
        {
          "name": "F5",
          "midi": 77,
          "time": 122.51162790696118,
          "velocity": 0.44881889763779526,
          "duration": 0.7209302325579756
        },
        {
          "name": "C#4",
          "midi": 61,
          "time": 122.52325581393792,
          "velocity": 0.41732283464566927,
          "duration": 0.034883720930224626
        },
        {
          "name": "A#3",
          "midi": 58,
          "time": 122.5465116278914,
          "velocity": 0.4015748031496063,
          "duration": 0.10465116279067388
        },
        {
          "name": "A5",
          "midi": 81,
          "time": 122.5465116278914,
          "velocity": 0.3937007874015748,
          "duration": 0.023255813953483084
        },
        {
          "name": "F7",
          "midi": 101,
          "time": 122.55813953486815,
          "velocity": 0.2283464566929134,
          "duration": 0.0813953488371908
        },
        {
          "name": "G#5",
          "midi": 80,
          "time": 122.56976744184489,
          "velocity": 0.2992125984251969,
          "duration": 0.15116279069764005
        },
        {
          "name": "A#5",
          "midi": 82,
          "time": 122.56976744184489,
          "velocity": 0.5275590551181102,
          "duration": 0.24418604651157239
        },
        {
          "name": "G6",
          "midi": 91,
          "time": 122.58139534882163,
          "velocity": 0.25196850393700787,
          "duration": 0.05813953488370771
        },
        {
          "name": "E7",
          "midi": 100,
          "time": 122.58139534882163,
          "velocity": 0.14960629921259844,
          "duration": 0.034883720930224626
        },
        {
          "name": "F#6",
          "midi": 90,
          "time": 122.59302325579837,
          "velocity": 0.11811023622047244,
          "duration": 0.04651162790696617
        },
        {
          "name": "C5",
          "midi": 72,
          "time": 122.60465116277511,
          "velocity": 0.4251968503937008,
          "duration": 0.04651162790696617
        },
        {
          "name": "F#3",
          "midi": 54,
          "time": 122.6279069767286,
          "velocity": 0.28346456692913385,
          "duration": 0.023255813953483084
        },
        {
          "name": "D#6",
          "midi": 87,
          "time": 122.63953488370534,
          "velocity": 0.2283464566929134,
          "duration": 0.04651162790696617
        },
        {
          "name": "C#5",
          "midi": 73,
          "time": 122.65116279068208,
          "velocity": 0.5118110236220472,
          "duration": 0.24418604651157239
        },
        {
          "name": "A#3",
          "midi": 58,
          "time": 122.66279069765882,
          "velocity": 0.5039370078740157,
          "duration": 0.09302325581393234
        },
        {
          "name": "F7",
          "midi": 101,
          "time": 122.66279069765882,
          "velocity": 0.15748031496062992,
          "duration": 0.05813953488370771
        },
        {
          "name": "D6",
          "midi": 86,
          "time": 122.67441860463556,
          "velocity": 0.2755905511811024,
          "duration": 0.05813953488370771
        },
        {
          "name": "F#6",
          "midi": 90,
          "time": 122.67441860463556,
          "velocity": 0.12598425196850394,
          "duration": 0.034883720930224626
        },
        {
          "name": "F#5",
          "midi": 78,
          "time": 122.6860465116123,
          "velocity": 0.3858267716535433,
          "duration": 0.034883720930224626
        },
        {
          "name": "E6",
          "midi": 88,
          "time": 122.6860465116123,
          "velocity": 0.2047244094488189,
          "duration": 0.06976744186044925
        },
        {
          "name": "G6",
          "midi": 91,
          "time": 122.69767441858905,
          "velocity": 0.25196850393700787,
          "duration": 0.034883720930224626
        },
        {
          "name": "F#4",
          "midi": 66,
          "time": 122.70930232556579,
          "velocity": 0.4015748031496063,
          "duration": 0.12790697674415696
        },
        {
          "name": "D#6",
          "midi": 87,
          "time": 122.73255813951927,
          "velocity": 0.2677165354330709,
          "duration": 0.29069767441853855
        },
        {
          "name": "G#6",
          "midi": 92,
          "time": 122.73255813951927,
          "velocity": 0.07874015748031496,
          "duration": 0.04651162790696617
        },
        {
          "name": "C#4",
          "midi": 61,
          "time": 122.74418604649601,
          "velocity": 0.4330708661417323,
          "duration": 0.05813953488370771
        },
        {
          "name": "F7",
          "midi": 101,
          "time": 122.74418604649601,
          "velocity": 0.18110236220472442,
          "duration": 0.20930232558134776
        },
        {
          "name": "F#3",
          "midi": 54,
          "time": 122.7674418604495,
          "velocity": 0.25984251968503935,
          "duration": 0.023255813953483084
        },
        {
          "name": "C6",
          "midi": 84,
          "time": 122.7674418604495,
          "velocity": 0.18110236220472442,
          "duration": 0.034883720930224626
        },
        {
          "name": "D#5",
          "midi": 75,
          "time": 122.79069767440298,
          "velocity": 0.2992125984251969,
          "duration": 0.023255813953483084
        },
        {
          "name": "D6",
          "midi": 86,
          "time": 122.79069767440298,
          "velocity": 0.2283464566929134,
          "duration": 0.023255813953483084
        },
        {
          "name": "D3",
          "midi": 50,
          "time": 122.80232558137972,
          "velocity": 0.6299212598425197,
          "duration": 0.011627906976741542
        },
        {
          "name": "A4",
          "midi": 69,
          "time": 122.80232558137972,
          "velocity": 0.3937007874015748,
          "duration": 0.023255813953483084
        },
        {
          "name": "E6",
          "midi": 88,
          "time": 122.80232558137972,
          "velocity": 0.2125984251968504,
          "duration": 0.034883720930224626
        },
        {
          "name": "F#6",
          "midi": 90,
          "time": 122.80232558137972,
          "velocity": 0.23622047244094488,
          "duration": 0.2558139534883139
        },
        {
          "name": "G#6",
          "midi": 92,
          "time": 122.80232558137972,
          "velocity": 0.28346456692913385,
          "duration": 0.11627906976741542
        },
        {
          "name": "F#2",
          "midi": 42,
          "time": 122.81395348835646,
          "velocity": 0.6614173228346457,
          "duration": 0.011627906976741542
        },
        {
          "name": "D#3",
          "midi": 51,
          "time": 122.81395348835646,
          "velocity": 0.6220472440944882,
          "duration": 0.011627906976741542
        },
        {
          "name": "G#5",
          "midi": 80,
          "time": 122.81395348835646,
          "velocity": 0.33070866141732286,
          "duration": 0.05813953488370771
        },
        {
          "name": "E2",
          "midi": 40,
          "time": 122.8255813953332,
          "velocity": 0.7007874015748031,
          "duration": 0.011627906976741542
        },
        {
          "name": "G#3",
          "midi": 56,
          "time": 122.8255813953332,
          "velocity": 0.5354330708661418,
          "duration": 0.011627906976741542
        },
        {
          "name": "D#5",
          "midi": 75,
          "time": 122.8255813953332,
          "velocity": 0.2677165354330709,
          "duration": 0.0813953488371908
        },
        {
          "name": "C6",
          "midi": 84,
          "time": 122.8255813953332,
          "velocity": 0.28346456692913385,
          "duration": 0.10465116279067388
        },
        {
          "name": "C#2",
          "midi": 37,
          "time": 122.83720930230994,
          "velocity": 0.7480314960629921,
          "duration": 0.011627906976741542
        },
        {
          "name": "G3",
          "midi": 55,
          "time": 122.83720930230994,
          "velocity": 0.5118110236220472,
          "duration": 0.023255813953483084
        },
        {
          "name": "C#4",
          "midi": 61,
          "time": 122.83720930230994,
          "velocity": 0.4645669291338583,
          "duration": 0.3372093023255047
        },
        {
          "name": "C2",
          "midi": 36,
          "time": 122.84883720928669,
          "velocity": 0.7637795275590551,
          "duration": 0.011627906976741542
        },
        {
          "name": "G6",
          "midi": 91,
          "time": 122.84883720928669,
          "velocity": 0.11023622047244094,
          "duration": 0.05813953488370771
        },
        {
          "name": "A#1",
          "midi": 34,
          "time": 122.86046511626343,
          "velocity": 0.7401574803149606,
          "duration": 0.023255813953483084
        },
        {
          "name": "F4",
          "midi": 65,
          "time": 122.86046511626343,
          "velocity": 0.4881889763779528,
          "duration": 0.18604651162786467
        },
        {
          "name": "A6",
          "midi": 93,
          "time": 122.86046511626343,
          "velocity": 0.12598425196850394,
          "duration": 0.04651162790696617
        },
        {
          "name": "A5",
          "midi": 81,
          "time": 122.87209302324017,
          "velocity": 0.2047244094488189,
          "duration": 0.06976744186044925
        },
        {
          "name": "B6",
          "midi": 95,
          "time": 122.87209302324017,
          "velocity": 0.1968503937007874,
          "duration": 0.10465116279067388
        },
        {
          "name": "A1",
          "midi": 33,
          "time": 122.88372093021691,
          "velocity": 0.6771653543307087,
          "duration": 0.011627906976741542
        },
        {
          "name": "G#3",
          "midi": 56,
          "time": 122.88372093021691,
          "velocity": 0.5433070866141733,
          "duration": 0.04651162790696617
        },
        {
          "name": "G#1",
          "midi": 32,
          "time": 122.89534883719365,
          "velocity": 0.6614173228346457,
          "duration": 0.023255813953483084
        },
        {
          "name": "A#5",
          "midi": 82,
          "time": 122.89534883719365,
          "velocity": 0.2440944881889764,
          "duration": 0.12790697674415696
        },
        {
          "name": "G1",
          "midi": 31,
          "time": 122.91860465114713,
          "velocity": 0.7559055118110236,
          "duration": 0.1395348837208985
        },
        {
          "name": "A6",
          "midi": 93,
          "time": 122.91860465114713,
          "velocity": 0.29133858267716534,
          "duration": 0.1627906976743816
        },
        {
          "name": "G3",
          "midi": 55,
          "time": 122.93023255812388,
          "velocity": 0.5433070866141733,
          "duration": 0.011627906976741542
        },
        {
          "name": "G#5",
          "midi": 80,
          "time": 122.93023255812388,
          "velocity": 0.4251968503937008,
          "duration": 0.24418604651157239
        },
        {
          "name": "D5",
          "midi": 74,
          "time": 122.94186046510062,
          "velocity": 0.3779527559055118,
          "duration": 0.034883720930224626
        },
        {
          "name": "C6",
          "midi": 84,
          "time": 122.94186046510062,
          "velocity": 0.13385826771653545,
          "duration": 0.04651162790696617
        },
        {
          "name": "E6",
          "midi": 88,
          "time": 122.94186046510062,
          "velocity": 0.29133858267716534,
          "duration": 0.20930232558134776
        },
        {
          "name": "G3",
          "midi": 55,
          "time": 122.9651162790541,
          "velocity": 0.5196850393700787,
          "duration": 0.011627906976741542
        },
        {
          "name": "D#5",
          "midi": 75,
          "time": 122.9651162790541,
          "velocity": 0.28346456692913385,
          "duration": 0.04651162790696617
        },
        {
          "name": "C5",
          "midi": 72,
          "time": 122.97674418603084,
          "velocity": 0.30708661417322836,
          "duration": 0.04651162790696617
        },
        {
          "name": "G#2",
          "midi": 44,
          "time": 122.98837209300758,
          "velocity": 0.3779527559055118,
          "duration": 0.023255813953483084
        },
        {
          "name": "F3",
          "midi": 53,
          "time": 122.98837209300758,
          "velocity": 0.47244094488188976,
          "duration": 0.023255813953483084
        },
        {
          "name": "D5",
          "midi": 74,
          "time": 122.98837209300758,
          "velocity": 0.31496062992125984,
          "duration": 0.034883720930224626
        },
        {
          "name": "C6",
          "midi": 84,
          "time": 123.02325581393781,
          "velocity": 0.25196850393700787,
          "duration": 0.04651162790696617
        },
        {
          "name": "D5",
          "midi": 74,
          "time": 123.03488372091455,
          "velocity": 0.4015748031496063,
          "duration": 0.023255813953483084
        },
        {
          "name": "A#5",
          "midi": 82,
          "time": 123.03488372091455,
          "velocity": 0.10236220472440945,
          "duration": 0.034883720930224626
        },
        {
          "name": "F3",
          "midi": 53,
          "time": 123.04651162789129,
          "velocity": 0.5118110236220472,
          "duration": 0.023255813953483084
        },
        {
          "name": "G#1",
          "midi": 32,
          "time": 123.05813953486803,
          "velocity": 0.7165354330708661,
          "duration": 0.034883720930224626
        },
        {
          "name": "D#5",
          "midi": 75,
          "time": 123.08139534882152,
          "velocity": 0.3228346456692913,
          "duration": 0.04651162790696617
        },
        {
          "name": "A1",
          "midi": 33,
          "time": 123.09302325579826,
          "velocity": 0.6614173228346457,
          "duration": 0.011627906976741542
        },
        {
          "name": "G#1",
          "midi": 32,
          "time": 123.104651162775,
          "velocity": 0.6771653543307087,
          "duration": 0.3604651162789878
        },
        {
          "name": "F3",
          "midi": 53,
          "time": 123.11627906975174,
          "velocity": 0.5118110236220472,
          "duration": 0.023255813953483084
        },
        {
          "name": "G#3",
          "midi": 56,
          "time": 123.12790697672848,
          "velocity": 0.3700787401574803,
          "duration": 0.023255813953483084
        },
        {
          "name": "A4",
          "midi": 69,
          "time": 123.12790697672848,
          "velocity": 0.3779527559055118,
          "duration": 0.023255813953483084
        },
        {
          "name": "D#6",
          "midi": 87,
          "time": 123.12790697672848,
          "velocity": 0.30708661417322836,
          "duration": 0.1395348837208985
        },
        {
          "name": "F#6",
          "midi": 90,
          "time": 123.12790697672848,
          "velocity": 0.3779527559055118,
          "duration": 0.406976744185954
        },
        {
          "name": "A6",
          "midi": 93,
          "time": 123.12790697672848,
          "velocity": 0.2440944881889764,
          "duration": 0.034883720930224626
        },
        {
          "name": "A#6",
          "midi": 94,
          "time": 123.12790697672848,
          "velocity": 0.2125984251968504,
          "duration": 0.04651162790696617
        },
        {
          "name": "B5",
          "midi": 83,
          "time": 123.15116279068197,
          "velocity": 0.13385826771653545,
          "duration": 0.09302325581393234
        },
        {
          "name": "C6",
          "midi": 84,
          "time": 123.15116279068197,
          "velocity": 0.1968503937007874,
          "duration": 0.034883720930224626
        },
        {
          "name": "E3",
          "midi": 52,
          "time": 123.1627906976587,
          "velocity": 0.48031496062992124,
          "duration": 0.023255813953483084
        },
        {
          "name": "A4",
          "midi": 69,
          "time": 123.1627906976587,
          "velocity": 0.44881889763779526,
          "duration": 0.023255813953483084
        },
        {
          "name": "D#5",
          "midi": 75,
          "time": 123.1627906976587,
          "velocity": 0.3700787401574803,
          "duration": 0.1395348837208985
        },
        {
          "name": "G#4",
          "midi": 68,
          "time": 123.17441860463545,
          "velocity": 0.49606299212598426,
          "duration": 0.15116279069764005
        },
        {
          "name": "F3",
          "midi": 53,
          "time": 123.18604651161219,
          "velocity": 0.44881889763779526,
          "duration": 0.04651162790696617
        },
        {
          "name": "C#4",
          "midi": 61,
          "time": 123.20930232556567,
          "velocity": 0.36220472440944884,
          "duration": 0.12790697674415696
        },
        {
          "name": "A#6",
          "midi": 94,
          "time": 123.23255813951916,
          "velocity": 0.2755905511811024,
          "duration": 0.04651162790696617
        },
        {
          "name": "G7",
          "midi": 103,
          "time": 123.23255813951916,
          "velocity": 0.14960629921259844,
          "duration": 0.034883720930224626
        },
        {
          "name": "F#3",
          "midi": 54,
          "time": 123.2441860464959,
          "velocity": 0.3779527559055118,
          "duration": 0.023255813953483084
        },
        {
          "name": "E5",
          "midi": 76,
          "time": 123.2441860464959,
          "velocity": 0.3464566929133858,
          "duration": 0.023255813953483084
        },
        {
          "name": "A#5",
          "midi": 82,
          "time": 123.2441860464959,
          "velocity": 0.25984251968503935,
          "duration": 0.12790697674415696
        },
        {
          "name": "F6",
          "midi": 89,
          "time": 123.2441860464959,
          "velocity": 0.25984251968503935,
          "duration": 0.05813953488370771
        },
        {
          "name": "E3",
          "midi": 52,
          "time": 123.26744186044938,
          "velocity": 0.4330708661417323,
          "duration": 0.034883720930224626
        },
        {
          "name": "F4",
          "midi": 65,
          "time": 123.26744186044938,
          "velocity": 0.14173228346456693,
          "duration": 0.034883720930224626
        },
        {
          "name": "F5",
          "midi": 77,
          "time": 123.26744186044938,
          "velocity": 0.48031496062992124,
          "duration": 0.15116279069764005
        },
        {
          "name": "A6",
          "midi": 93,
          "time": 123.26744186044938,
          "velocity": 0.07874015748031496,
          "duration": 0.034883720930224626
        },
        {
          "name": "C#5",
          "midi": 73,
          "time": 123.29069767440286,
          "velocity": 0.4409448818897638,
          "duration": 0.18604651162786467
        },
        {
          "name": "D#5",
          "midi": 75,
          "time": 123.31395348835635,
          "velocity": 0.36220472440944884,
          "duration": 0.034883720930224626
        },
        {
          "name": "E3",
          "midi": 52,
          "time": 123.32558139533309,
          "velocity": 0.4094488188976378,
          "duration": 0.023255813953483084
        },
        {
          "name": "G4",
          "midi": 67,
          "time": 123.32558139533309,
          "velocity": 0.30708661417322836,
          "duration": 0.023255813953483084
        },
        {
          "name": "A4",
          "midi": 69,
          "time": 123.32558139533309,
          "velocity": 0.3700787401574803,
          "duration": 0.04651162790696617
        },
        {
          "name": "A6",
          "midi": 93,
          "time": 123.32558139533309,
          "velocity": 0.18110236220472442,
          "duration": 0.05813953488370771
        },
        {
          "name": "A#6",
          "midi": 94,
          "time": 123.32558139533309,
          "velocity": 0.31496062992125984,
          "duration": 0.05813953488370771
        },
        {
          "name": "B5",
          "midi": 83,
          "time": 123.33720930230983,
          "velocity": 0.14173228346456693,
          "duration": 0.034883720930224626
        },
        {
          "name": "D6",
          "midi": 86,
          "time": 123.33720930230983,
          "velocity": 0.25984251968503935,
          "duration": 0.034883720930224626
        },
        {
          "name": "E6",
          "midi": 88,
          "time": 123.33720930230983,
          "velocity": 0.14173228346456693,
          "duration": 0.0813953488371908
        },
        {
          "name": "G#6",
          "midi": 92,
          "time": 123.33720930230983,
          "velocity": 0.4330708661417323,
          "duration": 0.1395348837208985
        },
        {
          "name": "C7",
          "midi": 96,
          "time": 123.33720930230983,
          "velocity": 0.23622047244094488,
          "duration": 0.06976744186044925
        },
        {
          "name": "G#3",
          "midi": 56,
          "time": 123.34883720928657,
          "velocity": 0.3228346456692913,
          "duration": 0.023255813953483084
        },
        {
          "name": "C#4",
          "midi": 61,
          "time": 123.34883720928657,
          "velocity": 0.48031496062992124,
          "duration": 0.2558139534883139
        },
        {
          "name": "F4",
          "midi": 65,
          "time": 123.36046511626331,
          "velocity": 0.4566929133858268,
          "duration": 0.29069767441853855
        },
        {
          "name": "D#5",
          "midi": 75,
          "time": 123.36046511626331,
          "velocity": 0.4881889763779528,
          "duration": 0.09302325581393234
        },
        {
          "name": "G#4",
          "midi": 68,
          "time": 123.37209302324005,
          "velocity": 0.5590551181102362,
          "duration": 0.6162790697673017
        },
        {
          "name": "A#5",
          "midi": 82,
          "time": 123.3837209302168,
          "velocity": 0.25984251968503935,
          "duration": 0.12790697674415696
        },
        {
          "name": "D#3",
          "midi": 51,
          "time": 123.39534883719354,
          "velocity": 0.3543307086614173,
          "duration": 0.05813953488370771
        },
        {
          "name": "C6",
          "midi": 84,
          "time": 123.39534883719354,
          "velocity": 0.2283464566929134,
          "duration": 0.023255813953483084
        },
        {
          "name": "G6",
          "midi": 91,
          "time": 123.40697674417028,
          "velocity": 0.3779527559055118,
          "duration": 0.0813953488371908
        },
        {
          "name": "B4",
          "midi": 71,
          "time": 123.43023255812376,
          "velocity": 0.25196850393700787,
          "duration": 0.034883720930224626
        },
        {
          "name": "C6",
          "midi": 84,
          "time": 123.43023255812376,
          "velocity": 0.25196850393700787,
          "duration": 0.023255813953483084
        },
        {
          "name": "E6",
          "midi": 88,
          "time": 123.4418604651005,
          "velocity": 0.33070866141732286,
          "duration": 0.034883720930224626
        },
        {
          "name": "B6",
          "midi": 95,
          "time": 123.4418604651005,
          "velocity": 0.31496062992125984,
          "duration": 0.06976744186044925
        },
        {
          "name": "F7",
          "midi": 101,
          "time": 123.4418604651005,
          "velocity": 0.25196850393700787,
          "duration": 0.10465116279067388
        },
        {
          "name": "B5",
          "midi": 83,
          "time": 123.45348837207725,
          "velocity": 0.2992125984251969,
          "duration": 0.023255813953483084
        },
        {
          "name": "D#7",
          "midi": 99,
          "time": 123.45348837207725,
          "velocity": 0.33858267716535434,
          "duration": 0.17441860465112313
        },
        {
          "name": "A#1",
          "midi": 34,
          "time": 123.46511627905399,
          "velocity": 0.5669291338582677,
          "duration": 0.011627906976741542
        },
        {
          "name": "E5",
          "midi": 76,
          "time": 123.46511627905399,
          "velocity": 0.4566929133858268,
          "duration": 0.034883720930224626
        },
        {
          "name": "G5",
          "midi": 79,
          "time": 123.46511627905399,
          "velocity": 0.3228346456692913,
          "duration": 0.023255813953483084
        },
        {
          "name": "D#6",
          "midi": 87,
          "time": 123.46511627905399,
          "velocity": 0.5118110236220472,
          "duration": 0.31395348837202164
        },
        {
          "name": "F6",
          "midi": 89,
          "time": 123.46511627905399,
          "velocity": 0.2755905511811024,
          "duration": 0.05813953488370771
        },
        {
          "name": "A6",
          "midi": 93,
          "time": 123.46511627905399,
          "velocity": 0.3228346456692913,
          "duration": 0.0813953488371908
        },
        {
          "name": "C7",
          "midi": 96,
          "time": 123.46511627905399,
          "velocity": 0.29133858267716534,
          "duration": 0.1395348837208985
        },
        {
          "name": "D7",
          "midi": 98,
          "time": 123.46511627905399,
          "velocity": 0.25984251968503935,
          "duration": 0.0813953488371908
        },
        {
          "name": "G#3",
          "midi": 56,
          "time": 123.47674418603073,
          "velocity": 0.29133858267716534,
          "duration": 0.18604651162786467
        },
        {
          "name": "C6",
          "midi": 84,
          "time": 123.47674418603073,
          "velocity": 0.3543307086614173,
          "duration": 0.04651162790696617
        },
        {
          "name": "E7",
          "midi": 100,
          "time": 123.47674418603073,
          "velocity": 0.28346456692913385,
          "duration": 0.09302325581393234
        },
        {
          "name": "B4",
          "midi": 71,
          "time": 123.48837209300747,
          "velocity": 0.25984251968503935,
          "duration": 0.034883720930224626
        },
        {
          "name": "G6",
          "midi": 91,
          "time": 123.49999999998421,
          "velocity": 0.4015748031496063,
          "duration": 0.31395348837202164
        },
        {
          "name": "D#5",
          "midi": 75,
          "time": 123.5232558139377,
          "velocity": 0.14960629921259844,
          "duration": 0.034883720930224626
        },
        {
          "name": "F5",
          "midi": 77,
          "time": 123.5813953488214,
          "velocity": 0.5354330708661418,
          "duration": 0.3255813953487632
        },
        {
          "name": "C#5",
          "midi": 73,
          "time": 123.59302325579814,
          "velocity": 0.49606299212598426,
          "duration": 0.5116279069766279
        },
        {
          "name": "D#5",
          "midi": 75,
          "time": 123.59302325579814,
          "velocity": 0.15748031496062992,
          "duration": 0.034883720930224626
        },
        {
          "name": "A6",
          "midi": 93,
          "time": 123.61627906975163,
          "velocity": 0.12598425196850394,
          "duration": 0.034883720930224626
        },
        {
          "name": "C6",
          "midi": 84,
          "time": 123.62790697672837,
          "velocity": 0.16535433070866143,
          "duration": 0.12790697674415696
        },
        {
          "name": "A#6",
          "midi": 94,
          "time": 123.63953488370511,
          "velocity": 0.2047244094488189,
          "duration": 0.06976744186044925
        },
        {
          "name": "G#6",
          "midi": 92,
          "time": 123.65116279068185,
          "velocity": 0.30708661417322836,
          "duration": 0.279069767441797
        },
        {
          "name": "F#5",
          "midi": 78,
          "time": 123.6627906976586,
          "velocity": 0.2677165354330709,
          "duration": 0.023255813953483084
        },
        {
          "name": "A5",
          "midi": 81,
          "time": 123.6627906976586,
          "velocity": 0.14173228346456693,
          "duration": 0.034883720930224626
        },
        {
          "name": "B5",
          "midi": 83,
          "time": 123.6627906976586,
          "velocity": 0.15748031496062992,
          "duration": 0.034883720930224626
        },
        {
          "name": "A6",
          "midi": 93,
          "time": 123.6627906976586,
          "velocity": 0.1889763779527559,
          "duration": 0.034883720930224626
        },
        {
          "name": "B6",
          "midi": 95,
          "time": 123.6627906976586,
          "velocity": 0.1889763779527559,
          "duration": 0.034883720930224626
        },
        {
          "name": "C7",
          "midi": 96,
          "time": 123.6627906976586,
          "velocity": 0.2755905511811024,
          "duration": 0.0813953488371908
        },
        {
          "name": "F4",
          "midi": 65,
          "time": 123.67441860463533,
          "velocity": 0.5275590551181102,
          "duration": 0.43023255813943706
        },
        {
          "name": "G5",
          "midi": 79,
          "time": 123.67441860463533,
          "velocity": 0.2992125984251969,
          "duration": 0.023255813953483084
        },
        {
          "name": "D#5",
          "midi": 75,
          "time": 123.68604651161208,
          "velocity": 0.1732283464566929,
          "duration": 0.034883720930224626
        },
        {
          "name": "F#6",
          "midi": 90,
          "time": 123.68604651161208,
          "velocity": 0.14960629921259844,
          "duration": 0.06976744186044925
        },
        {
          "name": "G#3",
          "midi": 56,
          "time": 123.69767441858882,
          "velocity": 0.3700787401574803,
          "duration": 0.04651162790696617
        },
        {
          "name": "C#4",
          "midi": 61,
          "time": 123.69767441858882,
          "velocity": 0.3543307086614173,
          "duration": 0.0813953488371908
        },
        {
          "name": "E6",
          "midi": 88,
          "time": 123.70930232556556,
          "velocity": 0.11811023622047244,
          "duration": 0.034883720930224626
        },
        {
          "name": "A6",
          "midi": 93,
          "time": 123.73255813951904,
          "velocity": 0.1968503937007874,
          "duration": 0.0813953488371908
        },
        {
          "name": "G3",
          "midi": 55,
          "time": 123.74418604649578,
          "velocity": 0.3858267716535433,
          "duration": 0.023255813953483084
        },
        {
          "name": "G#3",
          "midi": 56,
          "time": 123.76744186044927,
          "velocity": 0.36220472440944884,
          "duration": 0.023255813953483084
        },
        {
          "name": "C6",
          "midi": 84,
          "time": 123.76744186044927,
          "velocity": 0.31496062992125984,
          "duration": 0.18604651162786467
        },
        {
          "name": "D6",
          "midi": 86,
          "time": 123.76744186044927,
          "velocity": 0.3700787401574803,
          "duration": 0.023255813953483084
        },
        {
          "name": "A5",
          "midi": 81,
          "time": 123.77906976742601,
          "velocity": 0.33070866141732286,
          "duration": 0.023255813953483084
        },
        {
          "name": "F#6",
          "midi": 90,
          "time": 123.77906976742601,
          "velocity": 0.2440944881889764,
          "duration": 0.034883720930224626
        },
        {
          "name": "A#6",
          "midi": 94,
          "time": 123.79069767440275,
          "velocity": 0.14960629921259844,
          "duration": 0.04651162790696617
        },
        {
          "name": "G#3",
          "midi": 56,
          "time": 123.80232558137949,
          "velocity": 0.3858267716535433,
          "duration": 0.2209302325580893
        },
        {
          "name": "E5",
          "midi": 76,
          "time": 123.80232558137949,
          "velocity": 0.29133858267716534,
          "duration": 0.023255813953483084
        },
        {
          "name": "D#6",
          "midi": 87,
          "time": 123.80232558137949,
          "velocity": 0.29133858267716534,
          "duration": 0.26744186046505547
        },
        {
          "name": "D6",
          "midi": 86,
          "time": 123.81395348835623,
          "velocity": 0.14960629921259844,
          "duration": 0.0813953488371908
        },
        {
          "name": "C#4",
          "midi": 61,
          "time": 123.82558139533297,
          "velocity": 0.3464566929133858,
          "duration": 0.1627906976743816
        },
        {
          "name": "D#5",
          "midi": 75,
          "time": 123.82558139533297,
          "velocity": 0.3464566929133858,
          "duration": 0.034883720930224626
        },
        {
          "name": "G6",
          "midi": 91,
          "time": 123.84883720928646,
          "velocity": 0.14173228346456693,
          "duration": 0.06976744186044925
        },
        {
          "name": "F#6",
          "midi": 90,
          "time": 123.8604651162632,
          "velocity": 0.15748031496062992,
          "duration": 0.034883720930224626
        },
        {
          "name": "A6",
          "midi": 93,
          "time": 123.87209302323994,
          "velocity": 0.29133858267716534,
          "duration": 0.26744186046505547
        },
        {
          "name": "F#5",
          "midi": 78,
          "time": 123.89534883719342,
          "velocity": 0.4330708661417323,
          "duration": 0.034883720930224626
        },
        {
          "name": "D#5",
          "midi": 75,
          "time": 123.90697674417017,
          "velocity": 0.2440944881889764,
          "duration": 0.15116279069764005
        },
        {
          "name": "F#5",
          "midi": 78,
          "time": 123.94186046510039,
          "velocity": 0.2992125984251969,
          "duration": 0.023255813953483084
        },
        {
          "name": "C6",
          "midi": 84,
          "time": 123.97674418603061,
          "velocity": 0.28346456692913385,
          "duration": 0.06976744186044925
        },
        {
          "name": "D6",
          "midi": 86,
          "time": 123.97674418603061,
          "velocity": 0.14960629921259844,
          "duration": 0.034883720930224626
        },
        {
          "name": "A#6",
          "midi": 94,
          "time": 123.97674418603061,
          "velocity": 0.13385826771653545,
          "duration": 0.04651162790696617
        },
        {
          "name": "G5",
          "midi": 79,
          "time": 123.98837209300736,
          "velocity": 0.3858267716535433,
          "duration": 0.034883720930224626
        },
        {
          "name": "C#4",
          "midi": 61,
          "time": 123.9999999999841,
          "velocity": 0.29133858267716534,
          "duration": 0.04651162790696617
        },
        {
          "name": "E6",
          "midi": 88,
          "time": 123.9999999999841,
          "velocity": 0.07086614173228346,
          "duration": 0.04651162790696617
        },
        {
          "name": "F#5",
          "midi": 78,
          "time": 124.01162790696084,
          "velocity": 0.4566929133858268,
          "duration": 0.034883720930224626
        },
        {
          "name": "C#7",
          "midi": 97,
          "time": 124.01162790696084,
          "velocity": 0.2440944881889764,
          "duration": 0.406976744185954
        },
        {
          "name": "G#4",
          "midi": 68,
          "time": 124.02325581393758,
          "velocity": 0.1889763779527559,
          "duration": 0.0813953488371908
        },
        {
          "name": "G#5",
          "midi": 80,
          "time": 124.02325581393758,
          "velocity": 0.4251968503937008,
          "duration": 0.10465116279067388
        },
        {
          "name": "G#3",
          "midi": 56,
          "time": 124.0581395348678,
          "velocity": 0.3543307086614173,
          "duration": 0.04651162790696617
        },
        {
          "name": "C6",
          "midi": 84,
          "time": 124.0581395348678,
          "velocity": 0.33858267716535434,
          "duration": 0.2558139534883139
        },
        {
          "name": "A#6",
          "midi": 94,
          "time": 124.0581395348678,
          "velocity": 0.28346456692913385,
          "duration": 0.43023255813943706
        },
        {
          "name": "F#6",
          "midi": 90,
          "time": 124.06976744184455,
          "velocity": 0.1732283464566929,
          "duration": 0.04651162790696617
        },
        {
          "name": "B4",
          "midi": 71,
          "time": 124.09302325579803,
          "velocity": 0.3228346456692913,
          "duration": 0.05813953488370771
        },
        {
          "name": "D#3",
          "midi": 51,
          "time": 124.10465116277477,
          "velocity": 0.6141732283464567,
          "duration": 0.011627906976741542
        },
        {
          "name": "F#4",
          "midi": 66,
          "time": 124.10465116277477,
          "velocity": 0.3543307086614173,
          "duration": 0.023255813953483084
        },
        {
          "name": "G5",
          "midi": 79,
          "time": 124.10465116277477,
          "velocity": 0.3937007874015748,
          "duration": 0.0813953488371908
        },
        {
          "name": "D#6",
          "midi": 87,
          "time": 124.10465116277477,
          "velocity": 0.47244094488188976,
          "duration": 0.5813953488370771
        },
        {
          "name": "D7",
          "midi": 98,
          "time": 124.10465116277477,
          "velocity": 0.25196850393700787,
          "duration": 0.10465116279067388
        },
        {
          "name": "C3",
          "midi": 48,
          "time": 124.11627906975151,
          "velocity": 0.6692913385826772,
          "duration": 0.011627906976741542
        },
        {
          "name": "D4",
          "midi": 62,
          "time": 124.11627906975151,
          "velocity": 0.4330708661417323,
          "duration": 0.023255813953483084
        },
        {
          "name": "D#5",
          "midi": 75,
          "time": 124.11627906975151,
          "velocity": 0.4015748031496063,
          "duration": 0.20930232558134776
        },
        {
          "name": "F2",
          "midi": 41,
          "time": 124.12790697672826,
          "velocity": 0.6850393700787402,
          "duration": 0.011627906976741542
        },
        {
          "name": "D3",
          "midi": 50,
          "time": 124.12790697672826,
          "velocity": 0.5196850393700787,
          "duration": 0.011627906976741542
        },
        {
          "name": "C#5",
          "midi": 73,
          "time": 124.12790697672826,
          "velocity": 0.23622047244094488,
          "duration": 0.06976744186044925
        },
        {
          "name": "F#6",
          "midi": 90,
          "time": 124.12790697672826,
          "velocity": 0.1889763779527559,
          "duration": 0.1627906976743816
        },
        {
          "name": "C#2",
          "midi": 37,
          "time": 124.139534883705,
          "velocity": 0.7086614173228346,
          "duration": 0.011627906976741542
        },
        {
          "name": "G#3",
          "midi": 56,
          "time": 124.139534883705,
          "velocity": 0.3937007874015748,
          "duration": 0.034883720930224626
        },
        {
          "name": "C4",
          "midi": 60,
          "time": 124.139534883705,
          "velocity": 0.41732283464566927,
          "duration": 0.17441860465112313
        },
        {
          "name": "G#4",
          "midi": 68,
          "time": 124.139534883705,
          "velocity": 0.5826771653543307,
          "duration": 0.47674418604640323
        },
        {
          "name": "C2",
          "midi": 36,
          "time": 124.15116279068174,
          "velocity": 0.7322834645669292,
          "duration": 0.011627906976741542
        },
        {
          "name": "A#4",
          "midi": 70,
          "time": 124.15116279068174,
          "velocity": 0.2125984251968504,
          "duration": 0.06976744186044925
        },
        {
          "name": "G#6",
          "midi": 92,
          "time": 124.15116279068174,
          "velocity": 0.1968503937007874,
          "duration": 0.0813953488371908
        },
        {
          "name": "B1",
          "midi": 35,
          "time": 124.16279069765848,
          "velocity": 0.7322834645669292,
          "duration": 0.011627906976741542
        },
        {
          "name": "D#4",
          "midi": 63,
          "time": 124.16279069765848,
          "velocity": 0.29133858267716534,
          "duration": 0.023255813953483084
        },
        {
          "name": "E6",
          "midi": 88,
          "time": 124.16279069765848,
          "velocity": 0.14960629921259844,
          "duration": 0.05813953488370771
        },
        {
          "name": "F#7",
          "midi": 102,
          "time": 124.16279069765848,
          "velocity": 0.1968503937007874,
          "duration": 0.06976744186044925
        },
        {
          "name": "A#1",
          "midi": 34,
          "time": 124.17441860463522,
          "velocity": 0.7086614173228346,
          "duration": 0.011627906976741542
        },
        {
          "name": "E7",
          "midi": 100,
          "time": 124.17441860463522,
          "velocity": 0.1889763779527559,
          "duration": 0.12790697674415696
        },
        {
          "name": "A1",
          "midi": 33,
          "time": 124.18604651161196,
          "velocity": 0.6692913385826772,
          "duration": 0.023255813953483084
        },
        {
          "name": "G#3",
          "midi": 56,
          "time": 124.18604651161196,
          "velocity": 0.41732283464566927,
          "duration": 0.1395348837208985
        },
        {
          "name": "G6",
          "midi": 91,
          "time": 124.18604651161196,
          "velocity": 0.14960629921259844,
          "duration": 0.034883720930224626
        },
        {
          "name": "D#4",
          "midi": 63,
          "time": 124.1976744185887,
          "velocity": 0.36220472440944884,
          "duration": 0.09302325581393234
        },
        {
          "name": "G5",
          "midi": 79,
          "time": 124.1976744185887,
          "velocity": 0.4015748031496063,
          "duration": 0.034883720930224626
        },
        {
          "name": "A5",
          "midi": 81,
          "time": 124.1976744185887,
          "velocity": 0.28346456692913385,
          "duration": 0.023255813953483084
        },
        {
          "name": "A#5",
          "midi": 82,
          "time": 124.1976744185887,
          "velocity": 0.3543307086614173,
          "duration": 0.20930232558134776
        },
        {
          "name": "G#1",
          "midi": 32,
          "time": 124.20930232556545,
          "velocity": 0.6220472440944882,
          "duration": 0.011627906976741542
        },
        {
          "name": "C#6",
          "midi": 85,
          "time": 124.20930232556545,
          "velocity": 0.2992125984251969,
          "duration": 0.18604651162786467
        },
        {
          "name": "D6",
          "midi": 86,
          "time": 124.20930232556545,
          "velocity": 0.16535433070866143,
          "duration": 0.05813953488370771
        },
        {
          "name": "B6",
          "midi": 95,
          "time": 124.20930232556545,
          "velocity": 0.2677165354330709,
          "duration": 0.09302325581393234
        },
        {
          "name": "G1",
          "midi": 31,
          "time": 124.22093023254219,
          "velocity": 0.5984251968503937,
          "duration": 0.023255813953483084
        },
        {
          "name": "G#2",
          "midi": 44,
          "time": 124.23255813951893,
          "velocity": 0.31496062992125984,
          "duration": 0.023255813953483084
        },
        {
          "name": "C5",
          "midi": 72,
          "time": 124.23255813951893,
          "velocity": 0.4330708661417323,
          "duration": 0.20930232558134776
        },
        {
          "name": "G6",
          "midi": 91,
          "time": 124.23255813951893,
          "velocity": 0.2992125984251969,
          "duration": 0.1627906976743816
        },
        {
          "name": "F#1",
          "midi": 30,
          "time": 124.24418604649567,
          "velocity": 0.6141732283464567,
          "duration": 0.011627906976741542
        },
        {
          "name": "G1",
          "midi": 31,
          "time": 124.25581395347241,
          "velocity": 0.7480314960629921,
          "duration": 0.11627906976741542
        },
        {
          "name": "G5",
          "midi": 79,
          "time": 124.26744186044915,
          "velocity": 0.2992125984251969,
          "duration": 0.04651162790696617
        },
        {
          "name": "D#4",
          "midi": 63,
          "time": 124.30232558137938,
          "velocity": 0.4251968503937008,
          "duration": 0.05813953488370771
        },
        {
          "name": "C#4",
          "midi": 61,
          "time": 124.31395348835612,
          "velocity": 0.31496062992125984,
          "duration": 0.023255813953483084
        },
        {
          "name": "B5",
          "midi": 83,
          "time": 124.31395348835612,
          "velocity": 0.33070866141732286,
          "duration": 0.04651162790696617
        },
        {
          "name": "E6",
          "midi": 88,
          "time": 124.31395348835612,
          "velocity": 0.23622047244094488,
          "duration": 0.10465116279067388
        },
        {
          "name": "A6",
          "midi": 93,
          "time": 124.31395348835612,
          "velocity": 0.12598425196850394,
          "duration": 0.05813953488370771
        },
        {
          "name": "G#3",
          "midi": 56,
          "time": 124.3372093023096,
          "velocity": 0.3779527559055118,
          "duration": 0.023255813953483084
        },
        {
          "name": "C4",
          "midi": 60,
          "time": 124.3372093023096,
          "velocity": 0.4881889763779528,
          "duration": 0.10465116279067388
        },
        {
          "name": "D#5",
          "midi": 75,
          "time": 124.3372093023096,
          "velocity": 0.4251968503937008,
          "duration": 0.10465116279067388
        },
        {
          "name": "D#3",
          "midi": 51,
          "time": 124.34883720928634,
          "velocity": 0.3464566929133858,
          "duration": 0.06976744186044925
        },
        {
          "name": "G5",
          "midi": 79,
          "time": 124.34883720928634,
          "velocity": 0.30708661417322836,
          "duration": 0.05813953488370771
        },
        {
          "name": "F#6",
          "midi": 90,
          "time": 124.34883720928634,
          "velocity": 0.09448818897637795,
          "duration": 0.034883720930224626
        },
        {
          "name": "F5",
          "midi": 77,
          "time": 124.36046511626309,
          "velocity": 0.14173228346456693,
          "duration": 0.034883720930224626
        },
        {
          "name": "G#1",
          "midi": 32,
          "time": 124.37209302323983,
          "velocity": 0.7165354330708661,
          "duration": 0.023255813953483084
        },
        {
          "name": "G#3",
          "midi": 56,
          "time": 124.37209302323983,
          "velocity": 0.3858267716535433,
          "duration": 0.2558139534883139
        },
        {
          "name": "A1",
          "midi": 33,
          "time": 124.39534883719331,
          "velocity": 0.6692913385826772,
          "duration": 0.011627906976741542
        },
        {
          "name": "G#1",
          "midi": 32,
          "time": 124.40697674417005,
          "velocity": 0.6771653543307087,
          "duration": 0.3604651162789878
        },
        {
          "name": "C#6",
          "midi": 85,
          "time": 124.40697674417005,
          "velocity": 0.3779527559055118,
          "duration": 0.37209302325572935
        },
        {
          "name": "B6",
          "midi": 95,
          "time": 124.40697674417005,
          "velocity": 0.1889763779527559,
          "duration": 0.04651162790696617
        },
        {
          "name": "F#6",
          "midi": 90,
          "time": 124.43023255812354,
          "velocity": 0.11023622047244094,
          "duration": 0.034883720930224626
        },
        {
          "name": "C#7",
          "midi": 97,
          "time": 124.43023255812354,
          "velocity": 0.3779527559055118,
          "duration": 0.7674418604649418
        },
        {
          "name": "D7",
          "midi": 98,
          "time": 124.43023255812354,
          "velocity": 0.15748031496062992,
          "duration": 0.04651162790696617
        },
        {
          "name": "E7",
          "midi": 100,
          "time": 124.43023255812354,
          "velocity": 0.16535433070866143,
          "duration": 0.034883720930224626
        },
        {
          "name": "D4",
          "midi": 62,
          "time": 124.44186046510028,
          "velocity": 0.28346456692913385,
          "duration": 0.023255813953483084
        },
        {
          "name": "C#5",
          "midi": 73,
          "time": 124.44186046510028,
          "velocity": 0.3779527559055118,
          "duration": 0.034883720930224626
        },
        {
          "name": "E5",
          "midi": 76,
          "time": 124.44186046510028,
          "velocity": 0.16535433070866143,
          "duration": 0.034883720930224626
        },
        {
          "name": "G5",
          "midi": 79,
          "time": 124.44186046510028,
          "velocity": 0.25196850393700787,
          "duration": 0.034883720930224626
        },
        {
          "name": "A5",
          "midi": 81,
          "time": 124.44186046510028,
          "velocity": 0.4409448818897638,
          "duration": 0.04651162790696617
        },
        {
          "name": "A#5",
          "midi": 82,
          "time": 124.44186046510028,
          "velocity": 0.29133858267716534,
          "duration": 0.10465116279067388
        },
        {
          "name": "C5",
          "midi": 72,
          "time": 124.45348837207702,
          "velocity": 0.30708661417322836,
          "duration": 0.05813953488370771
        },
        {
          "name": "D#4",
          "midi": 63,
          "time": 124.46511627905376,
          "velocity": 0.4094488188976378,
          "duration": 0.29069767441853855
        },
        {
          "name": "F5",
          "midi": 77,
          "time": 124.4767441860305,
          "velocity": 0.11811023622047244,
          "duration": 0.034883720930224626
        },
        {
          "name": "D#5",
          "midi": 75,
          "time": 124.49999999998398,
          "velocity": 0.4251968503937008,
          "duration": 0.2209302325580893
        },
        {
          "name": "A#4",
          "midi": 70,
          "time": 124.51162790696073,
          "velocity": 0.25984251968503935,
          "duration": 0.023255813953483084
        },
        {
          "name": "G5",
          "midi": 79,
          "time": 124.52325581393747,
          "velocity": 0.16535433070866143,
          "duration": 0.04651162790696617
        },
        {
          "name": "A5",
          "midi": 81,
          "time": 124.53488372091421,
          "velocity": 0.4409448818897638,
          "duration": 0.09302325581393234
        },
        {
          "name": "B6",
          "midi": 95,
          "time": 124.53488372091421,
          "velocity": 0.10236220472440945,
          "duration": 0.034883720930224626
        },
        {
          "name": "E7",
          "midi": 100,
          "time": 124.53488372091421,
          "velocity": 0.2283464566929134,
          "duration": 0.04651162790696617
        },
        {
          "name": "C5",
          "midi": 72,
          "time": 124.55813953486769,
          "velocity": 0.33070866141732286,
          "duration": 0.09302325581393234
        },
        {
          "name": "A#4",
          "midi": 70,
          "time": 124.56976744184443,
          "velocity": 0.28346456692913385,
          "duration": 0.10465116279067388
        },
        {
          "name": "F6",
          "midi": 89,
          "time": 124.56976744184443,
          "velocity": 0.13385826771653545,
          "duration": 0.0813953488371908
        },
        {
          "name": "C7",
          "midi": 96,
          "time": 124.56976744184443,
          "velocity": 0.07874015748031496,
          "duration": 0.034883720930224626
        },
        {
          "name": "C4",
          "midi": 60,
          "time": 124.58139534882118,
          "velocity": 0.28346456692913385,
          "duration": 0.09302325581393234
        },
        {
          "name": "B5",
          "midi": 83,
          "time": 124.58139534882118,
          "velocity": 0.14960629921259844,
          "duration": 0.04651162790696617
        },
        {
          "name": "A#6",
          "midi": 94,
          "time": 124.58139534882118,
          "velocity": 0.4094488188976378,
          "duration": 0.6046511627905602
        },
        {
          "name": "G5",
          "midi": 79,
          "time": 124.60465116277466,
          "velocity": 0.12598425196850394,
          "duration": 0.034883720930224626
        },
        {
          "name": "D#3",
          "midi": 51,
          "time": 124.6162790697514,
          "velocity": 0.3464566929133858,
          "duration": 0.15116279069764005
        },
        {
          "name": "G#4",
          "midi": 68,
          "time": 124.62790697672814,
          "velocity": 0.4881889763779528,
          "duration": 0.1627906976743816
        },
        {
          "name": "A#5",
          "midi": 82,
          "time": 124.62790697672814,
          "velocity": 0.30708661417322836,
          "duration": 0.034883720930224626
        },
        {
          "name": "D7",
          "midi": 98,
          "time": 124.63953488370488,
          "velocity": 0.2677165354330709,
          "duration": 0.0813953488371908
        },
        {
          "name": "E7",
          "midi": 100,
          "time": 124.63953488370488,
          "velocity": 0.2440944881889764,
          "duration": 0.10465116279067388
        },
        {
          "name": "F5",
          "midi": 77,
          "time": 124.65116279068162,
          "velocity": 0.25196850393700787,
          "duration": 0.11627906976741542
        },
        {
          "name": "A5",
          "midi": 81,
          "time": 124.65116279068162,
          "velocity": 0.41732283464566927,
          "duration": 0.023255813953483084
        },
        {
          "name": "E6",
          "midi": 88,
          "time": 124.65116279068162,
          "velocity": 0.3858267716535433,
          "duration": 0.19767441860460622
        },
        {
          "name": "F#6",
          "midi": 90,
          "time": 124.65116279068162,
          "velocity": 0.2204724409448819,
          "duration": 0.06976744186044925
        },
        {
          "name": "G#6",
          "midi": 92,
          "time": 124.65116279068162,
          "velocity": 0.25984251968503935,
          "duration": 0.10465116279067388
        },
        {
          "name": "C7",
          "midi": 96,
          "time": 124.65116279068162,
          "velocity": 0.2440944881889764,
          "duration": 0.0813953488371908
        },
        {
          "name": "F7",
          "midi": 101,
          "time": 124.65116279068162,
          "velocity": 0.3464566929133858,
          "duration": 0.5348837209301109
        },
        {
          "name": "F#7",
          "midi": 102,
          "time": 124.65116279068162,
          "velocity": 0.31496062992125984,
          "duration": 0.2558139534883139
        },
        {
          "name": "G7",
          "midi": 103,
          "time": 124.65116279068162,
          "velocity": 0.1732283464566929,
          "duration": 0.10465116279067388
        },
        {
          "name": "G6",
          "midi": 91,
          "time": 124.66279069765837,
          "velocity": 0.2440944881889764,
          "duration": 0.09302325581393234
        },
        {
          "name": "B6",
          "midi": 95,
          "time": 124.66279069765837,
          "velocity": 0.3464566929133858,
          "duration": 0.29069767441853855
        },
        {
          "name": "A#5",
          "midi": 82,
          "time": 124.67441860463511,
          "velocity": 0.48031496062992124,
          "duration": 0.3023255813952801
        },
        {
          "name": "B5",
          "midi": 83,
          "time": 124.67441860463511,
          "velocity": 0.16535433070866143,
          "duration": 0.034883720930224626
        },
        {
          "name": "G#3",
          "midi": 56,
          "time": 124.68604651161185,
          "velocity": 0.16535433070866143,
          "duration": 0.04651162790696617
        },
        {
          "name": "D6",
          "midi": 86,
          "time": 124.68604651161185,
          "velocity": 0.2992125984251969,
          "duration": 0.023255813953483084
        },
        {
          "name": "F6",
          "midi": 89,
          "time": 124.69767441858859,
          "velocity": 0.3464566929133858,
          "duration": 0.12790697674415696
        },
        {
          "name": "C4",
          "midi": 60,
          "time": 124.70930232556533,
          "velocity": 0.11811023622047244,
          "duration": 0.034883720930224626
        },
        {
          "name": "A#4",
          "midi": 70,
          "time": 124.70930232556533,
          "velocity": 0.2047244094488189,
          "duration": 0.034883720930224626
        },
        {
          "name": "C5",
          "midi": 72,
          "time": 124.73255813951882,
          "velocity": 0.4645669291338583,
          "duration": 0.06976744186044925
        },
        {
          "name": "F#6",
          "midi": 90,
          "time": 124.74418604649556,
          "velocity": 0.2755905511811024,
          "duration": 0.05813953488370771
        },
        {
          "name": "A6",
          "midi": 93,
          "time": 124.74418604649556,
          "velocity": 0.3937007874015748,
          "duration": 0.10465116279067388
        },
        {
          "name": "C7",
          "midi": 96,
          "time": 124.74418604649556,
          "velocity": 0.33858267716535434,
          "duration": 0.279069767441797
        },
        {
          "name": "D7",
          "midi": 98,
          "time": 124.74418604649556,
          "velocity": 0.2992125984251969,
          "duration": 0.11627906976741542
        },
        {
          "name": "D6",
          "midi": 86,
          "time": 124.7558139534723,
          "velocity": 0.3464566929133858,
          "duration": 0.034883720930224626
        },
        {
          "name": "A1",
          "midi": 33,
          "time": 124.76744186044904,
          "velocity": 0.5511811023622047,
          "duration": 0.011627906976741542
        },
        {
          "name": "E5",
          "midi": 76,
          "time": 124.76744186044904,
          "velocity": 0.3937007874015748,
          "duration": 0.034883720930224626
        },
        {
          "name": "G6",
          "midi": 91,
          "time": 124.76744186044904,
          "velocity": 0.2755905511811024,
          "duration": 0.023255813953483084
        },
        {
          "name": "G#6",
          "midi": 92,
          "time": 124.76744186044904,
          "velocity": 0.3543307086614173,
          "duration": 0.04651162790696617
        },
        {
          "name": "G7",
          "midi": 103,
          "time": 124.76744186044904,
          "velocity": 0.28346456692913385,
          "duration": 0.09302325581393234
        },
        {
          "name": "A#1",
          "midi": 34,
          "time": 124.77906976742578,
          "velocity": 0.48031496062992124,
          "duration": 0.023255813953483084
        },
        {
          "name": "C4",
          "midi": 60,
          "time": 124.77906976742578,
          "velocity": 0.3858267716535433,
          "duration": 0.04651162790696617
        },
        {
          "name": "D#6",
          "midi": 87,
          "time": 124.77906976742578,
          "velocity": 0.25196850393700787,
          "duration": 0.11627906976741542
        },
        {
          "name": "C#5",
          "midi": 73,
          "time": 124.79069767440252,
          "velocity": 0.41732283464566927,
          "duration": 0.034883720930224626
        },
        {
          "name": "D#5",
          "midi": 75,
          "time": 124.79069767440252,
          "velocity": 0.4409448818897638,
          "duration": 0.10465116279067388
        },
        {
          "name": "C#6",
          "midi": 85,
          "time": 124.79069767440252,
          "velocity": 0.4409448818897638,
          "duration": 0.11627906976741542
        },
        {
          "name": "G#4",
          "midi": 68,
          "time": 124.80232558137926,
          "velocity": 0.3464566929133858,
          "duration": 0.04651162790696617
        },
        {
          "name": "A#4",
          "midi": 70,
          "time": 124.80232558137926,
          "velocity": 0.4330708661417323,
          "duration": 0.17441860465112313
        },
        {
          "name": "G5",
          "midi": 79,
          "time": 124.80232558137926,
          "velocity": 0.3228346456692913,
          "duration": 0.06976744186044925
        },
        {
          "name": "G6",
          "midi": 91,
          "time": 124.80232558137926,
          "velocity": 0.33858267716535434,
          "duration": 0.04651162790696617
        },
        {
          "name": "D#4",
          "midi": 63,
          "time": 124.813953488356,
          "velocity": 0.28346456692913385,
          "duration": 0.04651162790696617
        },
        {
          "name": "F#6",
          "midi": 90,
          "time": 124.813953488356,
          "velocity": 0.14173228346456693,
          "duration": 0.034883720930224626
        },
        {
          "name": "C4",
          "midi": 60,
          "time": 124.83720930230949,
          "velocity": 0.25984251968503935,
          "duration": 0.12790697674415696
        },
        {
          "name": "C5",
          "midi": 72,
          "time": 124.83720930230949,
          "velocity": 0.2755905511811024,
          "duration": 0.04651162790696617
        },
        {
          "name": "F5",
          "midi": 77,
          "time": 124.86046511626297,
          "velocity": 0.14173228346456693,
          "duration": 0.10465116279067388
        },
        {
          "name": "D6",
          "midi": 86,
          "time": 124.86046511626297,
          "velocity": 0.14960629921259844,
          "duration": 0.05813953488370771
        },
        {
          "name": "D#4",
          "midi": 63,
          "time": 124.87209302323971,
          "velocity": 0.1968503937007874,
          "duration": 0.04651162790696617
        },
        {
          "name": "G6",
          "midi": 91,
          "time": 124.8953488371932,
          "velocity": 0.10236220472440945,
          "duration": 0.04651162790696617
        },
        {
          "name": "D#5",
          "midi": 75,
          "time": 124.90697674416994,
          "velocity": 0.3779527559055118,
          "duration": 0.09302325581393234
        },
        {
          "name": "G#6",
          "midi": 92,
          "time": 124.91860465114668,
          "velocity": 0.07086614173228346,
          "duration": 0.034883720930224626
        },
        {
          "name": "C#6",
          "midi": 85,
          "time": 124.93023255812342,
          "velocity": 0.18110236220472442,
          "duration": 0.04651162790696617
        },
        {
          "name": "E6",
          "midi": 88,
          "time": 124.93023255812342,
          "velocity": 0.16535433070866143,
          "duration": 0.06976744186044925
        },
        {
          "name": "D4",
          "midi": 62,
          "time": 124.9534883720769,
          "velocity": 0.3464566929133858,
          "duration": 0.034883720930224626
        },
        {
          "name": "G#4",
          "midi": 68,
          "time": 124.9534883720769,
          "velocity": 0.30708661417322836,
          "duration": 0.10465116279067388
        },
        {
          "name": "C5",
          "midi": 72,
          "time": 124.96511627905365,
          "velocity": 0.14173228346456693,
          "duration": 0.034883720930224626
        },
        {
          "name": "B5",
          "midi": 83,
          "time": 124.96511627905365,
          "velocity": 0.4645669291338583,
          "duration": 0.09302325581393234
        },
        {
          "name": "F#6",
          "midi": 90,
          "time": 124.96511627905365,
          "velocity": 0.25196850393700787,
          "duration": 0.0813953488371908
        },
        {
          "name": "G#6",
          "midi": 92,
          "time": 124.96511627905365,
          "velocity": 0.12598425196850394,
          "duration": 0.034883720930224626
        },
        {
          "name": "A6",
          "midi": 93,
          "time": 124.96511627905365,
          "velocity": 0.1968503937007874,
          "duration": 0.0813953488371908
        },
        {
          "name": "D7",
          "midi": 98,
          "time": 124.96511627905365,
          "velocity": 0.2283464566929134,
          "duration": 0.2209302325580893
        },
        {
          "name": "G5",
          "midi": 79,
          "time": 124.97674418603039,
          "velocity": 0.2677165354330709,
          "duration": 0.034883720930224626
        },
        {
          "name": "D#4",
          "midi": 63,
          "time": 124.98837209300713,
          "velocity": 0.4645669291338583,
          "duration": 0.09302325581393234
        },
        {
          "name": "E5",
          "midi": 76,
          "time": 124.98837209300713,
          "velocity": 0.2440944881889764,
          "duration": 0.023255813953483084
        },
        {
          "name": "A#5",
          "midi": 82,
          "time": 124.98837209300713,
          "velocity": 0.47244094488188976,
          "duration": 0.15116279069764005
        },
        {
          "name": "C6",
          "midi": 84,
          "time": 124.98837209300713,
          "velocity": 0.25984251968503935,
          "duration": 0.04651162790696617
        },
        {
          "name": "F6",
          "midi": 89,
          "time": 124.98837209300713,
          "velocity": 0.15748031496062992,
          "duration": 0.034883720930224626
        },
        {
          "name": "G#5",
          "midi": 80,
          "time": 124.99999999998387,
          "velocity": 0.5118110236220472,
          "duration": 0.11627906976741542
        },
        {
          "name": "C#6",
          "midi": 85,
          "time": 124.99999999998387,
          "velocity": 0.5669291338582677,
          "duration": 0.5116279069766279
        },
        {
          "name": "E6",
          "midi": 88,
          "time": 125.01162790696061,
          "velocity": 0.33070866141732286,
          "duration": 0.1395348837208985
        },
        {
          "name": "A#4",
          "midi": 70,
          "time": 125.02325581393735,
          "velocity": 0.1732283464566929,
          "duration": 0.034883720930224626
        },
        {
          "name": "C5",
          "midi": 72,
          "time": 125.0348837209141,
          "velocity": 0.30708661417322836,
          "duration": 0.05813953488370771
        },
        {
          "name": "D6",
          "midi": 86,
          "time": 125.04651162789084,
          "velocity": 0.09448818897637795,
          "duration": 0.04651162790696617
        },
        {
          "name": "D#7",
          "midi": 99,
          "time": 125.04651162789084,
          "velocity": 0.29133858267716534,
          "duration": 0.2209302325580893
        },
        {
          "name": "F6",
          "midi": 89,
          "time": 125.05813953486758,
          "velocity": 0.25196850393700787,
          "duration": 0.034883720930224626
        },
        {
          "name": "G6",
          "midi": 91,
          "time": 125.05813953486758,
          "velocity": 0.23622047244094488,
          "duration": 0.04651162790696617
        },
        {
          "name": "B5",
          "midi": 83,
          "time": 125.06976744184432,
          "velocity": 0.4015748031496063,
          "duration": 0.034883720930224626
        },
        {
          "name": "C7",
          "midi": 96,
          "time": 125.06976744184432,
          "velocity": 0.2755905511811024,
          "duration": 0.11627906976741542
        },
        {
          "name": "E4",
          "midi": 64,
          "time": 125.08139534882106,
          "velocity": 0.3937007874015748,
          "duration": 0.023255813953483084
        },
        {
          "name": "D#5",
          "midi": 75,
          "time": 125.08139534882106,
          "velocity": 0.25196850393700787,
          "duration": 0.034883720930224626
        },
        {
          "name": "F#6",
          "midi": 90,
          "time": 125.08139534882106,
          "velocity": 0.2755905511811024,
          "duration": 0.034883720930224626
        },
        {
          "name": "G#4",
          "midi": 68,
          "time": 125.0930232557978,
          "velocity": 0.5826771653543307,
          "duration": 0.23255813953483084
        },
        {
          "name": "B4",
          "midi": 71,
          "time": 125.0930232557978,
          "velocity": 0.33858267716535434,
          "duration": 0.023255813953483084
        },
        {
          "name": "C#5",
          "midi": 73,
          "time": 125.0930232557978,
          "velocity": 0.2992125984251969,
          "duration": 0.023255813953483084
        },
        {
          "name": "A6",
          "midi": 93,
          "time": 125.0930232557978,
          "velocity": 0.25196850393700787,
          "duration": 0.0813953488371908
        },
        {
          "name": "D#4",
          "midi": 63,
          "time": 125.10465116277454,
          "velocity": 0.4409448818897638,
          "duration": 0.023255813953483084
        },
        {
          "name": "F5",
          "midi": 77,
          "time": 125.10465116277454,
          "velocity": 0.2440944881889764,
          "duration": 0.04651162790696617
        },
        {
          "name": "G5",
          "midi": 79,
          "time": 125.10465116277454,
          "velocity": 0.5275590551181102,
          "duration": 0.05813953488370771
        },
        {
          "name": "C6",
          "midi": 84,
          "time": 125.10465116277454,
          "velocity": 0.44881889763779526,
          "duration": 0.04651162790696617
        },
        {
          "name": "C4",
          "midi": 60,
          "time": 125.11627906975129,
          "velocity": 0.48031496062992124,
          "duration": 0.1627906976743816
        },
        {
          "name": "D6",
          "midi": 86,
          "time": 125.11627906975129,
          "velocity": 0.36220472440944884,
          "duration": 0.034883720930224626
        },
        {
          "name": "D#5",
          "midi": 75,
          "time": 125.12790697672803,
          "velocity": 0.4409448818897638,
          "duration": 0.2209302325580893
        },
        {
          "name": "A#5",
          "midi": 82,
          "time": 125.15116279068151,
          "velocity": 0.2047244094488189,
          "duration": 0.15116279069764005
        },
        {
          "name": "F#6",
          "midi": 90,
          "time": 125.15116279068151,
          "velocity": 0.11023622047244094,
          "duration": 0.034883720930224626
        },
        {
          "name": "D#4",
          "midi": 63,
          "time": 125.16279069765825,
          "velocity": 0.4094488188976378,
          "duration": 0.04651162790696617
        },
        {
          "name": "G5",
          "midi": 79,
          "time": 125.174418604635,
          "velocity": 0.25196850393700787,
          "duration": 0.10465116279067388
        },
        {
          "name": "D#3",
          "midi": 51,
          "time": 125.18604651161174,
          "velocity": 0.2283464566929134,
          "duration": 0.10465116279067388
        },
        {
          "name": "E6",
          "midi": 88,
          "time": 125.18604651161174,
          "velocity": 0.11023622047244094,
          "duration": 0.05813953488370771
        },
        {
          "name": "F6",
          "midi": 89,
          "time": 125.18604651161174,
          "velocity": 0.07874015748031496,
          "duration": 0.034883720930224626
        },
        {
          "name": "C#5",
          "midi": 73,
          "time": 125.20930232556522,
          "velocity": 0.33858267716535434,
          "duration": 0.034883720930224626
        },
        {
          "name": "C6",
          "midi": 84,
          "time": 125.20930232556522,
          "velocity": 0.49606299212598426,
          "duration": 0.034883720930224626
        },
        {
          "name": "A#4",
          "midi": 70,
          "time": 125.22093023254196,
          "velocity": 0.33070866141732286,
          "duration": 0.12790697674415696
        },
        {
          "name": "E7",
          "midi": 100,
          "time": 125.25581395347218,
          "velocity": 0.36220472440944884,
          "duration": 0.15116279069764005
        },
        {
          "name": "C#4",
          "midi": 61,
          "time": 125.27906976742567,
          "velocity": 0.2283464566929134,
          "duration": 0.034883720930224626
        },
        {
          "name": "C5",
          "midi": 72,
          "time": 125.27906976742567,
          "velocity": 0.3779527559055118,
          "duration": 0.5232558139533978
        },
        {
          "name": "F#5",
          "midi": 78,
          "time": 125.29069767440241,
          "velocity": 0.2283464566929134,
          "duration": 0.034883720930224626
        },
        {
          "name": "A5",
          "midi": 81,
          "time": 125.29069767440241,
          "velocity": 0.23622047244094488,
          "duration": 0.034883720930224626
        },
        {
          "name": "D6",
          "midi": 86,
          "time": 125.30232558137915,
          "velocity": 0.2047244094488189,
          "duration": 0.034883720930224626
        },
        {
          "name": "F#6",
          "midi": 90,
          "time": 125.30232558137915,
          "velocity": 0.28346456692913385,
          "duration": 0.09302325581393234
        },
        {
          "name": "G#3",
          "midi": 56,
          "time": 125.31395348835589,
          "velocity": 0.5039370078740157,
          "duration": 0.09302325581393234
        },
        {
          "name": "B5",
          "midi": 83,
          "time": 125.31395348835589,
          "velocity": 0.30708661417322836,
          "duration": 0.04651162790696617
        },
        {
          "name": "E6",
          "midi": 88,
          "time": 125.31395348835589,
          "velocity": 0.28346456692913385,
          "duration": 0.034883720930224626
        },
        {
          "name": "A6",
          "midi": 93,
          "time": 125.31395348835589,
          "velocity": 0.30708661417322836,
          "duration": 0.0813953488371908
        },
        {
          "name": "C7",
          "midi": 96,
          "time": 125.31395348835589,
          "velocity": 0.23622047244094488,
          "duration": 0.09302325581393234
        },
        {
          "name": "F7",
          "midi": 101,
          "time": 125.31395348835589,
          "velocity": 0.25196850393700787,
          "duration": 0.11627906976741542
        },
        {
          "name": "G7",
          "midi": 103,
          "time": 125.31395348835589,
          "velocity": 0.16535433070866143,
          "duration": 0.0813953488371908
        },
        {
          "name": "F5",
          "midi": 77,
          "time": 125.32558139533263,
          "velocity": 0.2047244094488189,
          "duration": 0.06976744186044925
        },
        {
          "name": "F6",
          "midi": 89,
          "time": 125.32558139533263,
          "velocity": 0.25196850393700787,
          "duration": 0.023255813953483084
        },
        {
          "name": "G6",
          "midi": 91,
          "time": 125.32558139533263,
          "velocity": 0.25196850393700787,
          "duration": 0.06976744186044925
        },
        {
          "name": "A#5",
          "midi": 82,
          "time": 125.34883720928612,
          "velocity": 0.23622047244094488,
          "duration": 0.04651162790696617
        },
        {
          "name": "D#5",
          "midi": 75,
          "time": 125.36046511626286,
          "velocity": 0.2677165354330709,
          "duration": 0.0813953488371908
        },
        {
          "name": "E6",
          "midi": 88,
          "time": 125.36046511626286,
          "velocity": 0.1889763779527559,
          "duration": 0.12790697674415696
        },
        {
          "name": "D#4",
          "midi": 63,
          "time": 125.38372093021634,
          "velocity": 0.11811023622047244,
          "duration": 0.034883720930224626
        },
        {
          "name": "A#4",
          "midi": 70,
          "time": 125.38372093021634,
          "velocity": 0.16535433070866143,
          "duration": 0.034883720930224626
        },
        {
          "name": "C4",
          "midi": 60,
          "time": 125.40697674416982,
          "velocity": 0.16535433070866143,
          "duration": 0.034883720930224626
        },
        {
          "name": "G#4",
          "midi": 68,
          "time": 125.40697674416982,
          "velocity": 0.3858267716535433,
          "duration": 1.0232558139533126
        },
        {
          "name": "A#5",
          "midi": 82,
          "time": 125.40697674416982,
          "velocity": 0.2047244094488189,
          "duration": 0.034883720930224626
        },
        {
          "name": "F#6",
          "midi": 90,
          "time": 125.40697674416982,
          "velocity": 0.12598425196850394,
          "duration": 0.04651162790696617
        },
        {
          "name": "C#3",
          "midi": 49,
          "time": 125.41860465114657,
          "velocity": 0.3779527559055118,
          "duration": 0.034883720930224626
        },
        {
          "name": "G6",
          "midi": 91,
          "time": 125.41860465114657,
          "velocity": 0.13385826771653545,
          "duration": 0.04651162790696617
        },
        {
          "name": "G#3",
          "midi": 56,
          "time": 125.43023255812331,
          "velocity": 0.4330708661417323,
          "duration": 0.11627906976741542
        },
        {
          "name": "G5",
          "midi": 79,
          "time": 125.43023255812331,
          "velocity": 0.2755905511811024,
          "duration": 0.05813953488370771
        },
        {
          "name": "D#4",
          "midi": 63,
          "time": 125.44186046510005,
          "velocity": 0.4015748031496063,
          "duration": 0.441860465116207
        },
        {
          "name": "A#5",
          "midi": 82,
          "time": 125.45348837207679,
          "velocity": 0.1732283464566929,
          "duration": 0.12790697674415696
        },
        {
          "name": "B1",
          "midi": 35,
          "time": 125.53488372091398,
          "velocity": 0.4881889763779528,
          "duration": 0.023255813953483084
        },
        {
          "name": "C#6",
          "midi": 85,
          "time": 125.53488372091398,
          "velocity": 0.28346456692913385,
          "duration": 0.4883720930231732
        },
        {
          "name": "G3",
          "midi": 55,
          "time": 125.54651162789072,
          "velocity": 0.18110236220472442,
          "duration": 0.034883720930224626
        },
        {
          "name": "G#2",
          "midi": 44,
          "time": 125.5697674418442,
          "velocity": 0.36220472440944884,
          "duration": 0.023255813953483084
        },
        {
          "name": "G#1",
          "midi": 32,
          "time": 125.58139534882095,
          "velocity": 0.4566929133858268,
          "duration": 0.034883720930224626
        },
        {
          "name": "A#5",
          "midi": 82,
          "time": 125.62790697672791,
          "velocity": 0.1968503937007874,
          "duration": 0.11627906976744384
        },
        {
          "name": "F#6",
          "midi": 90,
          "time": 125.62790697672791,
          "velocity": 0.07086614173228346,
          "duration": 0.04651162790698038
        },
        {
          "name": "G#2",
          "midi": 44,
          "time": 125.63953488370466,
          "velocity": 0.4015748031496063,
          "duration": 0.06976744186047767
        },
        {
          "name": "G#2",
          "midi": 44,
          "time": 125.72093023254187,
          "velocity": 0.4015748031496063,
          "duration": 0.034883720930224626
        },
        {
          "name": "E6",
          "midi": 88,
          "time": 125.73255813951862,
          "velocity": 0.07086614173228346,
          "duration": 0.04651162790696617
        },
        {
          "name": "G6",
          "midi": 91,
          "time": 125.7558139534721,
          "velocity": 0.08661417322834646,
          "duration": 0.034883720930224626
        },
        {
          "name": "G5",
          "midi": 79,
          "time": 125.76744186044884,
          "velocity": 0.10236220472440945,
          "duration": 0.034883720930224626
        },
        {
          "name": "C6",
          "midi": 84,
          "time": 125.80232558137907,
          "velocity": 0.09448818897637795,
          "duration": 0.034883720930224626
        },
        {
          "name": "C5",
          "midi": 72,
          "time": 125.82558139533255,
          "velocity": 0.4015748031496063,
          "duration": 0.36046511627901623
        },
        {
          "name": "F5",
          "midi": 77,
          "time": 125.82558139533255,
          "velocity": 0.11023622047244094,
          "duration": 0.034883720930224626
        },
        {
          "name": "F#6",
          "midi": 90,
          "time": 125.82558139533255,
          "velocity": 0.07874015748031496,
          "duration": 0.05813953488370771
        },
        {
          "name": "A#5",
          "midi": 82,
          "time": 125.83720930230929,
          "velocity": 0.11023622047244094,
          "duration": 0.034883720930224626
        },
        {
          "name": "G#3",
          "midi": 56,
          "time": 125.86046511626277,
          "velocity": 0.28346456692913385,
          "duration": 0.0813953488371908
        },
        {
          "name": "D6",
          "midi": 86,
          "time": 125.86046511626277,
          "velocity": 0.12598425196850394,
          "duration": 0.034883720930224626
        },
        {
          "name": "C#3",
          "midi": 49,
          "time": 125.87209302323951,
          "velocity": 0.25196850393700787,
          "duration": 0.023255813953483084
        },
        {
          "name": "A#5",
          "midi": 82,
          "time": 125.88372093021626,
          "velocity": 0.1732283464566929,
          "duration": 0.034883720930224626
        },
        {
          "name": "F#6",
          "midi": 90,
          "time": 125.895348837193,
          "velocity": 0.11811023622047244,
          "duration": 0.04651162790696617
        },
        {
          "name": "D#4",
          "midi": 63,
          "time": 125.90697674416974,
          "velocity": 0.3937007874015748,
          "duration": 0.569767441860364
        },
        {
          "name": "D#3",
          "midi": 51,
          "time": 125.94186046509996,
          "velocity": 0.25984251968503935,
          "duration": 0.023255813953483084
        },
        {
          "name": "G#3",
          "midi": 56,
          "time": 125.9534883720767,
          "velocity": 0.31496062992125984,
          "duration": 0.18604651162787889
        },
        {
          "name": "F#5",
          "midi": 78,
          "time": 125.97674418603019,
          "velocity": 0.09448818897637795,
          "duration": 0.05813953488370771
        },
        {
          "name": "G#2",
          "midi": 44,
          "time": 125.98837209300693,
          "velocity": 0.2283464566929134,
          "duration": 0.023255813953483084
        },
        {
          "name": "C#6",
          "midi": 85,
          "time": 126.0348837209139,
          "velocity": 0.2755905511811024,
          "duration": 0.23255813953485927
        },
        {
          "name": "G6",
          "midi": 91,
          "time": 126.0348837209139,
          "velocity": 0.07086614173228346,
          "duration": 0.06976744186046346
        },
        {
          "name": "B5",
          "midi": 83,
          "time": 126.05813953486738,
          "velocity": 0.14960629921259844,
          "duration": 0.05813953488372192
        },
        {
          "name": "G#2",
          "midi": 44,
          "time": 126.17441860463482,
          "velocity": 0.3464566929133858,
          "duration": 0.034883720930224626
        },
        {
          "name": "A#5",
          "midi": 82,
          "time": 126.17441860463482,
          "velocity": 0.1889763779527559,
          "duration": 0.06976744186044925
        },
        {
          "name": "A2",
          "midi": 45,
          "time": 126.20930232556505,
          "velocity": 0.2283464566929134,
          "duration": 0.023255813953483084
        },
        {
          "name": "G#3",
          "midi": 56,
          "time": 126.20930232556505,
          "velocity": 0.1968503937007874,
          "duration": 0.04651162790696617
        },
        {
          "name": "C5",
          "midi": 72,
          "time": 126.20930232556505,
          "velocity": 0.1732283464566929,
          "duration": 0.034883720930224626
        },
        {
          "name": "D6",
          "midi": 86,
          "time": 126.25581395347201,
          "velocity": 0.09448818897637795,
          "duration": 0.04651162790696617
        },
        {
          "name": "G#2",
          "midi": 44,
          "time": 126.26744186044876,
          "velocity": 0.3543307086614173,
          "duration": 0.023255813953483084
        },
        {
          "name": "C5",
          "midi": 72,
          "time": 126.26744186044876,
          "velocity": 0.28346456692913385,
          "duration": 0.04651162790696617
        },
        {
          "name": "A2",
          "midi": 45,
          "time": 126.29069767440224,
          "velocity": 0.33858267716535434,
          "duration": 0.034883720930224626
        },
        {
          "name": "C#6",
          "midi": 85,
          "time": 126.29069767440224,
          "velocity": 0.23622047244094488,
          "duration": 0.1627906976743816
        },
        {
          "name": "C5",
          "midi": 72,
          "time": 126.32558139533246,
          "velocity": 0.3858267716535433,
          "duration": 0.279069767441797
        },
        {
          "name": "A#5",
          "midi": 82,
          "time": 126.32558139533246,
          "velocity": 0.13385826771653545,
          "duration": 0.04651162790696617
        },
        {
          "name": "F2",
          "midi": 41,
          "time": 126.3372093023092,
          "velocity": 0.3464566929133858,
          "duration": 0.023255813953483084
        },
        {
          "name": "D6",
          "midi": 86,
          "time": 126.37209302323943,
          "velocity": 0.11023622047244094,
          "duration": 0.034883720930224626
        },
        {
          "name": "G#2",
          "midi": 44,
          "time": 126.39534883719291,
          "velocity": 0.2677165354330709,
          "duration": 0.023255813953483084
        },
        {
          "name": "G#3",
          "midi": 56,
          "time": 126.39534883719291,
          "velocity": 0.44881889763779526,
          "duration": 0.3023255813952943
        },
        {
          "name": "A#5",
          "midi": 82,
          "time": 126.40697674416965,
          "velocity": 0.13385826771653545,
          "duration": 0.034883720930224626
        },
        {
          "name": "B5",
          "midi": 83,
          "time": 126.43023255812314,
          "velocity": 0.11811023622047244,
          "duration": 0.034883720930224626
        },
        {
          "name": "C#2",
          "midi": 37,
          "time": 126.45348837207662,
          "velocity": 0.28346456692913385,
          "duration": 0.034883720930224626
        },
        {
          "name": "D6",
          "midi": 86,
          "time": 126.45348837207662,
          "velocity": 0.1732283464566929,
          "duration": 0.11627906976741542
        },
        {
          "name": "B2",
          "midi": 47,
          "time": 126.4767441860301,
          "velocity": 0.2125984251968504,
          "duration": 0.034883720930224626
        },
        {
          "name": "C#6",
          "midi": 85,
          "time": 126.4767441860301,
          "velocity": 0.11811023622047244,
          "duration": 0.034883720930224626
        },
        {
          "name": "D#4",
          "midi": 63,
          "time": 126.48837209300684,
          "velocity": 0.4645669291338583,
          "duration": 0.2441860465115866
        },
        {
          "name": "B5",
          "midi": 83,
          "time": 126.48837209300684,
          "velocity": 0.11023622047244094,
          "duration": 0.034883720930224626
        },
        {
          "name": "G6",
          "midi": 91,
          "time": 126.51162790696033,
          "velocity": 0.07874015748031496,
          "duration": 0.04651162790696617
        },
        {
          "name": "F#6",
          "midi": 90,
          "time": 126.52325581393707,
          "velocity": 0.07874015748031496,
          "duration": 0.034883720930224626
        },
        {
          "name": "C#2",
          "midi": 37,
          "time": 126.54651162789055,
          "velocity": 0.2440944881889764,
          "duration": 0.023255813953483084
        },
        {
          "name": "C#6",
          "midi": 85,
          "time": 126.54651162789055,
          "velocity": 0.18110236220472442,
          "duration": 0.17441860465113734
        },
        {
          "name": "F6",
          "midi": 89,
          "time": 126.54651162789055,
          "velocity": 0.07086614173228346,
          "duration": 0.034883720930224626
        },
        {
          "name": "B5",
          "midi": 83,
          "time": 126.5581395348673,
          "velocity": 0.10236220472440945,
          "duration": 0.05813953488370771
        },
        {
          "name": "D#6",
          "midi": 87,
          "time": 126.5581395348673,
          "velocity": 0.07086614173228346,
          "duration": 0.034883720930224626
        },
        {
          "name": "G6",
          "midi": 91,
          "time": 126.60465116277426,
          "velocity": 0.08661417322834646,
          "duration": 0.034883720930224626
        },
        {
          "name": "C5",
          "midi": 72,
          "time": 126.616279069751,
          "velocity": 0.25196850393700787,
          "duration": 0.12790697674417117
        },
        {
          "name": "A#5",
          "midi": 82,
          "time": 126.62790697672774,
          "velocity": 0.18110236220472442,
          "duration": 0.10465116279068809
        },
        {
          "name": "G#2",
          "midi": 44,
          "time": 126.66279069765797,
          "velocity": 0.3464566929133858,
          "duration": 0.03488372093023884
        },
        {
          "name": "G#2",
          "midi": 44,
          "time": 126.70930232556495,
          "velocity": 0.31496062992125984,
          "duration": 0.023255813953483084
        },
        {
          "name": "E6",
          "midi": 88,
          "time": 126.72093023254169,
          "velocity": 0.12598425196850394,
          "duration": 0.06976744186044925
        },
        {
          "name": "E4",
          "midi": 64,
          "time": 126.73255813951843,
          "velocity": 0.28346456692913385,
          "duration": 0.023255813953483084
        },
        {
          "name": "A#4",
          "midi": 70,
          "time": 126.73255813951843,
          "velocity": 0.2440944881889764,
          "duration": 0.05813953488370771
        },
        {
          "name": "C#5",
          "midi": 73,
          "time": 126.73255813951843,
          "velocity": 0.09448818897637795,
          "duration": 0.034883720930224626
        },
        {
          "name": "F5",
          "midi": 77,
          "time": 126.73255813951843,
          "velocity": 0.1968503937007874,
          "duration": 0.10465116279067388
        },
        {
          "name": "C#6",
          "midi": 85,
          "time": 126.73255813951843,
          "velocity": 0.12598425196850394,
          "duration": 0.034883720930224626
        },
        {
          "name": "A#3",
          "midi": 58,
          "time": 126.74418604649517,
          "velocity": 0.33070866141732286,
          "duration": 0.034883720930224626
        },
        {
          "name": "D#4",
          "midi": 63,
          "time": 126.75581395347191,
          "velocity": 0.25984251968503935,
          "duration": 0.04651162790696617
        },
        {
          "name": "D5",
          "midi": 74,
          "time": 126.76744186044866,
          "velocity": 0.16535433070866143,
          "duration": 0.034883720930224626
        },
        {
          "name": "A3",
          "midi": 57,
          "time": 126.7790697674254,
          "velocity": 0.3228346456692913,
          "duration": 0.034883720930224626
        },
        {
          "name": "G#4",
          "midi": 68,
          "time": 126.7790697674254,
          "velocity": 0.12598425196850394,
          "duration": 0.034883720930224626
        },
        {
          "name": "F4",
          "midi": 65,
          "time": 126.79069767440214,
          "velocity": 0.31496062992125984,
          "duration": 0.12790697674415696
        },
        {
          "name": "C5",
          "midi": 72,
          "time": 126.79069767440214,
          "velocity": 0.25984251968503935,
          "duration": 0.023255813953483084
        },
        {
          "name": "C#6",
          "midi": 85,
          "time": 126.79069767440214,
          "velocity": 0.2047244094488189,
          "duration": 0.11627906976741542
        },
        {
          "name": "F#6",
          "midi": 90,
          "time": 126.79069767440214,
          "velocity": 0.10236220472440945,
          "duration": 0.034883720930224626
        },
        {
          "name": "A#3",
          "midi": 58,
          "time": 126.80232558137888,
          "velocity": 0.2283464566929134,
          "duration": 0.023255813953483084
        },
        {
          "name": "A#4",
          "midi": 70,
          "time": 126.81395348835562,
          "velocity": 0.4094488188976378,
          "duration": 0.10465116279067388
        },
        {
          "name": "C#5",
          "midi": 73,
          "time": 126.81395348835562,
          "velocity": 0.2677165354330709,
          "duration": 0.11627906976741542
        },
        {
          "name": "C6",
          "midi": 84,
          "time": 126.81395348835562,
          "velocity": 0.11811023622047244,
          "duration": 0.034883720930224626
        },
        {
          "name": "A3",
          "midi": 57,
          "time": 126.82558139533236,
          "velocity": 0.3228346456692913,
          "duration": 0.023255813953483084
        },
        {
          "name": "A2",
          "midi": 45,
          "time": 126.86046511626259,
          "velocity": 0.2047244094488189,
          "duration": 0.034883720930224626
        },
        {
          "name": "A3",
          "midi": 57,
          "time": 126.87209302323933,
          "velocity": 0.2677165354330709,
          "duration": 0.023255813953483084
        },
        {
          "name": "C6",
          "midi": 84,
          "time": 126.87209302323933,
          "velocity": 0.12598425196850394,
          "duration": 0.05813953488370771
        },
        {
          "name": "D6",
          "midi": 86,
          "time": 126.88372093021607,
          "velocity": 0.09448818897637795,
          "duration": 0.05813953488370771
        },
        {
          "name": "G#6",
          "midi": 92,
          "time": 126.88372093021607,
          "velocity": 0.08661417322834646,
          "duration": 0.06976744186044925
        },
        {
          "name": "A#3",
          "midi": 58,
          "time": 126.89534883719281,
          "velocity": 0.2992125984251969,
          "duration": 0.0813953488371908
        },
        {
          "name": "G#5",
          "midi": 80,
          "time": 126.89534883719281,
          "velocity": 0.09448818897637795,
          "duration": 0.04651162790696617
        },
        {
          "name": "D#5",
          "midi": 75,
          "time": 126.9186046511463,
          "velocity": 0.15748031496062992,
          "duration": 0.06976744186044925
        },
        {
          "name": "B5",
          "midi": 83,
          "time": 126.9186046511463,
          "velocity": 0.12598425196850394,
          "duration": 0.04651162790696617
        },
        {
          "name": "A#4",
          "midi": 70,
          "time": 126.93023255812304,
          "velocity": 0.4409448818897638,
          "duration": 0.15116279069764005
        },
        {
          "name": "C5",
          "midi": 72,
          "time": 126.93023255812304,
          "velocity": 0.30708661417322836,
          "duration": 0.023255813953483084
        },
        {
          "name": "C#6",
          "midi": 85,
          "time": 126.93023255812304,
          "velocity": 0.1732283464566929,
          "duration": 0.04651162790696617
        },
        {
          "name": "F2",
          "midi": 41,
          "time": 126.94186046509978,
          "velocity": 0.2440944881889764,
          "duration": 0.023255813953483084
        },
        {
          "name": "F4",
          "midi": 65,
          "time": 126.94186046509978,
          "velocity": 0.31496062992125984,
          "duration": 0.15116279069764005
        },
        {
          "name": "C#5",
          "midi": 73,
          "time": 126.96511627905326,
          "velocity": 0.2755905511811024,
          "duration": 0.0813953488371908
        },
        {
          "name": "G#5",
          "midi": 80,
          "time": 126.96511627905326,
          "velocity": 0.14173228346456693,
          "duration": 0.09302325581393234
        },
        {
          "name": "A#3",
          "midi": 58,
          "time": 126.98837209300675,
          "velocity": 0.31496062992125984,
          "duration": 0.023255813953483084
        },
        {
          "name": "D6",
          "midi": 86,
          "time": 126.98837209300675,
          "velocity": 0.13385826771653545,
          "duration": 0.034883720930224626
        },
        {
          "name": "F#6",
          "midi": 90,
          "time": 126.98837209300675,
          "velocity": 0.09448818897637795,
          "duration": 0.06976744186044925
        },
        {
          "name": "A3",
          "midi": 57,
          "time": 127.01162790696023,
          "velocity": 0.33858267716535434,
          "duration": 0.023255813953483084
        },
        {
          "name": "C#4",
          "midi": 61,
          "time": 127.01162790696023,
          "velocity": 0.1968503937007874,
          "duration": 0.034883720930224626
        },
        {
          "name": "D#5",
          "midi": 75,
          "time": 127.01162790696023,
          "velocity": 0.09448818897637795,
          "duration": 0.034883720930224626
        },
        {
          "name": "A2",
          "midi": 45,
          "time": 127.03488372091371,
          "velocity": 0.3543307086614173,
          "duration": 0.023255813953483084
        },
        {
          "name": "B5",
          "midi": 83,
          "time": 127.03488372091371,
          "velocity": 0.2204724409448819,
          "duration": 0.04651162790696617
        },
        {
          "name": "A#2",
          "midi": 46,
          "time": 127.0581395348672,
          "velocity": 0.3464566929133858,
          "duration": 0.023255813953483084
        },
        {
          "name": "C#6",
          "midi": 85,
          "time": 127.0581395348672,
          "velocity": 0.2440944881889764,
          "duration": 0.10465116279068809
        },
        {
          "name": "A#3",
          "midi": 58,
          "time": 127.08139534882068,
          "velocity": 0.4330708661417323,
          "duration": 0.25581395348832814
        },
        {
          "name": "C#5",
          "midi": 73,
          "time": 127.08139534882068,
          "velocity": 0.11023622047244094,
          "duration": 0.034883720930224626
        },
        {
          "name": "D#5",
          "midi": 75,
          "time": 127.08139534882068,
          "velocity": 0.09448818897637795,
          "duration": 0.034883720930224626
        },
        {
          "name": "A#5",
          "midi": 82,
          "time": 127.08139534882068,
          "velocity": 0.25196850393700787,
          "duration": 0.10465116279068809
        },
        {
          "name": "A#2",
          "midi": 46,
          "time": 127.1162790697509,
          "velocity": 0.4015748031496063,
          "duration": 0.04651162790698038
        },
        {
          "name": "F4",
          "midi": 65,
          "time": 127.1162790697509,
          "velocity": 0.3858267716535433,
          "duration": 0.767441860464956
        },
        {
          "name": "C#5",
          "midi": 73,
          "time": 127.12790697672764,
          "velocity": 0.33858267716535434,
          "duration": 0.17441860465113734
        },
        {
          "name": "B2",
          "midi": 47,
          "time": 127.16279069765788,
          "velocity": 0.33858267716535434,
          "duration": 0.023255813953483084
        },
        {
          "name": "D6",
          "midi": 86,
          "time": 127.16279069765788,
          "velocity": 0.08661417322834646,
          "duration": 0.04651162790696617
        },
        {
          "name": "A#2",
          "midi": 46,
          "time": 127.18604651161137,
          "velocity": 0.3543307086614173,
          "duration": 0.06976744186044925
        },
        {
          "name": "B5",
          "midi": 83,
          "time": 127.18604651161137,
          "velocity": 0.1732283464566929,
          "duration": 0.04651162790696617
        },
        {
          "name": "D#6",
          "midi": 87,
          "time": 127.19767441858811,
          "velocity": 0.11023622047244094,
          "duration": 0.05813953488370771
        },
        {
          "name": "C#2",
          "midi": 37,
          "time": 127.20930232556485,
          "velocity": 0.23622047244094488,
          "duration": 0.023255813953483084
        },
        {
          "name": "E6",
          "midi": 88,
          "time": 127.23255813951833,
          "velocity": 0.08661417322834646,
          "duration": 0.034883720930224626
        },
        {
          "name": "A2",
          "midi": 45,
          "time": 127.25581395347182,
          "velocity": 0.25984251968503935,
          "duration": 0.023255813953483084
        },
        {
          "name": "B5",
          "midi": 83,
          "time": 127.25581395347182,
          "velocity": 0.07086614173228346,
          "duration": 0.034883720930224626
        },
        {
          "name": "C#2",
          "midi": 37,
          "time": 127.2790697674253,
          "velocity": 0.2125984251968504,
          "duration": 0.04651162790696617
        },
        {
          "name": "C#5",
          "midi": 73,
          "time": 127.32558139533226,
          "velocity": 0.23622047244094488,
          "duration": 0.1395348837208985
        },
        {
          "name": "B5",
          "midi": 83,
          "time": 127.32558139533226,
          "velocity": 0.10236220472440945,
          "duration": 0.034883720930224626
        },
        {
          "name": "D6",
          "midi": 86,
          "time": 127.32558139533226,
          "velocity": 0.10236220472440945,
          "duration": 0.034883720930224626
        },
        {
          "name": "A#4",
          "midi": 70,
          "time": 127.34883720928575,
          "velocity": 0.3700787401574803,
          "duration": 0.4186046511626955
        },
        {
          "name": "D#5",
          "midi": 75,
          "time": 127.36046511626249,
          "velocity": 0.15748031496062992,
          "duration": 0.04651162790696617
        },
        {
          "name": "A2",
          "midi": 45,
          "time": 127.37209302323923,
          "velocity": 0.33070866141732286,
          "duration": 0.023255813953483084
        },
        {
          "name": "A#3",
          "midi": 58,
          "time": 127.37209302323923,
          "velocity": 0.3464566929133858,
          "duration": 0.09302325581393234
        },
        {
          "name": "G#5",
          "midi": 80,
          "time": 127.37209302323923,
          "velocity": 0.1732283464566929,
          "duration": 0.09302325581393234
        },
        {
          "name": "F#6",
          "midi": 90,
          "time": 127.37209302323923,
          "velocity": 0.10236220472440945,
          "duration": 0.034883720930224626
        },
        {
          "name": "A#2",
          "midi": 46,
          "time": 127.39534883719271,
          "velocity": 0.31496062992125984,
          "duration": 0.023255813953483084
        },
        {
          "name": "C#2",
          "midi": 37,
          "time": 127.40697674416946,
          "velocity": 0.1968503937007874,
          "duration": 0.034883720930224626
        },
        {
          "name": "C6",
          "midi": 84,
          "time": 127.40697674416946,
          "velocity": 0.12598425196850394,
          "duration": 0.034883720930224626
        },
        {
          "name": "E6",
          "midi": 88,
          "time": 127.40697674416946,
          "velocity": 0.09448818897637795,
          "duration": 0.05813953488370771
        },
        {
          "name": "B5",
          "midi": 83,
          "time": 127.4186046511462,
          "velocity": 0.14173228346456693,
          "duration": 0.04651162790696617
        },
        {
          "name": "D#6",
          "midi": 87,
          "time": 127.4186046511462,
          "velocity": 0.12598425196850394,
          "duration": 0.1395348837208985
        },
        {
          "name": "A#2",
          "midi": 46,
          "time": 127.43023255812294,
          "velocity": 0.33858267716535434,
          "duration": 0.04651162790696617
        },
        {
          "name": "C#4",
          "midi": 61,
          "time": 127.45348837207642,
          "velocity": 0.2440944881889764,
          "duration": 0.023255813953483084
        },
        {
          "name": "B2",
          "midi": 47,
          "time": 127.4767441860299,
          "velocity": 0.2677165354330709,
          "duration": 0.023255813953483084
        },
        {
          "name": "C#5",
          "midi": 73,
          "time": 127.4767441860299,
          "velocity": 0.3543307086614173,
          "duration": 0.20930232558134776
        },
        {
          "name": "A#2",
          "midi": 46,
          "time": 127.49999999998339,
          "velocity": 0.29133858267716534,
          "duration": 0.04651162790696617
        },
        {
          "name": "B5",
          "midi": 83,
          "time": 127.52325581393687,
          "velocity": 0.16535433070866143,
          "duration": 0.05813953488370771
        },
        {
          "name": "D6",
          "midi": 86,
          "time": 127.54651162789035,
          "velocity": 0.09448818897637795,
          "duration": 0.034883720930224626
        },
        {
          "name": "D#5",
          "midi": 75,
          "time": 127.5581395348671,
          "velocity": 0.08661417322834646,
          "duration": 0.034883720930224626
        },
        {
          "name": "A#2",
          "midi": 46,
          "time": 127.56976744184384,
          "velocity": 0.2755905511811024,
          "duration": 0.023255813953483084
        },
        {
          "name": "A#3",
          "midi": 58,
          "time": 127.59302325579732,
          "velocity": 0.4094488188976378,
          "duration": 0.05813953488370771
        },
        {
          "name": "F#6",
          "midi": 90,
          "time": 127.59302325579732,
          "velocity": 0.08661417322834646,
          "duration": 0.04651162790696617
        },
        {
          "name": "D#6",
          "midi": 87,
          "time": 127.60465116277406,
          "velocity": 0.12598425196850394,
          "duration": 0.10465116279067388
        },
        {
          "name": "B2",
          "midi": 47,
          "time": 127.6162790697508,
          "velocity": 0.2283464566929134,
          "duration": 0.023255813953483084
        },
        {
          "name": "D#5",
          "midi": 75,
          "time": 127.6162790697508,
          "velocity": 0.11023622047244094,
          "duration": 0.11627906976741542
        },
        {
          "name": "A#2",
          "midi": 46,
          "time": 127.63953488370429,
          "velocity": 0.28346456692913385,
          "duration": 0.05813953488370771
        },
        {
          "name": "D6",
          "midi": 86,
          "time": 127.65116279068103,
          "velocity": 0.08661417322834646,
          "duration": 0.09302325581393234
        },
        {
          "name": "B5",
          "midi": 83,
          "time": 127.66279069765777,
          "velocity": 0.12598425196850394,
          "duration": 0.034883720930224626
        },
        {
          "name": "A#3",
          "midi": 58,
          "time": 127.68604651161125,
          "velocity": 0.4566929133858268,
          "duration": 0.034883720930224626
        },
        {
          "name": "C#5",
          "midi": 73,
          "time": 127.70930232556474,
          "velocity": 0.28346456692913385,
          "duration": 0.06976744186044925
        },
        {
          "name": "E6",
          "midi": 88,
          "time": 127.70930232556474,
          "velocity": 0.12598425196850394,
          "duration": 0.04651162790696617
        },
        {
          "name": "A#2",
          "midi": 46,
          "time": 127.72093023254148,
          "velocity": 0.4409448818897638,
          "duration": 0.11627906976741542
        },
        {
          "name": "A3",
          "midi": 57,
          "time": 127.72093023254148,
          "velocity": 0.5196850393700787,
          "duration": 0.023255813953483084
        },
        {
          "name": "G#3",
          "midi": 56,
          "time": 127.74418604649496,
          "velocity": 0.5354330708661418,
          "duration": 0.2558139534883139
        },
        {
          "name": "C6",
          "midi": 84,
          "time": 127.74418604649496,
          "velocity": 0.11811023622047244,
          "duration": 0.09302325581393234
        },
        {
          "name": "D#6",
          "midi": 87,
          "time": 127.7558139534717,
          "velocity": 0.13385826771653545,
          "duration": 0.04651162790696617
        },
        {
          "name": "A#4",
          "midi": 70,
          "time": 127.77906976742518,
          "velocity": 0.14173228346456693,
          "duration": 0.04651162790696617
        },
        {
          "name": "D6",
          "midi": 86,
          "time": 127.80232558137867,
          "velocity": 0.11811023622047244,
          "duration": 0.09302325581393234
        },
        {
          "name": "D#6",
          "midi": 87,
          "time": 127.81395348835541,
          "velocity": 0.10236220472440945,
          "duration": 0.034883720930224626
        },
        {
          "name": "C#5",
          "midi": 73,
          "time": 127.82558139533215,
          "velocity": 0.33858267716535434,
          "duration": 0.06976744186044925
        },
        {
          "name": "A#5",
          "midi": 82,
          "time": 127.82558139533215,
          "velocity": 0.18110236220472442,
          "duration": 0.11627906976741542
        },
        {
          "name": "A#4",
          "midi": 70,
          "time": 127.83720930230889,
          "velocity": 0.4094488188976378,
          "duration": 0.12790697674415696
        },
        {
          "name": "A#2",
          "midi": 46,
          "time": 127.84883720928563,
          "velocity": 0.4251968503937008,
          "duration": 0.1627906976743958
        },
        {
          "name": "G#5",
          "midi": 80,
          "time": 127.87209302323912,
          "velocity": 0.15748031496062992,
          "duration": 0.034883720930224626
        },
        {
          "name": "F#6",
          "midi": 90,
          "time": 127.87209302323912,
          "velocity": 0.07874015748031496,
          "duration": 0.034883720930224626
        },
        {
          "name": "G6",
          "midi": 91,
          "time": 127.87209302323912,
          "velocity": 0.10236220472440945,
          "duration": 0.034883720930224626
        },
        {
          "name": "F4",
          "midi": 65,
          "time": 127.90697674416934,
          "velocity": 0.33070866141732286,
          "duration": 0.11627906976742963
        },
        {
          "name": "C#5",
          "midi": 73,
          "time": 127.90697674416934,
          "velocity": 0.25196850393700787,
          "duration": 0.23255813953484505
        },
        {
          "name": "B5",
          "midi": 83,
          "time": 127.91860465114608,
          "velocity": 0.1732283464566929,
          "duration": 0.05813953488370771
        },
        {
          "name": "D#6",
          "midi": 87,
          "time": 127.91860465114608,
          "velocity": 0.1732283464566929,
          "duration": 0.11627906976742963
        },
        {
          "name": "G#5",
          "midi": 80,
          "time": 127.94186046509957,
          "velocity": 0.09448818897637795,
          "duration": 0.034883720930224626
        },
        {
          "name": "A#4",
          "midi": 70,
          "time": 127.97674418602979,
          "velocity": 0.2677165354330709,
          "duration": 0.05813953488372192
        },
        {
          "name": "C6",
          "midi": 84,
          "time": 127.98837209300653,
          "velocity": 0.12598425196850394,
          "duration": 0.03488372093023884
        },
        {
          "name": "B5",
          "midi": 83,
          "time": 128.01162790696003,
          "velocity": 0.1889763779527559,
          "duration": 0.04651162790696617
        },
        {
          "name": "C4",
          "midi": 60,
          "time": 128.02325581393677,
          "velocity": 0.2755905511811024,
          "duration": 0.023255813953483084
        },
        {
          "name": "F3",
          "midi": 53,
          "time": 128.0348837209135,
          "velocity": 0.3228346456692913,
          "duration": 0.12790697674415696
        },
        {
          "name": "F4",
          "midi": 65,
          "time": 128.0348837209135,
          "velocity": 0.36220472440944884,
          "duration": 0.05813953488370771
        },
        {
          "name": "G#5",
          "midi": 80,
          "time": 128.0348837209135,
          "velocity": 0.1889763779527559,
          "duration": 0.11627906976741542
        },
        {
          "name": "G#4",
          "midi": 68,
          "time": 128.04651162789025,
          "velocity": 0.30708661417322836,
          "duration": 0.0813953488371908
        },
        {
          "name": "A#4",
          "midi": 70,
          "time": 128.06976744184374,
          "velocity": 0.18110236220472442,
          "duration": 0.034883720930224626
        },
        {
          "name": "D#6",
          "midi": 87,
          "time": 128.06976744184374,
          "velocity": 0.14960629921259844,
          "duration": 0.05813953488370771
        },
        {
          "name": "A#3",
          "midi": 58,
          "time": 128.08139534882048,
          "velocity": 0.30708661417322836,
          "duration": 0.10465116279067388
        },
        {
          "name": "C6",
          "midi": 84,
          "time": 128.09302325579722,
          "velocity": 0.11023622047244094,
          "duration": 0.034883720930224626
        },
        {
          "name": "F5",
          "midi": 77,
          "time": 128.1162790697507,
          "velocity": 0.2677165354330709,
          "duration": 0.24418604651157239
        },
        {
          "name": "C6",
          "midi": 84,
          "time": 128.1395348837042,
          "velocity": 0.15748031496062992,
          "duration": 0.05813953488370771
        },
        {
          "name": "G#4",
          "midi": 68,
          "time": 128.15116279068093,
          "velocity": 0.30708661417322836,
          "duration": 0.05813953488370771
        },
        {
          "name": "C#5",
          "midi": 73,
          "time": 128.15116279068093,
          "velocity": 0.2992125984251969,
          "duration": 0.17441860465112313
        },
        {
          "name": "F4",
          "midi": 65,
          "time": 128.16279069765767,
          "velocity": 0.41732283464566927,
          "duration": 0.1627906976743816
        },
        {
          "name": "D#6",
          "midi": 87,
          "time": 128.16279069765767,
          "velocity": 0.12598425196850394,
          "duration": 0.0813953488371908
        },
        {
          "name": "F3",
          "midi": 53,
          "time": 128.1744186046344,
          "velocity": 0.33070866141732286,
          "duration": 0.09302325581393234
        },
        {
          "name": "C#4",
          "midi": 61,
          "time": 128.1744186046344,
          "velocity": 0.3543307086614173,
          "duration": 0.11627906976741542
        },
        {
          "name": "E6",
          "midi": 88,
          "time": 128.18604651161115,
          "velocity": 0.13385826771653545,
          "duration": 0.034883720930224626
        },
        {
          "name": "G#4",
          "midi": 68,
          "time": 128.22093023254138,
          "velocity": 0.2283464566929134,
          "duration": 0.05813953488370771
        },
        {
          "name": "A#4",
          "midi": 70,
          "time": 128.2558139534716,
          "velocity": 0.14173228346456693,
          "duration": 0.04651162790696617
        },
        {
          "name": "C6",
          "midi": 84,
          "time": 128.26744186044834,
          "velocity": 0.13385826771653545,
          "duration": 0.034883720930224626
        },
        {
          "name": "D#6",
          "midi": 87,
          "time": 128.26744186044834,
          "velocity": 0.2047244094488189,
          "duration": 0.09302325581393234
        },
        {
          "name": "G#4",
          "midi": 68,
          "time": 128.29069767440183,
          "velocity": 0.36220472440944884,
          "duration": 0.4186046511626955
        },
        {
          "name": "C#4",
          "midi": 61,
          "time": 128.32558139533205,
          "velocity": 0.2992125984251969,
          "duration": 0.04651162790696617
        },
        {
          "name": "C5",
          "midi": 72,
          "time": 128.32558139533205,
          "velocity": 0.15748031496062992,
          "duration": 0.05813953488370771
        },
        {
          "name": "F4",
          "midi": 65,
          "time": 128.3372093023088,
          "velocity": 0.25196850393700787,
          "duration": 0.034883720930224626
        },
        {
          "name": "G5",
          "midi": 79,
          "time": 128.3372093023088,
          "velocity": 0.09448818897637795,
          "duration": 0.034883720930224626
        },
        {
          "name": "B5",
          "midi": 83,
          "time": 128.3372093023088,
          "velocity": 0.12598425196850394,
          "duration": 0.034883720930224626
        },
        {
          "name": "C#6",
          "midi": 85,
          "time": 128.34883720928553,
          "velocity": 0.2440944881889764,
          "duration": 0.3255813953487632
        },
        {
          "name": "F#6",
          "midi": 90,
          "time": 128.34883720928553,
          "velocity": 0.08661417322834646,
          "duration": 0.04651162790696617
        },
        {
          "name": "F3",
          "midi": 53,
          "time": 128.37209302323902,
          "velocity": 0.2440944881889764,
          "duration": 0.034883720930224626
        },
        {
          "name": "C#5",
          "midi": 73,
          "time": 128.37209302323902,
          "velocity": 0.1732283464566929,
          "duration": 0.05813953488370771
        },
        {
          "name": "D#6",
          "midi": 87,
          "time": 128.37209302323902,
          "velocity": 0.2440944881889764,
          "duration": 0.11627906976741542
        },
        {
          "name": "F4",
          "midi": 65,
          "time": 128.38372093021576,
          "velocity": 0.3937007874015748,
          "duration": 0.29069767441853855
        },
        {
          "name": "C4",
          "midi": 60,
          "time": 128.3953488371925,
          "velocity": 0.23622047244094488,
          "duration": 0.034883720930224626
        },
        {
          "name": "B5",
          "midi": 83,
          "time": 128.41860465114598,
          "velocity": 0.10236220472440945,
          "duration": 0.05813953488370771
        },
        {
          "name": "C#4",
          "midi": 61,
          "time": 128.43023255812273,
          "velocity": 0.4251968503937008,
          "duration": 0.34883720930224626
        },
        {
          "name": "F2",
          "midi": 41,
          "time": 128.44186046509947,
          "velocity": 0.2440944881889764,
          "duration": 0.023255813953483084
        },
        {
          "name": "C5",
          "midi": 72,
          "time": 128.4767441860297,
          "velocity": 0.16535433070866143,
          "duration": 0.09302325581393234
        },
        {
          "name": "C6",
          "midi": 84,
          "time": 128.4767441860297,
          "velocity": 0.16535433070866143,
          "duration": 0.04651162790696617
        },
        {
          "name": "B5",
          "midi": 83,
          "time": 128.48837209300643,
          "velocity": 0.11811023622047244,
          "duration": 0.04651162790696617
        },
        {
          "name": "D#5",
          "midi": 75,
          "time": 128.49999999998317,
          "velocity": 0.07086614173228346,
          "duration": 0.04651162790696617
        },
        {
          "name": "D#6",
          "midi": 87,
          "time": 128.49999999998317,
          "velocity": 0.10236220472440945,
          "duration": 0.034883720930224626
        },
        {
          "name": "E2",
          "midi": 40,
          "time": 128.5930232557971,
          "velocity": 0.1968503937007874,
          "duration": 0.034883720930224626
        },
        {
          "name": "D#5",
          "midi": 75,
          "time": 128.60465116277385,
          "velocity": 0.10236220472440945,
          "duration": 0.04651162790696617
        },
        {
          "name": "D#6",
          "midi": 87,
          "time": 128.60465116277385,
          "velocity": 0.1968503937007874,
          "duration": 0.05813953488370771
        },
        {
          "name": "B5",
          "midi": 83,
          "time": 128.62790697672733,
          "velocity": 0.14173228346456693,
          "duration": 0.0813953488371908
        },
        {
          "name": "C6",
          "midi": 84,
          "time": 128.66279069765756,
          "velocity": 0.14173228346456693,
          "duration": 0.034883720930224626
        },
        {
          "name": "F3",
          "midi": 53,
          "time": 128.68604651161104,
          "velocity": 0.3700787401574803,
          "duration": 0.2209302325580893
        },
        {
          "name": "C5",
          "midi": 72,
          "time": 128.68604651161104,
          "velocity": 0.10236220472440945,
          "duration": 0.05813953488370771
        },
        {
          "name": "D#6",
          "midi": 87,
          "time": 128.68604651161104,
          "velocity": 0.14960629921259844,
          "duration": 0.034883720930224626
        },
        {
          "name": "G#4",
          "midi": 68,
          "time": 128.72093023254126,
          "velocity": 0.36220472440944884,
          "duration": 0.24418604651157239
        },
        {
          "name": "C#6",
          "midi": 85,
          "time": 128.72093023254126,
          "velocity": 0.15748031496062992,
          "duration": 0.11627906976741542
        },
        {
          "name": "A#3",
          "midi": 58,
          "time": 128.74418604649475,
          "velocity": 0.16535433070866143,
          "duration": 0.04651162790696617
        },
        {
          "name": "D#6",
          "midi": 87,
          "time": 128.74418604649475,
          "velocity": 0.11023622047244094,
          "duration": 0.06976744186044925
        },
        {
          "name": "E2",
          "midi": 40,
          "time": 128.77906976742497,
          "velocity": 0.2283464566929134,
          "duration": 0.04651162790696617
        },
        {
          "name": "C6",
          "midi": 84,
          "time": 128.77906976742497,
          "velocity": 0.09448818897637795,
          "duration": 0.034883720930224626
        },
        {
          "name": "C#5",
          "midi": 73,
          "time": 128.7906976744017,
          "velocity": 0.1968503937007874,
          "duration": 0.06976744186044925
        },
        {
          "name": "C#4",
          "midi": 61,
          "time": 128.80232558137845,
          "velocity": 0.3700787401574803,
          "duration": 0.11627906976741542
        },
        {
          "name": "A5",
          "midi": 81,
          "time": 128.82558139533194,
          "velocity": 0.10236220472440945,
          "duration": 0.034883720930224626
        },
        {
          "name": "C6",
          "midi": 84,
          "time": 128.82558139533194,
          "velocity": 0.14960629921259844,
          "duration": 0.1627906976743816
        },
        {
          "name": "D#6",
          "midi": 87,
          "time": 128.82558139533194,
          "velocity": 0.1732283464566929,
          "duration": 0.12790697674415696
        },
        {
          "name": "D#5",
          "midi": 75,
          "time": 128.84883720928542,
          "velocity": 0.10236220472440945,
          "duration": 0.06976744186044925
        },
        {
          "name": "A#5",
          "midi": 82,
          "time": 128.8720930232389,
          "velocity": 0.14960629921259844,
          "duration": 0.04651162790696617
        },
        {
          "name": "C5",
          "midi": 72,
          "time": 128.91860465114587,
          "velocity": 0.23622047244094488,
          "duration": 0.034883720930224626
        },
        {
          "name": "C#4",
          "midi": 61,
          "time": 128.9302325581226,
          "velocity": 0.2125984251968504,
          "duration": 0.034883720930224626
        },
        {
          "name": "D#5",
          "midi": 75,
          "time": 128.94186046509935,
          "velocity": 0.10236220472440945,
          "duration": 0.1395348837208985
        },
        {
          "name": "F3",
          "midi": 53,
          "time": 128.9534883720761,
          "velocity": 0.4015748031496063,
          "duration": 0.19767441860460622
        },
        {
          "name": "A#5",
          "midi": 82,
          "time": 128.96511627905284,
          "velocity": 0.11023622047244094,
          "duration": 0.034883720930224626
        },
        {
          "name": "D6",
          "midi": 86,
          "time": 128.96511627905284,
          "velocity": 0.12598425196850394,
          "duration": 0.05813953488370771
        },
        {
          "name": "C#4",
          "midi": 61,
          "time": 128.97674418602958,
          "velocity": 0.41732283464566927,
          "duration": 0.05813953488370771
        },
        {
          "name": "G#5",
          "midi": 80,
          "time": 128.99999999998306,
          "velocity": 0.07086614173228346,
          "duration": 0.034883720930224626
        },
        {
          "name": "B5",
          "midi": 83,
          "time": 128.99999999998306,
          "velocity": 0.1968503937007874,
          "duration": 0.05813953488370771
        },
        {
          "name": "G#4",
          "midi": 68,
          "time": 129.02325581393654,
          "velocity": 0.3543307086614173,
          "duration": 0.26744186046505547
        },
        {
          "name": "C5",
          "midi": 72,
          "time": 129.02325581393654,
          "velocity": 0.13385826771653545,
          "duration": 0.06976744186044925
        },
        {
          "name": "D#4",
          "midi": 63,
          "time": 129.03488372091329,
          "velocity": 0.5905511811023622,
          "duration": 0.26744186046505547
        },
        {
          "name": "A5",
          "midi": 81,
          "time": 129.03488372091329,
          "velocity": 0.14960629921259844,
          "duration": 0.05813953488370771
        },
        {
          "name": "D#6",
          "midi": 87,
          "time": 129.03488372091329,
          "velocity": 0.12598425196850394,
          "duration": 0.12790697674415696
        },
        {
          "name": "F#6",
          "midi": 90,
          "time": 129.04651162789003,
          "velocity": 0.08661417322834646,
          "duration": 0.04651162790696617
        },
        {
          "name": "F5",
          "midi": 77,
          "time": 129.10465116277373,
          "velocity": 0.30708661417322836,
          "duration": 0.0813953488371908
        },
        {
          "name": "C#6",
          "midi": 85,
          "time": 129.11627906975048,
          "velocity": 0.16535433070866143,
          "duration": 0.1395348837208985
        },
        {
          "name": "F2",
          "midi": 41,
          "time": 129.12790697672722,
          "velocity": 0.2283464566929134,
          "duration": 0.04651162790696617
        },
        {
          "name": "F2",
          "midi": 41,
          "time": 129.18604651161093,
          "velocity": 0.31496062992125984,
          "duration": 0.12790697674415696
        },
        {
          "name": "E6",
          "midi": 88,
          "time": 129.18604651161093,
          "velocity": 0.08661417322834646,
          "duration": 0.034883720930224626
        },
        {
          "name": "F3",
          "midi": 53,
          "time": 129.19767441858767,
          "velocity": 0.3779527559055118,
          "duration": 0.19767441860460622
        },
        {
          "name": "C#5",
          "midi": 73,
          "time": 129.2093023255644,
          "velocity": 0.2677165354330709,
          "duration": 0.1627906976743816
        },
        {
          "name": "F5",
          "midi": 77,
          "time": 129.22093023254115,
          "velocity": 0.25984251968503935,
          "duration": 0.15116279069764005
        },
        {
          "name": "C5",
          "midi": 72,
          "time": 129.24418604649463,
          "velocity": 0.1968503937007874,
          "duration": 0.034883720930224626
        },
        {
          "name": "D#6",
          "midi": 87,
          "time": 129.26744186044812,
          "velocity": 0.25196850393700787,
          "duration": 0.43023255813943706
        },
        {
          "name": "F4",
          "midi": 65,
          "time": 129.27906976742486,
          "velocity": 0.47244094488188976,
          "duration": 0.06976744186044925
        },
        {
          "name": "G#5",
          "midi": 80,
          "time": 129.2906976744016,
          "velocity": 0.1968503937007874,
          "duration": 0.034883720930224626
        },
        {
          "name": "C#4",
          "midi": 61,
          "time": 129.30232558137834,
          "velocity": 0.3858267716535433,
          "duration": 0.023255813953483084
        },
        {
          "name": "D#5",
          "midi": 75,
          "time": 129.30232558137834,
          "velocity": 0.11023622047244094,
          "duration": 0.06976744186044925
        },
        {
          "name": "C6",
          "midi": 84,
          "time": 129.31395348835508,
          "velocity": 0.09448818897637795,
          "duration": 0.05813953488370771
        },
        {
          "name": "G#2",
          "midi": 44,
          "time": 129.33720930230857,
          "velocity": 0.28346456692913385,
          "duration": 0.023255813953483084
        },
        {
          "name": "G4",
          "midi": 67,
          "time": 129.33720930230857,
          "velocity": 0.3700787401574803,
          "duration": 0.023255813953483084
        },
        {
          "name": "G#5",
          "midi": 80,
          "time": 129.33720930230857,
          "velocity": 0.23622047244094488,
          "duration": 0.034883720930224626
        },
        {
          "name": "A#4",
          "midi": 70,
          "time": 129.3488372092853,
          "velocity": 0.36220472440944884,
          "duration": 0.37209302325572935
        },
        {
          "name": "F#4",
          "midi": 66,
          "time": 129.36046511626205,
          "velocity": 0.4094488188976378,
          "duration": 0.04651162790696617
        },
        {
          "name": "F#2",
          "midi": 42,
          "time": 129.3720930232388,
          "velocity": 0.2992125984251969,
          "duration": 0.05813953488370771
        },
        {
          "name": "B5",
          "midi": 83,
          "time": 129.3720930232388,
          "velocity": 0.15748031496062992,
          "duration": 0.06976744186044925
        },
        {
          "name": "C#5",
          "midi": 73,
          "time": 129.38372093021553,
          "velocity": 0.28346456692913385,
          "duration": 0.2558139534883139
        },
        {
          "name": "D#4",
          "midi": 63,
          "time": 129.39534883719227,
          "velocity": 0.2440944881889764,
          "duration": 0.04651162790696617
        },
        {
          "name": "F#5",
          "midi": 78,
          "time": 129.40697674416901,
          "velocity": 0.2204724409448819,
          "duration": 0.10465116279067388
        },
        {
          "name": "F3",
          "midi": 53,
          "time": 129.41860465114576,
          "velocity": 0.25196850393700787,
          "duration": 0.023255813953483084
        },
        {
          "name": "F2",
          "midi": 41,
          "time": 129.44186046509924,
          "velocity": 0.2755905511811024,
          "duration": 0.023255813953483084
        },
        {
          "name": "F#3",
          "midi": 54,
          "time": 129.44186046509924,
          "velocity": 0.3858267716535433,
          "duration": 0.11627906976741542
        },
        {
          "name": "C#4",
          "midi": 61,
          "time": 129.44186046509924,
          "velocity": 0.47244094488188976,
          "duration": 0.24418604651157239
        },
        {
          "name": "G#5",
          "midi": 80,
          "time": 129.45348837207598,
          "velocity": 0.1968503937007874,
          "duration": 0.10465116279067388
        },
        {
          "name": "B5",
          "midi": 83,
          "time": 129.47674418602946,
          "velocity": 0.23622047244094488,
          "duration": 0.05813953488370771
        },
        {
          "name": "F4",
          "midi": 65,
          "time": 129.4883720930062,
          "velocity": 0.25196850393700787,
          "duration": 0.023255813953483084
        },
        {
          "name": "G#4",
          "midi": 68,
          "time": 129.49999999998295,
          "velocity": 0.2204724409448819,
          "duration": 0.04651162790696617
        },
        {
          "name": "F5",
          "midi": 77,
          "time": 129.5116279069597,
          "velocity": 0.2204724409448819,
          "duration": 0.034883720930224626
        },
        {
          "name": "F3",
          "midi": 53,
          "time": 129.55813953486665,
          "velocity": 0.3937007874015748,
          "duration": 0.023255813953483084
        },
        {
          "name": "F#3",
          "midi": 54,
          "time": 129.58139534882014,
          "velocity": 0.4015748031496063,
          "duration": 0.18604651162786467
        },
        {
          "name": "D#5",
          "midi": 75,
          "time": 129.58139534882014,
          "velocity": 0.14173228346456693,
          "duration": 0.04651162790696617
        },
        {
          "name": "F5",
          "midi": 77,
          "time": 129.58139534882014,
          "velocity": 0.2125984251968504,
          "duration": 0.09302325581393234
        },
        {
          "name": "F4",
          "midi": 65,
          "time": 129.61627906975036,
          "velocity": 0.33070866141732286,
          "duration": 0.05813953488370771
        },
        {
          "name": "B5",
          "midi": 83,
          "time": 129.61627906975036,
          "velocity": 0.12598425196850394,
          "duration": 0.034883720930224626
        },
        {
          "name": "G#5",
          "midi": 80,
          "time": 129.6511627906806,
          "velocity": 0.12598425196850394,
          "duration": 0.034883720930224626
        },
        {
          "name": "C#4",
          "midi": 61,
          "time": 129.69767441858755,
          "velocity": 0.49606299212598426,
          "duration": 0.0813953488371908
        },
        {
          "name": "F5",
          "midi": 77,
          "time": 129.69767441858755,
          "velocity": 0.16535433070866143,
          "duration": 0.0813953488371908
        },
        {
          "name": "D#5",
          "midi": 75,
          "time": 129.7093023255643,
          "velocity": 0.11023622047244094,
          "duration": 0.04651162790696617
        },
        {
          "name": "A#5",
          "midi": 82,
          "time": 129.72093023254104,
          "velocity": 0.1889763779527559,
          "duration": 0.09302325581393234
        },
        {
          "name": "A#4",
          "midi": 70,
          "time": 129.73255813951778,
          "velocity": 0.3937007874015748,
          "duration": 0.2209302325580893
        },
        {
          "name": "D#6",
          "midi": 87,
          "time": 129.73255813951778,
          "velocity": 0.12598425196850394,
          "duration": 0.11627906976741542
        },
        {
          "name": "F3",
          "midi": 53,
          "time": 129.767441860448,
          "velocity": 0.16535433070866143,
          "duration": 0.034883720930224626
        },
        {
          "name": "A2",
          "midi": 45,
          "time": 129.79069767440149,
          "velocity": 0.11023622047244094,
          "duration": 0.034883720930224626
        },
        {
          "name": "F#3",
          "midi": 54,
          "time": 129.80232558137823,
          "velocity": 0.2440944881889764,
          "duration": 0.0813953488371908
        },
        {
          "name": "D#4",
          "midi": 63,
          "time": 129.80232558137823,
          "velocity": 0.33070866141732286,
          "duration": 0.023255813953483084
        },
        {
          "name": "F4",
          "midi": 65,
          "time": 129.80232558137823,
          "velocity": 0.28346456692913385,
          "duration": 0.023255813953483084
        },
        {
          "name": "B5",
          "midi": 83,
          "time": 129.80232558137823,
          "velocity": 0.11811023622047244,
          "duration": 0.034883720930224626
        },
        {
          "name": "F#4",
          "midi": 66,
          "time": 129.8255813953317,
          "velocity": 0.3779527559055118,
          "duration": 0.19767441860460622
        },
        {
          "name": "C#4",
          "midi": 61,
          "time": 129.83720930230845,
          "velocity": 0.5118110236220472,
          "duration": 0.06976744186044925
        },
        {
          "name": "F#6",
          "midi": 90,
          "time": 129.83720930230845,
          "velocity": 0.07086614173228346,
          "duration": 0.034883720930224626
        },
        {
          "name": "D6",
          "midi": 86,
          "time": 129.8488372092852,
          "velocity": 0.11811023622047244,
          "duration": 0.034883720930224626
        },
        {
          "name": "G#5",
          "midi": 80,
          "time": 129.87209302323868,
          "velocity": 0.18110236220472442,
          "duration": 0.06976744186044925
        },
        {
          "name": "B5",
          "midi": 83,
          "time": 129.88372093021542,
          "velocity": 0.07874015748031496,
          "duration": 0.034883720930224626
        },
        {
          "name": "D#6",
          "midi": 87,
          "time": 129.88372093021542,
          "velocity": 0.1732283464566929,
          "duration": 0.09302325581393234
        },
        {
          "name": "F6",
          "midi": 89,
          "time": 129.88372093021542,
          "velocity": 0.11811023622047244,
          "duration": 0.09302325581393234
        },
        {
          "name": "C#4",
          "midi": 61,
          "time": 129.91860465114564,
          "velocity": 0.48031496062992124,
          "duration": 0.10465116279067388
        },
        {
          "name": "F#3",
          "midi": 54,
          "time": 129.93023255812238,
          "velocity": 0.23622047244094488,
          "duration": 0.10465116279067388
        },
        {
          "name": "G#5",
          "midi": 80,
          "time": 129.97674418602935,
          "velocity": 0.18110236220472442,
          "duration": 0.10465116279067388
        },
        {
          "name": "B5",
          "midi": 83,
          "time": 129.97674418602935,
          "velocity": 0.11023622047244094,
          "duration": 0.04651162790696617
        },
        {
          "name": "A#4",
          "midi": 70,
          "time": 129.9883720930061,
          "velocity": 0.36220472440944884,
          "duration": 0.2209302325580893
        },
        {
          "name": "F5",
          "midi": 77,
          "time": 129.9883720930061,
          "velocity": 0.2440944881889764,
          "duration": 0.05813953488370771
        },
        {
          "name": "E6",
          "midi": 88,
          "time": 129.9883720930061,
          "velocity": 0.11023622047244094,
          "duration": 0.04651162790696617
        },
        {
          "name": "C4",
          "midi": 60,
          "time": 130.02325581393632,
          "velocity": 0.2677165354330709,
          "duration": 0.023255813953483084
        },
        {
          "name": "F#5",
          "midi": 78,
          "time": 130.02325581393632,
          "velocity": 0.15748031496062992,
          "duration": 0.05813953488370771
        },
        {
          "name": "F#4",
          "midi": 66,
          "time": 130.03488372091306,
          "velocity": 0.25196850393700787,
          "duration": 0.023255813953483084
        },
        {
          "name": "C#4",
          "midi": 61,
          "time": 130.0465116278898,
          "velocity": 0.5354330708661418,
          "duration": 0.17441860465112313
        },
        {
          "name": "F#4",
          "midi": 66,
          "time": 130.08139534882002,
          "velocity": 0.18110236220472442,
          "duration": 0.05813953488370771
        },
        {
          "name": "B5",
          "midi": 83,
          "time": 130.08139534882002,
          "velocity": 0.09448818897637795,
          "duration": 0.04651162790696617
        },
        {
          "name": "D#6",
          "midi": 87,
          "time": 130.09302325579677,
          "velocity": 0.11811023622047244,
          "duration": 0.04651162790696617
        },
        {
          "name": "F#2",
          "midi": 42,
          "time": 130.1046511627735,
          "velocity": 0.11811023622047244,
          "duration": 0.034883720930224626
        },
        {
          "name": "F#3",
          "midi": 54,
          "time": 130.127906976727,
          "velocity": 0.4409448818897638,
          "duration": 0.1627906976743816
        },
        {
          "name": "F5",
          "midi": 77,
          "time": 130.13953488370373,
          "velocity": 0.11811023622047244,
          "duration": 0.06976744186044925
        },
        {
          "name": "E6",
          "midi": 88,
          "time": 130.15116279068047,
          "velocity": 0.07874015748031496,
          "duration": 0.04651162790696617
        },
        {
          "name": "G#5",
          "midi": 80,
          "time": 130.1860465116107,
          "velocity": 0.16535433070866143,
          "duration": 0.06976744186044925
        },
        {
          "name": "D#6",
          "midi": 87,
          "time": 130.1860465116107,
          "velocity": 0.09448818897637795,
          "duration": 0.0813953488371908
        },
        {
          "name": "F2",
          "midi": 41,
          "time": 130.19767441858744,
          "velocity": 0.25196850393700787,
          "duration": 0.034883720930224626
        },
        {
          "name": "C4",
          "midi": 60,
          "time": 130.22093023254092,
          "velocity": 0.5118110236220472,
          "duration": 0.011627906976741542
        },
        {
          "name": "A#4",
          "midi": 70,
          "time": 130.22093023254092,
          "velocity": 0.36220472440944884,
          "duration": 0.09302325581393234
        },
        {
          "name": "A#3",
          "midi": 58,
          "time": 130.23255813951766,
          "velocity": 0.48031496062992124,
          "duration": 0.023255813953483084
        },
        {
          "name": "F#2",
          "midi": 42,
          "time": 130.2441860464944,
          "velocity": 0.2204724409448819,
          "duration": 0.04651162790696617
        },
        {
          "name": "C4",
          "midi": 60,
          "time": 130.25581395347115,
          "velocity": 0.3858267716535433,
          "duration": 0.023255813953483084
        },
        {
          "name": "A#3",
          "midi": 58,
          "time": 130.27906976742463,
          "velocity": 0.6614173228346457,
          "duration": 0.12790697674415696
        },
        {
          "name": "C#6",
          "midi": 85,
          "time": 130.29069767440137,
          "velocity": 0.16535433070866143,
          "duration": 0.06976744186044925
        },
        {
          "name": "C#5",
          "midi": 73,
          "time": 130.3023255813781,
          "velocity": 0.23622047244094488,
          "duration": 0.05813953488370771
        },
        {
          "name": "D6",
          "midi": 86,
          "time": 130.3023255813781,
          "velocity": 0.09448818897637795,
          "duration": 0.04651162790696617
        },
        {
          "name": "A#5",
          "midi": 82,
          "time": 130.31395348835485,
          "velocity": 0.14173228346456693,
          "duration": 0.04651162790696617
        },
        {
          "name": "F2",
          "midi": 41,
          "time": 130.3255813953316,
          "velocity": 0.2204724409448819,
          "duration": 0.034883720930224626
        },
        {
          "name": "D#5",
          "midi": 75,
          "time": 130.3255813953316,
          "velocity": 0.2204724409448819,
          "duration": 0.1627906976743816
        },
        {
          "name": "G#5",
          "midi": 80,
          "time": 130.3255813953316,
          "velocity": 0.10236220472440945,
          "duration": 0.04651162790696617
        },
        {
          "name": "B5",
          "midi": 83,
          "time": 130.36046511626182,
          "velocity": 0.14173228346456693,
          "duration": 0.09302325581393234
        },
        {
          "name": "C#5",
          "midi": 73,
          "time": 130.3837209302153,
          "velocity": 0.2992125984251969,
          "duration": 0.19767441860460622
        },
        {
          "name": "C#4",
          "midi": 61,
          "time": 130.4069767441688,
          "velocity": 0.4015748031496063,
          "duration": 0.15116279069764005
        },
        {
          "name": "G#3",
          "midi": 56,
          "time": 130.41860465114553,
          "velocity": 0.5905511811023622,
          "duration": 0.15116279069764005
        },
        {
          "name": "A#5",
          "midi": 82,
          "time": 130.48837209300598,
          "velocity": 0.1968503937007874,
          "duration": 0.12790697674415696
        },
        {
          "name": "F#4",
          "midi": 66,
          "time": 130.49999999998272,
          "velocity": 0.33070866141732286,
          "duration": 0.05813953488370771
        },
        {
          "name": "A#4",
          "midi": 70,
          "time": 130.51162790695946,
          "velocity": 0.3464566929133858,
          "duration": 0.09302325581393234
        },
        {
          "name": "D6",
          "midi": 86,
          "time": 130.51162790695946,
          "velocity": 0.18110236220472442,
          "duration": 0.04651162790696617
        },
        {
          "name": "C6",
          "midi": 84,
          "time": 130.5232558139362,
          "velocity": 0.08661417322834646,
          "duration": 0.034883720930224626
        },
        {
          "name": "F#2",
          "midi": 42,
          "time": 130.53488372091294,
          "velocity": 0.2204724409448819,
          "duration": 0.04651162790696617
        },
        {
          "name": "C#4",
          "midi": 61,
          "time": 130.56976744184317,
          "velocity": 0.5039370078740157,
          "duration": 0.31395348837202164
        },
        {
          "name": "F#4",
          "midi": 66,
          "time": 130.56976744184317,
          "velocity": 0.3464566929133858,
          "duration": 0.06976744186044925
        },
        {
          "name": "D#6",
          "midi": 87,
          "time": 130.59302325579665,
          "velocity": 0.11023622047244094,
          "duration": 0.034883720930224626
        },
        {
          "name": "F2",
          "midi": 41,
          "time": 130.6046511627734,
          "velocity": 0.2440944881889764,
          "duration": 0.023255813953483084
        },
        {
          "name": "A3",
          "midi": 57,
          "time": 130.61627906975014,
          "velocity": 0.33070866141732286,
          "duration": 0.023255813953483084
        },
        {
          "name": "F#2",
          "midi": 42,
          "time": 130.62790697672688,
          "velocity": 0.1889763779527559,
          "duration": 0.04651162790696617
        },
        {
          "name": "F5",
          "midi": 77,
          "time": 130.62790697672688,
          "velocity": 0.14960629921259844,
          "duration": 0.05813953488370771
        },
        {
          "name": "F3",
          "midi": 53,
          "time": 130.63953488370362,
          "velocity": 0.3543307086614173,
          "duration": 0.10465116279067388
        },
        {
          "name": "A#4",
          "midi": 70,
          "time": 130.6627906976571,
          "velocity": 0.18110236220472442,
          "duration": 0.11627906976741542
        },
        {
          "name": "C5",
          "midi": 72,
          "time": 130.6627906976571,
          "velocity": 0.2204724409448819,
          "duration": 0.15116279069764005
        },
        {
          "name": "G#5",
          "midi": 80,
          "time": 130.6627906976571,
          "velocity": 0.10236220472440945,
          "duration": 0.034883720930224626
        },
        {
          "name": "D#6",
          "midi": 87,
          "time": 130.6627906976571,
          "velocity": 0.14173228346456693,
          "duration": 0.05813953488370771
        },
        {
          "name": "F2",
          "midi": 41,
          "time": 130.67441860463384,
          "velocity": 0.2283464566929134,
          "duration": 0.023255813953483084
        },
        {
          "name": "F2",
          "midi": 41,
          "time": 130.7209302325408,
          "velocity": 0.25196850393700787,
          "duration": 0.06976744186044925
        },
        {
          "name": "F#4",
          "midi": 66,
          "time": 130.7441860464943,
          "velocity": 0.2677165354330709,
          "duration": 0.023255813953483084
        },
        {
          "name": "G#5",
          "midi": 80,
          "time": 130.7441860464943,
          "velocity": 0.2283464566929134,
          "duration": 0.17441860465112313
        },
        {
          "name": "C#6",
          "midi": 85,
          "time": 130.75581395347103,
          "velocity": 0.14960629921259844,
          "duration": 0.05813953488370771
        },
        {
          "name": "F4",
          "midi": 65,
          "time": 130.76744186044778,
          "velocity": 0.33070866141732286,
          "duration": 0.09302325581393234
        },
        {
          "name": "D#6",
          "midi": 87,
          "time": 130.76744186044778,
          "velocity": 0.11023622047244094,
          "duration": 0.04651162790696617
        },
        {
          "name": "F#3",
          "midi": 54,
          "time": 130.77906976742452,
          "velocity": 0.23622047244094488,
          "duration": 0.04651162790696617
        },
        {
          "name": "G#4",
          "midi": 68,
          "time": 130.79069767440126,
          "velocity": 0.41732283464566927,
          "duration": 0.6627906976742963
        },
        {
          "name": "A#5",
          "midi": 82,
          "time": 130.81395348835474,
          "velocity": 0.11023622047244094,
          "duration": 0.12790697674415696
        },
        {
          "name": "C6",
          "midi": 84,
          "time": 130.82558139533148,
          "velocity": 0.15748031496062992,
          "duration": 0.06976744186044925
        },
        {
          "name": "F6",
          "midi": 89,
          "time": 130.82558139533148,
          "velocity": 0.07086614173228346,
          "duration": 0.034883720930224626
        },
        {
          "name": "D#6",
          "midi": 87,
          "time": 130.83720930230822,
          "velocity": 0.10236220472440945,
          "duration": 0.10465116279067388
        },
        {
          "name": "B5",
          "midi": 83,
          "time": 130.84883720928497,
          "velocity": 0.13385826771653545,
          "duration": 0.05813953488370771
        },
        {
          "name": "F#4",
          "midi": 66,
          "time": 130.8604651162617,
          "velocity": 0.3228346456692913,
          "duration": 0.023255813953483084
        },
        {
          "name": "F3",
          "midi": 53,
          "time": 130.87209302323845,
          "velocity": 0.2283464566929134,
          "duration": 0.023255813953483084
        },
        {
          "name": "D4",
          "midi": 62,
          "time": 130.8837209302152,
          "velocity": 0.3228346456692913,
          "duration": 0.023255813953483084
        },
        {
          "name": "F4",
          "midi": 65,
          "time": 130.8837209302152,
          "velocity": 0.4094488188976378,
          "duration": 0.3837209302324993
        },
        {
          "name": "F3",
          "midi": 53,
          "time": 130.90697674416867,
          "velocity": 0.2283464566929134,
          "duration": 0.023255813953483084
        },
        {
          "name": "C#4",
          "midi": 61,
          "time": 130.90697674416867,
          "velocity": 0.5196850393700787,
          "duration": 0.09302325581393234
        },
        {
          "name": "C#6",
          "midi": 85,
          "time": 130.90697674416867,
          "velocity": 0.18110236220472442,
          "duration": 0.1395348837208985
        },
        {
          "name": "F3",
          "midi": 53,
          "time": 130.9418604650989,
          "velocity": 0.3700787401574803,
          "duration": 0.22093023255811772
        },
        {
          "name": "A#4",
          "midi": 70,
          "time": 130.9418604650989,
          "velocity": 0.18110236220472442,
          "duration": 0.04651162790696617
        },
        {
          "name": "D#6",
          "midi": 87,
          "time": 130.95348837207564,
          "velocity": 0.10236220472440945,
          "duration": 0.05813953488370771
        },
        {
          "name": "B5",
          "midi": 83,
          "time": 130.96511627905238,
          "velocity": 0.15748031496062992,
          "duration": 0.05813953488370771
        },
        {
          "name": "F6",
          "midi": 89,
          "time": 130.96511627905238,
          "velocity": 0.10236220472440945,
          "duration": 0.04651162790696617
        },
        {
          "name": "C5",
          "midi": 72,
          "time": 130.98837209300586,
          "velocity": 0.23622047244094488,
          "duration": 0.04651162790696617
        },
        {
          "name": "C4",
          "midi": 60,
          "time": 130.9999999999826,
          "velocity": 0.44881889763779526,
          "duration": 0.034883720930224626
        },
        {
          "name": "C#4",
          "midi": 61,
          "time": 131.03488372091283,
          "velocity": 0.5590551181102362,
          "duration": 0.23255813953485927
        },
        {
          "name": "C#6",
          "midi": 85,
          "time": 131.0813953488198,
          "velocity": 0.1732283464566929,
          "duration": 0.1046511627907023
        },
        {
          "name": "D#5",
          "midi": 75,
          "time": 131.16279069765702,
          "velocity": 0.08661417322834646,
          "duration": 0.034883720930224626
        },
        {
          "name": "D#6",
          "midi": 87,
          "time": 131.20930232556398,
          "velocity": 0.08661417322834646,
          "duration": 0.04651162790696617
        },
        {
          "name": "F3",
          "midi": 53,
          "time": 131.22093023254072,
          "velocity": 0.18110236220472442,
          "duration": 0.034883720930224626
        },
        {
          "name": "F3",
          "midi": 53,
          "time": 131.2674418604477,
          "velocity": 0.44881889763779526,
          "duration": 0.24418604651157239
        },
        {
          "name": "C#4",
          "midi": 61,
          "time": 131.29069767440117,
          "velocity": 0.3543307086614173,
          "duration": 0.0813953488371908
        },
        {
          "name": "C6",
          "midi": 84,
          "time": 131.29069767440117,
          "velocity": 0.08661417322834646,
          "duration": 0.05813953488370771
        },
        {
          "name": "D#6",
          "midi": 87,
          "time": 131.3255813953314,
          "velocity": 0.14960629921259844,
          "duration": 0.11627906976741542
        },
        {
          "name": "F2",
          "midi": 41,
          "time": 131.34883720928488,
          "velocity": 0.16535433070866143,
          "duration": 0.04651162790696617
        },
        {
          "name": "B5",
          "midi": 83,
          "time": 131.34883720928488,
          "velocity": 0.10236220472440945,
          "duration": 0.04651162790696617
        },
        {
          "name": "C#4",
          "midi": 61,
          "time": 131.3837209302151,
          "velocity": 0.6299212598425197,
          "duration": 0.1627906976743816
        },
        {
          "name": "F5",
          "midi": 77,
          "time": 131.3837209302151,
          "velocity": 0.2125984251968504,
          "duration": 0.05813953488370771
        },
        {
          "name": "C5",
          "midi": 72,
          "time": 131.39534883719185,
          "velocity": 0.2204724409448819,
          "duration": 0.034883720930224626
        },
        {
          "name": "F#4",
          "midi": 66,
          "time": 131.4069767441686,
          "velocity": 0.1968503937007874,
          "duration": 0.034883720930224626
        },
        {
          "name": "C#6",
          "midi": 85,
          "time": 131.4069767441686,
          "velocity": 0.1889763779527559,
          "duration": 0.05813953488370771
        },
        {
          "name": "C5",
          "midi": 72,
          "time": 131.45348837207555,
          "velocity": 0.28346456692913385,
          "duration": 0.04651162790696617
        },
        {
          "name": "G#4",
          "midi": 68,
          "time": 131.47674418602904,
          "velocity": 0.4330708661417323,
          "duration": 0.10465116279067388
        },
        {
          "name": "D6",
          "midi": 86,
          "time": 131.48837209300578,
          "velocity": 0.12598425196850394,
          "duration": 0.034883720930224626
        },
        {
          "name": "D#5",
          "midi": 75,
          "time": 131.49999999998252,
          "velocity": 0.08661417322834646,
          "duration": 0.034883720930224626
        },
        {
          "name": "A3",
          "midi": 57,
          "time": 131.53488372091275,
          "velocity": 0.4251968503937008,
          "duration": 0.034883720930224626
        },
        {
          "name": "A#4",
          "midi": 70,
          "time": 131.53488372091275,
          "velocity": 0.33858267716535434,
          "duration": 0.11627906976741542
        },
        {
          "name": "C5",
          "midi": 72,
          "time": 131.55813953486623,
          "velocity": 0.23622047244094488,
          "duration": 0.04651162790696617
        },
        {
          "name": "A#3",
          "midi": 58,
          "time": 131.56976744184297,
          "velocity": 0.5748031496062992,
          "duration": 0.0813953488371908
        },
        {
          "name": "A5",
          "midi": 81,
          "time": 131.56976744184297,
          "velocity": 0.11023622047244094,
          "duration": 0.034883720930224626
        },
        {
          "name": "F3",
          "midi": 53,
          "time": 131.5813953488197,
          "velocity": 0.1732283464566929,
          "duration": 0.034883720930224626
        },
        {
          "name": "D#6",
          "midi": 87,
          "time": 131.5813953488197,
          "velocity": 0.09448818897637795,
          "duration": 0.034883720930224626
        },
        {
          "name": "C5",
          "midi": 72,
          "time": 131.62790697672668,
          "velocity": 0.23622047244094488,
          "duration": 0.05813953488370771
        },
        {
          "name": "G#4",
          "midi": 68,
          "time": 131.63953488370342,
          "velocity": 0.4330708661417323,
          "duration": 0.31395348837202164
        },
        {
          "name": "D#5",
          "midi": 75,
          "time": 131.63953488370342,
          "velocity": 0.16535433070866143,
          "duration": 0.06976744186044925
        },
        {
          "name": "A3",
          "midi": 57,
          "time": 131.65116279068016,
          "velocity": 0.5984251968503937,
          "duration": 0.011627906976741542
        },
        {
          "name": "F4",
          "midi": 65,
          "time": 131.65116279068016,
          "velocity": 0.3779527559055118,
          "duration": 0.29069767441853855
        },
        {
          "name": "G#3",
          "midi": 56,
          "time": 131.6627906976569,
          "velocity": 0.4881889763779528,
          "duration": 0.06976744186044925
        },
        {
          "name": "C#6",
          "midi": 85,
          "time": 131.68604651161039,
          "velocity": 0.18110236220472442,
          "duration": 0.17441860465112313
        },
        {
          "name": "C#4",
          "midi": 61,
          "time": 131.69767441858713,
          "velocity": 0.3858267716535433,
          "duration": 0.06976744186044925
        },
        {
          "name": "C5",
          "midi": 72,
          "time": 131.69767441858713,
          "velocity": 0.23622047244094488,
          "duration": 0.09302325581393234
        },
        {
          "name": "F3",
          "midi": 53,
          "time": 131.7209302325406,
          "velocity": 0.3228346456692913,
          "duration": 0.023255813953483084
        },
        {
          "name": "D#5",
          "midi": 75,
          "time": 131.73255813951735,
          "velocity": 0.1968503937007874,
          "duration": 0.11627906976741542
        },
        {
          "name": "C#5",
          "midi": 73,
          "time": 131.77906976742432,
          "velocity": 0.28346456692913385,
          "duration": 0.0813953488371908
        },
        {
          "name": "G#3",
          "midi": 56,
          "time": 131.79069767440106,
          "velocity": 0.4330708661417323,
          "duration": 0.05813953488370771
        },
        {
          "name": "C#4",
          "midi": 61,
          "time": 131.79069767440106,
          "velocity": 0.5984251968503937,
          "duration": 0.5116279069766279
        },
        {
          "name": "D#6",
          "midi": 87,
          "time": 131.84883720928477,
          "velocity": 0.16535433070866143,
          "duration": 0.034883720930224626
        },
        {
          "name": "G#3",
          "midi": 56,
          "time": 131.8604651162615,
          "velocity": 0.4015748031496063,
          "duration": 0.034883720930224626
        },
        {
          "name": "C5",
          "midi": 72,
          "time": 131.8604651162615,
          "velocity": 0.25196850393700787,
          "duration": 0.06976744186044925
        },
        {
          "name": "D#5",
          "midi": 75,
          "time": 131.87209302323825,
          "velocity": 0.14173228346456693,
          "duration": 0.04651162790696617
        },
        {
          "name": "C#6",
          "midi": 85,
          "time": 131.883720930215,
          "velocity": 0.1732283464566929,
          "duration": 0.04651162790696617
        },
        {
          "name": "D6",
          "midi": 86,
          "time": 131.883720930215,
          "velocity": 0.1732283464566929,
          "duration": 0.034883720930224626
        },
        {
          "name": "F3",
          "midi": 53,
          "time": 131.90697674416847,
          "velocity": 0.2204724409448819,
          "duration": 0.034883720930224626
        },
        {
          "name": "F#3",
          "midi": 54,
          "time": 131.9418604650987,
          "velocity": 0.3228346456692913,
          "duration": 0.05813953488370771
        },
        {
          "name": "B5",
          "midi": 83,
          "time": 131.9418604650987,
          "velocity": 0.13385826771653545,
          "duration": 0.034883720930224626
        },
        {
          "name": "A#5",
          "midi": 82,
          "time": 131.97674418602892,
          "velocity": 0.15748031496062992,
          "duration": 0.034883720930224626
        },
        {
          "name": "G#5",
          "midi": 80,
          "time": 131.98837209300567,
          "velocity": 0.1732283464566929,
          "duration": 0.1395348837208985
        },
        {
          "name": "G3",
          "midi": 55,
          "time": 131.9999999999824,
          "velocity": 0.30708661417322836,
          "duration": 0.023255813953483084
        },
        {
          "name": "A#4",
          "midi": 70,
          "time": 131.9999999999824,
          "velocity": 0.25196850393700787,
          "duration": 0.04651162790696617
        },
        {
          "name": "F#5",
          "midi": 78,
          "time": 132.01162790695915,
          "velocity": 0.2125984251968504,
          "duration": 0.12790697674415696
        },
        {
          "name": "F#2",
          "midi": 42,
          "time": 132.0232558139359,
          "velocity": 0.12598425196850394,
          "duration": 0.06976744186044925
        },
        {
          "name": "F#3",
          "midi": 54,
          "time": 132.0232558139359,
          "velocity": 0.25196850393700787,
          "duration": 0.04651162790696617
        },
        {
          "name": "A#4",
          "midi": 70,
          "time": 132.05813953486611,
          "velocity": 0.3543307086614173,
          "duration": 0.20930232558134776
        },
        {
          "name": "F#4",
          "midi": 66,
          "time": 132.06976744184286,
          "velocity": 0.2992125984251969,
          "duration": 0.05813953488370771
        },
        {
          "name": "F5",
          "midi": 77,
          "time": 132.0813953488196,
          "velocity": 0.07874015748031496,
          "duration": 0.034883720930224626
        },
        {
          "name": "F#3",
          "midi": 54,
          "time": 132.10465116277308,
          "velocity": 0.25196850393700787,
          "duration": 0.05813953488370771
        },
        {
          "name": "F#2",
          "midi": 42,
          "time": 132.12790697672656,
          "velocity": 0.16535433070866143,
          "duration": 0.05813953488370771
        },
        {
          "name": "F4",
          "midi": 65,
          "time": 132.12790697672656,
          "velocity": 0.30708661417322836,
          "duration": 0.023255813953483084
        },
        {
          "name": "F#4",
          "midi": 66,
          "time": 132.15116279068005,
          "velocity": 0.3779527559055118,
          "duration": 0.04651162790696617
        },
        {
          "name": "F4",
          "midi": 65,
          "time": 132.197674418587,
          "velocity": 0.3228346456692913,
          "duration": 0.034883720930224626
        },
        {
          "name": "F#3",
          "midi": 54,
          "time": 132.20930232556375,
          "velocity": 0.2755905511811024,
          "duration": 0.26744186046505547
        },
        {
          "name": "F#5",
          "midi": 78,
          "time": 132.20930232556375,
          "velocity": 0.16535433070866143,
          "duration": 0.0813953488371908
        },
        {
          "name": "F#4",
          "midi": 66,
          "time": 132.23255813951724,
          "velocity": 0.28346456692913385,
          "duration": 0.034883720930224626
        },
        {
          "name": "C#6",
          "midi": 85,
          "time": 132.23255813951724,
          "velocity": 0.18110236220472442,
          "duration": 0.10465116279067388
        },
        {
          "name": "F4",
          "midi": 65,
          "time": 132.26744186044746,
          "velocity": 0.4015748031496063,
          "duration": 0.023255813953483084
        },
        {
          "name": "G#5",
          "midi": 80,
          "time": 132.26744186044746,
          "velocity": 0.2047244094488189,
          "duration": 0.24418604651157239
        },
        {
          "name": "A#4",
          "midi": 70,
          "time": 132.2790697674242,
          "velocity": 0.2755905511811024,
          "duration": 0.06976744186044925
        },
        {
          "name": "G4",
          "midi": 67,
          "time": 132.29069767440095,
          "velocity": 0.30708661417322836,
          "duration": 0.023255813953483084
        },
        {
          "name": "F#2",
          "midi": 42,
          "time": 132.3023255813777,
          "velocity": 0.13385826771653545,
          "duration": 0.034883720930224626
        },
        {
          "name": "D4",
          "midi": 62,
          "time": 132.3023255813777,
          "velocity": 0.4566929133858268,
          "duration": 0.034883720930224626
        },
        {
          "name": "F4",
          "midi": 65,
          "time": 132.32558139533117,
          "velocity": 0.3464566929133858,
          "duration": 0.023255813953483084
        },
        {
          "name": "F#5",
          "midi": 78,
          "time": 132.3372093023079,
          "velocity": 0.1889763779527559,
          "duration": 0.05813953488370771
        },
        {
          "name": "D4",
          "midi": 62,
          "time": 132.34883720928465,
          "velocity": 0.28346456692913385,
          "duration": 0.023255813953483084
        },
        {
          "name": "F#4",
          "midi": 66,
          "time": 132.34883720928465,
          "velocity": 0.4409448818897638,
          "duration": 0.2558139534883139
        },
        {
          "name": "F#2",
          "midi": 42,
          "time": 132.3604651162614,
          "velocity": 0.10236220472440945,
          "duration": 0.06976744186044925
        },
        {
          "name": "A#4",
          "midi": 70,
          "time": 132.3604651162614,
          "velocity": 0.2992125984251969,
          "duration": 0.2558139534883139
        },
        {
          "name": "C#4",
          "midi": 61,
          "time": 132.37209302323814,
          "velocity": 0.5905511811023622,
          "duration": 0.1627906976743816
        },
        {
          "name": "F#3",
          "midi": 54,
          "time": 132.48837209300555,
          "velocity": 0.33070866141732286,
          "duration": 0.4651162790696901
        },
        {
          "name": "C#4",
          "midi": 61,
          "time": 132.54651162788926,
          "velocity": 0.3543307086614173,
          "duration": 0.10465116279067388
        },
        {
          "name": "G#4",
          "midi": 68,
          "time": 132.558139534866,
          "velocity": 0.10236220472440945,
          "duration": 0.034883720930224626
        },
        {
          "name": "F#4",
          "midi": 66,
          "time": 132.62790697672645,
          "velocity": 0.3464566929133858,
          "duration": 0.06976744186044925
        },
        {
          "name": "A#4",
          "midi": 70,
          "time": 132.62790697672645,
          "velocity": 0.3464566929133858,
          "duration": 0.3023255813953085
        },
        {
          "name": "C#4",
          "midi": 61,
          "time": 132.66279069765667,
          "velocity": 0.5984251968503937,
          "duration": 0.1860465116278931
        },
        {
          "name": "F#4",
          "midi": 66,
          "time": 132.70930232556364,
          "velocity": 0.4015748031496063,
          "duration": 0.19767441860463464
        },
        {
          "name": "G#5",
          "midi": 80,
          "time": 132.72093023254038,
          "velocity": 0.2677165354330709,
          "duration": 0.13953488372092693
        },
        {
          "name": "D#5",
          "midi": 75,
          "time": 132.82558139533108,
          "velocity": 0.4251968503937008,
          "duration": 0.1395348837208985
        },
        {
          "name": "D#4",
          "midi": 63,
          "time": 132.83720930230783,
          "velocity": 0.5196850393700787,
          "duration": 0.10465116279067388
        },
        {
          "name": "G#5",
          "midi": 80,
          "time": 132.89534883719153,
          "velocity": 0.18110236220472442,
          "duration": 0.06976744186044925
        },
        {
          "name": "E4",
          "midi": 64,
          "time": 132.9418604650985,
          "velocity": 0.5984251968503937,
          "duration": 0.023255813953483084
        },
        {
          "name": "F5",
          "midi": 77,
          "time": 132.9418604650985,
          "velocity": 0.3700787401574803,
          "duration": 0.43023255813943706
        },
        {
          "name": "C6",
          "midi": 84,
          "time": 132.9418604650985,
          "velocity": 0.1968503937007874,
          "duration": 0.11627906976741542
        },
        {
          "name": "A#4",
          "midi": 70,
          "time": 132.95348837207524,
          "velocity": 0.2677165354330709,
          "duration": 0.04651162790696617
        },
        {
          "name": "C#4",
          "midi": 61,
          "time": 132.96511627905198,
          "velocity": 0.47244094488188976,
          "duration": 0.15116279069764005
        },
        {
          "name": "F4",
          "midi": 65,
          "time": 132.96511627905198,
          "velocity": 0.6929133858267716,
          "duration": 0.279069767441797
        },
        {
          "name": "F#3",
          "midi": 54,
          "time": 132.97674418602872,
          "velocity": 0.4015748031496063,
          "duration": 0.29069767441853855
        },
        {
          "name": "C5",
          "midi": 72,
          "time": 132.9999999999822,
          "velocity": 0.49606299212598426,
          "duration": 0.19767441860460622
        },
        {
          "name": "G#5",
          "midi": 80,
          "time": 132.9999999999822,
          "velocity": 0.1889763779527559,
          "duration": 0.06976744186044925
        },
        {
          "name": "C#6",
          "midi": 85,
          "time": 132.9999999999822,
          "velocity": 0.13385826771653545,
          "duration": 0.04651162790696617
        },
        {
          "name": "D#5",
          "midi": 75,
          "time": 133.01162790695895,
          "velocity": 0.08661417322834646,
          "duration": 0.034883720930224626
        },
        {
          "name": "A#5",
          "midi": 82,
          "time": 133.06976744184266,
          "velocity": 0.1889763779527559,
          "duration": 0.1627906976743816
        },
        {
          "name": "C#6",
          "midi": 85,
          "time": 133.06976744184266,
          "velocity": 0.13385826771653545,
          "duration": 0.06976744186044925
        },
        {
          "name": "A5",
          "midi": 81,
          "time": 133.11627906974962,
          "velocity": 0.1889763779527559,
          "duration": 0.04651162790696617
        },
        {
          "name": "F#5",
          "midi": 78,
          "time": 133.1395348837031,
          "velocity": 0.18110236220472442,
          "duration": 0.034883720930224626
        },
        {
          "name": "C#4",
          "midi": 61,
          "time": 133.15116279067985,
          "velocity": 0.2755905511811024,
          "duration": 0.034883720930224626
        },
        {
          "name": "G#5",
          "midi": 80,
          "time": 133.1627906976566,
          "velocity": 0.23622047244094488,
          "duration": 0.3023255813952801
        },
        {
          "name": "C#5",
          "midi": 73,
          "time": 133.18604651161007,
          "velocity": 0.31496062992125984,
          "duration": 0.10465116279067388
        },
        {
          "name": "C#4",
          "midi": 61,
          "time": 133.19767441858681,
          "velocity": 0.29133858267716534,
          "duration": 0.05813953488370771
        },
        {
          "name": "B4",
          "midi": 71,
          "time": 133.19767441858681,
          "velocity": 0.33858267716535434,
          "duration": 0.023255813953483084
        },
        {
          "name": "A#4",
          "midi": 70,
          "time": 133.2209302325403,
          "velocity": 0.25196850393700787,
          "duration": 0.023255813953483084
        },
        {
          "name": "D#5",
          "midi": 75,
          "time": 133.23255813951704,
          "velocity": 0.14960629921259844,
          "duration": 0.034883720930224626
        },
        {
          "name": "E4",
          "midi": 64,
          "time": 133.24418604649378,
          "velocity": 0.3700787401574803,
          "duration": 0.023255813953483084
        },
        {
          "name": "G#4",
          "midi": 68,
          "time": 133.25581395347052,
          "velocity": 0.3858267716535433,
          "duration": 0.06976744186044925
        },
        {
          "name": "C#4",
          "midi": 61,
          "time": 133.26744186044726,
          "velocity": 0.3228346456692913,
          "duration": 0.17441860465112313
        },
        {
          "name": "F4",
          "midi": 65,
          "time": 133.26744186044726,
          "velocity": 0.29133858267716534,
          "duration": 0.023255813953483084
        },
        {
          "name": "G3",
          "midi": 55,
          "time": 133.279069767424,
          "velocity": 0.29133858267716534,
          "duration": 0.023255813953483084
        },
        {
          "name": "C5",
          "midi": 72,
          "time": 133.279069767424,
          "velocity": 0.25984251968503935,
          "duration": 0.04651162790696617
        },
        {
          "name": "D#5",
          "midi": 75,
          "time": 133.29069767440075,
          "velocity": 0.11811023622047244,
          "duration": 0.034883720930224626
        },
        {
          "name": "F4",
          "midi": 65,
          "time": 133.3023255813775,
          "velocity": 0.6377952755905512,
          "duration": 0.29069767441853855
        },
        {
          "name": "A#5",
          "midi": 82,
          "time": 133.3023255813775,
          "velocity": 0.07874015748031496,
          "duration": 0.034883720930224626
        },
        {
          "name": "A#4",
          "midi": 70,
          "time": 133.31395348835423,
          "velocity": 0.25196850393700787,
          "duration": 0.0813953488371908
        },
        {
          "name": "C5",
          "midi": 72,
          "time": 133.34883720928445,
          "velocity": 0.25196850393700787,
          "duration": 0.09302325581393234
        },
        {
          "name": "G#3",
          "midi": 56,
          "time": 133.3604651162612,
          "velocity": 0.4094488188976378,
          "duration": 0.19767441860460622
        },
        {
          "name": "C#6",
          "midi": 85,
          "time": 133.3604651162612,
          "velocity": 0.11811023622047244,
          "duration": 0.06976744186044925
        },
        {
          "name": "A#5",
          "midi": 82,
          "time": 133.4418604650984,
          "velocity": 0.07874015748031496,
          "duration": 0.034883720930224626
        },
        {
          "name": "C5",
          "midi": 72,
          "time": 133.45348837207513,
          "velocity": 0.11811023622047244,
          "duration": 0.034883720930224626
        },
        {
          "name": "A#4",
          "midi": 70,
          "time": 133.46511627905187,
          "velocity": 0.2047244094488189,
          "duration": 0.0813953488371908
        },
        {
          "name": "C#6",
          "midi": 85,
          "time": 133.46511627905187,
          "velocity": 0.1968503937007874,
          "duration": 0.43023255813943706
        },
        {
          "name": "G#4",
          "midi": 68,
          "time": 133.4767441860286,
          "velocity": 0.4566929133858268,
          "duration": 0.1395348837208985
        },
        {
          "name": "C#4",
          "midi": 61,
          "time": 133.48837209300535,
          "velocity": 0.4015748031496063,
          "duration": 0.2209302325580893
        },
        {
          "name": "D#5",
          "midi": 75,
          "time": 133.4999999999821,
          "velocity": 0.2047244094488189,
          "duration": 0.11627906976741542
        },
        {
          "name": "C6",
          "midi": 84,
          "time": 133.54651162788906,
          "velocity": 0.33858267716535434,
          "duration": 0.3023255813952801
        },
        {
          "name": "A#5",
          "midi": 82,
          "time": 133.56976744184254,
          "velocity": 0.10236220472440945,
          "duration": 0.034883720930224626
        },
        {
          "name": "G#3",
          "midi": 56,
          "time": 133.58139534881929,
          "velocity": 0.2283464566929134,
          "duration": 0.023255813953483084
        },
        {
          "name": "E4",
          "midi": 64,
          "time": 133.59302325579603,
          "velocity": 0.5354330708661418,
          "duration": 0.023255813953483084
        },
        {
          "name": "A#4",
          "midi": 70,
          "time": 133.60465116277277,
          "velocity": 0.1889763779527559,
          "duration": 0.034883720930224626
        },
        {
          "name": "G#3",
          "midi": 56,
          "time": 133.6162790697495,
          "velocity": 0.2283464566929134,
          "duration": 0.034883720930224626
        },
        {
          "name": "F4",
          "midi": 65,
          "time": 133.6162790697495,
          "velocity": 0.6771653543307087,
          "duration": 0.3023255813952801
        },
        {
          "name": "G#4",
          "midi": 68,
          "time": 133.639534883703,
          "velocity": 0.4094488188976378,
          "duration": 0.10465116279067388
        },
        {
          "name": "D#5",
          "midi": 75,
          "time": 133.639534883703,
          "velocity": 0.14960629921259844,
          "duration": 0.04651162790696617
        },
        {
          "name": "C5",
          "midi": 72,
          "time": 133.65116279067973,
          "velocity": 0.5354330708661418,
          "duration": 0.10465116279067388
        },
        {
          "name": "G#3",
          "midi": 56,
          "time": 133.66279069765648,
          "velocity": 0.2125984251968504,
          "duration": 0.034883720930224626
        },
        {
          "name": "G#3",
          "midi": 56,
          "time": 133.70930232556344,
          "velocity": 0.2125984251968504,
          "duration": 0.11627906976741542
        },
        {
          "name": "D#5",
          "midi": 75,
          "time": 133.74418604649367,
          "velocity": 0.2283464566929134,
          "duration": 0.0813953488371908
        },
        {
          "name": "C5",
          "midi": 72,
          "time": 133.76744186044715,
          "velocity": 0.4881889763779528,
          "duration": 0.1395348837208985
        },
        {
          "name": "G#4",
          "midi": 68,
          "time": 133.7790697674239,
          "velocity": 0.36220472440944884,
          "duration": 0.17441860465112313
        },
        {
          "name": "C#4",
          "midi": 61,
          "time": 133.79069767440063,
          "velocity": 0.31496062992125984,
          "duration": 0.034883720930224626
        },
        {
          "name": "D4",
          "midi": 62,
          "time": 133.82558139533086,
          "velocity": 0.28346456692913385,
          "duration": 0.023255813953483084
        },
        {
          "name": "G#3",
          "midi": 56,
          "time": 133.8372093023076,
          "velocity": 0.18110236220472442,
          "duration": 0.034883720930224626
        },
        {
          "name": "C#4",
          "midi": 61,
          "time": 133.84883720928434,
          "velocity": 0.3543307086614173,
          "duration": 0.11627906976741542
        },
        {
          "name": "A#5",
          "midi": 82,
          "time": 133.86046511626108,
          "velocity": 0.08661417322834646,
          "duration": 0.034883720930224626
        },
        {
          "name": "D#5",
          "midi": 75,
          "time": 133.90697674416805,
          "velocity": 0.1732283464566929,
          "duration": 0.06976744186044925
        },
        {
          "name": "F#5",
          "midi": 78,
          "time": 133.90697674416805,
          "velocity": 0.11023622047244094,
          "duration": 0.034883720930224626
        },
        {
          "name": "C6",
          "midi": 84,
          "time": 133.90697674416805,
          "velocity": 0.23622047244094488,
          "duration": 0.15116279069764005
        },
        {
          "name": "A#4",
          "midi": 70,
          "time": 133.9186046511448,
          "velocity": 0.2047244094488189,
          "duration": 0.034883720930224626
        },
        {
          "name": "F5",
          "midi": 77,
          "time": 133.93023255812153,
          "velocity": 0.28346456692913385,
          "duration": 0.19767441860460622
        },
        {
          "name": "G#3",
          "midi": 56,
          "time": 133.94186046509827,
          "velocity": 0.3228346456692913,
          "duration": 0.23255813953483084
        },
        {
          "name": "F#4",
          "midi": 66,
          "time": 133.94186046509827,
          "velocity": 0.3464566929133858,
          "duration": 0.04651162790696617
        },
        {
          "name": "C5",
          "midi": 72,
          "time": 133.94186046509827,
          "velocity": 0.29133858267716534,
          "duration": 0.19767441860460622
        },
        {
          "name": "C#6",
          "midi": 85,
          "time": 133.95348837207501,
          "velocity": 0.08661417322834646,
          "duration": 0.04651162790696617
        },
        {
          "name": "G#4",
          "midi": 68,
          "time": 133.96511627905176,
          "velocity": 0.36220472440944884,
          "duration": 0.1627906976743816
        },
        {
          "name": "F4",
          "midi": 65,
          "time": 133.98837209300524,
          "velocity": 0.7322834645669292,
          "duration": 0.17441860465112313
        },
        {
          "name": "C#5",
          "midi": 73,
          "time": 134.01162790695872,
          "velocity": 0.14960629921259844,
          "duration": 0.034883720930224626
        },
        {
          "name": "D#5",
          "midi": 75,
          "time": 134.01162790695872,
          "velocity": 0.15748031496062992,
          "duration": 0.0813953488371908
        },
        {
          "name": "C#6",
          "midi": 85,
          "time": 134.02325581393546,
          "velocity": 0.2677165354330709,
          "duration": 0.17441860465112313
        },
        {
          "name": "C#4",
          "midi": 61,
          "time": 134.0348837209122,
          "velocity": 0.3464566929133858,
          "duration": 0.12790697674415696
        },
        {
          "name": "A4",
          "midi": 69,
          "time": 134.1162790697494,
          "velocity": 0.33070866141732286,
          "duration": 0.034883720930224626
        },
        {
          "name": "F#5",
          "midi": 78,
          "time": 134.12790697672614,
          "velocity": 0.4094488188976378,
          "duration": 0.1395348837208985
        },
        {
          "name": "G#5",
          "midi": 80,
          "time": 134.15116279067962,
          "velocity": 0.3937007874015748,
          "duration": 0.3604651162789878
        },
        {
          "name": "F#4",
          "midi": 66,
          "time": 134.16279069765636,
          "velocity": 0.6141732283464567,
          "duration": 0.09302325581393234
        },
        {
          "name": "D#5",
          "midi": 75,
          "time": 134.1744186046331,
          "velocity": 0.1889763779527559,
          "duration": 0.06976744186044925
        },
        {
          "name": "C#4",
          "midi": 61,
          "time": 134.18604651160985,
          "velocity": 0.36220472440944884,
          "duration": 0.05813953488370771
        },
        {
          "name": "C#5",
          "midi": 73,
          "time": 134.18604651160985,
          "velocity": 0.5590551181102362,
          "duration": 0.18604651162786467
        },
        {
          "name": "C6",
          "midi": 84,
          "time": 134.18604651160985,
          "velocity": 0.25196850393700787,
          "duration": 0.04651162790696617
        },
        {
          "name": "G#3",
          "midi": 56,
          "time": 134.1976744185866,
          "velocity": 0.30708661417322836,
          "duration": 0.04651162790696617
        },
        {
          "name": "G#3",
          "midi": 56,
          "time": 134.2558139534703,
          "velocity": 0.3779527559055118,
          "duration": 0.10465116279067388
        },
        {
          "name": "C#4",
          "midi": 61,
          "time": 134.2558139534703,
          "velocity": 0.6535433070866141,
          "duration": 0.31395348837202164
        },
        {
          "name": "F4",
          "midi": 65,
          "time": 134.2558139534703,
          "velocity": 0.4251968503937008,
          "duration": 0.05813953488370771
        },
        {
          "name": "F6",
          "midi": 89,
          "time": 134.2558139534703,
          "velocity": 0.1732283464566929,
          "duration": 0.0813953488371908
        },
        {
          "name": "A5",
          "midi": 81,
          "time": 134.26744186044704,
          "velocity": 0.14173228346456693,
          "duration": 0.04651162790696617
        },
        {
          "name": "C6",
          "midi": 84,
          "time": 134.26744186044704,
          "velocity": 0.1732283464566929,
          "duration": 0.04651162790696617
        },
        {
          "name": "D#6",
          "midi": 87,
          "time": 134.26744186044704,
          "velocity": 0.09448818897637795,
          "duration": 0.034883720930224626
        },
        {
          "name": "G#4",
          "midi": 68,
          "time": 134.27906976742378,
          "velocity": 0.3937007874015748,
          "duration": 0.12790697674415696
        },
        {
          "name": "F4",
          "midi": 65,
          "time": 134.34883720928423,
          "velocity": 0.33858267716535434,
          "duration": 0.11627906976741542
        },
        {
          "name": "D#5",
          "midi": 75,
          "time": 134.34883720928423,
          "velocity": 0.11023622047244094,
          "duration": 0.034883720930224626
        },
        {
          "name": "C5",
          "midi": 72,
          "time": 134.36046511626097,
          "velocity": 0.25196850393700787,
          "duration": 0.034883720930224626
        },
        {
          "name": "G#3",
          "midi": 56,
          "time": 134.3720930232377,
          "velocity": 0.3228346456692913,
          "duration": 0.3255813953487632
        },
        {
          "name": "G#4",
          "midi": 68,
          "time": 134.41860465114468,
          "velocity": 0.3543307086614173,
          "duration": 0.05813953488370771
        },
        {
          "name": "A#4",
          "midi": 70,
          "time": 134.41860465114468,
          "velocity": 0.1732283464566929,
          "duration": 0.04651162790696617
        },
        {
          "name": "D#5",
          "midi": 75,
          "time": 134.43023255812142,
          "velocity": 0.2992125984251969,
          "duration": 0.31395348837202164
        },
        {
          "name": "A#4",
          "midi": 70,
          "time": 134.47674418602838,
          "velocity": 0.1732283464566929,
          "duration": 0.04651162790696617
        },
        {
          "name": "F#4",
          "midi": 66,
          "time": 134.48837209300513,
          "velocity": 0.2677165354330709,
          "duration": 0.023255813953483084
        },
        {
          "name": "F4",
          "midi": 65,
          "time": 134.5116279069586,
          "velocity": 0.2283464566929134,
          "duration": 0.05813953488370771
        },
        {
          "name": "G#4",
          "midi": 68,
          "time": 134.52325581393535,
          "velocity": 0.3228346456692913,
          "duration": 0.04651162790696617
        },
        {
          "name": "E4",
          "midi": 64,
          "time": 134.56976744184232,
          "velocity": 0.4330708661417323,
          "duration": 0.023255813953483084
        },
        {
          "name": "C5",
          "midi": 72,
          "time": 134.56976744184232,
          "velocity": 0.1968503937007874,
          "duration": 0.04651162790696617
        },
        {
          "name": "A#5",
          "midi": 82,
          "time": 134.56976744184232,
          "velocity": 0.28346456692913385,
          "duration": 0.12790697674415696
        },
        {
          "name": "G#4",
          "midi": 68,
          "time": 134.58139534881906,
          "velocity": 0.4094488188976378,
          "duration": 0.5232558139533694
        },
        {
          "name": "D4",
          "midi": 62,
          "time": 134.60465116277254,
          "velocity": 0.3700787401574803,
          "duration": 0.023255813953483084
        },
        {
          "name": "A#4",
          "midi": 70,
          "time": 134.61627906974928,
          "velocity": 0.09448818897637795,
          "duration": 0.034883720930224626
        },
        {
          "name": "C#5",
          "midi": 73,
          "time": 134.61627906974928,
          "velocity": 0.18110236220472442,
          "duration": 0.034883720930224626
        },
        {
          "name": "C4",
          "midi": 60,
          "time": 134.62790697672602,
          "velocity": 0.3464566929133858,
          "duration": 0.023255813953483084
        },
        {
          "name": "D#4",
          "midi": 63,
          "time": 134.62790697672602,
          "velocity": 0.5905511811023622,
          "duration": 0.24418604651157239
        },
        {
          "name": "C#6",
          "midi": 85,
          "time": 134.63953488370277,
          "velocity": 0.2125984251968504,
          "duration": 0.24418604651157239
        },
        {
          "name": "C5",
          "midi": 72,
          "time": 134.6511627906795,
          "velocity": 0.2755905511811024,
          "duration": 0.11627906976741542
        },
        {
          "name": "C4",
          "midi": 60,
          "time": 134.68604651160973,
          "velocity": 0.3858267716535433,
          "duration": 0.023255813953483084
        },
        {
          "name": "A#5",
          "midi": 82,
          "time": 134.70930232556321,
          "velocity": 0.18110236220472442,
          "duration": 0.05813953488370771
        },
        {
          "name": "A#4",
          "midi": 70,
          "time": 134.75581395347018,
          "velocity": 0.12598425196850394,
          "duration": 0.05813953488370771
        },
        {
          "name": "F5",
          "midi": 77,
          "time": 134.75581395347018,
          "velocity": 0.08661417322834646,
          "duration": 0.034883720930224626
        },
        {
          "name": "C#5",
          "midi": 73,
          "time": 134.76744186044692,
          "velocity": 0.16535433070866143,
          "duration": 0.05813953488370771
        },
        {
          "name": "A#5",
          "midi": 82,
          "time": 134.77906976742366,
          "velocity": 0.28346456692913385,
          "duration": 0.20930232558134776
        },
        {
          "name": "G#3",
          "midi": 56,
          "time": 134.7906976744004,
          "velocity": 0.3464566929133858,
          "duration": 0.1627906976743816
        },
        {
          "name": "A#4",
          "midi": 70,
          "time": 134.83720930230737,
          "velocity": 0.18110236220472442,
          "duration": 0.0813953488371908
        },
        {
          "name": "C#5",
          "midi": 73,
          "time": 134.86046511626085,
          "velocity": 0.2755905511811024,
          "duration": 0.11627906976741542
        },
        {
          "name": "C4",
          "midi": 60,
          "time": 134.88372093021434,
          "velocity": 0.3228346456692913,
          "duration": 0.10465116279067388
        },
        {
          "name": "D#4",
          "midi": 63,
          "time": 134.88372093021434,
          "velocity": 0.4251968503937008,
          "duration": 0.6395348837208132
        },
        {
          "name": "A#4",
          "midi": 70,
          "time": 134.9302325581213,
          "velocity": 0.2204724409448819,
          "duration": 0.1627906976743816
        },
        {
          "name": "G#3",
          "midi": 56,
          "time": 134.96511627905153,
          "velocity": 0.33070866141732286,
          "duration": 0.23255813953483084
        },
        {
          "name": "C4",
          "midi": 60,
          "time": 134.99999999998175,
          "velocity": 0.3543307086614173,
          "duration": 0.023255813953483084
        },
        {
          "name": "G5",
          "midi": 79,
          "time": 135.03488372091198,
          "velocity": 0.07874015748031496,
          "duration": 0.034883720930224626
        },
        {
          "name": "C#5",
          "midi": 73,
          "time": 135.04651162788872,
          "velocity": 0.2283464566929134,
          "duration": 0.04651162790696617
        },
        {
          "name": "C5",
          "midi": 72,
          "time": 135.08139534881894,
          "velocity": 0.2677165354330709,
          "duration": 0.19767441860460622
        },
        {
          "name": "C4",
          "midi": 60,
          "time": 135.09302325579569,
          "velocity": 0.23622047244094488,
          "duration": 0.023255813953483084
        },
        {
          "name": "A#4",
          "midi": 70,
          "time": 135.10465116277243,
          "velocity": 0.16535433070866143,
          "duration": 0.034883720930224626
        },
        {
          "name": "G#4",
          "midi": 68,
          "time": 135.11627906974917,
          "velocity": 0.4251968503937008,
          "duration": 0.3837209302324993
        },
        {
          "name": "A#4",
          "midi": 70,
          "time": 135.1511627906794,
          "velocity": 0.14960629921259844,
          "duration": 0.04651162790696617
        },
        {
          "name": "C#6",
          "midi": 85,
          "time": 135.2093023255631,
          "velocity": 0.13385826771653545,
          "duration": 0.17441860465115155
        },
        {
          "name": "G#3",
          "midi": 56,
          "time": 135.22093023253984,
          "velocity": 0.6220472440944882,
          "duration": 0.4069767441859824
        },
        {
          "name": "A#5",
          "midi": 82,
          "time": 135.22093023253984,
          "velocity": 0.1732283464566929,
          "duration": 0.04651162790696617
        },
        {
          "name": "A#4",
          "midi": 70,
          "time": 135.23255813951658,
          "velocity": 0.18110236220472442,
          "duration": 0.05813953488370771
        },
        {
          "name": "C5",
          "midi": 72,
          "time": 135.2906976744003,
          "velocity": 0.25196850393700787,
          "duration": 0.08139534883721922
        },
        {
          "name": "A#4",
          "midi": 70,
          "time": 135.3720930232375,
          "velocity": 0.14960629921259844,
          "duration": 0.034883720930224626
        },
        {
          "name": "C5",
          "midi": 72,
          "time": 135.395348837191,
          "velocity": 0.18110236220472442,
          "duration": 0.05813953488370771
        },
        {
          "name": "C#6",
          "midi": 85,
          "time": 135.46511627905144,
          "velocity": 0.08661417322834646,
          "duration": 0.06976744186044925
        },
        {
          "name": "A#4",
          "midi": 70,
          "time": 135.5116279069584,
          "velocity": 0.16535433070866143,
          "duration": 0.04651162790696617
        },
        {
          "name": "C#4",
          "midi": 61,
          "time": 135.5348837209119,
          "velocity": 0.15748031496062992,
          "duration": 0.034883720930224626
        },
        {
          "name": "C4",
          "midi": 60,
          "time": 135.56976744184212,
          "velocity": 0.4015748031496063,
          "duration": 0.1627906976743816
        },
        {
          "name": "A#5",
          "midi": 82,
          "time": 135.60465116277234,
          "velocity": 0.07086614173228346,
          "duration": 0.034883720930224626
        },
        {
          "name": "C#6",
          "midi": 85,
          "time": 135.60465116277234,
          "velocity": 0.14960629921259844,
          "duration": 0.09302325581393234
        },
        {
          "name": "A#4",
          "midi": 70,
          "time": 135.63953488370257,
          "velocity": 0.1889763779527559,
          "duration": 0.09302325581393234
        },
        {
          "name": "G#3",
          "midi": 56,
          "time": 135.68604651160953,
          "velocity": 0.2992125984251969,
          "duration": 0.09302325581393234
        },
        {
          "name": "G#4",
          "midi": 68,
          "time": 135.68604651160953,
          "velocity": 0.3543307086614173,
          "duration": 0.17441860465112313
        },
        {
          "name": "D#4",
          "midi": 63,
          "time": 135.70930232556302,
          "velocity": 0.2755905511811024,
          "duration": 0.09302325581393234
        },
        {
          "name": "C5",
          "midi": 72,
          "time": 135.77906976742347,
          "velocity": 0.14173228346456693,
          "duration": 0.034883720930224626
        },
        {
          "name": "G#3",
          "midi": 56,
          "time": 135.80232558137695,
          "velocity": 0.2992125984251969,
          "duration": 0.06976744186044925
        },
        {
          "name": "C4",
          "midi": 60,
          "time": 135.80232558137695,
          "velocity": 0.1732283464566929,
          "duration": 0.034883720930224626
        },
        {
          "name": "D#5",
          "midi": 75,
          "time": 135.80232558137695,
          "velocity": 0.29133858267716534,
          "duration": 0.3372093023255047
        },
        {
          "name": "D#4",
          "midi": 63,
          "time": 135.82558139533043,
          "velocity": 0.41732283464566927,
          "duration": 0.04651162790696617
        },
        {
          "name": "G5",
          "midi": 79,
          "time": 135.82558139533043,
          "velocity": 0.13385826771653545,
          "duration": 0.04651162790696617
        },
        {
          "name": "C#6",
          "midi": 85,
          "time": 135.82558139533043,
          "velocity": 0.16535433070866143,
          "duration": 0.23255813953483084
        },
        {
          "name": "C5",
          "midi": 72,
          "time": 135.83720930230717,
          "velocity": 0.31496062992125984,
          "duration": 0.05813953488370771
        },
        {
          "name": "A#5",
          "midi": 82,
          "time": 135.83720930230717,
          "velocity": 0.16535433070866143,
          "duration": 0.10465116279067388
        },
        {
          "name": "F5",
          "midi": 77,
          "time": 135.86046511626066,
          "velocity": 0.15748031496062992,
          "duration": 0.034883720930224626
        },
        {
          "name": "D7",
          "midi": 98,
          "time": 135.86046511626066,
          "velocity": 0.2125984251968504,
          "duration": 0.0813953488371908
        },
        {
          "name": "E7",
          "midi": 100,
          "time": 135.86046511626066,
          "velocity": 0.1889763779527559,
          "duration": 0.06976744186044925
        },
        {
          "name": "F7",
          "midi": 101,
          "time": 135.86046511626066,
          "velocity": 0.1732283464566929,
          "duration": 0.034883720930224626
        },
        {
          "name": "E4",
          "midi": 64,
          "time": 135.8720930232374,
          "velocity": 0.4645669291338583,
          "duration": 0.034883720930224626
        },
        {
          "name": "A#4",
          "midi": 70,
          "time": 135.8720930232374,
          "velocity": 0.33070866141732286,
          "duration": 0.023255813953483084
        },
        {
          "name": "G#5",
          "midi": 80,
          "time": 135.8720930232374,
          "velocity": 0.36220472440944884,
          "duration": 0.10465116279067388
        },
        {
          "name": "D#6",
          "midi": 87,
          "time": 135.8720930232374,
          "velocity": 0.3858267716535433,
          "duration": 0.5348837209301109
        },
        {
          "name": "C#7",
          "midi": 97,
          "time": 135.8720930232374,
          "velocity": 0.1732283464566929,
          "duration": 0.06976744186044925
        },
        {
          "name": "F#7",
          "midi": 102,
          "time": 135.8720930232374,
          "velocity": 0.12598425196850394,
          "duration": 0.04651162790696617
        },
        {
          "name": "G7",
          "midi": 103,
          "time": 135.8720930232374,
          "velocity": 0.1889763779527559,
          "duration": 0.04651162790696617
        },
        {
          "name": "E6",
          "midi": 88,
          "time": 135.88372093021414,
          "velocity": 0.07874015748031496,
          "duration": 0.034883720930224626
        },
        {
          "name": "B6",
          "midi": 95,
          "time": 135.88372093021414,
          "velocity": 0.14960629921259844,
          "duration": 0.04651162790696617
        },
        {
          "name": "G#4",
          "midi": 68,
          "time": 135.89534883719088,
          "velocity": 0.7480314960629921,
          "duration": 0.4999999999998863
        },
        {
          "name": "B4",
          "midi": 71,
          "time": 135.89534883719088,
          "velocity": 0.30708661417322836,
          "duration": 0.023255813953483084
        },
        {
          "name": "C7",
          "midi": 96,
          "time": 135.89534883719088,
          "velocity": 0.11811023622047244,
          "duration": 0.04651162790696617
        },
        {
          "name": "D#4",
          "midi": 63,
          "time": 135.90697674416762,
          "velocity": 0.44881889763779526,
          "duration": 0.4186046511626955
        },
        {
          "name": "G#3",
          "midi": 56,
          "time": 135.91860465114436,
          "velocity": 0.2204724409448819,
          "duration": 0.279069767441797
        },
        {
          "name": "A#4",
          "midi": 70,
          "time": 135.91860465114436,
          "velocity": 0.33070866141732286,
          "duration": 0.034883720930224626
        },
        {
          "name": "C6",
          "midi": 84,
          "time": 135.91860465114436,
          "velocity": 0.25196850393700787,
          "duration": 0.023255813953483084
        },
        {
          "name": "B4",
          "midi": 71,
          "time": 135.9534883720746,
          "velocity": 0.30708661417322836,
          "duration": 0.023255813953483084
        },
        {
          "name": "C6",
          "midi": 84,
          "time": 135.96511627905133,
          "velocity": 0.13385826771653545,
          "duration": 0.0813953488371908
        },
        {
          "name": "C5",
          "midi": 72,
          "time": 135.97674418602807,
          "velocity": 0.25984251968503935,
          "duration": 0.05813953488370771
        },
        {
          "name": "B4",
          "midi": 71,
          "time": 136.03488372091178,
          "velocity": 0.28346456692913385,
          "duration": 0.034883720930224626
        },
        {
          "name": "G5",
          "midi": 79,
          "time": 136.04651162788852,
          "velocity": 0.3937007874015748,
          "duration": 0.1627906976743816
        },
        {
          "name": "C5",
          "midi": 72,
          "time": 136.069767441842,
          "velocity": 0.3779527559055118,
          "duration": 0.04651162790696617
        },
        {
          "name": "A#5",
          "midi": 82,
          "time": 136.0930232557955,
          "velocity": 0.2047244094488189,
          "duration": 0.26744186046505547
        },
        {
          "name": "B4",
          "midi": 71,
          "time": 136.11627906974897,
          "velocity": 0.33070866141732286,
          "duration": 0.023255813953483084
        },
        {
          "name": "C5",
          "midi": 72,
          "time": 136.1279069767257,
          "velocity": 0.3858267716535433,
          "duration": 0.11627906976741542
        },
        {
          "name": "G#6",
          "midi": 92,
          "time": 136.1511627906792,
          "velocity": 0.08661417322834646,
          "duration": 0.0813953488371908
        },
        {
          "name": "D5",
          "midi": 74,
          "time": 136.18604651160942,
          "velocity": 0.2125984251968504,
          "duration": 0.05813953488370771
        },
        {
          "name": "F5",
          "midi": 77,
          "time": 136.18604651160942,
          "velocity": 0.11811023622047244,
          "duration": 0.034883720930224626
        },
        {
          "name": "C4",
          "midi": 60,
          "time": 136.2093023255629,
          "velocity": 0.3228346456692913,
          "duration": 0.06976744186044925
        },
        {
          "name": "F#5",
          "midi": 78,
          "time": 136.2093023255629,
          "velocity": 0.3700787401574803,
          "duration": 0.18604651162786467
        },
        {
          "name": "G#3",
          "midi": 56,
          "time": 136.27906976742335,
          "velocity": 0.2125984251968504,
          "duration": 0.09302325581393234
        },
        {
          "name": "C4",
          "midi": 60,
          "time": 136.2906976744001,
          "velocity": 0.2283464566929134,
          "duration": 0.04651162790696617
        },
        {
          "name": "C5",
          "midi": 72,
          "time": 136.31395348835358,
          "velocity": 0.3464566929133858,
          "duration": 0.11627906976741542
        },
        {
          "name": "D#4",
          "midi": 63,
          "time": 136.33720930230706,
          "velocity": 0.33070866141732286,
          "duration": 0.06976744186044925
        },
        {
          "name": "C#6",
          "midi": 85,
          "time": 136.36046511626054,
          "velocity": 0.16535433070866143,
          "duration": 0.09302325581393234
        },
        {
          "name": "F5",
          "midi": 77,
          "time": 136.39534883719077,
          "velocity": 0.3779527559055118,
          "duration": 0.19767441860460622
        },
        {
          "name": "G#4",
          "midi": 68,
          "time": 136.4069767441675,
          "velocity": 0.49606299212598426,
          "duration": 0.11627906976741542
        },
        {
          "name": "G5",
          "midi": 79,
          "time": 136.4069767441675,
          "velocity": 0.29133858267716534,
          "duration": 0.05813953488370771
        },
        {
          "name": "A#5",
          "midi": 82,
          "time": 136.4069767441675,
          "velocity": 0.14173228346456693,
          "duration": 0.06976744186044925
        },
        {
          "name": "C#7",
          "midi": 97,
          "time": 136.4069767441675,
          "velocity": 0.16535433070866143,
          "duration": 0.034883720930224626
        },
        {
          "name": "E7",
          "midi": 100,
          "time": 136.4069767441675,
          "velocity": 0.14960629921259844,
          "duration": 0.034883720930224626
        },
        {
          "name": "F7",
          "midi": 101,
          "time": 136.4069767441675,
          "velocity": 0.14173228346456693,
          "duration": 0.034883720930224626
        },
        {
          "name": "F4",
          "midi": 65,
          "time": 136.41860465114425,
          "velocity": 0.3779527559055118,
          "duration": 0.023255813953483084
        },
        {
          "name": "G#3",
          "midi": 56,
          "time": 136.430232558121,
          "velocity": 0.16535433070866143,
          "duration": 0.10465116279067388
        },
        {
          "name": "C5",
          "midi": 72,
          "time": 136.44186046509773,
          "velocity": 0.4251968503937008,
          "duration": 0.19767441860460622
        },
        {
          "name": "D#3",
          "midi": 51,
          "time": 136.45348837207447,
          "velocity": 0.23622047244094488,
          "duration": 0.17441860465112313
        },
        {
          "name": "D#4",
          "midi": 63,
          "time": 136.45348837207447,
          "velocity": 0.25196850393700787,
          "duration": 0.04651162790696617
        },
        {
          "name": "C#6",
          "midi": 85,
          "time": 136.47674418602796,
          "velocity": 0.2125984251968504,
          "duration": 0.2558139534883139
        },
        {
          "name": "A#5",
          "midi": 82,
          "time": 136.4883720930047,
          "velocity": 0.18110236220472442,
          "duration": 0.0813953488371908
        },
        {
          "name": "D#6",
          "midi": 87,
          "time": 136.49999999998144,
          "velocity": 0.3700787401574803,
          "duration": 0.8488372093021326
        },
        {
          "name": "D#4",
          "midi": 63,
          "time": 136.52325581393492,
          "velocity": 0.31496062992125984,
          "duration": 0.20930232558134776
        },
        {
          "name": "G5",
          "midi": 79,
          "time": 136.52325581393492,
          "velocity": 0.31496062992125984,
          "duration": 0.0813953488371908
        },
        {
          "name": "G#4",
          "midi": 68,
          "time": 136.53488372091167,
          "velocity": 0.6692913385826772,
          "duration": 0.31395348837202164
        },
        {
          "name": "D7",
          "midi": 98,
          "time": 136.55813953486515,
          "velocity": 0.11023622047244094,
          "duration": 0.034883720930224626
        },
        {
          "name": "C4",
          "midi": 60,
          "time": 136.5697674418419,
          "velocity": 0.29133858267716534,
          "duration": 0.0813953488371908
        },
        {
          "name": "E5",
          "midi": 76,
          "time": 136.59302325579537,
          "velocity": 0.33070866141732286,
          "duration": 0.1627906976743816
        },
        {
          "name": "G#3",
          "midi": 56,
          "time": 136.60465116277211,
          "velocity": 0.2204724409448819,
          "duration": 0.18604651162786467
        },
        {
          "name": "C5",
          "midi": 72,
          "time": 136.66279069765582,
          "velocity": 0.4094488188976378,
          "duration": 0.3372093023255047
        },
        {
          "name": "A#5",
          "midi": 82,
          "time": 136.72093023253953,
          "velocity": 0.25984251968503935,
          "duration": 0.06976744186044925
        },
        {
          "name": "C6",
          "midi": 84,
          "time": 136.73255813951627,
          "velocity": 0.41732283464566927,
          "duration": 0.3023255813952801
        },
        {
          "name": "F6",
          "midi": 89,
          "time": 136.73255813951627,
          "velocity": 0.3937007874015748,
          "duration": 0.23255813953483084
        },
        {
          "name": "D#4",
          "midi": 63,
          "time": 136.744186046493,
          "velocity": 0.3228346456692913,
          "duration": 0.023255813953483084
        },
        {
          "name": "F4",
          "midi": 65,
          "time": 136.744186046493,
          "velocity": 0.48031496062992124,
          "duration": 0.11627906976741542
        },
        {
          "name": "C#6",
          "midi": 85,
          "time": 136.744186046493,
          "velocity": 0.15748031496062992,
          "duration": 0.034883720930224626
        },
        {
          "name": "G6",
          "midi": 91,
          "time": 136.744186046493,
          "velocity": 0.16535433070866143,
          "duration": 0.10465116279067388
        },
        {
          "name": "A6",
          "midi": 93,
          "time": 136.744186046493,
          "velocity": 0.12598425196850394,
          "duration": 0.12790697674415696
        },
        {
          "name": "C#6",
          "midi": 85,
          "time": 136.79069767439998,
          "velocity": 0.23622047244094488,
          "duration": 0.10465116279067388
        },
        {
          "name": "D#5",
          "midi": 75,
          "time": 136.80232558137672,
          "velocity": 0.5118110236220472,
          "duration": 0.2558139534883139
        },
        {
          "name": "A5",
          "midi": 81,
          "time": 136.8255813953302,
          "velocity": 0.2204724409448819,
          "duration": 0.034883720930224626
        },
        {
          "name": "A#5",
          "midi": 82,
          "time": 136.83720930230695,
          "velocity": 0.3543307086614173,
          "duration": 0.05813953488370771
        },
        {
          "name": "E6",
          "midi": 88,
          "time": 136.83720930230695,
          "velocity": 0.2125984251968504,
          "duration": 0.04651162790696617
        },
        {
          "name": "D7",
          "midi": 98,
          "time": 136.8488372092837,
          "velocity": 0.11023622047244094,
          "duration": 0.034883720930224626
        },
        {
          "name": "F#7",
          "midi": 102,
          "time": 136.8488372092837,
          "velocity": 0.12598425196850394,
          "duration": 0.034883720930224626
        },
        {
          "name": "G7",
          "midi": 103,
          "time": 136.8488372092837,
          "velocity": 0.09448818897637795,
          "duration": 0.034883720930224626
        },
        {
          "name": "C4",
          "midi": 60,
          "time": 136.86046511626043,
          "velocity": 0.29133858267716534,
          "duration": 0.023255813953483084
        },
        {
          "name": "D#4",
          "midi": 63,
          "time": 136.87209302323717,
          "velocity": 0.6850393700787402,
          "duration": 0.3372093023255047
        },
        {
          "name": "G#4",
          "midi": 68,
          "time": 136.87209302323717,
          "velocity": 0.5433070866141733,
          "duration": 0.09302325581393234
        },
        {
          "name": "G6",
          "midi": 91,
          "time": 136.87209302323717,
          "velocity": 0.2992125984251969,
          "duration": 0.3023255813952801
        },
        {
          "name": "A6",
          "midi": 93,
          "time": 136.8837209302139,
          "velocity": 0.14173228346456693,
          "duration": 0.09302325581393234
        },
        {
          "name": "B5",
          "midi": 83,
          "time": 136.89534883719065,
          "velocity": 0.33858267716535434,
          "duration": 0.023255813953483084
        },
        {
          "name": "C#6",
          "midi": 85,
          "time": 136.9069767441674,
          "velocity": 0.1889763779527559,
          "duration": 0.10465116279067388
        },
        {
          "name": "A#5",
          "midi": 82,
          "time": 136.91860465114414,
          "velocity": 0.2440944881889764,
          "duration": 0.10465116279067388
        },
        {
          "name": "G#3",
          "midi": 56,
          "time": 136.9651162790511,
          "velocity": 0.15748031496062992,
          "duration": 0.1627906976743816
        },
        {
          "name": "G#4",
          "midi": 68,
          "time": 136.97674418602784,
          "velocity": 0.4645669291338583,
          "duration": 0.12790697674415696
        },
        {
          "name": "C#6",
          "midi": 85,
          "time": 137.0232558139348,
          "velocity": 0.16535433070866143,
          "duration": 0.11627906976741542
        },
        {
          "name": "C5",
          "midi": 72,
          "time": 137.03488372091155,
          "velocity": 0.4094488188976378,
          "duration": 0.05813953488370771
        },
        {
          "name": "A#5",
          "midi": 82,
          "time": 137.0465116278883,
          "velocity": 0.4015748031496063,
          "duration": 0.20930232558134776
        },
        {
          "name": "C5",
          "midi": 72,
          "time": 137.104651162772,
          "velocity": 0.3779527559055118,
          "duration": 0.0813953488371908
        },
        {
          "name": "G#4",
          "midi": 68,
          "time": 137.11627906974874,
          "velocity": 0.2755905511811024,
          "duration": 0.04651162790696617
        },
        {
          "name": "A4",
          "midi": 69,
          "time": 137.1627906976557,
          "velocity": 0.25984251968503935,
          "duration": 0.04651162790696617
        },
        {
          "name": "C#6",
          "midi": 85,
          "time": 137.17441860463245,
          "velocity": 0.3858267716535433,
          "duration": 0.4186046511626955
        },
        {
          "name": "C#5",
          "midi": 73,
          "time": 137.1860465116092,
          "velocity": 0.4566929133858268,
          "duration": 0.17441860465112313
        },
        {
          "name": "F5",
          "midi": 77,
          "time": 137.1860465116092,
          "velocity": 0.33858267716535434,
          "duration": 0.4418604651161786
        },
        {
          "name": "C#4",
          "midi": 61,
          "time": 137.20930232556267,
          "velocity": 0.49606299212598426,
          "duration": 0.09302325581393234
        },
        {
          "name": "A#4",
          "midi": 70,
          "time": 137.20930232556267,
          "velocity": 0.2677165354330709,
          "duration": 0.06976744186044925
        },
        {
          "name": "B5",
          "midi": 83,
          "time": 137.20930232556267,
          "velocity": 0.16535433070866143,
          "duration": 0.04651162790696617
        },
        {
          "name": "D6",
          "midi": 86,
          "time": 137.23255813951616,
          "velocity": 0.11023622047244094,
          "duration": 0.04651162790696617
        },
        {
          "name": "D#5",
          "midi": 75,
          "time": 137.26744186044638,
          "velocity": 0.16535433070866143,
          "duration": 0.034883720930224626
        },
        {
          "name": "C6",
          "midi": 84,
          "time": 137.26744186044638,
          "velocity": 0.13385826771653545,
          "duration": 0.034883720930224626
        },
        {
          "name": "A4",
          "midi": 69,
          "time": 137.27906976742312,
          "velocity": 0.2125984251968504,
          "duration": 0.034883720930224626
        },
        {
          "name": "G#3",
          "midi": 56,
          "time": 137.29069767439987,
          "velocity": 0.07874015748031496,
          "duration": 0.034883720930224626
        },
        {
          "name": "A#5",
          "midi": 82,
          "time": 137.29069767439987,
          "velocity": 0.18110236220472442,
          "duration": 0.09302325581393234
        },
        {
          "name": "C#4",
          "midi": 61,
          "time": 137.31395348835335,
          "velocity": 0.5275590551181102,
          "duration": 0.1627906976743816
        },
        {
          "name": "G#4",
          "midi": 68,
          "time": 137.31395348835335,
          "velocity": 0.30708661417322836,
          "duration": 0.06976744186044925
        },
        {
          "name": "G#5",
          "midi": 80,
          "time": 137.33720930230683,
          "velocity": 0.3858267716535433,
          "duration": 0.5465116279068525
        },
        {
          "name": "C6",
          "midi": 84,
          "time": 137.33720930230683,
          "velocity": 0.11811023622047244,
          "duration": 0.04651162790696617
        },
        {
          "name": "A#4",
          "midi": 70,
          "time": 137.34883720928357,
          "velocity": 0.3543307086614173,
          "duration": 0.04651162790696617
        },
        {
          "name": "F4",
          "midi": 65,
          "time": 137.37209302323706,
          "velocity": 0.41732283464566927,
          "duration": 0.04651162790696617
        },
        {
          "name": "D#6",
          "midi": 87,
          "time": 137.3837209302138,
          "velocity": 0.15748031496062992,
          "duration": 0.05813953488370771
        },
        {
          "name": "D7",
          "midi": 98,
          "time": 137.3837209302138,
          "velocity": 0.09448818897637795,
          "duration": 0.034883720930224626
        },
        {
          "name": "E7",
          "midi": 100,
          "time": 137.3837209302138,
          "velocity": 0.1732283464566929,
          "duration": 0.034883720930224626
        },
        {
          "name": "C5",
          "midi": 72,
          "time": 137.39534883719054,
          "velocity": 0.3543307086614173,
          "duration": 0.04651162790696617
        },
        {
          "name": "A6",
          "midi": 93,
          "time": 137.39534883719054,
          "velocity": 0.07874015748031496,
          "duration": 0.034883720930224626
        },
        {
          "name": "B6",
          "midi": 95,
          "time": 137.39534883719054,
          "velocity": 0.14173228346456693,
          "duration": 0.04651162790696617
        },
        {
          "name": "C7",
          "midi": 96,
          "time": 137.39534883719054,
          "velocity": 0.10236220472440945,
          "duration": 0.034883720930224626
        },
        {
          "name": "F#7",
          "midi": 102,
          "time": 137.39534883719054,
          "velocity": 0.11023622047244094,
          "duration": 0.034883720930224626
        },
        {
          "name": "G7",
          "midi": 103,
          "time": 137.39534883719054,
          "velocity": 0.12598425196850394,
          "duration": 0.034883720930224626
        },
        {
          "name": "F3",
          "midi": 53,
          "time": 137.40697674416728,
          "velocity": 0.2047244094488189,
          "duration": 0.05813953488370771
        },
        {
          "name": "A#5",
          "midi": 82,
          "time": 137.40697674416728,
          "velocity": 0.28346456692913385,
          "duration": 0.34883720930224626
        },
        {
          "name": "C#5",
          "midi": 73,
          "time": 137.41860465114402,
          "velocity": 0.5748031496062992,
          "duration": 0.31395348837202164
        },
        {
          "name": "A#4",
          "midi": 70,
          "time": 137.4418604650975,
          "velocity": 0.5826771653543307,
          "duration": 0.34883720930224626
        },
        {
          "name": "D#5",
          "midi": 75,
          "time": 137.4418604650975,
          "velocity": 0.23622047244094488,
          "duration": 0.05813953488370771
        },
        {
          "name": "C6",
          "midi": 84,
          "time": 137.4418604650975,
          "velocity": 0.07086614173228346,
          "duration": 0.04651162790696617
        },
        {
          "name": "D#4",
          "midi": 63,
          "time": 137.4999999999812,
          "velocity": 0.4409448818897638,
          "duration": 0.023255813953483084
        },
        {
          "name": "F6",
          "midi": 89,
          "time": 137.4999999999812,
          "velocity": 0.3543307086614173,
          "duration": 0.31395348837202164
        },
        {
          "name": "D#6",
          "midi": 87,
          "time": 137.51162790695795,
          "velocity": 0.11811023622047244,
          "duration": 0.05813953488370771
        },
        {
          "name": "C#4",
          "midi": 61,
          "time": 137.5232558139347,
          "velocity": 0.6062992125984252,
          "duration": 0.24418604651157239
        },
        {
          "name": "F4",
          "midi": 65,
          "time": 137.5232558139347,
          "velocity": 0.4566929133858268,
          "duration": 0.26744186046505547
        },
        {
          "name": "B6",
          "midi": 95,
          "time": 137.5232558139347,
          "velocity": 0.18110236220472442,
          "duration": 0.09302325581393234
        },
        {
          "name": "C6",
          "midi": 84,
          "time": 137.54651162788818,
          "velocity": 0.2283464566929134,
          "duration": 0.034883720930224626
        },
        {
          "name": "C6",
          "midi": 84,
          "time": 137.59302325579515,
          "velocity": 0.2125984251968504,
          "duration": 0.034883720930224626
        },
        {
          "name": "C6",
          "midi": 84,
          "time": 137.67441860463234,
          "velocity": 0.18110236220472442,
          "duration": 0.05813953488370771
        },
        {
          "name": "B6",
          "midi": 95,
          "time": 137.68604651160908,
          "velocity": 0.11811023622047244,
          "duration": 0.034883720930224626
        },
        {
          "name": "A#3",
          "midi": 58,
          "time": 137.75581395346953,
          "velocity": 0.3858267716535433,
          "duration": 0.15116279069764005
        },
        {
          "name": "C6",
          "midi": 84,
          "time": 137.76744186044627,
          "velocity": 0.14960629921259844,
          "duration": 0.034883720930224626
        },
        {
          "name": "D#4",
          "midi": 63,
          "time": 137.779069767423,
          "velocity": 0.23622047244094488,
          "duration": 0.04651162790696617
        },
        {
          "name": "C#4",
          "midi": 61,
          "time": 137.8023255813765,
          "velocity": 0.29133858267716534,
          "duration": 0.023255813953483084
        },
        {
          "name": "F4",
          "midi": 65,
          "time": 137.82558139532998,
          "velocity": 0.4330708661417323,
          "duration": 0.11627906976741542
        },
        {
          "name": "D7",
          "midi": 98,
          "time": 137.82558139532998,
          "velocity": 0.14173228346456693,
          "duration": 0.0813953488371908
        },
        {
          "name": "D#7",
          "midi": 99,
          "time": 137.82558139532998,
          "velocity": 0.14960629921259844,
          "duration": 0.05813953488370771
        },
        {
          "name": "E7",
          "midi": 100,
          "time": 137.82558139532998,
          "velocity": 0.1732283464566929,
          "duration": 0.034883720930224626
        },
        {
          "name": "F7",
          "midi": 101,
          "time": 137.82558139532998,
          "velocity": 0.16535433070866143,
          "duration": 0.05813953488370771
        },
        {
          "name": "F#7",
          "midi": 102,
          "time": 137.82558139532998,
          "velocity": 0.1732283464566929,
          "duration": 0.04651162790696617
        },
        {
          "name": "D6",
          "midi": 86,
          "time": 137.83720930230672,
          "velocity": 0.14173228346456693,
          "duration": 0.034883720930224626
        },
        {
          "name": "B6",
          "midi": 95,
          "time": 137.83720930230672,
          "velocity": 0.11811023622047244,
          "duration": 0.04651162790696617
        },
        {
          "name": "G7",
          "midi": 103,
          "time": 137.83720930230672,
          "velocity": 0.12598425196850394,
          "duration": 0.05813953488370771
        },
        {
          "name": "F3",
          "midi": 53,
          "time": 137.84883720928346,
          "velocity": 0.14960629921259844,
          "duration": 0.034883720930224626
        },
        {
          "name": "D4",
          "midi": 62,
          "time": 137.8604651162602,
          "velocity": 0.2283464566929134,
          "duration": 0.04651162790696617
        },
        {
          "name": "A#4",
          "midi": 70,
          "time": 137.87209302323694,
          "velocity": 0.4015748031496063,
          "duration": 0.17441860465112313
        },
        {
          "name": "B5",
          "midi": 83,
          "time": 137.87209302323694,
          "velocity": 0.13385826771653545,
          "duration": 0.034883720930224626
        },
        {
          "name": "G#5",
          "midi": 80,
          "time": 137.89534883719043,
          "velocity": 0.3700787401574803,
          "duration": 0.2558139534883139
        },
        {
          "name": "C#4",
          "midi": 61,
          "time": 137.90697674416717,
          "velocity": 0.6220472440944882,
          "duration": 0.15116279069764005
        },
        {
          "name": "C6",
          "midi": 84,
          "time": 137.90697674416717,
          "velocity": 0.15748031496062992,
          "duration": 0.034883720930224626
        },
        {
          "name": "D5",
          "midi": 74,
          "time": 137.9418604650974,
          "velocity": 0.2755905511811024,
          "duration": 0.023255813953483084
        },
        {
          "name": "F5",
          "midi": 77,
          "time": 137.95348837207413,
          "velocity": 0.3228346456692913,
          "duration": 0.20930232558134776
        },
        {
          "name": "D#5",
          "midi": 75,
          "time": 137.96511627905087,
          "velocity": 0.25984251968503935,
          "duration": 0.023255813953483084
        },
        {
          "name": "C6",
          "midi": 84,
          "time": 137.98837209300436,
          "velocity": 0.29133858267716534,
          "duration": 0.18604651162786467
        },
        {
          "name": "F4",
          "midi": 65,
          "time": 138.02325581393458,
          "velocity": 0.5275590551181102,
          "duration": 0.12790697674415696
        },
        {
          "name": "D6",
          "midi": 86,
          "time": 138.04651162788807,
          "velocity": 0.13385826771653545,
          "duration": 0.04651162790696617
        },
        {
          "name": "E6",
          "midi": 88,
          "time": 138.04651162788807,
          "velocity": 0.11023622047244094,
          "duration": 0.04651162790696617
        },
        {
          "name": "F6",
          "midi": 89,
          "time": 138.04651162788807,
          "velocity": 0.3543307086614173,
          "duration": 0.3023255813952801
        },
        {
          "name": "A6",
          "midi": 93,
          "time": 138.04651162788807,
          "velocity": 0.11023622047244094,
          "duration": 0.034883720930224626
        },
        {
          "name": "C4",
          "midi": 60,
          "time": 138.0581395348648,
          "velocity": 0.6062992125984252,
          "duration": 0.011627906976741542
        },
        {
          "name": "A#4",
          "midi": 70,
          "time": 138.0581395348648,
          "velocity": 0.6141732283464567,
          "duration": 0.29069767441853855
        },
        {
          "name": "A#3",
          "midi": 58,
          "time": 138.06976744184155,
          "velocity": 0.7401574803149606,
          "duration": 0.12790697674415696
        },
        {
          "name": "C#4",
          "midi": 61,
          "time": 138.06976744184155,
          "velocity": 0.5511811023622047,
          "duration": 0.011627906976741542
        },
        {
          "name": "F#6",
          "midi": 90,
          "time": 138.0813953488183,
          "velocity": 0.07086614173228346,
          "duration": 0.034883720930224626
        },
        {
          "name": "C#4",
          "midi": 61,
          "time": 138.09302325579503,
          "velocity": 0.5433070866141733,
          "duration": 0.011627906976741542
        },
        {
          "name": "D6",
          "midi": 86,
          "time": 138.10465116277177,
          "velocity": 0.25196850393700787,
          "duration": 0.10465116279067388
        },
        {
          "name": "D#5",
          "midi": 75,
          "time": 138.11627906974851,
          "velocity": 0.2283464566929134,
          "duration": 0.023255813953483084
        },
        {
          "name": "D#5",
          "midi": 75,
          "time": 138.15116279067874,
          "velocity": 0.4566929133858268,
          "duration": 0.10465116279067388
        },
        {
          "name": "F#5",
          "midi": 78,
          "time": 138.15116279067874,
          "velocity": 0.2992125984251969,
          "duration": 0.023255813953483084
        },
        {
          "name": "B6",
          "midi": 95,
          "time": 138.15116279067874,
          "velocity": 0.08661417322834646,
          "duration": 0.034883720930224626
        },
        {
          "name": "D#7",
          "midi": 99,
          "time": 138.15116279067874,
          "velocity": 0.2125984251968504,
          "duration": 0.034883720930224626
        },
        {
          "name": "F#7",
          "midi": 102,
          "time": 138.15116279067874,
          "velocity": 0.16535433070866143,
          "duration": 0.04651162790696617
        },
        {
          "name": "G#5",
          "midi": 80,
          "time": 138.16279069765548,
          "velocity": 0.3779527559055118,
          "duration": 0.24418604651157239
        },
        {
          "name": "B5",
          "midi": 83,
          "time": 138.16279069765548,
          "velocity": 0.1968503937007874,
          "duration": 0.034883720930224626
        },
        {
          "name": "E6",
          "midi": 88,
          "time": 138.16279069765548,
          "velocity": 0.14960629921259844,
          "duration": 0.034883720930224626
        },
        {
          "name": "G6",
          "midi": 91,
          "time": 138.16279069765548,
          "velocity": 0.1732283464566929,
          "duration": 0.034883720930224626
        },
        {
          "name": "C#7",
          "midi": 97,
          "time": 138.16279069765548,
          "velocity": 0.11811023622047244,
          "duration": 0.04651162790696617
        },
        {
          "name": "F5",
          "midi": 77,
          "time": 138.17441860463222,
          "velocity": 0.33858267716535434,
          "duration": 0.19767441860460622
        },
        {
          "name": "F4",
          "midi": 65,
          "time": 138.18604651160896,
          "velocity": 0.4094488188976378,
          "duration": 0.11627906976741542
        },
        {
          "name": "C#5",
          "midi": 73,
          "time": 138.18604651160896,
          "velocity": 0.4409448818897638,
          "duration": 0.0813953488371908
        },
        {
          "name": "A6",
          "midi": 93,
          "time": 138.18604651160896,
          "velocity": 0.16535433070866143,
          "duration": 0.06976744186044925
        },
        {
          "name": "G#3",
          "midi": 56,
          "time": 138.1976744185857,
          "velocity": 0.6299212598425197,
          "duration": 0.023255813953483084
        },
        {
          "name": "B3",
          "midi": 59,
          "time": 138.1976744185857,
          "velocity": 0.5590551181102362,
          "duration": 0.011627906976741542
        },
        {
          "name": "C6",
          "midi": 84,
          "time": 138.1976744185857,
          "velocity": 0.29133858267716534,
          "duration": 0.3255813953487632
        },
        {
          "name": "A3",
          "midi": 57,
          "time": 138.2209302325392,
          "velocity": 0.5669291338582677,
          "duration": 0.011627906976741542
        },
        {
          "name": "G#3",
          "midi": 56,
          "time": 138.23255813951593,
          "velocity": 0.5984251968503937,
          "duration": 0.24418604651157239
        },
        {
          "name": "C5",
          "midi": 72,
          "time": 138.26744186044616,
          "velocity": 0.25984251968503935,
          "duration": 0.023255813953483084
        },
        {
          "name": "D#5",
          "midi": 75,
          "time": 138.26744186044616,
          "velocity": 0.3700787401574803,
          "duration": 0.17441860465112313
        },
        {
          "name": "B5",
          "midi": 83,
          "time": 138.29069767439964,
          "velocity": 0.07874015748031496,
          "duration": 0.04651162790696617
        },
        {
          "name": "E4",
          "midi": 64,
          "time": 138.30232558137638,
          "velocity": 0.2440944881889764,
          "duration": 0.023255813953483084
        },
        {
          "name": "C#5",
          "midi": 73,
          "time": 138.30232558137638,
          "velocity": 0.29133858267716534,
          "duration": 0.05813953488370771
        },
        {
          "name": "F4",
          "midi": 65,
          "time": 138.32558139532986,
          "velocity": 0.4645669291338583,
          "duration": 0.0813953488371908
        },
        {
          "name": "D6",
          "midi": 86,
          "time": 138.3372093023066,
          "velocity": 0.11811023622047244,
          "duration": 0.034883720930224626
        },
        {
          "name": "B4",
          "midi": 71,
          "time": 138.34883720928335,
          "velocity": 0.29133858267716534,
          "duration": 0.023255813953483084
        },
        {
          "name": "D7",
          "midi": 98,
          "time": 138.3604651162601,
          "velocity": 0.1732283464566929,
          "duration": 0.034883720930224626
        },
        {
          "name": "C#5",
          "midi": 73,
          "time": 138.37209302323683,
          "velocity": 0.5196850393700787,
          "duration": 0.18604651162786467
        },
        {
          "name": "B6",
          "midi": 95,
          "time": 138.37209302323683,
          "velocity": 0.14173228346456693,
          "duration": 0.04651162790696617
        },
        {
          "name": "D#7",
          "midi": 99,
          "time": 138.37209302323683,
          "velocity": 0.15748031496062992,
          "duration": 0.04651162790696617
        },
        {
          "name": "E7",
          "midi": 100,
          "time": 138.37209302323683,
          "velocity": 0.16535433070866143,
          "duration": 0.034883720930224626
        },
        {
          "name": "F7",
          "midi": 101,
          "time": 138.37209302323683,
          "velocity": 0.14960629921259844,
          "duration": 0.034883720930224626
        },
        {
          "name": "G7",
          "midi": 103,
          "time": 138.37209302323683,
          "velocity": 0.12598425196850394,
          "duration": 0.034883720930224626
        },
        {
          "name": "C#7",
          "midi": 97,
          "time": 138.38372093021357,
          "velocity": 0.13385826771653545,
          "duration": 0.034883720930224626
        },
        {
          "name": "A#4",
          "midi": 70,
          "time": 138.3953488371903,
          "velocity": 0.3858267716535433,
          "duration": 0.0813953488371908
        },
        {
          "name": "F4",
          "midi": 65,
          "time": 138.44186046509728,
          "velocity": 0.29133858267716534,
          "duration": 0.023255813953483084
        },
        {
          "name": "F6",
          "midi": 89,
          "time": 138.44186046509728,
          "velocity": 0.18110236220472442,
          "duration": 0.034883720930224626
        },
        {
          "name": "E4",
          "midi": 64,
          "time": 138.4767441860275,
          "velocity": 0.4015748031496063,
          "duration": 0.023255813953483084
        },
        {
          "name": "A4",
          "midi": 69,
          "time": 138.4767441860275,
          "velocity": 0.3937007874015748,
          "duration": 0.04651162790696617
        },
        {
          "name": "D#6",
          "midi": 87,
          "time": 138.4767441860275,
          "velocity": 0.4566929133858268,
          "duration": 0.3604651162789878
        },
        {
          "name": "G6",
          "midi": 91,
          "time": 138.4767441860275,
          "velocity": 0.2283464566929134,
          "duration": 0.06976744186044925
        },
        {
          "name": "G#6",
          "midi": 92,
          "time": 138.4767441860275,
          "velocity": 0.29133858267716534,
          "duration": 0.20930232558134776
        },
        {
          "name": "A6",
          "midi": 93,
          "time": 138.4767441860275,
          "velocity": 0.14173228346456693,
          "duration": 0.034883720930224626
        },
        {
          "name": "E7",
          "midi": 100,
          "time": 138.4767441860275,
          "velocity": 0.1968503937007874,
          "duration": 0.06976744186044925
        },
        {
          "name": "F7",
          "midi": 101,
          "time": 138.4767441860275,
          "velocity": 0.2047244094488189,
          "duration": 0.05813953488370771
        },
        {
          "name": "F#7",
          "midi": 102,
          "time": 138.4767441860275,
          "velocity": 0.16535433070866143,
          "duration": 0.04651162790696617
        },
        {
          "name": "C#4",
          "midi": 61,
          "time": 138.48837209300424,
          "velocity": 0.28346456692913385,
          "duration": 0.19767441860460622
        },
        {
          "name": "B4",
          "midi": 71,
          "time": 138.48837209300424,
          "velocity": 0.3464566929133858,
          "duration": 0.023255813953483084
        },
        {
          "name": "F5",
          "midi": 77,
          "time": 138.48837209300424,
          "velocity": 0.2204724409448819,
          "duration": 0.04651162790696617
        },
        {
          "name": "F4",
          "midi": 65,
          "time": 138.499999999981,
          "velocity": 0.3779527559055118,
          "duration": 0.034883720930224626
        },
        {
          "name": "G#5",
          "midi": 80,
          "time": 138.499999999981,
          "velocity": 0.49606299212598426,
          "duration": 0.5232558139533694
        },
        {
          "name": "D7",
          "midi": 98,
          "time": 138.499999999981,
          "velocity": 0.09448818897637795,
          "duration": 0.04651162790696617
        },
        {
          "name": "B5",
          "midi": 83,
          "time": 138.51162790695773,
          "velocity": 0.2204724409448819,
          "duration": 0.034883720930224626
        },
        {
          "name": "G#4",
          "midi": 68,
          "time": 138.52325581393447,
          "velocity": 0.5984251968503937,
          "duration": 0.8023255813951664
        },
        {
          "name": "E5",
          "midi": 76,
          "time": 138.52325581393447,
          "velocity": 0.14960629921259844,
          "duration": 0.04651162790696617
        },
        {
          "name": "A6",
          "midi": 93,
          "time": 138.5348837209112,
          "velocity": 0.07086614173228346,
          "duration": 0.04651162790696617
        },
        {
          "name": "C5",
          "midi": 72,
          "time": 138.54651162788795,
          "velocity": 0.3937007874015748,
          "duration": 0.10465116279067388
        },
        {
          "name": "F5",
          "midi": 77,
          "time": 138.5581395348647,
          "velocity": 0.23622047244094488,
          "duration": 0.06976744186044925
        },
        {
          "name": "C#6",
          "midi": 85,
          "time": 138.5581395348647,
          "velocity": 0.12598425196850394,
          "duration": 0.09302325581393234
        },
        {
          "name": "C7",
          "midi": 96,
          "time": 138.59302325579492,
          "velocity": 0.1889763779527559,
          "duration": 0.19767441860460622
        },
        {
          "name": "E5",
          "midi": 76,
          "time": 138.62790697672514,
          "velocity": 0.2283464566929134,
          "duration": 0.034883720930224626
        },
        {
          "name": "C#5",
          "midi": 73,
          "time": 138.65116279067863,
          "velocity": 0.3228346456692913,
          "duration": 0.023255813953483084
        },
        {
          "name": "F5",
          "midi": 77,
          "time": 138.66279069765537,
          "velocity": 0.2677165354330709,
          "duration": 0.0813953488371908
        },
        {
          "name": "G#3",
          "midi": 56,
          "time": 138.6744186046321,
          "velocity": 0.18110236220472442,
          "duration": 0.04651162790696617
        },
        {
          "name": "C5",
          "midi": 72,
          "time": 138.6744186046321,
          "velocity": 0.4566929133858268,
          "duration": 0.034883720930224626
        },
        {
          "name": "F4",
          "midi": 65,
          "time": 138.68604651160885,
          "velocity": 0.3543307086614173,
          "duration": 0.10465116279067388
        },
        {
          "name": "C#6",
          "midi": 85,
          "time": 138.68604651160885,
          "velocity": 0.11023622047244094,
          "duration": 0.1627906976743816
        },
        {
          "name": "A#5",
          "midi": 82,
          "time": 138.6976744185856,
          "velocity": 0.18110236220472442,
          "duration": 0.10465116279067388
        },
        {
          "name": "C#4",
          "midi": 61,
          "time": 138.70930232556233,
          "velocity": 0.28346456692913385,
          "duration": 0.09302325581393234
        },
        {
          "name": "C#5",
          "midi": 73,
          "time": 138.72093023253908,
          "velocity": 0.2992125984251969,
          "duration": 0.034883720930224626
        },
        {
          "name": "C5",
          "midi": 72,
          "time": 138.74418604649256,
          "velocity": 0.3464566929133858,
          "duration": 0.10465116279067388
        },
        {
          "name": "E5",
          "midi": 76,
          "time": 138.74418604649256,
          "velocity": 0.1732283464566929,
          "duration": 0.04651162790696617
        },
        {
          "name": "F6",
          "midi": 89,
          "time": 138.7558139534693,
          "velocity": 0.14173228346456693,
          "duration": 0.06976744186044925
        },
        {
          "name": "D#5",
          "midi": 75,
          "time": 138.79069767439952,
          "velocity": 0.2440944881889764,
          "duration": 0.11627906976741542
        },
        {
          "name": "F5",
          "midi": 77,
          "time": 138.79069767439952,
          "velocity": 0.33070866141732286,
          "duration": 0.11627906976741542
        },
        {
          "name": "C#4",
          "midi": 61,
          "time": 138.813953488353,
          "velocity": 0.25984251968503935,
          "duration": 0.10465116279067388
        },
        {
          "name": "C#5",
          "midi": 73,
          "time": 138.82558139532975,
          "velocity": 0.44881889763779526,
          "duration": 0.39534883720921243
        },
        {
          "name": "F4",
          "midi": 65,
          "time": 138.8372093023065,
          "velocity": 0.36220472440944884,
          "duration": 0.04651162790696617
        },
        {
          "name": "D#6",
          "midi": 87,
          "time": 138.84883720928323,
          "velocity": 0.4251968503937008,
          "duration": 0.9418604651160649
        },
        {
          "name": "E4",
          "midi": 64,
          "time": 138.88372093021346,
          "velocity": 0.30708661417322836,
          "duration": 0.023255813953483084
        },
        {
          "name": "F4",
          "midi": 65,
          "time": 138.90697674416694,
          "velocity": 0.36220472440944884,
          "duration": 0.10465116279067388
        },
        {
          "name": "C#4",
          "midi": 61,
          "time": 138.93023255812042,
          "velocity": 0.28346456692913385,
          "duration": 0.09302325581393234
        },
        {
          "name": "C6",
          "midi": 84,
          "time": 138.98837209300413,
          "velocity": 0.18110236220472442,
          "duration": 0.0813953488371908
        },
        {
          "name": "F4",
          "midi": 65,
          "time": 139.02325581393436,
          "velocity": 0.3858267716535433,
          "duration": 0.023255813953483084
        },
        {
          "name": "D5",
          "midi": 74,
          "time": 139.02325581393436,
          "velocity": 0.25196850393700787,
          "duration": 0.023255813953483084
        },
        {
          "name": "G5",
          "midi": 79,
          "time": 139.02325581393436,
          "velocity": 0.2755905511811024,
          "duration": 0.023255813953483084
        },
        {
          "name": "D7",
          "midi": 98,
          "time": 139.02325581393436,
          "velocity": 0.15748031496062992,
          "duration": 0.034883720930224626
        },
        {
          "name": "F7",
          "midi": 101,
          "time": 139.02325581393436,
          "velocity": 0.15748031496062992,
          "duration": 0.034883720930224626
        },
        {
          "name": "F#7",
          "midi": 102,
          "time": 139.02325581393436,
          "velocity": 0.18110236220472442,
          "duration": 0.04651162790696617
        },
        {
          "name": "C#4",
          "midi": 61,
          "time": 139.0348837209111,
          "velocity": 0.30708661417322836,
          "duration": 0.0813953488371908
        },
        {
          "name": "B6",
          "midi": 95,
          "time": 139.0348837209111,
          "velocity": 0.13385826771653545,
          "duration": 0.034883720930224626
        },
        {
          "name": "C#7",
          "midi": 97,
          "time": 139.0348837209111,
          "velocity": 0.12598425196850394,
          "duration": 0.04651162790696617
        },
        {
          "name": "G7",
          "midi": 103,
          "time": 139.0348837209111,
          "velocity": 0.12598425196850394,
          "duration": 0.034883720930224626
        },
        {
          "name": "E4",
          "midi": 64,
          "time": 139.04651162788784,
          "velocity": 0.3464566929133858,
          "duration": 0.023255813953483084
        },
        {
          "name": "F4",
          "midi": 65,
          "time": 139.0930232557948,
          "velocity": 0.29133858267716534,
          "duration": 0.04651162790696617
        },
        {
          "name": "C6",
          "midi": 84,
          "time": 139.0930232557948,
          "velocity": 0.12598425196850394,
          "duration": 0.04651162790696617
        },
        {
          "name": "A#4",
          "midi": 70,
          "time": 139.12790697672503,
          "velocity": 0.2283464566929134,
          "duration": 0.023255813953483084
        },
        {
          "name": "A6",
          "midi": 93,
          "time": 139.12790697672503,
          "velocity": 0.08661417322834646,
          "duration": 0.034883720930224626
        },
        {
          "name": "B5",
          "midi": 83,
          "time": 139.13953488370177,
          "velocity": 0.15748031496062992,
          "duration": 0.0813953488371908
        },
        {
          "name": "A#6",
          "midi": 94,
          "time": 139.13953488370177,
          "velocity": 0.14960629921259844,
          "duration": 0.05813953488370771
        },
        {
          "name": "F#7",
          "midi": 102,
          "time": 139.13953488370177,
          "velocity": 0.14173228346456693,
          "duration": 0.05813953488370771
        },
        {
          "name": "G7",
          "midi": 103,
          "time": 139.13953488370177,
          "velocity": 0.09448818897637795,
          "duration": 0.04651162790696617
        },
        {
          "name": "G#6",
          "midi": 92,
          "time": 139.1511627906785,
          "velocity": 0.25984251968503935,
          "duration": 0.29069767441853855
        },
        {
          "name": "C7",
          "midi": 96,
          "time": 139.1511627906785,
          "velocity": 0.16535433070866143,
          "duration": 0.05813953488370771
        },
        {
          "name": "D7",
          "midi": 98,
          "time": 139.1511627906785,
          "velocity": 0.09448818897637795,
          "duration": 0.04651162790696617
        },
        {
          "name": "E7",
          "midi": 100,
          "time": 139.1511627906785,
          "velocity": 0.14960629921259844,
          "duration": 0.04651162790696617
        },
        {
          "name": "G6",
          "midi": 91,
          "time": 139.16279069765525,
          "velocity": 0.12598425196850394,
          "duration": 0.04651162790696617
        },
        {
          "name": "A5",
          "midi": 81,
          "time": 139.174418604632,
          "velocity": 0.2047244094488189,
          "duration": 0.04651162790696617
        },
        {
          "name": "C6",
          "midi": 84,
          "time": 139.18604651160874,
          "velocity": 0.18110236220472442,
          "duration": 0.09302325581393234
        },
        {
          "name": "D#4",
          "midi": 63,
          "time": 139.19767441858548,
          "velocity": 0.2440944881889764,
          "duration": 0.023255813953483084
        },
        {
          "name": "F5",
          "midi": 77,
          "time": 139.20930232556222,
          "velocity": 0.2204724409448819,
          "duration": 0.0813953488371908
        },
        {
          "name": "D5",
          "midi": 74,
          "time": 139.22093023253896,
          "velocity": 0.25196850393700787,
          "duration": 0.034883720930224626
        },
        {
          "name": "F4",
          "midi": 65,
          "time": 139.24418604649244,
          "velocity": 0.3543307086614173,
          "duration": 0.09302325581393234
        },
        {
          "name": "C#5",
          "midi": 73,
          "time": 139.2558139534692,
          "velocity": 0.3779527559055118,
          "duration": 0.05813953488370771
        },
        {
          "name": "C#4",
          "midi": 61,
          "time": 139.26744186044593,
          "velocity": 0.33858267716535434,
          "duration": 0.09302325581393234
        },
        {
          "name": "D5",
          "midi": 74,
          "time": 139.30232558137615,
          "velocity": 0.4015748031496063,
          "duration": 0.1627906976743816
        },
        {
          "name": "G4",
          "midi": 67,
          "time": 139.3139534883529,
          "velocity": 0.4330708661417323,
          "duration": 0.023255813953483084
        },
        {
          "name": "F5",
          "midi": 77,
          "time": 139.3139534883529,
          "velocity": 0.4881889763779528,
          "duration": 0.43023255813943706
        },
        {
          "name": "C6",
          "midi": 84,
          "time": 139.3139534883529,
          "velocity": 0.4566929133858268,
          "duration": 0.26744186046505547
        },
        {
          "name": "G#4",
          "midi": 68,
          "time": 139.33720930230638,
          "velocity": 0.6614173228346457,
          "duration": 0.15116279069764005
        },
        {
          "name": "A6",
          "midi": 93,
          "time": 139.34883720928312,
          "velocity": 0.14173228346456693,
          "duration": 0.034883720930224626
        },
        {
          "name": "D4",
          "midi": 62,
          "time": 139.36046511625986,
          "velocity": 0.3228346456692913,
          "duration": 0.023255813953483084
        },
        {
          "name": "F4",
          "midi": 65,
          "time": 139.36046511625986,
          "velocity": 0.7007874015748031,
          "duration": 0.15116279069764005
        },
        {
          "name": "C#4",
          "midi": 61,
          "time": 139.38372093021334,
          "velocity": 0.2755905511811024,
          "duration": 0.05813953488370771
        },
        {
          "name": "A5",
          "midi": 81,
          "time": 139.38372093021334,
          "velocity": 0.1889763779527559,
          "duration": 0.04651162790696617
        },
        {
          "name": "B5",
          "midi": 83,
          "time": 139.38372093021334,
          "velocity": 0.2204724409448819,
          "duration": 0.034883720930224626
        },
        {
          "name": "G7",
          "midi": 103,
          "time": 139.38372093021334,
          "velocity": 0.13385826771653545,
          "duration": 0.05813953488370771
        },
        {
          "name": "E6",
          "midi": 88,
          "time": 139.39534883719008,
          "velocity": 0.2047244094488189,
          "duration": 0.04651162790696617
        },
        {
          "name": "C5",
          "midi": 72,
          "time": 139.40697674416683,
          "velocity": 0.5196850393700787,
          "duration": 0.05813953488370771
        },
        {
          "name": "C#7",
          "midi": 97,
          "time": 139.40697674416683,
          "velocity": 0.2440944881889764,
          "duration": 0.18604651162786467
        },
        {
          "name": "F#7",
          "midi": 102,
          "time": 139.4302325581203,
          "velocity": 0.2047244094488189,
          "duration": 0.09302325581393234
        },
        {
          "name": "A5",
          "midi": 81,
          "time": 139.44186046509705,
          "velocity": 0.2283464566929134,
          "duration": 0.05813953488370771
        },
        {
          "name": "G6",
          "midi": 91,
          "time": 139.4534883720738,
          "velocity": 0.25984251968503935,
          "duration": 0.18604651162786467
        },
        {
          "name": "D7",
          "midi": 98,
          "time": 139.4534883720738,
          "velocity": 0.14173228346456693,
          "duration": 0.11627906976741542
        },
        {
          "name": "C#5",
          "midi": 73,
          "time": 139.46511627905053,
          "velocity": 0.5748031496062992,
          "duration": 0.12790697674415696
        },
        {
          "name": "B6",
          "midi": 95,
          "time": 139.46511627905053,
          "velocity": 0.2125984251968504,
          "duration": 0.034883720930224626
        },
        {
          "name": "A#6",
          "midi": 94,
          "time": 139.47674418602728,
          "velocity": 0.1968503937007874,
          "duration": 0.10465116279067388
        },
        {
          "name": "E5",
          "midi": 76,
          "time": 139.48837209300402,
          "velocity": 0.2992125984251969,
          "duration": 0.023255813953483084
        },
        {
          "name": "A#5",
          "midi": 82,
          "time": 139.48837209300402,
          "velocity": 0.47244094488188976,
          "duration": 0.3023255813952801
        },
        {
          "name": "D#4",
          "midi": 63,
          "time": 139.49999999998076,
          "velocity": 0.6377952755905512,
          "duration": 0.17441860465112313
        },
        {
          "name": "G#4",
          "midi": 68,
          "time": 139.5116279069575,
          "velocity": 0.3700787401574803,
          "duration": 0.18604651162786467
        },
        {
          "name": "A6",
          "midi": 93,
          "time": 139.58139534881795,
          "velocity": 0.18110236220472442,
          "duration": 0.20930232558134776
        },
        {
          "name": "F3",
          "midi": 53,
          "time": 139.5930232557947,
          "velocity": 0.07874015748031496,
          "duration": 0.04651162790696617
        },
        {
          "name": "F#5",
          "midi": 78,
          "time": 139.5930232557947,
          "velocity": 0.15748031496062992,
          "duration": 0.09302325581393234
        },
        {
          "name": "C6",
          "midi": 84,
          "time": 139.60465116277143,
          "velocity": 0.28346456692913385,
          "duration": 0.17441860465112313
        },
        {
          "name": "D7",
          "midi": 98,
          "time": 139.60465116277143,
          "velocity": 0.13385826771653545,
          "duration": 0.05813953488370771
        },
        {
          "name": "C#5",
          "midi": 73,
          "time": 139.6511627906784,
          "velocity": 0.2677165354330709,
          "duration": 0.15116279069764005
        },
        {
          "name": "F3",
          "midi": 53,
          "time": 139.66279069765514,
          "velocity": 0.11023622047244094,
          "duration": 0.12790697674415696
        },
        {
          "name": "C#4",
          "midi": 61,
          "time": 139.66279069765514,
          "velocity": 0.2755905511811024,
          "duration": 0.023255813953483084
        },
        {
          "name": "G6",
          "midi": 91,
          "time": 139.66279069765514,
          "velocity": 0.16535433070866143,
          "duration": 0.15116279069764005
        },
        {
          "name": "E4",
          "midi": 64,
          "time": 139.67441860463188,
          "velocity": 0.4015748031496063,
          "duration": 0.023255813953483084
        },
        {
          "name": "G5",
          "midi": 79,
          "time": 139.68604651160862,
          "velocity": 0.1732283464566929,
          "duration": 0.04651162790696617
        },
        {
          "name": "D#4",
          "midi": 63,
          "time": 139.69767441858536,
          "velocity": 0.6220472440944882,
          "duration": 0.1395348837208985
        },
        {
          "name": "G#4",
          "midi": 68,
          "time": 139.72093023253885,
          "velocity": 0.3700787401574803,
          "duration": 0.06976744186044925
        },
        {
          "name": "F#5",
          "midi": 78,
          "time": 139.7325581395156,
          "velocity": 0.10236220472440945,
          "duration": 0.034883720930224626
        },
        {
          "name": "D7",
          "midi": 98,
          "time": 139.75581395346907,
          "velocity": 0.11023622047244094,
          "duration": 0.0813953488371908
        },
        {
          "name": "F5",
          "midi": 77,
          "time": 139.7674418604458,
          "velocity": 0.2992125984251969,
          "duration": 0.05813953488370771
        },
        {
          "name": "F#5",
          "midi": 78,
          "time": 139.77906976742256,
          "velocity": 0.23622047244094488,
          "duration": 0.034883720930224626
        },
        {
          "name": "B5",
          "midi": 83,
          "time": 139.7906976743993,
          "velocity": 0.15748031496062992,
          "duration": 0.05813953488370771
        },
        {
          "name": "C6",
          "midi": 84,
          "time": 139.7906976743993,
          "velocity": 0.13385826771653545,
          "duration": 0.034883720930224626
        },
        {
          "name": "B3",
          "midi": 59,
          "time": 139.80232558137604,
          "velocity": 0.3464566929133858,
          "duration": 0.023255813953483084
        },
        {
          "name": "F#4",
          "midi": 66,
          "time": 139.80232558137604,
          "velocity": 0.41732283464566927,
          "duration": 0.18604651162786467
        },
        {
          "name": "A#4",
          "midi": 70,
          "time": 139.80232558137604,
          "velocity": 0.33070866141732286,
          "duration": 0.3372093023255047
        },
        {
          "name": "F#3",
          "midi": 54,
          "time": 139.81395348835278,
          "velocity": 0.18110236220472442,
          "duration": 0.0813953488371908
        },
        {
          "name": "D#7",
          "midi": 99,
          "time": 139.81395348835278,
          "velocity": 0.14960629921259844,
          "duration": 0.034883720930224626
        },
        {
          "name": "C#5",
          "midi": 73,
          "time": 139.82558139532952,
          "velocity": 0.33858267716535434,
          "duration": 0.19767441860460622
        },
        {
          "name": "C#4",
          "midi": 61,
          "time": 139.83720930230626,
          "velocity": 0.49606299212598426,
          "duration": 0.17441860465112313
        },
        {
          "name": "D5",
          "midi": 74,
          "time": 139.8720930232365,
          "velocity": 0.2992125984251969,
          "duration": 0.04651162790696617
        },
        {
          "name": "G#5",
          "midi": 80,
          "time": 139.88372093021323,
          "velocity": 0.4251968503937008,
          "duration": 0.6627906976742679
        },
        {
          "name": "D#5",
          "midi": 75,
          "time": 139.91860465114345,
          "velocity": 0.2755905511811024,
          "duration": 0.023255813953483084
        },
        {
          "name": "E5",
          "midi": 76,
          "time": 139.9302325581202,
          "velocity": 0.2677165354330709,
          "duration": 0.04651162790696617
        },
        {
          "name": "F6",
          "midi": 89,
          "time": 139.96511627905042,
          "velocity": 0.15748031496062992,
          "duration": 0.06976744186044925
        },
        {
          "name": "B6",
          "midi": 95,
          "time": 139.97674418602716,
          "velocity": 0.15748031496062992,
          "duration": 0.06976744186044925
        },
        {
          "name": "D7",
          "midi": 98,
          "time": 139.9883720930039,
          "velocity": 0.2204724409448819,
          "duration": 0.04651162790696617
        },
        {
          "name": "F5",
          "midi": 77,
          "time": 139.99999999998064,
          "velocity": 0.2440944881889764,
          "duration": 0.04651162790696617
        },
        {
          "name": "E7",
          "midi": 100,
          "time": 139.99999999998064,
          "velocity": 0.1732283464566929,
          "duration": 0.034883720930224626
        },
        {
          "name": "F7",
          "midi": 101,
          "time": 139.99999999998064,
          "velocity": 0.2047244094488189,
          "duration": 0.04651162790696617
        },
        {
          "name": "F#7",
          "midi": 102,
          "time": 139.99999999998064,
          "velocity": 0.16535433070866143,
          "duration": 0.05813953488370771
        },
        {
          "name": "G7",
          "midi": 103,
          "time": 139.99999999998064,
          "velocity": 0.18110236220472442,
          "duration": 0.034883720930224626
        },
        {
          "name": "D#5",
          "midi": 75,
          "time": 140.0116279069574,
          "velocity": 0.33070866141732286,
          "duration": 0.023255813953483084
        },
        {
          "name": "C7",
          "midi": 96,
          "time": 140.0116279069574,
          "velocity": 0.10236220472440945,
          "duration": 0.034883720930224626
        },
        {
          "name": "C#4",
          "midi": 61,
          "time": 140.02325581393413,
          "velocity": 0.44881889763779526,
          "duration": 0.034883720930224626
        },
        {
          "name": "E5",
          "midi": 76,
          "time": 140.02325581393413,
          "velocity": 0.28346456692913385,
          "duration": 0.04651162790696617
        },
        {
          "name": "F#4",
          "midi": 66,
          "time": 140.03488372091087,
          "velocity": 0.28346456692913385,
          "duration": 0.023255813953483084
        },
        {
          "name": "A#3",
          "midi": 58,
          "time": 140.05813953486435,
          "velocity": 0.2677165354330709,
          "duration": 0.034883720930224626
        },
        {
          "name": "D#4",
          "midi": 63,
          "time": 140.05813953486435,
          "velocity": 0.3464566929133858,
          "duration": 0.04651162790696617
        },
        {
          "name": "C#5",
          "midi": 73,
          "time": 140.05813953486435,
          "velocity": 0.5196850393700787,
          "duration": 0.19767441860460622
        },
        {
          "name": "C6",
          "midi": 84,
          "time": 140.0697674418411,
          "velocity": 0.09448818897637795,
          "duration": 0.034883720930224626
        },
        {
          "name": "F5",
          "midi": 77,
          "time": 140.08139534881784,
          "velocity": 0.1968503937007874,
          "duration": 0.034883720930224626
        },
        {
          "name": "C#6",
          "midi": 85,
          "time": 140.09302325579458,
          "velocity": 0.5748031496062992,
          "duration": 0.837209302325391
        },
        {
          "name": "C#4",
          "midi": 61,
          "time": 140.10465116277132,
          "velocity": 0.6614173228346457,
          "duration": 0.279069767441797
        },
        {
          "name": "F6",
          "midi": 89,
          "time": 140.10465116277132,
          "velocity": 0.30708661417322836,
          "duration": 0.11627906976741542
        },
        {
          "name": "F#4",
          "midi": 66,
          "time": 140.11627906974806,
          "velocity": 0.4409448818897638,
          "duration": 0.3023255813952801
        },
        {
          "name": "D#7",
          "midi": 99,
          "time": 140.11627906974806,
          "velocity": 0.1732283464566929,
          "duration": 0.1627906976743816
        },
        {
          "name": "G6",
          "midi": 91,
          "time": 140.1279069767248,
          "velocity": 0.12598425196850394,
          "duration": 0.0813953488371908
        },
        {
          "name": "A6",
          "midi": 93,
          "time": 140.1279069767248,
          "velocity": 0.14960629921259844,
          "duration": 0.034883720930224626
        },
        {
          "name": "B6",
          "midi": 95,
          "time": 140.1279069767248,
          "velocity": 0.14960629921259844,
          "duration": 0.11627906976741542
        },
        {
          "name": "D7",
          "midi": 98,
          "time": 140.13953488370154,
          "velocity": 0.11023622047244094,
          "duration": 0.0813953488371908
        },
        {
          "name": "A#4",
          "midi": 70,
          "time": 140.15116279067828,
          "velocity": 0.2677165354330709,
          "duration": 0.10465116279067388
        },
        {
          "name": "F5",
          "midi": 77,
          "time": 140.15116279067828,
          "velocity": 0.3228346456692913,
          "duration": 0.034883720930224626
        },
        {
          "name": "A5",
          "midi": 81,
          "time": 140.15116279067828,
          "velocity": 0.25196850393700787,
          "duration": 0.023255813953483084
        },
        {
          "name": "E5",
          "midi": 76,
          "time": 140.16279069765503,
          "velocity": 0.33858267716535434,
          "duration": 0.04651162790696617
        },
        {
          "name": "D#6",
          "midi": 87,
          "time": 140.17441860463177,
          "velocity": 0.14960629921259844,
          "duration": 0.034883720930224626
        },
        {
          "name": "C6",
          "midi": 84,
          "time": 140.1860465116085,
          "velocity": 0.1889763779527559,
          "duration": 0.04651162790696617
        },
        {
          "name": "F5",
          "midi": 77,
          "time": 140.19767441858525,
          "velocity": 0.25984251968503935,
          "duration": 0.023255813953483084
        },
        {
          "name": "E5",
          "midi": 76,
          "time": 140.22093023253873,
          "velocity": 0.33070866141732286,
          "duration": 0.05813953488370771
        },
        {
          "name": "D#5",
          "midi": 75,
          "time": 140.23255813951548,
          "velocity": 0.28346456692913385,
          "duration": 0.023255813953483084
        },
        {
          "name": "F6",
          "midi": 89,
          "time": 140.23255813951548,
          "velocity": 0.25196850393700787,
          "duration": 0.26744186046505547
        },
        {
          "name": "D7",
          "midi": 98,
          "time": 140.24418604649222,
          "velocity": 0.11811023622047244,
          "duration": 0.05813953488370771
        },
        {
          "name": "A#4",
          "midi": 70,
          "time": 140.2674418604457,
          "velocity": 0.4645669291338583,
          "duration": 0.2209302325580893
        },
        {
          "name": "A3",
          "midi": 57,
          "time": 140.27906976742244,
          "velocity": 0.2992125984251969,
          "duration": 0.09302325581393234
        },
        {
          "name": "E5",
          "midi": 76,
          "time": 140.29069767439918,
          "velocity": 0.3858267716535433,
          "duration": 0.034883720930224626
        },
        {
          "name": "C6",
          "midi": 84,
          "time": 140.31395348835267,
          "velocity": 0.12598425196850394,
          "duration": 0.034883720930224626
        },
        {
          "name": "F5",
          "midi": 77,
          "time": 140.3255813953294,
          "velocity": 0.4094488188976378,
          "duration": 0.023255813953483084
        },
        {
          "name": "F5",
          "midi": 77,
          "time": 140.36046511625963,
          "velocity": 0.31496062992125984,
          "duration": 0.05813953488370771
        },
        {
          "name": "G#3",
          "midi": 56,
          "time": 140.37209302323637,
          "velocity": 0.2992125984251969,
          "duration": 0.11627906976741542
        },
        {
          "name": "G5",
          "midi": 79,
          "time": 140.38372093021312,
          "velocity": 0.2283464566929134,
          "duration": 0.034883720930224626
        },
        {
          "name": "C4",
          "midi": 60,
          "time": 140.39534883718986,
          "velocity": 0.25196850393700787,
          "duration": 0.05813953488370771
        },
        {
          "name": "D#4",
          "midi": 63,
          "time": 140.39534883718986,
          "velocity": 0.23622047244094488,
          "duration": 0.034883720930224626
        },
        {
          "name": "F4",
          "midi": 65,
          "time": 140.41860465114334,
          "velocity": 0.3937007874015748,
          "duration": 0.04651162790696617
        },
        {
          "name": "E5",
          "midi": 76,
          "time": 140.41860465114334,
          "velocity": 0.3464566929133858,
          "duration": 0.034883720930224626
        },
        {
          "name": "F#5",
          "midi": 78,
          "time": 140.41860465114334,
          "velocity": 0.2047244094488189,
          "duration": 0.05813953488370771
        },
        {
          "name": "D7",
          "midi": 98,
          "time": 140.43023255812008,
          "velocity": 0.2204724409448819,
          "duration": 0.12790697674415696
        },
        {
          "name": "C#5",
          "midi": 73,
          "time": 140.44186046509682,
          "velocity": 0.3464566929133858,
          "duration": 0.3372093023255047
        },
        {
          "name": "B6",
          "midi": 95,
          "time": 140.44186046509682,
          "velocity": 0.14960629921259844,
          "duration": 0.10465116279067388
        },
        {
          "name": "D#7",
          "midi": 99,
          "time": 140.44186046509682,
          "velocity": 0.1968503937007874,
          "duration": 0.05813953488370771
        },
        {
          "name": "E7",
          "midi": 100,
          "time": 140.44186046509682,
          "velocity": 0.18110236220472442,
          "duration": 0.05813953488370771
        },
        {
          "name": "F#7",
          "midi": 102,
          "time": 140.44186046509682,
          "velocity": 0.2125984251968504,
          "duration": 0.04651162790696617
        },
        {
          "name": "G7",
          "midi": 103,
          "time": 140.44186046509682,
          "velocity": 0.1732283464566929,
          "duration": 0.04651162790696617
        },
        {
          "name": "C#4",
          "midi": 61,
          "time": 140.45348837207356,
          "velocity": 0.5748031496062992,
          "duration": 0.24418604651157239
        },
        {
          "name": "D#6",
          "midi": 87,
          "time": 140.45348837207356,
          "velocity": 0.12598425196850394,
          "duration": 0.05813953488370771
        },
        {
          "name": "A6",
          "midi": 93,
          "time": 140.45348837207356,
          "velocity": 0.08661417322834646,
          "duration": 0.04651162790696617
        },
        {
          "name": "C7",
          "midi": 96,
          "time": 140.45348837207356,
          "velocity": 0.14960629921259844,
          "duration": 0.05813953488370771
        },
        {
          "name": "G#3",
          "midi": 56,
          "time": 140.49999999998053,
          "velocity": 0.2755905511811024,
          "duration": 0.023255813953483084
        },
        {
          "name": "A#4",
          "midi": 70,
          "time": 140.49999999998053,
          "velocity": 0.23622047244094488,
          "duration": 0.05813953488370771
        },
        {
          "name": "F#4",
          "midi": 66,
          "time": 140.51162790695727,
          "velocity": 0.12598425196850394,
          "duration": 0.034883720930224626
        },
        {
          "name": "F#5",
          "midi": 78,
          "time": 140.51162790695727,
          "velocity": 0.2440944881889764,
          "duration": 0.034883720930224626
        },
        {
          "name": "G3",
          "midi": 55,
          "time": 140.52325581393401,
          "velocity": 0.28346456692913385,
          "duration": 0.023255813953483084
        },
        {
          "name": "F6",
          "midi": 89,
          "time": 140.5465116278875,
          "velocity": 0.28346456692913385,
          "duration": 0.3372093023255047
        },
        {
          "name": "G3",
          "midi": 55,
          "time": 140.55813953486424,
          "velocity": 0.33858267716535434,
          "duration": 0.10465116279067388
        },
        {
          "name": "F#5",
          "midi": 78,
          "time": 140.55813953486424,
          "velocity": 0.33070866141732286,
          "duration": 0.12790697674415696
        },
        {
          "name": "A#4",
          "midi": 70,
          "time": 140.56976744184098,
          "velocity": 0.2677165354330709,
          "duration": 0.05813953488370771
        },
        {
          "name": "A5",
          "midi": 81,
          "time": 140.58139534881772,
          "velocity": 0.2047244094488189,
          "duration": 0.04651162790696617
        },
        {
          "name": "F#4",
          "midi": 66,
          "time": 140.6046511627712,
          "velocity": 0.4251968503937008,
          "duration": 0.17441860465112313
        },
        {
          "name": "G#5",
          "midi": 80,
          "time": 140.6046511627712,
          "velocity": 0.2992125984251969,
          "duration": 0.09302325581393234
        },
        {
          "name": "A#5",
          "midi": 82,
          "time": 140.61627906974795,
          "velocity": 0.4409448818897638,
          "duration": 0.17441860465112313
        },
        {
          "name": "A5",
          "midi": 81,
          "time": 140.63953488370143,
          "velocity": 0.23622047244094488,
          "duration": 0.06976744186044925
        },
        {
          "name": "A4",
          "midi": 69,
          "time": 140.65116279067817,
          "velocity": 0.3700787401574803,
          "duration": 0.023255813953483084
        },
        {
          "name": "A3",
          "midi": 57,
          "time": 140.6627906976549,
          "velocity": 0.5118110236220472,
          "duration": 0.034883720930224626
        },
        {
          "name": "B5",
          "midi": 83,
          "time": 140.6627906976549,
          "velocity": 0.1968503937007874,
          "duration": 0.05813953488370771
        },
        {
          "name": "D6",
          "midi": 86,
          "time": 140.6627906976549,
          "velocity": 0.2677165354330709,
          "duration": 0.11627906976741542
        },
        {
          "name": "C7",
          "midi": 96,
          "time": 140.6627906976549,
          "velocity": 0.1732283464566929,
          "duration": 0.19767441860460622
        },
        {
          "name": "A#4",
          "midi": 70,
          "time": 140.67441860463165,
          "velocity": 0.5039370078740157,
          "duration": 0.15116279069764005
        },
        {
          "name": "F#7",
          "midi": 102,
          "time": 140.67441860463165,
          "velocity": 0.2125984251968504,
          "duration": 0.15116279069764005
        },
        {
          "name": "F5",
          "midi": 77,
          "time": 140.6860465116084,
          "velocity": 0.5196850393700787,
          "duration": 0.12790697674415696
        },
        {
          "name": "E7",
          "midi": 100,
          "time": 140.6860465116084,
          "velocity": 0.1968503937007874,
          "duration": 0.15116279069764005
        },
        {
          "name": "A#3",
          "midi": 58,
          "time": 140.69767441858514,
          "velocity": 0.6535433070866141,
          "duration": 0.17441860465112313
        },
        {
          "name": "G#5",
          "midi": 80,
          "time": 140.70930232556188,
          "velocity": 0.3464566929133858,
          "duration": 0.4651162790696617
        },
        {
          "name": "D#7",
          "midi": 99,
          "time": 140.70930232556188,
          "velocity": 0.23622047244094488,
          "duration": 0.23255813953483084
        },
        {
          "name": "D#5",
          "midi": 75,
          "time": 140.75581395346885,
          "velocity": 0.4015748031496063,
          "duration": 0.20930232558134776
        },
        {
          "name": "A6",
          "midi": 93,
          "time": 140.7674418604456,
          "velocity": 0.14960629921259844,
          "duration": 0.0813953488371908
        },
        {
          "name": "B6",
          "midi": 95,
          "time": 140.7674418604456,
          "velocity": 0.1889763779527559,
          "duration": 0.04651162790696617
        },
        {
          "name": "G7",
          "midi": 103,
          "time": 140.7674418604456,
          "velocity": 0.18110236220472442,
          "duration": 0.034883720930224626
        },
        {
          "name": "G4",
          "midi": 67,
          "time": 140.77906976742233,
          "velocity": 0.4645669291338583,
          "duration": 0.034883720930224626
        },
        {
          "name": "C6",
          "midi": 84,
          "time": 140.77906976742233,
          "velocity": 0.36220472440944884,
          "duration": 0.06976744186044925
        },
        {
          "name": "E6",
          "midi": 88,
          "time": 140.77906976742233,
          "velocity": 0.14960629921259844,
          "duration": 0.05813953488370771
        },
        {
          "name": "F#6",
          "midi": 90,
          "time": 140.77906976742233,
          "velocity": 0.1968503937007874,
          "duration": 0.11627906976741542
        },
        {
          "name": "C#5",
          "midi": 73,
          "time": 140.79069767439907,
          "velocity": 0.3779527559055118,
          "duration": 0.31395348837202164
        },
        {
          "name": "G#4",
          "midi": 68,
          "time": 140.81395348835255,
          "velocity": 0.5118110236220472,
          "duration": 0.24418604651157239
        },
        {
          "name": "F#5",
          "midi": 78,
          "time": 140.81395348835255,
          "velocity": 0.4330708661417323,
          "duration": 0.04651162790696617
        },
        {
          "name": "G5",
          "midi": 79,
          "time": 140.83720930230604,
          "velocity": 0.3543307086614173,
          "duration": 0.034883720930224626
        },
        {
          "name": "B5",
          "midi": 83,
          "time": 140.83720930230604,
          "velocity": 0.15748031496062992,
          "duration": 0.05813953488370771
        },
        {
          "name": "A3",
          "midi": 57,
          "time": 140.87209302323626,
          "velocity": 0.5511811023622047,
          "duration": 0.011627906976741542
        },
        {
          "name": "F#5",
          "midi": 78,
          "time": 140.87209302323626,
          "velocity": 0.4015748031496063,
          "duration": 0.023255813953483084
        },
        {
          "name": "G#3",
          "midi": 56,
          "time": 140.883720930213,
          "velocity": 0.6141732283464567,
          "duration": 0.17441860465112313
        },
        {
          "name": "G5",
          "midi": 79,
          "time": 140.883720930213,
          "velocity": 0.33070866141732286,
          "duration": 0.023255813953483084
        },
        {
          "name": "C6",
          "midi": 84,
          "time": 140.89534883718974,
          "velocity": 0.25984251968503935,
          "duration": 0.11627906976741542
        },
        {
          "name": "F#6",
          "midi": 90,
          "time": 140.90697674416649,
          "velocity": 0.16535433070866143,
          "duration": 0.05813953488370771
        },
        {
          "name": "G5",
          "midi": 79,
          "time": 140.91860465114323,
          "velocity": 0.28346456692913385,
          "duration": 0.034883720930224626
        },
        {
          "name": "C#4",
          "midi": 61,
          "time": 140.93023255811997,
          "velocity": 0.3228346456692913,
          "duration": 0.05813953488370771
        },
        {
          "name": "D7",
          "midi": 98,
          "time": 140.95348837207345,
          "velocity": 0.2204724409448819,
          "duration": 0.05813953488370771
        },
        {
          "name": "G5",
          "midi": 79,
          "time": 140.9651162790502,
          "velocity": 0.2992125984251969,
          "duration": 0.034883720930224626
        },
        {
          "name": "F6",
          "midi": 89,
          "time": 140.9651162790502,
          "velocity": 0.12598425196850394,
          "duration": 0.0813953488371908
        },
        {
          "name": "B5",
          "midi": 83,
          "time": 140.97674418602693,
          "velocity": 0.2204724409448819,
          "duration": 0.06976744186044925
        },
        {
          "name": "D6",
          "midi": 86,
          "time": 140.97674418602693,
          "velocity": 0.16535433070866143,
          "duration": 0.034883720930224626
        },
        {
          "name": "A6",
          "midi": 93,
          "time": 140.97674418602693,
          "velocity": 0.11811023622047244,
          "duration": 0.04651162790696617
        },
        {
          "name": "E7",
          "midi": 100,
          "time": 140.97674418602693,
          "velocity": 0.1732283464566929,
          "duration": 0.04651162790696617
        },
        {
          "name": "F7",
          "midi": 101,
          "time": 140.97674418602693,
          "velocity": 0.14960629921259844,
          "duration": 0.04651162790696617
        },
        {
          "name": "F#7",
          "midi": 102,
          "time": 140.97674418602693,
          "velocity": 0.18110236220472442,
          "duration": 0.0813953488371908
        },
        {
          "name": "F#6",
          "midi": 90,
          "time": 140.98837209300368,
          "velocity": 0.10236220472440945,
          "duration": 0.0813953488371908
        },
        {
          "name": "D#7",
          "midi": 99,
          "time": 140.98837209300368,
          "velocity": 0.2125984251968504,
          "duration": 0.034883720930224626
        },
        {
          "name": "G7",
          "midi": 103,
          "time": 140.98837209300368,
          "velocity": 0.1889763779527559,
          "duration": 0.04651162790696617
        },
        {
          "name": "C#7",
          "midi": 97,
          "time": 140.99999999998042,
          "velocity": 0.2204724409448819,
          "duration": 0.034883720930224626
        },
        {
          "name": "C#4",
          "midi": 61,
          "time": 141.01162790695716,
          "velocity": 0.25196850393700787,
          "duration": 0.04651162790696617
        },
        {
          "name": "A#4",
          "midi": 70,
          "time": 141.0232558139339,
          "velocity": 0.25984251968503935,
          "duration": 0.09302325581393234
        },
        {
          "name": "F#5",
          "midi": 78,
          "time": 141.0232558139339,
          "velocity": 0.3464566929133858,
          "duration": 0.023255813953483084
        },
        {
          "name": "D7",
          "midi": 98,
          "time": 141.0232558139339,
          "velocity": 0.15748031496062992,
          "duration": 0.034883720930224626
        },
        {
          "name": "F5",
          "midi": 77,
          "time": 141.04651162788738,
          "velocity": 0.2677165354330709,
          "duration": 0.29069767441853855
        },
        {
          "name": "G5",
          "midi": 79,
          "time": 141.04651162788738,
          "velocity": 0.29133858267716534,
          "duration": 0.04651162790696617
        },
        {
          "name": "F#4",
          "midi": 66,
          "time": 141.06976744184087,
          "velocity": 0.3228346456692913,
          "duration": 0.023255813953483084
        },
        {
          "name": "B5",
          "midi": 83,
          "time": 141.06976744184087,
          "velocity": 0.2755905511811024,
          "duration": 0.06976744186044925
        },
        {
          "name": "E3",
          "midi": 52,
          "time": 141.09302325579435,
          "velocity": 0.3543307086614173,
          "duration": 0.023255813953483084
        },
        {
          "name": "F4",
          "midi": 65,
          "time": 141.09302325579435,
          "velocity": 0.4094488188976378,
          "duration": 0.034883720930224626
        },
        {
          "name": "D#6",
          "midi": 87,
          "time": 141.09302325579435,
          "velocity": 0.1968503937007874,
          "duration": 0.09302325581393234
        },
        {
          "name": "C7",
          "midi": 96,
          "time": 141.09302325579435,
          "velocity": 0.12598425196850394,
          "duration": 0.05813953488370771
        },
        {
          "name": "E7",
          "midi": 100,
          "time": 141.09302325579435,
          "velocity": 0.18110236220472442,
          "duration": 0.05813953488370771
        },
        {
          "name": "F#7",
          "midi": 102,
          "time": 141.09302325579435,
          "velocity": 0.16535433070866143,
          "duration": 0.0813953488371908
        },
        {
          "name": "G#4",
          "midi": 68,
          "time": 141.1046511627711,
          "velocity": 0.25196850393700787,
          "duration": 0.023255813953483084
        },
        {
          "name": "E6",
          "midi": 88,
          "time": 141.1046511627711,
          "velocity": 0.08661417322834646,
          "duration": 0.04651162790696617
        },
        {
          "name": "F#6",
          "midi": 90,
          "time": 141.1046511627711,
          "velocity": 0.14173228346456693,
          "duration": 0.034883720930224626
        },
        {
          "name": "G6",
          "midi": 91,
          "time": 141.1046511627711,
          "velocity": 0.16535433070866143,
          "duration": 0.05813953488370771
        },
        {
          "name": "C#5",
          "midi": 73,
          "time": 141.11627906974783,
          "velocity": 0.3779527559055118,
          "duration": 0.05813953488370771
        },
        {
          "name": "A#6",
          "midi": 94,
          "time": 141.11627906974783,
          "velocity": 0.08661417322834646,
          "duration": 0.034883720930224626
        },
        {
          "name": "C#4",
          "midi": 61,
          "time": 141.12790697672457,
          "velocity": 0.5354330708661418,
          "duration": 0.29069767441853855
        },
        {
          "name": "A4",
          "midi": 69,
          "time": 141.12790697672457,
          "velocity": 0.2047244094488189,
          "duration": 0.034883720930224626
        },
        {
          "name": "G5",
          "midi": 79,
          "time": 141.12790697672457,
          "velocity": 0.3543307086614173,
          "duration": 0.034883720930224626
        },
        {
          "name": "A#5",
          "midi": 82,
          "time": 141.12790697672457,
          "velocity": 0.18110236220472442,
          "duration": 0.06976744186044925
        },
        {
          "name": "D7",
          "midi": 98,
          "time": 141.12790697672457,
          "velocity": 0.11811023622047244,
          "duration": 0.06976744186044925
        },
        {
          "name": "F4",
          "midi": 65,
          "time": 141.13953488370132,
          "velocity": 0.29133858267716534,
          "duration": 0.12790697674415696
        },
        {
          "name": "C6",
          "midi": 84,
          "time": 141.13953488370132,
          "velocity": 0.2283464566929134,
          "duration": 0.06976744186044925
        },
        {
          "name": "E3",
          "midi": 52,
          "time": 141.15116279067806,
          "velocity": 0.30708661417322836,
          "duration": 0.0813953488371908
        },
        {
          "name": "D6",
          "midi": 86,
          "time": 141.15116279067806,
          "velocity": 0.16535433070866143,
          "duration": 0.06976744186044925
        },
        {
          "name": "G#4",
          "midi": 68,
          "time": 141.1627906976548,
          "velocity": 0.23622047244094488,
          "duration": 0.05813953488370771
        },
        {
          "name": "C5",
          "midi": 72,
          "time": 141.17441860463154,
          "velocity": 0.2440944881889764,
          "duration": 0.034883720930224626
        },
        {
          "name": "G5",
          "midi": 79,
          "time": 141.17441860463154,
          "velocity": 0.28346456692913385,
          "duration": 0.06976744186044925
        },
        {
          "name": "G#5",
          "midi": 80,
          "time": 141.19767441858502,
          "velocity": 0.3779527559055118,
          "duration": 0.11627906976741542
        },
        {
          "name": "A5",
          "midi": 81,
          "time": 141.19767441858502,
          "velocity": 0.1968503937007874,
          "duration": 0.034883720930224626
        },
        {
          "name": "B5",
          "midi": 83,
          "time": 141.20930232556177,
          "velocity": 0.11811023622047244,
          "duration": 0.034883720930224626
        },
        {
          "name": "G#3",
          "midi": 56,
          "time": 141.23255813951525,
          "velocity": 0.2283464566929134,
          "duration": 0.023255813953483084
        },
        {
          "name": "C6",
          "midi": 84,
          "time": 141.23255813951525,
          "velocity": 0.08661417322834646,
          "duration": 0.034883720930224626
        },
        {
          "name": "D#7",
          "midi": 99,
          "time": 141.23255813951525,
          "velocity": 0.07874015748031496,
          "duration": 0.0813953488371908
        },
        {
          "name": "E3",
          "midi": 52,
          "time": 141.244186046492,
          "velocity": 0.2755905511811024,
          "duration": 0.023255813953483084
        },
        {
          "name": "G#4",
          "midi": 68,
          "time": 141.244186046492,
          "velocity": 0.3228346456692913,
          "duration": 0.1627906976743816
        },
        {
          "name": "D#3",
          "midi": 51,
          "time": 141.26744186044547,
          "velocity": 0.28346456692913385,
          "duration": 0.023255813953483084
        },
        {
          "name": "B5",
          "midi": 83,
          "time": 141.26744186044547,
          "velocity": 0.10236220472440945,
          "duration": 0.034883720930224626
        },
        {
          "name": "D7",
          "midi": 98,
          "time": 141.26744186044547,
          "velocity": 0.07086614173228346,
          "duration": 0.034883720930224626
        },
        {
          "name": "F6",
          "midi": 89,
          "time": 141.27906976742221,
          "velocity": 0.36220472440944884,
          "duration": 0.3604651162789878
        },
        {
          "name": "G#3",
          "midi": 56,
          "time": 141.29069767439896,
          "velocity": 0.25984251968503935,
          "duration": 0.023255813953483084
        },
        {
          "name": "D#3",
          "midi": 51,
          "time": 141.3023255813757,
          "velocity": 0.30708661417322836,
          "duration": 0.11627906976741542
        },
        {
          "name": "C6",
          "midi": 84,
          "time": 141.3023255813757,
          "velocity": 0.2047244094488189,
          "duration": 0.11627906976741542
        },
        {
          "name": "D#5",
          "midi": 75,
          "time": 141.31395348835244,
          "velocity": 0.2125984251968504,
          "duration": 0.06976744186044925
        },
        {
          "name": "G5",
          "midi": 79,
          "time": 141.31395348835244,
          "velocity": 0.2755905511811024,
          "duration": 0.04651162790696617
        },
        {
          "name": "A#5",
          "midi": 82,
          "time": 141.31395348835244,
          "velocity": 0.3464566929133858,
          "duration": 0.18604651162786467
        },
        {
          "name": "F4",
          "midi": 65,
          "time": 141.34883720928266,
          "velocity": 0.1889763779527559,
          "duration": 0.034883720930224626
        },
        {
          "name": "F5",
          "midi": 77,
          "time": 141.34883720928266,
          "velocity": 0.2992125984251969,
          "duration": 0.19767441860460622
        },
        {
          "name": "A5",
          "midi": 81,
          "time": 141.3837209302129,
          "velocity": 0.2440944881889764,
          "duration": 0.023255813953483084
        },
        {
          "name": "A#4",
          "midi": 70,
          "time": 141.39534883718963,
          "velocity": 0.25984251968503935,
          "duration": 0.04651162790696617
        },
        {
          "name": "G#5",
          "midi": 80,
          "time": 141.40697674416637,
          "velocity": 0.25984251968503935,
          "duration": 0.034883720930224626
        },
        {
          "name": "B5",
          "midi": 83,
          "time": 141.40697674416637,
          "velocity": 0.2755905511811024,
          "duration": 0.023255813953483084
        },
        {
          "name": "C#6",
          "midi": 85,
          "time": 141.40697674416637,
          "velocity": 0.4330708661417323,
          "duration": 0.1627906976743816
        },
        {
          "name": "D6",
          "midi": 86,
          "time": 141.4186046511431,
          "velocity": 0.2440944881889764,
          "duration": 0.034883720930224626
        },
        {
          "name": "D#6",
          "midi": 87,
          "time": 141.4186046511431,
          "velocity": 0.25984251968503935,
          "duration": 0.0813953488371908
        },
        {
          "name": "C7",
          "midi": 96,
          "time": 141.4186046511431,
          "velocity": 0.11811023622047244,
          "duration": 0.04651162790696617
        },
        {
          "name": "D#7",
          "midi": 99,
          "time": 141.4186046511431,
          "velocity": 0.25984251968503935,
          "duration": 0.12790697674415696
        },
        {
          "name": "E7",
          "midi": 100,
          "time": 141.4186046511431,
          "velocity": 0.25196850393700787,
          "duration": 0.09302325581393234
        },
        {
          "name": "F#7",
          "midi": 102,
          "time": 141.4186046511431,
          "velocity": 0.2047244094488189,
          "duration": 0.06976744186044925
        },
        {
          "name": "A5",
          "midi": 81,
          "time": 141.43023255811985,
          "velocity": 0.3228346456692913,
          "duration": 0.023255813953483084
        },
        {
          "name": "C6",
          "midi": 84,
          "time": 141.43023255811985,
          "velocity": 0.25984251968503935,
          "duration": 0.034883720930224626
        },
        {
          "name": "F#6",
          "midi": 90,
          "time": 141.43023255811985,
          "velocity": 0.11023622047244094,
          "duration": 0.06976744186044925
        },
        {
          "name": "G#4",
          "midi": 68,
          "time": 141.4418604650966,
          "velocity": 0.2440944881889764,
          "duration": 0.023255813953483084
        },
        {
          "name": "D#3",
          "midi": 51,
          "time": 141.45348837207334,
          "velocity": 0.3543307086614173,
          "duration": 0.04651162790696617
        },
        {
          "name": "C#4",
          "midi": 61,
          "time": 141.45348837207334,
          "velocity": 0.7244094488188977,
          "duration": 0.5232558139533694
        },
        {
          "name": "F4",
          "midi": 65,
          "time": 141.45348837207334,
          "velocity": 0.3543307086614173,
          "duration": 0.06976744186044925
        },
        {
          "name": "G#5",
          "midi": 80,
          "time": 141.45348837207334,
          "velocity": 0.36220472440944884,
          "duration": 0.1627906976743816
        },
        {
          "name": "G7",
          "midi": 103,
          "time": 141.45348837207334,
          "velocity": 0.16535433070866143,
          "duration": 0.05813953488370771
        },
        {
          "name": "D#5",
          "midi": 75,
          "time": 141.46511627905008,
          "velocity": 0.2047244094488189,
          "duration": 0.15116279069764005
        },
        {
          "name": "G#4",
          "midi": 68,
          "time": 141.48837209300356,
          "velocity": 0.2677165354330709,
          "duration": 0.05813953488370771
        },
        {
          "name": "C6",
          "midi": 84,
          "time": 141.48837209300356,
          "velocity": 0.2440944881889764,
          "duration": 0.04651162790696617
        },
        {
          "name": "G6",
          "midi": 91,
          "time": 141.48837209300356,
          "velocity": 0.10236220472440945,
          "duration": 0.034883720930224626
        },
        {
          "name": "D3",
          "midi": 50,
          "time": 141.4999999999803,
          "velocity": 0.33070866141732286,
          "duration": 0.17441860465112313
        },
        {
          "name": "C6",
          "midi": 84,
          "time": 141.558139534864,
          "velocity": 0.2440944881889764,
          "duration": 0.023255813953483084
        },
        {
          "name": "G#4",
          "midi": 68,
          "time": 141.56976744184075,
          "velocity": 0.5118110236220472,
          "duration": 0.1395348837208985
        },
        {
          "name": "F4",
          "midi": 65,
          "time": 141.59302325579424,
          "velocity": 0.18110236220472442,
          "duration": 0.034883720930224626
        },
        {
          "name": "B5",
          "midi": 83,
          "time": 141.59302325579424,
          "velocity": 0.14960629921259844,
          "duration": 0.05813953488370771
        },
        {
          "name": "C6",
          "midi": 84,
          "time": 141.60465116277098,
          "velocity": 0.2125984251968504,
          "duration": 0.11627906976741542
        },
        {
          "name": "A5",
          "midi": 81,
          "time": 141.61627906974772,
          "velocity": 0.2440944881889764,
          "duration": 0.023255813953483084
        },
        {
          "name": "E6",
          "midi": 88,
          "time": 141.62790697672446,
          "velocity": 0.07874015748031496,
          "duration": 0.034883720930224626
        },
        {
          "name": "D7",
          "midi": 98,
          "time": 141.62790697672446,
          "velocity": 0.2204724409448819,
          "duration": 0.04651162790696617
        },
        {
          "name": "G6",
          "midi": 91,
          "time": 141.6395348837012,
          "velocity": 0.14960629921259844,
          "duration": 0.034883720930224626
        },
        {
          "name": "A6",
          "midi": 93,
          "time": 141.6395348837012,
          "velocity": 0.10236220472440945,
          "duration": 0.05813953488370771
        },
        {
          "name": "E7",
          "midi": 100,
          "time": 141.6395348837012,
          "velocity": 0.1889763779527559,
          "duration": 0.034883720930224626
        },
        {
          "name": "F#7",
          "midi": 102,
          "time": 141.6395348837012,
          "velocity": 0.1968503937007874,
          "duration": 0.034883720930224626
        },
        {
          "name": "G7",
          "midi": 103,
          "time": 141.6395348837012,
          "velocity": 0.2047244094488189,
          "duration": 0.034883720930224626
        },
        {
          "name": "F6",
          "midi": 89,
          "time": 141.65116279067794,
          "velocity": 0.08661417322834646,
          "duration": 0.034883720930224626
        },
        {
          "name": "C#7",
          "midi": 97,
          "time": 141.65116279067794,
          "velocity": 0.16535433070866143,
          "duration": 0.034883720930224626
        },
        {
          "name": "A#5",
          "midi": 82,
          "time": 141.67441860463143,
          "velocity": 0.11023622047244094,
          "duration": 0.04651162790696617
        },
        {
          "name": "F5",
          "midi": 77,
          "time": 141.68604651160817,
          "velocity": 0.2204724409448819,
          "duration": 0.10465116279067388
        },
        {
          "name": "C#3",
          "midi": 49,
          "time": 141.6976744185849,
          "velocity": 0.30708661417322836,
          "duration": 0.06976744186044925
        },
        {
          "name": "G#5",
          "midi": 80,
          "time": 141.70930232556165,
          "velocity": 0.25984251968503935,
          "duration": 0.05813953488370771
        },
        {
          "name": "F6",
          "midi": 89,
          "time": 141.70930232556165,
          "velocity": 0.2755905511811024,
          "duration": 0.15116279069764005
        },
        {
          "name": "A5",
          "midi": 81,
          "time": 141.7209302325384,
          "velocity": 0.28346456692913385,
          "duration": 0.034883720930224626
        },
        {
          "name": "G#4",
          "midi": 68,
          "time": 141.73255813951513,
          "velocity": 0.33858267716535434,
          "duration": 0.05813953488370771
        },
        {
          "name": "F4",
          "midi": 65,
          "time": 141.74418604649188,
          "velocity": 0.4015748031496063,
          "duration": 0.17441860465112313
        },
        {
          "name": "D6",
          "midi": 86,
          "time": 141.74418604649188,
          "velocity": 0.1889763779527559,
          "duration": 0.0813953488371908
        },
        {
          "name": "E7",
          "midi": 100,
          "time": 141.74418604649188,
          "velocity": 0.2283464566929134,
          "duration": 0.04651162790696617
        },
        {
          "name": "F#7",
          "midi": 102,
          "time": 141.74418604649188,
          "velocity": 0.1889763779527559,
          "duration": 0.09302325581393234
        },
        {
          "name": "G7",
          "midi": 103,
          "time": 141.74418604649188,
          "velocity": 0.08661417322834646,
          "duration": 0.034883720930224626
        },
        {
          "name": "F#5",
          "midi": 78,
          "time": 141.75581395346862,
          "velocity": 0.09448818897637795,
          "duration": 0.034883720930224626
        },
        {
          "name": "C#6",
          "midi": 85,
          "time": 141.75581395346862,
          "velocity": 0.4409448818897638,
          "duration": 0.20930232558134776
        },
        {
          "name": "G6",
          "midi": 91,
          "time": 141.75581395346862,
          "velocity": 0.18110236220472442,
          "duration": 0.05813953488370771
        },
        {
          "name": "A6",
          "midi": 93,
          "time": 141.75581395346862,
          "velocity": 0.11811023622047244,
          "duration": 0.034883720930224626
        },
        {
          "name": "B6",
          "midi": 95,
          "time": 141.75581395346862,
          "velocity": 0.15748031496062992,
          "duration": 0.06976744186044925
        },
        {
          "name": "D#7",
          "midi": 99,
          "time": 141.75581395346862,
          "velocity": 0.18110236220472442,
          "duration": 0.06976744186044925
        },
        {
          "name": "A5",
          "midi": 81,
          "time": 141.76744186044536,
          "velocity": 0.25984251968503935,
          "duration": 0.023255813953483084
        },
        {
          "name": "C#3",
          "midi": 49,
          "time": 141.7790697674221,
          "velocity": 0.31496062992125984,
          "duration": 0.06976744186044925
        },
        {
          "name": "D#6",
          "midi": 87,
          "time": 141.7790697674221,
          "velocity": 0.15748031496062992,
          "duration": 0.06976744186044925
        },
        {
          "name": "G5",
          "midi": 79,
          "time": 141.79069767439884,
          "velocity": 0.14173228346456693,
          "duration": 0.04651162790696617
        },
        {
          "name": "C6",
          "midi": 84,
          "time": 141.79069767439884,
          "velocity": 0.10236220472440945,
          "duration": 0.034883720930224626
        },
        {
          "name": "A5",
          "midi": 81,
          "time": 141.80232558137558,
          "velocity": 0.3543307086614173,
          "duration": 0.04651162790696617
        },
        {
          "name": "G#4",
          "midi": 68,
          "time": 141.81395348835233,
          "velocity": 0.2440944881889764,
          "duration": 0.06976744186044925
        },
        {
          "name": "G#5",
          "midi": 80,
          "time": 141.8372093023058,
          "velocity": 0.31496062992125984,
          "duration": 0.10465116279067388
        },
        {
          "name": "D6",
          "midi": 86,
          "time": 141.8372093023058,
          "velocity": 0.18110236220472442,
          "duration": 0.04651162790696617
        },
        {
          "name": "C3",
          "midi": 48,
          "time": 141.84883720928255,
          "velocity": 0.33070866141732286,
          "duration": 0.034883720930224626
        },
        {
          "name": "D#6",
          "midi": 87,
          "time": 141.8604651162593,
          "velocity": 0.14173228346456693,
          "duration": 0.0813953488371908
        },
        {
          "name": "E6",
          "midi": 88,
          "time": 141.88372093021277,
          "velocity": 0.10236220472440945,
          "duration": 0.034883720930224626
        },
        {
          "name": "C3",
          "midi": 48,
          "time": 141.89534883718952,
          "velocity": 0.3464566929133858,
          "duration": 0.18604651162786467
        },
        {
          "name": "A5",
          "midi": 81,
          "time": 141.89534883718952,
          "velocity": 0.29133858267716534,
          "duration": 0.034883720930224626
        },
        {
          "name": "F#6",
          "midi": 90,
          "time": 141.89534883718952,
          "velocity": 0.09448818897637795,
          "duration": 0.06976744186044925
        },
        {
          "name": "G#4",
          "midi": 68,
          "time": 141.90697674416626,
          "velocity": 0.1968503937007874,
          "duration": 0.034883720930224626
        },
        {
          "name": "C6",
          "midi": 84,
          "time": 141.90697674416626,
          "velocity": 0.2440944881889764,
          "duration": 0.04651162790696617
        },
        {
          "name": "D6",
          "midi": 86,
          "time": 141.90697674416626,
          "velocity": 0.2992125984251969,
          "duration": 0.2558139534883139
        },
        {
          "name": "E5",
          "midi": 76,
          "time": 141.93023255811974,
          "velocity": 0.1889763779527559,
          "duration": 0.034883720930224626
        },
        {
          "name": "A#5",
          "midi": 82,
          "time": 141.93023255811974,
          "velocity": 0.33858267716535434,
          "duration": 0.19767441860460622
        },
        {
          "name": "F6",
          "midi": 89,
          "time": 141.93023255811974,
          "velocity": 0.23622047244094488,
          "duration": 0.23255813953483084
        },
        {
          "name": "F4",
          "midi": 65,
          "time": 141.94186046509648,
          "velocity": 0.4094488188976378,
          "duration": 0.11627906976741542
        },
        {
          "name": "A4",
          "midi": 69,
          "time": 141.94186046509648,
          "velocity": 0.33858267716535434,
          "duration": 0.034883720930224626
        },
        {
          "name": "B5",
          "midi": 83,
          "time": 141.95348837207322,
          "velocity": 0.1889763779527559,
          "duration": 0.05813953488370771
        },
        {
          "name": "A6",
          "midi": 93,
          "time": 141.95348837207322,
          "velocity": 0.09448818897637795,
          "duration": 0.05813953488370771
        },
        {
          "name": "C7",
          "midi": 96,
          "time": 141.95348837207322,
          "velocity": 0.2047244094488189,
          "duration": 0.279069767441797
        },
        {
          "name": "G7",
          "midi": 103,
          "time": 141.95348837207322,
          "velocity": 0.07874015748031496,
          "duration": 0.04651162790696617
        },
        {
          "name": "G#5",
          "midi": 80,
          "time": 141.96511627904997,
          "velocity": 0.2440944881889764,
          "duration": 0.06976744186044925
        },
        {
          "name": "C6",
          "midi": 84,
          "time": 141.96511627904997,
          "velocity": 0.25984251968503935,
          "duration": 0.023255813953483084
        },
        {
          "name": "C4",
          "midi": 60,
          "time": 141.9767441860267,
          "velocity": 0.5275590551181102,
          "duration": 0.011627906976741542
        },
        {
          "name": "A#4",
          "midi": 70,
          "time": 141.9767441860267,
          "velocity": 0.41732283464566927,
          "duration": 0.10465116279067388
        },
        {
          "name": "D#5",
          "midi": 75,
          "time": 141.9767441860267,
          "velocity": 0.1889763779527559,
          "duration": 0.034883720930224626
        },
        {
          "name": "F#6",
          "midi": 90,
          "time": 141.9767441860267,
          "velocity": 0.1889763779527559,
          "duration": 0.04651162790696617
        },
        {
          "name": "A#3",
          "midi": 58,
          "time": 141.98837209300345,
          "velocity": 0.6771653543307087,
          "duration": 0.10465116279067388
        },
        {
          "name": "C6",
          "midi": 84,
          "time": 141.9999999999802,
          "velocity": 0.4251968503937008,
          "duration": 0.279069767441797
        },
        {
          "name": "D#7",
          "midi": 99,
          "time": 142.01162790695693,
          "velocity": 0.16535433070866143,
          "duration": 0.034883720930224626
        },
        {
          "name": "G#6",
          "midi": 92,
          "time": 142.03488372091041,
          "velocity": 0.29133858267716534,
          "duration": 0.1395348837208985
        },
        {
          "name": "E7",
          "midi": 100,
          "time": 142.04651162788716,
          "velocity": 0.1889763779527559,
          "duration": 0.1395348837208985
        },
        {
          "name": "C5",
          "midi": 72,
          "time": 142.0581395348639,
          "velocity": 0.3464566929133858,
          "duration": 0.034883720930224626
        },
        {
          "name": "B5",
          "midi": 83,
          "time": 142.0581395348639,
          "velocity": 0.2755905511811024,
          "duration": 0.034883720930224626
        },
        {
          "name": "F#6",
          "midi": 90,
          "time": 142.0581395348639,
          "velocity": 0.2047244094488189,
          "duration": 0.279069767441797
        },
        {
          "name": "G#5",
          "midi": 80,
          "time": 142.06976744184064,
          "velocity": 0.36220472440944884,
          "duration": 0.48837209302314477
        },
        {
          "name": "C#6",
          "midi": 85,
          "time": 142.06976744184064,
          "velocity": 0.2440944881889764,
          "duration": 0.023255813953483084
        },
        {
          "name": "D#6",
          "midi": 87,
          "time": 142.06976744184064,
          "velocity": 0.28346456692913385,
          "duration": 0.05813953488370771
        },
        {
          "name": "B2",
          "midi": 47,
          "time": 142.08139534881738,
          "velocity": 0.3464566929133858,
          "duration": 0.15116279069764005
        },
        {
          "name": "G#4",
          "midi": 68,
          "time": 142.08139534881738,
          "velocity": 0.5039370078740157,
          "duration": 0.31395348837202164
        },
        {
          "name": "E5",
          "midi": 76,
          "time": 142.08139534881738,
          "velocity": 0.30708661417322836,
          "duration": 0.023255813953483084
        },
        {
          "name": "F#5",
          "midi": 78,
          "time": 142.08139534881738,
          "velocity": 0.3228346456692913,
          "duration": 0.023255813953483084
        },
        {
          "name": "G6",
          "midi": 91,
          "time": 142.08139534881738,
          "velocity": 0.1732283464566929,
          "duration": 0.034883720930224626
        },
        {
          "name": "A3",
          "midi": 57,
          "time": 142.09302325579412,
          "velocity": 0.5984251968503937,
          "duration": 0.011627906976741542
        },
        {
          "name": "E4",
          "midi": 64,
          "time": 142.09302325579412,
          "velocity": 0.3543307086614173,
          "duration": 0.023255813953483084
        },
        {
          "name": "C#5",
          "midi": 73,
          "time": 142.09302325579412,
          "velocity": 0.2047244094488189,
          "duration": 0.05813953488370771
        },
        {
          "name": "D#5",
          "midi": 75,
          "time": 142.09302325579412,
          "velocity": 0.5039370078740157,
          "duration": 0.279069767441797
        },
        {
          "name": "G3",
          "midi": 55,
          "time": 142.10465116277086,
          "velocity": 0.5354330708661418,
          "duration": 0.011627906976741542
        },
        {
          "name": "A6",
          "midi": 93,
          "time": 142.10465116277086,
          "velocity": 0.13385826771653545,
          "duration": 0.10465116279067388
        },
        {
          "name": "F#3",
          "midi": 54,
          "time": 142.1162790697476,
          "velocity": 0.5118110236220472,
          "duration": 0.011627906976741542
        },
        {
          "name": "F4",
          "midi": 65,
          "time": 142.1162790697476,
          "velocity": 0.23622047244094488,
          "duration": 0.05813953488370771
        },
        {
          "name": "C#7",
          "midi": 97,
          "time": 142.1162790697476,
          "velocity": 0.09448818897637795,
          "duration": 0.06976744186044925
        },
        {
          "name": "G#3",
          "midi": 56,
          "time": 142.12790697672435,
          "velocity": 0.5511811023622047,
          "duration": 0.06976744186044925
        },
        {
          "name": "B5",
          "midi": 83,
          "time": 142.12790697672435,
          "velocity": 0.23622047244094488,
          "duration": 0.034883720930224626
        },
        {
          "name": "A#6",
          "midi": 94,
          "time": 142.12790697672435,
          "velocity": 0.13385826771653545,
          "duration": 0.05813953488370771
        },
        {
          "name": "A#4",
          "midi": 70,
          "time": 142.1395348837011,
          "velocity": 0.2283464566929134,
          "duration": 0.023255813953483084
        },
        {
          "name": "F5",
          "midi": 77,
          "time": 142.15116279067783,
          "velocity": 0.2992125984251969,
          "duration": 0.11627906976741542
        },
        {
          "name": "A#5",
          "midi": 82,
          "time": 142.15116279067783,
          "velocity": 0.2283464566929134,
          "duration": 0.05813953488370771
        },
        {
          "name": "E6",
          "midi": 88,
          "time": 142.15116279067783,
          "velocity": 0.07874015748031496,
          "duration": 0.034883720930224626
        },
        {
          "name": "C#5",
          "midi": 73,
          "time": 142.16279069765457,
          "velocity": 0.28346456692913385,
          "duration": 0.09302325581393234
        },
        {
          "name": "G#3",
          "midi": 56,
          "time": 142.20930232556154,
          "velocity": 0.3464566929133858,
          "duration": 0.04651162790696617
        },
        {
          "name": "C#4",
          "midi": 61,
          "time": 142.20930232556154,
          "velocity": 0.23622047244094488,
          "duration": 0.034883720930224626
        },
        {
          "name": "A#2",
          "midi": 46,
          "time": 142.23255813951502,
          "velocity": 0.30708661417322836,
          "duration": 0.023255813953483084
        },
        {
          "name": "B5",
          "midi": 83,
          "time": 142.23255813951502,
          "velocity": 0.1889763779527559,
          "duration": 0.10465116279067388
        },
        {
          "name": "E6",
          "midi": 88,
          "time": 142.23255813951502,
          "velocity": 0.2440944881889764,
          "duration": 0.034883720930224626
        },
        {
          "name": "A6",
          "midi": 93,
          "time": 142.24418604649176,
          "velocity": 0.12598425196850394,
          "duration": 0.1395348837208985
        },
        {
          "name": "B2",
          "midi": 47,
          "time": 142.2558139534685,
          "velocity": 0.33858267716535434,
          "duration": 0.023255813953483084
        },
        {
          "name": "C5",
          "midi": 72,
          "time": 142.2558139534685,
          "velocity": 0.2677165354330709,
          "duration": 0.05813953488370771
        },
        {
          "name": "A#2",
          "midi": 46,
          "time": 142.279069767422,
          "velocity": 0.3464566929133858,
          "duration": 0.12790697674415696
        },
        {
          "name": "F4",
          "midi": 65,
          "time": 142.279069767422,
          "velocity": 0.4330708661417323,
          "duration": 0.04651162790696617
        },
        {
          "name": "D7",
          "midi": 98,
          "time": 142.279069767422,
          "velocity": 0.14960629921259844,
          "duration": 0.034883720930224626
        },
        {
          "name": "G3",
          "midi": 55,
          "time": 142.29069767439873,
          "velocity": 0.3228346456692913,
          "duration": 0.034883720930224626
        },
        {
          "name": "A#6",
          "midi": 94,
          "time": 142.29069767439873,
          "velocity": 0.11023622047244094,
          "duration": 0.04651162790696617
        },
        {
          "name": "C7",
          "midi": 96,
          "time": 142.29069767439873,
          "velocity": 0.10236220472440945,
          "duration": 0.05813953488370771
        },
        {
          "name": "E7",
          "midi": 100,
          "time": 142.29069767439873,
          "velocity": 0.2125984251968504,
          "duration": 0.05813953488370771
        },
        {
          "name": "F7",
          "midi": 101,
          "time": 142.29069767439873,
          "velocity": 0.16535433070866143,
          "duration": 0.04651162790696617
        },
        {
          "name": "C#4",
          "midi": 61,
          "time": 142.30232558137547,
          "velocity": 0.23622047244094488,
          "duration": 0.034883720930224626
        },
        {
          "name": "G7",
          "midi": 103,
          "time": 142.30232558137547,
          "velocity": 0.11811023622047244,
          "duration": 0.06976744186044925
        },
        {
          "name": "E6",
          "midi": 88,
          "time": 142.3139534883522,
          "velocity": 0.25984251968503935,
          "duration": 0.04651162790696617
        },
        {
          "name": "F6",
          "midi": 89,
          "time": 142.3139534883522,
          "velocity": 0.23622047244094488,
          "duration": 0.26744186046505547
        },
        {
          "name": "G6",
          "midi": 91,
          "time": 142.3139534883522,
          "velocity": 0.10236220472440945,
          "duration": 0.034883720930224626
        },
        {
          "name": "G#3",
          "midi": 56,
          "time": 142.32558139532895,
          "velocity": 0.48031496062992124,
          "duration": 0.0813953488371908
        },
        {
          "name": "A#5",
          "midi": 82,
          "time": 142.32558139532895,
          "velocity": 0.3228346456692913,
          "duration": 0.34883720930224626
        },
        {
          "name": "F4",
          "midi": 65,
          "time": 142.3372093023057,
          "velocity": 0.28346456692913385,
          "duration": 0.05813953488370771
        },
        {
          "name": "A#4",
          "midi": 70,
          "time": 142.37209302323592,
          "velocity": 0.23622047244094488,
          "duration": 0.04651162790696617
        },
        {
          "name": "C#5",
          "midi": 73,
          "time": 142.38372093021266,
          "velocity": 0.3228346456692913,
          "duration": 0.05813953488370771
        },
        {
          "name": "F#6",
          "midi": 90,
          "time": 142.3953488371894,
          "velocity": 0.2125984251968504,
          "duration": 0.034883720930224626
        },
        {
          "name": "A6",
          "midi": 93,
          "time": 142.3953488371894,
          "velocity": 0.15748031496062992,
          "duration": 0.10465116279067388
        },
        {
          "name": "B6",
          "midi": 95,
          "time": 142.3953488371894,
          "velocity": 0.1968503937007874,
          "duration": 0.06976744186044925
        },
        {
          "name": "D7",
          "midi": 98,
          "time": 142.3953488371894,
          "velocity": 0.16535433070866143,
          "duration": 0.06976744186044925
        },
        {
          "name": "E7",
          "midi": 100,
          "time": 142.3953488371894,
          "velocity": 0.23622047244094488,
          "duration": 0.06976744186044925
        },
        {
          "name": "G7",
          "midi": 103,
          "time": 142.3953488371894,
          "velocity": 0.14960629921259844,
          "duration": 0.05813953488370771
        },
        {
          "name": "A2",
          "midi": 45,
          "time": 142.40697674416614,
          "velocity": 0.3464566929133858,
          "duration": 0.023255813953483084
        },
        {
          "name": "C#6",
          "midi": 85,
          "time": 142.40697674416614,
          "velocity": 0.3779527559055118,
          "duration": 0.279069767441797
        },
        {
          "name": "E6",
          "midi": 88,
          "time": 142.40697674416614,
          "velocity": 0.3464566929133858,
          "duration": 0.19767441860460622
        },
        {
          "name": "G6",
          "midi": 91,
          "time": 142.40697674416614,
          "velocity": 0.18110236220472442,
          "duration": 0.04651162790696617
        },
        {
          "name": "E4",
          "midi": 64,
          "time": 142.41860465114289,
          "velocity": 0.33070866141732286,
          "duration": 0.023255813953483084
        },
        {
          "name": "D#5",
          "midi": 75,
          "time": 142.41860465114289,
          "velocity": 0.1732283464566929,
          "duration": 0.05813953488370771
        },
        {
          "name": "B5",
          "midi": 83,
          "time": 142.41860465114289,
          "velocity": 0.1968503937007874,
          "duration": 0.04651162790696617
        },
        {
          "name": "D#6",
          "midi": 87,
          "time": 142.43023255811963,
          "velocity": 0.18110236220472442,
          "duration": 0.034883720930224626
        },
        {
          "name": "A2",
          "midi": 45,
          "time": 142.44186046509637,
          "velocity": 0.31496062992125984,
          "duration": 0.023255813953483084
        },
        {
          "name": "F5",
          "midi": 77,
          "time": 142.44186046509637,
          "velocity": 0.08661417322834646,
          "duration": 0.034883720930224626
        },
        {
          "name": "F#6",
          "midi": 90,
          "time": 142.44186046509637,
          "velocity": 0.16535433070866143,
          "duration": 0.15116279069764005
        },
        {
          "name": "D4",
          "midi": 62,
          "time": 142.4534883720731,
          "velocity": 0.15748031496062992,
          "duration": 0.034883720930224626
        },
        {
          "name": "A#4",
          "midi": 70,
          "time": 142.4534883720731,
          "velocity": 0.31496062992125984,
          "duration": 0.19767441860460622
        },
        {
          "name": "C#5",
          "midi": 73,
          "time": 142.4534883720731,
          "velocity": 0.5118110236220472,
          "duration": 0.4651162790696617
        },
        {
          "name": "G3",
          "midi": 55,
          "time": 142.46511627904985,
          "velocity": 0.09448818897637795,
          "duration": 0.034883720930224626
        },
        {
          "name": "C6",
          "midi": 84,
          "time": 142.46511627904985,
          "velocity": 0.12598425196850394,
          "duration": 0.034883720930224626
        },
        {
          "name": "A2",
          "midi": 45,
          "time": 142.4767441860266,
          "velocity": 0.3858267716535433,
          "duration": 0.1627906976743816
        },
        {
          "name": "C#4",
          "midi": 61,
          "time": 142.48837209300333,
          "velocity": 0.5118110236220472,
          "duration": 0.18604651162786467
        },
        {
          "name": "F#5",
          "midi": 78,
          "time": 142.48837209300333,
          "velocity": 0.15748031496062992,
          "duration": 0.04651162790696617
        },
        {
          "name": "F5",
          "midi": 77,
          "time": 142.51162790695682,
          "velocity": 0.11811023622047244,
          "duration": 0.04651162790696617
        },
        {
          "name": "C6",
          "midi": 84,
          "time": 142.52325581393356,
          "velocity": 0.16535433070866143,
          "duration": 0.06976744186044925
        },
        {
          "name": "D#7",
          "midi": 99,
          "time": 142.52325581393356,
          "velocity": 0.10236220472440945,
          "duration": 0.034883720930224626
        },
        {
          "name": "B6",
          "midi": 95,
          "time": 142.5348837209103,
          "velocity": 0.12598425196850394,
          "duration": 0.04651162790696617
        },
        {
          "name": "F3",
          "midi": 53,
          "time": 142.54651162788704,
          "velocity": 0.09448818897637795,
          "duration": 0.034883720930224626
        },
        {
          "name": "F#5",
          "midi": 78,
          "time": 142.54651162788704,
          "velocity": 0.25984251968503935,
          "duration": 0.0813953488371908
        },
        {
          "name": "D#6",
          "midi": 87,
          "time": 142.55813953486378,
          "velocity": 0.12598425196850394,
          "duration": 0.05813953488370771
        },
        {
          "name": "G6",
          "midi": 91,
          "time": 142.55813953486378,
          "velocity": 0.12598425196850394,
          "duration": 0.10465116279067388
        },
        {
          "name": "G#5",
          "midi": 80,
          "time": 142.56976744184053,
          "velocity": 0.29133858267716534,
          "duration": 0.09302325581393234
        },
        {
          "name": "D7",
          "midi": 98,
          "time": 142.56976744184053,
          "velocity": 0.07086614173228346,
          "duration": 0.034883720930224626
        },
        {
          "name": "B5",
          "midi": 83,
          "time": 142.58139534881727,
          "velocity": 0.09448818897637795,
          "duration": 0.04651162790696617
        },
        {
          "name": "G#6",
          "midi": 92,
          "time": 142.58139534881727,
          "velocity": 0.33858267716535434,
          "duration": 0.26744186046505547
        },
        {
          "name": "F6",
          "midi": 89,
          "time": 142.593023255794,
          "velocity": 0.29133858267716534,
          "duration": 0.034883720930224626
        },
        {
          "name": "F5",
          "midi": 77,
          "time": 142.6162790697475,
          "velocity": 0.3464566929133858,
          "duration": 0.06976744186044925
        },
        {
          "name": "E6",
          "midi": 88,
          "time": 142.62790697672423,
          "velocity": 0.31496062992125984,
          "duration": 0.06976744186044925
        },
        {
          "name": "G#2",
          "midi": 44,
          "time": 142.63953488370097,
          "velocity": 0.3779527559055118,
          "duration": 0.17441860465112313
        },
        {
          "name": "G#4",
          "midi": 68,
          "time": 142.63953488370097,
          "velocity": 0.2047244094488189,
          "duration": 0.04651162790696617
        },
        {
          "name": "F6",
          "midi": 89,
          "time": 142.63953488370097,
          "velocity": 0.3937007874015748,
          "duration": 0.24418604651157239
        },
        {
          "name": "A#4",
          "midi": 70,
          "time": 142.66279069765446,
          "velocity": 0.1732283464566929,
          "duration": 0.05813953488370771
        },
        {
          "name": "F#5",
          "midi": 78,
          "time": 142.6744186046312,
          "velocity": 0.2440944881889764,
          "duration": 0.023255813953483084
        },
        {
          "name": "F#4",
          "midi": 66,
          "time": 142.68604651160794,
          "velocity": 0.16535433070866143,
          "duration": 0.034883720930224626
        },
        {
          "name": "G#5",
          "midi": 80,
          "time": 142.68604651160794,
          "velocity": 0.11811023622047244,
          "duration": 0.04651162790696617
        },
        {
          "name": "C6",
          "midi": 84,
          "time": 142.68604651160794,
          "velocity": 0.18110236220472442,
          "duration": 0.04651162790696617
        },
        {
          "name": "D6",
          "midi": 86,
          "time": 142.68604651160794,
          "velocity": 0.1732283464566929,
          "duration": 0.0813953488371908
        },
        {
          "name": "F5",
          "midi": 77,
          "time": 142.69767441858468,
          "velocity": 0.30708661417322836,
          "duration": 0.11627906976741542
        },
        {
          "name": "A#5",
          "midi": 82,
          "time": 142.69767441858468,
          "velocity": 0.33858267716535434,
          "duration": 0.0813953488371908
        },
        {
          "name": "F#6",
          "midi": 90,
          "time": 142.69767441858468,
          "velocity": 0.2677165354330709,
          "duration": 0.12790697674415696
        },
        {
          "name": "C4",
          "midi": 60,
          "time": 142.70930232556142,
          "velocity": 0.4330708661417323,
          "duration": 0.034883720930224626
        },
        {
          "name": "E6",
          "midi": 88,
          "time": 142.70930232556142,
          "velocity": 0.25196850393700787,
          "duration": 0.023255813953483084
        },
        {
          "name": "E4",
          "midi": 64,
          "time": 142.72093023253817,
          "velocity": 0.5118110236220472,
          "duration": 0.023255813953483084
        },
        {
          "name": "D#5",
          "midi": 75,
          "time": 142.72093023253817,
          "velocity": 0.28346456692913385,
          "duration": 0.023255813953483084
        },
        {
          "name": "D7",
          "midi": 98,
          "time": 142.72093023253817,
          "velocity": 0.2204724409448819,
          "duration": 0.18604651162786467
        },
        {
          "name": "D#7",
          "midi": 99,
          "time": 142.72093023253817,
          "velocity": 0.2204724409448819,
          "duration": 0.18604651162786467
        },
        {
          "name": "E7",
          "midi": 100,
          "time": 142.72093023253817,
          "velocity": 0.28346456692913385,
          "duration": 0.05813953488370771
        },
        {
          "name": "G7",
          "midi": 103,
          "time": 142.72093023253817,
          "velocity": 0.18110236220472442,
          "duration": 0.05813953488370771
        },
        {
          "name": "A4",
          "midi": 69,
          "time": 142.7325581395149,
          "velocity": 0.25196850393700787,
          "duration": 0.023255813953483084
        },
        {
          "name": "B5",
          "midi": 83,
          "time": 142.7325581395149,
          "velocity": 0.25196850393700787,
          "duration": 0.023255813953483084
        },
        {
          "name": "A6",
          "midi": 93,
          "time": 142.7325581395149,
          "velocity": 0.16535433070866143,
          "duration": 0.04651162790696617
        },
        {
          "name": "D#4",
          "midi": 63,
          "time": 142.74418604649165,
          "velocity": 0.5433070866141733,
          "duration": 0.011627906976741542
        },
        {
          "name": "F#4",
          "midi": 66,
          "time": 142.74418604649165,
          "velocity": 0.3543307086614173,
          "duration": 0.034883720930224626
        },
        {
          "name": "E5",
          "midi": 76,
          "time": 142.74418604649165,
          "velocity": 0.2755905511811024,
          "duration": 0.023255813953483084
        },
        {
          "name": "G#5",
          "midi": 80,
          "time": 142.74418604649165,
          "velocity": 0.4015748031496063,
          "duration": 0.2558139534883139
        },
        {
          "name": "G6",
          "midi": 91,
          "time": 142.74418604649165,
          "velocity": 0.15748031496062992,
          "duration": 0.10465116279067388
        },
        {
          "name": "D4",
          "midi": 62,
          "time": 142.7558139534684,
          "velocity": 0.5118110236220472,
          "duration": 0.023255813953483084
        },
        {
          "name": "A#4",
          "midi": 70,
          "time": 142.7558139534684,
          "velocity": 0.23622047244094488,
          "duration": 0.0813953488371908
        },
        {
          "name": "C#4",
          "midi": 61,
          "time": 142.77906976742187,
          "velocity": 0.33070866141732286,
          "duration": 0.034883720930224626
        },
        {
          "name": "G4",
          "midi": 67,
          "time": 142.77906976742187,
          "velocity": 0.2440944881889764,
          "duration": 0.023255813953483084
        },
        {
          "name": "B6",
          "midi": 95,
          "time": 142.77906976742187,
          "velocity": 0.11023622047244094,
          "duration": 0.06976744186044925
        },
        {
          "name": "D#5",
          "midi": 75,
          "time": 142.79069767439861,
          "velocity": 0.23622047244094488,
          "duration": 0.05813953488370771
        },
        {
          "name": "A#5",
          "midi": 82,
          "time": 142.80232558137536,
          "velocity": 0.23622047244094488,
          "duration": 0.10465116279067388
        },
        {
          "name": "C4",
          "midi": 60,
          "time": 142.8139534883521,
          "velocity": 0.33070866141732286,
          "duration": 0.023255813953483084
        },
        {
          "name": "F5",
          "midi": 77,
          "time": 142.82558139532884,
          "velocity": 0.14960629921259844,
          "duration": 0.04651162790696617
        },
        {
          "name": "F#5",
          "midi": 78,
          "time": 142.82558139532884,
          "velocity": 0.15748031496062992,
          "duration": 0.05813953488370771
        },
        {
          "name": "A6",
          "midi": 93,
          "time": 142.82558139532884,
          "velocity": 0.1968503937007874,
          "duration": 0.20930232558134776
        },
        {
          "name": "G2",
          "midi": 43,
          "time": 142.83720930230558,
          "velocity": 0.3543307086614173,
          "duration": 0.17441860465112313
        },
        {
          "name": "C#4",
          "midi": 61,
          "time": 142.83720930230558,
          "velocity": 0.5748031496062992,
          "duration": 0.15116279069764005
        },
        {
          "name": "A#4",
          "midi": 70,
          "time": 142.86046511625906,
          "velocity": 0.16535433070866143,
          "duration": 0.06976744186044925
        },
        {
          "name": "F#6",
          "midi": 90,
          "time": 142.8720930232358,
          "velocity": 0.4015748031496063,
          "duration": 0.23255813953483084
        },
        {
          "name": "G6",
          "midi": 91,
          "time": 142.8720930232358,
          "velocity": 0.2992125984251969,
          "duration": 0.1395348837208985
        },
        {
          "name": "F#4",
          "midi": 66,
          "time": 142.88372093021255,
          "velocity": 0.3858267716535433,
          "duration": 0.06976744186044925
        },
        {
          "name": "D#5",
          "midi": 75,
          "time": 142.88372093021255,
          "velocity": 0.14960629921259844,
          "duration": 0.05813953488370771
        },
        {
          "name": "B6",
          "midi": 95,
          "time": 142.88372093021255,
          "velocity": 0.18110236220472442,
          "duration": 0.10465116279067388
        },
        {
          "name": "F5",
          "midi": 77,
          "time": 142.8953488371893,
          "velocity": 0.14173228346456693,
          "duration": 0.05813953488370771
        },
        {
          "name": "F6",
          "midi": 89,
          "time": 142.8953488371893,
          "velocity": 0.29133858267716534,
          "duration": 0.45348837209292014
        },
        {
          "name": "B5",
          "midi": 83,
          "time": 142.94186046509625,
          "velocity": 0.09448818897637795,
          "duration": 0.034883720930224626
        },
        {
          "name": "C7",
          "midi": 96,
          "time": 142.94186046509625,
          "velocity": 0.12598425196850394,
          "duration": 0.06976744186044925
        },
        {
          "name": "E7",
          "midi": 100,
          "time": 142.94186046509625,
          "velocity": 0.1889763779527559,
          "duration": 0.04651162790696617
        },
        {
          "name": "A4",
          "midi": 69,
          "time": 142.953488372073,
          "velocity": 0.2992125984251969,
          "duration": 0.023255813953483084
        },
        {
          "name": "E5",
          "midi": 76,
          "time": 142.96511627904974,
          "velocity": 0.14173228346456693,
          "duration": 0.04651162790696617
        },
        {
          "name": "A#5",
          "midi": 82,
          "time": 142.96511627904974,
          "velocity": 0.1889763779527559,
          "duration": 0.0813953488371908
        },
        {
          "name": "A#4",
          "midi": 70,
          "time": 142.97674418602648,
          "velocity": 0.31496062992125984,
          "duration": 0.1627906976743816
        },
        {
          "name": "C6",
          "midi": 84,
          "time": 142.98837209300322,
          "velocity": 0.07086614173228346,
          "duration": 0.034883720930224626
        },
        {
          "name": "C#6",
          "midi": 85,
          "time": 142.99999999997996,
          "velocity": 0.36220472440944884,
          "duration": 0.20930232558134776
        },
        {
          "name": "F#2",
          "midi": 42,
          "time": 143.0116279069567,
          "velocity": 0.3700787401574803,
          "duration": 0.1627906976743816
        },
        {
          "name": "C#5",
          "midi": 73,
          "time": 143.0116279069567,
          "velocity": 0.29133858267716534,
          "duration": 0.05813953488370771
        },
        {
          "name": "F5",
          "midi": 77,
          "time": 143.0116279069567,
          "velocity": 0.13385826771653545,
          "duration": 0.04651162790696617
        },
        {
          "name": "C#4",
          "midi": 61,
          "time": 143.02325581393345,
          "velocity": 0.25984251968503935,
          "duration": 0.023255813953483084
        },
        {
          "name": "E4",
          "midi": 64,
          "time": 143.0348837209102,
          "velocity": 0.31496062992125984,
          "duration": 0.023255813953483084
        },
        {
          "name": "B6",
          "midi": 95,
          "time": 143.0348837209102,
          "velocity": 0.2125984251968504,
          "duration": 0.034883720930224626
        },
        {
          "name": "C7",
          "midi": 96,
          "time": 143.0348837209102,
          "velocity": 0.2204724409448819,
          "duration": 0.09302325581393234
        },
        {
          "name": "C4",
          "midi": 60,
          "time": 143.04651162788693,
          "velocity": 0.2677165354330709,
          "duration": 0.023255813953483084
        },
        {
          "name": "G6",
          "midi": 91,
          "time": 143.04651162788693,
          "velocity": 0.3937007874015748,
          "duration": 0.26744186046505547
        },
        {
          "name": "D7",
          "midi": 98,
          "time": 143.04651162788693,
          "velocity": 0.11811023622047244,
          "duration": 0.05813953488370771
        },
        {
          "name": "D#7",
          "midi": 99,
          "time": 143.04651162788693,
          "velocity": 0.18110236220472442,
          "duration": 0.10465116279067388
        },
        {
          "name": "E7",
          "midi": 100,
          "time": 143.04651162788693,
          "velocity": 0.1889763779527559,
          "duration": 0.10465116279067388
        },
        {
          "name": "F4",
          "midi": 65,
          "time": 143.05813953486367,
          "velocity": 0.4251968503937008,
          "duration": 0.034883720930224626
        },
        {
          "name": "G#5",
          "midi": 80,
          "time": 143.05813953486367,
          "velocity": 0.3858267716535433,
          "duration": 0.3255813953487632
        },
        {
          "name": "D6",
          "midi": 86,
          "time": 143.0697674418404,
          "velocity": 0.11023622047244094,
          "duration": 0.04651162790696617
        },
        {
          "name": "C#4",
          "midi": 61,
          "time": 143.08139534881715,
          "velocity": 0.3937007874015748,
          "duration": 0.06976744186044925
        },
        {
          "name": "F5",
          "midi": 77,
          "time": 143.11627906974738,
          "velocity": 0.1889763779527559,
          "duration": 0.034883720930224626
        },
        {
          "name": "F#4",
          "midi": 66,
          "time": 143.12790697672412,
          "velocity": 0.1732283464566929,
          "duration": 0.04651162790696617
        },
        {
          "name": "F#6",
          "midi": 90,
          "time": 143.12790697672412,
          "velocity": 0.2125984251968504,
          "duration": 0.04651162790696617
        },
        {
          "name": "F#5",
          "midi": 78,
          "time": 143.1511627906776,
          "velocity": 0.18110236220472442,
          "duration": 0.04651162790696617
        },
        {
          "name": "D#6",
          "midi": 87,
          "time": 143.1511627906776,
          "velocity": 0.11811023622047244,
          "duration": 0.04651162790696617
        },
        {
          "name": "C#4",
          "midi": 61,
          "time": 143.16279069765434,
          "velocity": 0.5826771653543307,
          "duration": 0.15116279069764005
        },
        {
          "name": "E6",
          "midi": 88,
          "time": 143.16279069765434,
          "velocity": 0.14173228346456693,
          "duration": 0.034883720930224626
        },
        {
          "name": "A#5",
          "midi": 82,
          "time": 143.1744186046311,
          "velocity": 0.16535433070866143,
          "duration": 0.04651162790696617
        },
        {
          "name": "F#2",
          "midi": 42,
          "time": 143.18604651160783,
          "velocity": 0.3779527559055118,
          "duration": 0.023255813953483084
        },
        {
          "name": "D#5",
          "midi": 75,
          "time": 143.18604651160783,
          "velocity": 0.08661417322834646,
          "duration": 0.034883720930224626
        },
        {
          "name": "A6",
          "midi": 93,
          "time": 143.18604651160783,
          "velocity": 0.18110236220472442,
          "duration": 0.11627906976741542
        },
        {
          "name": "F#4",
          "midi": 66,
          "time": 143.19767441858457,
          "velocity": 0.30708661417322836,
          "duration": 0.06976744186044925
        },
        {
          "name": "A#4",
          "midi": 70,
          "time": 143.19767441858457,
          "velocity": 0.28346456692913385,
          "duration": 0.06976744186044925
        },
        {
          "name": "F2",
          "midi": 41,
          "time": 143.2093023255613,
          "velocity": 0.3858267716535433,
          "duration": 0.18604651162786467
        },
        {
          "name": "F#6",
          "midi": 90,
          "time": 143.22093023253805,
          "velocity": 0.2125984251968504,
          "duration": 0.0813953488371908
        },
        {
          "name": "D#6",
          "midi": 87,
          "time": 143.2325581395148,
          "velocity": 0.36220472440944884,
          "duration": 0.5348837209301109
        },
        {
          "name": "A#6",
          "midi": 94,
          "time": 143.24418604649154,
          "velocity": 0.25984251968503935,
          "duration": 0.2558139534883139
        },
        {
          "name": "B5",
          "midi": 83,
          "time": 143.25581395346828,
          "velocity": 0.12598425196850394,
          "duration": 0.06976744186044925
        },
        {
          "name": "C7",
          "midi": 96,
          "time": 143.25581395346828,
          "velocity": 0.08661417322834646,
          "duration": 0.034883720930224626
        },
        {
          "name": "D#5",
          "midi": 75,
          "time": 143.26744186044502,
          "velocity": 0.41732283464566927,
          "duration": 0.20930232558134776
        },
        {
          "name": "D6",
          "midi": 86,
          "time": 143.26744186044502,
          "velocity": 0.15748031496062992,
          "duration": 0.0813953488371908
        },
        {
          "name": "B6",
          "midi": 95,
          "time": 143.26744186044502,
          "velocity": 0.13385826771653545,
          "duration": 0.04651162790696617
        },
        {
          "name": "E7",
          "midi": 100,
          "time": 143.26744186044502,
          "velocity": 0.2204724409448819,
          "duration": 0.26744186046505547
        },
        {
          "name": "F#4",
          "midi": 66,
          "time": 143.27906976742176,
          "velocity": 0.3779527559055118,
          "duration": 0.034883720930224626
        },
        {
          "name": "A#5",
          "midi": 82,
          "time": 143.27906976742176,
          "velocity": 0.3543307086614173,
          "duration": 0.09302325581393234
        },
        {
          "name": "E6",
          "midi": 88,
          "time": 143.27906976742176,
          "velocity": 0.11811023622047244,
          "duration": 0.034883720930224626
        },
        {
          "name": "A#4",
          "midi": 70,
          "time": 143.2906976743985,
          "velocity": 0.2992125984251969,
          "duration": 0.09302325581393234
        },
        {
          "name": "D#4",
          "midi": 63,
          "time": 143.31395348835198,
          "velocity": 0.6614173228346457,
          "duration": 0.09302325581393234
        },
        {
          "name": "G6",
          "midi": 91,
          "time": 143.32558139532873,
          "velocity": 0.2283464566929134,
          "duration": 0.034883720930224626
        },
        {
          "name": "A6",
          "midi": 93,
          "time": 143.32558139532873,
          "velocity": 0.41732283464566927,
          "duration": 0.3604651162789878
        },
        {
          "name": "C#6",
          "midi": 85,
          "time": 143.3488372092822,
          "velocity": 0.3228346456692913,
          "duration": 0.10465116279067388
        },
        {
          "name": "B6",
          "midi": 95,
          "time": 143.36046511625895,
          "velocity": 0.10236220472440945,
          "duration": 0.034883720930224626
        },
        {
          "name": "F6",
          "midi": 89,
          "time": 143.3720930232357,
          "velocity": 0.4409448818897638,
          "duration": 0.24418604651157239
        },
        {
          "name": "G6",
          "midi": 91,
          "time": 143.3720930232357,
          "velocity": 0.2125984251968504,
          "duration": 0.31395348837202164
        },
        {
          "name": "F#7",
          "midi": 102,
          "time": 143.3720930232357,
          "velocity": 0.25984251968503935,
          "duration": 0.29069767441853855
        },
        {
          "name": "C#5",
          "midi": 73,
          "time": 143.38372093021243,
          "velocity": 0.30708661417322836,
          "duration": 0.05813953488370771
        },
        {
          "name": "F5",
          "midi": 77,
          "time": 143.38372093021243,
          "velocity": 0.4409448818897638,
          "duration": 0.5930232558138187
        },
        {
          "name": "E6",
          "midi": 88,
          "time": 143.38372093021243,
          "velocity": 0.1889763779527559,
          "duration": 0.0813953488371908
        },
        {
          "name": "C7",
          "midi": 96,
          "time": 143.38372093021243,
          "velocity": 0.1889763779527559,
          "duration": 0.0813953488371908
        },
        {
          "name": "D7",
          "midi": 98,
          "time": 143.38372093021243,
          "velocity": 0.18110236220472442,
          "duration": 0.12790697674415696
        },
        {
          "name": "E2",
          "midi": 40,
          "time": 143.39534883718918,
          "velocity": 0.36220472440944884,
          "duration": 0.034883720930224626
        },
        {
          "name": "F4",
          "midi": 65,
          "time": 143.39534883718918,
          "velocity": 0.6220472440944882,
          "duration": 0.279069767441797
        },
        {
          "name": "G#5",
          "midi": 80,
          "time": 143.39534883718918,
          "velocity": 0.25196850393700787,
          "duration": 0.023255813953483084
        },
        {
          "name": "A5",
          "midi": 81,
          "time": 143.40697674416592,
          "velocity": 0.2125984251968504,
          "duration": 0.034883720930224626
        },
        {
          "name": "C6",
          "midi": 84,
          "time": 143.40697674416592,
          "velocity": 0.49606299212598426,
          "duration": 0.7093023255812341
        },
        {
          "name": "B6",
          "midi": 95,
          "time": 143.40697674416592,
          "velocity": 0.16535433070866143,
          "duration": 0.10465116279067388
        },
        {
          "name": "G#4",
          "midi": 68,
          "time": 143.41860465114266,
          "velocity": 0.23622047244094488,
          "duration": 0.023255813953483084
        },
        {
          "name": "F2",
          "midi": 41,
          "time": 143.4302325581194,
          "velocity": 0.3779527559055118,
          "duration": 0.023255813953483084
        },
        {
          "name": "G#5",
          "midi": 80,
          "time": 143.4302325581194,
          "velocity": 0.28346456692913385,
          "duration": 0.11627906976741542
        },
        {
          "name": "C5",
          "midi": 72,
          "time": 143.44186046509614,
          "velocity": 0.5275590551181102,
          "duration": 0.20930232558134776
        },
        {
          "name": "E2",
          "midi": 40,
          "time": 143.45348837207288,
          "velocity": 0.3858267716535433,
          "duration": 0.0813953488371908
        },
        {
          "name": "A#5",
          "midi": 82,
          "time": 143.45348837207288,
          "velocity": 0.29133858267716534,
          "duration": 0.19767441860460622
        },
        {
          "name": "C#6",
          "midi": 85,
          "time": 143.46511627904962,
          "velocity": 0.2677165354330709,
          "duration": 0.0813953488371908
        },
        {
          "name": "F#6",
          "midi": 90,
          "time": 143.46511627904962,
          "velocity": 0.18110236220472442,
          "duration": 0.034883720930224626
        },
        {
          "name": "E6",
          "midi": 88,
          "time": 143.47674418602637,
          "velocity": 0.18110236220472442,
          "duration": 0.034883720930224626
        },
        {
          "name": "D6",
          "midi": 86,
          "time": 143.49999999997985,
          "velocity": 0.11811023622047244,
          "duration": 0.04651162790696617
        },
        {
          "name": "A4",
          "midi": 69,
          "time": 143.52325581393333,
          "velocity": 0.2440944881889764,
          "duration": 0.05813953488370771
        },
        {
          "name": "D#5",
          "midi": 75,
          "time": 143.52325581393333,
          "velocity": 0.16535433070866143,
          "duration": 0.034883720930224626
        },
        {
          "name": "B5",
          "midi": 83,
          "time": 143.52325581393333,
          "velocity": 0.23622047244094488,
          "duration": 0.023255813953483084
        },
        {
          "name": "D#2",
          "midi": 39,
          "time": 143.53488372091007,
          "velocity": 0.3858267716535433,
          "duration": 0.023255813953483084
        },
        {
          "name": "E7",
          "midi": 100,
          "time": 143.54651162788682,
          "velocity": 0.2283464566929134,
          "duration": 0.10465116279067388
        },
        {
          "name": "E2",
          "midi": 40,
          "time": 143.55813953486356,
          "velocity": 0.3937007874015748,
          "duration": 0.023255813953483084
        },
        {
          "name": "G#5",
          "midi": 80,
          "time": 143.55813953486356,
          "velocity": 0.31496062992125984,
          "duration": 0.05813953488370771
        },
        {
          "name": "C#6",
          "midi": 85,
          "time": 143.55813953486356,
          "velocity": 0.1968503937007874,
          "duration": 0.09302325581393234
        },
        {
          "name": "F#6",
          "midi": 90,
          "time": 143.55813953486356,
          "velocity": 0.2283464566929134,
          "duration": 0.19767441860460622
        },
        {
          "name": "A#6",
          "midi": 94,
          "time": 143.55813953486356,
          "velocity": 0.31496062992125984,
          "duration": 0.2558139534883139
        },
        {
          "name": "D#5",
          "midi": 75,
          "time": 143.58139534881704,
          "velocity": 0.23622047244094488,
          "duration": 0.05813953488370771
        },
        {
          "name": "B6",
          "midi": 95,
          "time": 143.58139534881704,
          "velocity": 0.1889763779527559,
          "duration": 0.06976744186044925
        },
        {
          "name": "E2",
          "midi": 40,
          "time": 143.59302325579378,
          "velocity": 0.3700787401574803,
          "duration": 0.023255813953483084
        },
        {
          "name": "E6",
          "midi": 88,
          "time": 143.59302325579378,
          "velocity": 0.23622047244094488,
          "duration": 0.04651162790696617
        },
        {
          "name": "D7",
          "midi": 98,
          "time": 143.59302325579378,
          "velocity": 0.1732283464566929,
          "duration": 0.09302325581393234
        },
        {
          "name": "A5",
          "midi": 81,
          "time": 143.60465116277052,
          "velocity": 0.2677165354330709,
          "duration": 0.034883720930224626
        },
        {
          "name": "D#2",
          "midi": 39,
          "time": 143.61627906974726,
          "velocity": 0.3858267716535433,
          "duration": 0.0813953488371908
        },
        {
          "name": "G#6",
          "midi": 92,
          "time": 143.627906976724,
          "velocity": 0.18110236220472442,
          "duration": 0.1395348837208985
        },
        {
          "name": "A#4",
          "midi": 70,
          "time": 143.6511627906775,
          "velocity": 0.33070866141732286,
          "duration": 0.04651162790696617
        },
        {
          "name": "C#5",
          "midi": 73,
          "time": 143.6511627906775,
          "velocity": 0.2440944881889764,
          "duration": 0.04651162790696617
        },
        {
          "name": "D#5",
          "midi": 75,
          "time": 143.6511627906775,
          "velocity": 0.1732283464566929,
          "duration": 0.05813953488370771
        },
        {
          "name": "A5",
          "midi": 81,
          "time": 143.6511627906775,
          "velocity": 0.2440944881889764,
          "duration": 0.034883720930224626
        },
        {
          "name": "D6",
          "midi": 86,
          "time": 143.66279069765423,
          "velocity": 0.13385826771653545,
          "duration": 0.06976744186044925
        },
        {
          "name": "E4",
          "midi": 64,
          "time": 143.67441860463097,
          "velocity": 0.3937007874015748,
          "duration": 0.023255813953483084
        },
        {
          "name": "B6",
          "midi": 95,
          "time": 143.67441860463097,
          "velocity": 0.33070866141732286,
          "duration": 0.279069767441797
        },
        {
          "name": "G#5",
          "midi": 80,
          "time": 143.6860465116077,
          "velocity": 0.1889763779527559,
          "duration": 0.05813953488370771
        },
        {
          "name": "F4",
          "midi": 65,
          "time": 143.69767441858446,
          "velocity": 0.4015748031496063,
          "duration": 0.023255813953483084
        },
        {
          "name": "G6",
          "midi": 91,
          "time": 143.69767441858446,
          "velocity": 0.23622047244094488,
          "duration": 0.1627906976743816
        },
        {
          "name": "A6",
          "midi": 93,
          "time": 143.69767441858446,
          "velocity": 0.2440944881889764,
          "duration": 0.279069767441797
        },
        {
          "name": "D7",
          "midi": 98,
          "time": 143.69767441858446,
          "velocity": 0.1968503937007874,
          "duration": 0.279069767441797
        },
        {
          "name": "E7",
          "midi": 100,
          "time": 143.69767441858446,
          "velocity": 0.1732283464566929,
          "duration": 0.04651162790696617
        },
        {
          "name": "D#2",
          "midi": 39,
          "time": 143.7093023255612,
          "velocity": 0.3858267716535433,
          "duration": 0.05813953488370771
        },
        {
          "name": "A4",
          "midi": 69,
          "time": 143.7093023255612,
          "velocity": 0.2755905511811024,
          "duration": 0.023255813953483084
        },
        {
          "name": "C#5",
          "midi": 73,
          "time": 143.7093023255612,
          "velocity": 0.2283464566929134,
          "duration": 0.023255813953483084
        },
        {
          "name": "E3",
          "midi": 52,
          "time": 143.72093023253794,
          "velocity": 0.1732283464566929,
          "duration": 0.034883720930224626
        },
        {
          "name": "E4",
          "midi": 64,
          "time": 143.72093023253794,
          "velocity": 0.4645669291338583,
          "duration": 0.023255813953483084
        },
        {
          "name": "D#5",
          "midi": 75,
          "time": 143.72093023253794,
          "velocity": 0.2992125984251969,
          "duration": 0.12790697674415696
        },
        {
          "name": "C5",
          "midi": 72,
          "time": 143.73255813951468,
          "velocity": 0.31496062992125984,
          "duration": 0.1627906976743816
        },
        {
          "name": "C#6",
          "midi": 85,
          "time": 143.73255813951468,
          "velocity": 0.14173228346456693,
          "duration": 0.034883720930224626
        },
        {
          "name": "F4",
          "midi": 65,
          "time": 143.74418604649142,
          "velocity": 0.6299212598425197,
          "duration": 0.279069767441797
        },
        {
          "name": "A5",
          "midi": 81,
          "time": 143.74418604649142,
          "velocity": 0.1732283464566929,
          "duration": 0.034883720930224626
        },
        {
          "name": "G#5",
          "midi": 80,
          "time": 143.7674418604449,
          "velocity": 0.25196850393700787,
          "duration": 0.2209302325580893
        },
        {
          "name": "A#5",
          "midi": 82,
          "time": 143.7674418604449,
          "velocity": 0.23622047244094488,
          "duration": 0.06976744186044925
        },
        {
          "name": "F#6",
          "midi": 90,
          "time": 143.7674418604449,
          "velocity": 0.18110236220472442,
          "duration": 0.10465116279067388
        },
        {
          "name": "D6",
          "midi": 86,
          "time": 143.77906976742165,
          "velocity": 0.13385826771653545,
          "duration": 0.034883720930224626
        },
        {
          "name": "E7",
          "midi": 100,
          "time": 143.77906976742165,
          "velocity": 0.18110236220472442,
          "duration": 0.0813953488371908
        },
        {
          "name": "D2",
          "midi": 38,
          "time": 143.7906976743984,
          "velocity": 0.3858267716535433,
          "duration": 0.18604651162786467
        },
        {
          "name": "D#7",
          "midi": 99,
          "time": 143.7906976743984,
          "velocity": 0.23622047244094488,
          "duration": 0.4999999999998863
        },
        {
          "name": "G#4",
          "midi": 68,
          "time": 143.80232558137513,
          "velocity": 0.30708661417322836,
          "duration": 0.023255813953483084
        },
        {
          "name": "C#7",
          "midi": 97,
          "time": 143.81395348835187,
          "velocity": 0.4330708661417323,
          "duration": 0.9767441860462895
        },
        {
          "name": "A4",
          "midi": 69,
          "time": 143.8255813953286,
          "velocity": 0.15748031496062992,
          "duration": 0.034883720930224626
        },
        {
          "name": "D6",
          "midi": 86,
          "time": 143.8255813953286,
          "velocity": 0.16535433070866143,
          "duration": 0.034883720930224626
        },
        {
          "name": "E6",
          "midi": 88,
          "time": 143.8255813953286,
          "velocity": 0.08661417322834646,
          "duration": 0.04651162790696617
        },
        {
          "name": "G#6",
          "midi": 92,
          "time": 143.8255813953286,
          "velocity": 0.30708661417322836,
          "duration": 0.31395348837202164
        },
        {
          "name": "D#5",
          "midi": 75,
          "time": 143.86046511625884,
          "velocity": 0.1968503937007874,
          "duration": 0.12790697674415696
        },
        {
          "name": "G6",
          "midi": 91,
          "time": 143.87209302323558,
          "velocity": 0.29133858267716534,
          "duration": 0.1395348837208985
        },
        {
          "name": "G#4",
          "midi": 68,
          "time": 143.88372093021232,
          "velocity": 0.2755905511811024,
          "duration": 0.034883720930224626
        },
        {
          "name": "C#4",
          "midi": 61,
          "time": 143.89534883718906,
          "velocity": 0.11811023622047244,
          "duration": 0.034883720930224626
        },
        {
          "name": "C#6",
          "midi": 85,
          "time": 143.89534883718906,
          "velocity": 0.18110236220472442,
          "duration": 0.06976744186044925
        },
        {
          "name": "B3",
          "midi": 59,
          "time": 143.9069767441658,
          "velocity": 0.11811023622047244,
          "duration": 0.04651162790696617
        },
        {
          "name": "C5",
          "midi": 72,
          "time": 143.9069767441658,
          "velocity": 0.1889763779527559,
          "duration": 0.034883720930224626
        },
        {
          "name": "A5",
          "midi": 81,
          "time": 143.9069767441658,
          "velocity": 0.1732283464566929,
          "duration": 0.04651162790696617
        },
        {
          "name": "F#7",
          "midi": 102,
          "time": 143.91860465114254,
          "velocity": 0.16535433070866143,
          "duration": 0.09302325581393234
        },
        {
          "name": "D6",
          "midi": 86,
          "time": 143.9302325581193,
          "velocity": 0.14960629921259844,
          "duration": 0.05813953488370771
        },
        {
          "name": "C#5",
          "midi": 73,
          "time": 143.94186046509603,
          "velocity": 0.11023622047244094,
          "duration": 0.034883720930224626
        },
        {
          "name": "F#6",
          "midi": 90,
          "time": 143.95348837207277,
          "velocity": 0.09448818897637795,
          "duration": 0.034883720930224626
        },
        {
          "name": "A5",
          "midi": 81,
          "time": 143.9651162790495,
          "velocity": 0.11811023622047244,
          "duration": 0.034883720930224626
        },
        {
          "name": "B6",
          "midi": 95,
          "time": 143.9651162790495,
          "velocity": 0.25196850393700787,
          "duration": 0.24418604651157239
        },
        {
          "name": "C#2",
          "midi": 37,
          "time": 143.97674418602625,
          "velocity": 0.4094488188976378,
          "duration": 0.17441860465112313
        },
        {
          "name": "C5",
          "midi": 72,
          "time": 143.97674418602625,
          "velocity": 0.16535433070866143,
          "duration": 0.034883720930224626
        },
        {
          "name": "D#6",
          "midi": 87,
          "time": 143.988372093003,
          "velocity": 0.31496062992125984,
          "duration": 0.3023255813952801
        },
        {
          "name": "F#5",
          "midi": 78,
          "time": 143.99999999997974,
          "velocity": 0.36220472440944884,
          "duration": 0.0813953488371908
        },
        {
          "name": "G#5",
          "midi": 80,
          "time": 143.99999999997974,
          "velocity": 0.25984251968503935,
          "duration": 0.12790697674415696
        },
        {
          "name": "A#5",
          "midi": 82,
          "time": 143.99999999997974,
          "velocity": 0.2677165354330709,
          "duration": 0.18604651162786467
        },
        {
          "name": "F6",
          "midi": 89,
          "time": 143.99999999997974,
          "velocity": 0.33858267716535434,
          "duration": 0.1627906976743816
        },
        {
          "name": "A6",
          "midi": 93,
          "time": 143.99999999997974,
          "velocity": 0.4094488188976378,
          "duration": 0.3023255813952801
        },
        {
          "name": "C#6",
          "midi": 85,
          "time": 144.01162790695648,
          "velocity": 0.25196850393700787,
          "duration": 0.023255813953483084
        },
        {
          "name": "G#4",
          "midi": 68,
          "time": 144.02325581393322,
          "velocity": 0.5118110236220472,
          "duration": 0.034883720930224626
        },
        {
          "name": "F#7",
          "midi": 102,
          "time": 144.02325581393322,
          "velocity": 0.2283464566929134,
          "duration": 0.2558139534883139
        },
        {
          "name": "D#4",
          "midi": 63,
          "time": 144.03488372090996,
          "velocity": 0.3543307086614173,
          "duration": 0.023255813953483084
        },
        {
          "name": "D6",
          "midi": 86,
          "time": 144.03488372090996,
          "velocity": 0.1732283464566929,
          "duration": 0.034883720930224626
        },
        {
          "name": "D7",
          "midi": 98,
          "time": 144.03488372090996,
          "velocity": 0.2125984251968504,
          "duration": 0.17441860465112313
        },
        {
          "name": "E7",
          "midi": 100,
          "time": 144.03488372090996,
          "velocity": 0.23622047244094488,
          "duration": 0.26744186046505547
        },
        {
          "name": "G7",
          "midi": 103,
          "time": 144.03488372090996,
          "velocity": 0.2204724409448819,
          "duration": 0.11627906976741542
        },
        {
          "name": "F#3",
          "midi": 54,
          "time": 144.0465116278867,
          "velocity": 0.15748031496062992,
          "duration": 0.04651162790696617
        },
        {
          "name": "F5",
          "midi": 77,
          "time": 144.0465116278867,
          "velocity": 0.5433070866141733,
          "duration": 0.5697674418603356
        },
        {
          "name": "A5",
          "midi": 81,
          "time": 144.0465116278867,
          "velocity": 0.2204724409448819,
          "duration": 0.034883720930224626
        },
        {
          "name": "G6",
          "midi": 91,
          "time": 144.0465116278867,
          "velocity": 0.2283464566929134,
          "duration": 0.06976744186044925
        },
        {
          "name": "C#5",
          "midi": 73,
          "time": 144.05813953486344,
          "velocity": 0.2283464566929134,
          "duration": 0.034883720930224626
        },
        {
          "name": "A#6",
          "midi": 94,
          "time": 144.05813953486344,
          "velocity": 0.41732283464566927,
          "duration": 0.37209302325572935
        },
        {
          "name": "F4",
          "midi": 65,
          "time": 144.06976744184018,
          "velocity": 0.48031496062992124,
          "duration": 0.04651162790696617
        },
        {
          "name": "G#4",
          "midi": 68,
          "time": 144.06976744184018,
          "velocity": 0.30708661417322836,
          "duration": 0.034883720930224626
        },
        {
          "name": "B5",
          "midi": 83,
          "time": 144.06976744184018,
          "velocity": 0.4015748031496063,
          "duration": 0.05813953488370771
        },
        {
          "name": "C5",
          "midi": 72,
          "time": 144.09302325579367,
          "velocity": 0.5511811023622047,
          "duration": 0.11627906976741542
        },
        {
          "name": "E6",
          "midi": 88,
          "time": 144.09302325579367,
          "velocity": 0.2677165354330709,
          "duration": 0.034883720930224626
        },
        {
          "name": "D#5",
          "midi": 75,
          "time": 144.1046511627704,
          "velocity": 0.14173228346456693,
          "duration": 0.04651162790696617
        },
        {
          "name": "F#6",
          "midi": 90,
          "time": 144.1046511627704,
          "velocity": 0.13385826771653545,
          "duration": 0.09302325581393234
        },
        {
          "name": "G#4",
          "midi": 68,
          "time": 144.11627906974715,
          "velocity": 0.4251968503937008,
          "duration": 0.034883720930224626
        },
        {
          "name": "G6",
          "midi": 91,
          "time": 144.1279069767239,
          "velocity": 0.25984251968503935,
          "duration": 0.10465116279067388
        },
        {
          "name": "E6",
          "midi": 88,
          "time": 144.13953488370063,
          "velocity": 0.25984251968503935,
          "duration": 0.06976744186044925
        },
        {
          "name": "C#2",
          "midi": 37,
          "time": 144.16279069765412,
          "velocity": 0.3937007874015748,
          "duration": 0.023255813953483084
        },
        {
          "name": "F4",
          "midi": 65,
          "time": 144.16279069765412,
          "velocity": 0.5905511811023622,
          "duration": 0.1395348837208985
        },
        {
          "name": "G#4",
          "midi": 68,
          "time": 144.16279069765412,
          "velocity": 0.25984251968503935,
          "duration": 0.023255813953483084
        },
        {
          "name": "D#5",
          "midi": 75,
          "time": 144.16279069765412,
          "velocity": 0.1968503937007874,
          "duration": 0.04651162790696617
        },
        {
          "name": "G#5",
          "midi": 80,
          "time": 144.16279069765412,
          "velocity": 0.2992125984251969,
          "duration": 0.09302325581393234
        },
        {
          "name": "D6",
          "midi": 86,
          "time": 144.16279069765412,
          "velocity": 0.11811023622047244,
          "duration": 0.0813953488371908
        },
        {
          "name": "A5",
          "midi": 81,
          "time": 144.17441860463086,
          "velocity": 0.2755905511811024,
          "duration": 0.11627906976741542
        },
        {
          "name": "C2",
          "midi": 36,
          "time": 144.1860465116076,
          "velocity": 0.4251968503937008,
          "duration": 0.1627906976743816
        },
        {
          "name": "G#3",
          "midi": 56,
          "time": 144.22093023253782,
          "velocity": 0.2125984251968504,
          "duration": 0.034883720930224626
        },
        {
          "name": "C5",
          "midi": 72,
          "time": 144.22093023253782,
          "velocity": 0.5196850393700787,
          "duration": 0.06976744186044925
        },
        {
          "name": "E6",
          "midi": 88,
          "time": 144.22093023253782,
          "velocity": 0.2440944881889764,
          "duration": 0.0813953488371908
        },
        {
          "name": "A4",
          "midi": 69,
          "time": 144.23255813951457,
          "velocity": 0.23622047244094488,
          "duration": 0.023255813953483084
        },
        {
          "name": "D#5",
          "midi": 75,
          "time": 144.23255813951457,
          "velocity": 0.14960629921259844,
          "duration": 0.034883720930224626
        },
        {
          "name": "F#6",
          "midi": 90,
          "time": 144.23255813951457,
          "velocity": 0.1732283464566929,
          "duration": 0.04651162790696617
        },
        {
          "name": "D7",
          "midi": 98,
          "time": 144.23255813951457,
          "velocity": 0.1889763779527559,
          "duration": 0.05813953488370771
        },
        {
          "name": "G6",
          "midi": 91,
          "time": 144.2441860464913,
          "velocity": 0.14173228346456693,
          "duration": 0.10465116279067388
        },
        {
          "name": "F3",
          "midi": 53,
          "time": 144.25581395346805,
          "velocity": 0.23622047244094488,
          "duration": 0.023255813953483084
        },
        {
          "name": "D6",
          "midi": 86,
          "time": 144.25581395346805,
          "velocity": 0.08661417322834646,
          "duration": 0.034883720930224626
        },
        {
          "name": "B6",
          "midi": 95,
          "time": 144.2674418604448,
          "velocity": 0.3858267716535433,
          "duration": 0.26744186046505547
        },
        {
          "name": "G3",
          "midi": 55,
          "time": 144.27906976742153,
          "velocity": 0.11811023622047244,
          "duration": 0.034883720930224626
        },
        {
          "name": "G#4",
          "midi": 68,
          "time": 144.29069767439827,
          "velocity": 0.41732283464566927,
          "duration": 0.0813953488371908
        },
        {
          "name": "C#5",
          "midi": 73,
          "time": 144.29069767439827,
          "velocity": 0.1968503937007874,
          "duration": 0.06976744186044925
        },
        {
          "name": "F4",
          "midi": 65,
          "time": 144.31395348835176,
          "velocity": 0.2047244094488189,
          "duration": 0.034883720930224626
        },
        {
          "name": "C6",
          "midi": 84,
          "time": 144.31395348835176,
          "velocity": 0.29133858267716534,
          "duration": 0.3372093023255047
        },
        {
          "name": "A6",
          "midi": 93,
          "time": 144.31395348835176,
          "velocity": 0.23622047244094488,
          "duration": 0.1627906976743816
        },
        {
          "name": "D#7",
          "midi": 99,
          "time": 144.3255813953285,
          "velocity": 0.2047244094488189,
          "duration": 0.10465116279067388
        },
        {
          "name": "E7",
          "midi": 100,
          "time": 144.33720930230524,
          "velocity": 0.11811023622047244,
          "duration": 0.0813953488371908
        },
        {
          "name": "B1",
          "midi": 35,
          "time": 144.34883720928198,
          "velocity": 0.4251968503937008,
          "duration": 0.023255813953483084
        },
        {
          "name": "D#6",
          "midi": 87,
          "time": 144.34883720928198,
          "velocity": 0.12598425196850394,
          "duration": 0.04651162790696617
        },
        {
          "name": "F#6",
          "midi": 90,
          "time": 144.34883720928198,
          "velocity": 0.15748031496062992,
          "duration": 0.0813953488371908
        },
        {
          "name": "G3",
          "midi": 55,
          "time": 144.36046511625872,
          "velocity": 0.13385826771653545,
          "duration": 0.06976744186044925
        },
        {
          "name": "D7",
          "midi": 98,
          "time": 144.36046511625872,
          "velocity": 0.15748031496062992,
          "duration": 0.04651162790696617
        },
        {
          "name": "F7",
          "midi": 101,
          "time": 144.36046511625872,
          "velocity": 0.2125984251968504,
          "duration": 0.10465116279067388
        },
        {
          "name": "C5",
          "midi": 72,
          "time": 144.37209302323546,
          "velocity": 0.30708661417322836,
          "duration": 0.18604651162786467
        },
        {
          "name": "C7",
          "midi": 96,
          "time": 144.37209302323546,
          "velocity": 0.33070866141732286,
          "duration": 0.279069767441797
        },
        {
          "name": "G7",
          "midi": 103,
          "time": 144.37209302323546,
          "velocity": 0.11811023622047244,
          "duration": 0.06976744186044925
        },
        {
          "name": "B1",
          "midi": 35,
          "time": 144.3837209302122,
          "velocity": 0.4251968503937008,
          "duration": 0.15116279069764005
        },
        {
          "name": "F4",
          "midi": 65,
          "time": 144.3837209302122,
          "velocity": 0.5354330708661418,
          "duration": 0.17441860465112313
        },
        {
          "name": "G#4",
          "midi": 68,
          "time": 144.3837209302122,
          "velocity": 0.4015748031496063,
          "duration": 0.09302325581393234
        },
        {
          "name": "C#6",
          "midi": 85,
          "time": 144.3837209302122,
          "velocity": 0.1732283464566929,
          "duration": 0.05813953488370771
        },
        {
          "name": "G6",
          "midi": 91,
          "time": 144.3837209302122,
          "velocity": 0.2204724409448819,
          "duration": 0.0813953488371908
        },
        {
          "name": "B5",
          "midi": 83,
          "time": 144.39534883718895,
          "velocity": 0.13385826771653545,
          "duration": 0.034883720930224626
        },
        {
          "name": "E6",
          "midi": 88,
          "time": 144.39534883718895,
          "velocity": 0.14173228346456693,
          "duration": 0.034883720930224626
        },
        {
          "name": "D#6",
          "midi": 87,
          "time": 144.43023255811917,
          "velocity": 0.14960629921259844,
          "duration": 0.04651162790696617
        },
        {
          "name": "D#7",
          "midi": 99,
          "time": 144.4418604650959,
          "velocity": 0.14960629921259844,
          "duration": 0.0813953488371908
        },
        {
          "name": "E7",
          "midi": 100,
          "time": 144.4418604650959,
          "velocity": 0.23622047244094488,
          "duration": 0.09302325581393234
        },
        {
          "name": "A5",
          "midi": 81,
          "time": 144.45348837207266,
          "velocity": 0.15748031496062992,
          "duration": 0.04651162790696617
        },
        {
          "name": "F#6",
          "midi": 90,
          "time": 144.45348837207266,
          "velocity": 0.15748031496062992,
          "duration": 0.04651162790696617
        },
        {
          "name": "D5",
          "midi": 74,
          "time": 144.4651162790494,
          "velocity": 0.14960629921259844,
          "duration": 0.034883720930224626
        },
        {
          "name": "C#6",
          "midi": 85,
          "time": 144.4651162790494,
          "velocity": 0.11811023622047244,
          "duration": 0.034883720930224626
        },
        {
          "name": "A#6",
          "midi": 94,
          "time": 144.4651162790494,
          "velocity": 0.13385826771653545,
          "duration": 0.034883720930224626
        },
        {
          "name": "G7",
          "midi": 103,
          "time": 144.4651162790494,
          "velocity": 0.13385826771653545,
          "duration": 0.06976744186044925
        },
        {
          "name": "E6",
          "midi": 88,
          "time": 144.47674418602614,
          "velocity": 0.07874015748031496,
          "duration": 0.034883720930224626
        },
        {
          "name": "D7",
          "midi": 98,
          "time": 144.47674418602614,
          "velocity": 0.16535433070866143,
          "duration": 0.0813953488371908
        },
        {
          "name": "D#6",
          "midi": 87,
          "time": 144.48837209300288,
          "velocity": 0.15748031496062992,
          "duration": 0.06976744186044925
        },
        {
          "name": "G6",
          "midi": 91,
          "time": 144.48837209300288,
          "velocity": 0.11023622047244094,
          "duration": 0.05813953488370771
        },
        {
          "name": "D#5",
          "midi": 75,
          "time": 144.49999999997962,
          "velocity": 0.1732283464566929,
          "duration": 0.034883720930224626
        },
        {
          "name": "G#5",
          "midi": 80,
          "time": 144.49999999997962,
          "velocity": 0.2992125984251969,
          "duration": 0.0813953488371908
        },
        {
          "name": "A6",
          "midi": 93,
          "time": 144.51162790695636,
          "velocity": 0.1732283464566929,
          "duration": 0.1627906976743816
        },
        {
          "name": "A#1",
          "midi": 34,
          "time": 144.53488372090985,
          "velocity": 0.4094488188976378,
          "duration": 0.05813953488370771
        },
        {
          "name": "G#4",
          "midi": 68,
          "time": 144.53488372090985,
          "velocity": 0.2440944881889764,
          "duration": 0.04651162790696617
        },
        {
          "name": "A#6",
          "midi": 94,
          "time": 144.53488372090985,
          "velocity": 0.31496062992125984,
          "duration": 0.17441860465112313
        },
        {
          "name": "D#7",
          "midi": 99,
          "time": 144.53488372090985,
          "velocity": 0.2992125984251969,
          "duration": 0.3372093023255047
        },
        {
          "name": "F#4",
          "midi": 66,
          "time": 144.55813953486333,
          "velocity": 0.28346456692913385,
          "duration": 0.023255813953483084
        },
        {
          "name": "A5",
          "midi": 81,
          "time": 144.55813953486333,
          "velocity": 0.2283464566929134,
          "duration": 0.04651162790696617
        },
        {
          "name": "C#6",
          "midi": 85,
          "time": 144.55813953486333,
          "velocity": 0.12598425196850394,
          "duration": 0.05813953488370771
        },
        {
          "name": "B6",
          "midi": 95,
          "time": 144.55813953486333,
          "velocity": 0.25984251968503935,
          "duration": 0.1627906976743816
        },
        {
          "name": "E7",
          "midi": 100,
          "time": 144.55813953486333,
          "velocity": 0.29133858267716534,
          "duration": 0.39534883720921243
        },
        {
          "name": "D6",
          "midi": 86,
          "time": 144.56976744184007,
          "velocity": 0.25984251968503935,
          "duration": 0.05813953488370771
        },
        {
          "name": "E6",
          "midi": 88,
          "time": 144.56976744184007,
          "velocity": 0.1968503937007874,
          "duration": 0.12790697674415696
        },
        {
          "name": "G6",
          "midi": 91,
          "time": 144.56976744184007,
          "velocity": 0.2440944881889764,
          "duration": 0.034883720930224626
        },
        {
          "name": "D7",
          "midi": 98,
          "time": 144.56976744184007,
          "velocity": 0.25984251968503935,
          "duration": 0.29069767441853855
        },
        {
          "name": "F#7",
          "midi": 102,
          "time": 144.56976744184007,
          "velocity": 0.2204724409448819,
          "duration": 0.23255813953483084
        },
        {
          "name": "C#5",
          "midi": 73,
          "time": 144.5813953488168,
          "velocity": 0.5275590551181102,
          "duration": 0.2558139534883139
        },
        {
          "name": "F#5",
          "midi": 78,
          "time": 144.5813953488168,
          "velocity": 0.4330708661417323,
          "duration": 0.11627906976741542
        },
        {
          "name": "A#5",
          "midi": 82,
          "time": 144.5813953488168,
          "velocity": 0.2125984251968504,
          "duration": 0.09302325581393234
        },
        {
          "name": "F7",
          "midi": 101,
          "time": 144.5813953488168,
          "velocity": 0.23622047244094488,
          "duration": 0.18604651162786467
        },
        {
          "name": "F#4",
          "midi": 66,
          "time": 144.59302325579355,
          "velocity": 0.5748031496062992,
          "duration": 0.10465116279067388
        },
        {
          "name": "D#5",
          "midi": 75,
          "time": 144.59302325579355,
          "velocity": 0.25196850393700787,
          "duration": 0.10465116279067388
        },
        {
          "name": "G#5",
          "midi": 80,
          "time": 144.59302325579355,
          "velocity": 0.4409448818897638,
          "duration": 0.4651162790696617
        },
        {
          "name": "A#1",
          "midi": 34,
          "time": 144.6046511627703,
          "velocity": 0.41732283464566927,
          "duration": 0.15116279069764005
        },
        {
          "name": "D#6",
          "midi": 87,
          "time": 144.61627906974704,
          "velocity": 0.33070866141732286,
          "duration": 0.279069767441797
        },
        {
          "name": "G7",
          "midi": 103,
          "time": 144.61627906974704,
          "velocity": 0.2125984251968504,
          "duration": 0.19767441860460622
        },
        {
          "name": "B5",
          "midi": 83,
          "time": 144.62790697672378,
          "velocity": 0.18110236220472442,
          "duration": 0.05813953488370771
        },
        {
          "name": "F6",
          "midi": 89,
          "time": 144.62790697672378,
          "velocity": 0.2283464566929134,
          "duration": 0.05813953488370771
        },
        {
          "name": "G6",
          "midi": 91,
          "time": 144.62790697672378,
          "velocity": 0.1889763779527559,
          "duration": 0.06976744186044925
        },
        {
          "name": "F5",
          "midi": 77,
          "time": 144.67441860463074,
          "velocity": 0.36220472440944884,
          "duration": 0.18604651162786467
        },
        {
          "name": "A6",
          "midi": 93,
          "time": 144.6860465116075,
          "velocity": 0.10236220472440945,
          "duration": 0.04651162790696617
        },
        {
          "name": "C7",
          "midi": 96,
          "time": 144.6860465116075,
          "velocity": 0.14173228346456693,
          "duration": 0.05813953488370771
        },
        {
          "name": "C#4",
          "midi": 61,
          "time": 144.69767441858423,
          "velocity": 0.4645669291338583,
          "duration": 0.023255813953483084
        },
        {
          "name": "G#4",
          "midi": 68,
          "time": 144.69767441858423,
          "velocity": 0.44881889763779526,
          "duration": 0.1627906976743816
        },
        {
          "name": "D#5",
          "midi": 75,
          "time": 144.70930232556097,
          "velocity": 0.2755905511811024,
          "duration": 0.0813953488371908
        },
        {
          "name": "C6",
          "midi": 84,
          "time": 144.70930232556097,
          "velocity": 0.3464566929133858,
          "duration": 0.05813953488370771
        },
        {
          "name": "G6",
          "midi": 91,
          "time": 144.70930232556097,
          "velocity": 0.10236220472440945,
          "duration": 0.0813953488371908
        },
        {
          "name": "C4",
          "midi": 60,
          "time": 144.7209302325377,
          "velocity": 0.3937007874015748,
          "duration": 0.023255813953483084
        },
        {
          "name": "A#6",
          "midi": 94,
          "time": 144.7209302325377,
          "velocity": 0.25196850393700787,
          "duration": 0.10465116279067388
        },
        {
          "name": "C#4",
          "midi": 61,
          "time": 144.7441860464912,
          "velocity": 0.6141732283464567,
          "duration": 0.279069767441797
        },
        {
          "name": "F#4",
          "midi": 66,
          "time": 144.7441860464912,
          "velocity": 0.33858267716535434,
          "duration": 0.023255813953483084
        },
        {
          "name": "A6",
          "midi": 93,
          "time": 144.7441860464912,
          "velocity": 0.18110236220472442,
          "duration": 0.19767441860460622
        },
        {
          "name": "B6",
          "midi": 95,
          "time": 144.7441860464912,
          "velocity": 0.23622047244094488,
          "duration": 0.06976744186044925
        },
        {
          "name": "A1",
          "midi": 33,
          "time": 144.75581395346794,
          "velocity": 0.41732283464566927,
          "duration": 0.1627906976743816
        },
        {
          "name": "F3",
          "midi": 53,
          "time": 144.75581395346794,
          "velocity": 0.08661417322834646,
          "duration": 0.034883720930224626
        },
        {
          "name": "F#6",
          "midi": 90,
          "time": 144.75581395346794,
          "velocity": 0.18110236220472442,
          "duration": 0.09302325581393234
        },
        {
          "name": "F4",
          "midi": 65,
          "time": 144.76744186044468,
          "velocity": 0.2755905511811024,
          "duration": 0.023255813953483084
        },
        {
          "name": "A#5",
          "midi": 82,
          "time": 144.77906976742142,
          "velocity": 0.14173228346456693,
          "duration": 0.04651162790696617
        },
        {
          "name": "C6",
          "midi": 84,
          "time": 144.77906976742142,
          "velocity": 0.25196850393700787,
          "duration": 0.04651162790696617
        },
        {
          "name": "F4",
          "midi": 65,
          "time": 144.8023255813749,
          "velocity": 0.2440944881889764,
          "duration": 0.023255813953483084
        },
        {
          "name": "F#4",
          "midi": 66,
          "time": 144.83720930230513,
          "velocity": 0.2047244094488189,
          "duration": 0.034883720930224626
        },
        {
          "name": "C6",
          "midi": 84,
          "time": 144.84883720928187,
          "velocity": 0.3937007874015748,
          "duration": 0.11627906976741542
        },
        {
          "name": "B6",
          "midi": 95,
          "time": 144.84883720928187,
          "velocity": 0.10236220472440945,
          "duration": 0.0813953488371908
        },
        {
          "name": "D#5",
          "midi": 75,
          "time": 144.8604651162586,
          "velocity": 0.3858267716535433,
          "duration": 0.5697674418603356
        },
        {
          "name": "E6",
          "midi": 88,
          "time": 144.8604651162586,
          "velocity": 0.10236220472440945,
          "duration": 0.034883720930224626
        },
        {
          "name": "G4",
          "midi": 67,
          "time": 144.87209302323535,
          "velocity": 0.2992125984251969,
          "duration": 0.034883720930224626
        },
        {
          "name": "F#6",
          "midi": 90,
          "time": 144.87209302323535,
          "velocity": 0.1732283464566929,
          "duration": 0.12790697674415696
        },
        {
          "name": "A#6",
          "midi": 94,
          "time": 144.87209302323535,
          "velocity": 0.14173228346456693,
          "duration": 0.12790697674415696
        },
        {
          "name": "F7",
          "midi": 101,
          "time": 144.8837209302121,
          "velocity": 0.2283464566929134,
          "duration": 0.04651162790696617
        },
        {
          "name": "G7",
          "midi": 103,
          "time": 144.8837209302121,
          "velocity": 0.11811023622047244,
          "duration": 0.05813953488370771
        },
        {
          "name": "A#4",
          "midi": 70,
          "time": 144.89534883718883,
          "velocity": 0.31496062992125984,
          "duration": 0.023255813953483084
        },
        {
          "name": "F5",
          "midi": 77,
          "time": 144.89534883718883,
          "velocity": 0.14960629921259844,
          "duration": 0.06976744186044925
        },
        {
          "name": "F#5",
          "midi": 78,
          "time": 144.89534883718883,
          "velocity": 0.13385826771653545,
          "duration": 0.034883720930224626
        },
        {
          "name": "G#1",
          "midi": 32,
          "time": 144.91860465114232,
          "velocity": 0.41732283464566927,
          "duration": 0.8488372093021326
        },
        {
          "name": "A#5",
          "midi": 82,
          "time": 144.91860465114232,
          "velocity": 0.12598425196850394,
          "duration": 0.06976744186044925
        },
        {
          "name": "G6",
          "midi": 91,
          "time": 144.91860465114232,
          "velocity": 0.09448818897637795,
          "duration": 0.05813953488370771
        },
        {
          "name": "G#4",
          "midi": 68,
          "time": 144.9418604650958,
          "velocity": 0.25984251968503935,
          "duration": 0.06976744186044925
        },
        {
          "name": "B5",
          "midi": 83,
          "time": 144.9418604650958,
          "velocity": 0.11811023622047244,
          "duration": 0.034883720930224626
        },
        {
          "name": "F7",
          "midi": 101,
          "time": 144.95348837207254,
          "velocity": 0.23622047244094488,
          "duration": 0.10465116279067388
        },
        {
          "name": "F#5",
          "midi": 78,
          "time": 144.96511627904928,
          "velocity": 0.14960629921259844,
          "duration": 0.04651162790696617
        },
        {
          "name": "F6",
          "midi": 89,
          "time": 144.96511627904928,
          "velocity": 0.10236220472440945,
          "duration": 0.034883720930224626
        },
        {
          "name": "F4",
          "midi": 65,
          "time": 144.97674418602602,
          "velocity": 0.1968503937007874,
          "duration": 0.034883720930224626
        },
        {
          "name": "C6",
          "midi": 84,
          "time": 144.97674418602602,
          "velocity": 0.16535433070866143,
          "duration": 0.05813953488370771
        },
        {
          "name": "A4",
          "midi": 69,
          "time": 144.9999999999795,
          "velocity": 0.3779527559055118,
          "duration": 0.05813953488370771
        },
        {
          "name": "C#7",
          "midi": 97,
          "time": 145.01162790695625,
          "velocity": 0.16535433070866143,
          "duration": 0.0813953488371908
        },
        {
          "name": "E7",
          "midi": 100,
          "time": 145.01162790695625,
          "velocity": 0.13385826771653545,
          "duration": 0.05813953488370771
        },
        {
          "name": "F#7",
          "midi": 102,
          "time": 145.01162790695625,
          "velocity": 0.18110236220472442,
          "duration": 0.05813953488370771
        },
        {
          "name": "G7",
          "midi": 103,
          "time": 145.01162790695625,
          "velocity": 0.15748031496062992,
          "duration": 0.05813953488370771
        },
        {
          "name": "A#5",
          "midi": 82,
          "time": 145.023255813933,
          "velocity": 0.4094488188976378,
          "duration": 0.48837209302314477
        },
        {
          "name": "C#6",
          "midi": 85,
          "time": 145.023255813933,
          "velocity": 0.13385826771653545,
          "duration": 0.12790697674415696
        },
        {
          "name": "G6",
          "midi": 91,
          "time": 145.023255813933,
          "velocity": 0.16535433070866143,
          "duration": 0.0813953488371908
        },
        {
          "name": "D7",
          "midi": 98,
          "time": 145.023255813933,
          "velocity": 0.14960629921259844,
          "duration": 0.034883720930224626
        },
        {
          "name": "D#7",
          "midi": 99,
          "time": 145.023255813933,
          "velocity": 0.2047244094488189,
          "duration": 0.06976744186044925
        },
        {
          "name": "D#4",
          "midi": 63,
          "time": 145.04651162788647,
          "velocity": 0.6456692913385826,
          "duration": 0.4651162790696617
        },
        {
          "name": "C#5",
          "midi": 73,
          "time": 145.05813953486322,
          "velocity": 0.11811023622047244,
          "duration": 0.04651162790696617
        },
        {
          "name": "G6",
          "midi": 91,
          "time": 145.12790697672366,
          "velocity": 0.2047244094488189,
          "duration": 0.2209302325580893
        },
        {
          "name": "G#5",
          "midi": 80,
          "time": 145.1395348837004,
          "velocity": 0.08661417322834646,
          "duration": 0.034883720930224626
        },
        {
          "name": "C#6",
          "midi": 85,
          "time": 145.1976744185841,
          "velocity": 0.2125984251968504,
          "duration": 0.06976744186044925
        },
        {
          "name": "G#5",
          "midi": 80,
          "time": 145.20930232556086,
          "velocity": 0.11023622047244094,
          "duration": 0.034883720930224626
        },
        {
          "name": "C#5",
          "midi": 73,
          "time": 145.2209302325376,
          "velocity": 0.07874015748031496,
          "duration": 0.034883720930224626
        },
        {
          "name": "F#5",
          "midi": 78,
          "time": 145.25581395346782,
          "velocity": 0.15748031496062992,
          "duration": 0.1395348837208985
        },
        {
          "name": "C#6",
          "midi": 85,
          "time": 145.3023255813748,
          "velocity": 0.13385826771653545,
          "duration": 0.034883720930224626
        },
        {
          "name": "C#5",
          "midi": 73,
          "time": 145.31395348835153,
          "velocity": 0.25984251968503935,
          "duration": 0.06976744186044925
        },
        {
          "name": "G6",
          "midi": 91,
          "time": 145.38372093021198,
          "velocity": 0.16535433070866143,
          "duration": 0.12790697674415696
        },
        {
          "name": "G#5",
          "midi": 80,
          "time": 145.4186046511422,
          "velocity": 0.09448818897637795,
          "duration": 0.09302325581393234
        },
        {
          "name": "C#6",
          "midi": 85,
          "time": 145.4186046511422,
          "velocity": 0.12598425196850394,
          "duration": 0.05813953488370771
        },
        {
          "name": "C#5",
          "midi": 73,
          "time": 145.4418604650957,
          "velocity": 0.07874015748031496,
          "duration": 0.034883720930224626
        },
        {
          "name": "E5",
          "midi": 76,
          "time": 145.48837209300265,
          "velocity": 0.30708661417322836,
          "duration": 0.0813953488371908
        },
        {
          "name": "E4",
          "midi": 64,
          "time": 145.51162790695614,
          "velocity": 0.5748031496062992,
          "duration": 0.023255813953483084
        },
        {
          "name": "B5",
          "midi": 83,
          "time": 145.51162790695614,
          "velocity": 0.3228346456692913,
          "duration": 0.04651162790696617
        },
        {
          "name": "G#6",
          "midi": 92,
          "time": 145.51162790695614,
          "velocity": 0.12598425196850394,
          "duration": 0.04651162790696617
        },
        {
          "name": "F4",
          "midi": 65,
          "time": 145.53488372090962,
          "velocity": 0.6220472440944882,
          "duration": 0.0813953488371908
        },
        {
          "name": "G#5",
          "midi": 80,
          "time": 145.54651162788636,
          "velocity": 0.08661417322834646,
          "duration": 0.034883720930224626
        },
        {
          "name": "C6",
          "midi": 84,
          "time": 145.5581395348631,
          "velocity": 0.36220472440944884,
          "duration": 0.05813953488370771
        },
        {
          "name": "A6",
          "midi": 93,
          "time": 145.56976744183984,
          "velocity": 0.13385826771653545,
          "duration": 0.034883720930224626
        },
        {
          "name": "D#5",
          "midi": 75,
          "time": 145.58139534881659,
          "velocity": 0.08661417322834646,
          "duration": 0.0813953488371908
        },
        {
          "name": "A#5",
          "midi": 82,
          "time": 145.58139534881659,
          "velocity": 0.1732283464566929,
          "duration": 0.09302325581393234
        },
        {
          "name": "D#4",
          "midi": 63,
          "time": 145.60465116277007,
          "velocity": 0.5118110236220472,
          "duration": 0.05813953488370771
        },
        {
          "name": "F#5",
          "midi": 78,
          "time": 145.60465116277007,
          "velocity": 0.4251968503937008,
          "duration": 0.05813953488370771
        },
        {
          "name": "F#4",
          "midi": 66,
          "time": 145.6162790697468,
          "velocity": 0.5433070866141733,
          "duration": 0.034883720930224626
        },
        {
          "name": "C#6",
          "midi": 85,
          "time": 145.6162790697468,
          "velocity": 0.41732283464566927,
          "duration": 0.04651162790696617
        },
        {
          "name": "G4",
          "midi": 67,
          "time": 145.65116279067703,
          "velocity": 0.29133858267716534,
          "duration": 0.04651162790696617
        },
        {
          "name": "D6",
          "midi": 86,
          "time": 145.65116279067703,
          "velocity": 0.2992125984251969,
          "duration": 0.04651162790696617
        },
        {
          "name": "G5",
          "midi": 79,
          "time": 145.66279069765378,
          "velocity": 0.33858267716535434,
          "duration": 0.023255813953483084
        },
        {
          "name": "E4",
          "midi": 64,
          "time": 145.68604651160726,
          "velocity": 0.25196850393700787,
          "duration": 0.023255813953483084
        },
        {
          "name": "G#4",
          "midi": 68,
          "time": 145.697674418584,
          "velocity": 0.4015748031496063,
          "duration": 0.04651162790696617
        },
        {
          "name": "D#6",
          "midi": 87,
          "time": 145.697674418584,
          "velocity": 0.25984251968503935,
          "duration": 0.04651162790696617
        },
        {
          "name": "D#4",
          "midi": 63,
          "time": 145.70930232556074,
          "velocity": 0.23622047244094488,
          "duration": 0.15116279069764005
        },
        {
          "name": "A#5",
          "midi": 82,
          "time": 145.73255813951423,
          "velocity": 0.11811023622047244,
          "duration": 0.034883720930224626
        },
        {
          "name": "A4",
          "midi": 69,
          "time": 145.74418604649097,
          "velocity": 0.49606299212598426,
          "duration": 0.05813953488370771
        },
        {
          "name": "E6",
          "midi": 88,
          "time": 145.74418604649097,
          "velocity": 0.23622047244094488,
          "duration": 0.04651162790696617
        },
        {
          "name": "F6",
          "midi": 89,
          "time": 145.79069767439793,
          "velocity": 0.25984251968503935,
          "duration": 0.05813953488370771
        },
        {
          "name": "A#4",
          "midi": 70,
          "time": 145.80232558137467,
          "velocity": 0.48031496062992124,
          "duration": 0.034883720930224626
        },
        {
          "name": "D#6",
          "midi": 87,
          "time": 145.82558139532816,
          "velocity": 0.13385826771653545,
          "duration": 0.034883720930224626
        },
        {
          "name": "G#4",
          "midi": 68,
          "time": 145.8372093023049,
          "velocity": 0.25196850393700787,
          "duration": 0.04651162790696617
        },
        {
          "name": "B4",
          "midi": 71,
          "time": 145.8372093023049,
          "velocity": 0.5590551181102362,
          "duration": 0.05813953488370771
        },
        {
          "name": "F#6",
          "midi": 90,
          "time": 145.84883720928164,
          "velocity": 0.2204724409448819,
          "duration": 0.034883720930224626
        },
        {
          "name": "F4",
          "midi": 65,
          "time": 145.86046511625838,
          "velocity": 0.2125984251968504,
          "duration": 0.034883720930224626
        },
        {
          "name": "A#5",
          "midi": 82,
          "time": 145.86046511625838,
          "velocity": 0.16535433070866143,
          "duration": 0.11627906976741542
        },
        {
          "name": "D#4",
          "midi": 63,
          "time": 145.88372093021187,
          "velocity": 0.2440944881889764,
          "duration": 0.09302325581393234
        },
        {
          "name": "A4",
          "midi": 69,
          "time": 145.88372093021187,
          "velocity": 0.33858267716535434,
          "duration": 0.034883720930224626
        },
        {
          "name": "G6",
          "midi": 91,
          "time": 145.88372093021187,
          "velocity": 0.33070866141732286,
          "duration": 0.09302325581393234
        },
        {
          "name": "C5",
          "midi": 72,
          "time": 145.8953488371886,
          "velocity": 0.5748031496062992,
          "duration": 0.04651162790696617
        },
        {
          "name": "D#7",
          "midi": 99,
          "time": 145.8953488371886,
          "velocity": 0.07874015748031496,
          "duration": 0.034883720930224626
        },
        {
          "name": "E7",
          "midi": 100,
          "time": 145.90697674416535,
          "velocity": 0.09448818897637795,
          "duration": 0.034883720930224626
        },
        {
          "name": "A4",
          "midi": 69,
          "time": 145.93023255811883,
          "velocity": 0.28346456692913385,
          "duration": 0.023255813953483084
        },
        {
          "name": "D6",
          "midi": 86,
          "time": 145.93023255811883,
          "velocity": 0.16535433070866143,
          "duration": 0.034883720930224626
        },
        {
          "name": "C#5",
          "midi": 73,
          "time": 145.94186046509557,
          "velocity": 0.5354330708661418,
          "duration": 0.04651162790696617
        },
        {
          "name": "G#6",
          "midi": 92,
          "time": 145.94186046509557,
          "velocity": 0.31496062992125984,
          "duration": 0.11627906976741542
        },
        {
          "name": "F7",
          "midi": 101,
          "time": 145.94186046509557,
          "velocity": 0.13385826771653545,
          "duration": 0.04651162790696617
        },
        {
          "name": "G#4",
          "midi": 68,
          "time": 145.95348837207231,
          "velocity": 0.2677165354330709,
          "duration": 0.023255813953483084
        },
        {
          "name": "B5",
          "midi": 83,
          "time": 145.95348837207231,
          "velocity": 0.1889763779527559,
          "duration": 0.0813953488371908
        },
        {
          "name": "G5",
          "midi": 79,
          "time": 145.96511627904906,
          "velocity": 0.30708661417322836,
          "duration": 0.23255813953483084
        },
        {
          "name": "G#4",
          "midi": 68,
          "time": 145.98837209300254,
          "velocity": 0.23622047244094488,
          "duration": 0.04651162790696617
        },
        {
          "name": "D5",
          "midi": 74,
          "time": 145.98837209300254,
          "velocity": 0.5590551181102362,
          "duration": 0.04651162790696617
        },
        {
          "name": "A6",
          "midi": 93,
          "time": 145.98837209300254,
          "velocity": 0.4094488188976378,
          "duration": 0.04651162790696617
        },
        {
          "name": "B4",
          "midi": 71,
          "time": 146.01162790695602,
          "velocity": 0.23622047244094488,
          "duration": 0.034883720930224626
        },
        {
          "name": "D#6",
          "midi": 87,
          "time": 146.01162790695602,
          "velocity": 0.3937007874015748,
          "duration": 0.10465116279067388
        },
        {
          "name": "F7",
          "midi": 101,
          "time": 146.01162790695602,
          "velocity": 0.10236220472440945,
          "duration": 0.06976744186044925
        },
        {
          "name": "F5",
          "midi": 77,
          "time": 146.02325581393276,
          "velocity": 0.11023622047244094,
          "duration": 0.034883720930224626
        },
        {
          "name": "E6",
          "midi": 88,
          "time": 146.02325581393276,
          "velocity": 0.07086614173228346,
          "duration": 0.034883720930224626
        },
        {
          "name": "C7",
          "midi": 96,
          "time": 146.02325581393276,
          "velocity": 0.09448818897637795,
          "duration": 0.06976744186044925
        },
        {
          "name": "A4",
          "midi": 69,
          "time": 146.0348837209095,
          "velocity": 0.18110236220472442,
          "duration": 0.034883720930224626
        },
        {
          "name": "D#5",
          "midi": 75,
          "time": 146.0348837209095,
          "velocity": 0.6220472440944882,
          "duration": 0.04651162790696617
        },
        {
          "name": "A#6",
          "midi": 94,
          "time": 146.0348837209095,
          "velocity": 0.3700787401574803,
          "duration": 0.12790697674415696
        },
        {
          "name": "F#4",
          "midi": 66,
          "time": 146.04651162788625,
          "velocity": 0.16535433070866143,
          "duration": 0.034883720930224626
        },
        {
          "name": "C5",
          "midi": 72,
          "time": 146.04651162788625,
          "velocity": 0.28346456692913385,
          "duration": 0.034883720930224626
        },
        {
          "name": "D6",
          "midi": 86,
          "time": 146.04651162788625,
          "velocity": 0.18110236220472442,
          "duration": 0.04651162790696617
        },
        {
          "name": "G7",
          "midi": 103,
          "time": 146.04651162788625,
          "velocity": 0.11023622047244094,
          "duration": 0.05813953488370771
        },
        {
          "name": "C2",
          "midi": 36,
          "time": 146.058139534863,
          "velocity": 0.2677165354330709,
          "duration": 0.06976744186044925
        },
        {
          "name": "F6",
          "midi": 89,
          "time": 146.058139534863,
          "velocity": 0.30708661417322836,
          "duration": 0.12790697674415696
        },
        {
          "name": "A6",
          "midi": 93,
          "time": 146.058139534863,
          "velocity": 0.14960629921259844,
          "duration": 0.15116279069764005
        },
        {
          "name": "D#4",
          "midi": 63,
          "time": 146.08139534881647,
          "velocity": 0.2992125984251969,
          "duration": 0.06976744186044925
        },
        {
          "name": "A4",
          "midi": 69,
          "time": 146.08139534881647,
          "velocity": 0.2992125984251969,
          "duration": 0.034883720930224626
        },
        {
          "name": "C#5",
          "midi": 73,
          "time": 146.08139534881647,
          "velocity": 0.33070866141732286,
          "duration": 0.034883720930224626
        },
        {
          "name": "E5",
          "midi": 76,
          "time": 146.08139534881647,
          "velocity": 0.6614173228346457,
          "duration": 0.04651162790696617
        },
        {
          "name": "A#5",
          "midi": 82,
          "time": 146.08139534881647,
          "velocity": 0.09448818897637795,
          "duration": 0.04651162790696617
        },
        {
          "name": "B6",
          "midi": 95,
          "time": 146.08139534881647,
          "velocity": 0.3937007874015748,
          "duration": 0.04651162790696617
        },
        {
          "name": "B5",
          "midi": 83,
          "time": 146.10465116276995,
          "velocity": 0.2755905511811024,
          "duration": 0.3255813953487632
        },
        {
          "name": "D5",
          "midi": 74,
          "time": 146.1162790697467,
          "velocity": 0.31496062992125984,
          "duration": 0.023255813953483084
        },
        {
          "name": "D7",
          "midi": 98,
          "time": 146.1162790697467,
          "velocity": 0.13385826771653545,
          "duration": 0.04651162790696617
        },
        {
          "name": "F5",
          "midi": 77,
          "time": 146.12790697672344,
          "velocity": 0.6220472440944882,
          "duration": 0.06976744186044925
        },
        {
          "name": "C7",
          "midi": 96,
          "time": 146.12790697672344,
          "velocity": 0.4015748031496063,
          "duration": 0.1395348837208985
        },
        {
          "name": "G#4",
          "midi": 68,
          "time": 146.13953488370018,
          "velocity": 0.23622047244094488,
          "duration": 0.023255813953483084
        },
        {
          "name": "E4",
          "midi": 64,
          "time": 146.15116279067692,
          "velocity": 0.25984251968503935,
          "duration": 0.023255813953483084
        },
        {
          "name": "C#4",
          "midi": 61,
          "time": 146.16279069765366,
          "velocity": 0.16535433070866143,
          "duration": 0.034883720930224626
        },
        {
          "name": "G4",
          "midi": 67,
          "time": 146.16279069765366,
          "velocity": 0.2204724409448819,
          "duration": 0.034883720930224626
        },
        {
          "name": "A#6",
          "midi": 94,
          "time": 146.1744186046304,
          "velocity": 0.2047244094488189,
          "duration": 0.31395348837202164
        },
        {
          "name": "C#7",
          "midi": 97,
          "time": 146.1744186046304,
          "velocity": 0.3937007874015748,
          "duration": 0.11627906976741542
        },
        {
          "name": "B4",
          "midi": 71,
          "time": 146.18604651160715,
          "velocity": 0.33858267716535434,
          "duration": 0.04651162790696617
        },
        {
          "name": "F#5",
          "midi": 78,
          "time": 146.18604651160715,
          "velocity": 0.6614173228346457,
          "duration": 0.04651162790696617
        },
        {
          "name": "D7",
          "midi": 98,
          "time": 146.18604651160715,
          "velocity": 0.3543307086614173,
          "duration": 0.2558139534883139
        },
        {
          "name": "C2",
          "midi": 36,
          "time": 146.20930232556063,
          "velocity": 0.2677165354330709,
          "duration": 0.034883720930224626
        },
        {
          "name": "C5",
          "midi": 72,
          "time": 146.2325581395141,
          "velocity": 0.3700787401574803,
          "duration": 0.034883720930224626
        },
        {
          "name": "G5",
          "midi": 79,
          "time": 146.2325581395141,
          "velocity": 0.6614173228346457,
          "duration": 0.04651162790696617
        },
        {
          "name": "A5",
          "midi": 81,
          "time": 146.2325581395141,
          "velocity": 0.2283464566929134,
          "duration": 0.04651162790696617
        },
        {
          "name": "D#6",
          "midi": 87,
          "time": 146.2325581395141,
          "velocity": 0.10236220472440945,
          "duration": 0.05813953488370771
        },
        {
          "name": "E6",
          "midi": 88,
          "time": 146.2325581395141,
          "velocity": 0.12598425196850394,
          "duration": 0.04651162790696617
        },
        {
          "name": "C#4",
          "midi": 61,
          "time": 146.24418604649085,
          "velocity": 0.2283464566929134,
          "duration": 0.023255813953483084
        },
        {
          "name": "D5",
          "midi": 74,
          "time": 146.2558139534676,
          "velocity": 0.36220472440944884,
          "duration": 0.0813953488371908
        },
        {
          "name": "F5",
          "midi": 77,
          "time": 146.2558139534676,
          "velocity": 0.36220472440944884,
          "duration": 0.0813953488371908
        },
        {
          "name": "F7",
          "midi": 101,
          "time": 146.2558139534676,
          "velocity": 0.09448818897637795,
          "duration": 0.034883720930224626
        },
        {
          "name": "B1",
          "midi": 35,
          "time": 146.26744186044434,
          "velocity": 0.1889763779527559,
          "duration": 0.034883720930224626
        },
        {
          "name": "A#5",
          "midi": 82,
          "time": 146.26744186044434,
          "velocity": 0.23622047244094488,
          "duration": 0.04651162790696617
        },
        {
          "name": "G#6",
          "midi": 92,
          "time": 146.26744186044434,
          "velocity": 0.5039370078740157,
          "duration": 1.3604651162787604
        },
        {
          "name": "D#7",
          "midi": 99,
          "time": 146.26744186044434,
          "velocity": 0.5196850393700787,
          "duration": 3.9999999999990905
        },
        {
          "name": "G#5",
          "midi": 80,
          "time": 146.27906976742108,
          "velocity": 0.6771653543307087,
          "duration": 0.6976744186044925
        },
        {
          "name": "C7",
          "midi": 96,
          "time": 146.27906976742108,
          "velocity": 0.2125984251968504,
          "duration": 0.05813953488370771
        },
        {
          "name": "F#7",
          "midi": 102,
          "time": 146.27906976742108,
          "velocity": 0.16535433070866143,
          "duration": 0.0813953488371908
        },
        {
          "name": "D#4",
          "midi": 63,
          "time": 146.29069767439782,
          "velocity": 0.25984251968503935,
          "duration": 0.023255813953483084
        },
        {
          "name": "B4",
          "midi": 71,
          "time": 146.29069767439782,
          "velocity": 0.23622047244094488,
          "duration": 0.023255813953483084
        },
        {
          "name": "F#6",
          "midi": 90,
          "time": 146.29069767439782,
          "velocity": 0.09448818897637795,
          "duration": 0.04651162790696617
        },
        {
          "name": "A#4",
          "midi": 70,
          "time": 146.30232558137456,
          "velocity": 0.23622047244094488,
          "duration": 0.09302325581393234
        },
        {
          "name": "C3",
          "midi": 48,
          "time": 146.3139534883513,
          "velocity": 0.6062992125984252,
          "duration": 0.011627906976741542
        },
        {
          "name": "C5",
          "midi": 72,
          "time": 146.3139534883513,
          "velocity": 0.33858267716535434,
          "duration": 0.023255813953483084
        },
        {
          "name": "E6",
          "midi": 88,
          "time": 146.3139534883513,
          "velocity": 0.15748031496062992,
          "duration": 0.0813953488371908
        },
        {
          "name": "C#7",
          "midi": 97,
          "time": 146.3139534883513,
          "velocity": 0.1968503937007874,
          "duration": 0.12790697674415696
        },
        {
          "name": "F7",
          "midi": 101,
          "time": 146.3139534883513,
          "velocity": 0.2047244094488189,
          "duration": 0.5232558139533694
        },
        {
          "name": "A2",
          "midi": 45,
          "time": 146.32558139532804,
          "velocity": 0.7165354330708661,
          "duration": 0.011627906976741542
        },
        {
          "name": "F#4",
          "midi": 66,
          "time": 146.32558139532804,
          "velocity": 0.41732283464566927,
          "duration": 0.034883720930224626
        },
        {
          "name": "E5",
          "midi": 76,
          "time": 146.32558139532804,
          "velocity": 0.29133858267716534,
          "duration": 0.04651162790696617
        },
        {
          "name": "A5",
          "midi": 81,
          "time": 146.32558139532804,
          "velocity": 0.3779527559055118,
          "duration": 0.023255813953483084
        },
        {
          "name": "E7",
          "midi": 100,
          "time": 146.32558139532804,
          "velocity": 0.1968503937007874,
          "duration": 0.09302325581393234
        },
        {
          "name": "G7",
          "midi": 103,
          "time": 146.32558139532804,
          "velocity": 0.12598425196850394,
          "duration": 0.09302325581393234
        },
        {
          "name": "F2",
          "midi": 41,
          "time": 146.33720930230479,
          "velocity": 0.7637795275590551,
          "duration": 0.011627906976741542
        },
        {
          "name": "C#5",
          "midi": 73,
          "time": 146.33720930230479,
          "velocity": 0.29133858267716534,
          "duration": 0.034883720930224626
        },
        {
          "name": "D#5",
          "midi": 75,
          "time": 146.33720930230479,
          "velocity": 0.29133858267716534,
          "duration": 0.0813953488371908
        },
        {
          "name": "G6",
          "midi": 91,
          "time": 146.33720930230479,
          "velocity": 0.18110236220472442,
          "duration": 0.05813953488370771
        },
        {
          "name": "D2",
          "midi": 38,
          "time": 146.34883720928153,
          "velocity": 0.7716535433070866,
          "duration": 0.011627906976741542
        },
        {
          "name": "A#2",
          "midi": 46,
          "time": 146.34883720928153,
          "velocity": 0.31496062992125984,
          "duration": 0.023255813953483084
        },
        {
          "name": "C2",
          "midi": 36,
          "time": 146.36046511625827,
          "velocity": 0.7874015748031497,
          "duration": 0.011627906976741542
        },
        {
          "name": "D#4",
          "midi": 63,
          "time": 146.36046511625827,
          "velocity": 0.44881889763779526,
          "duration": 0.45348837209292014
        },
        {
          "name": "A#1",
          "midi": 34,
          "time": 146.372093023235,
          "velocity": 0.7716535433070866,
          "duration": 0.011627906976741542
        },
        {
          "name": "C7",
          "midi": 96,
          "time": 146.372093023235,
          "velocity": 0.10236220472440945,
          "duration": 0.034883720930224626
        },
        {
          "name": "A1",
          "midi": 33,
          "time": 146.38372093021175,
          "velocity": 0.7559055118110236,
          "duration": 0.023255813953483084
        },
        {
          "name": "F6",
          "midi": 89,
          "time": 146.3953488371885,
          "velocity": 0.10236220472440945,
          "duration": 0.04651162790696617
        },
        {
          "name": "G#1",
          "midi": 32,
          "time": 146.40697674416523,
          "velocity": 0.7401574803149606,
          "duration": 0.034883720930224626
        },
        {
          "name": "A#5",
          "midi": 82,
          "time": 146.40697674416523,
          "velocity": 0.1732283464566929,
          "duration": 0.09302325581393234
        },
        {
          "name": "E5",
          "midi": 76,
          "time": 146.41860465114198,
          "velocity": 0.2755905511811024,
          "duration": 0.04651162790696617
        },
        {
          "name": "C6",
          "midi": 84,
          "time": 146.41860465114198,
          "velocity": 0.4094488188976378,
          "duration": 0.5697674418603356
        },
        {
          "name": "F#7",
          "midi": 102,
          "time": 146.41860465114198,
          "velocity": 0.14960629921259844,
          "duration": 0.10465116279067388
        },
        {
          "name": "G#4",
          "midi": 68,
          "time": 146.43023255811872,
          "velocity": 0.6299212598425197,
          "duration": 0.37209302325572935
        },
        {
          "name": "D#6",
          "midi": 87,
          "time": 146.43023255811872,
          "velocity": 0.09448818897637795,
          "duration": 0.034883720930224626
        },
        {
          "name": "G6",
          "midi": 91,
          "time": 146.43023255811872,
          "velocity": 0.2755905511811024,
          "duration": 0.20930232558134776
        },
        {
          "name": "G1",
          "midi": 31,
          "time": 146.44186046509546,
          "velocity": 0.7480314960629921,
          "duration": 0.1395348837208985
        },
        {
          "name": "C5",
          "midi": 72,
          "time": 146.44186046509546,
          "velocity": 0.5118110236220472,
          "duration": 0.5348837209301109
        },
        {
          "name": "D#3",
          "midi": 51,
          "time": 146.4534883720722,
          "velocity": 0.33858267716535434,
          "duration": 0.034883720930224626
        },
        {
          "name": "F5",
          "midi": 77,
          "time": 146.4534883720722,
          "velocity": 0.2125984251968504,
          "duration": 0.05813953488370771
        },
        {
          "name": "D6",
          "midi": 86,
          "time": 146.4534883720722,
          "velocity": 0.10236220472440945,
          "duration": 0.034883720930224626
        },
        {
          "name": "F#6",
          "midi": 90,
          "time": 146.4534883720722,
          "velocity": 0.1732283464566929,
          "duration": 0.034883720930224626
        },
        {
          "name": "E7",
          "midi": 100,
          "time": 146.4534883720722,
          "velocity": 0.2125984251968504,
          "duration": 0.47674418604640323
        },
        {
          "name": "C4",
          "midi": 60,
          "time": 146.46511627904894,
          "velocity": 0.13385826771653545,
          "duration": 0.04651162790696617
        },
        {
          "name": "D3",
          "midi": 50,
          "time": 146.48837209300243,
          "velocity": 0.36220472440944884,
          "duration": 0.034883720930224626
        },
        {
          "name": "C#7",
          "midi": 97,
          "time": 146.48837209300243,
          "velocity": 0.10236220472440945,
          "duration": 0.034883720930224626
        },
        {
          "name": "D7",
          "midi": 98,
          "time": 146.49999999997917,
          "velocity": 0.08661417322834646,
          "duration": 0.034883720930224626
        },
        {
          "name": "F#5",
          "midi": 78,
          "time": 146.5116279069559,
          "velocity": 0.30708661417322836,
          "duration": 0.034883720930224626
        },
        {
          "name": "A#5",
          "midi": 82,
          "time": 146.5116279069559,
          "velocity": 0.33858267716535434,
          "duration": 0.4651162790696617
        },
        {
          "name": "E6",
          "midi": 88,
          "time": 146.5348837209094,
          "velocity": 0.13385826771653545,
          "duration": 0.034883720930224626
        },
        {
          "name": "G#3",
          "midi": 56,
          "time": 146.54651162788613,
          "velocity": 0.12598425196850394,
          "duration": 0.034883720930224626
        },
        {
          "name": "C#6",
          "midi": 85,
          "time": 146.54651162788613,
          "velocity": 0.11811023622047244,
          "duration": 0.04651162790696617
        },
        {
          "name": "D#6",
          "midi": 87,
          "time": 146.54651162788613,
          "velocity": 0.2204724409448819,
          "duration": 0.05813953488370771
        },
        {
          "name": "F#7",
          "midi": 102,
          "time": 146.54651162788613,
          "velocity": 0.2992125984251969,
          "duration": 0.5465116279068525
        },
        {
          "name": "D#3",
          "midi": 51,
          "time": 146.55813953486287,
          "velocity": 0.4094488188976378,
          "duration": 0.3023255813952801
        },
        {
          "name": "D7",
          "midi": 98,
          "time": 146.55813953486287,
          "velocity": 0.13385826771653545,
          "duration": 0.05813953488370771
        },
        {
          "name": "C#7",
          "midi": 97,
          "time": 146.56976744183962,
          "velocity": 0.13385826771653545,
          "duration": 0.05813953488370771
        },
        {
          "name": "G#1",
          "midi": 32,
          "time": 146.58139534881636,
          "velocity": 0.6456692913385826,
          "duration": 0.011627906976741542
        },
        {
          "name": "E6",
          "midi": 88,
          "time": 146.58139534881636,
          "velocity": 0.25984251968503935,
          "duration": 0.034883720930224626
        },
        {
          "name": "A1",
          "midi": 33,
          "time": 146.5930232557931,
          "velocity": 0.6377952755905512,
          "duration": 0.023255813953483084
        },
        {
          "name": "F#5",
          "midi": 78,
          "time": 146.5930232557931,
          "velocity": 0.15748031496062992,
          "duration": 0.034883720930224626
        },
        {
          "name": "F#6",
          "midi": 90,
          "time": 146.5930232557931,
          "velocity": 0.2283464566929134,
          "duration": 0.05813953488370771
        },
        {
          "name": "F6",
          "midi": 89,
          "time": 146.60465116276984,
          "velocity": 0.14960629921259844,
          "duration": 0.06976744186044925
        },
        {
          "name": "G#1",
          "midi": 32,
          "time": 146.61627906974658,
          "velocity": 0.6929133858267716,
          "duration": 0.3604651162789878
        },
        {
          "name": "C#6",
          "midi": 85,
          "time": 146.61627906974658,
          "velocity": 0.1732283464566929,
          "duration": 0.04651162790696617
        },
        {
          "name": "D#6",
          "midi": 87,
          "time": 146.61627906974658,
          "velocity": 0.4251968503937008,
          "duration": 0.4418604651161786
        },
        {
          "name": "F4",
          "midi": 65,
          "time": 146.62790697672332,
          "velocity": 0.23622047244094488,
          "duration": 0.023255813953483084
        },
        {
          "name": "D6",
          "midi": 86,
          "time": 146.62790697672332,
          "velocity": 0.28346456692913385,
          "duration": 0.04651162790696617
        },
        {
          "name": "A6",
          "midi": 93,
          "time": 146.63953488370007,
          "velocity": 0.13385826771653545,
          "duration": 0.04651162790696617
        },
        {
          "name": "G7",
          "midi": 103,
          "time": 146.63953488370007,
          "velocity": 0.23622047244094488,
          "duration": 0.19767441860460622
        },
        {
          "name": "C#7",
          "midi": 97,
          "time": 146.6511627906768,
          "velocity": 0.29133858267716534,
          "duration": 0.37209302325572935
        },
        {
          "name": "F#6",
          "midi": 90,
          "time": 146.66279069765355,
          "velocity": 0.2677165354330709,
          "duration": 0.10465116279067388
        },
        {
          "name": "G6",
          "midi": 91,
          "time": 146.66279069765355,
          "velocity": 0.14960629921259844,
          "duration": 0.034883720930224626
        },
        {
          "name": "C4",
          "midi": 60,
          "time": 146.6744186046303,
          "velocity": 0.3464566929133858,
          "duration": 0.09302325581393234
        },
        {
          "name": "F#5",
          "midi": 78,
          "time": 146.70930232556051,
          "velocity": 0.2440944881889764,
          "duration": 0.023255813953483084
        },
        {
          "name": "G6",
          "midi": 91,
          "time": 146.70930232556051,
          "velocity": 0.2047244094488189,
          "duration": 0.034883720930224626
        },
        {
          "name": "A6",
          "midi": 93,
          "time": 146.72093023253726,
          "velocity": 0.15748031496062992,
          "duration": 0.06976744186044925
        },
        {
          "name": "D7",
          "midi": 98,
          "time": 146.72093023253726,
          "velocity": 0.2125984251968504,
          "duration": 0.11627906976741542
        },
        {
          "name": "F6",
          "midi": 89,
          "time": 146.732558139514,
          "velocity": 0.1889763779527559,
          "duration": 0.09302325581393234
        },
        {
          "name": "F#5",
          "midi": 78,
          "time": 146.74418604649074,
          "velocity": 0.3543307086614173,
          "duration": 0.06976744186044925
        },
        {
          "name": "G#3",
          "midi": 56,
          "time": 146.75581395346748,
          "velocity": 0.2755905511811024,
          "duration": 0.06976744186044925
        },
        {
          "name": "E5",
          "midi": 76,
          "time": 146.75581395346748,
          "velocity": 0.2992125984251969,
          "duration": 0.023255813953483084
        },
        {
          "name": "G6",
          "midi": 91,
          "time": 146.75581395346748,
          "velocity": 0.3858267716535433,
          "duration": 0.24418604651157239
        },
        {
          "name": "B6",
          "midi": 95,
          "time": 146.77906976742096,
          "velocity": 0.08661417322834646,
          "duration": 0.034883720930224626
        },
        {
          "name": "F#4",
          "midi": 66,
          "time": 146.80232558137445,
          "velocity": 0.16535433070866143,
          "duration": 0.034883720930224626
        },
        {
          "name": "E6",
          "midi": 88,
          "time": 146.80232558137445,
          "velocity": 0.2047244094488189,
          "duration": 0.04651162790696617
        },
        {
          "name": "A6",
          "midi": 93,
          "time": 146.80232558137445,
          "velocity": 0.1968503937007874,
          "duration": 0.034883720930224626
        },
        {
          "name": "F#5",
          "midi": 78,
          "time": 146.82558139532793,
          "velocity": 0.30708661417322836,
          "duration": 0.05813953488370771
        },
        {
          "name": "G#4",
          "midi": 68,
          "time": 146.83720930230467,
          "velocity": 0.5354330708661418,
          "duration": 0.15116279069764005
        },
        {
          "name": "D7",
          "midi": 98,
          "time": 146.86046511625815,
          "velocity": 0.25984251968503935,
          "duration": 0.1627906976743816
        },
        {
          "name": "D#3",
          "midi": 51,
          "time": 146.8720930232349,
          "velocity": 0.5826771653543307,
          "duration": 0.10465116279067388
        },
        {
          "name": "F#5",
          "midi": 78,
          "time": 146.89534883718838,
          "velocity": 0.1732283464566929,
          "duration": 0.04651162790696617
        },
        {
          "name": "A6",
          "midi": 93,
          "time": 146.91860465114186,
          "velocity": 0.2440944881889764,
          "duration": 0.04651162790696617
        },
        {
          "name": "E6",
          "midi": 88,
          "time": 146.94186046509535,
          "velocity": 0.2125984251968504,
          "duration": 0.034883720930224626
        },
        {
          "name": "C#6",
          "midi": 85,
          "time": 146.9534883720721,
          "velocity": 0.2677165354330709,
          "duration": 0.023255813953483084
        },
        {
          "name": "B6",
          "midi": 95,
          "time": 146.9534883720721,
          "velocity": 0.2204724409448819,
          "duration": 0.06976744186044925
        },
        {
          "name": "F7",
          "midi": 101,
          "time": 146.9534883720721,
          "velocity": 0.2992125984251969,
          "duration": 0.10465116279067388
        },
        {
          "name": "F6",
          "midi": 89,
          "time": 146.96511627904883,
          "velocity": 0.25196850393700787,
          "duration": 0.11627906976741542
        },
        {
          "name": "G1",
          "midi": 31,
          "time": 146.97674418602557,
          "velocity": 0.5669291338582677,
          "duration": 0.034883720930224626
        },
        {
          "name": "C4",
          "midi": 60,
          "time": 146.97674418602557,
          "velocity": 0.4015748031496063,
          "duration": 0.09302325581393234
        },
        {
          "name": "E5",
          "midi": 76,
          "time": 146.97674418602557,
          "velocity": 0.2125984251968504,
          "duration": 0.034883720930224626
        },
        {
          "name": "A5",
          "midi": 81,
          "time": 146.97674418602557,
          "velocity": 0.5039370078740157,
          "duration": 0.023255813953483084
        },
        {
          "name": "B5",
          "midi": 83,
          "time": 146.97674418602557,
          "velocity": 0.25984251968503935,
          "duration": 0.034883720930224626
        },
        {
          "name": "F#6",
          "midi": 90,
          "time": 146.97674418602557,
          "velocity": 0.1968503937007874,
          "duration": 0.15116279069764005
        },
        {
          "name": "D#3",
          "midi": 51,
          "time": 146.9883720930023,
          "velocity": 0.4094488188976378,
          "duration": 0.17441860465112313
        },
        {
          "name": "G#5",
          "midi": 80,
          "time": 146.9883720930023,
          "velocity": 0.5905511811023622,
          "duration": 0.48837209302314477
        },
        {
          "name": "C#6",
          "midi": 85,
          "time": 146.9883720930023,
          "velocity": 0.1889763779527559,
          "duration": 0.034883720930224626
        },
        {
          "name": "G5",
          "midi": 79,
          "time": 146.99999999997905,
          "velocity": 0.28346456692913385,
          "duration": 0.034883720930224626
        },
        {
          "name": "C6",
          "midi": 84,
          "time": 147.0116279069558,
          "velocity": 0.2047244094488189,
          "duration": 0.19767441860460622
        },
        {
          "name": "A6",
          "midi": 93,
          "time": 147.02325581393254,
          "velocity": 0.25984251968503935,
          "duration": 0.3023255813952801
        },
        {
          "name": "G#4",
          "midi": 68,
          "time": 147.03488372090928,
          "velocity": 0.2125984251968504,
          "duration": 0.06976744186044925
        },
        {
          "name": "D7",
          "midi": 98,
          "time": 147.03488372090928,
          "velocity": 0.14173228346456693,
          "duration": 0.09302325581393234
        },
        {
          "name": "E7",
          "midi": 100,
          "time": 147.03488372090928,
          "velocity": 0.2125984251968504,
          "duration": 0.31395348837202164
        },
        {
          "name": "G5",
          "midi": 79,
          "time": 147.04651162788602,
          "velocity": 0.25984251968503935,
          "duration": 0.023255813953483084
        },
        {
          "name": "C#6",
          "midi": 85,
          "time": 147.04651162788602,
          "velocity": 0.18110236220472442,
          "duration": 0.11627906976741542
        },
        {
          "name": "F5",
          "midi": 77,
          "time": 147.05813953486276,
          "velocity": 0.11811023622047244,
          "duration": 0.06976744186044925
        },
        {
          "name": "E6",
          "midi": 88,
          "time": 147.05813953486276,
          "velocity": 0.07874015748031496,
          "duration": 0.034883720930224626
        },
        {
          "name": "C#7",
          "midi": 97,
          "time": 147.05813953486276,
          "velocity": 0.2204724409448819,
          "duration": 0.19767441860460622
        },
        {
          "name": "A#6",
          "midi": 94,
          "time": 147.0697674418395,
          "velocity": 0.15748031496062992,
          "duration": 0.23255813953483084
        },
        {
          "name": "C4",
          "midi": 60,
          "time": 147.08139534881624,
          "velocity": 0.2125984251968504,
          "duration": 0.0813953488371908
        },
        {
          "name": "D#6",
          "midi": 87,
          "time": 147.08139534881624,
          "velocity": 0.2283464566929134,
          "duration": 0.10465116279067388
        },
        {
          "name": "F7",
          "midi": 101,
          "time": 147.08139534881624,
          "velocity": 0.14960629921259844,
          "duration": 0.0813953488371908
        },
        {
          "name": "A#5",
          "midi": 82,
          "time": 147.09302325579299,
          "velocity": 0.23622047244094488,
          "duration": 0.0813953488371908
        },
        {
          "name": "G6",
          "midi": 91,
          "time": 147.10465116276973,
          "velocity": 0.2440944881889764,
          "duration": 0.0813953488371908
        },
        {
          "name": "G#4",
          "midi": 68,
          "time": 147.11627906974647,
          "velocity": 0.4251968503937008,
          "duration": 0.05813953488370771
        },
        {
          "name": "E6",
          "midi": 88,
          "time": 147.11627906974647,
          "velocity": 0.13385826771653545,
          "duration": 0.0813953488371908
        },
        {
          "name": "E5",
          "midi": 76,
          "time": 147.1279069767232,
          "velocity": 0.18110236220472442,
          "duration": 0.034883720930224626
        },
        {
          "name": "D6",
          "midi": 86,
          "time": 147.1279069767232,
          "velocity": 0.13385826771653545,
          "duration": 0.04651162790696617
        },
        {
          "name": "C7",
          "midi": 96,
          "time": 147.1279069767232,
          "velocity": 0.5118110236220472,
          "duration": 0.558139534883594
        },
        {
          "name": "A4",
          "midi": 69,
          "time": 147.1511627906767,
          "velocity": 0.3464566929133858,
          "duration": 0.05813953488370771
        },
        {
          "name": "B5",
          "midi": 83,
          "time": 147.1511627906767,
          "velocity": 0.11811023622047244,
          "duration": 0.034883720930224626
        },
        {
          "name": "C5",
          "midi": 72,
          "time": 147.16279069765343,
          "velocity": 0.2755905511811024,
          "duration": 0.12790697674415696
        },
        {
          "name": "F#5",
          "midi": 78,
          "time": 147.16279069765343,
          "velocity": 0.2677165354330709,
          "duration": 0.034883720930224626
        },
        {
          "name": "F6",
          "midi": 89,
          "time": 147.17441860463018,
          "velocity": 0.5118110236220472,
          "duration": 0.3255813953487632
        },
        {
          "name": "D#4",
          "midi": 63,
          "time": 147.18604651160692,
          "velocity": 0.3858267716535433,
          "duration": 0.10465116279067388
        },
        {
          "name": "A#5",
          "midi": 82,
          "time": 147.18604651160692,
          "velocity": 0.4330708661417323,
          "duration": 0.29069767441853855
        },
        {
          "name": "F5",
          "midi": 77,
          "time": 147.19767441858366,
          "velocity": 0.6614173228346457,
          "duration": 0.26744186046505547
        },
        {
          "name": "C#6",
          "midi": 85,
          "time": 147.19767441858366,
          "velocity": 0.1732283464566929,
          "duration": 0.1395348837208985
        },
        {
          "name": "D#6",
          "midi": 87,
          "time": 147.19767441858366,
          "velocity": 0.5354330708661418,
          "duration": 0.47674418604640323
        },
        {
          "name": "G6",
          "midi": 91,
          "time": 147.19767441858366,
          "velocity": 0.3464566929133858,
          "duration": 0.39534883720921243
        },
        {
          "name": "D7",
          "midi": 98,
          "time": 147.19767441858366,
          "velocity": 0.2440944881889764,
          "duration": 0.10465116279067388
        },
        {
          "name": "B6",
          "midi": 95,
          "time": 147.2093023255604,
          "velocity": 0.1732283464566929,
          "duration": 0.12790697674415696
        },
        {
          "name": "G#4",
          "midi": 68,
          "time": 147.22093023253714,
          "velocity": 0.2440944881889764,
          "duration": 0.06976744186044925
        },
        {
          "name": "C6",
          "midi": 84,
          "time": 147.22093023253714,
          "velocity": 0.2755905511811024,
          "duration": 0.20930232558134776
        },
        {
          "name": "D5",
          "midi": 74,
          "time": 147.25581395346737,
          "velocity": 0.13385826771653545,
          "duration": 0.034883720930224626
        },
        {
          "name": "C#7",
          "midi": 97,
          "time": 147.2674418604441,
          "velocity": 0.1968503937007874,
          "duration": 0.15116279069764005
        },
        {
          "name": "A#4",
          "midi": 70,
          "time": 147.27906976742085,
          "velocity": 0.29133858267716534,
          "duration": 0.023255813953483084
        },
        {
          "name": "D6",
          "midi": 86,
          "time": 147.27906976742085,
          "velocity": 0.25984251968503935,
          "duration": 0.023255813953483084
        },
        {
          "name": "E4",
          "midi": 64,
          "time": 147.2906976743976,
          "velocity": 0.33070866141732286,
          "duration": 0.023255813953483084
        },
        {
          "name": "F#7",
          "midi": 102,
          "time": 147.2906976743976,
          "velocity": 0.16535433070866143,
          "duration": 0.12790697674415696
        },
        {
          "name": "C4",
          "midi": 60,
          "time": 147.30232558137433,
          "velocity": 0.36220472440944884,
          "duration": 0.0813953488371908
        },
        {
          "name": "G#4",
          "midi": 68,
          "time": 147.30232558137433,
          "velocity": 0.5748031496062992,
          "duration": 0.23255813953483084
        },
        {
          "name": "D#5",
          "midi": 75,
          "time": 147.30232558137433,
          "velocity": 0.6692913385826772,
          "duration": 0.3372093023255047
        },
        {
          "name": "G7",
          "midi": 103,
          "time": 147.30232558137433,
          "velocity": 0.4409448818897638,
          "duration": 0.3604651162789878
        },
        {
          "name": "D#4",
          "midi": 63,
          "time": 147.31395348835107,
          "velocity": 0.36220472440944884,
          "duration": 0.034883720930224626
        },
        {
          "name": "D6",
          "midi": 86,
          "time": 147.31395348835107,
          "velocity": 0.14960629921259844,
          "duration": 0.034883720930224626
        },
        {
          "name": "A#6",
          "midi": 94,
          "time": 147.31395348835107,
          "velocity": 0.49606299212598426,
          "duration": 0.3604651162789878
        },
        {
          "name": "C5",
          "midi": 72,
          "time": 147.32558139532782,
          "velocity": 0.5511811023622047,
          "duration": 0.3255813953487632
        },
        {
          "name": "D7",
          "midi": 98,
          "time": 147.33720930230456,
          "velocity": 0.1889763779527559,
          "duration": 0.18604651162786467
        },
        {
          "name": "G#2",
          "midi": 44,
          "time": 147.36046511625804,
          "velocity": 0.25196850393700787,
          "duration": 0.24418604651157239
        },
        {
          "name": "B6",
          "midi": 95,
          "time": 147.36046511625804,
          "velocity": 0.09448818897637795,
          "duration": 0.034883720930224626
        },
        {
          "name": "D#4",
          "midi": 63,
          "time": 147.38372093021152,
          "velocity": 0.3464566929133858,
          "duration": 0.11627906976741542
        },
        {
          "name": "C#6",
          "midi": 85,
          "time": 147.38372093021152,
          "velocity": 0.1968503937007874,
          "duration": 0.06976744186044925
        },
        {
          "name": "A6",
          "midi": 93,
          "time": 147.44186046509523,
          "velocity": 0.13385826771653545,
          "duration": 0.11627906976741542
        },
        {
          "name": "E7",
          "midi": 100,
          "time": 147.44186046509523,
          "velocity": 0.11023622047244094,
          "duration": 0.04651162790696617
        },
        {
          "name": "C4",
          "midi": 60,
          "time": 147.45348837207197,
          "velocity": 0.28346456692913385,
          "duration": 0.10465116279067388
        },
        {
          "name": "B5",
          "midi": 83,
          "time": 147.46511627904871,
          "velocity": 0.18110236220472442,
          "duration": 0.05813953488370771
        },
        {
          "name": "F#7",
          "midi": 102,
          "time": 147.46511627904871,
          "velocity": 0.15748031496062992,
          "duration": 0.09302325581393234
        },
        {
          "name": "E6",
          "midi": 88,
          "time": 147.47674418602546,
          "velocity": 0.15748031496062992,
          "duration": 0.04651162790696617
        },
        {
          "name": "F5",
          "midi": 77,
          "time": 147.4883720930022,
          "velocity": 0.3464566929133858,
          "duration": 0.12790697674415696
        },
        {
          "name": "C#6",
          "midi": 85,
          "time": 147.49999999997894,
          "velocity": 0.1889763779527559,
          "duration": 0.034883720930224626
        },
        {
          "name": "F#6",
          "midi": 90,
          "time": 147.49999999997894,
          "velocity": 0.25984251968503935,
          "duration": 0.034883720930224626
        },
        {
          "name": "A#5",
          "midi": 82,
          "time": 147.52325581393242,
          "velocity": 0.2440944881889764,
          "duration": 0.0813953488371908
        },
        {
          "name": "C#7",
          "midi": 97,
          "time": 147.53488372090916,
          "velocity": 0.4566929133858268,
          "duration": 0.7441860465114587
        },
        {
          "name": "G#3",
          "midi": 56,
          "time": 147.5465116278859,
          "velocity": 0.33070866141732286,
          "duration": 0.06976744186044925
        },
        {
          "name": "F#6",
          "midi": 90,
          "time": 147.5465116278859,
          "velocity": 0.1968503937007874,
          "duration": 0.09302325581393234
        },
        {
          "name": "B5",
          "midi": 83,
          "time": 147.55813953486265,
          "velocity": 0.1968503937007874,
          "duration": 0.0813953488371908
        },
        {
          "name": "D#4",
          "midi": 63,
          "time": 147.5697674418394,
          "velocity": 0.2125984251968504,
          "duration": 0.034883720930224626
        },
        {
          "name": "C#6",
          "midi": 85,
          "time": 147.5697674418394,
          "velocity": 0.29133858267716534,
          "duration": 0.1395348837208985
        },
        {
          "name": "E4",
          "midi": 64,
          "time": 147.6046511627696,
          "velocity": 0.3779527559055118,
          "duration": 0.023255813953483084
        },
        {
          "name": "A6",
          "midi": 93,
          "time": 147.6046511627696,
          "velocity": 0.11811023622047244,
          "duration": 0.06976744186044925
        },
        {
          "name": "E3",
          "midi": 52,
          "time": 147.61627906974635,
          "velocity": 0.5590551181102362,
          "duration": 0.011627906976741542
        },
        {
          "name": "A2",
          "midi": 45,
          "time": 147.6279069767231,
          "velocity": 0.7165354330708661,
          "duration": 0.011627906976741542
        },
        {
          "name": "F4",
          "midi": 65,
          "time": 147.6279069767231,
          "velocity": 0.44881889763779526,
          "duration": 0.023255813953483084
        },
        {
          "name": "A#5",
          "midi": 82,
          "time": 147.6279069767231,
          "velocity": 0.2204724409448819,
          "duration": 0.04651162790696617
        },
        {
          "name": "F#2",
          "midi": 42,
          "time": 147.63953488369984,
          "velocity": 0.7716535433070866,
          "duration": 0.011627906976741542
        },
        {
          "name": "G6",
          "midi": 91,
          "time": 147.63953488369984,
          "velocity": 0.14173228346456693,
          "duration": 0.034883720930224626
        },
        {
          "name": "D2",
          "midi": 38,
          "time": 147.65116279067658,
          "velocity": 0.7795275590551181,
          "duration": 0.011627906976741542
        },
        {
          "name": "A#3",
          "midi": 58,
          "time": 147.65116279067658,
          "velocity": 0.3228346456692913,
          "duration": 0.023255813953483084
        },
        {
          "name": "G#4",
          "midi": 68,
          "time": 147.65116279067658,
          "velocity": 0.28346456692913385,
          "duration": 0.023255813953483084
        },
        {
          "name": "C#5",
          "midi": 73,
          "time": 147.65116279067658,
          "velocity": 0.6220472440944882,
          "duration": 0.8837209302323572
        },
        {
          "name": "D#5",
          "midi": 75,
          "time": 147.65116279067658,
          "velocity": 0.23622047244094488,
          "duration": 0.034883720930224626
        },
        {
          "name": "F5",
          "midi": 77,
          "time": 147.65116279067658,
          "velocity": 0.44881889763779526,
          "duration": 0.6395348837207848
        },
        {
          "name": "C#2",
          "midi": 37,
          "time": 147.66279069765332,
          "velocity": 0.8031496062992126,
          "duration": 0.011627906976741542
        },
        {
          "name": "G#6",
          "midi": 92,
          "time": 147.66279069765332,
          "velocity": 0.5433070866141733,
          "duration": 3.453488372092238
        },
        {
          "name": "B1",
          "midi": 35,
          "time": 147.67441860463006,
          "velocity": 0.8031496062992126,
          "duration": 0.011627906976741542
        },
        {
          "name": "F3",
          "midi": 53,
          "time": 147.67441860463006,
          "velocity": 0.3937007874015748,
          "duration": 0.023255813953483084
        },
        {
          "name": "A4",
          "midi": 69,
          "time": 147.67441860463006,
          "velocity": 0.14960629921259844,
          "duration": 0.05813953488370771
        },
        {
          "name": "A#1",
          "midi": 34,
          "time": 147.6860465116068,
          "velocity": 0.7952755905511811,
          "duration": 0.011627906976741542
        },
        {
          "name": "G6",
          "midi": 91,
          "time": 147.6860465116068,
          "velocity": 0.15748031496062992,
          "duration": 0.04651162790696617
        },
        {
          "name": "A#6",
          "midi": 94,
          "time": 147.6860465116068,
          "velocity": 0.12598425196850394,
          "duration": 0.0813953488371908
        },
        {
          "name": "A1",
          "midi": 33,
          "time": 147.69767441858355,
          "velocity": 0.7874015748031497,
          "duration": 0.023255813953483084
        },
        {
          "name": "E3",
          "midi": 52,
          "time": 147.69767441858355,
          "velocity": 0.33858267716535434,
          "duration": 0.034883720930224626
        },
        {
          "name": "G#5",
          "midi": 80,
          "time": 147.69767441858355,
          "velocity": 0.23622047244094488,
          "duration": 0.1395348837208985
        },
        {
          "name": "A#5",
          "midi": 82,
          "time": 147.69767441858355,
          "velocity": 0.28346456692913385,
          "duration": 0.15116279069764005
        },
        {
          "name": "F#6",
          "midi": 90,
          "time": 147.69767441858355,
          "velocity": 0.14173228346456693,
          "duration": 0.09302325581393234
        },
        {
          "name": "G#1",
          "midi": 32,
          "time": 147.72093023253703,
          "velocity": 0.7637795275590551,
          "duration": 0.023255813953483084
        },
        {
          "name": "F4",
          "midi": 65,
          "time": 147.72093023253703,
          "velocity": 0.2755905511811024,
          "duration": 0.23255813953483084
        },
        {
          "name": "D#5",
          "midi": 75,
          "time": 147.72093023253703,
          "velocity": 0.2992125984251969,
          "duration": 0.09302325581393234
        },
        {
          "name": "B6",
          "midi": 95,
          "time": 147.72093023253703,
          "velocity": 0.10236220472440945,
          "duration": 0.04651162790696617
        },
        {
          "name": "D7",
          "midi": 98,
          "time": 147.72093023253703,
          "velocity": 0.09448818897637795,
          "duration": 0.04651162790696617
        },
        {
          "name": "G1",
          "midi": 31,
          "time": 147.7441860464905,
          "velocity": 0.7322834645669292,
          "duration": 0.023255813953483084
        },
        {
          "name": "A#4",
          "midi": 70,
          "time": 147.7441860464905,
          "velocity": 0.5118110236220472,
          "duration": 0.5348837209301109
        },
        {
          "name": "F3",
          "midi": 53,
          "time": 147.75581395346725,
          "velocity": 0.2755905511811024,
          "duration": 0.04651162790696617
        },
        {
          "name": "C6",
          "midi": 84,
          "time": 147.75581395346725,
          "velocity": 0.09448818897637795,
          "duration": 0.034883720930224626
        },
        {
          "name": "F#1",
          "midi": 30,
          "time": 147.767441860444,
          "velocity": 0.7086614173228346,
          "duration": 0.023255813953483084
        },
        {
          "name": "G6",
          "midi": 91,
          "time": 147.767441860444,
          "velocity": 0.18110236220472442,
          "duration": 0.1627906976743816
        },
        {
          "name": "A6",
          "midi": 93,
          "time": 147.767441860444,
          "velocity": 0.14960629921259844,
          "duration": 0.0813953488371908
        },
        {
          "name": "G1",
          "midi": 31,
          "time": 147.79069767439748,
          "velocity": 0.7480314960629921,
          "duration": 0.023255813953483084
        },
        {
          "name": "A#3",
          "midi": 58,
          "time": 147.79069767439748,
          "velocity": 0.18110236220472442,
          "duration": 0.034883720930224626
        },
        {
          "name": "F#5",
          "midi": 78,
          "time": 147.79069767439748,
          "velocity": 0.12598425196850394,
          "duration": 0.034883720930224626
        },
        {
          "name": "B5",
          "midi": 83,
          "time": 147.79069767439748,
          "velocity": 0.15748031496062992,
          "duration": 0.12790697674415696
        },
        {
          "name": "E6",
          "midi": 88,
          "time": 147.79069767439748,
          "velocity": 0.14173228346456693,
          "duration": 0.034883720930224626
        },
        {
          "name": "A#6",
          "midi": 94,
          "time": 147.79069767439748,
          "velocity": 0.3228346456692913,
          "duration": 0.5232558139533694
        },
        {
          "name": "C6",
          "midi": 84,
          "time": 147.80232558137422,
          "velocity": 0.14960629921259844,
          "duration": 0.04651162790696617
        },
        {
          "name": "D7",
          "midi": 98,
          "time": 147.80232558137422,
          "velocity": 0.2283464566929134,
          "duration": 0.11627906976741542
        },
        {
          "name": "G#1",
          "midi": 32,
          "time": 147.81395348835096,
          "velocity": 0.7480314960629921,
          "duration": 0.034883720930224626
        },
        {
          "name": "F3",
          "midi": 53,
          "time": 147.81395348835096,
          "velocity": 0.3937007874015748,
          "duration": 0.04651162790696617
        },
        {
          "name": "D#5",
          "midi": 75,
          "time": 147.8255813953277,
          "velocity": 0.30708661417322836,
          "duration": 0.20930232558134776
        },
        {
          "name": "F#6",
          "midi": 90,
          "time": 147.8255813953277,
          "velocity": 0.14173228346456693,
          "duration": 0.04651162790696617
        },
        {
          "name": "C7",
          "midi": 96,
          "time": 147.8255813953277,
          "velocity": 0.33858267716535434,
          "duration": 0.5348837209301109
        },
        {
          "name": "A#1",
          "midi": 34,
          "time": 147.84883720928119,
          "velocity": 0.5433070866141733,
          "duration": 0.011627906976741542
        },
        {
          "name": "D6",
          "midi": 86,
          "time": 147.84883720928119,
          "velocity": 0.2440944881889764,
          "duration": 0.15116279069764005
        },
        {
          "name": "D2",
          "midi": 38,
          "time": 147.86046511625793,
          "velocity": 0.5275590551181102,
          "duration": 0.011627906976741542
        },
        {
          "name": "A#3",
          "midi": 58,
          "time": 147.86046511625793,
          "velocity": 0.3228346456692913,
          "duration": 0.0813953488371908
        },
        {
          "name": "A6",
          "midi": 93,
          "time": 147.86046511625793,
          "velocity": 0.1968503937007874,
          "duration": 0.0813953488371908
        },
        {
          "name": "B1",
          "midi": 35,
          "time": 147.87209302323467,
          "velocity": 0.6456692913385826,
          "duration": 0.011627906976741542
        },
        {
          "name": "F3",
          "midi": 53,
          "time": 147.87209302323467,
          "velocity": 0.4094488188976378,
          "duration": 0.06976744186044925
        },
        {
          "name": "G#5",
          "midi": 80,
          "time": 147.87209302323467,
          "velocity": 0.2204724409448819,
          "duration": 0.05813953488370771
        },
        {
          "name": "G#1",
          "midi": 32,
          "time": 147.8837209302114,
          "velocity": 0.7007874015748031,
          "duration": 0.011627906976741542
        },
        {
          "name": "A1",
          "midi": 33,
          "time": 147.89534883718815,
          "velocity": 0.7165354330708661,
          "duration": 0.011627906976741542
        },
        {
          "name": "A#1",
          "midi": 34,
          "time": 147.9069767441649,
          "velocity": 0.7165354330708661,
          "duration": 0.37209302325572935
        },
        {
          "name": "F#6",
          "midi": 90,
          "time": 147.9069767441649,
          "velocity": 0.30708661417322836,
          "duration": 0.18604651162786467
        },
        {
          "name": "G5",
          "midi": 79,
          "time": 147.91860465114164,
          "velocity": 0.11023622047244094,
          "duration": 0.034883720930224626
        },
        {
          "name": "C6",
          "midi": 84,
          "time": 147.91860465114164,
          "velocity": 0.1968503937007874,
          "duration": 0.04651162790696617
        },
        {
          "name": "B5",
          "midi": 83,
          "time": 147.93023255811838,
          "velocity": 0.12598425196850394,
          "duration": 0.034883720930224626
        },
        {
          "name": "G#5",
          "midi": 80,
          "time": 147.94186046509512,
          "velocity": 0.29133858267716534,
          "duration": 0.12790697674415696
        },
        {
          "name": "D7",
          "midi": 98,
          "time": 147.94186046509512,
          "velocity": 0.2440944881889764,
          "duration": 0.2558139534883139
        },
        {
          "name": "C#4",
          "midi": 61,
          "time": 147.95348837207186,
          "velocity": 0.4409448818897638,
          "duration": 0.0813953488371908
        },
        {
          "name": "E4",
          "midi": 64,
          "time": 147.95348837207186,
          "velocity": 0.36220472440944884,
          "duration": 0.023255813953483084
        },
        {
          "name": "E6",
          "midi": 88,
          "time": 147.95348837207186,
          "velocity": 0.2047244094488189,
          "duration": 0.034883720930224626
        },
        {
          "name": "A6",
          "midi": 93,
          "time": 147.95348837207186,
          "velocity": 0.25984251968503935,
          "duration": 0.3255813953487632
        },
        {
          "name": "G5",
          "midi": 79,
          "time": 147.9651162790486,
          "velocity": 0.2047244094488189,
          "duration": 0.04651162790696617
        },
        {
          "name": "A5",
          "midi": 81,
          "time": 147.9651162790486,
          "velocity": 0.2440944881889764,
          "duration": 0.023255813953483084
        },
        {
          "name": "F3",
          "midi": 53,
          "time": 147.97674418602534,
          "velocity": 0.3700787401574803,
          "duration": 0.29069767441853855
        },
        {
          "name": "F4",
          "midi": 65,
          "time": 147.97674418602534,
          "velocity": 0.44881889763779526,
          "duration": 0.20930232558134776
        },
        {
          "name": "G6",
          "midi": 91,
          "time": 147.97674418602534,
          "velocity": 0.31496062992125984,
          "duration": 0.034883720930224626
        },
        {
          "name": "B6",
          "midi": 95,
          "time": 147.98837209300208,
          "velocity": 0.25984251968503935,
          "duration": 0.2209302325580893
        },
        {
          "name": "E6",
          "midi": 88,
          "time": 147.99999999997883,
          "velocity": 0.30708661417322836,
          "duration": 0.11627906976741542
        },
        {
          "name": "B5",
          "midi": 83,
          "time": 148.01162790695557,
          "velocity": 0.23622047244094488,
          "duration": 0.034883720930224626
        },
        {
          "name": "D#5",
          "midi": 75,
          "time": 148.0465116278858,
          "velocity": 0.3228346456692913,
          "duration": 0.05813953488370771
        },
        {
          "name": "A#3",
          "midi": 58,
          "time": 148.05813953486253,
          "velocity": 0.33858267716535434,
          "duration": 0.10465116279067388
        },
        {
          "name": "C6",
          "midi": 84,
          "time": 148.05813953486253,
          "velocity": 0.2755905511811024,
          "duration": 0.023255813953483084
        },
        {
          "name": "G6",
          "midi": 91,
          "time": 148.05813953486253,
          "velocity": 0.12598425196850394,
          "duration": 0.034883720930224626
        },
        {
          "name": "D6",
          "midi": 86,
          "time": 148.09302325579276,
          "velocity": 0.36220472440944884,
          "duration": 0.034883720930224626
        },
        {
          "name": "C6",
          "midi": 84,
          "time": 148.1046511627695,
          "velocity": 0.2283464566929134,
          "duration": 0.05813953488370771
        },
        {
          "name": "D#5",
          "midi": 75,
          "time": 148.11627906974624,
          "velocity": 0.2755905511811024,
          "duration": 0.12790697674415696
        },
        {
          "name": "G#5",
          "midi": 80,
          "time": 148.11627906974624,
          "velocity": 0.2677165354330709,
          "duration": 0.034883720930224626
        },
        {
          "name": "E6",
          "midi": 88,
          "time": 148.12790697672298,
          "velocity": 0.1889763779527559,
          "duration": 0.09302325581393234
        },
        {
          "name": "G6",
          "midi": 91,
          "time": 148.12790697672298,
          "velocity": 0.16535433070866143,
          "duration": 0.05813953488370771
        },
        {
          "name": "D6",
          "midi": 86,
          "time": 148.13953488369972,
          "velocity": 0.1889763779527559,
          "duration": 0.05813953488370771
        },
        {
          "name": "B5",
          "midi": 83,
          "time": 148.15116279067647,
          "velocity": 0.2047244094488189,
          "duration": 0.04651162790696617
        },
        {
          "name": "F#7",
          "midi": 102,
          "time": 148.1627906976532,
          "velocity": 0.08661417322834646,
          "duration": 0.034883720930224626
        },
        {
          "name": "A#3",
          "midi": 58,
          "time": 148.17441860462995,
          "velocity": 0.5039370078740157,
          "duration": 0.4186046511626955
        },
        {
          "name": "G#5",
          "midi": 80,
          "time": 148.1860465116067,
          "velocity": 0.25196850393700787,
          "duration": 0.034883720930224626
        },
        {
          "name": "G#4",
          "midi": 68,
          "time": 148.19767441858343,
          "velocity": 0.1889763779527559,
          "duration": 0.04651162790696617
        },
        {
          "name": "F#6",
          "midi": 90,
          "time": 148.19767441858343,
          "velocity": 0.29133858267716534,
          "duration": 0.0813953488371908
        },
        {
          "name": "C6",
          "midi": 84,
          "time": 148.20930232556017,
          "velocity": 0.3700787401574803,
          "duration": 0.10465116279067388
        },
        {
          "name": "F#5",
          "midi": 78,
          "time": 148.22093023253692,
          "velocity": 0.12598425196850394,
          "duration": 0.034883720930224626
        },
        {
          "name": "D#6",
          "midi": 87,
          "time": 148.22093023253692,
          "velocity": 0.29133858267716534,
          "duration": 0.09302325581393234
        },
        {
          "name": "E7",
          "midi": 100,
          "time": 148.22093023253692,
          "velocity": 0.28346456692913385,
          "duration": 0.17441860465112313
        },
        {
          "name": "D7",
          "midi": 98,
          "time": 148.2441860464904,
          "velocity": 0.36220472440944884,
          "duration": 0.558139534883594
        },
        {
          "name": "B2",
          "midi": 47,
          "time": 148.25581395346714,
          "velocity": 0.3543307086614173,
          "duration": 0.023255813953483084
        },
        {
          "name": "D#5",
          "midi": 75,
          "time": 148.25581395346714,
          "velocity": 0.2204724409448819,
          "duration": 0.034883720930224626
        },
        {
          "name": "G#5",
          "midi": 80,
          "time": 148.25581395346714,
          "velocity": 0.25984251968503935,
          "duration": 0.023255813953483084
        },
        {
          "name": "F#5",
          "midi": 78,
          "time": 148.26744186044388,
          "velocity": 0.2992125984251969,
          "duration": 0.034883720930224626
        },
        {
          "name": "G6",
          "midi": 91,
          "time": 148.26744186044388,
          "velocity": 0.33070866141732286,
          "duration": 0.05813953488370771
        },
        {
          "name": "B1",
          "midi": 35,
          "time": 148.27906976742062,
          "velocity": 0.6141732283464567,
          "duration": 0.011627906976741542
        },
        {
          "name": "A4",
          "midi": 69,
          "time": 148.27906976742062,
          "velocity": 0.5118110236220472,
          "duration": 0.034883720930224626
        },
        {
          "name": "C5",
          "midi": 72,
          "time": 148.27906976742062,
          "velocity": 0.4094488188976378,
          "duration": 0.023255813953483084
        },
        {
          "name": "B5",
          "midi": 83,
          "time": 148.27906976742062,
          "velocity": 0.28346456692913385,
          "duration": 0.05813953488370771
        },
        {
          "name": "E6",
          "midi": 88,
          "time": 148.27906976742062,
          "velocity": 0.33858267716535434,
          "duration": 0.09302325581393234
        },
        {
          "name": "G#5",
          "midi": 80,
          "time": 148.29069767439736,
          "velocity": 0.4094488188976378,
          "duration": 0.11627906976741542
        },
        {
          "name": "A6",
          "midi": 93,
          "time": 148.29069767439736,
          "velocity": 0.2755905511811024,
          "duration": 0.034883720930224626
        },
        {
          "name": "F5",
          "midi": 77,
          "time": 148.3023255813741,
          "velocity": 0.14960629921259844,
          "duration": 0.17441860465112313
        },
        {
          "name": "A#5",
          "midi": 82,
          "time": 148.31395348835085,
          "velocity": 0.1968503937007874,
          "duration": 0.0813953488371908
        },
        {
          "name": "A4",
          "midi": 69,
          "time": 148.33720930230433,
          "velocity": 0.18110236220472442,
          "duration": 0.06976744186044925
        },
        {
          "name": "D#6",
          "midi": 87,
          "time": 148.33720930230433,
          "velocity": 0.2204724409448819,
          "duration": 0.0813953488371908
        },
        {
          "name": "G6",
          "midi": 91,
          "time": 148.33720930230433,
          "velocity": 0.15748031496062992,
          "duration": 0.06976744186044925
        },
        {
          "name": "A6",
          "midi": 93,
          "time": 148.33720930230433,
          "velocity": 0.18110236220472442,
          "duration": 0.12790697674415696
        },
        {
          "name": "B5",
          "midi": 83,
          "time": 148.37209302323456,
          "velocity": 0.1889763779527559,
          "duration": 0.034883720930224626
        },
        {
          "name": "C7",
          "midi": 96,
          "time": 148.3837209302113,
          "velocity": 0.14960629921259844,
          "duration": 0.1395348837208985
        },
        {
          "name": "A5",
          "midi": 81,
          "time": 148.40697674416478,
          "velocity": 0.2125984251968504,
          "duration": 0.034883720930224626
        },
        {
          "name": "F6",
          "midi": 89,
          "time": 148.40697674416478,
          "velocity": 0.18110236220472442,
          "duration": 0.034883720930224626
        },
        {
          "name": "G#4",
          "midi": 68,
          "time": 148.41860465114152,
          "velocity": 0.3858267716535433,
          "duration": 0.034883720930224626
        },
        {
          "name": "G5",
          "midi": 79,
          "time": 148.41860465114152,
          "velocity": 0.18110236220472442,
          "duration": 0.034883720930224626
        },
        {
          "name": "D6",
          "midi": 86,
          "time": 148.41860465114152,
          "velocity": 0.29133858267716534,
          "duration": 0.05813953488370771
        },
        {
          "name": "E6",
          "midi": 88,
          "time": 148.41860465114152,
          "velocity": 0.16535433070866143,
          "duration": 0.0813953488371908
        },
        {
          "name": "B5",
          "midi": 83,
          "time": 148.43023255811826,
          "velocity": 0.25196850393700787,
          "duration": 0.05813953488370771
        },
        {
          "name": "G6",
          "midi": 91,
          "time": 148.43023255811826,
          "velocity": 0.2204724409448819,
          "duration": 0.0813953488371908
        },
        {
          "name": "A#6",
          "midi": 94,
          "time": 148.43023255811826,
          "velocity": 0.3464566929133858,
          "duration": 0.26744186046505547
        },
        {
          "name": "E7",
          "midi": 100,
          "time": 148.43023255811826,
          "velocity": 0.2047244094488189,
          "duration": 0.12790697674415696
        },
        {
          "name": "A4",
          "midi": 69,
          "time": 148.45348837207175,
          "velocity": 0.3464566929133858,
          "duration": 0.06976744186044925
        },
        {
          "name": "A#5",
          "midi": 82,
          "time": 148.4651162790485,
          "velocity": 0.28346456692913385,
          "duration": 0.04651162790696617
        },
        {
          "name": "F4",
          "midi": 65,
          "time": 148.47674418602523,
          "velocity": 0.4566929133858268,
          "duration": 0.3837209302324709
        },
        {
          "name": "C6",
          "midi": 84,
          "time": 148.47674418602523,
          "velocity": 0.3937007874015748,
          "duration": 0.12790697674415696
        },
        {
          "name": "F6",
          "midi": 89,
          "time": 148.48837209300197,
          "velocity": 0.3937007874015748,
          "duration": 0.45348837209292014
        },
        {
          "name": "B2",
          "midi": 47,
          "time": 148.4999999999787,
          "velocity": 0.13385826771653545,
          "duration": 0.034883720930224626
        },
        {
          "name": "B6",
          "midi": 95,
          "time": 148.4999999999787,
          "velocity": 0.1889763779527559,
          "duration": 0.15116279069764005
        },
        {
          "name": "D#5",
          "midi": 75,
          "time": 148.51162790695545,
          "velocity": 0.09448818897637795,
          "duration": 0.04651162790696617
        },
        {
          "name": "A#5",
          "midi": 82,
          "time": 148.5232558139322,
          "velocity": 0.44881889763779526,
          "duration": 0.12790697674415696
        },
        {
          "name": "D#6",
          "midi": 87,
          "time": 148.5232558139322,
          "velocity": 0.3779527559055118,
          "duration": 0.09302325581393234
        },
        {
          "name": "A#2",
          "midi": 46,
          "time": 148.53488372090894,
          "velocity": 0.31496062992125984,
          "duration": 0.0813953488371908
        },
        {
          "name": "A#4",
          "midi": 70,
          "time": 148.54651162788568,
          "velocity": 0.6535433070866141,
          "duration": 0.15116279069764005
        },
        {
          "name": "C#5",
          "midi": 73,
          "time": 148.54651162788568,
          "velocity": 0.5984251968503937,
          "duration": 0.4186046511626955
        },
        {
          "name": "A5",
          "midi": 81,
          "time": 148.54651162788568,
          "velocity": 0.2283464566929134,
          "duration": 0.034883720930224626
        },
        {
          "name": "G6",
          "midi": 91,
          "time": 148.55813953486242,
          "velocity": 0.2440944881889764,
          "duration": 0.23255813953483084
        },
        {
          "name": "G#5",
          "midi": 80,
          "time": 148.5813953488159,
          "velocity": 0.5039370078740157,
          "duration": 0.34883720930224626
        },
        {
          "name": "F#5",
          "midi": 78,
          "time": 148.59302325579264,
          "velocity": 0.1889763779527559,
          "duration": 0.034883720930224626
        },
        {
          "name": "E7",
          "midi": 100,
          "time": 148.59302325579264,
          "velocity": 0.14173228346456693,
          "duration": 0.10465116279067388
        },
        {
          "name": "C#4",
          "midi": 61,
          "time": 148.6046511627694,
          "velocity": 0.3858267716535433,
          "duration": 0.0813953488371908
        },
        {
          "name": "B5",
          "midi": 83,
          "time": 148.6046511627694,
          "velocity": 0.2283464566929134,
          "duration": 0.023255813953483084
        },
        {
          "name": "D6",
          "midi": 86,
          "time": 148.6046511627694,
          "velocity": 0.3779527559055118,
          "duration": 0.09302325581393234
        },
        {
          "name": "C6",
          "midi": 84,
          "time": 148.61627906974613,
          "velocity": 0.30708661417322836,
          "duration": 0.0813953488371908
        },
        {
          "name": "F#7",
          "midi": 102,
          "time": 148.61627906974613,
          "velocity": 0.3543307086614173,
          "duration": 0.29069767441853855
        },
        {
          "name": "A#2",
          "midi": 46,
          "time": 148.62790697672287,
          "velocity": 0.25984251968503935,
          "duration": 0.05813953488370771
        },
        {
          "name": "D#5",
          "midi": 75,
          "time": 148.62790697672287,
          "velocity": 0.3464566929133858,
          "duration": 0.06976744186044925
        },
        {
          "name": "A5",
          "midi": 81,
          "time": 148.62790697672287,
          "velocity": 0.25984251968503935,
          "duration": 0.034883720930224626
        },
        {
          "name": "E6",
          "midi": 88,
          "time": 148.62790697672287,
          "velocity": 0.2125984251968504,
          "duration": 0.0813953488371908
        },
        {
          "name": "F#6",
          "midi": 90,
          "time": 148.62790697672287,
          "velocity": 0.2283464566929134,
          "duration": 0.19767441860460622
        },
        {
          "name": "D#6",
          "midi": 87,
          "time": 148.6395348836996,
          "velocity": 0.4094488188976378,
          "duration": 0.31395348837202164
        },
        {
          "name": "G#4",
          "midi": 68,
          "time": 148.65116279067635,
          "velocity": 0.5826771653543307,
          "duration": 0.29069767441853855
        },
        {
          "name": "B5",
          "midi": 83,
          "time": 148.67441860462984,
          "velocity": 0.1889763779527559,
          "duration": 0.05813953488370771
        },
        {
          "name": "A#3",
          "midi": 58,
          "time": 148.68604651160658,
          "velocity": 0.1889763779527559,
          "duration": 0.06976744186044925
        },
        {
          "name": "A#2",
          "midi": 46,
          "time": 148.69767441858332,
          "velocity": 0.14173228346456693,
          "duration": 0.04651162790696617
        },
        {
          "name": "C6",
          "midi": 84,
          "time": 148.70930232556006,
          "velocity": 0.25196850393700787,
          "duration": 0.04651162790696617
        },
        {
          "name": "B6",
          "midi": 95,
          "time": 148.70930232556006,
          "velocity": 0.2047244094488189,
          "duration": 0.05813953488370771
        },
        {
          "name": "A6",
          "midi": 93,
          "time": 148.7209302325368,
          "velocity": 0.1732283464566929,
          "duration": 0.09302325581393234
        },
        {
          "name": "A#4",
          "midi": 70,
          "time": 148.73255813951354,
          "velocity": 0.3700787401574803,
          "duration": 0.023255813953483084
        },
        {
          "name": "E7",
          "midi": 100,
          "time": 148.74418604649028,
          "velocity": 0.10236220472440945,
          "duration": 0.034883720930224626
        },
        {
          "name": "A#3",
          "midi": 58,
          "time": 148.76744186044377,
          "velocity": 0.28346456692913385,
          "duration": 0.1395348837208985
        },
        {
          "name": "C6",
          "midi": 84,
          "time": 148.7790697674205,
          "velocity": 0.28346456692913385,
          "duration": 0.15116279069764005
        },
        {
          "name": "A#2",
          "midi": 46,
          "time": 148.79069767439725,
          "velocity": 0.12598425196850394,
          "duration": 0.034883720930224626
        },
        {
          "name": "B6",
          "midi": 95,
          "time": 148.82558139532748,
          "velocity": 0.10236220472440945,
          "duration": 0.04651162790696617
        },
        {
          "name": "A#2",
          "midi": 46,
          "time": 148.83720930230422,
          "velocity": 0.1732283464566929,
          "duration": 0.0813953488371908
        },
        {
          "name": "F#6",
          "midi": 90,
          "time": 148.84883720928096,
          "velocity": 0.14173228346456693,
          "duration": 0.09302325581393234
        },
        {
          "name": "D7",
          "midi": 98,
          "time": 148.84883720928096,
          "velocity": 0.13385826771653545,
          "duration": 0.034883720930224626
        },
        {
          "name": "G6",
          "midi": 91,
          "time": 148.8604651162577,
          "velocity": 0.14173228346456693,
          "duration": 0.04651162790696617
        },
        {
          "name": "A6",
          "midi": 93,
          "time": 148.8604651162577,
          "velocity": 0.18110236220472442,
          "duration": 0.04651162790696617
        },
        {
          "name": "E6",
          "midi": 88,
          "time": 148.88372093021118,
          "velocity": 0.1732283464566929,
          "duration": 0.034883720930224626
        },
        {
          "name": "F5",
          "midi": 77,
          "time": 148.89534883718792,
          "velocity": 0.14960629921259844,
          "duration": 0.034883720930224626
        },
        {
          "name": "D#5",
          "midi": 75,
          "time": 148.90697674416467,
          "velocity": 0.25984251968503935,
          "duration": 0.034883720930224626
        },
        {
          "name": "A5",
          "midi": 81,
          "time": 148.9186046511414,
          "velocity": 0.30708661417322836,
          "duration": 0.034883720930224626
        },
        {
          "name": "C3",
          "midi": 48,
          "time": 148.93023255811815,
          "velocity": 0.6614173228346457,
          "duration": 0.011627906976741542
        },
        {
          "name": "E4",
          "midi": 64,
          "time": 148.93023255811815,
          "velocity": 0.4645669291338583,
          "duration": 0.04651162790696617
        },
        {
          "name": "F#5",
          "midi": 78,
          "time": 148.93023255811815,
          "velocity": 0.2125984251968504,
          "duration": 0.11627906976741542
        },
        {
          "name": "B5",
          "midi": 83,
          "time": 148.93023255811815,
          "velocity": 0.2440944881889764,
          "duration": 0.023255813953483084
        },
        {
          "name": "G6",
          "midi": 91,
          "time": 148.93023255811815,
          "velocity": 0.16535433070866143,
          "duration": 0.0813953488371908
        },
        {
          "name": "G#2",
          "midi": 44,
          "time": 148.9418604650949,
          "velocity": 0.7401574803149606,
          "duration": 0.011627906976741542
        },
        {
          "name": "A#4",
          "midi": 70,
          "time": 148.9418604650949,
          "velocity": 0.2047244094488189,
          "duration": 0.034883720930224626
        },
        {
          "name": "E6",
          "midi": 88,
          "time": 148.9418604650949,
          "velocity": 0.11811023622047244,
          "duration": 0.04651162790696617
        },
        {
          "name": "F2",
          "midi": 41,
          "time": 148.95348837207163,
          "velocity": 0.7795275590551181,
          "duration": 0.011627906976741542
        },
        {
          "name": "C5",
          "midi": 72,
          "time": 148.95348837207163,
          "velocity": 0.2204724409448819,
          "duration": 0.034883720930224626
        },
        {
          "name": "G#5",
          "midi": 80,
          "time": 148.95348837207163,
          "velocity": 0.6299212598425197,
          "duration": 0.6279069767440433
        },
        {
          "name": "C#2",
          "midi": 37,
          "time": 148.96511627904837,
          "velocity": 0.7952755905511811,
          "duration": 0.011627906976741542
        },
        {
          "name": "F3",
          "midi": 53,
          "time": 148.96511627904837,
          "velocity": 0.4251968503937008,
          "duration": 0.04651162790696617
        },
        {
          "name": "B5",
          "midi": 83,
          "time": 148.96511627904837,
          "velocity": 0.2047244094488189,
          "duration": 0.034883720930224626
        },
        {
          "name": "A#6",
          "midi": 94,
          "time": 148.96511627904837,
          "velocity": 0.11023622047244094,
          "duration": 0.05813953488370771
        },
        {
          "name": "B1",
          "midi": 35,
          "time": 148.97674418602512,
          "velocity": 0.7952755905511811,
          "duration": 0.011627906976741542
        },
        {
          "name": "D4",
          "midi": 62,
          "time": 148.97674418602512,
          "velocity": 0.28346456692913385,
          "duration": 0.023255813953483084
        },
        {
          "name": "A4",
          "midi": 69,
          "time": 148.97674418602512,
          "velocity": 0.13385826771653545,
          "duration": 0.034883720930224626
        },
        {
          "name": "C#5",
          "midi": 73,
          "time": 148.97674418602512,
          "velocity": 0.3543307086614173,
          "duration": 0.12790697674415696
        },
        {
          "name": "A#1",
          "midi": 34,
          "time": 148.98837209300186,
          "velocity": 0.7874015748031497,
          "duration": 0.023255813953483084
        },
        {
          "name": "B4",
          "midi": 71,
          "time": 148.98837209300186,
          "velocity": 0.11811023622047244,
          "duration": 0.034883720930224626
        },
        {
          "name": "A6",
          "midi": 93,
          "time": 148.98837209300186,
          "velocity": 0.13385826771653545,
          "duration": 0.06976744186044925
        },
        {
          "name": "C#4",
          "midi": 61,
          "time": 148.9999999999786,
          "velocity": 0.1889763779527559,
          "duration": 0.05813953488370771
        },
        {
          "name": "A1",
          "midi": 33,
          "time": 149.01162790695534,
          "velocity": 0.7716535433070866,
          "duration": 0.011627906976741542
        },
        {
          "name": "E3",
          "midi": 52,
          "time": 149.01162790695534,
          "velocity": 0.41732283464566927,
          "duration": 0.023255813953483084
        },
        {
          "name": "A#4",
          "midi": 70,
          "time": 149.01162790695534,
          "velocity": 0.1889763779527559,
          "duration": 0.034883720930224626
        },
        {
          "name": "E6",
          "midi": 88,
          "time": 149.01162790695534,
          "velocity": 0.12598425196850394,
          "duration": 0.04651162790696617
        },
        {
          "name": "G#1",
          "midi": 32,
          "time": 149.02325581393208,
          "velocity": 0.7795275590551181,
          "duration": 0.023255813953483084
        },
        {
          "name": "C6",
          "midi": 84,
          "time": 149.02325581393208,
          "velocity": 0.2440944881889764,
          "duration": 0.15116279069764005
        },
        {
          "name": "F#7",
          "midi": 102,
          "time": 149.02325581393208,
          "velocity": 0.09448818897637795,
          "duration": 0.034883720930224626
        },
        {
          "name": "G#4",
          "midi": 68,
          "time": 149.03488372090882,
          "velocity": 0.4251968503937008,
          "duration": 0.3023255813952801
        },
        {
          "name": "F6",
          "midi": 89,
          "time": 149.03488372090882,
          "velocity": 0.15748031496062992,
          "duration": 0.05813953488370771
        },
        {
          "name": "G1",
          "midi": 31,
          "time": 149.04651162788556,
          "velocity": 0.7716535433070866,
          "duration": 0.06976744186044925
        },
        {
          "name": "E3",
          "midi": 52,
          "time": 149.04651162788556,
          "velocity": 0.2440944881889764,
          "duration": 0.023255813953483084
        },
        {
          "name": "F4",
          "midi": 65,
          "time": 149.04651162788556,
          "velocity": 0.2204724409448819,
          "duration": 0.1627906976743816
        },
        {
          "name": "D#6",
          "midi": 87,
          "time": 149.04651162788556,
          "velocity": 0.16535433070866143,
          "duration": 0.034883720930224626
        },
        {
          "name": "C7",
          "midi": 96,
          "time": 149.04651162788556,
          "velocity": 0.3464566929133858,
          "duration": 0.6627906976742679
        },
        {
          "name": "A#4",
          "midi": 70,
          "time": 149.0581395348623,
          "velocity": 0.16535433070866143,
          "duration": 0.04651162790696617
        },
        {
          "name": "F5",
          "midi": 77,
          "time": 149.0581395348623,
          "velocity": 0.23622047244094488,
          "duration": 0.09302325581393234
        },
        {
          "name": "D6",
          "midi": 86,
          "time": 149.06976744183905,
          "velocity": 0.12598425196850394,
          "duration": 0.034883720930224626
        },
        {
          "name": "F#6",
          "midi": 90,
          "time": 149.06976744183905,
          "velocity": 0.18110236220472442,
          "duration": 0.09302325581393234
        },
        {
          "name": "G6",
          "midi": 91,
          "time": 149.06976744183905,
          "velocity": 0.15748031496062992,
          "duration": 0.06976744186044925
        },
        {
          "name": "B6",
          "midi": 95,
          "time": 149.06976744183905,
          "velocity": 0.10236220472440945,
          "duration": 0.06976744186044925
        },
        {
          "name": "F#7",
          "midi": 102,
          "time": 149.06976744183905,
          "velocity": 0.31496062992125984,
          "duration": 0.6511627906975264
        },
        {
          "name": "C#4",
          "midi": 61,
          "time": 149.0813953488158,
          "velocity": 0.4409448818897638,
          "duration": 0.279069767441797
        },
        {
          "name": "A#5",
          "midi": 82,
          "time": 149.0813953488158,
          "velocity": 0.1889763779527559,
          "duration": 0.04651162790696617
        },
        {
          "name": "D#6",
          "midi": 87,
          "time": 149.09302325579253,
          "velocity": 0.33070866141732286,
          "duration": 0.2558139534883139
        },
        {
          "name": "E6",
          "midi": 88,
          "time": 149.09302325579253,
          "velocity": 0.11023622047244094,
          "duration": 0.04651162790696617
        },
        {
          "name": "F3",
          "midi": 53,
          "time": 149.10465116276927,
          "velocity": 0.3779527559055118,
          "duration": 0.05813953488370771
        },
        {
          "name": "C5",
          "midi": 72,
          "time": 149.10465116276927,
          "velocity": 0.2677165354330709,
          "duration": 0.023255813953483084
        },
        {
          "name": "E7",
          "midi": 100,
          "time": 149.10465116276927,
          "velocity": 0.12598425196850394,
          "duration": 0.05813953488370771
        },
        {
          "name": "G#1",
          "midi": 32,
          "time": 149.116279069746,
          "velocity": 0.5669291338582677,
          "duration": 0.023255813953483084
        },
        {
          "name": "C#5",
          "midi": 73,
          "time": 149.116279069746,
          "velocity": 0.4409448818897638,
          "duration": 0.279069767441797
        },
        {
          "name": "B5",
          "midi": 83,
          "time": 149.116279069746,
          "velocity": 0.08661417322834646,
          "duration": 0.034883720930224626
        },
        {
          "name": "D6",
          "midi": 86,
          "time": 149.12790697672276,
          "velocity": 0.12598425196850394,
          "duration": 0.04651162790696617
        },
        {
          "name": "F6",
          "midi": 89,
          "time": 149.12790697672276,
          "velocity": 0.3858267716535433,
          "duration": 0.34883720930224626
        },
        {
          "name": "G1",
          "midi": 31,
          "time": 149.1395348836995,
          "velocity": 0.6299212598425197,
          "duration": 0.023255813953483084
        },
        {
          "name": "A#6",
          "midi": 94,
          "time": 149.1395348836995,
          "velocity": 0.12598425196850394,
          "duration": 0.04651162790696617
        },
        {
          "name": "G6",
          "midi": 91,
          "time": 149.15116279067624,
          "velocity": 0.2283464566929134,
          "duration": 0.2209302325580893
        },
        {
          "name": "F#1",
          "midi": 30,
          "time": 149.16279069765298,
          "velocity": 0.7007874015748031,
          "duration": 0.06976744186044925
        },
        {
          "name": "F5",
          "midi": 77,
          "time": 149.16279069765298,
          "velocity": 0.3937007874015748,
          "duration": 0.4651162790696617
        },
        {
          "name": "C3",
          "midi": 48,
          "time": 149.17441860462972,
          "velocity": 0.44881889763779526,
          "duration": 0.0813953488371908
        },
        {
          "name": "A#5",
          "midi": 82,
          "time": 149.17441860462972,
          "velocity": 0.25984251968503935,
          "duration": 0.06976744186044925
        },
        {
          "name": "A6",
          "midi": 93,
          "time": 149.17441860462972,
          "velocity": 0.2125984251968504,
          "duration": 0.09302325581393234
        },
        {
          "name": "B6",
          "midi": 95,
          "time": 149.17441860462972,
          "velocity": 0.18110236220472442,
          "duration": 0.18604651162786467
        },
        {
          "name": "C6",
          "midi": 84,
          "time": 149.1976744185832,
          "velocity": 0.25196850393700787,
          "duration": 0.05813953488370771
        },
        {
          "name": "D7",
          "midi": 98,
          "time": 149.1976744185832,
          "velocity": 0.08661417322834646,
          "duration": 0.12790697674415696
        },
        {
          "name": "E6",
          "midi": 88,
          "time": 149.20930232555995,
          "velocity": 0.2283464566929134,
          "duration": 0.11627906976741542
        },
        {
          "name": "C#7",
          "midi": 97,
          "time": 149.2209302325367,
          "velocity": 0.23622047244094488,
          "duration": 0.31395348837202164
        },
        {
          "name": "F1",
          "midi": 29,
          "time": 149.23255813951343,
          "velocity": 0.7165354330708661,
          "duration": 0.34883720930224626
        },
        {
          "name": "F#4",
          "midi": 66,
          "time": 149.24418604649017,
          "velocity": 0.4409448818897638,
          "duration": 0.04651162790696617
        },
        {
          "name": "B5",
          "midi": 83,
          "time": 149.24418604649017,
          "velocity": 0.2992125984251969,
          "duration": 0.06976744186044925
        },
        {
          "name": "G#3",
          "midi": 56,
          "time": 149.26744186044365,
          "velocity": 0.4251968503937008,
          "duration": 0.05813953488370771
        },
        {
          "name": "A#5",
          "midi": 82,
          "time": 149.26744186044365,
          "velocity": 0.2283464566929134,
          "duration": 0.09302325581393234
        },
        {
          "name": "D#5",
          "midi": 75,
          "time": 149.2790697674204,
          "velocity": 0.2283464566929134,
          "duration": 0.04651162790696617
        },
        {
          "name": "A6",
          "midi": 93,
          "time": 149.2790697674204,
          "velocity": 0.28346456692913385,
          "duration": 0.09302325581393234
        },
        {
          "name": "A#6",
          "midi": 94,
          "time": 149.2790697674204,
          "velocity": 0.23622047244094488,
          "duration": 0.12790697674415696
        },
        {
          "name": "C6",
          "midi": 84,
          "time": 149.29069767439714,
          "velocity": 0.2755905511811024,
          "duration": 0.1627906976743816
        },
        {
          "name": "F#5",
          "midi": 78,
          "time": 149.30232558137388,
          "velocity": 0.2047244094488189,
          "duration": 0.034883720930224626
        },
        {
          "name": "D6",
          "midi": 86,
          "time": 149.30232558137388,
          "velocity": 0.2283464566929134,
          "duration": 0.05813953488370771
        },
        {
          "name": "F#6",
          "midi": 90,
          "time": 149.32558139532736,
          "velocity": 0.2204724409448819,
          "duration": 0.17441860465112313
        },
        {
          "name": "F4",
          "midi": 65,
          "time": 149.3372093023041,
          "velocity": 0.28346456692913385,
          "duration": 0.034883720930224626
        },
        {
          "name": "A4",
          "midi": 69,
          "time": 149.3372093023041,
          "velocity": 0.33070866141732286,
          "duration": 0.023255813953483084
        },
        {
          "name": "G#4",
          "midi": 68,
          "time": 149.34883720928084,
          "velocity": 0.4330708661417323,
          "duration": 0.10465116279067388
        },
        {
          "name": "E6",
          "midi": 88,
          "time": 149.34883720928084,
          "velocity": 0.2047244094488189,
          "duration": 0.05813953488370771
        },
        {
          "name": "D4",
          "midi": 62,
          "time": 149.3604651162576,
          "velocity": 0.23622047244094488,
          "duration": 0.023255813953483084
        },
        {
          "name": "D#6",
          "midi": 87,
          "time": 149.3604651162576,
          "velocity": 0.3779527559055118,
          "duration": 0.279069767441797
        },
        {
          "name": "A#5",
          "midi": 82,
          "time": 149.37209302323433,
          "velocity": 0.1968503937007874,
          "duration": 0.04651162790696617
        },
        {
          "name": "F4",
          "midi": 65,
          "time": 149.38372093021107,
          "velocity": 0.4094488188976378,
          "duration": 0.20930232558134776
        },
        {
          "name": "A6",
          "midi": 93,
          "time": 149.38372093021107,
          "velocity": 0.2755905511811024,
          "duration": 0.06976744186044925
        },
        {
          "name": "C5",
          "midi": 72,
          "time": 149.3953488371878,
          "velocity": 0.25196850393700787,
          "duration": 0.034883720930224626
        },
        {
          "name": "C4",
          "midi": 60,
          "time": 149.40697674416455,
          "velocity": 0.29133858267716534,
          "duration": 0.034883720930224626
        },
        {
          "name": "C#5",
          "midi": 73,
          "time": 149.4186046511413,
          "velocity": 0.3779527559055118,
          "duration": 0.09302325581393234
        },
        {
          "name": "A#5",
          "midi": 82,
          "time": 149.43023255811804,
          "velocity": 0.23622047244094488,
          "duration": 0.034883720930224626
        },
        {
          "name": "D6",
          "midi": 86,
          "time": 149.43023255811804,
          "velocity": 0.23622047244094488,
          "duration": 0.04651162790696617
        },
        {
          "name": "C4",
          "midi": 60,
          "time": 149.45348837207152,
          "velocity": 0.41732283464566927,
          "duration": 0.023255813953483084
        },
        {
          "name": "B5",
          "midi": 83,
          "time": 149.45348837207152,
          "velocity": 0.1732283464566929,
          "duration": 0.04651162790696617
        },
        {
          "name": "G#4",
          "midi": 68,
          "time": 149.46511627904826,
          "velocity": 0.4094488188976378,
          "duration": 0.11627906976741542
        },
        {
          "name": "C6",
          "midi": 84,
          "time": 149.46511627904826,
          "velocity": 0.25196850393700787,
          "duration": 0.06976744186044925
        },
        {
          "name": "G6",
          "midi": 91,
          "time": 149.46511627904826,
          "velocity": 0.2440944881889764,
          "duration": 0.11627906976741542
        },
        {
          "name": "F3",
          "midi": 53,
          "time": 149.476744186025,
          "velocity": 0.48031496062992124,
          "duration": 0.0813953488371908
        },
        {
          "name": "C#4",
          "midi": 61,
          "time": 149.476744186025,
          "velocity": 0.4409448818897638,
          "duration": 0.034883720930224626
        },
        {
          "name": "B6",
          "midi": 95,
          "time": 149.48837209300174,
          "velocity": 0.2992125984251969,
          "duration": 0.2209302325580893
        },
        {
          "name": "C5",
          "midi": 72,
          "time": 149.49999999997848,
          "velocity": 0.2440944881889764,
          "duration": 0.05813953488370771
        },
        {
          "name": "D#5",
          "midi": 75,
          "time": 149.49999999997848,
          "velocity": 0.1732283464566929,
          "duration": 0.034883720930224626
        },
        {
          "name": "A6",
          "midi": 93,
          "time": 149.49999999997848,
          "velocity": 0.25196850393700787,
          "duration": 0.0813953488371908
        },
        {
          "name": "A#6",
          "midi": 94,
          "time": 149.49999999997848,
          "velocity": 0.31496062992125984,
          "duration": 0.18604651162786467
        },
        {
          "name": "C#4",
          "midi": 61,
          "time": 149.52325581393197,
          "velocity": 0.3937007874015748,
          "duration": 0.0813953488371908
        },
        {
          "name": "B5",
          "midi": 83,
          "time": 149.52325581393197,
          "velocity": 0.16535433070866143,
          "duration": 0.034883720930224626
        },
        {
          "name": "C3",
          "midi": 48,
          "time": 149.54651162788545,
          "velocity": 0.4645669291338583,
          "duration": 0.06976744186044925
        },
        {
          "name": "D6",
          "midi": 86,
          "time": 149.54651162788545,
          "velocity": 0.33070866141732286,
          "duration": 0.0813953488371908
        },
        {
          "name": "C#7",
          "midi": 97,
          "time": 149.5581395348622,
          "velocity": 0.3228346456692913,
          "duration": 0.10465116279067388
        },
        {
          "name": "A5",
          "midi": 81,
          "time": 149.56976744183893,
          "velocity": 0.5196850393700787,
          "duration": 0.04651162790696617
        },
        {
          "name": "F#6",
          "midi": 90,
          "time": 149.56976744183893,
          "velocity": 0.2677165354330709,
          "duration": 0.2558139534883139
        },
        {
          "name": "F#1",
          "midi": 30,
          "time": 149.58139534881568,
          "velocity": 0.6692913385826772,
          "duration": 0.023255813953483084
        },
        {
          "name": "A4",
          "midi": 69,
          "time": 149.58139534881568,
          "velocity": 0.5354330708661418,
          "duration": 0.034883720930224626
        },
        {
          "name": "B5",
          "midi": 83,
          "time": 149.58139534881568,
          "velocity": 0.31496062992125984,
          "duration": 0.06976744186044925
        },
        {
          "name": "E7",
          "midi": 100,
          "time": 149.58139534881568,
          "velocity": 0.33858267716535434,
          "duration": 0.05813953488370771
        },
        {
          "name": "G7",
          "midi": 103,
          "time": 149.58139534881568,
          "velocity": 0.2677165354330709,
          "duration": 0.18604651162786467
        },
        {
          "name": "F#5",
          "midi": 78,
          "time": 149.59302325579242,
          "velocity": 0.23622047244094488,
          "duration": 0.05813953488370771
        },
        {
          "name": "E6",
          "midi": 88,
          "time": 149.59302325579242,
          "velocity": 0.25984251968503935,
          "duration": 0.06976744186044925
        },
        {
          "name": "G#5",
          "midi": 80,
          "time": 149.60465116276916,
          "velocity": 0.6220472440944882,
          "duration": 0.686046511627751
        },
        {
          "name": "C6",
          "midi": 84,
          "time": 149.60465116276916,
          "velocity": 0.29133858267716534,
          "duration": 0.15116279069764005
        },
        {
          "name": "C#4",
          "midi": 61,
          "time": 149.6162790697459,
          "velocity": 0.1968503937007874,
          "duration": 0.06976744186044925
        },
        {
          "name": "F4",
          "midi": 65,
          "time": 149.6162790697459,
          "velocity": 0.4409448818897638,
          "duration": 0.1395348837208985
        },
        {
          "name": "G6",
          "midi": 91,
          "time": 149.62790697672264,
          "velocity": 0.13385826771653545,
          "duration": 0.05813953488370771
        },
        {
          "name": "A6",
          "midi": 93,
          "time": 149.62790697672264,
          "velocity": 0.2204724409448819,
          "duration": 0.1395348837208985
        },
        {
          "name": "A4",
          "midi": 69,
          "time": 149.63953488369938,
          "velocity": 0.1968503937007874,
          "duration": 0.05813953488370771
        },
        {
          "name": "D6",
          "midi": 86,
          "time": 149.63953488369938,
          "velocity": 0.14960629921259844,
          "duration": 0.05813953488370771
        },
        {
          "name": "D#6",
          "midi": 87,
          "time": 149.65116279067612,
          "velocity": 0.5275590551181102,
          "duration": 0.7790697674416833
        },
        {
          "name": "D7",
          "midi": 98,
          "time": 149.65116279067612,
          "velocity": 0.15748031496062992,
          "duration": 0.11627906976741542
        },
        {
          "name": "E7",
          "midi": 100,
          "time": 149.66279069765287,
          "velocity": 0.13385826771653545,
          "duration": 0.04651162790696617
        },
        {
          "name": "F6",
          "midi": 89,
          "time": 149.6744186046296,
          "velocity": 0.13385826771653545,
          "duration": 0.034883720930224626
        },
        {
          "name": "C#7",
          "midi": 97,
          "time": 149.6744186046296,
          "velocity": 0.1889763779527559,
          "duration": 0.26744186046505547
        },
        {
          "name": "G#4",
          "midi": 68,
          "time": 149.6976744185831,
          "velocity": 0.2283464566929134,
          "duration": 0.023255813953483084
        },
        {
          "name": "A#5",
          "midi": 82,
          "time": 149.6976744185831,
          "velocity": 0.12598425196850394,
          "duration": 0.034883720930224626
        },
        {
          "name": "E6",
          "midi": 88,
          "time": 149.6976744185831,
          "velocity": 0.18110236220472442,
          "duration": 0.04651162790696617
        },
        {
          "name": "F2",
          "midi": 41,
          "time": 149.70930232555983,
          "velocity": 0.07086614173228346,
          "duration": 0.034883720930224626
        },
        {
          "name": "C#4",
          "midi": 61,
          "time": 149.70930232555983,
          "velocity": 0.14960629921259844,
          "duration": 0.06976744186044925
        },
        {
          "name": "D6",
          "midi": 86,
          "time": 149.70930232555983,
          "velocity": 0.2283464566929134,
          "duration": 0.034883720930224626
        },
        {
          "name": "G6",
          "midi": 91,
          "time": 149.70930232555983,
          "velocity": 0.2440944881889764,
          "duration": 0.0813953488371908
        },
        {
          "name": "A4",
          "midi": 69,
          "time": 149.72093023253657,
          "velocity": 0.2677165354330709,
          "duration": 0.023255813953483084
        },
        {
          "name": "A#6",
          "midi": 94,
          "time": 149.72093023253657,
          "velocity": 0.13385826771653545,
          "duration": 0.09302325581393234
        },
        {
          "name": "G#4",
          "midi": 68,
          "time": 149.73255813951332,
          "velocity": 0.3464566929133858,
          "duration": 0.034883720930224626
        },
        {
          "name": "F#5",
          "midi": 78,
          "time": 149.73255813951332,
          "velocity": 0.13385826771653545,
          "duration": 0.034883720930224626
        },
        {
          "name": "F6",
          "midi": 89,
          "time": 149.73255813951332,
          "velocity": 0.4645669291338583,
          "duration": 0.4418604651161786
        },
        {
          "name": "F2",
          "midi": 41,
          "time": 149.7558139534668,
          "velocity": 0.25196850393700787,
          "duration": 0.1627906976743816
        },
        {
          "name": "A#5",
          "midi": 82,
          "time": 149.7558139534668,
          "velocity": 0.2283464566929134,
          "duration": 0.034883720930224626
        },
        {
          "name": "D6",
          "midi": 86,
          "time": 149.7558139534668,
          "velocity": 0.1732283464566929,
          "duration": 0.034883720930224626
        },
        {
          "name": "C7",
          "midi": 96,
          "time": 149.7558139534668,
          "velocity": 0.5039370078740157,
          "duration": 0.48837209302314477
        },
        {
          "name": "E7",
          "midi": 100,
          "time": 149.7558139534668,
          "velocity": 0.09448818897637795,
          "duration": 0.034883720930224626
        },
        {
          "name": "A4",
          "midi": 69,
          "time": 149.76744186044354,
          "velocity": 0.3464566929133858,
          "duration": 0.023255813953483084
        },
        {
          "name": "F5",
          "midi": 77,
          "time": 149.76744186044354,
          "velocity": 0.6220472440944882,
          "duration": 0.2209302325580893
        },
        {
          "name": "C6",
          "midi": 84,
          "time": 149.76744186044354,
          "velocity": 0.18110236220472442,
          "duration": 0.034883720930224626
        },
        {
          "name": "F4",
          "midi": 65,
          "time": 149.77906976742028,
          "velocity": 0.29133858267716534,
          "duration": 0.023255813953483084
        },
        {
          "name": "C#6",
          "midi": 85,
          "time": 149.77906976742028,
          "velocity": 0.18110236220472442,
          "duration": 0.05813953488370771
        },
        {
          "name": "C#4",
          "midi": 61,
          "time": 149.79069767439702,
          "velocity": 0.28346456692913385,
          "duration": 0.11627906976741542
        },
        {
          "name": "G#4",
          "midi": 68,
          "time": 149.79069767439702,
          "velocity": 0.5669291338582677,
          "duration": 0.4418604651161786
        },
        {
          "name": "C#5",
          "midi": 73,
          "time": 149.79069767439702,
          "velocity": 0.28346456692913385,
          "duration": 0.11627906976741542
        },
        {
          "name": "A6",
          "midi": 93,
          "time": 149.79069767439702,
          "velocity": 0.33070866141732286,
          "duration": 0.24418604651157239
        },
        {
          "name": "D7",
          "midi": 98,
          "time": 149.80232558137376,
          "velocity": 0.29133858267716534,
          "duration": 0.23255813953483084
        },
        {
          "name": "F4",
          "midi": 65,
          "time": 149.8139534883505,
          "velocity": 0.2677165354330709,
          "duration": 0.06976744186044925
        },
        {
          "name": "B5",
          "midi": 83,
          "time": 149.8139534883505,
          "velocity": 0.18110236220472442,
          "duration": 0.04651162790696617
        },
        {
          "name": "G7",
          "midi": 103,
          "time": 149.8139534883505,
          "velocity": 0.07874015748031496,
          "duration": 0.034883720930224626
        },
        {
          "name": "A#5",
          "midi": 82,
          "time": 149.82558139532725,
          "velocity": 0.4094488188976378,
          "duration": 0.0813953488371908
        },
        {
          "name": "G6",
          "midi": 91,
          "time": 149.82558139532725,
          "velocity": 0.2125984251968504,
          "duration": 0.04651162790696617
        },
        {
          "name": "E7",
          "midi": 100,
          "time": 149.82558139532725,
          "velocity": 0.1968503937007874,
          "duration": 0.279069767441797
        },
        {
          "name": "E6",
          "midi": 88,
          "time": 149.86046511625747,
          "velocity": 0.15748031496062992,
          "duration": 0.034883720930224626
        },
        {
          "name": "G7",
          "midi": 103,
          "time": 149.86046511625747,
          "velocity": 0.33858267716535434,
          "duration": 0.3837209302324709
        },
        {
          "name": "B6",
          "midi": 95,
          "time": 149.8720930232342,
          "velocity": 0.09448818897637795,
          "duration": 0.05813953488370771
        },
        {
          "name": "B5",
          "midi": 83,
          "time": 149.88372093021096,
          "velocity": 0.14173228346456693,
          "duration": 0.034883720930224626
        },
        {
          "name": "C5",
          "midi": 72,
          "time": 149.8953488371877,
          "velocity": 0.3228346456692913,
          "duration": 0.034883720930224626
        },
        {
          "name": "F#4",
          "midi": 66,
          "time": 149.90697674416444,
          "velocity": 0.4251968503937008,
          "duration": 0.034883720930224626
        },
        {
          "name": "D#5",
          "midi": 75,
          "time": 149.90697674416444,
          "velocity": 0.6535433070866141,
          "duration": 0.3837209302324709
        },
        {
          "name": "D6",
          "midi": 86,
          "time": 149.90697674416444,
          "velocity": 0.33070866141732286,
          "duration": 0.034883720930224626
        },
        {
          "name": "G6",
          "midi": 91,
          "time": 149.90697674416444,
          "velocity": 0.30708661417322836,
          "duration": 0.0813953488371908
        },
        {
          "name": "A#6",
          "midi": 94,
          "time": 149.90697674416444,
          "velocity": 0.5275590551181102,
          "duration": 0.37209302325572935
        },
        {
          "name": "C#4",
          "midi": 61,
          "time": 149.91860465114118,
          "velocity": 0.3779527559055118,
          "duration": 0.09302325581393234
        },
        {
          "name": "A#5",
          "midi": 82,
          "time": 149.91860465114118,
          "velocity": 0.2755905511811024,
          "duration": 0.06976744186044925
        },
        {
          "name": "C#5",
          "midi": 73,
          "time": 149.93023255811792,
          "velocity": 0.5196850393700787,
          "duration": 0.20930232558134776
        },
        {
          "name": "F4",
          "midi": 65,
          "time": 149.94186046509466,
          "velocity": 0.41732283464566927,
          "duration": 0.29069767441853855
        },
        {
          "name": "G#3",
          "midi": 56,
          "time": 149.9534883720714,
          "velocity": 0.41732283464566927,
          "duration": 0.05813953488370771
        },
        {
          "name": "F2",
          "midi": 41,
          "time": 149.9767441860249,
          "velocity": 0.2677165354330709,
          "duration": 0.2558139534883139
        },
        {
          "name": "C#7",
          "midi": 97,
          "time": 149.9767441860249,
          "velocity": 0.15748031496062992,
          "duration": 0.1627906976743816
        },
        {
          "name": "F5",
          "midi": 77,
          "time": 149.99999999997837,
          "velocity": 0.4330708661417323,
          "duration": 0.0813953488371908
        },
        {
          "name": "A#5",
          "midi": 82,
          "time": 149.99999999997837,
          "velocity": 0.1732283464566929,
          "duration": 0.10465116279067388
        },
        {
          "name": "G#3",
          "midi": 56,
          "time": 150.05813953486208,
          "velocity": 0.28346456692913385,
          "duration": 0.034883720930224626
        },
        {
          "name": "B6",
          "midi": 95,
          "time": 150.05813953486208,
          "velocity": 0.11811023622047244,
          "duration": 0.09302325581393234
        },
        {
          "name": "C#4",
          "midi": 61,
          "time": 150.06976744183882,
          "velocity": 0.16535433070866143,
          "duration": 0.034883720930224626
        },
        {
          "name": "G6",
          "midi": 91,
          "time": 150.06976744183882,
          "velocity": 0.23622047244094488,
          "duration": 0.0813953488371908
        },
        {
          "name": "A6",
          "midi": 93,
          "time": 150.08139534881556,
          "velocity": 0.10236220472440945,
          "duration": 0.04651162790696617
        },
        {
          "name": "F#7",
          "midi": 102,
          "time": 150.0930232557923,
          "velocity": 0.13385826771653545,
          "duration": 0.04651162790696617
        },
        {
          "name": "C#4",
          "midi": 61,
          "time": 150.12790697672253,
          "velocity": 0.31496062992125984,
          "duration": 0.023255813953483084
        },
        {
          "name": "B5",
          "midi": 83,
          "time": 150.12790697672253,
          "velocity": 0.13385826771653545,
          "duration": 0.034883720930224626
        },
        {
          "name": "F#6",
          "midi": 90,
          "time": 150.12790697672253,
          "velocity": 0.16535433070866143,
          "duration": 0.04651162790696617
        },
        {
          "name": "C5",
          "midi": 72,
          "time": 150.13953488369927,
          "velocity": 0.1889763779527559,
          "duration": 0.034883720930224626
        },
        {
          "name": "A5",
          "midi": 81,
          "time": 150.13953488369927,
          "velocity": 0.1732283464566929,
          "duration": 0.09302325581393234
        },
        {
          "name": "C6",
          "midi": 84,
          "time": 150.13953488369927,
          "velocity": 0.2440944881889764,
          "duration": 0.06976744186044925
        },
        {
          "name": "F3",
          "midi": 53,
          "time": 150.151162790676,
          "velocity": 0.4094488188976378,
          "duration": 0.0813953488371908
        },
        {
          "name": "C#4",
          "midi": 61,
          "time": 150.16279069765275,
          "velocity": 0.5433070866141733,
          "duration": 0.0813953488371908
        },
        {
          "name": "A#5",
          "midi": 82,
          "time": 150.19767441858298,
          "velocity": 0.18110236220472442,
          "duration": 0.034883720930224626
        },
        {
          "name": "G6",
          "midi": 91,
          "time": 150.19767441858298,
          "velocity": 0.14173228346456693,
          "duration": 0.1627906976743816
        },
        {
          "name": "F#7",
          "midi": 102,
          "time": 150.19767441858298,
          "velocity": 0.07086614173228346,
          "duration": 0.04651162790696617
        },
        {
          "name": "D6",
          "midi": 86,
          "time": 150.20930232555972,
          "velocity": 0.2047244094488189,
          "duration": 0.04651162790696617
        },
        {
          "name": "F#6",
          "midi": 90,
          "time": 150.20930232555972,
          "velocity": 0.14960629921259844,
          "duration": 0.05813953488370771
        },
        {
          "name": "C6",
          "midi": 84,
          "time": 150.22093023253646,
          "velocity": 0.2283464566929134,
          "duration": 0.06976744186044925
        },
        {
          "name": "C#7",
          "midi": 97,
          "time": 150.22093023253646,
          "velocity": 0.28346456692913385,
          "duration": 0.09302325581393234
        },
        {
          "name": "C#3",
          "midi": 49,
          "time": 150.2325581395132,
          "velocity": 0.6220472440944882,
          "duration": 0.011627906976741542
        },
        {
          "name": "G3",
          "midi": 55,
          "time": 150.2325581395132,
          "velocity": 0.5826771653543307,
          "duration": 0.011627906976741542
        },
        {
          "name": "F#4",
          "midi": 66,
          "time": 150.2325581395132,
          "velocity": 0.4251968503937008,
          "duration": 0.023255813953483084
        },
        {
          "name": "B4",
          "midi": 71,
          "time": 150.2325581395132,
          "velocity": 0.31496062992125984,
          "duration": 0.034883720930224626
        },
        {
          "name": "A2",
          "midi": 45,
          "time": 150.24418604648994,
          "velocity": 0.7401574803149606,
          "duration": 0.011627906976741542
        },
        {
          "name": "C4",
          "midi": 60,
          "time": 150.24418604648994,
          "velocity": 0.48031496062992124,
          "duration": 0.023255813953483084
        },
        {
          "name": "C#5",
          "midi": 73,
          "time": 150.24418604648994,
          "velocity": 0.5826771653543307,
          "duration": 1.3604651162787604
        },
        {
          "name": "F2",
          "midi": 41,
          "time": 150.25581395346669,
          "velocity": 0.7952755905511811,
          "duration": 0.011627906976741542
        },
        {
          "name": "G4",
          "midi": 67,
          "time": 150.25581395346669,
          "velocity": 0.2677165354330709,
          "duration": 0.04651162790696617
        },
        {
          "name": "D2",
          "midi": 38,
          "time": 150.26744186044343,
          "velocity": 0.7952755905511811,
          "duration": 0.011627906976741542
        },
        {
          "name": "D6",
          "midi": 86,
          "time": 150.26744186044343,
          "velocity": 0.08661417322834646,
          "duration": 0.034883720930224626
        },
        {
          "name": "A6",
          "midi": 93,
          "time": 150.26744186044343,
          "velocity": 0.08661417322834646,
          "duration": 0.0813953488371908
        },
        {
          "name": "C2",
          "midi": 36,
          "time": 150.27906976742017,
          "velocity": 0.8110236220472441,
          "duration": 0.011627906976741542
        },
        {
          "name": "F7",
          "midi": 101,
          "time": 150.27906976742017,
          "velocity": 0.36220472440944884,
          "duration": 1.0348837209299973
        },
        {
          "name": "B1",
          "midi": 35,
          "time": 150.2906976743969,
          "velocity": 0.8031496062992126,
          "duration": 0.011627906976741542
        },
        {
          "name": "F3",
          "midi": 53,
          "time": 150.2906976743969,
          "velocity": 0.41732283464566927,
          "duration": 0.023255813953483084
        },
        {
          "name": "A4",
          "midi": 69,
          "time": 150.2906976743969,
          "velocity": 0.2283464566929134,
          "duration": 0.04651162790696617
        },
        {
          "name": "E5",
          "midi": 76,
          "time": 150.2906976743969,
          "velocity": 0.2204724409448819,
          "duration": 0.0813953488371908
        },
        {
          "name": "B5",
          "midi": 83,
          "time": 150.2906976743969,
          "velocity": 0.2204724409448819,
          "duration": 0.1627906976743816
        },
        {
          "name": "A#6",
          "midi": 94,
          "time": 150.2906976743969,
          "velocity": 0.15748031496062992,
          "duration": 0.06976744186044925
        },
        {
          "name": "A#1",
          "midi": 34,
          "time": 150.30232558137365,
          "velocity": 0.7874015748031497,
          "duration": 0.011627906976741542
        },
        {
          "name": "A1",
          "midi": 33,
          "time": 150.3139534883504,
          "velocity": 0.7795275590551181,
          "duration": 0.011627906976741542
        },
        {
          "name": "F#4",
          "midi": 66,
          "time": 150.3139534883504,
          "velocity": 0.10236220472440945,
          "duration": 0.04651162790696617
        },
        {
          "name": "G#5",
          "midi": 80,
          "time": 150.3139534883504,
          "velocity": 0.33858267716535434,
          "duration": 0.17441860465112313
        },
        {
          "name": "G#1",
          "midi": 32,
          "time": 150.32558139532713,
          "velocity": 0.7795275590551181,
          "duration": 0.034883720930224626
        },
        {
          "name": "E3",
          "midi": 52,
          "time": 150.32558139532713,
          "velocity": 0.33858267716535434,
          "duration": 0.023255813953483084
        },
        {
          "name": "F#5",
          "midi": 78,
          "time": 150.32558139532713,
          "velocity": 0.16535433070866143,
          "duration": 0.04651162790696617
        },
        {
          "name": "C#7",
          "midi": 97,
          "time": 150.32558139532713,
          "velocity": 0.48031496062992124,
          "duration": 0.5697674418603356
        },
        {
          "name": "E7",
          "midi": 100,
          "time": 150.32558139532713,
          "velocity": 0.11811023622047244,
          "duration": 0.034883720930224626
        },
        {
          "name": "A#4",
          "midi": 70,
          "time": 150.33720930230388,
          "velocity": 0.2440944881889764,
          "duration": 0.023255813953483084
        },
        {
          "name": "F6",
          "midi": 89,
          "time": 150.34883720928062,
          "velocity": 0.07874015748031496,
          "duration": 0.04651162790696617
        },
        {
          "name": "G1",
          "midi": 31,
          "time": 150.36046511625736,
          "velocity": 0.7795275590551181,
          "duration": 0.034883720930224626
        },
        {
          "name": "D3",
          "midi": 50,
          "time": 150.36046511625736,
          "velocity": 0.3779527559055118,
          "duration": 0.034883720930224626
        },
        {
          "name": "F#4",
          "midi": 66,
          "time": 150.3720930232341,
          "velocity": 0.5118110236220472,
          "duration": 0.5232558139533694
        },
        {
          "name": "A#4",
          "midi": 70,
          "time": 150.3720930232341,
          "velocity": 0.44881889763779526,
          "duration": 0.39534883720921243
        },
        {
          "name": "D#5",
          "midi": 75,
          "time": 150.3720930232341,
          "velocity": 0.36220472440944884,
          "duration": 0.3837209302324709
        },
        {
          "name": "E6",
          "midi": 88,
          "time": 150.38372093021084,
          "velocity": 0.1732283464566929,
          "duration": 0.034883720930224626
        },
        {
          "name": "C7",
          "midi": 96,
          "time": 150.38372093021084,
          "velocity": 0.11811023622047244,
          "duration": 0.06976744186044925
        },
        {
          "name": "F#1",
          "midi": 30,
          "time": 150.39534883718758,
          "velocity": 0.7716535433070866,
          "duration": 0.11627906976741542
        },
        {
          "name": "C#3",
          "midi": 49,
          "time": 150.39534883718758,
          "velocity": 0.3858267716535433,
          "duration": 0.09302325581393234
        },
        {
          "name": "A6",
          "midi": 93,
          "time": 150.39534883718758,
          "velocity": 0.14173228346456693,
          "duration": 0.04651162790696617
        },
        {
          "name": "C#4",
          "midi": 61,
          "time": 150.40697674416433,
          "velocity": 0.44881889763779526,
          "duration": 0.09302325581393234
        },
        {
          "name": "D7",
          "midi": 98,
          "time": 150.40697674416433,
          "velocity": 0.13385826771653545,
          "duration": 0.06976744186044925
        },
        {
          "name": "F6",
          "midi": 89,
          "time": 150.41860465114107,
          "velocity": 0.41732283464566927,
          "duration": 0.48837209302314477
        },
        {
          "name": "E7",
          "midi": 100,
          "time": 150.41860465114107,
          "velocity": 0.10236220472440945,
          "duration": 0.10465116279067388
        },
        {
          "name": "A#6",
          "midi": 94,
          "time": 150.4302325581178,
          "velocity": 0.3700787401574803,
          "duration": 0.5348837209301109
        },
        {
          "name": "B6",
          "midi": 95,
          "time": 150.4302325581178,
          "velocity": 0.23622047244094488,
          "duration": 0.37209302325572935
        },
        {
          "name": "D#7",
          "midi": 99,
          "time": 150.4302325581178,
          "velocity": 0.14173228346456693,
          "duration": 0.034883720930224626
        },
        {
          "name": "F#3",
          "midi": 54,
          "time": 150.44186046509455,
          "velocity": 0.2992125984251969,
          "duration": 0.04651162790696617
        },
        {
          "name": "C7",
          "midi": 96,
          "time": 150.46511627904803,
          "velocity": 0.2283464566929134,
          "duration": 0.15116279069764005
        },
        {
          "name": "B5",
          "midi": 83,
          "time": 150.47674418602477,
          "velocity": 0.13385826771653545,
          "duration": 0.04651162790696617
        },
        {
          "name": "F#7",
          "midi": 102,
          "time": 150.48837209300152,
          "velocity": 0.31496062992125984,
          "duration": 0.558139534883594
        },
        {
          "name": "C4",
          "midi": 60,
          "time": 150.49999999997826,
          "velocity": 0.2204724409448819,
          "duration": 0.034883720930224626
        },
        {
          "name": "G#5",
          "midi": 80,
          "time": 150.49999999997826,
          "velocity": 0.30708661417322836,
          "duration": 0.06976744186044925
        },
        {
          "name": "D7",
          "midi": 98,
          "time": 150.49999999997826,
          "velocity": 0.3779527559055118,
          "duration": 0.5465116279068525
        },
        {
          "name": "D#7",
          "midi": 99,
          "time": 150.49999999997826,
          "velocity": 0.31496062992125984,
          "duration": 0.47674418604640323
        },
        {
          "name": "F1",
          "midi": 29,
          "time": 150.511627906955,
          "velocity": 0.7244094488188977,
          "duration": 0.023255813953483084
        },
        {
          "name": "G6",
          "midi": 91,
          "time": 150.511627906955,
          "velocity": 0.08661417322834646,
          "duration": 0.034883720930224626
        },
        {
          "name": "E6",
          "midi": 88,
          "time": 150.52325581393174,
          "velocity": 0.25984251968503935,
          "duration": 0.2209302325580893
        },
        {
          "name": "F#1",
          "midi": 30,
          "time": 150.53488372090848,
          "velocity": 0.7244094488188977,
          "duration": 0.3837209302324709
        },
        {
          "name": "C#4",
          "midi": 61,
          "time": 150.53488372090848,
          "velocity": 0.2677165354330709,
          "duration": 0.023255813953483084
        },
        {
          "name": "B5",
          "midi": 83,
          "time": 150.53488372090848,
          "velocity": 0.2283464566929134,
          "duration": 0.05813953488370771
        },
        {
          "name": "G7",
          "midi": 103,
          "time": 150.53488372090848,
          "velocity": 0.2047244094488189,
          "duration": 0.1627906976743816
        },
        {
          "name": "F#3",
          "midi": 54,
          "time": 150.54651162788522,
          "velocity": 0.25196850393700787,
          "duration": 0.023255813953483084
        },
        {
          "name": "A6",
          "midi": 93,
          "time": 150.55813953486197,
          "velocity": 0.1889763779527559,
          "duration": 0.04651162790696617
        },
        {
          "name": "C#3",
          "midi": 49,
          "time": 150.58139534881545,
          "velocity": 0.3937007874015748,
          "duration": 0.023255813953483084
        },
        {
          "name": "A#3",
          "midi": 58,
          "time": 150.58139534881545,
          "velocity": 0.49606299212598426,
          "duration": 0.10465116279067388
        },
        {
          "name": "G#5",
          "midi": 80,
          "time": 150.5930232557922,
          "velocity": 0.28346456692913385,
          "duration": 0.09302325581393234
        },
        {
          "name": "D6",
          "midi": 86,
          "time": 150.5930232557922,
          "velocity": 0.2755905511811024,
          "duration": 0.023255813953483084
        },
        {
          "name": "G6",
          "midi": 91,
          "time": 150.5930232557922,
          "velocity": 0.2992125984251969,
          "duration": 0.1627906976743816
        },
        {
          "name": "C6",
          "midi": 84,
          "time": 150.61627906974567,
          "velocity": 0.16535433070866143,
          "duration": 0.034883720930224626
        },
        {
          "name": "D6",
          "midi": 86,
          "time": 150.63953488369916,
          "velocity": 0.16535433070866143,
          "duration": 0.04651162790696617
        },
        {
          "name": "C#3",
          "midi": 49,
          "time": 150.6511627906759,
          "velocity": 0.4015748031496063,
          "duration": 0.023255813953483084
        },
        {
          "name": "A6",
          "midi": 93,
          "time": 150.66279069765264,
          "velocity": 0.13385826771653545,
          "duration": 0.034883720930224626
        },
        {
          "name": "C7",
          "midi": 96,
          "time": 150.66279069765264,
          "velocity": 0.13385826771653545,
          "duration": 0.034883720930224626
        },
        {
          "name": "C#4",
          "midi": 61,
          "time": 150.68604651160612,
          "velocity": 0.3543307086614173,
          "duration": 0.11627906976741542
        },
        {
          "name": "F5",
          "midi": 77,
          "time": 150.69767441858286,
          "velocity": 0.25196850393700787,
          "duration": 0.05813953488370771
        },
        {
          "name": "G#5",
          "midi": 80,
          "time": 150.69767441858286,
          "velocity": 0.2283464566929134,
          "duration": 0.06976744186044925
        },
        {
          "name": "C7",
          "midi": 96,
          "time": 150.7093023255596,
          "velocity": 0.13385826771653545,
          "duration": 0.04651162790696617
        },
        {
          "name": "B5",
          "midi": 83,
          "time": 150.72093023253635,
          "velocity": 0.09448818897637795,
          "duration": 0.05813953488370771
        },
        {
          "name": "D6",
          "midi": 86,
          "time": 150.7674418604433,
          "velocity": 0.23622047244094488,
          "duration": 0.0813953488371908
        },
        {
          "name": "E7",
          "midi": 100,
          "time": 150.7674418604433,
          "velocity": 0.1889763779527559,
          "duration": 0.10465116279067388
        },
        {
          "name": "A#4",
          "midi": 70,
          "time": 150.77906976742005,
          "velocity": 0.5354330708661418,
          "duration": 0.2209302325580893
        },
        {
          "name": "D#5",
          "midi": 75,
          "time": 150.7906976743968,
          "velocity": 0.25984251968503935,
          "duration": 0.10465116279067388
        },
        {
          "name": "G#5",
          "midi": 80,
          "time": 150.80232558137354,
          "velocity": 0.23622047244094488,
          "duration": 0.04651162790696617
        },
        {
          "name": "G6",
          "midi": 91,
          "time": 150.80232558137354,
          "velocity": 0.3228346456692913,
          "duration": 0.17441860465112313
        },
        {
          "name": "C#4",
          "midi": 61,
          "time": 150.81395348835028,
          "velocity": 0.25196850393700787,
          "duration": 0.0813953488371908
        },
        {
          "name": "E6",
          "midi": 88,
          "time": 150.81395348835028,
          "velocity": 0.12598425196850394,
          "duration": 0.04651162790696617
        },
        {
          "name": "B6",
          "midi": 95,
          "time": 150.81395348835028,
          "velocity": 0.23622047244094488,
          "duration": 0.1395348837208985
        },
        {
          "name": "D#6",
          "midi": 87,
          "time": 150.8488372092805,
          "velocity": 0.28346456692913385,
          "duration": 0.11627906976741542
        },
        {
          "name": "G#5",
          "midi": 80,
          "time": 150.86046511625725,
          "velocity": 0.3700787401574803,
          "duration": 0.034883720930224626
        },
        {
          "name": "A5",
          "midi": 81,
          "time": 150.872093023234,
          "velocity": 0.44881889763779526,
          "duration": 0.04651162790696617
        },
        {
          "name": "B5",
          "midi": 83,
          "time": 150.872093023234,
          "velocity": 0.2992125984251969,
          "duration": 0.0813953488371908
        },
        {
          "name": "E6",
          "midi": 88,
          "time": 150.88372093021073,
          "velocity": 0.2992125984251969,
          "duration": 0.19767441860460622
        },
        {
          "name": "F5",
          "midi": 77,
          "time": 150.89534883718747,
          "velocity": 0.23622047244094488,
          "duration": 0.023255813953483084
        },
        {
          "name": "C7",
          "midi": 96,
          "time": 150.89534883718747,
          "velocity": 0.2440944881889764,
          "duration": 0.15116279069764005
        },
        {
          "name": "E4",
          "midi": 64,
          "time": 150.9069767441642,
          "velocity": 0.25984251968503935,
          "duration": 0.034883720930224626
        },
        {
          "name": "G#5",
          "midi": 80,
          "time": 150.9069767441642,
          "velocity": 0.3228346456692913,
          "duration": 0.034883720930224626
        },
        {
          "name": "A5",
          "midi": 81,
          "time": 150.9302325581177,
          "velocity": 0.23622047244094488,
          "duration": 0.04651162790696617
        },
        {
          "name": "F6",
          "midi": 89,
          "time": 150.9302325581177,
          "velocity": 0.2047244094488189,
          "duration": 0.04651162790696617
        },
        {
          "name": "G#5",
          "midi": 80,
          "time": 150.96511627904792,
          "velocity": 0.23622047244094488,
          "duration": 0.04651162790696617
        },
        {
          "name": "B5",
          "midi": 83,
          "time": 150.96511627904792,
          "velocity": 0.18110236220472442,
          "duration": 0.11627906976741542
        },
        {
          "name": "D#6",
          "midi": 87,
          "time": 150.99999999997814,
          "velocity": 0.25984251968503935,
          "duration": 0.05813953488370771
        },
        {
          "name": "A5",
          "midi": 81,
          "time": 151.01162790695489,
          "velocity": 0.25196850393700787,
          "duration": 0.05813953488370771
        },
        {
          "name": "F6",
          "midi": 89,
          "time": 151.01162790695489,
          "velocity": 0.2125984251968504,
          "duration": 0.11627906976741542
        },
        {
          "name": "A#4",
          "midi": 70,
          "time": 151.02325581393163,
          "velocity": 0.2283464566929134,
          "duration": 0.034883720930224626
        },
        {
          "name": "A#6",
          "midi": 94,
          "time": 151.02325581393163,
          "velocity": 0.4566929133858268,
          "duration": 0.4651162790696617
        },
        {
          "name": "C#4",
          "midi": 61,
          "time": 151.03488372090837,
          "velocity": 0.5669291338582677,
          "duration": 0.26744186046505547
        },
        {
          "name": "G#4",
          "midi": 68,
          "time": 151.03488372090837,
          "velocity": 0.3858267716535433,
          "duration": 0.034883720930224626
        },
        {
          "name": "F5",
          "midi": 77,
          "time": 151.03488372090837,
          "velocity": 0.09448818897637795,
          "duration": 0.034883720930224626
        },
        {
          "name": "F#5",
          "midi": 78,
          "time": 151.05813953486185,
          "velocity": 0.2125984251968504,
          "duration": 0.034883720930224626
        },
        {
          "name": "G6",
          "midi": 91,
          "time": 151.05813953486185,
          "velocity": 0.2283464566929134,
          "duration": 0.05813953488370771
        },
        {
          "name": "F#2",
          "midi": 42,
          "time": 151.0697674418386,
          "velocity": 0.4251968503937008,
          "duration": 0.4651162790696617
        },
        {
          "name": "G4",
          "midi": 67,
          "time": 151.0697674418386,
          "velocity": 0.29133858267716534,
          "duration": 0.034883720930224626
        },
        {
          "name": "A4",
          "midi": 69,
          "time": 151.0697674418386,
          "velocity": 0.36220472440944884,
          "duration": 0.04651162790696617
        },
        {
          "name": "A#5",
          "midi": 82,
          "time": 151.0697674418386,
          "velocity": 0.4409448818897638,
          "duration": 0.19767441860460622
        },
        {
          "name": "D#6",
          "midi": 87,
          "time": 151.0697674418386,
          "velocity": 0.2992125984251969,
          "duration": 0.1395348837208985
        },
        {
          "name": "D#7",
          "midi": 99,
          "time": 151.0697674418386,
          "velocity": 0.3700787401574803,
          "duration": 0.48837209302314477
        },
        {
          "name": "F#4",
          "midi": 66,
          "time": 151.10465116276882,
          "velocity": 0.5590551181102362,
          "duration": 0.26744186046505547
        },
        {
          "name": "A6",
          "midi": 93,
          "time": 151.10465116276882,
          "velocity": 0.4330708661417323,
          "duration": 0.034883720930224626
        },
        {
          "name": "B6",
          "midi": 95,
          "time": 151.10465116276882,
          "velocity": 0.11811023622047244,
          "duration": 0.034883720930224626
        },
        {
          "name": "A#4",
          "midi": 70,
          "time": 151.11627906974556,
          "velocity": 0.5354330708661418,
          "duration": 0.12790697674415696
        },
        {
          "name": "C7",
          "midi": 96,
          "time": 151.11627906974556,
          "velocity": 0.1968503937007874,
          "duration": 0.09302325581393234
        },
        {
          "name": "E7",
          "midi": 100,
          "time": 151.11627906974556,
          "velocity": 0.1889763779527559,
          "duration": 0.19767441860460622
        },
        {
          "name": "G7",
          "midi": 103,
          "time": 151.11627906974556,
          "velocity": 0.11023622047244094,
          "duration": 0.06976744186044925
        },
        {
          "name": "F5",
          "midi": 77,
          "time": 151.1279069767223,
          "velocity": 0.29133858267716534,
          "duration": 0.06976744186044925
        },
        {
          "name": "G5",
          "midi": 79,
          "time": 151.1279069767223,
          "velocity": 0.11811023622047244,
          "duration": 0.04651162790696617
        },
        {
          "name": "D6",
          "midi": 86,
          "time": 151.1279069767223,
          "velocity": 0.2440944881889764,
          "duration": 0.04651162790696617
        },
        {
          "name": "G#6",
          "midi": 92,
          "time": 151.1279069767223,
          "velocity": 0.49606299212598426,
          "duration": 0.9767441860462895
        },
        {
          "name": "D7",
          "midi": 98,
          "time": 151.1279069767223,
          "velocity": 0.36220472440944884,
          "duration": 0.3255813953487632
        },
        {
          "name": "B5",
          "midi": 83,
          "time": 151.13953488369904,
          "velocity": 0.1968503937007874,
          "duration": 0.034883720930224626
        },
        {
          "name": "E6",
          "midi": 88,
          "time": 151.15116279067578,
          "velocity": 0.2755905511811024,
          "duration": 0.023255813953483084
        },
        {
          "name": "C6",
          "midi": 84,
          "time": 151.16279069765253,
          "velocity": 0.1889763779527559,
          "duration": 0.05813953488370771
        },
        {
          "name": "F6",
          "midi": 89,
          "time": 151.16279069765253,
          "velocity": 0.44881889763779526,
          "duration": 0.39534883720921243
        },
        {
          "name": "G6",
          "midi": 91,
          "time": 151.16279069765253,
          "velocity": 0.12598425196850394,
          "duration": 0.04651162790696617
        },
        {
          "name": "E5",
          "midi": 76,
          "time": 151.19767441858275,
          "velocity": 0.14960629921259844,
          "duration": 0.04651162790696617
        },
        {
          "name": "G#5",
          "midi": 80,
          "time": 151.19767441858275,
          "velocity": 0.4881889763779528,
          "duration": 0.37209302325572935
        },
        {
          "name": "D6",
          "midi": 86,
          "time": 151.2093023255595,
          "velocity": 0.3779527559055118,
          "duration": 0.0813953488371908
        },
        {
          "name": "G6",
          "midi": 91,
          "time": 151.22093023253623,
          "velocity": 0.2677165354330709,
          "duration": 0.034883720930224626
        },
        {
          "name": "F#7",
          "midi": 102,
          "time": 151.22093023253623,
          "velocity": 0.41732283464566927,
          "duration": 0.3372093023255047
        },
        {
          "name": "A6",
          "midi": 93,
          "time": 151.23255813951297,
          "velocity": 0.10236220472440945,
          "duration": 0.034883720930224626
        },
        {
          "name": "C7",
          "midi": 96,
          "time": 151.23255813951297,
          "velocity": 0.4251968503937008,
          "duration": 0.31395348837202164
        },
        {
          "name": "A4",
          "midi": 69,
          "time": 151.24418604648972,
          "velocity": 0.5433070866141733,
          "duration": 0.023255813953483084
        },
        {
          "name": "F5",
          "midi": 77,
          "time": 151.24418604648972,
          "velocity": 0.25196850393700787,
          "duration": 0.034883720930224626
        },
        {
          "name": "C6",
          "midi": 84,
          "time": 151.24418604648972,
          "velocity": 0.2755905511811024,
          "duration": 0.06976744186044925
        },
        {
          "name": "E6",
          "midi": 88,
          "time": 151.24418604648972,
          "velocity": 0.14960629921259844,
          "duration": 0.034883720930224626
        },
        {
          "name": "G#4",
          "midi": 68,
          "time": 151.25581395346646,
          "velocity": 0.5196850393700787,
          "duration": 0.04651162790696617
        },
        {
          "name": "D#6",
          "midi": 87,
          "time": 151.25581395346646,
          "velocity": 0.4881889763779528,
          "duration": 0.20930232558134776
        },
        {
          "name": "F#6",
          "midi": 90,
          "time": 151.25581395346646,
          "velocity": 0.25984251968503935,
          "duration": 0.10465116279067388
        },
        {
          "name": "B6",
          "midi": 95,
          "time": 151.25581395346646,
          "velocity": 0.16535433070866143,
          "duration": 0.0813953488371908
        },
        {
          "name": "G6",
          "midi": 91,
          "time": 151.2674418604432,
          "velocity": 0.23622047244094488,
          "duration": 0.11627906976741542
        },
        {
          "name": "A#5",
          "midi": 82,
          "time": 151.27906976741994,
          "velocity": 0.2204724409448819,
          "duration": 0.04651162790696617
        },
        {
          "name": "A#3",
          "midi": 58,
          "time": 151.29069767439668,
          "velocity": 0.44881889763779526,
          "duration": 0.1395348837208985
        },
        {
          "name": "C#4",
          "midi": 61,
          "time": 151.31395348835017,
          "velocity": 0.36220472440944884,
          "duration": 0.06976744186044925
        },
        {
          "name": "G#4",
          "midi": 68,
          "time": 151.3255813953269,
          "velocity": 0.5433070866141733,
          "duration": 0.20930232558134776
        },
        {
          "name": "F5",
          "midi": 77,
          "time": 151.3255813953269,
          "velocity": 0.2047244094488189,
          "duration": 0.04651162790696617
        },
        {
          "name": "B5",
          "midi": 83,
          "time": 151.33720930230365,
          "velocity": 0.1968503937007874,
          "duration": 0.05813953488370771
        },
        {
          "name": "A6",
          "midi": 93,
          "time": 151.33720930230365,
          "velocity": 0.1732283464566929,
          "duration": 0.04651162790696617
        },
        {
          "name": "E6",
          "midi": 88,
          "time": 151.36046511625713,
          "velocity": 0.2204724409448819,
          "duration": 0.04651162790696617
        },
        {
          "name": "F#5",
          "midi": 78,
          "time": 151.37209302323387,
          "velocity": 0.31496062992125984,
          "duration": 0.11627906976741542
        },
        {
          "name": "A#5",
          "midi": 82,
          "time": 151.38372093021061,
          "velocity": 0.30708661417322836,
          "duration": 0.15116279069764005
        },
        {
          "name": "B5",
          "midi": 83,
          "time": 151.41860465114084,
          "velocity": 0.16535433070866143,
          "duration": 0.05813953488370771
        },
        {
          "name": "A#3",
          "midi": 58,
          "time": 151.44186046509432,
          "velocity": 0.4881889763779528,
          "duration": 0.09302325581393234
        },
        {
          "name": "F5",
          "midi": 77,
          "time": 151.45348837207106,
          "velocity": 0.2992125984251969,
          "duration": 0.10465116279067388
        },
        {
          "name": "D6",
          "midi": 86,
          "time": 151.4883720930013,
          "velocity": 0.1968503937007874,
          "duration": 0.034883720930224626
        },
        {
          "name": "D#6",
          "midi": 87,
          "time": 151.49999999997803,
          "velocity": 0.2204724409448819,
          "duration": 0.06976744186044925
        },
        {
          "name": "B5",
          "midi": 83,
          "time": 151.5232558139315,
          "velocity": 0.2204724409448819,
          "duration": 0.04651162790696617
        },
        {
          "name": "A6",
          "midi": 93,
          "time": 151.5232558139315,
          "velocity": 0.11023622047244094,
          "duration": 0.05813953488370771
        },
        {
          "name": "F#3",
          "midi": 54,
          "time": 151.53488372090825,
          "velocity": 0.5433070866141733,
          "duration": 0.011627906976741542
        },
        {
          "name": "A3",
          "midi": 57,
          "time": 151.53488372090825,
          "velocity": 0.5275590551181102,
          "duration": 0.011627906976741542
        },
        {
          "name": "A#2",
          "midi": 46,
          "time": 151.546511627885,
          "velocity": 0.6929133858267716,
          "duration": 0.011627906976741542
        },
        {
          "name": "A#4",
          "midi": 70,
          "time": 151.546511627885,
          "velocity": 0.3464566929133858,
          "duration": 0.023255813953483084
        },
        {
          "name": "E6",
          "midi": 88,
          "time": 151.546511627885,
          "velocity": 0.1968503937007874,
          "duration": 0.06976744186044925
        },
        {
          "name": "F#2",
          "midi": 42,
          "time": 151.55813953486174,
          "velocity": 0.7716535433070866,
          "duration": 0.011627906976741542
        },
        {
          "name": "C4",
          "midi": 60,
          "time": 151.55813953486174,
          "velocity": 0.3937007874015748,
          "duration": 0.034883720930224626
        },
        {
          "name": "E5",
          "midi": 76,
          "time": 151.55813953486174,
          "velocity": 0.14960629921259844,
          "duration": 0.04651162790696617
        },
        {
          "name": "G7",
          "midi": 103,
          "time": 151.55813953486174,
          "velocity": 0.08661417322834646,
          "duration": 0.034883720930224626
        },
        {
          "name": "E2",
          "midi": 40,
          "time": 151.56976744183848,
          "velocity": 0.7716535433070866,
          "duration": 0.011627906976741542
        },
        {
          "name": "A5",
          "midi": 81,
          "time": 151.56976744183848,
          "velocity": 0.14173228346456693,
          "duration": 0.06976744186044925
        },
        {
          "name": "C#2",
          "midi": 37,
          "time": 151.58139534881522,
          "velocity": 0.8031496062992126,
          "duration": 0.011627906976741542
        },
        {
          "name": "F7",
          "midi": 101,
          "time": 151.58139534881522,
          "velocity": 0.25196850393700787,
          "duration": 0.24418604651157239
        },
        {
          "name": "B1",
          "midi": 35,
          "time": 151.59302325579196,
          "velocity": 0.8031496062992126,
          "duration": 0.011627906976741542
        },
        {
          "name": "F3",
          "midi": 53,
          "time": 151.59302325579196,
          "velocity": 0.49606299212598426,
          "duration": 0.034883720930224626
        },
        {
          "name": "C#4",
          "midi": 61,
          "time": 151.59302325579196,
          "velocity": 0.4330708661417323,
          "duration": 0.3023255813952801
        },
        {
          "name": "C5",
          "midi": 72,
          "time": 151.59302325579196,
          "velocity": 0.23622047244094488,
          "duration": 0.023255813953483084
        },
        {
          "name": "D6",
          "midi": 86,
          "time": 151.59302325579196,
          "velocity": 0.14173228346456693,
          "duration": 0.034883720930224626
        },
        {
          "name": "A#1",
          "midi": 34,
          "time": 151.6046511627687,
          "velocity": 0.7952755905511811,
          "duration": 0.011627906976741542
        },
        {
          "name": "G6",
          "midi": 91,
          "time": 151.6046511627687,
          "velocity": 0.15748031496062992,
          "duration": 0.034883720930224626
        },
        {
          "name": "A1",
          "midi": 33,
          "time": 151.61627906974545,
          "velocity": 0.7795275590551181,
          "duration": 0.011627906976741542
        },
        {
          "name": "G#1",
          "midi": 32,
          "time": 151.6279069767222,
          "velocity": 0.7795275590551181,
          "duration": 0.023255813953483084
        },
        {
          "name": "E3",
          "midi": 52,
          "time": 151.6279069767222,
          "velocity": 0.3779527559055118,
          "duration": 0.023255813953483084
        },
        {
          "name": "D#6",
          "midi": 87,
          "time": 151.6279069767222,
          "velocity": 0.3464566929133858,
          "duration": 0.18604651162786467
        },
        {
          "name": "D3",
          "midi": 50,
          "time": 151.63953488369893,
          "velocity": 0.36220472440944884,
          "duration": 0.023255813953483084
        },
        {
          "name": "G#4",
          "midi": 68,
          "time": 151.63953488369893,
          "velocity": 0.14173228346456693,
          "duration": 0.04651162790696617
        },
        {
          "name": "F5",
          "midi": 77,
          "time": 151.63953488369893,
          "velocity": 0.1968503937007874,
          "duration": 0.05813953488370771
        },
        {
          "name": "G#5",
          "midi": 80,
          "time": 151.63953488369893,
          "velocity": 0.4094488188976378,
          "duration": 0.34883720930224626
        },
        {
          "name": "G1",
          "midi": 31,
          "time": 151.65116279067567,
          "velocity": 0.7795275590551181,
          "duration": 0.06976744186044925
        },
        {
          "name": "F4",
          "midi": 65,
          "time": 151.65116279067567,
          "velocity": 0.23622047244094488,
          "duration": 0.1395348837208985
        },
        {
          "name": "C5",
          "midi": 72,
          "time": 151.65116279067567,
          "velocity": 0.23622047244094488,
          "duration": 0.023255813953483084
        },
        {
          "name": "E3",
          "midi": 52,
          "time": 151.6627906976524,
          "velocity": 0.3937007874015748,
          "duration": 0.023255813953483084
        },
        {
          "name": "F6",
          "midi": 89,
          "time": 151.6627906976524,
          "velocity": 0.4094488188976378,
          "duration": 0.5348837209301109
        },
        {
          "name": "C#5",
          "midi": 73,
          "time": 151.67441860462915,
          "velocity": 0.4645669291338583,
          "duration": 0.06976744186044925
        },
        {
          "name": "E6",
          "midi": 88,
          "time": 151.67441860462915,
          "velocity": 0.07874015748031496,
          "duration": 0.06976744186044925
        },
        {
          "name": "C3",
          "midi": 48,
          "time": 151.6860465116059,
          "velocity": 0.3464566929133858,
          "duration": 0.04651162790696617
        },
        {
          "name": "A4",
          "midi": 69,
          "time": 151.6860465116059,
          "velocity": 0.23622047244094488,
          "duration": 0.04651162790696617
        },
        {
          "name": "A#5",
          "midi": 82,
          "time": 151.6860465116059,
          "velocity": 0.1889763779527559,
          "duration": 0.04651162790696617
        },
        {
          "name": "F#5",
          "midi": 78,
          "time": 151.69767441858264,
          "velocity": 0.08661417322834646,
          "duration": 0.034883720930224626
        },
        {
          "name": "C7",
          "midi": 96,
          "time": 151.69767441858264,
          "velocity": 0.36220472440944884,
          "duration": 0.5930232558138187
        },
        {
          "name": "G#1",
          "midi": 32,
          "time": 151.72093023253612,
          "velocity": 0.5905511811023622,
          "duration": 0.034883720930224626
        },
        {
          "name": "D7",
          "midi": 98,
          "time": 151.72093023253612,
          "velocity": 0.14960629921259844,
          "duration": 0.04651162790696617
        },
        {
          "name": "G7",
          "midi": 103,
          "time": 151.72093023253612,
          "velocity": 0.09448818897637795,
          "duration": 0.04651162790696617
        },
        {
          "name": "G#4",
          "midi": 68,
          "time": 151.73255813951286,
          "velocity": 0.5433070866141733,
          "duration": 0.5116279069766279
        },
        {
          "name": "F5",
          "midi": 77,
          "time": 151.73255813951286,
          "velocity": 0.3543307086614173,
          "duration": 0.26744186046505547
        },
        {
          "name": "B5",
          "midi": 83,
          "time": 151.73255813951286,
          "velocity": 0.2283464566929134,
          "duration": 0.06976744186044925
        },
        {
          "name": "F#6",
          "midi": 90,
          "time": 151.73255813951286,
          "velocity": 0.12598425196850394,
          "duration": 0.034883720930224626
        },
        {
          "name": "G6",
          "midi": 91,
          "time": 151.73255813951286,
          "velocity": 0.31496062992125984,
          "duration": 0.19767441860460622
        },
        {
          "name": "A6",
          "midi": 93,
          "time": 151.73255813951286,
          "velocity": 0.2992125984251969,
          "duration": 0.1627906976743816
        },
        {
          "name": "G#3",
          "midi": 56,
          "time": 151.7441860464896,
          "velocity": 0.3464566929133858,
          "duration": 0.023255813953483084
        },
        {
          "name": "C5",
          "midi": 72,
          "time": 151.7441860464896,
          "velocity": 0.30708661417322836,
          "duration": 0.023255813953483084
        },
        {
          "name": "D#5",
          "midi": 75,
          "time": 151.7441860464896,
          "velocity": 0.29133858267716534,
          "duration": 0.1395348837208985
        },
        {
          "name": "A#6",
          "midi": 94,
          "time": 151.7441860464896,
          "velocity": 0.18110236220472442,
          "duration": 0.09302325581393234
        },
        {
          "name": "E7",
          "midi": 100,
          "time": 151.7441860464896,
          "velocity": 0.07086614173228346,
          "duration": 0.034883720930224626
        },
        {
          "name": "G1",
          "midi": 31,
          "time": 151.75581395346634,
          "velocity": 0.6535433070866141,
          "duration": 0.023255813953483084
        },
        {
          "name": "C#5",
          "midi": 73,
          "time": 151.75581395346634,
          "velocity": 0.4566929133858268,
          "duration": 0.06976744186044925
        },
        {
          "name": "G3",
          "midi": 55,
          "time": 151.76744186044309,
          "velocity": 0.4881889763779528,
          "duration": 0.023255813953483084
        },
        {
          "name": "F#1",
          "midi": 30,
          "time": 151.77906976741983,
          "velocity": 0.7165354330708661,
          "duration": 0.06976744186044925
        },
        {
          "name": "G#3",
          "midi": 56,
          "time": 151.79069767439657,
          "velocity": 0.5275590551181102,
          "duration": 0.05813953488370771
        },
        {
          "name": "B6",
          "midi": 95,
          "time": 151.79069767439657,
          "velocity": 0.28346456692913385,
          "duration": 0.17441860465112313
        },
        {
          "name": "F#4",
          "midi": 66,
          "time": 151.8023255813733,
          "velocity": 0.33858267716535434,
          "duration": 0.023255813953483084
        },
        {
          "name": "D6",
          "midi": 86,
          "time": 151.8023255813733,
          "velocity": 0.1968503937007874,
          "duration": 0.034883720930224626
        },
        {
          "name": "E7",
          "midi": 100,
          "time": 151.8023255813733,
          "velocity": 0.16535433070866143,
          "duration": 0.23255813953483084
        },
        {
          "name": "E6",
          "midi": 88,
          "time": 151.81395348835005,
          "velocity": 0.1889763779527559,
          "duration": 0.034883720930224626
        },
        {
          "name": "F#6",
          "midi": 90,
          "time": 151.81395348835005,
          "velocity": 0.15748031496062992,
          "duration": 0.04651162790696617
        },
        {
          "name": "F4",
          "midi": 65,
          "time": 151.8255813953268,
          "velocity": 0.4094488188976378,
          "duration": 0.1395348837208985
        },
        {
          "name": "C#5",
          "midi": 73,
          "time": 151.83720930230353,
          "velocity": 0.6220472440944882,
          "duration": 0.7209302325579756
        },
        {
          "name": "D#6",
          "midi": 87,
          "time": 151.83720930230353,
          "velocity": 0.29133858267716534,
          "duration": 0.47674418604640323
        },
        {
          "name": "F#7",
          "midi": 102,
          "time": 151.83720930230353,
          "velocity": 0.33858267716535434,
          "duration": 0.48837209302314477
        },
        {
          "name": "F1",
          "midi": 29,
          "time": 151.84883720928028,
          "velocity": 0.7244094488188977,
          "duration": 0.34883720930224626
        },
        {
          "name": "G#3",
          "midi": 56,
          "time": 151.86046511625702,
          "velocity": 0.4409448818897638,
          "duration": 0.04651162790696617
        },
        {
          "name": "C6",
          "midi": 84,
          "time": 151.86046511625702,
          "velocity": 0.33070866141732286,
          "duration": 0.12790697674415696
        },
        {
          "name": "A#6",
          "midi": 94,
          "time": 151.86046511625702,
          "velocity": 0.2283464566929134,
          "duration": 0.20930232558134776
        },
        {
          "name": "D7",
          "midi": 98,
          "time": 151.87209302323376,
          "velocity": 0.1889763779527559,
          "duration": 0.19767441860460622
        },
        {
          "name": "F#3",
          "midi": 54,
          "time": 151.90697674416398,
          "velocity": 0.4015748031496063,
          "duration": 0.023255813953483084
        },
        {
          "name": "E6",
          "midi": 88,
          "time": 151.91860465114073,
          "velocity": 0.2204724409448819,
          "duration": 0.10465116279067388
        },
        {
          "name": "G#3",
          "midi": 56,
          "time": 151.93023255811747,
          "velocity": 0.3937007874015748,
          "duration": 0.05813953488370771
        },
        {
          "name": "D#5",
          "midi": 75,
          "time": 151.93023255811747,
          "velocity": 0.31496062992125984,
          "duration": 0.034883720930224626
        },
        {
          "name": "D6",
          "midi": 86,
          "time": 151.93023255811747,
          "velocity": 0.25196850393700787,
          "duration": 0.06976744186044925
        },
        {
          "name": "A6",
          "midi": 93,
          "time": 151.93023255811747,
          "velocity": 0.2125984251968504,
          "duration": 0.2558139534883139
        },
        {
          "name": "C4",
          "midi": 60,
          "time": 151.9418604650942,
          "velocity": 0.3779527559055118,
          "duration": 0.023255813953483084
        },
        {
          "name": "G6",
          "midi": 91,
          "time": 151.9418604650942,
          "velocity": 0.18110236220472442,
          "duration": 0.04651162790696617
        },
        {
          "name": "F#6",
          "midi": 90,
          "time": 151.95348837207095,
          "velocity": 0.14960629921259844,
          "duration": 0.034883720930224626
        },
        {
          "name": "C#4",
          "midi": 61,
          "time": 151.9651162790477,
          "velocity": 0.3464566929133858,
          "duration": 0.05813953488370771
        },
        {
          "name": "F4",
          "midi": 65,
          "time": 151.97674418602443,
          "velocity": 0.33070866141732286,
          "duration": 0.0813953488371908
        },
        {
          "name": "G5",
          "midi": 79,
          "time": 151.97674418602443,
          "velocity": 0.25196850393700787,
          "duration": 0.023255813953483084
        },
        {
          "name": "A#5",
          "midi": 82,
          "time": 151.97674418602443,
          "velocity": 0.12598425196850394,
          "duration": 0.05813953488370771
        },
        {
          "name": "B6",
          "midi": 95,
          "time": 151.97674418602443,
          "velocity": 0.33070866141732286,
          "duration": 0.37209302325572935
        },
        {
          "name": "C3",
          "midi": 48,
          "time": 151.99999999997792,
          "velocity": 0.44881889763779526,
          "duration": 0.034883720930224626
        },
        {
          "name": "G#3",
          "midi": 56,
          "time": 151.99999999997792,
          "velocity": 0.29133858267716534,
          "duration": 0.034883720930224626
        },
        {
          "name": "E5",
          "midi": 76,
          "time": 151.99999999997792,
          "velocity": 0.23622047244094488,
          "duration": 0.023255813953483084
        },
        {
          "name": "C6",
          "midi": 84,
          "time": 151.99999999997792,
          "velocity": 0.3543307086614173,
          "duration": 0.0813953488371908
        },
        {
          "name": "F#6",
          "midi": 90,
          "time": 151.99999999997792,
          "velocity": 0.33858267716535434,
          "duration": 0.15116279069764005
        },
        {
          "name": "D#5",
          "midi": 75,
          "time": 152.0232558139314,
          "velocity": 0.30708661417322836,
          "duration": 0.023255813953483084
        },
        {
          "name": "G7",
          "midi": 103,
          "time": 152.0232558139314,
          "velocity": 0.1732283464566929,
          "duration": 0.05813953488370771
        },
        {
          "name": "A3",
          "midi": 57,
          "time": 152.03488372090814,
          "velocity": 0.28346456692913385,
          "duration": 0.023255813953483084
        },
        {
          "name": "F5",
          "midi": 77,
          "time": 152.03488372090814,
          "velocity": 0.4330708661417323,
          "duration": 0.23255813953483084
        },
        {
          "name": "A5",
          "midi": 81,
          "time": 152.03488372090814,
          "velocity": 0.2125984251968504,
          "duration": 0.0813953488371908
        },
        {
          "name": "G6",
          "midi": 91,
          "time": 152.03488372090814,
          "velocity": 0.15748031496062992,
          "duration": 0.04651162790696617
        },
        {
          "name": "C3",
          "midi": 48,
          "time": 152.04651162788488,
          "velocity": 0.4645669291338583,
          "duration": 0.1627906976743816
        },
        {
          "name": "G5",
          "midi": 79,
          "time": 152.04651162788488,
          "velocity": 0.2204724409448819,
          "duration": 0.034883720930224626
        },
        {
          "name": "C#4",
          "midi": 61,
          "time": 152.06976744183837,
          "velocity": 0.36220472440944884,
          "duration": 0.12790697674415696
        },
        {
          "name": "B5",
          "midi": 83,
          "time": 152.06976744183837,
          "velocity": 0.09448818897637795,
          "duration": 0.034883720930224626
        },
        {
          "name": "E6",
          "midi": 88,
          "time": 152.0813953488151,
          "velocity": 0.2125984251968504,
          "duration": 0.04651162790696617
        },
        {
          "name": "A#6",
          "midi": 94,
          "time": 152.0813953488151,
          "velocity": 0.11811023622047244,
          "duration": 0.034883720930224626
        },
        {
          "name": "G6",
          "midi": 91,
          "time": 152.09302325579185,
          "velocity": 0.30708661417322836,
          "duration": 0.10465116279067388
        },
        {
          "name": "C6",
          "midi": 84,
          "time": 152.11627906974533,
          "velocity": 0.36220472440944884,
          "duration": 0.0813953488371908
        },
        {
          "name": "G#6",
          "midi": 92,
          "time": 152.11627906974533,
          "velocity": 0.5196850393700787,
          "duration": 1.7558139534879729
        },
        {
          "name": "F4",
          "midi": 65,
          "time": 152.12790697672207,
          "velocity": 0.2677165354330709,
          "duration": 0.023255813953483084
        },
        {
          "name": "A5",
          "midi": 81,
          "time": 152.1627906976523,
          "velocity": 0.2755905511811024,
          "duration": 0.034883720930224626
        },
        {
          "name": "E6",
          "midi": 88,
          "time": 152.1627906976523,
          "velocity": 0.2992125984251969,
          "duration": 0.09302325581393234
        },
        {
          "name": "A#6",
          "midi": 94,
          "time": 152.1627906976523,
          "velocity": 0.2440944881889764,
          "duration": 0.11627906976741542
        },
        {
          "name": "F4",
          "midi": 65,
          "time": 152.17441860462904,
          "velocity": 0.4015748031496063,
          "duration": 0.034883720930224626
        },
        {
          "name": "D7",
          "midi": 98,
          "time": 152.17441860462904,
          "velocity": 0.36220472440944884,
          "duration": 0.06976744186044925
        },
        {
          "name": "B5",
          "midi": 83,
          "time": 152.18604651160578,
          "velocity": 0.33070866141732286,
          "duration": 0.11627906976741542
        },
        {
          "name": "D6",
          "midi": 86,
          "time": 152.18604651160578,
          "velocity": 0.33070866141732286,
          "duration": 0.04651162790696617
        },
        {
          "name": "F#6",
          "midi": 90,
          "time": 152.18604651160578,
          "velocity": 0.29133858267716534,
          "duration": 0.04651162790696617
        },
        {
          "name": "F#1",
          "midi": 30,
          "time": 152.19767441858252,
          "velocity": 0.6456692913385826,
          "duration": 0.023255813953483084
        },
        {
          "name": "G6",
          "midi": 91,
          "time": 152.20930232555926,
          "velocity": 0.14173228346456693,
          "duration": 0.06976744186044925
        },
        {
          "name": "A6",
          "midi": 93,
          "time": 152.20930232555926,
          "velocity": 0.2440944881889764,
          "duration": 0.0813953488371908
        },
        {
          "name": "D#1",
          "midi": 27,
          "time": 152.220930232536,
          "velocity": 0.33070866141732286,
          "duration": 0.023255813953483084
        },
        {
          "name": "C#4",
          "midi": 61,
          "time": 152.220930232536,
          "velocity": 0.3858267716535433,
          "duration": 0.3023255813952801
        },
        {
          "name": "G5",
          "midi": 79,
          "time": 152.220930232536,
          "velocity": 0.2440944881889764,
          "duration": 0.023255813953483084
        },
        {
          "name": "A5",
          "midi": 81,
          "time": 152.220930232536,
          "velocity": 0.1889763779527559,
          "duration": 0.034883720930224626
        },
        {
          "name": "C6",
          "midi": 84,
          "time": 152.2441860464895,
          "velocity": 0.10236220472440945,
          "duration": 0.034883720930224626
        },
        {
          "name": "F#6",
          "midi": 90,
          "time": 152.2441860464895,
          "velocity": 0.1968503937007874,
          "duration": 0.1395348837208985
        },
        {
          "name": "G#4",
          "midi": 68,
          "time": 152.26744186044297,
          "velocity": 0.4094488188976378,
          "duration": 0.11627906976741542
        },
        {
          "name": "D7",
          "midi": 98,
          "time": 152.2790697674197,
          "velocity": 0.29133858267716534,
          "duration": 0.39534883720921243
        },
        {
          "name": "E7",
          "midi": 100,
          "time": 152.2790697674197,
          "velocity": 0.07874015748031496,
          "duration": 0.034883720930224626
        },
        {
          "name": "D6",
          "midi": 86,
          "time": 152.29069767439645,
          "velocity": 0.1732283464566929,
          "duration": 0.034883720930224626
        },
        {
          "name": "G6",
          "midi": 91,
          "time": 152.3023255813732,
          "velocity": 0.2440944881889764,
          "duration": 0.29069767441853855
        },
        {
          "name": "B5",
          "midi": 83,
          "time": 152.31395348834994,
          "velocity": 0.2204724409448819,
          "duration": 0.09302325581393234
        },
        {
          "name": "D#7",
          "midi": 99,
          "time": 152.31395348834994,
          "velocity": 0.3700787401574803,
          "duration": 0.5465116279068525
        },
        {
          "name": "F3",
          "midi": 53,
          "time": 152.32558139532668,
          "velocity": 0.11811023622047244,
          "duration": 0.0813953488371908
        },
        {
          "name": "F#5",
          "midi": 78,
          "time": 152.32558139532668,
          "velocity": 0.07874015748031496,
          "duration": 0.04651162790696617
        },
        {
          "name": "A5",
          "midi": 81,
          "time": 152.32558139532668,
          "velocity": 0.2677165354330709,
          "duration": 0.06976744186044925
        },
        {
          "name": "D#6",
          "midi": 87,
          "time": 152.32558139532668,
          "velocity": 0.2283464566929134,
          "duration": 0.0813953488371908
        },
        {
          "name": "E7",
          "midi": 100,
          "time": 152.32558139532668,
          "velocity": 0.1732283464566929,
          "duration": 0.17441860465112313
        },
        {
          "name": "A#6",
          "midi": 94,
          "time": 152.33720930230342,
          "velocity": 0.4409448818897638,
          "duration": 0.24418604651157239
        },
        {
          "name": "E6",
          "midi": 88,
          "time": 152.3604651162569,
          "velocity": 0.14173228346456693,
          "duration": 0.0813953488371908
        },
        {
          "name": "D6",
          "midi": 86,
          "time": 152.37209302323365,
          "velocity": 0.1732283464566929,
          "duration": 0.04651162790696617
        },
        {
          "name": "F4",
          "midi": 65,
          "time": 152.3837209302104,
          "velocity": 0.4409448818897638,
          "duration": 0.06976744186044925
        },
        {
          "name": "A4",
          "midi": 69,
          "time": 152.3837209302104,
          "velocity": 0.36220472440944884,
          "duration": 0.05813953488370771
        },
        {
          "name": "F2",
          "midi": 41,
          "time": 152.39534883718713,
          "velocity": 0.11811023622047244,
          "duration": 0.09302325581393234
        },
        {
          "name": "G#5",
          "midi": 80,
          "time": 152.39534883718713,
          "velocity": 0.2440944881889764,
          "duration": 0.023255813953483084
        },
        {
          "name": "C6",
          "midi": 84,
          "time": 152.40697674416387,
          "velocity": 0.33070866141732286,
          "duration": 0.20930232558134776
        },
        {
          "name": "A#5",
          "midi": 82,
          "time": 152.4186046511406,
          "velocity": 0.3937007874015748,
          "duration": 0.023255813953483084
        },
        {
          "name": "D#6",
          "midi": 87,
          "time": 152.4186046511406,
          "velocity": 0.3779527559055118,
          "duration": 0.10465116279067388
        },
        {
          "name": "B5",
          "midi": 83,
          "time": 152.43023255811735,
          "velocity": 0.3779527559055118,
          "duration": 0.023255813953483084
        },
        {
          "name": "G#4",
          "midi": 68,
          "time": 152.4418604650941,
          "velocity": 0.3543307086614173,
          "duration": 0.023255813953483084
        },
        {
          "name": "A#4",
          "midi": 70,
          "time": 152.4418604650941,
          "velocity": 0.5590551181102362,
          "duration": 0.10465116279067388
        },
        {
          "name": "A5",
          "midi": 81,
          "time": 152.4418604650941,
          "velocity": 0.1889763779527559,
          "duration": 0.034883720930224626
        },
        {
          "name": "F#6",
          "midi": 90,
          "time": 152.4418604650941,
          "velocity": 0.25196850393700787,
          "duration": 0.06976744186044925
        },
        {
          "name": "F3",
          "midi": 53,
          "time": 152.45348837207084,
          "velocity": 0.2755905511811024,
          "duration": 0.06976744186044925
        },
        {
          "name": "E4",
          "midi": 64,
          "time": 152.45348837207084,
          "velocity": 0.30708661417322836,
          "duration": 0.023255813953483084
        },
        {
          "name": "F#5",
          "midi": 78,
          "time": 152.45348837207084,
          "velocity": 0.2440944881889764,
          "duration": 0.034883720930224626
        },
        {
          "name": "C7",
          "midi": 96,
          "time": 152.45348837207084,
          "velocity": 0.41732283464566927,
          "duration": 0.406976744185954
        },
        {
          "name": "A6",
          "midi": 93,
          "time": 152.46511627904758,
          "velocity": 0.2204724409448819,
          "duration": 0.034883720930224626
        },
        {
          "name": "F4",
          "midi": 65,
          "time": 152.47674418602432,
          "velocity": 0.5590551181102362,
          "duration": 0.2558139534883139
        },
        {
          "name": "F2",
          "midi": 41,
          "time": 152.4999999999778,
          "velocity": 0.2125984251968504,
          "duration": 0.24418604651157239
        },
        {
          "name": "G#5",
          "midi": 80,
          "time": 152.4999999999778,
          "velocity": 0.5118110236220472,
          "duration": 0.7674418604649418
        },
        {
          "name": "G#3",
          "midi": 56,
          "time": 152.52325581393129,
          "velocity": 0.4015748031496063,
          "duration": 0.034883720930224626
        },
        {
          "name": "D6",
          "midi": 86,
          "time": 152.52325581393129,
          "velocity": 0.33070866141732286,
          "duration": 0.04651162790696617
        },
        {
          "name": "F#7",
          "midi": 102,
          "time": 152.52325581393129,
          "velocity": 0.1732283464566929,
          "duration": 0.05813953488370771
        },
        {
          "name": "G#4",
          "midi": 68,
          "time": 152.53488372090803,
          "velocity": 0.6692913385826772,
          "duration": 0.31395348837202164
        },
        {
          "name": "D#5",
          "midi": 75,
          "time": 152.53488372090803,
          "velocity": 0.2992125984251969,
          "duration": 0.034883720930224626
        },
        {
          "name": "D#6",
          "midi": 87,
          "time": 152.53488372090803,
          "velocity": 0.5196850393700787,
          "duration": 0.3023255813952801
        },
        {
          "name": "C#4",
          "midi": 61,
          "time": 152.54651162788477,
          "velocity": 0.4251968503937008,
          "duration": 0.10465116279067388
        },
        {
          "name": "F#6",
          "midi": 90,
          "time": 152.54651162788477,
          "velocity": 0.25984251968503935,
          "duration": 0.23255813953483084
        },
        {
          "name": "F3",
          "midi": 53,
          "time": 152.5581395348615,
          "velocity": 0.31496062992125984,
          "duration": 0.023255813953483084
        },
        {
          "name": "A6",
          "midi": 93,
          "time": 152.5581395348615,
          "velocity": 0.14960629921259844,
          "duration": 0.05813953488370771
        },
        {
          "name": "D5",
          "midi": 74,
          "time": 152.56976744183825,
          "velocity": 0.33858267716535434,
          "duration": 0.034883720930224626
        },
        {
          "name": "C#6",
          "midi": 85,
          "time": 152.56976744183825,
          "velocity": 0.5118110236220472,
          "duration": 0.9186046511625818
        },
        {
          "name": "B6",
          "midi": 95,
          "time": 152.56976744183825,
          "velocity": 0.2204724409448819,
          "duration": 0.10465116279067388
        },
        {
          "name": "E7",
          "midi": 100,
          "time": 152.56976744183825,
          "velocity": 0.16535433070866143,
          "duration": 0.11627906976741542
        },
        {
          "name": "E6",
          "midi": 88,
          "time": 152.59302325579173,
          "velocity": 0.2992125984251969,
          "duration": 0.023255813953483084
        },
        {
          "name": "F#7",
          "midi": 102,
          "time": 152.59302325579173,
          "velocity": 0.41732283464566927,
          "duration": 0.19767441860460622
        },
        {
          "name": "G#3",
          "midi": 56,
          "time": 152.60465116276848,
          "velocity": 0.2283464566929134,
          "duration": 0.023255813953483084
        },
        {
          "name": "A#4",
          "midi": 70,
          "time": 152.60465116276848,
          "velocity": 0.25196850393700787,
          "duration": 0.023255813953483084
        },
        {
          "name": "C#5",
          "midi": 73,
          "time": 152.60465116276848,
          "velocity": 0.6456692913385826,
          "duration": 0.8488372093021326
        },
        {
          "name": "D#5",
          "midi": 75,
          "time": 152.60465116276848,
          "velocity": 0.30708661417322836,
          "duration": 0.034883720930224626
        },
        {
          "name": "B5",
          "midi": 83,
          "time": 152.61627906974522,
          "velocity": 0.13385826771653545,
          "duration": 0.034883720930224626
        },
        {
          "name": "C6",
          "midi": 84,
          "time": 152.62790697672196,
          "velocity": 0.28346456692913385,
          "duration": 0.24418604651157239
        },
        {
          "name": "A6",
          "midi": 93,
          "time": 152.62790697672196,
          "velocity": 0.15748031496062992,
          "duration": 0.05813953488370771
        },
        {
          "name": "G6",
          "midi": 91,
          "time": 152.6395348836987,
          "velocity": 0.1732283464566929,
          "duration": 0.06976744186044925
        },
        {
          "name": "F3",
          "midi": 53,
          "time": 152.66279069765218,
          "velocity": 0.23622047244094488,
          "duration": 0.06976744186044925
        },
        {
          "name": "C4",
          "midi": 60,
          "time": 152.66279069765218,
          "velocity": 0.2283464566929134,
          "duration": 0.06976744186044925
        },
        {
          "name": "D#5",
          "midi": 75,
          "time": 152.68604651160567,
          "velocity": 0.13385826771653545,
          "duration": 0.034883720930224626
        },
        {
          "name": "F7",
          "midi": 101,
          "time": 152.68604651160567,
          "velocity": 0.1889763779527559,
          "duration": 0.12790697674415696
        },
        {
          "name": "B5",
          "midi": 83,
          "time": 152.6976744185824,
          "velocity": 0.14960629921259844,
          "duration": 0.034883720930224626
        },
        {
          "name": "G#3",
          "midi": 56,
          "time": 152.7209302325359,
          "velocity": 0.3700787401574803,
          "duration": 0.023255813953483084
        },
        {
          "name": "A#5",
          "midi": 82,
          "time": 152.73255813951263,
          "velocity": 0.23622047244094488,
          "duration": 0.15116279069764005
        },
        {
          "name": "G3",
          "midi": 55,
          "time": 152.74418604648938,
          "velocity": 0.4409448818897638,
          "duration": 0.023255813953483084
        },
        {
          "name": "F4",
          "midi": 65,
          "time": 152.74418604648938,
          "velocity": 0.28346456692913385,
          "duration": 0.09302325581393234
        },
        {
          "name": "D#5",
          "midi": 75,
          "time": 152.74418604648938,
          "velocity": 0.3228346456692913,
          "duration": 0.023255813953483084
        },
        {
          "name": "F6",
          "midi": 89,
          "time": 152.74418604648938,
          "velocity": 0.2677165354330709,
          "duration": 0.17441860465112313
        },
        {
          "name": "F2",
          "midi": 41,
          "time": 152.75581395346612,
          "velocity": 0.1889763779527559,
          "duration": 0.0813953488371908
        },
        {
          "name": "C#4",
          "midi": 61,
          "time": 152.75581395346612,
          "velocity": 0.2755905511811024,
          "duration": 0.0813953488371908
        },
        {
          "name": "A6",
          "midi": 93,
          "time": 152.75581395346612,
          "velocity": 0.1732283464566929,
          "duration": 0.034883720930224626
        },
        {
          "name": "G3",
          "midi": 55,
          "time": 152.7790697674196,
          "velocity": 0.41732283464566927,
          "duration": 0.023255813953483084
        },
        {
          "name": "D#5",
          "midi": 75,
          "time": 152.7790697674196,
          "velocity": 0.2992125984251969,
          "duration": 0.06976744186044925
        },
        {
          "name": "F#6",
          "midi": 90,
          "time": 152.79069767439634,
          "velocity": 0.08661417322834646,
          "duration": 0.034883720930224626
        },
        {
          "name": "G#3",
          "midi": 56,
          "time": 152.80232558137308,
          "velocity": 0.44881889763779526,
          "duration": 0.034883720930224626
        },
        {
          "name": "A#4",
          "midi": 70,
          "time": 152.80232558137308,
          "velocity": 0.25984251968503935,
          "duration": 0.034883720930224626
        },
        {
          "name": "D7",
          "midi": 98,
          "time": 152.80232558137308,
          "velocity": 0.08661417322834646,
          "duration": 0.09302325581393234
        },
        {
          "name": "D6",
          "midi": 86,
          "time": 152.81395348834982,
          "velocity": 0.2125984251968504,
          "duration": 0.06976744186044925
        },
        {
          "name": "F#7",
          "midi": 102,
          "time": 152.81395348834982,
          "velocity": 0.10236220472440945,
          "duration": 0.04651162790696617
        },
        {
          "name": "G3",
          "midi": 55,
          "time": 152.8372093023033,
          "velocity": 0.5433070866141733,
          "duration": 0.011627906976741542
        },
        {
          "name": "E4",
          "midi": 64,
          "time": 152.8372093023033,
          "velocity": 0.3779527559055118,
          "duration": 0.023255813953483084
        },
        {
          "name": "B4",
          "midi": 71,
          "time": 152.8372093023033,
          "velocity": 0.3228346456692913,
          "duration": 0.023255813953483084
        },
        {
          "name": "C3",
          "midi": 48,
          "time": 152.84883720928005,
          "velocity": 0.6692913385826772,
          "duration": 0.011627906976741542
        },
        {
          "name": "G6",
          "midi": 91,
          "time": 152.84883720928005,
          "velocity": 0.1968503937007874,
          "duration": 0.0813953488371908
        },
        {
          "name": "G#2",
          "midi": 44,
          "time": 152.8604651162568,
          "velocity": 0.7401574803149606,
          "duration": 0.011627906976741542
        },
        {
          "name": "F4",
          "midi": 65,
          "time": 152.8604651162568,
          "velocity": 0.30708661417322836,
          "duration": 0.034883720930224626
        },
        {
          "name": "D#6",
          "midi": 87,
          "time": 152.8604651162568,
          "velocity": 0.1968503937007874,
          "duration": 0.034883720930224626
        },
        {
          "name": "F2",
          "midi": 41,
          "time": 152.87209302323353,
          "velocity": 0.7795275590551181,
          "duration": 0.011627906976741542
        },
        {
          "name": "F7",
          "midi": 101,
          "time": 152.87209302323353,
          "velocity": 0.33070866141732286,
          "duration": 0.7325581395347172
        },
        {
          "name": "C#2",
          "midi": 37,
          "time": 152.88372093021027,
          "velocity": 0.7952755905511811,
          "duration": 0.011627906976741542
        },
        {
          "name": "D#4",
          "midi": 63,
          "time": 152.88372093021027,
          "velocity": 0.3228346456692913,
          "duration": 0.034883720930224626
        },
        {
          "name": "A4",
          "midi": 69,
          "time": 152.88372093021027,
          "velocity": 0.31496062992125984,
          "duration": 0.06976744186044925
        },
        {
          "name": "C2",
          "midi": 36,
          "time": 152.89534883718702,
          "velocity": 0.7874015748031497,
          "duration": 0.011627906976741542
        },
        {
          "name": "G3",
          "midi": 55,
          "time": 152.89534883718702,
          "velocity": 0.31496062992125984,
          "duration": 0.023255813953483084
        },
        {
          "name": "A#5",
          "midi": 82,
          "time": 152.89534883718702,
          "velocity": 0.2204724409448819,
          "duration": 0.034883720930224626
        },
        {
          "name": "D6",
          "midi": 86,
          "time": 152.89534883718702,
          "velocity": 0.18110236220472442,
          "duration": 0.034883720930224626
        },
        {
          "name": "A#1",
          "midi": 34,
          "time": 152.90697674416376,
          "velocity": 0.7795275590551181,
          "duration": 0.011627906976741542
        },
        {
          "name": "E5",
          "midi": 76,
          "time": 152.90697674416376,
          "velocity": 0.09448818897637795,
          "duration": 0.04651162790696617
        },
        {
          "name": "E6",
          "midi": 88,
          "time": 152.90697674416376,
          "velocity": 0.16535433070866143,
          "duration": 0.1395348837208985
        },
        {
          "name": "A1",
          "midi": 33,
          "time": 152.9186046511405,
          "velocity": 0.7716535433070866,
          "duration": 0.023255813953483084
        },
        {
          "name": "C7",
          "midi": 96,
          "time": 152.9186046511405,
          "velocity": 0.09448818897637795,
          "duration": 0.034883720930224626
        },
        {
          "name": "D#4",
          "midi": 63,
          "time": 152.93023255811724,
          "velocity": 0.14960629921259844,
          "duration": 0.034883720930224626
        },
        {
          "name": "D#6",
          "midi": 87,
          "time": 152.93023255811724,
          "velocity": 0.14173228346456693,
          "duration": 0.0813953488371908
        },
        {
          "name": "G#1",
          "midi": 32,
          "time": 152.94186046509398,
          "velocity": 0.7795275590551181,
          "duration": 0.034883720930224626
        },
        {
          "name": "F3",
          "midi": 53,
          "time": 152.94186046509398,
          "velocity": 0.4094488188976378,
          "duration": 0.023255813953483084
        },
        {
          "name": "F#5",
          "midi": 78,
          "time": 152.94186046509398,
          "velocity": 0.14173228346456693,
          "duration": 0.04651162790696617
        },
        {
          "name": "F#6",
          "midi": 90,
          "time": 152.94186046509398,
          "velocity": 0.14960629921259844,
          "duration": 0.0813953488371908
        },
        {
          "name": "A#4",
          "midi": 70,
          "time": 152.96511627904746,
          "velocity": 0.1968503937007874,
          "duration": 0.10465116279067388
        },
        {
          "name": "A6",
          "midi": 93,
          "time": 152.96511627904746,
          "velocity": 0.15748031496062992,
          "duration": 0.12790697674415696
        },
        {
          "name": "B6",
          "midi": 95,
          "time": 152.96511627904746,
          "velocity": 0.2283464566929134,
          "duration": 0.26744186046505547
        },
        {
          "name": "G1",
          "midi": 31,
          "time": 152.9767441860242,
          "velocity": 0.7795275590551181,
          "duration": 0.034883720930224626
        },
        {
          "name": "E5",
          "midi": 76,
          "time": 152.9767441860242,
          "velocity": 0.14173228346456693,
          "duration": 0.0813953488371908
        },
        {
          "name": "A#5",
          "midi": 82,
          "time": 152.9767441860242,
          "velocity": 0.3464566929133858,
          "duration": 0.279069767441797
        },
        {
          "name": "D7",
          "midi": 98,
          "time": 152.9767441860242,
          "velocity": 0.1968503937007874,
          "duration": 0.10465116279067388
        },
        {
          "name": "B5",
          "midi": 83,
          "time": 152.98837209300095,
          "velocity": 0.14960629921259844,
          "duration": 0.034883720930224626
        },
        {
          "name": "C#3",
          "midi": 49,
          "time": 152.9999999999777,
          "velocity": 0.3700787401574803,
          "duration": 0.05813953488370771
        },
        {
          "name": "D#7",
          "midi": 99,
          "time": 152.9999999999777,
          "velocity": 0.16535433070866143,
          "duration": 0.279069767441797
        },
        {
          "name": "F#1",
          "midi": 30,
          "time": 153.01162790695443,
          "velocity": 0.7716535433070866,
          "duration": 0.11627906976741542
        },
        {
          "name": "F#5",
          "midi": 78,
          "time": 153.01162790695443,
          "velocity": 0.2677165354330709,
          "duration": 0.05813953488370771
        },
        {
          "name": "F#4",
          "midi": 66,
          "time": 153.02325581393117,
          "velocity": 0.5196850393700787,
          "duration": 0.48837209302314477
        },
        {
          "name": "D6",
          "midi": 86,
          "time": 153.02325581393117,
          "velocity": 0.12598425196850394,
          "duration": 0.034883720930224626
        },
        {
          "name": "F6",
          "midi": 89,
          "time": 153.0348837209079,
          "velocity": 0.33858267716535434,
          "duration": 0.19767441860460622
        },
        {
          "name": "D#6",
          "midi": 87,
          "time": 153.04651162788466,
          "velocity": 0.18110236220472442,
          "duration": 0.05813953488370771
        },
        {
          "name": "F#6",
          "midi": 90,
          "time": 153.04651162788466,
          "velocity": 0.31496062992125984,
          "duration": 0.20930232558134776
        },
        {
          "name": "F5",
          "midi": 77,
          "time": 153.0581395348614,
          "velocity": 0.3464566929133858,
          "duration": 0.034883720930224626
        },
        {
          "name": "E6",
          "midi": 88,
          "time": 153.0581395348614,
          "velocity": 0.14173228346456693,
          "duration": 0.11627906976741542
        },
        {
          "name": "C#3",
          "midi": 49,
          "time": 153.06976744183814,
          "velocity": 0.3700787401574803,
          "duration": 0.023255813953483084
        },
        {
          "name": "A#6",
          "midi": 94,
          "time": 153.06976744183814,
          "velocity": 0.3779527559055118,
          "duration": 0.4999999999998863
        },
        {
          "name": "A#3",
          "midi": 58,
          "time": 153.08139534881488,
          "velocity": 0.4330708661417323,
          "duration": 0.10465116279067388
        },
        {
          "name": "C#4",
          "midi": 61,
          "time": 153.09302325579162,
          "velocity": 0.2992125984251969,
          "duration": 0.04651162790696617
        },
        {
          "name": "A#4",
          "midi": 70,
          "time": 153.09302325579162,
          "velocity": 0.5511811023622047,
          "duration": 0.4186046511626955
        },
        {
          "name": "F#7",
          "midi": 102,
          "time": 153.1162790697451,
          "velocity": 0.3228346456692913,
          "duration": 0.4999999999998863
        },
        {
          "name": "F1",
          "midi": 29,
          "time": 153.12790697672185,
          "velocity": 0.7165354330708661,
          "duration": 0.023255813953483084
        },
        {
          "name": "C7",
          "midi": 96,
          "time": 153.12790697672185,
          "velocity": 0.18110236220472442,
          "duration": 0.12790697674415696
        },
        {
          "name": "D#6",
          "midi": 87,
          "time": 153.1395348836986,
          "velocity": 0.2440944881889764,
          "duration": 0.06976744186044925
        },
        {
          "name": "F#1",
          "midi": 30,
          "time": 153.15116279067533,
          "velocity": 0.7165354330708661,
          "duration": 0.37209302325572935
        },
        {
          "name": "G7",
          "midi": 103,
          "time": 153.15116279067533,
          "velocity": 0.18110236220472442,
          "duration": 0.034883720930224626
        },
        {
          "name": "D7",
          "midi": 98,
          "time": 153.16279069765207,
          "velocity": 0.3228346456692913,
          "duration": 0.5465116279068525
        },
        {
          "name": "E7",
          "midi": 100,
          "time": 153.16279069765207,
          "velocity": 0.16535433070866143,
          "duration": 0.0813953488371908
        },
        {
          "name": "C#4",
          "midi": 61,
          "time": 153.1744186046288,
          "velocity": 0.3228346456692913,
          "duration": 0.034883720930224626
        },
        {
          "name": "D#5",
          "midi": 75,
          "time": 153.1744186046288,
          "velocity": 0.1968503937007874,
          "duration": 0.04651162790696617
        },
        {
          "name": "D6",
          "midi": 86,
          "time": 153.18604651160555,
          "velocity": 0.2125984251968504,
          "duration": 0.04651162790696617
        },
        {
          "name": "A#3",
          "midi": 58,
          "time": 153.1976744185823,
          "velocity": 0.3464566929133858,
          "duration": 0.05813953488370771
        },
        {
          "name": "E6",
          "midi": 88,
          "time": 153.1976744185823,
          "velocity": 0.1968503937007874,
          "duration": 0.1395348837208985
        },
        {
          "name": "B5",
          "midi": 83,
          "time": 153.22093023253578,
          "velocity": 0.16535433070866143,
          "duration": 0.04651162790696617
        },
        {
          "name": "G6",
          "midi": 91,
          "time": 153.22093023253578,
          "velocity": 0.1889763779527559,
          "duration": 0.04651162790696617
        },
        {
          "name": "F5",
          "midi": 77,
          "time": 153.23255813951252,
          "velocity": 0.2677165354330709,
          "duration": 0.0813953488371908
        },
        {
          "name": "D#6",
          "midi": 87,
          "time": 153.23255813951252,
          "velocity": 0.11811023622047244,
          "duration": 0.034883720930224626
        },
        {
          "name": "C#3",
          "midi": 49,
          "time": 153.24418604648926,
          "velocity": 0.4251968503937008,
          "duration": 0.023255813953483084
        },
        {
          "name": "F6",
          "midi": 89,
          "time": 153.24418604648926,
          "velocity": 0.3700787401574803,
          "duration": 0.0813953488371908
        },
        {
          "name": "C6",
          "midi": 84,
          "time": 153.255813953466,
          "velocity": 0.31496062992125984,
          "duration": 0.034883720930224626
        },
        {
          "name": "B6",
          "midi": 95,
          "time": 153.255813953466,
          "velocity": 0.1968503937007874,
          "duration": 0.11627906976741542
        },
        {
          "name": "F#6",
          "midi": 90,
          "time": 153.26744186044274,
          "velocity": 0.28346456692913385,
          "duration": 0.1395348837208985
        },
        {
          "name": "C#3",
          "midi": 49,
          "time": 153.2790697674195,
          "velocity": 0.4409448818897638,
          "duration": 0.06976744186044925
        },
        {
          "name": "A#3",
          "midi": 58,
          "time": 153.2790697674195,
          "velocity": 0.23622047244094488,
          "duration": 0.023255813953483084
        },
        {
          "name": "G#5",
          "midi": 80,
          "time": 153.29069767439623,
          "velocity": 0.4015748031496063,
          "duration": 0.2209302325580893
        },
        {
          "name": "D6",
          "midi": 86,
          "time": 153.29069767439623,
          "velocity": 0.2125984251968504,
          "duration": 0.04651162790696617
        },
        {
          "name": "C6",
          "midi": 84,
          "time": 153.3139534883497,
          "velocity": 0.13385826771653545,
          "duration": 0.034883720930224626
        },
        {
          "name": "F6",
          "midi": 89,
          "time": 153.3372093023032,
          "velocity": 0.4251968503937008,
          "duration": 0.17441860465112313
        },
        {
          "name": "D#7",
          "midi": 99,
          "time": 153.3372093023032,
          "velocity": 0.2755905511811024,
          "duration": 0.279069767441797
        },
        {
          "name": "C7",
          "midi": 96,
          "time": 153.34883720927994,
          "velocity": 0.1889763779527559,
          "duration": 0.10465116279067388
        },
        {
          "name": "C#3",
          "midi": 49,
          "time": 153.36046511625668,
          "velocity": 0.41732283464566927,
          "duration": 0.05813953488370771
        },
        {
          "name": "D#6",
          "midi": 87,
          "time": 153.37209302323342,
          "velocity": 0.18110236220472442,
          "duration": 0.04651162790696617
        },
        {
          "name": "A#3",
          "midi": 58,
          "time": 153.38372093021016,
          "velocity": 0.2755905511811024,
          "duration": 0.04651162790696617
        },
        {
          "name": "A6",
          "midi": 93,
          "time": 153.38372093021016,
          "velocity": 0.15748031496062992,
          "duration": 0.04651162790696617
        },
        {
          "name": "E6",
          "midi": 88,
          "time": 153.3953488371869,
          "velocity": 0.1732283464566929,
          "duration": 0.0813953488371908
        },
        {
          "name": "E5",
          "midi": 76,
          "time": 153.41860465114038,
          "velocity": 0.09448818897637795,
          "duration": 0.034883720930224626
        },
        {
          "name": "B6",
          "midi": 95,
          "time": 153.41860465114038,
          "velocity": 0.2283464566929134,
          "duration": 0.3372093023255047
        },
        {
          "name": "B5",
          "midi": 83,
          "time": 153.43023255811713,
          "velocity": 0.10236220472440945,
          "duration": 0.04651162790696617
        },
        {
          "name": "D6",
          "midi": 86,
          "time": 153.44186046509387,
          "velocity": 0.3228346456692913,
          "duration": 0.0813953488371908
        },
        {
          "name": "G6",
          "midi": 91,
          "time": 153.44186046509387,
          "velocity": 0.30708661417322836,
          "duration": 0.18604651162786467
        },
        {
          "name": "C#5",
          "midi": 73,
          "time": 153.4767441860241,
          "velocity": 0.33858267716535434,
          "duration": 0.023255813953483084
        },
        {
          "name": "E5",
          "midi": 76,
          "time": 153.4767441860241,
          "velocity": 0.23622047244094488,
          "duration": 0.034883720930224626
        },
        {
          "name": "A5",
          "midi": 81,
          "time": 153.4767441860241,
          "velocity": 0.2283464566929134,
          "duration": 0.023255813953483084
        },
        {
          "name": "E7",
          "midi": 100,
          "time": 153.4767441860241,
          "velocity": 0.2677165354330709,
          "duration": 0.24418604651157239
        },
        {
          "name": "D3",
          "midi": 50,
          "time": 153.48837209300083,
          "velocity": 0.3937007874015748,
          "duration": 0.034883720930224626
        },
        {
          "name": "B5",
          "midi": 83,
          "time": 153.48837209300083,
          "velocity": 0.2992125984251969,
          "duration": 0.06976744186044925
        },
        {
          "name": "E6",
          "midi": 88,
          "time": 153.48837209300083,
          "velocity": 0.25196850393700787,
          "duration": 0.1395348837208985
        },
        {
          "name": "C7",
          "midi": 96,
          "time": 153.48837209300083,
          "velocity": 0.2283464566929134,
          "duration": 0.05813953488370771
        },
        {
          "name": "G#4",
          "midi": 68,
          "time": 153.49999999997758,
          "velocity": 0.5354330708661418,
          "duration": 0.023255813953483084
        },
        {
          "name": "C5",
          "midi": 72,
          "time": 153.49999999997758,
          "velocity": 0.31496062992125984,
          "duration": 0.023255813953483084
        },
        {
          "name": "A#3",
          "midi": 58,
          "time": 153.51162790695432,
          "velocity": 0.2204724409448819,
          "duration": 0.04651162790696617
        },
        {
          "name": "C#5",
          "midi": 73,
          "time": 153.51162790695432,
          "velocity": 0.5590551181102362,
          "duration": 0.2558139534883139
        },
        {
          "name": "F5",
          "midi": 77,
          "time": 153.51162790695432,
          "velocity": 0.18110236220472442,
          "duration": 0.04651162790696617
        },
        {
          "name": "A5",
          "midi": 81,
          "time": 153.51162790695432,
          "velocity": 0.4409448818897638,
          "duration": 0.06976744186044925
        },
        {
          "name": "D#6",
          "midi": 87,
          "time": 153.51162790695432,
          "velocity": 0.31496062992125984,
          "duration": 0.023255813953483084
        },
        {
          "name": "A#4",
          "midi": 70,
          "time": 153.52325581393106,
          "velocity": 0.41732283464566927,
          "duration": 0.0813953488371908
        },
        {
          "name": "F6",
          "midi": 89,
          "time": 153.52325581393106,
          "velocity": 0.2992125984251969,
          "duration": 0.0813953488371908
        },
        {
          "name": "F#4",
          "midi": 66,
          "time": 153.54651162788454,
          "velocity": 0.13385826771653545,
          "duration": 0.034883720930224626
        },
        {
          "name": "F#5",
          "midi": 78,
          "time": 153.54651162788454,
          "velocity": 0.15748031496062992,
          "duration": 0.034883720930224626
        },
        {
          "name": "G#5",
          "midi": 80,
          "time": 153.54651162788454,
          "velocity": 0.25196850393700787,
          "duration": 0.0813953488371908
        },
        {
          "name": "C#4",
          "midi": 61,
          "time": 153.56976744183802,
          "velocity": 0.2755905511811024,
          "duration": 0.2558139534883139
        },
        {
          "name": "D#6",
          "midi": 87,
          "time": 153.56976744183802,
          "velocity": 0.11023622047244094,
          "duration": 0.034883720930224626
        },
        {
          "name": "D6",
          "midi": 86,
          "time": 153.58139534881477,
          "velocity": 0.1889763779527559,
          "duration": 0.05813953488370771
        },
        {
          "name": "F#3",
          "midi": 54,
          "time": 153.5930232557915,
          "velocity": 0.15748031496062992,
          "duration": 0.1627906976743816
        },
        {
          "name": "B5",
          "midi": 83,
          "time": 153.5930232557915,
          "velocity": 0.2047244094488189,
          "duration": 0.10465116279067388
        },
        {
          "name": "A#6",
          "midi": 94,
          "time": 153.5930232557915,
          "velocity": 0.41732283464566927,
          "duration": 0.3604651162789878
        },
        {
          "name": "C7",
          "midi": 96,
          "time": 153.5930232557915,
          "velocity": 0.13385826771653545,
          "duration": 0.04651162790696617
        },
        {
          "name": "A#5",
          "midi": 82,
          "time": 153.60465116276825,
          "velocity": 0.18110236220472442,
          "duration": 0.04651162790696617
        },
        {
          "name": "F#2",
          "midi": 42,
          "time": 153.616279069745,
          "velocity": 0.29133858267716534,
          "duration": 0.2558139534883139
        },
        {
          "name": "A#4",
          "midi": 70,
          "time": 153.616279069745,
          "velocity": 0.23622047244094488,
          "duration": 0.034883720930224626
        },
        {
          "name": "A5",
          "midi": 81,
          "time": 153.616279069745,
          "velocity": 0.2992125984251969,
          "duration": 0.0813953488371908
        },
        {
          "name": "F#5",
          "midi": 78,
          "time": 153.62790697672173,
          "velocity": 0.30708661417322836,
          "duration": 0.19767441860460622
        },
        {
          "name": "D#6",
          "midi": 87,
          "time": 153.62790697672173,
          "velocity": 0.5118110236220472,
          "duration": 0.26744186046505547
        },
        {
          "name": "F6",
          "midi": 89,
          "time": 153.62790697672173,
          "velocity": 0.2283464566929134,
          "duration": 0.09302325581393234
        },
        {
          "name": "F7",
          "midi": 101,
          "time": 153.62790697672173,
          "velocity": 0.2440944881889764,
          "duration": 0.1395348837208985
        },
        {
          "name": "G5",
          "midi": 79,
          "time": 153.65116279067522,
          "velocity": 0.1889763779527559,
          "duration": 0.04651162790696617
        },
        {
          "name": "G7",
          "midi": 103,
          "time": 153.65116279067522,
          "velocity": 0.09448818897637795,
          "duration": 0.034883720930224626
        },
        {
          "name": "G#4",
          "midi": 68,
          "time": 153.66279069765196,
          "velocity": 0.3779527559055118,
          "duration": 0.023255813953483084
        },
        {
          "name": "A#5",
          "midi": 82,
          "time": 153.6744186046287,
          "velocity": 0.3228346456692913,
          "duration": 0.05813953488370771
        },
        {
          "name": "E6",
          "midi": 88,
          "time": 153.6744186046287,
          "velocity": 0.1968503937007874,
          "duration": 0.034883720930224626
        },
        {
          "name": "A4",
          "midi": 69,
          "time": 153.68604651160544,
          "velocity": 0.3779527559055118,
          "duration": 0.023255813953483084
        },
        {
          "name": "G6",
          "midi": 91,
          "time": 153.68604651160544,
          "velocity": 0.25984251968503935,
          "duration": 0.023255813953483084
        },
        {
          "name": "C7",
          "midi": 96,
          "time": 153.68604651160544,
          "velocity": 0.12598425196850394,
          "duration": 0.034883720930224626
        },
        {
          "name": "G#5",
          "midi": 80,
          "time": 153.69767441858218,
          "velocity": 0.28346456692913385,
          "duration": 0.023255813953483084
        },
        {
          "name": "A5",
          "midi": 81,
          "time": 153.70930232555892,
          "velocity": 0.2204724409448819,
          "duration": 0.0813953488371908
        },
        {
          "name": "A6",
          "midi": 93,
          "time": 153.70930232555892,
          "velocity": 0.33070866141732286,
          "duration": 0.034883720930224626
        },
        {
          "name": "F#4",
          "midi": 66,
          "time": 153.72093023253566,
          "velocity": 0.5826771653543307,
          "duration": 0.31395348837202164
        },
        {
          "name": "A#4",
          "midi": 70,
          "time": 153.72093023253566,
          "velocity": 0.3464566929133858,
          "duration": 0.279069767441797
        },
        {
          "name": "G6",
          "midi": 91,
          "time": 153.72093023253566,
          "velocity": 0.4645669291338583,
          "duration": 0.20930232558134776
        },
        {
          "name": "D7",
          "midi": 98,
          "time": 153.72093023253566,
          "velocity": 0.16535433070866143,
          "duration": 0.05813953488370771
        },
        {
          "name": "D#5",
          "midi": 75,
          "time": 153.7325581395124,
          "velocity": 0.5748031496062992,
          "duration": 0.1627906976743816
        },
        {
          "name": "B5",
          "midi": 83,
          "time": 153.74418604648915,
          "velocity": 0.14960629921259844,
          "duration": 0.05813953488370771
        },
        {
          "name": "E6",
          "midi": 88,
          "time": 153.76744186044263,
          "velocity": 0.11023622047244094,
          "duration": 0.05813953488370771
        },
        {
          "name": "F6",
          "midi": 89,
          "time": 153.77906976741937,
          "velocity": 0.5118110236220472,
          "duration": 0.29069767441853855
        },
        {
          "name": "C#5",
          "midi": 73,
          "time": 153.7906976743961,
          "velocity": 0.5118110236220472,
          "duration": 0.37209302325572935
        },
        {
          "name": "G#5",
          "midi": 80,
          "time": 153.7906976743961,
          "velocity": 0.3937007874015748,
          "duration": 0.1395348837208985
        },
        {
          "name": "D7",
          "midi": 98,
          "time": 153.7906976743961,
          "velocity": 0.1889763779527559,
          "duration": 0.3023255813952801
        },
        {
          "name": "E7",
          "midi": 100,
          "time": 153.80232558137286,
          "velocity": 0.2125984251968504,
          "duration": 0.1395348837208985
        },
        {
          "name": "B5",
          "midi": 83,
          "time": 153.8139534883496,
          "velocity": 0.1889763779527559,
          "duration": 0.034883720930224626
        },
        {
          "name": "A#3",
          "midi": 58,
          "time": 153.82558139532634,
          "velocity": 0.5118110236220472,
          "duration": 0.10465116279067388
        },
        {
          "name": "A6",
          "midi": 93,
          "time": 153.82558139532634,
          "velocity": 0.1732283464566929,
          "duration": 0.1627906976743816
        },
        {
          "name": "C7",
          "midi": 96,
          "time": 153.82558139532634,
          "velocity": 0.5354330708661418,
          "duration": 1.395348837208985
        },
        {
          "name": "F#6",
          "midi": 90,
          "time": 153.83720930230308,
          "velocity": 0.1889763779527559,
          "duration": 0.034883720930224626
        },
        {
          "name": "C6",
          "midi": 84,
          "time": 153.84883720927982,
          "velocity": 0.13385826771653545,
          "duration": 0.034883720930224626
        },
        {
          "name": "F#2",
          "midi": 42,
          "time": 153.88372093021005,
          "velocity": 0.1968503937007874,
          "duration": 0.034883720930224626
        },
        {
          "name": "F5",
          "midi": 77,
          "time": 153.88372093021005,
          "velocity": 0.4566929133858268,
          "duration": 0.0813953488371908
        },
        {
          "name": "D6",
          "midi": 86,
          "time": 153.88372093021005,
          "velocity": 0.14173228346456693,
          "duration": 0.034883720930224626
        },
        {
          "name": "F#6",
          "midi": 90,
          "time": 153.88372093021005,
          "velocity": 0.29133858267716534,
          "duration": 0.2209302325580893
        },
        {
          "name": "C6",
          "midi": 84,
          "time": 153.90697674416353,
          "velocity": 0.14173228346456693,
          "duration": 0.034883720930224626
        },
        {
          "name": "F2",
          "midi": 41,
          "time": 153.91860465114027,
          "velocity": 0.12598425196850394,
          "duration": 0.05813953488370771
        },
        {
          "name": "C#4",
          "midi": 61,
          "time": 153.91860465114027,
          "velocity": 0.4094488188976378,
          "duration": 0.11627906976741542
        },
        {
          "name": "D#5",
          "midi": 75,
          "time": 153.91860465114027,
          "velocity": 0.30708661417322836,
          "duration": 0.17441860465112313
        },
        {
          "name": "E6",
          "midi": 88,
          "time": 153.91860465114027,
          "velocity": 0.12598425196850394,
          "duration": 0.04651162790696617
        },
        {
          "name": "D6",
          "midi": 86,
          "time": 153.930232558117,
          "velocity": 0.12598425196850394,
          "duration": 0.04651162790696617
        },
        {
          "name": "B6",
          "midi": 95,
          "time": 153.94186046509375,
          "velocity": 0.11811023622047244,
          "duration": 0.04651162790696617
        },
        {
          "name": "E7",
          "midi": 100,
          "time": 153.9534883720705,
          "velocity": 0.14173228346456693,
          "duration": 0.04651162790696617
        },
        {
          "name": "F#2",
          "midi": 42,
          "time": 153.97674418602398,
          "velocity": 0.1968503937007874,
          "duration": 0.05813953488370771
        },
        {
          "name": "F5",
          "midi": 77,
          "time": 153.97674418602398,
          "velocity": 0.7165354330708661,
          "duration": 0.837209302325391
        },
        {
          "name": "G#5",
          "midi": 80,
          "time": 153.99999999997746,
          "velocity": 0.25984251968503935,
          "duration": 0.15116279069764005
        },
        {
          "name": "G6",
          "midi": 91,
          "time": 153.99999999997746,
          "velocity": 0.23622047244094488,
          "duration": 0.06976744186044925
        },
        {
          "name": "A#3",
          "midi": 58,
          "time": 154.0348837209077,
          "velocity": 0.5196850393700787,
          "duration": 0.11627906976741542
        },
        {
          "name": "F#2",
          "midi": 42,
          "time": 154.04651162788443,
          "velocity": 0.29133858267716534,
          "duration": 0.09302325581393234
        },
        {
          "name": "F#4",
          "midi": 66,
          "time": 154.05813953486117,
          "velocity": 0.4645669291338583,
          "duration": 0.11627906976741542
        },
        {
          "name": "D6",
          "midi": 86,
          "time": 154.08139534881465,
          "velocity": 0.15748031496062992,
          "duration": 0.04651162790696617
        },
        {
          "name": "D#5",
          "midi": 75,
          "time": 154.10465116276814,
          "velocity": 0.3700787401574803,
          "duration": 0.15116279069764005
        },
        {
          "name": "A#5",
          "midi": 82,
          "time": 154.10465116276814,
          "velocity": 0.29133858267716534,
          "duration": 0.0813953488371908
        },
        {
          "name": "C6",
          "midi": 84,
          "time": 154.12790697672162,
          "velocity": 0.23622047244094488,
          "duration": 0.06976744186044925
        },
        {
          "name": "F#6",
          "midi": 90,
          "time": 154.12790697672162,
          "velocity": 0.18110236220472442,
          "duration": 0.11627906976741542
        },
        {
          "name": "D#3",
          "midi": 51,
          "time": 154.1511627906751,
          "velocity": 0.6062992125984252,
          "duration": 0.011627906976741542
        },
        {
          "name": "A#4",
          "midi": 70,
          "time": 154.1511627906751,
          "velocity": 0.3228346456692913,
          "duration": 0.023255813953483084
        },
        {
          "name": "A2",
          "midi": 45,
          "time": 154.16279069765184,
          "velocity": 0.7322834645669292,
          "duration": 0.011627906976741542
        },
        {
          "name": "C4",
          "midi": 60,
          "time": 154.16279069765184,
          "velocity": 0.4330708661417323,
          "duration": 0.034883720930224626
        },
        {
          "name": "B4",
          "midi": 71,
          "time": 154.16279069765184,
          "velocity": 0.2755905511811024,
          "duration": 0.05813953488370771
        },
        {
          "name": "A5",
          "midi": 81,
          "time": 154.16279069765184,
          "velocity": 0.2283464566929134,
          "duration": 0.034883720930224626
        },
        {
          "name": "B6",
          "midi": 95,
          "time": 154.16279069765184,
          "velocity": 0.16535433070866143,
          "duration": 0.05813953488370771
        },
        {
          "name": "D7",
          "midi": 98,
          "time": 154.16279069765184,
          "velocity": 0.1732283464566929,
          "duration": 0.09302325581393234
        },
        {
          "name": "E7",
          "midi": 100,
          "time": 154.16279069765184,
          "velocity": 0.13385826771653545,
          "duration": 0.09302325581393234
        },
        {
          "name": "F#2",
          "midi": 42,
          "time": 154.17441860462858,
          "velocity": 0.7716535433070866,
          "duration": 0.011627906976741542
        },
        {
          "name": "G4",
          "midi": 67,
          "time": 154.17441860462858,
          "velocity": 0.2992125984251969,
          "duration": 0.034883720930224626
        },
        {
          "name": "G6",
          "midi": 91,
          "time": 154.17441860462858,
          "velocity": 0.13385826771653545,
          "duration": 0.034883720930224626
        },
        {
          "name": "G#6",
          "midi": 92,
          "time": 154.17441860462858,
          "velocity": 0.10236220472440945,
          "duration": 0.0813953488371908
        },
        {
          "name": "D2",
          "midi": 38,
          "time": 154.18604651160533,
          "velocity": 0.7716535433070866,
          "duration": 0.011627906976741542
        },
        {
          "name": "G#3",
          "midi": 56,
          "time": 154.18604651160533,
          "velocity": 0.4409448818897638,
          "duration": 0.034883720930224626
        },
        {
          "name": "C#5",
          "midi": 73,
          "time": 154.18604651160533,
          "velocity": 0.23622047244094488,
          "duration": 0.034883720930224626
        },
        {
          "name": "G#5",
          "midi": 80,
          "time": 154.18604651160533,
          "velocity": 0.2204724409448819,
          "duration": 0.04651162790696617
        },
        {
          "name": "C2",
          "midi": 36,
          "time": 154.19767441858207,
          "velocity": 0.7952755905511811,
          "duration": 0.011627906976741542
        },
        {
          "name": "E4",
          "midi": 64,
          "time": 154.19767441858207,
          "velocity": 0.2677165354330709,
          "duration": 0.023255813953483084
        },
        {
          "name": "A#5",
          "midi": 82,
          "time": 154.19767441858207,
          "velocity": 0.1968503937007874,
          "duration": 0.05813953488370771
        },
        {
          "name": "A#1",
          "midi": 34,
          "time": 154.2093023255588,
          "velocity": 0.7874015748031497,
          "duration": 0.023255813953483084
        },
        {
          "name": "C6",
          "midi": 84,
          "time": 154.2093023255588,
          "velocity": 0.14960629921259844,
          "duration": 0.034883720930224626
        },
        {
          "name": "D#4",
          "midi": 63,
          "time": 154.22093023253555,
          "velocity": 0.18110236220472442,
          "duration": 0.034883720930224626
        },
        {
          "name": "D6",
          "midi": 86,
          "time": 154.22093023253555,
          "velocity": 0.11023622047244094,
          "duration": 0.034883720930224626
        },
        {
          "name": "G7",
          "midi": 103,
          "time": 154.22093023253555,
          "velocity": 0.11811023622047244,
          "duration": 0.06976744186044925
        },
        {
          "name": "A1",
          "midi": 33,
          "time": 154.2325581395123,
          "velocity": 0.7637795275590551,
          "duration": 0.011627906976741542
        },
        {
          "name": "G#3",
          "midi": 56,
          "time": 154.2325581395123,
          "velocity": 0.4251968503937008,
          "duration": 0.0813953488371908
        },
        {
          "name": "E6",
          "midi": 88,
          "time": 154.2325581395123,
          "velocity": 0.15748031496062992,
          "duration": 0.034883720930224626
        },
        {
          "name": "D#7",
          "midi": 99,
          "time": 154.2325581395123,
          "velocity": 0.10236220472440945,
          "duration": 0.06976744186044925
        },
        {
          "name": "G#1",
          "midi": 32,
          "time": 154.24418604648903,
          "velocity": 0.7480314960629921,
          "duration": 0.034883720930224626
        },
        {
          "name": "F4",
          "midi": 65,
          "time": 154.24418604648903,
          "velocity": 0.3464566929133858,
          "duration": 0.23255813953483084
        },
        {
          "name": "G#4",
          "midi": 68,
          "time": 154.25581395346578,
          "velocity": 0.5354330708661418,
          "duration": 0.558139534883594
        },
        {
          "name": "D#6",
          "midi": 87,
          "time": 154.25581395346578,
          "velocity": 0.2204724409448819,
          "duration": 0.0813953488371908
        },
        {
          "name": "C#5",
          "midi": 73,
          "time": 154.26744186044252,
          "velocity": 0.3700787401574803,
          "duration": 0.06976744186044925
        },
        {
          "name": "A#6",
          "midi": 94,
          "time": 154.26744186044252,
          "velocity": 0.09448818897637795,
          "duration": 0.034883720930224626
        },
        {
          "name": "G1",
          "midi": 31,
          "time": 154.27906976741926,
          "velocity": 0.7559055118110236,
          "duration": 0.1395348837208985
        },
        {
          "name": "G#6",
          "midi": 92,
          "time": 154.27906976741926,
          "velocity": 0.5275590551181102,
          "duration": 0.6162790697673017
        },
        {
          "name": "A5",
          "midi": 81,
          "time": 154.290697674396,
          "velocity": 0.11811023622047244,
          "duration": 0.034883720930224626
        },
        {
          "name": "E7",
          "midi": 100,
          "time": 154.290697674396,
          "velocity": 0.07874015748031496,
          "duration": 0.034883720930224626
        },
        {
          "name": "D#3",
          "midi": 51,
          "time": 154.30232558137274,
          "velocity": 0.3700787401574803,
          "duration": 0.023255813953483084
        },
        {
          "name": "G5",
          "midi": 79,
          "time": 154.30232558137274,
          "velocity": 0.2677165354330709,
          "duration": 0.05813953488370771
        },
        {
          "name": "D6",
          "midi": 86,
          "time": 154.30232558137274,
          "velocity": 0.10236220472440945,
          "duration": 0.06976744186044925
        },
        {
          "name": "F#7",
          "midi": 102,
          "time": 154.30232558137274,
          "velocity": 0.11023622047244094,
          "duration": 0.09302325581393234
        },
        {
          "name": "D#5",
          "midi": 75,
          "time": 154.31395348834948,
          "velocity": 0.2677165354330709,
          "duration": 0.023255813953483084
        },
        {
          "name": "D3",
          "midi": 50,
          "time": 154.32558139532622,
          "velocity": 0.3858267716535433,
          "duration": 0.023255813953483084
        },
        {
          "name": "C#4",
          "midi": 61,
          "time": 154.32558139532622,
          "velocity": 0.3228346456692913,
          "duration": 0.17441860465112313
        },
        {
          "name": "C6",
          "midi": 84,
          "time": 154.32558139532622,
          "velocity": 0.30708661417322836,
          "duration": 0.37209302325572935
        },
        {
          "name": "F#6",
          "midi": 90,
          "time": 154.32558139532622,
          "velocity": 0.1889763779527559,
          "duration": 0.06976744186044925
        },
        {
          "name": "A6",
          "midi": 93,
          "time": 154.32558139532622,
          "velocity": 0.30708661417322836,
          "duration": 0.47674418604640323
        },
        {
          "name": "D#7",
          "midi": 99,
          "time": 154.32558139532622,
          "velocity": 0.25984251968503935,
          "duration": 0.6511627906975264
        },
        {
          "name": "C5",
          "midi": 72,
          "time": 154.33720930230297,
          "velocity": 0.30708661417322836,
          "duration": 0.09302325581393234
        },
        {
          "name": "D5",
          "midi": 74,
          "time": 154.33720930230297,
          "velocity": 0.28346456692913385,
          "duration": 0.04651162790696617
        },
        {
          "name": "B6",
          "midi": 95,
          "time": 154.33720930230297,
          "velocity": 0.15748031496062992,
          "duration": 0.04651162790696617
        },
        {
          "name": "A#5",
          "midi": 82,
          "time": 154.36046511625645,
          "velocity": 0.2204724409448819,
          "duration": 0.1627906976743816
        },
        {
          "name": "C#6",
          "midi": 85,
          "time": 154.36046511625645,
          "velocity": 0.29133858267716534,
          "duration": 0.2209302325580893
        },
        {
          "name": "D#3",
          "midi": 51,
          "time": 154.38372093020993,
          "velocity": 0.4094488188976378,
          "duration": 0.4186046511626955
        },
        {
          "name": "D#6",
          "midi": 87,
          "time": 154.38372093020993,
          "velocity": 0.3543307086614173,
          "duration": 0.5116279069766279
        },
        {
          "name": "D#5",
          "midi": 75,
          "time": 154.39534883718667,
          "velocity": 0.18110236220472442,
          "duration": 0.034883720930224626
        },
        {
          "name": "G#3",
          "midi": 56,
          "time": 154.40697674416342,
          "velocity": 0.2677165354330709,
          "duration": 0.023255813953483084
        },
        {
          "name": "G#1",
          "midi": 32,
          "time": 154.41860465114016,
          "velocity": 0.6614173228346457,
          "duration": 0.011627906976741542
        },
        {
          "name": "C#5",
          "midi": 73,
          "time": 154.41860465114016,
          "velocity": 0.44881889763779526,
          "duration": 0.18604651162786467
        },
        {
          "name": "A1",
          "midi": 33,
          "time": 154.4302325581169,
          "velocity": 0.6614173228346457,
          "duration": 0.023255813953483084
        },
        {
          "name": "F#7",
          "midi": 102,
          "time": 154.4302325581169,
          "velocity": 0.5118110236220472,
          "duration": 0.837209302325391
        },
        {
          "name": "G#3",
          "midi": 56,
          "time": 154.44186046509364,
          "velocity": 0.33070866141732286,
          "duration": 0.034883720930224626
        },
        {
          "name": "A#6",
          "midi": 94,
          "time": 154.44186046509364,
          "velocity": 0.2204724409448819,
          "duration": 0.1395348837208985
        },
        {
          "name": "B6",
          "midi": 95,
          "time": 154.44186046509364,
          "velocity": 0.2125984251968504,
          "duration": 0.12790697674415696
        },
        {
          "name": "G#1",
          "midi": 32,
          "time": 154.45348837207038,
          "velocity": 0.6929133858267716,
          "duration": 0.3604651162789878
        },
        {
          "name": "D#5",
          "midi": 75,
          "time": 154.45348837207038,
          "velocity": 0.2283464566929134,
          "duration": 0.04651162790696617
        },
        {
          "name": "G7",
          "midi": 103,
          "time": 154.45348837207038,
          "velocity": 0.18110236220472442,
          "duration": 0.23255813953483084
        },
        {
          "name": "F#6",
          "midi": 90,
          "time": 154.46511627904712,
          "velocity": 0.1889763779527559,
          "duration": 0.12790697674415696
        },
        {
          "name": "E4",
          "midi": 64,
          "time": 154.47674418602386,
          "velocity": 0.4251968503937008,
          "duration": 0.023255813953483084
        },
        {
          "name": "D7",
          "midi": 98,
          "time": 154.47674418602386,
          "velocity": 0.1968503937007874,
          "duration": 0.12790697674415696
        },
        {
          "name": "E7",
          "midi": 100,
          "time": 154.47674418602386,
          "velocity": 0.15748031496062992,
          "duration": 0.04651162790696617
        },
        {
          "name": "F4",
          "midi": 65,
          "time": 154.49999999997735,
          "velocity": 0.48031496062992124,
          "duration": 0.04651162790696617
        },
        {
          "name": "B5",
          "midi": 83,
          "time": 154.5116279069541,
          "velocity": 0.13385826771653545,
          "duration": 0.05813953488370771
        },
        {
          "name": "G6",
          "midi": 91,
          "time": 154.5116279069541,
          "velocity": 0.4645669291338583,
          "duration": 0.1395348837208985
        },
        {
          "name": "A5",
          "midi": 81,
          "time": 154.52325581393083,
          "velocity": 0.2992125984251969,
          "duration": 0.023255813953483084
        },
        {
          "name": "G5",
          "midi": 79,
          "time": 154.53488372090757,
          "velocity": 0.31496062992125984,
          "duration": 0.034883720930224626
        },
        {
          "name": "C#4",
          "midi": 61,
          "time": 154.5465116278843,
          "velocity": 0.31496062992125984,
          "duration": 0.04651162790696617
        },
        {
          "name": "A#5",
          "midi": 82,
          "time": 154.5465116278843,
          "velocity": 0.1968503937007874,
          "duration": 0.04651162790696617
        },
        {
          "name": "E7",
          "midi": 100,
          "time": 154.5465116278843,
          "velocity": 0.12598425196850394,
          "duration": 0.06976744186044925
        },
        {
          "name": "G#3",
          "midi": 56,
          "time": 154.55813953486106,
          "velocity": 0.36220472440944884,
          "duration": 0.10465116279067388
        },
        {
          "name": "F4",
          "midi": 65,
          "time": 154.55813953486106,
          "velocity": 0.2992125984251969,
          "duration": 0.034883720930224626
        },
        {
          "name": "D5",
          "midi": 74,
          "time": 154.55813953486106,
          "velocity": 0.2992125984251969,
          "duration": 0.034883720930224626
        },
        {
          "name": "B6",
          "midi": 95,
          "time": 154.59302325579128,
          "velocity": 0.1889763779527559,
          "duration": 0.17441860465112313
        },
        {
          "name": "D5",
          "midi": 74,
          "time": 154.60465116276802,
          "velocity": 0.3700787401574803,
          "duration": 0.04651162790696617
        },
        {
          "name": "E6",
          "midi": 88,
          "time": 154.60465116276802,
          "velocity": 0.25196850393700787,
          "duration": 0.034883720930224626
        },
        {
          "name": "F4",
          "midi": 65,
          "time": 154.61627906974476,
          "velocity": 0.33858267716535434,
          "duration": 0.06976744186044925
        },
        {
          "name": "C#7",
          "midi": 97,
          "time": 154.61627906974476,
          "velocity": 0.30708661417322836,
          "duration": 0.2558139534883139
        },
        {
          "name": "F#6",
          "midi": 90,
          "time": 154.6279069767215,
          "velocity": 0.2755905511811024,
          "duration": 0.06976744186044925
        },
        {
          "name": "A#6",
          "midi": 94,
          "time": 154.6279069767215,
          "velocity": 0.13385826771653545,
          "duration": 0.034883720930224626
        },
        {
          "name": "A#5",
          "midi": 82,
          "time": 154.63953488369825,
          "velocity": 0.12598425196850394,
          "duration": 0.034883720930224626
        },
        {
          "name": "D5",
          "midi": 74,
          "time": 154.66279069765173,
          "velocity": 0.2992125984251969,
          "duration": 0.034883720930224626
        },
        {
          "name": "G6",
          "midi": 91,
          "time": 154.66279069765173,
          "velocity": 0.12598425196850394,
          "duration": 0.05813953488370771
        },
        {
          "name": "G#3",
          "midi": 56,
          "time": 154.67441860462847,
          "velocity": 0.33858267716535434,
          "duration": 0.06976744186044925
        },
        {
          "name": "B5",
          "midi": 83,
          "time": 154.67441860462847,
          "velocity": 0.11023622047244094,
          "duration": 0.034883720930224626
        },
        {
          "name": "C#6",
          "midi": 85,
          "time": 154.6860465116052,
          "velocity": 0.28346456692913385,
          "duration": 0.12790697674415696
        },
        {
          "name": "C#4",
          "midi": 61,
          "time": 154.69767441858195,
          "velocity": 0.29133858267716534,
          "duration": 0.10465116279067388
        },
        {
          "name": "D#5",
          "midi": 75,
          "time": 154.69767441858195,
          "velocity": 0.29133858267716534,
          "duration": 0.04651162790696617
        },
        {
          "name": "E7",
          "midi": 100,
          "time": 154.69767441858195,
          "velocity": 0.25196850393700787,
          "duration": 0.06976744186044925
        },
        {
          "name": "F4",
          "midi": 65,
          "time": 154.7093023255587,
          "velocity": 0.4251968503937008,
          "duration": 0.09302325581393234
        },
        {
          "name": "C6",
          "midi": 84,
          "time": 154.7093023255587,
          "velocity": 0.25984251968503935,
          "duration": 0.11627906976741542
        },
        {
          "name": "A#6",
          "midi": 94,
          "time": 154.7093023255587,
          "velocity": 0.28346456692913385,
          "duration": 0.11627906976741542
        },
        {
          "name": "G7",
          "midi": 103,
          "time": 154.7093023255587,
          "velocity": 0.13385826771653545,
          "duration": 0.034883720930224626
        },
        {
          "name": "C#5",
          "midi": 73,
          "time": 154.73255813951218,
          "velocity": 0.30708661417322836,
          "duration": 0.12790697674415696
        },
        {
          "name": "G#3",
          "midi": 56,
          "time": 154.75581395346566,
          "velocity": 0.25984251968503935,
          "duration": 0.06976744186044925
        },
        {
          "name": "D#5",
          "midi": 75,
          "time": 154.7674418604424,
          "velocity": 0.11811023622047244,
          "duration": 0.034883720930224626
        },
        {
          "name": "D7",
          "midi": 98,
          "time": 154.77906976741914,
          "velocity": 0.33858267716535434,
          "duration": 0.17441860465112313
        },
        {
          "name": "F#6",
          "midi": 90,
          "time": 154.7906976743959,
          "velocity": 0.31496062992125984,
          "duration": 0.10465116279067388
        },
        {
          "name": "G6",
          "midi": 91,
          "time": 154.7906976743959,
          "velocity": 0.33070866141732286,
          "duration": 0.06976744186044925
        },
        {
          "name": "B6",
          "midi": 95,
          "time": 154.7906976743959,
          "velocity": 0.2992125984251969,
          "duration": 0.1395348837208985
        },
        {
          "name": "E7",
          "midi": 100,
          "time": 154.7906976743959,
          "velocity": 0.25984251968503935,
          "duration": 0.1395348837208985
        },
        {
          "name": "C4",
          "midi": 60,
          "time": 154.80232558137263,
          "velocity": 0.2992125984251969,
          "duration": 0.023255813953483084
        },
        {
          "name": "F#5",
          "midi": 78,
          "time": 154.80232558137263,
          "velocity": 0.31496062992125984,
          "duration": 0.034883720930224626
        },
        {
          "name": "B5",
          "midi": 83,
          "time": 154.80232558137263,
          "velocity": 0.29133858267716534,
          "duration": 0.034883720930224626
        },
        {
          "name": "E6",
          "midi": 88,
          "time": 154.80232558137263,
          "velocity": 0.25196850393700787,
          "duration": 0.0813953488371908
        },
        {
          "name": "G1",
          "midi": 31,
          "time": 154.81395348834937,
          "velocity": 0.5669291338582677,
          "duration": 0.023255813953483084
        },
        {
          "name": "C3",
          "midi": 48,
          "time": 154.81395348834937,
          "velocity": 0.3543307086614173,
          "duration": 0.023255813953483084
        },
        {
          "name": "A4",
          "midi": 69,
          "time": 154.81395348834937,
          "velocity": 0.5118110236220472,
          "duration": 0.04651162790696617
        },
        {
          "name": "A6",
          "midi": 93,
          "time": 154.81395348834937,
          "velocity": 0.3937007874015748,
          "duration": 0.18604651162786467
        },
        {
          "name": "C#4",
          "midi": 61,
          "time": 154.8255813953261,
          "velocity": 0.47244094488188976,
          "duration": 0.1627906976743816
        },
        {
          "name": "F5",
          "midi": 77,
          "time": 154.83720930230285,
          "velocity": 0.5984251968503937,
          "duration": 0.2209302325580893
        },
        {
          "name": "A#6",
          "midi": 94,
          "time": 154.83720930230285,
          "velocity": 0.18110236220472442,
          "duration": 0.034883720930224626
        },
        {
          "name": "F4",
          "midi": 65,
          "time": 154.8488372092796,
          "velocity": 0.30708661417322836,
          "duration": 0.11627906976741542
        },
        {
          "name": "F#5",
          "midi": 78,
          "time": 154.8488372092796,
          "velocity": 0.08661417322834646,
          "duration": 0.034883720930224626
        },
        {
          "name": "A#5",
          "midi": 82,
          "time": 154.8488372092796,
          "velocity": 0.25196850393700787,
          "duration": 0.0813953488371908
        },
        {
          "name": "C6",
          "midi": 84,
          "time": 154.86046511625634,
          "velocity": 0.15748031496062992,
          "duration": 0.034883720930224626
        },
        {
          "name": "A4",
          "midi": 69,
          "time": 154.87209302323308,
          "velocity": 0.16535433070866143,
          "duration": 0.04651162790696617
        },
        {
          "name": "D6",
          "midi": 86,
          "time": 154.88372093020982,
          "velocity": 0.15748031496062992,
          "duration": 0.04651162790696617
        },
        {
          "name": "G#5",
          "midi": 80,
          "time": 154.89534883718656,
          "velocity": 0.25196850393700787,
          "duration": 0.06976744186044925
        },
        {
          "name": "C#7",
          "midi": 97,
          "time": 154.89534883718656,
          "velocity": 0.2283464566929134,
          "duration": 0.11627906976741542
        },
        {
          "name": "C6",
          "midi": 84,
          "time": 154.9069767441633,
          "velocity": 0.16535433070866143,
          "duration": 0.06976744186044925
        },
        {
          "name": "G#4",
          "midi": 68,
          "time": 154.91860465114004,
          "velocity": 0.3779527559055118,
          "duration": 0.06976744186044925
        },
        {
          "name": "G6",
          "midi": 91,
          "time": 154.91860465114004,
          "velocity": 0.2047244094488189,
          "duration": 0.18604651162786467
        },
        {
          "name": "G#6",
          "midi": 92,
          "time": 154.91860465114004,
          "velocity": 0.36220472440944884,
          "duration": 0.11627906976741542
        },
        {
          "name": "D#6",
          "midi": 87,
          "time": 154.93023255811678,
          "velocity": 0.1968503937007874,
          "duration": 0.09302325581393234
        },
        {
          "name": "A5",
          "midi": 81,
          "time": 154.94186046509353,
          "velocity": 0.23622047244094488,
          "duration": 0.06976744186044925
        },
        {
          "name": "A#6",
          "midi": 94,
          "time": 154.95348837207027,
          "velocity": 0.1732283464566929,
          "duration": 0.0813953488371908
        },
        {
          "name": "E7",
          "midi": 100,
          "time": 154.95348837207027,
          "velocity": 0.13385826771653545,
          "duration": 0.05813953488370771
        },
        {
          "name": "G#2",
          "midi": 44,
          "time": 154.965116279047,
          "velocity": 0.12598425196850394,
          "duration": 0.06976744186044925
        },
        {
          "name": "D6",
          "midi": 86,
          "time": 154.965116279047,
          "velocity": 0.14960629921259844,
          "duration": 0.05813953488370771
        },
        {
          "name": "F#6",
          "midi": 90,
          "time": 154.97674418602375,
          "velocity": 0.5511811023622047,
          "duration": 0.24418604651157239
        },
        {
          "name": "A4",
          "midi": 69,
          "time": 154.9883720930005,
          "velocity": 0.3464566929133858,
          "duration": 0.05813953488370771
        },
        {
          "name": "C#6",
          "midi": 85,
          "time": 154.9883720930005,
          "velocity": 0.1732283464566929,
          "duration": 0.034883720930224626
        },
        {
          "name": "B6",
          "midi": 95,
          "time": 154.9883720930005,
          "velocity": 0.11023622047244094,
          "duration": 0.04651162790696617
        },
        {
          "name": "F4",
          "midi": 65,
          "time": 154.99999999997723,
          "velocity": 0.2677165354330709,
          "duration": 0.04651162790696617
        },
        {
          "name": "A#5",
          "midi": 82,
          "time": 154.99999999997723,
          "velocity": 0.15748031496062992,
          "duration": 0.034883720930224626
        },
        {
          "name": "C6",
          "midi": 84,
          "time": 154.99999999997723,
          "velocity": 0.14173228346456693,
          "duration": 0.06976744186044925
        },
        {
          "name": "G3",
          "midi": 55,
          "time": 155.01162790695398,
          "velocity": 0.2992125984251969,
          "duration": 0.023255813953483084
        },
        {
          "name": "C5",
          "midi": 72,
          "time": 155.02325581393072,
          "velocity": 0.11811023622047244,
          "duration": 0.05813953488370771
        },
        {
          "name": "D#5",
          "midi": 75,
          "time": 155.02325581393072,
          "velocity": 0.2283464566929134,
          "duration": 0.09302325581393234
        },
        {
          "name": "A6",
          "midi": 93,
          "time": 155.02325581393072,
          "velocity": 0.2992125984251969,
          "duration": 0.09302325581393234
        },
        {
          "name": "C#7",
          "midi": 97,
          "time": 155.02325581393072,
          "velocity": 0.5039370078740157,
          "duration": 0.4999999999998863
        },
        {
          "name": "E7",
          "midi": 100,
          "time": 155.02325581393072,
          "velocity": 0.2204724409448819,
          "duration": 0.11627906976741542
        },
        {
          "name": "C#4",
          "midi": 61,
          "time": 155.03488372090746,
          "velocity": 0.2677165354330709,
          "duration": 0.10465116279067388
        },
        {
          "name": "D#6",
          "midi": 87,
          "time": 155.03488372090746,
          "velocity": 0.3543307086614173,
          "duration": 0.406976744185954
        },
        {
          "name": "G#2",
          "midi": 44,
          "time": 155.0465116278842,
          "velocity": 0.2440944881889764,
          "duration": 0.406976744185954
        },
        {
          "name": "G3",
          "midi": 55,
          "time": 155.0465116278842,
          "velocity": 0.30708661417322836,
          "duration": 0.034883720930224626
        },
        {
          "name": "G#4",
          "midi": 68,
          "time": 155.0465116278842,
          "velocity": 0.29133858267716534,
          "duration": 0.0813953488371908
        },
        {
          "name": "F#5",
          "midi": 78,
          "time": 155.0465116278842,
          "velocity": 0.6377952755905512,
          "duration": 0.15116279069764005
        },
        {
          "name": "B5",
          "midi": 83,
          "time": 155.0465116278842,
          "velocity": 0.25196850393700787,
          "duration": 0.05813953488370771
        },
        {
          "name": "G#6",
          "midi": 92,
          "time": 155.0465116278842,
          "velocity": 0.5669291338582677,
          "duration": 0.43023255813943706
        },
        {
          "name": "A#6",
          "midi": 94,
          "time": 155.0465116278842,
          "velocity": 0.13385826771653545,
          "duration": 0.06976744186044925
        },
        {
          "name": "F4",
          "midi": 65,
          "time": 155.05813953486094,
          "velocity": 0.1889763779527559,
          "duration": 0.05813953488370771
        },
        {
          "name": "F5",
          "midi": 77,
          "time": 155.06976744183768,
          "velocity": 0.4566929133858268,
          "duration": 0.023255813953483084
        },
        {
          "name": "G#3",
          "midi": 56,
          "time": 155.08139534881443,
          "velocity": 0.4566929133858268,
          "duration": 0.26744186046505547
        },
        {
          "name": "C#5",
          "midi": 73,
          "time": 155.09302325579117,
          "velocity": 0.6692913385826772,
          "duration": 0.5232558139533694
        },
        {
          "name": "C6",
          "midi": 84,
          "time": 155.09302325579117,
          "velocity": 0.33070866141732286,
          "duration": 0.12790697674415696
        },
        {
          "name": "A#5",
          "midi": 82,
          "time": 155.11627906974465,
          "velocity": 0.07874015748031496,
          "duration": 0.06976744186044925
        },
        {
          "name": "D#5",
          "midi": 75,
          "time": 155.1279069767214,
          "velocity": 0.2677165354330709,
          "duration": 0.034883720930224626
        },
        {
          "name": "F4",
          "midi": 65,
          "time": 155.13953488369813,
          "velocity": 0.5196850393700787,
          "duration": 0.37209302325572935
        },
        {
          "name": "G#4",
          "midi": 68,
          "time": 155.13953488369813,
          "velocity": 0.5118110236220472,
          "duration": 0.20930232558134776
        },
        {
          "name": "A6",
          "midi": 93,
          "time": 155.13953488369813,
          "velocity": 0.2047244094488189,
          "duration": 0.06976744186044925
        },
        {
          "name": "B6",
          "midi": 95,
          "time": 155.13953488369813,
          "velocity": 0.2204724409448819,
          "duration": 0.1627906976743816
        },
        {
          "name": "G7",
          "midi": 103,
          "time": 155.13953488369813,
          "velocity": 0.10236220472440945,
          "duration": 0.06976744186044925
        },
        {
          "name": "C#4",
          "midi": 61,
          "time": 155.15116279067487,
          "velocity": 0.4251968503937008,
          "duration": 0.19767441860460622
        },
        {
          "name": "F6",
          "midi": 89,
          "time": 155.16279069765162,
          "velocity": 0.25984251968503935,
          "duration": 0.0813953488371908
        },
        {
          "name": "D7",
          "midi": 98,
          "time": 155.17441860462836,
          "velocity": 0.2283464566929134,
          "duration": 0.06976744186044925
        },
        {
          "name": "A#6",
          "midi": 94,
          "time": 155.19767441858184,
          "velocity": 0.12598425196850394,
          "duration": 0.09302325581393234
        },
        {
          "name": "F#6",
          "midi": 90,
          "time": 155.23255813951207,
          "velocity": 0.30708661417322836,
          "duration": 0.23255813953483084
        },
        {
          "name": "A#5",
          "midi": 82,
          "time": 155.2441860464888,
          "velocity": 0.11023622047244094,
          "duration": 0.05813953488370771
        },
        {
          "name": "C6",
          "midi": 84,
          "time": 155.2674418604423,
          "velocity": 0.18110236220472442,
          "duration": 0.04651162790696617
        },
        {
          "name": "A6",
          "midi": 93,
          "time": 155.2674418604423,
          "velocity": 0.10236220472440945,
          "duration": 0.034883720930224626
        },
        {
          "name": "B5",
          "midi": 83,
          "time": 155.29069767439577,
          "velocity": 0.11811023622047244,
          "duration": 0.04651162790696617
        },
        {
          "name": "C7",
          "midi": 96,
          "time": 155.29069767439577,
          "velocity": 0.2992125984251969,
          "duration": 0.18604651162786467
        },
        {
          "name": "A#6",
          "midi": 94,
          "time": 155.34883720927948,
          "velocity": 0.11023622047244094,
          "duration": 0.09302325581393234
        },
        {
          "name": "C#4",
          "midi": 61,
          "time": 155.36046511625622,
          "velocity": 0.1889763779527559,
          "duration": 0.06976744186044925
        },
        {
          "name": "G#4",
          "midi": 68,
          "time": 155.36046511625622,
          "velocity": 0.23622047244094488,
          "duration": 0.023255813953483084
        },
        {
          "name": "G#3",
          "midi": 56,
          "time": 155.37209302323296,
          "velocity": 0.5275590551181102,
          "duration": 0.09302325581393234
        },
        {
          "name": "A6",
          "midi": 93,
          "time": 155.37209302323296,
          "velocity": 0.1968503937007874,
          "duration": 0.09302325581393234
        },
        {
          "name": "F#5",
          "midi": 78,
          "time": 155.39534883718645,
          "velocity": 0.2755905511811024,
          "duration": 0.04651162790696617
        },
        {
          "name": "B5",
          "midi": 83,
          "time": 155.39534883718645,
          "velocity": 0.09448818897637795,
          "duration": 0.034883720930224626
        },
        {
          "name": "E7",
          "midi": 100,
          "time": 155.4069767441632,
          "velocity": 0.07086614173228346,
          "duration": 0.034883720930224626
        },
        {
          "name": "C6",
          "midi": 84,
          "time": 155.41860465113993,
          "velocity": 0.2992125984251969,
          "duration": 0.11627906976741542
        },
        {
          "name": "D#3",
          "midi": 51,
          "time": 155.45348837207015,
          "velocity": 0.5354330708661418,
          "duration": 0.011627906976741542
        },
        {
          "name": "A#2",
          "midi": 46,
          "time": 155.4651162790469,
          "velocity": 0.6929133858267716,
          "duration": 0.011627906976741542
        },
        {
          "name": "E5",
          "midi": 76,
          "time": 155.4651162790469,
          "velocity": 0.2440944881889764,
          "duration": 0.023255813953483084
        },
        {
          "name": "D#6",
          "midi": 87,
          "time": 155.4651162790469,
          "velocity": 0.4566929133858268,
          "duration": 1.0581395348834803
        },
        {
          "name": "G6",
          "midi": 91,
          "time": 155.4651162790469,
          "velocity": 0.2440944881889764,
          "duration": 0.04651162790696617
        },
        {
          "name": "F#2",
          "midi": 42,
          "time": 155.47674418602364,
          "velocity": 0.7637795275590551,
          "duration": 0.011627906976741542
        },
        {
          "name": "D#5",
          "midi": 75,
          "time": 155.47674418602364,
          "velocity": 0.5590551181102362,
          "duration": 0.2558139534883139
        },
        {
          "name": "A#6",
          "midi": 94,
          "time": 155.47674418602364,
          "velocity": 0.47244094488188976,
          "duration": 0.7325581395347172
        },
        {
          "name": "D#2",
          "midi": 39,
          "time": 155.48837209300038,
          "velocity": 0.7716535433070866,
          "duration": 0.011627906976741542
        },
        {
          "name": "G#4",
          "midi": 68,
          "time": 155.48837209300038,
          "velocity": 0.5826771653543307,
          "duration": 0.5116279069766279
        },
        {
          "name": "A#5",
          "midi": 82,
          "time": 155.48837209300038,
          "velocity": 0.08661417322834646,
          "duration": 0.05813953488370771
        },
        {
          "name": "C#2",
          "midi": 37,
          "time": 155.49999999997712,
          "velocity": 0.8031496062992126,
          "duration": 0.011627906976741542
        },
        {
          "name": "G#3",
          "midi": 56,
          "time": 155.49999999997712,
          "velocity": 0.4094488188976378,
          "duration": 0.12790697674415696
        },
        {
          "name": "D#4",
          "midi": 63,
          "time": 155.49999999997712,
          "velocity": 0.25196850393700787,
          "duration": 0.023255813953483084
        },
        {
          "name": "F#5",
          "midi": 78,
          "time": 155.49999999997712,
          "velocity": 0.2047244094488189,
          "duration": 0.06976744186044925
        },
        {
          "name": "A6",
          "midi": 93,
          "time": 155.49999999997712,
          "velocity": 0.07086614173228346,
          "duration": 0.034883720930224626
        },
        {
          "name": "B1",
          "midi": 35,
          "time": 155.51162790695386,
          "velocity": 0.7952755905511811,
          "duration": 0.011627906976741542
        },
        {
          "name": "A#1",
          "midi": 34,
          "time": 155.5232558139306,
          "velocity": 0.7874015748031497,
          "duration": 0.011627906976741542
        },
        {
          "name": "A1",
          "midi": 33,
          "time": 155.53488372090735,
          "velocity": 0.7716535433070866,
          "duration": 0.011627906976741542
        },
        {
          "name": "G#6",
          "midi": 92,
          "time": 155.53488372090735,
          "velocity": 0.5275590551181102,
          "duration": 2.255813953487859
        },
        {
          "name": "G#1",
          "midi": 32,
          "time": 155.5465116278841,
          "velocity": 0.7637795275590551,
          "duration": 0.034883720930224626
        },
        {
          "name": "F6",
          "midi": 89,
          "time": 155.5465116278841,
          "velocity": 0.1889763779527559,
          "duration": 0.1627906976743816
        },
        {
          "name": "D#4",
          "midi": 63,
          "time": 155.56976744183757,
          "velocity": 0.3464566929133858,
          "duration": 0.1395348837208985
        },
        {
          "name": "F5",
          "midi": 77,
          "time": 155.56976744183757,
          "velocity": 0.3700787401574803,
          "duration": 0.12790697674415696
        },
        {
          "name": "C6",
          "midi": 84,
          "time": 155.56976744183757,
          "velocity": 0.15748031496062992,
          "duration": 0.05813953488370771
        },
        {
          "name": "C#7",
          "midi": 97,
          "time": 155.56976744183757,
          "velocity": 0.2440944881889764,
          "duration": 0.39534883720921243
        },
        {
          "name": "G1",
          "midi": 31,
          "time": 155.5813953488143,
          "velocity": 0.7637795275590551,
          "duration": 0.1395348837208985
        },
        {
          "name": "D#3",
          "midi": 51,
          "time": 155.6046511627678,
          "velocity": 0.31496062992125984,
          "duration": 0.034883720930224626
        },
        {
          "name": "G6",
          "midi": 91,
          "time": 155.6046511627678,
          "velocity": 0.29133858267716534,
          "duration": 0.5116279069766279
        },
        {
          "name": "D3",
          "midi": 50,
          "time": 155.63953488369802,
          "velocity": 0.3700787401574803,
          "duration": 0.023255813953483084
        },
        {
          "name": "C#5",
          "midi": 73,
          "time": 155.63953488369802,
          "velocity": 0.2283464566929134,
          "duration": 0.034883720930224626
        },
        {
          "name": "C6",
          "midi": 84,
          "time": 155.63953488369802,
          "velocity": 0.2204724409448819,
          "duration": 0.04651162790696617
        },
        {
          "name": "F#6",
          "midi": 90,
          "time": 155.63953488369802,
          "velocity": 0.2204724409448819,
          "duration": 0.1395348837208985
        },
        {
          "name": "C7",
          "midi": 96,
          "time": 155.65116279067476,
          "velocity": 0.33070866141732286,
          "duration": 0.9069767441858403
        },
        {
          "name": "D#3",
          "midi": 51,
          "time": 155.6627906976515,
          "velocity": 0.3464566929133858,
          "duration": 0.023255813953483084
        },
        {
          "name": "C5",
          "midi": 72,
          "time": 155.6627906976515,
          "velocity": 0.3858267716535433,
          "duration": 0.31395348837202164
        },
        {
          "name": "G5",
          "midi": 79,
          "time": 155.6627906976515,
          "velocity": 0.28346456692913385,
          "duration": 0.06976744186044925
        },
        {
          "name": "F7",
          "midi": 101,
          "time": 155.6627906976515,
          "velocity": 0.2047244094488189,
          "duration": 0.10465116279067388
        },
        {
          "name": "C4",
          "midi": 60,
          "time": 155.67441860462824,
          "velocity": 0.5039370078740157,
          "duration": 0.10465116279067388
        },
        {
          "name": "B5",
          "midi": 83,
          "time": 155.67441860462824,
          "velocity": 0.15748031496062992,
          "duration": 0.034883720930224626
        },
        {
          "name": "E3",
          "midi": 52,
          "time": 155.68604651160499,
          "velocity": 0.2755905511811024,
          "duration": 0.023255813953483084
        },
        {
          "name": "F#7",
          "midi": 102,
          "time": 155.68604651160499,
          "velocity": 0.30708661417322836,
          "duration": 0.3604651162789878
        },
        {
          "name": "C#6",
          "midi": 85,
          "time": 155.69767441858173,
          "velocity": 0.12598425196850394,
          "duration": 0.04651162790696617
        },
        {
          "name": "D#3",
          "midi": 51,
          "time": 155.70930232555847,
          "velocity": 0.4251968503937008,
          "duration": 0.406976744185954
        },
        {
          "name": "G#1",
          "midi": 32,
          "time": 155.7209302325352,
          "velocity": 0.7007874015748031,
          "duration": 0.023255813953483084
        },
        {
          "name": "A#5",
          "midi": 82,
          "time": 155.73255813951195,
          "velocity": 0.25984251968503935,
          "duration": 0.09302325581393234
        },
        {
          "name": "D7",
          "midi": 98,
          "time": 155.73255813951195,
          "velocity": 0.11023622047244094,
          "duration": 0.04651162790696617
        },
        {
          "name": "A1",
          "midi": 33,
          "time": 155.7441860464887,
          "velocity": 0.6771653543307087,
          "duration": 0.023255813953483084
        },
        {
          "name": "D#4",
          "midi": 63,
          "time": 155.7441860464887,
          "velocity": 0.48031496062992124,
          "duration": 0.37209302325572935
        },
        {
          "name": "F#5",
          "midi": 78,
          "time": 155.7441860464887,
          "velocity": 0.25196850393700787,
          "duration": 0.04651162790696617
        },
        {
          "name": "D6",
          "midi": 86,
          "time": 155.7441860464887,
          "velocity": 0.11023622047244094,
          "duration": 0.034883720930224626
        },
        {
          "name": "G#3",
          "midi": 56,
          "time": 155.75581395346543,
          "velocity": 0.4330708661417323,
          "duration": 0.2558139534883139
        },
        {
          "name": "G#1",
          "midi": 32,
          "time": 155.76744186044218,
          "velocity": 0.7244094488188977,
          "duration": 0.34883720930224626
        },
        {
          "name": "C#6",
          "midi": 85,
          "time": 155.76744186044218,
          "velocity": 0.14173228346456693,
          "duration": 0.034883720930224626
        },
        {
          "name": "F5",
          "midi": 77,
          "time": 155.77906976741892,
          "velocity": 0.23622047244094488,
          "duration": 0.023255813953483084
        },
        {
          "name": "E6",
          "midi": 88,
          "time": 155.77906976741892,
          "velocity": 0.1732283464566929,
          "duration": 0.09302325581393234
        },
        {
          "name": "C4",
          "midi": 60,
          "time": 155.79069767439566,
          "velocity": 0.4251968503937008,
          "duration": 0.06976744186044925
        },
        {
          "name": "F7",
          "midi": 101,
          "time": 155.79069767439566,
          "velocity": 0.18110236220472442,
          "duration": 0.06976744186044925
        },
        {
          "name": "F#5",
          "midi": 78,
          "time": 155.8023255813724,
          "velocity": 0.2677165354330709,
          "duration": 0.023255813953483084
        },
        {
          "name": "D6",
          "midi": 86,
          "time": 155.8023255813724,
          "velocity": 0.2283464566929134,
          "duration": 0.023255813953483084
        },
        {
          "name": "F5",
          "midi": 77,
          "time": 155.81395348834914,
          "velocity": 0.2283464566929134,
          "duration": 0.034883720930224626
        },
        {
          "name": "C#6",
          "midi": 85,
          "time": 155.82558139532588,
          "velocity": 0.2047244094488189,
          "duration": 0.034883720930224626
        },
        {
          "name": "A#5",
          "midi": 82,
          "time": 155.83720930230263,
          "velocity": 0.3858267716535433,
          "duration": 0.29069767441853855
        },
        {
          "name": "D5",
          "midi": 74,
          "time": 155.84883720927937,
          "velocity": 0.23622047244094488,
          "duration": 0.023255813953483084
        },
        {
          "name": "F#6",
          "midi": 90,
          "time": 155.84883720927937,
          "velocity": 0.2283464566929134,
          "duration": 0.15116279069764005
        },
        {
          "name": "C4",
          "midi": 60,
          "time": 155.87209302323285,
          "velocity": 0.30708661417322836,
          "duration": 0.023255813953483084
        },
        {
          "name": "F#5",
          "midi": 78,
          "time": 155.87209302323285,
          "velocity": 0.25196850393700787,
          "duration": 0.034883720930224626
        },
        {
          "name": "G5",
          "midi": 79,
          "time": 155.8837209302096,
          "velocity": 0.2677165354330709,
          "duration": 0.034883720930224626
        },
        {
          "name": "B5",
          "midi": 83,
          "time": 155.8837209302096,
          "velocity": 0.10236220472440945,
          "duration": 0.034883720930224626
        },
        {
          "name": "F7",
          "midi": 101,
          "time": 155.8837209302096,
          "velocity": 0.16535433070866143,
          "duration": 0.05813953488370771
        },
        {
          "name": "C#6",
          "midi": 85,
          "time": 155.90697674416307,
          "velocity": 0.11811023622047244,
          "duration": 0.034883720930224626
        },
        {
          "name": "F#5",
          "midi": 78,
          "time": 155.91860465113982,
          "velocity": 0.2992125984251969,
          "duration": 0.0813953488371908
        },
        {
          "name": "E6",
          "midi": 88,
          "time": 155.91860465113982,
          "velocity": 0.1889763779527559,
          "duration": 0.09302325581393234
        },
        {
          "name": "C4",
          "midi": 60,
          "time": 155.93023255811656,
          "velocity": 0.31496062992125984,
          "duration": 0.023255813953483084
        },
        {
          "name": "D7",
          "midi": 98,
          "time": 155.95348837207004,
          "velocity": 0.1968503937007874,
          "duration": 0.06976744186044925
        },
        {
          "name": "C#5",
          "midi": 73,
          "time": 155.96511627904678,
          "velocity": 0.28346456692913385,
          "duration": 0.034883720930224626
        },
        {
          "name": "F5",
          "midi": 77,
          "time": 155.97674418602352,
          "velocity": 0.31496062992125984,
          "duration": 0.04651162790696617
        },
        {
          "name": "C5",
          "midi": 72,
          "time": 155.98837209300027,
          "velocity": 0.33070866141732286,
          "duration": 0.04651162790696617
        },
        {
          "name": "A6",
          "midi": 93,
          "time": 155.98837209300027,
          "velocity": 0.08661417322834646,
          "duration": 0.034883720930224626
        },
        {
          "name": "G#4",
          "midi": 68,
          "time": 156.01162790695375,
          "velocity": 0.4251968503937008,
          "duration": 0.10465116279067388
        },
        {
          "name": "F#5",
          "midi": 78,
          "time": 156.01162790695375,
          "velocity": 0.18110236220472442,
          "duration": 0.034883720930224626
        },
        {
          "name": "E7",
          "midi": 100,
          "time": 156.01162790695375,
          "velocity": 0.1732283464566929,
          "duration": 0.0813953488371908
        },
        {
          "name": "G#3",
          "midi": 56,
          "time": 156.0232558139305,
          "velocity": 0.3858267716535433,
          "duration": 0.06976744186044925
        },
        {
          "name": "E6",
          "midi": 88,
          "time": 156.0232558139305,
          "velocity": 0.2440944881889764,
          "duration": 0.15116279069764005
        },
        {
          "name": "F5",
          "midi": 77,
          "time": 156.03488372090723,
          "velocity": 0.2125984251968504,
          "duration": 0.034883720930224626
        },
        {
          "name": "C#7",
          "midi": 97,
          "time": 156.03488372090723,
          "velocity": 0.2755905511811024,
          "duration": 0.0813953488371908
        },
        {
          "name": "C#5",
          "midi": 73,
          "time": 156.04651162788397,
          "velocity": 0.2755905511811024,
          "duration": 0.023255813953483084
        },
        {
          "name": "D7",
          "midi": 98,
          "time": 156.04651162788397,
          "velocity": 0.3937007874015748,
          "duration": 0.1395348837208985
        },
        {
          "name": "C5",
          "midi": 72,
          "time": 156.06976744183746,
          "velocity": 0.4015748031496063,
          "duration": 0.04651162790696617
        },
        {
          "name": "F#7",
          "midi": 102,
          "time": 156.06976744183746,
          "velocity": 0.33858267716535434,
          "duration": 0.3023255813952801
        },
        {
          "name": "F#6",
          "midi": 90,
          "time": 156.0813953488142,
          "velocity": 0.25196850393700787,
          "duration": 0.11627906976741542
        },
        {
          "name": "E5",
          "midi": 76,
          "time": 156.10465116276768,
          "velocity": 0.25984251968503935,
          "duration": 0.023255813953483084
        },
        {
          "name": "F#5",
          "midi": 78,
          "time": 156.10465116276768,
          "velocity": 0.31496062992125984,
          "duration": 0.023255813953483084
        },
        {
          "name": "C#6",
          "midi": 85,
          "time": 156.10465116276768,
          "velocity": 0.2283464566929134,
          "duration": 0.17441860465112313
        },
        {
          "name": "B6",
          "midi": 95,
          "time": 156.10465116276768,
          "velocity": 0.2125984251968504,
          "duration": 0.10465116279067388
        },
        {
          "name": "G1",
          "midi": 31,
          "time": 156.11627906974442,
          "velocity": 0.6220472440944882,
          "duration": 0.023255813953483084
        },
        {
          "name": "C#4",
          "midi": 61,
          "time": 156.11627906974442,
          "velocity": 0.25984251968503935,
          "duration": 0.023255813953483084
        },
        {
          "name": "B5",
          "midi": 83,
          "time": 156.11627906974442,
          "velocity": 0.3464566929133858,
          "duration": 0.023255813953483084
        },
        {
          "name": "E7",
          "midi": 100,
          "time": 156.11627906974442,
          "velocity": 0.29133858267716534,
          "duration": 0.1627906976743816
        },
        {
          "name": "F7",
          "midi": 101,
          "time": 156.11627906974442,
          "velocity": 0.23622047244094488,
          "duration": 0.10465116279067388
        },
        {
          "name": "G#4",
          "midi": 68,
          "time": 156.12790697672116,
          "velocity": 0.5275590551181102,
          "duration": 0.011627906976741542
        },
        {
          "name": "F5",
          "midi": 77,
          "time": 156.12790697672116,
          "velocity": 0.25196850393700787,
          "duration": 0.034883720930224626
        },
        {
          "name": "C6",
          "midi": 84,
          "time": 156.12790697672116,
          "velocity": 0.2125984251968504,
          "duration": 0.04651162790696617
        },
        {
          "name": "A6",
          "midi": 93,
          "time": 156.12790697672116,
          "velocity": 0.31496062992125984,
          "duration": 0.023255813953483084
        },
        {
          "name": "C#7",
          "midi": 97,
          "time": 156.12790697672116,
          "velocity": 0.2440944881889764,
          "duration": 0.26744186046505547
        },
        {
          "name": "C4",
          "midi": 60,
          "time": 156.1395348836979,
          "velocity": 0.08661417322834646,
          "duration": 0.12790697674415696
        },
        {
          "name": "G#4",
          "midi": 68,
          "time": 156.15116279067465,
          "velocity": 0.49606299212598426,
          "duration": 0.10465116279067388
        },
        {
          "name": "D#5",
          "midi": 75,
          "time": 156.1627906976514,
          "velocity": 0.2677165354330709,
          "duration": 0.279069767441797
        },
        {
          "name": "A#5",
          "midi": 82,
          "time": 156.1627906976514,
          "velocity": 0.13385826771653545,
          "duration": 0.034883720930224626
        },
        {
          "name": "B5",
          "midi": 83,
          "time": 156.1627906976514,
          "velocity": 0.18110236220472442,
          "duration": 0.09302325581393234
        },
        {
          "name": "A6",
          "midi": 93,
          "time": 156.1627906976514,
          "velocity": 0.25196850393700787,
          "duration": 0.06976744186044925
        },
        {
          "name": "D#4",
          "midi": 63,
          "time": 156.17441860462813,
          "velocity": 0.08661417322834646,
          "duration": 0.05813953488370771
        },
        {
          "name": "G7",
          "midi": 103,
          "time": 156.17441860462813,
          "velocity": 0.2047244094488189,
          "duration": 0.034883720930224626
        },
        {
          "name": "C#5",
          "midi": 73,
          "time": 156.1976744185816,
          "velocity": 0.13385826771653545,
          "duration": 0.04651162790696617
        },
        {
          "name": "C6",
          "midi": 84,
          "time": 156.1976744185816,
          "velocity": 0.11811023622047244,
          "duration": 0.04651162790696617
        },
        {
          "name": "F#6",
          "midi": 90,
          "time": 156.20930232555835,
          "velocity": 0.2204724409448819,
          "duration": 0.11627906976741542
        },
        {
          "name": "G6",
          "midi": 91,
          "time": 156.20930232555835,
          "velocity": 0.23622047244094488,
          "duration": 0.24418604651157239
        },
        {
          "name": "D7",
          "midi": 98,
          "time": 156.20930232555835,
          "velocity": 0.1968503937007874,
          "duration": 0.34883720930224626
        },
        {
          "name": "F5",
          "midi": 77,
          "time": 156.2209302325351,
          "velocity": 0.08661417322834646,
          "duration": 0.04651162790696617
        },
        {
          "name": "A#6",
          "midi": 94,
          "time": 156.23255813951184,
          "velocity": 0.2440944881889764,
          "duration": 0.2558139534883139
        },
        {
          "name": "F7",
          "midi": 101,
          "time": 156.23255813951184,
          "velocity": 0.13385826771653545,
          "duration": 0.10465116279067388
        },
        {
          "name": "F6",
          "midi": 89,
          "time": 156.24418604648858,
          "velocity": 0.1732283464566929,
          "duration": 0.12790697674415696
        },
        {
          "name": "A6",
          "midi": 93,
          "time": 156.24418604648858,
          "velocity": 0.1968503937007874,
          "duration": 0.06976744186044925
        },
        {
          "name": "G#2",
          "midi": 44,
          "time": 156.25581395346532,
          "velocity": 0.1732283464566929,
          "duration": 0.034883720930224626
        },
        {
          "name": "A4",
          "midi": 69,
          "time": 156.2790697674188,
          "velocity": 0.48031496062992124,
          "duration": 0.034883720930224626
        },
        {
          "name": "C6",
          "midi": 84,
          "time": 156.2790697674188,
          "velocity": 0.15748031496062992,
          "duration": 0.034883720930224626
        },
        {
          "name": "F5",
          "midi": 77,
          "time": 156.29069767439555,
          "velocity": 0.1968503937007874,
          "duration": 0.034883720930224626
        },
        {
          "name": "E7",
          "midi": 100,
          "time": 156.29069767439555,
          "velocity": 0.09448818897637795,
          "duration": 0.04651162790696617
        },
        {
          "name": "G#2",
          "midi": 44,
          "time": 156.31395348834903,
          "velocity": 0.3937007874015748,
          "duration": 0.12790697674415696
        },
        {
          "name": "G#4",
          "midi": 68,
          "time": 156.31395348834903,
          "velocity": 0.5748031496062992,
          "duration": 0.12790697674415696
        },
        {
          "name": "A5",
          "midi": 81,
          "time": 156.31395348834903,
          "velocity": 0.28346456692913385,
          "duration": 0.023255813953483084
        },
        {
          "name": "D6",
          "midi": 86,
          "time": 156.31395348834903,
          "velocity": 0.1889763779527559,
          "duration": 0.05813953488370771
        },
        {
          "name": "C5",
          "midi": 72,
          "time": 156.3372093023025,
          "velocity": 0.2047244094488189,
          "duration": 0.04651162790696617
        },
        {
          "name": "A#5",
          "midi": 82,
          "time": 156.3372093023025,
          "velocity": 0.29133858267716534,
          "duration": 0.10465116279067388
        },
        {
          "name": "D4",
          "midi": 62,
          "time": 156.34883720927925,
          "velocity": 0.4094488188976378,
          "duration": 0.023255813953483084
        },
        {
          "name": "D#4",
          "midi": 63,
          "time": 156.37209302323274,
          "velocity": 0.4881889763779528,
          "duration": 0.06976744186044925
        },
        {
          "name": "C#6",
          "midi": 85,
          "time": 156.38372093020948,
          "velocity": 0.13385826771653545,
          "duration": 0.05813953488370771
        },
        {
          "name": "F#7",
          "midi": 102,
          "time": 156.38372093020948,
          "velocity": 0.16535433070866143,
          "duration": 0.1627906976743816
        },
        {
          "name": "E6",
          "midi": 88,
          "time": 156.39534883718622,
          "velocity": 0.23622047244094488,
          "duration": 0.06976744186044925
        },
        {
          "name": "C5",
          "midi": 72,
          "time": 156.40697674416296,
          "velocity": 0.44881889763779526,
          "duration": 0.06976744186044925
        },
        {
          "name": "F6",
          "midi": 89,
          "time": 156.4186046511397,
          "velocity": 0.2204724409448819,
          "duration": 0.0813953488371908
        },
        {
          "name": "C#7",
          "midi": 97,
          "time": 156.4186046511397,
          "velocity": 0.15748031496062992,
          "duration": 0.09302325581393234
        },
        {
          "name": "A3",
          "midi": 57,
          "time": 156.43023255811644,
          "velocity": 0.5118110236220472,
          "duration": 0.023255813953483084
        },
        {
          "name": "G5",
          "midi": 79,
          "time": 156.43023255811644,
          "velocity": 0.3543307086614173,
          "duration": 0.15116279069764005
        },
        {
          "name": "F#6",
          "midi": 90,
          "time": 156.43023255811644,
          "velocity": 0.16535433070866143,
          "duration": 0.034883720930224626
        },
        {
          "name": "A6",
          "midi": 93,
          "time": 156.43023255811644,
          "velocity": 0.13385826771653545,
          "duration": 0.034883720930224626
        },
        {
          "name": "A2",
          "midi": 45,
          "time": 156.44186046509319,
          "velocity": 0.6929133858267716,
          "duration": 0.023255813953483084
        },
        {
          "name": "E4",
          "midi": 64,
          "time": 156.44186046509319,
          "velocity": 0.5433070866141733,
          "duration": 0.034883720930224626
        },
        {
          "name": "B6",
          "midi": 95,
          "time": 156.44186046509319,
          "velocity": 0.14173228346456693,
          "duration": 0.034883720930224626
        },
        {
          "name": "C#4",
          "midi": 61,
          "time": 156.45348837206993,
          "velocity": 0.4409448818897638,
          "duration": 0.023255813953483084
        },
        {
          "name": "A#5",
          "midi": 82,
          "time": 156.45348837206993,
          "velocity": 0.29133858267716534,
          "duration": 0.04651162790696617
        },
        {
          "name": "G#2",
          "midi": 44,
          "time": 156.46511627904667,
          "velocity": 0.6771653543307087,
          "duration": 0.011627906976741542
        },
        {
          "name": "G#4",
          "midi": 68,
          "time": 156.46511627904667,
          "velocity": 0.6062992125984252,
          "duration": 0.23255813953483084
        },
        {
          "name": "D#5",
          "midi": 75,
          "time": 156.46511627904667,
          "velocity": 0.29133858267716534,
          "duration": 0.20930232558134776
        },
        {
          "name": "F5",
          "midi": 77,
          "time": 156.46511627904667,
          "velocity": 0.2283464566929134,
          "duration": 0.05813953488370771
        },
        {
          "name": "G2",
          "midi": 43,
          "time": 156.4767441860234,
          "velocity": 0.7165354330708661,
          "duration": 0.011627906976741542
        },
        {
          "name": "B3",
          "midi": 59,
          "time": 156.4767441860234,
          "velocity": 0.33858267716535434,
          "duration": 0.023255813953483084
        },
        {
          "name": "B5",
          "midi": 83,
          "time": 156.4767441860234,
          "velocity": 0.1732283464566929,
          "duration": 0.034883720930224626
        },
        {
          "name": "C#6",
          "midi": 85,
          "time": 156.4767441860234,
          "velocity": 0.13385826771653545,
          "duration": 0.05813953488370771
        },
        {
          "name": "G#2",
          "midi": 44,
          "time": 156.48837209300015,
          "velocity": 0.7637795275590551,
          "duration": 0.04651162790696617
        },
        {
          "name": "D#4",
          "midi": 63,
          "time": 156.48837209300015,
          "velocity": 0.44881889763779526,
          "duration": 0.023255813953483084
        },
        {
          "name": "A#4",
          "midi": 70,
          "time": 156.48837209300015,
          "velocity": 0.23622047244094488,
          "duration": 0.023255813953483084
        },
        {
          "name": "C5",
          "midi": 72,
          "time": 156.48837209300015,
          "velocity": 0.2992125984251969,
          "duration": 0.1627906976743816
        },
        {
          "name": "A5",
          "midi": 81,
          "time": 156.48837209300015,
          "velocity": 0.1889763779527559,
          "duration": 0.034883720930224626
        },
        {
          "name": "C4",
          "midi": 60,
          "time": 156.4999999999769,
          "velocity": 0.44881889763779526,
          "duration": 0.19767441860460622
        },
        {
          "name": "C#5",
          "midi": 73,
          "time": 156.4999999999769,
          "velocity": 0.2283464566929134,
          "duration": 0.023255813953483084
        },
        {
          "name": "E6",
          "midi": 88,
          "time": 156.4999999999769,
          "velocity": 0.2125984251968504,
          "duration": 0.05813953488370771
        },
        {
          "name": "A#6",
          "midi": 94,
          "time": 156.4999999999769,
          "velocity": 0.08661417322834646,
          "duration": 0.04651162790696617
        },
        {
          "name": "G2",
          "midi": 43,
          "time": 156.53488372090712,
          "velocity": 0.6299212598425197,
          "duration": 0.011627906976741542
        },
        {
          "name": "G#2",
          "midi": 44,
          "time": 156.54651162788386,
          "velocity": 0.5826771653543307,
          "duration": 0.011627906976741542
        },
        {
          "name": "D#4",
          "midi": 63,
          "time": 156.54651162788386,
          "velocity": 0.36220472440944884,
          "duration": 0.023255813953483084
        },
        {
          "name": "A#5",
          "midi": 82,
          "time": 156.54651162788386,
          "velocity": 0.12598425196850394,
          "duration": 0.034883720930224626
        },
        {
          "name": "D#6",
          "midi": 87,
          "time": 156.54651162788386,
          "velocity": 0.3228346456692913,
          "duration": 0.26744186046505547
        },
        {
          "name": "C#7",
          "midi": 97,
          "time": 156.54651162788386,
          "velocity": 0.09448818897637795,
          "duration": 0.034883720930224626
        },
        {
          "name": "F#5",
          "midi": 78,
          "time": 156.5581395348606,
          "velocity": 0.2047244094488189,
          "duration": 0.04651162790696617
        },
        {
          "name": "G2",
          "midi": 43,
          "time": 156.58139534881408,
          "velocity": 0.47244094488188976,
          "duration": 0.023255813953483084
        },
        {
          "name": "D#4",
          "midi": 63,
          "time": 156.58139534881408,
          "velocity": 0.25984251968503935,
          "duration": 0.023255813953483084
        },
        {
          "name": "C7",
          "midi": 96,
          "time": 156.58139534881408,
          "velocity": 0.2283464566929134,
          "duration": 0.04651162790696617
        },
        {
          "name": "G5",
          "midi": 79,
          "time": 156.59302325579083,
          "velocity": 0.23622047244094488,
          "duration": 0.023255813953483084
        },
        {
          "name": "A#6",
          "midi": 94,
          "time": 156.59302325579083,
          "velocity": 0.15748031496062992,
          "duration": 0.09302325581393234
        },
        {
          "name": "F#2",
          "midi": 42,
          "time": 156.60465116276757,
          "velocity": 0.5118110236220472,
          "duration": 0.011627906976741542
        },
        {
          "name": "A#5",
          "midi": 82,
          "time": 156.60465116276757,
          "velocity": 0.18110236220472442,
          "duration": 0.11627906976741542
        },
        {
          "name": "C#7",
          "midi": 97,
          "time": 156.60465116276757,
          "velocity": 0.08661417322834646,
          "duration": 0.034883720930224626
        },
        {
          "name": "G#2",
          "midi": 44,
          "time": 156.6162790697443,
          "velocity": 0.5275590551181102,
          "duration": 0.011627906976741542
        },
        {
          "name": "D#4",
          "midi": 63,
          "time": 156.6162790697443,
          "velocity": 0.2440944881889764,
          "duration": 0.023255813953483084
        },
        {
          "name": "F5",
          "midi": 77,
          "time": 156.6162790697443,
          "velocity": 0.1732283464566929,
          "duration": 0.06976744186044925
        },
        {
          "name": "G2",
          "midi": 43,
          "time": 156.62790697672105,
          "velocity": 0.47244094488188976,
          "duration": 0.023255813953483084
        },
        {
          "name": "C#5",
          "midi": 73,
          "time": 156.6395348836978,
          "velocity": 0.23622047244094488,
          "duration": 0.023255813953483084
        },
        {
          "name": "G5",
          "midi": 79,
          "time": 156.6395348836978,
          "velocity": 0.2440944881889764,
          "duration": 0.023255813953483084
        },
        {
          "name": "D#4",
          "midi": 63,
          "time": 156.65116279067453,
          "velocity": 0.25984251968503935,
          "duration": 0.023255813953483084
        },
        {
          "name": "C6",
          "midi": 84,
          "time": 156.65116279067453,
          "velocity": 0.2204724409448819,
          "duration": 0.0813953488371908
        },
        {
          "name": "G6",
          "midi": 91,
          "time": 156.66279069765127,
          "velocity": 0.16535433070866143,
          "duration": 0.05813953488370771
        },
        {
          "name": "G#3",
          "midi": 56,
          "time": 156.67441860462802,
          "velocity": 0.5275590551181102,
          "duration": 0.0813953488371908
        },
        {
          "name": "D#5",
          "midi": 75,
          "time": 156.6976744185815,
          "velocity": 0.31496062992125984,
          "duration": 0.19767441860460622
        },
        {
          "name": "C#7",
          "midi": 97,
          "time": 156.6976744185815,
          "velocity": 0.15748031496062992,
          "duration": 0.1395348837208985
        },
        {
          "name": "G#2",
          "midi": 44,
          "time": 156.70930232555824,
          "velocity": 0.4094488188976378,
          "duration": 0.023255813953483084
        },
        {
          "name": "C5",
          "midi": 72,
          "time": 156.70930232555824,
          "velocity": 0.30708661417322836,
          "duration": 0.0813953488371908
        },
        {
          "name": "D#4",
          "midi": 63,
          "time": 156.73255813951172,
          "velocity": 0.3779527559055118,
          "duration": 0.034883720930224626
        },
        {
          "name": "A#5",
          "midi": 82,
          "time": 156.74418604648847,
          "velocity": 0.2283464566929134,
          "duration": 0.04651162790696617
        },
        {
          "name": "D#7",
          "midi": 99,
          "time": 156.74418604648847,
          "velocity": 0.4881889763779528,
          "duration": 1.395348837208985
        },
        {
          "name": "C6",
          "midi": 84,
          "time": 156.7558139534652,
          "velocity": 0.6141732283464567,
          "duration": 1.3604651162787604
        },
        {
          "name": "E6",
          "midi": 88,
          "time": 156.7558139534652,
          "velocity": 0.1968503937007874,
          "duration": 0.05813953488370771
        },
        {
          "name": "C#3",
          "midi": 49,
          "time": 156.76744186044195,
          "velocity": 0.6535433070866141,
          "duration": 0.011627906976741542
        },
        {
          "name": "F4",
          "midi": 65,
          "time": 156.76744186044195,
          "velocity": 0.4566929133858268,
          "duration": 0.034883720930224626
        },
        {
          "name": "G6",
          "midi": 91,
          "time": 156.76744186044195,
          "velocity": 0.28346456692913385,
          "duration": 0.6511627906975264
        },
        {
          "name": "B6",
          "midi": 95,
          "time": 156.76744186044195,
          "velocity": 0.13385826771653545,
          "duration": 0.034883720930224626
        },
        {
          "name": "E7",
          "midi": 100,
          "time": 156.76744186044195,
          "velocity": 0.2204724409448819,
          "duration": 0.20930232558134776
        },
        {
          "name": "G#2",
          "midi": 44,
          "time": 156.7790697674187,
          "velocity": 0.7322834645669292,
          "duration": 0.011627906976741542
        },
        {
          "name": "A3",
          "midi": 57,
          "time": 156.7790697674187,
          "velocity": 0.4881889763779528,
          "duration": 0.023255813953483084
        },
        {
          "name": "G#5",
          "midi": 80,
          "time": 156.7790697674187,
          "velocity": 0.6141732283464567,
          "duration": 0.6395348837207848
        },
        {
          "name": "D6",
          "midi": 86,
          "time": 156.7790697674187,
          "velocity": 0.14173228346456693,
          "duration": 0.05813953488370771
        },
        {
          "name": "F2",
          "midi": 41,
          "time": 156.79069767439543,
          "velocity": 0.7716535433070866,
          "duration": 0.011627906976741542
        },
        {
          "name": "F#4",
          "midi": 66,
          "time": 156.79069767439543,
          "velocity": 0.2283464566929134,
          "duration": 0.023255813953483084
        },
        {
          "name": "B5",
          "midi": 83,
          "time": 156.79069767439543,
          "velocity": 0.1732283464566929,
          "duration": 0.034883720930224626
        },
        {
          "name": "F#7",
          "midi": 102,
          "time": 156.79069767439543,
          "velocity": 0.07874015748031496,
          "duration": 0.05813953488370771
        },
        {
          "name": "C#2",
          "midi": 37,
          "time": 156.80232558137217,
          "velocity": 0.7874015748031497,
          "duration": 0.011627906976741542
        },
        {
          "name": "G#3",
          "midi": 56,
          "time": 156.80232558137217,
          "velocity": 0.5118110236220472,
          "duration": 0.011627906976741542
        },
        {
          "name": "E4",
          "midi": 64,
          "time": 156.80232558137217,
          "velocity": 0.25984251968503935,
          "duration": 0.034883720930224626
        },
        {
          "name": "C2",
          "midi": 36,
          "time": 156.81395348834891,
          "velocity": 0.7874015748031497,
          "duration": 0.011627906976741542
        },
        {
          "name": "G#4",
          "midi": 68,
          "time": 156.81395348834891,
          "velocity": 0.6062992125984252,
          "duration": 0.47674418604640323
        },
        {
          "name": "A#1",
          "midi": 34,
          "time": 156.82558139532566,
          "velocity": 0.7637795275590551,
          "duration": 0.011627906976741542
        },
        {
          "name": "G#3",
          "midi": 56,
          "time": 156.82558139532566,
          "velocity": 0.4409448818897638,
          "duration": 0.034883720930224626
        },
        {
          "name": "C5",
          "midi": 72,
          "time": 156.82558139532566,
          "velocity": 0.4645669291338583,
          "duration": 0.6046511627905602
        },
        {
          "name": "A#5",
          "midi": 82,
          "time": 156.82558139532566,
          "velocity": 0.3543307086614173,
          "duration": 0.1627906976743816
        },
        {
          "name": "C#6",
          "midi": 85,
          "time": 156.82558139532566,
          "velocity": 0.18110236220472442,
          "duration": 0.1395348837208985
        },
        {
          "name": "A1",
          "midi": 33,
          "time": 156.8372093023024,
          "velocity": 0.7559055118110236,
          "duration": 0.011627906976741542
        },
        {
          "name": "D#4",
          "midi": 63,
          "time": 156.8372093023024,
          "velocity": 0.2204724409448819,
          "duration": 0.11627906976741542
        },
        {
          "name": "D7",
          "midi": 98,
          "time": 156.8372093023024,
          "velocity": 0.15748031496062992,
          "duration": 0.18604651162786467
        },
        {
          "name": "G#1",
          "midi": 32,
          "time": 156.84883720927914,
          "velocity": 0.7480314960629921,
          "duration": 0.034883720930224626
        },
        {
          "name": "F#5",
          "midi": 78,
          "time": 156.86046511625588,
          "velocity": 0.2047244094488189,
          "duration": 0.09302325581393234
        },
        {
          "name": "A6",
          "midi": 93,
          "time": 156.86046511625588,
          "velocity": 0.1889763779527559,
          "duration": 0.17441860465112313
        },
        {
          "name": "D#3",
          "midi": 51,
          "time": 156.87209302323262,
          "velocity": 0.2755905511811024,
          "duration": 0.023255813953483084
        },
        {
          "name": "F6",
          "midi": 89,
          "time": 156.87209302323262,
          "velocity": 0.10236220472440945,
          "duration": 0.09302325581393234
        },
        {
          "name": "G1",
          "midi": 31,
          "time": 156.88372093020936,
          "velocity": 0.7480314960629921,
          "duration": 0.1395348837208985
        },
        {
          "name": "G#3",
          "midi": 56,
          "time": 156.90697674416285,
          "velocity": 0.44881889763779526,
          "duration": 0.406976744185954
        },
        {
          "name": "D#6",
          "midi": 87,
          "time": 156.90697674416285,
          "velocity": 0.2125984251968504,
          "duration": 0.0813953488371908
        },
        {
          "name": "D#5",
          "midi": 75,
          "time": 156.9186046511396,
          "velocity": 0.2283464566929134,
          "duration": 0.10465116279067388
        },
        {
          "name": "G#2",
          "midi": 44,
          "time": 156.9534883720698,
          "velocity": 0.36220472440944884,
          "duration": 0.023255813953483084
        },
        {
          "name": "F#5",
          "midi": 78,
          "time": 156.96511627904655,
          "velocity": 0.23622047244094488,
          "duration": 0.06976744186044925
        },
        {
          "name": "E6",
          "midi": 88,
          "time": 156.96511627904655,
          "velocity": 0.09448818897637795,
          "duration": 0.04651162790696617
        },
        {
          "name": "F#7",
          "midi": 102,
          "time": 156.96511627904655,
          "velocity": 0.2992125984251969,
          "duration": 0.24418604651157239
        },
        {
          "name": "E5",
          "midi": 76,
          "time": 156.9767441860233,
          "velocity": 0.2204724409448819,
          "duration": 0.034883720930224626
        },
        {
          "name": "C#6",
          "midi": 85,
          "time": 156.9767441860233,
          "velocity": 0.2047244094488189,
          "duration": 0.10465116279067388
        },
        {
          "name": "G7",
          "midi": 103,
          "time": 156.98837209300004,
          "velocity": 0.3937007874015748,
          "duration": 1.1627906976741542
        },
        {
          "name": "F6",
          "midi": 89,
          "time": 156.99999999997678,
          "velocity": 0.11811023622047244,
          "duration": 0.09302325581393234
        },
        {
          "name": "A#6",
          "midi": 94,
          "time": 156.99999999997678,
          "velocity": 0.2992125984251969,
          "duration": 0.5232558139533694
        },
        {
          "name": "D#6",
          "midi": 87,
          "time": 157.01162790695352,
          "velocity": 0.4251968503937008,
          "duration": 0.45348837209292014
        },
        {
          "name": "B6",
          "midi": 95,
          "time": 157.01162790695352,
          "velocity": 0.11811023622047244,
          "duration": 0.034883720930224626
        },
        {
          "name": "E7",
          "midi": 100,
          "time": 157.01162790695352,
          "velocity": 0.18110236220472442,
          "duration": 0.17441860465112313
        },
        {
          "name": "G#1",
          "midi": 32,
          "time": 157.02325581393026,
          "velocity": 0.6850393700787402,
          "duration": 0.023255813953483084
        },
        {
          "name": "D#4",
          "midi": 63,
          "time": 157.02325581393026,
          "velocity": 0.2047244094488189,
          "duration": 0.04651162790696617
        },
        {
          "name": "F#6",
          "midi": 90,
          "time": 157.02325581393026,
          "velocity": 0.2992125984251969,
          "duration": 0.279069767441797
        },
        {
          "name": "D#3",
          "midi": 51,
          "time": 157.034883720907,
          "velocity": 0.3858267716535433,
          "duration": 0.09302325581393234
        },
        {
          "name": "D#5",
          "midi": 75,
          "time": 157.034883720907,
          "velocity": 0.3543307086614173,
          "duration": 0.24418604651157239
        },
        {
          "name": "A#5",
          "midi": 82,
          "time": 157.034883720907,
          "velocity": 0.23622047244094488,
          "duration": 0.04651162790696617
        },
        {
          "name": "E6",
          "midi": 88,
          "time": 157.034883720907,
          "velocity": 0.1732283464566929,
          "duration": 0.034883720930224626
        },
        {
          "name": "A1",
          "midi": 33,
          "time": 157.04651162788375,
          "velocity": 0.6456692913385826,
          "duration": 0.023255813953483084
        },
        {
          "name": "C#7",
          "midi": 97,
          "time": 157.04651162788375,
          "velocity": 0.28346456692913385,
          "duration": 0.279069767441797
        },
        {
          "name": "B6",
          "midi": 95,
          "time": 157.0581395348605,
          "velocity": 0.2125984251968504,
          "duration": 0.05813953488370771
        },
        {
          "name": "D7",
          "midi": 98,
          "time": 157.0581395348605,
          "velocity": 0.1889763779527559,
          "duration": 0.034883720930224626
        },
        {
          "name": "G#1",
          "midi": 32,
          "time": 157.06976744183723,
          "velocity": 0.6929133858267716,
          "duration": 0.3604651162789878
        },
        {
          "name": "A6",
          "midi": 93,
          "time": 157.06976744183723,
          "velocity": 0.11811023622047244,
          "duration": 0.04651162790696617
        },
        {
          "name": "F7",
          "midi": 101,
          "time": 157.06976744183723,
          "velocity": 0.1732283464566929,
          "duration": 0.04651162790696617
        },
        {
          "name": "C4",
          "midi": 60,
          "time": 157.08139534881397,
          "velocity": 0.3228346456692913,
          "duration": 0.034883720930224626
        },
        {
          "name": "D6",
          "midi": 86,
          "time": 157.08139534881397,
          "velocity": 0.1889763779527559,
          "duration": 0.04651162790696617
        },
        {
          "name": "A#5",
          "midi": 82,
          "time": 157.0930232557907,
          "velocity": 0.18110236220472442,
          "duration": 0.034883720930224626
        },
        {
          "name": "D#4",
          "midi": 63,
          "time": 157.10465116276745,
          "velocity": 0.49606299212598426,
          "duration": 0.29069767441853855
        },
        {
          "name": "C4",
          "midi": 60,
          "time": 157.12790697672094,
          "velocity": 0.3543307086614173,
          "duration": 0.04651162790696617
        },
        {
          "name": "A6",
          "midi": 93,
          "time": 157.12790697672094,
          "velocity": 0.16535433070866143,
          "duration": 0.09302325581393234
        },
        {
          "name": "F7",
          "midi": 101,
          "time": 157.12790697672094,
          "velocity": 0.16535433070866143,
          "duration": 0.18604651162786467
        },
        {
          "name": "G5",
          "midi": 79,
          "time": 157.13953488369768,
          "velocity": 0.3228346456692913,
          "duration": 0.023255813953483084
        },
        {
          "name": "D6",
          "midi": 86,
          "time": 157.13953488369768,
          "velocity": 0.15748031496062992,
          "duration": 0.05813953488370771
        },
        {
          "name": "D#3",
          "midi": 51,
          "time": 157.15116279067442,
          "velocity": 0.5433070866141733,
          "duration": 0.279069767441797
        },
        {
          "name": "F#5",
          "midi": 78,
          "time": 157.16279069765116,
          "velocity": 0.3228346456692913,
          "duration": 0.15116279069764005
        },
        {
          "name": "A#5",
          "midi": 82,
          "time": 157.16279069765116,
          "velocity": 0.25984251968503935,
          "duration": 0.12790697674415696
        },
        {
          "name": "F6",
          "midi": 89,
          "time": 157.20930232555813,
          "velocity": 0.2204724409448819,
          "duration": 0.05813953488370771
        },
        {
          "name": "D7",
          "midi": 98,
          "time": 157.20930232555813,
          "velocity": 0.11811023622047244,
          "duration": 0.05813953488370771
        },
        {
          "name": "B6",
          "midi": 95,
          "time": 157.22093023253487,
          "velocity": 0.13385826771653545,
          "duration": 0.06976744186044925
        },
        {
          "name": "E7",
          "midi": 100,
          "time": 157.22093023253487,
          "velocity": 0.10236220472440945,
          "duration": 0.0813953488371908
        },
        {
          "name": "D6",
          "midi": 86,
          "time": 157.2558139534651,
          "velocity": 0.23622047244094488,
          "duration": 0.06976744186044925
        },
        {
          "name": "A6",
          "midi": 93,
          "time": 157.2558139534651,
          "velocity": 0.1968503937007874,
          "duration": 0.04651162790696617
        },
        {
          "name": "A#4",
          "midi": 70,
          "time": 157.26744186044183,
          "velocity": 0.2047244094488189,
          "duration": 0.04651162790696617
        },
        {
          "name": "F6",
          "midi": 89,
          "time": 157.29069767439532,
          "velocity": 0.07874015748031496,
          "duration": 0.034883720930224626
        },
        {
          "name": "F#7",
          "midi": 102,
          "time": 157.30232558137206,
          "velocity": 0.1732283464566929,
          "duration": 0.05813953488370771
        },
        {
          "name": "A#5",
          "midi": 82,
          "time": 157.3139534883488,
          "velocity": 0.2204724409448819,
          "duration": 0.05813953488370771
        },
        {
          "name": "E6",
          "midi": 88,
          "time": 157.3139534883488,
          "velocity": 0.1889763779527559,
          "duration": 0.10465116279067388
        },
        {
          "name": "E7",
          "midi": 100,
          "time": 157.3139534883488,
          "velocity": 0.2204724409448819,
          "duration": 0.12790697674415696
        },
        {
          "name": "G#3",
          "midi": 56,
          "time": 157.32558139532554,
          "velocity": 0.4251968503937008,
          "duration": 0.09302325581393234
        },
        {
          "name": "A#4",
          "midi": 70,
          "time": 157.32558139532554,
          "velocity": 0.2204724409448819,
          "duration": 0.034883720930224626
        },
        {
          "name": "C#6",
          "midi": 85,
          "time": 157.33720930230228,
          "velocity": 0.25984251968503935,
          "duration": 0.023255813953483084
        },
        {
          "name": "D6",
          "midi": 86,
          "time": 157.34883720927903,
          "velocity": 0.2125984251968504,
          "duration": 0.04651162790696617
        },
        {
          "name": "B6",
          "midi": 95,
          "time": 157.34883720927903,
          "velocity": 0.2677165354330709,
          "duration": 0.2209302325580893
        },
        {
          "name": "F#4",
          "midi": 66,
          "time": 157.36046511625577,
          "velocity": 0.2047244094488189,
          "duration": 0.05813953488370771
        },
        {
          "name": "F#5",
          "midi": 78,
          "time": 157.3720930232325,
          "velocity": 0.29133858267716534,
          "duration": 0.0813953488371908
        },
        {
          "name": "A#5",
          "midi": 82,
          "time": 157.38372093020925,
          "velocity": 0.2992125984251969,
          "duration": 0.034883720930224626
        },
        {
          "name": "F#7",
          "midi": 102,
          "time": 157.38372093020925,
          "velocity": 0.29133858267716534,
          "duration": 0.12790697674415696
        },
        {
          "name": "F#6",
          "midi": 90,
          "time": 157.395348837186,
          "velocity": 0.29133858267716534,
          "duration": 0.47674418604640323
        },
        {
          "name": "A6",
          "midi": 93,
          "time": 157.395348837186,
          "velocity": 0.28346456692913385,
          "duration": 0.023255813953483084
        },
        {
          "name": "C#4",
          "midi": 61,
          "time": 157.40697674416273,
          "velocity": 0.2283464566929134,
          "duration": 0.023255813953483084
        },
        {
          "name": "D7",
          "midi": 98,
          "time": 157.40697674416273,
          "velocity": 0.3464566929133858,
          "duration": 0.19767441860460622
        },
        {
          "name": "A4",
          "midi": 69,
          "time": 157.41860465113947,
          "velocity": 0.5433070866141733,
          "duration": 0.034883720930224626
        },
        {
          "name": "B5",
          "midi": 83,
          "time": 157.41860465113947,
          "velocity": 0.2283464566929134,
          "duration": 0.034883720930224626
        },
        {
          "name": "F7",
          "midi": 101,
          "time": 157.41860465113947,
          "velocity": 0.2992125984251969,
          "duration": 0.12790697674415696
        },
        {
          "name": "G1",
          "midi": 31,
          "time": 157.43023255811622,
          "velocity": 0.5275590551181102,
          "duration": 0.011627906976741542
        },
        {
          "name": "D3",
          "midi": 50,
          "time": 157.43023255811622,
          "velocity": 0.36220472440944884,
          "duration": 0.023255813953483084
        },
        {
          "name": "C4",
          "midi": 60,
          "time": 157.43023255811622,
          "velocity": 0.3228346456692913,
          "duration": 0.18604651162786467
        },
        {
          "name": "F5",
          "midi": 77,
          "time": 157.43023255811622,
          "velocity": 0.2755905511811024,
          "duration": 0.023255813953483084
        },
        {
          "name": "C#6",
          "midi": 85,
          "time": 157.43023255811622,
          "velocity": 0.25196850393700787,
          "duration": 0.034883720930224626
        },
        {
          "name": "E6",
          "midi": 88,
          "time": 157.43023255811622,
          "velocity": 0.2755905511811024,
          "duration": 0.05813953488370771
        },
        {
          "name": "C#7",
          "midi": 97,
          "time": 157.43023255811622,
          "velocity": 0.2992125984251969,
          "duration": 0.05813953488370771
        },
        {
          "name": "G#5",
          "midi": 80,
          "time": 157.44186046509296,
          "velocity": 0.5354330708661418,
          "duration": 0.6395348837207848
        },
        {
          "name": "D6",
          "midi": 86,
          "time": 157.4534883720697,
          "velocity": 0.1732283464566929,
          "duration": 0.034883720930224626
        },
        {
          "name": "F6",
          "midi": 89,
          "time": 157.4534883720697,
          "velocity": 0.13385826771653545,
          "duration": 0.04651162790696617
        },
        {
          "name": "D#3",
          "midi": 51,
          "time": 157.46511627904644,
          "velocity": 0.16535433070866143,
          "duration": 0.05813953488370771
        },
        {
          "name": "A#4",
          "midi": 70,
          "time": 157.46511627904644,
          "velocity": 0.14173228346456693,
          "duration": 0.034883720930224626
        },
        {
          "name": "A6",
          "midi": 93,
          "time": 157.46511627904644,
          "velocity": 0.2125984251968504,
          "duration": 0.0813953488371908
        },
        {
          "name": "A#5",
          "midi": 82,
          "time": 157.47674418602318,
          "velocity": 0.1968503937007874,
          "duration": 0.05813953488370771
        },
        {
          "name": "D#6",
          "midi": 87,
          "time": 157.48837209299992,
          "velocity": 0.2125984251968504,
          "duration": 0.10465116279067388
        },
        {
          "name": "A4",
          "midi": 69,
          "time": 157.49999999997667,
          "velocity": 0.1732283464566929,
          "duration": 0.034883720930224626
        },
        {
          "name": "G#2",
          "midi": 44,
          "time": 157.5348837209069,
          "velocity": 0.2440944881889764,
          "duration": 0.20930232558134776
        },
        {
          "name": "G#4",
          "midi": 68,
          "time": 157.5348837209069,
          "velocity": 0.4330708661417323,
          "duration": 0.09302325581393234
        },
        {
          "name": "C#6",
          "midi": 85,
          "time": 157.5348837209069,
          "velocity": 0.13385826771653545,
          "duration": 0.034883720930224626
        },
        {
          "name": "G6",
          "midi": 91,
          "time": 157.5348837209069,
          "velocity": 0.12598425196850394,
          "duration": 0.05813953488370771
        },
        {
          "name": "D#5",
          "midi": 75,
          "time": 157.54651162788363,
          "velocity": 0.14173228346456693,
          "duration": 0.034883720930224626
        },
        {
          "name": "F6",
          "midi": 89,
          "time": 157.54651162788363,
          "velocity": 0.2204724409448819,
          "duration": 0.05813953488370771
        },
        {
          "name": "A#6",
          "midi": 94,
          "time": 157.54651162788363,
          "velocity": 0.23622047244094488,
          "duration": 0.11627906976741542
        },
        {
          "name": "D#4",
          "midi": 63,
          "time": 157.55813953486037,
          "velocity": 0.5275590551181102,
          "duration": 0.37209302325572935
        },
        {
          "name": "D6",
          "midi": 86,
          "time": 157.55813953486037,
          "velocity": 0.14173228346456693,
          "duration": 0.04651162790696617
        },
        {
          "name": "E6",
          "midi": 88,
          "time": 157.56976744183712,
          "velocity": 0.14960629921259844,
          "duration": 0.05813953488370771
        },
        {
          "name": "E7",
          "midi": 100,
          "time": 157.58139534881386,
          "velocity": 0.1968503937007874,
          "duration": 0.34883720930224626
        },
        {
          "name": "A5",
          "midi": 81,
          "time": 157.5930232557906,
          "velocity": 0.23622047244094488,
          "duration": 0.023255813953483084
        },
        {
          "name": "A6",
          "midi": 93,
          "time": 157.5930232557906,
          "velocity": 0.2440944881889764,
          "duration": 0.023255813953483084
        },
        {
          "name": "C#7",
          "midi": 97,
          "time": 157.5930232557906,
          "velocity": 0.25984251968503935,
          "duration": 0.29069767441853855
        },
        {
          "name": "F7",
          "midi": 101,
          "time": 157.5930232557906,
          "velocity": 0.4881889763779528,
          "duration": 1.7441860465112313
        },
        {
          "name": "D5",
          "midi": 74,
          "time": 157.60465116276734,
          "velocity": 0.16535433070866143,
          "duration": 0.034883720930224626
        },
        {
          "name": "D#6",
          "midi": 87,
          "time": 157.60465116276734,
          "velocity": 0.5196850393700787,
          "duration": 0.7558139534882002
        },
        {
          "name": "G6",
          "midi": 91,
          "time": 157.60465116276734,
          "velocity": 0.23622047244094488,
          "duration": 0.0813953488371908
        },
        {
          "name": "A4",
          "midi": 69,
          "time": 157.61627906974408,
          "velocity": 0.33858267716535434,
          "duration": 0.034883720930224626
        },
        {
          "name": "A#5",
          "midi": 82,
          "time": 157.61627906974408,
          "velocity": 0.4330708661417323,
          "duration": 0.48837209302314477
        },
        {
          "name": "D7",
          "midi": 98,
          "time": 157.61627906974408,
          "velocity": 0.2755905511811024,
          "duration": 0.1627906976743816
        },
        {
          "name": "A6",
          "midi": 93,
          "time": 157.62790697672082,
          "velocity": 0.30708661417322836,
          "duration": 0.0813953488371908
        },
        {
          "name": "F5",
          "midi": 77,
          "time": 157.63953488369756,
          "velocity": 0.5748031496062992,
          "duration": 0.18604651162786467
        },
        {
          "name": "G#4",
          "midi": 68,
          "time": 157.6511627906743,
          "velocity": 0.31496062992125984,
          "duration": 0.09302325581393234
        },
        {
          "name": "C5",
          "midi": 72,
          "time": 157.6511627906743,
          "velocity": 0.2755905511811024,
          "duration": 0.09302325581393234
        },
        {
          "name": "D6",
          "midi": 86,
          "time": 157.66279069765105,
          "velocity": 0.15748031496062992,
          "duration": 0.04651162790696617
        },
        {
          "name": "G6",
          "midi": 91,
          "time": 157.69767441858127,
          "velocity": 0.30708661417322836,
          "duration": 0.18604651162786467
        },
        {
          "name": "A#6",
          "midi": 94,
          "time": 157.72093023253476,
          "velocity": 0.5118110236220472,
          "duration": 0.3837209302324709
        },
        {
          "name": "B6",
          "midi": 95,
          "time": 157.72093023253476,
          "velocity": 0.2125984251968504,
          "duration": 0.0813953488371908
        },
        {
          "name": "A4",
          "midi": 69,
          "time": 157.7325581395115,
          "velocity": 0.3700787401574803,
          "duration": 0.023255813953483084
        },
        {
          "name": "A6",
          "midi": 93,
          "time": 157.7325581395115,
          "velocity": 0.25984251968503935,
          "duration": 0.11627906976741542
        },
        {
          "name": "G#4",
          "midi": 68,
          "time": 157.75581395346498,
          "velocity": 0.49606299212598426,
          "duration": 0.31395348837202164
        },
        {
          "name": "E6",
          "midi": 88,
          "time": 157.75581395346498,
          "velocity": 0.33858267716535434,
          "duration": 0.04651162790696617
        },
        {
          "name": "D#5",
          "midi": 75,
          "time": 157.76744186044172,
          "velocity": 0.6692913385826772,
          "duration": 0.45348837209292014
        },
        {
          "name": "G5",
          "midi": 79,
          "time": 157.76744186044172,
          "velocity": 0.1968503937007874,
          "duration": 0.034883720930224626
        },
        {
          "name": "G#3",
          "midi": 56,
          "time": 157.77906976741846,
          "velocity": 0.2992125984251969,
          "duration": 0.023255813953483084
        },
        {
          "name": "C5",
          "midi": 72,
          "time": 157.77906976741846,
          "velocity": 0.5039370078740157,
          "duration": 0.3255813953487632
        },
        {
          "name": "C4",
          "midi": 60,
          "time": 157.80232558137195,
          "velocity": 0.3779527559055118,
          "duration": 0.20930232558134776
        },
        {
          "name": "D7",
          "midi": 98,
          "time": 157.8139534883487,
          "velocity": 0.11811023622047244,
          "duration": 0.12790697674415696
        },
        {
          "name": "G#2",
          "midi": 44,
          "time": 157.82558139532543,
          "velocity": 0.09448818897637795,
          "duration": 0.034883720930224626
        },
        {
          "name": "G#3",
          "midi": 56,
          "time": 157.82558139532543,
          "velocity": 0.25196850393700787,
          "duration": 0.0813953488371908
        },
        {
          "name": "F5",
          "midi": 77,
          "time": 157.83720930230217,
          "velocity": 0.33858267716535434,
          "duration": 0.04651162790696617
        },
        {
          "name": "E6",
          "midi": 88,
          "time": 157.8488372092789,
          "velocity": 0.08661417322834646,
          "duration": 0.05813953488370771
        },
        {
          "name": "A2",
          "midi": 45,
          "time": 157.86046511625565,
          "velocity": 0.11023622047244094,
          "duration": 0.04651162790696617
        },
        {
          "name": "C#6",
          "midi": 85,
          "time": 157.86046511625565,
          "velocity": 0.15748031496062992,
          "duration": 0.06976744186044925
        },
        {
          "name": "F#6",
          "midi": 90,
          "time": 157.88372093020914,
          "velocity": 0.1889763779527559,
          "duration": 0.034883720930224626
        },
        {
          "name": "A6",
          "midi": 93,
          "time": 157.88372093020914,
          "velocity": 0.11023622047244094,
          "duration": 0.04651162790696617
        },
        {
          "name": "G#2",
          "midi": 44,
          "time": 157.90697674416262,
          "velocity": 0.2992125984251969,
          "duration": 0.1627906976743816
        },
        {
          "name": "F5",
          "midi": 77,
          "time": 157.90697674416262,
          "velocity": 0.23622047244094488,
          "duration": 0.034883720930224626
        },
        {
          "name": "G6",
          "midi": 91,
          "time": 157.9302325581161,
          "velocity": 0.3543307086614173,
          "duration": 0.23255813953483084
        },
        {
          "name": "B5",
          "midi": 83,
          "time": 157.94186046509284,
          "velocity": 0.2677165354330709,
          "duration": 0.023255813953483084
        },
        {
          "name": "E7",
          "midi": 100,
          "time": 157.94186046509284,
          "velocity": 0.14173228346456693,
          "duration": 0.034883720930224626
        },
        {
          "name": "F5",
          "midi": 77,
          "time": 157.9534883720696,
          "velocity": 0.33070866141732286,
          "duration": 0.11627906976741542
        },
        {
          "name": "F#6",
          "midi": 90,
          "time": 157.9534883720696,
          "velocity": 0.12598425196850394,
          "duration": 0.034883720930224626
        },
        {
          "name": "A6",
          "midi": 93,
          "time": 157.9534883720696,
          "velocity": 0.14173228346456693,
          "duration": 0.04651162790696617
        },
        {
          "name": "D7",
          "midi": 98,
          "time": 157.9534883720696,
          "velocity": 0.07874015748031496,
          "duration": 0.05813953488370771
        },
        {
          "name": "D#4",
          "midi": 63,
          "time": 157.96511627904633,
          "velocity": 0.2283464566929134,
          "duration": 0.10465116279067388
        },
        {
          "name": "B6",
          "midi": 95,
          "time": 157.96511627904633,
          "velocity": 0.14173228346456693,
          "duration": 0.04651162790696617
        },
        {
          "name": "E6",
          "midi": 88,
          "time": 157.97674418602307,
          "velocity": 0.2125984251968504,
          "duration": 0.034883720930224626
        },
        {
          "name": "D6",
          "midi": 86,
          "time": 157.9883720929998,
          "velocity": 0.1732283464566929,
          "duration": 0.04651162790696617
        },
        {
          "name": "C4",
          "midi": 60,
          "time": 158.02325581393004,
          "velocity": 0.13385826771653545,
          "duration": 0.034883720930224626
        },
        {
          "name": "A6",
          "midi": 93,
          "time": 158.02325581393004,
          "velocity": 0.10236220472440945,
          "duration": 0.04651162790696617
        },
        {
          "name": "C#7",
          "midi": 97,
          "time": 158.03488372090678,
          "velocity": 0.5354330708661418,
          "duration": 1.372093023255502
        },
        {
          "name": "C3",
          "midi": 48,
          "time": 158.069767441837,
          "velocity": 0.6141732283464567,
          "duration": 0.011627906976741542
        },
        {
          "name": "F4",
          "midi": 65,
          "time": 158.069767441837,
          "velocity": 0.3937007874015748,
          "duration": 0.034883720930224626
        },
        {
          "name": "G5",
          "midi": 79,
          "time": 158.069767441837,
          "velocity": 0.2204724409448819,
          "duration": 0.034883720930224626
        },
        {
          "name": "E6",
          "midi": 88,
          "time": 158.069767441837,
          "velocity": 0.2125984251968504,
          "duration": 0.034883720930224626
        },
        {
          "name": "B6",
          "midi": 95,
          "time": 158.069767441837,
          "velocity": 0.09448818897637795,
          "duration": 0.034883720930224626
        },
        {
          "name": "A2",
          "midi": 45,
          "time": 158.08139534881374,
          "velocity": 0.7244094488188977,
          "duration": 0.011627906976741542
        },
        {
          "name": "C#6",
          "midi": 85,
          "time": 158.08139534881374,
          "velocity": 0.6299212598425197,
          "duration": 1.0813953488369634
        },
        {
          "name": "F2",
          "midi": 41,
          "time": 158.09302325579048,
          "velocity": 0.7795275590551181,
          "duration": 0.011627906976741542
        },
        {
          "name": "G#5",
          "midi": 80,
          "time": 158.09302325579048,
          "velocity": 0.1732283464566929,
          "duration": 0.034883720930224626
        },
        {
          "name": "D2",
          "midi": 38,
          "time": 158.10465116276723,
          "velocity": 0.7795275590551181,
          "duration": 0.011627906976741542
        },
        {
          "name": "C#5",
          "midi": 73,
          "time": 158.10465116276723,
          "velocity": 0.5039370078740157,
          "duration": 0.3372093023255047
        },
        {
          "name": "B5",
          "midi": 83,
          "time": 158.10465116276723,
          "velocity": 0.1732283464566929,
          "duration": 0.04651162790696617
        },
        {
          "name": "D6",
          "midi": 86,
          "time": 158.10465116276723,
          "velocity": 0.2283464566929134,
          "duration": 0.034883720930224626
        },
        {
          "name": "G#6",
          "midi": 92,
          "time": 158.10465116276723,
          "velocity": 0.5511811023622047,
          "duration": 2.1511627906971853
        },
        {
          "name": "C2",
          "midi": 36,
          "time": 158.11627906974397,
          "velocity": 0.8031496062992126,
          "duration": 0.011627906976741542
        },
        {
          "name": "A4",
          "midi": 69,
          "time": 158.11627906974397,
          "velocity": 0.2204724409448819,
          "duration": 0.0813953488371908
        },
        {
          "name": "A#6",
          "midi": 94,
          "time": 158.11627906974397,
          "velocity": 0.11023622047244094,
          "duration": 0.06976744186044925
        },
        {
          "name": "A#1",
          "midi": 34,
          "time": 158.1279069767207,
          "velocity": 0.7952755905511811,
          "duration": 0.023255813953483084
        },
        {
          "name": "F3",
          "midi": 53,
          "time": 158.1279069767207,
          "velocity": 0.3543307086614173,
          "duration": 0.023255813953483084
        },
        {
          "name": "A#5",
          "midi": 82,
          "time": 158.1279069767207,
          "velocity": 0.11811023622047244,
          "duration": 0.034883720930224626
        },
        {
          "name": "F6",
          "midi": 89,
          "time": 158.1279069767207,
          "velocity": 0.4881889763779528,
          "duration": 0.6627906976742679
        },
        {
          "name": "C7",
          "midi": 96,
          "time": 158.1279069767207,
          "velocity": 0.1968503937007874,
          "duration": 0.11627906976741542
        },
        {
          "name": "C6",
          "midi": 84,
          "time": 158.13953488369745,
          "velocity": 0.2677165354330709,
          "duration": 0.04651162790696617
        },
        {
          "name": "A1",
          "midi": 33,
          "time": 158.1511627906742,
          "velocity": 0.7795275590551181,
          "duration": 0.023255813953483084
        },
        {
          "name": "F4",
          "midi": 65,
          "time": 158.1511627906742,
          "velocity": 0.28346456692913385,
          "duration": 0.18604651162786467
        },
        {
          "name": "G#1",
          "midi": 32,
          "time": 158.17441860462768,
          "velocity": 0.7480314960629921,
          "duration": 0.023255813953483084
        },
        {
          "name": "F#5",
          "midi": 78,
          "time": 158.17441860462768,
          "velocity": 0.10236220472440945,
          "duration": 0.034883720930224626
        },
        {
          "name": "G#5",
          "midi": 80,
          "time": 158.17441860462768,
          "velocity": 0.29133858267716534,
          "duration": 0.17441860465112313
        },
        {
          "name": "B5",
          "midi": 83,
          "time": 158.17441860462768,
          "velocity": 0.09448818897637795,
          "duration": 0.034883720930224626
        },
        {
          "name": "D7",
          "midi": 98,
          "time": 158.17441860462768,
          "velocity": 0.08661417322834646,
          "duration": 0.034883720930224626
        },
        {
          "name": "A#2",
          "midi": 46,
          "time": 158.18604651160442,
          "velocity": 0.4330708661417323,
          "duration": 0.04651162790696617
        },
        {
          "name": "A#5",
          "midi": 82,
          "time": 158.18604651160442,
          "velocity": 0.1732283464566929,
          "duration": 0.04651162790696617
        },
        {
          "name": "D6",
          "midi": 86,
          "time": 158.18604651160442,
          "velocity": 0.16535433070866143,
          "duration": 0.034883720930224626
        },
        {
          "name": "G7",
          "midi": 103,
          "time": 158.18604651160442,
          "velocity": 0.08661417322834646,
          "duration": 0.034883720930224626
        },
        {
          "name": "G1",
          "midi": 31,
          "time": 158.19767441858116,
          "velocity": 0.7086614173228346,
          "duration": 0.023255813953483084
        },
        {
          "name": "F3",
          "midi": 53,
          "time": 158.19767441858116,
          "velocity": 0.28346456692913385,
          "duration": 0.05813953488370771
        },
        {
          "name": "F5",
          "midi": 77,
          "time": 158.19767441858116,
          "velocity": 0.4251968503937008,
          "duration": 0.6162790697673017
        },
        {
          "name": "F#6",
          "midi": 90,
          "time": 158.19767441858116,
          "velocity": 0.15748031496062992,
          "duration": 0.05813953488370771
        },
        {
          "name": "C6",
          "midi": 84,
          "time": 158.2093023255579,
          "velocity": 0.4330708661417323,
          "duration": 0.17441860465112313
        },
        {
          "name": "G6",
          "midi": 91,
          "time": 158.2093023255579,
          "velocity": 0.15748031496062992,
          "duration": 0.09302325581393234
        },
        {
          "name": "A#6",
          "midi": 94,
          "time": 158.2093023255579,
          "velocity": 0.25984251968503935,
          "duration": 0.18604651162786467
        },
        {
          "name": "F#1",
          "midi": 30,
          "time": 158.22093023253464,
          "velocity": 0.7086614173228346,
          "duration": 0.023255813953483084
        },
        {
          "name": "G1",
          "midi": 31,
          "time": 158.24418604648812,
          "velocity": 0.7480314960629921,
          "duration": 0.023255813953483084
        },
        {
          "name": "A6",
          "midi": 93,
          "time": 158.24418604648812,
          "velocity": 0.1889763779527559,
          "duration": 0.12790697674415696
        },
        {
          "name": "D7",
          "midi": 98,
          "time": 158.24418604648812,
          "velocity": 0.1968503937007874,
          "duration": 0.0813953488371908
        },
        {
          "name": "A4",
          "midi": 69,
          "time": 158.25581395346487,
          "velocity": 0.2677165354330709,
          "duration": 0.023255813953483084
        },
        {
          "name": "G#1",
          "midi": 32,
          "time": 158.2674418604416,
          "velocity": 0.7401574803149606,
          "duration": 0.034883720930224626
        },
        {
          "name": "A#4",
          "midi": 70,
          "time": 158.27906976741835,
          "velocity": 0.5039370078740157,
          "duration": 0.31395348837202164
        },
        {
          "name": "D#5",
          "midi": 75,
          "time": 158.27906976741835,
          "velocity": 0.25984251968503935,
          "duration": 0.11627906976741542
        },
        {
          "name": "B1",
          "midi": 35,
          "time": 158.30232558137183,
          "velocity": 0.5118110236220472,
          "duration": 0.011627906976741542
        },
        {
          "name": "A#2",
          "midi": 46,
          "time": 158.30232558137183,
          "velocity": 0.4251968503937008,
          "duration": 0.023255813953483084
        },
        {
          "name": "F#6",
          "midi": 90,
          "time": 158.30232558137183,
          "velocity": 0.14173228346456693,
          "duration": 0.04651162790696617
        },
        {
          "name": "D2",
          "midi": 38,
          "time": 158.31395348834857,
          "velocity": 0.5511811023622047,
          "duration": 0.011627906976741542
        },
        {
          "name": "A#1",
          "midi": 34,
          "time": 158.32558139532532,
          "velocity": 0.6614173228346457,
          "duration": 0.011627906976741542
        },
        {
          "name": "F3",
          "midi": 53,
          "time": 158.32558139532532,
          "velocity": 0.28346456692913385,
          "duration": 0.023255813953483084
        },
        {
          "name": "A1",
          "midi": 33,
          "time": 158.33720930230206,
          "velocity": 0.7007874015748031,
          "duration": 0.023255813953483084
        },
        {
          "name": "A#2",
          "midi": 46,
          "time": 158.33720930230206,
          "velocity": 0.44881889763779526,
          "duration": 0.023255813953483084
        },
        {
          "name": "G6",
          "midi": 91,
          "time": 158.33720930230206,
          "velocity": 0.15748031496062992,
          "duration": 0.04651162790696617
        },
        {
          "name": "F4",
          "midi": 65,
          "time": 158.3488372092788,
          "velocity": 0.2755905511811024,
          "duration": 0.034883720930224626
        },
        {
          "name": "A#1",
          "midi": 34,
          "time": 158.36046511625554,
          "velocity": 0.7007874015748031,
          "duration": 0.3837209302324709
        },
        {
          "name": "D7",
          "midi": 98,
          "time": 158.36046511625554,
          "velocity": 0.2125984251968504,
          "duration": 0.37209302325572935
        },
        {
          "name": "F3",
          "midi": 53,
          "time": 158.37209302323228,
          "velocity": 0.3228346456692913,
          "duration": 0.06976744186044925
        },
        {
          "name": "G#5",
          "midi": 80,
          "time": 158.37209302323228,
          "velocity": 0.31496062992125984,
          "duration": 0.12790697674415696
        },
        {
          "name": "F#6",
          "midi": 90,
          "time": 158.37209302323228,
          "velocity": 0.2204724409448819,
          "duration": 0.04651162790696617
        },
        {
          "name": "D#7",
          "midi": 99,
          "time": 158.37209302323228,
          "velocity": 0.2755905511811024,
          "duration": 0.6395348837207848
        },
        {
          "name": "F#4",
          "midi": 66,
          "time": 158.38372093020902,
          "velocity": 0.28346456692913385,
          "duration": 0.05813953488370771
        },
        {
          "name": "B5",
          "midi": 83,
          "time": 158.38372093020902,
          "velocity": 0.29133858267716534,
          "duration": 0.06976744186044925
        },
        {
          "name": "C#4",
          "midi": 61,
          "time": 158.39534883718576,
          "velocity": 0.2992125984251969,
          "duration": 0.023255813953483084
        },
        {
          "name": "G7",
          "midi": 103,
          "time": 158.39534883718576,
          "velocity": 0.12598425196850394,
          "duration": 0.10465116279067388
        },
        {
          "name": "G5",
          "midi": 79,
          "time": 158.4069767441625,
          "velocity": 0.2283464566929134,
          "duration": 0.034883720930224626
        },
        {
          "name": "D6",
          "midi": 86,
          "time": 158.4069767441625,
          "velocity": 0.25984251968503935,
          "duration": 0.034883720930224626
        },
        {
          "name": "E7",
          "midi": 100,
          "time": 158.4069767441625,
          "velocity": 0.2047244094488189,
          "duration": 0.18604651162786467
        },
        {
          "name": "C6",
          "midi": 84,
          "time": 158.41860465113925,
          "velocity": 0.3464566929133858,
          "duration": 0.06976744186044925
        },
        {
          "name": "D#6",
          "midi": 87,
          "time": 158.41860465113925,
          "velocity": 0.29133858267716534,
          "duration": 0.18604651162786467
        },
        {
          "name": "A6",
          "midi": 93,
          "time": 158.41860465113925,
          "velocity": 0.28346456692913385,
          "duration": 0.11627906976741542
        },
        {
          "name": "A#6",
          "midi": 94,
          "time": 158.41860465113925,
          "velocity": 0.29133858267716534,
          "duration": 0.0813953488371908
        },
        {
          "name": "G6",
          "midi": 91,
          "time": 158.430232558116,
          "velocity": 0.33070866141732286,
          "duration": 0.09302325581393234
        },
        {
          "name": "F4",
          "midi": 65,
          "time": 158.44186046509273,
          "velocity": 0.31496062992125984,
          "duration": 0.034883720930224626
        },
        {
          "name": "C5",
          "midi": 72,
          "time": 158.44186046509273,
          "velocity": 0.3228346456692913,
          "duration": 0.023255813953483084
        },
        {
          "name": "A5",
          "midi": 81,
          "time": 158.44186046509273,
          "velocity": 0.25196850393700787,
          "duration": 0.023255813953483084
        },
        {
          "name": "F3",
          "midi": 53,
          "time": 158.45348837206947,
          "velocity": 0.36220472440944884,
          "duration": 0.26744186046505547
        },
        {
          "name": "C#4",
          "midi": 61,
          "time": 158.45348837206947,
          "velocity": 0.4015748031496063,
          "duration": 0.05813953488370771
        },
        {
          "name": "E6",
          "midi": 88,
          "time": 158.45348837206947,
          "velocity": 0.2440944881889764,
          "duration": 0.0813953488371908
        },
        {
          "name": "F#7",
          "midi": 102,
          "time": 158.45348837206947,
          "velocity": 0.28346456692913385,
          "duration": 0.406976744185954
        },
        {
          "name": "B5",
          "midi": 83,
          "time": 158.4651162790462,
          "velocity": 0.25196850393700787,
          "duration": 0.04651162790696617
        },
        {
          "name": "B6",
          "midi": 95,
          "time": 158.4651162790462,
          "velocity": 0.25984251968503935,
          "duration": 0.24418604651157239
        },
        {
          "name": "F#4",
          "midi": 66,
          "time": 158.47674418602296,
          "velocity": 0.15748031496062992,
          "duration": 0.04651162790696617
        },
        {
          "name": "D#5",
          "midi": 75,
          "time": 158.47674418602296,
          "velocity": 0.31496062992125984,
          "duration": 0.11627906976741542
        },
        {
          "name": "A#3",
          "midi": 58,
          "time": 158.49999999997644,
          "velocity": 0.2992125984251969,
          "duration": 0.10465116279067388
        },
        {
          "name": "C6",
          "midi": 84,
          "time": 158.49999999997644,
          "velocity": 0.3779527559055118,
          "duration": 0.0813953488371908
        },
        {
          "name": "F#6",
          "midi": 90,
          "time": 158.49999999997644,
          "velocity": 0.28346456692913385,
          "duration": 0.04651162790696617
        },
        {
          "name": "F4",
          "midi": 65,
          "time": 158.52325581392992,
          "velocity": 0.4015748031496063,
          "duration": 0.19767441860460622
        },
        {
          "name": "D5",
          "midi": 74,
          "time": 158.52325581392992,
          "velocity": 0.28346456692913385,
          "duration": 0.023255813953483084
        },
        {
          "name": "G#5",
          "midi": 80,
          "time": 158.53488372090666,
          "velocity": 0.18110236220472442,
          "duration": 0.11627906976741542
        },
        {
          "name": "C#5",
          "midi": 73,
          "time": 158.5465116278834,
          "velocity": 0.3228346456692913,
          "duration": 0.023255813953483084
        },
        {
          "name": "F#6",
          "midi": 90,
          "time": 158.55813953486015,
          "velocity": 0.2125984251968504,
          "duration": 0.11627906976741542
        },
        {
          "name": "A6",
          "midi": 93,
          "time": 158.55813953486015,
          "velocity": 0.2677165354330709,
          "duration": 0.1627906976743816
        },
        {
          "name": "G7",
          "midi": 103,
          "time": 158.55813953486015,
          "velocity": 0.09448818897637795,
          "duration": 0.034883720930224626
        },
        {
          "name": "B5",
          "midi": 83,
          "time": 158.5697674418369,
          "velocity": 0.28346456692913385,
          "duration": 0.05813953488370771
        },
        {
          "name": "D6",
          "midi": 86,
          "time": 158.5697674418369,
          "velocity": 0.2283464566929134,
          "duration": 0.023255813953483084
        },
        {
          "name": "C#5",
          "midi": 73,
          "time": 158.58139534881363,
          "velocity": 0.47244094488188976,
          "duration": 0.45348837209292014
        },
        {
          "name": "E6",
          "midi": 88,
          "time": 158.58139534881363,
          "velocity": 0.18110236220472442,
          "duration": 0.09302325581393234
        },
        {
          "name": "C6",
          "midi": 84,
          "time": 158.59302325579037,
          "velocity": 0.33070866141732286,
          "duration": 0.023255813953483084
        },
        {
          "name": "A#4",
          "midi": 70,
          "time": 158.6046511627671,
          "velocity": 0.3858267716535433,
          "duration": 0.12790697674415696
        },
        {
          "name": "D#5",
          "midi": 75,
          "time": 158.6046511627671,
          "velocity": 0.2204724409448819,
          "duration": 0.034883720930224626
        },
        {
          "name": "G#4",
          "midi": 68,
          "time": 158.61627906974385,
          "velocity": 0.1968503937007874,
          "duration": 0.0813953488371908
        },
        {
          "name": "C6",
          "midi": 84,
          "time": 158.6279069767206,
          "velocity": 0.2755905511811024,
          "duration": 0.023255813953483084
        },
        {
          "name": "A#3",
          "midi": 58,
          "time": 158.65116279067408,
          "velocity": 0.4015748031496063,
          "duration": 0.43023255813943706
        },
        {
          "name": "C6",
          "midi": 84,
          "time": 158.66279069765082,
          "velocity": 0.3700787401574803,
          "duration": 0.023255813953483084
        },
        {
          "name": "D#6",
          "midi": 87,
          "time": 158.66279069765082,
          "velocity": 0.30708661417322836,
          "duration": 0.11627906976741542
        },
        {
          "name": "G#5",
          "midi": 80,
          "time": 158.67441860462756,
          "velocity": 0.31496062992125984,
          "duration": 0.05813953488370771
        },
        {
          "name": "B5",
          "midi": 83,
          "time": 158.6860465116043,
          "velocity": 0.2440944881889764,
          "duration": 0.023255813953483084
        },
        {
          "name": "C6",
          "midi": 84,
          "time": 158.69767441858104,
          "velocity": 0.3937007874015748,
          "duration": 0.09302325581393234
        },
        {
          "name": "E6",
          "midi": 88,
          "time": 158.69767441858104,
          "velocity": 0.33070866141732286,
          "duration": 0.10465116279067388
        },
        {
          "name": "F#6",
          "midi": 90,
          "time": 158.69767441858104,
          "velocity": 0.2992125984251969,
          "duration": 0.06976744186044925
        },
        {
          "name": "G7",
          "midi": 103,
          "time": 158.7093023255578,
          "velocity": 0.15748031496062992,
          "duration": 0.09302325581393234
        },
        {
          "name": "E4",
          "midi": 64,
          "time": 158.72093023253453,
          "velocity": 0.3228346456692913,
          "duration": 0.034883720930224626
        },
        {
          "name": "A5",
          "midi": 81,
          "time": 158.72093023253453,
          "velocity": 0.4566929133858268,
          "duration": 0.04651162790696617
        },
        {
          "name": "A4",
          "midi": 69,
          "time": 158.73255813951127,
          "velocity": 0.5196850393700787,
          "duration": 0.04651162790696617
        },
        {
          "name": "D#5",
          "midi": 75,
          "time": 158.73255813951127,
          "velocity": 0.2440944881889764,
          "duration": 0.06976744186044925
        },
        {
          "name": "G6",
          "midi": 91,
          "time": 158.73255813951127,
          "velocity": 0.31496062992125984,
          "duration": 0.06976744186044925
        },
        {
          "name": "D7",
          "midi": 98,
          "time": 158.744186046488,
          "velocity": 0.25196850393700787,
          "duration": 0.09302325581393234
        },
        {
          "name": "A#6",
          "midi": 94,
          "time": 158.77906976741824,
          "velocity": 0.14960629921259844,
          "duration": 0.12790697674415696
        },
        {
          "name": "A4",
          "midi": 69,
          "time": 158.79069767439498,
          "velocity": 0.1732283464566929,
          "duration": 0.05813953488370771
        },
        {
          "name": "C#4",
          "midi": 61,
          "time": 158.80232558137172,
          "velocity": 0.13385826771653545,
          "duration": 0.04651162790696617
        },
        {
          "name": "G#5",
          "midi": 80,
          "time": 158.80232558137172,
          "velocity": 0.25196850393700787,
          "duration": 0.06976744186044925
        },
        {
          "name": "C6",
          "midi": 84,
          "time": 158.80232558137172,
          "velocity": 0.2992125984251969,
          "duration": 0.04651162790696617
        },
        {
          "name": "B6",
          "midi": 95,
          "time": 158.80232558137172,
          "velocity": 0.14960629921259844,
          "duration": 0.04651162790696617
        },
        {
          "name": "G6",
          "midi": 91,
          "time": 158.81395348834846,
          "velocity": 0.15748031496062992,
          "duration": 0.06976744186044925
        },
        {
          "name": "F6",
          "midi": 89,
          "time": 158.83720930230194,
          "velocity": 0.14960629921259844,
          "duration": 0.09302325581393234
        },
        {
          "name": "C7",
          "midi": 96,
          "time": 158.83720930230194,
          "velocity": 0.4015748031496063,
          "duration": 0.5813953488370771
        },
        {
          "name": "F4",
          "midi": 65,
          "time": 158.84883720927868,
          "velocity": 0.08661417322834646,
          "duration": 0.04651162790696617
        },
        {
          "name": "G#4",
          "midi": 68,
          "time": 158.84883720927868,
          "velocity": 0.3858267716535433,
          "duration": 0.05813953488370771
        },
        {
          "name": "B5",
          "midi": 83,
          "time": 158.84883720927868,
          "velocity": 0.2283464566929134,
          "duration": 0.023255813953483084
        },
        {
          "name": "A6",
          "midi": 93,
          "time": 158.84883720927868,
          "velocity": 0.2047244094488189,
          "duration": 0.06976744186044925
        },
        {
          "name": "G5",
          "midi": 79,
          "time": 158.86046511625543,
          "velocity": 0.2047244094488189,
          "duration": 0.034883720930224626
        },
        {
          "name": "F#6",
          "midi": 90,
          "time": 158.86046511625543,
          "velocity": 0.2047244094488189,
          "duration": 0.12790697674415696
        },
        {
          "name": "A5",
          "midi": 81,
          "time": 158.87209302323217,
          "velocity": 0.2677165354330709,
          "duration": 0.023255813953483084
        },
        {
          "name": "C6",
          "midi": 84,
          "time": 158.87209302323217,
          "velocity": 0.3543307086614173,
          "duration": 0.12790697674415696
        },
        {
          "name": "B5",
          "midi": 83,
          "time": 158.8837209302089,
          "velocity": 0.2677165354330709,
          "duration": 0.023255813953483084
        },
        {
          "name": "E7",
          "midi": 100,
          "time": 158.8837209302089,
          "velocity": 0.08661417322834646,
          "duration": 0.05813953488370771
        },
        {
          "name": "A4",
          "midi": 69,
          "time": 158.9069767441624,
          "velocity": 0.3464566929133858,
          "duration": 0.04651162790696617
        },
        {
          "name": "A#5",
          "midi": 82,
          "time": 158.9069767441624,
          "velocity": 0.33858267716535434,
          "duration": 0.09302325581393234
        },
        {
          "name": "E6",
          "midi": 88,
          "time": 158.9069767441624,
          "velocity": 0.13385826771653545,
          "duration": 0.04651162790696617
        },
        {
          "name": "G6",
          "midi": 91,
          "time": 158.9069767441624,
          "velocity": 0.23622047244094488,
          "duration": 0.2209302325580893
        },
        {
          "name": "D7",
          "midi": 98,
          "time": 158.9069767441624,
          "velocity": 0.33858267716535434,
          "duration": 0.26744186046505547
        },
        {
          "name": "F5",
          "midi": 77,
          "time": 158.91860465113913,
          "velocity": 0.33070866141732286,
          "duration": 0.19767441860460622
        },
        {
          "name": "A#6",
          "midi": 94,
          "time": 158.91860465113913,
          "velocity": 0.41732283464566927,
          "duration": 0.4418604651161786
        },
        {
          "name": "G#5",
          "midi": 80,
          "time": 158.93023255811588,
          "velocity": 0.3228346456692913,
          "duration": 0.023255813953483084
        },
        {
          "name": "D6",
          "midi": 86,
          "time": 158.93023255811588,
          "velocity": 0.2125984251968504,
          "duration": 0.05813953488370771
        },
        {
          "name": "B4",
          "midi": 71,
          "time": 158.94186046509262,
          "velocity": 0.31496062992125984,
          "duration": 0.034883720930224626
        },
        {
          "name": "F6",
          "midi": 89,
          "time": 158.94186046509262,
          "velocity": 0.4094488188976378,
          "duration": 0.48837209302314477
        },
        {
          "name": "F4",
          "midi": 65,
          "time": 158.95348837206936,
          "velocity": 0.3779527559055118,
          "duration": 0.10465116279067388
        },
        {
          "name": "B6",
          "midi": 95,
          "time": 158.95348837206936,
          "velocity": 0.16535433070866143,
          "duration": 0.034883720930224626
        },
        {
          "name": "E7",
          "midi": 100,
          "time": 158.95348837206936,
          "velocity": 0.14960629921259844,
          "duration": 0.05813953488370771
        },
        {
          "name": "A4",
          "midi": 69,
          "time": 158.9651162790461,
          "velocity": 0.28346456692913385,
          "duration": 0.023255813953483084
        },
        {
          "name": "A6",
          "midi": 93,
          "time": 158.9651162790461,
          "velocity": 0.4251968503937008,
          "duration": 0.05813953488370771
        },
        {
          "name": "A#2",
          "midi": 46,
          "time": 158.97674418602284,
          "velocity": 0.14960629921259844,
          "duration": 0.04651162790696617
        },
        {
          "name": "F#5",
          "midi": 78,
          "time": 158.97674418602284,
          "velocity": 0.2440944881889764,
          "duration": 0.023255813953483084
        },
        {
          "name": "A#4",
          "midi": 70,
          "time": 158.98837209299958,
          "velocity": 0.5669291338582677,
          "duration": 0.17441860465112313
        },
        {
          "name": "B5",
          "midi": 83,
          "time": 158.98837209299958,
          "velocity": 0.2047244094488189,
          "duration": 0.04651162790696617
        },
        {
          "name": "D#6",
          "midi": 87,
          "time": 158.98837209299958,
          "velocity": 0.44881889763779526,
          "duration": 0.37209302325572935
        },
        {
          "name": "G#5",
          "midi": 80,
          "time": 158.99999999997632,
          "velocity": 0.4094488188976378,
          "duration": 0.1395348837208985
        },
        {
          "name": "D5",
          "midi": 74,
          "time": 159.03488372090655,
          "velocity": 0.2755905511811024,
          "duration": 0.04651162790696617
        },
        {
          "name": "C6",
          "midi": 84,
          "time": 159.03488372090655,
          "velocity": 0.30708661417322836,
          "duration": 0.034883720930224626
        },
        {
          "name": "D6",
          "midi": 86,
          "time": 159.0465116278833,
          "velocity": 0.29133858267716534,
          "duration": 0.034883720930224626
        },
        {
          "name": "F#7",
          "midi": 102,
          "time": 159.0465116278833,
          "velocity": 0.2283464566929134,
          "duration": 0.04651162790696617
        },
        {
          "name": "F#5",
          "midi": 78,
          "time": 159.05813953486003,
          "velocity": 0.12598425196850394,
          "duration": 0.034883720930224626
        },
        {
          "name": "D#7",
          "midi": 99,
          "time": 159.05813953486003,
          "velocity": 0.5039370078740157,
          "duration": 1.8255813953484221
        },
        {
          "name": "E7",
          "midi": 100,
          "time": 159.05813953486003,
          "velocity": 0.12598425196850394,
          "duration": 0.034883720930224626
        },
        {
          "name": "C#4",
          "midi": 61,
          "time": 159.06976744183677,
          "velocity": 0.3700787401574803,
          "duration": 0.023255813953483084
        },
        {
          "name": "F4",
          "midi": 65,
          "time": 159.06976744183677,
          "velocity": 0.4094488188976378,
          "duration": 0.06976744186044925
        },
        {
          "name": "B6",
          "midi": 95,
          "time": 159.06976744183677,
          "velocity": 0.1968503937007874,
          "duration": 0.05813953488370771
        },
        {
          "name": "C#5",
          "midi": 73,
          "time": 159.08139534881352,
          "velocity": 0.3700787401574803,
          "duration": 0.18604651162786467
        },
        {
          "name": "A5",
          "midi": 81,
          "time": 159.08139534881352,
          "velocity": 0.25196850393700787,
          "duration": 0.023255813953483084
        },
        {
          "name": "C6",
          "midi": 84,
          "time": 159.08139534881352,
          "velocity": 0.4094488188976378,
          "duration": 0.05813953488370771
        },
        {
          "name": "F#6",
          "midi": 90,
          "time": 159.08139534881352,
          "velocity": 0.23622047244094488,
          "duration": 0.034883720930224626
        },
        {
          "name": "D#5",
          "midi": 75,
          "time": 159.09302325579026,
          "velocity": 0.36220472440944884,
          "duration": 0.06976744186044925
        },
        {
          "name": "D6",
          "midi": 86,
          "time": 159.09302325579026,
          "velocity": 0.30708661417322836,
          "duration": 0.023255813953483084
        },
        {
          "name": "C#4",
          "midi": 61,
          "time": 159.104651162767,
          "velocity": 0.2992125984251969,
          "duration": 0.023255813953483084
        },
        {
          "name": "E6",
          "midi": 88,
          "time": 159.104651162767,
          "velocity": 0.16535433070866143,
          "duration": 0.04651162790696617
        },
        {
          "name": "F#7",
          "midi": 102,
          "time": 159.104651162767,
          "velocity": 0.3937007874015748,
          "duration": 0.26744186046505547
        },
        {
          "name": "G#4",
          "midi": 68,
          "time": 159.11627906974374,
          "velocity": 0.6141732283464567,
          "duration": 0.26744186046505547
        },
        {
          "name": "F#6",
          "midi": 90,
          "time": 159.12790697672048,
          "velocity": 0.2283464566929134,
          "duration": 0.06976744186044925
        },
        {
          "name": "A#2",
          "midi": 46,
          "time": 159.13953488369722,
          "velocity": 0.2677165354330709,
          "duration": 0.23255813953483084
        },
        {
          "name": "G6",
          "midi": 91,
          "time": 159.13953488369722,
          "velocity": 0.15748031496062992,
          "duration": 0.06976744186044925
        },
        {
          "name": "F4",
          "midi": 65,
          "time": 159.15116279067396,
          "velocity": 0.4409448818897638,
          "duration": 0.2558139534883139
        },
        {
          "name": "A6",
          "midi": 93,
          "time": 159.15116279067396,
          "velocity": 0.14173228346456693,
          "duration": 0.09302325581393234
        },
        {
          "name": "B6",
          "midi": 95,
          "time": 159.1627906976507,
          "velocity": 0.14173228346456693,
          "duration": 0.09302325581393234
        },
        {
          "name": "C#6",
          "midi": 85,
          "time": 159.17441860462745,
          "velocity": 0.6614173228346457,
          "duration": 0.5930232558138187
        },
        {
          "name": "E6",
          "midi": 88,
          "time": 159.1860465116042,
          "velocity": 0.12598425196850394,
          "duration": 0.04651162790696617
        },
        {
          "name": "C#4",
          "midi": 61,
          "time": 159.20930232555767,
          "velocity": 0.2047244094488189,
          "duration": 0.06976744186044925
        },
        {
          "name": "F#6",
          "midi": 90,
          "time": 159.20930232555767,
          "velocity": 0.2283464566929134,
          "duration": 0.05813953488370771
        },
        {
          "name": "C6",
          "midi": 84,
          "time": 159.23255813951116,
          "velocity": 0.3228346456692913,
          "duration": 0.05813953488370771
        },
        {
          "name": "D7",
          "midi": 98,
          "time": 159.2441860464879,
          "velocity": 0.15748031496062992,
          "duration": 0.04651162790696617
        },
        {
          "name": "D5",
          "midi": 74,
          "time": 159.25581395346464,
          "velocity": 0.36220472440944884,
          "duration": 0.023255813953483084
        },
        {
          "name": "A#3",
          "midi": 58,
          "time": 159.27906976741812,
          "velocity": 0.30708661417322836,
          "duration": 0.09302325581393234
        },
        {
          "name": "C#5",
          "midi": 73,
          "time": 159.27906976741812,
          "velocity": 0.4645669291338583,
          "duration": 0.10465116279067388
        },
        {
          "name": "D#5",
          "midi": 75,
          "time": 159.27906976741812,
          "velocity": 0.18110236220472442,
          "duration": 0.034883720930224626
        },
        {
          "name": "B6",
          "midi": 95,
          "time": 159.27906976741812,
          "velocity": 0.08661417322834646,
          "duration": 0.034883720930224626
        },
        {
          "name": "G6",
          "midi": 91,
          "time": 159.29069767439486,
          "velocity": 0.14173228346456693,
          "duration": 0.04651162790696617
        },
        {
          "name": "A#4",
          "midi": 70,
          "time": 159.31395348834835,
          "velocity": 0.4409448818897638,
          "duration": 0.0813953488371908
        },
        {
          "name": "A6",
          "midi": 93,
          "time": 159.31395348834835,
          "velocity": 0.13385826771653545,
          "duration": 0.034883720930224626
        },
        {
          "name": "D6",
          "midi": 86,
          "time": 159.3255813953251,
          "velocity": 0.2677165354330709,
          "duration": 0.04651162790696617
        },
        {
          "name": "E6",
          "midi": 88,
          "time": 159.33720930230183,
          "velocity": 0.15748031496062992,
          "duration": 0.034883720930224626
        },
        {
          "name": "F#6",
          "midi": 90,
          "time": 159.33720930230183,
          "velocity": 0.13385826771653545,
          "duration": 0.09302325581393234
        },
        {
          "name": "B5",
          "midi": 83,
          "time": 159.34883720927857,
          "velocity": 0.18110236220472442,
          "duration": 0.034883720930224626
        },
        {
          "name": "D3",
          "midi": 50,
          "time": 159.37209302323205,
          "velocity": 0.5433070866141733,
          "duration": 0.011627906976741542
        },
        {
          "name": "C6",
          "midi": 84,
          "time": 159.37209302323205,
          "velocity": 0.29133858267716534,
          "duration": 0.034883720930224626
        },
        {
          "name": "C3",
          "midi": 48,
          "time": 159.3837209302088,
          "velocity": 0.6929133858267716,
          "duration": 0.011627906976741542
        },
        {
          "name": "C5",
          "midi": 72,
          "time": 159.3837209302088,
          "velocity": 0.3858267716535433,
          "duration": 0.034883720930224626
        },
        {
          "name": "F#2",
          "midi": 42,
          "time": 159.39534883718554,
          "velocity": 0.7559055118110236,
          "duration": 0.011627906976741542
        },
        {
          "name": "G6",
          "midi": 91,
          "time": 159.39534883718554,
          "velocity": 0.14173228346456693,
          "duration": 0.04651162790696617
        },
        {
          "name": "B6",
          "midi": 95,
          "time": 159.39534883718554,
          "velocity": 0.10236220472440945,
          "duration": 0.034883720930224626
        },
        {
          "name": "E2",
          "midi": 40,
          "time": 159.40697674416228,
          "velocity": 0.7637795275590551,
          "duration": 0.011627906976741542
        },
        {
          "name": "C#5",
          "midi": 73,
          "time": 159.40697674416228,
          "velocity": 0.31496062992125984,
          "duration": 0.05813953488370771
        },
        {
          "name": "C#2",
          "midi": 37,
          "time": 159.41860465113902,
          "velocity": 0.7874015748031497,
          "duration": 0.011627906976741542
        },
        {
          "name": "F3",
          "midi": 53,
          "time": 159.41860465113902,
          "velocity": 0.5748031496062992,
          "duration": 0.1627906976743816
        },
        {
          "name": "B1",
          "midi": 35,
          "time": 159.43023255811576,
          "velocity": 0.7952755905511811,
          "duration": 0.011627906976741542
        },
        {
          "name": "D4",
          "midi": 62,
          "time": 159.43023255811576,
          "velocity": 0.2755905511811024,
          "duration": 0.023255813953483084
        },
        {
          "name": "A6",
          "midi": 93,
          "time": 159.43023255811576,
          "velocity": 0.18110236220472442,
          "duration": 0.31395348837202164
        },
        {
          "name": "A#1",
          "midi": 34,
          "time": 159.4418604650925,
          "velocity": 0.7952755905511811,
          "duration": 0.011627906976741542
        },
        {
          "name": "G#4",
          "midi": 68,
          "time": 159.4418604650925,
          "velocity": 0.10236220472440945,
          "duration": 0.034883720930224626
        },
        {
          "name": "D6",
          "midi": 86,
          "time": 159.4418604650925,
          "velocity": 0.2283464566929134,
          "duration": 0.04651162790696617
        },
        {
          "name": "E6",
          "midi": 88,
          "time": 159.4418604650925,
          "velocity": 0.1968503937007874,
          "duration": 0.034883720930224626
        },
        {
          "name": "A1",
          "midi": 33,
          "time": 159.45348837206924,
          "velocity": 0.7795275590551181,
          "duration": 0.011627906976741542
        },
        {
          "name": "C#4",
          "midi": 61,
          "time": 159.45348837206924,
          "velocity": 0.23622047244094488,
          "duration": 0.04651162790696617
        },
        {
          "name": "G#5",
          "midi": 80,
          "time": 159.45348837206924,
          "velocity": 0.5511811023622047,
          "duration": 0.5930232558138187
        },
        {
          "name": "A#5",
          "midi": 82,
          "time": 159.45348837206924,
          "velocity": 0.11811023622047244,
          "duration": 0.05813953488370771
        },
        {
          "name": "F6",
          "midi": 89,
          "time": 159.45348837206924,
          "velocity": 0.3858267716535433,
          "duration": 0.5813953488370771
        },
        {
          "name": "G#1",
          "midi": 32,
          "time": 159.465116279046,
          "velocity": 0.7716535433070866,
          "duration": 0.023255813953483084
        },
        {
          "name": "C5",
          "midi": 72,
          "time": 159.465116279046,
          "velocity": 0.2677165354330709,
          "duration": 0.04651162790696617
        },
        {
          "name": "G6",
          "midi": 91,
          "time": 159.47674418602273,
          "velocity": 0.15748031496062992,
          "duration": 0.15116279069764005
        },
        {
          "name": "G1",
          "midi": 31,
          "time": 159.48837209299947,
          "velocity": 0.7559055118110236,
          "duration": 0.05813953488370771
        },
        {
          "name": "G#4",
          "midi": 68,
          "time": 159.48837209299947,
          "velocity": 0.4330708661417323,
          "duration": 0.23255813953483084
        },
        {
          "name": "C4",
          "midi": 60,
          "time": 159.4999999999762,
          "velocity": 0.2677165354330709,
          "duration": 0.023255813953483084
        },
        {
          "name": "D#6",
          "midi": 87,
          "time": 159.4999999999762,
          "velocity": 0.31496062992125984,
          "duration": 0.37209302325572935
        },
        {
          "name": "C#5",
          "midi": 73,
          "time": 159.51162790695295,
          "velocity": 0.33070866141732286,
          "duration": 0.06976744186044925
        },
        {
          "name": "C#4",
          "midi": 61,
          "time": 159.5232558139297,
          "velocity": 0.4645669291338583,
          "duration": 0.3604651162789878
        },
        {
          "name": "B6",
          "midi": 95,
          "time": 159.53488372090644,
          "velocity": 0.16535433070866143,
          "duration": 0.09302325581393234
        },
        {
          "name": "G#1",
          "midi": 32,
          "time": 159.54651162788318,
          "velocity": 0.6141732283464567,
          "duration": 0.04651162790696617
        },
        {
          "name": "A#5",
          "midi": 82,
          "time": 159.55813953485992,
          "velocity": 0.23622047244094488,
          "duration": 0.12790697674415696
        },
        {
          "name": "E6",
          "midi": 88,
          "time": 159.55813953485992,
          "velocity": 0.11811023622047244,
          "duration": 0.05813953488370771
        },
        {
          "name": "E7",
          "midi": 100,
          "time": 159.55813953485992,
          "velocity": 0.16535433070866143,
          "duration": 0.23255813953483084
        },
        {
          "name": "C7",
          "midi": 96,
          "time": 159.56976744183666,
          "velocity": 0.28346456692913385,
          "duration": 0.17441860465112313
        },
        {
          "name": "C3",
          "midi": 48,
          "time": 159.5813953488134,
          "velocity": 0.3700787401574803,
          "duration": 0.034883720930224626
        },
        {
          "name": "C5",
          "midi": 72,
          "time": 159.5813953488134,
          "velocity": 0.30708661417322836,
          "duration": 0.023255813953483084
        },
        {
          "name": "G1",
          "midi": 31,
          "time": 159.59302325579014,
          "velocity": 0.6456692913385826,
          "duration": 0.011627906976741542
        },
        {
          "name": "C#5",
          "midi": 73,
          "time": 159.59302325579014,
          "velocity": 0.47244094488188976,
          "duration": 0.34883720930224626
        },
        {
          "name": "F#1",
          "midi": 30,
          "time": 159.60465116276688,
          "velocity": 0.6929133858267716,
          "duration": 0.0813953488371908
        },
        {
          "name": "E5",
          "midi": 76,
          "time": 159.61627906974363,
          "velocity": 0.1732283464566929,
          "duration": 0.034883720930224626
        },
        {
          "name": "F#5",
          "midi": 78,
          "time": 159.61627906974363,
          "velocity": 0.2047244094488189,
          "duration": 0.034883720930224626
        },
        {
          "name": "C6",
          "midi": 84,
          "time": 159.62790697672037,
          "velocity": 0.16535433070866143,
          "duration": 0.04651162790696617
        },
        {
          "name": "G7",
          "midi": 103,
          "time": 159.62790697672037,
          "velocity": 0.07874015748031496,
          "duration": 0.04651162790696617
        },
        {
          "name": "G6",
          "midi": 91,
          "time": 159.6395348836971,
          "velocity": 0.13385826771653545,
          "duration": 0.04651162790696617
        },
        {
          "name": "C3",
          "midi": 48,
          "time": 159.65116279067385,
          "velocity": 0.44881889763779526,
          "duration": 0.39534883720921243
        },
        {
          "name": "F5",
          "midi": 77,
          "time": 159.65116279067385,
          "velocity": 0.30708661417322836,
          "duration": 0.05813953488370771
        },
        {
          "name": "B6",
          "midi": 95,
          "time": 159.65116279067385,
          "velocity": 0.2204724409448819,
          "duration": 0.034883720930224626
        },
        {
          "name": "D7",
          "midi": 98,
          "time": 159.65116279067385,
          "velocity": 0.14173228346456693,
          "duration": 0.034883720930224626
        },
        {
          "name": "F#6",
          "midi": 90,
          "time": 159.6627906976506,
          "velocity": 0.2204724409448819,
          "duration": 0.0813953488371908
        },
        {
          "name": "B5",
          "midi": 83,
          "time": 159.67441860462733,
          "velocity": 0.1732283464566929,
          "duration": 0.034883720930224626
        },
        {
          "name": "F1",
          "midi": 29,
          "time": 159.68604651160408,
          "velocity": 0.7165354330708661,
          "duration": 0.34883720930224626
        },
        {
          "name": "E4",
          "midi": 64,
          "time": 159.69767441858082,
          "velocity": 0.33858267716535434,
          "duration": 0.023255813953483084
        },
        {
          "name": "B6",
          "midi": 95,
          "time": 159.69767441858082,
          "velocity": 0.2677165354330709,
          "duration": 0.10465116279067388
        },
        {
          "name": "D7",
          "midi": 98,
          "time": 159.69767441858082,
          "velocity": 0.14173228346456693,
          "duration": 0.04651162790696617
        },
        {
          "name": "F#7",
          "midi": 102,
          "time": 159.69767441858082,
          "velocity": 0.30708661417322836,
          "duration": 0.837209302325391
        },
        {
          "name": "A#5",
          "midi": 82,
          "time": 159.70930232555756,
          "velocity": 0.2204724409448819,
          "duration": 0.0813953488371908
        },
        {
          "name": "G6",
          "midi": 91,
          "time": 159.70930232555756,
          "velocity": 0.2125984251968504,
          "duration": 0.09302325581393234
        },
        {
          "name": "F4",
          "midi": 65,
          "time": 159.7209302325343,
          "velocity": 0.4881889763779528,
          "duration": 0.3255813953487632
        },
        {
          "name": "A4",
          "midi": 69,
          "time": 159.7209302325343,
          "velocity": 0.3700787401574803,
          "duration": 0.19767441860460622
        },
        {
          "name": "F#5",
          "midi": 78,
          "time": 159.7209302325343,
          "velocity": 0.2283464566929134,
          "duration": 0.034883720930224626
        },
        {
          "name": "D6",
          "midi": 86,
          "time": 159.7209302325343,
          "velocity": 0.23622047244094488,
          "duration": 0.034883720930224626
        },
        {
          "name": "E6",
          "midi": 88,
          "time": 159.73255813951104,
          "velocity": 0.11811023622047244,
          "duration": 0.034883720930224626
        },
        {
          "name": "C6",
          "midi": 84,
          "time": 159.74418604648778,
          "velocity": 0.5039370078740157,
          "duration": 0.034883720930224626
        },
        {
          "name": "A6",
          "midi": 93,
          "time": 159.75581395346452,
          "velocity": 0.1968503937007874,
          "duration": 0.17441860465112313
        },
        {
          "name": "C#6",
          "midi": 85,
          "time": 159.779069767418,
          "velocity": 0.5748031496062992,
          "duration": 0.39534883720921243
        },
        {
          "name": "D#5",
          "midi": 75,
          "time": 159.79069767439475,
          "velocity": 0.18110236220472442,
          "duration": 0.09302325581393234
        },
        {
          "name": "F#6",
          "midi": 90,
          "time": 159.8023255813715,
          "velocity": 0.2204724409448819,
          "duration": 0.05813953488370771
        },
        {
          "name": "A#6",
          "midi": 94,
          "time": 159.8023255813715,
          "velocity": 0.23622047244094488,
          "duration": 0.04651162790696617
        },
        {
          "name": "A#5",
          "midi": 82,
          "time": 159.81395348834823,
          "velocity": 0.2440944881889764,
          "duration": 0.034883720930224626
        },
        {
          "name": "D7",
          "midi": 98,
          "time": 159.81395348834823,
          "velocity": 0.13385826771653545,
          "duration": 0.05813953488370771
        },
        {
          "name": "B6",
          "midi": 95,
          "time": 159.82558139532497,
          "velocity": 0.12598425196850394,
          "duration": 0.06976744186044925
        },
        {
          "name": "B5",
          "midi": 83,
          "time": 159.84883720927846,
          "velocity": 0.28346456692913385,
          "duration": 0.04651162790696617
        },
        {
          "name": "A#6",
          "midi": 94,
          "time": 159.8604651162552,
          "velocity": 0.12598425196850394,
          "duration": 0.11627906976741542
        },
        {
          "name": "E6",
          "midi": 88,
          "time": 159.87209302323194,
          "velocity": 0.18110236220472442,
          "duration": 0.06976744186044925
        },
        {
          "name": "G7",
          "midi": 103,
          "time": 159.87209302323194,
          "velocity": 0.11811023622047244,
          "duration": 0.05813953488370771
        },
        {
          "name": "D#6",
          "midi": 87,
          "time": 159.88372093020868,
          "velocity": 0.2677165354330709,
          "duration": 0.15116279069764005
        },
        {
          "name": "D7",
          "midi": 98,
          "time": 159.88372093020868,
          "velocity": 0.12598425196850394,
          "duration": 0.11627906976741542
        },
        {
          "name": "C#4",
          "midi": 61,
          "time": 159.89534883718542,
          "velocity": 0.44881889763779526,
          "duration": 0.05813953488370771
        },
        {
          "name": "G6",
          "midi": 91,
          "time": 159.89534883718542,
          "velocity": 0.14960629921259844,
          "duration": 0.09302325581393234
        },
        {
          "name": "G#4",
          "midi": 68,
          "time": 159.90697674416217,
          "velocity": 0.4881889763779528,
          "duration": 0.1395348837208985
        },
        {
          "name": "B5",
          "midi": 83,
          "time": 159.90697674416217,
          "velocity": 0.23622047244094488,
          "duration": 0.023255813953483084
        },
        {
          "name": "F3",
          "midi": 53,
          "time": 159.93023255811565,
          "velocity": 0.41732283464566927,
          "duration": 0.05813953488370771
        },
        {
          "name": "C6",
          "midi": 84,
          "time": 159.93023255811565,
          "velocity": 0.36220472440944884,
          "duration": 0.0813953488371908
        },
        {
          "name": "B6",
          "midi": 95,
          "time": 159.93023255811565,
          "velocity": 0.2992125984251969,
          "duration": 0.2209302325580893
        },
        {
          "name": "C#5",
          "midi": 73,
          "time": 159.95348837206913,
          "velocity": 0.4409448818897638,
          "duration": 0.1395348837208985
        },
        {
          "name": "D#5",
          "midi": 75,
          "time": 159.95348837206913,
          "velocity": 0.1889763779527559,
          "duration": 0.034883720930224626
        },
        {
          "name": "A#5",
          "midi": 82,
          "time": 159.95348837206913,
          "velocity": 0.15748031496062992,
          "duration": 0.034883720930224626
        },
        {
          "name": "C#4",
          "midi": 61,
          "time": 159.96511627904587,
          "velocity": 0.3858267716535433,
          "duration": 0.034883720930224626
        },
        {
          "name": "B5",
          "midi": 83,
          "time": 159.98837209299936,
          "velocity": 0.2992125984251969,
          "duration": 0.0813953488371908
        },
        {
          "name": "A#6",
          "midi": 94,
          "time": 159.9999999999761,
          "velocity": 0.28346456692913385,
          "duration": 0.12790697674415696
        },
        {
          "name": "A5",
          "midi": 81,
          "time": 160.01162790695284,
          "velocity": 0.4015748031496063,
          "duration": 0.05813953488370771
        },
        {
          "name": "D6",
          "midi": 86,
          "time": 160.02325581392958,
          "velocity": 0.31496062992125984,
          "duration": 0.034883720930224626
        },
        {
          "name": "F#6",
          "midi": 90,
          "time": 160.02325581392958,
          "velocity": 0.2677165354330709,
          "duration": 0.09302325581393234
        },
        {
          "name": "F#1",
          "midi": 30,
          "time": 160.03488372090632,
          "velocity": 0.6535433070866141,
          "duration": 0.023255813953483084
        },
        {
          "name": "C#4",
          "midi": 61,
          "time": 160.03488372090632,
          "velocity": 0.3464566929133858,
          "duration": 0.10465116279067388
        },
        {
          "name": "F#5",
          "midi": 78,
          "time": 160.03488372090632,
          "velocity": 0.30708661417322836,
          "duration": 0.034883720930224626
        },
        {
          "name": "E6",
          "midi": 88,
          "time": 160.03488372090632,
          "velocity": 0.30708661417322836,
          "duration": 0.0813953488371908
        },
        {
          "name": "G7",
          "midi": 103,
          "time": 160.03488372090632,
          "velocity": 0.28346456692913385,
          "duration": 0.09302325581393234
        },
        {
          "name": "A4",
          "midi": 69,
          "time": 160.04651162788306,
          "velocity": 0.5196850393700787,
          "duration": 0.023255813953483084
        },
        {
          "name": "D#6",
          "midi": 87,
          "time": 160.04651162788306,
          "velocity": 0.2992125984251969,
          "duration": 0.04651162790696617
        },
        {
          "name": "C7",
          "midi": 96,
          "time": 160.04651162788306,
          "velocity": 0.29133858267716534,
          "duration": 0.17441860465112313
        },
        {
          "name": "E1",
          "midi": 28,
          "time": 160.0581395348598,
          "velocity": 0.3543307086614173,
          "duration": 0.023255813953483084
        },
        {
          "name": "F4",
          "midi": 65,
          "time": 160.0581395348598,
          "velocity": 0.3543307086614173,
          "duration": 0.15116279069764005
        },
        {
          "name": "D5",
          "midi": 74,
          "time": 160.06976744183655,
          "velocity": 0.14173228346456693,
          "duration": 0.04651162790696617
        },
        {
          "name": "G#5",
          "midi": 80,
          "time": 160.06976744183655,
          "velocity": 0.5748031496062992,
          "duration": 0.6279069767440433
        },
        {
          "name": "D6",
          "midi": 86,
          "time": 160.0813953488133,
          "velocity": 0.2283464566929134,
          "duration": 0.034883720930224626
        },
        {
          "name": "A4",
          "midi": 69,
          "time": 160.09302325579003,
          "velocity": 0.2125984251968504,
          "duration": 0.04651162790696617
        },
        {
          "name": "A6",
          "midi": 93,
          "time": 160.09302325579003,
          "velocity": 0.1889763779527559,
          "duration": 0.06976744186044925
        },
        {
          "name": "F2",
          "midi": 41,
          "time": 160.1162790697435,
          "velocity": 0.2283464566929134,
          "duration": 0.24418604651157239
        },
        {
          "name": "F5",
          "midi": 77,
          "time": 160.1162790697435,
          "velocity": 0.6614173228346457,
          "duration": 0.5930232558138187
        },
        {
          "name": "D#6",
          "midi": 87,
          "time": 160.1162790697435,
          "velocity": 0.15748031496062992,
          "duration": 0.034883720930224626
        },
        {
          "name": "G6",
          "midi": 91,
          "time": 160.1162790697435,
          "velocity": 0.2125984251968504,
          "duration": 0.17441860465112313
        },
        {
          "name": "G#4",
          "midi": 68,
          "time": 160.139534883697,
          "velocity": 0.3937007874015748,
          "duration": 0.0813953488371908
        },
        {
          "name": "D7",
          "midi": 98,
          "time": 160.139534883697,
          "velocity": 0.33858267716535434,
          "duration": 0.26744186046505547
        },
        {
          "name": "B5",
          "midi": 83,
          "time": 160.15116279067374,
          "velocity": 0.1732283464566929,
          "duration": 0.04651162790696617
        },
        {
          "name": "D6",
          "midi": 86,
          "time": 160.15116279067374,
          "velocity": 0.2204724409448819,
          "duration": 0.04651162790696617
        },
        {
          "name": "C6",
          "midi": 84,
          "time": 160.17441860462722,
          "velocity": 0.2204724409448819,
          "duration": 0.034883720930224626
        },
        {
          "name": "D#6",
          "midi": 87,
          "time": 160.17441860462722,
          "velocity": 0.16535433070866143,
          "duration": 0.0813953488371908
        },
        {
          "name": "F#6",
          "midi": 90,
          "time": 160.17441860462722,
          "velocity": 0.2992125984251969,
          "duration": 0.17441860465112313
        },
        {
          "name": "A6",
          "midi": 93,
          "time": 160.17441860462722,
          "velocity": 0.14173228346456693,
          "duration": 0.05813953488370771
        },
        {
          "name": "C#6",
          "midi": 85,
          "time": 160.18604651160396,
          "velocity": 0.5039370078740157,
          "duration": 0.15116279069764005
        },
        {
          "name": "A#6",
          "midi": 94,
          "time": 160.18604651160396,
          "velocity": 0.1732283464566929,
          "duration": 0.10465116279067388
        },
        {
          "name": "C#5",
          "midi": 73,
          "time": 160.20930232555745,
          "velocity": 0.5433070866141733,
          "duration": 0.47674418604640323
        },
        {
          "name": "F7",
          "midi": 101,
          "time": 160.20930232555745,
          "velocity": 0.41732283464566927,
          "duration": 0.48837209302314477
        },
        {
          "name": "F4",
          "midi": 65,
          "time": 160.2209302325342,
          "velocity": 0.2992125984251969,
          "duration": 0.04651162790696617
        },
        {
          "name": "A4",
          "midi": 69,
          "time": 160.2209302325342,
          "velocity": 0.3464566929133858,
          "duration": 0.034883720930224626
        },
        {
          "name": "A#5",
          "midi": 82,
          "time": 160.2209302325342,
          "velocity": 0.16535433070866143,
          "duration": 0.034883720930224626
        },
        {
          "name": "B6",
          "midi": 95,
          "time": 160.23255813951093,
          "velocity": 0.2204724409448819,
          "duration": 0.17441860465112313
        },
        {
          "name": "C7",
          "midi": 96,
          "time": 160.23255813951093,
          "velocity": 0.4409448818897638,
          "duration": 0.4651162790696617
        },
        {
          "name": "G#4",
          "midi": 68,
          "time": 160.24418604648767,
          "velocity": 0.28346456692913385,
          "duration": 0.023255813953483084
        },
        {
          "name": "B5",
          "midi": 83,
          "time": 160.24418604648767,
          "velocity": 0.09448818897637795,
          "duration": 0.034883720930224626
        },
        {
          "name": "F3",
          "midi": 53,
          "time": 160.2558139534644,
          "velocity": 0.25984251968503935,
          "duration": 0.10465116279067388
        },
        {
          "name": "A#4",
          "midi": 70,
          "time": 160.2558139534644,
          "velocity": 0.2283464566929134,
          "duration": 0.034883720930224626
        },
        {
          "name": "A5",
          "midi": 81,
          "time": 160.2558139534644,
          "velocity": 0.2440944881889764,
          "duration": 0.023255813953483084
        },
        {
          "name": "D6",
          "midi": 86,
          "time": 160.2558139534644,
          "velocity": 0.29133858267716534,
          "duration": 0.023255813953483084
        },
        {
          "name": "A6",
          "midi": 93,
          "time": 160.2558139534644,
          "velocity": 0.25196850393700787,
          "duration": 0.12790697674415696
        },
        {
          "name": "E7",
          "midi": 100,
          "time": 160.2558139534644,
          "velocity": 0.25984251968503935,
          "duration": 0.19767441860460622
        },
        {
          "name": "C#4",
          "midi": 61,
          "time": 160.26744186044115,
          "velocity": 0.15748031496062992,
          "duration": 0.05813953488370771
        },
        {
          "name": "D#6",
          "midi": 87,
          "time": 160.26744186044115,
          "velocity": 0.5196850393700787,
          "duration": 0.45348837209292014
        },
        {
          "name": "G#4",
          "midi": 68,
          "time": 160.2790697674179,
          "velocity": 0.4566929133858268,
          "duration": 0.1627906976743816
        },
        {
          "name": "A#5",
          "midi": 82,
          "time": 160.2790697674179,
          "velocity": 0.3937007874015748,
          "duration": 0.0813953488371908
        },
        {
          "name": "C6",
          "midi": 84,
          "time": 160.2790697674179,
          "velocity": 0.14173228346456693,
          "duration": 0.034883720930224626
        },
        {
          "name": "F4",
          "midi": 65,
          "time": 160.29069767439464,
          "velocity": 0.33070866141732286,
          "duration": 0.06976744186044925
        },
        {
          "name": "B4",
          "midi": 71,
          "time": 160.30232558137138,
          "velocity": 0.14960629921259844,
          "duration": 0.034883720930224626
        },
        {
          "name": "C4",
          "midi": 60,
          "time": 160.32558139532486,
          "velocity": 0.29133858267716534,
          "duration": 0.04651162790696617
        },
        {
          "name": "C6",
          "midi": 84,
          "time": 160.3372093023016,
          "velocity": 0.3858267716535433,
          "duration": 0.023255813953483084
        },
        {
          "name": "F#4",
          "midi": 66,
          "time": 160.36046511625509,
          "velocity": 0.4094488188976378,
          "duration": 0.023255813953483084
        },
        {
          "name": "G6",
          "midi": 91,
          "time": 160.36046511625509,
          "velocity": 0.2440944881889764,
          "duration": 0.15116279069764005
        },
        {
          "name": "C#4",
          "midi": 61,
          "time": 160.37209302323183,
          "velocity": 0.3700787401574803,
          "duration": 0.04651162790696617
        },
        {
          "name": "D#5",
          "midi": 75,
          "time": 160.37209302323183,
          "velocity": 0.6535433070866141,
          "duration": 0.3604651162789878
        },
        {
          "name": "A#5",
          "midi": 82,
          "time": 160.37209302323183,
          "velocity": 0.16535433070866143,
          "duration": 0.05813953488370771
        },
        {
          "name": "C6",
          "midi": 84,
          "time": 160.37209302323183,
          "velocity": 0.30708661417322836,
          "duration": 0.023255813953483084
        },
        {
          "name": "A#6",
          "midi": 94,
          "time": 160.37209302323183,
          "velocity": 0.5275590551181102,
          "duration": 0.406976744185954
        },
        {
          "name": "G7",
          "midi": 103,
          "time": 160.37209302323183,
          "velocity": 0.33858267716535434,
          "duration": 0.3255813953487632
        },
        {
          "name": "F4",
          "midi": 65,
          "time": 160.38372093020857,
          "velocity": 0.4881889763779528,
          "duration": 0.3255813953487632
        },
        {
          "name": "B5",
          "midi": 83,
          "time": 160.38372093020857,
          "velocity": 0.1968503937007874,
          "duration": 0.034883720930224626
        },
        {
          "name": "G#3",
          "midi": 56,
          "time": 160.40697674416205,
          "velocity": 0.3779527559055118,
          "duration": 0.023255813953483084
        },
        {
          "name": "C6",
          "midi": 84,
          "time": 160.4186046511388,
          "velocity": 0.2440944881889764,
          "duration": 0.023255813953483084
        },
        {
          "name": "F#6",
          "midi": 90,
          "time": 160.4186046511388,
          "velocity": 0.14173228346456693,
          "duration": 0.034883720930224626
        },
        {
          "name": "B6",
          "midi": 95,
          "time": 160.4186046511388,
          "velocity": 0.10236220472440945,
          "duration": 0.034883720930224626
        },
        {
          "name": "D7",
          "midi": 98,
          "time": 160.4186046511388,
          "velocity": 0.33858267716535434,
          "duration": 0.05813953488370771
        },
        {
          "name": "G#3",
          "midi": 56,
          "time": 160.44186046509228,
          "velocity": 0.3937007874015748,
          "duration": 0.04651162790696617
        },
        {
          "name": "A6",
          "midi": 93,
          "time": 160.45348837206902,
          "velocity": 0.12598425196850394,
          "duration": 0.06976744186044925
        },
        {
          "name": "F3",
          "midi": 53,
          "time": 160.46511627904576,
          "velocity": 0.33858267716535434,
          "duration": 0.023255813953483084
        },
        {
          "name": "G#4",
          "midi": 68,
          "time": 160.46511627904576,
          "velocity": 0.4015748031496063,
          "duration": 0.2209302325580893
        },
        {
          "name": "B6",
          "midi": 95,
          "time": 160.46511627904576,
          "velocity": 0.12598425196850394,
          "duration": 0.05813953488370771
        },
        {
          "name": "C#4",
          "midi": 61,
          "time": 160.4767441860225,
          "velocity": 0.2992125984251969,
          "duration": 0.0813953488371908
        },
        {
          "name": "C6",
          "midi": 84,
          "time": 160.4767441860225,
          "velocity": 0.5669291338582677,
          "duration": 0.034883720930224626
        },
        {
          "name": "A#5",
          "midi": 82,
          "time": 160.48837209299924,
          "velocity": 0.11811023622047244,
          "duration": 0.0813953488371908
        },
        {
          "name": "F3",
          "midi": 53,
          "time": 160.49999999997598,
          "velocity": 0.33070866141732286,
          "duration": 0.04651162790696617
        },
        {
          "name": "C#6",
          "midi": 85,
          "time": 160.51162790695273,
          "velocity": 0.5590551181102362,
          "duration": 0.12790697674415696
        },
        {
          "name": "G6",
          "midi": 91,
          "time": 160.54651162788295,
          "velocity": 0.2283464566929134,
          "duration": 0.09302325581393234
        },
        {
          "name": "C4",
          "midi": 60,
          "time": 160.5581395348597,
          "velocity": 0.25984251968503935,
          "duration": 0.034883720930224626
        },
        {
          "name": "A6",
          "midi": 93,
          "time": 160.5581395348597,
          "velocity": 0.16535433070866143,
          "duration": 0.1395348837208985
        },
        {
          "name": "D7",
          "midi": 98,
          "time": 160.5581395348597,
          "velocity": 0.33858267716535434,
          "duration": 0.06976744186044925
        },
        {
          "name": "E6",
          "midi": 88,
          "time": 160.56976744183643,
          "velocity": 0.12598425196850394,
          "duration": 0.034883720930224626
        },
        {
          "name": "F#7",
          "midi": 102,
          "time": 160.56976744183643,
          "velocity": 0.10236220472440945,
          "duration": 0.06976744186044925
        },
        {
          "name": "C#4",
          "midi": 61,
          "time": 160.59302325578992,
          "velocity": 0.2755905511811024,
          "duration": 0.0813953488371908
        },
        {
          "name": "F3",
          "midi": 53,
          "time": 160.60465116276666,
          "velocity": 0.2677165354330709,
          "duration": 0.06976744186044925
        },
        {
          "name": "A#5",
          "midi": 82,
          "time": 160.6162790697434,
          "velocity": 0.11811023622047244,
          "duration": 0.034883720930224626
        },
        {
          "name": "C6",
          "midi": 84,
          "time": 160.62790697672014,
          "velocity": 0.5905511811023622,
          "duration": 0.034883720930224626
        },
        {
          "name": "F#6",
          "midi": 90,
          "time": 160.63953488369688,
          "velocity": 0.1889763779527559,
          "duration": 0.19767441860460622
        },
        {
          "name": "G6",
          "midi": 91,
          "time": 160.6744186046271,
          "velocity": 0.12598425196850394,
          "duration": 0.04651162790696617
        },
        {
          "name": "C3",
          "midi": 48,
          "time": 160.68604651160385,
          "velocity": 0.6456692913385826,
          "duration": 0.011627906976741542
        },
        {
          "name": "B5",
          "midi": 83,
          "time": 160.68604651160385,
          "velocity": 0.23622047244094488,
          "duration": 0.10465116279067388
        },
        {
          "name": "A2",
          "midi": 45,
          "time": 160.6976744185806,
          "velocity": 0.7322834645669292,
          "duration": 0.011627906976741542
        },
        {
          "name": "B4",
          "midi": 71,
          "time": 160.6976744185806,
          "velocity": 0.25984251968503935,
          "duration": 0.023255813953483084
        },
        {
          "name": "F2",
          "midi": 41,
          "time": 160.70930232555733,
          "velocity": 0.7795275590551181,
          "duration": 0.011627906976741542
        },
        {
          "name": "G#4",
          "midi": 68,
          "time": 160.70930232555733,
          "velocity": 0.2283464566929134,
          "duration": 0.034883720930224626
        },
        {
          "name": "C#5",
          "midi": 73,
          "time": 160.70930232555733,
          "velocity": 0.3464566929133858,
          "duration": 0.05813953488370771
        },
        {
          "name": "A#5",
          "midi": 82,
          "time": 160.70930232555733,
          "velocity": 0.2125984251968504,
          "duration": 0.04651162790696617
        },
        {
          "name": "D6",
          "midi": 86,
          "time": 160.70930232555733,
          "velocity": 0.2677165354330709,
          "duration": 0.023255813953483084
        },
        {
          "name": "F6",
          "midi": 89,
          "time": 160.70930232555733,
          "velocity": 0.13385826771653545,
          "duration": 0.05813953488370771
        },
        {
          "name": "A6",
          "midi": 93,
          "time": 160.70930232555733,
          "velocity": 0.09448818897637795,
          "duration": 0.04651162790696617
        },
        {
          "name": "D2",
          "midi": 38,
          "time": 160.72093023253407,
          "velocity": 0.7874015748031497,
          "duration": 0.011627906976741542
        },
        {
          "name": "A#3",
          "midi": 58,
          "time": 160.72093023253407,
          "velocity": 0.23622047244094488,
          "duration": 0.023255813953483084
        },
        {
          "name": "E6",
          "midi": 88,
          "time": 160.72093023253407,
          "velocity": 0.10236220472440945,
          "duration": 0.09302325581393234
        },
        {
          "name": "F7",
          "midi": 101,
          "time": 160.72093023253407,
          "velocity": 0.47244094488188976,
          "duration": 2.360465116278533
        },
        {
          "name": "C2",
          "midi": 36,
          "time": 160.73255813951081,
          "velocity": 0.7874015748031497,
          "duration": 0.011627906976741542
        },
        {
          "name": "F5",
          "midi": 77,
          "time": 160.73255813951081,
          "velocity": 0.1889763779527559,
          "duration": 0.12790697674415696
        },
        {
          "name": "C#6",
          "midi": 85,
          "time": 160.73255813951081,
          "velocity": 0.4015748031496063,
          "duration": 0.05813953488370771
        },
        {
          "name": "D#6",
          "midi": 87,
          "time": 160.73255813951081,
          "velocity": 0.2125984251968504,
          "duration": 0.04651162790696617
        },
        {
          "name": "A#1",
          "midi": 34,
          "time": 160.74418604648756,
          "velocity": 0.7795275590551181,
          "duration": 0.011627906976741542
        },
        {
          "name": "D4",
          "midi": 62,
          "time": 160.74418604648756,
          "velocity": 0.2283464566929134,
          "duration": 0.034883720930224626
        },
        {
          "name": "F#4",
          "midi": 66,
          "time": 160.74418604648756,
          "velocity": 0.14173228346456693,
          "duration": 0.04651162790696617
        },
        {
          "name": "D#5",
          "midi": 75,
          "time": 160.74418604648756,
          "velocity": 0.2283464566929134,
          "duration": 0.11627906976741542
        },
        {
          "name": "A1",
          "midi": 33,
          "time": 160.7558139534643,
          "velocity": 0.7716535433070866,
          "duration": 0.023255813953483084
        },
        {
          "name": "A#4",
          "midi": 70,
          "time": 160.7558139534643,
          "velocity": 0.44881889763779526,
          "duration": 0.3372093023255047
        },
        {
          "name": "E7",
          "midi": 100,
          "time": 160.7558139534643,
          "velocity": 0.13385826771653545,
          "duration": 0.05813953488370771
        },
        {
          "name": "F3",
          "midi": 53,
          "time": 160.76744186044104,
          "velocity": 0.49606299212598426,
          "duration": 0.023255813953483084
        },
        {
          "name": "G#1",
          "midi": 32,
          "time": 160.77906976741778,
          "velocity": 0.7716535433070866,
          "duration": 0.034883720930224626
        },
        {
          "name": "C#4",
          "midi": 61,
          "time": 160.77906976741778,
          "velocity": 0.31496062992125984,
          "duration": 0.11627906976741542
        },
        {
          "name": "C6",
          "midi": 84,
          "time": 160.77906976741778,
          "velocity": 0.4251968503937008,
          "duration": 0.034883720930224626
        },
        {
          "name": "F#3",
          "midi": 54,
          "time": 160.79069767439452,
          "velocity": 0.44881889763779526,
          "duration": 0.023255813953483084
        },
        {
          "name": "C#6",
          "midi": 85,
          "time": 160.80232558137126,
          "velocity": 0.4645669291338583,
          "duration": 0.0813953488371908
        },
        {
          "name": "A#6",
          "midi": 94,
          "time": 160.80232558137126,
          "velocity": 0.49606299212598426,
          "duration": 1.244186046511345
        },
        {
          "name": "G1",
          "midi": 31,
          "time": 160.813953488348,
          "velocity": 0.7716535433070866,
          "duration": 0.04651162790696617
        },
        {
          "name": "F#4",
          "midi": 66,
          "time": 160.813953488348,
          "velocity": 0.07874015748031496,
          "duration": 0.034883720930224626
        },
        {
          "name": "C#5",
          "midi": 73,
          "time": 160.813953488348,
          "velocity": 0.3228346456692913,
          "duration": 0.05813953488370771
        },
        {
          "name": "F#3",
          "midi": 54,
          "time": 160.82558139532475,
          "velocity": 0.4409448818897638,
          "duration": 0.05813953488370771
        },
        {
          "name": "C6",
          "midi": 84,
          "time": 160.82558139532475,
          "velocity": 0.3543307086614173,
          "duration": 0.034883720930224626
        },
        {
          "name": "F#5",
          "midi": 78,
          "time": 160.84883720927823,
          "velocity": 0.23622047244094488,
          "duration": 0.04651162790696617
        },
        {
          "name": "D6",
          "midi": 86,
          "time": 160.84883720927823,
          "velocity": 0.4015748031496063,
          "duration": 0.04651162790696617
        },
        {
          "name": "E6",
          "midi": 88,
          "time": 160.84883720927823,
          "velocity": 0.07086614173228346,
          "duration": 0.034883720930224626
        },
        {
          "name": "F6",
          "midi": 89,
          "time": 160.84883720927823,
          "velocity": 0.4330708661417323,
          "duration": 0.5930232558138187
        },
        {
          "name": "E7",
          "midi": 100,
          "time": 160.84883720927823,
          "velocity": 0.10236220472440945,
          "duration": 0.04651162790696617
        },
        {
          "name": "F#1",
          "midi": 30,
          "time": 160.86046511625497,
          "velocity": 0.7637795275590551,
          "duration": 0.11627906976741542
        },
        {
          "name": "G#5",
          "midi": 80,
          "time": 160.86046511625497,
          "velocity": 0.3464566929133858,
          "duration": 0.3023255813952801
        },
        {
          "name": "B5",
          "midi": 83,
          "time": 160.86046511625497,
          "velocity": 0.2047244094488189,
          "duration": 0.04651162790696617
        },
        {
          "name": "C#3",
          "midi": 49,
          "time": 160.8720930232317,
          "velocity": 0.3858267716535433,
          "duration": 0.023255813953483084
        },
        {
          "name": "G6",
          "midi": 91,
          "time": 160.8720930232317,
          "velocity": 0.2283464566929134,
          "duration": 0.279069767441797
        },
        {
          "name": "F#7",
          "midi": 102,
          "time": 160.8720930232317,
          "velocity": 0.14173228346456693,
          "duration": 0.05813953488370771
        },
        {
          "name": "F#3",
          "midi": 54,
          "time": 160.8953488371852,
          "velocity": 0.29133858267716534,
          "duration": 0.05813953488370771
        },
        {
          "name": "C4",
          "midi": 60,
          "time": 160.8953488371852,
          "velocity": 0.31496062992125984,
          "duration": 0.023255813953483084
        },
        {
          "name": "C#5",
          "midi": 73,
          "time": 160.8953488371852,
          "velocity": 0.5590551181102362,
          "duration": 0.48837209302314477
        },
        {
          "name": "E5",
          "midi": 76,
          "time": 160.8953488371852,
          "velocity": 0.2125984251968504,
          "duration": 0.0813953488371908
        },
        {
          "name": "C#6",
          "midi": 85,
          "time": 160.8953488371852,
          "velocity": 0.6062992125984252,
          "duration": 0.11627906976741542
        },
        {
          "name": "F#6",
          "midi": 90,
          "time": 160.8953488371852,
          "velocity": 0.2677165354330709,
          "duration": 0.3372093023255047
        },
        {
          "name": "C6",
          "midi": 84,
          "time": 160.90697674416194,
          "velocity": 0.5196850393700787,
          "duration": 0.05813953488370771
        },
        {
          "name": "B6",
          "midi": 95,
          "time": 160.90697674416194,
          "velocity": 0.14173228346456693,
          "duration": 0.09302325581393234
        },
        {
          "name": "D#7",
          "midi": 99,
          "time": 160.90697674416194,
          "velocity": 0.2283464566929134,
          "duration": 0.1395348837208985
        },
        {
          "name": "F#5",
          "midi": 78,
          "time": 160.91860465113868,
          "velocity": 0.2125984251968504,
          "duration": 0.034883720930224626
        },
        {
          "name": "E6",
          "midi": 88,
          "time": 160.93023255811542,
          "velocity": 0.2125984251968504,
          "duration": 0.12790697674415696
        },
        {
          "name": "C#4",
          "midi": 61,
          "time": 160.9534883720689,
          "velocity": 0.4409448818897638,
          "duration": 0.09302325581393234
        },
        {
          "name": "F#4",
          "midi": 66,
          "time": 160.9534883720689,
          "velocity": 0.4566929133858268,
          "duration": 0.23255813953483084
        },
        {
          "name": "F5",
          "midi": 77,
          "time": 160.9534883720689,
          "velocity": 0.29133858267716534,
          "duration": 0.09302325581393234
        },
        {
          "name": "A6",
          "midi": 93,
          "time": 160.9534883720689,
          "velocity": 0.12598425196850394,
          "duration": 0.04651162790696617
        },
        {
          "name": "F1",
          "midi": 29,
          "time": 160.9767441860224,
          "velocity": 0.6929133858267716,
          "duration": 0.011627906976741542
        },
        {
          "name": "C6",
          "midi": 84,
          "time": 160.9767441860224,
          "velocity": 0.2755905511811024,
          "duration": 0.04651162790696617
        },
        {
          "name": "D7",
          "midi": 98,
          "time": 160.9767441860224,
          "velocity": 0.3464566929133858,
          "duration": 0.43023255813943706
        },
        {
          "name": "F#1",
          "midi": 30,
          "time": 160.98837209299913,
          "velocity": 0.7007874015748031,
          "duration": 0.37209302325572935
        },
        {
          "name": "D#5",
          "midi": 75,
          "time": 160.98837209299913,
          "velocity": 0.2992125984251969,
          "duration": 0.034883720930224626
        },
        {
          "name": "D6",
          "midi": 86,
          "time": 160.99999999997587,
          "velocity": 0.44881889763779526,
          "duration": 0.023255813953483084
        },
        {
          "name": "G#6",
          "midi": 92,
          "time": 161.0116279069526,
          "velocity": 0.47244094488188976,
          "duration": 0.9534883720928065
        },
        {
          "name": "B6",
          "midi": 95,
          "time": 161.02325581392935,
          "velocity": 0.25196850393700787,
          "duration": 0.09302325581393234
        },
        {
          "name": "A#3",
          "midi": 58,
          "time": 161.0348837209061,
          "velocity": 0.48031496062992124,
          "duration": 0.0813953488371908
        },
        {
          "name": "D6",
          "midi": 86,
          "time": 161.04651162788284,
          "velocity": 0.2755905511811024,
          "duration": 0.034883720930224626
        },
        {
          "name": "D#5",
          "midi": 75,
          "time": 161.05813953485958,
          "velocity": 0.25984251968503935,
          "duration": 0.04651162790696617
        },
        {
          "name": "C7",
          "midi": 96,
          "time": 161.05813953485958,
          "velocity": 0.36220472440944884,
          "duration": 0.11627906976741542
        },
        {
          "name": "C6",
          "midi": 84,
          "time": 161.06976744183632,
          "velocity": 0.5118110236220472,
          "duration": 0.034883720930224626
        },
        {
          "name": "C#4",
          "midi": 61,
          "time": 161.08139534881306,
          "velocity": 0.4409448818897638,
          "duration": 0.26744186046505547
        },
        {
          "name": "E6",
          "midi": 88,
          "time": 161.08139534881306,
          "velocity": 0.2125984251968504,
          "duration": 0.04651162790696617
        },
        {
          "name": "B5",
          "midi": 83,
          "time": 161.0930232557898,
          "velocity": 0.2047244094488189,
          "duration": 0.05813953488370771
        },
        {
          "name": "A#4",
          "midi": 70,
          "time": 161.10465116276654,
          "velocity": 0.48031496062992124,
          "duration": 0.23255813953483084
        },
        {
          "name": "D#5",
          "midi": 75,
          "time": 161.11627906974329,
          "velocity": 0.2755905511811024,
          "duration": 0.04651162790696617
        },
        {
          "name": "D6",
          "midi": 86,
          "time": 161.11627906974329,
          "velocity": 0.48031496062992124,
          "duration": 0.04651162790696617
        },
        {
          "name": "F#3",
          "midi": 54,
          "time": 161.12790697672003,
          "velocity": 0.3858267716535433,
          "duration": 0.10465116279067388
        },
        {
          "name": "A6",
          "midi": 93,
          "time": 161.12790697672003,
          "velocity": 0.14173228346456693,
          "duration": 0.05813953488370771
        },
        {
          "name": "C6",
          "midi": 84,
          "time": 161.13953488369677,
          "velocity": 0.30708661417322836,
          "duration": 0.023255813953483084
        },
        {
          "name": "B6",
          "midi": 95,
          "time": 161.13953488369677,
          "velocity": 0.2204724409448819,
          "duration": 0.15116279069764005
        },
        {
          "name": "A5",
          "midi": 81,
          "time": 161.16279069765025,
          "velocity": 0.2204724409448819,
          "duration": 0.034883720930224626
        },
        {
          "name": "G6",
          "midi": 91,
          "time": 161.16279069765025,
          "velocity": 0.08661417322834646,
          "duration": 0.05813953488370771
        },
        {
          "name": "E7",
          "midi": 100,
          "time": 161.174418604627,
          "velocity": 0.25984251968503935,
          "duration": 0.3604651162789878
        },
        {
          "name": "D6",
          "midi": 86,
          "time": 161.18604651160373,
          "velocity": 0.30708661417322836,
          "duration": 0.034883720930224626
        },
        {
          "name": "E6",
          "midi": 88,
          "time": 161.18604651160373,
          "velocity": 0.29133858267716534,
          "duration": 0.2209302325580893
        },
        {
          "name": "C7",
          "midi": 96,
          "time": 161.18604651160373,
          "velocity": 0.4015748031496063,
          "duration": 0.09302325581393234
        },
        {
          "name": "A6",
          "midi": 93,
          "time": 161.19767441858048,
          "velocity": 0.4330708661417323,
          "duration": 0.15116279069764005
        },
        {
          "name": "E5",
          "midi": 76,
          "time": 161.20930232555722,
          "velocity": 0.23622047244094488,
          "duration": 0.023255813953483084
        },
        {
          "name": "C6",
          "midi": 84,
          "time": 161.20930232555722,
          "velocity": 0.4409448818897638,
          "duration": 0.04651162790696617
        },
        {
          "name": "F#4",
          "midi": 66,
          "time": 161.22093023253396,
          "velocity": 0.4409448818897638,
          "duration": 0.12790697674415696
        },
        {
          "name": "F#7",
          "midi": 102,
          "time": 161.22093023253396,
          "velocity": 0.31496062992125984,
          "duration": 0.18604651162786467
        },
        {
          "name": "E5",
          "midi": 76,
          "time": 161.24418604648744,
          "velocity": 0.2677165354330709,
          "duration": 0.023255813953483084
        },
        {
          "name": "G#5",
          "midi": 80,
          "time": 161.24418604648744,
          "velocity": 0.2047244094488189,
          "duration": 0.09302325581393234
        },
        {
          "name": "F#3",
          "midi": 54,
          "time": 161.26744186044093,
          "velocity": 0.3228346456692913,
          "duration": 0.04651162790696617
        },
        {
          "name": "D#5",
          "midi": 75,
          "time": 161.26744186044093,
          "velocity": 0.30708661417322836,
          "duration": 0.05813953488370771
        },
        {
          "name": "B5",
          "midi": 83,
          "time": 161.26744186044093,
          "velocity": 0.2283464566929134,
          "duration": 0.023255813953483084
        },
        {
          "name": "D6",
          "midi": 86,
          "time": 161.26744186044093,
          "velocity": 0.33070866141732286,
          "duration": 0.023255813953483084
        },
        {
          "name": "D#6",
          "midi": 87,
          "time": 161.26744186044093,
          "velocity": 0.31496062992125984,
          "duration": 0.12790697674415696
        },
        {
          "name": "G6",
          "midi": 91,
          "time": 161.26744186044093,
          "velocity": 0.33070866141732286,
          "duration": 0.11627906976741542
        },
        {
          "name": "C7",
          "midi": 96,
          "time": 161.2906976743944,
          "velocity": 0.1889763779527559,
          "duration": 0.034883720930224626
        },
        {
          "name": "B6",
          "midi": 95,
          "time": 161.3139534883479,
          "velocity": 0.2204724409448819,
          "duration": 0.10465116279067388
        },
        {
          "name": "C6",
          "midi": 84,
          "time": 161.32558139532463,
          "velocity": 0.25984251968503935,
          "duration": 0.023255813953483084
        },
        {
          "name": "F5",
          "midi": 77,
          "time": 161.33720930230137,
          "velocity": 0.25984251968503935,
          "duration": 0.04651162790696617
        },
        {
          "name": "A5",
          "midi": 81,
          "time": 161.33720930230137,
          "velocity": 0.4566929133858268,
          "duration": 0.034883720930224626
        },
        {
          "name": "C7",
          "midi": 96,
          "time": 161.33720930230137,
          "velocity": 0.30708661417322836,
          "duration": 0.05813953488370771
        },
        {
          "name": "A4",
          "midi": 69,
          "time": 161.34883720927812,
          "velocity": 0.5275590551181102,
          "duration": 0.04651162790696617
        },
        {
          "name": "D#5",
          "midi": 75,
          "time": 161.34883720927812,
          "velocity": 0.1889763779527559,
          "duration": 0.04651162790696617
        },
        {
          "name": "B5",
          "midi": 83,
          "time": 161.34883720927812,
          "velocity": 0.3228346456692913,
          "duration": 0.023255813953483084
        },
        {
          "name": "G#5",
          "midi": 80,
          "time": 161.36046511625486,
          "velocity": 0.33070866141732286,
          "duration": 0.10465116279067388
        },
        {
          "name": "A#5",
          "midi": 82,
          "time": 161.3720930232316,
          "velocity": 0.2440944881889764,
          "duration": 0.1395348837208985
        },
        {
          "name": "A#4",
          "midi": 70,
          "time": 161.38372093020834,
          "velocity": 0.23622047244094488,
          "duration": 0.023255813953483084
        },
        {
          "name": "D5",
          "midi": 74,
          "time": 161.38372093020834,
          "velocity": 0.2440944881889764,
          "duration": 0.034883720930224626
        },
        {
          "name": "G6",
          "midi": 91,
          "time": 161.40697674416182,
          "velocity": 0.2125984251968504,
          "duration": 0.19767441860460622
        },
        {
          "name": "A6",
          "midi": 93,
          "time": 161.40697674416182,
          "velocity": 0.1889763779527559,
          "duration": 0.12790697674415696
        },
        {
          "name": "A4",
          "midi": 69,
          "time": 161.41860465113857,
          "velocity": 0.18110236220472442,
          "duration": 0.04651162790696617
        },
        {
          "name": "C#5",
          "midi": 73,
          "time": 161.41860465113857,
          "velocity": 0.49606299212598426,
          "duration": 0.5813953488370771
        },
        {
          "name": "C6",
          "midi": 84,
          "time": 161.41860465113857,
          "velocity": 0.25984251968503935,
          "duration": 0.023255813953483084
        },
        {
          "name": "D#6",
          "midi": 87,
          "time": 161.41860465113857,
          "velocity": 0.16535433070866143,
          "duration": 0.034883720930224626
        },
        {
          "name": "D7",
          "midi": 98,
          "time": 161.41860465113857,
          "velocity": 0.1968503937007874,
          "duration": 0.06976744186044925
        },
        {
          "name": "F#5",
          "midi": 78,
          "time": 161.44186046509205,
          "velocity": 0.15748031496062992,
          "duration": 0.05813953488370771
        },
        {
          "name": "C7",
          "midi": 96,
          "time": 161.44186046509205,
          "velocity": 0.09448818897637795,
          "duration": 0.05813953488370771
        },
        {
          "name": "F6",
          "midi": 89,
          "time": 161.4534883720688,
          "velocity": 0.12598425196850394,
          "duration": 0.034883720930224626
        },
        {
          "name": "A#4",
          "midi": 70,
          "time": 161.46511627904553,
          "velocity": 0.2440944881889764,
          "duration": 0.04651162790696617
        },
        {
          "name": "A5",
          "midi": 81,
          "time": 161.46511627904553,
          "velocity": 0.28346456692913385,
          "duration": 0.05813953488370771
        },
        {
          "name": "D#6",
          "midi": 87,
          "time": 161.46511627904553,
          "velocity": 0.07874015748031496,
          "duration": 0.034883720930224626
        },
        {
          "name": "G5",
          "midi": 79,
          "time": 161.47674418602227,
          "velocity": 0.1732283464566929,
          "duration": 0.05813953488370771
        },
        {
          "name": "D6",
          "midi": 86,
          "time": 161.47674418602227,
          "velocity": 0.23622047244094488,
          "duration": 0.034883720930224626
        },
        {
          "name": "G#4",
          "midi": 68,
          "time": 161.48837209299901,
          "velocity": 0.36220472440944884,
          "duration": 0.034883720930224626
        },
        {
          "name": "C6",
          "midi": 84,
          "time": 161.48837209299901,
          "velocity": 0.2283464566929134,
          "duration": 0.05813953488370771
        },
        {
          "name": "E6",
          "midi": 88,
          "time": 161.49999999997576,
          "velocity": 0.15748031496062992,
          "duration": 0.034883720930224626
        },
        {
          "name": "B6",
          "midi": 95,
          "time": 161.49999999997576,
          "velocity": 0.09448818897637795,
          "duration": 0.034883720930224626
        },
        {
          "name": "D#7",
          "midi": 99,
          "time": 161.49999999997576,
          "velocity": 0.16535433070866143,
          "duration": 0.06976744186044925
        },
        {
          "name": "F#2",
          "midi": 42,
          "time": 161.5116279069525,
          "velocity": 0.3779527559055118,
          "duration": 0.4651162790696617
        },
        {
          "name": "C#4",
          "midi": 61,
          "time": 161.5116279069525,
          "velocity": 0.18110236220472442,
          "duration": 0.15116279069764005
        },
        {
          "name": "D#6",
          "midi": 87,
          "time": 161.5116279069525,
          "velocity": 0.1889763779527559,
          "duration": 0.034883720930224626
        },
        {
          "name": "F6",
          "midi": 89,
          "time": 161.5116279069525,
          "velocity": 0.4094488188976378,
          "duration": 0.279069767441797
        },
        {
          "name": "C7",
          "midi": 96,
          "time": 161.5116279069525,
          "velocity": 0.41732283464566927,
          "duration": 0.5232558139533694
        },
        {
          "name": "D7",
          "midi": 98,
          "time": 161.5116279069525,
          "velocity": 0.3228346456692913,
          "duration": 0.18604651162786467
        },
        {
          "name": "F#4",
          "midi": 66,
          "time": 161.52325581392924,
          "velocity": 0.25984251968503935,
          "duration": 0.023255813953483084
        },
        {
          "name": "A4",
          "midi": 69,
          "time": 161.52325581392924,
          "velocity": 0.33070866141732286,
          "duration": 0.034883720930224626
        },
        {
          "name": "A#5",
          "midi": 82,
          "time": 161.52325581392924,
          "velocity": 0.28346456692913385,
          "duration": 0.04651162790696617
        },
        {
          "name": "F4",
          "midi": 65,
          "time": 161.53488372090598,
          "velocity": 0.29133858267716534,
          "duration": 0.023255813953483084
        },
        {
          "name": "D6",
          "midi": 86,
          "time": 161.54651162788272,
          "velocity": 0.2440944881889764,
          "duration": 0.05813953488370771
        },
        {
          "name": "E6",
          "midi": 88,
          "time": 161.54651162788272,
          "velocity": 0.13385826771653545,
          "duration": 0.04651162790696617
        },
        {
          "name": "E7",
          "midi": 100,
          "time": 161.54651162788272,
          "velocity": 0.2283464566929134,
          "duration": 0.06976744186044925
        },
        {
          "name": "F#4",
          "midi": 66,
          "time": 161.55813953485946,
          "velocity": 0.3937007874015748,
          "duration": 0.023255813953483084
        },
        {
          "name": "B5",
          "midi": 83,
          "time": 161.55813953485946,
          "velocity": 0.28346456692913385,
          "duration": 0.034883720930224626
        },
        {
          "name": "B4",
          "midi": 71,
          "time": 161.5697674418362,
          "velocity": 0.2755905511811024,
          "duration": 0.023255813953483084
        },
        {
          "name": "G4",
          "midi": 67,
          "time": 161.58139534881295,
          "velocity": 0.28346456692913385,
          "duration": 0.023255813953483084
        },
        {
          "name": "G#5",
          "midi": 80,
          "time": 161.58139534881295,
          "velocity": 0.1968503937007874,
          "duration": 0.05813953488370771
        },
        {
          "name": "A#4",
          "midi": 70,
          "time": 161.5930232557897,
          "velocity": 0.49606299212598426,
          "duration": 0.10465116279067388
        },
        {
          "name": "F5",
          "midi": 77,
          "time": 161.5930232557897,
          "velocity": 0.2677165354330709,
          "duration": 0.05813953488370771
        },
        {
          "name": "A#5",
          "midi": 82,
          "time": 161.5930232557897,
          "velocity": 0.6614173228346457,
          "duration": 0.4418604651161786
        },
        {
          "name": "D#7",
          "midi": 99,
          "time": 161.5930232557897,
          "velocity": 0.3228346456692913,
          "duration": 0.4186046511626955
        },
        {
          "name": "F#4",
          "midi": 66,
          "time": 161.60465116276643,
          "velocity": 0.49606299212598426,
          "duration": 0.09302325581393234
        },
        {
          "name": "C6",
          "midi": 84,
          "time": 161.60465116276643,
          "velocity": 0.2204724409448819,
          "duration": 0.05813953488370771
        },
        {
          "name": "D#6",
          "midi": 87,
          "time": 161.61627906974317,
          "velocity": 0.3543307086614173,
          "duration": 0.04651162790696617
        },
        {
          "name": "F#6",
          "midi": 90,
          "time": 161.61627906974317,
          "velocity": 0.2677165354330709,
          "duration": 0.19767441860460622
        },
        {
          "name": "G6",
          "midi": 91,
          "time": 161.6279069767199,
          "velocity": 0.15748031496062992,
          "duration": 0.034883720930224626
        },
        {
          "name": "C#6",
          "midi": 85,
          "time": 161.63953488369665,
          "velocity": 0.6535433070866141,
          "duration": 2.33720930232505
        },
        {
          "name": "A6",
          "midi": 93,
          "time": 161.63953488369665,
          "velocity": 0.2125984251968504,
          "duration": 0.05813953488370771
        },
        {
          "name": "E7",
          "midi": 100,
          "time": 161.63953488369665,
          "velocity": 0.11811023622047244,
          "duration": 0.11627906976741542
        },
        {
          "name": "G#5",
          "midi": 80,
          "time": 161.6511627906734,
          "velocity": 0.49606299212598426,
          "duration": 0.47674418604640323
        },
        {
          "name": "F5",
          "midi": 77,
          "time": 161.66279069765014,
          "velocity": 0.2047244094488189,
          "duration": 0.05813953488370771
        },
        {
          "name": "D6",
          "midi": 86,
          "time": 161.66279069765014,
          "velocity": 0.31496062992125984,
          "duration": 0.023255813953483084
        },
        {
          "name": "B6",
          "midi": 95,
          "time": 161.66279069765014,
          "velocity": 0.14173228346456693,
          "duration": 0.11627906976741542
        },
        {
          "name": "A#3",
          "midi": 58,
          "time": 161.67441860462688,
          "velocity": 0.3858267716535433,
          "duration": 0.023255813953483084
        },
        {
          "name": "D#5",
          "midi": 75,
          "time": 161.67441860462688,
          "velocity": 0.2440944881889764,
          "duration": 0.04651162790696617
        },
        {
          "name": "D#6",
          "midi": 87,
          "time": 161.67441860462688,
          "velocity": 0.4251968503937008,
          "duration": 0.18604651162786467
        },
        {
          "name": "F#7",
          "midi": 102,
          "time": 161.67441860462688,
          "velocity": 0.36220472440944884,
          "duration": 0.2558139534883139
        },
        {
          "name": "G7",
          "midi": 103,
          "time": 161.67441860462688,
          "velocity": 0.11023622047244094,
          "duration": 0.034883720930224626
        },
        {
          "name": "E6",
          "midi": 88,
          "time": 161.68604651160362,
          "velocity": 0.13385826771653545,
          "duration": 0.04651162790696617
        },
        {
          "name": "C#4",
          "midi": 61,
          "time": 161.69767441858036,
          "velocity": 0.47244094488188976,
          "duration": 0.09302325581393234
        },
        {
          "name": "F#4",
          "midi": 66,
          "time": 161.7093023255571,
          "velocity": 0.5039370078740157,
          "duration": 0.09302325581393234
        },
        {
          "name": "G#4",
          "midi": 68,
          "time": 161.7093023255571,
          "velocity": 0.5748031496062992,
          "duration": 0.18604651162786467
        },
        {
          "name": "A#4",
          "midi": 70,
          "time": 161.7093023255571,
          "velocity": 0.4251968503937008,
          "duration": 0.05813953488370771
        },
        {
          "name": "B5",
          "midi": 83,
          "time": 161.7093023255571,
          "velocity": 0.2755905511811024,
          "duration": 0.05813953488370771
        },
        {
          "name": "C6",
          "midi": 84,
          "time": 161.7093023255571,
          "velocity": 0.2677165354330709,
          "duration": 0.023255813953483084
        },
        {
          "name": "A6",
          "midi": 93,
          "time": 161.7093023255571,
          "velocity": 0.2440944881889764,
          "duration": 0.034883720930224626
        },
        {
          "name": "D7",
          "midi": 98,
          "time": 161.7093023255571,
          "velocity": 0.23622047244094488,
          "duration": 0.20930232558134776
        },
        {
          "name": "D#5",
          "midi": 75,
          "time": 161.7325581395106,
          "velocity": 0.3228346456692913,
          "duration": 0.023255813953483084
        },
        {
          "name": "A#3",
          "midi": 58,
          "time": 161.75581395346407,
          "velocity": 0.3779527559055118,
          "duration": 0.11627906976741542
        },
        {
          "name": "G6",
          "midi": 91,
          "time": 161.75581395346407,
          "velocity": 0.18110236220472442,
          "duration": 0.04651162790696617
        },
        {
          "name": "D6",
          "midi": 86,
          "time": 161.77906976741755,
          "velocity": 0.2283464566929134,
          "duration": 0.023255813953483084
        },
        {
          "name": "E6",
          "midi": 88,
          "time": 161.80232558137104,
          "velocity": 0.12598425196850394,
          "duration": 0.034883720930224626
        },
        {
          "name": "F6",
          "midi": 89,
          "time": 161.80232558137104,
          "velocity": 0.2992125984251969,
          "duration": 0.20930232558134776
        },
        {
          "name": "B6",
          "midi": 95,
          "time": 161.80232558137104,
          "velocity": 0.14960629921259844,
          "duration": 0.034883720930224626
        },
        {
          "name": "G6",
          "midi": 91,
          "time": 161.83720930230126,
          "velocity": 0.1968503937007874,
          "duration": 0.034883720930224626
        },
        {
          "name": "E6",
          "midi": 88,
          "time": 161.848837209278,
          "velocity": 0.3464566929133858,
          "duration": 0.034883720930224626
        },
        {
          "name": "F5",
          "midi": 77,
          "time": 161.87209302323149,
          "velocity": 0.33070866141732286,
          "duration": 0.04651162790696617
        },
        {
          "name": "C6",
          "midi": 84,
          "time": 161.87209302323149,
          "velocity": 0.2755905511811024,
          "duration": 0.05813953488370771
        },
        {
          "name": "D#6",
          "midi": 87,
          "time": 161.87209302323149,
          "velocity": 0.4409448818897638,
          "duration": 0.34883720930224626
        },
        {
          "name": "A#3",
          "midi": 58,
          "time": 161.88372093020823,
          "velocity": 0.5433070866141733,
          "duration": 0.11627906976741542
        },
        {
          "name": "F#4",
          "midi": 66,
          "time": 161.89534883718497,
          "velocity": 0.25984251968503935,
          "duration": 0.023255813953483084
        },
        {
          "name": "A6",
          "midi": 93,
          "time": 161.89534883718497,
          "velocity": 0.18110236220472442,
          "duration": 0.034883720930224626
        },
        {
          "name": "G#4",
          "midi": 68,
          "time": 161.9069767441617,
          "velocity": 0.47244094488188976,
          "duration": 0.0813953488371908
        },
        {
          "name": "D#5",
          "midi": 75,
          "time": 161.91860465113845,
          "velocity": 0.13385826771653545,
          "duration": 0.06976744186044925
        },
        {
          "name": "D6",
          "midi": 86,
          "time": 161.91860465113845,
          "velocity": 0.28346456692913385,
          "duration": 0.04651162790696617
        },
        {
          "name": "B5",
          "midi": 83,
          "time": 161.9302325581152,
          "velocity": 0.2047244094488189,
          "duration": 0.05813953488370771
        },
        {
          "name": "G6",
          "midi": 91,
          "time": 161.94186046509193,
          "velocity": 0.11811023622047244,
          "duration": 0.0813953488371908
        },
        {
          "name": "D#3",
          "midi": 51,
          "time": 161.9883720929989,
          "velocity": 0.5905511811023622,
          "duration": 0.011627906976741542
        },
        {
          "name": "F4",
          "midi": 65,
          "time": 161.9883720929989,
          "velocity": 0.3937007874015748,
          "duration": 0.023255813953483084
        },
        {
          "name": "A2",
          "midi": 45,
          "time": 161.99999999997564,
          "velocity": 0.7244094488188977,
          "duration": 0.011627906976741542
        },
        {
          "name": "E6",
          "midi": 88,
          "time": 161.99999999997564,
          "velocity": 0.09448818897637795,
          "duration": 0.04651162790696617
        },
        {
          "name": "A6",
          "midi": 93,
          "time": 161.99999999997564,
          "velocity": 0.08661417322834646,
          "duration": 0.05813953488370771
        },
        {
          "name": "F2",
          "midi": 41,
          "time": 162.01162790695238,
          "velocity": 0.7795275590551181,
          "duration": 0.011627906976741542
        },
        {
          "name": "C#5",
          "midi": 73,
          "time": 162.01162790695238,
          "velocity": 0.5748031496062992,
          "duration": 0.24418604651157239
        },
        {
          "name": "D2",
          "midi": 38,
          "time": 162.02325581392913,
          "velocity": 0.7795275590551181,
          "duration": 0.011627906976741542
        },
        {
          "name": "F5",
          "midi": 77,
          "time": 162.02325581392913,
          "velocity": 0.14173228346456693,
          "duration": 0.034883720930224626
        },
        {
          "name": "A5",
          "midi": 81,
          "time": 162.02325581392913,
          "velocity": 0.14960629921259844,
          "duration": 0.04651162790696617
        },
        {
          "name": "B5",
          "midi": 83,
          "time": 162.02325581392913,
          "velocity": 0.2677165354330709,
          "duration": 0.0813953488371908
        },
        {
          "name": "C2",
          "midi": 36,
          "time": 162.03488372090587,
          "velocity": 0.7952755905511811,
          "duration": 0.011627906976741542
        },
        {
          "name": "B1",
          "midi": 35,
          "time": 162.0465116278826,
          "velocity": 0.7874015748031497,
          "duration": 0.011627906976741542
        },
        {
          "name": "D4",
          "midi": 62,
          "time": 162.0465116278826,
          "velocity": 0.2283464566929134,
          "duration": 0.023255813953483084
        },
        {
          "name": "A#5",
          "midi": 82,
          "time": 162.0465116278826,
          "velocity": 0.4409448818897638,
          "duration": 0.43023255813943706
        },
        {
          "name": "G6",
          "midi": 91,
          "time": 162.0465116278826,
          "velocity": 0.11023622047244094,
          "duration": 0.04651162790696617
        },
        {
          "name": "A#1",
          "midi": 34,
          "time": 162.05813953485935,
          "velocity": 0.7795275590551181,
          "duration": 0.011627906976741542
        },
        {
          "name": "A1",
          "midi": 33,
          "time": 162.0697674418361,
          "velocity": 0.7716535433070866,
          "duration": 0.011627906976741542
        },
        {
          "name": "C#4",
          "midi": 61,
          "time": 162.0697674418361,
          "velocity": 0.25196850393700787,
          "duration": 0.034883720930224626
        },
        {
          "name": "A4",
          "midi": 69,
          "time": 162.0697674418361,
          "velocity": 0.2755905511811024,
          "duration": 0.034883720930224626
        },
        {
          "name": "F5",
          "midi": 77,
          "time": 162.0697674418361,
          "velocity": 0.33070866141732286,
          "duration": 0.31395348837202164
        },
        {
          "name": "G#1",
          "midi": 32,
          "time": 162.08139534881283,
          "velocity": 0.7795275590551181,
          "duration": 0.023255813953483084
        },
        {
          "name": "D3",
          "midi": 50,
          "time": 162.08139534881283,
          "velocity": 0.3937007874015748,
          "duration": 0.023255813953483084
        },
        {
          "name": "E5",
          "midi": 76,
          "time": 162.09302325578957,
          "velocity": 0.14960629921259844,
          "duration": 0.034883720930224626
        },
        {
          "name": "G1",
          "midi": 31,
          "time": 162.10465116276632,
          "velocity": 0.7637795275590551,
          "duration": 0.05813953488370771
        },
        {
          "name": "E3",
          "midi": 52,
          "time": 162.10465116276632,
          "velocity": 0.4015748031496063,
          "duration": 0.023255813953483084
        },
        {
          "name": "G#4",
          "midi": 68,
          "time": 162.10465116276632,
          "velocity": 0.5275590551181102,
          "duration": 0.37209302325572935
        },
        {
          "name": "C7",
          "midi": 96,
          "time": 162.11627906974306,
          "velocity": 0.08661417322834646,
          "duration": 0.034883720930224626
        },
        {
          "name": "C3",
          "midi": 48,
          "time": 162.1279069767198,
          "velocity": 0.33070866141732286,
          "duration": 0.023255813953483084
        },
        {
          "name": "F3",
          "midi": 53,
          "time": 162.1279069767198,
          "velocity": 0.4094488188976378,
          "duration": 0.06976744186044925
        },
        {
          "name": "C#4",
          "midi": 61,
          "time": 162.1279069767198,
          "velocity": 0.4566929133858268,
          "duration": 0.3023255813952801
        },
        {
          "name": "F#6",
          "midi": 90,
          "time": 162.13953488369654,
          "velocity": 0.25196850393700787,
          "duration": 0.19767441860460622
        },
        {
          "name": "G#1",
          "midi": 32,
          "time": 162.16279069765002,
          "velocity": 0.5984251968503937,
          "duration": 0.034883720930224626
        },
        {
          "name": "C7",
          "midi": 96,
          "time": 162.17441860462677,
          "velocity": 0.4015748031496063,
          "duration": 0.7209302325579756
        },
        {
          "name": "G1",
          "midi": 31,
          "time": 162.19767441858025,
          "velocity": 0.6535433070866141,
          "duration": 0.023255813953483084
        },
        {
          "name": "C3",
          "midi": 48,
          "time": 162.209302325557,
          "velocity": 0.3779527559055118,
          "duration": 0.023255813953483084
        },
        {
          "name": "D#5",
          "midi": 75,
          "time": 162.209302325557,
          "velocity": 0.14960629921259844,
          "duration": 0.05813953488370771
        },
        {
          "name": "A6",
          "midi": 93,
          "time": 162.209302325557,
          "velocity": 0.23622047244094488,
          "duration": 0.034883720930224626
        },
        {
          "name": "F#1",
          "midi": 30,
          "time": 162.22093023253373,
          "velocity": 0.7086614173228346,
          "duration": 0.06976744186044925
        },
        {
          "name": "G3",
          "midi": 55,
          "time": 162.22093023253373,
          "velocity": 0.5354330708661418,
          "duration": 0.011627906976741542
        },
        {
          "name": "G#3",
          "midi": 56,
          "time": 162.23255813951047,
          "velocity": 0.5354330708661418,
          "duration": 0.05813953488370771
        },
        {
          "name": "D#6",
          "midi": 87,
          "time": 162.23255813951047,
          "velocity": 0.33858267716535434,
          "duration": 0.11627906976741542
        },
        {
          "name": "G7",
          "midi": 103,
          "time": 162.23255813951047,
          "velocity": 0.08661417322834646,
          "duration": 0.034883720930224626
        },
        {
          "name": "C3",
          "midi": 48,
          "time": 162.24418604648721,
          "velocity": 0.4566929133858268,
          "duration": 0.4186046511626955
        },
        {
          "name": "F4",
          "midi": 65,
          "time": 162.24418604648721,
          "velocity": 0.2283464566929134,
          "duration": 0.023255813953483084
        },
        {
          "name": "B5",
          "midi": 83,
          "time": 162.24418604648721,
          "velocity": 0.1968503937007874,
          "duration": 0.034883720930224626
        },
        {
          "name": "C#5",
          "midi": 73,
          "time": 162.2674418604407,
          "velocity": 0.5905511811023622,
          "duration": 0.3837209302324709
        },
        {
          "name": "F#7",
          "midi": 102,
          "time": 162.2674418604407,
          "velocity": 0.2677165354330709,
          "duration": 0.4999999999998863
        },
        {
          "name": "F4",
          "midi": 65,
          "time": 162.27906976741744,
          "velocity": 0.33070866141732286,
          "duration": 0.034883720930224626
        },
        {
          "name": "D#5",
          "midi": 75,
          "time": 162.27906976741744,
          "velocity": 0.2677165354330709,
          "duration": 0.04651162790696617
        },
        {
          "name": "A6",
          "midi": 93,
          "time": 162.27906976741744,
          "velocity": 0.1889763779527559,
          "duration": 0.06976744186044925
        },
        {
          "name": "F1",
          "midi": 29,
          "time": 162.29069767439418,
          "velocity": 0.7086614173228346,
          "duration": 0.34883720930224626
        },
        {
          "name": "G3",
          "midi": 55,
          "time": 162.29069767439418,
          "velocity": 0.5354330708661418,
          "duration": 0.011627906976741542
        },
        {
          "name": "G6",
          "midi": 91,
          "time": 162.29069767439418,
          "velocity": 0.3700787401574803,
          "duration": 0.18604651162786467
        },
        {
          "name": "G#3",
          "midi": 56,
          "time": 162.30232558137092,
          "velocity": 0.44881889763779526,
          "duration": 0.023255813953483084
        },
        {
          "name": "C6",
          "midi": 84,
          "time": 162.30232558137092,
          "velocity": 0.2204724409448819,
          "duration": 0.034883720930224626
        },
        {
          "name": "D6",
          "midi": 86,
          "time": 162.31395348834766,
          "velocity": 0.2047244094488189,
          "duration": 0.04651162790696617
        },
        {
          "name": "B6",
          "midi": 95,
          "time": 162.31395348834766,
          "velocity": 0.25984251968503935,
          "duration": 0.29069767441853855
        },
        {
          "name": "F3",
          "midi": 53,
          "time": 162.3255813953244,
          "velocity": 0.4251968503937008,
          "duration": 0.06976744186044925
        },
        {
          "name": "F4",
          "midi": 65,
          "time": 162.3255813953244,
          "velocity": 0.4409448818897638,
          "duration": 0.1395348837208985
        },
        {
          "name": "D7",
          "midi": 98,
          "time": 162.3255813953244,
          "velocity": 0.2047244094488189,
          "duration": 0.12790697674415696
        },
        {
          "name": "E7",
          "midi": 100,
          "time": 162.3255813953244,
          "velocity": 0.15748031496062992,
          "duration": 0.10465116279067388
        },
        {
          "name": "E5",
          "midi": 76,
          "time": 162.33720930230115,
          "velocity": 0.2677165354330709,
          "duration": 0.023255813953483084
        },
        {
          "name": "B5",
          "midi": 83,
          "time": 162.36046511625463,
          "velocity": 0.14173228346456693,
          "duration": 0.04651162790696617
        },
        {
          "name": "D#6",
          "midi": 87,
          "time": 162.36046511625463,
          "velocity": 0.2992125984251969,
          "duration": 0.11627906976741542
        },
        {
          "name": "G#3",
          "midi": 56,
          "time": 162.37209302323137,
          "velocity": 0.3543307086614173,
          "duration": 0.023255813953483084
        },
        {
          "name": "E6",
          "midi": 88,
          "time": 162.37209302323137,
          "velocity": 0.2755905511811024,
          "duration": 0.06976744186044925
        },
        {
          "name": "F#6",
          "midi": 90,
          "time": 162.37209302323137,
          "velocity": 0.23622047244094488,
          "duration": 0.06976744186044925
        },
        {
          "name": "A6",
          "midi": 93,
          "time": 162.37209302323137,
          "velocity": 0.16535433070866143,
          "duration": 0.06976744186044925
        },
        {
          "name": "F6",
          "midi": 89,
          "time": 162.3837209302081,
          "velocity": 0.31496062992125984,
          "duration": 0.12790697674415696
        },
        {
          "name": "G#6",
          "midi": 92,
          "time": 162.39534883718486,
          "velocity": 0.49606299212598426,
          "duration": 0.9302325581393234
        },
        {
          "name": "D6",
          "midi": 86,
          "time": 162.4069767441616,
          "velocity": 0.2047244094488189,
          "duration": 0.034883720930224626
        },
        {
          "name": "C#4",
          "midi": 61,
          "time": 162.44186046509182,
          "velocity": 0.36220472440944884,
          "duration": 0.1627906976743816
        },
        {
          "name": "F3",
          "midi": 53,
          "time": 162.45348837206856,
          "velocity": 0.4251968503937008,
          "duration": 0.0813953488371908
        },
        {
          "name": "G5",
          "midi": 79,
          "time": 162.45348837206856,
          "velocity": 0.2440944881889764,
          "duration": 0.034883720930224626
        },
        {
          "name": "C6",
          "midi": 84,
          "time": 162.45348837206856,
          "velocity": 0.3464566929133858,
          "duration": 0.0813953488371908
        },
        {
          "name": "F#6",
          "midi": 90,
          "time": 162.45348837206856,
          "velocity": 0.25196850393700787,
          "duration": 0.0813953488371908
        },
        {
          "name": "A5",
          "midi": 81,
          "time": 162.4651162790453,
          "velocity": 0.25196850393700787,
          "duration": 0.023255813953483084
        },
        {
          "name": "E7",
          "midi": 100,
          "time": 162.4651162790453,
          "velocity": 0.14173228346456693,
          "duration": 0.1395348837208985
        },
        {
          "name": "D6",
          "midi": 86,
          "time": 162.47674418602205,
          "velocity": 0.2204724409448819,
          "duration": 0.05813953488370771
        },
        {
          "name": "G7",
          "midi": 103,
          "time": 162.47674418602205,
          "velocity": 0.15748031496062992,
          "duration": 0.09302325581393234
        },
        {
          "name": "G#4",
          "midi": 68,
          "time": 162.4883720929988,
          "velocity": 0.5748031496062992,
          "duration": 0.3372093023255047
        },
        {
          "name": "A#6",
          "midi": 94,
          "time": 162.4883720929988,
          "velocity": 0.2047244094488189,
          "duration": 0.06976744186044925
        },
        {
          "name": "F6",
          "midi": 89,
          "time": 162.523255813929,
          "velocity": 0.4094488188976378,
          "duration": 0.1395348837208985
        },
        {
          "name": "D#6",
          "midi": 87,
          "time": 162.53488372090575,
          "velocity": 0.3228346456692913,
          "duration": 0.05813953488370771
        },
        {
          "name": "C6",
          "midi": 84,
          "time": 162.5465116278825,
          "velocity": 0.23622047244094488,
          "duration": 0.034883720930224626
        },
        {
          "name": "D6",
          "midi": 86,
          "time": 162.5465116278825,
          "velocity": 0.13385826771653545,
          "duration": 0.034883720930224626
        },
        {
          "name": "E6",
          "midi": 88,
          "time": 162.5465116278825,
          "velocity": 0.14173228346456693,
          "duration": 0.06976744186044925
        },
        {
          "name": "G6",
          "midi": 91,
          "time": 162.5465116278825,
          "velocity": 0.11811023622047244,
          "duration": 0.06976744186044925
        },
        {
          "name": "A#5",
          "midi": 82,
          "time": 162.55813953485924,
          "velocity": 0.33858267716535434,
          "duration": 0.09302325581393234
        },
        {
          "name": "F4",
          "midi": 65,
          "time": 162.56976744183598,
          "velocity": 0.23622047244094488,
          "duration": 0.034883720930224626
        },
        {
          "name": "F5",
          "midi": 77,
          "time": 162.59302325578946,
          "velocity": 0.29133858267716534,
          "duration": 0.06976744186044925
        },
        {
          "name": "C6",
          "midi": 84,
          "time": 162.59302325578946,
          "velocity": 0.33070866141732286,
          "duration": 0.0813953488371908
        },
        {
          "name": "D6",
          "midi": 86,
          "time": 162.59302325578946,
          "velocity": 0.36220472440944884,
          "duration": 0.09302325581393234
        },
        {
          "name": "B6",
          "midi": 95,
          "time": 162.6279069767197,
          "velocity": 0.2047244094488189,
          "duration": 0.15116279069764005
        },
        {
          "name": "E7",
          "midi": 100,
          "time": 162.6279069767197,
          "velocity": 0.16535433070866143,
          "duration": 0.1395348837208985
        },
        {
          "name": "F#1",
          "midi": 30,
          "time": 162.63953488369643,
          "velocity": 0.6929133858267716,
          "duration": 0.023255813953483084
        },
        {
          "name": "C#4",
          "midi": 61,
          "time": 162.63953488369643,
          "velocity": 0.1889763779527559,
          "duration": 0.034883720930224626
        },
        {
          "name": "G5",
          "midi": 79,
          "time": 162.63953488369643,
          "velocity": 0.29133858267716534,
          "duration": 0.05813953488370771
        },
        {
          "name": "E6",
          "midi": 88,
          "time": 162.63953488369643,
          "velocity": 0.25196850393700787,
          "duration": 0.10465116279067388
        },
        {
          "name": "G6",
          "midi": 91,
          "time": 162.63953488369643,
          "velocity": 0.29133858267716534,
          "duration": 0.12790697674415696
        },
        {
          "name": "B5",
          "midi": 83,
          "time": 162.65116279067317,
          "velocity": 0.3543307086614173,
          "duration": 0.034883720930224626
        },
        {
          "name": "C#5",
          "midi": 73,
          "time": 162.6627906976499,
          "velocity": 0.47244094488188976,
          "duration": 0.2558139534883139
        },
        {
          "name": "A5",
          "midi": 81,
          "time": 162.6627906976499,
          "velocity": 0.33858267716535434,
          "duration": 0.06976744186044925
        },
        {
          "name": "D#1",
          "midi": 27,
          "time": 162.67441860462665,
          "velocity": 0.28346456692913385,
          "duration": 0.023255813953483084
        },
        {
          "name": "F6",
          "midi": 89,
          "time": 162.67441860462665,
          "velocity": 0.1889763779527559,
          "duration": 0.0813953488371908
        },
        {
          "name": "F#6",
          "midi": 90,
          "time": 162.67441860462665,
          "velocity": 0.2283464566929134,
          "duration": 0.20930232558134776
        },
        {
          "name": "C#4",
          "midi": 61,
          "time": 162.6860465116034,
          "velocity": 0.29133858267716534,
          "duration": 0.2558139534883139
        },
        {
          "name": "A#5",
          "midi": 82,
          "time": 162.6860465116034,
          "velocity": 0.2204724409448819,
          "duration": 0.10465116279067388
        },
        {
          "name": "D6",
          "midi": 86,
          "time": 162.69767441858014,
          "velocity": 0.12598425196850394,
          "duration": 0.034883720930224626
        },
        {
          "name": "B5",
          "midi": 83,
          "time": 162.70930232555688,
          "velocity": 0.1732283464566929,
          "duration": 0.04651162790696617
        },
        {
          "name": "D#6",
          "midi": 87,
          "time": 162.70930232555688,
          "velocity": 0.1732283464566929,
          "duration": 0.05813953488370771
        },
        {
          "name": "D7",
          "midi": 98,
          "time": 162.72093023253362,
          "velocity": 0.14173228346456693,
          "duration": 0.04651162790696617
        },
        {
          "name": "C6",
          "midi": 84,
          "time": 162.7441860464871,
          "velocity": 0.2125984251968504,
          "duration": 0.04651162790696617
        },
        {
          "name": "A#6",
          "midi": 94,
          "time": 162.75581395346384,
          "velocity": 0.44881889763779526,
          "duration": 0.4651162790696617
        },
        {
          "name": "F6",
          "midi": 89,
          "time": 162.76744186044058,
          "velocity": 0.47244094488188976,
          "duration": 0.5930232558138187
        },
        {
          "name": "A5",
          "midi": 81,
          "time": 162.77906976741733,
          "velocity": 0.2755905511811024,
          "duration": 0.034883720930224626
        },
        {
          "name": "D#6",
          "midi": 87,
          "time": 162.77906976741733,
          "velocity": 0.16535433070866143,
          "duration": 0.06976744186044925
        },
        {
          "name": "D7",
          "midi": 98,
          "time": 162.77906976741733,
          "velocity": 0.13385826771653545,
          "duration": 0.04651162790696617
        },
        {
          "name": "F#5",
          "midi": 78,
          "time": 162.79069767439407,
          "velocity": 0.11023622047244094,
          "duration": 0.034883720930224626
        },
        {
          "name": "E7",
          "midi": 100,
          "time": 162.79069767439407,
          "velocity": 0.12598425196850394,
          "duration": 0.04651162790696617
        },
        {
          "name": "C6",
          "midi": 84,
          "time": 162.8023255813708,
          "velocity": 0.1732283464566929,
          "duration": 0.034883720930224626
        },
        {
          "name": "G6",
          "midi": 91,
          "time": 162.8023255813708,
          "velocity": 0.14173228346456693,
          "duration": 0.034883720930224626
        },
        {
          "name": "F2",
          "midi": 41,
          "time": 162.81395348834755,
          "velocity": 0.13385826771653545,
          "duration": 0.06976744186044925
        },
        {
          "name": "A#5",
          "midi": 82,
          "time": 162.81395348834755,
          "velocity": 0.3700787401574803,
          "duration": 0.2558139534883139
        },
        {
          "name": "D#7",
          "midi": 99,
          "time": 162.81395348834755,
          "velocity": 0.2047244094488189,
          "duration": 0.12790697674415696
        },
        {
          "name": "A4",
          "midi": 69,
          "time": 162.8255813953243,
          "velocity": 0.36220472440944884,
          "duration": 0.04651162790696617
        },
        {
          "name": "F5",
          "midi": 77,
          "time": 162.8255813953243,
          "velocity": 0.1889763779527559,
          "duration": 0.034883720930224626
        },
        {
          "name": "E6",
          "midi": 88,
          "time": 162.8255813953243,
          "velocity": 0.1968503937007874,
          "duration": 0.04651162790696617
        },
        {
          "name": "B6",
          "midi": 95,
          "time": 162.8255813953243,
          "velocity": 0.2125984251968504,
          "duration": 0.0813953488371908
        },
        {
          "name": "F4",
          "midi": 65,
          "time": 162.83720930230103,
          "velocity": 0.23622047244094488,
          "duration": 0.023255813953483084
        },
        {
          "name": "D6",
          "midi": 86,
          "time": 162.83720930230103,
          "velocity": 0.13385826771653545,
          "duration": 0.06976744186044925
        },
        {
          "name": "G6",
          "midi": 91,
          "time": 162.84883720927778,
          "velocity": 0.23622047244094488,
          "duration": 0.2209302325580893
        },
        {
          "name": "F3",
          "midi": 53,
          "time": 162.86046511625452,
          "velocity": 0.28346456692913385,
          "duration": 0.11627906976741542
        },
        {
          "name": "C6",
          "midi": 84,
          "time": 162.86046511625452,
          "velocity": 0.3228346456692913,
          "duration": 0.12790697674415696
        },
        {
          "name": "F4",
          "midi": 65,
          "time": 162.87209302323126,
          "velocity": 0.5275590551181102,
          "duration": 0.3372093023255047
        },
        {
          "name": "A#4",
          "midi": 70,
          "time": 162.87209302323126,
          "velocity": 0.5354330708661418,
          "duration": 0.06976744186044925
        },
        {
          "name": "B5",
          "midi": 83,
          "time": 162.87209302323126,
          "velocity": 0.31496062992125984,
          "duration": 0.023255813953483084
        },
        {
          "name": "D7",
          "midi": 98,
          "time": 162.87209302323126,
          "velocity": 0.2204724409448819,
          "duration": 0.20930232558134776
        },
        {
          "name": "G#5",
          "midi": 80,
          "time": 162.883720930208,
          "velocity": 0.48031496062992124,
          "duration": 0.43023255813943706
        },
        {
          "name": "D#6",
          "midi": 87,
          "time": 162.883720930208,
          "velocity": 0.44881889763779526,
          "duration": 0.3604651162789878
        },
        {
          "name": "A6",
          "midi": 93,
          "time": 162.89534883718474,
          "velocity": 0.4015748031496063,
          "duration": 0.023255813953483084
        },
        {
          "name": "C7",
          "midi": 96,
          "time": 162.90697674416148,
          "velocity": 0.3937007874015748,
          "duration": 0.37209302325572935
        },
        {
          "name": "F2",
          "midi": 41,
          "time": 162.91860465113822,
          "velocity": 0.12598425196850394,
          "duration": 0.06976744186044925
        },
        {
          "name": "F#6",
          "midi": 90,
          "time": 162.91860465113822,
          "velocity": 0.11811023622047244,
          "duration": 0.05813953488370771
        },
        {
          "name": "C#5",
          "midi": 73,
          "time": 162.93023255811497,
          "velocity": 0.2992125984251969,
          "duration": 0.04651162790696617
        },
        {
          "name": "A6",
          "midi": 93,
          "time": 162.93023255811497,
          "velocity": 0.1889763779527559,
          "duration": 0.034883720930224626
        },
        {
          "name": "A4",
          "midi": 69,
          "time": 162.9418604650917,
          "velocity": 0.44881889763779526,
          "duration": 0.04651162790696617
        },
        {
          "name": "C#4",
          "midi": 61,
          "time": 162.95348837206845,
          "velocity": 0.47244094488188976,
          "duration": 0.11627906976741542
        },
        {
          "name": "E6",
          "midi": 88,
          "time": 162.95348837206845,
          "velocity": 0.23622047244094488,
          "duration": 0.023255813953483084
        },
        {
          "name": "B6",
          "midi": 95,
          "time": 162.95348837206845,
          "velocity": 0.15748031496062992,
          "duration": 0.04651162790696617
        },
        {
          "name": "D#5",
          "midi": 75,
          "time": 162.97674418602193,
          "velocity": 0.30708661417322836,
          "duration": 0.06976744186044925
        },
        {
          "name": "A6",
          "midi": 93,
          "time": 162.97674418602193,
          "velocity": 0.15748031496062992,
          "duration": 0.1627906976743816
        },
        {
          "name": "E7",
          "midi": 100,
          "time": 162.97674418602193,
          "velocity": 0.1732283464566929,
          "duration": 0.09302325581393234
        },
        {
          "name": "G#4",
          "midi": 68,
          "time": 162.98837209299867,
          "velocity": 0.6535433070866141,
          "duration": 0.31395348837202164
        },
        {
          "name": "F#7",
          "midi": 102,
          "time": 162.98837209299867,
          "velocity": 0.4251968503937008,
          "duration": 0.3023255813952801
        },
        {
          "name": "F3",
          "midi": 53,
          "time": 162.99999999997542,
          "velocity": 0.3543307086614173,
          "duration": 0.023255813953483084
        },
        {
          "name": "A5",
          "midi": 81,
          "time": 162.99999999997542,
          "velocity": 0.2440944881889764,
          "duration": 0.05813953488370771
        },
        {
          "name": "D6",
          "midi": 86,
          "time": 162.99999999997542,
          "velocity": 0.29133858267716534,
          "duration": 0.034883720930224626
        },
        {
          "name": "F#6",
          "midi": 90,
          "time": 162.99999999997542,
          "velocity": 0.23622047244094488,
          "duration": 0.05813953488370771
        },
        {
          "name": "E2",
          "midi": 40,
          "time": 163.01162790695216,
          "velocity": 0.16535433070866143,
          "duration": 0.034883720930224626
        },
        {
          "name": "G#3",
          "midi": 56,
          "time": 163.0232558139289,
          "velocity": 0.4015748031496063,
          "duration": 0.15116279069764005
        },
        {
          "name": "F#6",
          "midi": 90,
          "time": 163.06976744183586,
          "velocity": 0.2283464566929134,
          "duration": 0.1395348837208985
        },
        {
          "name": "C#4",
          "midi": 61,
          "time": 163.0813953488126,
          "velocity": 0.3543307086614173,
          "duration": 0.09302325581393234
        },
        {
          "name": "A#5",
          "midi": 82,
          "time": 163.09302325578935,
          "velocity": 0.29133858267716534,
          "duration": 0.1395348837208985
        },
        {
          "name": "G6",
          "midi": 91,
          "time": 163.09302325578935,
          "velocity": 0.07086614173228346,
          "duration": 0.034883720930224626
        },
        {
          "name": "G7",
          "midi": 103,
          "time": 163.1046511627661,
          "velocity": 0.10236220472440945,
          "duration": 0.034883720930224626
        },
        {
          "name": "E7",
          "midi": 100,
          "time": 163.11627906974283,
          "velocity": 0.12598425196850394,
          "duration": 0.034883720930224626
        },
        {
          "name": "B6",
          "midi": 95,
          "time": 163.12790697671957,
          "velocity": 0.11811023622047244,
          "duration": 0.05813953488370771
        },
        {
          "name": "G6",
          "midi": 91,
          "time": 163.1627906976498,
          "velocity": 0.09448818897637795,
          "duration": 0.034883720930224626
        },
        {
          "name": "D7",
          "midi": 98,
          "time": 163.1627906976498,
          "velocity": 0.14173228346456693,
          "duration": 0.034883720930224626
        },
        {
          "name": "A6",
          "midi": 93,
          "time": 163.18604651160328,
          "velocity": 0.1889763779527559,
          "duration": 0.06976744186044925
        },
        {
          "name": "C#4",
          "midi": 61,
          "time": 163.19767441858002,
          "velocity": 0.2755905511811024,
          "duration": 0.09302325581393234
        },
        {
          "name": "D#5",
          "midi": 75,
          "time": 163.19767441858002,
          "velocity": 0.2677165354330709,
          "duration": 0.10465116279067388
        },
        {
          "name": "C6",
          "midi": 84,
          "time": 163.19767441858002,
          "velocity": 0.14960629921259844,
          "duration": 0.04651162790696617
        },
        {
          "name": "G#3",
          "midi": 56,
          "time": 163.20930232555676,
          "velocity": 0.4251968503937008,
          "duration": 0.023255813953483084
        },
        {
          "name": "F4",
          "midi": 65,
          "time": 163.23255813951025,
          "velocity": 0.15748031496062992,
          "duration": 0.034883720930224626
        },
        {
          "name": "A#6",
          "midi": 94,
          "time": 163.23255813951025,
          "velocity": 0.15748031496062992,
          "duration": 0.06976744186044925
        },
        {
          "name": "G#3",
          "midi": 56,
          "time": 163.244186046487,
          "velocity": 0.4094488188976378,
          "duration": 0.023255813953483084
        },
        {
          "name": "A#5",
          "midi": 82,
          "time": 163.244186046487,
          "velocity": 0.28346456692913385,
          "duration": 0.10465116279067388
        },
        {
          "name": "G6",
          "midi": 91,
          "time": 163.244186046487,
          "velocity": 0.09448818897637795,
          "duration": 0.034883720930224626
        },
        {
          "name": "G#3",
          "midi": 56,
          "time": 163.2790697674172,
          "velocity": 0.5118110236220472,
          "duration": 0.023255813953483084
        },
        {
          "name": "F#6",
          "midi": 90,
          "time": 163.2790697674172,
          "velocity": 0.18110236220472442,
          "duration": 0.09302325581393234
        },
        {
          "name": "D3",
          "midi": 50,
          "time": 163.29069767439395,
          "velocity": 0.5118110236220472,
          "duration": 0.011627906976741542
        },
        {
          "name": "F4",
          "midi": 65,
          "time": 163.29069767439395,
          "velocity": 0.4094488188976378,
          "duration": 0.04651162790696617
        },
        {
          "name": "B5",
          "midi": 83,
          "time": 163.29069767439395,
          "velocity": 0.28346456692913385,
          "duration": 0.034883720930224626
        },
        {
          "name": "D6",
          "midi": 86,
          "time": 163.29069767439395,
          "velocity": 0.14960629921259844,
          "duration": 0.04651162790696617
        },
        {
          "name": "G6",
          "midi": 91,
          "time": 163.29069767439395,
          "velocity": 0.14173228346456693,
          "duration": 0.04651162790696617
        },
        {
          "name": "C3",
          "midi": 48,
          "time": 163.3023255813707,
          "velocity": 0.6850393700787402,
          "duration": 0.011627906976741542
        },
        {
          "name": "C6",
          "midi": 84,
          "time": 163.3023255813707,
          "velocity": 0.2440944881889764,
          "duration": 0.023255813953483084
        },
        {
          "name": "F#2",
          "midi": 42,
          "time": 163.31395348834744,
          "velocity": 0.7637795275590551,
          "duration": 0.011627906976741542
        },
        {
          "name": "C4",
          "midi": 60,
          "time": 163.31395348834744,
          "velocity": 0.33858267716535434,
          "duration": 0.023255813953483084
        },
        {
          "name": "D#6",
          "midi": 87,
          "time": 163.31395348834744,
          "velocity": 0.23622047244094488,
          "duration": 0.09302325581393234
        },
        {
          "name": "E2",
          "midi": 40,
          "time": 163.32558139532418,
          "velocity": 0.7716535433070866,
          "duration": 0.011627906976741542
        },
        {
          "name": "G#5",
          "midi": 80,
          "time": 163.32558139532418,
          "velocity": 0.12598425196850394,
          "duration": 0.05813953488370771
        },
        {
          "name": "C#2",
          "midi": 37,
          "time": 163.33720930230092,
          "velocity": 0.7952755905511811,
          "duration": 0.011627906976741542
        },
        {
          "name": "G#4",
          "midi": 68,
          "time": 163.33720930230092,
          "velocity": 0.14960629921259844,
          "duration": 0.04651162790696617
        },
        {
          "name": "G#6",
          "midi": 92,
          "time": 163.33720930230092,
          "velocity": 0.4566929133858268,
          "duration": 0.26744186046505547
        },
        {
          "name": "B1",
          "midi": 35,
          "time": 163.34883720927766,
          "velocity": 0.7874015748031497,
          "duration": 0.011627906976741542
        },
        {
          "name": "B5",
          "midi": 83,
          "time": 163.34883720927766,
          "velocity": 0.25984251968503935,
          "duration": 0.10465116279067388
        },
        {
          "name": "G6",
          "midi": 91,
          "time": 163.34883720927766,
          "velocity": 0.1732283464566929,
          "duration": 0.06976744186044925
        },
        {
          "name": "A#1",
          "midi": 34,
          "time": 163.3604651162544,
          "velocity": 0.7795275590551181,
          "duration": 0.011627906976741542
        },
        {
          "name": "A#5",
          "midi": 82,
          "time": 163.3604651162544,
          "velocity": 0.11023622047244094,
          "duration": 0.034883720930224626
        },
        {
          "name": "E6",
          "midi": 88,
          "time": 163.3604651162544,
          "velocity": 0.12598425196850394,
          "duration": 0.0813953488371908
        },
        {
          "name": "A6",
          "midi": 93,
          "time": 163.3604651162544,
          "velocity": 0.09448818897637795,
          "duration": 0.034883720930224626
        },
        {
          "name": "A1",
          "midi": 33,
          "time": 163.37209302323114,
          "velocity": 0.7716535433070866,
          "duration": 0.023255813953483084
        },
        {
          "name": "F3",
          "midi": 53,
          "time": 163.37209302323114,
          "velocity": 0.3937007874015748,
          "duration": 0.023255813953483084
        },
        {
          "name": "A#6",
          "midi": 94,
          "time": 163.37209302323114,
          "velocity": 0.11811023622047244,
          "duration": 0.09302325581393234
        },
        {
          "name": "C#5",
          "midi": 73,
          "time": 163.3837209302079,
          "velocity": 0.6062992125984252,
          "duration": 0.6395348837207848
        },
        {
          "name": "F#7",
          "midi": 102,
          "time": 163.3837209302079,
          "velocity": 0.11811023622047244,
          "duration": 0.04651162790696617
        },
        {
          "name": "G#1",
          "midi": 32,
          "time": 163.39534883718463,
          "velocity": 0.7716535433070866,
          "duration": 0.023255813953483084
        },
        {
          "name": "D#3",
          "midi": 51,
          "time": 163.39534883718463,
          "velocity": 0.2992125984251969,
          "duration": 0.023255813953483084
        },
        {
          "name": "C#4",
          "midi": 61,
          "time": 163.39534883718463,
          "velocity": 0.4645669291338583,
          "duration": 0.17441860465112313
        },
        {
          "name": "F#4",
          "midi": 66,
          "time": 163.39534883718463,
          "velocity": 0.2440944881889764,
          "duration": 0.11627906976741542
        },
        {
          "name": "G#5",
          "midi": 80,
          "time": 163.39534883718463,
          "velocity": 0.14960629921259844,
          "duration": 0.034883720930224626
        },
        {
          "name": "A5",
          "midi": 81,
          "time": 163.39534883718463,
          "velocity": 0.08661417322834646,
          "duration": 0.05813953488370771
        },
        {
          "name": "A#4",
          "midi": 70,
          "time": 163.40697674416137,
          "velocity": 0.23622047244094488,
          "duration": 0.0813953488371908
        },
        {
          "name": "D6",
          "midi": 86,
          "time": 163.40697674416137,
          "velocity": 0.15748031496062992,
          "duration": 0.034883720930224626
        },
        {
          "name": "G1",
          "midi": 31,
          "time": 163.4186046511381,
          "velocity": 0.7716535433070866,
          "duration": 0.04651162790696617
        },
        {
          "name": "D3",
          "midi": 50,
          "time": 163.4186046511381,
          "velocity": 0.33858267716535434,
          "duration": 0.034883720930224626
        },
        {
          "name": "E5",
          "midi": 76,
          "time": 163.4186046511381,
          "velocity": 0.1732283464566929,
          "duration": 0.05813953488370771
        },
        {
          "name": "D#6",
          "midi": 87,
          "time": 163.4186046511381,
          "velocity": 0.14173228346456693,
          "duration": 0.04651162790696617
        },
        {
          "name": "F#6",
          "midi": 90,
          "time": 163.4186046511381,
          "velocity": 0.3464566929133858,
          "duration": 0.37209302325572935
        },
        {
          "name": "A#5",
          "midi": 82,
          "time": 163.4418604650916,
          "velocity": 0.4251968503937008,
          "duration": 0.5116279069766279
        },
        {
          "name": "A6",
          "midi": 93,
          "time": 163.4418604650916,
          "velocity": 0.1732283464566929,
          "duration": 0.034883720930224626
        },
        {
          "name": "C#3",
          "midi": 49,
          "time": 163.45348837206834,
          "velocity": 0.4094488188976378,
          "duration": 0.2209302325580893
        },
        {
          "name": "F6",
          "midi": 89,
          "time": 163.45348837206834,
          "velocity": 0.18110236220472442,
          "duration": 0.05813953488370771
        },
        {
          "name": "G6",
          "midi": 91,
          "time": 163.45348837206834,
          "velocity": 0.14960629921259844,
          "duration": 0.04651162790696617
        },
        {
          "name": "F#1",
          "midi": 30,
          "time": 163.46511627904508,
          "velocity": 0.7559055118110236,
          "duration": 0.11627906976741542
        },
        {
          "name": "D#5",
          "midi": 75,
          "time": 163.47674418602182,
          "velocity": 0.28346456692913385,
          "duration": 0.04651162790696617
        },
        {
          "name": "G#5",
          "midi": 80,
          "time": 163.47674418602182,
          "velocity": 0.4251968503937008,
          "duration": 0.48837209302314477
        },
        {
          "name": "E7",
          "midi": 100,
          "time": 163.47674418602182,
          "velocity": 0.11811023622047244,
          "duration": 0.034883720930224626
        },
        {
          "name": "A6",
          "midi": 93,
          "time": 163.48837209299856,
          "velocity": 0.15748031496062992,
          "duration": 0.10465116279067388
        },
        {
          "name": "G#4",
          "midi": 68,
          "time": 163.51162790695204,
          "velocity": 0.2755905511811024,
          "duration": 0.04651162790696617
        },
        {
          "name": "A#4",
          "midi": 70,
          "time": 163.51162790695204,
          "velocity": 0.44881889763779526,
          "duration": 0.3255813953487632
        },
        {
          "name": "E6",
          "midi": 88,
          "time": 163.51162790695204,
          "velocity": 0.12598425196850394,
          "duration": 0.05813953488370771
        },
        {
          "name": "F#4",
          "midi": 66,
          "time": 163.52325581392878,
          "velocity": 0.48031496062992124,
          "duration": 0.3023255813952801
        },
        {
          "name": "F6",
          "midi": 89,
          "time": 163.53488372090553,
          "velocity": 0.3228346456692913,
          "duration": 0.15116279069764005
        },
        {
          "name": "G6",
          "midi": 91,
          "time": 163.54651162788227,
          "velocity": 0.1732283464566929,
          "duration": 0.10465116279067388
        },
        {
          "name": "A#3",
          "midi": 58,
          "time": 163.558139534859,
          "velocity": 0.5039370078740157,
          "duration": 0.05813953488370771
        },
        {
          "name": "B6",
          "midi": 95,
          "time": 163.558139534859,
          "velocity": 0.2125984251968504,
          "duration": 0.26744186046505547
        },
        {
          "name": "D7",
          "midi": 98,
          "time": 163.558139534859,
          "velocity": 0.33070866141732286,
          "duration": 0.24418604651157239
        },
        {
          "name": "E7",
          "midi": 100,
          "time": 163.558139534859,
          "velocity": 0.1889763779527559,
          "duration": 0.3372093023255047
        },
        {
          "name": "F1",
          "midi": 29,
          "time": 163.5813953488125,
          "velocity": 0.7086614173228346,
          "duration": 0.023255813953483084
        },
        {
          "name": "C#4",
          "midi": 61,
          "time": 163.5813953488125,
          "velocity": 0.4645669291338583,
          "duration": 0.034883720930224626
        },
        {
          "name": "F#1",
          "midi": 30,
          "time": 163.60465116276598,
          "velocity": 0.7086614173228346,
          "duration": 0.37209302325572935
        },
        {
          "name": "E6",
          "midi": 88,
          "time": 163.60465116276598,
          "velocity": 0.18110236220472442,
          "duration": 0.034883720930224626
        },
        {
          "name": "C7",
          "midi": 96,
          "time": 163.61627906974272,
          "velocity": 0.18110236220472442,
          "duration": 0.034883720930224626
        },
        {
          "name": "D#7",
          "midi": 99,
          "time": 163.61627906974272,
          "velocity": 0.2283464566929134,
          "duration": 0.1395348837208985
        },
        {
          "name": "C#4",
          "midi": 61,
          "time": 163.62790697671946,
          "velocity": 0.47244094488188976,
          "duration": 0.31395348837202164
        },
        {
          "name": "C6",
          "midi": 84,
          "time": 163.62790697671946,
          "velocity": 0.23622047244094488,
          "duration": 0.023255813953483084
        },
        {
          "name": "G#6",
          "midi": 92,
          "time": 163.62790697671946,
          "velocity": 0.5196850393700787,
          "duration": 0.34883720930224626
        },
        {
          "name": "A6",
          "midi": 93,
          "time": 163.62790697671946,
          "velocity": 0.2755905511811024,
          "duration": 0.0813953488371908
        },
        {
          "name": "E5",
          "midi": 76,
          "time": 163.6395348836962,
          "velocity": 0.23622047244094488,
          "duration": 0.023255813953483084
        },
        {
          "name": "F5",
          "midi": 77,
          "time": 163.6395348836962,
          "velocity": 0.29133858267716534,
          "duration": 0.05813953488370771
        },
        {
          "name": "D#6",
          "midi": 87,
          "time": 163.6395348836962,
          "velocity": 0.25196850393700787,
          "duration": 0.034883720930224626
        },
        {
          "name": "F#3",
          "midi": 54,
          "time": 163.65116279067294,
          "velocity": 0.4251968503937008,
          "duration": 0.023255813953483084
        },
        {
          "name": "B5",
          "midi": 83,
          "time": 163.65116279067294,
          "velocity": 0.2283464566929134,
          "duration": 0.023255813953483084
        },
        {
          "name": "C6",
          "midi": 84,
          "time": 163.66279069764968,
          "velocity": 0.2047244094488189,
          "duration": 0.034883720930224626
        },
        {
          "name": "G7",
          "midi": 103,
          "time": 163.66279069764968,
          "velocity": 0.12598425196850394,
          "duration": 0.15116279069764005
        },
        {
          "name": "D#5",
          "midi": 75,
          "time": 163.67441860462642,
          "velocity": 0.1889763779527559,
          "duration": 0.034883720930224626
        },
        {
          "name": "C#3",
          "midi": 49,
          "time": 163.68604651160317,
          "velocity": 0.4094488188976378,
          "duration": 0.05813953488370771
        },
        {
          "name": "F6",
          "midi": 89,
          "time": 163.6976744185799,
          "velocity": 0.3858267716535433,
          "duration": 0.3372093023255047
        },
        {
          "name": "F5",
          "midi": 77,
          "time": 163.70930232555665,
          "velocity": 0.25984251968503935,
          "duration": 0.034883720930224626
        },
        {
          "name": "D6",
          "midi": 86,
          "time": 163.70930232555665,
          "velocity": 0.14960629921259844,
          "duration": 0.04651162790696617
        },
        {
          "name": "E6",
          "midi": 88,
          "time": 163.70930232555665,
          "velocity": 0.13385826771653545,
          "duration": 0.034883720930224626
        },
        {
          "name": "G6",
          "midi": 91,
          "time": 163.70930232555665,
          "velocity": 0.2204724409448819,
          "duration": 0.034883720930224626
        },
        {
          "name": "D#5",
          "midi": 75,
          "time": 163.73255813951013,
          "velocity": 0.18110236220472442,
          "duration": 0.05813953488370771
        },
        {
          "name": "A6",
          "midi": 93,
          "time": 163.73255813951013,
          "velocity": 0.10236220472440945,
          "duration": 0.034883720930224626
        },
        {
          "name": "C#3",
          "midi": 49,
          "time": 163.75581395346362,
          "velocity": 0.4015748031496063,
          "duration": 0.15116279069764005
        },
        {
          "name": "A#3",
          "midi": 58,
          "time": 163.75581395346362,
          "velocity": 0.33070866141732286,
          "duration": 0.04651162790696617
        },
        {
          "name": "E6",
          "midi": 88,
          "time": 163.76744186044036,
          "velocity": 0.16535433070866143,
          "duration": 0.034883720930224626
        },
        {
          "name": "C6",
          "midi": 84,
          "time": 163.7790697674171,
          "velocity": 0.2047244094488189,
          "duration": 0.04651162790696617
        },
        {
          "name": "D#7",
          "midi": 99,
          "time": 163.7790697674171,
          "velocity": 0.16535433070866143,
          "duration": 0.10465116279067388
        },
        {
          "name": "D6",
          "midi": 86,
          "time": 163.80232558137058,
          "velocity": 0.25196850393700787,
          "duration": 0.05813953488370771
        },
        {
          "name": "A6",
          "midi": 93,
          "time": 163.80232558137058,
          "velocity": 0.07874015748031496,
          "duration": 0.04651162790696617
        },
        {
          "name": "F#7",
          "midi": 102,
          "time": 163.80232558137058,
          "velocity": 0.29133858267716534,
          "duration": 0.279069767441797
        },
        {
          "name": "D7",
          "midi": 98,
          "time": 163.82558139532406,
          "velocity": 0.3700787401574803,
          "duration": 0.4418604651161786
        },
        {
          "name": "F#3",
          "midi": 54,
          "time": 163.8372093023008,
          "velocity": 0.4251968503937008,
          "duration": 0.11627906976741542
        },
        {
          "name": "D#6",
          "midi": 87,
          "time": 163.8372093023008,
          "velocity": 0.09448818897637795,
          "duration": 0.034883720930224626
        },
        {
          "name": "F#4",
          "midi": 66,
          "time": 163.84883720927755,
          "velocity": 0.44881889763779526,
          "duration": 0.10465116279067388
        },
        {
          "name": "A#4",
          "midi": 70,
          "time": 163.84883720927755,
          "velocity": 0.47244094488188976,
          "duration": 0.11627906976741542
        },
        {
          "name": "E6",
          "midi": 88,
          "time": 163.84883720927755,
          "velocity": 0.1889763779527559,
          "duration": 0.06976744186044925
        },
        {
          "name": "D6",
          "midi": 86,
          "time": 163.87209302323103,
          "velocity": 0.16535433070866143,
          "duration": 0.034883720930224626
        },
        {
          "name": "A#3",
          "midi": 58,
          "time": 163.88372093020777,
          "velocity": 0.2440944881889764,
          "duration": 0.023255813953483084
        },
        {
          "name": "C7",
          "midi": 96,
          "time": 163.88372093020777,
          "velocity": 0.23622047244094488,
          "duration": 0.04651162790696617
        },
        {
          "name": "G6",
          "midi": 91,
          "time": 163.8953488371845,
          "velocity": 0.36220472440944884,
          "duration": 0.1627906976743816
        },
        {
          "name": "A6",
          "midi": 93,
          "time": 163.8953488371845,
          "velocity": 0.11023622047244094,
          "duration": 0.034883720930224626
        },
        {
          "name": "B5",
          "midi": 83,
          "time": 163.90697674416126,
          "velocity": 0.25984251968503935,
          "duration": 0.06976744186044925
        },
        {
          "name": "D#5",
          "midi": 75,
          "time": 163.93023255811474,
          "velocity": 0.2047244094488189,
          "duration": 0.034883720930224626
        },
        {
          "name": "D6",
          "midi": 86,
          "time": 163.94186046509148,
          "velocity": 0.28346456692913385,
          "duration": 0.04651162790696617
        },
        {
          "name": "C7",
          "midi": 96,
          "time": 163.94186046509148,
          "velocity": 0.23622047244094488,
          "duration": 0.15116279069764005
        },
        {
          "name": "D#7",
          "midi": 99,
          "time": 163.94186046509148,
          "velocity": 0.31496062992125984,
          "duration": 0.15116279069764005
        },
        {
          "name": "E7",
          "midi": 100,
          "time": 163.94186046509148,
          "velocity": 0.2204724409448819,
          "duration": 0.26744186046505547
        },
        {
          "name": "F5",
          "midi": 77,
          "time": 163.95348837206822,
          "velocity": 0.1968503937007874,
          "duration": 0.11627906976741542
        },
        {
          "name": "C6",
          "midi": 84,
          "time": 163.95348837206822,
          "velocity": 0.28346456692913385,
          "duration": 0.034883720930224626
        },
        {
          "name": "E6",
          "midi": 88,
          "time": 163.95348837206822,
          "velocity": 0.25984251968503935,
          "duration": 0.18604651162786467
        },
        {
          "name": "A4",
          "midi": 69,
          "time": 163.96511627904496,
          "velocity": 0.5275590551181102,
          "duration": 0.023255813953483084
        },
        {
          "name": "D#6",
          "midi": 87,
          "time": 163.96511627904496,
          "velocity": 0.2440944881889764,
          "duration": 0.04651162790696617
        },
        {
          "name": "A#4",
          "midi": 70,
          "time": 163.9767441860217,
          "velocity": 0.3464566929133858,
          "duration": 0.06976744186044925
        },
        {
          "name": "G#5",
          "midi": 80,
          "time": 163.9767441860217,
          "velocity": 0.25196850393700787,
          "duration": 0.12790697674415696
        },
        {
          "name": "F#4",
          "midi": 66,
          "time": 163.9999999999752,
          "velocity": 0.09448818897637795,
          "duration": 0.04651162790696617
        },
        {
          "name": "G#6",
          "midi": 92,
          "time": 163.9999999999752,
          "velocity": 0.4645669291338583,
          "duration": 0.279069767441797
        },
        {
          "name": "D#6",
          "midi": 87,
          "time": 164.02325581392867,
          "velocity": 0.5196850393700787,
          "duration": 1.4418604651159512
        },
        {
          "name": "F#6",
          "midi": 90,
          "time": 164.02325581392867,
          "velocity": 0.2283464566929134,
          "duration": 0.034883720930224626
        },
        {
          "name": "C#5",
          "midi": 73,
          "time": 164.0348837209054,
          "velocity": 0.5984251968503937,
          "duration": 0.5697674418603356
        },
        {
          "name": "A#6",
          "midi": 94,
          "time": 164.04651162788215,
          "velocity": 0.4566929133858268,
          "duration": 0.5232558139533694
        },
        {
          "name": "A#5",
          "midi": 82,
          "time": 164.0581395348589,
          "velocity": 0.1732283464566929,
          "duration": 0.034883720930224626
        },
        {
          "name": "B6",
          "midi": 95,
          "time": 164.0581395348589,
          "velocity": 0.1968503937007874,
          "duration": 0.15116279069764005
        },
        {
          "name": "A#3",
          "midi": 58,
          "time": 164.06976744183564,
          "velocity": 0.07086614173228346,
          "duration": 0.034883720930224626
        },
        {
          "name": "F#5",
          "midi": 78,
          "time": 164.06976744183564,
          "velocity": 0.14173228346456693,
          "duration": 0.10465116279067388
        },
        {
          "name": "A5",
          "midi": 81,
          "time": 164.06976744183564,
          "velocity": 0.28346456692913385,
          "duration": 0.04651162790696617
        },
        {
          "name": "F6",
          "midi": 89,
          "time": 164.08139534881238,
          "velocity": 0.23622047244094488,
          "duration": 0.19767441860460622
        },
        {
          "name": "F#3",
          "midi": 54,
          "time": 164.09302325578912,
          "velocity": 0.14173228346456693,
          "duration": 0.11627906976741542
        },
        {
          "name": "F#7",
          "midi": 102,
          "time": 164.09302325578912,
          "velocity": 0.11811023622047244,
          "duration": 0.11627906976741542
        },
        {
          "name": "G#4",
          "midi": 68,
          "time": 164.10465116276586,
          "velocity": 0.3700787401574803,
          "duration": 0.023255813953483084
        },
        {
          "name": "A#5",
          "midi": 82,
          "time": 164.10465116276586,
          "velocity": 0.3779527559055118,
          "duration": 0.3837209302324709
        },
        {
          "name": "F#6",
          "midi": 90,
          "time": 164.10465116276586,
          "velocity": 0.2283464566929134,
          "duration": 0.12790697674415696
        },
        {
          "name": "F#2",
          "midi": 42,
          "time": 164.1395348836961,
          "velocity": 0.10236220472440945,
          "duration": 0.0813953488371908
        },
        {
          "name": "F#4",
          "midi": 66,
          "time": 164.1395348836961,
          "velocity": 0.2755905511811024,
          "duration": 0.023255813953483084
        },
        {
          "name": "A4",
          "midi": 69,
          "time": 164.1395348836961,
          "velocity": 0.30708661417322836,
          "duration": 0.034883720930224626
        },
        {
          "name": "G#5",
          "midi": 80,
          "time": 164.15116279067283,
          "velocity": 0.3228346456692913,
          "duration": 0.023255813953483084
        },
        {
          "name": "B5",
          "midi": 83,
          "time": 164.16279069764957,
          "velocity": 0.12598425196850394,
          "duration": 0.034883720930224626
        },
        {
          "name": "A6",
          "midi": 93,
          "time": 164.16279069764957,
          "velocity": 0.29133858267716534,
          "duration": 0.04651162790696617
        },
        {
          "name": "C#4",
          "midi": 61,
          "time": 164.1744186046263,
          "velocity": 0.29133858267716534,
          "duration": 0.10465116279067388
        },
        {
          "name": "F#4",
          "midi": 66,
          "time": 164.1744186046263,
          "velocity": 0.5433070866141733,
          "duration": 0.3372093023255047
        },
        {
          "name": "D#5",
          "midi": 75,
          "time": 164.1744186046263,
          "velocity": 0.5984251968503937,
          "duration": 0.17441860465112313
        },
        {
          "name": "E6",
          "midi": 88,
          "time": 164.1744186046263,
          "velocity": 0.2283464566929134,
          "duration": 0.023255813953483084
        },
        {
          "name": "G6",
          "midi": 91,
          "time": 164.1744186046263,
          "velocity": 0.1968503937007874,
          "duration": 0.0813953488371908
        },
        {
          "name": "G7",
          "midi": 103,
          "time": 164.1744186046263,
          "velocity": 0.2992125984251969,
          "duration": 0.15116279069764005
        },
        {
          "name": "A#4",
          "midi": 70,
          "time": 164.18604651160305,
          "velocity": 0.3779527559055118,
          "duration": 0.09302325581393234
        },
        {
          "name": "C7",
          "midi": 96,
          "time": 164.18604651160305,
          "velocity": 0.10236220472440945,
          "duration": 0.06976744186044925
        },
        {
          "name": "G#5",
          "midi": 80,
          "time": 164.20930232555654,
          "velocity": 0.3464566929133858,
          "duration": 0.20930232558134776
        },
        {
          "name": "B5",
          "midi": 83,
          "time": 164.22093023253328,
          "velocity": 0.14960629921259844,
          "duration": 0.034883720930224626
        },
        {
          "name": "G2",
          "midi": 43,
          "time": 164.2558139534635,
          "velocity": 0.14960629921259844,
          "duration": 0.034883720930224626
        },
        {
          "name": "B6",
          "midi": 95,
          "time": 164.2558139534635,
          "velocity": 0.14960629921259844,
          "duration": 0.04651162790696617
        },
        {
          "name": "F#7",
          "midi": 102,
          "time": 164.2558139534635,
          "velocity": 0.1889763779527559,
          "duration": 0.1627906976743816
        },
        {
          "name": "G6",
          "midi": 91,
          "time": 164.26744186044024,
          "velocity": 0.4409448818897638,
          "duration": 0.23255813953483084
        },
        {
          "name": "A#3",
          "midi": 58,
          "time": 164.27906976741698,
          "velocity": 0.49606299212598426,
          "duration": 0.10465116279067388
        },
        {
          "name": "F5",
          "midi": 77,
          "time": 164.27906976741698,
          "velocity": 0.7165354330708661,
          "duration": 0.3604651162789878
        },
        {
          "name": "B5",
          "midi": 83,
          "time": 164.27906976741698,
          "velocity": 0.10236220472440945,
          "duration": 0.034883720930224626
        },
        {
          "name": "F#6",
          "midi": 90,
          "time": 164.27906976741698,
          "velocity": 0.33858267716535434,
          "duration": 0.06976744186044925
        },
        {
          "name": "E7",
          "midi": 100,
          "time": 164.27906976741698,
          "velocity": 0.1889763779527559,
          "duration": 0.24418604651157239
        },
        {
          "name": "F7",
          "midi": 101,
          "time": 164.27906976741698,
          "velocity": 0.48031496062992124,
          "duration": 1.9767441860460622
        },
        {
          "name": "D7",
          "midi": 98,
          "time": 164.29069767439373,
          "velocity": 0.2283464566929134,
          "duration": 0.0813953488371908
        },
        {
          "name": "A6",
          "midi": 93,
          "time": 164.30232558137047,
          "velocity": 0.1968503937007874,
          "duration": 0.034883720930224626
        },
        {
          "name": "C7",
          "midi": 96,
          "time": 164.30232558137047,
          "velocity": 0.48031496062992124,
          "duration": 1.3837209302322435
        },
        {
          "name": "B6",
          "midi": 95,
          "time": 164.32558139532395,
          "velocity": 0.18110236220472442,
          "duration": 0.11627906976741542
        },
        {
          "name": "G5",
          "midi": 79,
          "time": 164.3372093023007,
          "velocity": 0.2283464566929134,
          "duration": 0.034883720930224626
        },
        {
          "name": "F#6",
          "midi": 90,
          "time": 164.36046511625418,
          "velocity": 0.2047244094488189,
          "duration": 0.18604651162786467
        },
        {
          "name": "C#4",
          "midi": 61,
          "time": 164.37209302323092,
          "velocity": 0.3937007874015748,
          "duration": 0.12790697674415696
        },
        {
          "name": "E6",
          "midi": 88,
          "time": 164.38372093020766,
          "velocity": 0.11023622047244094,
          "duration": 0.034883720930224626
        },
        {
          "name": "A6",
          "midi": 93,
          "time": 164.3953488371844,
          "velocity": 0.11023622047244094,
          "duration": 0.06976744186044925
        },
        {
          "name": "B5",
          "midi": 83,
          "time": 164.40697674416114,
          "velocity": 0.2204724409448819,
          "duration": 0.034883720930224626
        },
        {
          "name": "F#2",
          "midi": 42,
          "time": 164.41860465113788,
          "velocity": 0.28346456692913385,
          "duration": 0.17441860465112313
        },
        {
          "name": "D7",
          "midi": 98,
          "time": 164.41860465113788,
          "velocity": 0.1889763779527559,
          "duration": 0.05813953488370771
        },
        {
          "name": "D#5",
          "midi": 75,
          "time": 164.46511627904485,
          "velocity": 0.2283464566929134,
          "duration": 0.034883720930224626
        },
        {
          "name": "B6",
          "midi": 95,
          "time": 164.48837209299833,
          "velocity": 0.07086614173228346,
          "duration": 0.06976744186044925
        },
        {
          "name": "A#3",
          "midi": 58,
          "time": 164.49999999997507,
          "velocity": 0.4409448818897638,
          "duration": 0.10465116279067388
        },
        {
          "name": "F#4",
          "midi": 66,
          "time": 164.52325581392856,
          "velocity": 0.25984251968503935,
          "duration": 0.0813953488371908
        },
        {
          "name": "D#5",
          "midi": 75,
          "time": 164.5348837209053,
          "velocity": 0.28346456692913385,
          "duration": 0.0813953488371908
        },
        {
          "name": "A5",
          "midi": 81,
          "time": 164.55813953485878,
          "velocity": 0.10236220472440945,
          "duration": 0.034883720930224626
        },
        {
          "name": "F#6",
          "midi": 90,
          "time": 164.56976744183552,
          "velocity": 0.2677165354330709,
          "duration": 0.06976744186044925
        },
        {
          "name": "F#3",
          "midi": 54,
          "time": 164.58139534881226,
          "velocity": 0.4330708661417323,
          "duration": 0.023255813953483084
        },
        {
          "name": "B5",
          "midi": 83,
          "time": 164.593023255789,
          "velocity": 0.1889763779527559,
          "duration": 0.034883720930224626
        },
        {
          "name": "C3",
          "midi": 48,
          "time": 164.60465116276575,
          "velocity": 0.6377952755905512,
          "duration": 0.011627906976741542
        },
        {
          "name": "G#4",
          "midi": 68,
          "time": 164.60465116276575,
          "velocity": 0.33070866141732286,
          "duration": 0.034883720930224626
        },
        {
          "name": "G#2",
          "midi": 44,
          "time": 164.6162790697425,
          "velocity": 0.7401574803149606,
          "duration": 0.011627906976741542
        },
        {
          "name": "A3",
          "midi": 57,
          "time": 164.6162790697425,
          "velocity": 0.5354330708661418,
          "duration": 0.023255813953483084
        },
        {
          "name": "F4",
          "midi": 65,
          "time": 164.6162790697425,
          "velocity": 0.3228346456692913,
          "duration": 0.034883720930224626
        },
        {
          "name": "E6",
          "midi": 88,
          "time": 164.6162790697425,
          "velocity": 0.13385826771653545,
          "duration": 0.04651162790696617
        },
        {
          "name": "D7",
          "midi": 98,
          "time": 164.6162790697425,
          "velocity": 0.2047244094488189,
          "duration": 0.3023255813952801
        },
        {
          "name": "F2",
          "midi": 41,
          "time": 164.62790697671923,
          "velocity": 0.7874015748031497,
          "duration": 0.011627906976741542
        },
        {
          "name": "D#5",
          "midi": 75,
          "time": 164.62790697671923,
          "velocity": 0.2283464566929134,
          "duration": 0.04651162790696617
        },
        {
          "name": "G7",
          "midi": 103,
          "time": 164.62790697671923,
          "velocity": 0.12598425196850394,
          "duration": 0.034883720930224626
        },
        {
          "name": "D2",
          "midi": 38,
          "time": 164.63953488369597,
          "velocity": 0.7952755905511811,
          "duration": 0.011627906976741542
        },
        {
          "name": "B4",
          "midi": 71,
          "time": 164.63953488369597,
          "velocity": 0.12598425196850394,
          "duration": 0.034883720930224626
        },
        {
          "name": "F#5",
          "midi": 78,
          "time": 164.63953488369597,
          "velocity": 0.25984251968503935,
          "duration": 0.023255813953483084
        },
        {
          "name": "C2",
          "midi": 36,
          "time": 164.6511627906727,
          "velocity": 0.8031496062992126,
          "duration": 0.011627906976741542
        },
        {
          "name": "G3",
          "midi": 55,
          "time": 164.6511627906727,
          "velocity": 0.4330708661417323,
          "duration": 0.05813953488370771
        },
        {
          "name": "D5",
          "midi": 74,
          "time": 164.6511627906727,
          "velocity": 0.2283464566929134,
          "duration": 0.04651162790696617
        },
        {
          "name": "F5",
          "midi": 77,
          "time": 164.6511627906727,
          "velocity": 0.6299212598425197,
          "duration": 0.8488372093021326
        },
        {
          "name": "G#5",
          "midi": 80,
          "time": 164.6511627906727,
          "velocity": 0.4566929133858268,
          "duration": 0.4418604651161786
        },
        {
          "name": "B5",
          "midi": 83,
          "time": 164.6511627906727,
          "velocity": 0.16535433070866143,
          "duration": 0.05813953488370771
        },
        {
          "name": "A#1",
          "midi": 34,
          "time": 164.66279069764946,
          "velocity": 0.7874015748031497,
          "duration": 0.011627906976741542
        },
        {
          "name": "D#4",
          "midi": 63,
          "time": 164.66279069764946,
          "velocity": 0.14960629921259844,
          "duration": 0.04651162790696617
        },
        {
          "name": "A1",
          "midi": 33,
          "time": 164.6744186046262,
          "velocity": 0.7637795275590551,
          "duration": 0.023255813953483084
        },
        {
          "name": "F4",
          "midi": 65,
          "time": 164.68604651160294,
          "velocity": 0.09448818897637795,
          "duration": 0.034883720930224626
        },
        {
          "name": "G#1",
          "midi": 32,
          "time": 164.69767441857968,
          "velocity": 0.7401574803149606,
          "duration": 0.034883720930224626
        },
        {
          "name": "D#5",
          "midi": 75,
          "time": 164.69767441857968,
          "velocity": 0.28346456692913385,
          "duration": 0.06976744186044925
        },
        {
          "name": "G#3",
          "midi": 56,
          "time": 164.70930232555642,
          "velocity": 0.3543307086614173,
          "duration": 0.05813953488370771
        },
        {
          "name": "C#4",
          "midi": 61,
          "time": 164.70930232555642,
          "velocity": 0.44881889763779526,
          "duration": 0.3604651162789878
        },
        {
          "name": "E7",
          "midi": 100,
          "time": 164.70930232555642,
          "velocity": 0.09448818897637795,
          "duration": 0.04651162790696617
        },
        {
          "name": "G#4",
          "midi": 68,
          "time": 164.72093023253316,
          "velocity": 0.5039370078740157,
          "duration": 0.3372093023255047
        },
        {
          "name": "G1",
          "midi": 31,
          "time": 164.7325581395099,
          "velocity": 0.7480314960629921,
          "duration": 0.12790697674415696
        },
        {
          "name": "F#6",
          "midi": 90,
          "time": 164.74418604648665,
          "velocity": 0.25196850393700787,
          "duration": 0.0813953488371908
        },
        {
          "name": "E6",
          "midi": 88,
          "time": 164.7558139534634,
          "velocity": 0.16535433070866143,
          "duration": 0.04651162790696617
        },
        {
          "name": "A3",
          "midi": 57,
          "time": 164.76744186044013,
          "velocity": 0.25196850393700787,
          "duration": 0.023255813953483084
        },
        {
          "name": "B5",
          "midi": 83,
          "time": 164.76744186044013,
          "velocity": 0.18110236220472442,
          "duration": 0.06976744186044925
        },
        {
          "name": "C6",
          "midi": 84,
          "time": 164.77906976741687,
          "velocity": 0.2283464566929134,
          "duration": 0.04651162790696617
        },
        {
          "name": "D#5",
          "midi": 75,
          "time": 164.7906976743936,
          "velocity": 0.23622047244094488,
          "duration": 0.023255813953483084
        },
        {
          "name": "A#5",
          "midi": 82,
          "time": 164.7906976743936,
          "velocity": 0.13385826771653545,
          "duration": 0.09302325581393234
        },
        {
          "name": "B6",
          "midi": 95,
          "time": 164.7906976743936,
          "velocity": 0.2755905511811024,
          "duration": 0.5813953488370771
        },
        {
          "name": "G#3",
          "midi": 56,
          "time": 164.80232558137035,
          "velocity": 0.3858267716535433,
          "duration": 0.18604651162786467
        },
        {
          "name": "A6",
          "midi": 93,
          "time": 164.8139534883471,
          "velocity": 0.1968503937007874,
          "duration": 0.19767441860460622
        },
        {
          "name": "F#7",
          "midi": 102,
          "time": 164.82558139532384,
          "velocity": 0.25984251968503935,
          "duration": 0.34883720930224626
        },
        {
          "name": "C5",
          "midi": 72,
          "time": 164.83720930230058,
          "velocity": 0.1732283464566929,
          "duration": 0.06976744186044925
        },
        {
          "name": "D#3",
          "midi": 51,
          "time": 164.84883720927732,
          "velocity": 0.3937007874015748,
          "duration": 0.12790697674415696
        },
        {
          "name": "G#1",
          "midi": 32,
          "time": 164.86046511625406,
          "velocity": 0.7086614173228346,
          "duration": 0.023255813953483084
        },
        {
          "name": "D#5",
          "midi": 75,
          "time": 164.86046511625406,
          "velocity": 0.2992125984251969,
          "duration": 0.09302325581393234
        },
        {
          "name": "C6",
          "midi": 84,
          "time": 164.86046511625406,
          "velocity": 0.2283464566929134,
          "duration": 0.0813953488371908
        },
        {
          "name": "C#7",
          "midi": 97,
          "time": 164.8720930232308,
          "velocity": 0.2677165354330709,
          "duration": 0.1627906976743816
        },
        {
          "name": "A1",
          "midi": 33,
          "time": 164.88372093020755,
          "velocity": 0.6692913385826772,
          "duration": 0.023255813953483084
        },
        {
          "name": "A#6",
          "midi": 94,
          "time": 164.88372093020755,
          "velocity": 0.16535433070866143,
          "duration": 0.0813953488371908
        },
        {
          "name": "C#6",
          "midi": 85,
          "time": 164.8953488371843,
          "velocity": 0.3779527559055118,
          "duration": 0.17441860465112313
        },
        {
          "name": "G#1",
          "midi": 32,
          "time": 164.90697674416103,
          "velocity": 0.6929133858267716,
          "duration": 0.3604651162789878
        },
        {
          "name": "A#5",
          "midi": 82,
          "time": 164.91860465113777,
          "velocity": 0.23622047244094488,
          "duration": 0.023255813953483084
        },
        {
          "name": "F#4",
          "midi": 66,
          "time": 164.9302325581145,
          "velocity": 0.4251968503937008,
          "duration": 0.023255813953483084
        },
        {
          "name": "B5",
          "midi": 83,
          "time": 164.9302325581145,
          "velocity": 0.1889763779527559,
          "duration": 0.05813953488370771
        },
        {
          "name": "E7",
          "midi": 100,
          "time": 164.9302325581145,
          "velocity": 0.1889763779527559,
          "duration": 0.24418604651157239
        },
        {
          "name": "G7",
          "midi": 103,
          "time": 164.9302325581145,
          "velocity": 0.15748031496062992,
          "duration": 0.1627906976743816
        },
        {
          "name": "A5",
          "midi": 81,
          "time": 164.94186046509125,
          "velocity": 0.28346456692913385,
          "duration": 0.05813953488370771
        },
        {
          "name": "G6",
          "midi": 91,
          "time": 164.953488372068,
          "velocity": 0.4566929133858268,
          "duration": 0.09302325581393234
        },
        {
          "name": "E6",
          "midi": 88,
          "time": 164.96511627904474,
          "velocity": 0.25984251968503935,
          "duration": 0.06976744186044925
        },
        {
          "name": "F#6",
          "midi": 90,
          "time": 164.96511627904474,
          "velocity": 0.25984251968503935,
          "duration": 0.0813953488371908
        },
        {
          "name": "D7",
          "midi": 98,
          "time": 164.96511627904474,
          "velocity": 0.15748031496062992,
          "duration": 0.0813953488371908
        },
        {
          "name": "F4",
          "midi": 65,
          "time": 164.97674418602148,
          "velocity": 0.3700787401574803,
          "duration": 0.09302325581393234
        },
        {
          "name": "A#6",
          "midi": 94,
          "time": 164.98837209299822,
          "velocity": 0.14173228346456693,
          "duration": 0.034883720930224626
        },
        {
          "name": "D#3",
          "midi": 51,
          "time": 164.99999999997496,
          "velocity": 0.3937007874015748,
          "duration": 0.2558139534883139
        },
        {
          "name": "G#3",
          "midi": 56,
          "time": 164.99999999997496,
          "velocity": 0.36220472440944884,
          "duration": 0.17441860465112313
        },
        {
          "name": "D#5",
          "midi": 75,
          "time": 164.99999999997496,
          "velocity": 0.33070866141732286,
          "duration": 0.1395348837208985
        },
        {
          "name": "G5",
          "midi": 79,
          "time": 164.99999999997496,
          "velocity": 0.2125984251968504,
          "duration": 0.034883720930224626
        },
        {
          "name": "C6",
          "midi": 84,
          "time": 164.99999999997496,
          "velocity": 0.3464566929133858,
          "duration": 0.279069767441797
        },
        {
          "name": "D6",
          "midi": 86,
          "time": 164.99999999997496,
          "velocity": 0.2125984251968504,
          "duration": 0.034883720930224626
        },
        {
          "name": "A6",
          "midi": 93,
          "time": 165.02325581392844,
          "velocity": 0.49606299212598426,
          "duration": 0.24418604651157239
        },
        {
          "name": "A#5",
          "midi": 82,
          "time": 165.03488372090519,
          "velocity": 0.09448818897637795,
          "duration": 0.034883720930224626
        },
        {
          "name": "A#6",
          "midi": 94,
          "time": 165.04651162788193,
          "velocity": 0.14173228346456693,
          "duration": 0.034883720930224626
        },
        {
          "name": "G#4",
          "midi": 68,
          "time": 165.0697674418354,
          "velocity": 0.3937007874015748,
          "duration": 0.18604651162786467
        },
        {
          "name": "F#6",
          "midi": 90,
          "time": 165.0697674418354,
          "velocity": 0.23622047244094488,
          "duration": 0.0813953488371908
        },
        {
          "name": "G5",
          "midi": 79,
          "time": 165.08139534881215,
          "velocity": 0.2204724409448819,
          "duration": 0.034883720930224626
        },
        {
          "name": "D7",
          "midi": 98,
          "time": 165.08139534881215,
          "velocity": 0.14960629921259844,
          "duration": 0.05813953488370771
        },
        {
          "name": "F4",
          "midi": 65,
          "time": 165.0930232557889,
          "velocity": 0.2204724409448819,
          "duration": 0.034883720930224626
        },
        {
          "name": "A#5",
          "midi": 82,
          "time": 165.0930232557889,
          "velocity": 0.23622047244094488,
          "duration": 0.17441860465112313
        },
        {
          "name": "C#4",
          "midi": 61,
          "time": 165.10465116276563,
          "velocity": 0.3937007874015748,
          "duration": 0.48837209302314477
        },
        {
          "name": "G#5",
          "midi": 80,
          "time": 165.10465116276563,
          "velocity": 0.5039370078740157,
          "duration": 0.31395348837202164
        },
        {
          "name": "G6",
          "midi": 91,
          "time": 165.10465116276563,
          "velocity": 0.25984251968503935,
          "duration": 0.05813953488370771
        },
        {
          "name": "C#7",
          "midi": 97,
          "time": 165.11627906974238,
          "velocity": 0.08661417322834646,
          "duration": 0.04651162790696617
        },
        {
          "name": "F4",
          "midi": 65,
          "time": 165.13953488369586,
          "velocity": 0.36220472440944884,
          "duration": 0.023255813953483084
        },
        {
          "name": "D5",
          "midi": 74,
          "time": 165.13953488369586,
          "velocity": 0.33070866141732286,
          "duration": 0.034883720930224626
        },
        {
          "name": "C5",
          "midi": 72,
          "time": 165.1511627906726,
          "velocity": 0.31496062992125984,
          "duration": 0.04651162790696617
        },
        {
          "name": "C#6",
          "midi": 85,
          "time": 165.1511627906726,
          "velocity": 0.3464566929133858,
          "duration": 0.10465116279067388
        },
        {
          "name": "E4",
          "midi": 64,
          "time": 165.16279069764934,
          "velocity": 0.4015748031496063,
          "duration": 0.023255813953483084
        },
        {
          "name": "G#3",
          "midi": 56,
          "time": 165.18604651160283,
          "velocity": 0.36220472440944884,
          "duration": 0.06976744186044925
        },
        {
          "name": "F4",
          "midi": 65,
          "time": 165.18604651160283,
          "velocity": 0.4409448818897638,
          "duration": 0.0813953488371908
        },
        {
          "name": "D#5",
          "midi": 75,
          "time": 165.18604651160283,
          "velocity": 0.1968503937007874,
          "duration": 0.10465116279067388
        },
        {
          "name": "A#6",
          "midi": 94,
          "time": 165.18604651160283,
          "velocity": 0.29133858267716534,
          "duration": 0.09302325581393234
        },
        {
          "name": "G7",
          "midi": 103,
          "time": 165.2093023255563,
          "velocity": 0.18110236220472442,
          "duration": 0.11627906976741542
        },
        {
          "name": "E6",
          "midi": 88,
          "time": 165.2325581395098,
          "velocity": 0.2440944881889764,
          "duration": 0.09302325581393234
        },
        {
          "name": "F#6",
          "midi": 90,
          "time": 165.24418604648653,
          "velocity": 0.33858267716535434,
          "duration": 0.05813953488370771
        },
        {
          "name": "D7",
          "midi": 98,
          "time": 165.24418604648653,
          "velocity": 0.31496062992125984,
          "duration": 0.11627906976741542
        },
        {
          "name": "A4",
          "midi": 69,
          "time": 165.25581395346327,
          "velocity": 0.5275590551181102,
          "duration": 0.034883720930224626
        },
        {
          "name": "E7",
          "midi": 100,
          "time": 165.25581395346327,
          "velocity": 0.2440944881889764,
          "duration": 0.04651162790696617
        },
        {
          "name": "G1",
          "midi": 31,
          "time": 165.26744186044002,
          "velocity": 0.5433070866141733,
          "duration": 0.011627906976741542
        },
        {
          "name": "B5",
          "midi": 83,
          "time": 165.26744186044002,
          "velocity": 0.28346456692913385,
          "duration": 0.023255813953483084
        },
        {
          "name": "G6",
          "midi": 91,
          "time": 165.26744186044002,
          "velocity": 0.31496062992125984,
          "duration": 0.20930232558134776
        },
        {
          "name": "G#6",
          "midi": 92,
          "time": 165.26744186044002,
          "velocity": 0.5118110236220472,
          "duration": 0.023255813953483084
        },
        {
          "name": "C#7",
          "midi": 97,
          "time": 165.26744186044002,
          "velocity": 0.3228346456692913,
          "duration": 0.06976744186044925
        },
        {
          "name": "A#6",
          "midi": 94,
          "time": 165.2906976743935,
          "velocity": 0.2283464566929134,
          "duration": 0.0813953488371908
        },
        {
          "name": "F4",
          "midi": 65,
          "time": 165.30232558137024,
          "velocity": 0.13385826771653545,
          "duration": 0.05813953488370771
        },
        {
          "name": "A#5",
          "midi": 82,
          "time": 165.30232558137024,
          "velocity": 0.2283464566929134,
          "duration": 0.05813953488370771
        },
        {
          "name": "A4",
          "midi": 69,
          "time": 165.31395348834698,
          "velocity": 0.1968503937007874,
          "duration": 0.05813953488370771
        },
        {
          "name": "D6",
          "midi": 86,
          "time": 165.31395348834698,
          "velocity": 0.13385826771653545,
          "duration": 0.05813953488370771
        },
        {
          "name": "B5",
          "midi": 83,
          "time": 165.32558139532372,
          "velocity": 0.13385826771653545,
          "duration": 0.04651162790696617
        },
        {
          "name": "C6",
          "midi": 84,
          "time": 165.33720930230047,
          "velocity": 0.1732283464566929,
          "duration": 0.05813953488370771
        },
        {
          "name": "A6",
          "midi": 93,
          "time": 165.33720930230047,
          "velocity": 0.1889763779527559,
          "duration": 0.034883720930224626
        },
        {
          "name": "C#7",
          "midi": 97,
          "time": 165.36046511625395,
          "velocity": 0.2204724409448819,
          "duration": 0.0813953488371908
        },
        {
          "name": "G#4",
          "midi": 68,
          "time": 165.3720930232307,
          "velocity": 0.3858267716535433,
          "duration": 0.06976744186044925
        },
        {
          "name": "C#6",
          "midi": 85,
          "time": 165.38372093020743,
          "velocity": 0.2047244094488189,
          "duration": 0.15116279069764005
        },
        {
          "name": "D6",
          "midi": 86,
          "time": 165.38372093020743,
          "velocity": 0.11023622047244094,
          "duration": 0.034883720930224626
        },
        {
          "name": "A5",
          "midi": 81,
          "time": 165.39534883718417,
          "velocity": 0.2440944881889764,
          "duration": 0.11627906976741542
        },
        {
          "name": "G#2",
          "midi": 44,
          "time": 165.40697674416091,
          "velocity": 0.11023622047244094,
          "duration": 0.034883720930224626
        },
        {
          "name": "E6",
          "midi": 88,
          "time": 165.40697674416091,
          "velocity": 0.2125984251968504,
          "duration": 0.06976744186044925
        },
        {
          "name": "F#6",
          "midi": 90,
          "time": 165.40697674416091,
          "velocity": 0.5039370078740157,
          "duration": 0.24418604651157239
        },
        {
          "name": "G#3",
          "midi": 56,
          "time": 165.41860465113766,
          "velocity": 0.23622047244094488,
          "duration": 0.05813953488370771
        },
        {
          "name": "A#6",
          "midi": 94,
          "time": 165.41860465113766,
          "velocity": 0.1889763779527559,
          "duration": 0.17441860465112313
        },
        {
          "name": "B6",
          "midi": 95,
          "time": 165.41860465113766,
          "velocity": 0.11811023622047244,
          "duration": 0.15116279069764005
        },
        {
          "name": "D7",
          "midi": 98,
          "time": 165.41860465113766,
          "velocity": 0.1968503937007874,
          "duration": 0.10465116279067388
        },
        {
          "name": "A4",
          "midi": 69,
          "time": 165.44186046509114,
          "velocity": 0.3543307086614173,
          "duration": 0.10465116279067388
        },
        {
          "name": "G#2",
          "midi": 44,
          "time": 165.45348837206788,
          "velocity": 0.1889763779527559,
          "duration": 0.04651162790696617
        },
        {
          "name": "F4",
          "midi": 65,
          "time": 165.45348837206788,
          "velocity": 0.5669291338582677,
          "duration": 0.47674418604640323
        },
        {
          "name": "D6",
          "midi": 86,
          "time": 165.45348837206788,
          "velocity": 0.18110236220472442,
          "duration": 0.09302325581393234
        },
        {
          "name": "C#7",
          "midi": 97,
          "time": 165.46511627904462,
          "velocity": 0.5433070866141733,
          "duration": 0.4651162790696617
        },
        {
          "name": "D#6",
          "midi": 87,
          "time": 165.47674418602136,
          "velocity": 0.4251968503937008,
          "duration": 0.7441860465114587
        },
        {
          "name": "A6",
          "midi": 93,
          "time": 165.47674418602136,
          "velocity": 0.3464566929133858,
          "duration": 0.04651162790696617
        },
        {
          "name": "G#3",
          "midi": 56,
          "time": 165.4883720929981,
          "velocity": 0.33070866141732286,
          "duration": 0.034883720930224626
        },
        {
          "name": "G#5",
          "midi": 80,
          "time": 165.4883720929981,
          "velocity": 0.4251968503937008,
          "duration": 0.15116279069764005
        },
        {
          "name": "G6",
          "midi": 91,
          "time": 165.4883720929981,
          "velocity": 0.18110236220472442,
          "duration": 0.11627906976741542
        },
        {
          "name": "E7",
          "midi": 100,
          "time": 165.4883720929981,
          "velocity": 0.1889763779527559,
          "duration": 0.1395348837208985
        },
        {
          "name": "F#5",
          "midi": 78,
          "time": 165.49999999997485,
          "velocity": 0.5905511811023622,
          "duration": 0.11627906976741542
        },
        {
          "name": "B5",
          "midi": 83,
          "time": 165.49999999997485,
          "velocity": 0.2677165354330709,
          "duration": 0.04651162790696617
        },
        {
          "name": "G#6",
          "midi": 92,
          "time": 165.49999999997485,
          "velocity": 0.5511811023622047,
          "duration": 0.7558139534882002
        },
        {
          "name": "G#2",
          "midi": 44,
          "time": 165.5116279069516,
          "velocity": 0.1889763779527559,
          "duration": 0.06976744186044925
        },
        {
          "name": "D#5",
          "midi": 75,
          "time": 165.5116279069516,
          "velocity": 0.31496062992125984,
          "duration": 0.11627906976741542
        },
        {
          "name": "C6",
          "midi": 84,
          "time": 165.52325581392833,
          "velocity": 0.3543307086614173,
          "duration": 0.19767441860460622
        },
        {
          "name": "G#3",
          "midi": 56,
          "time": 165.5465116278818,
          "velocity": 0.3779527559055118,
          "duration": 0.26744186046505547
        },
        {
          "name": "A#5",
          "midi": 82,
          "time": 165.5465116278818,
          "velocity": 0.13385826771653545,
          "duration": 0.034883720930224626
        },
        {
          "name": "C#6",
          "midi": 85,
          "time": 165.5465116278818,
          "velocity": 0.4566929133858268,
          "duration": 0.10465116279067388
        },
        {
          "name": "A4",
          "midi": 69,
          "time": 165.5697674418353,
          "velocity": 0.3779527559055118,
          "duration": 0.023255813953483084
        },
        {
          "name": "A6",
          "midi": 93,
          "time": 165.58139534881204,
          "velocity": 0.1968503937007874,
          "duration": 0.06976744186044925
        },
        {
          "name": "G#4",
          "midi": 68,
          "time": 165.59302325578878,
          "velocity": 0.4881889763779528,
          "duration": 0.279069767441797
        },
        {
          "name": "B6",
          "midi": 95,
          "time": 165.59302325578878,
          "velocity": 0.14960629921259844,
          "duration": 0.15116279069764005
        },
        {
          "name": "B5",
          "midi": 83,
          "time": 165.60465116276552,
          "velocity": 0.13385826771653545,
          "duration": 0.0813953488371908
        },
        {
          "name": "D7",
          "midi": 98,
          "time": 165.60465116276552,
          "velocity": 0.2440944881889764,
          "duration": 0.0813953488371908
        },
        {
          "name": "C#4",
          "midi": 61,
          "time": 165.61627906974226,
          "velocity": 0.4645669291338583,
          "duration": 0.29069767441853855
        },
        {
          "name": "G#2",
          "midi": 44,
          "time": 165.6511627906725,
          "velocity": 0.16535433070866143,
          "duration": 0.05813953488370771
        },
        {
          "name": "A#5",
          "midi": 82,
          "time": 165.6511627906725,
          "velocity": 0.14960629921259844,
          "duration": 0.034883720930224626
        },
        {
          "name": "D#5",
          "midi": 75,
          "time": 165.66279069764923,
          "velocity": 0.28346456692913385,
          "duration": 0.1627906976743816
        },
        {
          "name": "C#6",
          "midi": 85,
          "time": 165.66279069764923,
          "velocity": 0.4645669291338583,
          "duration": 0.279069767441797
        },
        {
          "name": "E7",
          "midi": 100,
          "time": 165.66279069764923,
          "velocity": 0.14173228346456693,
          "duration": 0.11627906976741542
        },
        {
          "name": "C#5",
          "midi": 73,
          "time": 165.67441860462597,
          "velocity": 0.6299212598425197,
          "duration": 0.2209302325580893
        },
        {
          "name": "G#5",
          "midi": 80,
          "time": 165.67441860462597,
          "velocity": 0.6299212598425197,
          "duration": 1.930232558139096
        },
        {
          "name": "G6",
          "midi": 91,
          "time": 165.6860465116027,
          "velocity": 0.10236220472440945,
          "duration": 0.04651162790696617
        },
        {
          "name": "F#5",
          "midi": 78,
          "time": 165.72093023253294,
          "velocity": 0.2755905511811024,
          "duration": 0.023255813953483084
        },
        {
          "name": "B5",
          "midi": 83,
          "time": 165.72093023253294,
          "velocity": 0.2204724409448819,
          "duration": 0.0813953488371908
        },
        {
          "name": "F#6",
          "midi": 90,
          "time": 165.74418604648642,
          "velocity": 0.25196850393700787,
          "duration": 0.034883720930224626
        },
        {
          "name": "A#5",
          "midi": 82,
          "time": 165.77906976741664,
          "velocity": 0.12598425196850394,
          "duration": 0.034883720930224626
        },
        {
          "name": "F#6",
          "midi": 90,
          "time": 165.79069767439339,
          "velocity": 0.2047244094488189,
          "duration": 0.09302325581393234
        },
        {
          "name": "F#5",
          "midi": 78,
          "time": 165.80232558137013,
          "velocity": 0.2755905511811024,
          "duration": 0.034883720930224626
        },
        {
          "name": "C6",
          "midi": 84,
          "time": 165.80232558137013,
          "velocity": 0.4015748031496063,
          "duration": 0.17441860465112313
        },
        {
          "name": "A6",
          "midi": 93,
          "time": 165.81395348834687,
          "velocity": 0.2283464566929134,
          "duration": 0.0813953488371908
        },
        {
          "name": "B6",
          "midi": 95,
          "time": 165.81395348834687,
          "velocity": 0.07086614173228346,
          "duration": 0.05813953488370771
        },
        {
          "name": "E7",
          "midi": 100,
          "time": 165.81395348834687,
          "velocity": 0.08661417322834646,
          "duration": 0.06976744186044925
        },
        {
          "name": "F#7",
          "midi": 102,
          "time": 165.81395348834687,
          "velocity": 0.2204724409448819,
          "duration": 0.09302325581393234
        },
        {
          "name": "G#2",
          "midi": 44,
          "time": 165.8255813953236,
          "velocity": 0.1889763779527559,
          "duration": 0.06976744186044925
        },
        {
          "name": "G#3",
          "midi": 56,
          "time": 165.8255813953236,
          "velocity": 0.1968503937007874,
          "duration": 0.06976744186044925
        },
        {
          "name": "F#5",
          "midi": 78,
          "time": 165.8488372092771,
          "velocity": 0.2755905511811024,
          "duration": 0.04651162790696617
        },
        {
          "name": "D#5",
          "midi": 75,
          "time": 165.87209302323058,
          "velocity": 0.5590551181102362,
          "duration": 0.4186046511626955
        },
        {
          "name": "A#5",
          "midi": 82,
          "time": 165.89534883718406,
          "velocity": 0.1889763779527559,
          "duration": 0.04651162790696617
        },
        {
          "name": "D#3",
          "midi": 51,
          "time": 165.9069767441608,
          "velocity": 0.5905511811023622,
          "duration": 0.011627906976741542
        },
        {
          "name": "B4",
          "midi": 71,
          "time": 165.9069767441608,
          "velocity": 0.2204724409448819,
          "duration": 0.06976744186044925
        },
        {
          "name": "A6",
          "midi": 93,
          "time": 165.9069767441608,
          "velocity": 0.09448818897637795,
          "duration": 0.034883720930224626
        },
        {
          "name": "D#7",
          "midi": 99,
          "time": 165.9069767441608,
          "velocity": 0.4645669291338583,
          "duration": 1.348837209302019
        },
        {
          "name": "A2",
          "midi": 45,
          "time": 165.91860465113754,
          "velocity": 0.7244094488188977,
          "duration": 0.011627906976741542
        },
        {
          "name": "C#5",
          "midi": 73,
          "time": 165.91860465113754,
          "velocity": 0.2440944881889764,
          "duration": 0.06976744186044925
        },
        {
          "name": "G6",
          "midi": 91,
          "time": 165.91860465113754,
          "velocity": 0.16535433070866143,
          "duration": 0.034883720930224626
        },
        {
          "name": "F#7",
          "midi": 102,
          "time": 165.91860465113754,
          "velocity": 0.07086614173228346,
          "duration": 0.034883720930224626
        },
        {
          "name": "F#2",
          "midi": 42,
          "time": 165.93023255811428,
          "velocity": 0.7795275590551181,
          "duration": 0.011627906976741542
        },
        {
          "name": "E4",
          "midi": 64,
          "time": 165.93023255811428,
          "velocity": 0.28346456692913385,
          "duration": 0.04651162790696617
        },
        {
          "name": "A#6",
          "midi": 94,
          "time": 165.93023255811428,
          "velocity": 0.44881889763779526,
          "duration": 0.6744186046510094
        },
        {
          "name": "D2",
          "midi": 38,
          "time": 165.94186046509103,
          "velocity": 0.7795275590551181,
          "duration": 0.011627906976741542
        },
        {
          "name": "G#3",
          "midi": 56,
          "time": 165.94186046509103,
          "velocity": 0.4409448818897638,
          "duration": 0.034883720930224626
        },
        {
          "name": "E6",
          "midi": 88,
          "time": 165.94186046509103,
          "velocity": 0.14173228346456693,
          "duration": 0.05813953488370771
        },
        {
          "name": "C2",
          "midi": 36,
          "time": 165.95348837206777,
          "velocity": 0.7952755905511811,
          "duration": 0.011627906976741542
        },
        {
          "name": "A#5",
          "midi": 82,
          "time": 165.95348837206777,
          "velocity": 0.11023622047244094,
          "duration": 0.034883720930224626
        },
        {
          "name": "G7",
          "midi": 103,
          "time": 165.95348837206777,
          "velocity": 0.07874015748031496,
          "duration": 0.034883720930224626
        },
        {
          "name": "A#1",
          "midi": 34,
          "time": 165.9651162790445,
          "velocity": 0.7874015748031497,
          "duration": 0.023255813953483084
        },
        {
          "name": "D#4",
          "midi": 63,
          "time": 165.97674418602125,
          "velocity": 0.2047244094488189,
          "duration": 0.034883720930224626
        },
        {
          "name": "A1",
          "midi": 33,
          "time": 165.988372092998,
          "velocity": 0.7559055118110236,
          "duration": 0.011627906976741542
        },
        {
          "name": "G#3",
          "midi": 56,
          "time": 165.988372092998,
          "velocity": 0.4251968503937008,
          "duration": 0.05813953488370771
        },
        {
          "name": "G#4",
          "midi": 68,
          "time": 165.988372092998,
          "velocity": 0.5196850393700787,
          "duration": 0.5697674418603356
        },
        {
          "name": "G#1",
          "midi": 32,
          "time": 165.99999999997473,
          "velocity": 0.7480314960629921,
          "duration": 0.034883720930224626
        },
        {
          "name": "C4",
          "midi": 60,
          "time": 166.01162790695147,
          "velocity": 0.2125984251968504,
          "duration": 0.034883720930224626
        },
        {
          "name": "C6",
          "midi": 84,
          "time": 166.01162790695147,
          "velocity": 0.2283464566929134,
          "duration": 0.06976744186044925
        },
        {
          "name": "G7",
          "midi": 103,
          "time": 166.01162790695147,
          "velocity": 0.18110236220472442,
          "duration": 0.05813953488370771
        },
        {
          "name": "G1",
          "midi": 31,
          "time": 166.03488372090496,
          "velocity": 0.7480314960629921,
          "duration": 0.1395348837208985
        },
        {
          "name": "D#3",
          "midi": 51,
          "time": 166.03488372090496,
          "velocity": 0.3937007874015748,
          "duration": 0.06976744186044925
        },
        {
          "name": "C5",
          "midi": 72,
          "time": 166.03488372090496,
          "velocity": 0.2677165354330709,
          "duration": 0.06976744186044925
        },
        {
          "name": "F#5",
          "midi": 78,
          "time": 166.03488372090496,
          "velocity": 0.2440944881889764,
          "duration": 0.05813953488370771
        },
        {
          "name": "A#5",
          "midi": 82,
          "time": 166.05813953485844,
          "velocity": 0.18110236220472442,
          "duration": 0.12790697674415696
        },
        {
          "name": "C#6",
          "midi": 85,
          "time": 166.05813953485844,
          "velocity": 0.16535433070866143,
          "duration": 0.034883720930224626
        },
        {
          "name": "C4",
          "midi": 60,
          "time": 166.06976744183518,
          "velocity": 0.28346456692913385,
          "duration": 0.05813953488370771
        },
        {
          "name": "C#7",
          "midi": 97,
          "time": 166.06976744183518,
          "velocity": 0.36220472440944884,
          "duration": 0.5697674418603356
        },
        {
          "name": "E6",
          "midi": 88,
          "time": 166.08139534881192,
          "velocity": 0.16535433070866143,
          "duration": 0.04651162790696617
        },
        {
          "name": "G7",
          "midi": 103,
          "time": 166.08139534881192,
          "velocity": 0.2125984251968504,
          "duration": 0.06976744186044925
        },
        {
          "name": "F5",
          "midi": 77,
          "time": 166.09302325578867,
          "velocity": 0.2677165354330709,
          "duration": 0.06976744186044925
        },
        {
          "name": "D6",
          "midi": 86,
          "time": 166.09302325578867,
          "velocity": 0.13385826771653545,
          "duration": 0.06976744186044925
        },
        {
          "name": "G6",
          "midi": 91,
          "time": 166.1046511627654,
          "velocity": 0.25984251968503935,
          "duration": 0.09302325581393234
        },
        {
          "name": "D#3",
          "midi": 51,
          "time": 166.11627906974215,
          "velocity": 0.28346456692913385,
          "duration": 0.023255813953483084
        },
        {
          "name": "C5",
          "midi": 72,
          "time": 166.11627906974215,
          "velocity": 0.3937007874015748,
          "duration": 0.4186046511626955
        },
        {
          "name": "C4",
          "midi": 60,
          "time": 166.13953488369563,
          "velocity": 0.5826771653543307,
          "duration": 0.12790697674415696
        },
        {
          "name": "F#7",
          "midi": 102,
          "time": 166.13953488369563,
          "velocity": 0.2677165354330709,
          "duration": 0.279069767441797
        },
        {
          "name": "D#3",
          "midi": 51,
          "time": 166.15116279067237,
          "velocity": 0.3937007874015748,
          "duration": 0.23255813953483084
        },
        {
          "name": "F#4",
          "midi": 66,
          "time": 166.15116279067237,
          "velocity": 0.25196850393700787,
          "duration": 0.023255813953483084
        },
        {
          "name": "G5",
          "midi": 79,
          "time": 166.15116279067237,
          "velocity": 0.36220472440944884,
          "duration": 0.023255813953483084
        },
        {
          "name": "C#6",
          "midi": 85,
          "time": 166.16279069764911,
          "velocity": 0.15748031496062992,
          "duration": 0.034883720930224626
        },
        {
          "name": "G#1",
          "midi": 32,
          "time": 166.17441860462586,
          "velocity": 0.6771653543307087,
          "duration": 0.011627906976741542
        },
        {
          "name": "C7",
          "midi": 96,
          "time": 166.17441860462586,
          "velocity": 0.36220472440944884,
          "duration": 1.0116279069765142
        },
        {
          "name": "A1",
          "midi": 33,
          "time": 166.1860465116026,
          "velocity": 0.6771653543307087,
          "duration": 0.034883720930224626
        },
        {
          "name": "D7",
          "midi": 98,
          "time": 166.1860465116026,
          "velocity": 0.14173228346456693,
          "duration": 0.09302325581393234
        },
        {
          "name": "E7",
          "midi": 100,
          "time": 166.1860465116026,
          "velocity": 0.1968503937007874,
          "duration": 0.1395348837208985
        },
        {
          "name": "A6",
          "midi": 93,
          "time": 166.19767441857934,
          "velocity": 0.07086614173228346,
          "duration": 0.04651162790696617
        },
        {
          "name": "B5",
          "midi": 83,
          "time": 166.20930232555608,
          "velocity": 0.1732283464566929,
          "duration": 0.04651162790696617
        },
        {
          "name": "D6",
          "midi": 86,
          "time": 166.20930232555608,
          "velocity": 0.2440944881889764,
          "duration": 0.0813953488371908
        },
        {
          "name": "E6",
          "midi": 88,
          "time": 166.20930232555608,
          "velocity": 0.2204724409448819,
          "duration": 0.034883720930224626
        },
        {
          "name": "G#1",
          "midi": 32,
          "time": 166.22093023253282,
          "velocity": 0.7007874015748031,
          "duration": 0.34883720930224626
        },
        {
          "name": "F#4",
          "midi": 66,
          "time": 166.22093023253282,
          "velocity": 0.23622047244094488,
          "duration": 0.023255813953483084
        },
        {
          "name": "F5",
          "midi": 77,
          "time": 166.23255813950956,
          "velocity": 0.11811023622047244,
          "duration": 0.034883720930224626
        },
        {
          "name": "A#5",
          "midi": 82,
          "time": 166.23255813950956,
          "velocity": 0.28346456692913385,
          "duration": 0.05813953488370771
        },
        {
          "name": "F#6",
          "midi": 90,
          "time": 166.23255813950956,
          "velocity": 0.25196850393700787,
          "duration": 0.09302325581393234
        },
        {
          "name": "D#4",
          "midi": 63,
          "time": 166.2441860464863,
          "velocity": 0.4330708661417323,
          "duration": 0.04651162790696617
        },
        {
          "name": "C#5",
          "midi": 73,
          "time": 166.2441860464863,
          "velocity": 0.2283464566929134,
          "duration": 0.023255813953483084
        },
        {
          "name": "E6",
          "midi": 88,
          "time": 166.25581395346305,
          "velocity": 0.13385826771653545,
          "duration": 0.04651162790696617
        },
        {
          "name": "G6",
          "midi": 91,
          "time": 166.25581395346305,
          "velocity": 0.30708661417322836,
          "duration": 0.279069767441797
        },
        {
          "name": "F#5",
          "midi": 78,
          "time": 166.2674418604398,
          "velocity": 0.36220472440944884,
          "duration": 0.26744186046505547
        },
        {
          "name": "C4",
          "midi": 60,
          "time": 166.27906976741653,
          "velocity": 0.28346456692913385,
          "duration": 0.04651162790696617
        },
        {
          "name": "B5",
          "midi": 83,
          "time": 166.27906976741653,
          "velocity": 0.14173228346456693,
          "duration": 0.034883720930224626
        },
        {
          "name": "D5",
          "midi": 74,
          "time": 166.29069767439327,
          "velocity": 0.2440944881889764,
          "duration": 0.023255813953483084
        },
        {
          "name": "D#5",
          "midi": 75,
          "time": 166.31395348834675,
          "velocity": 0.4330708661417323,
          "duration": 0.2558139534883139
        },
        {
          "name": "C4",
          "midi": 60,
          "time": 166.33720930230024,
          "velocity": 0.3858267716535433,
          "duration": 0.23255813953483084
        },
        {
          "name": "A6",
          "midi": 93,
          "time": 166.33720930230024,
          "velocity": 0.08661417322834646,
          "duration": 0.034883720930224626
        },
        {
          "name": "A#5",
          "midi": 82,
          "time": 166.37209302323046,
          "velocity": 0.1968503937007874,
          "duration": 0.1627906976743816
        },
        {
          "name": "E7",
          "midi": 100,
          "time": 166.3837209302072,
          "velocity": 0.1968503937007874,
          "duration": 0.11627906976741542
        },
        {
          "name": "D#3",
          "midi": 51,
          "time": 166.39534883718395,
          "velocity": 0.4015748031496063,
          "duration": 0.17441860465112313
        },
        {
          "name": "G5",
          "midi": 79,
          "time": 166.4069767441607,
          "velocity": 0.25984251968503935,
          "duration": 0.023255813953483084
        },
        {
          "name": "B6",
          "midi": 95,
          "time": 166.4069767441607,
          "velocity": 0.11023622047244094,
          "duration": 0.05813953488370771
        },
        {
          "name": "E6",
          "midi": 88,
          "time": 166.41860465113743,
          "velocity": 0.25196850393700787,
          "duration": 0.20930232558134776
        },
        {
          "name": "D7",
          "midi": 98,
          "time": 166.41860465113743,
          "velocity": 0.3464566929133858,
          "duration": 0.31395348837202164
        },
        {
          "name": "C#6",
          "midi": 85,
          "time": 166.47674418602114,
          "velocity": 0.14173228346456693,
          "duration": 0.034883720930224626
        },
        {
          "name": "F#4",
          "midi": 66,
          "time": 166.5232558139281,
          "velocity": 0.16535433070866143,
          "duration": 0.034883720930224626
        },
        {
          "name": "F#6",
          "midi": 90,
          "time": 166.53488372090484,
          "velocity": 0.2677165354330709,
          "duration": 0.10465116279067388
        },
        {
          "name": "F#7",
          "midi": 102,
          "time": 166.53488372090484,
          "velocity": 0.33070866141732286,
          "duration": 0.34883720930224626
        },
        {
          "name": "A#5",
          "midi": 82,
          "time": 166.54651162788159,
          "velocity": 0.23622047244094488,
          "duration": 0.023255813953483084
        },
        {
          "name": "G6",
          "midi": 91,
          "time": 166.54651162788159,
          "velocity": 0.3464566929133858,
          "duration": 0.06976744186044925
        },
        {
          "name": "C#6",
          "midi": 85,
          "time": 166.55813953485833,
          "velocity": 0.23622047244094488,
          "duration": 0.06976744186044925
        },
        {
          "name": "B6",
          "midi": 95,
          "time": 166.55813953485833,
          "velocity": 0.1968503937007874,
          "duration": 0.10465116279067388
        },
        {
          "name": "G1",
          "midi": 31,
          "time": 166.56976744183507,
          "velocity": 0.5905511811023622,
          "duration": 0.023255813953483084
        },
        {
          "name": "C#4",
          "midi": 61,
          "time": 166.56976744183507,
          "velocity": 0.2440944881889764,
          "duration": 0.023255813953483084
        },
        {
          "name": "A4",
          "midi": 69,
          "time": 166.56976744183507,
          "velocity": 0.5433070866141733,
          "duration": 0.011627906976741542
        },
        {
          "name": "F5",
          "midi": 77,
          "time": 166.56976744183507,
          "velocity": 0.30708661417322836,
          "duration": 0.04651162790696617
        },
        {
          "name": "F#5",
          "midi": 78,
          "time": 166.56976744183507,
          "velocity": 0.33070866141732286,
          "duration": 0.034883720930224626
        },
        {
          "name": "B5",
          "midi": 83,
          "time": 166.56976744183507,
          "velocity": 0.33070866141732286,
          "duration": 0.05813953488370771
        },
        {
          "name": "E4",
          "midi": 64,
          "time": 166.5813953488118,
          "velocity": 0.28346456692913385,
          "duration": 0.023255813953483084
        },
        {
          "name": "G#4",
          "midi": 68,
          "time": 166.5813953488118,
          "velocity": 0.5669291338582677,
          "duration": 0.04651162790696617
        },
        {
          "name": "A5",
          "midi": 81,
          "time": 166.5813953488118,
          "velocity": 0.33070866141732286,
          "duration": 0.023255813953483084
        },
        {
          "name": "D6",
          "midi": 86,
          "time": 166.5813953488118,
          "velocity": 0.2204724409448819,
          "duration": 0.034883720930224626
        },
        {
          "name": "A6",
          "midi": 93,
          "time": 166.5813953488118,
          "velocity": 0.33070866141732286,
          "duration": 0.18604651162786467
        },
        {
          "name": "C4",
          "midi": 60,
          "time": 166.59302325578855,
          "velocity": 0.07086614173228346,
          "duration": 0.034883720930224626
        },
        {
          "name": "D#4",
          "midi": 63,
          "time": 166.6046511627653,
          "velocity": 0.1889763779527559,
          "duration": 0.1627906976743816
        },
        {
          "name": "D#5",
          "midi": 75,
          "time": 166.61627906974203,
          "velocity": 0.33858267716535434,
          "duration": 0.3255813953487632
        },
        {
          "name": "C6",
          "midi": 84,
          "time": 166.61627906974203,
          "velocity": 0.11811023622047244,
          "duration": 0.05813953488370771
        },
        {
          "name": "A#6",
          "midi": 94,
          "time": 166.61627906974203,
          "velocity": 0.10236220472440945,
          "duration": 0.034883720930224626
        },
        {
          "name": "G7",
          "midi": 103,
          "time": 166.62790697671878,
          "velocity": 0.09448818897637795,
          "duration": 0.05813953488370771
        },
        {
          "name": "G#4",
          "midi": 68,
          "time": 166.63953488369552,
          "velocity": 0.5826771653543307,
          "duration": 0.2558139534883139
        },
        {
          "name": "C#5",
          "midi": 73,
          "time": 166.63953488369552,
          "velocity": 0.07874015748031496,
          "duration": 0.034883720930224626
        },
        {
          "name": "C#6",
          "midi": 85,
          "time": 166.63953488369552,
          "velocity": 0.14960629921259844,
          "duration": 0.09302325581393234
        },
        {
          "name": "D6",
          "midi": 86,
          "time": 166.63953488369552,
          "velocity": 0.14173228346456693,
          "duration": 0.034883720930224626
        },
        {
          "name": "F6",
          "midi": 89,
          "time": 166.63953488369552,
          "velocity": 0.25984251968503935,
          "duration": 0.6046511627905602
        },
        {
          "name": "D#6",
          "midi": 87,
          "time": 166.662790697649,
          "velocity": 0.4330708661417323,
          "duration": 0.6627906976742679
        },
        {
          "name": "F#6",
          "midi": 90,
          "time": 166.662790697649,
          "velocity": 0.18110236220472442,
          "duration": 0.1395348837208985
        },
        {
          "name": "C#7",
          "midi": 97,
          "time": 166.68604651160248,
          "velocity": 0.1889763779527559,
          "duration": 0.24418604651157239
        },
        {
          "name": "C4",
          "midi": 60,
          "time": 166.69767441857923,
          "velocity": 0.10236220472440945,
          "duration": 0.034883720930224626
        },
        {
          "name": "A#6",
          "midi": 94,
          "time": 166.69767441857923,
          "velocity": 0.15748031496062992,
          "duration": 0.1395348837208985
        },
        {
          "name": "G6",
          "midi": 91,
          "time": 166.73255813950945,
          "velocity": 0.2204724409448819,
          "duration": 0.12790697674415696
        },
        {
          "name": "G#3",
          "midi": 56,
          "time": 166.7441860464862,
          "velocity": 0.23622047244094488,
          "duration": 0.15116279069764005
        },
        {
          "name": "C6",
          "midi": 84,
          "time": 166.7441860464862,
          "velocity": 0.15748031496062992,
          "duration": 0.05813953488370771
        },
        {
          "name": "A5",
          "midi": 81,
          "time": 166.76744186043967,
          "velocity": 0.3228346456692913,
          "duration": 0.023255813953483084
        },
        {
          "name": "G#2",
          "midi": 44,
          "time": 166.77906976741642,
          "velocity": 0.1732283464566929,
          "duration": 0.12790697674415696
        },
        {
          "name": "D#4",
          "midi": 63,
          "time": 166.79069767439316,
          "velocity": 0.48031496062992124,
          "duration": 0.09302325581393234
        },
        {
          "name": "C5",
          "midi": 72,
          "time": 166.79069767439316,
          "velocity": 0.16535433070866143,
          "duration": 0.0813953488371908
        },
        {
          "name": "A#5",
          "midi": 82,
          "time": 166.79069767439316,
          "velocity": 0.31496062992125984,
          "duration": 0.20930232558134776
        },
        {
          "name": "C6",
          "midi": 84,
          "time": 166.82558139532338,
          "velocity": 0.31496062992125984,
          "duration": 0.34883720930224626
        },
        {
          "name": "D7",
          "midi": 98,
          "time": 166.84883720927687,
          "velocity": 0.12598425196850394,
          "duration": 0.034883720930224626
        },
        {
          "name": "C#5",
          "midi": 73,
          "time": 166.87209302323035,
          "velocity": 0.25196850393700787,
          "duration": 0.034883720930224626
        },
        {
          "name": "G6",
          "midi": 91,
          "time": 166.8837209302071,
          "velocity": 0.1968503937007874,
          "duration": 0.06976744186044925
        },
        {
          "name": "C4",
          "midi": 60,
          "time": 166.89534883718383,
          "velocity": 0.5196850393700787,
          "duration": 0.09302325581393234
        },
        {
          "name": "D#4",
          "midi": 63,
          "time": 166.90697674416057,
          "velocity": 0.4881889763779528,
          "duration": 0.1395348837208985
        },
        {
          "name": "G#4",
          "midi": 68,
          "time": 166.90697674416057,
          "velocity": 0.5039370078740157,
          "duration": 0.3255813953487632
        },
        {
          "name": "F#7",
          "midi": 102,
          "time": 166.90697674416057,
          "velocity": 0.29133858267716534,
          "duration": 0.12790697674415696
        },
        {
          "name": "G#2",
          "midi": 44,
          "time": 166.91860465113731,
          "velocity": 0.2204724409448819,
          "duration": 0.18604651162786467
        },
        {
          "name": "E7",
          "midi": 100,
          "time": 166.93023255811406,
          "velocity": 0.13385826771653545,
          "duration": 0.034883720930224626
        },
        {
          "name": "E6",
          "midi": 88,
          "time": 166.9418604650908,
          "velocity": 0.1732283464566929,
          "duration": 0.0813953488371908
        },
        {
          "name": "F#5",
          "midi": 78,
          "time": 166.97674418602102,
          "velocity": 0.18110236220472442,
          "duration": 0.09302325581393234
        },
        {
          "name": "B3",
          "midi": 59,
          "time": 166.98837209299776,
          "velocity": 0.28346456692913385,
          "duration": 0.034883720930224626
        },
        {
          "name": "G6",
          "midi": 91,
          "time": 167.01162790695125,
          "velocity": 0.11023622047244094,
          "duration": 0.04651162790696617
        },
        {
          "name": "C4",
          "midi": 60,
          "time": 167.023255813928,
          "velocity": 0.33070866141732286,
          "duration": 0.06976744186044925
        },
        {
          "name": "A#5",
          "midi": 82,
          "time": 167.023255813928,
          "velocity": 0.16535433070866143,
          "duration": 0.05813953488370771
        },
        {
          "name": "A#6",
          "midi": 94,
          "time": 167.023255813928,
          "velocity": 0.2283464566929134,
          "duration": 0.17441860465112313
        },
        {
          "name": "C#6",
          "midi": 85,
          "time": 167.03488372090473,
          "velocity": 0.08661417322834646,
          "duration": 0.034883720930224626
        },
        {
          "name": "E7",
          "midi": 100,
          "time": 167.04651162788147,
          "velocity": 0.11023622047244094,
          "duration": 0.06976744186044925
        },
        {
          "name": "G#3",
          "midi": 56,
          "time": 167.0581395348582,
          "velocity": 0.5196850393700787,
          "duration": 0.1627906976743816
        },
        {
          "name": "G7",
          "midi": 103,
          "time": 167.06976744183495,
          "velocity": 0.11811023622047244,
          "duration": 0.034883720930224626
        },
        {
          "name": "D#4",
          "midi": 63,
          "time": 167.0813953488117,
          "velocity": 0.25984251968503935,
          "duration": 0.04651162790696617
        },
        {
          "name": "G#2",
          "midi": 44,
          "time": 167.11627906974192,
          "velocity": 0.31496062992125984,
          "duration": 0.10465116279067388
        },
        {
          "name": "F#7",
          "midi": 102,
          "time": 167.11627906974192,
          "velocity": 0.08661417322834646,
          "duration": 0.034883720930224626
        },
        {
          "name": "C#7",
          "midi": 97,
          "time": 167.15116279067215,
          "velocity": 0.12598425196850394,
          "duration": 0.04651162790696617
        },
        {
          "name": "D#4",
          "midi": 63,
          "time": 167.1627906976489,
          "velocity": 0.2677165354330709,
          "duration": 0.04651162790696617
        },
        {
          "name": "F#7",
          "midi": 102,
          "time": 167.18604651160237,
          "velocity": 0.14960629921259844,
          "duration": 0.0813953488371908
        },
        {
          "name": "G7",
          "midi": 103,
          "time": 167.1976744185791,
          "velocity": 0.14960629921259844,
          "duration": 0.034883720930224626
        },
        {
          "name": "A#5",
          "midi": 82,
          "time": 167.20930232555585,
          "velocity": 0.2204724409448819,
          "duration": 0.05813953488370771
        },
        {
          "name": "C#6",
          "midi": 85,
          "time": 167.20930232555585,
          "velocity": 0.14173228346456693,
          "duration": 0.05813953488370771
        },
        {
          "name": "F5",
          "midi": 77,
          "time": 167.2209302325326,
          "velocity": 0.1968503937007874,
          "duration": 0.04651162790696617
        },
        {
          "name": "F#6",
          "midi": 90,
          "time": 167.2209302325326,
          "velocity": 0.14960629921259844,
          "duration": 0.034883720930224626
        },
        {
          "name": "E7",
          "midi": 100,
          "time": 167.2209302325326,
          "velocity": 0.07086614173228346,
          "duration": 0.04651162790696617
        },
        {
          "name": "G3",
          "midi": 55,
          "time": 167.23255813950934,
          "velocity": 0.3779527559055118,
          "duration": 0.023255813953483084
        },
        {
          "name": "B5",
          "midi": 83,
          "time": 167.23255813950934,
          "velocity": 0.1889763779527559,
          "duration": 0.05813953488370771
        },
        {
          "name": "C#3",
          "midi": 49,
          "time": 167.24418604648608,
          "velocity": 0.3937007874015748,
          "duration": 0.023255813953483084
        },
        {
          "name": "D#4",
          "midi": 63,
          "time": 167.24418604648608,
          "velocity": 0.25984251968503935,
          "duration": 0.11627906976741542
        },
        {
          "name": "G#4",
          "midi": 68,
          "time": 167.24418604648608,
          "velocity": 0.6299212598425197,
          "duration": 0.5813953488370771
        },
        {
          "name": "C7",
          "midi": 96,
          "time": 167.24418604648608,
          "velocity": 0.14173228346456693,
          "duration": 0.034883720930224626
        },
        {
          "name": "G#3",
          "midi": 56,
          "time": 167.25581395346282,
          "velocity": 0.2047244094488189,
          "duration": 0.034883720930224626
        },
        {
          "name": "C4",
          "midi": 60,
          "time": 167.25581395346282,
          "velocity": 0.1732283464566929,
          "duration": 0.0813953488371908
        },
        {
          "name": "G#3",
          "midi": 56,
          "time": 167.31395348834653,
          "velocity": 0.41732283464566927,
          "duration": 0.5116279069766279
        },
        {
          "name": "A#5",
          "midi": 82,
          "time": 167.31395348834653,
          "velocity": 0.11811023622047244,
          "duration": 0.06976744186044925
        },
        {
          "name": "B1",
          "midi": 35,
          "time": 167.3372093023,
          "velocity": 0.47244094488188976,
          "duration": 0.023255813953483084
        },
        {
          "name": "F5",
          "midi": 77,
          "time": 167.34883720927675,
          "velocity": 0.07874015748031496,
          "duration": 0.06976744186044925
        },
        {
          "name": "C#6",
          "midi": 85,
          "time": 167.34883720927675,
          "velocity": 0.13385826771653545,
          "duration": 0.05813953488370771
        },
        {
          "name": "A#1",
          "midi": 34,
          "time": 167.3604651162535,
          "velocity": 0.4566929133858268,
          "duration": 0.023255813953483084
        },
        {
          "name": "D#7",
          "midi": 99,
          "time": 167.3604651162535,
          "velocity": 0.2047244094488189,
          "duration": 0.23255813953483084
        },
        {
          "name": "G#1",
          "midi": 32,
          "time": 167.38372093020698,
          "velocity": 0.44881889763779526,
          "duration": 0.034883720930224626
        },
        {
          "name": "D#4",
          "midi": 63,
          "time": 167.39534883718372,
          "velocity": 0.3858267716535433,
          "duration": 0.11627906976741542
        },
        {
          "name": "A#5",
          "midi": 82,
          "time": 167.40697674416046,
          "velocity": 0.1889763779527559,
          "duration": 0.04651162790696617
        },
        {
          "name": "G1",
          "midi": 31,
          "time": 167.4186046511372,
          "velocity": 0.4566929133858268,
          "duration": 0.034883720930224626
        },
        {
          "name": "B5",
          "midi": 83,
          "time": 167.43023255811394,
          "velocity": 0.2440944881889764,
          "duration": 0.023255813953483084
        },
        {
          "name": "C#6",
          "midi": 85,
          "time": 167.43023255811394,
          "velocity": 0.14960629921259844,
          "duration": 0.1395348837208985
        },
        {
          "name": "D6",
          "midi": 86,
          "time": 167.43023255811394,
          "velocity": 0.13385826771653545,
          "duration": 0.04651162790696617
        },
        {
          "name": "F#6",
          "midi": 90,
          "time": 167.43023255811394,
          "velocity": 0.14173228346456693,
          "duration": 0.034883720930224626
        },
        {
          "name": "D#4",
          "midi": 63,
          "time": 167.52325581392788,
          "velocity": 0.30708661417322836,
          "duration": 0.2558139534883139
        },
        {
          "name": "F6",
          "midi": 89,
          "time": 167.52325581392788,
          "velocity": 0.11023622047244094,
          "duration": 0.034883720930224626
        },
        {
          "name": "F#5",
          "midi": 78,
          "time": 167.5581395348581,
          "velocity": 0.1968503937007874,
          "duration": 0.034883720930224626
        },
        {
          "name": "A#5",
          "midi": 82,
          "time": 167.5581395348581,
          "velocity": 0.18110236220472442,
          "duration": 0.0813953488371908
        },
        {
          "name": "B5",
          "midi": 83,
          "time": 167.5581395348581,
          "velocity": 0.14960629921259844,
          "duration": 0.04651162790696617
        },
        {
          "name": "F6",
          "midi": 89,
          "time": 167.58139534881158,
          "velocity": 0.16535433070866143,
          "duration": 0.04651162790696617
        },
        {
          "name": "F5",
          "midi": 77,
          "time": 167.59302325578832,
          "velocity": 0.2992125984251969,
          "duration": 0.12790697674415696
        },
        {
          "name": "F2",
          "midi": 41,
          "time": 167.65116279067203,
          "velocity": 0.1889763779527559,
          "duration": 0.034883720930224626
        },
        {
          "name": "F#5",
          "midi": 78,
          "time": 167.65116279067203,
          "velocity": 0.2125984251968504,
          "duration": 0.034883720930224626
        },
        {
          "name": "D6",
          "midi": 86,
          "time": 167.67441860462552,
          "velocity": 0.11811023622047244,
          "duration": 0.034883720930224626
        },
        {
          "name": "C#7",
          "midi": 97,
          "time": 167.67441860462552,
          "velocity": 0.12598425196850394,
          "duration": 0.09302325581393234
        },
        {
          "name": "C#6",
          "midi": 85,
          "time": 167.68604651160226,
          "velocity": 0.10236220472440945,
          "duration": 0.04651162790696617
        },
        {
          "name": "G6",
          "midi": 91,
          "time": 167.68604651160226,
          "velocity": 0.07874015748031496,
          "duration": 0.04651162790696617
        },
        {
          "name": "C3",
          "midi": 48,
          "time": 167.70930232555574,
          "velocity": 0.29133858267716534,
          "duration": 0.023255813953483084
        },
        {
          "name": "A#5",
          "midi": 82,
          "time": 167.70930232555574,
          "velocity": 0.2755905511811024,
          "duration": 0.06976744186044925
        },
        {
          "name": "B2",
          "midi": 47,
          "time": 167.73255813950922,
          "velocity": 0.2283464566929134,
          "duration": 0.023255813953483084
        },
        {
          "name": "B5",
          "midi": 83,
          "time": 167.74418604648596,
          "velocity": 0.28346456692913385,
          "duration": 0.034883720930224626
        },
        {
          "name": "G#2",
          "midi": 44,
          "time": 167.79069767439293,
          "velocity": 0.3464566929133858,
          "duration": 0.05813953488370771
        },
        {
          "name": "D#4",
          "midi": 63,
          "time": 167.79069767439293,
          "velocity": 0.2283464566929134,
          "duration": 0.06976744186044925
        },
        {
          "name": "A3",
          "midi": 57,
          "time": 167.82558139532316,
          "velocity": 0.23622047244094488,
          "duration": 0.023255813953483084
        },
        {
          "name": "F#5",
          "midi": 78,
          "time": 167.82558139532316,
          "velocity": 0.07874015748031496,
          "duration": 0.034883720930224626
        },
        {
          "name": "G#4",
          "midi": 68,
          "time": 167.8372093022999,
          "velocity": 0.6456692913385826,
          "duration": 0.37209302325572935
        },
        {
          "name": "B5",
          "midi": 83,
          "time": 167.8372093022999,
          "velocity": 0.28346456692913385,
          "duration": 0.06976744186044925
        },
        {
          "name": "G#3",
          "midi": 56,
          "time": 167.84883720927664,
          "velocity": 0.41732283464566927,
          "duration": 0.45348837209292014
        },
        {
          "name": "F6",
          "midi": 89,
          "time": 167.86046511625338,
          "velocity": 0.16535433070866143,
          "duration": 0.04651162790696617
        },
        {
          "name": "G#2",
          "midi": 44,
          "time": 167.87209302323012,
          "velocity": 0.3858267716535433,
          "duration": 0.023255813953483084
        },
        {
          "name": "D#4",
          "midi": 63,
          "time": 167.87209302323012,
          "velocity": 0.1732283464566929,
          "duration": 0.034883720930224626
        },
        {
          "name": "A6",
          "midi": 93,
          "time": 167.87209302323012,
          "velocity": 0.13385826771653545,
          "duration": 0.034883720930224626
        },
        {
          "name": "E5",
          "midi": 76,
          "time": 167.88372093020686,
          "velocity": 0.1968503937007874,
          "duration": 0.034883720930224626
        },
        {
          "name": "C#6",
          "midi": 85,
          "time": 167.88372093020686,
          "velocity": 0.13385826771653545,
          "duration": 0.04651162790696617
        },
        {
          "name": "A2",
          "midi": 45,
          "time": 167.8953488371836,
          "velocity": 0.3858267716535433,
          "duration": 0.023255813953483084
        },
        {
          "name": "D#5",
          "midi": 75,
          "time": 167.8953488371836,
          "velocity": 0.2755905511811024,
          "duration": 0.10465116279067388
        },
        {
          "name": "A#5",
          "midi": 82,
          "time": 167.90697674416035,
          "velocity": 0.25984251968503935,
          "duration": 0.034883720930224626
        },
        {
          "name": "G#2",
          "midi": 44,
          "time": 167.9186046511371,
          "velocity": 0.2992125984251969,
          "duration": 0.023255813953483084
        },
        {
          "name": "D#4",
          "midi": 63,
          "time": 167.93023255811383,
          "velocity": 0.2992125984251969,
          "duration": 0.15116279069764005
        },
        {
          "name": "F#6",
          "midi": 90,
          "time": 167.93023255811383,
          "velocity": 0.07874015748031496,
          "duration": 0.034883720930224626
        },
        {
          "name": "A#5",
          "midi": 82,
          "time": 167.9534883720673,
          "velocity": 0.18110236220472442,
          "duration": 0.04651162790696617
        },
        {
          "name": "F5",
          "midi": 77,
          "time": 167.96511627904405,
          "velocity": 0.14173228346456693,
          "duration": 0.05813953488370771
        },
        {
          "name": "F2",
          "midi": 41,
          "time": 167.9767441860208,
          "velocity": 0.25196850393700787,
          "duration": 0.023255813953483084
        },
        {
          "name": "E6",
          "midi": 88,
          "time": 167.9767441860208,
          "velocity": 0.07874015748031496,
          "duration": 0.034883720930224626
        },
        {
          "name": "G6",
          "midi": 91,
          "time": 167.98837209299754,
          "velocity": 0.10236220472440945,
          "duration": 0.0813953488371908
        },
        {
          "name": "D6",
          "midi": 86,
          "time": 167.99999999997428,
          "velocity": 0.11023622047244094,
          "duration": 0.034883720930224626
        },
        {
          "name": "D#6",
          "midi": 87,
          "time": 168.02325581392776,
          "velocity": 0.1732283464566929,
          "duration": 0.05813953488370771
        },
        {
          "name": "G#2",
          "midi": 44,
          "time": 168.06976744183473,
          "velocity": 0.31496062992125984,
          "duration": 0.023255813953483084
        },
        {
          "name": "B5",
          "midi": 83,
          "time": 168.08139534881147,
          "velocity": 0.2440944881889764,
          "duration": 0.023255813953483084
        },
        {
          "name": "F6",
          "midi": 89,
          "time": 168.08139534881147,
          "velocity": 0.08661417322834646,
          "duration": 0.034883720930224626
        },
        {
          "name": "A2",
          "midi": 45,
          "time": 168.0930232557882,
          "velocity": 0.33070866141732286,
          "duration": 0.034883720930224626
        },
        {
          "name": "F5",
          "midi": 77,
          "time": 168.10465116276495,
          "velocity": 0.4015748031496063,
          "duration": 0.10465116279067388
        },
        {
          "name": "D6",
          "midi": 86,
          "time": 168.10465116276495,
          "velocity": 0.1968503937007874,
          "duration": 0.0813953488371908
        },
        {
          "name": "D#5",
          "midi": 75,
          "time": 168.1162790697417,
          "velocity": 0.5196850393700787,
          "duration": 0.45348837209292014
        },
        {
          "name": "F4",
          "midi": 65,
          "time": 168.12790697671844,
          "velocity": 0.5118110236220472,
          "duration": 0.11627906976741542
        },
        {
          "name": "G2",
          "midi": 43,
          "time": 168.15116279067192,
          "velocity": 0.30708661417322836,
          "duration": 0.023255813953483084
        },
        {
          "name": "F#6",
          "midi": 90,
          "time": 168.15116279067192,
          "velocity": 0.15748031496062992,
          "duration": 0.11627906976741542
        },
        {
          "name": "E6",
          "midi": 88,
          "time": 168.16279069764866,
          "velocity": 0.09448818897637795,
          "duration": 0.034883720930224626
        },
        {
          "name": "G6",
          "midi": 91,
          "time": 168.1744186046254,
          "velocity": 0.16535433070866143,
          "duration": 0.09302325581393234
        },
        {
          "name": "G#2",
          "midi": 44,
          "time": 168.18604651160214,
          "velocity": 0.4015748031496063,
          "duration": 0.034883720930224626
        },
        {
          "name": "A5",
          "midi": 81,
          "time": 168.19767441857888,
          "velocity": 0.2440944881889764,
          "duration": 0.023255813953483084
        },
        {
          "name": "D4",
          "midi": 62,
          "time": 168.22093023253237,
          "velocity": 0.41732283464566927,
          "duration": 0.023255813953483084
        },
        {
          "name": "G#4",
          "midi": 68,
          "time": 168.22093023253237,
          "velocity": 0.4409448818897638,
          "duration": 0.1395348837208985
        },
        {
          "name": "A#5",
          "midi": 82,
          "time": 168.22093023253237,
          "velocity": 0.25984251968503935,
          "duration": 0.20930232558134776
        },
        {
          "name": "G#2",
          "midi": 44,
          "time": 168.2325581395091,
          "velocity": 0.4015748031496063,
          "duration": 0.034883720930224626
        },
        {
          "name": "B5",
          "midi": 83,
          "time": 168.2325581395091,
          "velocity": 0.1968503937007874,
          "duration": 0.034883720930224626
        },
        {
          "name": "E4",
          "midi": 64,
          "time": 168.24418604648585,
          "velocity": 0.5669291338582677,
          "duration": 0.011627906976741542
        },
        {
          "name": "D#4",
          "midi": 63,
          "time": 168.2558139534626,
          "velocity": 0.6929133858267716,
          "duration": 0.3255813953487632
        },
        {
          "name": "F#2",
          "midi": 42,
          "time": 168.27906976741608,
          "velocity": 0.3464566929133858,
          "duration": 0.023255813953483084
        },
        {
          "name": "C#6",
          "midi": 85,
          "time": 168.27906976741608,
          "velocity": 0.16535433070866143,
          "duration": 0.05813953488370771
        },
        {
          "name": "A6",
          "midi": 93,
          "time": 168.29069767439282,
          "velocity": 0.13385826771653545,
          "duration": 0.034883720930224626
        },
        {
          "name": "D6",
          "midi": 86,
          "time": 168.3139534883463,
          "velocity": 0.2204724409448819,
          "duration": 0.04651162790696617
        },
        {
          "name": "E6",
          "midi": 88,
          "time": 168.3139534883463,
          "velocity": 0.08661417322834646,
          "duration": 0.034883720930224626
        },
        {
          "name": "G#2",
          "midi": 44,
          "time": 168.32558139532304,
          "velocity": 0.33070866141732286,
          "duration": 0.034883720930224626
        },
        {
          "name": "F#6",
          "midi": 90,
          "time": 168.32558139532304,
          "velocity": 0.10236220472440945,
          "duration": 0.11627906976741542
        },
        {
          "name": "C5",
          "midi": 72,
          "time": 168.34883720927652,
          "velocity": 0.2047244094488189,
          "duration": 0.04651162790696617
        },
        {
          "name": "F5",
          "midi": 77,
          "time": 168.34883720927652,
          "velocity": 0.1732283464566929,
          "duration": 0.05813953488370771
        },
        {
          "name": "B5",
          "midi": 83,
          "time": 168.34883720927652,
          "velocity": 0.1732283464566929,
          "duration": 0.04651162790696617
        },
        {
          "name": "C#6",
          "midi": 85,
          "time": 168.34883720927652,
          "velocity": 0.15748031496062992,
          "duration": 0.034883720930224626
        },
        {
          "name": "G#4",
          "midi": 68,
          "time": 168.37209302323,
          "velocity": 0.3700787401574803,
          "duration": 0.1627906976743816
        },
        {
          "name": "G#3",
          "midi": 56,
          "time": 168.38372093020675,
          "velocity": 0.3543307086614173,
          "duration": 0.1395348837208985
        },
        {
          "name": "G#2",
          "midi": 44,
          "time": 168.3953488371835,
          "velocity": 0.33070866141732286,
          "duration": 0.023255813953483084
        },
        {
          "name": "C#6",
          "midi": 85,
          "time": 168.3953488371835,
          "velocity": 0.1968503937007874,
          "duration": 0.11627906976741542
        },
        {
          "name": "C6",
          "midi": 84,
          "time": 168.40697674416023,
          "velocity": 0.4330708661417323,
          "duration": 0.1395348837208985
        },
        {
          "name": "G2",
          "midi": 43,
          "time": 168.41860465113697,
          "velocity": 0.2677165354330709,
          "duration": 0.023255813953483084
        },
        {
          "name": "F5",
          "midi": 77,
          "time": 168.43023255811372,
          "velocity": 0.2283464566929134,
          "duration": 0.10465116279067388
        },
        {
          "name": "A5",
          "midi": 81,
          "time": 168.43023255811372,
          "velocity": 0.23622047244094488,
          "duration": 0.023255813953483084
        },
        {
          "name": "D6",
          "midi": 86,
          "time": 168.43023255811372,
          "velocity": 0.2204724409448819,
          "duration": 0.034883720930224626
        },
        {
          "name": "C5",
          "midi": 72,
          "time": 168.44186046509046,
          "velocity": 0.3464566929133858,
          "duration": 0.0813953488371908
        },
        {
          "name": "G6",
          "midi": 91,
          "time": 168.46511627904394,
          "velocity": 0.12598425196850394,
          "duration": 0.11627906976741542
        },
        {
          "name": "A#5",
          "midi": 82,
          "time": 168.47674418602068,
          "velocity": 0.15748031496062992,
          "duration": 0.034883720930224626
        },
        {
          "name": "B4",
          "midi": 71,
          "time": 168.52325581392765,
          "velocity": 0.29133858267716534,
          "duration": 0.023255813953483084
        },
        {
          "name": "C#5",
          "midi": 73,
          "time": 168.52325581392765,
          "velocity": 0.36220472440944884,
          "duration": 0.37209302325572935
        },
        {
          "name": "F#5",
          "midi": 78,
          "time": 168.5348837209044,
          "velocity": 0.2047244094488189,
          "duration": 0.034883720930224626
        },
        {
          "name": "A#3",
          "midi": 58,
          "time": 168.54651162788113,
          "velocity": 0.3858267716535433,
          "duration": 0.06976744186044925
        },
        {
          "name": "A#4",
          "midi": 70,
          "time": 168.54651162788113,
          "velocity": 0.3937007874015748,
          "duration": 0.1627906976743816
        },
        {
          "name": "F5",
          "midi": 77,
          "time": 168.54651162788113,
          "velocity": 0.3779527559055118,
          "duration": 0.24418604651157239
        },
        {
          "name": "B5",
          "midi": 83,
          "time": 168.54651162788113,
          "velocity": 0.11811023622047244,
          "duration": 0.04651162790696617
        },
        {
          "name": "F4",
          "midi": 65,
          "time": 168.55813953485787,
          "velocity": 0.33858267716535434,
          "duration": 0.0813953488371908
        },
        {
          "name": "A2",
          "midi": 45,
          "time": 168.5697674418346,
          "velocity": 0.3228346456692913,
          "duration": 0.04651162790696617
        },
        {
          "name": "C6",
          "midi": 84,
          "time": 168.5930232557881,
          "velocity": 0.23622047244094488,
          "duration": 0.18604651162786467
        },
        {
          "name": "F#6",
          "midi": 90,
          "time": 168.5930232557881,
          "velocity": 0.16535433070866143,
          "duration": 0.0813953488371908
        },
        {
          "name": "C#4",
          "midi": 61,
          "time": 168.60465116276484,
          "velocity": 0.5196850393700787,
          "duration": 0.17441860465112313
        },
        {
          "name": "G6",
          "midi": 91,
          "time": 168.62790697671832,
          "velocity": 0.10236220472440945,
          "duration": 0.12790697674415696
        },
        {
          "name": "D6",
          "midi": 86,
          "time": 168.6511627906718,
          "velocity": 0.14173228346456693,
          "duration": 0.04651162790696617
        },
        {
          "name": "A2",
          "midi": 45,
          "time": 168.66279069764855,
          "velocity": 0.28346456692913385,
          "duration": 0.034883720930224626
        },
        {
          "name": "G#5",
          "midi": 80,
          "time": 168.66279069764855,
          "velocity": 0.1968503937007874,
          "duration": 0.19767441860460622
        },
        {
          "name": "D#6",
          "midi": 87,
          "time": 168.6744186046253,
          "velocity": 0.1732283464566929,
          "duration": 0.1627906976743816
        },
        {
          "name": "F4",
          "midi": 65,
          "time": 168.68604651160203,
          "velocity": 0.3543307086614173,
          "duration": 0.05813953488370771
        },
        {
          "name": "G#4",
          "midi": 68,
          "time": 168.68604651160203,
          "velocity": 0.28346456692913385,
          "duration": 0.06976744186044925
        },
        {
          "name": "D#5",
          "midi": 75,
          "time": 168.68604651160203,
          "velocity": 0.18110236220472442,
          "duration": 0.06976744186044925
        },
        {
          "name": "F#6",
          "midi": 90,
          "time": 168.69767441857877,
          "velocity": 0.12598425196850394,
          "duration": 0.05813953488370771
        },
        {
          "name": "A#4",
          "midi": 70,
          "time": 168.72093023253225,
          "velocity": 0.4015748031496063,
          "duration": 0.15116279069764005
        },
        {
          "name": "G#2",
          "midi": 44,
          "time": 168.74418604648574,
          "velocity": 0.30708661417322836,
          "duration": 0.034883720930224626
        },
        {
          "name": "B5",
          "midi": 83,
          "time": 168.74418604648574,
          "velocity": 0.2204724409448819,
          "duration": 0.05813953488370771
        },
        {
          "name": "C#6",
          "midi": 85,
          "time": 168.74418604648574,
          "velocity": 0.44881889763779526,
          "duration": 0.29069767441853855
        },
        {
          "name": "F4",
          "midi": 65,
          "time": 168.75581395346248,
          "velocity": 0.3858267716535433,
          "duration": 0.06976744186044925
        },
        {
          "name": "A2",
          "midi": 45,
          "time": 168.77906976741596,
          "velocity": 0.2755905511811024,
          "duration": 0.04651162790696617
        },
        {
          "name": "C4",
          "midi": 60,
          "time": 168.77906976741596,
          "velocity": 0.33858267716535434,
          "duration": 0.023255813953483084
        },
        {
          "name": "G6",
          "midi": 91,
          "time": 168.77906976741596,
          "velocity": 0.12598425196850394,
          "duration": 0.034883720930224626
        },
        {
          "name": "C#4",
          "midi": 61,
          "time": 168.80232558136944,
          "velocity": 0.47244094488188976,
          "duration": 0.05813953488370771
        },
        {
          "name": "F#5",
          "midi": 78,
          "time": 168.8139534883462,
          "velocity": 0.12598425196850394,
          "duration": 0.04651162790696617
        },
        {
          "name": "C6",
          "midi": 84,
          "time": 168.8139534883462,
          "velocity": 0.1732283464566929,
          "duration": 0.06976744186044925
        },
        {
          "name": "F#6",
          "midi": 90,
          "time": 168.8139534883462,
          "velocity": 0.15748031496062992,
          "duration": 0.11627906976741542
        },
        {
          "name": "B2",
          "midi": 47,
          "time": 168.82558139532293,
          "velocity": 0.2755905511811024,
          "duration": 0.023255813953483084
        },
        {
          "name": "G#4",
          "midi": 68,
          "time": 168.83720930229967,
          "velocity": 0.2204724409448819,
          "duration": 0.05813953488370771
        },
        {
          "name": "A#2",
          "midi": 46,
          "time": 168.8488372092764,
          "velocity": 0.4094488188976378,
          "duration": 0.034883720930224626
        },
        {
          "name": "A5",
          "midi": 81,
          "time": 168.8488372092764,
          "velocity": 0.2755905511811024,
          "duration": 0.034883720930224626
        },
        {
          "name": "C4",
          "midi": 60,
          "time": 168.86046511625315,
          "velocity": 0.5039370078740157,
          "duration": 0.034883720930224626
        },
        {
          "name": "B5",
          "midi": 83,
          "time": 168.86046511625315,
          "velocity": 0.28346456692913385,
          "duration": 0.034883720930224626
        },
        {
          "name": "D6",
          "midi": 86,
          "time": 168.86046511625315,
          "velocity": 0.12598425196850394,
          "duration": 0.05813953488370771
        },
        {
          "name": "F5",
          "midi": 77,
          "time": 168.8720930232299,
          "velocity": 0.49606299212598426,
          "duration": 0.26744186046505547
        },
        {
          "name": "E6",
          "midi": 88,
          "time": 168.8720930232299,
          "velocity": 0.07086614173228346,
          "duration": 0.05813953488370771
        },
        {
          "name": "A2",
          "midi": 45,
          "time": 168.88372093020664,
          "velocity": 0.4330708661417323,
          "duration": 0.023255813953483084
        },
        {
          "name": "A#4",
          "midi": 70,
          "time": 168.88372093020664,
          "velocity": 0.3858267716535433,
          "duration": 0.34883720930224626
        },
        {
          "name": "D#5",
          "midi": 75,
          "time": 168.88372093020664,
          "velocity": 0.2047244094488189,
          "duration": 0.034883720930224626
        },
        {
          "name": "C#4",
          "midi": 61,
          "time": 168.89534883718338,
          "velocity": 0.5984251968503937,
          "duration": 0.19767441860460622
        },
        {
          "name": "A#5",
          "midi": 82,
          "time": 168.89534883718338,
          "velocity": 0.4330708661417323,
          "duration": 0.17441860465112313
        },
        {
          "name": "C7",
          "midi": 96,
          "time": 168.89534883718338,
          "velocity": 0.08661417322834646,
          "duration": 0.04651162790696617
        },
        {
          "name": "A#2",
          "midi": 46,
          "time": 168.90697674416012,
          "velocity": 0.3779527559055118,
          "duration": 0.04651162790696617
        },
        {
          "name": "F4",
          "midi": 65,
          "time": 168.90697674416012,
          "velocity": 0.47244094488188976,
          "duration": 0.0813953488371908
        },
        {
          "name": "G#5",
          "midi": 80,
          "time": 168.90697674416012,
          "velocity": 0.1968503937007874,
          "duration": 0.05813953488370771
        },
        {
          "name": "G6",
          "midi": 91,
          "time": 168.91860465113686,
          "velocity": 0.13385826771653545,
          "duration": 0.0813953488371908
        },
        {
          "name": "C#2",
          "midi": 37,
          "time": 168.97674418602057,
          "velocity": 0.2440944881889764,
          "duration": 0.05813953488370771
        },
        {
          "name": "G#5",
          "midi": 80,
          "time": 168.9883720929973,
          "velocity": 0.18110236220472442,
          "duration": 0.0813953488371908
        },
        {
          "name": "B2",
          "midi": 47,
          "time": 168.99999999997405,
          "velocity": 0.23622047244094488,
          "duration": 0.023255813953483084
        },
        {
          "name": "F4",
          "midi": 65,
          "time": 168.99999999997405,
          "velocity": 0.3543307086614173,
          "duration": 0.04651162790696617
        },
        {
          "name": "D6",
          "midi": 86,
          "time": 168.99999999997405,
          "velocity": 0.11811023622047244,
          "duration": 0.05813953488370771
        },
        {
          "name": "E6",
          "midi": 88,
          "time": 169.02325581392753,
          "velocity": 0.13385826771653545,
          "duration": 0.05813953488370771
        },
        {
          "name": "F#6",
          "midi": 90,
          "time": 169.02325581392753,
          "velocity": 0.11811023622047244,
          "duration": 0.034883720930224626
        },
        {
          "name": "C6",
          "midi": 84,
          "time": 169.05813953485776,
          "velocity": 0.2677165354330709,
          "duration": 0.023255813953483084
        },
        {
          "name": "B5",
          "midi": 83,
          "time": 169.0697674418345,
          "velocity": 0.25984251968503935,
          "duration": 0.05813953488370771
        },
        {
          "name": "C#6",
          "midi": 85,
          "time": 169.0697674418345,
          "velocity": 0.47244094488188976,
          "duration": 0.29069767441853855
        },
        {
          "name": "D6",
          "midi": 86,
          "time": 169.0697674418345,
          "velocity": 0.14173228346456693,
          "duration": 0.034883720930224626
        },
        {
          "name": "F#6",
          "midi": 90,
          "time": 169.08139534881124,
          "velocity": 0.12598425196850394,
          "duration": 0.05813953488370771
        },
        {
          "name": "A#3",
          "midi": 58,
          "time": 169.10465116276472,
          "velocity": 0.3543307086614173,
          "duration": 0.11627906976741542
        },
        {
          "name": "D#4",
          "midi": 63,
          "time": 169.10465116276472,
          "velocity": 0.2755905511811024,
          "duration": 0.023255813953483084
        },
        {
          "name": "G#4",
          "midi": 68,
          "time": 169.10465116276472,
          "velocity": 0.13385826771653545,
          "duration": 0.0813953488371908
        },
        {
          "name": "F4",
          "midi": 65,
          "time": 169.11627906974147,
          "velocity": 0.4094488188976378,
          "duration": 0.4651162790696617
        },
        {
          "name": "A2",
          "midi": 45,
          "time": 169.13953488369495,
          "velocity": 0.2283464566929134,
          "duration": 0.023255813953483084
        },
        {
          "name": "G6",
          "midi": 91,
          "time": 169.16279069764843,
          "velocity": 0.13385826771653545,
          "duration": 0.034883720930224626
        },
        {
          "name": "B2",
          "midi": 47,
          "time": 169.17441860462517,
          "velocity": 0.1889763779527559,
          "duration": 0.034883720930224626
        },
        {
          "name": "C#4",
          "midi": 61,
          "time": 169.17441860462517,
          "velocity": 0.25196850393700787,
          "duration": 0.023255813953483084
        },
        {
          "name": "G#5",
          "midi": 80,
          "time": 169.17441860462517,
          "velocity": 0.1732283464566929,
          "duration": 0.034883720930224626
        },
        {
          "name": "E6",
          "midi": 88,
          "time": 169.17441860462517,
          "velocity": 0.11811023622047244,
          "duration": 0.04651162790696617
        },
        {
          "name": "F#6",
          "midi": 90,
          "time": 169.17441860462517,
          "velocity": 0.13385826771653545,
          "duration": 0.04651162790696617
        },
        {
          "name": "F5",
          "midi": 77,
          "time": 169.19767441857866,
          "velocity": 0.5039370078740157,
          "duration": 0.6395348837207848
        },
        {
          "name": "C#4",
          "midi": 61,
          "time": 169.2093023255554,
          "velocity": 0.6299212598425197,
          "duration": 0.23255813953483084
        },
        {
          "name": "B5",
          "midi": 83,
          "time": 169.2093023255554,
          "velocity": 0.12598425196850394,
          "duration": 0.034883720930224626
        },
        {
          "name": "A2",
          "midi": 45,
          "time": 169.22093023253214,
          "velocity": 0.23622047244094488,
          "duration": 0.023255813953483084
        },
        {
          "name": "D#6",
          "midi": 87,
          "time": 169.22093023253214,
          "velocity": 0.13385826771653545,
          "duration": 0.11627906976741542
        },
        {
          "name": "A#5",
          "midi": 82,
          "time": 169.23255813950888,
          "velocity": 0.16535433070866143,
          "duration": 0.034883720930224626
        },
        {
          "name": "A#4",
          "midi": 70,
          "time": 169.24418604648562,
          "velocity": 0.28346456692913385,
          "duration": 0.19767441860460622
        },
        {
          "name": "C6",
          "midi": 84,
          "time": 169.24418604648562,
          "velocity": 0.12598425196850394,
          "duration": 0.034883720930224626
        },
        {
          "name": "G#5",
          "midi": 80,
          "time": 169.25581395346236,
          "velocity": 0.2204724409448819,
          "duration": 0.06976744186044925
        },
        {
          "name": "A#2",
          "midi": 46,
          "time": 169.2674418604391,
          "velocity": 0.2755905511811024,
          "duration": 0.04651162790696617
        },
        {
          "name": "G#4",
          "midi": 68,
          "time": 169.2674418604391,
          "velocity": 0.11811023622047244,
          "duration": 0.0813953488371908
        },
        {
          "name": "G6",
          "midi": 91,
          "time": 169.2674418604391,
          "velocity": 0.1732283464566929,
          "duration": 0.034883720930224626
        },
        {
          "name": "A#5",
          "midi": 82,
          "time": 169.2906976743926,
          "velocity": 0.4566929133858268,
          "duration": 0.45348837209292014
        },
        {
          "name": "C6",
          "midi": 84,
          "time": 169.2906976743926,
          "velocity": 0.07086614173228346,
          "duration": 0.034883720930224626
        },
        {
          "name": "F#6",
          "midi": 90,
          "time": 169.31395348834607,
          "velocity": 0.07086614173228346,
          "duration": 0.034883720930224626
        },
        {
          "name": "A#2",
          "midi": 46,
          "time": 169.3255813953228,
          "velocity": 0.23622047244094488,
          "duration": 0.034883720930224626
        },
        {
          "name": "D6",
          "midi": 86,
          "time": 169.33720930229956,
          "velocity": 0.16535433070866143,
          "duration": 0.04651162790696617
        },
        {
          "name": "G#6",
          "midi": 92,
          "time": 169.33720930229956,
          "velocity": 0.08661417322834646,
          "duration": 0.04651162790696617
        },
        {
          "name": "C#6",
          "midi": 85,
          "time": 169.37209302322978,
          "velocity": 0.4566929133858268,
          "duration": 0.2558139534883139
        },
        {
          "name": "G#5",
          "midi": 80,
          "time": 169.38372093020652,
          "velocity": 0.10236220472440945,
          "duration": 0.034883720930224626
        },
        {
          "name": "F#6",
          "midi": 90,
          "time": 169.39534883718326,
          "velocity": 0.12598425196850394,
          "duration": 0.034883720930224626
        },
        {
          "name": "D6",
          "midi": 86,
          "time": 169.40697674416,
          "velocity": 0.16535433070866143,
          "duration": 0.034883720930224626
        },
        {
          "name": "A#3",
          "midi": 58,
          "time": 169.4302325581135,
          "velocity": 0.6771653543307087,
          "duration": 0.12790697674415696
        },
        {
          "name": "E6",
          "midi": 88,
          "time": 169.44186046509023,
          "velocity": 0.15748031496062992,
          "duration": 0.1395348837208985
        },
        {
          "name": "C#5",
          "midi": 73,
          "time": 169.4651162790437,
          "velocity": 0.3464566929133858,
          "duration": 0.1395348837208985
        },
        {
          "name": "G#5",
          "midi": 80,
          "time": 169.4651162790437,
          "velocity": 0.2047244094488189,
          "duration": 0.11627906976741542
        },
        {
          "name": "G6",
          "midi": 91,
          "time": 169.4883720929972,
          "velocity": 0.14173228346456693,
          "duration": 0.0813953488371908
        },
        {
          "name": "B2",
          "midi": 47,
          "time": 169.49999999997394,
          "velocity": 0.2755905511811024,
          "duration": 0.023255813953483084
        },
        {
          "name": "G5",
          "midi": 79,
          "time": 169.49999999997394,
          "velocity": 0.18110236220472442,
          "duration": 0.034883720930224626
        },
        {
          "name": "A#2",
          "midi": 46,
          "time": 169.52325581392742,
          "velocity": 0.2755905511811024,
          "duration": 0.0813953488371908
        },
        {
          "name": "G#4",
          "midi": 68,
          "time": 169.52325581392742,
          "velocity": 0.25984251968503935,
          "duration": 0.034883720930224626
        },
        {
          "name": "D6",
          "midi": 86,
          "time": 169.52325581392742,
          "velocity": 0.11023622047244094,
          "duration": 0.034883720930224626
        },
        {
          "name": "D#5",
          "midi": 75,
          "time": 169.53488372090416,
          "velocity": 0.2992125984251969,
          "duration": 0.17441860465112313
        },
        {
          "name": "B3",
          "midi": 59,
          "time": 169.55813953485765,
          "velocity": 0.6062992125984252,
          "duration": 0.011627906976741542
        },
        {
          "name": "A#3",
          "midi": 58,
          "time": 169.5697674418344,
          "velocity": 0.6299212598425197,
          "duration": 0.05813953488370771
        },
        {
          "name": "G#4",
          "midi": 68,
          "time": 169.59302325578787,
          "velocity": 0.3700787401574803,
          "duration": 0.1395348837208985
        },
        {
          "name": "D6",
          "midi": 86,
          "time": 169.59302325578787,
          "velocity": 0.13385826771653545,
          "duration": 0.06976744186044925
        },
        {
          "name": "C#4",
          "midi": 61,
          "time": 169.6046511627646,
          "velocity": 0.31496062992125984,
          "duration": 0.023255813953483084
        },
        {
          "name": "F4",
          "midi": 65,
          "time": 169.6046511627646,
          "velocity": 0.33070866141732286,
          "duration": 0.279069767441797
        },
        {
          "name": "C6",
          "midi": 84,
          "time": 169.61627906974135,
          "velocity": 0.1732283464566929,
          "duration": 0.05813953488370771
        },
        {
          "name": "A3",
          "midi": 57,
          "time": 169.6279069767181,
          "velocity": 0.4645669291338583,
          "duration": 0.023255813953483084
        },
        {
          "name": "C#5",
          "midi": 73,
          "time": 169.6279069767181,
          "velocity": 0.28346456692913385,
          "duration": 0.05813953488370771
        },
        {
          "name": "B5",
          "midi": 83,
          "time": 169.65116279067158,
          "velocity": 0.13385826771653545,
          "duration": 0.034883720930224626
        },
        {
          "name": "A#4",
          "midi": 70,
          "time": 169.66279069764832,
          "velocity": 0.33858267716535434,
          "duration": 0.09302325581393234
        },
        {
          "name": "A3",
          "midi": 57,
          "time": 169.67441860462506,
          "velocity": 0.5905511811023622,
          "duration": 0.011627906976741542
        },
        {
          "name": "E6",
          "midi": 88,
          "time": 169.67441860462506,
          "velocity": 0.11023622047244094,
          "duration": 0.06976744186044925
        },
        {
          "name": "F#6",
          "midi": 90,
          "time": 169.67441860462506,
          "velocity": 0.09448818897637795,
          "duration": 0.034883720930224626
        },
        {
          "name": "A#2",
          "midi": 46,
          "time": 169.6860465116018,
          "velocity": 0.2283464566929134,
          "duration": 0.034883720930224626
        },
        {
          "name": "G#3",
          "midi": 56,
          "time": 169.6860465116018,
          "velocity": 0.6456692913385826,
          "duration": 0.034883720930224626
        },
        {
          "name": "C#5",
          "midi": 73,
          "time": 169.69767441857854,
          "velocity": 0.33070866141732286,
          "duration": 0.10465116279067388
        },
        {
          "name": "D6",
          "midi": 86,
          "time": 169.70930232555529,
          "velocity": 0.1889763779527559,
          "duration": 0.10465116279067388
        },
        {
          "name": "A3",
          "midi": 57,
          "time": 169.72093023253203,
          "velocity": 0.5984251968503937,
          "duration": 0.011627906976741542
        },
        {
          "name": "C#6",
          "midi": 85,
          "time": 169.72093023253203,
          "velocity": 0.4251968503937008,
          "duration": 0.2209302325580893
        },
        {
          "name": "G#3",
          "midi": 56,
          "time": 169.73255813950877,
          "velocity": 0.5511811023622047,
          "duration": 0.023255813953483084
        },
        {
          "name": "C#2",
          "midi": 37,
          "time": 169.7441860464855,
          "velocity": 0.2204724409448819,
          "duration": 0.04651162790696617
        },
        {
          "name": "A#3",
          "midi": 58,
          "time": 169.75581395346225,
          "velocity": 0.5118110236220472,
          "duration": 0.05813953488370771
        },
        {
          "name": "D#5",
          "midi": 75,
          "time": 169.75581395346225,
          "velocity": 0.07086614173228346,
          "duration": 0.034883720930224626
        },
        {
          "name": "A#5",
          "midi": 82,
          "time": 169.75581395346225,
          "velocity": 0.2047244094488189,
          "duration": 0.1627906976743816
        },
        {
          "name": "D#6",
          "midi": 87,
          "time": 169.79069767439248,
          "velocity": 0.14173228346456693,
          "duration": 0.034883720930224626
        },
        {
          "name": "E6",
          "midi": 88,
          "time": 169.79069767439248,
          "velocity": 0.09448818897637795,
          "duration": 0.034883720930224626
        },
        {
          "name": "F#6",
          "midi": 90,
          "time": 169.80232558136922,
          "velocity": 0.10236220472440945,
          "duration": 0.04651162790696617
        },
        {
          "name": "B2",
          "midi": 47,
          "time": 169.81395348834596,
          "velocity": 0.3228346456692913,
          "duration": 0.023255813953483084
        },
        {
          "name": "B5",
          "midi": 83,
          "time": 169.81395348834596,
          "velocity": 0.18110236220472442,
          "duration": 0.034883720930224626
        },
        {
          "name": "G#5",
          "midi": 80,
          "time": 169.8255813953227,
          "velocity": 0.1889763779527559,
          "duration": 0.10465116279067388
        },
        {
          "name": "A5",
          "midi": 81,
          "time": 169.8255813953227,
          "velocity": 0.14173228346456693,
          "duration": 0.034883720930224626
        },
        {
          "name": "B3",
          "midi": 59,
          "time": 169.83720930229944,
          "velocity": 0.25196850393700787,
          "duration": 0.023255813953483084
        },
        {
          "name": "G#4",
          "midi": 68,
          "time": 169.84883720927618,
          "velocity": 0.6377952755905512,
          "duration": 0.6627906976742679
        },
        {
          "name": "E6",
          "midi": 88,
          "time": 169.84883720927618,
          "velocity": 0.07086614173228346,
          "duration": 0.034883720930224626
        },
        {
          "name": "F3",
          "midi": 53,
          "time": 169.86046511625293,
          "velocity": 0.1889763779527559,
          "duration": 0.05813953488370771
        },
        {
          "name": "A#3",
          "midi": 58,
          "time": 169.86046511625293,
          "velocity": 0.2283464566929134,
          "duration": 0.04651162790696617
        },
        {
          "name": "C#4",
          "midi": 61,
          "time": 169.86046511625293,
          "velocity": 0.2125984251968504,
          "duration": 0.034883720930224626
        },
        {
          "name": "C#5",
          "midi": 73,
          "time": 169.86046511625293,
          "velocity": 0.3228346456692913,
          "duration": 0.12790697674415696
        },
        {
          "name": "C6",
          "midi": 84,
          "time": 169.8837209302064,
          "velocity": 0.1732283464566929,
          "duration": 0.04651162790696617
        },
        {
          "name": "D#6",
          "midi": 87,
          "time": 169.8837209302064,
          "velocity": 0.09448818897637795,
          "duration": 0.034883720930224626
        },
        {
          "name": "C#4",
          "midi": 61,
          "time": 169.9069767441599,
          "velocity": 0.31496062992125984,
          "duration": 0.12790697674415696
        },
        {
          "name": "F4",
          "midi": 65,
          "time": 169.9069767441599,
          "velocity": 0.2125984251968504,
          "duration": 0.04651162790696617
        },
        {
          "name": "E6",
          "midi": 88,
          "time": 169.91860465113663,
          "velocity": 0.14960629921259844,
          "duration": 0.04651162790696617
        },
        {
          "name": "B5",
          "midi": 83,
          "time": 169.93023255811337,
          "velocity": 0.12598425196850394,
          "duration": 0.04651162790696617
        },
        {
          "name": "G#3",
          "midi": 56,
          "time": 169.94186046509012,
          "velocity": 0.2125984251968504,
          "duration": 0.034883720930224626
        },
        {
          "name": "E5",
          "midi": 76,
          "time": 169.94186046509012,
          "velocity": 0.23622047244094488,
          "duration": 0.034883720930224626
        },
        {
          "name": "C6",
          "midi": 84,
          "time": 169.94186046509012,
          "velocity": 0.1889763779527559,
          "duration": 0.034883720930224626
        },
        {
          "name": "F5",
          "midi": 77,
          "time": 169.9651162790436,
          "velocity": 0.5275590551181102,
          "duration": 0.558139534883594
        },
        {
          "name": "F3",
          "midi": 53,
          "time": 169.97674418602034,
          "velocity": 0.2992125984251969,
          "duration": 0.09302325581393234
        },
        {
          "name": "F4",
          "midi": 65,
          "time": 169.97674418602034,
          "velocity": 0.4251968503937008,
          "duration": 0.19767441860460622
        },
        {
          "name": "A#5",
          "midi": 82,
          "time": 169.97674418602034,
          "velocity": 0.14960629921259844,
          "duration": 0.04651162790696617
        },
        {
          "name": "C5",
          "midi": 72,
          "time": 169.98837209299708,
          "velocity": 0.14960629921259844,
          "duration": 0.034883720930224626
        },
        {
          "name": "E6",
          "midi": 88,
          "time": 169.98837209299708,
          "velocity": 0.11811023622047244,
          "duration": 0.04651162790696617
        },
        {
          "name": "C#5",
          "midi": 73,
          "time": 170.01162790695057,
          "velocity": 0.4409448818897638,
          "duration": 0.47674418604640323
        },
        {
          "name": "D#6",
          "midi": 87,
          "time": 170.01162790695057,
          "velocity": 0.13385826771653545,
          "duration": 0.04651162790696617
        },
        {
          "name": "G5",
          "midi": 79,
          "time": 170.0465116278808,
          "velocity": 0.30708661417322836,
          "duration": 0.023255813953483084
        },
        {
          "name": "C#4",
          "midi": 61,
          "time": 170.05813953485753,
          "velocity": 0.4015748031496063,
          "duration": 0.3604651162789878
        },
        {
          "name": "A#5",
          "midi": 82,
          "time": 170.06976744183427,
          "velocity": 0.14173228346456693,
          "duration": 0.034883720930224626
        },
        {
          "name": "B5",
          "midi": 83,
          "time": 170.08139534881101,
          "velocity": 0.11811023622047244,
          "duration": 0.034883720930224626
        },
        {
          "name": "D6",
          "midi": 86,
          "time": 170.08139534881101,
          "velocity": 0.16535433070866143,
          "duration": 0.10465116279067388
        },
        {
          "name": "F3",
          "midi": 53,
          "time": 170.09302325578776,
          "velocity": 0.28346456692913385,
          "duration": 0.06976744186044925
        },
        {
          "name": "C6",
          "midi": 84,
          "time": 170.1046511627645,
          "velocity": 0.11023622047244094,
          "duration": 0.06976744186044925
        },
        {
          "name": "A#5",
          "midi": 82,
          "time": 170.11627906974124,
          "velocity": 0.1968503937007874,
          "duration": 0.09302325581393234
        },
        {
          "name": "D#6",
          "midi": 87,
          "time": 170.11627906974124,
          "velocity": 0.08661417322834646,
          "duration": 0.034883720930224626
        },
        {
          "name": "F2",
          "midi": 41,
          "time": 170.13953488369472,
          "velocity": 0.23622047244094488,
          "duration": 0.023255813953483084
        },
        {
          "name": "F#5",
          "midi": 78,
          "time": 170.15116279067146,
          "velocity": 0.1968503937007874,
          "duration": 0.04651162790696617
        },
        {
          "name": "F3",
          "midi": 53,
          "time": 170.1860465116017,
          "velocity": 0.3228346456692913,
          "duration": 0.26744186046505547
        },
        {
          "name": "B5",
          "midi": 83,
          "time": 170.19767441857843,
          "velocity": 0.13385826771653545,
          "duration": 0.04651162790696617
        },
        {
          "name": "F4",
          "midi": 65,
          "time": 170.20930232555517,
          "velocity": 0.4251968503937008,
          "duration": 0.23255813953483084
        },
        {
          "name": "D#6",
          "midi": 87,
          "time": 170.20930232555517,
          "velocity": 0.14960629921259844,
          "duration": 0.0813953488371908
        },
        {
          "name": "A#5",
          "midi": 82,
          "time": 170.23255813950865,
          "velocity": 0.1732283464566929,
          "duration": 0.05813953488370771
        },
        {
          "name": "D6",
          "midi": 86,
          "time": 170.27906976741562,
          "velocity": 0.14960629921259844,
          "duration": 0.034883720930224626
        },
        {
          "name": "A#5",
          "midi": 82,
          "time": 170.3023255813691,
          "velocity": 0.15748031496062992,
          "duration": 0.034883720930224626
        },
        {
          "name": "F2",
          "midi": 41,
          "time": 170.31395348834585,
          "velocity": 0.25196850393700787,
          "duration": 0.05813953488370771
        },
        {
          "name": "B5",
          "midi": 83,
          "time": 170.33720930229933,
          "velocity": 0.13385826771653545,
          "duration": 0.034883720930224626
        },
        {
          "name": "G5",
          "midi": 79,
          "time": 170.37209302322955,
          "velocity": 0.29133858267716534,
          "duration": 0.023255813953483084
        },
        {
          "name": "F2",
          "midi": 41,
          "time": 170.41860465113652,
          "velocity": 0.28346456692913385,
          "duration": 0.04651162790696617
        },
        {
          "name": "E6",
          "midi": 88,
          "time": 170.41860465113652,
          "velocity": 0.12598425196850394,
          "duration": 0.09302325581393234
        },
        {
          "name": "C#4",
          "midi": 61,
          "time": 170.43023255811326,
          "velocity": 0.28346456692913385,
          "duration": 0.04651162790696617
        },
        {
          "name": "F4",
          "midi": 65,
          "time": 170.45348837206674,
          "velocity": 0.28346456692913385,
          "duration": 0.06976744186044925
        },
        {
          "name": "F3",
          "midi": 53,
          "time": 170.46511627904349,
          "velocity": 0.1732283464566929,
          "duration": 0.04651162790696617
        },
        {
          "name": "C4",
          "midi": 60,
          "time": 170.47674418602023,
          "velocity": 0.30708661417322836,
          "duration": 0.04651162790696617
        },
        {
          "name": "C#5",
          "midi": 73,
          "time": 170.51162790695045,
          "velocity": 0.2755905511811024,
          "duration": 0.06976744186044925
        },
        {
          "name": "D#6",
          "midi": 87,
          "time": 170.51162790695045,
          "velocity": 0.14960629921259844,
          "duration": 0.04651162790696617
        },
        {
          "name": "C#4",
          "midi": 61,
          "time": 170.5232558139272,
          "velocity": 0.3543307086614173,
          "duration": 0.06976744186044925
        },
        {
          "name": "G#4",
          "midi": 68,
          "time": 170.5232558139272,
          "velocity": 0.6614173228346457,
          "duration": 0.29069767441853855
        },
        {
          "name": "F4",
          "midi": 65,
          "time": 170.54651162788068,
          "velocity": 0.3858267716535433,
          "duration": 0.17441860465112313
        },
        {
          "name": "F3",
          "midi": 53,
          "time": 170.55813953485742,
          "velocity": 0.2992125984251969,
          "duration": 0.18604651162786467
        },
        {
          "name": "C5",
          "midi": 72,
          "time": 170.5813953488109,
          "velocity": 0.2283464566929134,
          "duration": 0.05813953488370771
        },
        {
          "name": "D6",
          "midi": 86,
          "time": 170.59302325578764,
          "velocity": 0.2204724409448819,
          "duration": 0.04651162790696617
        },
        {
          "name": "C#4",
          "midi": 61,
          "time": 170.60465116276438,
          "velocity": 0.4330708661417323,
          "duration": 0.2209302325580893
        },
        {
          "name": "F6",
          "midi": 89,
          "time": 170.60465116276438,
          "velocity": 0.10236220472440945,
          "duration": 0.10465116279067388
        },
        {
          "name": "F5",
          "midi": 77,
          "time": 170.61627906974113,
          "velocity": 0.5039370078740157,
          "duration": 0.5348837209301109
        },
        {
          "name": "G6",
          "midi": 91,
          "time": 170.62790697671787,
          "velocity": 0.08661417322834646,
          "duration": 0.05813953488370771
        },
        {
          "name": "F2",
          "midi": 41,
          "time": 170.6395348836946,
          "velocity": 0.2755905511811024,
          "duration": 0.023255813953483084
        },
        {
          "name": "B5",
          "midi": 83,
          "time": 170.6395348836946,
          "velocity": 0.14173228346456693,
          "duration": 0.06976744186044925
        },
        {
          "name": "D#6",
          "midi": 87,
          "time": 170.6395348836946,
          "velocity": 0.10236220472440945,
          "duration": 0.04651162790696617
        },
        {
          "name": "F2",
          "midi": 41,
          "time": 170.67441860462483,
          "velocity": 0.2677165354330709,
          "duration": 0.023255813953483084
        },
        {
          "name": "C6",
          "midi": 84,
          "time": 170.67441860462483,
          "velocity": 0.15748031496062992,
          "duration": 0.05813953488370771
        },
        {
          "name": "F#6",
          "midi": 90,
          "time": 170.67441860462483,
          "velocity": 0.07086614173228346,
          "duration": 0.034883720930224626
        },
        {
          "name": "A5",
          "midi": 81,
          "time": 170.68604651160157,
          "velocity": 0.11023622047244094,
          "duration": 0.034883720930224626
        },
        {
          "name": "F#2",
          "midi": 42,
          "time": 170.69767441857832,
          "velocity": 0.1968503937007874,
          "duration": 0.034883720930224626
        },
        {
          "name": "D#6",
          "midi": 87,
          "time": 170.69767441857832,
          "velocity": 0.11811023622047244,
          "duration": 0.10465116279067388
        },
        {
          "name": "E2",
          "midi": 40,
          "time": 170.73255813950854,
          "velocity": 0.2440944881889764,
          "duration": 0.034883720930224626
        },
        {
          "name": "F4",
          "midi": 65,
          "time": 170.73255813950854,
          "velocity": 0.5590551181102362,
          "duration": 0.10465116279067388
        },
        {
          "name": "C5",
          "midi": 72,
          "time": 170.76744186043877,
          "velocity": 0.3228346456692913,
          "duration": 0.0813953488371908
        },
        {
          "name": "C#6",
          "midi": 85,
          "time": 170.76744186043877,
          "velocity": 0.1732283464566929,
          "duration": 0.06976744186044925
        },
        {
          "name": "D6",
          "midi": 86,
          "time": 170.76744186043877,
          "velocity": 0.13385826771653545,
          "duration": 0.12790697674415696
        },
        {
          "name": "E6",
          "midi": 88,
          "time": 170.76744186043877,
          "velocity": 0.09448818897637795,
          "duration": 0.06976744186044925
        },
        {
          "name": "F#6",
          "midi": 90,
          "time": 170.76744186043877,
          "velocity": 0.14960629921259844,
          "duration": 0.034883720930224626
        },
        {
          "name": "F3",
          "midi": 53,
          "time": 170.79069767439225,
          "velocity": 0.28346456692913385,
          "duration": 0.05813953488370771
        },
        {
          "name": "B5",
          "midi": 83,
          "time": 170.802325581369,
          "velocity": 0.14173228346456693,
          "duration": 0.06976744186044925
        },
        {
          "name": "A#5",
          "midi": 82,
          "time": 170.81395348834573,
          "velocity": 0.10236220472440945,
          "duration": 0.034883720930224626
        },
        {
          "name": "E4",
          "midi": 64,
          "time": 170.83720930229921,
          "velocity": 0.6299212598425197,
          "duration": 0.011627906976741542
        },
        {
          "name": "G#4",
          "midi": 68,
          "time": 170.83720930229921,
          "velocity": 0.33858267716535434,
          "duration": 0.05813953488370771
        },
        {
          "name": "C#5",
          "midi": 73,
          "time": 170.83720930229921,
          "velocity": 0.4094488188976378,
          "duration": 0.23255813953483084
        },
        {
          "name": "D#5",
          "midi": 75,
          "time": 170.83720930229921,
          "velocity": 0.36220472440944884,
          "duration": 0.19767441860460622
        },
        {
          "name": "D#4",
          "midi": 63,
          "time": 170.84883720927596,
          "velocity": 0.6614173228346457,
          "duration": 0.3255813953487632
        },
        {
          "name": "F3",
          "midi": 53,
          "time": 170.8604651162527,
          "velocity": 0.2755905511811024,
          "duration": 0.18604651162786467
        },
        {
          "name": "F2",
          "midi": 41,
          "time": 170.88372093020618,
          "velocity": 0.2755905511811024,
          "duration": 0.04651162790696617
        },
        {
          "name": "A4",
          "midi": 69,
          "time": 170.89534883718292,
          "velocity": 0.23622047244094488,
          "duration": 0.023255813953483084
        },
        {
          "name": "G#4",
          "midi": 68,
          "time": 170.9186046511364,
          "velocity": 0.3858267716535433,
          "duration": 0.18604651162786467
        },
        {
          "name": "B5",
          "midi": 83,
          "time": 170.96511627904337,
          "velocity": 0.12598425196850394,
          "duration": 0.034883720930224626
        },
        {
          "name": "E6",
          "midi": 88,
          "time": 170.9767441860201,
          "velocity": 0.11811023622047244,
          "duration": 0.034883720930224626
        },
        {
          "name": "D6",
          "midi": 86,
          "time": 171.02325581392708,
          "velocity": 0.13385826771653545,
          "duration": 0.04651162790696617
        },
        {
          "name": "F#5",
          "midi": 78,
          "time": 171.04651162788056,
          "velocity": 0.2283464566929134,
          "duration": 0.023255813953483084
        },
        {
          "name": "D#6",
          "midi": 87,
          "time": 171.04651162788056,
          "velocity": 0.11023622047244094,
          "duration": 0.034883720930224626
        },
        {
          "name": "F3",
          "midi": 53,
          "time": 171.0813953488108,
          "velocity": 0.30708661417322836,
          "duration": 0.10465116279067388
        },
        {
          "name": "C6",
          "midi": 84,
          "time": 171.09302325578753,
          "velocity": 0.09448818897637795,
          "duration": 0.05813953488370771
        },
        {
          "name": "D6",
          "midi": 86,
          "time": 171.10465116276427,
          "velocity": 0.12598425196850394,
          "duration": 0.06976744186044925
        },
        {
          "name": "G#4",
          "midi": 68,
          "time": 171.116279069741,
          "velocity": 0.3228346456692913,
          "duration": 0.06976744186044925
        },
        {
          "name": "C5",
          "midi": 72,
          "time": 171.116279069741,
          "velocity": 0.15748031496062992,
          "duration": 0.034883720930224626
        },
        {
          "name": "F#6",
          "midi": 90,
          "time": 171.12790697671775,
          "velocity": 0.1732283464566929,
          "duration": 0.04651162790696617
        },
        {
          "name": "F#5",
          "midi": 78,
          "time": 171.1395348836945,
          "velocity": 0.2047244094488189,
          "duration": 0.05813953488370771
        },
        {
          "name": "A#4",
          "midi": 70,
          "time": 171.15116279067124,
          "velocity": 0.28346456692913385,
          "duration": 0.06976744186044925
        },
        {
          "name": "F2",
          "midi": 41,
          "time": 171.16279069764798,
          "velocity": 0.25196850393700787,
          "duration": 0.023255813953483084
        },
        {
          "name": "C#5",
          "midi": 73,
          "time": 171.17441860462472,
          "velocity": 0.2440944881889764,
          "duration": 0.0813953488371908
        },
        {
          "name": "C#4",
          "midi": 61,
          "time": 171.18604651160146,
          "velocity": 0.6062992125984252,
          "duration": 0.18604651162786467
        },
        {
          "name": "F#2",
          "midi": 42,
          "time": 171.20930232555494,
          "velocity": 0.28346456692913385,
          "duration": 0.034883720930224626
        },
        {
          "name": "F3",
          "midi": 53,
          "time": 171.20930232555494,
          "velocity": 0.2992125984251969,
          "duration": 0.023255813953483084
        },
        {
          "name": "F4",
          "midi": 65,
          "time": 171.22093023253169,
          "velocity": 0.3779527559055118,
          "duration": 0.10465116279067388
        },
        {
          "name": "G#4",
          "midi": 68,
          "time": 171.23255813950843,
          "velocity": 0.2755905511811024,
          "duration": 0.10465116279067388
        },
        {
          "name": "F3",
          "midi": 53,
          "time": 171.24418604648517,
          "velocity": 0.2755905511811024,
          "duration": 0.023255813953483084
        },
        {
          "name": "B5",
          "midi": 83,
          "time": 171.24418604648517,
          "velocity": 0.1732283464566929,
          "duration": 0.11627906976741542
        },
        {
          "name": "D#6",
          "midi": 87,
          "time": 171.2558139534619,
          "velocity": 0.09448818897637795,
          "duration": 0.034883720930224626
        },
        {
          "name": "E5",
          "midi": 76,
          "time": 171.26744186043865,
          "velocity": 0.11023622047244094,
          "duration": 0.034883720930224626
        },
        {
          "name": "F#5",
          "midi": 78,
          "time": 171.26744186043865,
          "velocity": 0.3228346456692913,
          "duration": 0.1627906976743816
        },
        {
          "name": "D6",
          "midi": 86,
          "time": 171.26744186043865,
          "velocity": 0.12598425196850394,
          "duration": 0.10465116279067388
        },
        {
          "name": "F2",
          "midi": 41,
          "time": 171.2790697674154,
          "velocity": 0.2440944881889764,
          "duration": 0.023255813953483084
        },
        {
          "name": "A#4",
          "midi": 70,
          "time": 171.2790697674154,
          "velocity": 0.25984251968503935,
          "duration": 0.20930232558134776
        },
        {
          "name": "F#3",
          "midi": 54,
          "time": 171.30232558136888,
          "velocity": 0.3464566929133858,
          "duration": 0.1395348837208985
        },
        {
          "name": "A5",
          "midi": 81,
          "time": 171.36046511625258,
          "velocity": 0.31496062992125984,
          "duration": 0.05813953488370771
        },
        {
          "name": "C4",
          "midi": 60,
          "time": 171.37209302322933,
          "velocity": 0.3700787401574803,
          "duration": 0.023255813953483084
        },
        {
          "name": "G#4",
          "midi": 68,
          "time": 171.37209302322933,
          "velocity": 0.2755905511811024,
          "duration": 0.05813953488370771
        },
        {
          "name": "A#5",
          "midi": 82,
          "time": 171.38372093020607,
          "velocity": 0.3858267716535433,
          "duration": 0.2558139534883139
        },
        {
          "name": "E6",
          "midi": 88,
          "time": 171.38372093020607,
          "velocity": 0.07874015748031496,
          "duration": 0.034883720930224626
        },
        {
          "name": "C#4",
          "midi": 61,
          "time": 171.3953488371828,
          "velocity": 0.4015748031496063,
          "duration": 0.05813953488370771
        },
        {
          "name": "F4",
          "midi": 65,
          "time": 171.3953488371828,
          "velocity": 0.29133858267716534,
          "duration": 0.023255813953483084
        },
        {
          "name": "F#4",
          "midi": 66,
          "time": 171.4186046511363,
          "velocity": 0.3543307086614173,
          "duration": 0.023255813953483084
        },
        {
          "name": "F#3",
          "midi": 54,
          "time": 171.45348837206652,
          "velocity": 0.25984251968503935,
          "duration": 0.04651162790696617
        },
        {
          "name": "D6",
          "midi": 86,
          "time": 171.45348837206652,
          "velocity": 0.18110236220472442,
          "duration": 0.06976744186044925
        },
        {
          "name": "C#4",
          "midi": 61,
          "time": 171.46511627904326,
          "velocity": 0.29133858267716534,
          "duration": 0.023255813953483084
        },
        {
          "name": "F#4",
          "midi": 66,
          "time": 171.46511627904326,
          "velocity": 0.3228346456692913,
          "duration": 0.023255813953483084
        },
        {
          "name": "A5",
          "midi": 81,
          "time": 171.46511627904326,
          "velocity": 0.25196850393700787,
          "duration": 0.023255813953483084
        },
        {
          "name": "F4",
          "midi": 65,
          "time": 171.47674418602,
          "velocity": 0.3543307086614173,
          "duration": 0.023255813953483084
        },
        {
          "name": "G#5",
          "midi": 80,
          "time": 171.47674418602,
          "velocity": 0.23622047244094488,
          "duration": 0.19767441860460622
        },
        {
          "name": "F#5",
          "midi": 78,
          "time": 171.48837209299674,
          "velocity": 0.25196850393700787,
          "duration": 0.06976744186044925
        },
        {
          "name": "C#4",
          "midi": 61,
          "time": 171.49999999997348,
          "velocity": 0.5275590551181102,
          "duration": 0.23255813953483084
        },
        {
          "name": "F#4",
          "midi": 66,
          "time": 171.49999999997348,
          "velocity": 0.4251968503937008,
          "duration": 0.0813953488371908
        },
        {
          "name": "A#4",
          "midi": 70,
          "time": 171.49999999997348,
          "velocity": 0.28346456692913385,
          "duration": 0.18604651162786467
        },
        {
          "name": "F#3",
          "midi": 54,
          "time": 171.54651162788045,
          "velocity": 0.31496062992125984,
          "duration": 0.17441860465112313
        },
        {
          "name": "D5",
          "midi": 74,
          "time": 171.56976744183393,
          "velocity": 0.25196850393700787,
          "duration": 0.023255813953483084
        },
        {
          "name": "F6",
          "midi": 89,
          "time": 171.58139534881067,
          "velocity": 0.08661417322834646,
          "duration": 0.034883720930224626
        },
        {
          "name": "F#5",
          "midi": 78,
          "time": 171.59302325578741,
          "velocity": 0.3700787401574803,
          "duration": 0.24418604651157239
        },
        {
          "name": "F#4",
          "midi": 66,
          "time": 171.60465116276416,
          "velocity": 0.48031496062992124,
          "duration": 0.15116279069764005
        },
        {
          "name": "D#6",
          "midi": 87,
          "time": 171.60465116276416,
          "velocity": 0.12598425196850394,
          "duration": 0.18604651162786467
        },
        {
          "name": "C6",
          "midi": 84,
          "time": 171.66279069764786,
          "velocity": 0.07086614173228346,
          "duration": 0.04651162790696617
        },
        {
          "name": "B5",
          "midi": 83,
          "time": 171.6744186046246,
          "velocity": 0.10236220472440945,
          "duration": 0.05813953488370771
        },
        {
          "name": "G6",
          "midi": 91,
          "time": 171.6744186046246,
          "velocity": 0.09448818897637795,
          "duration": 0.05813953488370771
        },
        {
          "name": "A#5",
          "midi": 82,
          "time": 171.68604651160135,
          "velocity": 0.4330708661417323,
          "duration": 0.1395348837208985
        },
        {
          "name": "A#4",
          "midi": 70,
          "time": 171.70930232555483,
          "velocity": 0.3779527559055118,
          "duration": 0.36046511627901623
        },
        {
          "name": "G#5",
          "midi": 80,
          "time": 171.70930232555483,
          "velocity": 0.2125984251968504,
          "duration": 0.034883720930224626
        },
        {
          "name": "F3",
          "midi": 53,
          "time": 171.72093023253157,
          "velocity": 0.2677165354330709,
          "duration": 0.023255813953483084
        },
        {
          "name": "D6",
          "midi": 86,
          "time": 171.7325581395083,
          "velocity": 0.1732283464566929,
          "duration": 0.04651162790696617
        },
        {
          "name": "F#3",
          "midi": 54,
          "time": 171.74418604648505,
          "velocity": 0.3779527559055118,
          "duration": 0.2674418604650839
        },
        {
          "name": "C#4",
          "midi": 61,
          "time": 171.74418604648505,
          "velocity": 0.5118110236220472,
          "duration": 0.290697674418567
        },
        {
          "name": "E6",
          "midi": 88,
          "time": 171.79069767439202,
          "velocity": 0.13385826771653545,
          "duration": 0.04651162790696617
        },
        {
          "name": "A5",
          "midi": 81,
          "time": 171.80232558136876,
          "velocity": 0.11811023622047244,
          "duration": 0.05813953488370771
        },
        {
          "name": "G#5",
          "midi": 80,
          "time": 171.82558139532225,
          "velocity": 0.14173228346456693,
          "duration": 0.05813953488370771
        },
        {
          "name": "D6",
          "midi": 86,
          "time": 171.86046511625247,
          "velocity": 0.08661417322834646,
          "duration": 0.04651162790696617
        },
        {
          "name": "A#5",
          "midi": 82,
          "time": 171.9767441860199,
          "velocity": 0.4409448818897638,
          "duration": 0.2209302325580893
        },
        {
          "name": "B5",
          "midi": 83,
          "time": 171.9999999999734,
          "velocity": 0.08661417322834646,
          "duration": 0.034883720930224626
        },
        {
          "name": "G#5",
          "midi": 80,
          "time": 172.01162790695014,
          "velocity": 0.2047244094488189,
          "duration": 0.04651162790696617
        },
        {
          "name": "A#3",
          "midi": 58,
          "time": 172.02325581392688,
          "velocity": 0.6456692913385826,
          "duration": 0.1395348837208985
        },
        {
          "name": "F#4",
          "midi": 66,
          "time": 172.03488372090362,
          "velocity": 0.44881889763779526,
          "duration": 0.17441860465112313
        },
        {
          "name": "A4",
          "midi": 69,
          "time": 172.0581395348571,
          "velocity": 0.30708661417322836,
          "duration": 0.023255813953483084
        },
        {
          "name": "C#5",
          "midi": 73,
          "time": 172.0581395348571,
          "velocity": 0.4251968503937008,
          "duration": 0.20930232558134776
        },
        {
          "name": "F5",
          "midi": 77,
          "time": 172.1162790697408,
          "velocity": 0.2125984251968504,
          "duration": 0.05813953488370771
        },
        {
          "name": "D6",
          "midi": 86,
          "time": 172.1162790697408,
          "velocity": 0.07874015748031496,
          "duration": 0.05813953488370771
        },
        {
          "name": "G6",
          "midi": 91,
          "time": 172.1162790697408,
          "velocity": 0.09448818897637795,
          "duration": 0.04651162790696617
        },
        {
          "name": "G#5",
          "midi": 80,
          "time": 172.12790697671755,
          "velocity": 0.1732283464566929,
          "duration": 0.1395348837208985
        },
        {
          "name": "A3",
          "midi": 57,
          "time": 172.16279069764778,
          "velocity": 0.7007874015748031,
          "duration": 0.011627906976741542
        },
        {
          "name": "D#6",
          "midi": 87,
          "time": 172.16279069764778,
          "velocity": 0.07086614173228346,
          "duration": 0.034883720930224626
        },
        {
          "name": "A#3",
          "midi": 58,
          "time": 172.17441860462452,
          "velocity": 0.6062992125984252,
          "duration": 0.011627906976741542
        },
        {
          "name": "G#3",
          "midi": 56,
          "time": 172.18604651160126,
          "velocity": 0.6377952755905512,
          "duration": 0.023255813953483084
        },
        {
          "name": "B3",
          "midi": 59,
          "time": 172.18604651160126,
          "velocity": 0.5433070866141733,
          "duration": 0.011627906976741542
        },
        {
          "name": "A3",
          "midi": 57,
          "time": 172.20930232555475,
          "velocity": 0.5984251968503937,
          "duration": 0.023255813953483084
        },
        {
          "name": "G#4",
          "midi": 68,
          "time": 172.20930232555475,
          "velocity": 0.1968503937007874,
          "duration": 0.034883720930224626
        },
        {
          "name": "D6",
          "midi": 86,
          "time": 172.20930232555475,
          "velocity": 0.10236220472440945,
          "duration": 0.034883720930224626
        },
        {
          "name": "G#3",
          "midi": 56,
          "time": 172.2209302325315,
          "velocity": 0.5590551181102362,
          "duration": 0.06976744186044925
        },
        {
          "name": "F#4",
          "midi": 66,
          "time": 172.24418604648497,
          "velocity": 0.4251968503937008,
          "duration": 0.20930232558134776
        },
        {
          "name": "E5",
          "midi": 76,
          "time": 172.24418604648497,
          "velocity": 0.18110236220472442,
          "duration": 0.034883720930224626
        },
        {
          "name": "F#5",
          "midi": 78,
          "time": 172.24418604648497,
          "velocity": 0.4330708661417323,
          "duration": 0.20930232558134776
        },
        {
          "name": "C#4",
          "midi": 61,
          "time": 172.2558139534617,
          "velocity": 0.2755905511811024,
          "duration": 0.06976744186044925
        },
        {
          "name": "D6",
          "midi": 86,
          "time": 172.2558139534617,
          "velocity": 0.07874015748031496,
          "duration": 0.05813953488370771
        },
        {
          "name": "C#5",
          "midi": 73,
          "time": 172.2790697674152,
          "velocity": 0.33070866141732286,
          "duration": 0.09302325581393234
        },
        {
          "name": "A3",
          "midi": 57,
          "time": 172.29069767439194,
          "velocity": 0.5354330708661418,
          "duration": 0.011627906976741542
        },
        {
          "name": "A#4",
          "midi": 70,
          "time": 172.29069767439194,
          "velocity": 0.2755905511811024,
          "duration": 0.0813953488371908
        },
        {
          "name": "G#3",
          "midi": 56,
          "time": 172.30232558136868,
          "velocity": 0.5748031496062992,
          "duration": 0.12790697674415696
        },
        {
          "name": "A5",
          "midi": 81,
          "time": 172.3372093022989,
          "velocity": 0.36220472440944884,
          "duration": 0.023255813953483084
        },
        {
          "name": "A#5",
          "midi": 82,
          "time": 172.36046511625239,
          "velocity": 0.3937007874015748,
          "duration": 0.10465116279067388
        },
        {
          "name": "A#4",
          "midi": 70,
          "time": 172.38372093020587,
          "velocity": 0.28346456692913385,
          "duration": 0.06976744186044925
        },
        {
          "name": "C#5",
          "midi": 73,
          "time": 172.38372093020587,
          "velocity": 0.25196850393700787,
          "duration": 0.05813953488370771
        },
        {
          "name": "G#5",
          "midi": 80,
          "time": 172.3953488371826,
          "velocity": 0.18110236220472442,
          "duration": 0.10465116279067388
        },
        {
          "name": "C#4",
          "midi": 61,
          "time": 172.40697674415935,
          "velocity": 0.3700787401574803,
          "duration": 0.04651162790696617
        },
        {
          "name": "G3",
          "midi": 55,
          "time": 172.43023255811283,
          "velocity": 0.3464566929133858,
          "duration": 0.034883720930224626
        },
        {
          "name": "G#4",
          "midi": 68,
          "time": 172.45348837206632,
          "velocity": 0.3464566929133858,
          "duration": 0.11627906976741542
        },
        {
          "name": "F5",
          "midi": 77,
          "time": 172.45348837206632,
          "velocity": 0.13385826771653545,
          "duration": 0.11627906976741542
        },
        {
          "name": "E6",
          "midi": 88,
          "time": 172.45348837206632,
          "velocity": 0.10236220472440945,
          "duration": 0.04651162790696617
        },
        {
          "name": "F3",
          "midi": 53,
          "time": 172.46511627904306,
          "velocity": 0.4015748031496063,
          "duration": 0.24418604651157239
        },
        {
          "name": "F#4",
          "midi": 66,
          "time": 172.46511627904306,
          "velocity": 0.28346456692913385,
          "duration": 0.023255813953483084
        },
        {
          "name": "C#6",
          "midi": 85,
          "time": 172.46511627904306,
          "velocity": 0.10236220472440945,
          "duration": 0.04651162790696617
        },
        {
          "name": "C4",
          "midi": 60,
          "time": 172.4767441860198,
          "velocity": 0.33070866141732286,
          "duration": 0.04651162790696617
        },
        {
          "name": "C#5",
          "midi": 73,
          "time": 172.48837209299654,
          "velocity": 0.3543307086614173,
          "duration": 0.09302325581393234
        },
        {
          "name": "A#5",
          "midi": 82,
          "time": 172.48837209299654,
          "velocity": 0.10236220472440945,
          "duration": 0.0813953488371908
        },
        {
          "name": "A#4",
          "midi": 70,
          "time": 172.49999999997328,
          "velocity": 0.2047244094488189,
          "duration": 0.06976744186044925
        },
        {
          "name": "C#4",
          "midi": 61,
          "time": 172.52325581392677,
          "velocity": 0.44881889763779526,
          "duration": 0.15116279069764005
        },
        {
          "name": "C6",
          "midi": 84,
          "time": 172.52325581392677,
          "velocity": 0.13385826771653545,
          "duration": 0.034883720930224626
        },
        {
          "name": "E5",
          "midi": 76,
          "time": 172.558139534857,
          "velocity": 0.23622047244094488,
          "duration": 0.034883720930224626
        },
        {
          "name": "D6",
          "midi": 86,
          "time": 172.558139534857,
          "velocity": 0.08661417322834646,
          "duration": 0.034883720930224626
        },
        {
          "name": "F#4",
          "midi": 66,
          "time": 172.56976744183373,
          "velocity": 0.25984251968503935,
          "duration": 0.034883720930224626
        },
        {
          "name": "F5",
          "midi": 77,
          "time": 172.58139534881047,
          "velocity": 0.4094488188976378,
          "duration": 0.2209302325580893
        },
        {
          "name": "A#5",
          "midi": 82,
          "time": 172.58139534881047,
          "velocity": 0.14173228346456693,
          "duration": 0.18604651162786467
        },
        {
          "name": "F4",
          "midi": 65,
          "time": 172.60465116276396,
          "velocity": 0.4409448818897638,
          "duration": 0.09302325581393234
        },
        {
          "name": "G#4",
          "midi": 68,
          "time": 172.60465116276396,
          "velocity": 0.2440944881889764,
          "duration": 0.034883720930224626
        },
        {
          "name": "F#6",
          "midi": 90,
          "time": 172.60465116276396,
          "velocity": 0.07086614173228346,
          "duration": 0.06976744186044925
        },
        {
          "name": "G#5",
          "midi": 80,
          "time": 172.62790697671744,
          "velocity": 0.3937007874015748,
          "duration": 0.20930232558134776
        },
        {
          "name": "A#4",
          "midi": 70,
          "time": 172.63953488369418,
          "velocity": 0.23622047244094488,
          "duration": 0.05813953488370771
        },
        {
          "name": "B5",
          "midi": 83,
          "time": 172.66279069764767,
          "velocity": 0.09448818897637795,
          "duration": 0.034883720930224626
        },
        {
          "name": "C4",
          "midi": 60,
          "time": 172.6744186046244,
          "velocity": 0.30708661417322836,
          "duration": 0.034883720930224626
        },
        {
          "name": "G#4",
          "midi": 68,
          "time": 172.6744186046244,
          "velocity": 0.3464566929133858,
          "duration": 0.11627906976741542
        },
        {
          "name": "D6",
          "midi": 86,
          "time": 172.6744186046244,
          "velocity": 0.13385826771653545,
          "duration": 0.05813953488370771
        },
        {
          "name": "F#4",
          "midi": 66,
          "time": 172.6976744185779,
          "velocity": 0.2755905511811024,
          "duration": 0.023255813953483084
        },
        {
          "name": "C#4",
          "midi": 61,
          "time": 172.70930232555463,
          "velocity": 0.2204724409448819,
          "duration": 0.04651162790696617
        },
        {
          "name": "C#5",
          "midi": 73,
          "time": 172.70930232555463,
          "velocity": 0.41732283464566927,
          "duration": 0.19767441860460622
        },
        {
          "name": "F4",
          "midi": 65,
          "time": 172.72093023253137,
          "velocity": 0.23622047244094488,
          "duration": 0.034883720930224626
        },
        {
          "name": "F3",
          "midi": 53,
          "time": 172.74418604648486,
          "velocity": 0.33070866141732286,
          "duration": 0.11627906976741542
        },
        {
          "name": "C#4",
          "midi": 61,
          "time": 172.76744186043834,
          "velocity": 0.4881889763779528,
          "duration": 0.15116279069764005
        },
        {
          "name": "F4",
          "midi": 65,
          "time": 172.77906976741508,
          "velocity": 0.4094488188976378,
          "duration": 0.1627906976743816
        },
        {
          "name": "A#4",
          "midi": 70,
          "time": 172.77906976741508,
          "velocity": 0.2125984251968504,
          "duration": 0.05813953488370771
        },
        {
          "name": "F#5",
          "midi": 78,
          "time": 172.77906976741508,
          "velocity": 0.2204724409448819,
          "duration": 0.04651162790696617
        },
        {
          "name": "G#4",
          "midi": 68,
          "time": 172.8139534883453,
          "velocity": 0.2992125984251969,
          "duration": 0.09302325581393234
        },
        {
          "name": "F#3",
          "midi": 54,
          "time": 172.86046511625227,
          "velocity": 0.1732283464566929,
          "duration": 0.04651162790696617
        },
        {
          "name": "F5",
          "midi": 77,
          "time": 172.8953488371825,
          "velocity": 0.49606299212598426,
          "duration": 0.6511627906975548
        },
        {
          "name": "F3",
          "midi": 53,
          "time": 172.90697674415924,
          "velocity": 0.2125984251968504,
          "duration": 0.0813953488371908
        },
        {
          "name": "C4",
          "midi": 60,
          "time": 172.91860465113598,
          "velocity": 0.3937007874015748,
          "duration": 0.023255813953483084
        },
        {
          "name": "G#4",
          "midi": 68,
          "time": 172.91860465113598,
          "velocity": 0.28346456692913385,
          "duration": 0.10465116279067388
        },
        {
          "name": "C#5",
          "midi": 73,
          "time": 172.93023255811272,
          "velocity": 0.31496062992125984,
          "duration": 0.10465116279067388
        },
        {
          "name": "C#4",
          "midi": 61,
          "time": 172.94186046508946,
          "velocity": 0.4881889763779528,
          "duration": 0.04651162790696617
        },
        {
          "name": "F#4",
          "midi": 66,
          "time": 172.94186046508946,
          "velocity": 0.2677165354330709,
          "duration": 0.023255813953483084
        },
        {
          "name": "F4",
          "midi": 65,
          "time": 172.9767441860197,
          "velocity": 0.31496062992125984,
          "duration": 0.05813953488370771
        },
        {
          "name": "C#4",
          "midi": 61,
          "time": 172.99999999997317,
          "velocity": 0.4409448818897638,
          "duration": 0.0813953488371908
        },
        {
          "name": "F#5",
          "midi": 78,
          "time": 172.99999999997317,
          "velocity": 0.25196850393700787,
          "duration": 0.034883720930224626
        },
        {
          "name": "G#5",
          "midi": 80,
          "time": 172.99999999997317,
          "velocity": 0.4015748031496063,
          "duration": 0.11627906976741542
        },
        {
          "name": "A#4",
          "midi": 70,
          "time": 173.02325581392665,
          "velocity": 0.12598425196850394,
          "duration": 0.034883720930224626
        },
        {
          "name": "F3",
          "midi": 53,
          "time": 173.0348837209034,
          "velocity": 0.4094488188976378,
          "duration": 0.4069767441859824
        },
        {
          "name": "A4",
          "midi": 69,
          "time": 173.04651162788014,
          "velocity": 0.14960629921259844,
          "duration": 0.034883720930224626
        },
        {
          "name": "D4",
          "midi": 62,
          "time": 173.08139534881036,
          "velocity": 0.31496062992125984,
          "duration": 0.034883720930224626
        },
        {
          "name": "G#4",
          "midi": 68,
          "time": 173.08139534881036,
          "velocity": 0.3228346456692913,
          "duration": 0.0813953488371908
        },
        {
          "name": "F#4",
          "midi": 66,
          "time": 173.10465116276384,
          "velocity": 0.2283464566929134,
          "duration": 0.034883720930224626
        },
        {
          "name": "C#4",
          "midi": 61,
          "time": 173.11627906974059,
          "velocity": 0.5511811023622047,
          "duration": 0.20930232558137618
        },
        {
          "name": "G#4",
          "midi": 68,
          "time": 173.1744186046243,
          "velocity": 0.30708661417322836,
          "duration": 0.1046511627907023
        },
        {
          "name": "A4",
          "midi": 69,
          "time": 173.279069767415,
          "velocity": 0.2283464566929134,
          "duration": 0.023255813953483084
        },
        {
          "name": "G#4",
          "midi": 68,
          "time": 173.30232558136848,
          "velocity": 0.4251968503937008,
          "duration": 0.34883720930224626
        },
        {
          "name": "C4",
          "midi": 60,
          "time": 173.32558139532196,
          "velocity": 0.5354330708661418,
          "duration": 0.011627906976741542
        },
        {
          "name": "D6",
          "midi": 86,
          "time": 173.32558139532196,
          "velocity": 0.07874015748031496,
          "duration": 0.034883720930224626
        },
        {
          "name": "A#3",
          "midi": 58,
          "time": 173.3372093022987,
          "velocity": 0.6062992125984252,
          "duration": 0.11627906976741542
        },
        {
          "name": "C5",
          "midi": 72,
          "time": 173.38372093020567,
          "velocity": 0.15748031496062992,
          "duration": 0.034883720930224626
        },
        {
          "name": "C#5",
          "midi": 73,
          "time": 173.4186046511359,
          "velocity": 0.4251968503937008,
          "duration": 0.15116279069764005
        },
        {
          "name": "G5",
          "midi": 79,
          "time": 173.43023255811264,
          "velocity": 0.25984251968503935,
          "duration": 0.023255813953483084
        },
        {
          "name": "A3",
          "midi": 57,
          "time": 173.45348837206612,
          "velocity": 0.5118110236220472,
          "duration": 0.011627906976741542
        },
        {
          "name": "G3",
          "midi": 55,
          "time": 173.46511627904286,
          "velocity": 0.5118110236220472,
          "duration": 0.023255813953483084
        },
        {
          "name": "G#3",
          "midi": 56,
          "time": 173.48837209299634,
          "velocity": 0.5669291338582677,
          "duration": 0.23255813953485927
        },
        {
          "name": "C#4",
          "midi": 61,
          "time": 173.52325581392657,
          "velocity": 0.3543307086614173,
          "duration": 0.2674418604650839
        },
        {
          "name": "E5",
          "midi": 76,
          "time": 173.54651162788005,
          "velocity": 0.3228346456692913,
          "duration": 0.023255813953483084
        },
        {
          "name": "F5",
          "midi": 77,
          "time": 173.5581395348568,
          "velocity": 0.49606299212598426,
          "duration": 0.2441860465116008
        },
        {
          "name": "F4",
          "midi": 65,
          "time": 173.59302325578702,
          "velocity": 0.33070866141732286,
          "duration": 0.16279069767441
        },
        {
          "name": "G#3",
          "midi": 56,
          "time": 173.73255813950794,
          "velocity": 0.4015748031496063,
          "duration": 0.023255813953483084
        },
        {
          "name": "G3",
          "midi": 55,
          "time": 173.75581395346143,
          "velocity": 0.2992125984251969,
          "duration": 0.023255813953483084
        },
        {
          "name": "F#4",
          "midi": 66,
          "time": 173.75581395346143,
          "velocity": 0.2755905511811024,
          "duration": 0.023255813953483084
        },
        {
          "name": "A#4",
          "midi": 70,
          "time": 173.76744186043817,
          "velocity": 0.41732283464566927,
          "duration": 0.31395348837202164
        },
        {
          "name": "C#5",
          "midi": 73,
          "time": 173.76744186043817,
          "velocity": 0.36220472440944884,
          "duration": 0.4651162790696901
        },
        {
          "name": "F3",
          "midi": 53,
          "time": 173.7790697674149,
          "velocity": 0.23622047244094488,
          "duration": 0.04651162790696617
        },
        {
          "name": "D4",
          "midi": 62,
          "time": 173.79069767439165,
          "velocity": 0.25984251968503935,
          "duration": 0.023255813953483084
        },
        {
          "name": "F#4",
          "midi": 66,
          "time": 173.79069767439165,
          "velocity": 0.33858267716535434,
          "duration": 0.023255813953483084
        },
        {
          "name": "C#4",
          "midi": 61,
          "time": 173.81395348834513,
          "velocity": 0.5275590551181102,
          "duration": 0.5116279069766847
        },
        {
          "name": "F4",
          "midi": 65,
          "time": 173.81395348834513,
          "velocity": 0.2440944881889764,
          "duration": 0.023255813953483084
        },
        {
          "name": "F#3",
          "midi": 54,
          "time": 173.82558139532188,
          "velocity": 0.33070866141732286,
          "duration": 0.10465116279067388
        },
        {
          "name": "G#5",
          "midi": 80,
          "time": 173.83720930229862,
          "velocity": 0.09448818897637795,
          "duration": 0.05813953488370771
        },
        {
          "name": "F5",
          "midi": 77,
          "time": 173.84883720927536,
          "velocity": 0.2047244094488189,
          "duration": 0.034883720930224626
        },
        {
          "name": "F4",
          "midi": 65,
          "time": 173.9186046511358,
          "velocity": 0.3228346456692913,
          "duration": 0.023255813953483084
        },
        {
          "name": "G3",
          "midi": 55,
          "time": 173.93023255811255,
          "velocity": 0.25196850393700787,
          "duration": 0.023255813953483084
        },
        {
          "name": "F#4",
          "midi": 66,
          "time": 173.9418604650893,
          "velocity": 0.2677165354330709,
          "duration": 0.034883720930224626
        },
        {
          "name": "G#3",
          "midi": 56,
          "time": 173.95348837206603,
          "velocity": 0.2125984251968504,
          "duration": 0.05813953488370771
        },
        {
          "name": "G#5",
          "midi": 80,
          "time": 173.95348837206603,
          "velocity": 0.1889763779527559,
          "duration": 0.04651162790696617
        },
        {
          "name": "F4",
          "midi": 65,
          "time": 173.97674418601952,
          "velocity": 0.15748031496062992,
          "duration": 0.04651162790696617
        },
        {
          "name": "F#4",
          "midi": 66,
          "time": 174.02325581392648,
          "velocity": 0.41732283464566927,
          "duration": 0.1860465116278931
        },
        {
          "name": "F5",
          "midi": 77,
          "time": 174.04651162787997,
          "velocity": 0.2204724409448819,
          "duration": 0.06976744186044925
        },
        {
          "name": "F#3",
          "midi": 54,
          "time": 174.0813953488102,
          "velocity": 0.3858267716535433,
          "duration": 0.3720930232558146
        },
        {
          "name": "A#4",
          "midi": 70,
          "time": 174.11627906974041,
          "velocity": 0.3779527559055118,
          "duration": 0.6744186046511516
        },
        {
          "name": "F#5",
          "midi": 78,
          "time": 174.20930232555438,
          "velocity": 0.3543307086614173,
          "duration": 0.16279069767441
        },
        {
          "name": "F#4",
          "midi": 66,
          "time": 174.22093023253112,
          "velocity": 0.3858267716535433,
          "duration": 0.15116279069766847
        },
        {
          "name": "C#4",
          "midi": 61,
          "time": 174.3488372092753,
          "velocity": 0.4330708661417323,
          "duration": 0.2906976744185954
        },
        {
          "name": "F#3",
          "midi": 54,
          "time": 174.46511627904275,
          "velocity": 0.3464566929133858,
          "duration": 0.5465116279069093
        },
        {
          "name": "F#4",
          "midi": 66,
          "time": 174.56976744183345,
          "velocity": 0.44881889763779526,
          "duration": 0.4883720930231732
        },
        {
          "name": "G#5",
          "midi": 80,
          "time": 174.61627906974041,
          "velocity": 0.14960629921259844,
          "duration": 0.034883720930224626
        },
        {
          "name": "D#4",
          "midi": 63,
          "time": 174.65116279067064,
          "velocity": 0.2677165354330709,
          "duration": 0.034883720930224626
        },
        {
          "name": "C#4",
          "midi": 61,
          "time": 174.66279069764738,
          "velocity": 0.3700787401574803,
          "duration": 0.27906976744182543
        },
        {
          "name": "C#5",
          "midi": 73,
          "time": 174.75581395346134,
          "velocity": 0.4015748031496063,
          "duration": 0.24418604651157239
        },
        {
          "name": "A#4",
          "midi": 70,
          "time": 174.8023255813683,
          "velocity": 0.3228346456692913,
          "duration": 0.29069767441853855
        },
        {
          "name": "E5",
          "midi": 76,
          "time": 174.84883720927527,
          "velocity": 0.18110236220472442,
          "duration": 0.034883720930224626
        },
        {
          "name": "C#4",
          "midi": 61,
          "time": 174.9999999999729,
          "velocity": 0.25196850393700787,
          "duration": 0.06976744186044925
        },
        {
          "name": "F4",
          "midi": 65,
          "time": 175.05813953485662,
          "velocity": 0.28346456692913385,
          "duration": 0.04651162790696617
        },
        {
          "name": "G#4",
          "midi": 68,
          "time": 175.06976744183336,
          "velocity": 0.4330708661417323,
          "duration": 0.5348837209301394
        },
        {
          "name": "G3",
          "midi": 55,
          "time": 175.0813953488101,
          "velocity": 0.30708661417322836,
          "duration": 0.023255813953483084
        },
        {
          "name": "C#4",
          "midi": 61,
          "time": 175.0813953488101,
          "velocity": 0.4015748031496063,
          "duration": 0.1395348837208985
        },
        {
          "name": "G#3",
          "midi": 56,
          "time": 175.1046511627636,
          "velocity": 0.2440944881889764,
          "duration": 0.034883720930224626
        },
        {
          "name": "F4",
          "midi": 65,
          "time": 175.11627906974033,
          "velocity": 0.4094488188976378,
          "duration": 0.41860465116272394
        },
        {
          "name": "A#4",
          "midi": 70,
          "time": 175.11627906974033,
          "velocity": 0.18110236220472442,
          "duration": 0.06976744186044925
        },
        {
          "name": "D#5",
          "midi": 75,
          "time": 175.12790697671707,
          "velocity": 0.11811023622047244,
          "duration": 0.05813953488370771
        },
        {
          "name": "G3",
          "midi": 55,
          "time": 175.1395348836938,
          "velocity": 0.16535433070866143,
          "duration": 0.034883720930224626
        },
        {
          "name": "G#3",
          "midi": 56,
          "time": 175.17441860462404,
          "velocity": 0.28346456692913385,
          "duration": 0.1627906976743816
        },
        {
          "name": "D#5",
          "midi": 75,
          "time": 175.19767441857752,
          "velocity": 0.10236220472440945,
          "duration": 0.0813953488371908
        },
        {
          "name": "C#4",
          "midi": 61,
          "time": 175.2441860464845,
          "velocity": 0.3464566929133858,
          "duration": 0.3488372093022747
        },
        {
          "name": "A#4",
          "midi": 70,
          "time": 175.29069767439145,
          "velocity": 0.16535433070866143,
          "duration": 0.034883720930224626
        },
        {
          "name": "C#5",
          "midi": 73,
          "time": 175.34883720927516,
          "velocity": 0.36220472440944884,
          "duration": 0.3255813953487916
        },
        {
          "name": "G#3",
          "midi": 56,
          "time": 175.39534883718213,
          "velocity": 0.30708661417322836,
          "duration": 0.9767441860464032
        },
        {
          "name": "D#5",
          "midi": 75,
          "time": 175.4186046511356,
          "velocity": 0.11023622047244094,
          "duration": 0.034883720930224626
        },
        {
          "name": "C#4",
          "midi": 61,
          "time": 175.6046511627635,
          "velocity": 0.18110236220472442,
          "duration": 0.04651162790696617
        },
        {
          "name": "F4",
          "midi": 65,
          "time": 175.6046511627635,
          "velocity": 0.31496062992125984,
          "duration": 0.10465116279067388
        },
        {
          "name": "C5",
          "midi": 72,
          "time": 175.67441860462395,
          "velocity": 0.07086614173228346,
          "duration": 0.04651162790696617
        },
        {
          "name": "C#4",
          "midi": 61,
          "time": 175.69767441857744,
          "velocity": 0.44881889763779526,
          "duration": 0.16279069767441
        },
        {
          "name": "G#4",
          "midi": 68,
          "time": 175.69767441857744,
          "velocity": 0.3543307086614173,
          "duration": 0.05813953488370771
        },
        {
          "name": "F4",
          "midi": 65,
          "time": 175.75581395346114,
          "velocity": 0.36220472440944884,
          "duration": 0.17441860465115155
        },
        {
          "name": "D#5",
          "midi": 75,
          "time": 175.77906976741463,
          "velocity": 0.08661417322834646,
          "duration": 0.1046511627907023
        },
        {
          "name": "C#4",
          "midi": 61,
          "time": 175.8720930232286,
          "velocity": 0.28346456692913385,
          "duration": 0.12790697674415696
        },
        {
          "name": "G#4",
          "midi": 68,
          "time": 175.89534883718207,
          "velocity": 0.3700787401574803,
          "duration": 0.05813953488370771
        },
        {
          "name": "F4",
          "midi": 65,
          "time": 175.94186046508904,
          "velocity": 0.2204724409448819,
          "duration": 0.034883720930224626
        },
        {
          "name": "G#4",
          "midi": 68,
          "time": 175.96511627904252,
          "velocity": 0.33858267716535434,
          "duration": 0.36046511627904465
        },
        {
          "name": "D#5",
          "midi": 75,
          "time": 175.96511627904252,
          "velocity": 0.07086614173228346,
          "duration": 0.034883720930224626
        },
        {
          "name": "F4",
          "midi": 65,
          "time": 176.01162790694949,
          "velocity": 0.25196850393700787,
          "duration": 0.09302325581396076
        },
        {
          "name": "C#4",
          "midi": 61,
          "time": 176.03488372090297,
          "velocity": 0.30708661417322836,
          "duration": 0.33720930232556157
        },
        {
          "name": "F4",
          "midi": 65,
          "time": 176.1162790697402,
          "velocity": 0.12598425196850394,
          "duration": 0.04651162790696617
        },
        {
          "name": "F5",
          "midi": 77,
          "time": 176.16279069764715,
          "velocity": 0.1968503937007874,
          "duration": 0.13953488372092693
        },
        {
          "name": "F4",
          "midi": 65,
          "time": 176.1744186046239,
          "velocity": 0.2204724409448819,
          "duration": 0.06976744186047767
        },
        {
          "name": "F4",
          "midi": 65,
          "time": 176.31395348834482,
          "velocity": 0.2440944881889764,
          "duration": 0.05813953488370771
        },
        {
          "name": "C4",
          "midi": 60,
          "time": 176.37209302322853,
          "velocity": 0.29133858267716534,
          "duration": 0.09302325581393234
        },
        {
          "name": "G#4",
          "midi": 68,
          "time": 176.37209302322853,
          "velocity": 0.36220472440944884,
          "duration": 0.06976744186044925
        },
        {
          "name": "D#4",
          "midi": 63,
          "time": 176.38372093020527,
          "velocity": 0.23622047244094488,
          "duration": 0.06976744186044925
        },
        {
          "name": "G#3",
          "midi": 56,
          "time": 176.4186046511355,
          "velocity": 0.14960629921259844,
          "duration": 0.09302325581393234
        },
        {
          "name": "D#4",
          "midi": 63,
          "time": 176.4767441860192,
          "velocity": 0.3937007874015748,
          "duration": 0.34883720930224626
        },
        {
          "name": "G#4",
          "midi": 68,
          "time": 176.4999999999727,
          "velocity": 0.30708661417322836,
          "duration": 0.5348837209301109
        },
        {
          "name": "C5",
          "midi": 72,
          "time": 176.5581395348564,
          "velocity": 0.09448818897637795,
          "duration": 0.05813953488370771
        },
        {
          "name": "G#3",
          "midi": 56,
          "time": 176.59302325578662,
          "velocity": 0.1732283464566929,
          "duration": 0.0813953488371908
        },
        {
          "name": "C5",
          "midi": 72,
          "time": 176.66279069764707,
          "velocity": 0.15748031496062992,
          "duration": 0.0813953488371908
        },
        {
          "name": "G#3",
          "midi": 56,
          "time": 176.6976744185773,
          "velocity": 0.2755905511811024,
          "duration": 0.2209302325580893
        },
        {
          "name": "C4",
          "midi": 60,
          "time": 176.77906976741448,
          "velocity": 0.2677165354330709,
          "duration": 0.09302325581393234
        },
        {
          "name": "D#4",
          "midi": 63,
          "time": 176.87209302322842,
          "velocity": 0.3700787401574803,
          "duration": 0.09302325581393234
        },
        {
          "name": "C5",
          "midi": 72,
          "time": 176.88372093020516,
          "velocity": 0.11811023622047244,
          "duration": 0.09302325581393234
        },
        {
          "name": "C4",
          "midi": 60,
          "time": 176.93023255811212,
          "velocity": 0.2992125984251969,
          "duration": 0.09302325581393234
        },
        {
          "name": "D#4",
          "midi": 63,
          "time": 176.99999999997257,
          "velocity": 0.1889763779527559,
          "duration": 0.09302325581393234
        },
        {
          "name": "G#3",
          "midi": 56,
          "time": 177.01162790694931,
          "velocity": 0.23622047244094488,
          "duration": 0.09302325581393234
        },
        {
          "name": "C4",
          "midi": 60,
          "time": 177.05813953485628,
          "velocity": 0.3700787401574803,
          "duration": 0.16279069767441
        },
        {
          "name": "G#4",
          "midi": 68,
          "time": 177.05813953485628,
          "velocity": 0.30708661417322836,
          "duration": 0.05813953488370771
        },
        {
          "name": "D#4",
          "midi": 63,
          "time": 177.12790697671673,
          "velocity": 0.33858267716535434,
          "duration": 0.16279069767441
        },
        {
          "name": "G#4",
          "midi": 68,
          "time": 177.12790697671673,
          "velocity": 0.33070866141732286,
          "duration": 0.08139534883721922
        },
        {
          "name": "G#3",
          "midi": 56,
          "time": 177.1976744185772,
          "velocity": 0.1889763779527559,
          "duration": 0.0813953488371908
        },
        {
          "name": "C4",
          "midi": 60,
          "time": 177.25581395346092,
          "velocity": 0.11023622047244094,
          "duration": 0.034883720930224626
        },
        {
          "name": "G#4",
          "midi": 68,
          "time": 177.26744186043766,
          "velocity": 0.25196850393700787,
          "duration": 0.15116279069766847
        },
        {
          "name": "G#3",
          "midi": 56,
          "time": 177.31395348834462,
          "velocity": 0.1968503937007874,
          "duration": 0.09302325581396076
        },
        {
          "name": "D#4",
          "midi": 63,
          "time": 177.31395348834462,
          "velocity": 0.28346456692913385,
          "duration": 0.15116279069766847
        },
        {
          "name": "C5",
          "midi": 72,
          "time": 177.3837209302051,
          "velocity": 0.08661417322834646,
          "duration": 0.05813953488370771
        },
        {
          "name": "G#3",
          "midi": 56,
          "time": 177.43023255811207,
          "velocity": 0.25984251968503935,
          "duration": 0.13953488372092693
        },
        {
          "name": "C4",
          "midi": 60,
          "time": 177.4651162790423,
          "velocity": 0.2677165354330709,
          "duration": 0.20930232558137618
        },
        {
          "name": "D#4",
          "midi": 63,
          "time": 177.48837209299577,
          "velocity": 0.25984251968503935,
          "duration": 0.09302325581396076
        },
        {
          "name": "G#3",
          "midi": 56,
          "time": 177.59302325578648,
          "velocity": 0.11023622047244094,
          "duration": 0.04651162790696617
        },
        {
          "name": "D#4",
          "midi": 63,
          "time": 177.59302325578648,
          "velocity": 0.28346456692913385,
          "duration": 0.09302325581393234
        },
        {
          "name": "G#4",
          "midi": 68,
          "time": 177.59302325578648,
          "velocity": 0.2440944881889764,
          "duration": 0.11627906976741542
        },
        {
          "name": "C4",
          "midi": 60,
          "time": 177.6860465116004,
          "velocity": 0.09448818897637795,
          "duration": 0.05813953488370771
        },
        {
          "name": "D#4",
          "midi": 63,
          "time": 177.72093023253063,
          "velocity": 0.08661417322834646,
          "duration": 0.05813953488370771
        },
        {
          "name": "G#4",
          "midi": 68,
          "time": 177.74418604648412,
          "velocity": 0.2204724409448819,
          "duration": 0.09302325581393234
        },
        {
          "name": "G#4",
          "midi": 68,
          "time": 177.87209302322827,
          "velocity": 0.14960629921259844,
          "duration": 0.1046511627907023
        },
        {
          "name": "G#4",
          "midi": 68,
          "time": 178.02325581392594,
          "velocity": 0.11811023622047244,
          "duration": 0.22093023255814614
        }
      ],
      "controlChanges": {},
      "id": 0,
      "instrumentNumber": 0,
      "instrument": "acoustic grand piano",
      "instrumentFamily": "piano",
      "channelNumber": 0,
      "isPercussion": false
    }
  ]
}